<?xml version='1.0' encoding='utf-8'?>
<svg xmlns="http://www.w3.org/2000/svg" enable-background="new 0 0 900 600" height="346.14" id="Layer_1" version="1.1" viewBox="0 0 686.02 346.14" width="686.02">
    <g id="WellWatered-Predawn">
        <path d="m154.85 72.375s2.565-4.593 5.351-6.178c2.786-1.586 4.358-2.428 6.454-0.938 1.765 1.103 6.454 4.247 6.454 4.247-0.661-0.717-2.343-2.055-3.088-2.648-0.745-0.592-0.938-1.435-0.551-3.641l0.165-1.545c0.828 0.718 3.917 3.2 4.083 4.192-0.055 0.828 0.276 1.821 0.772 2.317 0.166-0.882 0.387-1.213 0.387-1.213 0.496 0.937 2.041 1.931 1.82 3.365 0.385-0.221 1.489-1.048 1.379-3.53 0.11-1.544 1.269-3.42 2.869-3.806 1.103-0.166 2.579 0.124 2.261 1.655-0.317 1.53-2.399 2.951-3.365 3.751s-0.883 1.103-0.883 1.103c0.883-0.552 3.255-1.6 3.696-1.655 0.662-0.772 3.034-2.924 6.344-3.144 1.545 0.11 4.744 0.827 5.075 0.993-0.662 0.386-2.151 2.261-2.373 2.647 0.663 0.607 2.965 2.635 3.476 3.144 0.51 0.511 2.979 1.379 3.31 1.489-0.386 0.387-6.303 1.573-8.55 0.222-2.248-1.352-4.013-4.193-7.723-3.476-3.71 0.718-4.799 1.655-5.186 1.985 0 0.332 0.166 0.497 0.662 0.332 0.827-0.221 4.027-1.214 6.013 1.324 0.607 0.882 0.938 1.158 0.938 1.158-0.551 0.276-3.144 2.041-5.295-0.166-0.717-0.882-1.324-1.599-2.096-1.544 0.441 0.662 1.6 2.316 2.151 2.647 1.158 0.332 6.62 1.711 7.116 3.972 0.441 1.766 0.606 2.759 0.441 3.421-0.828 0.441-3.806 2.151-6.951-1.765-0.938-1.379-1.434-2.207-1.599-4.799-0.607-1.213-0.883-1.93-1.986-2.868-0.552-0.166-1.379 0-1.379 0-0.882 0.166-2.096 0.055-3.144 1.489-1.159 1.159-3.586 4.302-7.447 3.917-1.269-0.386-3.475-1.766-2.593-3.862 0.662-1.214 1.6-2.303 2.648-2.979s3.365-0.993 6.343 0.11c1.6 0.275 3.972 0.552 3.972 0.552-0.606-0.552-2.317-2.814-6.51-3.31-1.985 0-3.861 0.166-6.399 1.875-1.269 0.718-1.765 1.103-4.248 1.103-1.491-0.108-2.097-0.108-2.814 0.057" fill="#ffffff" id="path88" stroke="#000000" stroke-miterlimit="10" stroke-width=".70711" />
        <path d="m178.5 102.88c-0.157 1.884-0.689 4.579 0.196 5.848-1.476-1.324-0.82-2.062-1.13-4.544 0.021-2.42-3.124-5.109-3.331-8.957-0.119-2.205 1.19-3.951 1.774-4.703 0.849-1.088 1.926-2.869 0.252-4.744-1.575-1.821-4.788-3.972-4.493-6.123 0.443-1.904 2.103-2.814 2.595-3.917 0.478-0.799 0.061-2.229 0.061-2.229 1.92-0.31 2.521 0.412 2.521 0.412 0.248 0.662 0.047 2.838-0.908 3.638-0.691 0.53-2.328 2.096-1.638 3.365 0.58 0.979 3.596 3.46 4.394 4.633 0.943 1.579 0.645 2.423 0.198 3.358-0.446 0.935-0.807 2.151-2.378 4.51-2.107 3.458 1.883 6.143 1.887 9.453" fill="#ffffff" id="path91" stroke="#000000" stroke-miterlimit="10" stroke-width=".70711" />
    </g>
    <g id="WellWatered-Midday">
        <path d="m226.52 72.375s2.565-4.593 5.351-6.178c2.785-1.586 4.358-2.428 6.454-0.938 1.765 1.103 6.454 4.247 6.454 4.247-0.661-0.717-2.344-2.055-3.089-2.648-0.745-0.592-0.938-1.435-0.551-3.641l0.165-1.545c0.828 0.718 3.917 3.2 4.082 4.192-0.056 0.828 0.276 1.821 0.772 2.317 0.166-0.882 0.387-1.213 0.387-1.213 0.496 0.937 2.041 1.931 1.82 3.365 0.386-0.221 1.489-1.048 1.379-3.53 0.11-1.544 1.268-3.42 2.868-3.806 1.104-0.166 2.579 0.124 2.261 1.655-0.317 1.53-2.399 2.951-3.365 3.751s-0.883 1.103-0.883 1.103c0.883-0.552 3.255-1.6 3.696-1.655 0.662-0.772 3.034-2.924 6.344-3.144 1.545 0.11 4.744 0.827 5.075 0.993-0.663 0.386-2.151 2.261-2.373 2.647 0.663 0.607 2.965 2.635 3.476 3.144 0.511 0.511 2.979 1.379 3.31 1.489-0.386 0.387-6.302 1.573-8.55 0.222-2.248-1.352-4.013-4.193-7.723-3.476-3.709 0.718-4.799 1.655-5.186 1.985 0 0.332 0.166 0.497 0.662 0.332 0.828-0.221 4.027-1.214 6.013 1.324 0.607 0.882 0.938 1.158 0.938 1.158-0.552 0.276-3.145 2.041-5.296-0.166-0.717-0.882-1.324-1.599-2.096-1.544 0.441 0.662 1.6 2.316 2.151 2.647 1.158 0.332 6.619 1.711 7.116 3.972 0.441 1.766 0.607 2.759 0.441 3.421-0.827 0.441-3.806 2.151-6.95-1.765-0.938-1.379-1.434-2.207-1.6-4.799-0.606-1.213-0.883-1.93-1.985-2.868-0.552-0.166-1.38 0-1.38 0-0.883 0.166-2.096 0.055-3.144 1.489-1.159 1.159-3.585 4.302-7.447 3.917-1.268-0.386-3.475-1.766-2.592-3.862 0.662-1.214 1.6-2.303 2.647-2.979 1.048-0.676 3.365-0.993 6.344 0.11 1.6 0.275 3.972 0.552 3.972 0.552-0.606-0.552-2.317-2.814-6.509-3.31-1.986 0-3.862 0.166-6.399 1.875-1.269 0.718-1.765 1.103-4.248 1.103-1.488-0.108-2.095-0.108-2.812 0.057" fill="#ffffff" id="path95" stroke="#000000" stroke-miterlimit="10" stroke-width=".70711" />
        <path d="m250.17 102.88c-0.157 1.884-0.689 4.579 0.196 5.848-1.477-1.324-0.82-2.062-1.13-4.544 0.021-2.42-3.123-5.109-3.331-8.957-0.119-2.205 1.189-3.951 1.775-4.703 0.848-1.088 1.925-2.869 0.251-4.744-1.575-1.821-4.788-3.972-4.493-6.123 0.444-1.904 2.103-2.814 2.595-3.917 0.478-0.799 0.062-2.229 0.062-2.229 1.919-0.31 2.521 0.412 2.521 0.412 0.248 0.662 0.047 2.838-0.909 3.638-0.69 0.53-2.327 2.096-1.638 3.365 0.58 0.979 3.597 3.46 4.395 4.633 0.943 1.579 0.644 2.423 0.198 3.358s-0.807 2.151-2.379 4.51c-2.106 3.458 1.884 6.143 1.887 9.453" fill="#ffffff" id="path98" stroke="#000000" stroke-miterlimit="10" stroke-width=".70711" />
    </g>
    <g id="WellWatered-LateDay">
        <path d="m298.18 72.375s2.566-4.593 5.351-6.178c2.786-1.586 4.358-2.428 6.454-0.938 1.765 1.103 6.454 4.247 6.454 4.247-0.662-0.717-2.344-2.055-3.089-2.648-0.745-0.592-0.938-1.435-0.552-3.641l0.165-1.545c0.828 0.718 3.917 3.2 4.083 4.192-0.056 0.828 0.276 1.821 0.772 2.317 0.166-0.882 0.387-1.213 0.387-1.213 0.496 0.937 2.04 1.931 1.82 3.365 0.386-0.221 1.49-1.048 1.379-3.53 0.11-1.544 1.269-3.42 2.869-3.806 1.103-0.166 2.578 0.124 2.261 1.655-0.317 1.53-2.399 2.951-3.365 3.751-0.965 0.8-0.882 1.103-0.882 1.103 0.882-0.552 3.255-1.6 3.695-1.655 0.662-0.772 3.035-2.924 6.345-3.144 1.544 0.11 4.743 0.827 5.074 0.993-0.662 0.386-2.151 2.261-2.372 2.647 0.662 0.607 2.965 2.635 3.476 3.144 0.51 0.511 2.979 1.379 3.31 1.489-0.386 0.387-6.303 1.573-8.55 0.222-2.249-1.352-4.013-4.193-7.723-3.476-3.71 0.718-4.8 1.655-5.186 1.985 0 0.332 0.166 0.497 0.662 0.332 0.828-0.221 4.027-1.214 6.013 1.324 0.606 0.882 0.937 1.158 0.937 1.158-0.551 0.276-3.144 2.041-5.295-0.166-0.717-0.882-1.323-1.599-2.096-1.544 0.441 0.662 1.6 2.316 2.15 2.647 1.159 0.332 6.62 1.711 7.117 3.972 0.44 1.766 0.606 2.759 0.44 3.421-0.827 0.441-3.806 2.151-6.95-1.765-0.938-1.379-1.435-2.207-1.6-4.799-0.606-1.213-0.882-1.93-1.986-2.868-0.552-0.166-1.379 0-1.379 0-0.883 0.166-2.096 0.055-3.145 1.489-1.158 1.159-3.585 4.302-7.447 3.917-1.268-0.386-3.475-1.766-2.592-3.862 0.662-1.214 1.6-2.303 2.648-2.979s3.365-0.993 6.343 0.11c1.6 0.275 3.973 0.552 3.973 0.552-0.607-0.552-2.317-2.814-6.51-3.31-1.985 0-3.862 0.166-6.399 1.875-1.269 0.718-1.765 1.103-4.247 1.103-1.489-0.108-2.096-0.108-2.813 0.057" fill="#ffffff" id="path102" stroke="#000000" stroke-miterlimit="10" stroke-width=".70711" />
        <path d="m321.84 102.88c-0.158 1.884-0.689 4.579 0.196 5.848-1.477-1.324-0.821-2.062-1.131-4.544 0.021-2.42-3.123-5.109-3.33-8.957-0.12-2.205 1.189-3.951 1.774-4.703 0.848-1.088 1.925-2.869 0.251-4.744-1.575-1.821-4.788-3.972-4.492-6.123 0.443-1.904 2.103-2.814 2.595-3.917 0.478-0.799 0.062-2.229 0.062-2.229 1.919-0.31 2.521 0.412 2.521 0.412 0.248 0.662 0.047 2.838-0.909 3.638-0.691 0.53-2.327 2.096-1.637 3.365 0.58 0.979 3.596 3.46 4.394 4.633 0.943 1.579 0.645 2.423 0.199 3.358s-0.807 2.151-2.379 4.51c-2.107 3.458 1.883 6.143 1.886 9.453" fill="#ffffff" id="path105" stroke="#000000" stroke-miterlimit="10" stroke-width=".70711" />
    </g>
    <g id="WellWatered-Midnight">
        <path d="m369.85 72.375s2.566-4.593 5.352-6.178c2.785-1.586 4.357-2.428 6.454-0.938 1.765 1.103 6.454 4.247 6.454 4.247-0.662-0.717-2.344-2.055-3.089-2.648-0.745-0.592-0.937-1.435-0.551-3.641l0.166-1.545c0.827 0.718 3.917 3.2 4.082 4.192-0.055 0.828 0.276 1.821 0.772 2.317 0.166-0.882 0.387-1.213 0.387-1.213 0.496 0.937 2.041 1.931 1.82 3.365 0.386-0.221 1.489-1.048 1.376-3.53 0.11-1.544 1.271-3.42 2.868-3.806 1.104-0.166 2.58 0.124 2.264 1.655-0.317 1.53-2.398 2.951-3.364 3.751s-0.883 1.103-0.883 1.103c0.883-0.552 3.255-1.6 3.693-1.655 0.662-0.772 3.034-2.924 6.347-3.144 1.544 0.11 4.741 0.827 5.072 0.993-0.659 0.386-2.148 2.261-2.372 2.647 0.661 0.607 2.967 2.635 3.478 3.144 0.511 0.511 2.979 1.379 3.31 1.489-0.386 0.387-6.302 1.573-8.55 0.222s-4.013-4.193-7.723-3.476c-3.71 0.718-4.799 1.655-5.188 1.985 0 0.332 0.166 0.497 0.662 0.332 0.828-0.221 4.027-1.214 6.016 1.324 0.604 0.882 0.938 1.158 0.938 1.158-0.551 0.276-3.144 2.041-5.295-0.166-0.717-0.882-1.324-1.599-2.096-1.544 0.438 0.662 1.6 2.316 2.148 2.647 1.159 0.332 6.62 1.711 7.116 3.972 0.441 1.766 0.606 2.759 0.441 3.421-0.828 0.441-3.809 2.151-6.951-1.765-0.938-1.379-1.437-2.207-1.603-4.799-0.604-1.213-0.882-1.93-1.984-2.868-0.552-0.166-1.379 0-1.379 0-0.883 0.166-2.096 0.055-3.144 1.489-1.159 1.159-3.586 4.302-7.447 3.917-1.268-0.386-3.475-1.766-2.592-3.862 0.662-1.214 1.6-2.303 2.647-2.979 1.048-0.676 3.366-0.993 6.344 0.11 1.6 0.275 3.972 0.552 3.972 0.552-0.607-0.552-2.317-2.814-6.51-3.31-1.985 0-3.861 0.166-6.398 1.875-1.269 0.718-1.765 1.103-4.248 1.103-1.487-0.108-2.095-0.108-2.812 0.057" fill="#ffffff" id="path109" stroke="#000000" stroke-miterlimit="10" stroke-width=".70711" />
        <path d="m393.51 102.88c-0.157 1.884-0.689 4.579 0.196 5.848-1.479-1.324-0.819-2.062-1.133-4.544 0.021-2.42-3.123-5.109-3.331-8.957-0.118-2.205 1.19-3.951 1.775-4.703 0.848-1.088 1.925-2.869 0.251-4.744-1.576-1.821-4.789-3.972-4.493-6.123 0.444-1.904 2.103-2.814 2.596-3.917 0.478-0.799 0.061-2.229 0.061-2.229 1.92-0.31 2.521 0.412 2.521 0.412 0.248 0.662 0.046 2.838-0.909 3.638-0.691 0.53-2.328 2.096-1.638 3.365 0.58 0.979 3.597 3.46 4.394 4.633 0.941 1.579 0.645 2.423 0.199 3.358-0.447 0.935-0.81 2.151-2.379 4.51-2.102 3.458 1.887 6.143 1.89 9.453" fill="#ffffff" id="path112" stroke="#000000" stroke-miterlimit="10" stroke-width=".70711" />
    </g>
    <g id="WaterLimited-Predawn">
        <path d="m154.85 126.48s2.565-4.593 5.351-6.178c2.786-1.586 4.358-2.428 6.454-0.938 1.765 1.103 6.454 4.247 6.454 4.247-0.661-0.717-2.343-2.055-3.088-2.648-0.745-0.592-0.938-1.435-0.551-3.641l0.165-1.545c0.828 0.718 3.917 3.2 4.083 4.192-0.055 0.828 0.276 1.821 0.772 2.317 0.166-0.882 0.387-1.213 0.387-1.213 0.496 0.937 2.041 1.931 1.82 3.365 0.385-0.221 1.489-1.048 1.379-3.53 0.11-1.544 1.269-3.42 2.869-3.806 1.103-0.166 2.579 0.124 2.261 1.655-0.317 1.53-2.399 2.951-3.365 3.751s-0.883 1.103-0.883 1.103c0.883-0.552 3.255-1.6 3.696-1.655 0.662-0.772 3.034-2.924 6.344-3.144 1.545 0.11 4.744 0.827 5.075 0.993-0.662 0.386-2.151 2.261-2.373 2.647 0.663 0.607 2.965 2.635 3.476 3.144 0.51 0.511 2.979 1.379 3.31 1.489-0.386 0.387-6.303 1.573-8.55 0.222-2.248-1.352-4.013-4.193-7.723-3.476-3.71 0.718-4.799 1.655-5.186 1.985 0 0.332 0.166 0.497 0.662 0.332 0.827-0.221 4.027-1.214 6.013 1.324 0.607 0.882 0.938 1.158 0.938 1.158-0.551 0.276-3.144 2.041-5.295-0.166-0.717-0.882-1.324-1.599-2.096-1.544 0.441 0.662 1.6 2.316 2.151 2.647 1.158 0.332 6.62 1.711 7.116 3.972 0.441 1.766 0.606 2.759 0.441 3.421-0.828 0.441-3.806 2.151-6.951-1.765-0.938-1.379-1.434-2.207-1.599-4.799-0.607-1.213-0.883-1.93-1.986-2.868-0.552-0.166-1.379 0-1.379 0-0.882 0.166-2.096 0.055-3.144 1.489-1.159 1.159-3.586 4.302-7.447 3.917-1.269-0.386-3.475-1.766-2.593-3.862 0.662-1.214 1.6-2.303 2.648-2.979s3.365-0.993 6.343 0.11c1.6 0.275 3.972 0.552 3.972 0.552-0.606-0.552-2.317-2.814-6.51-3.31-1.985 0-3.861 0.166-6.399 1.875-1.269 0.718-1.765 1.103-4.248 1.103-1.491-0.108-2.097-0.108-2.814 0.057" fill="#ffffff" id="path88-8" stroke="#000000" stroke-miterlimit="10" stroke-width=".70711" />
        <path d="m178.5 156.98c-0.157 1.884-0.689 4.579 0.196 5.848-1.476-1.324-0.82-2.062-1.13-4.544 0.021-2.42-3.124-5.109-3.331-8.957-0.119-2.205 1.19-3.951 1.774-4.703 0.849-1.088 1.926-2.869 0.252-4.744-1.575-1.821-4.788-3.972-4.493-6.123 0.443-1.904 2.103-2.814 2.595-3.917 0.478-0.799 0.061-2.229 0.061-2.229 1.92-0.31 2.521 0.412 2.521 0.412 0.248 0.662 0.047 2.838-0.908 3.638-0.691 0.53-2.328 2.096-1.638 3.365 0.58 0.979 3.596 3.46 4.394 4.633 0.943 1.579 0.645 2.423 0.198 3.358-0.446 0.935-0.807 2.151-2.378 4.51-2.107 3.458 1.883 6.143 1.887 9.453" fill="#ffffff" id="path91-3" stroke="#000000" stroke-miterlimit="10" stroke-width=".70711" />
    </g>
    <g id="WaterLimited-Midday">
        <path d="m226.52 126.48s2.565-4.593 5.351-6.178c2.785-1.586 4.358-2.428 6.454-0.938 1.765 1.103 6.454 4.247 6.454 4.247-0.661-0.717-2.344-2.055-3.089-2.648-0.745-0.592-0.938-1.435-0.551-3.641l0.165-1.545c0.828 0.718 3.917 3.2 4.082 4.192-0.056 0.828 0.276 1.821 0.772 2.317 0.166-0.882 0.387-1.213 0.387-1.213 0.496 0.937 2.041 1.931 1.82 3.365 0.386-0.221 1.489-1.048 1.379-3.53 0.11-1.544 1.268-3.42 2.868-3.806 1.104-0.166 2.579 0.124 2.261 1.655-0.317 1.53-2.399 2.951-3.365 3.751s-0.883 1.103-0.883 1.103c0.883-0.552 3.255-1.6 3.696-1.655 0.662-0.772 3.034-2.924 6.344-3.144 1.545 0.11 4.744 0.827 5.075 0.993-0.663 0.386-2.151 2.261-2.373 2.647 0.663 0.607 2.965 2.635 3.476 3.144 0.511 0.511 2.979 1.379 3.31 1.489-0.386 0.387-6.302 1.573-8.55 0.222-2.248-1.352-4.013-4.193-7.723-3.476-3.709 0.718-4.799 1.655-5.186 1.985 0 0.332 0.166 0.497 0.662 0.332 0.828-0.221 4.027-1.214 6.013 1.324 0.607 0.882 0.938 1.158 0.938 1.158-0.552 0.276-3.145 2.041-5.296-0.166-0.717-0.882-1.324-1.599-2.096-1.544 0.441 0.662 1.6 2.316 2.151 2.647 1.158 0.332 6.619 1.711 7.116 3.972 0.441 1.766 0.607 2.759 0.441 3.421-0.827 0.441-3.806 2.151-6.95-1.765-0.938-1.379-1.434-2.207-1.6-4.799-0.606-1.213-0.883-1.93-1.985-2.868-0.552-0.166-1.38 0-1.38 0-0.883 0.166-2.096 0.055-3.144 1.489-1.159 1.159-3.585 4.302-7.447 3.917-1.268-0.386-3.475-1.766-2.592-3.862 0.662-1.214 1.6-2.303 2.647-2.979 1.048-0.676 3.365-0.993 6.344 0.11 1.6 0.275 3.972 0.552 3.972 0.552-0.606-0.552-2.317-2.814-6.509-3.31-1.986 0-3.862 0.166-6.399 1.875-1.269 0.718-1.765 1.103-4.248 1.103-1.488-0.108-2.095-0.108-2.812 0.057" fill="#ffffff" id="path95-2" stroke="#000000" stroke-miterlimit="10" stroke-width=".70711" />
        <path d="m250.17 156.98c-0.157 1.884-0.689 4.579 0.196 5.848-1.477-1.324-0.82-2.062-1.13-4.544 0.021-2.42-3.123-5.109-3.331-8.957-0.119-2.205 1.189-3.951 1.775-4.703 0.848-1.088 1.925-2.869 0.251-4.744-1.575-1.821-4.788-3.972-4.493-6.123 0.444-1.904 2.103-2.814 2.595-3.917 0.478-0.799 0.062-2.229 0.062-2.229 1.919-0.31 2.521 0.412 2.521 0.412 0.248 0.662 0.047 2.838-0.909 3.638-0.69 0.53-2.327 2.096-1.638 3.365 0.58 0.979 3.597 3.46 4.395 4.633 0.943 1.579 0.644 2.423 0.198 3.358s-0.807 2.151-2.379 4.51c-2.106 3.458 1.884 6.143 1.887 9.453" fill="#ffffff" id="path98-4" stroke="#000000" stroke-miterlimit="10" stroke-width=".70711" />
    </g>
    <g id="WaterLimited-LateDay">
        <path d="m298.18 126.48s2.566-4.593 5.351-6.178c2.786-1.586 4.358-2.428 6.454-0.938 1.765 1.103 6.454 4.247 6.454 4.247-0.662-0.717-2.344-2.055-3.089-2.648-0.745-0.592-0.938-1.435-0.552-3.641l0.165-1.545c0.828 0.718 3.917 3.2 4.083 4.192-0.056 0.828 0.276 1.821 0.772 2.317 0.166-0.882 0.387-1.213 0.387-1.213 0.496 0.937 2.04 1.931 1.82 3.365 0.386-0.221 1.49-1.048 1.379-3.53 0.11-1.544 1.269-3.42 2.869-3.806 1.103-0.166 2.578 0.124 2.261 1.655-0.317 1.53-2.399 2.951-3.365 3.751-0.965 0.8-0.882 1.103-0.882 1.103 0.882-0.552 3.255-1.6 3.695-1.655 0.662-0.772 3.035-2.924 6.345-3.144 1.544 0.11 4.743 0.827 5.074 0.993-0.662 0.386-2.151 2.261-2.372 2.647 0.662 0.607 2.965 2.635 3.476 3.144 0.51 0.511 2.979 1.379 3.31 1.489-0.386 0.387-6.303 1.573-8.55 0.222-2.249-1.352-4.013-4.193-7.723-3.476-3.71 0.718-4.8 1.655-5.186 1.985 0 0.332 0.166 0.497 0.662 0.332 0.828-0.221 4.027-1.214 6.013 1.324 0.606 0.882 0.937 1.158 0.937 1.158-0.551 0.276-3.144 2.041-5.295-0.166-0.717-0.882-1.323-1.599-2.096-1.544 0.441 0.662 1.6 2.316 2.15 2.647 1.159 0.332 6.62 1.711 7.117 3.972 0.44 1.766 0.606 2.759 0.44 3.421-0.827 0.441-3.806 2.151-6.95-1.765-0.938-1.379-1.435-2.207-1.6-4.799-0.606-1.213-0.882-1.93-1.986-2.868-0.552-0.166-1.379 0-1.379 0-0.883 0.166-2.096 0.055-3.145 1.489-1.158 1.159-3.585 4.302-7.447 3.917-1.268-0.386-3.475-1.766-2.592-3.862 0.662-1.214 1.6-2.303 2.648-2.979s3.365-0.993 6.343 0.11c1.6 0.275 3.973 0.552 3.973 0.552-0.607-0.552-2.317-2.814-6.51-3.31-1.985 0-3.862 0.166-6.399 1.875-1.269 0.718-1.765 1.103-4.247 1.103-1.489-0.108-2.096-0.108-2.813 0.057" fill="#ffffff" id="path102-0" stroke="#000000" stroke-miterlimit="10" stroke-width=".70711" />
        <path d="m321.84 156.98c-0.158 1.884-0.689 4.579 0.196 5.848-1.477-1.324-0.821-2.062-1.131-4.544 0.021-2.42-3.123-5.109-3.33-8.957-0.12-2.205 1.189-3.951 1.774-4.703 0.848-1.088 1.925-2.869 0.251-4.744-1.575-1.821-4.788-3.972-4.492-6.123 0.443-1.904 2.103-2.814 2.595-3.917 0.478-0.799 0.062-2.229 0.062-2.229 1.919-0.31 2.521 0.412 2.521 0.412 0.248 0.662 0.047 2.838-0.909 3.638-0.691 0.53-2.327 2.096-1.637 3.365 0.58 0.979 3.596 3.46 4.394 4.633 0.943 1.579 0.645 2.423 0.199 3.358s-0.807 2.151-2.379 4.51c-2.107 3.458 1.883 6.143 1.886 9.453" fill="#ffffff" id="path105-5" stroke="#000000" stroke-miterlimit="10" stroke-width=".70711" />
    </g>
    <g id="WaterLimited-Midnight">
        <path d="m369.85 126.48s2.566-4.593 5.352-6.178c2.785-1.586 4.357-2.428 6.454-0.938 1.765 1.103 6.454 4.247 6.454 4.247-0.662-0.717-2.344-2.055-3.089-2.648-0.745-0.592-0.937-1.435-0.551-3.641l0.166-1.545c0.827 0.718 3.917 3.2 4.082 4.192-0.055 0.828 0.276 1.821 0.772 2.317 0.166-0.882 0.387-1.213 0.387-1.213 0.496 0.937 2.041 1.931 1.82 3.365 0.386-0.221 1.489-1.048 1.376-3.53 0.11-1.544 1.271-3.42 2.868-3.806 1.104-0.166 2.58 0.124 2.264 1.655-0.317 1.53-2.398 2.951-3.364 3.751s-0.883 1.103-0.883 1.103c0.883-0.552 3.255-1.6 3.693-1.655 0.662-0.772 3.034-2.924 6.347-3.144 1.544 0.11 4.741 0.827 5.072 0.993-0.659 0.386-2.148 2.261-2.372 2.647 0.661 0.607 2.967 2.635 3.478 3.144 0.511 0.511 2.979 1.379 3.31 1.489-0.386 0.387-6.302 1.573-8.55 0.222s-4.013-4.193-7.723-3.476c-3.71 0.718-4.799 1.655-5.188 1.985 0 0.332 0.166 0.497 0.662 0.332 0.828-0.221 4.027-1.214 6.016 1.324 0.604 0.882 0.938 1.158 0.938 1.158-0.551 0.276-3.144 2.041-5.295-0.166-0.717-0.882-1.324-1.599-2.096-1.544 0.438 0.662 1.6 2.316 2.148 2.647 1.159 0.332 6.62 1.711 7.116 3.972 0.441 1.766 0.606 2.759 0.441 3.421-0.828 0.441-3.809 2.151-6.951-1.765-0.938-1.379-1.437-2.207-1.603-4.799-0.604-1.213-0.882-1.93-1.984-2.868-0.552-0.166-1.379 0-1.379 0-0.883 0.166-2.096 0.055-3.144 1.489-1.159 1.159-3.586 4.302-7.447 3.917-1.268-0.386-3.475-1.766-2.592-3.862 0.662-1.214 1.6-2.303 2.647-2.979 1.048-0.676 3.366-0.993 6.344 0.11 1.6 0.275 3.972 0.552 3.972 0.552-0.607-0.552-2.317-2.814-6.51-3.31-1.985 0-3.861 0.166-6.398 1.875-1.269 0.718-1.765 1.103-4.248 1.103-1.487-0.108-2.095-0.108-2.812 0.057" fill="#ffffff" id="path109-9" stroke="#000000" stroke-miterlimit="10" stroke-width=".70711" />
        <path d="m393.51 156.98c-0.157 1.884-0.689 4.579 0.196 5.848-1.479-1.324-0.819-2.062-1.133-4.544 0.021-2.42-3.123-5.109-3.331-8.957-0.118-2.205 1.19-3.951 1.775-4.703 0.848-1.088 1.925-2.869 0.251-4.744-1.576-1.821-4.789-3.972-4.493-6.123 0.444-1.904 2.103-2.814 2.596-3.917 0.478-0.799 0.061-2.229 0.061-2.229 1.92-0.31 2.521 0.412 2.521 0.412 0.248 0.662 0.046 2.838-0.909 3.638-0.691 0.53-2.328 2.096-1.638 3.365 0.58 0.979 3.597 3.46 4.394 4.633 0.941 1.579 0.645 2.423 0.199 3.358-0.447 0.935-0.81 2.151-2.379 4.51-2.102 3.458 1.887 6.143 1.89 9.453" fill="#ffffff" id="path112-2" stroke="#000000" stroke-miterlimit="10" stroke-width=".70711" />
    </g>
    <g id="NonStressed-TotalRNA">
        <path d="m154.85 204.06s2.565-4.593 5.351-6.178c2.786-1.586 4.358-2.428 6.454-0.938 1.765 1.103 6.454 4.247 6.454 4.247-0.661-0.717-2.343-2.055-3.088-2.648-0.745-0.592-0.938-1.435-0.551-3.641l0.165-1.545c0.828 0.718 3.917 3.2 4.083 4.192-0.055 0.828 0.276 1.821 0.772 2.317 0.166-0.882 0.387-1.213 0.387-1.213 0.496 0.937 2.041 1.931 1.82 3.365 0.385-0.221 1.489-1.048 1.379-3.53 0.11-1.544 1.269-3.42 2.869-3.806 1.103-0.166 2.579 0.124 2.261 1.655-0.317 1.53-2.399 2.951-3.365 3.751s-0.883 1.103-0.883 1.103c0.883-0.552 3.255-1.6 3.696-1.655 0.662-0.772 3.034-2.924 6.344-3.144 1.545 0.11 4.744 0.827 5.075 0.993-0.662 0.386-2.151 2.261-2.373 2.647 0.663 0.607 2.965 2.635 3.476 3.144 0.51 0.511 2.979 1.379 3.31 1.489-0.386 0.387-6.303 1.573-8.55 0.222-2.248-1.352-4.013-4.193-7.723-3.476-3.71 0.718-4.799 1.655-5.186 1.985 0 0.332 0.166 0.497 0.662 0.332 0.827-0.221 4.027-1.214 6.013 1.324 0.607 0.882 0.938 1.158 0.938 1.158-0.551 0.276-3.144 2.041-5.295-0.166-0.717-0.882-1.324-1.599-2.096-1.544 0.441 0.662 1.6 2.316 2.151 2.647 1.158 0.332 6.62 1.711 7.116 3.972 0.441 1.766 0.606 2.759 0.441 3.421-0.828 0.441-3.806 2.151-6.951-1.765-0.938-1.379-1.434-2.207-1.599-4.799-0.607-1.213-0.883-1.93-1.986-2.868-0.552-0.166-1.379 0-1.379 0-0.882 0.166-2.096 0.055-3.144 1.489-1.159 1.159-3.586 4.302-7.447 3.917-1.269-0.386-3.475-1.766-2.593-3.862 0.662-1.214 1.6-2.303 2.648-2.979s3.365-0.993 6.343 0.11c1.6 0.275 3.972 0.552 3.972 0.552-0.606-0.552-2.317-2.814-6.51-3.31-1.985 0-3.861 0.166-6.399 1.875-1.269 0.718-1.765 1.103-4.248 1.103-1.491-0.108-2.097-0.108-2.814 0.057" fill="#ffffff" id="path88-9" stroke="#000000" stroke-miterlimit="10" stroke-width=".70711" />
        <path d="m178.5 234.57c-0.157 1.884-0.689 4.579 0.196 5.848-1.476-1.324-0.82-2.062-1.13-4.544 0.021-2.42-3.124-5.109-3.331-8.957-0.119-2.205 1.19-3.951 1.774-4.703 0.849-1.088 1.926-2.869 0.252-4.744-1.575-1.821-4.788-3.972-4.493-6.123 0.443-1.904 2.103-2.814 2.595-3.917 0.478-0.799 0.061-2.229 0.061-2.229 1.92-0.31 2.521 0.412 2.521 0.412 0.248 0.662 0.047 2.838-0.908 3.638-0.691 0.53-2.328 2.096-1.638 3.365 0.58 0.979 3.596 3.46 4.394 4.633 0.943 1.579 0.645 2.423 0.198 3.358-0.446 0.935-0.807 2.151-2.378 4.51-2.107 3.458 1.883 6.143 1.887 9.453" fill="#ffffff" id="path91-7" stroke="#000000" stroke-miterlimit="10" stroke-width=".70711" />
    </g>
    <g id="NonStressed-PolysomalMRNA">
        <path d="m226.52 204.06s2.565-4.593 5.351-6.178c2.785-1.586 4.358-2.428 6.454-0.938 1.765 1.103 6.454 4.247 6.454 4.247-0.661-0.717-2.344-2.055-3.089-2.648-0.745-0.592-0.938-1.435-0.551-3.641l0.165-1.545c0.828 0.718 3.917 3.2 4.082 4.192-0.056 0.828 0.276 1.821 0.772 2.317 0.166-0.882 0.387-1.213 0.387-1.213 0.496 0.937 2.041 1.931 1.82 3.365 0.386-0.221 1.489-1.048 1.379-3.53 0.11-1.544 1.268-3.42 2.868-3.806 1.104-0.166 2.579 0.124 2.261 1.655-0.317 1.53-2.399 2.951-3.365 3.751s-0.883 1.103-0.883 1.103c0.883-0.552 3.255-1.6 3.696-1.655 0.662-0.772 3.034-2.924 6.344-3.144 1.545 0.11 4.744 0.827 5.075 0.993-0.663 0.386-2.151 2.261-2.373 2.647 0.663 0.607 2.965 2.635 3.476 3.144 0.511 0.511 2.979 1.379 3.31 1.489-0.386 0.387-6.302 1.573-8.55 0.222-2.248-1.352-4.013-4.193-7.723-3.476-3.709 0.718-4.799 1.655-5.186 1.985 0 0.332 0.166 0.497 0.662 0.332 0.828-0.221 4.027-1.214 6.013 1.324 0.607 0.882 0.938 1.158 0.938 1.158-0.552 0.276-3.145 2.041-5.296-0.166-0.717-0.882-1.324-1.599-2.096-1.544 0.441 0.662 1.6 2.316 2.151 2.647 1.158 0.332 6.619 1.711 7.116 3.972 0.441 1.766 0.607 2.759 0.441 3.421-0.827 0.441-3.806 2.151-6.95-1.765-0.938-1.379-1.434-2.207-1.6-4.799-0.606-1.213-0.883-1.93-1.985-2.868-0.552-0.166-1.38 0-1.38 0-0.883 0.166-2.096 0.055-3.144 1.489-1.159 1.159-3.585 4.302-7.447 3.917-1.268-0.386-3.475-1.766-2.592-3.862 0.662-1.214 1.6-2.303 2.647-2.979 1.048-0.676 3.365-0.993 6.344 0.11 1.6 0.275 3.972 0.552 3.972 0.552-0.606-0.552-2.317-2.814-6.509-3.31-1.986 0-3.862 0.166-6.399 1.875-1.269 0.718-1.765 1.103-4.248 1.103-1.488-0.108-2.095-0.108-2.812 0.057" fill="#ffffff" id="path95-1" stroke="#000000" stroke-miterlimit="10" stroke-width=".70711" />
        <path d="m250.17 234.57c-0.157 1.884-0.689 4.579 0.196 5.848-1.477-1.324-0.82-2.062-1.13-4.544 0.021-2.42-3.123-5.109-3.331-8.957-0.119-2.205 1.189-3.951 1.775-4.703 0.848-1.088 1.925-2.869 0.251-4.744-1.575-1.821-4.788-3.972-4.493-6.123 0.444-1.904 2.103-2.814 2.595-3.917 0.478-0.799 0.062-2.229 0.062-2.229 1.919-0.31 2.521 0.412 2.521 0.412 0.248 0.662 0.047 2.838-0.909 3.638-0.69 0.53-2.327 2.096-1.638 3.365 0.58 0.979 3.597 3.46 4.395 4.633 0.943 1.579 0.644 2.423 0.198 3.358s-0.807 2.151-2.379 4.51c-2.106 3.458 1.884 6.143 1.887 9.453" fill="#ffffff" id="path98-1" stroke="#000000" stroke-miterlimit="10" stroke-width=".70711" />
    </g>
    <g id="Hypoxia-TotalRNA">
        <path d="m154.85 258.16s2.565-4.593 5.351-6.178c2.786-1.586 4.358-2.428 6.454-0.938 1.765 1.103 6.454 4.247 6.454 4.247-0.661-0.717-2.343-2.055-3.088-2.648-0.745-0.592-0.938-1.435-0.551-3.641l0.165-1.545c0.828 0.718 3.917 3.2 4.083 4.192-0.055 0.828 0.276 1.821 0.772 2.317 0.166-0.882 0.387-1.213 0.387-1.213 0.496 0.937 2.041 1.931 1.82 3.365 0.385-0.221 1.489-1.048 1.379-3.53 0.11-1.544 1.269-3.42 2.869-3.806 1.103-0.166 2.579 0.124 2.261 1.655-0.317 1.53-2.399 2.951-3.365 3.751s-0.883 1.103-0.883 1.103c0.883-0.552 3.255-1.6 3.696-1.655 0.662-0.772 3.034-2.924 6.344-3.144 1.545 0.11 4.744 0.827 5.075 0.993-0.662 0.386-2.151 2.261-2.373 2.647 0.663 0.607 2.965 2.635 3.476 3.144 0.51 0.511 2.979 1.379 3.31 1.489-0.386 0.387-6.303 1.573-8.55 0.222-2.248-1.352-4.013-4.193-7.723-3.476-3.71 0.718-4.799 1.655-5.186 1.985 0 0.332 0.166 0.497 0.662 0.332 0.827-0.221 4.027-1.214 6.013 1.324 0.607 0.882 0.938 1.158 0.938 1.158-0.551 0.276-3.144 2.041-5.295-0.166-0.717-0.882-1.324-1.599-2.096-1.544 0.441 0.662 1.6 2.316 2.151 2.647 1.158 0.332 6.62 1.711 7.116 3.972 0.441 1.766 0.606 2.759 0.441 3.421-0.828 0.441-3.806 2.151-6.951-1.765-0.938-1.379-1.434-2.207-1.599-4.799-0.607-1.213-0.883-1.93-1.986-2.868-0.552-0.166-1.379 0-1.379 0-0.882 0.166-2.096 0.055-3.144 1.489-1.159 1.159-3.586 4.302-7.447 3.917-1.269-0.386-3.475-1.766-2.593-3.862 0.662-1.214 1.6-2.303 2.648-2.979s3.365-0.993 6.343 0.11c1.6 0.275 3.972 0.552 3.972 0.552-0.606-0.552-2.317-2.814-6.51-3.31-1.985 0-3.861 0.166-6.399 1.875-1.269 0.718-1.765 1.103-4.248 1.103-1.491-0.108-2.097-0.108-2.814 0.057" fill="#ffffff" id="path88-8-0" stroke="#000000" stroke-miterlimit="10" stroke-width=".70711" />
        <path d="m178.5 288.67c-0.157 1.884-0.689 4.579 0.196 5.848-1.476-1.324-0.82-2.062-1.13-4.544 0.021-2.42-3.124-5.109-3.331-8.957-0.119-2.205 1.19-3.951 1.774-4.703 0.849-1.088 1.926-2.869 0.252-4.744-1.575-1.821-4.788-3.972-4.493-6.123 0.443-1.904 2.103-2.814 2.595-3.917 0.478-0.799 0.061-2.229 0.061-2.229 1.92-0.31 2.521 0.412 2.521 0.412 0.248 0.662 0.047 2.838-0.908 3.638-0.691 0.53-2.328 2.096-1.638 3.365 0.58 0.979 3.596 3.46 4.394 4.633 0.943 1.579 0.645 2.423 0.198 3.358-0.446 0.935-0.807 2.151-2.378 4.51-2.107 3.458 1.883 6.143 1.887 9.453" fill="#ffffff" id="path91-3-8" stroke="#000000" stroke-miterlimit="10" stroke-width=".70711" />
    </g>
    <g id="Hypoxia-PolysomalMRNA">
        <path d="m226.52 258.16s2.565-4.593 5.351-6.178c2.785-1.586 4.358-2.428 6.454-0.938 1.765 1.103 6.454 4.247 6.454 4.247-0.661-0.717-2.344-2.055-3.089-2.648-0.745-0.592-0.938-1.435-0.551-3.641l0.165-1.545c0.828 0.718 3.917 3.2 4.082 4.192-0.056 0.828 0.276 1.821 0.772 2.317 0.166-0.882 0.387-1.213 0.387-1.213 0.496 0.937 2.041 1.931 1.82 3.365 0.386-0.221 1.489-1.048 1.379-3.53 0.11-1.544 1.268-3.42 2.868-3.806 1.104-0.166 2.579 0.124 2.261 1.655-0.317 1.53-2.399 2.951-3.365 3.751s-0.883 1.103-0.883 1.103c0.883-0.552 3.255-1.6 3.696-1.655 0.662-0.772 3.034-2.924 6.344-3.144 1.545 0.11 4.744 0.827 5.075 0.993-0.663 0.386-2.151 2.261-2.373 2.647 0.663 0.607 2.965 2.635 3.476 3.144 0.511 0.511 2.979 1.379 3.31 1.489-0.386 0.387-6.302 1.573-8.55 0.222-2.248-1.352-4.013-4.193-7.723-3.476-3.709 0.718-4.799 1.655-5.186 1.985 0 0.332 0.166 0.497 0.662 0.332 0.828-0.221 4.027-1.214 6.013 1.324 0.607 0.882 0.938 1.158 0.938 1.158-0.552 0.276-3.145 2.041-5.296-0.166-0.717-0.882-1.324-1.599-2.096-1.544 0.441 0.662 1.6 2.316 2.151 2.647 1.158 0.332 6.619 1.711 7.116 3.972 0.441 1.766 0.607 2.759 0.441 3.421-0.827 0.441-3.806 2.151-6.95-1.765-0.938-1.379-1.434-2.207-1.6-4.799-0.606-1.213-0.883-1.93-1.985-2.868-0.552-0.166-1.38 0-1.38 0-0.883 0.166-2.096 0.055-3.144 1.489-1.159 1.159-3.585 4.302-7.447 3.917-1.268-0.386-3.475-1.766-2.592-3.862 0.662-1.214 1.6-2.303 2.647-2.979 1.048-0.676 3.365-0.993 6.344 0.11 1.6 0.275 3.972 0.552 3.972 0.552-0.606-0.552-2.317-2.814-6.509-3.31-1.986 0-3.862 0.166-6.399 1.875-1.269 0.718-1.765 1.103-4.248 1.103-1.488-0.108-2.095-0.108-2.812 0.057" fill="#ffffff" id="path95-2-2" stroke="#000000" stroke-miterlimit="10" stroke-width=".70711" />
        <path d="m250.17 288.67c-0.157 1.884-0.689 4.579 0.196 5.848-1.477-1.324-0.82-2.062-1.13-4.544 0.021-2.42-3.123-5.109-3.331-8.957-0.119-2.205 1.189-3.951 1.775-4.703 0.848-1.088 1.925-2.869 0.251-4.744-1.575-1.821-4.788-3.972-4.493-6.123 0.444-1.904 2.103-2.814 2.595-3.917 0.478-0.799 0.062-2.229 0.062-2.229 1.919-0.31 2.521 0.412 2.521 0.412 0.248 0.662 0.047 2.838-0.909 3.638-0.69 0.53-2.327 2.096-1.638 3.365 0.58 0.979 3.597 3.46 4.395 4.633 0.943 1.579 0.644 2.423 0.198 3.358s-0.807 2.151-2.379 4.51c-2.106 3.458 1.884 6.143 1.887 9.453" fill="#ffffff" id="path98-4-6" stroke="#000000" stroke-miterlimit="10" stroke-width=".70711" />
    </g>
    <g id="g2840">
        <path d="m517.93 129.43a29.555 29.555 0 0 1-29.555-29.394 29.555 29.555 0 0 1 29.233-29.714l0.32121 29.553z" fill="#000000" fill-rule="evenodd" id="path2199" stroke="#000000" stroke-miterlimit="10" stroke-width="0.5" />
        <path d="m517.93 70.318a29.555 29.555 0 0 1 29.555 29.555 29.555 29.555 0 0 1-29.555 29.555l-1e-5 -29.555z" fill="#fff594" fill-rule="evenodd" id="circle2201" stroke="#000000" stroke-miterlimit="10" stroke-width="0.5" />
		<circle id="circle2203" cx="517.93" cy="99.873" r="21.012" style="fill-rule:evenodd;fill:#ffffff"/>
    </g>
    <g id="g2856">
        <path d="m345.03 229.9a29.555 29.555 0 0 1-14.778 25.595 29.555 29.555 0 0 1-29.555 0l14.778-25.595z" fill="#000000" fill-rule="evenodd" id="path2199-3" stroke="#000000" stroke-miterlimit="10" stroke-width="0.5" />
        <path d="m300.69 255.49a29.555 29.555 0 0 1-12.995-35.704 29.555 29.555 0 0 1 32.905-18.998 29.555 29.555 0 0 1 24.423 29.106h-29.555z" fill="#fff594" fill-rule="evenodd" id="circle2201-4" stroke="#000000" stroke-miterlimit="10" stroke-width="0.5" />
		<circle id="circle2203-2" cx="315.47" cy="229.9" r="21.012" style="fill-rule:evenodd;fill:#ffffff"/>
    </g>
    <g id="g2848">
        <path d="m625.54 229.28a29.555 29.555 0 0 1-14.778 25.595 29.555 29.555 0 0 1-29.555 0l14.778-25.595z" fill="#000000" fill-rule="evenodd" id="path2199-3-3" stroke="#000000" stroke-miterlimit="10" stroke-width="0.5" />
        <path d="m581.21 254.88a29.555 29.555 0 0 1-12.995-35.704 29.555 29.555 0 0 1 32.905-18.998 29.555 29.555 0 0 1 24.423 29.106h-29.555z" fill="#fff594" fill-rule="evenodd" id="circle2201-4-8" stroke="#000000" stroke-miterlimit="10" stroke-width="0.5" />
		<circle id="circle2203-2-0" cx="595.98" cy="229.28" r="21.012" style="fill-rule:evenodd;fill:#ffffff"/>
    </g>
    <g id="outlines">
        <path d="m50 178.1h586.02" fill="none" id="path1585" stroke="#000000" stroke-miterlimit="10" stroke-width="1.4142" />
        <path d="m364.62 178.13v117.23" fill="none" id="path2300" stroke="#000000" stroke-miterlimit="10" stroke-width="1.4142" />
    </g>
    <g id="NonSelenate-Shoot">
        <path d="m508.72 204.06s2.565-4.593 5.351-6.178c2.785-1.586 4.358-2.428 6.454-0.938 1.765 1.103 6.454 4.247 6.454 4.247-0.661-0.717-2.344-2.055-3.089-2.648-0.745-0.592-0.938-1.435-0.551-3.641l0.165-1.545c0.828 0.718 3.917 3.2 4.082 4.192-0.056 0.828 0.276 1.821 0.772 2.317 0.166-0.882 0.387-1.213 0.387-1.213 0.496 0.937 2.041 1.931 1.82 3.365 0.386-0.221 1.489-1.048 1.379-3.53 0.11-1.544 1.268-3.42 2.868-3.806 1.104-0.166 2.579 0.124 2.261 1.655-0.317 1.53-2.399 2.951-3.365 3.751s-0.883 1.103-0.883 1.103c0.883-0.552 3.255-1.6 3.696-1.655 0.662-0.772 3.034-2.924 6.344-3.144 1.545 0.11 4.744 0.827 5.075 0.993-0.663 0.386-2.151 2.261-2.373 2.647 0.663 0.607 2.965 2.635 3.476 3.144 0.511 0.511 2.979 1.379 3.31 1.489-0.386 0.387-6.302 1.573-8.55 0.222-2.248-1.352-4.013-4.193-7.723-3.476-3.709 0.718-4.799 1.655-5.186 1.985 0 0.332 0.166 0.497 0.662 0.332 0.828-0.221 4.027-1.214 6.013 1.324 0.607 0.882 0.938 1.158 0.938 1.158-0.552 0.276-3.145 2.041-5.296-0.166-0.717-0.882-1.324-1.599-2.096-1.544 0.441 0.662 1.6 2.316 2.151 2.647 1.158 0.332 6.619 1.711 7.116 3.972 0.441 1.766 0.607 2.759 0.441 3.421-0.827 0.441-3.806 2.151-6.95-1.765-0.938-1.379-1.434-2.207-1.6-4.799-0.606-1.213-0.883-1.93-1.985-2.868-0.552-0.166-1.38 0-1.38 0-0.883 0.166-2.096 0.055-3.144 1.489-1.159 1.159-3.585 4.302-7.447 3.917-1.268-0.386-3.475-1.766-2.592-3.862 0.662-1.214 1.6-2.303 2.647-2.979 1.048-0.676 3.365-0.993 6.344 0.11 1.6 0.275 3.972 0.552 3.972 0.552-0.606-0.552-2.317-2.814-6.509-3.31-1.986 0-3.862 0.166-6.399 1.875-1.269 0.718-1.765 1.103-4.248 1.103-1.488-0.108-2.095-0.108-2.812 0.057" fill="#ffffff" id="path2314" stroke="#000000" stroke-miterlimit="10" stroke-width=".70711" />
    </g>
    <g id="NonSelenate-Root">
        <path d="m532.37 234.57c-0.157 1.884-0.689 4.579 0.196 5.848-1.477-1.324-0.82-2.062-1.13-4.544 0.021-2.42-3.123-5.109-3.331-8.957-0.119-2.205 1.189-3.951 1.775-4.703 0.848-1.088 1.925-2.869 0.251-4.744-1.575-1.821-4.788-3.972-4.493-6.123 0.444-1.904 2.103-2.814 2.595-3.917 0.478-0.799 0.062-2.229 0.062-2.229 1.919-0.31 2.521 0.412 2.521 0.412 0.248 0.662 0.047 2.838-0.909 3.638-0.69 0.53-2.327 2.096-1.638 3.365 0.58 0.979 3.597 3.46 4.395 4.633 0.943 1.579 0.644 2.423 0.198 3.358s-0.807 2.151-2.379 4.51c-2.106 3.458 1.884 6.143 1.887 9.453" fill="#ffffff" id="path2318" stroke="#000000" stroke-miterlimit="10" stroke-width=".70711" />
    </g>
    <g id="Selenate-Shoot">
        <path d="m508.72 258.16s2.565-4.593 5.351-6.178c2.785-1.586 4.358-2.428 6.454-0.938 1.765 1.103 6.454 4.247 6.454 4.247-0.661-0.717-2.344-2.055-3.089-2.648-0.745-0.592-0.938-1.435-0.551-3.641l0.165-1.545c0.828 0.718 3.917 3.2 4.082 4.192-0.056 0.828 0.276 1.821 0.772 2.317 0.166-0.882 0.387-1.213 0.387-1.213 0.496 0.937 2.041 1.931 1.82 3.365 0.386-0.221 1.489-1.048 1.379-3.53 0.11-1.544 1.268-3.42 2.868-3.806 1.104-0.166 2.579 0.124 2.261 1.655-0.317 1.53-2.399 2.951-3.365 3.751s-0.883 1.103-0.883 1.103c0.883-0.552 3.255-1.6 3.696-1.655 0.662-0.772 3.034-2.924 6.344-3.144 1.545 0.11 4.744 0.827 5.075 0.993-0.663 0.386-2.151 2.261-2.373 2.647 0.663 0.607 2.965 2.635 3.476 3.144 0.511 0.511 2.979 1.379 3.31 1.489-0.386 0.387-6.302 1.573-8.55 0.222-2.248-1.352-4.013-4.193-7.723-3.476-3.709 0.718-4.799 1.655-5.186 1.985 0 0.332 0.166 0.497 0.662 0.332 0.828-0.221 4.027-1.214 6.013 1.324 0.607 0.882 0.938 1.158 0.938 1.158-0.552 0.276-3.145 2.041-5.296-0.166-0.717-0.882-1.324-1.599-2.096-1.544 0.441 0.662 1.6 2.316 2.151 2.647 1.158 0.332 6.619 1.711 7.116 3.972 0.441 1.766 0.607 2.759 0.441 3.421-0.827 0.441-3.806 2.151-6.95-1.765-0.938-1.379-1.434-2.207-1.6-4.799-0.606-1.213-0.883-1.93-1.985-2.868-0.552-0.166-1.38 0-1.38 0-0.883 0.166-2.096 0.055-3.144 1.489-1.159 1.159-3.585 4.302-7.447 3.917-1.268-0.386-3.475-1.766-2.592-3.862 0.662-1.214 1.6-2.303 2.647-2.979 1.048-0.676 3.365-0.993 6.344 0.11 1.6 0.275 3.972 0.552 3.972 0.552-0.606-0.552-2.317-2.814-6.509-3.31-1.986 0-3.862 0.166-6.399 1.875-1.269 0.718-1.765 1.103-4.248 1.103-1.488-0.108-2.095-0.108-2.812 0.057" fill="#ffffff" id="path2324" stroke="#000000" stroke-miterlimit="10" stroke-width=".70711" />
    </g>
    <g id="Selenate-Root">
        <path d="m532.37 288.67c-0.157 1.884-0.689 4.579 0.196 5.848-1.477-1.324-0.82-2.062-1.13-4.544 0.021-2.42-3.123-5.109-3.331-8.957-0.119-2.205 1.189-3.951 1.775-4.703 0.848-1.088 1.925-2.869 0.251-4.744-1.575-1.821-4.788-3.972-4.493-6.123 0.444-1.904 2.103-2.814 2.595-3.917 0.478-0.799 0.062-2.229 0.062-2.229 1.919-0.31 2.521 0.412 2.521 0.412 0.248 0.662 0.047 2.838-0.909 3.638-0.69 0.53-2.327 2.096-1.638 3.365 0.58 0.979 3.597 3.46 4.395 4.633 0.943 1.579 0.644 2.423 0.198 3.358s-0.807 2.151-2.379 4.51c-2.106 3.458 1.884 6.143 1.887 9.453" fill="#ffffff" id="path2328" stroke="#000000" stroke-miterlimit="10" stroke-width=".70711" />
    </g>
    <g id="g1045" style="font-size:30px;font-family:sans-serif;fill:#000000">
        <text id="text16" style="font-family:Helvetica;font-size:10.386px" x="121.14939" y="138.11032">
            <tspan id="tspan1474" style="text-align:end;text-anchor:end">Water limited</tspan>
        </text>
        <text id="text18" style="font-family:Helvetica;font-size:10.386px" x="120.48504" y="88.925842">
            <tspan id="tspan1472" style="text-align:end;text-anchor:end">Well watered</tspan>
        </text>
    </g>
    <g id="g1039" style="font-size:30px;font-family:sans-serif;fill:#000000">
        <text id="text14" style="font-family:Helvetica;font-size:10.386px" x="121.21501" y="216.12845">
            <tspan id="tspan1476" style="text-align:end;text-anchor:end">Non-stressed</tspan>
        </text>
        <text id="text2296" style="font-family:Helvetica;font-size:10.386px" x="121.21501" y="269.16147">
            <tspan id="tspan2294" style="text-align:end;text-anchor:end">Hypoxia stress</tspan>
        </text>
    </g>
    <g id="g2902" style="font-size:30px;font-family:sans-serif;fill:#000000">
        <text id="text2304" style="font-family:Helvetica;font-size:10.386px" x="474.60483" y="216.12845">
            <tspan id="tspan2302" style="text-align:end;text-anchor:end">Non-selenate treated</tspan>
        </text>
        <text id="text2310" style="font-family:Helvetica;font-size:10.386px" x="474.60483" y="269.16147">
            <tspan id="tspan2308" style="text-align:end;text-anchor:end">Selenate treated</tspan>
        </text>
    </g>
    <g id="g2926" style="font-size:30px;font-family:sans-serif;fill:#000000">
        <text id="text2260" style="fill:#000000;font-family:Arial;font-size:8px;letter-spacing:0px;line-height:1.25;text-align:center;text-anchor:middle;word-spacing:0px" x="517.28955" y="65.890594" xml:space="preserve">
            <tspan id="tspan2258" style="fill:#000000" x="527.28955" y="65.890594">Predawn</tspan>
        </text>
        <text id="text2264" style="fill:#000000;font-family:Arial;font-size:8px;letter-spacing:0px;line-height:1.25;text-align:center;text-anchor:middle;word-spacing:0px" x="517.28955" y="138.69861" xml:space="preserve">
            <tspan id="tspan2262" style="fill:#000000" x="527.28955" y="138.69861">Late day</tspan>
        </text>
        <text id="text2272" style="fill:#000000;font-family:Arial;font-size:8px;letter-spacing:0px;line-height:1.25;text-align:center;text-anchor:middle;word-spacing:0px" x="549.45648" y="104.09232" xml:space="preserve">
            <tspan id="tspan2270" style="fill:#000000;text-align:start;text-anchor:start" x="559.45648" y="104.09232">Midday</tspan>
        </text>
        <text id="text2276" style="fill:#000000;font-family:Arial;font-size:8px;letter-spacing:0px;line-height:1.25;text-align:center;text-anchor:middle;word-spacing:0px" x="486.07669" y="101.84515" xml:space="preserve">
            <tspan id="tspan2274" style="fill:#000000;text-align:end;text-anchor:end" x="496.07669" y="101.84515">Midnight</tspan>
        </text>
    </g>
    <g id="g2896" style="font-size:30px;font-family:sans-serif;fill:#000000">
        <text id="text2280" style="fill:#000000;font-family:Arial;font-size:8px;letter-spacing:0px;line-height:1.25;text-align:center;text-anchor:middle;word-spacing:0px" x="391.72235" y="55.726562" xml:space="preserve">
            <tspan id="tspan2278" style="fill:#000000;text-align:center;text-anchor:middle" x="401.72235" y="55.726562">Midnight</tspan>
        </text>
        <text id="text2284" style="fill:#000000;font-family:Arial;font-size:8px;letter-spacing:0px;line-height:1.25;text-align:center;text-anchor:middle;word-spacing:0px" x="320.26263" y="55.726562" xml:space="preserve">
            <tspan id="tspan2282" style="fill:#000000;text-align:center;text-anchor:middle" x="330.26263" y="55.726562">Late day</tspan>
        </text>
        <text id="text2288" style="fill:#000000;font-family:Arial;font-size:8px;letter-spacing:0px;line-height:1.25;text-align:center;text-anchor:middle;word-spacing:0px" x="247.00516" y="55.726562" xml:space="preserve">
            <tspan id="tspan2286" style="fill:#000000;text-align:center;text-anchor:middle" x="257.00516" y="55.726562">Midday</tspan>
        </text>
        <text id="text2292" style="fill:#000000;font-family:Arial;font-size:8px;letter-spacing:0px;line-height:1.25;text-align:center;text-anchor:middle;word-spacing:0px" x="175.54544" y="55.726562" xml:space="preserve">
            <tspan id="tspan2290" style="fill:#000000;text-align:center;text-anchor:middle" x="185.54544" y="55.726562">Predawn</tspan>
        </text>
    </g>
    <g id="g2870" style="font-size:30px;font-family:sans-serif;fill:#000000">
        <text id="text2860" style="fill:#000000;font-family:Arial;font-size:8px;letter-spacing:0px;line-height:1.25;text-align:center;text-anchor:middle;word-spacing:0px" x="176.17746" y="308.39206" xml:space="preserve">
            <tspan id="tspan2858" x="186.17746" y="308.39206">Total RNA</tspan>
        </text>
        <text id="text2864" style="fill:#000000;font-family:Arial;font-size:8px;letter-spacing:0px;line-height:1.25;text-align:center;text-anchor:middle;word-spacing:0px" x="246.28889" y="308.39206" xml:space="preserve">
            <tspan id="tspan2862" x="256.28889" y="308.39206">Polysomal mRNA</tspan>
        </text>
    </g>
	<g id="g1027">
		<circle id="circle2306" cx="485.28" cy="212.92" r="5.956" style="fill:#999999"/>
		<circle id="circle2312" cx="485.28" cy="265.95" r="5.956" style="fill:#fb77ce"/>
		<circle id="condition_Cold" cx="131.89" cy="85.84" r="5.956" style="fill:#3fa9f5"/>
		<circle id="condition_Osmotic" cx="131.89" cy="134.95" r="5.956" style="fill:#f69921"/>
		<circle id="condition_Salt" cx="131.89" cy="212.92" r="5.956" style="fill:#00ffff"/>
		<circle id="circle2298" cx="131.89" cy="265.95" r="5.956" style="fill:#26e45c"/>
	</g>

</svg>
