<?xml version="1.0" encoding="utf-8"?>
<!-- Generator: Adobe Illustrator 18.1.1, SVG Export Plug-In . SVG Version: 6.00 Build 0)  -->
<svg version="1.1" id="Layer_1" xmlns="http://www.w3.org/2000/svg" xmlns:xlink="http://www.w3.org/1999/xlink" x="0px" y="0px"
	 viewBox="0 0 900 600" enable-background="new 0 0 900 600" xml:space="preserve">
<g id="Botrytis_cinerea">
	<g id="Labels">
		<text transform="matrix(1 0 0 1 32.9314 97.314)" font-family="'HelveticaNeue-Italic'" font-size="18">Myzus persicaere </text>
		<text transform="matrix(1 0 0 1 177.2314 97.314)" font-family="'HelveticaNeue'" font-size="18">(aphid)</text>
		<text transform="matrix(1 0 0 1 401.8842 474.6665)" font-family="'HelveticaNeue-Thin'" font-size="10">Control</text>
		<text transform="matrix(1 0 0 1 611.4377 475.6665)" font-family="'HelveticaNeue-Thin'" font-size="10">Aphid infested</text>
		<text transform="matrix(1 0 0 1 104.9961 162)" font-family="'HelveticaNeue'" font-size="8">24hr</text>
	</g>
	<g id="infoButton_Botrytis_cinerea">
		<circle fill="#5299FF" cx="255.2" cy="91.2" r="9.2"/>
		<text transform="matrix(1 0 0 1 253.4521 95.5)" fill="#FFFFFF" font-family="'HelveticaNeue-Bold'" font-size="12">i</text>
	</g>
	<g id="treatmentInfographic">
		<g id="root">
			<path fill="none" stroke="#000000" stroke-width="0.5" stroke-miterlimit="10" d="M86.4,296c0.8-2.1,0-4.2-0.7-5.9
				c-0.1-0.2-0.2-0.4-0.2-0.6c-1-2.9,1.6-5.7,1.6-5.7"/>
			<path fill="none" stroke="#000000" stroke-width="0.5" stroke-miterlimit="10" d="M94.3,262.9c0,0,2.3-4.1,4.1-5.9"/>
			<path fill="none" stroke="#000000" stroke-width="0.5" stroke-miterlimit="10" d="M99.1,272.4c-0.7-1.9-3.9-2.2-4-2.2"/>
			<path fill="none" stroke="#000000" stroke-width="0.5" stroke-miterlimit="10" d="M79.7,271.1c-2.2,0.7-6.8,3.6-7,3.7"/>
			<path fill="none" stroke="#000000" stroke-width="0.5" stroke-miterlimit="10" d="M83.8,271.2c-3.1-0.4-8.2,5.1-8.5,5.3"/>
			<path fill="none" stroke="#000000" stroke-width="0.5" stroke-miterlimit="10" d="M76.9,262c-8.2-0.9-13.7,3.5-13.8,3.6"/>
			<path fill="none" stroke="#000000" stroke-width="0.5" stroke-miterlimit="10" d="M85.1,261.9c-1.2-1.1-2.6-4.6-2.6-4.6"/>
			<path fill="none" stroke="#000000" stroke-width="0.5" stroke-miterlimit="10" d="M89.1,264.1c0,0,0.3,0.9,0.4,1.4"/>
			<path fill="none" stroke="#000000" stroke-width="0.5" stroke-miterlimit="10" d="M101,284.3c-1.4-3.1-4.8-6.6-4.9-6.6"/>
			<path fill="none" stroke="#000000" stroke-width="0.5" stroke-miterlimit="10" d="M87.8,262.7L87.8,262.7
				C87.7,262.7,87.7,262.7,87.8,262.7"/>
			<path fill="none" stroke="#000000" stroke-width="0.5" stroke-miterlimit="10" d="M93.4,286.6c-0.3-0.3-1.9-1.6-1.9-3.2
				c-0.1-1.5-0.5-3.4-1.3-5.4c-0.1-0.4-0.5-0.6-0.4-0.4c0.4-0.9,0.6-2.6,0.6-3.2c0-0.2,0-0.4,0-0.6c0-0.5,0.1-0.8,0.2-1.2
				c0.1-0.3,0.1-0.6,0.2-0.9"/>
			<path fill="none" stroke="#000000" stroke-width="0.5" stroke-miterlimit="10" d="M86.1,324.6c-0.1-0.9,0.2-1.6,0.7-2.6
				c0.2-1-0.1-3.2-0.5-4.8c-0.6-2.6,2.2-5.3,2.3-5.4l0.1,0.1c0.1-0.9,0.3-1.9,0.6-2.8c0.1-0.7,0.1-1.7,0.1-2.7
				c0-1.6-0.1-3.3,0.4-4.2c0.1-0.2,0.2-0.5,0.3-0.8c0.7-1.9,1.4-3.8,1.1-7.8c-1.5-3.6-1.1-2.5-1.6-3.3s-1.3-0.4-2-4.2
				c-0.7-3.8,0-5.2,0-7s0.9-6.2,1.2-7.5"/>
			<path fill="none" stroke="#000000" stroke-width="0.5" stroke-miterlimit="10" d="M95.5,330.7c-0.8-0.5-0.9-1.7-1-2.5
				c0-0.3,0-0.5-0.1-0.6c-1.1-1.1-0.9-2.3-0.6-3.8c0-1.4-1.1-2.3-1.5-2.6c0.1,0.6,0.1,1.2,0.1,1.5c-0.3,1.5-1,4.8,0.4,9.6
				c0.2,0.5,0.5,1,0.8,1.5l0,0c0.6,4.2,0.9,7.7,0.9,7.7l-0.1-1.6c0,0-0.5-1.8-1.1-6c-0.2-0.5-0.4-0.9-0.6-1.3l0,0
				c0-0.1,0-0.1-0.1-0.2c-1.1-2.2-2.1-4.1-1.9-7.4v-0.2c0.2-4.1,0.2-5.4-1.7-9.3c-0.3-0.9-0.3-2.6-0.3-3.7"/>
			<path fill="none" stroke="#000000" stroke-width="0.5" stroke-miterlimit="10" d="M96.5,311.3c0.3-3.2-0.5-4.2-1.1-5l-0.1-0.1
				c-0.8-1-0.8-2.2-0.7-4.7c0-2.6-1.4-3.6-1.9-3.9c0,1.1-0.1,2.2-0.3,2.9l-0.1,0.2c-0.8,1.9-1.3,3-1.1,5.3c0.1,1.7-0.3,3.7-0.6,4.9
				c-0.1,0.5-0.2,0.9-0.2,1.1c-0.2,1.1,0.3,2.9,0.8,3.5c0.4,0.7,0.6,1.7,0.8,2.4c0.1,0.3,0.1,0.6,0.2,0.8l0,0v0.3
				c0.1,0.5,0.2,1.1,0.3,1.7l0.1,0.4"/>
			<path fill="none" stroke="#000000" stroke-width="0.5" stroke-miterlimit="10" d="M89.8,277.6c-0.4,2-0.3,2-0.3,4s-0.3,3.1,0,4.1
				s0.8,1.8,1.2,2.3c0.9,1.3,1.8,2.5,1.9,4.3c0,0.4,0,0.9,0,1.4c0,1.1,0,2.6,0,3.8"/>
			<path fill="none" stroke="#000000" stroke-width="0.5" stroke-miterlimit="10" d="M112.4,259.8c-3-0.3-6,1.2-6.1,1.3h0.8
				c-2,0-4.5,0.3-6.9,1.1"/>
			<path fill="none" stroke="#000000" stroke-width="0.5" stroke-miterlimit="10" d="M113.9,262.7c-1.8-0.9-4.1-1.6-6.8-1.7"/>
			<path fill="none" stroke="#000000" stroke-width="0.5" stroke-miterlimit="10" d="M88.2,270.3c0.2-0.1,1-0.1,1.2-0.4
				c0.3-0.4,0.4-1.1,0.2-1.8l0,0c-0.1-0.2-0.3-0.4-0.4-0.7c-0.6-0.9-1.5-2.3-1.3-4.5"/>
			<path fill="none" stroke="#000000" stroke-width="0.5" stroke-miterlimit="10" d="M90.3,268L90.3,268c-0.2,1-0.1,1.8-0.1,1.8"/>
			<path fill="none" stroke="#000000" stroke-width="0.5" stroke-miterlimit="10" d="M117.2,268.5c-8.6-7.4-14.7-5.1-14.7-5.1"/>
			<line fill="none" stroke="#000000" stroke-width="0.5" stroke-miterlimit="10" x1="90.6" y1="267.4" x2="90.4" y2="267.8"/>
			<line fill="none" stroke="#000000" stroke-width="0.5" stroke-miterlimit="10" x1="90.4" y1="268" x2="90.4" y2="267.8"/>
			<line fill="none" stroke="#000000" stroke-width="0.5" stroke-miterlimit="10" x1="89.6" y1="262.2" x2="89.6" y2="262.5"/>
		</g>
		<path id="rosette" fill="none" stroke="#000000" stroke-width="0.5" stroke-miterlimit="10" d="M56.8,270.1c0,0-0.8-0.5,2.1-4.2
			c2.4-2.9,5.3-6.2,7.3-7.3c2.1-1.3,4.1-2.8,8.5-1.1c1.4,0.8,2.3,1.4,3.7,2.8c0.7,1.1,2.7,2,2.9,2.3c1,0.5,5.5,3.7,6.7,4.2
			c-1.2-1.1-5.1-4.5-6.4-5.1c-1.4-0.6-2.6-1.7-2.2-5.9c0.4-2.4,0.9-3.8,0.9-3.8c1,0.8,5,4.5,5.7,5.8c0.6,1,0.2,1.7,0.6,2.8
			c0.3,1,0.9,2.1,1.3,2.3c0.1-0.7,0.3-1.8,0.3-1.8c0.3,0.5,1.6,1.5,1.6,1.5c0.2,0.5,1,2.6,0.9,3.1c-0.1,0.8-0.3,2-0.3,2
			c0.6-0.8,2-2,2.6-4.7c0.2-1.5,0.1-4.5,1.1-5.8c0.9-1.3,1.6-2.6,3.7-3.1c1.1-0.3,2.9-0.8,3.5,1.9c0.1,0.9-0.1,2.1-2.2,4.5
			c-1.4,1.3-4.5,4-4.5,4.1c-0.7,0.8-1,1.2-1,1.2c1.4-1,5.7-3.3,6.3-3.5c0.6-0.8,4.5-5,9.5-5.6c2.2-0.2,7.4,1.2,8.9,1.9
			c-0.8,0.4-2.2,1.2-2.4,1.9c-0.3,0.8-1,2.3-1.9,2.3c0.9,0.6,4,2.6,5.2,4.3c1,1.1,4.1,3.4,6.1,3.9c-0.3,0.5-6.5,2.9-9.6,1.9
			s-4.8-2.9-7.7-5.2c-1.7-1.2-4.4-3-8.4-2.3c-2.2,0.5-6.2,1.8-8,3.2c-0.3,0.4-0.3,0.4-0.3,0.4c1,0,8.3-0.7,9.7,1.1
			c1.2,1.6,2.5,3.4,2.5,3.4c-0.7,0.6-4.4,3.6-8.2,0c-1.5-1.7-2.7-3.3-4-3.2c0.6,0.8,3.6,4.8,5.6,5.9c2.2,0.6,8.1,1.4,9.5,6.1
			c0.8,2.6,1,5.7,1,5.7c-1.3,0.6-5.5,3.5-11.3-3.8c-1.3-2.6-1.6-2.8-2.7-8.3c-0.8-1.5-1.5-3-2.8-4c-1.3-0.1-1.9-0.1-2,0
			c-1,0.1-3.8,0.3-4.9,2.1c-1.3,1.7-3.3,4.1-7.7,6.4c-2.2,1-4.4,2.1-7.7-1.9c-0.8-1.3-1.2-3.9,0.1-5.4c1.4-1.6,3.9-4.7,6.4-4.6
			c1.7,0.1,8.4,1.3,13.3,2.2c-0.6-0.8-4.3-5.7-12-5.8c-1.5,0.1-3.4,0.4-5.7,1.9c-2.6,1.6-5.9,4.5-10,3.2
			C59.4,269.6,57.9,269.5,56.8,270.1z"/>
		<path id="aphidClip" fill="#FFFFFF" stroke="#000000" stroke-width="0.5" stroke-miterlimit="10" d="M76.7,252.5
			c0.8,0.4,0,8.6,0,9.1c0,1.3-3,2.4-6.8,2.4s-6.8-1.1-6.8-2.4c0-0.6-0.8-8.6,0.2-9 M69.9,250.2c-3.7,0-6.8,1.1-6.8,2.4
			s3,2.4,6.8,2.4s6.8-1.1,6.8-2.4S73.7,250.2,69.9,250.2z"/>
		<path id="aphidClip_1_" fill="#FFFFFF" stroke="#000000" stroke-width="0.5" stroke-miterlimit="10" d="M114.4,252.5
			c0.8,0.4,0,8.6,0,9.1c0,1.3-3,2.4-6.8,2.4s-6.8-1.1-6.8-2.4c0-0.6-0.8-8.6,0.2-9 M107.7,250.2c-3.7,0-6.8,1.1-6.8,2.4
			s3,2.4,6.8,2.4s6.8-1.1,6.8-2.4S111.4,250.2,107.7,250.2z"/>
		<path id="aphid" d="M138.9,236.7c0.2-0.1,1.1-0.6,1.2-0.8c0.9-1.6,2-3.1,3-4.6c0.3-0.4,0.7-0.7,1.2-0.8c0.6,0,1.3,0,1.9,0.1
			c0.3,0,1.4,0.3,1.6,0c0.2-0.3,0.7-1,0.8-1.3s0.4-0.8,0-1c-0.8-0.4-2.8-0.5-3.2-1.4c-0.1-0.3-0.1-0.6,0-0.9
			c0.4-0.9,0.8-1.8,1.2-2.7c0.3-0.7,0.8-1.1,0.5-1.9c0,0.1-0.1-0.7-0.1-0.7s0,0,0.1,0c0,0.2,0.3,0.3,0.4,0.1c0,0,0,0,0-0.1v0.1
			c-0.1,0.2,0,0.8,0,1c0,0.4-0.1,0.8-0.3,1.2c-0.4,0.9-0.8,1.8-1.1,2.8c0,0.1-0.2,0.6-0.2,0.6c0.1,0.2,0.6,0.4,0.8,0.5
			s2,0.9,2.1,0.8c0.1-0.2,0.2-0.4,0.4-0.5c0.1,0,0.1-0.1,0.1-0.1c0.1-0.2,0.1-0.5,0.2-0.7c0.2-0.5,0.8-0.3,0.9,0.1
			c0.1,0.2,0.6,0,0.7,0c0.1,0,0.1,0.1,0.3,0c0.1-0.1,0.2-0.3,0.3-0.4c0.3-0.2,0.7,0,0.8,0.4c0,0.3,0.3,1.4,0.7,1.3
			c0.6-0.2,1.1-0.4,1.7-0.7c0.4-0.2,0.9-0.7,1.4-0.7c0.1,0,0.1,0,0.1-0.1c-0.4-1.1-0.6-2.3-1.1-3.3c-0.1-0.1,0-0.3,0-0.4
			c0.1-0.6,0.6-0.8,0.8-1.3c0-0.1,0.1-0.1,0.1-0.2c-0.2,0.6,0.1,0.1,0.2,0.2c0.1,0.1-0.6,0.8-0.6,0.8c-0.2,0.1-0.4,0.3-0.2,0.6
			c0.7,1.1,1.2,2.5,1.3,3.8c0,0.2-0.1,0.4-0.3,0.5c-0.7,0.4-1.4,0.7-2.1,1c-0.2,0.1-1.5,0.4-1.4,0.5c0.1,0.2,0.5,1,0.5,1.1
			c0,0.2,0.4,0.7,0.5,0.9s1.4,0,1.7-0.1c0.6,0,1.3-0.1,1.9,0c0.2,0,0.7,0.6,0.9,0.8c0.9,1.2,1.8,2.5,2.6,3.8
			c0.1,0.1,0.1,0.2,0.1,0.3c0,0.2,0.2,0.3,0.4,0.4c0.1,0,1,0.7,1,0.7h-0.2c-0.3,0.1,0,0.2,0,0.4c-0.2-0.2-0.4-0.3-0.6-0.4
			c-0.3-0.2-0.5-0.5-0.8-0.7c-0.6-0.4-1.1-1.6-1.5-2.2c-0.5-0.8-1.2-1.5-1.8-2.4c0-0.1-0.1,0-0.2,0c-1,0.1-2.1,0-3.1,0.1
			c0.2,0.5,0.5,0.9,0.7,1.4c0.1,0.3,0.2,0.9,0.4,1c0.9,0.3,1.9,0.7,2.8,1.2c0.2,0.1,0.4,0.2,0.5,0.4c0.2,0.8-0.4,1.9-0.7,2.7
			s-0.5,1.8-1,2.6c0,0.1,0,0.1,0,0.2c0.1,0.1,0.1,0.2,0.2,0.3c0.1,0.2,0.2,0.3,0.1,0.5c0,0.1,0,0.1,0.1,0.1c0,0,0.2,0.1,0.2,0.2
			c0,0.1-0.3-0.2-0.4-0.1c-0.1,0.1,0,0.2,0,0.3v0.1c-0.1,0-0.1,0-0.1-0.1c0-0.4-0.3-0.9-0.4-1.2c-0.1-0.3,0-0.6,0.1-0.9
			c0.1-0.4,1.5-4.1,1.2-4.3c-0.5-0.4-1.1-0.7-1.7-1c-0.3-0.1-0.9-0.7-0.9-0.1c0,0.7,0,1.4-0.2,2c-0.1,0.2-0.9,2.3-1.1,2.1v-0.1
			c0.4-0.7,0.7-1.3,0.9-2.1c0.2-0.6,0.2-1.2,0.2-1.8c-0.1-0.5-0.2-1.1-0.3-1.6c-0.3-1.1-0.9-2.1-1.5-3c-0.1-0.1-0.1-0.2-0.2-0.1
			c-0.2,0-0.4,0-0.6,0.1c0.1-0.1,0.2-0.1,0.3-0.2c0.1,0,0.2,0,0.3-0.1c0.1,0,0.1-0.1,0.1-0.1c0-0.1-0.2-0.5-0.4-0.4
			c-0.1,0-0.3,0-0.4,0.1c0.1-0.2,0.4-0.2,0.4-0.4c0-0.3-0.3-0.5-0.5-0.3c0-0.2,0.2-0.1,0.2-0.2c-0.2,0-0.3-0.1-0.4-0.2
			c0,0,0.2-1,0-1c0,0-0.2,0.8-0.2,0.9c-0.2,0.6-0.2,1.3-0.2,1.9c-0.1,1.3-0.1,2.7,0.2,4c0.2,1.1,0.6,2.1,1,3.1
			c0.6,1.3,1.5,2.4,2.4,3.6c0,0.1,0.1,0.1,0,0.2c-0.1,0.1-0.1,0-0.1,0c-0.9-0.6-1.7-1.9-2.2-2.8c-0.7-1.2-1.1-2.4-1.4-3.7
			c-0.2-1.2-0.4-2.5-0.3-3.8c0-0.7,0.1-1.4,0.2-2c0.1-0.5-0.1-1.1,0-1.6c0-0.2,0.2-0.3,0.4-0.3c-0.5-0.2-0.5,0.4-0.5,0.7
			c-0.2-0.1-0.6-0.5-0.8-0.2c-0.2,0.2-0.4,0-0.6,0.1c0-0.2-0.3-0.8-0.5-0.4c0.4,0,0.4,0.2,0.4,0.4c0.1,1.5,0.5,3,0.5,4.6
			c-0.1,1.5-0.4,3.1-0.9,4.5c-0.6,1.7-1.6,3.7-3,4.9c-0.1,0-0.1,0.1-0.2,0c-0.1-0.1,0-0.1,0-0.2c0.4-0.6,0.8-1.1,1.2-1.7
			c0-0.1,0-0.1,0-0.1c-0.3-0.3-0.5-0.6-0.7-1c-0.3-0.5-0.4-1.1-0.5-1.7c-0.1-0.5-0.1-1-0.1-1.4c0-0.1,0-0.2,0-0.2
			c0-0.1,0-0.1-0.1-0.1c-0.8,0.4-1.6,0.8-2.4,1.2c0,0-0.1,0-0.2,0c-0.3,0,0,0.6,0.1,0.8c0.2,0.5,0.3,0.9,0.4,1.4
			c0.3,0.9,0.6,1.9,0.9,2.8c0.1,0.2,0,0.4-0.1,0.6c-0.1,0.1-0.6,1.1-0.7,1.1c0,0,0.1-0.5-0.2-0.2c-0.1,0.1-0.1,0.2-0.2,0.2
			c0-0.2,0-0.3,0.1-0.3c0.3-0.3,0.3-0.7,0.7-1c0.1,0,0.1-0.1,0-0.1c-0.3-0.8-0.7-1.7-1-2.5s-0.8-1.6-0.8-2.5c0-0.3,0.1-0.6,0.4-0.8
			c0.8-0.6,1.8-0.9,2.8-1.3c0.2-0.1,0.3-0.2,0.4-0.5c0.1-0.7,0.4-1.4,0.8-2c0.1-0.2,0.1-0.2-0.1-0.2c-1,0.1-2.1,0-3.1-0.1
			c-0.1,0-0.1,0-0.1,0.1c-0.2,0.8-1.2,1.7-1.6,2.3c-0.6,0.8-1.1,1.5-1.7,2.3c-0.2,0.4-0.7,0.5-0.9,0.8c0,0.1-0.5,0.4-0.6,0.4
			c0,0,0.3-0.4,0.1-0.3C139.1,236.7,139,236.7,138.9,236.7L138.9,236.7C139.2,236.6,138.9,236.7,138.9,236.7z M149.1,229.5
			c-0.4-0.1-0.4-0.1-0.5,0.2c-0.1,0.2-0.1,0.2,0.1,0.3c0.1,0,0.6,0.3,0.6,0.3c0,0.1-0.1,0-0.1,0c-0.3-0.1-0.7-0.5-0.9-0.2
			c-0.4,0.7-0.8,1.3-1.1,2c-0.3,0.6-0.5,1.3-0.6,2c-0.1,0.5-0.1,1.1,0,1.6c0.1,0.9,0.3,1.7,0.8,2.5c0.1,0.2,0.3,0.4,0.4,0.6
			c1.6-2.7,2.6-6,2.2-9.2c-0.1-0.6-0.1-2.1-0.6-2.5c0,0.2,0,0.5-0.1,0.7c0,0.2-0.5,0.5-0.5,0.5c0,0.1,0.2,0,0.2,0.1
			c0-0.1-0.4,0.7-0.4,0.5c-0.1,0.2-0.1,0.2,0.1,0.2C149,229.3,149.1,229.4,149.1,229.5C148.8,229.4,149.1,229.4,149.1,229.5z
			 M144.8,240.5c0.2-0.6-0.5-2-0.7-2.6c-0.1-0.4-0.3-0.8-0.4-1.3c0-0.1-0.4-0.9-0.4-1c0,0,1.1-0.4,1.2-0.4c0.6-0.3,1.2-0.6,1.7-1
			c0.1-0.1,0.2-0.3,0.1-0.5c-0.9,0.5-1.9,0.8-2.7,1.3c-0.9,0.5-0.3,1.6,0,2.3C144.1,238.5,144.5,239.5,144.8,240.5
			C144.9,240.4,144.7,240.1,144.8,240.5z M154.1,231c0.2,0.5,3.6,0.2,3.6,0.2c0,0.1,0,0.2,0.1,0.2c1.1,1.3,2.1,2.8,3,4.2
			c0.1,0.1,0.3,0,0.2-0.1c-0.8-1.4-1.7-2.8-2.7-4c-0.1-0.2-0.3-0.4-0.5-0.4c-0.1,0,0-0.2-0.2-0.3C156.4,230.7,155.3,230.9,154.1,231
			C154.2,231.2,154.4,230.9,154.1,231z M158.4,235.7c0.2-0.3,0.2-0.4-0.1-0.5c-0.9-0.4-1.8-1-2.8-1.2c-0.5-0.1,0.5,0.5,0.5,0.5
			c0.7,0.3,1.4,0.7,2,1.2C158.2,235.8,158.2,235.5,158.4,235.7c-0.2,0.1-0.3,0.2-0.3,0.4c-0.3,1.3-0.8,2.6-1.2,4
			c0,0.1,0,0.2,0.1,0.2s0.1-0.1,0.1-0.1c0.5-1.4,0.9-2.8,1.4-4.2C158.5,235.8,158.6,235.7,158.4,235.7
			C158.6,235.4,158.6,235.7,158.4,235.7z M145.6,226.8c0-0.1,0.3-0.3,0.3-0.4c0.3-1.1,0.8-2.1,1.2-3.2c0.1-0.1,0-0.2,0-0.3
			c-0.1-0.1-1,1.9-1,2.1c-0.2,0.6-1,1.8-0.3,2.2c0.8,0.5,1.9,1,2.9,1.2c0.1,0,0.2-0.1,0.1-0.2c0-0.1-0.1-0.1-0.2-0.1
			c-0.5-0.2-1.1-0.4-1.6-0.6C146.6,227.2,146,226.6,145.6,226.8C145.6,226.7,145.9,226.7,145.6,226.8z M148.2,238.5L148.2,238.5
			C148.3,238.5,148.3,238.5,148.2,238.5c1.4-2.2,2.1-4.8,2.2-7.3c0-1.4-0.5-2.8-0.4-4.2c0-0.3-0.3-0.4-0.4-0.1
			c0,0.2,0.1,0.4,0.2,0.4c-0.1,0.1-0.1,0.1,0,0.3c0,0,0,0,0,0.1c0.1,0.9,0.4,1.8,0.4,2.8s0,2-0.2,3
			C149.7,235.1,149.1,236.9,148.2,238.5C148.2,238.5,148.3,238.3,148.2,238.5z M143.9,231.1c0-0.1-0.1-0.2-0.2-0.2
			c-0.2,0.1-0.3,0.2-0.4,0.3c-0.9,1.4-1.9,2.9-2.8,4.3c-0.1,0.1-0.1,0.1,0,0.2c0.1,0,0.1,0,0.2-0.1c0.5-0.7,1-1.5,1.6-2.2
			c0.5-0.7,1.2-1.4,1.6-2.2C143.8,231.3,143.9,231.2,143.9,231.1C143.9,231,143.9,231.2,143.9,231.1z M153.3,228.4
			c1.1-0.2,2.2-0.7,3.2-1.2c0.3-0.2,0.3-0.4,0-0.5s-1,0.5-1.3,0.6c-0.4,0.2-0.9,0.4-1.4,0.6c-0.1,0-1.1,0.5-0.8,0.5
			C153,228.4,153.2,228.3,153.3,228.4C153.3,228.4,153.2,228.3,153.3,228.4z M152,227.7c-0.1,0-0.1,0-0.1,0.1
			c-0.5,2.8-0.4,5.6,0.6,8.3c0.4,1,0.9,1.9,1.4,2.8c0-0.1,0-0.1,0-0.1c-1.9-3.3-2.8-7.1-1.9-10.8c0-0.1,0.1-0.2,0.2-0.4
			C152.2,227.2,151.5,227.4,152,227.7C151.9,227.7,151.8,227.6,152,227.7z M146.3,231.1L146.3,231.1c0.1,0,1.2,0.1,1.3,0
			c0.1-0.2-0.5-0.2-0.7-0.2c-1-0.1-1.9-0.1-2.9-0.2c-0.3,0-0.1,0.3,0.1,0.3C144.9,231,145.6,231.1,146.3,231.1
			C146.3,231.1,145.8,231.1,146.3,231.1z M156.7,226.7c-0.3-1.2-0.8-2.4-1.2-3.6c0-0.1-0.1,0-0.2-0.1c-0.1,0,0,0.1,0,0.1
			c0.4,1,0.7,2,1,3C156.4,226.4,156.5,226.6,156.7,226.7C156.7,226.5,156.5,226.6,156.7,226.7z M152.2,226.9c0-0.3-0.1-0.3-0.2-0.3
			c-0.1,0-0.1,0.1-0.2,0.1C151.7,227.3,152.2,227.4,152.2,226.9C152.2,226.6,152.2,227,152.2,226.9z M147.5,239.6
			c-0.3,0.4-0.6,0.8-0.9,1.2l0,0C147,240.5,147.2,240.1,147.5,239.6C147.2,240,147.2,240.1,147.5,239.6z M148.2,238.9
			c0,0,0.1-0.1,0.2-0.1l-0.1,0.4c0,0.7,0,1.4,0.3,2c0.1,0.2,0.3,0.5,0.4,0.7c0,0.2,0.4,0.1,0.3-0.1c0-0.1,0-0.1,0-0.2
			c0.1-0.3,0-0.6-0.2-0.9c-0.2-0.2-0.2-0.4-0.3-0.6c0-0.1-0.2-1.4-0.2-1.4c0.3-0.2,0.2,0.8,0.2,0.9c0,0.5,0.2,0.8,0.4,1.3
			c0.1,0.3,0.2,0.7,0.2,1c0,0.1,0.1,0.2,0,0.3s-0.5,0.2-0.5,0c0-0.3-0.2-0.4-0.3-0.7c-0.2-0.4-0.2-0.8-0.3-1.2c0-0.4,0-0.7-0.1-1.1
			C148.1,239.1,148.1,239,148.2,238.9L148.2,238.9z M148.9,242.1c0.1,0,0.2,0.1,0.3-0.1C149.1,242,149,242,148.9,242.1z
			 M153.6,238.8c0.1,0.1,0.1,0.1,0.1,0.2c-0.1,0.4-0.1,0.8-0.1,1.3c0,0.6-0.4,1.1-0.5,1.7c0,0.1-0.1,0.2-0.2,0.2
			c-0.3,0-0.5-0.1-0.4-0.4c0.1-0.3,0-0.7,0.1-1.1c0.1-0.3,0.3-0.6,0.3-0.9c0.1-0.2,0-1.1,0.1-1.3h0.3c0,0.1-0.1,0.1-0.1,0.1
			c-0.2,0.4-0.1,1.1-0.3,1.6c-0.1,0.2-0.6,1.4-0.4,1.6c0.1,0.1,0.2,0.1,0.3,0c0.1-0.3,0.3-0.5,0.4-0.8c0-0.1,0.1-0.2,0.1-0.4
			C153.4,240.1,153.4,239.4,153.6,238.8C153.7,238.9,153.5,239.1,153.6,238.8z M152.9,242.1c-0.1-0.1-0.2-0.1-0.3-0.1
			C152.7,242.1,152.7,242.1,152.9,242.1z M148.9,240.1c0.2,0.1,1.4,0.5,1.5,0.7s0.2,0.3,0.3,0.5c0.2,0.3,0.4,0.3,0.6,0
			c0.1-0.2,0.2-0.4,0.4-0.5c0.2-0.2,0.5-0.3,0.7-0.4c0.2-0.1,0.3-0.1,0.4-0.3c0,0,0,0,0-0.1h-0.1c-0.2,0.1-1.3,0.5-1.3,0.7l0.1,0.1
			c-0.1,0.2-0.2,0.3-0.4,0.3c0.1,0.1,0.1,0.2,0,0.3c0,0-0.1,0.1-0.2,0c-0.1-0.1-0.1-0.1-0.2-0.2c0,0,0.2,0,0.2-0.1
			c-0.1-0.1-0.7-0.2-0.3-0.4c0.1,0,0.1-0.1,0-0.1c-0.5,0-1-0.2-1.4-0.5c-0.2-0.1-0.3-0.2-0.5-0.2C148.8,240,148.8,240,148.9,240.1
			C149.3,240.3,148.8,240,148.9,240.1z"/>
		<path id="aphid_1_" d="M176.7,236.7c0.2-0.1,1.1-0.6,1.2-0.8c0.9-1.6,2-3.1,3-4.6c0.3-0.4,0.7-0.7,1.2-0.8c0.6,0,1.3,0,1.9,0.1
			c0.3,0,1.4,0.3,1.6,0c0.2-0.3,0.7-1,0.8-1.3s0.4-0.8,0-1c-0.8-0.4-2.8-0.5-3.2-1.4c-0.1-0.3-0.1-0.6,0-0.9
			c0.4-0.9,0.8-1.8,1.2-2.7c0.3-0.7,0.8-1.1,0.5-1.9c0,0.1-0.1-0.7-0.1-0.7s0,0,0.1,0c0,0.2,0.3,0.3,0.4,0.1c0,0,0,0,0-0.1v0.1
			c-0.1,0.2,0,0.8,0,1c0,0.4-0.1,0.8-0.3,1.2c-0.4,0.9-0.8,1.8-1.1,2.8c0,0.1-0.2,0.6-0.2,0.6c0.1,0.2,0.6,0.4,0.8,0.5
			s2,0.9,2.1,0.8c0.1-0.2,0.2-0.4,0.4-0.5c0.1,0,0.1-0.1,0.1-0.1c0.1-0.2,0.1-0.5,0.2-0.7c0.2-0.5,0.8-0.3,0.9,0.1
			c0.1,0.2,0.6,0,0.7,0c0.1,0,0.1,0.1,0.3,0c0.1-0.1,0.2-0.3,0.3-0.4c0.3-0.2,0.7,0,0.8,0.4c0,0.3,0.3,1.4,0.7,1.3
			c0.6-0.2,1.1-0.4,1.7-0.7c0.4-0.2,0.9-0.7,1.4-0.7c0.1,0,0.1,0,0.1-0.1c-0.4-1.1-0.6-2.3-1.1-3.3c-0.1-0.1,0-0.3,0-0.4
			c0.1-0.6,0.6-0.8,0.8-1.3c0-0.1,0.1-0.1,0.1-0.2c-0.2,0.6,0.1,0.1,0.2,0.2c0.1,0.1-0.6,0.8-0.6,0.8c-0.2,0.1-0.4,0.3-0.2,0.6
			c0.7,1.1,1.2,2.5,1.3,3.8c0,0.2-0.1,0.4-0.3,0.5c-0.7,0.4-1.4,0.7-2.1,1c-0.2,0.1-1.5,0.4-1.4,0.5c0.1,0.2,0.5,1,0.5,1.1
			c0,0.2,0.4,0.7,0.5,0.9s1.4,0,1.7-0.1c0.6,0,1.3-0.1,1.9,0c0.2,0,0.7,0.6,0.9,0.8c0.9,1.2,1.8,2.5,2.6,3.8
			c0.1,0.1,0.1,0.2,0.1,0.3c0,0.2,0.2,0.3,0.4,0.4c0.1,0,1,0.7,1,0.7h-0.2c-0.3,0.1,0,0.2,0,0.4c-0.2-0.2-0.4-0.3-0.6-0.4
			c-0.3-0.2-0.5-0.5-0.8-0.7c-0.6-0.4-1.1-1.6-1.5-2.2c-0.5-0.8-1.2-1.5-1.8-2.4c0-0.1-0.1,0-0.2,0c-1,0.1-2.1,0-3.1,0.1
			c0.2,0.5,0.5,0.9,0.7,1.4c0.1,0.3,0.2,0.9,0.4,1c0.9,0.3,1.9,0.7,2.8,1.2c0.2,0.1,0.4,0.2,0.5,0.4c0.2,0.8-0.4,1.9-0.7,2.7
			s-0.5,1.8-1,2.6c0,0.1,0,0.1,0,0.2c0.1,0.1,0.1,0.2,0.2,0.3c0.1,0.2,0.2,0.3,0.1,0.5c0,0.1,0,0.1,0.1,0.1c0,0,0.2,0.1,0.2,0.2
			c0,0.1-0.3-0.2-0.4-0.1c-0.1,0.1,0,0.2,0,0.3v0.1c-0.1,0-0.1,0-0.1-0.1c0-0.4-0.3-0.9-0.4-1.2c-0.1-0.3,0-0.6,0.1-0.9
			c0.1-0.4,1.5-4.1,1.2-4.3c-0.5-0.4-1.1-0.7-1.7-1c-0.3-0.1-0.9-0.7-0.9-0.1c0,0.7,0,1.4-0.2,2c-0.1,0.2-0.9,2.3-1.1,2.1v-0.1
			c0.4-0.7,0.7-1.3,0.9-2.1c0.2-0.6,0.2-1.2,0.2-1.8c-0.1-0.5-0.2-1.1-0.3-1.6c-0.3-1.1-0.9-2.1-1.5-3c-0.1-0.1-0.1-0.2-0.2-0.1
			c-0.2,0-0.4,0-0.6,0.1c0.1-0.1,0.2-0.1,0.3-0.2c0.1,0,0.2,0,0.3-0.1c0.1,0,0.1-0.1,0.1-0.1c0-0.1-0.2-0.5-0.4-0.4
			c-0.1,0-0.3,0-0.4,0.1c0.1-0.2,0.4-0.2,0.4-0.4c0-0.3-0.3-0.5-0.5-0.3c0-0.2,0.2-0.1,0.2-0.2c-0.2,0-0.3-0.1-0.4-0.2
			c0,0,0.2-1,0-1c0,0-0.2,0.8-0.2,0.9c-0.2,0.6-0.2,1.3-0.2,1.9c-0.1,1.3-0.1,2.7,0.2,4c0.2,1.1,0.6,2.1,1,3.1
			c0.6,1.3,1.5,2.4,2.4,3.6c0,0.1,0.1,0.1,0,0.2c-0.1,0.1-0.1,0-0.1,0c-0.9-0.6-1.7-1.9-2.2-2.8c-0.7-1.2-1.1-2.4-1.4-3.7
			c-0.2-1.2-0.4-2.5-0.3-3.8c0-0.7,0.1-1.4,0.2-2c0.1-0.5-0.1-1.1,0-1.6c0-0.2,0.2-0.3,0.4-0.3c-0.5-0.2-0.5,0.4-0.5,0.7
			c-0.2-0.1-0.6-0.5-0.8-0.2c-0.2,0.2-0.4,0-0.6,0.1c0-0.2-0.3-0.8-0.5-0.4c0.4,0,0.4,0.2,0.4,0.4c0.1,1.5,0.5,3,0.5,4.6
			c-0.1,1.5-0.4,3.1-0.9,4.5c-0.6,1.7-1.6,3.7-3,4.9c-0.1,0-0.1,0.1-0.2,0c-0.1-0.1,0-0.1,0-0.2c0.4-0.6,0.8-1.1,1.2-1.7
			c0-0.1,0-0.1,0-0.1c-0.3-0.3-0.5-0.6-0.7-1c-0.3-0.5-0.4-1.1-0.5-1.7c-0.1-0.5-0.1-1-0.1-1.4c0-0.1,0-0.2,0-0.2
			c0-0.1,0-0.1-0.1-0.1c-0.8,0.4-1.6,0.8-2.4,1.2c0,0-0.1,0-0.2,0c-0.3,0,0,0.6,0.1,0.8c0.2,0.5,0.3,0.9,0.4,1.4
			c0.3,0.9,0.6,1.9,0.9,2.8c0.1,0.2,0,0.4-0.1,0.6c-0.1,0.1-0.6,1.1-0.7,1.1c0,0,0.1-0.5-0.2-0.2c-0.1,0.1-0.1,0.2-0.2,0.2
			c0-0.2,0-0.3,0.1-0.3c0.3-0.3,0.3-0.7,0.7-1c0.1,0,0.1-0.1,0-0.1c-0.3-0.8-0.7-1.7-1-2.5s-0.8-1.6-0.8-2.5c0-0.3,0.1-0.6,0.4-0.8
			c0.8-0.6,1.8-0.9,2.8-1.3c0.2-0.1,0.3-0.2,0.4-0.5c0.1-0.7,0.4-1.4,0.8-2c0.1-0.2,0.1-0.2-0.1-0.2c-1,0.1-2.1,0-3.1-0.1
			c-0.1,0-0.1,0-0.1,0.1c-0.2,0.8-1.2,1.7-1.6,2.3c-0.6,0.8-1.1,1.5-1.7,2.3c-0.2,0.4-0.7,0.5-0.9,0.8c0,0.1-0.5,0.4-0.6,0.4
			c0,0,0.3-0.4,0.1-0.3C176.8,236.7,176.8,236.7,176.7,236.7L176.7,236.7C176.9,236.6,176.7,236.7,176.7,236.7z M186.9,229.5
			c-0.4-0.1-0.4-0.1-0.5,0.2c-0.1,0.2-0.1,0.2,0.1,0.3c0.1,0,0.6,0.3,0.6,0.3c0,0.1-0.1,0-0.1,0c-0.3-0.1-0.7-0.5-0.9-0.2
			c-0.4,0.7-0.8,1.3-1.1,2c-0.3,0.6-0.5,1.3-0.6,2c-0.1,0.5-0.1,1.1,0,1.6c0.1,0.9,0.3,1.7,0.8,2.5c0.1,0.2,0.3,0.4,0.4,0.6
			c1.6-2.7,2.6-6,2.2-9.2c-0.1-0.6-0.1-2.1-0.6-2.5c0,0.2,0,0.5-0.1,0.7c0,0.2-0.5,0.5-0.5,0.5c0,0.1,0.2,0,0.2,0.1
			c0-0.1-0.4,0.7-0.4,0.5c-0.1,0.2-0.1,0.2,0.1,0.2C186.8,229.3,186.8,229.4,186.9,229.5C186.5,229.4,186.8,229.4,186.9,229.5z
			 M182.6,240.5c0.2-0.6-0.5-2-0.7-2.6c-0.1-0.4-0.3-0.8-0.4-1.3c0-0.1-0.4-0.9-0.4-1c0,0,1.1-0.4,1.2-0.4c0.6-0.3,1.2-0.6,1.7-1
			c0.1-0.1,0.2-0.3,0.1-0.5c-0.9,0.5-1.9,0.8-2.7,1.3c-0.9,0.5-0.3,1.6,0,2.3C181.8,238.5,182.2,239.5,182.6,240.5
			C182.6,240.4,182.4,240.1,182.6,240.5z M191.9,231c0.2,0.5,3.6,0.2,3.6,0.2c0,0.1,0,0.2,0.1,0.2c1.1,1.3,2.1,2.8,3,4.2
			c0.1,0.1,0.3,0,0.2-0.1c-0.8-1.4-1.7-2.8-2.7-4c-0.1-0.2-0.3-0.4-0.5-0.4c-0.1,0,0-0.2-0.2-0.3C194.2,230.7,193,230.9,191.9,231
			C191.9,231.2,192.2,230.9,191.9,231z M196.2,235.7c0.2-0.3,0.2-0.4-0.1-0.5c-0.9-0.4-1.8-1-2.8-1.2c-0.5-0.1,0.5,0.5,0.5,0.5
			c0.7,0.3,1.4,0.7,2,1.2C196,235.8,196,235.5,196.2,235.7c-0.2,0.1-0.3,0.2-0.3,0.4c-0.3,1.3-0.8,2.6-1.2,4c0,0.1,0,0.2,0.1,0.2
			s0.1-0.1,0.1-0.1c0.5-1.4,0.9-2.8,1.4-4.2C196.3,235.8,196.4,235.7,196.2,235.7C196.4,235.4,196.4,235.7,196.2,235.7z
			 M183.4,226.8c0-0.1,0.3-0.3,0.3-0.4c0.3-1.1,0.8-2.1,1.2-3.2c0.1-0.1,0-0.2,0-0.3c-0.1-0.1-1,1.9-1,2.1c-0.2,0.6-1,1.8-0.3,2.2
			c0.8,0.5,1.9,1,2.9,1.2c0.1,0,0.2-0.1,0.1-0.2c0-0.1-0.1-0.1-0.2-0.1c-0.5-0.2-1.1-0.4-1.6-0.6
			C184.4,227.2,183.7,226.6,183.4,226.8C183.3,226.7,183.6,226.7,183.4,226.8z M186,238.5L186,238.5L186,238.5
			c1.4-2.2,2.1-4.8,2.2-7.3c0-1.4-0.5-2.8-0.4-4.2c0-0.3-0.3-0.4-0.4-0.1c0,0.2,0.1,0.4,0.2,0.4c-0.1,0.1-0.1,0.1,0,0.3
			c0,0,0,0,0,0.1c0.1,0.9,0.4,1.8,0.4,2.8s0,2-0.2,3C187.5,235.1,186.8,236.9,186,238.5C186,238.5,186.1,238.3,186,238.5z
			 M181.6,231.1c0-0.1-0.1-0.2-0.2-0.2c-0.2,0.1-0.3,0.2-0.4,0.3c-0.9,1.4-1.9,2.9-2.8,4.3c-0.1,0.1-0.1,0.1,0,0.2
			c0.1,0,0.1,0,0.2-0.1c0.5-0.7,1-1.5,1.6-2.2c0.5-0.7,1.2-1.4,1.6-2.2C181.6,231.3,181.6,231.2,181.6,231.1
			C181.7,231,181.6,231.2,181.6,231.1z M191.1,228.4c1.1-0.2,2.2-0.7,3.2-1.2c0.3-0.2,0.3-0.4,0-0.5s-1,0.5-1.3,0.6
			c-0.4,0.2-0.9,0.4-1.4,0.6c-0.1,0-1.1,0.5-0.8,0.5C190.8,228.4,190.9,228.3,191.1,228.4C191.1,228.4,190.9,228.3,191.1,228.4z
			 M189.7,227.7c-0.1,0-0.1,0-0.1,0.1c-0.5,2.8-0.4,5.6,0.6,8.3c0.4,1,0.9,1.9,1.4,2.8c0-0.1,0-0.1,0-0.1c-1.9-3.3-2.8-7.1-1.9-10.8
			c0-0.1,0.1-0.2,0.2-0.4C189.9,227.2,189.2,227.4,189.7,227.7C189.6,227.7,189.5,227.6,189.7,227.7z M184.1,231.1L184.1,231.1
			c0.1,0,1.2,0.1,1.3,0c0.1-0.2-0.5-0.2-0.7-0.2c-1-0.1-1.9-0.1-2.9-0.2c-0.3,0-0.1,0.3,0.1,0.3C182.6,231,183.4,231.1,184.1,231.1
			C184.1,231.1,183.6,231.1,184.1,231.1z M194.5,226.7c-0.3-1.2-0.8-2.4-1.2-3.6c0-0.1-0.1,0-0.2-0.1c-0.1,0,0,0.1,0,0.1
			c0.4,1,0.7,2,1,3C194.1,226.4,194.3,226.6,194.5,226.7C194.4,226.5,194.3,226.6,194.5,226.7z M190,226.9c0-0.3-0.1-0.3-0.2-0.3
			c-0.1,0-0.1,0.1-0.2,0.1C189.4,227.3,189.9,227.4,190,226.9C190,226.6,190,227,190,226.9z M185.3,239.6c-0.3,0.4-0.6,0.8-0.9,1.2
			l0,0C184.7,240.5,185,240.1,185.3,239.6C185,240,185,240.1,185.3,239.6z M185.9,238.9c0,0,0.1-0.1,0.2-0.1l-0.1,0.4
			c0,0.7,0,1.4,0.3,2c0.1,0.2,0.3,0.5,0.4,0.7c0,0.2,0.4,0.1,0.3-0.1c0-0.1,0-0.1,0-0.2c0.1-0.3,0-0.6-0.2-0.9
			c-0.2-0.2-0.2-0.4-0.3-0.6c0-0.1-0.2-1.4-0.2-1.4c0.3-0.2,0.2,0.8,0.2,0.9c0,0.5,0.2,0.8,0.4,1.3c0.1,0.3,0.2,0.7,0.2,1
			c0,0.1,0.1,0.2,0,0.3s-0.5,0.2-0.5,0c0-0.3-0.2-0.4-0.3-0.7c-0.2-0.4-0.2-0.8-0.3-1.2c0-0.4,0-0.7-0.1-1.1
			C185.9,239.1,185.9,239,185.9,238.9L185.9,238.9z M186.7,242.1c0.1,0,0.2,0.1,0.3-0.1C186.9,242,186.8,242,186.7,242.1z
			 M191.3,238.8c0.1,0.1,0.1,0.1,0.1,0.2c-0.1,0.4-0.1,0.8-0.1,1.3c0,0.6-0.4,1.1-0.5,1.7c0,0.1-0.1,0.2-0.2,0.2
			c-0.3,0-0.5-0.1-0.4-0.4c0.1-0.3,0-0.7,0.1-1.1c0.1-0.3,0.3-0.6,0.3-0.9c0.1-0.2,0-1.1,0.1-1.3h0.3c0,0.1-0.1,0.1-0.1,0.1
			c-0.2,0.4-0.1,1.1-0.3,1.6c-0.1,0.2-0.6,1.4-0.4,1.6c0.1,0.1,0.2,0.1,0.3,0c0.1-0.3,0.3-0.5,0.4-0.8c0-0.1,0.1-0.2,0.1-0.4
			C191.2,240.1,191.2,239.4,191.3,238.8C191.4,238.9,191.3,239.1,191.3,238.8z M190.6,242.1c-0.1-0.1-0.2-0.1-0.3-0.1
			C190.4,242.1,190.5,242.1,190.6,242.1z M186.7,240.1c0.2,0.1,1.4,0.5,1.5,0.7s0.2,0.3,0.3,0.5c0.2,0.3,0.4,0.3,0.6,0
			c0.1-0.2,0.2-0.4,0.4-0.5c0.2-0.2,0.5-0.3,0.7-0.4c0.2-0.1,0.3-0.1,0.4-0.3c0,0,0,0,0-0.1h-0.1c-0.2,0.1-1.3,0.5-1.3,0.7l0.1,0.1
			c-0.1,0.2-0.2,0.3-0.4,0.3c0.1,0.1,0.1,0.2,0,0.3c0,0-0.1,0.1-0.2,0c-0.1-0.1-0.1-0.1-0.2-0.2c0,0,0.2,0,0.2-0.1
			c-0.1-0.1-0.7-0.2-0.3-0.4c0.1,0,0.1-0.1,0-0.1c-0.5,0-1-0.2-1.4-0.5c-0.2-0.1-0.3-0.2-0.5-0.2C186.6,240,186.6,240,186.7,240.1
			C187.1,240.3,186.6,240,186.7,240.1z"/>
	</g>
	<g id="treatmentInfographic_1_">
		<g id="root_1_">
			<path fill="none" stroke="#000000" stroke-width="0.5" stroke-miterlimit="10" d="M168.9,296c0.8-2.1,0-4.2-0.7-5.9
				c-0.1-0.2-0.2-0.4-0.2-0.6c-1-2.9,1.6-5.7,1.6-5.7"/>
			<path fill="none" stroke="#000000" stroke-width="0.5" stroke-miterlimit="10" d="M176.8,262.9c0,0,2.3-4.1,4.1-5.9"/>
			<path fill="none" stroke="#000000" stroke-width="0.5" stroke-miterlimit="10" d="M181.6,272.4c-0.7-1.9-3.9-2.2-4-2.2"/>
			<path fill="none" stroke="#000000" stroke-width="0.5" stroke-miterlimit="10" d="M162.2,271.1c-2.2,0.7-6.8,3.6-7,3.7"/>
			<path fill="none" stroke="#000000" stroke-width="0.5" stroke-miterlimit="10" d="M166.3,271.2c-3.1-0.4-8.2,5.1-8.5,5.3"/>
			<path fill="none" stroke="#000000" stroke-width="0.5" stroke-miterlimit="10" d="M159.4,262c-8.2-0.9-13.7,3.5-13.8,3.6"/>
			<path fill="none" stroke="#000000" stroke-width="0.5" stroke-miterlimit="10" d="M167.6,261.9c-1.2-1.1-2.6-4.6-2.6-4.6"/>
			<path fill="none" stroke="#000000" stroke-width="0.5" stroke-miterlimit="10" d="M171.6,264.1c0,0,0.3,0.9,0.4,1.4"/>
			<path fill="none" stroke="#000000" stroke-width="0.5" stroke-miterlimit="10" d="M183.5,284.3c-1.4-3.1-4.8-6.6-4.9-6.6"/>
			<path fill="none" stroke="#000000" stroke-width="0.5" stroke-miterlimit="10" d="M170.3,262.7L170.3,262.7
				C170.2,262.7,170.2,262.7,170.3,262.7"/>
			<path fill="none" stroke="#000000" stroke-width="0.5" stroke-miterlimit="10" d="M175.9,286.6c-0.3-0.3-1.9-1.6-1.9-3.2
				c-0.1-1.5-0.5-3.4-1.3-5.4c-0.1-0.4-0.5-0.6-0.4-0.4c0.4-0.9,0.6-2.6,0.6-3.2c0-0.2,0-0.4,0-0.6c0-0.5,0.1-0.8,0.2-1.2
				c0.1-0.3,0.1-0.6,0.2-0.9"/>
			<path fill="none" stroke="#000000" stroke-width="0.5" stroke-miterlimit="10" d="M168.6,324.6c-0.1-0.9,0.2-1.6,0.7-2.6
				c0.2-1-0.1-3.2-0.5-4.8c-0.6-2.6,2.2-5.3,2.3-5.4l0.1,0.1c0.1-0.9,0.3-1.9,0.6-2.8c0.1-0.7,0.1-1.7,0.1-2.7
				c0-1.6-0.1-3.3,0.4-4.2c0.1-0.2,0.2-0.5,0.3-0.8c0.7-1.9,1.4-3.8,1.1-7.8c-1.5-3.6-1.1-2.5-1.6-3.3s-1.3-0.4-2-4.2
				c-0.7-3.8,0-5.2,0-7s0.9-6.2,1.2-7.5"/>
			<path fill="none" stroke="#000000" stroke-width="0.5" stroke-miterlimit="10" d="M178,330.7c-0.8-0.5-0.9-1.7-1-2.5
				c0-0.3,0-0.5-0.1-0.6c-1.1-1.1-0.9-2.3-0.6-3.8c0-1.4-1.1-2.3-1.5-2.6c0.1,0.6,0.1,1.2,0.1,1.5c-0.3,1.5-1,4.8,0.4,9.6
				c0.2,0.5,0.5,1,0.8,1.5l0,0c0.6,4.2,0.9,7.7,0.9,7.7l-0.1-1.6c0,0-0.5-1.8-1.1-6c-0.2-0.5-0.4-0.9-0.6-1.3l0,0
				c0-0.1,0-0.1-0.1-0.2c-1.1-2.2-2.1-4.1-1.9-7.4v-0.2c0.2-4.1,0.2-5.4-1.7-9.3c-0.3-0.9-0.3-2.6-0.3-3.7"/>
			<path fill="none" stroke="#000000" stroke-width="0.5" stroke-miterlimit="10" d="M179,311.3c0.3-3.2-0.5-4.2-1.1-5l-0.1-0.1
				c-0.8-1-0.8-2.2-0.7-4.7c0-2.6-1.4-3.6-1.9-3.9c0,1.1-0.1,2.2-0.3,2.9l-0.1,0.2c-0.8,1.9-1.3,3-1.1,5.3c0.1,1.7-0.3,3.7-0.6,4.9
				c-0.1,0.5-0.2,0.9-0.2,1.1c-0.2,1.1,0.3,2.9,0.8,3.5c0.4,0.7,0.6,1.7,0.8,2.4c0.1,0.3,0.1,0.6,0.2,0.8l0,0v0.3
				c0.1,0.5,0.2,1.1,0.3,1.7l0.1,0.4"/>
			<path fill="none" stroke="#000000" stroke-width="0.5" stroke-miterlimit="10" d="M172.3,277.6c-0.4,2-0.3,2-0.3,4
				s-0.3,3.1,0,4.1s0.8,1.8,1.2,2.3c0.9,1.3,1.8,2.5,1.9,4.3c0,0.4,0,0.9,0,1.4c0,1.1,0,2.6,0,3.8"/>
			<path fill="none" stroke="#000000" stroke-width="0.5" stroke-miterlimit="10" d="M194.9,259.8c-3-0.3-6,1.2-6.1,1.3h0.8
				c-2,0-4.5,0.3-6.9,1.1"/>
			<path fill="none" stroke="#000000" stroke-width="0.5" stroke-miterlimit="10" d="M196.4,262.7c-1.8-0.9-4.1-1.6-6.8-1.7"/>
			<path fill="none" stroke="#000000" stroke-width="0.5" stroke-miterlimit="10" d="M170.7,270.3c0.2-0.1,1-0.1,1.2-0.4
				c0.3-0.4,0.4-1.1,0.2-1.8l0,0c-0.1-0.2-0.3-0.4-0.4-0.7c-0.6-0.9-1.5-2.3-1.3-4.5"/>
			<path fill="none" stroke="#000000" stroke-width="0.5" stroke-miterlimit="10" d="M172.8,268L172.8,268c-0.2,1-0.1,1.8-0.1,1.8"
				/>
			<path fill="none" stroke="#000000" stroke-width="0.5" stroke-miterlimit="10" d="M199.7,268.5c-8.6-7.4-14.7-5.1-14.7-5.1"/>
			<line fill="none" stroke="#000000" stroke-width="0.5" stroke-miterlimit="10" x1="173.1" y1="267.4" x2="172.9" y2="267.8"/>
			<line fill="none" stroke="#000000" stroke-width="0.5" stroke-miterlimit="10" x1="172.9" y1="268" x2="172.9" y2="267.8"/>
			<line fill="none" stroke="#000000" stroke-width="0.5" stroke-miterlimit="10" x1="172.1" y1="262.2" x2="172.1" y2="262.5"/>
		</g>
		<path id="rosette_1_" fill="none" stroke="#000000" stroke-width="0.5" stroke-miterlimit="10" d="M139.3,270.1
			c0,0-0.8-0.5,2.1-4.2c2.4-2.9,5.3-6.2,7.3-7.3c2.1-1.3,4.1-2.8,8.5-1.1c1.4,0.8,2.3,1.4,3.7,2.8c0.7,1.1,2.7,2,2.9,2.3
			c1,0.5,5.5,3.7,6.7,4.2c-1.2-1.1-5.1-4.5-6.4-5.1c-1.4-0.6-2.6-1.7-2.2-5.9c0.4-2.4,0.9-3.8,0.9-3.8c1,0.8,5,4.5,5.7,5.8
			c0.6,1,0.2,1.7,0.6,2.8c0.3,1,0.9,2.1,1.3,2.3c0.1-0.7,0.3-1.8,0.3-1.8c0.3,0.5,1.6,1.5,1.6,1.5c0.2,0.5,1,2.6,0.9,3.1
			c-0.1,0.8-0.3,2-0.3,2c0.6-0.8,2-2,2.6-4.7c0.2-1.5,0.1-4.5,1.1-5.8c0.9-1.3,1.6-2.6,3.7-3.1c1.1-0.3,2.9-0.8,3.5,1.9
			c0.1,0.9-0.1,2.1-2.2,4.5c-1.4,1.3-4.5,4-4.5,4.1c-0.7,0.8-1,1.2-1,1.2c1.4-1,5.7-3.3,6.3-3.5c0.6-0.8,4.5-5,9.5-5.6
			c2.2-0.2,7.4,1.2,8.9,1.9c-0.8,0.4-2.2,1.2-2.4,1.9c-0.3,0.8-1,2.3-1.9,2.3c0.9,0.6,4,2.6,5.2,4.3c1,1.1,4.1,3.4,6.1,3.9
			c-0.3,0.5-6.5,2.9-9.6,1.9s-4.8-2.9-7.7-5.2c-1.7-1.2-4.4-3-8.4-2.3c-2.2,0.5-6.2,1.8-8,3.2c-0.3,0.4-0.3,0.4-0.3,0.4
			c1,0,8.3-0.7,9.7,1.1c1.2,1.6,2.5,3.4,2.5,3.4c-0.7,0.6-4.4,3.6-8.2,0c-1.5-1.7-2.7-3.3-4-3.2c0.6,0.8,3.6,4.8,5.6,5.9
			c2.2,0.6,8.1,1.4,9.5,6.1c0.8,2.6,1,5.7,1,5.7c-1.3,0.6-5.5,3.5-11.3-3.8c-1.3-2.6-1.6-2.8-2.7-8.3c-0.8-1.5-1.5-3-2.8-4
			c-1.3-0.1-1.9-0.1-2,0c-1,0.1-3.8,0.3-4.9,2.1c-1.3,1.7-3.3,4.1-7.7,6.4c-2.2,1-4.4,2.1-7.7-1.9c-0.8-1.3-1.2-3.9,0.1-5.4
			c1.4-1.6,3.9-4.7,6.4-4.6c1.7,0.1,8.4,1.3,13.3,2.2c-0.6-0.8-4.3-5.7-12-5.8c-1.5,0.1-3.4,0.4-5.7,1.9c-2.6,1.6-5.9,4.5-10,3.2
			C141.9,269.6,140.4,269.5,139.3,270.1z"/>
		<path id="aphidClip_3_" fill="#FFFFFF" stroke="#000000" stroke-width="0.5" stroke-miterlimit="10" d="M158.7,252.5
			c0.8,0.4,0,8.6,0,9.1c0,1.3-3,2.4-6.8,2.4c-3.7,0-6.8-1.1-6.8-2.4c0-0.6-0.8-8.6,0.2-9 M151.9,250.2c-3.7,0-6.8,1.1-6.8,2.4
			s3,2.4,6.8,2.4c3.7,0,6.8-1.1,6.8-2.4S155.7,250.2,151.9,250.2z"/>
		<path id="aphidClip_2_" fill="#FFFFFF" stroke="#000000" stroke-width="0.5" stroke-miterlimit="10" d="M196.4,252.5
			c0.8,0.4,0,8.6,0,9.1c0,1.3-3,2.4-6.8,2.4c-3.7,0-6.8-1.1-6.8-2.4c0-0.6-0.8-8.6,0.2-9 M189.7,250.2c-3.7,0-6.8,1.1-6.8,2.4
			s3,2.4,6.8,2.4c3.7,0,6.8-1.1,6.8-2.4S193.4,250.2,189.7,250.2z"/>
	</g>
	<g id="all_samples_4_hours">
		
			<path id="NPP_at_1_Hour_2_" fill="#FFFFFF" stroke="#000000" stroke-width="0.5" stroke-linecap="round" stroke-linejoin="round" stroke-miterlimit="10" d="
			M479,547"/>
	</g>
	<g id="all_samples_1_hour">
		
			<path id="NPP_at_1_Hour" fill="#FFFFFF" stroke="#000000" stroke-width="0.5" stroke-linecap="round" stroke-linejoin="round" stroke-miterlimit="10" d="
			M404,547"/>
	</g>
	<g id="TimeSampleChart">
		<g id="darkCycle">
			<path fill="none" stroke="#555555" stroke-width="10" stroke-miterlimit="10" d="M105.3,173.1c-7.6-4.8-9.8-14.9-4.9-22.5
				c1.6-2.6,3.9-4.5,6.5-5.8"/>
		</g>
		<g id="lightCycle">
			<path fill="none" stroke="#FFF69F" stroke-width="10" stroke-miterlimit="10" d="M106.9,144.8c4.9-2.4,11-2.3,16,0.9
				c7.6,4.8,9.8,14.9,4.9,22.5c-4.8,7.6-14.9,9.8-22.5,4.9"/>
		</g>
		<g id="labels">
			<path fill="none" stroke="#000000" stroke-miterlimit="10" d="M113.9,146.9"/>
			<text transform="matrix(1 0 0 1 140.9912 161.4747)" font-family="'HelveticaNeue-Thin'" font-size="8">8 hour sample</text>
		</g>
		<line fill="none" stroke="#000000" stroke-miterlimit="10" x1="126" y1="159.5" x2="136.5" y2="159.5"/>
	</g>
</g>
<g id="control_plant_1_">
	<path id="Control" fill="#FFFFFF" stroke="#000000" stroke-width="0.5" stroke-miterlimit="10" d="M330.4,248.1
		c0,0-1.9-1.2,4.9-9.8c5.6-6.8,12.3-14.4,17-17c4.9-3,9.5-6.5,19.8-2.6c3.3,1.9,5.4,3.3,8.6,6.5c1.6,2.6,6.3,4.7,6.8,5.4
		c2.3,1.2,12.8,8.6,15.6,9.8c-2.8-2.6-11.9-10.5-14.9-11.9c-3.3-1.4-6.1-4-5.1-13.7c0.9-5.6,2.1-8.8,2.1-8.8
		c2.3,1.9,11.6,10.5,13.3,13.5c1.4,2.3,0.5,4,1.4,6.5c0.7,2.3,2.1,4.9,3,5.4c0.2-1.6,0.7-4.2,0.7-4.2c0.7,1.2,3.7,3.5,3.7,3.5
		c0.5,1.2,2.3,6.1,2.1,7.2c-0.2,1.9-0.7,4.7-0.7,4.7c1.4-1.9,4.7-4.7,6.1-10.9c0.5-3.5,0.2-10.5,2.6-13.5c2.1-3,3.7-6.1,8.6-7.2
		c2.6-0.7,6.8-1.9,8.1,4.4c0.2,2.1-0.2,4.9-5.1,10.5c-3.3,3-10.5,9.3-10.5,9.5c-1.6,1.9-2.3,2.8-2.3,2.8c3.3-2.3,13.3-7.7,14.7-8.1
		c1.4-1.9,10.5-11.6,22.1-13c5.1-0.5,17.2,2.8,20.7,4.4c-1.9,0.9-5.1,2.8-5.6,4.4c-0.7,1.9-2.3,5.4-4.4,5.4c2.1,1.4,9.3,6.1,12.1,10
		c2.3,2.6,9.5,7.9,14.2,9.1c-0.7,1.2-15.1,6.8-22.4,4.4c-7.2-2.3-11.2-6.8-17.9-12.1c-4-2.8-10.2-7-19.6-5.4
		c-5.1,1.2-14.4,4.2-18.6,7.5c-0.7,0.9-0.7,0.9-0.7,0.9c2.3,0,19.3-1.6,22.6,2.6c2.8,3.7,5.8,7.9,5.8,7.9c-1.6,1.4-10.2,8.4-19.1,0
		c-3.5-4-6.3-7.7-9.3-7.5c1.4,1.9,8.4,11.2,13,13.7c5.1,1.4,18.9,3.3,22.1,14.2c1.9,6.1,2.3,13.3,2.3,13.3c-3,1.4-12.8,8.1-26.3-8.8
		c-3-6.1-3.7-6.5-6.3-19.3c-1.9-3.5-3.5-7-6.5-9.3c-3-0.2-4.4-0.2-4.7,0c-2.3,0.2-8.8,0.7-11.4,4.9c-3,4-7.7,9.5-17.9,14.9
		c-5.1,2.3-10.2,4.9-17.9-4.4c-1.9-3-2.8-9.1,0.2-12.6c3.3-3.7,9.1-10.9,14.9-10.7c4,0.2,19.6,3,31,5.1c-1.4-1.9-10-13.3-27.9-13.5
		c-3.5,0.2-7.9,0.9-13.3,4.4c-6.1,3.7-13.7,10.5-23.3,7.5C336.5,247,333,246.7,330.4,248.1z"/>
	<path id="root_2_" fill="none" stroke="#000000" stroke-width="0.5" stroke-miterlimit="10" d="M399.4,308.5
		c1.9-4.9,0-9.8-1.6-13.7c-0.2-0.5-0.5-0.9-0.5-1.4c-2.3-6.8,3.7-13.3,3.7-13.3 M417.7,231.4c0,0,5.4-9.5,9.5-13.7 M428.9,253.5
		c-1.6-4.4-9.1-5.1-9.3-5.1 M383.8,250.5c-5.1,1.6-15.8,8.4-16.3,8.6 M393.3,250.7c-7.2-0.9-19.1,11.9-19.8,12.3 M377.2,229.3
		c-19.1-2.1-31.9,8.1-32.1,8.4 M396.3,229.1c-2.8-2.6-6.1-10.7-6.1-10.7 M405.6,234.2c0,0,0.7,2.1,0.9,3.3 M433.4,281.2
		c-3.3-7.2-11.2-15.4-11.4-15.4 M402.6,230.9L402.6,230.9C402.4,230.9,402.4,230.9,402.6,230.9 M415.7,286.6
		c-0.7-0.7-4.4-3.7-4.4-7.5c-0.2-3.5-1.2-7.9-3-12.6c-0.2-0.9-1.2-1.4-0.9-0.9c0.9-2.1,1.4-6.1,1.4-7.5c0-0.5,0-0.9,0-1.4
		c0-1.2,0.2-1.9,0.5-2.8c0.2-0.7,0.2-1.4,0.5-2.1 M398.7,375c-0.2-2.1,0.5-3.7,1.6-6.1c0.5-2.3-0.2-7.5-1.2-11.2
		c-1.4-6.1,5.1-12.3,5.4-12.6l0.2,0.2c0.2-2.1,0.7-4.4,1.4-6.5c0.2-1.6,0.2-4,0.2-6.3c0-3.7-0.2-7.7,0.9-9.8
		c0.2-0.5,0.5-1.2,0.7-1.9c1.6-4.4,3.3-8.8,2.6-18.2c-3.5-8.4-2.6-5.8-3.7-7.7c-1.2-1.9-3-0.9-4.7-9.8c-1.6-8.8,0-12.1,0-16.3
		c0-4.2,2.1-14.4,2.8-17.5 M420.5,389.2c-1.9-1.2-2.1-4-2.3-5.8c0-0.7,0-1.2-0.2-1.4c-2.6-2.6-2.1-5.4-1.4-8.8
		c0-3.3-2.6-5.4-3.5-6.1c0.2,1.4,0.2,2.8,0.2,3.5c-0.7,3.5-2.3,11.2,0.9,22.4c0.5,1.2,1.2,2.3,1.9,3.5l0,0
		c1.4,9.8,2.1,17.9,2.1,17.9l-0.2-3.7c0,0-1.2-4.2-2.6-14c-0.5-1.2-0.9-2.1-1.4-3l0,0c0-0.2,0-0.2-0.2-0.5
		c-2.6-5.1-4.9-9.5-4.4-17.2v-0.5c0.5-9.5,0.5-12.6-4-21.7c-0.7-2.1-0.7-6.1-0.7-8.6 M422.9,344.1c0.7-7.5-1.2-9.8-2.6-11.6
		l-0.2-0.2c-1.9-2.3-1.9-5.1-1.6-10.9c0-6.1-3.3-8.4-4.4-9.1c0,2.6-0.2,5.1-0.7,6.8l-0.2,0.5c-1.9,4.4-3,7-2.6,12.3
		c0.2,4-0.7,8.6-1.4,11.4c-0.2,1.2-0.5,2.1-0.5,2.6c-0.5,2.6,0.7,6.8,1.9,8.1c0.9,1.6,1.4,4,1.9,5.6c0.2,0.7,0.2,1.4,0.5,1.9l0,0
		v0.7c0.2,1.2,0.5,2.6,0.7,4l0.2,0.9 M407.3,265.6c-0.9,4.7-0.7,4.7-0.7,9.3c0,4.7-0.7,7.2,0,9.5s1.9,4.2,2.8,5.4
		c2.1,3,4.2,5.8,4.4,10c0,0.9,0,2.1,0,3.3c0,2.6,0,6.1,0,8.8 M459.9,224.2c-7-0.7-14,2.8-14.2,3h1.9c-4.7,0-10.5,0.7-16.1,2.6
		 M463.4,230.9c-4.2-2.1-9.5-3.7-15.8-4 M403.5,248.6c0.5-0.2,2.3-0.2,2.8-0.9c0.7-0.9,0.9-2.6,0.5-4.2l0,0
		c-0.2-0.5-0.7-0.9-0.9-1.6c-1.4-2.1-3.5-5.4-3-10.5 M408.4,243.3L408.4,243.3c-0.5,2.3-0.2,4.2-0.2,4.2 M471.1,244.4
		c-20-17.2-34.2-11.9-34.2-11.9 M409.1,241.9l-0.5,0.9 M408.7,243.3v-0.5 M406.8,229.7v0.7"/>
</g>
<g id="aphid_infested_plant">
	<path id="Aphid_infested" fill="#FFFFFF" stroke="#000000" stroke-width="0.5" stroke-miterlimit="10" d="M550.4,248.1
		c0,0-1.9-1.2,4.9-9.8c5.6-6.8,12.3-14.4,17-17c4.9-3,9.5-6.5,19.8-2.6c3.3,1.9,5.4,3.3,8.6,6.5c1.6,2.6,6.3,4.7,6.8,5.4
		c2.3,1.2,12.8,8.6,15.6,9.8c-2.8-2.6-11.9-10.5-14.9-11.9c-3.3-1.4-6.1-4-5.1-13.7c0.9-5.6,2.1-8.8,2.1-8.8
		c2.3,1.9,11.6,10.5,13.3,13.5c1.4,2.3,0.5,4,1.4,6.5c0.7,2.3,2.1,4.9,3,5.4c0.2-1.6,0.7-4.2,0.7-4.2c0.7,1.2,3.7,3.5,3.7,3.5
		c0.5,1.2,2.3,6.1,2.1,7.2c-0.2,1.9-0.7,4.7-0.7,4.7c1.4-1.9,4.7-4.7,6.1-10.9c0.5-3.5,0.2-10.5,2.6-13.5c2.1-3,3.7-6.1,8.6-7.2
		c2.6-0.7,6.8-1.9,8.1,4.4c0.2,2.1-0.2,4.9-5.1,10.5c-3.3,3-10.5,9.3-10.5,9.5c-1.6,1.9-2.3,2.8-2.3,2.8c3.3-2.3,13.3-7.7,14.7-8.1
		c1.4-1.9,10.5-11.6,22.1-13c5.1-0.5,17.2,2.8,20.7,4.4c-1.9,0.9-5.1,2.8-5.6,4.4c-0.7,1.9-2.3,5.4-4.4,5.4c2.1,1.4,9.3,6.1,12.1,10
		c2.3,2.6,9.5,7.9,14.2,9.1c-0.7,1.2-15.1,6.8-22.4,4.4c-7.2-2.3-11.2-6.8-17.9-12.1c-4-2.8-10.2-7-19.6-5.4
		c-5.1,1.2-14.4,4.2-18.6,7.5c-0.7,0.9-0.7,0.9-0.7,0.9c2.3,0,19.3-1.6,22.6,2.6c2.8,3.7,5.8,7.9,5.8,7.9c-1.6,1.4-10.2,8.4-19.1,0
		c-3.5-4-6.3-7.7-9.3-7.5c1.4,1.9,8.4,11.2,13,13.7c5.1,1.4,18.9,3.3,22.1,14.2c1.9,6.1,2.3,13.3,2.3,13.3c-3,1.4-12.8,8.1-26.3-8.8
		c-3-6.1-3.7-6.5-6.3-19.3c-1.9-3.5-3.5-7-6.5-9.3c-3-0.2-4.4-0.2-4.7,0c-2.3,0.2-8.8,0.7-11.4,4.9c-3,4-7.7,9.5-17.9,14.9
		c-5.1,2.3-10.2,4.9-17.9-4.4c-1.9-3-2.8-9.1,0.2-12.6c3.3-3.7,9.1-10.9,14.9-10.7c4,0.2,19.6,3,31,5.1c-1.4-1.9-10-13.3-27.9-13.5
		c-3.5,0.2-7.9,0.9-13.3,4.4c-6.1,3.7-13.7,10.5-23.3,7.5C556.5,247,553,246.7,550.4,248.1z"/>
	<path id="root_4_" fill="none" stroke="#000000" stroke-width="0.5" stroke-miterlimit="10" d="M619.4,308.5
		c1.9-4.9,0-9.8-1.6-13.7c-0.2-0.5-0.5-0.9-0.5-1.4c-2.3-6.8,3.7-13.3,3.7-13.3 M637.7,231.4c0,0,5.4-9.5,9.5-13.7 M648.9,253.5
		c-1.6-4.4-9.1-5.1-9.3-5.1 M603.8,250.5c-5.1,1.6-15.8,8.4-16.3,8.6 M613.3,250.7c-7.2-0.9-19.1,11.9-19.8,12.3 M597.2,229.3
		c-19.1-2.1-31.9,8.1-32.1,8.4 M616.3,229.1c-2.8-2.6-6.1-10.7-6.1-10.7 M625.6,234.2c0,0,0.7,2.1,0.9,3.3 M653.4,281.2
		c-3.3-7.2-11.2-15.4-11.4-15.4 M622.6,230.9L622.6,230.9C622.4,230.9,622.4,230.9,622.6,230.9 M635.7,286.6
		c-0.7-0.7-4.4-3.7-4.4-7.5c-0.2-3.5-1.2-7.9-3-12.6c-0.2-0.9-1.2-1.4-0.9-0.9c0.9-2.1,1.4-6.1,1.4-7.5c0-0.5,0-0.9,0-1.4
		c0-1.2,0.2-1.9,0.5-2.8c0.2-0.7,0.2-1.4,0.5-2.1 M618.7,375c-0.2-2.1,0.5-3.7,1.6-6.1c0.5-2.3-0.2-7.5-1.2-11.2
		c-1.4-6.1,5.1-12.3,5.4-12.6l0.2,0.2c0.2-2.1,0.7-4.4,1.4-6.5c0.2-1.6,0.2-4,0.2-6.3c0-3.7-0.2-7.7,0.9-9.8
		c0.2-0.5,0.5-1.2,0.7-1.9c1.6-4.4,3.3-8.8,2.6-18.2c-3.5-8.4-2.6-5.8-3.7-7.7c-1.2-1.9-3-0.9-4.7-9.8c-1.6-8.8,0-12.1,0-16.3
		c0-4.2,2.1-14.4,2.8-17.5 M640.5,389.2c-1.9-1.2-2.1-4-2.3-5.8c0-0.7,0-1.2-0.2-1.4c-2.6-2.6-2.1-5.4-1.4-8.8
		c0-3.3-2.6-5.4-3.5-6.1c0.2,1.4,0.2,2.8,0.2,3.5c-0.7,3.5-2.3,11.2,0.9,22.4c0.5,1.2,1.2,2.3,1.9,3.5l0,0
		c1.4,9.8,2.1,17.9,2.1,17.9l-0.2-3.7c0,0-1.2-4.2-2.6-14c-0.5-1.2-0.9-2.1-1.4-3l0,0c0-0.2,0-0.2-0.2-0.5
		c-2.6-5.1-4.9-9.5-4.4-17.2v-0.5c0.5-9.5,0.5-12.6-4-21.7c-0.7-2.1-0.7-6.1-0.7-8.6 M642.9,344.1c0.7-7.5-1.2-9.8-2.6-11.6
		l-0.2-0.2c-1.9-2.3-1.9-5.1-1.6-10.9c0-6.1-3.3-8.4-4.4-9.1c0,2.6-0.2,5.1-0.7,6.8l-0.2,0.5c-1.9,4.4-3,7-2.6,12.3
		c0.2,4-0.7,8.6-1.4,11.4c-0.2,1.2-0.5,2.1-0.5,2.6c-0.5,2.6,0.7,6.8,1.9,8.1c0.9,1.6,1.4,4,1.9,5.6c0.2,0.7,0.2,1.4,0.5,1.9l0,0
		v0.7c0.2,1.2,0.5,2.6,0.7,4l0.2,0.9 M627.3,265.6c-0.9,4.7-0.7,4.7-0.7,9.3c0,4.7-0.7,7.2,0,9.5s1.9,4.2,2.8,5.4
		c2.1,3,4.2,5.8,4.4,10c0,0.9,0,2.1,0,3.3c0,2.6,0,6.1,0,8.8 M679.9,224.2c-7-0.7-14,2.8-14.2,3h1.9c-4.7,0-10.5,0.7-16.1,2.6
		 M683.4,230.9c-4.2-2.1-9.5-3.7-15.8-4 M623.5,248.6c0.5-0.2,2.3-0.2,2.8-0.9c0.7-0.9,0.9-2.6,0.5-4.2l0,0
		c-0.2-0.5-0.7-0.9-0.9-1.6c-1.4-2.1-3.5-5.4-3-10.5 M628.4,243.3L628.4,243.3c-0.5,2.3-0.2,4.2-0.2,4.2 M691.1,244.4
		c-20-17.2-34.2-11.9-34.2-11.9 M629.1,241.9l-0.5,0.9 M628.7,243.3v-0.5 M626.8,229.7v0.7"/>
	<path id="aphid_2_" d="M655.7,181.7c0.2-0.1,1.1-0.6,1.2-0.8c0.9-1.6,2-3.1,3-4.6c0.3-0.4,0.7-0.7,1.2-0.8c0.6,0,1.3,0,1.9,0.1
		c0.3,0,1.4,0.3,1.6,0c0.2-0.3,0.7-1,0.8-1.3s0.4-0.8,0-1c-0.8-0.4-2.8-0.5-3.2-1.4c-0.1-0.3-0.1-0.6,0-0.9c0.4-0.9,0.8-1.8,1.2-2.7
		c0.3-0.7,0.8-1.1,0.5-1.9c0,0.1-0.1-0.7-0.1-0.7s0,0,0.1,0c0,0.2,0.3,0.3,0.4,0.1c0,0,0,0,0-0.1v0.1c-0.1,0.2,0,0.8,0,1
		c0,0.4-0.1,0.8-0.3,1.2c-0.4,0.9-0.8,1.8-1.1,2.8c0,0.1-0.2,0.6-0.2,0.6c0.1,0.2,0.6,0.4,0.8,0.5s2,0.9,2.1,0.8
		c0.1-0.2,0.2-0.4,0.4-0.5c0.1,0,0.1-0.1,0.1-0.1c0.1-0.2,0.1-0.5,0.2-0.7c0.2-0.5,0.8-0.3,0.9,0.1c0.1,0.2,0.6,0,0.7,0
		c0.1,0,0.1,0.1,0.3,0c0.1-0.1,0.2-0.3,0.3-0.4c0.3-0.2,0.7,0,0.8,0.4c0,0.3,0.3,1.4,0.7,1.3c0.6-0.2,1.1-0.4,1.7-0.7
		c0.4-0.2,0.9-0.7,1.4-0.7c0.1,0,0.1,0,0.1-0.1c-0.4-1.1-0.6-2.3-1.1-3.3c-0.1-0.1,0-0.3,0-0.4c0.1-0.6,0.6-0.8,0.8-1.3
		c0-0.1,0.1-0.1,0.1-0.2c-0.2,0.6,0.1,0.1,0.2,0.2c0.1,0.1-0.6,0.8-0.6,0.8c-0.2,0.1-0.4,0.3-0.2,0.6c0.7,1.1,1.2,2.5,1.3,3.8
		c0,0.2-0.1,0.4-0.3,0.5c-0.7,0.4-1.4,0.7-2.1,1c-0.2,0.1-1.5,0.4-1.4,0.5c0.1,0.2,0.5,1,0.5,1.1c0,0.2,0.4,0.7,0.5,0.9
		s1.4,0,1.7-0.1c0.6,0,1.3-0.1,1.9,0c0.2,0,0.7,0.6,0.9,0.8c0.9,1.2,1.8,2.5,2.6,3.8c0.1,0.1,0.1,0.2,0.1,0.3c0,0.2,0.2,0.3,0.4,0.4
		c0.1,0,1,0.7,1,0.7h-0.2c-0.3,0.1,0,0.2,0,0.4c-0.2-0.2-0.4-0.3-0.6-0.4c-0.3-0.2-0.5-0.5-0.8-0.7c-0.6-0.4-1.1-1.6-1.5-2.2
		c-0.5-0.8-1.2-1.5-1.8-2.4c0-0.1-0.1,0-0.2,0c-1,0.1-2.1,0-3.1,0.1c0.2,0.5,0.5,0.9,0.7,1.4c0.1,0.3,0.2,0.9,0.4,1
		c0.9,0.3,1.9,0.7,2.8,1.2c0.2,0.1,0.4,0.2,0.5,0.4c0.2,0.8-0.4,1.9-0.7,2.7s-0.5,1.8-1,2.6c0,0.1,0,0.1,0,0.2
		c0.1,0.1,0.1,0.2,0.2,0.3c0.1,0.2,0.2,0.3,0.1,0.5c0,0.1,0,0.1,0.1,0.1c0,0,0.2,0.1,0.2,0.2c0,0.1-0.3-0.2-0.4-0.1
		c-0.1,0.1,0,0.2,0,0.3v0.1c-0.1,0-0.1,0-0.1-0.1c0-0.4-0.3-0.9-0.4-1.2c-0.1-0.3,0-0.6,0.1-0.9c0.1-0.4,1.5-4.1,1.2-4.3
		c-0.5-0.4-1.1-0.7-1.7-1c-0.3-0.1-0.9-0.7-0.9-0.1c0,0.7,0,1.4-0.2,2c-0.1,0.2-0.9,2.3-1.1,2.1v-0.1c0.4-0.7,0.7-1.3,0.9-2.1
		c0.2-0.6,0.2-1.2,0.2-1.8c-0.1-0.5-0.2-1.1-0.3-1.6c-0.3-1.1-0.9-2.1-1.5-3c-0.1-0.1-0.1-0.2-0.2-0.1c-0.2,0-0.4,0-0.6,0.1
		c0.1-0.1,0.2-0.1,0.3-0.2c0.1,0,0.2,0,0.3-0.1c0.1,0,0.1-0.1,0.1-0.1c0-0.1-0.2-0.5-0.4-0.4c-0.1,0-0.3,0-0.4,0.1
		c0.1-0.2,0.4-0.2,0.4-0.4c0-0.3-0.3-0.5-0.5-0.3c0-0.2,0.2-0.1,0.2-0.2c-0.2,0-0.3-0.1-0.4-0.2c0,0,0.2-1,0-1c0,0-0.2,0.8-0.2,0.9
		c-0.2,0.6-0.2,1.3-0.2,1.9c-0.1,1.3-0.1,2.7,0.2,4c0.2,1.1,0.6,2.1,1,3.1c0.6,1.3,1.5,2.4,2.4,3.6c0,0.1,0.1,0.1,0,0.2
		c-0.1,0.1-0.1,0-0.1,0c-0.9-0.6-1.7-1.9-2.2-2.8c-0.7-1.2-1.1-2.4-1.4-3.7c-0.2-1.2-0.4-2.5-0.3-3.8c0-0.7,0.1-1.4,0.2-2
		c0.1-0.5-0.1-1.1,0-1.6c0-0.2,0.2-0.3,0.4-0.3c-0.5-0.2-0.5,0.4-0.5,0.7c-0.2-0.1-0.6-0.5-0.8-0.2c-0.2,0.2-0.4,0-0.6,0.1
		c0-0.2-0.3-0.8-0.5-0.4c0.4,0,0.4,0.2,0.4,0.4c0.1,1.5,0.5,3,0.5,4.6c-0.1,1.5-0.4,3.1-0.9,4.5c-0.6,1.7-1.6,3.7-3,4.9
		c-0.1,0-0.1,0.1-0.2,0c-0.1-0.1,0-0.1,0-0.2c0.4-0.6,0.8-1.1,1.2-1.7c0-0.1,0-0.1,0-0.1c-0.3-0.3-0.5-0.6-0.7-1
		c-0.3-0.5-0.4-1.1-0.5-1.7c-0.1-0.5-0.1-1-0.1-1.4c0-0.1,0-0.2,0-0.2c0-0.1,0-0.1-0.1-0.1c-0.8,0.4-1.6,0.8-2.4,1.2
		c0,0-0.1,0-0.2,0c-0.3,0,0,0.6,0.1,0.8c0.2,0.5,0.3,0.9,0.4,1.4c0.3,0.9,0.6,1.9,0.9,2.8c0.1,0.2,0,0.4-0.1,0.6
		c-0.1,0.1-0.6,1.1-0.7,1.1c0,0,0.1-0.5-0.2-0.2c-0.1,0.1-0.1,0.2-0.2,0.2c0-0.2,0-0.3,0.1-0.3c0.3-0.3,0.3-0.7,0.7-1
		c0.1,0,0.1-0.1,0-0.1c-0.3-0.8-0.7-1.7-1-2.5s-0.8-1.6-0.8-2.5c0-0.3,0.1-0.6,0.4-0.8c0.8-0.6,1.8-0.9,2.8-1.3
		c0.2-0.1,0.3-0.2,0.4-0.5c0.1-0.7,0.4-1.4,0.8-2c0.1-0.2,0.1-0.2-0.1-0.2c-1,0.1-2.1,0-3.1-0.1c-0.1,0-0.1,0-0.1,0.1
		c-0.2,0.8-1.2,1.7-1.6,2.3c-0.6,0.8-1.1,1.5-1.7,2.3c-0.2,0.4-0.7,0.5-0.9,0.8c0,0.1-0.5,0.4-0.6,0.4c0,0,0.3-0.4,0.1-0.3
		C655.8,181.7,655.8,181.7,655.7,181.7L655.7,181.7C655.9,181.6,655.7,181.7,655.7,181.7z M665.9,174.5c-0.4-0.1-0.4-0.1-0.5,0.2
		c-0.1,0.2-0.1,0.2,0.1,0.3c0.1,0,0.6,0.3,0.6,0.3c0,0.1-0.1,0-0.1,0c-0.3-0.1-0.7-0.5-0.9-0.2c-0.4,0.7-0.8,1.3-1.1,2
		c-0.3,0.6-0.5,1.3-0.6,2c-0.1,0.5-0.1,1.1,0,1.6c0.1,0.9,0.3,1.7,0.8,2.5c0.1,0.2,0.3,0.4,0.4,0.6c1.6-2.7,2.6-6,2.2-9.2
		c-0.1-0.6-0.1-2.1-0.6-2.5c0,0.2,0,0.5-0.1,0.7c0,0.2-0.5,0.5-0.5,0.5c0,0.1,0.2,0,0.2,0.1c0-0.1-0.4,0.7-0.4,0.5
		c-0.1,0.2-0.1,0.2,0.1,0.2C665.8,174.3,665.8,174.4,665.9,174.5C665.5,174.4,665.8,174.4,665.9,174.5z M661.6,185.5
		c0.2-0.6-0.5-2-0.7-2.6c-0.1-0.4-0.3-0.8-0.4-1.3c0-0.1-0.4-0.9-0.4-1c0,0,1.1-0.4,1.2-0.4c0.6-0.3,1.2-0.6,1.7-1
		c0.1-0.1,0.2-0.3,0.1-0.5c-0.9,0.5-1.9,0.8-2.7,1.3c-0.9,0.5-0.3,1.6,0,2.3C660.8,183.5,661.2,184.5,661.6,185.5
		C661.6,185.4,661.4,185.1,661.6,185.5z M670.9,176c0.2,0.5,3.6,0.2,3.6,0.2c0,0.1,0,0.2,0.1,0.2c1.1,1.3,2.1,2.8,3,4.2
		c0.1,0.1,0.3,0,0.2-0.1c-0.8-1.4-1.7-2.8-2.7-4c-0.1-0.2-0.3-0.4-0.5-0.4c-0.1,0,0-0.2-0.2-0.3C673.2,175.7,672,175.9,670.9,176
		C670.9,176.2,671.2,175.9,670.9,176z M675.2,180.7c0.2-0.3,0.2-0.4-0.1-0.5c-0.9-0.4-1.8-1-2.8-1.2c-0.5-0.1,0.5,0.5,0.5,0.5
		c0.7,0.3,1.4,0.7,2,1.2C675,180.8,675,180.5,675.2,180.7c-0.2,0.1-0.3,0.2-0.3,0.4c-0.3,1.3-0.8,2.6-1.2,4c0,0.1,0,0.2,0.1,0.2
		s0.1-0.1,0.1-0.1c0.5-1.4,0.9-2.8,1.4-4.2C675.3,180.8,675.4,180.7,675.2,180.7C675.4,180.4,675.4,180.7,675.2,180.7z M662.4,171.8
		c0-0.1,0.3-0.3,0.3-0.4c0.3-1.1,0.8-2.1,1.2-3.2c0.1-0.1,0-0.2,0-0.3c-0.1-0.1-1,1.9-1,2.1c-0.2,0.6-1,1.8-0.3,2.2
		c0.8,0.5,1.9,1,2.9,1.2c0.1,0,0.2-0.1,0.1-0.2c0-0.1-0.1-0.1-0.2-0.1c-0.5-0.2-1.1-0.4-1.6-0.6
		C663.4,172.2,662.7,171.6,662.4,171.8C662.3,171.7,662.6,171.7,662.4,171.8z M665,183.5L665,183.5L665,183.5
		c1.4-2.2,2.1-4.8,2.2-7.3c0-1.4-0.5-2.8-0.4-4.2c0-0.3-0.3-0.4-0.4-0.1c0,0.2,0.1,0.4,0.2,0.4c-0.1,0.1-0.1,0.1,0,0.3
		c0,0,0,0,0,0.1c0.1,0.9,0.4,1.8,0.4,2.8s0,2-0.2,3C666.5,180.1,665.8,181.9,665,183.5C665,183.5,665.1,183.3,665,183.5z
		 M660.6,176.1c0-0.1-0.1-0.2-0.2-0.2c-0.2,0.1-0.3,0.2-0.4,0.3c-0.9,1.4-1.9,2.9-2.8,4.3c-0.1,0.1-0.1,0.1,0,0.2
		c0.1,0,0.1,0,0.2-0.1c0.5-0.7,1-1.5,1.6-2.2c0.5-0.7,1.2-1.4,1.6-2.2C660.6,176.3,660.6,176.2,660.6,176.1
		C660.7,176,660.6,176.2,660.6,176.1z M670.1,173.4c1.1-0.2,2.2-0.7,3.2-1.2c0.3-0.2,0.3-0.4,0-0.5s-1,0.5-1.3,0.6
		c-0.4,0.2-0.9,0.4-1.4,0.6c-0.1,0-1.1,0.5-0.8,0.5C669.8,173.4,669.9,173.3,670.1,173.4C670.1,173.4,669.9,173.3,670.1,173.4z
		 M668.7,172.7c-0.1,0-0.1,0-0.1,0.1c-0.5,2.8-0.4,5.6,0.6,8.3c0.4,1,0.9,1.9,1.4,2.8c0-0.1,0-0.1,0-0.1c-1.9-3.3-2.8-7.1-1.9-10.8
		c0-0.1,0.1-0.2,0.2-0.4C668.9,172.2,668.2,172.4,668.7,172.7C668.6,172.7,668.5,172.6,668.7,172.7z M663.1,176.1L663.1,176.1
		c0.1,0,1.2,0.1,1.3,0c0.1-0.2-0.5-0.2-0.7-0.2c-1-0.1-1.9-0.1-2.9-0.2c-0.3,0-0.1,0.3,0.1,0.3C661.6,176,662.4,176.1,663.1,176.1
		C663.1,176.1,662.6,176.1,663.1,176.1z M673.5,171.7c-0.3-1.2-0.8-2.4-1.2-3.6c0-0.1-0.1,0-0.2-0.1c-0.1,0,0,0.1,0,0.1
		c0.4,1,0.7,2,1,3C673.1,171.4,673.3,171.6,673.5,171.7C673.4,171.5,673.3,171.6,673.5,171.7z M669,171.9c0-0.3-0.1-0.3-0.2-0.3
		c-0.1,0-0.1,0.1-0.2,0.1C668.4,172.3,668.9,172.4,669,171.9C669,171.6,669,172,669,171.9z M664.3,184.6c-0.3,0.4-0.6,0.8-0.9,1.2
		l0,0C663.7,185.5,664,185.1,664.3,184.6C664,185,664,185.1,664.3,184.6z M664.9,183.9c0,0,0.1-0.1,0.2-0.1l-0.1,0.4
		c0,0.7,0,1.4,0.3,2c0.1,0.2,0.3,0.5,0.4,0.7c0,0.2,0.4,0.1,0.3-0.1c0-0.1,0-0.1,0-0.2c0.1-0.3,0-0.6-0.2-0.9
		c-0.2-0.2-0.2-0.4-0.3-0.6c0-0.1-0.2-1.4-0.2-1.4c0.3-0.2,0.2,0.8,0.2,0.9c0,0.5,0.2,0.8,0.4,1.3c0.1,0.3,0.2,0.7,0.2,1
		c0,0.1,0.1,0.2,0,0.3s-0.5,0.2-0.5,0c0-0.3-0.2-0.4-0.3-0.7c-0.2-0.4-0.2-0.8-0.3-1.2c0-0.4,0-0.7-0.1-1.1
		C664.9,184.1,664.9,184,664.9,183.9L664.9,183.9z M665.7,187.1c0.1,0,0.2,0.1,0.3-0.1C665.9,187,665.8,187,665.7,187.1z
		 M670.3,183.8c0.1,0.1,0.1,0.1,0.1,0.2c-0.1,0.4-0.1,0.8-0.1,1.3c0,0.6-0.4,1.1-0.5,1.7c0,0.1-0.1,0.2-0.2,0.2
		c-0.3,0-0.5-0.1-0.4-0.4c0.1-0.3,0-0.7,0.1-1.1c0.1-0.3,0.3-0.6,0.3-0.9c0.1-0.2,0-1.1,0.1-1.3h0.3c0,0.1-0.1,0.1-0.1,0.1
		c-0.2,0.4-0.1,1.1-0.3,1.6c-0.1,0.2-0.6,1.4-0.4,1.6c0.1,0.1,0.2,0.1,0.3,0c0.1-0.3,0.3-0.5,0.4-0.8c0-0.1,0.1-0.2,0.1-0.4
		C670.2,185.1,670.2,184.4,670.3,183.8C670.4,183.9,670.3,184.1,670.3,183.8z M669.6,187.1c-0.1-0.1-0.2-0.1-0.3-0.1
		C669.4,187.1,669.5,187.1,669.6,187.1z M665.7,185.1c0.2,0.1,1.4,0.5,1.5,0.7s0.2,0.3,0.3,0.5c0.2,0.3,0.4,0.3,0.6,0
		c0.1-0.2,0.2-0.4,0.4-0.5c0.2-0.2,0.5-0.3,0.7-0.4c0.2-0.1,0.3-0.1,0.4-0.3c0,0,0,0,0-0.1h-0.1c-0.2,0.1-1.3,0.5-1.3,0.7l0.1,0.1
		c-0.1,0.2-0.2,0.3-0.4,0.3c0.1,0.1,0.1,0.2,0,0.3c0,0-0.1,0.1-0.2,0c-0.1-0.1-0.1-0.1-0.2-0.2c0,0,0.2,0,0.2-0.1
		c-0.1-0.1-0.7-0.2-0.3-0.4c0.1,0,0.1-0.1,0-0.1c-0.5,0-1-0.2-1.4-0.5c-0.2-0.1-0.3-0.2-0.5-0.2C665.6,185,665.6,185,665.7,185.1
		C666.1,185.3,665.6,185,665.7,185.1z"/>
	<path id="aphid_3_" d="M570.7,181.7c0.2-0.1,1.1-0.6,1.2-0.8c0.9-1.6,2-3.1,3-4.6c0.3-0.4,0.7-0.7,1.2-0.8c0.6,0,1.3,0,1.9,0.1
		c0.3,0,1.4,0.3,1.6,0c0.2-0.3,0.7-1,0.8-1.3s0.4-0.8,0-1c-0.8-0.4-2.8-0.5-3.2-1.4c-0.1-0.3-0.1-0.6,0-0.9c0.4-0.9,0.8-1.8,1.2-2.7
		c0.3-0.7,0.8-1.1,0.5-1.9c0,0.1-0.1-0.7-0.1-0.7s0,0,0.1,0c0,0.2,0.3,0.3,0.4,0.1c0,0,0,0,0-0.1v0.1c-0.1,0.2,0,0.8,0,1
		c0,0.4-0.1,0.8-0.3,1.2c-0.4,0.9-0.8,1.8-1.1,2.8c0,0.1-0.2,0.6-0.2,0.6c0.1,0.2,0.6,0.4,0.8,0.5s2,0.9,2.1,0.8
		c0.1-0.2,0.2-0.4,0.4-0.5c0.1,0,0.1-0.1,0.1-0.1c0.1-0.2,0.1-0.5,0.2-0.7c0.2-0.5,0.8-0.3,0.9,0.1c0.1,0.2,0.6,0,0.7,0
		c0.1,0,0.1,0.1,0.3,0c0.1-0.1,0.2-0.3,0.3-0.4c0.3-0.2,0.7,0,0.8,0.4c0,0.3,0.3,1.4,0.7,1.3c0.6-0.2,1.1-0.4,1.7-0.7
		c0.4-0.2,0.9-0.7,1.4-0.7c0.1,0,0.1,0,0.1-0.1c-0.4-1.1-0.6-2.3-1.1-3.3c-0.1-0.1,0-0.3,0-0.4c0.1-0.6,0.6-0.8,0.8-1.3
		c0-0.1,0.1-0.1,0.1-0.2c-0.2,0.6,0.1,0.1,0.2,0.2c0.1,0.1-0.6,0.8-0.6,0.8c-0.2,0.1-0.4,0.3-0.2,0.6c0.7,1.1,1.2,2.5,1.3,3.8
		c0,0.2-0.1,0.4-0.3,0.5c-0.7,0.4-1.4,0.7-2.1,1c-0.2,0.1-1.5,0.4-1.4,0.5c0.1,0.2,0.5,1,0.5,1.1c0,0.2,0.4,0.7,0.5,0.9
		s1.4,0,1.7-0.1c0.6,0,1.3-0.1,1.9,0c0.2,0,0.7,0.6,0.9,0.8c0.9,1.2,1.8,2.5,2.6,3.8c0.1,0.1,0.1,0.2,0.1,0.3c0,0.2,0.2,0.3,0.4,0.4
		c0.1,0,1,0.7,1,0.7h-0.2c-0.3,0.1,0,0.2,0,0.4c-0.2-0.2-0.4-0.3-0.6-0.4c-0.3-0.2-0.5-0.5-0.8-0.7c-0.6-0.4-1.1-1.6-1.5-2.2
		c-0.5-0.8-1.2-1.5-1.8-2.4c0-0.1-0.1,0-0.2,0c-1,0.1-2.1,0-3.1,0.1c0.2,0.5,0.5,0.9,0.7,1.4c0.1,0.3,0.2,0.9,0.4,1
		c0.9,0.3,1.9,0.7,2.8,1.2c0.2,0.1,0.4,0.2,0.5,0.4c0.2,0.8-0.4,1.9-0.7,2.7s-0.5,1.8-1,2.6c0,0.1,0,0.1,0,0.2
		c0.1,0.1,0.1,0.2,0.2,0.3c0.1,0.2,0.2,0.3,0.1,0.5c0,0.1,0,0.1,0.1,0.1c0,0,0.2,0.1,0.2,0.2c0,0.1-0.3-0.2-0.4-0.1
		c-0.1,0.1,0,0.2,0,0.3v0.1c-0.1,0-0.1,0-0.1-0.1c0-0.4-0.3-0.9-0.4-1.2c-0.1-0.3,0-0.6,0.1-0.9c0.1-0.4,1.5-4.1,1.2-4.3
		c-0.5-0.4-1.1-0.7-1.7-1c-0.3-0.1-0.9-0.7-0.9-0.1c0,0.7,0,1.4-0.2,2c-0.1,0.2-0.9,2.3-1.1,2.1v-0.1c0.4-0.7,0.7-1.3,0.9-2.1
		c0.2-0.6,0.2-1.2,0.2-1.8c-0.1-0.5-0.2-1.1-0.3-1.6c-0.3-1.1-0.9-2.1-1.5-3c-0.1-0.1-0.1-0.2-0.2-0.1c-0.2,0-0.4,0-0.6,0.1
		c0.1-0.1,0.2-0.1,0.3-0.2c0.1,0,0.2,0,0.3-0.1c0.1,0,0.1-0.1,0.1-0.1c0-0.1-0.2-0.5-0.4-0.4c-0.1,0-0.3,0-0.4,0.1
		c0.1-0.2,0.4-0.2,0.4-0.4c0-0.3-0.3-0.5-0.5-0.3c0-0.2,0.2-0.1,0.2-0.2c-0.2,0-0.3-0.1-0.4-0.2c0,0,0.2-1,0-1c0,0-0.2,0.8-0.2,0.9
		c-0.2,0.6-0.2,1.3-0.2,1.9c-0.1,1.3-0.1,2.7,0.2,4c0.2,1.1,0.6,2.1,1,3.1c0.6,1.3,1.5,2.4,2.4,3.6c0,0.1,0.1,0.1,0,0.2
		c-0.1,0.1-0.1,0-0.1,0c-0.9-0.6-1.7-1.9-2.2-2.8c-0.7-1.2-1.1-2.4-1.4-3.7c-0.2-1.2-0.4-2.5-0.3-3.8c0-0.7,0.1-1.4,0.2-2
		c0.1-0.5-0.1-1.1,0-1.6c0-0.2,0.2-0.3,0.4-0.3c-0.5-0.2-0.5,0.4-0.5,0.7c-0.2-0.1-0.6-0.5-0.8-0.2c-0.2,0.2-0.4,0-0.6,0.1
		c0-0.2-0.3-0.8-0.5-0.4c0.4,0,0.4,0.2,0.4,0.4c0.1,1.5,0.5,3,0.5,4.6c-0.1,1.5-0.4,3.1-0.9,4.5c-0.6,1.7-1.6,3.7-3,4.9
		c-0.1,0-0.1,0.1-0.2,0c-0.1-0.1,0-0.1,0-0.2c0.4-0.6,0.8-1.1,1.2-1.7c0-0.1,0-0.1,0-0.1c-0.3-0.3-0.5-0.6-0.7-1
		c-0.3-0.5-0.4-1.1-0.5-1.7c-0.1-0.5-0.1-1-0.1-1.4c0-0.1,0-0.2,0-0.2c0-0.1,0-0.1-0.1-0.1c-0.8,0.4-1.6,0.8-2.4,1.2
		c0,0-0.1,0-0.2,0c-0.3,0,0,0.6,0.1,0.8c0.2,0.5,0.3,0.9,0.4,1.4c0.3,0.9,0.6,1.9,0.9,2.8c0.1,0.2,0,0.4-0.1,0.6
		c-0.1,0.1-0.6,1.1-0.7,1.1c0,0,0.1-0.5-0.2-0.2c-0.1,0.1-0.1,0.2-0.2,0.2c0-0.2,0-0.3,0.1-0.3c0.3-0.3,0.3-0.7,0.7-1
		c0.1,0,0.1-0.1,0-0.1c-0.3-0.8-0.7-1.7-1-2.5s-0.8-1.6-0.8-2.5c0-0.3,0.1-0.6,0.4-0.8c0.8-0.6,1.8-0.9,2.8-1.3
		c0.2-0.1,0.3-0.2,0.4-0.5c0.1-0.7,0.4-1.4,0.8-2c0.1-0.2,0.1-0.2-0.1-0.2c-1,0.1-2.1,0-3.1-0.1c-0.1,0-0.1,0-0.1,0.1
		c-0.2,0.8-1.2,1.7-1.6,2.3c-0.6,0.8-1.1,1.5-1.7,2.3c-0.2,0.4-0.7,0.5-0.9,0.8c0,0.1-0.5,0.4-0.6,0.4c0,0,0.3-0.4,0.1-0.3
		C570.8,181.7,570.8,181.7,570.7,181.7L570.7,181.7C570.9,181.6,570.7,181.7,570.7,181.7z M580.9,174.5c-0.4-0.1-0.4-0.1-0.5,0.2
		c-0.1,0.2-0.1,0.2,0.1,0.3c0.1,0,0.6,0.3,0.6,0.3c0,0.1-0.1,0-0.1,0c-0.3-0.1-0.7-0.5-0.9-0.2c-0.4,0.7-0.8,1.3-1.1,2
		c-0.3,0.6-0.5,1.3-0.6,2c-0.1,0.5-0.1,1.1,0,1.6c0.1,0.9,0.3,1.7,0.8,2.5c0.1,0.2,0.3,0.4,0.4,0.6c1.6-2.7,2.6-6,2.2-9.2
		c-0.1-0.6-0.1-2.1-0.6-2.5c0,0.2,0,0.5-0.1,0.7c0,0.2-0.5,0.5-0.5,0.5c0,0.1,0.2,0,0.2,0.1c0-0.1-0.4,0.7-0.4,0.5
		c-0.1,0.2-0.1,0.2,0.1,0.2C580.8,174.3,580.8,174.4,580.9,174.5C580.5,174.4,580.8,174.4,580.9,174.5z M576.6,185.5
		c0.2-0.6-0.5-2-0.7-2.6c-0.1-0.4-0.3-0.8-0.4-1.3c0-0.1-0.4-0.9-0.4-1c0,0,1.1-0.4,1.2-0.4c0.6-0.3,1.2-0.6,1.7-1
		c0.1-0.1,0.2-0.3,0.1-0.5c-0.9,0.5-1.9,0.8-2.7,1.3c-0.9,0.5-0.3,1.6,0,2.3C575.8,183.5,576.2,184.5,576.6,185.5
		C576.6,185.4,576.4,185.1,576.6,185.5z M585.9,176c0.2,0.5,3.6,0.2,3.6,0.2c0,0.1,0,0.2,0.1,0.2c1.1,1.3,2.1,2.8,3,4.2
		c0.1,0.1,0.3,0,0.2-0.1c-0.8-1.4-1.7-2.8-2.7-4c-0.1-0.2-0.3-0.4-0.5-0.4c-0.1,0,0-0.2-0.2-0.3C588.2,175.7,587,175.9,585.9,176
		C585.9,176.2,586.2,175.9,585.9,176z M590.2,180.7c0.2-0.3,0.2-0.4-0.1-0.5c-0.9-0.4-1.8-1-2.8-1.2c-0.5-0.1,0.5,0.5,0.5,0.5
		c0.7,0.3,1.4,0.7,2,1.2C590,180.8,590,180.5,590.2,180.7c-0.2,0.1-0.3,0.2-0.3,0.4c-0.3,1.3-0.8,2.6-1.2,4c0,0.1,0,0.2,0.1,0.2
		s0.1-0.1,0.1-0.1c0.5-1.4,0.9-2.8,1.4-4.2C590.3,180.8,590.4,180.7,590.2,180.7C590.4,180.4,590.4,180.7,590.2,180.7z M577.4,171.8
		c0-0.1,0.3-0.3,0.3-0.4c0.3-1.1,0.8-2.1,1.2-3.2c0.1-0.1,0-0.2,0-0.3c-0.1-0.1-1,1.9-1,2.1c-0.2,0.6-1,1.8-0.3,2.2
		c0.8,0.5,1.9,1,2.9,1.2c0.1,0,0.2-0.1,0.1-0.2c0-0.1-0.1-0.1-0.2-0.1c-0.5-0.2-1.1-0.4-1.6-0.6
		C578.4,172.2,577.7,171.6,577.4,171.8C577.3,171.7,577.6,171.7,577.4,171.8z M580,183.5L580,183.5L580,183.5
		c1.4-2.2,2.1-4.8,2.2-7.3c0-1.4-0.5-2.8-0.4-4.2c0-0.3-0.3-0.4-0.4-0.1c0,0.2,0.1,0.4,0.2,0.4c-0.1,0.1-0.1,0.1,0,0.3
		c0,0,0,0,0,0.1c0.1,0.9,0.4,1.8,0.4,2.8s0,2-0.2,3C581.5,180.1,580.8,181.9,580,183.5C580,183.5,580.1,183.3,580,183.5z
		 M575.6,176.1c0-0.1-0.1-0.2-0.2-0.2c-0.2,0.1-0.3,0.2-0.4,0.3c-0.9,1.4-1.9,2.9-2.8,4.3c-0.1,0.1-0.1,0.1,0,0.2
		c0.1,0,0.1,0,0.2-0.1c0.5-0.7,1-1.5,1.6-2.2c0.5-0.7,1.2-1.4,1.6-2.2C575.6,176.3,575.6,176.2,575.6,176.1
		C575.7,176,575.6,176.2,575.6,176.1z M585.1,173.4c1.1-0.2,2.2-0.7,3.2-1.2c0.3-0.2,0.3-0.4,0-0.5s-1,0.5-1.3,0.6
		c-0.4,0.2-0.9,0.4-1.4,0.6c-0.1,0-1.1,0.5-0.8,0.5C584.8,173.4,584.9,173.3,585.1,173.4C585.1,173.4,584.9,173.3,585.1,173.4z
		 M583.7,172.7c-0.1,0-0.1,0-0.1,0.1c-0.5,2.8-0.4,5.6,0.6,8.3c0.4,1,0.9,1.9,1.4,2.8c0-0.1,0-0.1,0-0.1c-1.9-3.3-2.8-7.1-1.9-10.8
		c0-0.1,0.1-0.2,0.2-0.4C583.9,172.2,583.2,172.4,583.7,172.7C583.6,172.7,583.5,172.6,583.7,172.7z M578.1,176.1L578.1,176.1
		c0.1,0,1.2,0.1,1.3,0c0.1-0.2-0.5-0.2-0.7-0.2c-1-0.1-1.9-0.1-2.9-0.2c-0.3,0-0.1,0.3,0.1,0.3C576.6,176,577.4,176.1,578.1,176.1
		C578.1,176.1,577.6,176.1,578.1,176.1z M588.5,171.7c-0.3-1.2-0.8-2.4-1.2-3.6c0-0.1-0.1,0-0.2-0.1c-0.1,0,0,0.1,0,0.1
		c0.4,1,0.7,2,1,3C588.1,171.4,588.3,171.6,588.5,171.7C588.4,171.5,588.3,171.6,588.5,171.7z M584,171.9c0-0.3-0.1-0.3-0.2-0.3
		c-0.1,0-0.1,0.1-0.2,0.1C583.4,172.3,583.9,172.4,584,171.9C584,171.6,584,172,584,171.9z M579.3,184.6c-0.3,0.4-0.6,0.8-0.9,1.2
		l0,0C578.7,185.5,579,185.1,579.3,184.6C579,185,579,185.1,579.3,184.6z M579.9,183.9c0,0,0.1-0.1,0.2-0.1l-0.1,0.4
		c0,0.7,0,1.4,0.3,2c0.1,0.2,0.3,0.5,0.4,0.7c0,0.2,0.4,0.1,0.3-0.1c0-0.1,0-0.1,0-0.2c0.1-0.3,0-0.6-0.2-0.9
		c-0.2-0.2-0.2-0.4-0.3-0.6c0-0.1-0.2-1.4-0.2-1.4c0.3-0.2,0.2,0.8,0.2,0.9c0,0.5,0.2,0.8,0.4,1.3c0.1,0.3,0.2,0.7,0.2,1
		c0,0.1,0.1,0.2,0,0.3s-0.5,0.2-0.5,0c0-0.3-0.2-0.4-0.3-0.7c-0.2-0.4-0.2-0.8-0.3-1.2c0-0.4,0-0.7-0.1-1.1
		C579.9,184.1,579.9,184,579.9,183.9L579.9,183.9z M580.7,187.1c0.1,0,0.2,0.1,0.3-0.1C580.9,187,580.8,187,580.7,187.1z
		 M585.3,183.8c0.1,0.1,0.1,0.1,0.1,0.2c-0.1,0.4-0.1,0.8-0.1,1.3c0,0.6-0.4,1.1-0.5,1.7c0,0.1-0.1,0.2-0.2,0.2
		c-0.3,0-0.5-0.1-0.4-0.4c0.1-0.3,0-0.7,0.1-1.1c0.1-0.3,0.3-0.6,0.3-0.9c0.1-0.2,0-1.1,0.1-1.3h0.3c0,0.1-0.1,0.1-0.1,0.1
		c-0.2,0.4-0.1,1.1-0.3,1.6c-0.1,0.2-0.6,1.4-0.4,1.6c0.1,0.1,0.2,0.1,0.3,0c0.1-0.3,0.3-0.5,0.4-0.8c0-0.1,0.1-0.2,0.1-0.4
		C585.2,185.1,585.2,184.4,585.3,183.8C585.4,183.9,585.3,184.1,585.3,183.8z M584.6,187.1c-0.1-0.1-0.2-0.1-0.3-0.1
		C584.4,187.1,584.5,187.1,584.6,187.1z M580.7,185.1c0.2,0.1,1.4,0.5,1.5,0.7s0.2,0.3,0.3,0.5c0.2,0.3,0.4,0.3,0.6,0
		c0.1-0.2,0.2-0.4,0.4-0.5c0.2-0.2,0.5-0.3,0.7-0.4c0.2-0.1,0.3-0.1,0.4-0.3c0,0,0,0,0-0.1h-0.1c-0.2,0.1-1.3,0.5-1.3,0.7l0.1,0.1
		c-0.1,0.2-0.2,0.3-0.4,0.3c0.1,0.1,0.1,0.2,0,0.3c0,0-0.1,0.1-0.2,0c-0.1-0.1-0.1-0.1-0.2-0.2c0,0,0.2,0,0.2-0.1
		c-0.1-0.1-0.7-0.2-0.3-0.4c0.1,0,0.1-0.1,0-0.1c-0.5,0-1-0.2-1.4-0.5c-0.2-0.1-0.3-0.2-0.5-0.2C580.6,185,580.6,185,580.7,185.1
		C581.1,185.3,580.6,185,580.7,185.1z"/>
</g>
</svg>
