<?xml version="1.0" encoding="utf-8"?>
<!-- Generator: Adobe Illustrator 18.1.1, SVG Export Plug-In . SVG Version: 6.00 Build 0)  -->
<svg version="1.1" id="Layer_1" xmlns="http://www.w3.org/2000/svg" xmlns:xlink="http://www.w3.org/1999/xlink" x="0px" y="0px"
	 viewBox="0 0 900 600" enable-background="new 0 0 900 600" xml:space="preserve">
<g id="Erysiphe_orontii">
	<g id="Labels">
		<text transform="matrix(1 0 0 1 32.9314 97.314)" font-family="'HelveticaNeue-Italic'" font-size="18">Erysiphe orontii</text>
		<text transform="matrix(1 0 0 1 241.5798 163.6665)" font-family="'HelveticaNeue-Thin'" font-size="12">Mock Treatment</text>
		<text transform="matrix(1 0 0 1 229.101 176.6665)" font-family="'HelveticaNeue-Thin'" font-size="10">(placed in settling towers)</text>
		<text transform="matrix(1 0 0 1 256.0637 266.1665)" font-family="'HelveticaNeue-Thin'" font-size="12">Inoculated</text>
		<text transform="matrix(1 0 0 1 239.5112 279.1665)" enable-background="new    "><tspan x="0" y="0" font-family="'HelveticaNeue-Thin'" font-size="10">(settling towers with </tspan><tspan x="0.6" y="12" font-family="'HelveticaNeue-Thin'" font-size="10">10-day old cultures)</tspan></text>
		<text transform="matrix(1 0 0 1 373.0443 342.6665)" font-family="'HelveticaNeue-Thin'" font-size="10">6 hours</text>
		<text transform="matrix(1 0 0 1 425.8181 342.6665)" font-family="'HelveticaNeue-Thin'" font-size="10">12 hours</text>
		<text transform="matrix(1 0 0 1 104.9961 162)" font-family="'HelveticaNeue'" font-size="8">24hr</text>
		<text transform="matrix(1 0 0 1 482.1505 342.6665)" font-family="'HelveticaNeue-Thin'" font-size="10">18 hours</text>
		<text transform="matrix(1 0 0 1 537.704 342.6665)" enable-background="new    "><tspan x="0" y="0" font-family="'HelveticaNeue-Thin'" font-size="10">24 hours</tspan><tspan x="4.5" y="12" font-family="'HelveticaNeue-Thin'" font-size="10">(1 day)</tspan></text>
		<text transform="matrix(1 0 0 1 595.143 342.6665)" enable-background="new    "><tspan x="0" y="0" font-family="'HelveticaNeue-Thin'" font-size="10">48 hours</tspan><tspan x="2.1" y="12" font-family="'HelveticaNeue-Thin'" font-size="10">(2 days)</tspan></text>
		<text transform="matrix(1 0 0 1 652.6965 342.6665)" enable-background="new    "><tspan x="0" y="0" font-family="'HelveticaNeue-Thin'" font-size="10">72 hours</tspan><tspan x="2.1" y="12" font-family="'HelveticaNeue-Thin'" font-size="10">(3 days)</tspan></text>
		<text transform="matrix(1 0 0 1 716.1351 342.6665)" enable-background="new    "><tspan x="0" y="0" font-family="'HelveticaNeue-Thin'" font-size="10">96 hours</tspan><tspan x="2.1" y="12" font-family="'HelveticaNeue-Thin'" font-size="10">(4 days)</tspan></text>
		<text transform="matrix(1 0 0 1 768.9083 342.6665)" enable-background="new    "><tspan x="0" y="0" font-family="'HelveticaNeue-Thin'" font-size="10">120 hours</tspan><tspan x="4.9" y="12" font-family="'HelveticaNeue-Thin'" font-size="10">(5 days)</tspan></text>
	</g>
	<g id="infoButton_Botrytis_cinerea">
		<circle fill="#00DD9E" cx="184.2" cy="91.2" r="9.2"/>
		<text transform="matrix(1 0 0 1 182.4521 95.5)" fill="#FFFFFF" font-family="'HelveticaNeue-Bold'" font-size="12">i</text>
	</g>
	<g id="treatmentInfographic">
		<g id="root">
			<path fill="none" stroke="#000000" stroke-width="0.5" stroke-miterlimit="10" d="M110.4,296c0.8-2.1,0-4.2-0.7-5.9
				c-0.1-0.2-0.2-0.4-0.2-0.6c-1-2.9,1.6-5.7,1.6-5.7"/>
			<path fill="none" stroke="#000000" stroke-width="0.5" stroke-miterlimit="10" d="M118.3,262.9c0,0,2.3-4.1,4.1-5.9"/>
			<path fill="none" stroke="#000000" stroke-width="0.5" stroke-miterlimit="10" d="M123.1,272.4c-0.7-1.9-3.9-2.2-4-2.2"/>
			<path fill="none" stroke="#000000" stroke-width="0.5" stroke-miterlimit="10" d="M103.7,271.1c-2.2,0.7-6.8,3.6-7,3.7"/>
			<path fill="none" stroke="#000000" stroke-width="0.5" stroke-miterlimit="10" d="M107.8,271.2c-3.1-0.4-8.2,5.1-8.5,5.3"/>
			<path fill="none" stroke="#000000" stroke-width="0.5" stroke-miterlimit="10" d="M100.9,262c-8.2-0.9-13.7,3.5-13.8,3.6"/>
			<path fill="none" stroke="#000000" stroke-width="0.5" stroke-miterlimit="10" d="M109.1,261.9c-1.2-1.1-2.6-4.6-2.6-4.6"/>
			<path fill="none" stroke="#000000" stroke-width="0.5" stroke-miterlimit="10" d="M113.1,264.1c0,0,0.3,0.9,0.4,1.4"/>
			<path fill="none" stroke="#000000" stroke-width="0.5" stroke-miterlimit="10" d="M125,284.3c-1.4-3.1-4.8-6.6-4.9-6.6"/>
			<path fill="none" stroke="#000000" stroke-width="0.5" stroke-miterlimit="10" d="M111.8,262.7L111.8,262.7
				C111.7,262.7,111.7,262.7,111.8,262.7"/>
			<path fill="none" stroke="#000000" stroke-width="0.5" stroke-miterlimit="10" d="M117.4,286.6c-0.3-0.3-1.9-1.6-1.9-3.2
				c-0.1-1.5-0.5-3.4-1.3-5.4c-0.1-0.4-0.5-0.6-0.4-0.4c0.4-0.9,0.6-2.6,0.6-3.2c0-0.2,0-0.4,0-0.6c0-0.5,0.1-0.8,0.2-1.2
				c0.1-0.3,0.1-0.6,0.2-0.9"/>
			<path fill="none" stroke="#000000" stroke-width="0.5" stroke-miterlimit="10" d="M110.1,324.6c-0.1-0.9,0.2-1.6,0.7-2.6
				c0.2-1-0.1-3.2-0.5-4.8c-0.6-2.6,2.2-5.3,2.3-5.4l0.1,0.1c0.1-0.9,0.3-1.9,0.6-2.8c0.1-0.7,0.1-1.7,0.1-2.7
				c0-1.6-0.1-3.3,0.4-4.2c0.1-0.2,0.2-0.5,0.3-0.8c0.7-1.9,1.4-3.8,1.1-7.8c-1.5-3.6-1.1-2.5-1.6-3.3s-1.3-0.4-2-4.2
				c-0.7-3.8,0-5.2,0-7s0.9-6.2,1.2-7.5"/>
			<path fill="none" stroke="#000000" stroke-width="0.5" stroke-miterlimit="10" d="M119.5,330.7c-0.8-0.5-0.9-1.7-1-2.5
				c0-0.3,0-0.5-0.1-0.6c-1.1-1.1-0.9-2.3-0.6-3.8c0-1.4-1.1-2.3-1.5-2.6c0.1,0.6,0.1,1.2,0.1,1.5c-0.3,1.5-1,4.8,0.4,9.6
				c0.2,0.5,0.5,1,0.8,1.5l0,0c0.6,4.2,0.9,7.7,0.9,7.7l-0.1-1.6c0,0-0.5-1.8-1.1-6c-0.2-0.5-0.4-0.9-0.6-1.3l0,0
				c0-0.1,0-0.1-0.1-0.2c-1.1-2.2-2.1-4.1-1.9-7.4v-0.2c0.2-4.1,0.2-5.4-1.7-9.3c-0.3-0.9-0.3-2.6-0.3-3.7"/>
			<path fill="none" stroke="#000000" stroke-width="0.5" stroke-miterlimit="10" d="M120.5,311.3c0.3-3.2-0.5-4.2-1.1-5l-0.1-0.1
				c-0.8-1-0.8-2.2-0.7-4.7c0-2.6-1.4-3.6-1.9-3.9c0,1.1-0.1,2.2-0.3,2.9l-0.1,0.2c-0.8,1.9-1.3,3-1.1,5.3c0.1,1.7-0.3,3.7-0.6,4.9
				c-0.1,0.5-0.2,0.9-0.2,1.1c-0.2,1.1,0.3,2.9,0.8,3.5c0.4,0.7,0.6,1.7,0.8,2.4c0.1,0.3,0.1,0.6,0.2,0.8l0,0v0.3
				c0.1,0.5,0.2,1.1,0.3,1.7l0.1,0.4"/>
			<path fill="none" stroke="#000000" stroke-width="0.5" stroke-miterlimit="10" d="M113.8,277.6c-0.4,2-0.3,2-0.3,4
				s-0.3,3.1,0,4.1s0.8,1.8,1.2,2.3c0.9,1.3,1.8,2.5,1.9,4.3c0,0.4,0,0.9,0,1.4c0,1.1,0,2.6,0,3.8"/>
			<path fill="none" stroke="#000000" stroke-width="0.5" stroke-miterlimit="10" d="M136.4,259.8c-3-0.3-6,1.2-6.1,1.3h0.8
				c-2,0-4.5,0.3-6.9,1.1"/>
			<path fill="none" stroke="#000000" stroke-width="0.5" stroke-miterlimit="10" d="M137.9,262.7c-1.8-0.9-4.1-1.6-6.8-1.7"/>
			<path fill="none" stroke="#000000" stroke-width="0.5" stroke-miterlimit="10" d="M112.2,270.3c0.2-0.1,1-0.1,1.2-0.4
				c0.3-0.4,0.4-1.1,0.2-1.8l0,0c-0.1-0.2-0.3-0.4-0.4-0.7c-0.6-0.9-1.5-2.3-1.3-4.5"/>
			<path fill="none" stroke="#000000" stroke-width="0.5" stroke-miterlimit="10" d="M114.3,268L114.3,268c-0.2,1-0.1,1.8-0.1,1.8"
				/>
			<path fill="none" stroke="#000000" stroke-width="0.5" stroke-miterlimit="10" d="M126.5,263.4l14.7,5.1
				C132.6,261.1,126.5,263.4,126.5,263.4z"/>
			<line fill="none" stroke="#000000" stroke-width="0.5" stroke-miterlimit="10" x1="114.6" y1="267.4" x2="114.4" y2="267.8"/>
			<line fill="none" stroke="#000000" stroke-width="0.5" stroke-miterlimit="10" x1="114.4" y1="268" x2="114.4" y2="267.8"/>
			<line fill="none" stroke="#000000" stroke-width="0.5" stroke-miterlimit="10" x1="113.6" y1="262.2" x2="113.6" y2="262.5"/>
		</g>
		<path id="rosette" fill="none" stroke="#000000" stroke-width="0.5" stroke-miterlimit="10" d="M80.8,270.1c0,0-0.8-0.5,2.1-4.2
			c2.4-2.9,5.3-6.2,7.3-7.3c2.1-1.3,4.1-2.8,8.5-1.1c1.4,0.8,2.3,1.4,3.7,2.8c0.7,1.1,2.7,2,2.9,2.3c1,0.5,5.5,3.7,6.7,4.2
			c-1.2-1.1-5.1-4.5-6.4-5.1c-1.4-0.6-2.6-1.7-2.2-5.9c0.4-2.4,0.9-3.8,0.9-3.8c1,0.8,5,4.5,5.7,5.8c0.6,1,0.2,1.7,0.6,2.8
			c0.3,1,0.9,2.1,1.3,2.3c0.1-0.7,0.3-1.8,0.3-1.8c0.3,0.5,1.6,1.5,1.6,1.5c0.2,0.5,1,2.6,0.9,3.1c-0.1,0.8-0.3,2-0.3,2
			c0.6-0.8,2-2,2.6-4.7c0.2-1.5,0.1-4.5,1.1-5.8c0.9-1.3,1.6-2.6,3.7-3.1c1.1-0.3,2.9-0.8,3.5,1.9c0.1,0.9-0.1,2.1-2.2,4.5
			c-1.4,1.3-4.5,4-4.5,4.1c-0.7,0.8-1,1.2-1,1.2c1.4-1,5.7-3.3,6.3-3.5c0.6-0.8,4.5-5,9.5-5.6c2.2-0.2,7.4,1.2,8.9,1.9
			c-0.8,0.4-2.2,1.2-2.4,1.9c-0.3,0.8-1,2.3-1.9,2.3c0.9,0.6,4,2.6,5.2,4.3c1,1.1,4.1,3.4,6.1,3.9c-0.3,0.5-6.5,2.9-9.6,1.9
			s-4.8-2.9-7.7-5.2c-1.7-1.2-4.4-3-8.4-2.3c-2.2,0.5-6.2,1.8-8,3.2c-0.3,0.4-0.3,0.4-0.3,0.4c1,0,8.3-0.7,9.7,1.1
			c1.2,1.6,2.5,3.4,2.5,3.4c-0.7,0.6-4.4,3.6-8.2,0c-1.5-1.7-2.7-3.3-4-3.2c0.6,0.8,3.6,4.8,5.6,5.9c2.2,0.6,8.1,1.4,9.5,6.1
			c0.8,2.6,1,5.7,1,5.7c-1.3,0.6-5.5,3.5-11.3-3.8c-1.3-2.6-1.6-2.8-2.7-8.3c-0.8-1.5-1.5-3-2.8-4c-1.3-0.1-1.9-0.1-2,0
			c-1,0.1-3.8,0.3-4.9,2.1c-1.3,1.7-3.3,4.1-7.7,6.4c-2.2,1-4.4,2.1-7.7-1.9c-0.8-1.3-1.2-3.9,0.1-5.4c1.4-1.6,3.9-4.7,6.4-4.6
			c1.7,0.1,8.4,1.3,13.3,2.2c-0.6-0.8-4.3-5.7-12-5.8c-1.5,0.1-3.4,0.4-5.7,1.9c-2.6,1.6-5.9,4.5-10,3.2
			C83.4,269.6,81.9,269.5,80.8,270.1z"/>
		<path id="mist" d="M87.8,245.9c0.3,0.6,0.2,1.3-0.2,1.6c-0.4,0.3-1,0.3-1.4,0s-0.5-1-0.2-1.6c0.2-0.5,0.6-0.9,0.9-1.4
			C87.2,244.9,87.5,245.3,87.8,245.9z M86.3,247c0.2,0.3,0.8,0.3,1,0c0.4-0.4,0.2-1-0.5-1.8C86.1,246,85.9,246.6,86.3,247z
			 M89.8,239.1c0.3,0.6,0.2,1.3-0.2,1.6c-0.4,0.3-1,0.3-1.4,0c-0.4-0.3-0.5-1-0.2-1.6c0.2-0.5,0.6-0.9,0.9-1.4
			C89.2,238.1,89.5,238.5,89.8,239.1z M88.3,240.2c0.2,0.3,0.8,0.3,1,0c0.4-0.4,0.2-1-0.5-1.8C88.1,239.2,87.9,239.8,88.3,240.2z
			 M91.8,232.2c0.3,0.6,0.2,1.3-0.2,1.6c-0.4,0.3-1,0.3-1.4,0c-0.4-0.3-0.5-1-0.2-1.6c0.2-0.5,0.6-0.9,0.9-1.4
			C91.2,231.3,91.5,231.7,91.8,232.2z M90.3,233.4c0.2,0.3,0.8,0.3,1,0c0.4-0.4,0.2-1-0.5-1.8C90.1,232.4,89.9,233,90.3,233.4z
			 M93.8,225.4c0.3,0.6,0.2,1.3-0.2,1.6c-0.4,0.3-1,0.3-1.4,0c-0.4-0.3-0.5-1-0.2-1.6c0.2-0.5,0.6-0.9,0.9-1.4
			C93.2,224.5,93.5,224.9,93.8,225.4z M92.3,226.6c0.2,0.3,0.8,0.3,1,0c0.4-0.4,0.2-1-0.5-1.8C92.1,225.6,91.9,226.2,92.3,226.6z
			 M93.6,245.9c0.3,0.6,0.2,1.3-0.2,1.6c-0.4,0.3-1,0.3-1.4,0c-0.4-0.3-0.5-1-0.2-1.6c0.2-0.5,0.6-0.9,0.9-1.4
			C93,244.9,93.4,245.3,93.6,245.9z M92.2,247c0.2,0.3,0.8,0.3,1,0c0.4-0.4,0.2-1-0.5-1.8C92,246,91.8,246.6,92.2,247z M95.6,239.1
			c0.3,0.6,0.2,1.3-0.2,1.6c-0.4,0.3-1,0.3-1.4,0c-0.4-0.3-0.5-1-0.2-1.6c0.2-0.5,0.6-0.9,0.9-1.4C95,238.1,95.4,238.5,95.6,239.1z
			 M94.2,240.2c0.2,0.3,0.8,0.3,1,0c0.4-0.4,0.2-1-0.5-1.8C94,239.2,93.8,239.8,94.2,240.2z M97.6,232.2c0.3,0.6,0.2,1.3-0.2,1.6
			c-0.4,0.3-1,0.3-1.4,0c-0.4-0.3-0.5-1-0.2-1.6c0.2-0.5,0.6-0.9,0.9-1.4C97,231.3,97.4,231.7,97.6,232.2z M96.2,233.4
			c0.2,0.3,0.8,0.3,1,0c0.4-0.4,0.2-1-0.5-1.8C96,232.4,95.8,233,96.2,233.4z M99.6,225.4c0.3,0.6,0.2,1.3-0.2,1.6
			c-0.4,0.3-1,0.3-1.4,0c-0.4-0.3-0.5-1-0.2-1.6c0.2-0.5,0.6-0.9,0.9-1.4C99,224.5,99.4,224.9,99.6,225.4z M98.2,226.6
			c0.2,0.3,0.8,0.3,1,0c0.4-0.4,0.2-1-0.5-1.8C98,225.6,97.8,226.2,98.2,226.6z M99.5,245.9c0.3,0.6,0.2,1.3-0.2,1.6
			c-0.4,0.3-1,0.3-1.4,0s-0.5-1-0.2-1.6c0.2-0.5,0.6-0.9,0.9-1.4C98.9,244.9,99.2,245.3,99.5,245.9z M98,247c0.2,0.3,0.8,0.3,1,0
			c0.4-0.4,0.2-1-0.5-1.8C97.8,246,97.7,246.6,98,247z M101.5,239.1c0.3,0.6,0.2,1.3-0.2,1.6c-0.4,0.3-1,0.3-1.4,0
			c-0.4-0.3-0.5-1-0.2-1.6c0.2-0.5,0.6-0.9,0.9-1.4C100.9,238.1,101.2,238.5,101.5,239.1z M100,240.2c0.2,0.3,0.8,0.3,1,0
			c0.4-0.4,0.2-1-0.5-1.8C99.8,239.2,99.7,239.8,100,240.2z M103.5,232.2c0.3,0.6,0.2,1.3-0.2,1.6c-0.4,0.3-1,0.3-1.4,0
			c-0.4-0.3-0.5-1-0.2-1.6c0.2-0.5,0.6-0.9,0.9-1.4C102.9,231.3,103.2,231.7,103.5,232.2z M102,233.4c0.2,0.3,0.8,0.3,1,0
			c0.4-0.4,0.2-1-0.5-1.8C101.8,232.4,101.7,233,102,233.4z M105.5,225.4c0.3,0.6,0.2,1.3-0.2,1.6c-0.4,0.3-1,0.3-1.4,0
			c-0.4-0.3-0.5-1-0.2-1.6c0.2-0.5,0.6-0.9,0.9-1.4C104.9,224.5,105.2,224.9,105.5,225.4z M104,226.6c0.2,0.3,0.8,0.3,1,0
			c0.4-0.4,0.2-1-0.5-1.8C103.8,225.6,103.7,226.2,104,226.6z M105.3,245.9c0.3,0.6,0.2,1.3-0.2,1.6c-0.4,0.3-1,0.3-1.4,0
			s-0.5-1-0.2-1.6c0.2-0.5,0.6-0.9,0.9-1.4C104.7,244.9,105.1,245.3,105.3,245.9z M103.9,247c0.2,0.3,0.8,0.3,1,0
			c0.4-0.4,0.2-1-0.5-1.8C103.7,246,103.5,246.6,103.9,247z M107.3,239.1c0.3,0.6,0.2,1.3-0.2,1.6c-0.4,0.3-1,0.3-1.4,0
			c-0.4-0.3-0.5-1-0.2-1.6c0.2-0.5,0.6-0.9,0.9-1.4C106.7,238.1,107.1,238.5,107.3,239.1z M105.9,240.2c0.2,0.3,0.8,0.3,1,0
			c0.4-0.4,0.2-1-0.5-1.8C105.7,239.2,105.5,239.8,105.9,240.2z M109.3,232.2c0.3,0.6,0.2,1.3-0.2,1.6c-0.4,0.3-1,0.3-1.4,0
			c-0.4-0.3-0.5-1-0.2-1.6c0.2-0.5,0.6-0.9,0.9-1.4C108.7,231.3,109.1,231.7,109.3,232.2z M107.9,233.4c0.2,0.3,0.8,0.3,1,0
			c0.4-0.4,0.2-1-0.5-1.8C107.7,232.4,107.5,233,107.9,233.4z M111.3,225.4c0.3,0.6,0.2,1.3-0.2,1.6c-0.4,0.3-1,0.3-1.4,0
			c-0.4-0.3-0.5-1-0.2-1.6c0.2-0.5,0.6-0.9,0.9-1.4C110.7,224.5,111.1,224.9,111.3,225.4z M109.9,226.6c0.2,0.3,0.8,0.3,1,0
			c0.4-0.4,0.2-1-0.5-1.8C109.7,225.6,109.5,226.2,109.9,226.6z M111.2,245.9c0.3,0.6,0.2,1.3-0.2,1.6c-0.4,0.3-1,0.3-1.4,0
			s-0.5-1-0.2-1.6c0.2-0.5,0.6-0.9,0.9-1.4C110.6,244.9,111,245.3,111.2,245.9z M109.7,247c0.2,0.3,0.8,0.3,1,0
			c0.4-0.4,0.2-1-0.5-1.8C109.5,246,109.4,246.6,109.7,247z M113.2,239.1c0.3,0.6,0.2,1.3-0.2,1.6c-0.4,0.3-1,0.3-1.4,0
			c-0.4-0.3-0.5-1-0.2-1.6c0.2-0.5,0.6-0.9,0.9-1.4C112.6,238.1,113,238.5,113.2,239.1z M111.7,240.2c0.2,0.3,0.8,0.3,1,0
			c0.4-0.4,0.2-1-0.5-1.8C111.5,239.2,111.4,239.8,111.7,240.2z M115.2,232.2c0.3,0.6,0.2,1.3-0.2,1.6c-0.4,0.3-1,0.3-1.4,0
			c-0.4-0.3-0.5-1-0.2-1.6c0.2-0.5,0.6-0.9,0.9-1.4C114.6,231.3,115,231.7,115.2,232.2z M113.7,233.4c0.2,0.3,0.8,0.3,1,0
			c0.4-0.4,0.2-1-0.5-1.8C113.5,232.4,113.4,233,113.7,233.4z M117.2,225.4c0.3,0.6,0.2,1.3-0.2,1.6c-0.4,0.3-1,0.3-1.4,0
			c-0.4-0.3-0.5-1-0.2-1.6c0.2-0.5,0.6-0.9,0.9-1.4C116.6,224.5,117,224.9,117.2,225.4z M115.7,226.6c0.2,0.3,0.8,0.3,1,0
			c0.4-0.4,0.2-1-0.5-1.8C115.5,225.6,115.4,226.2,115.7,226.6z M116.8,245.9c0.3,0.6,0.2,1.3-0.2,1.6c-0.4,0.3-1,0.3-1.4,0
			s-0.5-1-0.2-1.6c0.2-0.5,0.6-0.9,0.9-1.4C116.2,244.9,116.5,245.3,116.8,245.9z M115.3,247c0.2,0.3,0.8,0.3,1,0
			c0.4-0.4,0.2-1-0.5-1.8C115.1,246,114.9,246.6,115.3,247z M118.8,239.1c0.3,0.6,0.2,1.3-0.2,1.6c-0.4,0.3-1,0.3-1.4,0
			c-0.4-0.3-0.5-1-0.2-1.6c0.2-0.5,0.6-0.9,0.9-1.4C118.2,238.1,118.5,238.5,118.8,239.1z M117.3,240.2c0.2,0.3,0.8,0.3,1,0
			c0.4-0.4,0.2-1-0.5-1.8C117.1,239.2,116.9,239.8,117.3,240.2z M120.8,232.2c0.3,0.6,0.2,1.3-0.2,1.6c-0.4,0.3-1,0.3-1.4,0
			c-0.4-0.3-0.5-1-0.2-1.6c0.2-0.5,0.6-0.9,0.9-1.4C120.2,231.3,120.5,231.7,120.8,232.2z M119.3,233.4c0.2,0.3,0.8,0.3,1,0
			c0.4-0.4,0.2-1-0.5-1.8C119.1,232.4,118.9,233,119.3,233.4z M122.8,225.4c0.3,0.6,0.2,1.3-0.2,1.6c-0.4,0.3-1,0.3-1.4,0
			c-0.4-0.3-0.5-1-0.2-1.6c0.2-0.5,0.6-0.9,0.9-1.4C122.2,224.5,122.5,224.9,122.8,225.4z M121.3,226.6c0.2,0.3,0.8,0.3,1,0
			c0.4-0.4,0.2-1-0.5-1.8C121.1,225.6,120.9,226.2,121.3,226.6z M122.6,245.9c0.3,0.6,0.2,1.3-0.2,1.6c-0.4,0.3-1,0.3-1.4,0
			c-0.4-0.3-0.5-1-0.2-1.6c0.2-0.5,0.6-0.9,0.9-1.4C122,244.9,122.4,245.3,122.6,245.9z M121.2,247c0.2,0.3,0.8,0.3,1,0
			c0.4-0.4,0.2-1-0.5-1.8C121,246,120.8,246.6,121.2,247z M124.6,239.1c0.3,0.6,0.2,1.3-0.2,1.6c-0.4,0.3-1,0.3-1.4,0
			c-0.4-0.3-0.5-1-0.2-1.6c0.2-0.5,0.6-0.9,0.9-1.4C124,238.1,124.4,238.5,124.6,239.1z M123.2,240.2c0.2,0.3,0.8,0.3,1,0
			c0.4-0.4,0.2-1-0.5-1.8C123,239.2,122.8,239.8,123.2,240.2z M126.6,232.2c0.3,0.6,0.2,1.3-0.2,1.6c-0.4,0.3-1,0.3-1.4,0
			c-0.4-0.3-0.5-1-0.2-1.6c0.2-0.5,0.6-0.9,0.9-1.4C126,231.3,126.4,231.7,126.6,232.2z M125.2,233.4c0.2,0.3,0.8,0.3,1,0
			c0.4-0.4,0.2-1-0.5-1.8C125,232.4,124.8,233,125.2,233.4z M128.6,225.4c0.3,0.6,0.2,1.3-0.2,1.6c-0.4,0.3-1,0.3-1.4,0
			c-0.4-0.3-0.5-1-0.2-1.6c0.2-0.5,0.6-0.9,0.9-1.4C128,224.5,128.4,224.9,128.6,225.4z M127.2,226.6c0.2,0.3,0.8,0.3,1,0
			c0.4-0.4,0.2-1-0.5-1.8C127,225.6,126.8,226.2,127.2,226.6z M128.5,245.9c0.3,0.6,0.2,1.3-0.2,1.6c-0.4,0.3-1,0.3-1.4,0
			s-0.5-1-0.2-1.6c0.2-0.5,0.6-0.9,0.9-1.4C127.9,244.9,128.2,245.3,128.5,245.9z M127,247c0.2,0.3,0.8,0.3,1,0
			c0.4-0.4,0.2-1-0.5-1.8C126.8,246,126.7,246.6,127,247z M130.5,239.1c0.3,0.6,0.2,1.3-0.2,1.6c-0.4,0.3-1,0.3-1.4,0
			c-0.4-0.3-0.5-1-0.2-1.6c0.2-0.5,0.6-0.9,0.9-1.4C129.9,238.1,130.2,238.5,130.5,239.1z M129,240.2c0.2,0.3,0.8,0.3,1,0
			c0.4-0.4,0.2-1-0.5-1.8C128.8,239.2,128.7,239.8,129,240.2z M132.5,232.2c0.3,0.6,0.2,1.3-0.2,1.6c-0.4,0.3-1,0.3-1.4,0
			c-0.4-0.3-0.5-1-0.2-1.6c0.2-0.5,0.6-0.9,0.9-1.4C131.9,231.3,132.2,231.7,132.5,232.2z M131,233.4c0.2,0.3,0.8,0.3,1,0
			c0.4-0.4,0.2-1-0.5-1.8C130.8,232.4,130.7,233,131,233.4z M134.5,225.4c0.3,0.6,0.2,1.3-0.2,1.6c-0.4,0.3-1,0.3-1.4,0
			c-0.4-0.3-0.5-1-0.2-1.6c0.2-0.5,0.6-0.9,0.9-1.4C133.9,224.5,134.2,224.9,134.5,225.4z M133,226.6c0.2,0.3,0.8,0.3,1,0
			c0.4-0.4,0.2-1-0.5-1.8C132.8,225.6,132.7,226.2,133,226.6z M134.3,245.9c0.3,0.6,0.2,1.3-0.2,1.6c-0.4,0.3-1,0.3-1.4,0
			s-0.5-1-0.2-1.6c0.2-0.5,0.6-0.9,0.9-1.4C133.7,244.9,134.1,245.3,134.3,245.9z M132.9,247c0.2,0.3,0.8,0.3,1,0
			c0.4-0.4,0.2-1-0.5-1.8C132.7,246,132.5,246.6,132.9,247z M136.3,239.1c0.3,0.6,0.2,1.3-0.2,1.6c-0.4,0.3-1,0.3-1.4,0
			c-0.4-0.3-0.5-1-0.2-1.6c0.2-0.5,0.6-0.9,0.9-1.4C135.7,238.1,136.1,238.5,136.3,239.1z M134.9,240.2c0.2,0.3,0.8,0.3,1,0
			c0.4-0.4,0.2-1-0.5-1.8C134.7,239.2,134.5,239.8,134.9,240.2z M138.3,232.2c0.3,0.6,0.2,1.3-0.2,1.6c-0.4,0.3-1,0.3-1.4,0
			c-0.4-0.3-0.5-1-0.2-1.6c0.2-0.5,0.6-0.9,0.9-1.4C137.7,231.3,138.1,231.7,138.3,232.2z M136.9,233.4c0.2,0.3,0.8,0.3,1,0
			c0.4-0.4,0.2-1-0.5-1.8C136.7,232.4,136.5,233,136.9,233.4z M140.3,225.4c0.3,0.6,0.2,1.3-0.2,1.6c-0.4,0.3-1,0.3-1.4,0
			c-0.4-0.3-0.5-1-0.2-1.6c0.2-0.5,0.6-0.9,0.9-1.4C139.7,224.5,140.1,224.9,140.3,225.4z M138.9,226.6c0.2,0.3,0.8,0.3,1,0
			c0.4-0.4,0.2-1-0.5-1.8C138.7,225.6,138.5,226.2,138.9,226.6z M140.2,245.9c0.3,0.6,0.2,1.3-0.2,1.6c-0.4,0.3-1,0.3-1.4,0
			c-0.4-0.3-0.5-1-0.2-1.6c0.2-0.5,0.6-0.9,0.9-1.4C139.6,244.9,140,245.3,140.2,245.9z M138.7,247c0.2,0.3,0.8,0.3,1,0
			c0.4-0.4,0.2-1-0.5-1.8C138.5,246,138.4,246.6,138.7,247z M142.2,239.1c0.3,0.6,0.2,1.3-0.2,1.6c-0.4,0.3-1,0.3-1.4,0
			c-0.4-0.3-0.5-1-0.2-1.6c0.2-0.5,0.6-0.9,0.9-1.4C141.6,238.1,142,238.5,142.2,239.1z M140.7,240.2c0.2,0.3,0.8,0.3,1,0
			c0.4-0.4,0.2-1-0.5-1.8C140.5,239.2,140.4,239.8,140.7,240.2z M144.2,232.2c0.3,0.6,0.2,1.3-0.2,1.6c-0.4,0.3-1,0.3-1.4,0
			c-0.4-0.3-0.5-1-0.2-1.6c0.2-0.5,0.6-0.9,0.9-1.4C143.6,231.3,144,231.7,144.2,232.2z M142.7,233.4c0.2,0.3,0.8,0.3,1,0
			c0.4-0.4,0.2-1-0.5-1.8C142.5,232.4,142.4,233,142.7,233.4z M146.2,225.4c0.3,0.6,0.2,1.3-0.2,1.6c-0.4,0.3-1,0.3-1.4,0
			c-0.4-0.3-0.5-1-0.2-1.6c0.2-0.5,0.6-0.9,0.9-1.4C145.6,224.5,146,224.9,146.2,225.4z M144.7,226.6c0.2,0.3,0.8,0.3,1,0
			c0.4-0.4,0.2-1-0.5-1.8C144.5,225.6,144.4,226.2,144.7,226.6z"/>
	</g>
	<g id="TimeSampleChart">
		<g id="darkCycle">
			<path fill="none" stroke="#555555" stroke-width="10" stroke-miterlimit="10" d="M114.4,175.9c-9,0-16.3-7.3-16.3-16.3
				s7.3-16.3,16.3-16.3"/>
		</g>
		<g id="lightCycle">
			<path fill="none" stroke="#FFF69F" stroke-width="10" stroke-miterlimit="10" d="M114.1,143.3c9,0,16.3,7.3,16.3,16.3
				s-7.3,16.3-16.3,16.3"/>
		</g>
		<g id="labels" display="none">
			
				<text transform="matrix(4.489659e-11 0.2718 -1 1.220425e-11 144.02 246.8401)" display="inline" font-family="'HelveticaNeue-Thin'" font-size="34.4286">24 &amp; 48 hour</text>
			<text transform="matrix(1 0 0 1 98.7393 295.9715)" display="inline" font-family="'HelveticaNeue-Thin'" font-size="8">injection</text>
			<line display="inline" fill="none" stroke="#000000" stroke-miterlimit="10" x1="110.9" y1="152.3" x2="110.9" y2="161.6"/>
			<text transform="matrix(1 0 0 1 135.4072 295.9715)" display="inline" font-family="'HelveticaNeue-Thin'" font-size="8">16 hour</text>
			<text transform="matrix(1 0 0 1 134.9072 295.9715)" display="inline" font-family="'HelveticaNeue-Thin'" font-size="8">injection</text>
			<line display="inline" fill="none" stroke="#000000" stroke-miterlimit="10" x1="123" y1="180.1" x2="131.3" y2="184.4"/>
			<text transform="matrix(1 0 0 1 63.9464 295.9714)" display="inline" font-family="'HelveticaNeue-Thin'" font-size="8">8 hour</text>
			<text transform="matrix(1 0 0 1 61.1464 295.9714)" display="inline" font-family="'HelveticaNeue-Thin'" font-size="8">injection</text>
			<line display="inline" fill="none" stroke="#000000" stroke-miterlimit="10" x1="99.8" y1="179.1" x2="91.5" y2="183.4"/>
			<text transform="matrix(1 0 0 1 62.4517 295.9715)" display="inline" font-family="'HelveticaNeue-Thin'" font-size="8">4 hour</text>
			<text transform="matrix(1 0 0 1 59.6517 295.9715)" display="inline" font-family="'HelveticaNeue-Thin'" font-size="8">injection</text>
			<line display="inline" fill="none" stroke="#000000" stroke-miterlimit="10" x1="100.4" y1="169.7" x2="92.1" y2="165.5"/>
		</g>
		<text transform="matrix(1 0 0 1 102.4913 120.4444)" enable-background="new    "><tspan x="0" y="0" font-family="'HelveticaNeue-Thin'" font-size="8">6 hour</tspan><tspan x="-6.9" y="9.6" font-family="'HelveticaNeue-Thin'" font-size="8">inoculation</tspan></text>
		<line fill="none" stroke="#000000" stroke-miterlimit="10" x1="113.9" y1="136.3" x2="113.9" y2="147.6"/>
		<text transform="matrix(1 0 0 1 100.2676 193.4444)" enable-background="new    "><tspan x="0" y="0" font-family="'HelveticaNeue-Thin'" font-size="8">18 hour</tspan><tspan x="-4.7" y="9.6" font-family="'HelveticaNeue-Thin'" font-size="8">inoculation</tspan></text>
		<line fill="none" stroke="#000000" stroke-miterlimit="10" x1="113.9" y1="171.3" x2="113.9" y2="182.6"/>
		<text transform="matrix(1 0 0 1 53.2676 155.4444)" enable-background="new    "><tspan x="0" y="0" font-family="'HelveticaNeue-Thin'" font-size="8">12 hour</tspan><tspan x="-4.7" y="9.6" font-family="'HelveticaNeue-Thin'" font-size="8">inoculation</tspan></text>
		<line fill="none" stroke="#000000" stroke-miterlimit="10" x1="102.6" y1="158.9" x2="91.2" y2="158.9"/>
		<text transform="matrix(1 0 0 1 142.5035 152.4444)" enable-background="new    "><tspan x="0" y="0" font-family="'HelveticaNeue-Thin'" font-size="8">ALL SAMPLES</tspan><tspan x="4.7" y="9.6" font-family="'HelveticaNeue-Thin'" font-size="8">1, 2, 3, 4, 5</tspan><tspan x="-0.5" y="19.2" font-family="'HelveticaNeue-Thin'" font-size="8">Day inoculation</tspan></text>
		<line fill="none" stroke="#000000" stroke-miterlimit="10" x1="137.6" y1="158.9" x2="126.2" y2="158.9"/>
	</g>
	<g id="Erysiphe_orontii_at_120_Hours">
		
			<path id="Treated_Erysiphe_orontii_at_120_Hours" fill="#FFFFFF" stroke="#000000" stroke-width="0.5" stroke-linecap="round" stroke-linejoin="round" stroke-miterlimit="10" d="
			M780.7,253.4c-0.1-9.1,4.3-17,9.4-24.3c1.3,1.6,2,2.6,2.9,3.5c9.2,9.8,11.5,21.3,6.3,33.5c-3.7,8.9-5.5,18-4.7,27.5
			c0.1,1.6,0,3.3,0,4.9 M793.1,297.5c-0.3-3.7-0.3-7.3-0.9-11.1c-0.4-2.7-1.3-5.6-2.4-8.2c-1.4-3.5-3.7-6.8-4.7-10.2
			c-1.3-4.6-4.7-9.5-4.2-14.7 M792.2,250.1c-0.4,3.5-1,6.8-1.2,10.2c-0.1,3.6,0.1,7,0.4,10.6"/>
		
			<path id="Control_Erysiphe_orontii_at_120_Hours" fill="#FFFFFF" stroke="#000000" stroke-width="0.5" stroke-linecap="round" stroke-linejoin="round" stroke-miterlimit="10" d="
			M780.7,160c-0.1-9.1,4.3-17,9.4-24.3c1.3,1.6,2,2.6,2.9,3.5c9.2,9.8,11.5,21.3,6.3,33.5c-3.7,8.9-5.5,18-4.7,27.5
			c0.1,1.6,0,3.3,0,4.9 M793.1,204.1c-0.3-3.7-0.3-7.3-0.9-11.1c-0.4-2.7-1.3-5.6-2.4-8.2c-1.4-3.5-3.7-6.8-4.7-10.2
			c-1.3-4.6-4.7-9.5-4.2-14.7 M792.2,156.8c-0.4,3.5-1,6.8-1.2,10.2c-0.1,3.6,0.1,7,0.4,10.6"/>
	</g>
	<g id="Erysiphe_orontii_at_96_Hours">
		
			<path id="Treated_Erysiphe_orontii_at_96_Hours" fill="#FFFFFF" stroke="#000000" stroke-width="0.5" stroke-linecap="round" stroke-linejoin="round" stroke-miterlimit="10" d="
			M724.2,253.4c-0.1-9.1,4.3-17,9.4-24.3c1.3,1.6,2,2.6,2.9,3.5c9.2,9.8,11.5,21.3,6.3,33.5c-3.7,8.9-5.5,18-4.7,27.5
			c0.1,1.6,0,3.3,0,4.9 M736.6,297.6c-0.3-3.7-0.3-7.3-0.9-11.1c-0.4-2.7-1.3-5.6-2.4-8.2c-1.4-3.5-3.7-6.8-4.7-10.2
			c-1.3-4.6-4.7-9.5-4.2-14.7 M735.7,250.1c-0.4,3.5-1,6.8-1.2,10.2c-0.1,3.6,0.1,7,0.4,10.6"/>
		
			<path id="Control_Erysiphe_orontii_at_96_Hours" fill="#FFFFFF" stroke="#000000" stroke-width="0.5" stroke-linecap="round" stroke-linejoin="round" stroke-miterlimit="10" d="
			M724.2,160c-0.1-9.1,4.3-17,9.4-24.3c1.3,1.6,2,2.6,2.9,3.5c9.2,9.8,11.5,21.3,6.3,33.5c-3.7,8.9-5.5,18-4.7,27.5
			c0.1,1.6,0,3.3,0,4.9 M736.6,204.2c-0.3-3.7-0.3-7.3-0.9-11.1c-0.4-2.7-1.3-5.6-2.4-8.2c-1.4-3.5-3.7-6.8-4.7-10.2
			c-1.3-4.6-4.7-9.5-4.2-14.7 M735.7,156.8c-0.4,3.5-1,6.8-1.2,10.2c-0.1,3.6,0.1,7,0.4,10.6"/>
	</g>
	<g id="Erysiphe_orontii_at_72_Hours">
		
			<path id="Treated_Erysiphe_orontii_at_72_Hours" fill="#FFFFFF" stroke="#000000" stroke-width="0.5" stroke-linecap="round" stroke-linejoin="round" stroke-miterlimit="10" d="
			M661.7,253.4c-0.1-9.1,4.3-17,9.4-24.3c1.3,1.6,2,2.6,2.9,3.5c9.2,9.8,11.5,21.3,6.3,33.5c-3.7,8.9-5.5,18-4.7,27.5
			c0.1,1.6,0,3.3,0,4.9 M674.1,297.5c-0.3-3.7-0.3-7.3-0.9-11.1c-0.4-2.7-1.3-5.6-2.4-8.2c-1.4-3.5-3.7-6.8-4.7-10.2
			c-1.3-4.6-4.7-9.5-4.2-14.7 M673.2,250.1c-0.4,3.5-1,6.8-1.2,10.2c-0.1,3.6,0.1,7,0.4,10.6"/>
		
			<path id="Control_Erysiphe_orontii_at_72_Hours" fill="#FFFFFF" stroke="#000000" stroke-width="0.5" stroke-linecap="round" stroke-linejoin="round" stroke-miterlimit="10" d="
			M661.7,160c-0.1-9.1,4.3-17,9.4-24.3c1.3,1.6,2,2.6,2.9,3.5c9.2,9.8,11.5,21.3,6.3,33.5c-3.7,8.9-5.5,18-4.7,27.5
			c0.1,1.6,0,3.3,0,4.9 M674.1,204.1c-0.3-3.7-0.3-7.3-0.9-11.1c-0.4-2.7-1.3-5.6-2.4-8.2c-1.4-3.5-3.7-6.8-4.7-10.2
			c-1.3-4.6-4.7-9.5-4.2-14.7 M673.2,156.8c-0.4,3.5-1,6.8-1.2,10.2c-0.1,3.6,0.1,7,0.4,10.6"/>
	</g>
	<g id="Erysiphe_orontii_at_48_Hours">
		
			<path id="Treated_Erysiphe_orontii_at_48_Hours" fill="#FFFFFF" stroke="#000000" stroke-width="0.5" stroke-linecap="round" stroke-linejoin="round" stroke-miterlimit="10" d="
			M603.2,253.4c-0.1-9.1,4.3-17,9.4-24.3c1.3,1.6,2,2.6,2.9,3.5c9.2,9.8,11.5,21.3,6.3,33.5c-3.7,8.9-5.5,18-4.7,27.5
			c0.1,1.6,0,3.3,0,4.9 M615.6,297.6c-0.3-3.7-0.3-7.3-0.9-11.1c-0.4-2.7-1.3-5.6-2.4-8.2c-1.4-3.5-3.7-6.8-4.7-10.2
			c-1.3-4.6-4.7-9.5-4.2-14.7 M614.7,250.1c-0.4,3.5-1,6.8-1.2,10.2c-0.1,3.6,0.1,7,0.4,10.6"/>
		
			<path id="Control_Erysiphe_orontii_at_48_Hours" fill="#FFFFFF" stroke="#000000" stroke-width="0.5" stroke-linecap="round" stroke-linejoin="round" stroke-miterlimit="10" d="
			M603.2,160c-0.1-9.1,4.3-17,9.4-24.3c1.3,1.6,2,2.6,2.9,3.5c9.2,9.8,11.5,21.3,6.3,33.5c-3.7,8.9-5.5,18-4.7,27.5
			c0.1,1.6,0,3.3,0,4.9 M615.6,204.2c-0.3-3.7-0.3-7.3-0.9-11.1c-0.4-2.7-1.3-5.6-2.4-8.2c-1.4-3.5-3.7-6.8-4.7-10.2
			c-1.3-4.6-4.7-9.5-4.2-14.7 M614.7,156.8c-0.4,3.5-1,6.8-1.2,10.2c-0.1,3.6,0.1,7,0.4,10.6"/>
	</g>
	<g id="Erysiphe_orontii_at_24_Hours">
		
			<path id="Treated_Erysiphe_orontii_at_24_Hours" fill="#FFFFFF" stroke="#000000" stroke-width="0.5" stroke-linecap="round" stroke-linejoin="round" stroke-miterlimit="10" d="
			M546.7,253.4c-0.1-9.1,4.3-17,9.4-24.3c1.3,1.6,2,2.6,2.9,3.5c9.2,9.8,11.5,21.3,6.3,33.5c-3.7,8.9-5.5,18-4.7,27.5
			c0.1,1.6,0,3.3,0,4.9 M559.1,297.5c-0.3-3.7-0.3-7.3-0.9-11.1c-0.4-2.7-1.3-5.6-2.4-8.2c-1.4-3.5-3.7-6.8-4.7-10.2
			c-1.3-4.6-4.7-9.5-4.2-14.7 M558.2,250.1c-0.4,3.5-1,6.8-1.2,10.2c-0.1,3.6,0.1,7,0.4,10.6"/>
		
			<path id="Control_Erysiphe_orontii_at_24_Hours" fill="#FFFFFF" stroke="#000000" stroke-width="0.5" stroke-linecap="round" stroke-linejoin="round" stroke-miterlimit="10" d="
			M546.7,160c-0.1-9.1,4.3-17,9.4-24.3c1.3,1.6,2,2.6,2.9,3.5c9.2,9.8,11.5,21.3,6.3,33.5c-3.7,8.9-5.5,18-4.7,27.5
			c0.1,1.6,0,3.3,0,4.9 M559.1,204.1c-0.3-3.7-0.3-7.3-0.9-11.1c-0.4-2.7-1.3-5.6-2.4-8.2c-1.4-3.5-3.7-6.8-4.7-10.2
			c-1.3-4.6-4.7-9.5-4.2-14.7 M558.2,156.8c-0.4,3.5-1,6.8-1.2,10.2c-0.1,3.6,0.1,7,0.4,10.6"/>
	</g>
	<g id="Erysiphe_orontii_at_18_Hours">
		
			<path id="Treated_Erysiphe_orontii_at_18_Hours" fill="#FFFFFF" stroke="#000000" stroke-width="0.5" stroke-linecap="round" stroke-linejoin="round" stroke-miterlimit="10" d="
			M490.2,253.4c-0.1-9.1,4.3-17,9.4-24.3c1.3,1.6,2,2.6,2.9,3.5c9.2,9.8,11.5,21.3,6.3,33.5c-3.7,8.9-5.5,18-4.7,27.5
			c0.1,1.6,0,3.3,0,4.9 M502.6,297.6c-0.3-3.7-0.3-7.3-0.9-11.1c-0.4-2.7-1.3-5.6-2.4-8.2c-1.4-3.5-3.7-6.8-4.7-10.2
			c-1.3-4.6-4.7-9.5-4.2-14.7 M501.7,250.1c-0.4,3.5-1,6.8-1.2,10.2c-0.1,3.6,0.1,7,0.4,10.6"/>
		
			<path id="Control_Erysiphe_orontii_at_18_Hours" fill="#FFFFFF" stroke="#000000" stroke-width="0.5" stroke-linecap="round" stroke-linejoin="round" stroke-miterlimit="10" d="
			M490.2,160c-0.1-9.1,4.3-17,9.4-24.3c1.3,1.6,2,2.6,2.9,3.5c9.2,9.8,11.5,21.3,6.3,33.5c-3.7,8.9-5.5,18-4.7,27.5
			c0.1,1.6,0,3.3,0,4.9 M502.6,204.2c-0.3-3.7-0.3-7.3-0.9-11.1c-0.4-2.7-1.3-5.6-2.4-8.2c-1.4-3.5-3.7-6.8-4.7-10.2
			c-1.3-4.6-4.7-9.5-4.2-14.7 M501.7,156.8c-0.4,3.5-1,6.8-1.2,10.2c-0.1,3.6,0.1,7,0.4,10.6"/>
	</g>
	<g id="Erysiphe_orontii_at_12_Hours">
		
			<path id="Treated_Erysiphe_orontii_at_12_Hours" fill="#FFFFFF" stroke="#000000" stroke-width="0.5" stroke-linecap="round" stroke-linejoin="round" stroke-miterlimit="10" d="
			M434.8,253.4c-0.1-9.1,4.3-17,9.4-24.3c1.3,1.6,2,2.6,2.9,3.5c9.2,9.8,11.5,21.3,6.3,33.5c-3.7,8.9-5.5,18-4.7,27.5
			c0.1,1.6,0,3.3,0,4.9 M447.2,297.5c-0.3-3.7-0.3-7.3-0.9-11.1c-0.4-2.7-1.3-5.6-2.4-8.2c-1.4-3.5-3.7-6.8-4.7-10.2
			c-1.3-4.6-4.7-9.5-4.2-14.7 M446.3,250.1c-0.4,3.5-1,6.8-1.2,10.2c-0.1,3.6,0.1,7,0.4,10.6"/>
		
			<path id="Control_Erysiphe_orontii_at_12_Hours" fill="#FFFFFF" stroke="#000000" stroke-width="0.5" stroke-linecap="round" stroke-linejoin="round" stroke-miterlimit="10" d="
			M434.8,160c-0.1-9.1,4.3-17,9.4-24.3c1.3,1.6,2,2.6,2.9,3.5c9.2,9.8,11.5,21.3,6.3,33.5c-3.7,8.9-5.5,18-4.7,27.5
			c0.1,1.6,0,3.3,0,4.9 M447.2,204.1c-0.3-3.7-0.3-7.3-0.9-11.1c-0.4-2.7-1.3-5.6-2.4-8.2c-1.4-3.5-3.7-6.8-4.7-10.2
			c-1.3-4.6-4.7-9.5-4.2-14.7 M446.3,156.8c-0.4,3.5-1,6.8-1.2,10.2c-0.1,3.6,0.1,7,0.4,10.6"/>
	</g>
	<g id="Erysiphe_orontii_at_6_Hours">
		
			<path id="Treated_Erysiphe_orontii_at_6_Hours" fill="#FFFFFF" stroke="#000000" stroke-width="0.5" stroke-linecap="round" stroke-linejoin="round" stroke-miterlimit="10" d="
			M378.3,253.4c-0.1-9.1,4.3-17,9.4-24.3c1.3,1.6,2,2.6,2.9,3.5c9.2,9.8,11.5,21.3,6.3,33.5c-3.7,8.9-5.5,18-4.7,27.5
			c0.1,1.6,0,3.3,0,4.9 M390.7,297.6c-0.3-3.7-0.3-7.3-0.9-11.1c-0.4-2.7-1.3-5.6-2.4-8.2c-1.4-3.5-3.7-6.8-4.7-10.2
			c-1.3-4.6-4.7-9.5-4.2-14.7 M389.8,250.1c-0.4,3.5-1,6.8-1.2,10.2c-0.1,3.6,0.1,7,0.4,10.6"/>
		
			<path id="Control_Erysiphe_orontii_at_6_Hours" fill="#FFFFFF" stroke="#000000" stroke-width="0.5" stroke-linecap="round" stroke-linejoin="round" stroke-miterlimit="10" d="
			M378.3,160c-0.1-9.1,4.3-17,9.4-24.3c1.3,1.6,2,2.6,2.9,3.5c9.2,9.8,11.5,21.3,6.3,33.5c-3.7,8.9-5.5,18-4.7,27.5
			c0.1,1.6,0,3.3,0,4.9 M390.7,204.2c-0.3-3.7-0.3-7.3-0.9-11.1c-0.4-2.7-1.3-5.6-2.4-8.2c-1.4-3.5-3.7-6.8-4.7-10.2
			c-1.3-4.6-4.7-9.5-4.2-14.7 M389.8,156.8c-0.4,3.5-1,6.8-1.2,10.2c-0.1,3.6,0.1,7,0.4,10.6"/>
	</g>
</g>
</svg>
