<?xml version='1.0' encoding='utf-8'?>
<svg xmlns="http://www.w3.org/2000/svg" height="172.78mm" id="svg8" version="1.1" viewBox="0 0 225.63 172.78" width="225.63mm">
    <g id="ColLaserMicrodissected-5dUninfected">
        <path d="m165.44 23.739c-1.5135-0.94595-6.527-0.18919-6.527-0.18919-1.4189-1.0405-5.2027 1e-6 -5.2027 1e-6 -2.0811-1.4189-6.2432 0-6.2432 0s-2.7905-0.66216-5.3919-0.33108c0 0-1.5135 0.66216-0.33109 2.223 0.75676-0.09459 1.7027 0.28378 1.7027 0.28378 0.61486-0.23649 2.8851-0.18919 2.8851-0.18919 0.56757-0.18919 1.4189-0.52027 1.4189-0.52027 0.70946 0.23649 1.1351 0.33108 1.1351 0.33108l3.4527 0.18919c0.28379-0.37838 1.5608-0.56757 1.5608-0.56757 0.47298 0.47297 2.2703 0.37838 2.2703 0.37838l3.0743-0.14189c1.75 0.42568 3.6419 0.37838 3.6419 0.37838l2.4595-0.23649 0.0946-1.6081" fill="none" id="path32-8" stroke="#000000" stroke-miterlimit="10" stroke-width=".1" />
        <path d="m147.46 23.55s0.80406 0.52027 0.28379 1.4662" fill="none" id="path40-1" stroke="#000000" stroke-miterlimit="10" stroke-width=".1" />
        <path d="m153.71 23.55 0.18919 1.4189" fill="none" id="path42-8" stroke="#000000" stroke-miterlimit="10" stroke-width=".1" />
        <path d="m158.91 23.55 0.33108 1.6554" fill="none" id="path44-3" stroke="#000000" stroke-miterlimit="10" stroke-width=".1" />
        <path d="m155.46 25.389s-1.0953 0.05259-1.5683-0.42038c0 0-1.277 0.18919-1.5608 0.56757l-3.4527-0.18919s-0.42568-0.09459-1.1351-0.33108c0 0-0.85135 0.33108-1.4189 0.52027 0 0-2.2703-0.0473-2.8851 0.18919 0 0-0.94595-0.37838-1.7027-0.28378l-0.83752 0.13683 0.13378 7.7925s0.96988 1.1706 2.2073 0.33444c0 0 1.2709 1.9398 3.1772-0.03345 0 0 1.5719 0.46822 2.2742-0.13378 0.0377-0.16037 1.953 1.2232 3.8461-0.301 0.013-0.06516 1.432 1.0339 3.4448-0.26756-0.10378-0.25944 0.24276 1.1262 1.9564 1.3135 0.18133-0.59042 0.95287-1.2682 1.4883-1.3804 0 0 1.3043 1.0368 2.7759 0.36789 0 0 0.76922-0.33444 0.76922-0.76922 0 0 0.49406 0.46136 1.2633 0.56169 0.53176-0.18217 0.98983-0.16761 1.2116-0.58227 0 0 0.61771-3.3519-0.10919-7.1338l-2.4595 0.23649s-0.88864 0.27312-2.6386-0.15256l-0.88046 1.0062s-1.4674-2.0125-3.438-0.16771c0 0-0.46119-0.88046-0.46119-0.88046" fill="none" id="path36-7" stroke="#000000" stroke-miterlimit="10" stroke-width=".1" />
        <path d="m162.88 25.584s0.76266 1.6337 0.42822 4.2758l-0.33444 2.6421" fill="none" id="path58-5" stroke="#000000" stroke-miterlimit="10" stroke-width=".1" />
        <path d="m152.33 25.536s0.20648 7.701 0.20648 7.701" fill="none" id="path64-0" stroke="#000000" stroke-miterlimit="10" stroke-width=".1" />
        <path d="m148.7 33.538s0.18691-8.1912 0.18691-8.1912" fill="none" id="path66-8" stroke="#000000" stroke-miterlimit="10" stroke-width=".1" />
        <path d="m146.33 25.536s0.46082 2.5171 0.0261 4.39c-0.43477 1.8729 0.0669 3.7458 0.0669 3.7458" fill="none" id="path68-2" stroke="#000000" stroke-miterlimit="10" stroke-width=".1" />
        <path d="m143.44 25.726s0.36942 1.9266 0.035 3.7995c-0.33444 1.8729-0.2341 4.1805-0.2341 4.1805" fill="none" id="path70-0" stroke="#000000" stroke-miterlimit="10" stroke-width=".1" />
        <path d="m155.99 32.97s-0.39639-0.20156-0.061-1.5013c0.37734-2.4737 0-5.1989 0-5.1989" fill="none" id="path119-2" stroke="#000000" stroke-miterlimit="10" stroke-width=".1" />
        <path d="m159.43 32.903s-0.78054-1.0571-0.19356-3.4049c0.58696-2.3479 0.12577-3.0606 0.12577-3.0606" fill="none" id="path121-1" stroke="#000000" stroke-miterlimit="10" stroke-width=".1" />
        <path d="m165.62 22.268-24.615-0.13378-0.10034 3.4448 0.83753-0.13684c-1.1824-1.5608 0.33108-2.223 0.33108-2.223 2.6014-0.33108 5.3919 0.33108 5.3919 0.33108s4.1622-1.4189 6.2432 0c0 0 3.7838-1.0405 5.2027-1e-6 0 0 5.0135-0.75676 6.527 0.18919l0.18182-1.4714" fill="none" id="path125-0" stroke="#000000" stroke-miterlimit="10" stroke-width=".1" />
        <path d="m146.08 38.691c2.3717-2.4903 1.1859-3.9726 1.1859-3.9726-0.88939-1.3637-3.0239 0.11858-3.0239 0.11858l-2.016 1.7195s-0.23717 1.2451 0.11859 1.8677c0 0 0.94868 2.8164 3.7354 0.26681" fill="none" id="path237-3" stroke="#000000" stroke-miterlimit="10" stroke-width=".1" />
        <path d="m147.5 35.993s0.47435-2.3421 2.7275-2.0753c0 0 1.7788 0.11859 2.3717 0.68187 0 0 0.17788-0.85974 1.1266-0.97833 0 0 2.9226-0.27741 4.2184 0.66175 0 0 1.8591 3.2812-1.1352 4.4671 0 0-1.7491 0.26682-2.6385-0.53364 0 0-3.7947 3.35-6.6704-2.2235" fill="none" id="path241-2" stroke="#000000" stroke-miterlimit="10" stroke-width=".1" />
        <path d="m152.6 34.6s3.7355 1.8381 1.5713 3.6169" fill="none" id="path243-5" stroke="#000000" stroke-miterlimit="10" stroke-width=".1" />
        <path d="m145.87 44.769s-3.4686-1.8677 0.20752-6.0775c0 0 2.3717-1.3341 4.2098 0.26682 0 0 2.9054 4.1802-2.4607 6.2258 0 0 2.2828 1.8084-0.0593 3.7651 0.9171-0.0027 2.3741 0.56329 2.3741 0.56329h-4.5087s-4.1505-2.3421 0.23718-4.7434" fill="none" id="path245-9" stroke="#000000" stroke-miterlimit="10" stroke-width=".1" />
        <path d="m145.87 44.769s0.7708 0.68187 1.9567 0.41505" fill="none" id="path247-2" stroke="#000000" stroke-miterlimit="10" stroke-width=".1" />
        <path d="m160.29 36.29s-5.5762 1.8028-0.7966 5.8697c0 0 4.0778-0.1186 3.0699-4.0319 0 0-0.69249-1.8078-2.2733-1.8378" fill="none" id="path259-4" stroke="#000000" stroke-miterlimit="10" stroke-width=".1" />
        <path d="m157.94 34.283s0.6136-1.2097 1.4883-1.3804c0 0 2.1792 0.48148 2.6239 0.3036 0 0 0.80046 0.35575 0.8894 0.7708 0 0-0.85975 1.6602-0.97834 1.7491-0.11858 0.08894-2.1345 1.2748-3.5279-0.26681l-0.49534-1.1763" fill="none" id="path261-0" stroke="#000000" stroke-miterlimit="10" stroke-width=".1" />
        <path d="m165.45 32.481-2e-3 6.7439c0.3533 0.40614-2.5832-0.40868-3.4859-1.9286 0 0-0.57014-3.4674 3.4883-4.8153h3e-5" fill="none" id="path265-5" stroke="#000000" stroke-miterlimit="10" stroke-width=".1" />
        <path d="m162.72 49.525c0.0252-0.17719 0.0421-0.36898 0.0495-0.57651 0 0 3.7354-0.91904 2.016-4.1505 0 0-0.85975-2.9943-4.1209-2.6089 0 0-4.0912 1.6898-0.23717 6.285 0 0-2.1344 0.08315-2.1293 1.0645l4.4219-0.01363" fill="none" id="path255-3" stroke="#000000" stroke-miterlimit="10" stroke-width=".1" />
        <path d="m160.42 48.474s0.50399 0.56329 1.3341 0.11858c0.8301-0.44469 1.008 0.35576 1.008 0.35576" fill="none" id="path257-8" stroke="#000000" stroke-miterlimit="10" stroke-width=".1" />
        <path d="m145.63 49.512s1.426-0.05333 2.1346-0.56329" fill="none" id="path1454-1" stroke="#000000" stroke-miterlimit="10" stroke-width=".1" />
    </g>
    <g id="ColLaserMicrodissected-5dPostInfected">
        <path d="m200.23 23.552c-1.5135-0.94595-6.527-0.18919-6.527-0.18919-1.4189-1.0405-5.2027 1e-6 -5.2027 1e-6 -2.0811-1.4189-6.2432 0-6.2432 0s-2.7905-0.66216-5.3919-0.33108c0 0-1.5135 0.66216-0.33109 2.223 0.75676-0.09459 1.7027 0.28378 1.7027 0.28378 0.61486-0.23649 2.8851-0.18919 2.8851-0.18919 0.56757-0.18919 1.4189-0.52027 1.4189-0.52027 0.70946 0.23649 1.1351 0.33108 1.1351 0.33108l3.4527 0.18919c0.28379-0.37838 1.5608-0.56757 1.5608-0.56757 0.47298 0.47297 2.2703 0.37838 2.2703 0.37838l3.0743-0.14189c1.75 0.42568 3.6419 0.37838 3.6419 0.37838l2.4595-0.23649 0.0946-1.6081" fill="none" id="path2159" stroke="#000000" stroke-miterlimit="10" stroke-width=".1" />
        <path d="m182.26 23.363s0.80406 0.52027 0.28379 1.4662" fill="none" id="path2161" stroke="#000000" stroke-miterlimit="10" stroke-width=".1" />
        <path d="m188.5 23.363 0.18919 1.4189" fill="none" id="path2163" stroke="#000000" stroke-miterlimit="10" stroke-width=".1" />
        <path d="m193.71 23.363 0.33108 1.6554" fill="none" id="path2165" stroke="#000000" stroke-miterlimit="10" stroke-width=".1" />
        <path d="m190.26 25.202s-1.0953 0.05259-1.5683-0.42038c0 0-1.277 0.18919-1.5608 0.56757l-3.4527-0.18919s-0.42568-0.09459-1.1351-0.33108c0 0-0.85135 0.33108-1.4189 0.52027 0 0-2.2703-0.0473-2.8851 0.18919 0 0-0.94595-0.37838-1.7027-0.28378l-0.83752 0.13683 0.13378 7.7925s0.96988 1.1706 2.2073 0.33444c0 0 1.2709 1.9398 3.1772-0.03345 0 0 1.5719 0.46822 2.2742-0.13378 0.0377-0.16037 1.953 1.2232 3.8461-0.301 0.013-0.06516 1.432 1.0339 3.4448-0.26756-0.10378-0.25944 0.24276 1.1262 1.9564 1.3135 0.18133-0.59042 0.95287-1.2682 1.4883-1.3804 0 0 1.3043 1.0368 2.7759 0.36789 0 0 0.76922-0.33444 0.76922-0.76922 0 0 0.49406 0.46136 1.2633 0.56169 0.53176-0.18217 0.98983-0.16761 1.2116-0.58227 0 0 0.61771-3.3519-0.10919-7.1338l-2.4595 0.23649s-0.88864 0.27312-2.6386-0.15256l-0.88046 1.0062s-1.4674-2.0125-3.438-0.16771c0 0-0.46119-0.88046-0.46119-0.88046" fill="none" id="path2171" stroke="#000000" stroke-miterlimit="10" stroke-width=".1" />
        <path d="m197.68 25.397s0.76266 1.6337 0.42822 4.2758l-0.33444 2.6421" fill="none" id="path2173" stroke="#000000" stroke-miterlimit="10" stroke-width=".1" />
        <path d="m187.13 25.349s0.20648 7.701 0.20648 7.701" fill="none" id="path2175" stroke="#000000" stroke-miterlimit="10" stroke-width=".1" />
        <path d="m183.49 33.351s0.18691-8.1912 0.18691-8.1912" fill="none" id="path2177" stroke="#000000" stroke-miterlimit="10" stroke-width=".1" />
        <path d="m181.13 25.349s0.46082 2.5171 0.0261 4.39c-0.43477 1.8729 0.0669 3.7458 0.0669 3.7458" fill="none" id="path2179" stroke="#000000" stroke-miterlimit="10" stroke-width=".1" />
        <path d="m178.24 25.539s0.36942 1.9266 0.035 3.7995c-0.33444 1.8729-0.2341 4.1805-0.2341 4.1805" fill="none" id="path2181" stroke="#000000" stroke-miterlimit="10" stroke-width=".1" />
        <path d="m190.78 32.783s-0.39639-0.20156-0.061-1.5013c0.37734-2.4737 0-5.1989 0-5.1989" fill="none" id="path2183" stroke="#000000" stroke-miterlimit="10" stroke-width=".1" />
        <path d="m194.23 32.716s-0.78054-1.0571-0.19356-3.4049c0.58696-2.3479 0.12577-3.0606 0.12577-3.0606" fill="none" id="path2185" stroke="#000000" stroke-miterlimit="10" stroke-width=".1" />
        <path d="m200.42 22.081-24.615-0.13378-0.10034 3.4448 0.83753-0.13684c-1.1824-1.5608 0.33108-2.223 0.33108-2.223 2.6014-0.33108 5.3919 0.33108 5.3919 0.33108s4.1622-1.4189 6.2432 0c0 0 3.7838-1.0405 5.2027-1e-6 0 0 5.0135-0.75676 6.527 0.18919l0.18182-1.4714" fill="none" id="path2191" stroke="#000000" stroke-miterlimit="10" stroke-width=".1" />
        <path d="m180.87 38.504c2.3717-2.4903 1.1859-3.9726 1.1859-3.9726-0.88939-1.3637-3.0239 0.11858-3.0239 0.11858l-2.016 1.7195s-0.23717 1.2451 0.11859 1.8677c0 0 0.94868 2.8164 3.7354 0.26681" fill="none" id="path2195" stroke="#000000" stroke-miterlimit="10" stroke-width=".1" />
        <path d="m182.3 35.806s0.47435-2.3421 2.7275-2.0753c0 0 1.7788 0.11859 2.3717 0.68187 0 0 0.17788-0.85974 1.1266-0.97833 0 0 2.9226-0.27741 4.2184 0.66175 0 0 1.8591 3.2812-1.1352 4.4671 0 0-1.7491 0.26682-2.6385-0.53364 0 0-3.7947 3.35-6.6704-2.2235" fill="none" id="path2197" stroke="#000000" stroke-miterlimit="10" stroke-width=".1" />
        <path d="m187.4 34.413s3.7355 1.8381 1.5713 3.6169" fill="none" id="path2199" stroke="#000000" stroke-miterlimit="10" stroke-width=".1" />
        <path d="m180.67 44.582s-3.4686-1.8677 0.20752-6.0775c0 0 2.3717-1.3341 4.2098 0.26682 0 0 2.9054 4.1802-2.4607 6.2258 0 0 2.2828 1.8084-0.0593 3.7651 0.9171-0.0027 2.3741 0.56329 2.3741 0.56329h-4.5087s-4.1505-2.3421 0.23718-4.7434" fill="none" id="path2203" stroke="#000000" stroke-miterlimit="10" stroke-width=".1" />
        <path d="m180.67 44.582s0.7708 0.68187 1.9567 0.41505" fill="none" id="path2205" stroke="#000000" stroke-miterlimit="10" stroke-width=".1" />
        <path d="m195.08 36.103s-5.5762 1.8028-0.7966 5.8697c0 0 4.0778-0.1186 3.0699-4.0319 0 0-0.69249-1.8078-2.2733-1.8378" fill="none" id="path2209" stroke="#000000" stroke-miterlimit="10" stroke-width=".1" />
        <path d="m192.74 34.096s0.6136-1.2097 1.4883-1.3804c0 0 2.1792 0.48148 2.6239 0.3036 0 0 0.80046 0.35575 0.8894 0.7708 0 0-0.85975 1.6602-0.97834 1.7491-0.11858 0.08894-2.1345 1.2748-3.5279-0.26681l-0.49534-1.1763" fill="none" id="path2211" stroke="#000000" stroke-miterlimit="10" stroke-width=".1" />
        <path d="m200.25 32.294-2e-3 6.7439c0.3533 0.40614-2.5832-0.40868-3.4859-1.9286 0 0-0.57014-3.4674 3.4883-4.8153h3e-5" fill="none" id="path2213" stroke="#000000" stroke-miterlimit="10" stroke-width=".1" />
        <path d="m197.52 49.338c0.0252-0.17719 0.0421-0.36898 0.0495-0.57651 0 0 3.7354-0.91904 2.016-4.1505 0 0-0.85975-2.9943-4.1209-2.6089 0 0-4.0912 1.6898-0.23717 6.285 0 0-2.1344 0.08315-2.1293 1.0645l4.4219-0.01363" fill="none" id="path2215" stroke="#000000" stroke-miterlimit="10" stroke-width=".1" />
        <path d="m195.22 48.287s0.50399 0.56329 1.3341 0.11858c0.8301-0.44469 1.008 0.35576 1.008 0.35576" fill="none" id="path2217" stroke="#000000" stroke-miterlimit="10" stroke-width=".1" />
        <path d="m180.43 49.325s1.426-0.05333 2.1346-0.56329" fill="none" id="path2221" stroke="#000000" stroke-miterlimit="10" stroke-width=".1" />
    </g>
    <g id="eds16LaserMicrodissected-5dPostInfected">
        <path d="m200.1 59.227c-1.2989-0.81178-5.6013-0.16236-5.6013-0.16236-1.2177-0.89296-4.4648 1e-6 -4.4648 1e-6 -1.7859-1.2177-5.3578 0-5.3578 0s-2.3948-0.56825-4.6272-0.28412c0 0-1.2988 0.56825-0.28412 1.9077 0.64942-0.08117 1.4612 0.24353 1.4612 0.24353 0.52766-0.20295 2.4759-0.16236 2.4759-0.16236 0.48707-0.16236 1.2177-0.44648 1.2177-0.44648 0.60884 0.20295 0.97414 0.28412 0.97414 0.28412l2.963 0.16236c0.24353-0.32471 1.3394-0.48707 1.3394-0.48707 0.40589 0.40589 1.9483 0.32471 1.9483 0.32471l2.6383-0.12177c1.5018 0.3653 3.1254 0.32471 3.1254 0.32471l2.1106-0.20294 0.0812-1.38" fill="none" id="path2227" stroke="#000000" stroke-miterlimit="10" stroke-width=".1" />
        <path d="m184.68 59.064s0.69002 0.44648 0.24353 1.2583" fill="none" id="path2229" stroke="#000000" stroke-miterlimit="10" stroke-width=".1" />
        <path d="m190.04 59.064 0.16236 1.2177" fill="none" id="path2231" stroke="#000000" stroke-miterlimit="10" stroke-width=".1" />
        <path d="m194.5 59.064 0.28412 1.4206" fill="none" id="path2233" stroke="#000000" stroke-miterlimit="10" stroke-width=".1" />
        <path d="m191.55 60.643s-0.93994 0.04513-1.3458-0.36076c0 0-1.0959 0.16236-1.3394 0.48707l-2.963-0.16236s-0.3653-0.08118-0.97414-0.28412c0 0-0.7306 0.28412-1.2177 0.44648 0 0-1.9483-0.04059-2.4759 0.16236 0 0-0.81178-0.32471-1.4612-0.24353l-0.71874 0.11742 0.11481 6.6873s0.83232 1.0045 1.8942 0.28701c0 0 1.0906 1.6646 2.7266-0.0287 0 0 1.3489 0.40181 1.9516-0.1148 0.0324-0.13762 1.676 1.0497 3.3006-0.25831 0.0112-0.05592 1.2289 0.88728 2.9562-0.22961-0.0891-0.22264 0.20833 0.9665 1.679 1.1272 0.15561-0.50668 0.81771-1.0883 1.2772-1.1846 0 0 1.1193 0.88972 2.3822 0.31571 0 0 0.66012-0.28701 0.66012-0.66012 0 0 0.42399 0.39592 1.0841 0.48203 0.45633-0.15633 0.84943-0.14384 1.0397-0.49969 0 0 0.5301-2.8765-0.0937-6.122l-2.1106 0.20294s-0.7626 0.23438-2.2644-0.13092c0 0-0.75558 0.86352-0.75558 0.86352s-1.2593-1.727-2.9503-0.14392c0 0-0.39578-0.75558-0.39578-0.75558" fill="none" id="path2239" stroke="#000000" stroke-miterlimit="10" stroke-width=".1" />
        <path d="m197.91 60.809s0.65449 1.402 0.36749 3.6694l-0.28701 2.2674" fill="none" id="path2241" stroke="#000000" stroke-miterlimit="10" stroke-width=".1" />
        <path d="m188.86 60.769s0.17719 6.6087 0.17719 6.6087" fill="none" id="path2243" stroke="#000000" stroke-miterlimit="10" stroke-width=".1" />
        <path d="m185.74 67.636s0.1604-7.0294 0.1604-7.0294" fill="none" id="path2245" stroke="#000000" stroke-miterlimit="10" stroke-width=".1" />
        <path d="m183.71 60.769s0.39547 2.1601 0.0224 3.7673c-0.37311 1.6072 0.0574 3.2145 0.0574 3.2145" fill="none" id="path2247" stroke="#000000" stroke-miterlimit="10" stroke-width=".1" />
        <path d="m181.23 60.931s0.31703 1.6533 0.03 3.2606c-0.28701 1.6072-0.20091 3.5876-0.20091 3.5876" fill="none" id="path2249" stroke="#000000" stroke-miterlimit="10" stroke-width=".1" />
        <path d="m191.99 67.148s-0.34017-0.17297-0.0523-1.2883c0.32382-2.1228 0-4.4615 0-4.4615" fill="none" id="path2251" stroke="#000000" stroke-miterlimit="10" stroke-width=".1" />
        <path d="m194.95 67.091s-0.66982-0.90713-0.1661-2.922c0.50372-2.0149 0.10794-2.6265 0.10794-2.6265" fill="none" id="path2253" stroke="#000000" stroke-miterlimit="10" stroke-width=".1" />
        <path d="m200.26 57.964-21.124-0.1148-0.0861 2.9562 0.71873-0.11743c-1.0147-1.3394 0.28412-1.9077 0.28412-1.9077 2.2324-0.28412 4.6272 0.28412 4.6272 0.28412s3.5718-1.2177 5.3578 0c0 0 3.2471-0.89296 4.4648 0 0 0 4.3024-0.64942 5.6013 0.16236l0.15603-1.2627" fill="none" id="path2259" stroke="#000000" stroke-miterlimit="10" stroke-width=".1" />
        <path d="m183.49 72.058c2.0353-2.1371 1.0177-3.4092 1.0177-3.4092-0.76325-1.1703-2.595 0.10176-2.595 0.10176l-1.73 1.4756s-0.20353 1.0685 0.10177 1.6028c0 0 0.81413 2.4169 3.2056 0.22897" fill="none" id="path2263" stroke="#000000" stroke-miterlimit="10" stroke-width=".1" />
        <path d="m184.71 69.743s0.40707-2.0099 2.3406-1.7809c0 0 1.5265 0.10177 2.0353 0.58516 0 0 0.15265-0.7378 0.96678-0.83957 0 0 2.5081-0.23806 3.6201 0.56789 0 0 1.5954 2.8158-0.97421 3.8335 0 0-1.501 0.22898-2.2643-0.45795 0 0-3.2565 2.8749-5.7244-1.9081" fill="none" id="path2265" stroke="#000000" stroke-miterlimit="10" stroke-width=".1" />
        <path d="m189.09 68.547s3.2056 1.5774 1.3484 3.1039" fill="none" id="path2267" stroke="#000000" stroke-miterlimit="10" stroke-width=".1" />
        <path d="m183.31 77.273s-2.9767-1.6028 0.17809-5.2155c0 0 2.0353-1.1449 3.6127 0.22898 0 0 2.4933 3.5873-2.1116 5.3427 0 0 1.959 1.5519-0.0509 3.2311 0.78703-0.0023 2.0374 0.48339 2.0374 0.48339h-3.8692s-3.5618-2.0099 0.20353-4.0707" fill="none" id="path2271" stroke="#000000" stroke-miterlimit="10" stroke-width=".1" />
        <path d="m183.31 77.273s0.66148 0.58516 1.6792 0.35618" fill="none" id="path2273" stroke="#000000" stroke-miterlimit="10" stroke-width=".1" />
        <path d="m195.68 69.997s-4.7853 1.5471-0.68362 5.0372c0 0 3.4995-0.10178 2.6345-3.4601 0 0-0.59428-1.5514-1.9508-1.5771" fill="none" id="path2277" stroke="#000000" stroke-miterlimit="10" stroke-width=".1" />
        <path d="m193.67 68.275s0.52656-1.0381 1.2772-1.1846c0 0 1.8701 0.41319 2.2517 0.26054 0 0 0.68692 0.3053 0.76325 0.66148 0 0-0.73781 1.4247-0.83958 1.5011-0.10176 0.07633-1.8318 1.094-3.0276-0.22897l-0.42508-1.0095" fill="none" id="path2279" stroke="#000000" stroke-miterlimit="10" stroke-width=".1" />
        <path d="m200.12 66.729-2e-3 5.7874c0.3032 0.34854-2.2168-0.35071-2.9914-1.6551 0 0-0.48928-2.9756 2.9936-4.1323h2e-5" fill="none" id="path2281" stroke="#000000" stroke-miterlimit="10" stroke-width=".1" />
        <path d="m197.77 81.355c0.0216-0.15206 0.0361-0.31664 0.0425-0.49474 0 0 3.2056-0.78869 1.73-3.5618 0 0-0.73781-2.5696-3.5364-2.2389 0 0-3.5109 1.4502-0.20353 5.3936 0 0-1.8317 0.07135-1.8273 0.9135l3.7947-0.0117" fill="none" id="path2283" stroke="#000000" stroke-miterlimit="10" stroke-width=".1" />
        <path d="m195.8 80.454s0.43251 0.4834 1.1449 0.10176c0.71237-0.38162 0.86502 0.3053 0.86502 0.3053" fill="none" id="path2285" stroke="#000000" stroke-miterlimit="10" stroke-width=".1" />
        <path d="m183.11 81.344s1.2237-0.04577 1.8318-0.48339" fill="none" id="path2289" stroke="#000000" stroke-miterlimit="10" stroke-width=".1" />
    </g>
    <g id="g2297">
        <path d="m190.86 20.254s2.3151 1.2568 1.7198 3.8365c0 0-1.6536 1.1245-2.1167-0.79375 0 0 0.72761-1.5214 0.39688-3.0427" fill="#595959" id="path2295" stroke="#000000" stroke-miterlimit="10" stroke-width=".1" />
    </g>
    <g id="g2301">
        <path d="m192.4 56.965s1.5929 0.86474 1.1833 2.6397c0 0-1.1378 0.77372-1.4564-0.54615 0 0 0.50064-1.0468 0.27308-2.0936" fill="#595959" id="path2299" stroke="#000000" stroke-miterlimit="10" stroke-width=".1" />
    </g>
    <g id="ColWholeLeafAmplified-5dUninfected">
        <path d="m149.23 96.051c-0.0327-2.976 1.4062-5.5596 3.0741-7.947 0.42515 0.52326 0.65407 0.85029 0.94841 1.1446 3.0087 3.2049 3.7609 6.9658 2.0603 10.956-1.21 2.9106-1.7987 5.8866-1.5371 8.9935 0.0327 0.52325 0 1.0792 0 1.6025m-0.49055-0.29433c-0.0981-1.21-0.0981-2.3874-0.29433-3.6301-0.13082-0.883-0.42515-1.8314-0.78489-2.6817-0.45785-1.1446-1.21-2.2238-1.5371-3.3358-0.42515-1.5044-1.5371-3.1068-1.3736-4.8074m3.6955-1.0465c-0.13082 1.1446-0.32704 2.2238-0.39245 3.3358-0.0327 1.1773 0.0327 2.2892 0.13082 3.4666" fill="#ffffff" id="path2948" stroke="#000000" stroke-linecap="round" stroke-linejoin="round" stroke-miterlimit="10" stroke-width=".1" />
    </g>
    <g id="ColLeafScrape-5dPostInfected">
        <path d="m182.57 119.46c-0.73391-0.45869-3.165-0.0917-3.165-0.0917-0.68803-0.50456-2.5228 0-2.5228 0-1.0091-0.68804-3.0274 0-3.0274 0s-1.3531-0.32109-2.6145-0.16055c0 0-0.7339 0.32109-0.16054 1.0779 0.36695-0.0459 0.82564 0.13761 0.82564 0.13761 0.29815-0.11467 1.399-0.0917 1.399-0.0917 0.27522-0.0917 0.68804-0.25228 0.68804-0.25228 0.34401 0.11468 0.55043 0.16054 0.55043 0.16054s1.6742 0.0917 1.6742 0.0917c0.13761-0.18347 0.75684-0.27521 0.75684-0.27521 0.22934 0.22934 1.1008 0.18347 1.1008 0.18347s1.4907-0.0688 1.4907-0.0688c0.84858 0.20641 1.766 0.18348 1.766 0.18348l1.1926-0.11468 0.0459-0.77977" fill="none" id="path2728" stroke="#000000" stroke-miterlimit="10" stroke-width=".1" />
        <path d="m173.86 119.37s0.38989 0.25227 0.13761 0.71096" fill="none" id="path2730" stroke="#000000" stroke-miterlimit="10" stroke-width=".1" />
        <path d="m176.88 119.37 0.0917 0.68803" fill="none" id="path2732" stroke="#000000" stroke-miterlimit="10" stroke-width=".1" />
        <path d="m179.41 119.37 0.16054 0.8027" fill="none" id="path2734" stroke="#000000" stroke-miterlimit="10" stroke-width=".1" />
        <path d="m177.74 120.26s-0.53111 0.0255-0.76045-0.20384c0 0-0.61923 0.0917-0.75684 0.27521 0 0-1.6742-0.0917-1.6742-0.0917s-0.20642-0.0459-0.55043-0.16054c0 0-0.41282 0.16054-0.68804 0.25228 0 0-1.1008-0.0229-1.399 0.0917 0 0-0.45869-0.18347-0.82564-0.13761 0 0-0.40611 0.0663-0.40611 0.0663l0.0649 3.7786s0.47029 0.5676 1.0703 0.16217c0 0 0.61625 0.94059 1.5406-0.0162 0 0 0.76221 0.22704 1.1028-0.0649 0.0183-0.0778 0.94699 0.59312 1.865-0.14596 6e-3 -0.0316 0.69437 0.50135 1.6704-0.12973-0.0503-0.12581 0.11772 0.54611 0.94867 0.63692 0.0879-0.2863 0.46205-0.61494 0.7217-0.66936 0 0 0.63246 0.50273 1.346 0.17839 0 0 0.37299-0.16217 0.37299-0.37299 0 0 0.23957 0.22371 0.61257 0.27236 0.25784-0.0883 0.47996-0.0813 0.5875-0.28234 0 0 0.29952-1.6254-0.0529-3.4592l-1.1926 0.11468s-0.4309 0.13243-1.2795-0.074c0 0-0.42693 0.48792-0.42693 0.48792s-0.71154-0.97584-1.6671-0.0813l-0.22363-0.42693" fill="none" id="path2740" stroke="#000000" stroke-miterlimit="10" stroke-width=".1" />
        <path d="m181.33 120.36s0.36981 0.79218 0.20764 2.0733l-0.16217 1.2812" fill="none" id="path2742" stroke="#000000" stroke-miterlimit="10" stroke-width=".1" />
        <path d="m176.22 120.33 0.10012 3.7342" fill="none" id="path2744" stroke="#000000" stroke-miterlimit="10" stroke-width=".1" />
        <path d="m174.45 124.21 0.0906-3.9719" fill="none" id="path2746" stroke="#000000" stroke-miterlimit="10" stroke-width=".1" />
        <path d="m173.31 120.33s0.22346 1.2206 0.0126 2.1287c-0.21082 0.90816 0.0324 1.8163 0.0324 1.8163" fill="none" id="path2748" stroke="#000000" stroke-miterlimit="10" stroke-width=".1" />
        <path d="m171.91 120.42s0.17913 0.9342 0.017 1.8424c-0.16217 0.90816-0.11352 2.0271-0.11352 2.0271" fill="none" id="path2750" stroke="#000000" stroke-miterlimit="10" stroke-width=".1" />
        <path d="m177.99 123.94s-0.19221-0.0977-0.0296-0.72796c0.18297-1.1995 0-2.5209 0-2.5209" fill="none" id="path2752" stroke="#000000" stroke-miterlimit="10" stroke-width=".1" />
        <path d="m179.66 123.9s-0.37848-0.51256-0.0939-1.651c0.28462-1.1385 0.061-1.4841 0.061-1.4841" fill="none" id="path2754" stroke="#000000" stroke-miterlimit="10" stroke-width=".1" />
        <path d="m182.66 118.75-11.936-0.0649-0.0487 1.6704s0.40611-0.0664 0.40611-0.0664c-0.57336-0.75683 0.16054-1.0779 0.16054-1.0779 1.2614-0.16054 2.6145 0.16055 2.6145 0.16055s2.0182-0.68804 3.0274 0c0 0 1.8348-0.50456 2.5228 0 0 0 2.431-0.36696 3.165 0.0917l0.0882-0.7135" fill="none" id="path2760" stroke="#000000" stroke-miterlimit="10" stroke-width=".1" />
        <path d="m173.18 126.71c1.15-1.2076 0.57503-1.9263 0.57503-1.9263-0.43127-0.66128-1.4663 0.0575-1.4663 0.0575l-0.97754 0.83378s-0.115 0.60377 0.0575 0.90566c0 0 0.46002 1.3657 1.8113 0.12938" fill="none" id="path2764" stroke="#000000" stroke-miterlimit="10" stroke-width=".1" />
        <path d="m173.87 125.4s0.23001-1.1357 1.3226-1.0063c0 0 0.86253 0.0575 1.15 0.33063 0 0 0.0863-0.41689 0.54627-0.47439 0 0 1.4172-0.13451 2.0455 0.32089 0 0 0.90147 1.5911-0.55046 2.1661 0 0-0.84816 0.12938-1.2794-0.25876 0 0-1.8401 1.6244-3.2345-1.0782" fill="none" id="path2766" stroke="#000000" stroke-miterlimit="10" stroke-width=".1" />
        <path d="m176.35 124.73s1.8113 0.89128 0.76191 1.7538" fill="none" id="path2768" stroke="#000000" stroke-miterlimit="10" stroke-width=".1" />
        <path d="m173.08 129.66s-1.6819-0.90566 0.10063-2.947c0 0 1.15-0.6469 2.0413 0.12938 0 0 1.4088 2.027-1.1932 3.0189 0 0 1.1069 0.87691-0.0288 1.8257 0.4447-1e-3 1.1512 0.27314 1.1512 0.27314h-2.1862s-2.0126-1.1357 0.115-2.3001" fill="none" id="path2772" stroke="#000000" stroke-miterlimit="10" stroke-width=".1" />
        <path d="m173.08 129.66s0.37377 0.33064 0.94879 0.20126" fill="none" id="path2774" stroke="#000000" stroke-miterlimit="10" stroke-width=".1" />
        <path d="m180.08 125.55s-2.7039 0.87419-0.38627 2.8462c0 0 1.9774-0.0575 1.4886-1.9551 0 0-0.33579-0.8766-1.1023-0.89113" fill="none" id="path2778" stroke="#000000" stroke-miterlimit="10" stroke-width=".1" />
        <path d="m178.94 124.57s0.29754-0.58657 0.7217-0.66936c0 0 1.0567 0.23347 1.2723 0.14722 0 0 0.38814 0.1725 0.43127 0.37376 0 0-0.41689 0.80503-0.47439 0.84815-0.0575 0.0431-1.035 0.61816-1.7107-0.12937 0 0-0.2402-0.5704-0.2402-0.5704" fill="none" id="path2780" stroke="#000000" stroke-miterlimit="10" stroke-width=".1" />
        <path d="m182.58 123.7-1e-3 3.2701c0.17132 0.19694-1.2526-0.19816-1.6903-0.93518 0 0-0.27646-1.6813 1.6915-2.3349h2e-5" fill="none" id="path2782" stroke="#000000" stroke-miterlimit="10" stroke-width=".1" />
        <path d="m181.25 131.97c0.0122-0.0859 0.0204-0.17892 0.024-0.27955 0 0 1.8113-0.44564 0.97753-2.0126 0 0-0.41689-1.4519-1.9982-1.265 0 0-1.9838 0.8194-0.115 3.0476 0 0-1.035 0.0403-1.0325 0.51617l2.1442-7e-3" fill="none" id="path2784" stroke="#000000" stroke-miterlimit="10" stroke-width=".1" />
        <path d="m180.14 131.46s0.24438 0.27314 0.6469 0.0575c0.40251-0.21563 0.48877 0.17251 0.48877 0.17251" fill="none" id="path2786" stroke="#000000" stroke-miterlimit="10" stroke-width=".1" />
        <path d="m172.97 131.96s0.69146-0.0259 1.035-0.27314" fill="none" id="path2790" stroke="#000000" stroke-miterlimit="10" stroke-width=".1" />
        <path d="m182.44 118.75h7.9249v0.7411c-1.0978-0.14231-1.6874 0.14231-1.6874 0.14231-0.44726-0.63023-2.8869-0.22363-2.8869-0.22363-1.2198-0.32528-2.9915 0.0537-2.9915 0.0537h-0.2277l-0.28838-0.15318" fill="none" id="path2796" stroke="#000000" stroke-miterlimit="10" stroke-width=".1" />
        <path d="m182.54 119.9c0.34502 0.40252 1.6819 0.25876 1.6819 0.25876 1.0926 0.0719 1.3226-0.115 1.3226-0.115l0.33064 0.18688 1.7538 0.0431c0.71878 0.0431 0.81941-0.28752 0.81941-0.28752 3.3e-4 0.35257 0.48876 0.40252 0.48876 0.40252h1.265s-0.0667-0.89739-0.0667-0.89739-1.1788-0.0622-1.6874 0.14231c0 0 0.31971-0.60145-2.8869-0.22363 0 0-1.1362-0.47162-2.9915 0.0537 0 0-0.0296 0.43622-0.0296 0.43622" fill="none" id="path2798" stroke="#000000" stroke-miterlimit="10" stroke-width=".1" />
        <path d="m185.55 120.04s0.22019-0.37612 0.0167-0.6337" fill="none" id="path2800" stroke="#000000" stroke-miterlimit="10" stroke-width=".1" />
        <path d="m188.45 119.63s3.3e-4 0.35256 3.3e-4 0.35256" fill="none" id="path2802" stroke="#000000" stroke-miterlimit="10" stroke-width=".1" />
        <path d="m182.58 123.7s0.23268-2.67-0.0529-3.4592c0 0 0.0162-0.34355 0.0162-0.34355s0.35939 0.37377 1.6819 0.25876c0 0 0.89129 0.17251 1.3226-0.115l0.33064 0.18688s1.7394 0.0288 1.7394 0.0288l0.51752 0.0144s0.18688 0.28751 0.80503 0.115l0.31627 0.27314-0.0719 2.4726s0.0144 0.43127-0.21564 0.69003c0 0-1.035 0.66127-1.2938-0.14376 0 0-0.60378 0.83378-1.8544 0.11501l-0.31626 0.23-1.035 0.0431-0.25876-0.27313s-0.91851 0.71958-1.6309-0.093" fill="none" id="path2808" stroke="#000000" stroke-miterlimit="10" stroke-width=".1" />
        <path d="m184.23 120.16s0.5319 2.2282-0.0144 3.637" fill="none" id="path2810" stroke="#000000" stroke-miterlimit="10" stroke-width=".1" />
        <path d="m185.88 120.23s0.25876 2.0844-0.0575 3.5651" fill="none" id="path2812" stroke="#000000" stroke-miterlimit="10" stroke-width=".1" />
        <path d="m187.59 120.27s0.66128 1.9407 0.0863 3.407" fill="none" id="path2814" stroke="#000000" stroke-miterlimit="10" stroke-width=".1" />
        <path d="m192.64 119.25s1.2401-0.0813 1.3418 0.30495c0 0 2.6226-0.2033 2.9682 0.14231 0 0 2.3176-0.67089 2.7852 0.10165 0 0 1.3418-0.58957 3.0089 0.0407 0 0 1.0978-0.34561 1.9517-0.26429l0.0407-0.8742h-12.096v0.54892" fill="none" id="path2822" stroke="#000000" stroke-miterlimit="10" stroke-width=".1" />
        <path d="m204.69 119.57c-0.85386-0.0813-1.9517 0.26429-1.9517 0.26429-1.6671-0.63023-3.0088-0.0407-3.0088-0.0407-0.4676-0.77254-2.7852-0.10165-2.7852-0.10165-0.34561-0.34561-2.9682-0.14231-2.9682-0.14231-0.10165-0.38627-1.3418-0.30495-1.3418-0.30495v1.1791l0.65056-0.12198s0.4676-0.12198 0.71156-0.0813l0.6099 0.28462s1.5654-0.0203 1.5654-0.0203 0.65056 0.0203 0.73188-0.16264c0 0 0.58957 0.24394 0.91486 0.24394l1.4231 0.0204 0.46759-0.18298s0.30496 0.50826 1.1588 0.30496l1.6264 0.0203s0.28462-0.30495 0.28462-0.30495 0.24396 0.44726 1.3418 0.42693h0.6099l-0.0407-1.2808" fill="none" id="path2824" stroke="#000000" stroke-miterlimit="10" stroke-width=".1" />
        <path d="m193.98 119.55s0.0203 0.67089 0.0203 0.67089" fill="none" id="path2826" stroke="#000000" stroke-miterlimit="10" stroke-width=".1" />
        <path d="m196.95 119.69s-0.0407 0.63025-0.0407 0.63025" fill="none" id="path2828" stroke="#000000" stroke-miterlimit="10" stroke-width=".1" />
        <path d="m199.73 119.79s0.2042 0.22104-0.0203 0.60992" fill="none" id="path2830" stroke="#000000" stroke-miterlimit="10" stroke-width=".1" />
        <path d="m202.74 119.83s0.0407 0.58958 0.0407 0.58958" fill="none" id="path2832" stroke="#000000" stroke-miterlimit="10" stroke-width=".1" />
        <path d="m204.74 120.85h-0.6099c-1.0978 0.0203-1.3418-0.42693-1.3418-0.42693s-0.28462 0.30495-0.28462 0.30495l-1.6264-0.0203c-0.85386 0.2033-1.1588-0.30496-1.1588-0.30496l-0.46759 0.18298-1.4231-0.0204c-0.32529 0-0.91486-0.24394-0.91486-0.24394-0.0813 0.18295-0.73188 0.16264-0.73188 0.16264s-1.5654 0.0203-1.5654 0.0203l-0.6099-0.28462c-0.24396-0.0407-0.71156 0.0813-0.71156 0.0813l-0.061 0.52858-0.0813 3.2935s0.32529 0.46759 0.71156 0.34561l0.6099-0.32528s0.65056 0.67089 1.6264 0.0407c0 0 0.44726 0.71155 1.4434 0.18297 0 0-0.10165 0.30495 0.24397 0.34561l1.1385 0.0204s0.26429-0.0813 0.26429-0.0813 0.38627 0.24396 0.79288 0.28463l0.67089-0.28465 0.58957 0.2033s1.0572 0.0813 1.0978-0.28462c0 0 0.3761 0.68106 1.5654 0.061 0 0 0.47776 0.31512 0.8437 0.2033l-0.0102-3.9847" fill="none" id="path2838" stroke="#000000" stroke-miterlimit="10" stroke-width=".1" />
        <path d="m194.61 120.51s0.2033 0.60991 0.0813 1.85c-0.48792 1.3011-0.22363 1.789-0.22363 1.789" fill="none" id="path2840" stroke="#000000" stroke-miterlimit="10" stroke-width=".1" />
        <path d="m196.26 120.55-0.16264 3.6391" fill="none" id="path2842" stroke="#000000" stroke-miterlimit="10" stroke-width=".1" />
        <path d="m197.82 120.53s-0.28463 3.8424-0.28463 3.8424" fill="none" id="path2844" stroke="#000000" stroke-miterlimit="10" stroke-width=".1" />
        <path d="m199.25 120.59-0.061 4.066" fill="none" id="path2846" stroke="#000000" stroke-miterlimit="10" stroke-width=".1" />
        <path d="m200.87 120.71s0.2033 1.5654-0.22363 3.944" fill="none" id="path2848" stroke="#000000" stroke-miterlimit="10" stroke-width=".1" />
        <path d="m202.5 120.73s0.26429 1.3824-0.0407 1.9314c-0.30495 0.54892-0.12198 1.911-0.12198 1.911" fill="none" id="path2850" stroke="#000000" stroke-miterlimit="10" stroke-width=".1" />
        <path d="m204.15 120.87s0.10166 0.58958-0.061 1.1792c-0.16264 0.58957-0.18297 2.5819-0.18297 2.5819" fill="none" id="path2852" stroke="#000000" stroke-miterlimit="10" stroke-width=".1" />
        <path d="m200.03 136.17h0.5152l0.18297 0.27446s0.19314-0.18297 0.56924-0.18297l0.85387 0.0305 0.0813 0.10166s0.1728-0.0712 0.1728-0.0712h1.2096l0.14231 0.16264 0.2033-0.24396h1.352s0.42693 0.31511 0.18297 0.75221h-1.7281s-0.69122 0.34563-1.4638 0c0 0-0.86403 0.3456-1.5044-0.0915 0 0-0.13098 0.17468-0.46162 0.21781h-0.28289s-0.0248-0.94969-0.0248-0.94969m-1.9348 0.94969h-0.27325l-0.30188-0.17251-0.27314 0.18688h-1.1932s-0.15813-0.18688-0.15813-0.18688l-0.21563 0.20126h-2.0988l-0.27314-0.20126-0.18688 0.20126h-1.6963l-0.21563-0.24438-0.23001 0.15813h-2.1132s-0.21564-0.23001-0.21564-0.23001l-0.31626 0.31626h-2.4151l-0.31626-0.27314-0.35939 0.25876h-0.65016v-1.0047h0.5621s0.32528 0.0305 0.32528 0.2338c0 0 0.24396-0.34561 0.50825-0.28462h2.155s0.44726 0.14231 0.44726 0.34561c0 0 0.2033-0.26429 0.48793-0.26429h1.6671s0.38627 0.0813 0.44727 0.22363l0.2033-0.10165h1.6264l0.26429 0.18297 0.28463-0.18297h1.9924s0.28462 0.12198 0.30495 0.22363c0 0 0.21346-0.34561 0.51841-0.34561h0.77255l0.33544 0.26429s0.22364-0.25413 0.22364-0.25413h0.36765l8e-3 0.94969m-15.54 0.0431h-2.3145s-0.24439-0.27314-0.24439-0.27314l-0.18688 0.18688h-2.0844s-0.21564-0.28751-0.21564-0.28751-0.15813 0.21564-0.15813 0.21564h-1.8688l-0.27313-0.30189-0.20126 0.15813h-2.487l-0.27314-0.21563-0.37376 0.31626-1.1735-0.13083s0.0203-0.77254 0.0203-0.77254l1.0978-0.0407s0.26429-0.0813 0.38627 0.2643c0 0 0.14231-0.26429 0.4066-0.22363h2.2973l0.28592 0.31397 0.12938-0.17251s1.7394-0.0431 1.7394-0.0431l0.46002 0.23001 0.29244-0.19621h1.9415s0.26429 0.061 0.23379 0.2338c0 0-0.0407-0.22363 0.22363-0.22363h2.277s0.0631 0.96232 0.0631 0.96232" fill="none" id="path2864" stroke="#000000" stroke-miterlimit="10" stroke-width=".1" />
        <path d="m172.21 136.28 0.0428 0.36348" fill="none" id="path2866" stroke="#000000" stroke-miterlimit="10" stroke-width=".1" />
        <path d="m175.2 136.37 0.0144 0.33064" fill="none" id="path2868" stroke="#000000" stroke-miterlimit="10" stroke-width=".1" />
        <path d="m177.53 136.39-0.0144 0.40252" fill="none" id="path2870" stroke="#000000" stroke-miterlimit="10" stroke-width=".1" />
        <path d="m179.99 136.42 5e-3 0.46555" fill="none" id="path2872" stroke="#000000" stroke-miterlimit="10" stroke-width=".1" />
        <path d="m185.48 136.36 0.12217 0.51216" fill="none" id="path2874" stroke="#000000" stroke-miterlimit="10" stroke-width=".1" />
        <path d="m188.59 136.42 0.0593 0.40805" fill="none" id="path2876" stroke="#000000" stroke-miterlimit="10" stroke-width=".1" />
        <path d="m191.2 136.38s0.0159 0.52059 0.0159 0.52059" fill="none" id="path2878" stroke="#000000" stroke-miterlimit="10" stroke-width=".1" />
        <path d="m193.29 136.46s0.0207 0.48239 0.0207 0.48239" fill="none" id="path2880" stroke="#000000" stroke-miterlimit="10" stroke-width=".1" />
        <path d="m195.87 136.51 0.0264 0.44173" fill="none" id="path2882" stroke="#000000" stroke-miterlimit="10" stroke-width=".1" />
        <path d="m197.5 136.42s0.0244 0.52305 0.0244 0.52305" fill="none" id="path2884" stroke="#000000" stroke-miterlimit="10" stroke-width=".1" />
        <path d="m200.73 136.44 0.0711 0.45742" fill="none" id="path2886" stroke="#000000" stroke-miterlimit="10" stroke-width=".1" />
        <path d="m202.23 136.39 0.0711 0.59973" fill="none" id="path2888" stroke="#000000" stroke-miterlimit="10" stroke-width=".1" />
        <path d="m203.76 136.48 0.0102 0.50825" fill="none" id="path2890" stroke="#000000" stroke-miterlimit="10" stroke-width=".1" />
        <path d="m182.56 137.16h-2.3145s-0.24438-0.27313-0.24438-0.27313l-0.18688 0.18688h-2.0845s-0.21563-0.28751-0.21563-0.28751l-0.15813 0.21563h-1.8688s-0.27314-0.30189-0.27314-0.30189l-0.20126 0.15814h-2.487l-0.27314-0.21564-0.37376 0.31627-1.1735-0.13083v1.1227h11.842l0.0125-0.79066m17.5 0.79066h5.415l0.0258-0.96009h-1.7281s-0.69123 0.34562-1.4638 0c0 0-0.86403 0.3456-1.5044-0.0915 0 0-0.13098 0.17468-0.46162 0.21781h-0.29943l0.0165 0.83378m-1.943-0.83378h-0.28978l-0.30189-0.17251-0.27313 0.18688h-1.1932s-0.15813-0.18688-0.15813-0.18688l-0.21564 0.20126h-2.0988l-0.27313-0.20126-0.18688 0.20126h-1.6963l-0.21563-0.24438-0.23001 0.15812h-2.1132s-0.21563-0.23001-0.21563-0.23001-0.31626 0.31627-0.31626 0.31627h-2.4151l-0.31626-0.27314-0.35939 0.25876h-0.65017v0.81941h13.519v-0.83378" fill="none" id="path2862" stroke="#000000" stroke-miterlimit="10" stroke-width=".1" />
        <path d="m179.46 131.6c-0.29987 0.0457-0.35026 0.37616-0.35026 0.37616 1e-3 0.22009 0.22425 0.53335 0.87438 0.97889 0 0 1.0866 0.30323 1.2698-0.9855 0 0 0.024-0.27955 0.024-0.27955" fill="none" id="path2954" stroke="#000000" stroke-miterlimit="10" stroke-width=".1" />
        <path d="m174.84 134.6s1.38-0.48877 1.912 0.71877c0 0 1.0782-0.7619 1.9551-0.27313 0 0 0.33064 0.99191-0.44564 1.1357 0 0-0.50314 0-0.73315 0.20125 0 0-0.0719-0.23001-0.46002-0.23001 0 0-0.27313-0.25875-0.31626-0.38813 0 0-0.25876 0.41689-1.4232 0.43126l-0.12938 0.17251-0.25876-0.30189-0.46002-0.0287s-0.8194-1.0207 0.35939-1.4376" fill="none" id="path2956" stroke="#000000" stroke-miterlimit="10" stroke-width=".1" />
        <path d="m176.75 135.32s0.21563 0.13657 0 0.44565" fill="none" id="path2958" stroke="#000000" stroke-miterlimit="10" stroke-width=".1" />
        <path d="m174.91 131.86c-0.034 0.0789 1.1999 0.2053 1.4232 1.5396 0 0 1.2794-0.44564 1.8688 0.21564 0 0 0.6469-0.77628 1.7826-0.66128 0 0 1.4232 0.74753 0.0431 1.8401 0 0-1.265 0.79066-1.7107-0.41689 0 0-0.0863 0.6469-1.1932 0.53189 0 0-0.74753 0.28751-1.1069-0.71878 0 0-2.9757 0.96317-3.5795-0.8769 0 0-0.0144-1.2219 0.5319-1.3513" fill="none" id="path2962" stroke="#000000" stroke-miterlimit="10" stroke-width=".1" />
        <path d="m176.33 133.4s0.1725 0.7619-0.31626 0.79065" fill="none" id="path2964" stroke="#000000" stroke-miterlimit="10" stroke-width=".1" />
        <path d="m178.2 133.61 0.115 0.7619" fill="none" id="path2966" stroke="#000000" stroke-miterlimit="10" stroke-width=".1" />
        <path d="m181.99 123.98 0.5875-0.28234c-0.071-0.025 3.0426 1.6249-1e-3 3.2701l-0.67377-0.14231" fill="none" id="path2970" stroke="#000000" stroke-miterlimit="10" stroke-width=".1" />
        <path d="m183.73 126.08s2.1936-2.1348 2.5606 0.89444c0 0-0.73087 1.8908-2.3166 1.3012 0 0-1.1791-0.75221-0.24396-2.1956" fill="none" id="path2972" stroke="#000000" stroke-miterlimit="10" stroke-width=".1" />
        <path d="m193.7 125c-1.3513-1.4807-2.5732 0.21564-2.5732 0.21564-1.2794-2.602-2.6738 0.0144-2.6738 0.0144-0.50315 3.6514 2.0557 1.3513 2.0557 1.3513-0.17251 1.5526 1.2794 1.4088 1.2794 1.4088-0.8194 0.8194-0.0288 1.7251-0.0288 1.7251-0.99191 0.81941-0.14375 1.2507-0.14375 1.2507-1.1213 0.34501-1.1644 1.4376-1.1644 1.4376-0.50315 0.0719-0.86254 0.73315-0.86254 0.73315-0.99191-0.31626-1.7969 0.0719-1.7969 0.0719 0.0719-0.48877-0.57502-0.43127-0.57502-0.43127-0.40252 0.0862-0.4744-0.24438-0.4744-0.24438 0.0719-0.30189-0.53189-0.69003-0.53189-0.69003 1.035-0.84816-0.18688-1.4951-0.18688-1.4951s0.23001-0.24438 0.23001-0.24438-0.0863-0.28751 0.31626-0.73315c0.40251-0.44565 0.20126-0.76191 0.20126-0.76191 2.1563-1.1644 0.94878-2.0844 0.94878-2.0844 0.94879-1.0782 0.74753-1.6244 0.74753-1.6244-0.37376-1.8401-2.4438-0.31626-2.4438-0.31626 0.0431-0.27314-0.51752-0.56065-0.51752-0.56065l-1.035 0.0431c-0.5319-0.0431-0.73315 0.74753-0.73315 0.74753s0.84815 1.15 2.142 0.28751c0 0-0.25876 1.0638 0.93441 1.2363 0 0 0.23001 0.33064 0.23001 0.33064l-0.74753 0.30188s-0.12938 0.4744-0.40251 0.77628c0 0 0.0288 0.48877 0.0288 0.48877s-1.2938-0.46002-1.035 1.3226c0 0 0.17251 0.80503 0.48877 0.93441 0 0-1.4519 1.0782-0.80503 1.7107 0 0 0.54627 0.40252 1.1069 0.20126 0 0-0.27313 2.487 1.6963 1.2507 0 0 1.0494 1.5526 2.1276 1.0638 0 0 0.50314-0.23001 0.73315-0.80503 0 0 0.50315-0.28751 0.80503-0.31626 0.51752-0.21563 0.35939-0.61815 0.35939-0.61815s0.61815-0.20126 0.94879-0.74753c0 0 0.18688-0.24438 0-0.60377s-0.21563-0.66127-0.21563-0.66127 0.74752-0.24439 0.44564-0.97754c0 0 0.73315-0.40252 0.50314-1.3657 0 0 0.12938-0.31626-0.20126-0.21563-0.33063 0.10062-0.38814-0.63253-0.38814-0.63253s-0.35938-0.0863-0.35938-0.0863l-0.0719-0.30189s-0.38814-0.79065-0.38814-0.79065 0.38814 0.0287 0.67565-0.14376c0.28751-0.17251 0.80503 0 0.80503 0l0.53189-0.40252 0.0144-1.0494" fill="none" id="path2974" stroke="#000000" stroke-miterlimit="10" stroke-width=".1" />
        <path d="m191.67 126.6-0.74019-0.41903s0.19392-0.96102 0.19392-0.96102" fill="none" id="path2976" stroke="#000000" stroke-miterlimit="10" stroke-width=".1" />
        <path d="m190.93 126.18-0.42423 0.40465" fill="none" id="path2978" stroke="#000000" stroke-miterlimit="10" stroke-width=".1" />
        <path d="m191.76 129.72s0.51356-0.0422 0.81941 0.27314" fill="none" id="path2980" stroke="#000000" stroke-miterlimit="10" stroke-width=".1" />
        <path d="m191.79 127.99 0.34502-0.30189" fill="none" id="path2982" stroke="#000000" stroke-miterlimit="10" stroke-width=".1" />
        <path d="m191.61 130.97h0.51752" fill="none" id="path2984" stroke="#000000" stroke-miterlimit="10" stroke-width=".1" />
        <path d="m191.4 132.98s-0.35303-0.60994-0.94878-0.57502" fill="none" id="path2986" stroke="#000000" stroke-miterlimit="10" stroke-width=".1" />
        <path d="m189.59 133.14s0.0918 0.66505 0.6469 0.77628" fill="none" id="path2988" stroke="#000000" stroke-miterlimit="10" stroke-width=".1" />
        <path d="m187.79 133.21-0.41689 0.44564" fill="none" id="path2990" stroke="#000000" stroke-miterlimit="10" stroke-width=".1" />
        <path d="m185.68 132.4 0.5319-0.56065" fill="none" id="path2992" stroke="#000000" stroke-miterlimit="10" stroke-width=".1" />
        <path d="m185.38 130.49 0.6469-0.14376" fill="none" id="path2994" stroke="#000000" stroke-miterlimit="10" stroke-width=".1" />
        <path d="m185.92 128.24s0.18305 0.48774 0.84816 0.37376" fill="none" id="path2996" stroke="#000000" stroke-miterlimit="10" stroke-width=".1" />
        <path d="m187.04 126.67s0.57307 0.42702 0.67565-0.14376" fill="none" id="path2998" stroke="#000000" stroke-miterlimit="10" stroke-width=".1" />
        <path d="m186.02 124.58-0.14376 0.51752" fill="none" id="path3000" stroke="#000000" stroke-miterlimit="10" stroke-width=".1" />
        <path d="m188.41 135.1s-0.0407-1.5858-1.8297-0.38627c0 0-0.67089 1.0775 0.24396 1.3824 0 0 1.1236 1.8e-4 1.3536-0.45983 0 0-0.0322 0.43951-0.0322 0.43951l0.44726 0.34561s0.20304-0.35386 0.9937-0.25323c0 0 0.46001-0.18688 0.54626-0.51752l0.61503 0.50646s0.23013-0.0238 0.44727 0.22363c0 0 0.24588-0.14069 0.63402-0.11194 0 0 1.6963-0.63252 0.35939-2.0413 0 0 1.2219-0.21563 1.3369-0.79065 0 0 1.1213 0.5894 1.3944-0.6469 0 0 1.2507 0.14375 1.5382-0.70441 0 0 0.7619 1.15 1.5957 0.17251 0 0 0.5319-0.35939 0.30189-1.0638 0 0 0.99191 0.0288 1.1788-0.44564 0 0 0.62626-0.56853 0.44329-1.0564 0 0 0.87419 0.38627 1.6061-0.16264 0 0-0.0813 1.2808 1.3418 1.3621 0 0-1.4231 1.4638 0.22363 2.4193 0 0-0.92502 0.28461-0.83353 1.6467 0 0-0.83354-0.18297-1.0368 1.2401 0 0 0.8742 0.0915 0.8742 0.0915s0.79287-0.51843 0.5794-0.9047l0.52859 0.14231s-0.66073 0.81319 0.0203 0.76238l0.33544 0.0305 0.14231 0.16264 0.2033-0.24396s0.97585-0.37612 0.13215-0.92503c0 0 2.0228-1.1893 0.12198-2.3278 0 0 1.7281-2.1855-0.68106-2.3176 0 0 0.60991-0.52858 0.10165-1.2198 0 0 2.6531-1.0775 0.55908-2.958 0 0 1.0978-0.66073 0.18297-1.5756l-0.47776-0.28462s-0.47775 0.30495-0.88435 0.27446c0 0-0.55003 0.32398-0.49252 0.85588 0 0-2.0988-2.1563-3.2201-0.21564 0 0-0.47439 1.9838 1.4951 2.2282 0 0 2.0557-0.14375 1.9263-1.5669l0.57503 0.43126s-1.4232 0.50315-1.3369 1.3513c0 0-0.21563 0.58939 0.28751 0.89128l-0.40251 0.17251s0.0575-1.8257-2.2713-1.0638c0 0 0.31626-1.2219-0.92004-1.2794 0 0 1.3311-0.97915 0.26303-1.9774l-1.1385-0.0204-0.67711 0.47399s-0.50314-0.60377-0.50314-0.60377l-0.50715-0.3988s-0.71235 0.62679-1.6264-0.0407c0 0-1.1872 0.61197-0.61217 2.3802 0 0-0.28235-0.0422-0.63813 0.1611 0 0-0.41677-0.6404-0.66073-0.0407 0 0-0.49808 0.74209-0.49808 0.74209l0.0719 0.30189s0.35938 0.0863 0.35938 0.0863 0.0973 0.70964 0.37177 0.63849c0 0 0.27262-0.11941 0.21763 0.20967 0 0 1.6731-0.16901 1.1953-1.7751 0 0 1.8297 0.62007 2.7242-0.8437 0 0 0.18297 0.77255 1.0877 0.82337 0 0-1.3113 1.4333 0.45742 2.4599 0 0-0.64882 0.57178-0.70632 1.4487 0 0-0.71878-0.20126-1.3657 0.57502 0 0 0-1.4519-1.2075-0.43127 0 0-0.87691 0.73315-0.79066 1.1213 0 0-0.99191-0.33064-1.2219 0.69003 0 0-0.21563-0.74753-1.2219-0.14376 0 0-0.6469 0.56065-0.4744 1.1788 0 0-1.6963-0.44564-1.6532 1.2794 0 0-0.59951-0.45452-1.4929 0.0962" fill="none" id="path3006" stroke="#000000" stroke-miterlimit="10" stroke-width=".1" />
        <path d="m203.64 129.45s-0.3115-0.62856-1.3857-0.56841" fill="none" id="path3008" stroke="#000000" stroke-miterlimit="10" stroke-width=".1" />
        <path d="m202.93 130.89s0.34561 0.16264 0.6099-0.22363" fill="none" id="path3010" stroke="#000000" stroke-miterlimit="10" stroke-width=".1" />
        <path d="m203.15 133.31s0.65056-0.30495 1.0673-0.32528" fill="none" id="path3012" stroke="#000000" stroke-miterlimit="10" stroke-width=".1" />
        <path d="m202.32 134.96s0.41676 0.42693 0.41676 0.42693" fill="none" id="path3014" stroke="#000000" stroke-miterlimit="10" stroke-width=".1" />
        <path d="m203.26 135.53s0.33544-0.2033 0.83353-0.21346" fill="none" id="path3016" stroke="#000000" stroke-miterlimit="10" stroke-width=".1" />
        <path d="m201.85 129.05s-0.26511 0.47722-0.26511 0.47722" fill="none" id="path3018" stroke="#000000" stroke-miterlimit="10" stroke-width=".1" />
        <path d="m199.58 127.99s-0.98229 0.9311 0.40016 1.7036" fill="none" id="path3020" stroke="#000000" stroke-miterlimit="10" stroke-width=".1" />
        <path d="m198.54 129.29s0.57941-0.14231 0.62007-0.52858" fill="none" id="path3022" stroke="#000000" stroke-miterlimit="10" stroke-width=".1" />
        <path d="m198.09 126.83 0.5705-0.11653" fill="none" id="path3024" stroke="#000000" stroke-miterlimit="10" stroke-width=".1" />
        <path d="m197.11 125.19-0.1056 0.81697" fill="none" id="path3026" stroke="#000000" stroke-miterlimit="10" stroke-width=".1" />
        <path d="m197.84 130.74 0.51752 0.46001" fill="none" id="path3028" stroke="#000000" stroke-miterlimit="10" stroke-width=".1" />
        <path d="m196.47 131.31-0.0144 0.77627" fill="none" id="path3030" stroke="#000000" stroke-miterlimit="10" stroke-width=".1" />
        <path d="m194.47 132s0.53132 0.20869 0.44564 0.79066" fill="none" id="path3032" stroke="#000000" stroke-miterlimit="10" stroke-width=".1" />
        <path d="m193.25 132.69s-0.0598 0.48718 0.27313 0.74753" fill="none" id="path3034" stroke="#000000" stroke-miterlimit="10" stroke-width=".1" />
        <path d="m191.56 133.73 0.63253 0.50314" fill="none" id="path3036" stroke="#000000" stroke-miterlimit="10" stroke-width=".1" />
        <path d="m189.9 135.01 0.23 0.6469" fill="none" id="path3038" stroke="#000000" stroke-miterlimit="10" stroke-width=".1" />
        <path d="m188.41 135.1s-0.23214 0.53634-0.23214 0.53634" fill="none" id="path3040" stroke="#000000" stroke-miterlimit="10" stroke-width=".1" />
        <path d="m203.3 126.64 0.89538-0.14703" fill="none" id="path3042" stroke="#000000" stroke-miterlimit="10" stroke-width=".1" />
        <path d="m193.86 126.52 0.41903 0.32374" fill="none" id="path3044" stroke="#000000" stroke-miterlimit="10" stroke-width=".1" />
        <path d="m202.53 125.76 0.20125 0.44564" fill="none" id="path3046" stroke="#000000" stroke-miterlimit="10" stroke-width=".1" />
    </g>
    <g id="ColWholeLeafAmplified-5dPostInfected">
        <path d="m185.9 96.051c-0.0327-2.976 1.4062-5.5596 3.0741-7.947 0.42515 0.52326 0.65407 0.85029 0.94841 1.1446 3.0087 3.2049 3.7609 6.9658 2.0603 10.956-1.21 2.9106-1.7987 5.8866-1.5371 8.9935 0.0327 0.52325 0 1.0792 0 1.6025m-0.49055-0.29433c-0.0981-1.21-0.0981-2.3874-0.29433-3.6301-0.13082-0.883-0.42515-1.8314-0.78489-2.6817-0.45785-1.1446-1.21-2.2238-1.5371-3.3358-0.42515-1.5044-1.5371-3.1068-1.3736-4.8074m3.6955-1.0465c-0.13082 1.1446-0.32704 2.2238-0.39245 3.3358-0.0327 1.1773 0.0327 2.2892 0.13082 3.4666" fill="#ffffff" id="path3664" stroke="#000000" stroke-linecap="round" stroke-linejoin="round" stroke-miterlimit="10" stroke-width=".1" />
    </g>
    <g id="g2840">
        <path d="m47.789 147.95c-4.3022 0-7.7963-3.4752-7.8197-7.7773s3.4328-7.8151 7.7347-7.8618l0.08499 7.8193 2e-6 7.8198" fill="#000000" fill-rule="evenodd" id="path2199-1" stroke="#000000" stroke-miterlimit="10" stroke-width="0" />
        <path d="m47.789 132.31c4.3187 0 7.8198 3.501 7.8198 7.8198-1e-6 4.3188-3.501 7.8198-7.8198 7.8198l-2e-6 -7.8198 2e-6 -7.8198" fill="#fff594" fill-rule="evenodd" id="circle2201" stroke="#000000" stroke-miterlimit="10" stroke-width="0" />
        <path d="m53.349 140.13c-1e-6 1.4744-0.58572 2.8885-1.6283 3.9311-1.0426 1.0426-2.4567 1.6283-3.9311 1.6283-3.0704 0-5.5594-2.489-5.5594-5.5594 0-3.0704 2.489-5.5594 5.5594-5.5594 1.4744 0 2.8885 0.58572 3.9311 1.6283 1.0426 1.0426 1.6283 2.4566 1.6283 3.9311" fill="#ffffff" fill-rule="evenodd" id="circle2203" stroke="#000000" stroke-miterlimit="10" stroke-width="0" />
    </g>
    <g id="outlines">
        <path d="m99.308 82.831-53.199-36.523s-25.841 36.493-25.841 36.493" fill="none" id="path3980" stroke="#000000" stroke-miterlimit="10" stroke-width=".1" />
    </g>
    <g id="g382">
        <path d="m48.006 82.951-27.739-0.15075-0.11307 3.8819 0.94381-0.1542c-1.3325-1.7589 0.3731-2.5051 0.3731-2.5051 2.9315-0.3731 6.0761 0.3731 6.0761 0.3731s4.6904-1.599 7.0355 0c0 0 4.264-1.1726 5.863-1e-6 0 0 5.6497-0.85279 7.3553 0.2132l0.2049-1.6582" fill="#99cc66" id="path125" stroke="#000000" stroke-miterlimit="10" stroke-width=".1" />
    </g>
    <g id="g56">
        <path d="m47.801 84.61c-1.7056-1.066-7.3553-0.2132-7.3553-0.2132-1.599-1.1726-5.863 1e-6 -5.863 1e-6 -2.3452-1.599-7.0355 0-7.0355 0s-3.1447-0.74619-6.0761-0.3731c0 0-1.7056 0.74619-0.3731 2.5051 0.85279-0.10659 1.9188 0.3198 1.9188 0.3198 0.6929-0.2665 3.2513-0.2132 3.2513-0.2132 0.6396-0.2132 1.599-0.5863 1.599-0.5863 0.79949 0.2665 1.2792 0.3731 1.2792 0.3731l3.8909 0.2132c0.31979-0.4264 1.7589-0.6396 1.7589-0.6396 0.533 0.53299 2.5584 0.4264 2.5584 0.4264l3.4645-0.1599c1.9721 0.4797 4.1041 0.4264 4.1041 0.4264l2.7716-0.2665s0.10661-1.8122 0.10661-1.8122" fill="#99cc66" id="path32" stroke="#000000" stroke-miterlimit="10" stroke-width=".1" />
    </g>
    <g id="g49">
        <path d="m27.547 84.396s0.9061 0.58629 0.3198 1.6523" fill="#99cc66" id="path40" stroke="#000000" stroke-miterlimit="10" stroke-width=".1" />
        <path d="m34.583 84.396 0.2132 1.599" fill="#99cc66" id="path42" stroke="#000000" stroke-miterlimit="10" stroke-width=".1" />
        <path d="m40.446 84.396 0.3731 1.8655" fill="#99cc66" id="path44" stroke="#000000" stroke-miterlimit="10" stroke-width=".1" />
    </g>
    <g id="g90">
        <path d="m36.564 86.469s-1.2343 0.05926-1.7673-0.47373c0 0-1.4391 0.2132-1.7589 0.6396l-3.8909-0.2132s-0.4797-0.1066-1.2792-0.3731c0 0-0.95939 0.3731-1.599 0.5863 0 0-2.5584-0.0533-3.2513 0.2132 0 0-1.066-0.4264-1.9188-0.3198l-0.94381 0.1542 0.15075 8.7814s1.093 1.3191 2.4874 0.37688c0 0 1.4322 2.1859 3.5804-0.0377 0 0 1.7714 0.52764 2.5628-0.15075 0.042529-0.18072 2.2008 1.3784 4.3342-0.33919 0.014665-0.0734 1.6137 1.1651 3.8819-0.30151-0.11695-0.29237 0.27357 1.2692 2.2047 1.4802 0.20434-0.66534 1.0738-1.4291 1.6772-1.5556 0 0 1.4699 1.1683 3.1281 0.41457 0 0 0.86684-0.37688 0.86684-0.86683 0 0 0.55676 0.51991 1.4236 0.63297 0.59924-0.20528 1.1154-0.18887 1.3653-0.65616 0 0 0.6961-3.7773-0.12305-8.0391l-2.7716 0.2665s-1.0014 0.30778-2.9735-0.17192l-0.99219 1.1339s-1.6536-2.2679-3.8742-0.18899c0 0-0.51972-0.99219-0.51972-0.99219" fill="#99cc66" id="path36" stroke="#000000" stroke-miterlimit="10" stroke-width=".1" />
    </g>
    <g id="g79">
        <path d="m44.923 86.688s0.85945 1.841 0.48257 4.8184l-0.37689 2.9774" fill="#99cc66" id="path58" stroke="#000000" stroke-miterlimit="10" stroke-width=".1" />
        <path d="m33.037 86.635s0.23268 8.6783 0.23268 8.6783" fill="#99cc66" id="path64" stroke="#000000" stroke-miterlimit="10" stroke-width=".1" />
        <path d="m28.936 95.652 0.21063-9.2307" fill="#99cc66" id="path66" stroke="#000000" stroke-miterlimit="10" stroke-width=".1" />
        <path d="m26.268 86.635s0.51931 2.8365 0.02938 4.9471c-0.48995 2.1106 0.07538 4.2211 0.07538 4.2211" fill="#99cc66" id="path68" stroke="#000000" stroke-miterlimit="10" stroke-width=".1" />
        <path d="m23.017 86.848s0.4163 2.1711 0.03942 4.2816c-0.37688 2.1106-0.26382 4.7111-0.26382 4.7111" fill="#99cc66" id="path70" stroke="#000000" stroke-miterlimit="10" stroke-width=".1" />
        <path d="m37.152 95.012s-0.4467-0.22714-0.068702-1.6918c0.42522-2.7876 0-5.8586 0-5.8586" fill="#99cc66" id="path119" stroke="#000000" stroke-miterlimit="10" stroke-width=".1" />
        <path d="m41.034 94.936s-0.87958-1.1912-0.21812-3.837c0.66145-2.6458 0.14174-3.449 0.14174-3.449" fill="#99cc66" id="path121" stroke="#000000" stroke-miterlimit="10" stroke-width=".1" />
    </g>
    <g id="g445">
        <path d="m25.983 101.46c2.6727-2.8063 1.3363-4.4768 1.3363-4.4768-1.0023-1.5368-3.4077 0.13363-3.4077 0.13363l-2.2718 1.9377s-0.26727 1.4032 0.13363 2.1048c0 0 1.0691 3.1738 4.2095 0.30067" fill="#99cc66" id="path237" stroke="#000000" stroke-miterlimit="10" stroke-width=".1" />
        <path d="m41.997 98.753s-6.2839 2.0316-0.89769 6.6146c0 0 4.5953-0.13365 3.4594-4.5436 0 0-0.78037-2.0372-2.5618-2.071" fill="#99cc66" id="path259" stroke="#000000" stroke-miterlimit="10" stroke-width=".1" />
        <path d="m39.357 96.492s0.69146-1.3632 1.6772-1.5556c0 0 2.4557 0.54258 2.9569 0.34213 0 0 0.90203 0.4009 1.0023 0.86862 0 0-0.96885 1.8709-1.1025 1.9711-0.13363 0.10023-2.4054 1.4366-3.9756-0.30067l-0.5582-1.3256" fill="#99cc66" id="path261" stroke="#000000" stroke-miterlimit="10" stroke-width=".1" />
        <path d="m47.818 94.461s-0.0028 7.5997-0.0028 7.5997c0.39814 0.45768-2.9111-0.46054-3.9282-2.1734 0 0-0.64249-3.9074 3.931-5.4264h3.3e-5" fill="#99cc66" id="path265" stroke="#000000" stroke-miterlimit="10" stroke-width=".1" />
        <path d="m25.482 113.65s1.607-0.0601 2.4054-0.63477" fill="#99cc66" id="path1454" stroke="#000000" stroke-miterlimit="10" stroke-width=".1" />
    </g>
    <g id="g315">
        <path d="m27.587 98.419s0.53454-2.6393 3.0736-2.3386c0 0 2.0045 0.13364 2.6727 0.7684 0 0 0.20045-0.96885 1.2695-1.1025 0 0 3.2935-0.31261 4.7538 0.74573 0 0 2.095 3.6976-1.2793 5.034 0 0-1.9711 0.30068-2.9734-0.60136 0 0-4.2763 3.7752-7.517-2.5056" fill="#99cc66" id="path241" stroke="#000000" stroke-miterlimit="10" stroke-width=".1" />
        <path d="m33.333 96.849s4.2095 2.0713 1.7707 4.0759" fill="#99cc66" id="path243" stroke="#000000" stroke-miterlimit="10" stroke-width=".1" />
    </g>
    <g id="g307">
        <path d="m25.75 108.31s-3.9088-2.1048 0.23386-6.8488c0 0 2.6727-1.5034 4.744 0.30068 0 0 3.2741 4.7106-2.7729 7.0158 0 0 2.5725 2.0379-0.066817 4.2429 1.0335-3e-3 2.6754 0.63477 2.6754 0.63477h-5.0808s-4.6772-2.6393 0.26727-5.3454" fill="#99cc66" id="path245" stroke="#000000" stroke-miterlimit="10" stroke-width=".1" />
        <path d="m25.75 108.31s0.86863 0.7684 2.205 0.46772" fill="#99cc66" id="path247" stroke="#000000" stroke-miterlimit="10" stroke-width=".1" />
    </g>
    <g id="g311">
        <path d="m44.737 113.67c0.028386-0.19968 0.047441-0.4158 0.055793-0.64967 0 0 4.2095-1.0357 2.2718-4.6772 0 0-0.96885-3.3743-4.6438-2.94 0 0-4.6104 1.9043-0.26727 7.0826 0 0-2.4053 0.0937-2.3995 1.1996l4.983-0.0154" fill="#99cc66" id="path255" stroke="#000000" stroke-miterlimit="10" stroke-width=".1" />
        <path d="m42.153 112.48s0.56795 0.63477 1.5034 0.13363c0.93544-0.50112 1.1359 0.40091 1.1359 0.40091" fill="#99cc66" id="path257" stroke="#000000" stroke-miterlimit="10" stroke-width=".1" />
    </g>
    <g id="g797">
        <path d="m47.496 82.951h18.417v1.7223c-2.5513-0.33073-3.9215 0.33073-3.9215 0.33073-1.0394-1.4647-6.7091-0.51972-6.7091-0.51972-2.8348-0.75595-6.9523 0.12486-6.9523 0.12486l-0.52917 1e-6 -0.6702-0.35599" fill="#99cc66" id="path32-5" stroke="#000000" stroke-miterlimit="10" stroke-width=".1" />
    </g>
    <g id="g161">
        <path d="m47.732 85.623c0.80181 0.93545 3.9088 0.60136 3.9088 0.60136 2.5391 0.16704 3.0736-0.26727 3.0736-0.26727l0.7684 0.43431 4.0759 0.10023c1.6704 0.10023 1.9043-0.66817 1.9043-0.66817 7.74e-4 0.81935 1.1359 0.93544 1.1359 0.93544h2.94s-0.15513-2.0855-0.15513-2.0855-2.7396-0.14452-3.9215 0.33073c0 0 0.74301-1.3978-6.7091-0.51972 0 0-2.6405-1.096-6.9523 0.12486l-0.06885 1.0138" fill="#99cc66" id="path127" stroke="#000000" stroke-miterlimit="10" stroke-width=".1" />
    </g>
    <g id="g155">
        <path d="m54.715 85.957s0.51172-0.87409 0.0387-1.4727" fill="#99cc66" id="path129" stroke="#000000" stroke-miterlimit="10" stroke-width=".1" />
        <path d="m61.463 85.004s7.67e-4 0.81936 7.67e-4 0.81936" fill="#99cc66" id="path131" stroke="#000000" stroke-miterlimit="10" stroke-width=".1" />
    </g>
    <g id="g151">
        <path d="m47.818 94.461s0.54077-6.205-0.12305-8.0391l0.03776-0.79842s0.83522 0.86863 3.9088 0.60136c0 0 2.0713 0.4009 3.0736-0.26727l0.7684 0.43432s4.0425 0.06682 4.0425 0.06682l1.2027 0.03341s0.43431 0.66817 1.8709 0.26727l0.73499 0.63477-0.16704 5.7463s0.03341 1.0023-0.50113 1.6036c0 0-2.4054 1.5368-3.0068-0.33409 0 0-1.4032 1.9377-4.3097 0.26727l-0.73499 0.53454-2.4054 0.10022-0.60136-0.63476s-2.1346 1.6723-3.7901-0.21622" fill="#99cc66" id="path133" stroke="#000000" stroke-miterlimit="10" stroke-width=".1" />
    </g>
    <g id="g144">
        <path d="m51.641 86.225s1.2361 5.1784-0.03341 8.4524" fill="#99cc66" id="path135" stroke="#000000" stroke-miterlimit="10" stroke-width=".1" />
        <path d="m55.483 86.392s0.60136 4.8443-0.13364 8.2854" fill="#99cc66" id="path137" stroke="#000000" stroke-miterlimit="10" stroke-width=".1" />
        <path d="m59.459 86.492s1.5368 4.5102 0.20045 7.9179" fill="#99cc66" id="path139" stroke="#000000" stroke-miterlimit="10" stroke-width=".1" />
    </g>
    <g id="g596">
        <path d="m71.196 84.107s2.8821-0.18899 3.1183 0.7087c0 0 6.0949-0.47247 6.8981 0.33073 0 0 5.3862-1.5592 6.4728 0.23624 0 0 3.1183-1.3702 6.9926 0.09449 0 0 2.5513-0.8032 4.5357-0.61421l0.09449-2.0316h-28.112l4e-6 1.2757" fill="#99cc66" id="path165" stroke="#000000" stroke-miterlimit="10" stroke-width=".1" />
    </g>
    <g id="g201">
        <path d="m99.213 84.863c-1.9844-0.18899-4.5357 0.61421-4.5357 0.61421-3.8743-1.4647-6.9926-0.09449-6.9926-0.09449-1.0867-1.7954-6.4728-0.23624-6.4728-0.23624-0.8032-0.8032-6.8981-0.33073-6.8981-0.33073-0.23624-0.89769-3.1183-0.7087-3.1183-0.7087l-2e-6 2.7403 1.5119-0.28348s1.0867-0.28348 1.6536-0.18899l1.4174 0.66146s3.638-0.0472 3.638-0.0472 1.5119 0.0472 1.7009-0.37798c0 0 1.3702 0.56692 2.1261 0.56692 0 0 3.3073 0.0473 3.3073 0.0473s1.0867-0.42523 1.0867-0.42523 0.7087 1.1812 2.6931 0.70871c0 0 3.7798 0.0472 3.7798 0.0472s0.66146-0.7087 0.66146-0.7087 0.56696 1.0394 3.1183 0.99219h1.4174l-0.09449-2.9766" fill="#99cc66" id="path163" stroke="#000000" stroke-miterlimit="10" stroke-width=".1" />
    </g>
    <g id="g179">
        <path d="m74.314 84.815 0.04725 1.5592" fill="#99cc66" id="path167" stroke="#000000" stroke-miterlimit="10" stroke-width=".1" />
        <path d="m81.212 85.146-0.0945 1.4647" fill="#99cc66" id="path169" stroke="#000000" stroke-miterlimit="10" stroke-width=".1" />
        <path d="m87.685 85.382s0.47454 0.5137-0.04725 1.4175" fill="#99cc66" id="path171" stroke="#000000" stroke-miterlimit="10" stroke-width=".1" />
        <path d="m94.677 85.477 0.09449 1.3702" fill="#99cc66" id="path173" stroke="#000000" stroke-miterlimit="10" stroke-width=".1" />
    </g>
    <g id="g235">
        <path d="m99.308 87.839h-1.4174c-2.5513 0.0472-3.1183-0.99219-3.1183-0.99219s-0.66146 0.7087-0.66146 0.7087-3.7798-0.0472-3.7798-0.0472c-1.9844 0.47247-2.6931-0.70871-2.6931-0.70871s-1.0867 0.42523-1.0867 0.42523-3.3073-0.0473-3.3073-0.0473c-0.75595 0-2.1261-0.56692-2.1261-0.56692-0.18899 0.42518-1.7009 0.37798-1.7009 0.37798s-3.638 0.0472-3.638 0.0472l-1.4174-0.66146c-0.56696-0.09449-1.6536 0.18899-1.6536 0.18899l-0.14174 1.2284s-0.18899 7.654-0.18899 7.654 0.75595 1.0867 1.6536 0.8032l1.4174-0.75596s1.5119 1.5592 3.7798 0.0945c0 0 1.0394 1.6536 3.3545 0.42522 0 0-0.23624 0.70871 0.56696 0.8032 0 0 2.6458 0.0473 2.6458 0.0473l0.61421-0.18899s0.89769 0.56696 1.8426 0.66146l1.5592-0.66151 1.3702 0.47247s2.4568 0.18899 2.5513-0.66146c0 0 0.87407 1.5828 3.638 0.14174 0 0 1.1103 0.73233 1.9608 0.47247 0 0-0.02362-9.2604-0.02362-9.2604" fill="#99cc66" id="path191" stroke="#000000" stroke-miterlimit="10" stroke-width=".1" />
    </g>
    <g id="g224">
        <path d="m75.779 87.036s0.47247 1.4174 0.18899 4.2995c-1.1339 3.0238-0.51972 4.1577-0.51972 4.1577" fill="#99cc66" id="path203" stroke="#000000" stroke-miterlimit="10" stroke-width=".1" />
        <path d="m79.606 87.131-0.37798 8.4572" fill="#99cc66" id="path205" stroke="#000000" stroke-miterlimit="10" stroke-width=".1" />
        <path d="m83.244 87.083s-0.66146 8.9297-0.66146 8.9297" fill="#99cc66" id="path207" stroke="#000000" stroke-miterlimit="10" stroke-width=".1" />
        <path d="m86.551 87.225-0.14174 9.4494" fill="#99cc66" id="path209" stroke="#000000" stroke-miterlimit="10" stroke-width=".1" />
        <path d="m90.331 87.509s0.47247 3.638-0.51972 9.1659" fill="#99cc66" id="path211" stroke="#000000" stroke-miterlimit="10" stroke-width=".1" />
        <path d="m94.11 87.556s0.61421 3.2128-0.09449 4.4885c-0.70871 1.2757-0.28348 4.4412-0.28348 4.4412" fill="#99cc66" id="path213" stroke="#000000" stroke-miterlimit="10" stroke-width=".1" />
        <path d="m97.937 87.887s0.23624 1.3702-0.14174 2.7403-0.42522 6.0004-0.42522 6.0004" fill="#99cc66" id="path215" stroke="#000000" stroke-miterlimit="10" stroke-width=".1" />
    </g>
    <g id="g570">
        <path d="m101.08 125.35h-4.016s-1.6064 0.80323-3.4018 0c0 0-2.008 0.80317-3.4963-0.21264 0 0-0.3044 0.40595-1.0728 0.50618h-5.8465l-0.70158-0.40091-0.63476 0.43431h-2.7729l-0.3675-0.43431-0.50113 0.46772h-4.8777l-0.63476-0.46772s-0.43431 0.46772-0.43431 0.46772h-3.9422s-0.50113-0.56794-0.50113-0.56794l-0.53454 0.36749h-4.9111s-0.50113-0.53454-0.50113-0.53454l-0.73499 0.73499h-5.6127l-0.73499-0.63476-0.83522 0.60135h-4.9111l-0.86863-0.53453s-0.46772 0.60135-0.46772 0.60135h-5.3788s-0.56795-0.63476-0.56795-0.63476l-0.43431 0.43431h-4.8443s-0.50113-0.66817-0.50113-0.66817-0.3675 0.50113-0.3675 0.50113h-4.3431s-0.63477-0.70159-0.63477-0.70159l-0.46772 0.3675h-5.7797l-0.63477-0.50113-0.86863 0.73499s-2.7272-0.30404-2.7272-0.30404v2.6092h80.803l0.05997-2.2312" fill="#99cc66" id="path482" stroke="#000000" stroke-miterlimit="10" stroke-width=".1" />
    </g>
    <g id="g550">
        <path d="m20.263 123.18s2.5513-0.0945 2.5513-0.0945 0.61421-0.18898 0.89769 0.61422c0 0 0.33073-0.61421 0.94494-0.51972h5.3389s0.66448 0.72967 0.66448 0.72967 0.30068-0.4009 0.30068-0.4009l4.0425-0.10023 1.0691 0.53454 0.67964-0.45597h4.5121s0.61421 0.14174 0.54334 0.54334c0 0-0.094494-0.51972 0.51972-0.51972h5.2917s0.44252 0.0426 0.51972 0.33073c0 0 0.18899-0.49609 0.51972-0.49609h5.1499s0.75595 0.0709 0.75595 0.54334c0 0 0.56696-0.8032 1.1812-0.66146h5.0082s1.0394 0.33073 1.0394 0.8032c0 0 0.47247-0.61421 1.1339-0.61421h3.8743s0.89769 0.18898 1.0394 0.51971l0.47247-0.23623h3.7798l0.61421 0.42522 0.66146-0.42522h4.6302s0.66146 0.28348 0.7087 0.51972c0 0 0.49609-0.8032 1.2048-0.8032h1.7954l0.77958 0.61421 0.51972-0.59059h6.5673s0.42522 0.63783 0.42522 0.63783 0.44885-0.42522 1.3229-0.42522c0 0 1.9844 0.0709 1.9844 0.0709s0.18899 0.23624 0.18899 0.23624l0.4016-0.16537h2.8112s0.33073 0.37798 0.33073 0.37798 0.47247-0.56697 0.47247-0.56697h3.1419s0.99219 0.73233 0.42522 1.7481h-4.016s-1.6064 0.80323-3.4018 0c0 0-2.008 0.80317-3.4963-0.21264 0 0-0.3044 0.40595-1.0728 0.50618h-5.8465l-0.70158-0.40091-0.63476 0.43431h-2.7729l-0.3675-0.43431-0.50113 0.46772h-4.8777l-0.63476-0.46772s-0.43431 0.46772-0.43431 0.46772h-3.9422s-0.50113-0.56794-0.50113-0.56794l-0.53454 0.36749h-4.9111s-0.50113-0.53454-0.50113-0.53454l-0.73499 0.73499h-5.6127l-0.73499-0.63476-0.83522 0.60135h-4.9111l-0.86863-0.53453s-0.46772 0.60135-0.46772 0.60135h-5.3788s-0.56795-0.63476-0.56795-0.63476l-0.43431 0.43431h-4.8443s-0.50113-0.66817-0.50113-0.66817-0.3675 0.50113-0.3675 0.50113h-4.3431s-0.63477-0.70159-0.63477-0.70159l-0.46772 0.3675h-5.7797l-0.63477-0.50113-0.86863 0.73499s-2.7272-0.30404-2.7272-0.30404l0.04725-1.7954" fill="#99cc66" id="path514" stroke="#000000" stroke-miterlimit="10" stroke-width=".1" />
    </g>
    <g id="g532">
        <path d="m23.712 123.7 0.09955 0.84472" fill="#99cc66" id="path484" stroke="#000000" stroke-miterlimit="10" stroke-width=".1" />
        <path d="m30.661 123.91s0.033409 0.7684 0.033409 0.7684" fill="#99cc66" id="path486" stroke="#000000" stroke-miterlimit="10" stroke-width=".1" />
        <path d="m36.073 123.94s-0.033409 0.93545-0.033409 0.93545" fill="#99cc66" id="path488" stroke="#000000" stroke-miterlimit="10" stroke-width=".1" />
        <path d="m41.808 124.03 0.011226 1.0819" fill="#99cc66" id="path490" stroke="#000000" stroke-miterlimit="10" stroke-width=".1" />
        <path d="m48.139 123.84 0.09459 1.3043" fill="#99cc66" id="path492" stroke="#000000" stroke-miterlimit="10" stroke-width=".1" />
        <path d="m54.565 123.89 0.28392 1.1903" fill="#99cc66" id="path494" stroke="#000000" stroke-miterlimit="10" stroke-width=".1" />
        <path d="m61.793 124.03 0.13777 0.9483" fill="#99cc66" id="path496" stroke="#000000" stroke-miterlimit="10" stroke-width=".1" />
        <path d="m67.841 123.94 0.03689 1.2098" fill="#99cc66" id="path498" stroke="#000000" stroke-miterlimit="10" stroke-width=".1" />
        <path d="m72.707 124.13 0.04812 1.1211" fill="#99cc66" id="path500" stroke="#000000" stroke-miterlimit="10" stroke-width=".1" />
        <path d="m78.708 124.22 0.06131 1.0266" fill="#99cc66" id="path502" stroke="#000000" stroke-miterlimit="10" stroke-width=".1" />
        <path d="m82.488 124.03 0.05673 1.2156" fill="#99cc66" id="path504" stroke="#000000" stroke-miterlimit="10" stroke-width=".1" />
        <path d="m90 124.08 0.16536 1.0631" fill="#99cc66" id="path506" stroke="#000000" stroke-miterlimit="10" stroke-width=".1" />
        <path d="m93.496 123.96 0.16536 1.3938" fill="#99cc66" id="path508" stroke="#000000" stroke-miterlimit="10" stroke-width=".1" />
        <path d="m97.04 124.17 0.02363 1.1812" fill="#99cc66" id="path510" stroke="#000000" stroke-miterlimit="10" stroke-width=".1" />
    </g>
    <g id="g1199">
        <path d="m40.568 112.81c-0.69689 0.1063-0.81399 0.87419-0.81399 0.87419 0.00267 0.51149 0.52115 1.2395 2.032 2.2749 0 0 2.5252 0.7047 2.951-2.2903l0.055793-0.64967" fill="#99cc66" id="path279" stroke="#000000" stroke-miterlimit="10" stroke-width=".1" />
        <path d="m29.992 113.42c-0.079075 0.18334 2.7885 0.47711 3.3075 3.5781 0 0 2.9734-1.0357 4.3431 0.50113 0 0 1.5034-1.8041 4.1427-1.5368 0 0 3.3075 1.7372 0.10023 4.2763 0 0-2.94 1.8375-3.9756-0.96885 0 0-0.20045 1.5034-2.7729 1.2361 0 0-1.7373 0.66817-2.5725-1.6704 0 0-6.9156 2.2384-8.3188-2.0379 0 0-0.03341-2.8397 1.2361-3.1404" fill="#99cc66" id="path271" stroke="#000000" stroke-miterlimit="10" stroke-width=".1" />
        <path d="m33.3 116.99s0.4009 1.7706-0.73499 1.8375" fill="#99cc66" id="path251" stroke="#000000" stroke-miterlimit="10" stroke-width=".1" />
        <path d="m37.643 117.5 0.26727 1.7707" fill="#99cc66" id="path253" stroke="#000000" stroke-miterlimit="10" stroke-width=".1" />
    </g>
    <g id="g296">
        <path d="m29.825 119.8s3.2072-1.1359 4.4434 1.6704c0 0 2.5057-1.7707 4.5436-0.63477 0 0 0.7684 2.3052-1.0357 2.6393 0 0-1.1693 0-1.7038 0.46772 0 0-0.16704-0.53454-1.0691-0.53454 0 0-0.63477-0.60135-0.73499-0.90203 0 0-0.60136 0.96885-3.3075 1.0023 0 0-0.30068 0.4009-0.30068 0.4009s-0.60136-0.70158-0.60136-0.70158l-1.0691-0.0668s-1.9043-2.372 0.83522-3.3409v-2e-5" fill="#99cc66" id="path281" stroke="#000000" stroke-miterlimit="10" stroke-width=".1" />
        <path d="m34.269 121.47s0.50113 0.31738-3e-7 1.0357" fill="#99cc66" id="path283" stroke="#000000" stroke-miterlimit="10" stroke-width=".1" />
    </g>
    <g id="g783">
        <path d="m46.452 95.117 1.3653-0.65616c-0.16501-0.0582 7.0709 3.7763-0.0028 7.5997l-1.5658-0.33073" fill="#99cc66" id="path267" stroke="#000000" stroke-miterlimit="10" stroke-width=".1" />
        <path d="m50.501 99.982s5.098-4.9613 5.9508 2.0787c0 0-1.6985 4.3942-5.3838 3.024 0 0-2.7403-1.7481-0.56696-5.1027" fill="#99cc66" id="path574" stroke="#000000" stroke-miterlimit="10" stroke-width=".1" />
    </g>
    <g id="g690">
        <path d="m73.658 97.483c-3.1404-3.4411-5.9802 0.50114-5.9802 0.50114-2.9734-6.047-6.214 0.0334-6.214 0.0334-1.1693 8.4858 4.7774 3.1404 4.7774 3.1404-0.4009 3.6081 2.9734 3.274 2.9734 3.274-1.9043 1.9043-0.06682 4.009-0.06682 4.009-2.3052 1.9043-0.33409 2.9066-0.33409 2.9066-2.6059 0.80181-2.7061 3.3409-2.7061 3.3409-1.1693 0.16704-2.0045 1.7038-2.0045 1.7038-2.3052-0.73499-4.1761 0.16704-4.1761 0.16704 0.16704-1.1359-1.3363-1.0023-1.3363-1.0023-0.93544 0.20045-1.1025-0.56795-1.1025-0.56795 0.16704-0.70158-1.2361-1.6036-1.2361-1.6036 2.4054-1.9711-0.43431-3.4745-0.43431-3.4745s0.53454-0.56794 0.53454-0.56794-0.20045-0.66818 0.73499-1.7038c0.93544-1.0357 0.46772-1.7707 0.46772-1.7707 5.0113-2.7061 2.205-4.8443 2.205-4.8443 2.205-2.5056 1.7373-3.7752 1.7373-3.7752-0.86863-4.2763-5.6795-0.73499-5.6795-0.73499 0.10023-0.63477-1.2027-1.3029-1.2027-1.3029l-2.4054 0.10022c-1.2361-0.10023-1.7038 1.7373-1.7038 1.7373s1.9711 2.6727 4.9779 0.66817c0 0-0.60136 2.4722 2.1716 2.8732 0 0 0.53454 0.7684 0.53454 0.7684l-1.7373 0.70158s-0.30068 1.1025-0.93544 1.8041l0.06682 1.1359s-3.0068-1.0691-2.4054 3.0736c0 0 0.4009 1.8709 1.1359 2.1716 0 0-3.3743 2.5056-1.8709 3.9756 0 0 1.2695 0.93545 2.5725 0.46773 0 0-0.63476 5.7797 3.9422 2.9066 0 0 2.4388 3.6081 4.9445 2.4722 0 0 1.1693-0.53453 1.7038-1.8709 0 0 1.1693-0.66818 1.8709-0.73499 1.2027-0.50113 0.83522-1.4366 0.83522-1.4366s1.4366-0.46772 2.205-1.7372c0 0 0.43431-0.56795 0-1.4032-0.43431-0.83522-0.50113-1.5368-0.50113-1.5368s1.7373-0.56795 1.0357-2.2718c0 0 1.7038-0.93545 1.1693-3.1738 0 0 0.30068-0.73499-0.46772-0.50113s-0.90204-1.47-0.90204-1.47l-0.83522-0.20045s-0.16704-0.70159-0.16704-0.70159l-0.90204-1.8375s0.90204 0.0668 1.5702-0.33408c0.66817-0.40091 1.8709 0 1.8709 0l1.2361-0.93545 0.03341-2.4388" fill="#99cc66" id="path572" stroke="#000000" stroke-miterlimit="10" stroke-width=".1" />
    </g>
    <g id="g673">
        <path d="m68.947 101.19s-1.7202-0.97381-1.7202-0.97381l0.45065-2.2334" fill="#99cc66" id="path618" stroke="#000000" stroke-miterlimit="10" stroke-width=".1" />
        <path d="m67.227 100.22-0.98592 0.94041" fill="#99cc66" id="path620" stroke="#000000" stroke-miterlimit="10" stroke-width=".1" />
        <path d="m69.147 108.44s1.1935-0.0981 1.9043 0.63477" fill="#99cc66" id="path622" stroke="#000000" stroke-miterlimit="10" stroke-width=".1" />
        <path d="m69.214 104.43 0.80181-0.70158" fill="#99cc66" id="path624" stroke="#000000" stroke-miterlimit="10" stroke-width=".1" />
        <path d="m68.813 111.35h1.2027" fill="#99cc66" id="path626" stroke="#000000" stroke-miterlimit="10" stroke-width=".1" />
        <path d="m68.312 116.03s-0.82044-1.4175-2.205-1.3363" fill="#99cc66" id="path628" stroke="#000000" stroke-miterlimit="10" stroke-width=".1" />
        <path d="m64.103 116.39s0.21344 1.5456 1.5034 1.8041" fill="#99cc66" id="path630" stroke="#000000" stroke-miterlimit="10" stroke-width=".1" />
        <path d="m59.927 116.56-0.96885 1.0357" fill="#99cc66" id="path632" stroke="#000000" stroke-miterlimit="10" stroke-width=".1" />
        <path d="m55.016 114.69 1.2361-1.3029" fill="#99cc66" id="path634" stroke="#000000" stroke-miterlimit="10" stroke-width=".1" />
        <path d="m54.314 110.25 1.5034-0.33409" fill="#99cc66" id="path636" stroke="#000000" stroke-miterlimit="10" stroke-width=".1" />
        <path d="m55.584 105s0.42542 1.1335 1.9711 0.86862" fill="#99cc66" id="path638" stroke="#000000" stroke-miterlimit="10" stroke-width=".1" />
        <path d="m58.189 101.36s1.3318 0.9924 1.5702-0.33409" fill="#99cc66" id="path640" stroke="#000000" stroke-miterlimit="10" stroke-width=".1" />
        <path d="m55.817 96.515-0.33409 1.2027" fill="#99cc66" id="path642" stroke="#000000" stroke-miterlimit="10" stroke-width=".1" />
    </g>
    <g id="g740">
        <path d="m61.368 120.96s-0.09449-3.6853-4.2522-0.89769c0 0-1.5592 2.5041 0.56696 3.2128 0 0 2.6112 4.2e-4 3.1458-1.0687l-0.07471 1.0214 1.0394 0.8032s0.47185-0.82236 2.3093-0.5885c0 0 1.0691-0.43431 1.2695-1.2027l1.4293 1.177s0.53482-0.0554 1.0394 0.51971c0 0 0.57143-0.32695 1.4735-0.26014 0 0 3.9422-1.47 0.83522-4.744 0 0 2.8397-0.50113 3.107-1.8375 0 0 2.6059 1.3698 3.2406-1.5034 0 0 2.9066 0.33409 3.5747-1.637 0 0 1.7707 2.6727 3.7084 0.40091 0 0 1.2361-0.83522 0.70158-2.4722 0 0 2.3052 0.0668 2.7395-1.0357 0 0 1.4554-1.3213 1.0302-2.4552 0 0 2.0316 0.8977 3.7325-0.37797 0 0-0.18899 2.9766 3.1183 3.1656 0 0-3.3073 3.4018 0.51972 5.6224 0 0-2.1497 0.66143-1.9371 3.827 0 0-1.9371-0.42522-2.4096 2.8821l2.0316 0.21264s1.8426-1.2048 1.3465-2.1025l1.2284 0.33073s-1.5355 1.8898 0.04725 1.7718l0.77957 0.0709s0.33073 0.37798 0.33073 0.37798 0.47247-0.56697 0.47247-0.56697 2.2679-0.8741 0.3071-2.1498c0 0 4.7011-2.764 0.28348-5.4098 0 0 4.016-5.079-1.5828-5.3862 0 0 1.4174-1.2284 0.23624-2.8348 0 0 6.1657-2.5041 1.2993-6.8744 0 0 2.5513-1.5355 0.42522-3.6616l-1.1103-0.66146s-1.1103 0.70871-2.0552 0.63784c0 0-1.2782 0.75293-1.1446 1.989 0 0-4.8777-5.0113-7.4835-0.50113 0 0-1.1025 4.6104 3.4745 5.1784 0 0 4.7774-0.33409 4.4768-3.6416l1.3363 1.0023s-3.3075 1.1693-3.107 3.1404c0 0-0.50113 1.3698 0.66817 2.0713l-0.93544 0.4009s0.13364-4.2429-5.2786-2.4722c0 0 0.73499-2.8397-2.1382-2.9734 0 0 3.0934-2.2755 0.61127-4.5956 0 0-2.6458-0.0473-2.6458-0.0473l-1.5736 1.1016-1.1693-1.4032-1.1786-0.92681s-1.6555 1.4567-3.7798-0.0945c0 0-2.759 1.4222-1.4227 5.5315 0 0-0.65619-0.0981-1.483 0.3744 0 0-0.96856-1.4883-1.5355-0.0945l-1.1575 1.7246s0.16704 0.70159 0.16704 0.70159l0.83522 0.20045s0.22615 1.6492 0.86399 1.4838c0 0 0.63356-0.27751 0.50577 0.48727 0 0 3.8882-0.39278 2.7779-4.1253 0 0 4.2522 1.441 6.3311-1.9608 0 0 0.42522 1.7954 2.5277 1.9135 0 0-3.0474 3.3309 1.0631 5.7169 0 0-1.5079 1.3288-1.6415 3.3667 0 0-1.6704-0.46772-3.1738 1.3364 0 0 0-3.3743-2.8063-1.0023 0 0-2.0379 1.7038-1.8375 2.6059 0 0-2.3052-0.7684-2.8397 1.6036 0 0-0.50113-1.7372-2.8397-0.33409 0 0-1.5034 1.3029-1.1025 2.7395 0 0-3.9422-1.0357-3.842 2.9734 0 0-1.3932-1.0563-3.4695 0.22354" fill="#99cc66" id="path576" stroke="#000000" stroke-miterlimit="10" stroke-width=".1" />
    </g>
    <g id="g716">
        <path d="m96.756 107.82s-0.72393-1.4608-3.2204-1.321" fill="#99cc66" id="path598" stroke="#000000" stroke-miterlimit="10" stroke-width=".1" />
        <path d="m95.103 111.18s0.8032 0.37797 1.4174-0.51972" fill="#99cc66" id="path600" stroke="#000000" stroke-miterlimit="10" stroke-width=".1" />
        <path d="m95.622 116.8s1.5119-0.7087 2.4805-0.75595" fill="#99cc66" id="path602" stroke="#000000" stroke-miterlimit="10" stroke-width=".1" />
        <path d="m93.685 120.63s0.96856 0.99219 0.96856 0.99219" fill="#99cc66" id="path604" stroke="#000000" stroke-miterlimit="10" stroke-width=".1" />
        <path d="m95.882 121.95s0.77957-0.47248 1.9371-0.4961" fill="#99cc66" id="path606" stroke="#000000" stroke-miterlimit="10" stroke-width=".1" />
        <path d="m92.6 106.9-0.6161 1.1091" fill="#99cc66" id="path608" stroke="#000000" stroke-miterlimit="10" stroke-width=".1" />
        <path d="m87.322 104.43s-2.2828 2.1639 0.92996 3.9593" fill="#99cc66" id="path610" stroke="#000000" stroke-miterlimit="10" stroke-width=".1" />
        <path d="m84.921 107.45s1.3465-0.33073 1.441-1.2284" fill="#99cc66" id="path612" stroke="#000000" stroke-miterlimit="10" stroke-width=".1" />
        <path d="m83.858 101.73s1.3259-0.27082 1.3259-0.27082" fill="#99cc66" id="path614" stroke="#000000" stroke-miterlimit="10" stroke-width=".1" />
        <path d="m81.575 97.918-0.24543 1.8986" fill="#99cc66" id="path616" stroke="#000000" stroke-miterlimit="10" stroke-width=".1" />
        <path d="m83.279 110.81 1.2027 1.0691" fill="#99cc66" id="path644" stroke="#000000" stroke-miterlimit="10" stroke-width=".1" />
        <path d="m80.106 112.15-0.03341 1.8041" fill="#99cc66" id="path646" stroke="#000000" stroke-miterlimit="10" stroke-width=".1" />
        <path d="m75.462 113.75s1.2348 0.485 1.0357 1.8375" fill="#99cc66" id="path648" stroke="#000000" stroke-miterlimit="10" stroke-width=".1" />
        <path d="m72.622 115.36s-0.1389 1.1322 0.63476 1.7372" fill="#99cc66" id="path650" stroke="#000000" stroke-miterlimit="10" stroke-width=".1" />
        <path d="m68.68 117.76 1.47 1.1693" fill="#99cc66" id="path652" stroke="#000000" stroke-miterlimit="10" stroke-width=".1" />
        <path d="m64.838 120.74 0.53454 1.5034" fill="#99cc66" id="path654" stroke="#000000" stroke-miterlimit="10" stroke-width=".1" />
        <path d="m61.368 120.96-0.5395 1.2464" fill="#99cc66" id="path656" stroke="#000000" stroke-miterlimit="10" stroke-width=".1" />
        <path d="m95.975 101.29s2.0809-0.34171 2.0809-0.34171" fill="#99cc66" id="path658" stroke="#000000" stroke-miterlimit="10" stroke-width=".1" />
        <path d="m74.025 101.02 0.97383 0.75238" fill="#99cc66" id="path692" stroke="#000000" stroke-miterlimit="10" stroke-width=".1" />
        <path d="m94.171 99.254 0.46772 1.0357" fill="#99cc66" id="path694" stroke="#000000" stroke-miterlimit="10" stroke-width=".1" />
    </g>
    <g id="g2946">
        <path d="m23.842 37.19s-0.38887-0.24304 1.0208-2.0416c1.1666-1.4097 2.5763-3.0138 3.5485-3.5485 1.0208-0.63192 1.993-1.361 4.1318-0.5347 0.68052 0.38887 1.118 0.68052 1.7985 1.361 0.34026 0.5347 1.3124 0.97218 1.4097 1.118 0.48609 0.24304 2.6735 1.7985 3.2568 2.0416-0.58331-0.5347-2.4791-2.1874-3.111-2.4791-0.68052-0.29165-1.2638-0.82635-1.0694-2.8679 0.19444-1.1666 0.43748-1.8471 0.43748-1.8471 0.48609 0.38887 2.4304 2.1874 2.7707 2.8193 0.29165 0.48609 0.097218 0.82635 0.29165 1.361 0.14583 0.48609 0.43748 1.0208 0.63192 1.118 0.048609-0.34026 0.14583-0.87496 0.14583-0.87496 0.14583 0.24304 0.77774 0.72913 0.77774 0.72913 0.097218 0.24304 0.48609 1.2638 0.43748 1.5069-0.048609 0.38887-0.14583 0.97218-0.14583 0.97218 0.29165-0.38887 0.97218-0.97218 1.2638-2.2846 0.097218-0.72913 0.048609-2.1874 0.5347-2.8193 0.43748-0.63192 0.77774-1.2638 1.7985-1.5069 0.5347-0.14583 1.4097-0.38887 1.7013 0.92357 0.048609 0.43748-0.048609 1.0208-1.0694 2.1874-0.68052 0.63192-2.1874 1.9444-2.1874 1.993-0.34026 0.38887-0.48609 0.58331-0.48609 0.58331 0.68052-0.48609 2.7707-1.6041 3.0624-1.7013 0.29165-0.38887 2.1874-2.4304 4.6178-2.7221 1.0694-0.09722 3.5971 0.58331 4.3262 0.92357-0.38887 0.19444-1.0694 0.58331-1.1666 0.92357-0.14583 0.38887-0.48609 1.118-0.92357 1.118 0.43748 0.29165 1.9444 1.2638 2.5277 2.0902 0.48609 0.5347 1.993 1.6527 2.9651 1.8957-0.14583 0.24304-3.1596 1.4097-4.6665 0.92357-1.5069-0.48609-2.3332-1.4097-3.7429-2.5277-0.82635-0.58331-2.1388-1.4583-4.0831-1.118-1.0694 0.24304-3.0138 0.87496-3.8887 1.5555l-0.14583 0.19444c0.48609 0 4.0345-0.34026 4.7151 0.5347 0.58331 0.77774 1.2152 1.6527 1.2152 1.6527-0.34026 0.29165-2.1388 1.7499-3.9859 0-0.72913-0.82635-1.3124-1.6041-1.9444-1.5555 0.29165 0.38887 1.7499 2.3332 2.7221 2.8679 1.0694 0.29165 3.9373 0.68052 4.6178 2.9651 0.38887 1.2638 0.48609 2.7707 0.48609 2.7707-0.63192 0.29165-2.6735 1.7013-5.4928-1.8471-0.63192-1.2638-0.77774-1.361-1.3124-4.0345-0.38887-0.72913-0.72913-1.4583-1.361-1.9444-0.63192-0.04861-0.92357-0.04861-0.97218 0-0.48609 0.04861-1.8471 0.14583-2.3818 1.0208-0.63192 0.82635-1.6041 1.993-3.7429 3.111-1.0694 0.48609-2.1388 1.0208-3.7429-0.92357-0.38887-0.63192-0.58331-1.8957 0.048609-2.6249 0.68052-0.77774 1.8957-2.2846 3.111-2.236 0.82635 0.04861 4.0831 0.63192 6.465 1.0694-0.29165-0.38887-2.0902-2.7707-5.8331-2.8193-0.72913 0.04861-1.6527 0.19444-2.7707 0.92357-1.2638 0.77774-2.8679 2.1874-4.8609 1.5555-0.48609-0.19444-1.2152-0.24304-1.7499 0.04861" fill="none" id="path2944" stroke="#000000" stroke-miterlimit="10" stroke-width=".1" />
    </g>
    <g id="g2942">
        <path d="m38.23 49.779c0.38887-1.0208 0-2.0416-0.34026-2.8679-0.048609-0.09722-0.097218-0.19444-0.097218-0.29165-0.48609-1.4097 0.77774-2.7707 0.77774-2.7707" fill="none" id="path2896" stroke="#000000" stroke-miterlimit="10" stroke-width=".1" />
        <path d="m42.07 33.69s1.118-1.993 1.993-2.8679" fill="none" id="path2898" stroke="#000000" stroke-miterlimit="10" stroke-width=".1" />
        <path d="m44.403 38.308c-0.34026-0.92357-1.8957-1.0694-1.9444-1.0694" fill="none" id="path2900" stroke="#000000" stroke-miterlimit="10" stroke-width=".1" />
        <path d="m34.973 37.676c-1.0694 0.34026-3.3054 1.7499-3.4026 1.7985" fill="none" id="path2902" stroke="#000000" stroke-miterlimit="10" stroke-width=".1" />
        <path d="m36.966 37.724c-1.5069-0.19444-3.9859 2.4791-4.1318 2.5763" fill="none" id="path2904" stroke="#000000" stroke-miterlimit="10" stroke-width=".1" />
        <path d="m33.612 33.252c-3.9859-0.43748-6.6594 1.7013-6.708 1.7499" fill="none" id="path2906" stroke="#000000" stroke-miterlimit="10" stroke-width=".1" />
        <path d="m37.598 33.204c-0.58331-0.5347-1.2638-2.236-1.2638-2.236" fill="none" id="path2908" stroke="#000000" stroke-miterlimit="10" stroke-width=".1" />
        <path d="m39.542 34.273s0.14583 0.43748 0.19444 0.68052" fill="none" id="path2910" stroke="#000000" stroke-miterlimit="10" stroke-width=".1" />
        <path d="m45.327 44.092c-0.68052-1.5069-2.3332-3.2082-2.3818-3.2082" fill="none" id="path2912" stroke="#000000" stroke-miterlimit="10" stroke-width=".1" />
        <path d="m38.91 33.592c-0.048609 0-0.048609 0 0 0" fill="none" id="path2914" stroke="#000000" stroke-miterlimit="10" stroke-width=".1" />
        <path d="m41.633 45.21c-0.14583-0.14583-0.92357-0.77774-0.92357-1.5555-0.048609-0.72913-0.24304-1.6527-0.63192-2.6249-0.048609-0.19444-0.24304-0.29165-0.19444-0.19444 0.19444-0.43748 0.29165-1.2638 0.29165-1.5555v-0.29165c0-0.24304 0.048609-0.38887 0.097218-0.58331 0.048609-0.14583 0.048609-0.29165 0.097218-0.43748" fill="none" id="path2916" stroke="#000000" stroke-miterlimit="10" stroke-width=".1" />
        <path d="m38.084 63.681c-0.048609-0.43748 0.097218-0.77774 0.34026-1.2638 0.097218-0.48609-0.048609-1.5555-0.24304-2.3332-0.29165-1.2638 1.0694-2.5763 1.118-2.6249 0 0 0.048609 0.04861 0.048609 0.04861 0.048609-0.43748 0.14583-0.92357 0.29165-1.361 0.048609-0.34026 0.048609-0.82635 0.048609-1.3124 0-0.77774-0.048609-1.6041 0.19444-2.0416 0.048609-0.09722 0.097218-0.24304 0.14583-0.38887 0.34026-0.92357 0.68052-1.8471 0.5347-3.7915-0.72913-1.7499-0.5347-1.2152-0.77774-1.6041-0.24304-0.38887-0.63192-0.19444-0.97218-2.0416s0-2.5277 0-3.4026c0-0.87496 0.43748-3.0138 0.58331-3.6457" fill="none" id="path2918" stroke="#000000" stroke-miterlimit="10" stroke-width=".1" />
        <path d="m42.653 66.647c-0.38887-0.24304-0.43748-0.82635-0.48609-1.2152 0-0.14583 0-0.24304-0.048609-0.29165-0.5347-0.5347-0.43748-1.118-0.29165-1.8471 0-0.68052-0.5347-1.118-0.72913-1.2638 0.048609 0.29165 0.048609 0.58331 0.048609 0.72913-0.14583 0.72913-0.48609 2.3332 0.19444 4.6665 0.097218 0.24304 0.24304 0.48609 0.38887 0.72913 0.29165 2.0416 0.43748 3.7429 0.43748 3.7429s-0.048609-0.77774-0.048609-0.77774-0.24304-0.87496-0.5347-2.9165c-0.097218-0.24304-0.19444-0.43748-0.29165-0.63192 0-0.04861 0-0.04861-0.048609-0.09722-0.5347-1.0694-1.0208-1.993-0.92357-3.5971v-0.09722c0.097218-1.993 0.097218-2.6249-0.82635-4.5206-0.14583-0.43748-0.14583-1.2638-0.14583-1.7985" fill="none" id="path2920" stroke="#000000" stroke-miterlimit="10" stroke-width=".1" />
        <path d="m43.139 57.216c0.14583-1.5555-0.24304-2.0416-0.5347-2.4304 0 0-0.048609-0.04861-0.048609-0.04861-0.38887-0.48609-0.38887-1.0694-0.34026-2.2846 0-1.2638-0.68052-1.7499-0.92357-1.8957 0 0.5347-0.048609 1.0694-0.14583 1.4097 0 0-0.048609 0.09722-0.048609 0.09722-0.38887 0.92357-0.63192 1.4583-0.5347 2.5763 0.048609 0.82635-0.14583 1.7985-0.29165 2.3818-0.048609 0.24304-0.097218 0.43748-0.097218 0.5347-0.097218 0.5347 0.14583 1.4097 0.38887 1.7013 0.19444 0.34026 0.29165 0.82635 0.38887 1.1666 0.048609 0.14583 0.048609 0.29165 0.097218 0.38887v0.14583c0.048609 0.24304 0.097218 0.5347 0.14583 0.82635l0.048609 0.19444" fill="none" id="path2922" stroke="#000000" stroke-miterlimit="10" stroke-width=".1" />
        <path d="m39.883 40.835c-0.19444 0.97218-0.14583 0.97218-0.14583 1.9444 0 0.97218-0.14583 1.5069 0 1.993 0.14583 0.48609 0.38887 0.87496 0.58331 1.118 0.43748 0.63192 0.87496 1.2152 0.92357 2.0902v0.68052 1.8471" fill="none" id="path2924" stroke="#000000" stroke-miterlimit="10" stroke-width=".1" />
        <path d="m50.868 32.183c-1.4583-0.14583-2.9165 0.58331-2.9651 0.63192h0.38887c-0.97218 0-2.1874 0.14583-3.354 0.5347" fill="none" id="path2926" stroke="#000000" stroke-miterlimit="10" stroke-width=".1" />
        <path d="m51.597 33.592c-0.87496-0.43748-1.993-0.77774-3.3054-0.82635" fill="none" id="path2928" stroke="#000000" stroke-miterlimit="10" stroke-width=".1" />
        <path d="m39.105 37.287c0.097218-0.04861 0.48609-0.04861 0.58331-0.19444 0.14583-0.19444 0.19444-0.5347 0.097218-0.87496-0.048609-0.097218-0.14583-0.19444-0.19444-0.34026-0.29165-0.43748-0.72913-1.118-0.63192-2.1874" fill="none" id="path2930" stroke="#000000" stroke-miterlimit="10" stroke-width=".1" />
        <path d="m40.126 36.169c-0.097218 0.48609-0.048609 0.87496-0.048609 0.87496" fill="none" id="path2932" stroke="#000000" stroke-miterlimit="10" stroke-width=".1" />
        <path d="m46.056 33.933 7.1455 2.4791c-4.1804-3.5971-7.1455-2.4791-7.1455-2.4791" fill="none" id="path2934" stroke="#000000" stroke-miterlimit="10" stroke-width=".1" />
    </g>
    <g id="labels" style="font-size:30px;font-family:sans-serif;fill:#000000">
        <text id="text3976" style="fill:#000000;font-family:Arial;font-size:2.1167px;letter-spacing:0px;line-height:1.25;stroke-width:.013861;text-align:center;text-anchor:middle;word-spacing:0px" transform="translate(-2.6e-4)" x="58.058022" y="138.94167" xml:space="preserve">
            <tspan id="tspan3974" style="stroke-width:.013861;text-align:start;text-anchor:start" x="56.999077" y="138.94167">5 Day uninfected</tspan>
            <tspan id="tspan3978" style="stroke-width:.013861;text-align:start;text-anchor:start" x="56.999077" y="141.58749">5 Day post infected</tspan>
        </text>
        <text id="text3984" style="fill:#000000;font-family:Arial;font-size:2.1167px;letter-spacing:0px;line-height:1.25;stroke-width:.013861;text-align:end;text-anchor:end;word-spacing:0px" transform="translate(-2.6e-4)" x="108.83546" y="32.976051" xml:space="preserve">
            <tspan id="tspan3982" style="font-size:3.5278px;stroke-width:.013861;text-align:end;text-anchor:end" x="138.83546" y="32.976051">Col laser</tspan>
            <tspan id="tspan3986" style="font-size:3.5278px;stroke-width:.013861;text-align:end;text-anchor:end" x="138.83546" y="37.385773">microdissected</tspan>
        </text>
        <text id="text3992" style="fill:#000000;font-family:Arial;font-size:2.1167px;letter-spacing:0px;line-height:1.25;stroke-width:.013861;text-align:end;text-anchor:end;word-spacing:0px" transform="translate(-2.6e-4)" x="138.83546" y="64.461472" xml:space="preserve">
            <tspan id="tspan3988" style="font-size:3.5278px;stroke-width:.013861;text-align:end;text-anchor:end" x="138.83546" y="64.461472">
                <tspan id="tspan4006" style="font-family:Arial;font-style:italic;text-align:end;text-anchor:end">eds16</tspan> laser</tspan>
            <tspan id="tspan3990" style="font-size:3.5278px;stroke-width:.013861;text-align:end;text-anchor:end" x="138.83546" y="68.871193">microdissected</tspan>
        </text>
        <text id="text3998" style="fill:#000000;font-family:Arial;font-size:2.1167px;letter-spacing:0px;line-height:1.25;stroke-width:.013861;text-align:end;text-anchor:end;word-spacing:0px" transform="translate(-2.6e-4)" x="110.07053" y="96.476051" xml:space="preserve">
            <tspan id="tspan3994" style="font-size:3.5278px;stroke-width:.013861;text-align:end;text-anchor:end" x="140.07053" y="96.476051">Col whole leaf</tspan>
            <tspan id="tspan3996" style="font-size:3.5278px;stroke-width:.013861;text-align:end;text-anchor:end" x="140.07053" y="100.88577">amplified</tspan>
        </text>
        <text id="text4004" style="fill:#000000;font-family:Arial;font-size:2.1167px;letter-spacing:0px;line-height:1.25;stroke-width:.013861;text-align:end;text-anchor:end;word-spacing:0px" transform="translate(-2.6e-4)" x="108.97154" y="127.96147" xml:space="preserve">
            <tspan id="tspan4002" style="font-size:3.5278px;stroke-width:.013861;text-align:end;text-anchor:end" x="138.97154" y="127.96147">Col leaf scrape</tspan>
        </text>
        <text id="text4012" style="fill:#000000;font-family:Arial;font-size:2.1167px;letter-spacing:0px;line-height:1.25;stroke-width:.013861;text-align:end;text-anchor:end;word-spacing:0px" transform="translate(-.00026)" x="125.5359" y="152.03856" xml:space="preserve">
            <tspan id="tspan4010" style="font-size:3.5278px;stroke-width:.013861;text-align:start;text-anchor:start" x="140.5359" y="152.03856">5 Day uninfected</tspan>
        </text>
        <text id="text4016" style="fill:#000000;font-family:Arial;font-size:2.1167px;letter-spacing:0px;line-height:1.25;stroke-width:.013861;text-align:end;text-anchor:end;word-spacing:0px" transform="translate(-.00026)" x="157.79854" y="152.03856" xml:space="preserve">
            <tspan id="tspan4014" style="font-size:3.5278px;stroke-width:.013861;text-align:start;text-anchor:start" x="172.79854" y="152.03856">5 Day post infected</tspan>
        </text>
        <text id="text8052" style="fill:#000000;font-family:Arial;font-size:2.1167px;letter-spacing:0px;line-height:1.25;stroke-width:.037044;text-align:end;text-anchor:end;word-spacing:0px" transform="translate(-.00026)" x="39.244114" y="82.042969" xml:space="preserve">
            <tspan id="tspan8050" style="stroke-width:.037044;text-align:start;text-anchor:start" x="39.244114" y="82.042969">*Haustorial complex</tspan>
        </text>
    </g>
    <g id="g8056">
        <path d="m178.66 118.09s1.3894 0.75426 1.0321 2.3025c0 0-0.99244 0.67486-1.2703-0.47637 0 0 0.43668-0.91305 0.23819-1.8261" fill="#595959" id="path8054" stroke="#000000" stroke-miterlimit="10" stroke-width=".1" />
    </g>
    <g id="HC">
        <path d="m37.603 81.263s2.3151 1.2568 1.7198 3.8365c0 0-1.6536 1.1245-2.1167-0.79375 0 0 0.7276-1.5214 0.39687-3.0427" fill="#595959" id="path2154" stroke="#000000" stroke-miterlimit="10" stroke-width=".1" />
    </g>
</svg>
