<?xml version="1.0" encoding="utf-8"?>
<!-- Generator: Adobe Illustrator 18.1.1, SVG Export Plug-In . SVG Version: 6.00 Build 0)  -->
<svg version="1.1" id="Layer_1" xmlns="http://www.w3.org/2000/svg" xmlns:xlink="http://www.w3.org/1999/xlink" x="0px" y="0px"
	 viewBox="0 0 900 600" enable-background="new 0 0 900 600" xml:space="preserve">
<g id="Botrytis_cinerea">
	<g id="Labels">
		<text transform="matrix(1 0 0 1 32.9314 97.314)" font-family="'HelveticaNeue-Italic'" font-size="18">Botrytis cinerea</text>
		<text transform="matrix(1 0 0 1 246.873 163.6665)" font-family="'HelveticaNeue-Thin'" font-size="12">Mock Treatment</text>
		<text transform="matrix(1 0 0 1 238.973 176.6665)" font-family="'HelveticaNeue-Thin'" font-size="10">(Potato Dextrose Broth)</text>
		<text transform="matrix(1 0 0 1 250.6864 266.1665)" font-family="'HelveticaNeue-Thin'" font-size="12">Conidiospore</text>
		<text transform="matrix(1 0 0 1 224.7878 279.1665)" font-family="'HelveticaNeue-Thin'" font-size="10">(Diluted to 5X10^5 spores/ml)</text>
		<text transform="matrix(1 0 0 1 369.8842 341.6665)" font-family="'HelveticaNeue-Thin'" font-size="10">18 hours</text>
		<text transform="matrix(1 0 0 1 450.4377 342.6665)" font-family="'HelveticaNeue-Thin'" font-size="10">48 hours</text>
	</g>
	<g id="infoButton_Botrytis_cinerea">
		<circle fill="#CCCCCC" cx="184.2" cy="91.2" r="9.2"/>
		<text transform="matrix(1 0 0 1 182.4521 95.5)" fill="#FFFFFF" font-family="'HelveticaNeue-Bold'" font-size="12">i</text>
	</g>
	<g id="treatmentInfographic">
		<g id="root">
			<path fill="none" stroke="#000000" stroke-width="0.5" stroke-miterlimit="10" d="M110.4,296c0.8-2.1,0-4.2-0.7-5.9
				c-0.1-0.2-0.2-0.4-0.2-0.6c-1-2.9,1.6-5.7,1.6-5.7"/>
			<path fill="none" stroke="#000000" stroke-width="0.5" stroke-miterlimit="10" d="M118.3,262.9c0,0,2.3-4.1,4.1-5.9"/>
			<path fill="none" stroke="#000000" stroke-width="0.5" stroke-miterlimit="10" d="M123.1,272.4c-0.7-1.9-3.9-2.2-4-2.2"/>
			<path fill="none" stroke="#000000" stroke-width="0.5" stroke-miterlimit="10" d="M103.7,271.1c-2.2,0.7-6.8,3.6-7,3.7"/>
			<path fill="none" stroke="#000000" stroke-width="0.5" stroke-miterlimit="10" d="M107.8,271.2c-3.1-0.4-8.2,5.1-8.5,5.3"/>
			<path fill="none" stroke="#000000" stroke-width="0.5" stroke-miterlimit="10" d="M100.9,262c-8.2-0.9-13.7,3.5-13.8,3.6"/>
			<path fill="none" stroke="#000000" stroke-width="0.5" stroke-miterlimit="10" d="M109.1,261.9c-1.2-1.1-2.6-4.6-2.6-4.6"/>
			<path fill="none" stroke="#000000" stroke-width="0.5" stroke-miterlimit="10" d="M113.1,264.1c0,0,0.3,0.9,0.4,1.4"/>
			<path fill="none" stroke="#000000" stroke-width="0.5" stroke-miterlimit="10" d="M125,284.3c-1.4-3.1-4.8-6.6-4.9-6.6"/>
			<path fill="none" stroke="#000000" stroke-width="0.5" stroke-miterlimit="10" d="M111.8,262.7L111.8,262.7
				C111.7,262.7,111.7,262.7,111.8,262.7"/>
			<path fill="none" stroke="#000000" stroke-width="0.5" stroke-miterlimit="10" d="M117.4,286.6c-0.3-0.3-1.9-1.6-1.9-3.2
				c-0.1-1.5-0.5-3.4-1.3-5.4c-0.1-0.4-0.5-0.6-0.4-0.4c0.4-0.9,0.6-2.6,0.6-3.2c0-0.2,0-0.4,0-0.6c0-0.5,0.1-0.8,0.2-1.2
				c0.1-0.3,0.1-0.6,0.2-0.9"/>
			<path fill="none" stroke="#000000" stroke-width="0.5" stroke-miterlimit="10" d="M110.1,324.6c-0.1-0.9,0.2-1.6,0.7-2.6
				c0.2-1-0.1-3.2-0.5-4.8c-0.6-2.6,2.2-5.3,2.3-5.4l0.1,0.1c0.1-0.9,0.3-1.9,0.6-2.8c0.1-0.7,0.1-1.7,0.1-2.7
				c0-1.6-0.1-3.3,0.4-4.2c0.1-0.2,0.2-0.5,0.3-0.8c0.7-1.9,1.4-3.8,1.1-7.8c-1.5-3.6-1.1-2.5-1.6-3.3s-1.3-0.4-2-4.2
				c-0.7-3.8,0-5.2,0-7c0-1.8,0.9-6.2,1.2-7.5"/>
			<path fill="none" stroke="#000000" stroke-width="0.5" stroke-miterlimit="10" d="M119.5,330.7c-0.8-0.5-0.9-1.7-1-2.5
				c0-0.3,0-0.5-0.1-0.6c-1.1-1.1-0.9-2.3-0.6-3.8c0-1.4-1.1-2.3-1.5-2.6c0.1,0.6,0.1,1.2,0.1,1.5c-0.3,1.5-1,4.8,0.4,9.6
				c0.2,0.5,0.5,1,0.8,1.5l0,0c0.6,4.2,0.9,7.7,0.9,7.7l-0.1-1.6c0,0-0.5-1.8-1.1-6c-0.2-0.5-0.4-0.9-0.6-1.3l0,0
				c0-0.1,0-0.1-0.1-0.2c-1.1-2.2-2.1-4.1-1.9-7.4v-0.2c0.2-4.1,0.2-5.4-1.7-9.3c-0.3-0.9-0.3-2.6-0.3-3.7"/>
			<path fill="none" stroke="#000000" stroke-width="0.5" stroke-miterlimit="10" d="M120.5,311.3c0.3-3.2-0.5-4.2-1.1-5l-0.1-0.1
				c-0.8-1-0.8-2.2-0.7-4.7c0-2.6-1.4-3.6-1.9-3.9c0,1.1-0.1,2.2-0.3,2.9l-0.1,0.2c-0.8,1.9-1.3,3-1.1,5.3c0.1,1.7-0.3,3.7-0.6,4.9
				c-0.1,0.5-0.2,0.9-0.2,1.1c-0.2,1.1,0.3,2.9,0.8,3.5c0.4,0.7,0.6,1.7,0.8,2.4c0.1,0.3,0.1,0.6,0.2,0.8l0,0v0.3
				c0.1,0.5,0.2,1.1,0.3,1.7l0.1,0.4"/>
			<path fill="none" stroke="#000000" stroke-width="0.5" stroke-miterlimit="10" d="M113.8,277.6c-0.4,2-0.3,2-0.3,4
				s-0.3,3.1,0,4.1s0.8,1.8,1.2,2.3c0.9,1.3,1.8,2.5,1.9,4.3c0,0.4,0,0.9,0,1.4c0,1.1,0,2.6,0,3.8"/>
			<path fill="none" stroke="#000000" stroke-width="0.5" stroke-miterlimit="10" d="M136.4,259.8c-3-0.3-6,1.2-6.1,1.3h0.8
				c-2,0-4.5,0.3-6.9,1.1"/>
			<path fill="none" stroke="#000000" stroke-width="0.5" stroke-miterlimit="10" d="M137.9,262.7c-1.8-0.9-4.1-1.6-6.8-1.7"/>
			<path fill="none" stroke="#000000" stroke-width="0.5" stroke-miterlimit="10" d="M112.2,270.3c0.2-0.1,1-0.1,1.2-0.4
				c0.3-0.4,0.4-1.1,0.2-1.8l0,0c-0.1-0.2-0.3-0.4-0.4-0.7c-0.6-0.9-1.5-2.3-1.3-4.5"/>
			<path fill="none" stroke="#000000" stroke-width="0.5" stroke-miterlimit="10" d="M114.3,268L114.3,268c-0.2,1-0.1,1.8-0.1,1.8"
				/>
			<path fill="none" stroke="#000000" stroke-width="0.5" stroke-miterlimit="10" d="M126.5,263.4l14.7,5.1
				C132.6,261.1,126.5,263.4,126.5,263.4z"/>
			<line fill="none" stroke="#000000" stroke-width="0.5" stroke-miterlimit="10" x1="114.6" y1="267.4" x2="114.4" y2="267.8"/>
			<line fill="none" stroke="#000000" stroke-width="0.5" stroke-miterlimit="10" x1="114.4" y1="268" x2="114.4" y2="267.8"/>
			<line fill="none" stroke="#000000" stroke-width="0.5" stroke-miterlimit="10" x1="113.6" y1="262.2" x2="113.6" y2="262.5"/>
		</g>
		<path id="rosette" fill="none" stroke="#000000" stroke-width="0.5" stroke-miterlimit="10" d="M80.8,270.1
			c0,0-0.8-0.5,2.1-4.2c2.4-2.9,5.3-6.2,7.3-7.3c2.1-1.3,4.1-2.8,8.5-1.1c1.4,0.8,2.3,1.4,3.7,2.8c0.7,1.1,2.7,2,2.9,2.3
			c1,0.5,5.5,3.7,6.7,4.2c-1.2-1.1-5.1-4.5-6.4-5.1c-1.4-0.6-2.6-1.7-2.2-5.9c0.4-2.4,0.9-3.8,0.9-3.8c1,0.8,5,4.5,5.7,5.8
			c0.6,1,0.2,1.7,0.6,2.8c0.3,1,0.9,2.1,1.3,2.3c0.1-0.7,0.3-1.8,0.3-1.8c0.3,0.5,1.6,1.5,1.6,1.5c0.2,0.5,1,2.6,0.9,3.1
			c-0.1,0.8-0.3,2-0.3,2c0.6-0.8,2-2,2.6-4.7c0.2-1.5,0.1-4.5,1.1-5.8c0.9-1.3,1.6-2.6,3.7-3.1c1.1-0.3,2.9-0.8,3.5,1.9
			c0.1,0.9-0.1,2.1-2.2,4.5c-1.4,1.3-4.5,4-4.5,4.1c-0.7,0.8-1,1.2-1,1.2c1.4-1,5.7-3.3,6.3-3.5c0.6-0.8,4.5-5,9.5-5.6
			c2.2-0.2,7.4,1.2,8.9,1.9c-0.8,0.4-2.2,1.2-2.4,1.9c-0.3,0.8-1,2.3-1.9,2.3c0.9,0.6,4,2.6,5.2,4.3c1,1.1,4.1,3.4,6.1,3.9
			c-0.3,0.5-6.5,2.9-9.6,1.9s-4.8-2.9-7.7-5.2c-1.7-1.2-4.4-3-8.4-2.3c-2.2,0.5-6.2,1.8-8,3.2c-0.3,0.4-0.3,0.4-0.3,0.4
			c1,0,8.3-0.7,9.7,1.1c1.2,1.6,2.5,3.4,2.5,3.4c-0.7,0.6-4.4,3.6-8.2,0c-1.5-1.7-2.7-3.3-4-3.2c0.6,0.8,3.6,4.8,5.6,5.9
			c2.2,0.6,8.1,1.4,9.5,6.1c0.8,2.6,1,5.7,1,5.7c-1.3,0.6-5.5,3.5-11.3-3.8c-1.3-2.6-1.6-2.8-2.7-8.3c-0.8-1.5-1.5-3-2.8-4
			c-1.3-0.1-1.9-0.1-2,0c-1,0.1-3.8,0.3-4.9,2.1c-1.3,1.7-3.3,4.1-7.7,6.4c-2.2,1-4.4,2.1-7.7-1.9c-0.8-1.3-1.2-3.9,0.1-5.4
			c1.4-1.6,3.9-4.7,6.4-4.6c1.7,0.1,8.4,1.3,13.3,2.2c-0.6-0.8-4.3-5.7-12-5.8c-1.5,0.1-3.4,0.4-5.7,1.9c-2.6,1.6-5.9,4.5-10,3.2
			C83.4,269.6,81.9,269.5,80.8,270.1z"/>
		<g id="eyeDropper">
			<g>
				<path fill="#FFFFFF" d="M126.5,255.5c0-13,0-26,0-39c13.5,0,27,0,40.5,0c0,13,0,26,0,39C153.5,255.5,140,255.5,126.5,255.5z
					 M151.3,234.8c0.4,0.5,0.9,0.8,1.5,0.3c0.6-0.6,0.3-1.1-0.2-1.5c-0.1-0.1-0.2-0.2-0.4-0.4c0.2-0.2,0.4-0.5,0.7-0.7
					c1.8-1.8,3.5-3.5,5.3-5.3c1.6-1.7,1.7-3.9,0.2-5.4c-1.5-1.6-3.8-1.5-5.5,0.2c-2,2-3.9,4-5.9,6c-0.3-0.3-0.5-0.4-0.7-0.6
					c-0.4-0.4-0.9-0.5-1.3-0.1c-0.5,0.5-0.4,1,0.1,1.4c0.4,0.4,0.8,0.7,1.3,1.1c-0.3,0.3-0.5,0.6-0.7,0.8c-1.4,1.4-2.8,2.8-4.2,4.2
					c-1.6,1.6-3.2,3-4.1,5.1c-0.5,1.2-1.6,2.2-2.4,3.2c-0.5,0.5-0.6,0.9,0,1.5c1.7,1.6,1.2,1.3,2.8,0.1c1.3-1,2.8-1.9,4.3-2.8
					c0.3-0.2,0.7-0.4,1-0.7c2.3-2.2,4.6-4.5,6.9-6.8c0.2-0.2,0.4-0.3,0.7-0.6C150.7,234,150.9,234.4,151.3,234.8z M132.8,248.9
					c-0.5,0.9-0.3,1.9,0.4,2.4c0.6,0.5,1.7,0.5,2.4,0c0.7-0.5,1-1.5,0.4-2.4c-0.4-0.7-1-1.3-1.6-2.2
					C133.8,247.6,133.2,248.2,132.8,248.9z"/>
				<path d="M149.7,234.2c-2.3,2.3-4.6,4.5-6.9,6.8c-0.3,0.3-0.6,0.5-1,0.7c-1.4,0.9-2.9,1.8-4.3,2.8c-1.6,1.2-1.1,1.5-2.8-0.1
					c-0.6-0.6-0.4-0.9,0-1.5c0.9-1,1.9-2,2.4-3.2c0.9-2.1,2.6-3.6,4.1-5.1c1.4-1.4,2.8-2.8,4.2-4.2c0.2-0.2,0.4-0.5,0.7-0.8
					c-0.5-0.4-0.9-0.7-1.3-1.1c-0.4-0.4-0.5-0.9-0.1-1.4c0.4-0.4,0.9-0.3,1.3,0.1c0.2,0.2,0.4,0.4,0.7,0.6c2-2,3.9-4,5.9-6
					c1.7-1.7,4-1.8,5.5-0.2c1.5,1.5,1.4,3.8-0.2,5.4c-1.8,1.8-3.5,3.5-5.3,5.3c-0.2,0.2-0.4,0.5-0.7,0.7c0.2,0.2,0.3,0.3,0.4,0.4
					c0.5,0.5,0.8,1,0.2,1.5c-0.6,0.5-1.1,0.2-1.5-0.3c-0.3-0.4-0.6-0.7-0.9-1.1C150,233.9,149.8,234.1,149.7,234.2z M136.2,244.5
					c0.6-0.5,1.1-1,1.7-1.4c1.1-0.8,2.4-1.4,3.5-2.2c1.2-0.9,2.2-1.9,3.2-2.8c-0.1-0.7-0.2-1.1-0.3-1.5c0.4,0.1,0.8,0.2,1.3,0.3
					c0.1-0.1,0.3-0.3,0.4-0.4c-0.1-0.6-0.2-1-0.3-1.4c0.4,0.1,0.8,0.2,1.3,0.3c0.1-0.1,0.3-0.3,0.4-0.4c-0.1-0.6-0.2-1-0.2-1.4
					c0.4,0.1,0.8,0.2,1.3,0.4c0.2-0.2,0.5-0.6,0.7-0.9c-0.8-0.8-1.6-1.6-2.6-2.6c-0.2,0.3-0.5,0.7-0.9,1.1c-1.2,1.2-2.3,2.3-3.5,3.5
					c-1.6,1.6-3.2,3.1-4.2,5.2c-0.6,1.2-1.6,2.2-2.5,3.5C135.7,244,135.9,244.2,136.2,244.5z M155.2,226.7c-1.4,1.4-2.8,2.7-4.1,4.1
					c-0.2,0.2-0.2,0.6-0.3,0.8c0.3-0.1,0.7-0.1,0.9-0.2c1.4-1.3,2.7-2.7,4-4c0.2-0.2,0.2-0.5,0.3-0.8c0-0.1-0.2-0.2-0.4-0.3
					C155.6,226.5,155.4,226.6,155.2,226.7z"/>
				<path d="M136,249c0.5,0.9,0.3,1.9-0.4,2.4c-0.6,0.5-1.7,0.5-2.4,0c-0.7-0.5-0.9-1.5-0.4-2.4c0.4-0.7,1-1.3,1.6-2.1
					C135,247.6,135.6,248.2,136,249z M133.5,250.7c0.4,0.4,1.3,0.4,1.7,0c0.6-0.6,0.3-1.5-0.8-2.6
					C133.2,249.2,132.9,250.1,133.5,250.7z"/>
				<path fill="#FFFFFF" d="M138,240.3c1-2.1,2.6-3.6,4.2-5.2c1.2-1.2,2.3-2.3,3.5-3.5c0.4-0.4,0.7-0.8,0.9-1.1c1,1,1.9,1.8,2.6,2.6
					c-0.2,0.3-0.5,0.7-0.7,0.9c-0.6-0.2-0.9-0.3-1.3-0.4c0.1,0.4,0.2,0.9,0.2,1.4c-0.1,0.1-0.3,0.3-0.4,0.4
					c-0.6-0.1-0.9-0.2-1.3-0.3c0.1,0.4,0.1,0.9,0.3,1.4c-0.1,0.1-0.4,0.3-0.4,0.4c-0.5-0.1-0.9-0.2-1.3-0.3c0.1,0.4,0.2,0.9,0.3,1.5
					c-0.9,0.8-2,1.9-3.2,2.8c-1.1,0.8-2.3,1.4-3.5,2.2c-0.6,0.4-1.1,0.9-1.7,1.4c-0.3-0.3-0.5-0.4-0.7-0.6
					C136.4,242.6,137.5,241.6,138,240.3z M144,234c-1.3,1.3-2.7,2.6-4,4c-0.2,0.2-0.2,0.6-0.3,0.9c0.3-0.1,0.7-0.1,0.9-0.3
					c1.4-1.3,2.8-2.7,4.1-4.1c0.2-0.2,0.2-0.5,0.3-0.7c0-0.1-0.3-0.2-0.4-0.3C144.4,233.7,144.2,233.8,144,234z"/>
				<path fill="#FFFFFF" d="M156.1,226.6c-0.1,0.3-0.1,0.6-0.3,0.8c-1.3,1.4-2.7,2.7-4,4c-0.2,0.2-0.6,0.2-0.9,0.2
					c0.1-0.3,0.1-0.7,0.3-0.8c1.4-1.4,2.7-2.7,4.1-4.1c0.1-0.1,0.3-0.2,0.5-0.4C155.9,226.4,156.1,226.6,156.1,226.6z"/>
				<path fill="#FFFFFF" d="M135.2,250.7c-0.4,0.4-1.3,0.4-1.7,0c-0.6-0.6-0.3-1.5,0.8-2.6C135.5,249.2,135.8,250.1,135.2,250.7z"/>
				<path d="M145,233.8c0,0.2-0.1,0.5-0.3,0.7c-1.3,1.4-2.7,2.8-4.1,4.1c-0.2,0.2-0.6,0.2-0.9,0.3c0.1-0.3,0.1-0.7,0.3-0.9
					c1.3-1.4,2.6-2.7,4-4c0.2-0.2,0.4-0.3,0.6-0.5C144.8,233.6,145,233.8,145,233.8z"/>
			</g>
		</g>
	</g>
	<g id="TimeSampleChart">
		<g id="darkCycle">
			<path fill="none" stroke="#555555" stroke-width="10" stroke-miterlimit="10" d="M114.4,175.9c-9,0-16.3-7.3-16.3-16.3
				c0-9,7.3-16.3,16.3-16.3"/>
		</g>
		<g id="lightCycle">
			<path fill="none" stroke="#FFF69F" stroke-width="10" stroke-miterlimit="10" d="M114.1,143.3c9,0,16.3,7.3,16.3,16.3
				c0,9-7.3,16.3-16.3,16.3"/>
		</g>
		<g id="labels" display="none">
			
				<text transform="matrix(4.489659e-11 1 -1 4.489659e-11 135.6689 138.7146)" display="inline" font-family="'HelveticaNeue-Thin'" font-size="8">24 &amp; 48 hour</text>
			<text transform="matrix(1 0 0 1 98.7393 146.4444)" display="inline" font-family="'HelveticaNeue-Thin'" font-size="8">injection</text>
			<line display="inline" fill="none" stroke="#000000" stroke-miterlimit="10" x1="110.9" y1="152.3" x2="110.9" y2="161.6"/>
			<text transform="matrix(1 0 0 1 135.4072 188.0537)" display="inline" font-family="'HelveticaNeue-Thin'" font-size="8">16 hour</text>
			<text transform="matrix(1 0 0 1 134.9072 197.0537)" display="inline" font-family="'HelveticaNeue-Thin'" font-size="8">injection</text>
			<line display="inline" fill="none" stroke="#000000" stroke-miterlimit="10" x1="123" y1="180.1" x2="131.3" y2="184.4"/>
			<text transform="matrix(1 0 0 1 63.9464 186.499)" display="inline" font-family="'HelveticaNeue-Thin'" font-size="8">8 hour</text>
			<text transform="matrix(1 0 0 1 61.1464 195.499)" display="inline" font-family="'HelveticaNeue-Thin'" font-size="8">injection</text>
			<line display="inline" fill="none" stroke="#000000" stroke-miterlimit="10" x1="99.8" y1="179.1" x2="91.5" y2="183.4"/>
			<text transform="matrix(1 0 0 1 62.4517 156.9199)" display="inline" font-family="'HelveticaNeue-Thin'" font-size="8">4 hour</text>
			<text transform="matrix(1 0 0 1 59.6517 165.9199)" display="inline" font-family="'HelveticaNeue-Thin'" font-size="8">injection</text>
			<line display="inline" fill="none" stroke="#000000" stroke-miterlimit="10" x1="100.4" y1="169.7" x2="92.1" y2="165.5"/>
		</g>
	</g>
	<g id="Botrytis_cinerea_at_48_Hours">
		
			<path id="Treated_Botrytis_cinerea_at_48_Hours" fill="#FFFFFF" stroke="#000000" stroke-width="0.5" stroke-linecap="round" stroke-linejoin="round" stroke-miterlimit="10" d="
			M454.8,253.4c-0.1-9.1,4.3-17,9.4-24.3c1.3,1.6,2,2.6,2.9,3.5c9.2,9.8,11.5,21.3,6.3,33.5c-3.7,8.9-5.5,18-4.7,27.5
			c0.1,1.6,0,3.3,0,4.9 M467.2,297.5c-0.3-3.7-0.3-7.3-0.9-11.1c-0.4-2.7-1.3-5.6-2.4-8.2c-1.4-3.5-3.7-6.8-4.7-10.2
			c-1.3-4.6-4.7-9.5-4.2-14.7 M466.3,250.1c-0.4,3.5-1,6.8-1.2,10.2c-0.1,3.6,0.1,7,0.4,10.6"/>
		
			<path id="Control_Botrytis_cinerea_at_48_Hours" fill="#FFFFFF" stroke="#000000" stroke-width="0.5" stroke-linecap="round" stroke-linejoin="round" stroke-miterlimit="10" d="
			M454.8,161.5c-0.1-9.1,4.3-17,9.4-24.3c1.3,1.6,2,2.6,2.9,3.5c9.2,9.8,11.5,21.3,6.3,33.5c-3.7,8.9-5.5,18-4.7,27.5
			c0.1,1.6,0,3.3,0,4.9 M467.2,205.6c-0.3-3.7-0.3-7.3-0.9-11.1c-0.4-2.7-1.3-5.6-2.4-8.2c-1.4-3.5-3.7-6.8-4.7-10.2
			c-1.3-4.6-4.7-9.5-4.2-14.7 M466.3,158.3c-0.4,3.5-1,6.8-1.2,10.2c-0.1,3.6,0.1,7,0.4,10.6"/>
	</g>
	<g id="Botrytis_cinerea_18_Hours">
		
			<path id="Treated_Botrytis_cinerea_at_18_Hours" fill="#FFFFFF" stroke="#000000" stroke-width="0.5" stroke-linecap="round" stroke-linejoin="round" stroke-miterlimit="10" d="
			M378.3,251.9c-0.1-9.1,4.3-17,9.4-24.3c1.3,1.6,2,2.6,2.9,3.5c9.2,9.8,11.5,21.3,6.3,33.5c-3.7,8.9-5.5,18-4.7,27.5
			c0.1,1.6,0,3.3,0,4.9 M390.7,296.1c-0.3-3.7-0.3-7.3-0.9-11.1c-0.4-2.7-1.3-5.6-2.4-8.2c-1.4-3.5-3.7-6.8-4.7-10.2
			c-1.3-4.6-4.7-9.5-4.2-14.7 M389.8,248.6c-0.4,3.5-1,6.8-1.2,10.2c-0.1,3.6,0.1,7,0.4,10.6"/>
		
			<path id="Control_Botrytis_cinerea_at_18_Hours" fill="#FFFFFF" stroke="#000000" stroke-width="0.5" stroke-linecap="round" stroke-linejoin="round" stroke-miterlimit="10" d="
			M378.3,160c-0.1-9.1,4.3-17,9.4-24.3c1.3,1.6,2,2.6,2.9,3.5c9.2,9.8,11.5,21.3,6.3,33.5c-3.7,8.9-5.5,18-4.7,27.5
			c0.1,1.6,0,3.3,0,4.9 M390.7,204.2c-0.3-3.7-0.3-7.3-0.9-11.1c-0.4-2.7-1.3-5.6-2.4-8.2c-1.4-3.5-3.7-6.8-4.7-10.2
			c-1.3-4.6-4.7-9.5-4.2-14.7 M389.8,156.8c-0.4,3.5-1,6.8-1.2,10.2c-0.1,3.6,0.1,7,0.4,10.6"/>
	</g>
</g>
<text transform="matrix(1 0 0 1 104.9961 162)" font-family="'HelveticaNeue'" font-size="8">24hr</text>
</svg>
