<?xml version="1.0" encoding="utf-8"?>
<!-- Generator: Adobe Illustrator 18.1.1, SVG Export Plug-In . SVG Version: 6.00 Build 0)  -->
<svg version="1.1" id="Layer_1" xmlns="http://www.w3.org/2000/svg" xmlns:xlink="http://www.w3.org/1999/xlink" x="0px" y="0px"
	 viewBox="0 0 900 600" enable-background="new 0 0 900 600" xml:space="preserve">
<g id="Botrytis_cinerea">
	<g id="Labels">
		<text transform="matrix(1 0 0 1 32.9314 97.314)" font-family="'HelveticaNeue-Italic'" font-size="18">Elicitors</text>
		<text transform="matrix(1 0 0 1 225.7711 76.6665)" font-family="'HelveticaNeue-Thin'" font-size="12">Infiltrated with Water</text>
		<text transform="matrix(1 0 0 1 241.7133 134.1665)" font-family="'HelveticaNeue-Thin'" font-size="12">Infiltrated with</text>
		<text transform="matrix(1 0 0 1 215.2133 148.5665)" font-family="'HelveticaNeue-Thin'" font-size="12">Bacterial-Derived Elicitor</text>
		<text transform="matrix(1 0 0 1 250.2986 161.1665)" font-family="'HelveticaNeue-Thin'" font-size="10">(1 uM flg22)</text>
		<text transform="matrix(1 0 0 1 241.7133 209.1665)" font-family="'HelveticaNeue-Thin'" font-size="12">Infiltrated with</text>
		<text transform="matrix(1 0 0 1 215.2133 223.5665)" font-family="'HelveticaNeue-Thin'" font-size="12">Bacterial-Derived Elicitor</text>
		<text transform="matrix(1 0 0 1 247.6038 236.1665)" font-family="'HelveticaNeue-Thin'" font-size="10">(10 uM HrpZ)</text>
		<text transform="matrix(1 0 0 1 369.8842 574.6665)" font-family="'HelveticaNeue-Thin'" font-size="10">1 hour</text>
		<text transform="matrix(1 0 0 1 449.4377 575.6665)" font-family="'HelveticaNeue-Thin'" font-size="10">4 hours</text>
		<text transform="matrix(1 0 0 1 104.9961 162)" font-family="'HelveticaNeue'" font-size="8">24hr</text>
		<text transform="matrix(1 0 0 1 241.8093 280.1665)" font-family="'HelveticaNeue-Thin'" font-size="12">Infiltrated with</text>
		<text transform="matrix(1 0 0 1 237.8093 294.5665)" font-family="'HelveticaNeue-Thin'" font-size="12">1mM CaCl2 + </text>
		<text transform="matrix(1 0 0 1 239.0093 308.9665)" font-family="'HelveticaNeue-Thin'" font-size="12">2.5mM MgCl2</text>
		<text transform="matrix(1 0 0 1 241.7133 354.7332)" font-family="'HelveticaNeue-Thin'" font-size="12">Infiltrated with</text>
		<text transform="matrix(1 0 0 1 215.2133 369.1332)" font-family="'HelveticaNeue-Thin'" font-size="12">Bacterial-Derived Elicitor</text>
		<text transform="matrix(1 0 0 1 241.2989 381.7332)" font-family="'HelveticaNeue-Thin'" font-size="10">(100 ug/ml LPS)</text>
		<text transform="matrix(1 0 0 1 215.7451 440.7332)" font-family="'HelveticaNeue-Thin'" font-size="12">Infiltrated with 1uM GST</text>
		<text transform="matrix(1 0 0 1 241.7133 503.6446)" font-family="'HelveticaNeue-Thin'" font-size="12">Infiltrated with</text>
		<text transform="matrix(1 0 0 1 210.5133 518.0446)" font-family="'HelveticaNeue-Thin'" font-size="12">Oomycete-Derived Elicitor</text>
		<text transform="matrix(1 0 0 1 237.8589 530.6446)" font-family="'HelveticaNeue-Thin'" font-size="10">(1 uM GST-NPP1)</text>
	</g>
	<g id="infoButton_Botrytis_cinerea">
		<circle fill="#039388" cx="121.2" cy="91.2" r="9.2"/>
		<text transform="matrix(1 0 0 1 119.4521 95.5)" fill="#FFFFFF" font-family="'HelveticaNeue-Bold'" font-size="12">i</text>
	</g>
	<g id="treatmentInfographic">
		<g id="root">
			<path fill="none" stroke="#000000" stroke-width="0.5" stroke-miterlimit="10" d="M110.4,296c0.8-2.1,0-4.2-0.7-5.9
				c-0.1-0.2-0.2-0.4-0.2-0.6c-1-2.9,1.6-5.7,1.6-5.7"/>
			<path fill="none" stroke="#000000" stroke-width="0.5" stroke-miterlimit="10" d="M118.3,262.9c0,0,2.3-4.1,4.1-5.9"/>
			<path fill="none" stroke="#000000" stroke-width="0.5" stroke-miterlimit="10" d="M123.1,272.4c-0.7-1.9-3.9-2.2-4-2.2"/>
			<path fill="none" stroke="#000000" stroke-width="0.5" stroke-miterlimit="10" d="M103.7,271.1c-2.2,0.7-6.8,3.6-7,3.7"/>
			<path fill="none" stroke="#000000" stroke-width="0.5" stroke-miterlimit="10" d="M107.8,271.2c-3.1-0.4-8.2,5.1-8.5,5.3"/>
			<path fill="none" stroke="#000000" stroke-width="0.5" stroke-miterlimit="10" d="M100.9,262c-8.2-0.9-13.7,3.5-13.8,3.6"/>
			<path fill="none" stroke="#000000" stroke-width="0.5" stroke-miterlimit="10" d="M109.1,261.9c-1.2-1.1-2.6-4.6-2.6-4.6"/>
			<path fill="none" stroke="#000000" stroke-width="0.5" stroke-miterlimit="10" d="M113.1,264.1c0,0,0.3,0.9,0.4,1.4"/>
			<path fill="none" stroke="#000000" stroke-width="0.5" stroke-miterlimit="10" d="M125,284.3c-1.4-3.1-4.8-6.6-4.9-6.6"/>
			<path fill="none" stroke="#000000" stroke-width="0.5" stroke-miterlimit="10" d="M111.8,262.7L111.8,262.7
				C111.7,262.7,111.7,262.7,111.8,262.7"/>
			<path fill="none" stroke="#000000" stroke-width="0.5" stroke-miterlimit="10" d="M117.4,286.6c-0.3-0.3-1.9-1.6-1.9-3.2
				c-0.1-1.5-0.5-3.4-1.3-5.4c-0.1-0.4-0.5-0.6-0.4-0.4c0.4-0.9,0.6-2.6,0.6-3.2c0-0.2,0-0.4,0-0.6c0-0.5,0.1-0.8,0.2-1.2
				c0.1-0.3,0.1-0.6,0.2-0.9"/>
			<path fill="none" stroke="#000000" stroke-width="0.5" stroke-miterlimit="10" d="M110.1,324.6c-0.1-0.9,0.2-1.6,0.7-2.6
				c0.2-1-0.1-3.2-0.5-4.8c-0.6-2.6,2.2-5.3,2.3-5.4l0.1,0.1c0.1-0.9,0.3-1.9,0.6-2.8c0.1-0.7,0.1-1.7,0.1-2.7
				c0-1.6-0.1-3.3,0.4-4.2c0.1-0.2,0.2-0.5,0.3-0.8c0.7-1.9,1.4-3.8,1.1-7.8c-1.5-3.6-1.1-2.5-1.6-3.3s-1.3-0.4-2-4.2
				c-0.7-3.8,0-5.2,0-7s0.9-6.2,1.2-7.5"/>
			<path fill="none" stroke="#000000" stroke-width="0.5" stroke-miterlimit="10" d="M119.5,330.7c-0.8-0.5-0.9-1.7-1-2.5
				c0-0.3,0-0.5-0.1-0.6c-1.1-1.1-0.9-2.3-0.6-3.8c0-1.4-1.1-2.3-1.5-2.6c0.1,0.6,0.1,1.2,0.1,1.5c-0.3,1.5-1,4.8,0.4,9.6
				c0.2,0.5,0.5,1,0.8,1.5l0,0c0.6,4.2,0.9,7.7,0.9,7.7l-0.1-1.6c0,0-0.5-1.8-1.1-6c-0.2-0.5-0.4-0.9-0.6-1.3l0,0
				c0-0.1,0-0.1-0.1-0.2c-1.1-2.2-2.1-4.1-1.9-7.4v-0.2c0.2-4.1,0.2-5.4-1.7-9.3c-0.3-0.9-0.3-2.6-0.3-3.7"/>
			<path fill="none" stroke="#000000" stroke-width="0.5" stroke-miterlimit="10" d="M120.5,311.3c0.3-3.2-0.5-4.2-1.1-5l-0.1-0.1
				c-0.8-1-0.8-2.2-0.7-4.7c0-2.6-1.4-3.6-1.9-3.9c0,1.1-0.1,2.2-0.3,2.9l-0.1,0.2c-0.8,1.9-1.3,3-1.1,5.3c0.1,1.7-0.3,3.7-0.6,4.9
				c-0.1,0.5-0.2,0.9-0.2,1.1c-0.2,1.1,0.3,2.9,0.8,3.5c0.4,0.7,0.6,1.7,0.8,2.4c0.1,0.3,0.1,0.6,0.2,0.8l0,0v0.3
				c0.1,0.5,0.2,1.1,0.3,1.7l0.1,0.4"/>
			<path fill="none" stroke="#000000" stroke-width="0.5" stroke-miterlimit="10" d="M113.8,277.6c-0.4,2-0.3,2-0.3,4
				s-0.3,3.1,0,4.1s0.8,1.8,1.2,2.3c0.9,1.3,1.8,2.5,1.9,4.3c0,0.4,0,0.9,0,1.4c0,1.1,0,2.6,0,3.8"/>
			<path fill="none" stroke="#000000" stroke-width="0.5" stroke-miterlimit="10" d="M136.4,259.8c-3-0.3-6,1.2-6.1,1.3h0.8
				c-2,0-4.5,0.3-6.9,1.1"/>
			<path fill="none" stroke="#000000" stroke-width="0.5" stroke-miterlimit="10" d="M137.9,262.7c-1.8-0.9-4.1-1.6-6.8-1.7"/>
			<path fill="none" stroke="#000000" stroke-width="0.5" stroke-miterlimit="10" d="M112.2,270.3c0.2-0.1,1-0.1,1.2-0.4
				c0.3-0.4,0.4-1.1,0.2-1.8l0,0c-0.1-0.2-0.3-0.4-0.4-0.7c-0.6-0.9-1.5-2.3-1.3-4.5"/>
			<path fill="none" stroke="#000000" stroke-width="0.5" stroke-miterlimit="10" d="M114.3,268L114.3,268c-0.2,1-0.1,1.8-0.1,1.8"
				/>
			<path fill="none" stroke="#000000" stroke-width="0.5" stroke-miterlimit="10" d="M126.5,263.4l14.7,5.1
				C132.6,261.1,126.5,263.4,126.5,263.4z"/>
			<line fill="none" stroke="#000000" stroke-width="0.5" stroke-miterlimit="10" x1="114.6" y1="267.4" x2="114.4" y2="267.8"/>
			<line fill="none" stroke="#000000" stroke-width="0.5" stroke-miterlimit="10" x1="114.4" y1="268" x2="114.4" y2="267.8"/>
			<line fill="none" stroke="#000000" stroke-width="0.5" stroke-miterlimit="10" x1="113.6" y1="262.2" x2="113.6" y2="262.5"/>
		</g>
		<path id="rosette" fill="none" stroke="#000000" stroke-width="0.5" stroke-miterlimit="10" d="M80.8,270.1c0,0-0.8-0.5,2.1-4.2
			c2.4-2.9,5.3-6.2,7.3-7.3c2.1-1.3,4.1-2.8,8.5-1.1c1.4,0.8,2.3,1.4,3.7,2.8c0.7,1.1,2.7,2,2.9,2.3c1,0.5,5.5,3.7,6.7,4.2
			c-1.2-1.1-5.1-4.5-6.4-5.1c-1.4-0.6-2.6-1.7-2.2-5.9c0.4-2.4,0.9-3.8,0.9-3.8c1,0.8,5,4.5,5.7,5.8c0.6,1,0.2,1.7,0.6,2.8
			c0.3,1,0.9,2.1,1.3,2.3c0.1-0.7,0.3-1.8,0.3-1.8c0.3,0.5,1.6,1.5,1.6,1.5c0.2,0.5,1,2.6,0.9,3.1c-0.1,0.8-0.3,2-0.3,2
			c0.6-0.8,2-2,2.6-4.7c0.2-1.5,0.1-4.5,1.1-5.8c0.9-1.3,1.6-2.6,3.7-3.1c1.1-0.3,2.9-0.8,3.5,1.9c0.1,0.9-0.1,2.1-2.2,4.5
			c-1.4,1.3-4.5,4-4.5,4.1c-0.7,0.8-1,1.2-1,1.2c1.4-1,5.7-3.3,6.3-3.5c0.6-0.8,4.5-5,9.5-5.6c2.2-0.2,7.4,1.2,8.9,1.9
			c-0.8,0.4-2.2,1.2-2.4,1.9c-0.3,0.8-1,2.3-1.9,2.3c0.9,0.6,4,2.6,5.2,4.3c1,1.1,4.1,3.4,6.1,3.9c-0.3,0.5-6.5,2.9-9.6,1.9
			s-4.8-2.9-7.7-5.2c-1.7-1.2-4.4-3-8.4-2.3c-2.2,0.5-6.2,1.8-8,3.2c-0.3,0.4-0.3,0.4-0.3,0.4c1,0,8.3-0.7,9.7,1.1
			c1.2,1.6,2.5,3.4,2.5,3.4c-0.7,0.6-4.4,3.6-8.2,0c-1.5-1.7-2.7-3.3-4-3.2c0.6,0.8,3.6,4.8,5.6,5.9c2.2,0.6,8.1,1.4,9.5,6.1
			c0.8,2.6,1,5.7,1,5.7c-1.3,0.6-5.5,3.5-11.3-3.8c-1.3-2.6-1.6-2.8-2.7-8.3c-0.8-1.5-1.5-3-2.8-4c-1.3-0.1-1.9-0.1-2,0
			c-1,0.1-3.8,0.3-4.9,2.1c-1.3,1.7-3.3,4.1-7.7,6.4c-2.2,1-4.4,2.1-7.7-1.9c-0.8-1.3-1.2-3.9,0.1-5.4c1.4-1.6,3.9-4.7,6.4-4.6
			c1.7,0.1,8.4,1.3,13.3,2.2c-0.6-0.8-4.3-5.7-12-5.8c-1.5,0.1-3.4,0.4-5.7,1.9c-2.6,1.6-5.9,4.5-10,3.2
			C83.4,269.6,81.9,269.5,80.8,270.1z"/>
	</g>
	<g id="all_samples_4_hours">
		
			<path id="NPP_at_4_Hours" fill="#FFFFFF" stroke="#000000" stroke-width="0.5" stroke-linecap="round" stroke-linejoin="round" stroke-miterlimit="10" d="
			M453.1,508.3c-0.1-8,3.8-14.9,8.2-21.3c1.1,1.4,1.8,2.3,2.5,3.1c8.1,8.6,10.1,18.6,5.5,29.3c-3.2,7.8-4.8,15.8-4.1,24.1
			c0.1,1.4,0,2.9,0,4.3 M464,547c-0.3-3.2-0.3-6.4-0.8-9.7c-0.4-2.4-1.1-4.9-2.1-7.2c-1.2-3.1-3.2-5.9-4.1-8.9
			c-1.1-4-4.1-8.3-3.7-12.9 M463.2,505.4c-0.4,3.1-0.9,5.9-1.1,8.9c-0.1,3.1,0.1,6.1,0.4,9.3"/>
		
			<path id="GST_at_4_Hours" fill="#FFFFFF" stroke="#000000" stroke-width="0.5" stroke-linecap="round" stroke-linejoin="round" stroke-miterlimit="10" d="
			M453.1,433.7c-0.1-8,3.8-14.9,8.2-21.3c1.1,1.4,1.8,2.3,2.5,3.1c8.1,8.6,10.1,18.6,5.5,29.3c-3.2,7.8-4.8,15.8-4.1,24.1
			c0.1,1.4,0,2.9,0,4.3 M464,472.4c-0.3-3.2-0.3-6.4-0.8-9.7c-0.4-2.4-1.1-4.9-2.1-7.2c-1.2-3.1-3.2-5.9-4.1-8.9
			c-1.1-4-4.1-8.3-3.7-12.9 M463.2,430.8c-0.4,3.1-0.9,6-1.1,8.9c-0.1,3.1,0.1,6.1,0.4,9.3"/>
		
			<path id="LPS_at_4_Hours" fill="#FFFFFF" stroke="#000000" stroke-width="0.5" stroke-linecap="round" stroke-linejoin="round" stroke-miterlimit="10" d="
			M453.1,359.2c-0.1-8,3.8-14.9,8.2-21.3c1.1,1.4,1.8,2.3,2.5,3.1c8.1,8.6,10.1,18.6,5.5,29.3c-3.2,7.8-4.8,15.8-4.1,24.1
			c0.1,1.4,0,2.9,0,4.3 M464,397.9c-0.3-3.2-0.3-6.4-0.8-9.7c-0.4-2.4-1.1-4.9-2.1-7.2c-1.2-3.1-3.2-5.9-4.1-8.9
			c-1.1-4-4.1-8.3-3.7-12.9 M463.2,356.3c-0.4,3.1-0.9,6-1.1,8.9c-0.1,3.1,0.1,6.1,0.4,9.3"/>
		
			<path id="CaMg_at_4_Hours" fill="#FFFFFF" stroke="#000000" stroke-width="0.5" stroke-linecap="round" stroke-linejoin="round" stroke-miterlimit="10" d="
			M453.1,284.6c-0.1-8,3.8-14.9,8.2-21.3c1.1,1.4,1.8,2.3,2.5,3.1c8.1,8.6,10.1,18.6,5.5,29.3c-3.2,7.8-4.8,15.8-4.1,24.1
			c0.1,1.4,0,2.9,0,4.3 M464,323.3c-0.3-3.2-0.3-6.4-0.8-9.7c-0.4-2.4-1.1-4.9-2.1-7.2c-1.2-3.1-3.2-5.9-4.1-8.9
			c-1.1-4-4.1-8.3-3.7-12.9 M463.2,281.7c-0.4,3.1-0.9,6-1.1,8.9c-0.1,3.2,0.1,6.1,0.4,9.3"/>
		
			<path id="HrpZ_at_4_Hours" fill="#FFFFFF" stroke="#000000" stroke-width="0.5" stroke-linecap="round" stroke-linejoin="round" stroke-miterlimit="10" d="
			M453.1,210.1c-0.1-8,3.8-14.9,8.2-21.3c1.1,1.4,1.8,2.3,2.5,3.1c8.1,8.6,10.1,18.6,5.5,29.3c-3.2,7.8-4.8,15.8-4.1,24.1
			c0.1,1.4,0,2.9,0,4.3 M464,248.7c-0.3-3.2-0.3-6.4-0.8-9.7c-0.4-2.4-1.1-4.9-2.1-7.2c-1.2-3.1-3.2-5.9-4.1-8.9
			c-1.1-4-4.1-8.3-3.7-12.9 M463.2,207.2c-0.4,3.1-0.9,6-1.1,8.9c-0.1,3.2,0.1,6.1,0.4,9.3"/>
		
			<path id="FLG22_at_4_Hours" fill="#FFFFFF" stroke="#000000" stroke-width="0.5" stroke-linecap="round" stroke-linejoin="round" stroke-miterlimit="10" d="
			M453.1,135.5c-0.1-8,3.8-14.9,8.2-21.3c1.1,1.4,1.8,2.3,2.5,3.1c8.1,8.6,10.1,18.6,5.5,29.3c-3.2,7.8-4.8,15.8-4.1,24.1
			c0.1,1.4,0,2.9,0,4.3 M464,174.2c-0.3-3.2-0.3-6.4-0.8-9.7c-0.4-2.4-1.1-4.9-2.1-7.2c-1.2-3.1-3.2-5.9-4.1-8.9
			c-1.1-4-4.1-8.3-3.7-12.9 M463.2,132.6c-0.4,3.1-0.9,5.9-1.1,8.9c-0.1,3.2,0.1,6.1,0.4,9.3"/>
		
			<path id="H2O_at_4_Hours" fill="#FFFFFF" stroke="#000000" stroke-width="0.5" stroke-linecap="round" stroke-linejoin="round" stroke-miterlimit="10" d="
			M453.1,61c-0.1-8,3.8-14.9,8.2-21.3c1.1,1.4,1.8,2.3,2.5,3.1c8.1,8.6,10.1,18.6,5.5,29.3c-3.2,7.8-4.8,15.8-4.1,24.1
			c0.1,1.4,0,2.9,0,4.3 M464,99.6c-0.3-3.2-0.3-6.4-0.8-9.7c-0.4-2.4-1.1-4.9-2.1-7.2c-1.2-3.1-3.2-5.9-4.1-8.9
			c-1.1-4-4.1-8.3-3.7-12.9 M463.2,58.2c-0.4,3.1-0.9,6-1.1,8.9c-0.1,3.2,0.1,6.1,0.4,9.3"/>
	</g>
	<g id="all_samples_1_hour">
		
			<path id="NPP_at_1_Hour" fill="#FFFFFF" stroke="#000000" stroke-width="0.5" stroke-linecap="round" stroke-linejoin="round" stroke-miterlimit="10" d="
			M378.1,508.3c-0.1-8,3.8-14.9,8.2-21.3c1.1,1.4,1.8,2.3,2.5,3.1c8.1,8.6,10.1,18.6,5.5,29.3c-3.2,7.8-4.8,15.8-4.1,24.1
			c0.1,1.4,0,2.9,0,4.3 M389,547c-0.3-3.2-0.3-6.4-0.8-9.7c-0.4-2.4-1.1-4.9-2.1-7.2c-1.2-3.1-3.2-5.9-4.1-8.9
			c-1.1-4-4.1-8.3-3.7-12.9 M388.2,505.4c-0.4,3.1-0.9,5.9-1.1,8.9c-0.1,3.1,0.1,6.1,0.4,9.3"/>
		
			<path id="GST_at_1_Hour" fill="#FFFFFF" stroke="#000000" stroke-width="0.5" stroke-linecap="round" stroke-linejoin="round" stroke-miterlimit="10" d="
			M378.1,433.7c-0.1-8,3.8-14.9,8.2-21.3c1.1,1.4,1.8,2.3,2.5,3.1c8.1,8.6,10.1,18.6,5.5,29.3c-3.2,7.8-4.8,15.8-4.1,24.1
			c0.1,1.4,0,2.9,0,4.3 M389,472.4c-0.3-3.2-0.3-6.4-0.8-9.7c-0.4-2.4-1.1-4.9-2.1-7.2c-1.2-3.1-3.2-5.9-4.1-8.9
			c-1.1-4-4.1-8.3-3.7-12.9 M388.2,430.8c-0.4,3.1-0.9,6-1.1,8.9c-0.1,3.1,0.1,6.1,0.4,9.3"/>
		
			<path id="LPS_at_1_Hour" fill="#FFFFFF" stroke="#000000" stroke-width="0.5" stroke-linecap="round" stroke-linejoin="round" stroke-miterlimit="10" d="
			M378.1,359.2c-0.1-8,3.8-14.9,8.2-21.3c1.1,1.4,1.8,2.3,2.5,3.1c8.1,8.6,10.1,18.6,5.5,29.3c-3.2,7.8-4.8,15.8-4.1,24.1
			c0.1,1.4,0,2.9,0,4.3 M389,397.9c-0.3-3.2-0.3-6.4-0.8-9.7c-0.4-2.4-1.1-4.9-2.1-7.2c-1.2-3.1-3.2-5.9-4.1-8.9
			c-1.1-4-4.1-8.3-3.7-12.9 M388.2,356.3c-0.4,3.1-0.9,6-1.1,8.9c-0.1,3.1,0.1,6.1,0.4,9.3"/>
		
			<path id="CaMg_at_1_Hour" fill="#FFFFFF" stroke="#000000" stroke-width="0.5" stroke-linecap="round" stroke-linejoin="round" stroke-miterlimit="10" d="
			M378.1,284.6c-0.1-8,3.8-14.9,8.2-21.3c1.1,1.4,1.8,2.3,2.5,3.1c8.1,8.6,10.1,18.6,5.5,29.3c-3.2,7.8-4.8,15.8-4.1,24.1
			c0.1,1.4,0,2.9,0,4.3 M389,323.3c-0.3-3.2-0.3-6.4-0.8-9.7c-0.4-2.4-1.1-4.9-2.1-7.2c-1.2-3.1-3.2-5.9-4.1-8.9
			c-1.1-4-4.1-8.3-3.7-12.9 M388.2,281.7c-0.4,3.1-0.9,6-1.1,8.9c-0.1,3.2,0.1,6.1,0.4,9.3"/>
		
			<path id="HrpZ_at_1_Hour" fill="#FFFFFF" stroke="#000000" stroke-width="0.5" stroke-linecap="round" stroke-linejoin="round" stroke-miterlimit="10" d="
			M378.1,210.1c-0.1-8,3.8-14.9,8.2-21.3c1.1,1.4,1.8,2.3,2.5,3.1c8.1,8.6,10.1,18.6,5.5,29.3c-3.2,7.8-4.8,15.8-4.1,24.1
			c0.1,1.4,0,2.9,0,4.3 M389,248.7c-0.3-3.2-0.3-6.4-0.8-9.7c-0.4-2.4-1.1-4.9-2.1-7.2c-1.2-3.1-3.2-5.9-4.1-8.9
			c-1.1-4-4.1-8.3-3.7-12.9 M388.2,207.2c-0.4,3.1-0.9,6-1.1,8.9c-0.1,3.2,0.1,6.1,0.4,9.3"/>
		
			<path id="FLG22_at_1_Hour" fill="#FFFFFF" stroke="#000000" stroke-width="0.5" stroke-linecap="round" stroke-linejoin="round" stroke-miterlimit="10" d="
			M378.1,135.5c-0.1-8,3.8-14.9,8.2-21.3c1.1,1.4,1.8,2.3,2.5,3.1c8.1,8.6,10.1,18.6,5.5,29.3c-3.2,7.8-4.8,15.8-4.1,24.1
			c0.1,1.4,0,2.9,0,4.3 M389,174.2c-0.3-3.2-0.3-6.4-0.8-9.7c-0.4-2.4-1.1-4.9-2.1-7.2c-1.2-3.1-3.2-5.9-4.1-8.9
			c-1.1-4-4.1-8.3-3.7-12.9 M388.2,132.6c-0.4,3.1-0.9,5.9-1.1,8.9c-0.1,3.2,0.1,6.1,0.4,9.3"/>
		
			<path id="H2O_at_1_Hour" fill="#FFFFFF" stroke="#000000" stroke-width="0.5" stroke-linecap="round" stroke-linejoin="round" stroke-miterlimit="10" d="
			M378.1,61c-0.1-8,3.8-14.9,8.2-21.3c1.1,1.4,1.8,2.3,2.5,3.1c8.1,8.6,10.1,18.6,5.5,29.3c-3.2,7.8-4.8,15.8-4.1,24.1
			c0.1,1.4,0,2.9,0,4.3 M389,99.6c-0.3-3.2-0.3-6.4-0.8-9.7c-0.4-2.4-1.1-4.9-2.1-7.2c-1.2-3.1-3.2-5.9-4.1-8.9
			c-1.1-4-4.1-8.3-3.7-12.9 M388.2,58.2c-0.4,3.1-0.9,6-1.1,8.9c-0.1,3.2,0.1,6.1,0.4,9.3"/>
	</g>
	<g id="TimeSampleChart">
		<g id="ligtCycle">
			<path fill="none" stroke="#FFF69F" stroke-width="10" stroke-miterlimit="10" d="M102.4,148.2c6.2-6.5,16.5-6.7,23-0.5
				c2.2,2.1,3.7,4.7,4.4,7.5"/>
		</g>
		<g id="darkCycle">
			<path fill="none" stroke="#555555" stroke-width="10" stroke-miterlimit="10" d="M129.8,155.2c1.4,5.3,0.1,11.2-4,15.5
				c-6.2,6.5-16.5,6.7-23,0.5s-6.7-16.5-0.5-23"/>
		</g>
		<g id="labels">
			<line fill="none" stroke="#000000" stroke-miterlimit="10" x1="113.9" y1="132.6" x2="113.9" y2="146.9"/>
			<text transform="matrix(1 0 0 1 137.9912 148.4747)" font-family="'HelveticaNeue-Thin'" font-size="8">4 hour sample</text>
			<line fill="none" stroke="#000000" stroke-miterlimit="10" x1="124.8" y1="153" x2="133.3" y2="148.8"/>
			<text transform="matrix(1 0 0 1 123.293 138.6152)" font-family="'HelveticaNeue-Thin'" font-size="8">1 hour sample</text>
			<line fill="none" stroke="#000000" stroke-miterlimit="10" x1="117.7" y1="148.1" x2="122.1" y2="140.2"/>
			<text transform="matrix(1 0 0 1 93.2833 128.4405)" font-family="'HelveticaNeue-Thin'" font-size="8">INJECTION</text>
		</g>
	</g>
</g>
<g id="syringe">
	<path d="M145.2,242.6c-0.8-0.2-1.7-0.3-2.5-0.6c-1-0.4-1.7-0.1-2.4,0.7c-0.8,0.9-4.2,4.2-5.1,5.1c-0.3,0.3-0.6,0.6-1,0.2
		c-0.4-0.4,0-0.7,0.2-1c1-1,4.5-4.5,5.5-5.5c0.5-0.4,0.6-0.8,0.4-1.4V240c-1.2-2.4-0.3-4,1.6-5.7c2.9-2.6,5.5-5.5,8.3-8.2
		c0.4-0.4,0.7-0.7,0.1-1.1c-0.3-0.2-0.5-0.6-0.1-0.9c0.3-0.3,0.6,0,0.9,0.2c2.3,2.3,4.6,4.6,6.9,6.9c0.3,0.3,0.5,0.6,0.2,0.9
		s-0.7,0.2-0.9-0.1c-0.5-0.6-0.8-0.3-1.1,0.1c-3.3,3.3-6.6,6.7-10,10C146,242.3,145.8,242.7,145.2,242.6z"/>
	<path fill="#030303" d="M161.5,226.4c0,0.3-0.1,0.5-0.3,0.6c-0.3,0.2-0.5,0-0.7-0.2c-0.5-0.7-0.8-0.4-1.2,0.1s-0.9,0.9-1.4,1.4
		c-0.2,0.2-0.5,0.6-0.9,0.2s-0.1-0.7,0.2-1c0.5-0.5,1.3-1,1.6-1.7c0.6-1.1-0.7-1.3-1.2-1.9c-0.2-0.3-0.4-1.2-1.2-0.5
		c-0.5,0.5-1.1,1.1-1.6,1.6c-0.3,0.3-0.6,0.6-1,0.2s0-0.6,0.2-0.9c0.3-0.4,0.7-0.7,1.1-1.1c0.5-0.5,1.3-1,0.3-1.8
		c-0.3-0.2-0.1-0.5,0.1-0.7c0.3-0.2,0.6,0,0.8,0.2c1,0.9,1.9,1.9,2.9,2.9c0.7,0.7,1.4,1.4,2,2C161.4,226.1,161.5,226.3,161.5,226.4z
		"/>
	<path fill="#FFFFFF" d="M149.5,231.2c0,0.3-0.2,0.5-0.5,0.5s-1.6-1.2-1.6-1.6c0-0.3,0.2-0.5,0.5-0.5
		C148.3,229.6,149.6,230.9,149.5,231.2z"/>
	<path fill="#FFFFFF" d="M144.3,233.3c0.3,0,1.6,1.2,1.6,1.6c0,0.3-0.2,0.6-0.5,0.5c-0.7-0.3-1.2-0.8-1.5-1.5
		C143.8,233.6,144,233.4,144.3,233.3z"/>
	<path fill="#FFFFFF" d="M142.8,235.4c0.3,0,1.6,1.3,1.6,1.6s-0.2,0.5-0.5,0.5s-1.5-1.3-1.5-1.6
		C142.3,235.6,142.5,235.4,142.8,235.4z"/>
	<path fill="#FFFFFF" d="M148,233.3c0,0.3-0.2,0.6-0.5,0.4c-0.7-0.3-1.2-0.8-1.5-1.5c-0.1-0.2,0.2-0.5,0.5-0.5S148,233,148,233.3z"
		/>
	<path fill="#FFFFFF" d="M150.1,228.1c0.3,0,1.5,1.2,1.5,1.6c0,0.3-0.3,0.5-0.5,0.4c-0.7-0.3-1.2-0.8-1.5-1.5
		C149.5,228.4,149.8,228.2,150.1,228.1z"/>
</g>
</svg>
