<?xml version="1.0" encoding="utf-8"?>
<!-- Generator: Adobe Illustrator 18.1.1, SVG Export Plug-In . SVG Version: 6.00 Build 0)  -->
<svg version="1.1" id="Layer_1" xmlns="http://www.w3.org/2000/svg" xmlns:xlink="http://www.w3.org/1999/xlink" x="0px" y="0px"
	 viewBox="0 0 900 600" enable-background="new 0 0 900 600" xml:space="preserve">
<g id="Erysiphe_orontii">
	<g id="Labels">
		<text transform="matrix(1 0 0 1 32.9314 97.314)" font-family="'HelveticaNeue-Italic'" font-size="18">Hyaloperonospora arabidopsidis</text>
		<text transform="matrix(1 0 0 1 229.5798 163.6665)" font-family="'HelveticaNeue-Thin'" font-size="12">Wild type Col-0 plants</text>
		<text transform="matrix(1 0 0 1 235.0637 266.1665)" font-family="'HelveticaNeue-ThinItalic'" font-size="12">rpp4 </text>
		<text transform="matrix(1 0 0 1 261.7637 266.1665)" font-family="'HelveticaNeue-Thin'" font-size="12">mutant plants</text>
		<text transform="matrix(1 0 0 1 373.0443 342.6665)" font-family="'HelveticaNeue-Thin'" font-size="10">Day 0</text>
		<text transform="matrix(1 0 0 1 442.8181 342.6665)" font-family="'HelveticaNeue-Thin'" font-size="10">0.5 days</text>
		<text transform="matrix(1 0 0 1 104.9961 162)" font-family="'HelveticaNeue'" font-size="8">24hr</text>
		<text transform="matrix(1 0 0 1 515.1505 342.6665)" font-family="'HelveticaNeue-Thin'" font-size="10">2 days</text>
		<text transform="matrix(1 0 0 1 586.704 342.6665)" font-family="'HelveticaNeue-Thin'" font-size="10">4 days</text>
		<text transform="matrix(1 0 0 1 661.143 343.6665)" font-family="'HelveticaNeue-Thin'" font-size="10">6 days</text>
	</g>
	<g id="infoButton_Botrytis_cinerea">
		<circle fill="#8800D8" cx="316.2" cy="91.2" r="9.2"/>
		<text transform="matrix(1 0 0 1 314.4521 95.5)" fill="#FFFFFF" font-family="'HelveticaNeue-Bold'" font-size="12">i</text>
	</g>
	<g id="treatmentInfographic">
		<g id="root">
			<path fill="none" stroke="#000000" stroke-width="0.5" stroke-miterlimit="10" d="M110.4,296c0.8-2.1,0-4.2-0.7-5.9
				c-0.1-0.2-0.2-0.4-0.2-0.6c-1-2.9,1.6-5.7,1.6-5.7"/>
			<path fill="none" stroke="#000000" stroke-width="0.5" stroke-miterlimit="10" d="M118.3,262.9c0,0,2.3-4.1,4.1-5.9"/>
			<path fill="none" stroke="#000000" stroke-width="0.5" stroke-miterlimit="10" d="M123.1,272.4c-0.7-1.9-3.9-2.2-4-2.2"/>
			<path fill="none" stroke="#000000" stroke-width="0.5" stroke-miterlimit="10" d="M103.7,271.1c-2.2,0.7-6.8,3.6-7,3.7"/>
			<path fill="none" stroke="#000000" stroke-width="0.5" stroke-miterlimit="10" d="M107.8,271.2c-3.1-0.4-8.2,5.1-8.5,5.3"/>
			<path fill="none" stroke="#000000" stroke-width="0.5" stroke-miterlimit="10" d="M100.9,262c-8.2-0.9-13.7,3.5-13.8,3.6"/>
			<path fill="none" stroke="#000000" stroke-width="0.5" stroke-miterlimit="10" d="M109.1,261.9c-1.2-1.1-2.6-4.6-2.6-4.6"/>
			<path fill="none" stroke="#000000" stroke-width="0.5" stroke-miterlimit="10" d="M113.1,264.1c0,0,0.3,0.9,0.4,1.4"/>
			<path fill="none" stroke="#000000" stroke-width="0.5" stroke-miterlimit="10" d="M125,284.3c-1.4-3.1-4.8-6.6-4.9-6.6"/>
			<path fill="none" stroke="#000000" stroke-width="0.5" stroke-miterlimit="10" d="M111.8,262.7L111.8,262.7
				C111.7,262.7,111.7,262.7,111.8,262.7"/>
			<path fill="none" stroke="#000000" stroke-width="0.5" stroke-miterlimit="10" d="M117.4,286.6c-0.3-0.3-1.9-1.6-1.9-3.2
				c-0.1-1.5-0.5-3.4-1.3-5.4c-0.1-0.4-0.5-0.6-0.4-0.4c0.4-0.9,0.6-2.6,0.6-3.2c0-0.2,0-0.4,0-0.6c0-0.5,0.1-0.8,0.2-1.2
				c0.1-0.3,0.1-0.6,0.2-0.9"/>
			<path fill="none" stroke="#000000" stroke-width="0.5" stroke-miterlimit="10" d="M110.1,324.6c-0.1-0.9,0.2-1.6,0.7-2.6
				c0.2-1-0.1-3.2-0.5-4.8c-0.6-2.6,2.2-5.3,2.3-5.4l0.1,0.1c0.1-0.9,0.3-1.9,0.6-2.8c0.1-0.7,0.1-1.7,0.1-2.7
				c0-1.6-0.1-3.3,0.4-4.2c0.1-0.2,0.2-0.5,0.3-0.8c0.7-1.9,1.4-3.8,1.1-7.8c-1.5-3.6-1.1-2.5-1.6-3.3s-1.3-0.4-2-4.2
				c-0.7-3.8,0-5.2,0-7s0.9-6.2,1.2-7.5"/>
			<path fill="none" stroke="#000000" stroke-width="0.5" stroke-miterlimit="10" d="M119.5,330.7c-0.8-0.5-0.9-1.7-1-2.5
				c0-0.3,0-0.5-0.1-0.6c-1.1-1.1-0.9-2.3-0.6-3.8c0-1.4-1.1-2.3-1.5-2.6c0.1,0.6,0.1,1.2,0.1,1.5c-0.3,1.5-1,4.8,0.4,9.6
				c0.2,0.5,0.5,1,0.8,1.5l0,0c0.6,4.2,0.9,7.7,0.9,7.7l-0.1-1.6c0,0-0.5-1.8-1.1-6c-0.2-0.5-0.4-0.9-0.6-1.3l0,0
				c0-0.1,0-0.1-0.1-0.2c-1.1-2.2-2.1-4.1-1.9-7.4v-0.2c0.2-4.1,0.2-5.4-1.7-9.3c-0.3-0.9-0.3-2.6-0.3-3.7"/>
			<path fill="none" stroke="#000000" stroke-width="0.5" stroke-miterlimit="10" d="M120.5,311.3c0.3-3.2-0.5-4.2-1.1-5l-0.1-0.1
				c-0.8-1-0.8-2.2-0.7-4.7c0-2.6-1.4-3.6-1.9-3.9c0,1.1-0.1,2.2-0.3,2.9l-0.1,0.2c-0.8,1.9-1.3,3-1.1,5.3c0.1,1.7-0.3,3.7-0.6,4.9
				c-0.1,0.5-0.2,0.9-0.2,1.1c-0.2,1.1,0.3,2.9,0.8,3.5c0.4,0.7,0.6,1.7,0.8,2.4c0.1,0.3,0.1,0.6,0.2,0.8l0,0v0.3
				c0.1,0.5,0.2,1.1,0.3,1.7l0.1,0.4"/>
			<path fill="none" stroke="#000000" stroke-width="0.5" stroke-miterlimit="10" d="M113.8,277.6c-0.4,2-0.3,2-0.3,4
				s-0.3,3.1,0,4.1s0.8,1.8,1.2,2.3c0.9,1.3,1.8,2.5,1.9,4.3c0,0.4,0,0.9,0,1.4c0,1.1,0,2.6,0,3.8"/>
			<path fill="none" stroke="#000000" stroke-width="0.5" stroke-miterlimit="10" d="M136.4,259.8c-3-0.3-6,1.2-6.1,1.3h0.8
				c-2,0-4.5,0.3-6.9,1.1"/>
			<path fill="none" stroke="#000000" stroke-width="0.5" stroke-miterlimit="10" d="M137.9,262.7c-1.8-0.9-4.1-1.6-6.8-1.7"/>
			<path fill="none" stroke="#000000" stroke-width="0.5" stroke-miterlimit="10" d="M112.2,270.3c0.2-0.1,1-0.1,1.2-0.4
				c0.3-0.4,0.4-1.1,0.2-1.8l0,0c-0.1-0.2-0.3-0.4-0.4-0.7c-0.6-0.9-1.5-2.3-1.3-4.5"/>
			<path fill="none" stroke="#000000" stroke-width="0.5" stroke-miterlimit="10" d="M114.3,268L114.3,268c-0.2,1-0.1,1.8-0.1,1.8"
				/>
			<path fill="none" stroke="#000000" stroke-width="0.5" stroke-miterlimit="10" d="M126.5,263.4l14.7,5.1
				C132.6,261.1,126.5,263.4,126.5,263.4z"/>
			<line fill="none" stroke="#000000" stroke-width="0.5" stroke-miterlimit="10" x1="114.6" y1="267.4" x2="114.4" y2="267.8"/>
			<line fill="none" stroke="#000000" stroke-width="0.5" stroke-miterlimit="10" x1="114.4" y1="268" x2="114.4" y2="267.8"/>
			<line fill="none" stroke="#000000" stroke-width="0.5" stroke-miterlimit="10" x1="113.6" y1="262.2" x2="113.6" y2="262.5"/>
		</g>
		<path id="rosette" fill="none" stroke="#000000" stroke-width="0.5" stroke-miterlimit="10" d="M80.8,270.1c0,0-0.8-0.5,2.1-4.2
			c2.4-2.9,5.3-6.2,7.3-7.3c2.1-1.3,4.1-2.8,8.5-1.1c1.4,0.8,2.3,1.4,3.7,2.8c0.7,1.1,2.7,2,2.9,2.3c1,0.5,5.5,3.7,6.7,4.2
			c-1.2-1.1-5.1-4.5-6.4-5.1c-1.4-0.6-2.6-1.7-2.2-5.9c0.4-2.4,0.9-3.8,0.9-3.8c1,0.8,5,4.5,5.7,5.8c0.6,1,0.2,1.7,0.6,2.8
			c0.3,1,0.9,2.1,1.3,2.3c0.1-0.7,0.3-1.8,0.3-1.8c0.3,0.5,1.6,1.5,1.6,1.5c0.2,0.5,1,2.6,0.9,3.1c-0.1,0.8-0.3,2-0.3,2
			c0.6-0.8,2-2,2.6-4.7c0.2-1.5,0.1-4.5,1.1-5.8c0.9-1.3,1.6-2.6,3.7-3.1c1.1-0.3,2.9-0.8,3.5,1.9c0.1,0.9-0.1,2.1-2.2,4.5
			c-1.4,1.3-4.5,4-4.5,4.1c-0.7,0.8-1,1.2-1,1.2c1.4-1,5.7-3.3,6.3-3.5c0.6-0.8,4.5-5,9.5-5.6c2.2-0.2,7.4,1.2,8.9,1.9
			c-0.8,0.4-2.2,1.2-2.4,1.9c-0.3,0.8-1,2.3-1.9,2.3c0.9,0.6,4,2.6,5.2,4.3c1,1.1,4.1,3.4,6.1,3.9c-0.3,0.5-6.5,2.9-9.6,1.9
			s-4.8-2.9-7.7-5.2c-1.7-1.2-4.4-3-8.4-2.3c-2.2,0.5-6.2,1.8-8,3.2c-0.3,0.4-0.3,0.4-0.3,0.4c1,0,8.3-0.7,9.7,1.1
			c1.2,1.6,2.5,3.4,2.5,3.4c-0.7,0.6-4.4,3.6-8.2,0c-1.5-1.7-2.7-3.3-4-3.2c0.6,0.8,3.6,4.8,5.6,5.9c2.2,0.6,8.1,1.4,9.5,6.1
			c0.8,2.6,1,5.7,1,5.7c-1.3,0.6-5.5,3.5-11.3-3.8c-1.3-2.6-1.6-2.8-2.7-8.3c-0.8-1.5-1.5-3-2.8-4c-1.3-0.1-1.9-0.1-2,0
			c-1,0.1-3.8,0.3-4.9,2.1c-1.3,1.7-3.3,4.1-7.7,6.4c-2.2,1-4.4,2.1-7.7-1.9c-0.8-1.3-1.2-3.9,0.1-5.4c1.4-1.6,3.9-4.7,6.4-4.6
			c1.7,0.1,8.4,1.3,13.3,2.2c-0.6-0.8-4.3-5.7-12-5.8c-1.5,0.1-3.4,0.4-5.7,1.9c-2.6,1.6-5.9,4.5-10,3.2
			C83.4,269.6,81.9,269.5,80.8,270.1z"/>
	</g>
	<g id="TimeSampleChart">
		<g id="darkCycle">
			<path fill="none" stroke="#555555" stroke-width="10" stroke-miterlimit="10" d="M114.4,175.9c-9,0-16.3-7.3-16.3-16.3
				s7.3-16.3,16.3-16.3"/>
		</g>
		<g id="lightCycle">
			<path fill="none" stroke="#FFF69F" stroke-width="10" stroke-miterlimit="10" d="M114.1,143.3c9,0,16.3,7.3,16.3,16.3
				s-7.3,16.3-16.3,16.3"/>
		</g>
		<g id="labels" display="none">
			
				<text transform="matrix(4.489659e-11 0.2718 -1 1.220425e-11 144.0195 246.8399)" display="inline" font-family="'HelveticaNeue-Thin'" font-size="34.4286">24 &amp; 48 hour</text>
			<text transform="matrix(1 0 0 1 98.7393 295.9715)" display="inline" font-family="'HelveticaNeue-Thin'" font-size="8">injection</text>
			<line display="inline" fill="none" stroke="#000000" stroke-miterlimit="10" x1="110.9" y1="152.3" x2="110.9" y2="161.6"/>
			<text transform="matrix(1 0 0 1 135.4072 295.9715)" display="inline" font-family="'HelveticaNeue-Thin'" font-size="8">16 hour</text>
			<text transform="matrix(1 0 0 1 134.9072 295.9715)" display="inline" font-family="'HelveticaNeue-Thin'" font-size="8">injection</text>
			<line display="inline" fill="none" stroke="#000000" stroke-miterlimit="10" x1="123" y1="180.1" x2="131.3" y2="184.4"/>
			<text transform="matrix(1 0 0 1 63.9464 295.9714)" display="inline" font-family="'HelveticaNeue-Thin'" font-size="8">8 hour</text>
			<text transform="matrix(1 0 0 1 61.1464 295.9714)" display="inline" font-family="'HelveticaNeue-Thin'" font-size="8">injection</text>
			<line display="inline" fill="none" stroke="#000000" stroke-miterlimit="10" x1="99.8" y1="179.1" x2="91.5" y2="183.4"/>
			<text transform="matrix(1 0 0 1 62.4517 295.9715)" display="inline" font-family="'HelveticaNeue-Thin'" font-size="8">4 hour</text>
			<text transform="matrix(1 0 0 1 59.6517 295.9715)" display="inline" font-family="'HelveticaNeue-Thin'" font-size="8">injection</text>
			<line display="inline" fill="none" stroke="#000000" stroke-miterlimit="10" x1="100.4" y1="169.7" x2="92.1" y2="165.5"/>
		</g>
		<text transform="matrix(1 0 0 1 89.4913 110.4444)" font-family="'HelveticaNeue-Thin'" font-size="8">6 days sample</text>
		<text transform="matrix(1 0 0 1 89.4913 120.0444)" font-family="'HelveticaNeue-Thin'" font-size="8">4 days sample</text>
		<text transform="matrix(1 0 0 1 89.4913 129.6444)" font-family="'HelveticaNeue-Thin'" font-size="8">2 days sample</text>
		<line fill="none" stroke="#000000" stroke-miterlimit="10" x1="113.9" y1="136.3" x2="113.9" y2="147.6"/>
		<text transform="matrix(1 0 0 1 87.2676 196.4444)" font-family="'HelveticaNeue-Thin'" font-size="8">0.5 day sample</text>
		<line fill="none" stroke="#000000" stroke-miterlimit="10" x1="113.9" y1="171.3" x2="113.9" y2="182.6"/>
	</g>
	<g id="Hyaloperonsospora_arabidopsis_6_days">
		
			<path id="rpp4_Emwa1_6dpi_rep1_rep2" fill="#FFFFFF" stroke="#000000" stroke-width="0.5" stroke-linecap="round" stroke-linejoin="round" stroke-miterlimit="10" d="
			M662.2,254.4c-0.1-9.1,4.3-17,9.4-24.3c1.3,1.6,2,2.6,2.9,3.5c9.2,9.8,11.5,21.3,6.3,33.5c-3.7,8.9-5.5,18-4.7,27.5
			c0.1,1.6,0,3.3,0,4.9 M674.6,298.6c-0.3-3.7-0.3-7.3-0.9-11.1c-0.4-2.7-1.3-5.6-2.4-8.2c-1.4-3.5-3.7-6.8-4.7-10.2
			c-1.3-4.6-4.7-9.5-4.2-14.7 M673.7,251.1c-0.4,3.5-1,6.8-1.2,10.2c-0.1,3.6,0.1,7,0.4,10.6"/>
		
			<path id="WT_Emwa1_6dpi_rep1_rep2" fill="#FFFFFF" stroke="#000000" stroke-width="0.5" stroke-linecap="round" stroke-linejoin="round" stroke-miterlimit="10" d="
			M662.2,161c-0.1-9.1,4.3-17,9.4-24.3c1.3,1.6,2,2.6,2.9,3.5c9.2,9.8,11.5,21.3,6.3,33.5c-3.7,8.9-5.5,18-4.7,27.5
			c0.1,1.6,0,3.3,0,4.9 M674.6,205.2c-0.3-3.7-0.3-7.3-0.9-11.1c-0.4-2.7-1.3-5.6-2.4-8.2c-1.4-3.5-3.7-6.8-4.7-10.2
			c-1.3-4.6-4.7-9.5-4.2-14.7 M673.7,157.8c-0.4,3.5-1,6.8-1.2,10.2c-0.1,3.6,0.1,7,0.4,10.6"/>
	</g>
	<g id="Hyaloperonsospora_arabidopsis_4_days">
		
			<path id="rpp4_Emwa1_4dpi_rep1_rep2" fill="#FFFFFF" stroke="#000000" stroke-width="0.5" stroke-linecap="round" stroke-linejoin="round" stroke-miterlimit="10" d="
			M588.7,253.4c-0.1-9.1,4.3-17,9.4-24.3c1.3,1.6,2,2.6,2.9,3.5c9.2,9.8,11.5,21.3,6.3,33.5c-3.7,8.9-5.5,18-4.7,27.5
			c0.1,1.6,0,3.3,0,4.9 M601.1,297.5c-0.3-3.7-0.3-7.3-0.9-11.1c-0.4-2.7-1.3-5.6-2.4-8.2c-1.4-3.5-3.7-6.8-4.7-10.2
			c-1.3-4.6-4.7-9.5-4.2-14.7 M600.2,250.1c-0.4,3.5-1,6.8-1.2,10.2c-0.1,3.6,0.1,7,0.4,10.6"/>
		
			<path id="WT_Emwa1_4dpi_rep1_rep2" fill="#FFFFFF" stroke="#000000" stroke-width="0.5" stroke-linecap="round" stroke-linejoin="round" stroke-miterlimit="10" d="
			M588.7,160c-0.1-9.1,4.3-17,9.4-24.3c1.3,1.6,2,2.6,2.9,3.5c9.2,9.8,11.5,21.3,6.3,33.5c-3.7,8.9-5.5,18-4.7,27.5
			c0.1,1.6,0,3.3,0,4.9 M601.1,204.1c-0.3-3.7-0.3-7.3-0.9-11.1c-0.4-2.7-1.3-5.6-2.4-8.2c-1.4-3.5-3.7-6.8-4.7-10.2
			c-1.3-4.6-4.7-9.5-4.2-14.7 M600.2,156.8c-0.4,3.5-1,6.8-1.2,10.2c-0.1,3.6,0.1,7,0.4,10.6"/>
	</g>
	<g id="Hyaloperonsospora_arabidopsis_2_days">
		
			<path id="rpp4_Emwa1_2dpi_rep1_rep2" fill="#FFFFFF" stroke="#000000" stroke-width="0.5" stroke-linecap="round" stroke-linejoin="round" stroke-miterlimit="10" d="
			M516.2,253.4c-0.1-9.1,4.3-17,9.4-24.3c1.3,1.6,2,2.6,2.9,3.5c9.2,9.8,11.5,21.3,6.3,33.5c-3.7,8.9-5.5,18-4.7,27.5
			c0.1,1.6,0,3.3,0,4.9 M528.6,297.6c-0.3-3.7-0.3-7.3-0.9-11.1c-0.4-2.7-1.3-5.6-2.4-8.2c-1.4-3.5-3.7-6.8-4.7-10.2
			c-1.3-4.6-4.7-9.5-4.2-14.7 M527.7,250.1c-0.4,3.5-1,6.8-1.2,10.2c-0.1,3.6,0.1,7,0.4,10.6"/>
		
			<path id="WT_Emwa1_2dpi_rep1_rep2" fill="#FFFFFF" stroke="#000000" stroke-width="0.5" stroke-linecap="round" stroke-linejoin="round" stroke-miterlimit="10" d="
			M516.2,160c-0.1-9.1,4.3-17,9.4-24.3c1.3,1.6,2,2.6,2.9,3.5c9.2,9.8,11.5,21.3,6.3,33.5c-3.7,8.9-5.5,18-4.7,27.5
			c0.1,1.6,0,3.3,0,4.9 M528.6,204.2c-0.3-3.7-0.3-7.3-0.9-11.1c-0.4-2.7-1.3-5.6-2.4-8.2c-1.4-3.5-3.7-6.8-4.7-10.2
			c-1.3-4.6-4.7-9.5-4.2-14.7 M527.7,156.8c-0.4,3.5-1,6.8-1.2,10.2c-0.1,3.6,0.1,7,0.4,10.6"/>
	</g>
	<g id="Hyaloperonsospora_arabidopsis_05_days">
		
			<path id="rpp4_Emwa1_05dpi_rep1_rep2" fill="#FFFFFF" stroke="#000000" stroke-width="0.5" stroke-linecap="round" stroke-linejoin="round" stroke-miterlimit="10" d="
			M446.8,253.4c-0.1-9.1,4.3-17,9.4-24.3c1.3,1.6,2,2.6,2.9,3.5c9.2,9.8,11.5,21.3,6.3,33.5c-3.7,8.9-5.5,18-4.7,27.5
			c0.1,1.6,0,3.3,0,4.9 M459.2,297.5c-0.3-3.7-0.3-7.3-0.9-11.1c-0.4-2.7-1.3-5.6-2.4-8.2c-1.4-3.5-3.7-6.8-4.7-10.2
			c-1.3-4.6-4.7-9.5-4.2-14.7 M458.3,250.1c-0.4,3.5-1,6.8-1.2,10.2c-0.1,3.6,0.1,7,0.4,10.6"/>
		
			<path id="WT_Emwa1_05dpi_rep1_rep2" fill="#FFFFFF" stroke="#000000" stroke-width="0.5" stroke-linecap="round" stroke-linejoin="round" stroke-miterlimit="10" d="
			M446.8,160c-0.1-9.1,4.3-17,9.4-24.3c1.3,1.6,2,2.6,2.9,3.5c9.2,9.8,11.5,21.3,6.3,33.5c-3.7,8.9-5.5,18-4.7,27.5
			c0.1,1.6,0,3.3,0,4.9 M459.2,204.1c-0.3-3.7-0.3-7.3-0.9-11.1c-0.4-2.7-1.3-5.6-2.4-8.2c-1.4-3.5-3.7-6.8-4.7-10.2
			c-1.3-4.6-4.7-9.5-4.2-14.7 M458.3,156.8c-0.4,3.5-1,6.8-1.2,10.2c-0.1,3.6,0.1,7,0.4,10.6"/>
	</g>
	<g id="Hyaloperonsospora_arabidopsis_0_days">
		
			<path id="rpp4_Emwa1_0dpi_rep1_rep2" fill="#FFFFFF" stroke="#000000" stroke-width="0.5" stroke-linecap="round" stroke-linejoin="round" stroke-miterlimit="10" d="
			M378.3,253.4c-0.1-9.1,4.3-17,9.4-24.3c1.3,1.6,2,2.6,2.9,3.5c9.2,9.8,11.5,21.3,6.3,33.5c-3.7,8.9-5.5,18-4.7,27.5
			c0.1,1.6,0,3.3,0,4.9 M390.7,297.6c-0.3-3.7-0.3-7.3-0.9-11.1c-0.4-2.7-1.3-5.6-2.4-8.2c-1.4-3.5-3.7-6.8-4.7-10.2
			c-1.3-4.6-4.7-9.5-4.2-14.7 M389.8,250.1c-0.4,3.5-1,6.8-1.2,10.2c-0.1,3.6,0.1,7,0.4,10.6"/>
		
			<path id="WT_Emwa1_0dpi_rep1_rep2" fill="#FFFFFF" stroke="#000000" stroke-width="0.5" stroke-linecap="round" stroke-linejoin="round" stroke-miterlimit="10" d="
			M378.3,160c-0.1-9.1,4.3-17,9.4-24.3c1.3,1.6,2,2.6,2.9,3.5c9.2,9.8,11.5,21.3,6.3,33.5c-3.7,8.9-5.5,18-4.7,27.5
			c0.1,1.6,0,3.3,0,4.9 M390.7,204.2c-0.3-3.7-0.3-7.3-0.9-11.1c-0.4-2.7-1.3-5.6-2.4-8.2c-1.4-3.5-3.7-6.8-4.7-10.2
			c-1.3-4.6-4.7-9.5-4.2-14.7 M389.8,156.8c-0.4,3.5-1,6.8-1.2,10.2c-0.1,3.6,0.1,7,0.4,10.6"/>
	</g>
</g>
<g id="spray_bottle">
	<g>
		<g>
			<path d="M163.4,242.9c-0.2,0.2-0.5,0.4-0.6,0.7c-1,1.2-2.2,1.4-3.5,0.5c-1.9-1.3-3.7-2.7-5.6-4c-0.7-0.5-1.2-1.2-1.2-2
				c0-0.2-0.1-0.4-0.1-0.5c-0.2-1.2-0.2-1.2-1.2-2.6c1.1-1.5,2.2-3,3.3-4.6c1.1,0.8,2.3,0.5,3.5,0.3c0.7-0.1,1.4,0,2,0.5
				c2,1.4,3.9,2.8,5.9,4.2c1.1,0.8,1.3,2,0.6,3.2c-0.2,0.3-0.4,0.7-0.6,1.1C165,240.7,164.2,241.8,163.4,242.9z"/>
			<path d="M143.9,230.9c-0.2,0.2-0.3,0.4-0.4,0.5c-0.5,0.7-0.4,0.7-1.1,0.2c-0.4-0.3-0.9-0.6-1.3-0.9c-0.3-0.2-0.3-0.3-0.1-0.6
				c1.3-1.7,2.6-3.5,3.9-5.2c0.6-0.8,1.5-1.3,2.5-1.5c0.4-0.1,0.7-0.1,1.1,0c0.4,0,0.6,0.3,0.5,0.7c-0.2,0.7-0.3,1.3-0.5,2
				c-0.1,0.2-0.2,0.5-0.2,0.7c-0.1,0.7-0.1,1.3,0.5,1.8c-0.5,0.7-1,1.4-1.5,2.1c-0.6-0.3-1.3-0.6-2-0.3c0.5,1.4,1,2.7,1.4,4.1
				c0.1,0.3,0.2,0.5-0.2,0.6C145.6,233.6,144.8,232.3,143.9,230.9z M145.1,225.9c0,0.1-0.1,0.3-0.2,0.6c0.2,0,0.5,0,0.7,0
				c0.1,0,0.1,0,0.2,0c1.4,0.3,1.7-0.7,1.9-1.7c0-0.1,0.1-0.4,0-0.4c-0.1-0.1-0.3-0.1-0.5,0C146.4,224.6,145.8,225.1,145.1,225.9z"
				/>
			<path d="M153.7,229.9c-1.1,1.5-2.2,3-3.3,4.5c-0.9-0.6-1.7-1.2-2.5-1.9c-0.4-0.3-0.4-0.9-0.1-1.4c0.6-0.9,1.3-1.8,2-2.7
				c0.4-0.5,1-0.6,1.5-0.3C152.1,228.7,152.9,229.3,153.7,229.9z M152.4,230.1c-0.5-0.4-1-0.7-1.4-1c-0.1-0.1-0.4,0-0.5,0.1
				c-0.6,0.8-1.2,1.6-1.8,2.5c-0.1,0.1-0.1,0.3,0,0.4c0.5,0.4,1,0.8,1.5,1.1C151,232.1,151.7,231.1,152.4,230.1z"/>
			<path d="M140.4,231.2c0.7,0.5,1.3,1,2,1.5c-0.5,0.5-1,1-1.5,1.4c-0.5-0.3-0.9-0.7-1.5-1.1C139.8,232.4,140.1,231.8,140.4,231.2z"
				/>
			<path d="M139.2,234.8c0.3,0.2,0.4,0.7,0.2,1s-0.7,0.4-1,0.2s-0.4-0.7-0.2-1S138.9,234.6,139.2,234.8z M135.6,236
				c-0.2,0.3-0.2,0.8,0.2,1c0.3,0.2,0.8,0.2,1-0.2c0.2-0.3,0.2-0.8-0.2-1C136.3,235.6,135.8,235.7,135.6,236z M138,237.8
				c-0.2,0.3-0.2,0.8,0.2,1c0.3,0.2,0.8,0.2,1-0.2c0.2-0.3,0.2-0.8-0.2-1C138.7,237.4,138.2,237.5,138,237.8z M130.1,238.3
				c-0.2,0.3-0.2,0.8,0.2,1s0.8,0.2,1-0.2s0.2-0.8-0.2-1C130.8,237.9,130.3,238,130.1,238.3z M132.6,240.1c-0.2,0.3-0.2,0.8,0.2,1
				s0.8,0.2,1-0.2s0.2-0.8-0.2-1C133.2,239.7,132.8,239.7,132.6,240.1z M135,241.8c-0.2,0.3-0.2,0.8,0.2,1s0.8,0.2,1-0.2
				s0.2-0.8-0.2-1C135.7,241.4,135.3,241.5,135,241.8z M137.5,243.6c-0.2,0.3-0.2,0.8,0.2,1s0.8,0.2,1-0.2s0.2-0.8-0.2-1
				C138.2,243.2,137.7,243.3,137.5,243.6z M127.5,239.5c-0.2,0.3-0.2,0.8,0.2,1c0.3,0.2,0.8,0.2,1-0.2c0.2-0.3,0.2-0.8-0.2-1
				S127.7,239.2,127.5,239.5z M129.9,241.3c-0.2,0.3-0.2,0.8,0.2,1c0.3,0.2,0.8,0.2,1-0.2c0.2-0.3,0.2-0.8-0.2-1
				S130.2,241,129.9,241.3z M132.4,243.1c-0.2,0.3-0.2,0.8,0.2,1c0.3,0.2,0.8,0.2,1-0.2c0.2-0.3,0.2-0.8-0.2-1
				S132.6,242.8,132.4,243.1z M134.9,244.9c-0.2,0.3-0.2,0.8,0.2,1c0.3,0.2,0.8,0.2,1-0.2c0.2-0.3,0.2-0.8-0.2-1
				S135.1,244.5,134.9,244.9z M133,237c-0.2,0.3-0.2,0.8,0.2,1c0.3,0.2,0.8,0.2,1-0.2c0.2-0.3,0.2-0.8-0.2-1S133.2,236.7,133,237z
				 M135.4,238.8c-0.2,0.3-0.2,0.8,0.2,1c0.3,0.2,0.8,0.2,1-0.2c0.2-0.3,0.2-0.8-0.2-1S135.6,238.5,135.4,238.8z M137.9,240.6
				c-0.2,0.3-0.2,0.8,0.2,1c0.3,0.2,0.8,0.2,1-0.2c0.2-0.3,0.2-0.8-0.2-1S138.2,240.3,137.9,240.6z M137.3,246.6
				c-0.2,0.3-0.2,0.8,0.2,1s0.8,0.2,1-0.2s0.2-0.8-0.2-1S137.5,246.3,137.3,246.6z"/>
		</g>
	</g>
	<text transform="matrix(1 0 0 1 43.5 216)" font-family="'HelveticaNeue-Thin'" font-size="8">sprayed with 5 x 10</text>
	<text transform="matrix(1 0 0 1 109.1633 213.336)" font-family="'HelveticaNeue-Thin'" font-size="4.664">6 </text>
	<text transform="matrix(1 0 0 1 113.0532 216)" font-family="'HelveticaNeue-Thin'" font-size="8">spores / ml</text>
	<text transform="matrix(1 0 0 1 43.5 225.6001)" font-family="'HelveticaNeue-Thin'" font-size="8">in distilled H</text>
	<text transform="matrix(1 0 0 1 83.1477 228.2639)" font-family="'HelveticaNeue-Thin'" font-size="4.664">2</text>
	<text transform="matrix(1 0 0 1 85.7407 225.6001)" font-family="'HelveticaNeue-Thin'" font-size="8">0</text>
</g>
</svg>
