<svg id="Layer_1" xmlns="http://www.w3.org/2000/svg" viewBox="20 70 700 300"><g id="Erysiphe_orontii"><g id="Labels"><text transform="translate(32.9314 97.314)" font-family="'HelveticaNeue-Italic'" font-size="18">Hyaloperonospora arabidopsidis</text><text transform="translate(229.5798 163.6665)" font-family="'HelveticaNeue-Thin'" font-size="12">Wild type Col-0 plants</text><text transform="translate(235.0637 266.1665)" font-family="'HelveticaNeue-ThinItalic'" font-size="12">rpp4</text><text transform="translate(261.7637 266.1665)" font-family="'HelveticaNeue-Thin'" font-size="12">mutant plants</text><text transform="translate(373.0443 342.6665)" font-family="'HelveticaNeue-Thin'" font-size="10">Day 0</text><text transform="translate(442.8181 342.6665)" font-family="'HelveticaNeue-Thin'" font-size="10">0.5 days</text><text transform="translate(104.9961 162)" font-family="'HelveticaNeue'" font-size="8">24hr</text><text transform="translate(515.1505 342.6665)" font-family="'HelveticaNeue-Thin'" font-size="10">2 days</text><text transform="translate(586.704 342.6665)" font-family="'HelveticaNeue-Thin'" font-size="10">4 days</text><text transform="translate(661.143 343.6665)" font-family="'HelveticaNeue-Thin'" font-size="10">6 days</text></g><g id="infoButton_Botrytis_cinerea"><circle fill="#8800D8" cx="316.2" cy="91.2" r="9.2"/><text transform="translate(314.4521 95.5)" fill="#FFFFFF" font-family="'HelveticaNeue-Bold'" font-size="12">i</text></g><g id="treatmentInfographic"><g id="root"><path fill="none" stroke="#000000" stroke-width=".5" stroke-miterlimit="10" d="M110.4 296c.8-2.1 0-4.2-.7-5.9-.1-.2-.2-.4-.2-.6-1-2.9 1.6-5.7 1.6-5.7M118.3 262.9s2.3-4.1 4.1-5.9M123.1 272.4c-.7-1.9-3.9-2.2-4-2.2M103.7 271.1c-2.2.7-6.8 3.6-7 3.7M107.8 271.2c-3.1-.4-8.2 5.1-8.5 5.3M100.9 262c-8.2-.9-13.7 3.5-13.8 3.6M109.1 261.9c-1.2-1.1-2.6-4.6-2.6-4.6M113.1 264.1s.3.9.4 1.4M125 284.3c-1.4-3.1-4.8-6.6-4.9-6.6M111.8 262.7c-.1 0-.1 0 0 0M117.4 286.6c-.3-.3-1.9-1.6-1.9-3.2-.1-1.5-.5-3.4-1.3-5.4-.1-.4-.5-.6-.4-.4.4-.9.6-2.6.6-3.2v-.6c0-.5.1-.8.2-1.2.1-.3.1-.6.2-.9"/><path fill="none" stroke="#000000" stroke-width=".5" stroke-miterlimit="10" d="M110.1 324.6c-.1-.9.2-1.6.7-2.6.2-1-.1-3.2-.5-4.8-.6-2.6 2.2-5.3 2.3-5.4l.1.1c.1-.9.3-1.9.6-2.8.1-.7.1-1.7.1-2.7 0-1.6-.1-3.3.4-4.2.1-.2.2-.5.3-.8.7-1.9 1.4-3.8 1.1-7.8-1.5-3.6-1.1-2.5-1.6-3.3s-1.3-.4-2-4.2c-.7-3.8 0-5.2 0-7s.9-6.2 1.2-7.5"/><path fill="none" stroke="#000000" stroke-width=".5" stroke-miterlimit="10" d="M119.5 330.7c-.8-.5-.9-1.7-1-2.5 0-.3 0-.5-.1-.6-1.1-1.1-.9-2.3-.6-3.8 0-1.4-1.1-2.3-1.5-2.6.1.6.1 1.2.1 1.5-.3 1.5-1 4.8.4 9.6.2.5.5 1 .8 1.5.6 4.2.9 7.7.9 7.7l-.1-1.6s-.5-1.8-1.1-6c-.2-.5-.4-.9-.6-1.3 0-.1 0-.1-.1-.2-1.1-2.2-2.1-4.1-1.9-7.4v-.2c.2-4.1.2-5.4-1.7-9.3-.3-.9-.3-2.6-.3-3.7"/><path fill="none" stroke="#000000" stroke-width=".5" stroke-miterlimit="10" d="M120.5 311.3c.3-3.2-.5-4.2-1.1-5l-.1-.1c-.8-1-.8-2.2-.7-4.7 0-2.6-1.4-3.6-1.9-3.9 0 1.1-.1 2.2-.3 2.9l-.1.2c-.8 1.9-1.3 3-1.1 5.3.1 1.7-.3 3.7-.6 4.9-.1.5-.2.9-.2 1.1-.2 1.1.3 2.9.8 3.5.4.7.6 1.7.8 2.4.1.3.1.6.2.8v.3c.1.5.2 1.1.3 1.7l.1.4M113.8 277.6c-.4 2-.3 2-.3 4s-.3 3.1 0 4.1.8 1.8 1.2 2.3c.9 1.3 1.8 2.5 1.9 4.3V297.5M136.4 259.8c-3-.3-6 1.2-6.1 1.3h.8c-2 0-4.5.3-6.9 1.1M137.9 262.7c-1.8-.9-4.1-1.6-6.8-1.7M112.2 270.3c.2-.1 1-.1 1.2-.4.3-.4.4-1.1.2-1.8-.1-.2-.3-.4-.4-.7-.6-.9-1.5-2.3-1.3-4.5M114.3 268c-.2 1-.1 1.8-.1 1.8M126.5 263.4l14.7 5.1c-8.6-7.4-14.7-5.1-14.7-5.1zM114.6 267.4l-.2.4M114.4 268v-.2M113.6 262.2v.3"/></g><path id="rosette" fill="none" stroke="#000000" stroke-width=".5" stroke-miterlimit="10" d="M80.8 270.1s-.8-.5 2.1-4.2c2.4-2.9 5.3-6.2 7.3-7.3 2.1-1.3 4.1-2.8 8.5-1.1 1.4.8 2.3 1.4 3.7 2.8.7 1.1 2.7 2 2.9 2.3 1 .5 5.5 3.7 6.7 4.2-1.2-1.1-5.1-4.5-6.4-5.1-1.4-.6-2.6-1.7-2.2-5.9.4-2.4.9-3.8.9-3.8 1 .8 5 4.5 5.7 5.8.6 1 .2 1.7.6 2.8.3 1 .9 2.1 1.3 2.3.1-.7.3-1.8.3-1.8.3.5 1.6 1.5 1.6 1.5.2.5 1 2.6.9 3.1-.1.8-.3 2-.3 2 .6-.8 2-2 2.6-4.7.2-1.5.1-4.5 1.1-5.8.9-1.3 1.6-2.6 3.7-3.1 1.1-.3 2.9-.8 3.5 1.9.1.9-.1 2.1-2.2 4.5-1.4 1.3-4.5 4-4.5 4.1-.7.8-1 1.2-1 1.2 1.4-1 5.7-3.3 6.3-3.5.6-.8 4.5-5 9.5-5.6 2.2-.2 7.4 1.2 8.9 1.9-.8.4-2.2 1.2-2.4 1.9-.3.8-1 2.3-1.9 2.3.9.6 4 2.6 5.2 4.3 1 1.1 4.1 3.4 6.1 3.9-.3.5-6.5 2.9-9.6 1.9s-4.8-2.9-7.7-5.2c-1.7-1.2-4.4-3-8.4-2.3-2.2.5-6.2 1.8-8 3.2l-.3.4c1 0 8.3-.7 9.7 1.1 1.2 1.6 2.5 3.4 2.5 3.4-.7.6-4.4 3.6-8.2 0-1.5-1.7-2.7-3.3-4-3.2.6.8 3.6 4.8 5.6 5.9 2.2.6 8.1 1.4 9.5 6.1.8 2.6 1 5.7 1 5.7-1.3.6-5.5 3.5-11.3-3.8-1.3-2.6-1.6-2.8-2.7-8.3-.8-1.5-1.5-3-2.8-4-1.3-.1-1.9-.1-2 0-1 .1-3.8.3-4.9 2.1-1.3 1.7-3.3 4.1-7.7 6.4-2.2 1-4.4 2.1-7.7-1.9-.8-1.3-1.2-3.9.1-5.4 1.4-1.6 3.9-4.7 6.4-4.6 1.7.1 8.4 1.3 13.3 2.2-.6-.8-4.3-5.7-12-5.8-1.5.1-3.4.4-5.7 1.9-2.6 1.6-5.9 4.5-10 3.2-1-.4-2.5-.5-3.6.1z"/></g><g id="TimeSampleChart"><path fill="none" stroke="#555555" stroke-width="10" stroke-miterlimit="10" d="M114.4 175.9c-9 0-16.3-7.3-16.3-16.3s7.3-16.3 16.3-16.3" id="darkCycle"/><path fill="none" stroke="#FFF69F" stroke-width="10" stroke-miterlimit="10" d="M114.1 143.3c9 0 16.3 7.3 16.3 16.3s-7.3 16.3-16.3 16.3" id="lightCycle"/><text transform="translate(89.4913 110.4444)" font-family="'HelveticaNeue-Thin'" font-size="8">6 days sample</text><text transform="translate(89.4913 120.0444)" font-family="'HelveticaNeue-Thin'" font-size="8">4 days sample</text><text transform="translate(89.4913 129.6444)" font-family="'HelveticaNeue-Thin'" font-size="8">2 days sample</text><path fill="none" stroke="#000000" stroke-miterlimit="10" d="M113.9 136.3v11.3"/><text transform="translate(87.2676 196.4444)" font-family="'HelveticaNeue-Thin'" font-size="8">0.5 day sample</text><path fill="none" stroke="#000000" stroke-miterlimit="10" d="M113.9 171.3v11.3"/></g><g id="Hyaloperonsospora_arabidopsis_6_days"><path id="rpp4_Emwa1_6dpi_rep1_rep2" fill="#FFFFFF" stroke="#000000" stroke-width=".5" stroke-linecap="round" stroke-linejoin="round" stroke-miterlimit="10" d="M662.2 254.4c-.1-9.1 4.3-17 9.4-24.3 1.3 1.6 2 2.6 2.9 3.5 9.2 9.8 11.5 21.3 6.3 33.5-3.7 8.9-5.5 18-4.7 27.5.1 1.6 0 3.3 0 4.9m-1.5-.9c-.3-3.7-.3-7.3-.9-11.1-.4-2.7-1.3-5.6-2.4-8.2-1.4-3.5-3.7-6.8-4.7-10.2-1.3-4.6-4.7-9.5-4.2-14.7m11.3-3.3c-.4 3.5-1 6.8-1.2 10.2-.1 3.6.1 7 .4 10.6"/><path id="WT_Emwa1_6dpi_rep1_rep2" fill="#FFFFFF" stroke="#000000" stroke-width=".5" stroke-linecap="round" stroke-linejoin="round" stroke-miterlimit="10" d="M662.2 161c-.1-9.1 4.3-17 9.4-24.3 1.3 1.6 2 2.6 2.9 3.5 9.2 9.8 11.5 21.3 6.3 33.5-3.7 8.9-5.5 18-4.7 27.5.1 1.6 0 3.3 0 4.9m-1.5-.9c-.3-3.7-.3-7.3-.9-11.1-.4-2.7-1.3-5.6-2.4-8.2-1.4-3.5-3.7-6.8-4.7-10.2-1.3-4.6-4.7-9.5-4.2-14.7m11.3-3.2c-.4 3.5-1 6.8-1.2 10.2-.1 3.6.1 7 .4 10.6"/></g><g id="Hyaloperonsospora_arabidopsis_4_days"><path id="rpp4_Emwa1_4dpi_rep1_rep2" fill="#FFFFFF" stroke="#000000" stroke-width=".5" stroke-linecap="round" stroke-linejoin="round" stroke-miterlimit="10" d="M588.7 253.4c-.1-9.1 4.3-17 9.4-24.3 1.3 1.6 2 2.6 2.9 3.5 9.2 9.8 11.5 21.3 6.3 33.5-3.7 8.9-5.5 18-4.7 27.5.1 1.6 0 3.3 0 4.9m-1.5-1c-.3-3.7-.3-7.3-.9-11.1-.4-2.7-1.3-5.6-2.4-8.2-1.4-3.5-3.7-6.8-4.7-10.2-1.3-4.6-4.7-9.5-4.2-14.7m11.3-3.2c-.4 3.5-1 6.8-1.2 10.2-.1 3.6.1 7 .4 10.6"/><path id="WT_Emwa1_4dpi_rep1_rep2" fill="#FFFFFF" stroke="#000000" stroke-width=".5" stroke-linecap="round" stroke-linejoin="round" stroke-miterlimit="10" d="M588.7 160c-.1-9.1 4.3-17 9.4-24.3 1.3 1.6 2 2.6 2.9 3.5 9.2 9.8 11.5 21.3 6.3 33.5-3.7 8.9-5.5 18-4.7 27.5.1 1.6 0 3.3 0 4.9m-1.5-1c-.3-3.7-.3-7.3-.9-11.1-.4-2.7-1.3-5.6-2.4-8.2-1.4-3.5-3.7-6.8-4.7-10.2-1.3-4.6-4.7-9.5-4.2-14.7m11.3-3.1c-.4 3.5-1 6.8-1.2 10.2-.1 3.6.1 7 .4 10.6"/></g><g id="Hyaloperonsospora_arabidopsis_2_days"><path id="rpp4_Emwa1_2dpi_rep1_rep2" fill="#FFFFFF" stroke="#000000" stroke-width=".5" stroke-linecap="round" stroke-linejoin="round" stroke-miterlimit="10" d="M516.2 253.4c-.1-9.1 4.3-17 9.4-24.3 1.3 1.6 2 2.6 2.9 3.5 9.2 9.8 11.5 21.3 6.3 33.5-3.7 8.9-5.5 18-4.7 27.5.1 1.6 0 3.3 0 4.9m-1.5-.9c-.3-3.7-.3-7.3-.9-11.1-.4-2.7-1.3-5.6-2.4-8.2-1.4-3.5-3.7-6.8-4.7-10.2-1.3-4.6-4.7-9.5-4.2-14.7m11.3-3.3c-.4 3.5-1 6.8-1.2 10.2-.1 3.6.1 7 .4 10.6"/><path id="WT_Emwa1_2dpi_rep1_rep2" fill="#FFFFFF" stroke="#000000" stroke-width=".5" stroke-linecap="round" stroke-linejoin="round" stroke-miterlimit="10" d="M516.2 160c-.1-9.1 4.3-17 9.4-24.3 1.3 1.6 2 2.6 2.9 3.5 9.2 9.8 11.5 21.3 6.3 33.5-3.7 8.9-5.5 18-4.7 27.5.1 1.6 0 3.3 0 4.9m-1.5-.9c-.3-3.7-.3-7.3-.9-11.1-.4-2.7-1.3-5.6-2.4-8.2-1.4-3.5-3.7-6.8-4.7-10.2-1.3-4.6-4.7-9.5-4.2-14.7m11.3-3.2c-.4 3.5-1 6.8-1.2 10.2-.1 3.6.1 7 .4 10.6"/></g><g id="Hyaloperonsospora_arabidopsis_05_days"><path id="rpp4_Emwa1_05dpi_rep1_rep2" fill="#FFFFFF" stroke="#000000" stroke-width=".5" stroke-linecap="round" stroke-linejoin="round" stroke-miterlimit="10" d="M446.8 253.4c-.1-9.1 4.3-17 9.4-24.3 1.3 1.6 2 2.6 2.9 3.5 9.2 9.8 11.5 21.3 6.3 33.5-3.7 8.9-5.5 18-4.7 27.5.1 1.6 0 3.3 0 4.9m-1.5-1c-.3-3.7-.3-7.3-.9-11.1-.4-2.7-1.3-5.6-2.4-8.2-1.4-3.5-3.7-6.8-4.7-10.2-1.3-4.6-4.7-9.5-4.2-14.7m11.3-3.2c-.4 3.5-1 6.8-1.2 10.2-.1 3.6.1 7 .4 10.6"/><path id="WT_Emwa1_05dpi_rep1_rep2" fill="#FFFFFF" stroke="#000000" stroke-width=".5" stroke-linecap="round" stroke-linejoin="round" stroke-miterlimit="10" d="M446.8 160c-.1-9.1 4.3-17 9.4-24.3 1.3 1.6 2 2.6 2.9 3.5 9.2 9.8 11.5 21.3 6.3 33.5-3.7 8.9-5.5 18-4.7 27.5.1 1.6 0 3.3 0 4.9m-1.5-1c-.3-3.7-.3-7.3-.9-11.1-.4-2.7-1.3-5.6-2.4-8.2-1.4-3.5-3.7-6.8-4.7-10.2-1.3-4.6-4.7-9.5-4.2-14.7m11.3-3.1c-.4 3.5-1 6.8-1.2 10.2-.1 3.6.1 7 .4 10.6"/></g><g id="Hyaloperonsospora_arabidopsis_0_days"><path id="rpp4_Emwa1_0dpi_rep1_rep2" fill="#FFFFFF" stroke="#000000" stroke-width=".5" stroke-linecap="round" stroke-linejoin="round" stroke-miterlimit="10" d="M378.3 253.4c-.1-9.1 4.3-17 9.4-24.3 1.3 1.6 2 2.6 2.9 3.5 9.2 9.8 11.5 21.3 6.3 33.5-3.7 8.9-5.5 18-4.7 27.5.1 1.6 0 3.3 0 4.9m-1.5-.9c-.3-3.7-.3-7.3-.9-11.1-.4-2.7-1.3-5.6-2.4-8.2-1.4-3.5-3.7-6.8-4.7-10.2-1.3-4.6-4.7-9.5-4.2-14.7m11.3-3.3c-.4 3.5-1 6.8-1.2 10.2-.1 3.6.1 7 .4 10.6"/><path id="WT_Emwa1_0dpi_rep1_rep2" fill="#FFFFFF" stroke="#000000" stroke-width=".5" stroke-linecap="round" stroke-linejoin="round" stroke-miterlimit="10" d="M378.3 160c-.1-9.1 4.3-17 9.4-24.3 1.3 1.6 2 2.6 2.9 3.5 9.2 9.8 11.5 21.3 6.3 33.5-3.7 8.9-5.5 18-4.7 27.5.1 1.6 0 3.3 0 4.9m-1.5-.9c-.3-3.7-.3-7.3-.9-11.1-.4-2.7-1.3-5.6-2.4-8.2-1.4-3.5-3.7-6.8-4.7-10.2-1.3-4.6-4.7-9.5-4.2-14.7m11.3-3.2c-.4 3.5-1 6.8-1.2 10.2-.1 3.6.1 7 .4 10.6"/></g></g><g id="spray_bottle"><path d="M163.4 242.9c-.2.2-.5.4-.6.7-1 1.2-2.2 1.4-3.5.5-1.9-1.3-3.7-2.7-5.6-4-.7-.5-1.2-1.2-1.2-2 0-.2-.1-.4-.1-.5-.2-1.2-.2-1.2-1.2-2.6 1.1-1.5 2.2-3 3.3-4.6 1.1.8 2.3.5 3.5.3.7-.1 1.4 0 2 .5 2 1.4 3.9 2.8 5.9 4.2 1.1.8 1.3 2 .6 3.2-.2.3-.4.7-.6 1.1-.9 1-1.7 2.1-2.5 3.2zM143.9 230.9c-.2.2-.3.4-.4.5-.5.7-.4.7-1.1.2-.4-.3-.9-.6-1.3-.9-.3-.2-.3-.3-.1-.6 1.3-1.7 2.6-3.5 3.9-5.2.6-.8 1.5-1.3 2.5-1.5.4-.1.7-.1 1.1 0 .4 0 .6.3.5.7-.2.7-.3 1.3-.5 2-.1.2-.2.5-.2.7-.1.7-.1 1.3.5 1.8l-1.5 2.1c-.6-.3-1.3-.6-2-.3.5 1.4 1 2.7 1.4 4.1.1.3.2.5-.2.6-.9-1.5-1.7-2.8-2.6-4.2zm1.2-5c0 .1-.1.3-.2.6H145.8c1.4.3 1.7-.7 1.9-1.7 0-.1.1-.4 0-.4-.1-.1-.3-.1-.5 0-.8.2-1.4.7-2.1 1.5z"/><path d="M153.7 229.9l-3.3 4.5c-.9-.6-1.7-1.2-2.5-1.9-.4-.3-.4-.9-.1-1.4.6-.9 1.3-1.8 2-2.7.4-.5 1-.6 1.5-.3l2.4 1.8zm-1.3.2c-.5-.4-1-.7-1.4-1-.1-.1-.4 0-.5.1-.6.8-1.2 1.6-1.8 2.5-.1.1-.1.3 0 .4.5.4 1 .8 1.5 1.1.8-1.1 1.5-2.1 2.2-3.1zM140.4 231.2c.7.5 1.3 1 2 1.5-.5.5-1 1-1.5 1.4-.5-.3-.9-.7-1.5-1.1.4-.6.7-1.2 1-1.8zM139.2 234.8c.3.2.4.7.2 1s-.7.4-1 .2-.4-.7-.2-1 .7-.4 1-.2zm-3.6 1.2c-.2.3-.2.8.2 1 .3.2.8.2 1-.2.2-.3.2-.8-.2-1-.3-.2-.8-.1-1 .2zm2.4 1.8c-.2.3-.2.8.2 1 .3.2.8.2 1-.2.2-.3.2-.8-.2-1-.3-.2-.8-.1-1 .2zm-7.9.5c-.2.3-.2.8.2 1s.8.2 1-.2.2-.8-.2-1c-.3-.2-.8-.1-1 .2zm2.5 1.8c-.2.3-.2.8.2 1s.8.2 1-.2.2-.8-.2-1c-.4-.2-.8-.2-1 .2zm2.4 1.7c-.2.3-.2.8.2 1s.8.2 1-.2.2-.8-.2-1c-.3-.2-.7-.1-1 .2zm2.5 1.8c-.2.3-.2.8.2 1s.8.2 1-.2.2-.8-.2-1c-.3-.2-.8-.1-1 .2zm-10-4.1c-.2.3-.2.8.2 1 .3.2.8.2 1-.2.2-.3.2-.8-.2-1s-.8-.1-1 .2zm2.4 1.8c-.2.3-.2.8.2 1 .3.2.8.2 1-.2.2-.3.2-.8-.2-1s-.7-.1-1 .2zm2.5 1.8c-.2.3-.2.8.2 1 .3.2.8.2 1-.2.2-.3.2-.8-.2-1s-.8-.1-1 .2zm2.5 1.8c-.2.3-.2.8.2 1 .3.2.8.2 1-.2.2-.3.2-.8-.2-1s-.8-.2-1 .2zM133 237c-.2.3-.2.8.2 1 .3.2.8.2 1-.2.2-.3.2-.8-.2-1s-.8-.1-1 .2zm2.4 1.8c-.2.3-.2.8.2 1 .3.2.8.2 1-.2.2-.3.2-.8-.2-1s-.8-.1-1 .2zm2.5 1.8c-.2.3-.2.8.2 1 .3.2.8.2 1-.2.2-.3.2-.8-.2-1s-.7-.1-1 .2zm-.6 6c-.2.3-.2.8.2 1s.8.2 1-.2.2-.8-.2-1-.8-.1-1 .2z"/><text transform="translate(43.5 216)" font-family="'HelveticaNeue-Thin'" font-size="8">sprayed with 5 x 10</text><text transform="translate(109.1633 213.336)" font-family="'HelveticaNeue-Thin'" font-size="4.664">6</text><text transform="translate(113.0532 216)" font-family="'HelveticaNeue-Thin'" font-size="8">spores / ml</text><text transform="translate(43.5 225.6001)" font-family="'HelveticaNeue-Thin'" font-size="8">in distilled H</text><text transform="translate(83.1477 228.2639)" font-family="'HelveticaNeue-Thin'" font-size="4.664">2</text><text transform="translate(85.7407 225.6001)" font-family="'HelveticaNeue-Thin'" font-size="8">0</text></g></svg>