<?xml version="1.0" encoding="utf-8"?>
<!-- Generator: Adobe Illustrator 18.1.1, SVG Export Plug-In . SVG Version: 6.00 Build 0)  -->
<svg version="1.1" xmlns="http://www.w3.org/2000/svg" xmlns:xlink="http://www.w3.org/1999/xlink" x="0px" y="0px"
	 viewBox="0 0 900 600" enable-background="new 0 0 900 600" xml:space="preserve">
<g id="Outlines">
	<g>
		<path fill="none" d="M253.007,131.765c-7.302-1.159-11.221,0.357-13.269,1.069c-2.048,0.446-3.383-0.534-4.809-1.247
			c-11.577-3.116-15.051,2.226-15.051,2.226c-1.425,3.116,0,3.651,1.868,4.542c3.295,1.248,8.55-1.513,10.687-2.582
			c1.514-0.89,3.474-1.069,4.631-0.712c0,0,0.002,0,0.003,0c0.446,0.983,0.266,13.181,0.357,17.099
			c-2.851,5.523-5.434,7.57-7.571,9.53c-2.583,2.227-2.673,7.214-2.761,10.42c0.179-1.157,2.583-7.035,3.385-8.639
			c0.623-0.803,4.008-3.919,6.145-6.145c3.117-3.474,2.672-4.543,2.849-6.948c0.268-5.789,0.179-13.535,0-15.496
			c3.295-0.445,5.521,1.247,8.103,2.85c5.966,3.294,8.282,1.692,9.262,0.444C258.262,134.437,254.344,132.567,253.007,131.765z"/>
		<path fill="none" d="M253.007,85.412c-7.302-1.158-11.221,0.357-13.269,1.068c-2.048,0.447-3.383-0.534-4.809-1.246
			c-11.577-3.117-15.051,2.226-15.051,2.226c-1.425,3.117,0,3.653,1.868,4.541c3.295,1.248,8.55-1.513,10.687-2.582
			c1.514-0.89,3.474-1.07,4.631-0.712c0,0,0,0,0.005,0c0,0-0.003,0-0.003,0c0.446,0.979,0.266,13.181,0.357,17.102
			c-2.851,5.521-5.434,7.569-7.571,9.529c-2.583,2.227-2.673,7.215-2.761,10.421c0.179-1.158,2.583-7.036,3.385-8.639
			c0.623-0.803,4.008-3.919,6.145-6.146c3.117-3.474,2.672-4.543,2.849-6.948c0.268-5.79,0.179-13.537,0-15.497c0,0-0.001,0-0.001,0
			c3.296-0.445,5.522,1.247,8.104,2.85c5.966,3.294,8.282,1.692,9.262,0.445C258.262,88.084,254.344,86.214,253.007,85.412z"/>
		<path fill="none" d="M446.56,131.765c-7.301-1.159-11.218,0.357-13.269,1.069c-2.047,0.446-3.383-0.534-4.809-1.247
			c-11.577-3.116-15.051,2.226-15.051,2.226c-1.425,3.116,0,3.651,1.867,4.542c3.295,1.248,8.549-1.513,10.688-2.582
			c1.513-0.89,3.474-1.069,4.631-0.712c0,0,0.002,0,0.002,0c0.446,0.983,0.268,13.181,0.36,17.099
			c-2.85,5.523-5.433,7.57-7.571,9.53c-2.583,2.227-2.673,7.214-2.761,10.42c0.178-1.157,2.583-7.035,3.385-8.639
			c0.624-0.803,4.008-3.919,6.145-6.145c3.114-3.474,2.67-4.543,2.85-6.948c0.264-5.789,0.178-13.535,0-15.496
			c3.294-0.445,5.52,1.247,8.103,2.85c5.967,3.294,8.282,1.692,9.262,0.444C451.815,134.437,447.897,132.567,446.56,131.765z"/>
		<path fill="none" d="M446.56,85.412c-7.301-1.158-11.218,0.357-13.269,1.068c-2.047,0.447-3.383-0.534-4.809-1.246
			c-11.577-3.117-15.051,2.226-15.051,2.226c-1.425,3.117,0,3.653,1.867,4.541c3.295,1.248,8.549-1.513,10.688-2.582
			c1.513-0.89,3.474-1.07,4.631-0.712c0,0,0.001,0,0.004,0c0,0-0.002,0-0.002,0c0.446,0.979,0.268,13.181,0.36,17.102
			c-2.85,5.521-5.433,7.569-7.571,9.529c-2.583,2.227-2.673,7.215-2.761,10.421c0.178-1.158,2.583-7.036,3.385-8.639
			c0.624-0.803,4.008-3.919,6.145-6.146c3.114-3.474,2.67-4.543,2.85-6.948c0.264-5.79,0.178-13.537,0-15.497c0,0-0.001,0-0.001,0
			c3.295-0.445,5.521,1.247,8.104,2.85c5.967,3.294,8.282,1.692,9.262,0.445C451.815,88.084,447.897,86.214,446.56,85.412z"/>
		<path fill="none" d="M174.467,138.355c3.296,1.248,8.55-1.513,10.688-2.582c1.514-0.89,3.474-1.069,4.632-0.712
			c0,0,0.001,0,0.001,0c0.446,0.983,0.267,13.181,0.357,17.099c-2.851,5.523-5.433,7.57-7.571,9.53
			c-2.583,2.227-2.673,7.214-2.761,10.42c0.179-1.157,2.583-7.035,3.385-8.639c0.623-0.803,4.008-3.919,6.145-6.145
			c3.117-3.474,2.672-4.543,2.849-6.948c0.268-5.789,0.179-13.535,0-15.496c3.296-0.445,5.522,1.247,8.104,2.85
			c5.966,3.294,8.282,1.692,9.262,0.444c1.425-3.74-2.494-5.61-3.83-6.412c-7.302-1.159-11.221,0.357-13.269,1.069
			c-2.048,0.446-3.383-0.534-4.809-1.247c-11.577-3.116-15.051,2.226-15.051,2.226C171.174,136.929,172.599,137.465,174.467,138.355
			z"/>
		<path fill="none" d="M174.467,92.002c3.296,1.248,8.55-1.513,10.688-2.582c1.514-0.89,3.474-1.07,4.632-0.712c0,0,0.002,0,0.002,0
			l-0.001,0c0.446,0.979,0.268,13.181,0.358,17.102c-2.851,5.521-5.433,7.569-7.571,9.529c-2.583,2.227-2.673,7.215-2.761,10.421
			c0.179-1.158,2.583-7.036,3.385-8.639c0.623-0.803,4.008-3.919,6.145-6.146c3.117-3.474,2.672-4.543,2.849-6.948
			c0.268-5.79,0.179-13.537,0-15.497c0,0,0,0,0,0c3.296-0.445,5.522,1.247,8.105,2.85c5.966,3.294,8.282,1.692,9.262,0.445
			c1.425-3.741-2.494-5.61-3.83-6.412c-7.302-1.158-11.221,0.357-13.269,1.068c-2.048,0.447-3.383-0.534-4.809-1.246
			c-11.577-3.117-15.051,2.226-15.051,2.226C171.174,90.578,172.599,91.113,174.467,92.002z"/>
		<path fill="none" d="M368.948,138.355c3.296,1.248,8.55-1.513,10.688-2.582c1.513-0.89,3.474-1.069,4.631-0.712h0
			c0.446,0.984,0.267,13.181,0.356,17.099c-2.85,5.523-5.433,7.57-7.571,9.53c-2.582,2.227-2.673,7.214-2.761,10.42
			c0.18-1.157,2.584-7.035,3.386-8.639c0.623-0.803,4.008-3.919,6.144-6.145c3.118-3.474,2.672-4.543,2.85-6.948
			c0.268-5.788,0.178-13.535,0-15.495c3.296-0.446,5.522,1.246,8.105,2.85c5.966,3.294,8.282,1.692,9.262,0.444
			c1.425-3.74-2.494-5.61-3.83-6.412c-7.302-1.159-11.222,0.357-13.269,1.069c-2.048,0.446-3.383-0.534-4.809-1.247
			c-11.577-3.116-15.051,2.226-15.051,2.226C365.653,136.929,367.08,137.465,368.948,138.355z"/>
		<path fill="none" d="M368.948,92.002c3.296,1.248,8.55-1.513,10.688-2.582c1.513-0.89,3.474-1.07,4.631-0.712
			c0.446,0.979,0.267,13.181,0.357,17.102c-2.85,5.521-5.433,7.569-7.571,9.529c-2.582,2.227-2.673,7.215-2.761,10.421
			c0.18-1.158,2.584-7.036,3.386-8.639c0.623-0.803,4.008-3.919,6.144-6.146c3.118-3.474,2.672-4.543,2.85-6.948
			c0.268-5.79,0.178-13.537,0-15.497c3.296-0.445,5.522,1.247,8.105,2.85c5.966,3.294,8.282,1.692,9.262,0.445
			c1.425-3.741-2.494-5.61-3.83-6.412c-7.302-1.158-11.222,0.357-13.269,1.068c-2.048,0.447-3.383-0.534-4.809-1.246
			c-11.577-3.117-15.051,2.226-15.051,2.226C365.653,90.578,367.08,91.113,368.948,92.002z"/>
		<polygon fill="none" points="408.593,157.797 408.603,157.797 408.6,157.9 408.603,157.952 408.598,157.952 408.585,158.339 
			408.527,160.116 411.229,157.952 408.448,155.635 		"/>
		<polygon fill="none" points="408.593,157.797 401.187,157.797 408.598,157.952 408.6,157.9 		"/>
		<polygon fill="none" points="408.593,111.446 401.187,111.446 408.598,111.601 408.6,111.548 		"/>
		<polygon fill="none" points="408.593,111.446 408.603,111.446 408.6,111.548 408.603,111.601 408.598,111.601 408.585,111.987 
			408.527,113.763 411.229,111.601 408.448,109.282 		"/>
		<polygon fill="none" points="213.186,157.797 205.78,157.797 213.19,157.952 213.192,157.899 		"/>
		<polygon fill="none" points="213.186,157.797 213.196,157.797 213.192,157.899 213.196,157.952 213.19,157.952 213.177,158.339 
			213.118,160.116 215.822,157.952 213.041,155.635 		"/>
		<polygon fill="none" points="213.186,111.446 213.196,111.446 213.192,111.547 213.196,111.601 213.19,111.601 213.177,111.987 
			213.118,113.763 215.822,111.601 213.041,109.282 		"/>
		<polygon fill="none" points="213.186,111.446 205.78,111.446 213.19,111.601 213.192,111.547 		"/>
		<path fill="none" d="M641.965,326.443c-7.303-1.158-11.218,0.356-13.27,1.069c-2.044,0.446-3.383-0.536-4.806-1.247
			c-11.577-3.118-15.051,2.225-15.051,2.225c-1.425,3.118,0,3.652,1.862,4.547c3.298,1.248,8.553-1.513,10.691-2.583
			c1.514-0.891,3.474-1.07,4.632-0.713c0,0,0,0,0.005,0c0.445,0.998,0.266,13.181,0.361,17.099c-2.85,5.525-5.433,7.571-7.571,9.533
			c-2.584,2.224-2.672,7.211-2.761,10.417c0.177-1.159,2.583-7.034,3.384-8.64c0.626-0.801,4.007-3.92,6.145-6.145
			c3.112-3.474,2.669-4.542,2.849-6.946c0.263-5.791,0.178-13.531,0-15.495c3.293-0.446,5.519,1.246,8.1,2.848
			c5.968,3.293,8.283,1.694,9.263,0.445C647.22,329.115,643.3,327.245,641.965,326.443z"/>
		<path fill="none" d="M641.965,280.091c-7.303-1.158-11.218,0.356-13.27,1.068c-2.044,0.446-3.383-0.534-4.806-1.246
			c-11.577-3.119-15.051,2.225-15.051,2.225c-1.425,3.117,0,3.651,1.862,4.544c3.298,1.248,8.553-1.514,10.691-2.583
			c1.514-0.891,3.474-1.07,4.632-0.713c0,0,0.001,0,0.004,0c0.446,0.981,0.267,13.18,0.362,17.105
			c-2.85,5.523-5.433,7.569-7.571,9.529c-2.584,2.225-2.672,7.211-2.761,10.418c0.177-1.161,2.583-7.035,3.384-8.639
			c0.626-0.801,4.007-3.923,6.145-6.148c3.112-3.474,2.669-4.541,2.849-6.946c0.263-5.789,0.178-13.538,0-15.496
			c0,0-0.001,0-0.002,0c3.294-0.446,5.52,1.247,8.102,2.85c5.968,3.294,8.283,1.691,9.263,0.445
			C647.22,282.763,643.3,280.893,641.965,280.091z"/>
		<path fill="none" d="M795.522,324.593c-7.306-1.158-11.221,0.356-13.27,1.067c-2.047,0.444-3.383-0.537-4.809-1.249
			c-11.578-3.118-15.052,2.227-15.052,2.227c-1.425,3.117,0,3.651,1.866,4.547c3.299,1.251,8.553-1.512,10.688-2.582
			c1.514-0.891,3.476-1.068,4.635-0.711c0,0,0.002,0,0.002,0c0.444,1.018,0.266,13.181,0.36,17.098
			c-2.851,5.523-5.436,7.57-7.571,9.529c-2.585,2.226-2.675,7.213-2.765,10.42c0.178-1.159,2.583-7.037,3.384-8.639
			c0.628-0.801,4.011-3.923,6.145-6.146c3.116-3.476,2.669-4.544,2.849-6.949c0.267-5.786,0.178-13.528,0-15.493
			c3.299-0.446,5.526,1.244,8.104,2.849c5.968,3.294,8.282,1.692,9.263,0.445C800.777,327.265,796.856,325.394,795.522,324.593z"/>
		<path fill="none" d="M790.09,286.059c5.968,3.294,8.282,1.691,9.263,0.445c1.424-3.742-2.497-5.611-3.831-6.413
			c-7.306-1.158-11.221,0.356-13.27,1.068c-2.047,0.446-3.383-0.534-4.809-1.246c-11.578-3.119-15.052,2.225-15.052,2.225
			c-1.425,3.117,0,3.651,1.866,4.544c3.299,1.248,8.553-1.514,10.688-2.583c1.514-0.891,3.476-1.07,4.635-0.713h0
			c0.447,0.983,0.268,13.18,0.362,17.104c-2.851,5.523-5.436,7.569-7.571,9.529c-2.585,2.225-2.675,7.211-2.765,10.418
			c0.178-1.161,2.583-7.035,3.384-8.639c0.628-0.801,4.011-3.923,6.145-6.148c3.116-3.474,2.669-4.541,2.849-6.946
			c0.267-5.789,0.178-13.538,0-15.496C785.284,282.763,787.511,284.456,790.09,286.059z"/>
		<path fill="none" d="M174.467,286.683c3.295,1.248,8.549-1.514,10.688-2.583c1.514-0.891,3.473-1.07,4.632-0.713
			c0,0,0.001,0,0.001,0c0.446,0.982,0.267,13.18,0.358,17.105c-2.851,5.523-5.434,7.569-7.571,9.529
			c-2.583,2.225-2.672,7.211-2.761,10.418c0.051-0.332,0.287-1.055,0.613-1.948l-0.081,1.74c0.099,1.181,0.276,2.382,0.449,3.551
			l-0.368-5.292c0.216-0.594,0.472-1.26,0.744-1.947c0.076,0.471,0.361,2.251,0.431,2.476c0.062,0.198,0.154,0.393,0.252,0.6
			c0.156,0.329,0.315,0.671,0.362,1.05l-1.039-4.141c0.748-1.888,1.603-3.891,2.023-4.73c0.222-0.285,0.796-0.866,1.536-1.594
			c0.037,1.141,0.573,2.132,1.265,3.241l-1.264-3.242c1.34-1.317,3.231-3.12,4.609-4.554c3.116-3.474,2.671-4.541,2.849-6.946
			c0.267-5.789,0.179-13.538,0-15.496c0,0,0,0,0,0c3.295-0.447,5.522,1.246,8.104,2.85c5.967,3.294,8.283,1.691,9.263,0.445
			c1.425-3.742-2.497-5.611-3.831-6.413c-7.302-1.158-11.22,0.356-13.269,1.068c-2.048,0.446-3.383-0.534-4.81-1.246
			c-11.577-3.119-15.051,2.225-15.051,2.225C171.174,285.256,172.598,285.79,174.467,286.683z"/>
		<path fill="none" d="M178.519,312.899l4.645-3.42C181.186,309.629,178.83,312.415,178.519,312.899z"/>
		<path fill="none" d="M183.198,311.801l0.887,5.489C183.91,315.608,183.48,313.168,183.198,311.801z"/>
		<path fill="none" d="M179.23,316.449c-0.108,0.224-0.393,0.954-0.621,1.539l1.606-2.89
			C179.926,315.446,179.423,316.052,179.23,316.449z"/>
		<path fill="none" d="M174.467,333.037c3.295,1.248,8.549-1.513,10.688-2.583c1.514-0.891,3.473-1.07,4.632-0.713
			c0,0,0.002,0,0.002,0c0.445,0.999,0.266,13.181,0.357,17.099c-2.851,5.525-5.434,7.571-7.571,9.533
			c-2.583,2.224-2.672,7.211-2.761,10.417c0.179-1.159,2.583-7.034,3.385-8.64c0.623-0.801,4.007-3.92,6.145-6.145
			c3.116-3.474,2.671-4.542,2.849-6.946c0.267-5.79,0.179-13.531,0-15.495c3.295-0.448,5.522,1.246,8.103,2.848
			c5.967,3.293,8.283,1.694,9.263,0.445c1.425-3.742-2.497-5.612-3.831-6.414c-7.302-1.158-11.22,0.356-13.269,1.069
			c-2.048,0.446-3.383-0.536-4.81-1.247c-11.577-3.118-15.051,2.225-15.051,2.225C171.174,331.608,172.598,332.142,174.467,333.037z
			"/>
		<path fill="none" d="M253.006,280.091c-7.302-1.158-11.22,0.356-13.269,1.068c-2.048,0.446-3.383-0.534-4.809-1.246
			c-11.577-3.119-15.051,2.225-15.051,2.225c-1.424,3.117,0,3.651,1.869,4.544c3.294,1.248,8.549-1.514,10.687-2.583
			c1.513-0.891,3.473-1.07,4.632-0.713c0,0,0.002,0,0.002,0c0.446,0.982,0.266,13.18,0.358,17.105
			c-2.851,5.523-5.434,7.569-7.571,9.529c-2.584,2.225-2.672,7.211-2.761,10.418c0.179-1.161,2.583-7.035,3.385-8.639
			c0.623-0.801,4.007-3.923,6.145-6.148c3.116-3.474,2.671-4.541,2.849-6.946c0.267-5.789,0.179-13.538,0-15.496
			c0,0-0.001,0-0.001,0c3.295-0.446,5.522,1.247,8.103,2.85c5.967,3.294,8.283,1.691,9.263,0.445
			C258.262,282.763,254.341,280.893,253.006,280.091z"/>
		<path fill="none" d="M400.208,280.091c-7.302-1.158-11.221,0.356-13.269,1.068c-2.048,0.446-3.383-0.534-4.81-1.246
			c-11.577-3.119-15.051,2.225-15.051,2.225c-1.425,3.117,0,3.651,1.87,4.544c3.295,1.248,8.55-1.514,10.688-2.583
			c1.513-0.891,3.473-1.07,4.631-0.713h0c0.446,0.983,0.267,13.18,0.357,17.104c-2.85,5.523-5.433,7.569-7.571,9.529
			c-2.582,2.225-2.672,7.211-2.761,10.418c0.179-1.161,2.583-7.035,3.385-8.639c0.624-0.801,4.008-3.923,6.145-6.148
			c3.116-3.474,2.671-4.541,2.849-6.946c0.267-5.789,0.178-13.538,0-15.496c3.295-0.447,5.522,1.246,8.104,2.85
			c5.967,3.294,8.283,1.691,9.263,0.445C405.464,282.763,401.542,280.893,400.208,280.091z"/>
		<path fill="none" d="M400.208,326.443c-7.302-1.158-11.221,0.356-13.269,1.069c-2.048,0.446-3.383-0.536-4.81-1.247
			c-11.577-3.118-15.051,2.225-15.051,2.225c-1.425,3.118,0,3.652,1.87,4.547c3.295,1.248,8.55-1.513,10.688-2.583
			c1.513-0.891,3.473-1.07,4.631-0.713c0,0,0.001,0,0.001,0c0.445,1,0.266,13.181,0.356,17.098c-2.85,5.525-5.433,7.571-7.571,9.533
			c-2.582,2.224-2.672,7.211-2.761,10.417c0.179-1.159,2.583-7.034,3.385-8.64c0.624-0.801,4.008-3.92,6.145-6.145
			c3.116-3.474,2.671-4.542,2.849-6.946c0.267-5.79,0.178-13.531,0-15.495c3.295-0.448,5.521,1.245,8.104,2.848
			c5.967,3.293,8.283,1.694,9.263,0.445C405.464,329.115,401.542,327.245,400.208,326.443z"/>
		<path fill="none" d="M641.965,85.413c-7.303-1.158-11.218,0.356-13.27,1.068c-2.044,0.447-3.383-0.534-4.806-1.245
			c-11.577-3.119-15.051,2.225-15.051,2.225c-1.425,3.117,0,3.652,1.862,4.545c3.298,1.247,8.553-1.514,10.691-2.583
			c1.514-0.89,3.474-1.071,4.632-0.713c0,0,0.001,0,0.004,0c0.446,0.982,0.267,13.18,0.362,17.103
			c-2.85,5.52-5.433,7.569-7.571,9.528c-2.584,2.226-2.672,7.214-2.761,10.42c0.177-1.159,2.583-7.036,3.384-8.639
			c0.626-0.802,4.007-3.92,6.145-6.146c3.112-3.474,2.669-4.543,2.849-6.947c0.263-5.789,0.178-13.536,0-15.497
			c3.293-0.444,5.519,1.248,8.1,2.85c5.968,3.293,8.283,1.691,9.263,0.445C647.22,88.086,643.3,86.215,641.965,85.413z"/>
		<path fill="none" d="M774.018,89.422c1.513-0.89,3.473-1.071,4.631-0.713c0,0,0.001,0,0.004,0
			c0.446,0.982,0.267,13.18,0.362,17.103c-2.85,5.52-5.432,7.569-7.571,9.528c-2.584,2.226-2.672,7.214-2.761,10.42
			c0.177-1.159,2.583-7.036,3.384-8.639c0.628-0.802,4.011-3.92,6.145-6.146c3.112-3.474,2.669-4.543,2.849-6.947
			c0.263-5.789,0.178-13.536,0-15.497c3.293-0.444,5.52,1.248,8.101,2.85c5.967,3.293,8.282,1.691,9.262,0.445
			c1.422-3.741-2.497-5.611-3.832-6.413c-7.304-1.158-11.22,0.356-13.272,1.068c-2.043,0.447-3.383-0.534-4.805-1.245
			c-11.578-3.119-15.052,2.225-15.052,2.225c-1.425,3.117,0,3.652,1.866,4.545C766.627,93.253,771.88,90.491,774.018,89.422z"/>
		<path fill="none" d="M641.965,131.766c-7.303-1.159-11.218,0.356-13.27,1.068c-2.044,0.446-3.383-0.534-4.806-1.246
			c-11.577-3.119-15.051,2.226-15.051,2.226c-1.425,3.116,0,3.651,1.862,4.544c3.298,1.248,8.553-1.514,10.691-2.583
			c1.514-0.89,3.474-1.07,4.632-0.713c0,0,0.001,0,0.004,0c0.446,0.987,0.267,13.18,0.362,17.1c-2.85,5.522-5.433,7.57-7.571,9.53
			c-2.584,2.226-2.672,7.213-2.761,10.419c0.177-1.158,2.583-7.035,3.384-8.639c0.626-0.802,4.007-3.92,6.145-6.145
			c3.112-3.474,2.669-4.542,2.849-6.947c0.263-5.788,0.178-13.534,0-15.495c3.293-0.445,5.519,1.247,8.1,2.85
			c5.968,3.293,8.283,1.691,9.263,0.444C647.22,134.438,643.3,132.568,641.965,131.766z"/>
		<path fill="none" d="M399.28,476.627c-7.301-1.158-11.22,0.356-13.269,1.068c-2.047,0.443-3.383-0.538-4.809-1.25
			c-11.577-3.118-15.051,2.226-15.051,2.226c-1.425,3.117,0,3.651,1.869,4.548c3.294,1.251,8.548-1.514,10.688-2.58
			c1.514-0.892,3.473-1.069,4.631-0.712c0,0,0.001,0,0.004,0c0.443,1.023,0.266,13.181,0.356,17.094
			c-2.85,5.521-5.433,7.569-7.571,9.529c-2.584,2.226-2.672,7.213-2.761,10.42c0.178-1.159,2.583-7.037,3.385-8.64
			c0.623-0.801,4.007-3.924,6.145-6.144c3.115-3.478,2.671-4.546,2.849-6.951c0.266-5.782,0.178-13.519,0.001-15.488
			c3.294-0.446,5.521,1.243,8.102,2.849c5.967,3.292,8.283,1.691,9.263,0.445C404.536,479.299,400.615,477.429,399.28,476.627z"/>
		<path fill="none" d="M174.467,483.219c3.295,1.251,8.549-1.514,10.688-2.58c1.514-0.892,3.473-1.069,4.632-0.712
			c0,0,0.002,0,0.004,0c0.443,1.023,0.265,13.181,0.356,17.094c-2.851,5.521-5.434,7.569-7.571,9.529
			c-2.583,2.226-2.672,7.213-2.761,10.42c0.179-1.159,2.583-7.037,3.385-8.64c0.623-0.801,4.007-3.924,6.145-6.144
			c3.116-3.478,2.671-4.546,2.849-6.951c0.267-5.782,0.179-13.519,0.001-15.488c3.295-0.446,5.522,1.243,8.103,2.849
			c5.967,3.292,8.283,1.691,9.263,0.445c1.425-3.742-2.497-5.611-3.831-6.413c-7.302-1.158-11.22,0.356-13.269,1.068
			c-2.048,0.443-3.383-0.538-4.81-1.25c-11.577-3.118-15.051,2.226-15.051,2.226C171.174,481.788,172.598,482.322,174.467,483.219z"
			/>
		<path fill="none" d="M205.727,522.979c-7.302-1.161-11.22,0.353-13.269,1.064c-2.048,0.447-3.383-0.534-4.81-1.246
			c-11.577-3.118-15.051,2.226-15.051,2.226c-1.424,3.117,0,3.651,1.869,4.547c3.295,1.247,8.549-1.514,10.688-2.583
			c1.514-0.891,3.473-1.07,4.632-0.713c0,0,0.002,0,0.002,0c0.445,0.999,0.266,13.181,0.357,17.102
			c-2.851,5.521-5.434,7.569-7.571,9.529c-2.583,2.226-2.672,7.213-2.761,10.42c0.179-1.162,2.583-7.037,3.385-8.64
			c0.623-0.805,4.007-3.924,6.145-6.149c3.116-3.474,2.671-4.542,2.849-6.946c0.267-5.786,0.179-13.532,0-15.494
			c3.295-0.445,5.522,1.245,8.103,2.847c5.967,3.296,8.283,1.694,9.263,0.449C210.983,525.651,207.062,523.781,205.727,522.979z"/>
		<polygon fill="none" points="213.186,502.655 205.78,502.655 213.191,502.81 213.192,502.757 		"/>
		<polygon fill="none" points="213.186,502.655 213.196,502.655 213.192,502.757 213.196,502.81 213.191,502.81 213.177,503.197 
			213.118,504.972 215.822,502.81 213.041,500.492 		"/>
		<path fill="none" d="M253.006,476.627c-7.302-1.158-11.22,0.356-13.269,1.068c-2.048,0.443-3.383-0.538-4.809-1.25
			c-11.577-3.118-15.051,2.226-15.051,2.226c-1.424,3.117,0,3.651,1.869,4.548c3.294,1.251,8.549-1.514,10.687-2.58
			c1.513-0.892,3.473-1.069,4.632-0.712c0,0,0,0,0.005,0c0.443,1.023,0.264,13.181,0.356,17.094
			c-2.851,5.521-5.434,7.569-7.571,9.529c-2.584,2.226-2.672,7.213-2.761,10.42c0.179-1.159,2.583-7.037,3.385-8.64
			c0.623-0.801,4.007-3.924,6.145-6.144c3.116-3.478,2.671-4.546,2.849-6.951c0.267-5.782,0.179-13.519,0.001-15.488
			c3.294-0.446,5.521,1.243,8.102,2.849c5.967,3.292,8.283,1.691,9.263,0.445C258.262,479.299,254.341,477.429,253.006,476.627z"/>
		<path fill="none" d="M641.965,476.627c-7.303-1.158-11.218,0.356-13.27,1.068c-2.044,0.443-3.383-0.538-4.806-1.25
			c-11.577-3.118-15.051,2.226-15.051,2.226c-1.425,3.117,0,3.651,1.862,4.548c3.298,1.251,8.553-1.514,10.691-2.58
			c1.514-0.892,3.474-1.069,4.632-0.712c0,0,0.001,0,0.006,0c0.443,1.022,0.265,13.181,0.36,17.094
			c-2.85,5.521-5.433,7.569-7.571,9.529c-2.584,2.226-2.672,7.213-2.761,10.42c0.177-1.159,2.583-7.037,3.384-8.64
			c0.626-0.801,4.007-3.924,6.145-6.144c3.112-3.478,2.669-4.546,2.849-6.951c0.263-5.782,0.179-13.519,0.001-15.488
			c3.293-0.445,5.518,1.244,8.099,2.849c5.968,3.292,8.283,1.691,9.263,0.445C647.22,479.299,643.3,477.429,641.965,476.627z"/>
	</g>
</g>
<g id="Shapes">
	<g id="Control_at_12_Hours" fill="#E6E7E8">
		<g id="leafs">
			<path d="M231.764,52.344c1.806,0.682,4.682-0.828,5.852-1.414c0.828-0.488,1.902-0.586,2.535-0.391
				c0,0,0,0,1.317-0.097c1.804-0.244,3.023,0.682,4.437,1.56c3.267,1.804,4.535,0.926,5.071,0.244
				c0.781-2.048-1.365-3.071-2.096-3.51c-3.999-0.635-6.145,0.195-7.266,0.584c-1.12,0.246-1.853-0.291-2.633-0.681
				c-6.34-1.707-8.241,1.219-8.241,1.219C229.96,51.564,230.74,51.857,231.764,52.344z"/>
			<path d="M248.88,243.735c-3.999-0.635-6.145,0.195-7.266,0.584c-1.12,0.246-1.853-0.291-2.633-0.681
				c-6.34-1.707-8.241,1.219-8.241,1.219c-0.78,1.707,0,2,1.024,2.487c1.806,0.682,4.682-0.828,5.852-1.414
				c0.828-0.488,1.902-0.586,2.535-0.391c0,0,0,0,1.317-0.097c1.804-0.244,3.023,0.682,4.437,1.56
				c3.267,1.804,4.535,0.926,5.071,0.244C251.757,245.198,249.611,244.174,248.88,243.735z"/>
			<path d="M248.88,439.735c-3.999-0.635-6.145,0.195-7.266,0.584c-1.12,0.246-1.853-0.291-2.633-0.681
				c-6.34-1.707-8.241,1.219-8.241,1.219c-0.78,1.707,0,2,1.024,2.487c1.806,0.682,4.682-0.828,5.852-1.414
				c0.828-0.488,1.902-0.586,2.535-0.391c0,0,0,0,1.317-0.097c1.804-0.244,3.023,0.682,4.437,1.56
				c3.267,1.804,4.535,0.926,5.071,0.244C251.757,441.198,249.611,440.174,248.88,439.735z"/>
		</g>
		<g id="root">
			<path d="M239.906,62.73c1.707-1.903,1.463-2.487,1.56-3.804c0.146-3.169,0.097-7.411,0-8.484
				c-0.342-0.049-1.317,0.097-1.317,0.097c0.244,0.535,0.147,7.216,0.195,9.363c-1.56,3.022-2.974,4.144-4.145,5.217
				c-1.414,1.219-1.462,3.949-1.511,5.705c0.097-0.635,1.415-3.852,1.853-4.73C236.883,65.656,238.736,63.949,239.906,62.73z"/>
			<path d="M240.15,245.54c0.244,0.535,0.147,7.216,0.195,9.363c-1.56,3.022-2.974,4.144-4.145,5.217
				c-1.414,1.219-1.462,3.949-1.511,5.705c0.097-0.635,1.415-3.852,1.853-4.73c0.341-0.439,2.195-2.146,3.365-3.365
				c1.707-1.903,1.463-2.487,1.56-3.804c0.146-3.169,0.097-7.411,0-8.484C241.125,245.394,240.15,245.54,240.15,245.54z"/>
			<path d="M240.15,441.54c0.244,0.535,0.147,7.216,0.195,9.363c-1.56,3.022-2.974,4.144-4.145,5.217
				c-1.414,1.219-1.462,3.949-1.511,5.705c0.097-0.635,1.415-3.852,1.853-4.73c0.341-0.439,2.195-2.146,3.365-3.365
				c1.707-1.903,1.463-2.487,1.56-3.804c0.146-3.169,0.097-7.411,0-8.484C241.125,441.394,240.15,441.54,240.15,441.54z"/>
		</g>
	</g>
	<g id="Control_at_3_Hours" fill="#E6E7E8">
		<g id="leafs">
			<path d="M201.601,48.735c-3.999-0.635-6.144,0.195-7.266,0.584c-1.12,0.246-1.853-0.291-2.633-0.681
				c-6.34-1.707-8.241,1.219-8.241,1.219c-0.78,1.707,0,2,1.024,2.487c1.806,0.682,4.682-0.828,5.852-1.414
				c0.828-0.488,1.902-0.586,2.535-0.391c0,0,0,0,1.317-0.097c1.805-0.244,3.023,0.682,4.437,1.56
				c3.267,1.804,4.535,0.926,5.071,0.244C204.478,50.198,202.332,49.174,201.601,48.735z"/>
			<path d="M201.601,243.735c-3.999-0.635-6.144,0.195-7.266,0.584c-1.12,0.246-1.853-0.291-2.633-0.681
				c-6.34-1.707-8.241,1.219-8.241,1.219c-0.78,1.707,0,2,1.024,2.487c1.806,0.682,4.682-0.828,5.852-1.414
				c0.828-0.488,1.902-0.586,2.535-0.391c0,0,0,0,1.317-0.097c1.805-0.244,3.023,0.682,4.437,1.56
				c3.267,1.804,4.535,0.926,5.071,0.244C204.478,245.198,202.332,244.174,201.601,243.735z"/>
			<path d="M201.601,439.735c-3.999-0.635-6.144,0.195-7.266,0.584c-1.12,0.246-1.853-0.291-2.633-0.681
				c-6.34-1.707-8.241,1.219-8.241,1.219c-0.78,1.707,0,2,1.024,2.487c1.806,0.682,4.682-0.828,5.852-1.414
				c0.828-0.488,1.902-0.586,2.535-0.391c0,0,0,0,1.317-0.097c1.805-0.244,3.023,0.682,4.437,1.56
				c3.267,1.804,4.535,0.926,5.071,0.244C204.478,441.198,202.332,440.174,201.601,439.735z"/>
			<path d="M395.601,48.735c-3.999-0.635-6.144,0.195-7.266,0.584c-1.12,0.246-1.852-0.291-2.633-0.681
				c-6.34-1.707-8.241,1.219-8.241,1.219c-0.78,1.707,0,2,1.024,2.487c1.806,0.682,4.682-0.828,5.852-1.414
				c0.828-0.488,1.902-0.586,2.535-0.391c0,0,0,0,1.317-0.097c1.805-0.244,3.023,0.682,4.437,1.56
				c3.267,1.804,4.535,0.926,5.071,0.244C398.478,50.198,396.332,49.174,395.601,48.735z"/>
			<path d="M395.601,243.735c-3.999-0.635-6.144,0.195-7.266,0.584c-1.12,0.246-1.852-0.291-2.633-0.681
				c-6.34-1.707-8.241,1.219-8.241,1.219c-0.78,1.707,0,2,1.024,2.487c1.806,0.682,4.682-0.828,5.852-1.414
				c0.828-0.488,1.902-0.586,2.535-0.391c0,0,0,0,1.317-0.097c1.805-0.244,3.023,0.682,4.437,1.56
				c3.267,1.804,4.535,0.926,5.071,0.244C398.478,245.198,396.332,244.174,395.601,243.735z"/>
			<path d="M395.601,439.735c-3.999-0.635-6.144,0.195-7.266,0.584c-1.12,0.246-1.852-0.291-2.633-0.681
				c-6.34-1.707-8.241,1.219-8.241,1.219c-0.78,1.707,0,2,1.024,2.487c1.806,0.682,4.682-0.828,5.852-1.414
				c0.828-0.488,1.902-0.586,2.535-0.391c0,0,0,0,1.317-0.097c1.805-0.244,3.023,0.682,4.437,1.56
				c3.267,1.804,4.535,0.926,5.071,0.244C398.478,441.198,396.332,440.174,395.601,439.735z"/>
			<path d="M635.601,48.735c-3.999-0.635-6.144,0.195-7.266,0.584c-1.12,0.246-1.852-0.291-2.633-0.681
				c-6.34-1.707-8.241,1.219-8.241,1.219c-0.78,1.707,0,2,1.024,2.487c1.806,0.682,4.682-0.828,5.852-1.414
				c0.828-0.488,1.902-0.586,2.535-0.391c0,0,0,0,1.317-0.097c1.805-0.244,3.023,0.682,4.437,1.56
				c3.267,1.804,4.535,0.926,5.071,0.244C638.478,50.198,636.332,49.174,635.601,48.735z"/>
			<path d="M635.601,243.735c-3.999-0.635-6.144,0.195-7.266,0.584c-1.12,0.246-1.852-0.291-2.633-0.681
				c-6.34-1.707-8.241,1.219-8.241,1.219c-0.78,1.707,0,2,1.024,2.487c1.806,0.682,4.682-0.828,5.852-1.414
				c0.828-0.488,1.902-0.586,2.535-0.391c0,0,0,0,1.317-0.097c1.805-0.244,3.023,0.682,4.437,1.56
				c3.267,1.804,4.535,0.926,5.071,0.244C638.478,245.198,636.332,244.174,635.601,243.735z"/>
			<path d="M635.601,439.735c-3.999-0.635-6.144,0.195-7.266,0.584c-1.12,0.246-1.852-0.291-2.633-0.681
				c-6.34-1.707-8.241,1.219-8.241,1.219c-0.78,1.707,0,2,1.024,2.487c1.806,0.682,4.682-0.828,5.852-1.414
				c0.828-0.488,1.902-0.586,2.535-0.391c0,0,0,0,1.317-0.097c1.805-0.244,3.023,0.682,4.437,1.56
				c3.267,1.804,4.535,0.926,5.071,0.244C638.478,441.198,636.332,440.174,635.601,439.735z"/>
			<path d="M771.485,52.344c1.806,0.682,4.682-0.828,5.852-1.414c0.828-0.488,1.902-0.586,2.535-0.391
				c0,0,0,0,1.317-0.097c1.805-0.244,3.023,0.682,4.437,1.56c3.267,1.804,4.535,0.926,5.071,0.244
				c0.781-2.048-1.365-3.071-2.096-3.51c-3.999-0.635-6.144,0.195-7.266,0.584c-1.12,0.246-1.852-0.291-2.633-0.681
				c-6.34-1.707-8.241,1.219-8.241,1.219C769.681,51.564,770.461,51.857,771.485,52.344z"/>
			<path d="M788.601,243.735c-3.999-0.635-6.144,0.195-7.266,0.584c-1.12,0.246-1.852-0.291-2.633-0.681
				c-6.34-1.707-8.241,1.219-8.241,1.219c-0.78,1.707,0,2,1.024,2.487c1.806,0.682,4.682-0.828,5.852-1.414
				c0.828-0.488,1.902-0.586,2.535-0.391c0,0,0,0,1.317-0.097c1.805-0.244,3.023,0.682,4.437,1.56
				c3.267,1.804,4.535,0.926,5.071,0.244C791.478,245.198,789.332,244.174,788.601,243.735z"/>
		</g>
		<g id="root">
			<path d="M192.871,50.54c0.244,0.535,0.147,7.216,0.195,9.363c-1.56,3.022-2.974,4.144-4.145,5.217
				c-1.414,1.219-1.462,3.949-1.511,5.705c0.098-0.635,1.415-3.852,1.853-4.73c0.341-0.439,2.195-2.146,3.365-3.365
				c1.706-1.903,1.463-2.487,1.56-3.804c0.147-3.169,0.098-7.411,0-8.484C193.846,50.394,192.871,50.54,192.871,50.54z"/>
			<path d="M192.871,245.54c0.244,0.535,0.147,7.216,0.195,9.363c-1.56,3.022-2.974,4.144-4.145,5.217
				c-1.414,1.219-1.462,3.949-1.511,5.705c0.098-0.635,1.415-3.852,1.853-4.73c0.341-0.439,2.195-2.146,3.365-3.365
				c1.706-1.903,1.463-2.487,1.56-3.804c0.147-3.169,0.098-7.411,0-8.484C193.846,245.394,192.871,245.54,192.871,245.54z"/>
			<path d="M192.871,441.54c0.244,0.535,0.147,7.216,0.195,9.363c-1.56,3.022-2.974,4.144-4.145,5.217
				c-1.414,1.219-1.462,3.949-1.511,5.705c0.098-0.635,1.415-3.852,1.853-4.73c0.341-0.439,2.195-2.146,3.365-3.365
				c1.706-1.903,1.463-2.487,1.56-3.804c0.147-3.169,0.098-7.411,0-8.484C193.846,441.394,192.871,441.54,192.871,441.54z"/>
			<path d="M386.871,50.54c0.244,0.535,0.147,7.216,0.195,9.363c-1.56,3.022-2.974,4.144-4.145,5.217
				c-1.414,1.219-1.462,3.949-1.511,5.705c0.098-0.635,1.415-3.852,1.853-4.73c0.341-0.439,2.195-2.146,3.365-3.365
				c1.706-1.903,1.463-2.487,1.56-3.804c0.147-3.169,0.098-7.411,0-8.484C387.846,50.394,386.871,50.54,386.871,50.54z"/>
			<path d="M386.871,245.54c0.244,0.535,0.147,7.216,0.195,9.363c-1.56,3.022-2.974,4.144-4.145,5.217
				c-1.414,1.219-1.462,3.949-1.511,5.705c0.098-0.635,1.415-3.852,1.853-4.73c0.341-0.439,2.195-2.146,3.365-3.365
				c1.706-1.903,1.463-2.487,1.56-3.804c0.147-3.169,0.098-7.411,0-8.484C387.846,245.394,386.871,245.54,386.871,245.54z"/>
			<path d="M386.871,441.54c0.244,0.535,0.147,7.216,0.195,9.363c-1.56,3.022-2.974,4.144-4.145,5.217
				c-1.414,1.219-1.462,3.949-1.511,5.705c0.098-0.635,1.415-3.852,1.853-4.73c0.341-0.439,2.195-2.146,3.365-3.365
				c1.706-1.903,1.463-2.487,1.56-3.804c0.147-3.169,0.098-7.411,0-8.484C387.846,441.394,386.871,441.54,386.871,441.54z"/>
			<path d="M626.871,50.54c0.244,0.535,0.147,7.216,0.195,9.363c-1.56,3.022-2.974,4.144-4.145,5.217
				c-1.414,1.219-1.462,3.949-1.511,5.705c0.098-0.635,1.415-3.852,1.853-4.73c0.341-0.439,2.195-2.146,3.365-3.365
				c1.706-1.903,1.463-2.487,1.56-3.804c0.147-3.169,0.098-7.411,0-8.484C627.846,50.394,626.871,50.54,626.871,50.54z"/>
			<path d="M626.871,245.54c0.244,0.535,0.147,7.216,0.195,9.363c-1.56,3.022-2.974,4.144-4.145,5.217
				c-1.414,1.219-1.462,3.949-1.511,5.705c0.098-0.635,1.415-3.852,1.853-4.73c0.341-0.439,2.195-2.146,3.365-3.365
				c1.706-1.903,1.463-2.487,1.56-3.804c0.147-3.169,0.098-7.411,0-8.484C627.846,245.394,626.871,245.54,626.871,245.54z"/>
			<path d="M626.871,441.54c0.244,0.535,0.147,7.216,0.195,9.363c-1.56,3.022-2.974,4.144-4.145,5.217
				c-1.414,1.219-1.462,3.949-1.511,5.705c0.098-0.635,1.415-3.852,1.853-4.73c0.341-0.439,2.195-2.146,3.365-3.365
				c1.706-1.903,1.463-2.487,1.56-3.804c0.147-3.169,0.098-7.411,0-8.484C627.846,441.394,626.871,441.54,626.871,441.54z"/>
			<path d="M779.627,62.73c1.706-1.903,1.463-2.487,1.56-3.804c0.147-3.169,0.098-7.411,0-8.484
				c-0.341-0.049-1.316,0.097-1.316,0.097c0.244,0.535,0.147,7.216,0.195,9.363c-1.56,3.022-2.974,4.144-4.145,5.217
				c-1.414,1.219-1.462,3.949-1.511,5.705c0.098-0.635,1.415-3.852,1.853-4.73C776.604,65.656,778.457,63.949,779.627,62.73z"/>
			<path d="M779.871,245.54c0.244,0.535,0.147,7.216,0.195,9.363c-1.56,3.022-2.974,4.144-4.145,5.217
				c-1.414,1.219-1.462,3.949-1.511,5.705c0.098-0.635,1.415-3.852,1.853-4.73c0.341-0.439,2.195-2.146,3.365-3.365
				c1.706-1.903,1.463-2.487,1.56-3.804c0.147-3.169,0.098-7.411,0-8.484C780.846,245.394,779.871,245.54,779.871,245.54z"/>
		</g>
	</g>

	<g id="Gibberellic_Acid_Inhibitors_at_12_Hours">
		<g id="Uniconazole_Treated_at_12_Hours" fill="#E6E7E8">
			<path id="leafs_70_" d="M219.878,133.813c0,0,3.474-5.343,15.051-2.226c1.426,0.713,2.762,1.693,4.809,1.247
				c2.048-0.712,5.968-2.227,13.269-1.069c1.336,0.802,5.255,2.672,3.829,6.412c-0.98,1.248-3.296,2.85-9.262-0.444
				c-2.583-1.603-4.809-3.295-8.105-2.85c-2.405,0.178-2.405,0.178-2.405,0.178c-1.158-0.358-3.117-0.178-4.631,0.712
				c-2.137,1.069-7.392,3.83-10.687,2.582C219.878,137.465,218.453,136.929,219.878,133.813z"/>
			<path id="root_70_" d="M237.066,135.06c0,0,1.781-0.268,2.405-0.178c0.179,1.959,0.268,9.707,0,15.496
				c-0.178,2.405,0.268,3.474-2.85,6.948c-2.137,2.226-5.522,5.342-6.145,6.145c-0.802,1.603-3.206,7.481-3.385,8.639
				c0.089-3.206,0.179-8.193,2.761-10.42c2.138-1.96,4.72-4.007,7.571-9.53C237.333,148.241,237.513,136.039,237.066,135.06z"/>
		</g>
		<g id="Propiconazole_Treated_at_12_Hours" fill="#E6E7E8">
			<path id="leafs_104_" d="M219.878,87.46c0,0,3.474-5.343,15.051-2.226c1.426,0.713,2.762,1.693,4.809,1.246
				c2.048-0.712,5.968-2.226,13.269-1.068c1.336,0.802,5.255,2.672,3.829,6.412c-0.98,1.247-3.296,2.85-9.262-0.445
				c-2.583-1.603-4.809-3.295-8.105-2.85c-2.405,0.178-2.405,0.178-2.405,0.178c-1.158-0.358-3.117-0.178-4.631,0.712
				c-2.137,1.068-7.392,3.829-10.687,2.582C219.878,91.113,218.453,90.578,219.878,87.46z"/>
			<path id="root_104_" d="M237.066,88.708c0,0,1.781-0.267,2.405-0.178c0.179,1.96,0.268,9.708,0,15.497
				c-0.178,2.404,0.268,3.474-2.85,6.948c-2.137,2.226-5.522,5.343-6.145,6.146c-0.802,1.603-3.206,7.481-3.385,8.639
				c0.089-3.206,0.179-8.193,2.761-10.421c2.138-1.96,4.72-4.008,7.571-9.529C237.333,101.889,237.513,89.687,237.066,88.708z"/>
		</g>
		<g id="Prohexadione_Treated_at_12_Hours" fill="#E6E7E8">
			<path id="leafs_67_" d="M413.431,133.813c0,0,3.474-5.343,15.051-2.226c1.426,0.713,2.761,1.693,4.809,1.247
				c2.051-0.712,5.968-2.227,13.269-1.069c1.337,0.802,5.255,2.672,3.833,6.412c-0.98,1.248-3.295,2.85-9.262-0.444
				c-2.583-1.603-4.81-3.295-8.105-2.85c-2.409,0.178-2.409,0.178-2.409,0.178c-1.158-0.358-3.118-0.178-4.631,0.712
				c-2.139,1.069-7.393,3.83-10.688,2.582C413.431,137.465,412.006,136.929,413.431,133.813z"/>
			<path id="root_67_" d="M430.619,135.06c0,0,1.781-0.268,2.408-0.178c0.178,1.959,0.264,9.707,0,15.496
				c-0.18,2.405,0.264,3.474-2.85,6.948c-2.137,2.226-5.522,5.342-6.145,6.145c-0.802,1.603-3.207,7.481-3.385,8.639
				c0.089-3.206,0.178-8.193,2.761-10.42c2.138-1.96,4.721-4.007,7.571-9.53C430.887,148.241,431.066,136.039,430.619,135.06z"/>
		</g>
		<g id="Paclobutrazol_Treated_at_12_Hours" fill="#E6E7E8">
			<path id="leafs_102_" d="M413.431,87.46c0,0,3.474-5.343,15.051-2.226c1.426,0.713,2.761,1.693,4.809,1.246
				c2.051-0.712,5.968-2.226,13.269-1.068c1.337,0.802,5.255,2.672,3.833,6.412c-0.98,1.247-3.295,2.85-9.262-0.445
				c-2.583-1.603-4.81-3.295-8.105-2.85c-2.409,0.178-2.409,0.178-2.409,0.178c-1.158-0.358-3.118-0.178-4.631,0.712
				c-2.139,1.068-7.393,3.829-10.688,2.582C413.431,91.113,412.006,90.578,413.431,87.46z"/>
			<path id="root_102_" d="M430.619,88.708c0,0,1.781-0.267,2.408-0.178c0.178,1.96,0.264,9.708,0,15.497
				c-0.18,2.404,0.264,3.474-2.85,6.948c-2.137,2.226-5.522,5.343-6.145,6.146c-0.802,1.603-3.207,7.481-3.385,8.639
				c0.089-3.206,0.178-8.193,2.761-10.421c2.138-1.96,4.721-4.008,7.571-9.529C430.887,101.889,431.066,89.687,430.619,88.708z"/>
		</g>
	</g>
	<g id="Gibberellic_Acid_Inhibitors_at_3_Hours">
		<g id="Uniconazole_Treated_at_3_Hours" fill="#E6E7E8">
			<path id="leafs_60_" d="M172.599,133.813c0,0,3.474-5.343,15.051-2.226c1.426,0.713,2.762,1.693,4.809,1.247
				c2.048-0.712,5.968-2.227,13.269-1.069c1.336,0.802,5.255,2.672,3.83,6.412c-0.98,1.248-3.296,2.85-9.262-0.444
				c-2.583-1.603-4.809-3.295-8.105-2.85c-2.405,0.178-2.405,0.178-2.405,0.178c-1.158-0.358-3.117-0.178-4.632,0.712
				c-2.138,1.069-7.392,3.83-10.688,2.582C172.599,137.465,171.174,136.929,172.599,133.813z"/>
			<path id="root_60_" d="M189.788,135.06c0,0,1.781-0.268,2.405-0.178c0.179,1.959,0.268,9.707,0,15.496
				c-0.178,2.405,0.268,3.474-2.85,6.948c-2.137,2.226-5.522,5.342-6.145,6.145c-0.802,1.603-3.206,7.481-3.385,8.639
				c0.089-3.206,0.178-8.193,2.761-10.42c2.138-1.96,4.72-4.007,7.571-9.53C190.055,148.241,190.234,136.039,189.788,135.06z"/>
		</g>
		<g id="Propiconazole_Treated_at_3_Hours" fill="#E6E7E8">
			<path id="leafs_97_" d="M172.599,87.46c0,0,3.474-5.343,15.051-2.226c1.426,0.713,2.762,1.693,4.809,1.246
				c2.048-0.712,5.968-2.226,13.269-1.068c1.336,0.802,5.255,2.672,3.83,6.412c-0.98,1.247-3.296,2.85-9.262-0.445
				c-2.583-1.603-4.809-3.295-8.105-2.85c-2.405,0.178-2.405,0.178-2.405,0.178c-1.158-0.358-3.117-0.178-4.632,0.712
				c-2.138,1.068-7.392,3.829-10.688,2.582C172.599,91.113,171.174,90.578,172.599,87.46z"/>
			<path id="root_97_" d="M189.788,88.708c0,0,1.781-0.267,2.405-0.178c0.179,1.96,0.268,9.708,0,15.497
				c-0.178,2.404,0.268,3.474-2.85,6.948c-2.137,2.226-5.522,5.343-6.145,6.146c-0.802,1.603-3.206,7.481-3.385,8.639
				c0.089-3.206,0.178-8.193,2.761-10.421c2.138-1.96,4.72-4.008,7.571-9.529C190.055,101.889,190.234,89.687,189.788,88.708z"/>
		</g>
		<g id="Prohexadione_Treated_at_3_Hours" fill="#E6E7E8">
			<path id="leafs_52_" d="M367.08,133.813c0,0,3.474-5.343,15.051-2.226c1.426,0.713,2.761,1.693,4.809,1.247
				c2.047-0.712,5.967-2.227,13.269-1.069c1.336,0.802,5.255,2.672,3.83,6.412c-0.98,1.248-3.296,2.85-9.262-0.444
				c-2.583-1.603-4.809-3.295-8.105-2.85c-2.405,0.178-2.405,0.178-2.405,0.178c-1.158-0.358-3.118-0.178-4.631,0.712
				c-2.138,1.069-7.392,3.83-10.688,2.582C367.08,137.465,365.653,136.929,367.08,133.813z"/>
			<path id="root_52_" d="M384.267,135.06c0,0,1.781-0.268,2.405-0.178c0.178,1.959,0.268,9.707,0,15.496
				c-0.178,2.405,0.268,3.474-2.85,6.948c-2.137,2.226-5.522,5.342-6.144,6.145c-0.802,1.603-3.206,7.481-3.386,8.639
				c0.089-3.206,0.179-8.193,2.761-10.42c2.138-1.96,4.721-4.007,7.571-9.53C384.534,148.241,384.714,136.039,384.267,135.06z"/>
		</g>
		<g id="Paclobutrazol_Treated_at_3_Hours" fill="#E6E7E8">
			<path id="leafs_92_" d="M367.08,87.46c0,0,3.474-5.343,15.051-2.226c1.426,0.713,2.761,1.693,4.809,1.246
				c2.047-0.712,5.967-2.226,13.269-1.068c1.336,0.802,5.255,2.672,3.83,6.412c-0.98,1.247-3.296,2.85-9.262-0.445
				c-2.583-1.603-4.809-3.295-8.105-2.85c-2.405,0.178-2.405,0.178-2.405,0.178c-1.158-0.358-3.118-0.178-4.631,0.712
				c-2.138,1.068-7.392,3.829-10.688,2.582C367.08,91.113,365.653,90.578,367.08,87.46z"/>
			<path id="root_92_" d="M384.267,88.708c0,0,1.781-0.267,2.405-0.178c0.178,1.96,0.268,9.708,0,15.497
				c-0.178,2.404,0.268,3.474-2.85,6.948c-2.137,2.226-5.522,5.343-6.144,6.146c-0.802,1.603-3.206,7.481-3.386,8.639
				c0.089-3.206,0.179-8.193,2.761-10.421c2.138-1.96,4.721-4.008,7.571-9.529C384.534,101.889,384.714,89.687,384.267,88.708z"/>
		</g>
		<g id="arrows" fill="#E6E7E8">
			<polyline id="arrow4" points="401.187,157.797 408.603,157.797 408.585,158.339 408.527,160.116 411.229,157.952 
				408.448,155.635 408.603,157.952 			"/>
			<polyline id="arrow3" points="401.187,111.446 408.603,111.446 408.585,111.987 408.527,113.763 411.229,111.601 
				408.448,109.282 408.603,111.601 			"/>
			<polyline id="arrow2" points="205.78,157.797 213.196,157.797 213.177,158.339 213.118,160.116 215.822,157.952 
				213.041,155.635 213.196,157.952 			"/>
			<polyline id="arrow1" points="205.78,111.446 213.196,111.446 213.177,111.987 213.118,113.763 215.822,111.601 
				213.041,109.282 213.196,111.601 			"/>
		</g>
	</g>
	<g id="Auxin_Inhibitors">
		<g id="2_4_6-T_Treated" fill="#E6E7E8">
			<path id="leafs_90_" d="M608.838,328.49c0,0,3.474-5.343,15.051-2.225c1.423,0.711,2.761,1.693,4.806,1.247
				c2.052-0.713,5.967-2.226,13.27-1.069c1.335,0.802,5.255,2.673,3.834,6.414c-0.98,1.249-3.295,2.848-9.263-0.445
				c-2.582-1.603-4.809-3.296-8.104-2.848c-2.409,0.177-2.409,0.177-2.409,0.177c-1.158-0.357-3.118-0.177-4.632,0.713
				c-2.138,1.07-7.393,3.831-10.691,2.583C608.838,332.142,607.413,331.608,608.838,328.49z"/>
			<path id="root_90_" d="M626.027,329.737c0,0,1.78-0.267,2.409-0.177c0.178,1.958,0.263,9.705,0,15.498
				c-0.18,2.405,0.263,3.473-2.849,6.946c-2.139,2.225-5.519,5.344-6.145,6.145c-0.801,1.606-3.207,7.48-3.384,8.64
				c0.09-3.207,0.177-8.194,2.761-10.417c2.138-1.962,4.721-4.009,7.571-9.533C626.294,342.918,626.473,330.717,626.027,329.737z"/>
		</g>
		<g id="TIBA_Treated" fill="#E6E7E8">
			<path id="leafs_47_" d="M608.838,282.139c0,0,3.474-5.344,15.051-2.225c1.423,0.712,2.761,1.692,4.806,1.246
				c2.052-0.712,5.967-2.225,13.27-1.068c1.335,0.802,5.255,2.672,3.834,6.413c-0.98,1.246-3.295,2.849-9.263-0.445
				c-2.582-1.603-4.809-3.296-8.104-2.85c-2.409,0.178-2.409,0.178-2.409,0.178c-1.158-0.358-3.118-0.178-4.632,0.713
				c-2.138,1.069-7.393,3.831-10.691,2.583C608.838,285.79,607.413,285.256,608.838,282.139z"/>
			<path id="root_47_" d="M626.027,283.387c0,0,1.78-0.267,2.409-0.177c0.178,1.958,0.263,9.707,0,15.496
				c-0.18,2.405,0.263,3.473-2.849,6.946c-2.139,2.225-5.519,5.347-6.145,6.148c-0.801,1.604-3.207,7.478-3.384,8.639
				c0.09-3.207,0.177-8.193,2.761-10.418c2.138-1.96,4.721-4.007,7.571-9.529C626.294,296.566,626.473,284.365,626.027,283.387z"/>
		</g>
		<g id="PCIB_Treated" fill="#E6E7E8">
			<path id="leafs_87_" d="M762.391,326.637c0,0,3.474-5.344,15.052-2.227c1.425,0.712,2.761,1.693,4.809,1.249
				c2.049-0.711,5.964-2.225,13.27-1.067c1.334,0.802,5.256,2.673,3.831,6.413c-0.981,1.246-3.295,2.848-9.263-0.445
				c-2.578-1.606-4.806-3.295-8.105-2.849c-2.405,0.179-2.405,0.179-2.405,0.179c-1.159-0.357-3.121-0.179-4.635,0.711
				c-2.135,1.07-7.389,3.833-10.688,2.582C762.391,330.288,760.967,329.754,762.391,326.637z"/>
			<path id="root_87_" d="M779.58,327.883c0,0,1.777-0.263,2.405-0.176c0.178,1.958,0.267,9.708,0,15.497
				c-0.18,2.405,0.267,3.473-2.849,6.949c-2.134,2.224-5.517,5.345-6.145,6.146c-0.801,1.602-3.206,7.479-3.384,8.639
				c0.09-3.207,0.18-8.193,2.765-10.42c2.135-1.959,4.72-4.007,7.571-9.529C779.848,341.064,780.027,328.863,779.58,327.883z"/>
		</g>
		<g id="NPA_Treated" fill="#E6E7E8">
			<path id="leafs_43_" d="M762.391,282.139c0,0,3.474-5.344,15.052-2.225c1.425,0.712,2.761,1.692,4.809,1.246
				c2.049-0.712,5.964-2.225,13.27-1.068c1.334,0.802,5.256,2.672,3.831,6.413c-0.981,1.246-3.295,2.849-9.263-0.445
				c-2.578-1.603-4.806-3.296-8.105-2.85c-2.405,0.178-2.405,0.178-2.405,0.178c-1.159-0.358-3.121-0.178-4.635,0.713
				c-2.135,1.069-7.389,3.831-10.688,2.583C762.391,285.79,760.967,285.256,762.391,282.139z"/>
			<path id="root_43_" d="M779.58,283.387c0,0,1.777-0.267,2.405-0.177c0.178,1.958,0.267,9.707,0,15.496
				c-0.18,2.405,0.267,3.473-2.849,6.946c-2.134,2.225-5.517,5.347-6.145,6.148c-0.801,1.604-3.206,7.478-3.384,8.639
				c0.09-3.207,0.18-8.193,2.765-10.418c2.135-1.96,4.72-4.007,7.571-9.529C779.848,296.566,780.027,284.365,779.58,283.387z"/>
		</g>
	</g>
	<g id="Brassinosteroid_Inhibitors_at_3_Hours">
		<g id="10uM_Brz220_Treated_at_3_Hours" fill="#E6E7E8">
			<path id="leafs_36_" d="M172.598,282.139c0,0,3.474-5.344,15.051-2.225c1.426,0.712,2.762,1.692,4.81,1.246
				c2.049-0.712,5.967-2.225,13.269-1.068c1.334,0.802,5.256,2.672,3.831,6.413c-0.98,1.246-3.296,2.849-9.263-0.445
				c-2.582-1.603-4.809-3.296-8.104-2.85c-2.405,0.178-2.405,0.178-2.405,0.178c-1.159-0.358-3.117-0.178-4.632,0.713
				c-2.139,1.069-7.393,3.831-10.688,2.583C172.598,285.79,171.174,285.256,172.598,282.139z"/>
			<path id="root_36_" d="M189.788,283.387c0,0,1.781-0.267,2.405-0.177c0.179,1.958,0.267,9.707,0,15.496
				c-0.178,2.405,0.267,3.473-2.849,6.946c-2.138,2.225-5.522,5.347-6.145,6.148c-0.802,1.604-3.206,7.478-3.385,8.639
				c0.09-3.207,0.178-8.193,2.761-10.418c2.138-1.96,4.72-4.007,7.571-9.529C190.055,296.566,190.234,284.365,189.788,283.387z"/>
		</g>
		<g id="3uM_Brz220_Treated_at_3_Hours" fill="#E6E7E8">
			<path id="leafs_73_" d="M172.598,328.49c0,0,3.474-5.343,15.051-2.225c1.426,0.711,2.762,1.693,4.81,1.247
				c2.049-0.713,5.967-2.226,13.269-1.069c1.334,0.802,5.256,2.673,3.831,6.414c-0.98,1.249-3.296,2.848-9.263-0.445
				c-2.582-1.603-4.809-3.296-8.104-2.848c-2.405,0.177-2.405,0.177-2.405,0.177c-1.159-0.357-3.117-0.177-4.632,0.713
				c-2.139,1.07-7.393,3.831-10.688,2.583C172.598,332.142,171.174,331.608,172.598,328.49z"/>
			<path id="root_73_" d="M189.788,329.737c0,0,1.781-0.267,2.405-0.177c0.179,1.958,0.267,9.705,0,15.498
				c-0.178,2.405,0.267,3.473-2.849,6.946c-2.138,2.225-5.522,5.344-6.145,6.145c-0.802,1.606-3.206,7.48-3.385,8.64
				c0.09-3.207,0.178-8.194,2.761-10.417c2.138-1.962,4.72-4.009,7.571-9.533C190.055,342.918,190.234,330.717,189.788,329.737z"/>
		</g>
	</g>
	<g id="Brassinosteroid_Inhibitors_at_12_Hours">
		<g id="10uM_Brz91_Treated_at_12_Hours" fill="#E6E7E8">
			<path id="leafs_63_" d="M219.877,282.139c0,0,3.474-5.344,15.051-2.225c1.426,0.712,2.762,1.692,4.809,1.246
				c2.049-0.712,5.968-2.225,13.269-1.068c1.334,0.802,5.256,2.672,3.83,6.413c-0.98,1.246-3.296,2.849-9.263-0.445
				c-2.582-1.603-4.809-3.296-8.104-2.85c-2.405,0.178-2.405,0.178-2.405,0.178c-1.159-0.358-3.118-0.178-4.632,0.713
				c-2.138,1.069-7.393,3.831-10.687,2.583C219.877,285.79,218.453,285.256,219.877,282.139z"/>
			<path id="root_63_" d="M237.066,283.387c0,0,1.781-0.267,2.405-0.177c0.179,1.958,0.267,9.707,0,15.496
				c-0.178,2.405,0.267,3.473-2.849,6.946c-2.138,2.225-5.522,5.347-6.145,6.148c-0.802,1.604-3.206,7.478-3.385,8.639
				c0.09-3.207,0.178-8.193,2.761-10.418c2.138-1.96,4.72-4.007,7.571-9.529C237.333,296.566,237.513,284.365,237.066,283.387z"/>
		</g>
	</g>
	<g id="Ethylene_Inhibitors">
		<g id="10uM_AgNO3_Treated" fill="#E6E7E8">
			<path id="leafs_57_" d="M367.079,282.139c0,0,3.474-5.344,15.051-2.225c1.426,0.712,2.761,1.692,4.81,1.246
				c2.048-0.712,5.967-2.225,13.269-1.068c1.334,0.802,5.256,2.672,3.831,6.413c-0.98,1.246-3.296,2.849-9.263-0.445
				c-2.582-1.603-4.809-3.296-8.104-2.85c-2.405,0.178-2.405,0.178-2.405,0.178c-1.158-0.358-3.118-0.178-4.631,0.713
				c-2.138,1.069-7.393,3.831-10.688,2.583C367.079,285.79,365.653,285.256,367.079,282.139z"/>
			<path id="root_57_" d="M384.267,283.387c0,0,1.781-0.267,2.405-0.177c0.178,1.958,0.267,9.707,0,15.496
				c-0.178,2.405,0.267,3.473-2.849,6.946c-2.138,2.225-5.522,5.347-6.145,6.148c-0.802,1.604-3.206,7.478-3.385,8.639
				c0.09-3.207,0.179-8.193,2.761-10.418c2.138-1.96,4.721-4.007,7.571-9.529C384.534,296.566,384.714,284.365,384.267,283.387z"/>
		</g>
		<g id="10uM_AVG_Treated" fill="#E6E7E8">
			<path id="leafs_22_" d="M367.079,328.49c0,0,3.474-5.343,15.051-2.225c1.426,0.711,2.761,1.693,4.81,1.247
				c2.048-0.713,5.967-2.226,13.269-1.069c1.334,0.802,5.256,2.673,3.831,6.414c-0.98,1.249-3.296,2.848-9.263-0.445
				c-2.582-1.603-4.809-3.296-8.104-2.848c-2.405,0.177-2.405,0.177-2.405,0.177c-1.158-0.357-3.118-0.177-4.631,0.713
				c-2.138,1.07-7.393,3.831-10.688,2.583C367.079,332.142,365.653,331.608,367.079,328.49z"/>
			<path id="root_22_" d="M384.267,329.737c0,0,1.781-0.267,2.405-0.177c0.178,1.958,0.267,9.705,0,15.498
				c-0.178,2.405,0.267,3.473-2.849,6.946c-2.138,2.225-5.522,5.344-6.145,6.145c-0.802,1.606-3.206,7.48-3.385,8.64
				c0.09-3.207,0.179-8.194,2.761-10.417c2.138-1.962,4.721-4.009,7.571-9.533C384.534,342.918,384.714,330.717,384.267,329.737z"/>
		</g>
	</g>
	<g id="Ibuprofen_Salycylic_Acid_and_Daminozide">
		<g id="Ibuprofen_Treated" fill="#E6E7E8">
			<path id="leafs_51_" d="M608.838,87.46c0,0,3.474-5.344,15.051-2.225c1.423,0.712,2.761,1.692,4.806,1.245
				c2.052-0.712,5.967-2.226,13.27-1.067c1.335,0.802,5.255,2.673,3.834,6.413c-0.98,1.246-3.295,2.849-9.263-0.445
				c-2.582-1.603-4.809-3.296-8.104-2.85c-2.409,0.177-2.409,0.177-2.409,0.177c-1.158-0.358-3.118-0.177-4.632,0.713
				c-2.138,1.069-7.393,3.83-10.691,2.583C608.838,91.112,607.413,90.578,608.838,87.46z"/>
			<path id="root_51_" d="M626.027,88.708c0,0,1.78-0.267,2.409-0.177c0.178,1.959,0.263,9.708,0,15.497
				c-0.18,2.404,0.263,3.473-2.849,6.947c-2.139,2.225-5.519,5.344-6.145,6.146c-0.801,1.603-3.207,7.48-3.384,8.639
				c0.09-3.206,0.177-8.193,2.761-10.42c2.138-1.959,4.721-4.008,7.571-9.528C626.294,101.888,626.473,89.687,626.027,88.708z"/>
		</g>
		<g id="Daminozide_Treated" fill="#E6E7E8">
			<path id="leafs_16_" d="M761.464,87.46c0,0,3.474-5.344,15.052-2.225c1.422,0.712,2.761,1.692,4.805,1.245
				c2.052-0.712,5.968-2.226,13.272-1.067c1.335,0.802,5.254,2.673,3.832,6.413c-0.98,1.246-3.295,2.849-9.262-0.445
				c-2.582-1.603-4.809-3.296-8.105-2.85c-2.408,0.177-2.408,0.177-2.408,0.177c-1.159-0.358-3.118-0.177-4.631,0.713
				c-2.139,1.069-7.392,3.83-10.688,2.583C761.464,91.112,760.04,90.578,761.464,87.46z"/>
			<path id="root_16_" d="M778.653,88.708c0,0,1.781-0.267,2.408-0.177c0.178,1.959,0.263,9.708,0,15.497
				c-0.18,2.404,0.263,3.473-2.849,6.947c-2.134,2.225-5.517,5.344-6.145,6.146c-0.801,1.603-3.207,7.48-3.384,8.639
				c0.09-3.206,0.177-8.193,2.761-10.42c2.139-1.959,4.721-4.008,7.571-9.528C778.92,101.888,779.099,89.687,778.653,88.708z"/>
		</g>
		<g id="Salicylic_Acid_Treated" fill="#E6E7E8">
			<path id="leafs_45_" d="M608.838,133.813c0,0,3.474-5.344,15.051-2.225c1.423,0.712,2.761,1.692,4.806,1.246
				c2.052-0.712,5.967-2.226,13.27-1.068c1.335,0.802,5.255,2.673,3.834,6.413c-0.98,1.247-3.295,2.849-9.263-0.444
				c-2.582-1.603-4.809-3.296-8.104-2.85c-2.409,0.177-2.409,0.177-2.409,0.177c-1.158-0.358-3.118-0.177-4.632,0.713
				c-2.138,1.069-7.393,3.831-10.691,2.583C608.838,137.464,607.413,136.929,608.838,133.813z"/>
			<path id="root_45_" d="M626.027,135.06c0,0,1.78-0.267,2.409-0.177c0.178,1.959,0.263,9.707,0,15.496
				c-0.18,2.405,0.263,3.473-2.849,6.947c-2.139,2.225-5.519,5.343-6.145,6.145c-0.801,1.603-3.207,7.48-3.384,8.639
				c0.09-3.206,0.177-8.193,2.761-10.419c2.138-1.96,4.721-4.008,7.571-9.53C626.294,148.24,626.473,136.039,626.027,135.06z"/>
		</g>
	</g>
	<g id="Proteasome_Inhibitor_MG13">
		<g id="10uM_MG132_Treated" fill="#E6E7E8">
			<path id="leafs_40_" d="M366.152,478.671c0,0,3.474-5.343,15.051-2.225c1.425,0.712,2.761,1.693,4.809,1.25
				c2.049-0.712,5.968-2.226,13.269-1.068c1.335,0.802,5.256,2.672,3.832,6.413c-0.98,1.245-3.296,2.847-9.263-0.445
				c-2.582-1.607-4.81-3.296-8.104-2.849c-2.406,0.18-2.406,0.18-2.406,0.18c-1.158-0.357-3.117-0.18-4.631,0.712
				c-2.14,1.066-7.393,3.831-10.688,2.58C366.152,482.322,364.727,481.788,366.152,478.671z"/>
			<path id="root_40_" d="M383.34,479.918c0,0,1.781-0.267,2.406-0.18c0.178,1.958,0.266,9.708,0,15.496
				c-0.178,2.405,0.266,3.473-2.849,6.951c-2.139,2.221-5.523,5.344-6.145,6.144c-0.802,1.603-3.207,7.481-3.385,8.64
				c0.09-3.207,0.177-8.193,2.761-10.42c2.138-1.96,4.721-4.009,7.571-9.529C383.608,493.099,383.787,480.897,383.34,479.918z"/>
		</g>
	</g>
	<g id="Photosynthesis_Inhibitor_PN08_at_3_Hours">
		<g id="1uM_PNO8_Treated_at_3_Hours" fill="#E6E7E8">
			<path id="leafs_10_" d="M172.598,478.671c0,0,3.474-5.343,15.051-2.225c1.426,0.712,2.762,1.693,4.81,1.25
				c2.049-0.712,5.967-2.226,13.269-1.068c1.334,0.802,5.256,2.672,3.831,6.413c-0.98,1.245-3.296,2.847-9.263-0.445
				c-2.582-1.607-4.809-3.296-8.104-2.849c-2.405,0.18-2.405,0.18-2.405,0.18c-1.159-0.357-3.117-0.18-4.632,0.712
				c-2.139,1.066-7.393,3.831-10.688,2.58C172.598,482.322,171.174,481.788,172.598,478.671z"/>
			<path id="root_10_" d="M189.788,479.918c0,0,1.781-0.267,2.405-0.18c0.179,1.958,0.267,9.708,0,15.496
				c-0.178,2.405,0.267,3.473-2.849,6.951c-2.138,2.221-5.522,5.344-6.145,6.144c-0.802,1.603-3.206,7.481-3.385,8.64
				c0.09-3.207,0.178-8.193,2.761-10.42c2.138-1.96,4.72-4.009,7.571-9.529C190.055,493.099,190.234,480.897,189.788,479.918z"/>
		</g>
		<g id="10uM_PNO8_Treated_at_3_Hours" fill="#E6E7E8">
			<path id="leafs_35_" d="M172.598,525.023c0,0,3.474-5.344,15.051-2.226c1.426,0.712,2.762,1.693,4.81,1.246
				c2.049-0.711,5.967-2.225,13.269-1.064c1.334,0.802,5.256,2.672,3.831,6.413c-0.98,1.245-3.296,2.847-9.263-0.449
				c-2.582-1.603-4.809-3.292-8.104-2.847c-2.405,0.177-2.405,0.177-2.405,0.177c-1.159-0.357-3.117-0.177-4.632,0.713
				c-2.139,1.069-7.393,3.83-10.688,2.583C172.598,528.674,171.174,528.14,172.598,525.023z"/>
			<path id="root_35_" d="M189.788,526.27c0,0,1.781-0.263,2.405-0.176c0.179,1.958,0.267,9.708,0,15.496
				c-0.178,2.405,0.267,3.473-2.849,6.946c-2.138,2.226-5.522,5.344-6.145,6.149c-0.802,1.603-3.206,7.477-3.385,8.64
				c0.09-3.207,0.178-8.194,2.761-10.42c2.138-1.96,4.72-4.008,7.571-9.529C190.055,539.451,190.234,527.249,189.788,526.27z"/>
		</g>
		<polyline id="arrow5" points="205.78,502.655 213.196,502.655 213.177,503.197 213.118,504.972 215.822,502.81 
			213.041,500.492 213.196,502.81" fill="#E6E7E8"/>
	</g>
	<g id="Photosynthesis_Inhibitor_PN08_at_12_Hours">
		<g id="1uM_PNO8_Treated_at_12_Hours" fill="#E6E7E8">
			<path id="leafs_5_" d="M219.877,478.671c0,0,3.474-5.343,15.051-2.225c1.426,0.712,2.762,1.693,4.809,1.25
				c2.049-0.712,5.968-2.226,13.269-1.068c1.334,0.802,5.256,2.672,3.83,6.413c-0.98,1.245-3.296,2.847-9.263-0.445
				c-2.582-1.607-4.809-3.296-8.104-2.849c-2.405,0.18-2.405,0.18-2.405,0.18c-1.159-0.357-3.118-0.18-4.632,0.712
				c-2.138,1.066-7.393,3.831-10.687,2.58C219.877,482.322,218.453,481.788,219.877,478.671z"/>
			<path id="root_5_" d="M237.066,479.918c0,0,1.781-0.267,2.405-0.18c0.179,1.958,0.267,9.708,0,15.496
				c-0.178,2.405,0.267,3.473-2.849,6.951c-2.138,2.221-5.522,5.344-6.145,6.144c-0.802,1.603-3.206,7.481-3.385,8.64
				c0.09-3.207,0.178-8.193,2.761-10.42c2.138-1.96,4.72-4.009,7.571-9.529C237.333,493.099,237.513,480.897,237.066,479.918z"/>
		</g>
	</g>
	<g id="Cycloheximide">
		<g id="10uM_CHX_Treated" fill="#E6E7E8">
			<path id="leafs_30_" d="M608.838,478.671c0,0,3.474-5.343,15.051-2.225c1.423,0.712,2.761,1.693,4.806,1.25
				c2.052-0.712,5.967-2.226,13.27-1.068c1.335,0.802,5.255,2.672,3.834,6.413c-0.98,1.245-3.295,2.847-9.263-0.445
				c-2.582-1.607-4.809-3.296-8.104-2.849c-2.409,0.18-2.409,0.18-2.409,0.18c-1.158-0.357-3.118-0.18-4.632,0.712
				c-2.138,1.066-7.393,3.831-10.691,2.58C608.838,482.322,607.413,481.788,608.838,478.671z"/>
			<path id="root_30_" d="M626.027,479.918c0,0,1.78-0.267,2.409-0.18c0.178,1.958,0.263,9.708,0,15.496
				c-0.18,2.405,0.263,3.473-2.849,6.951c-2.139,2.221-5.519,5.344-6.145,6.144c-0.801,1.603-3.207,7.481-3.384,8.64
				c0.09-3.207,0.177-8.193,2.761-10.42c2.138-1.96,4.721-4.009,7.571-9.529C626.294,493.099,626.473,480.897,626.027,479.918z"/>
		</g>
	</g>
</g>
<g id="Labels">
	<text transform="matrix(1 0 0 1 91.3345 36.5216)" font-family="'Helvetica'" font-size="13.7106">Gibberellic Acid Inhibitors</text>
	<text transform="matrix(1 0 0 1 91.3345 231.1988)" font-family="'Helvetica'" font-size="13.7106">Brassinosteroid Inhibitors</text>
	<text transform="matrix(1 0 0 1 91.3345 427.7305)" font-family="'Helvetica'" font-size="13.7106">Photosynthesis Inhibitor</text>
	<text transform="matrix(1 0 0 1 297.6348 231.1988)" font-family="'Helvetica'" font-size="13.7106">Ethylene Inhibitor</text>
	<text transform="matrix(1 0 0 1 529.6045 36.5772)" font-family="'Helvetica'" font-size="13.7106">Ibuprofen, Salycilic Acid, and Daminozide</text>
	<text transform="matrix(1 0 0 1 529.4277 231.1988)" font-family="'Helvetica'" font-size="13.7106">Auxin Inhibitors</text>
	<text transform="matrix(1 0 0 1 529.4277 427.7305)" font-family="'Helvetica'" font-size="13.7106">Cycloheximide</text>
	<text transform="matrix(1 0 0 1 294.7671 427.7305)" font-family="'Helvetica'" font-size="13.7106">Proteasome Inhibitor</text>
	<text transform="matrix(1 0 0 1 91.334 57.8316)" font-family="'Helvetica'" font-size="7.4163">Mock Treatment</text>
	<text transform="matrix(1 0 0 1 91.334 254.8316)" font-family="'Helvetica'" font-size="7.4163">Mock Treatment</text>
	<text transform="matrix(1 0 0 1 297.334 254.8316)" font-family="'Helvetica'" font-size="7.4163">Mock Treatment</text>
	<text transform="matrix(1 0 0 1 530.334 254.8316)" font-family="'Helvetica'" font-size="7.4163">Mock Treatment</text>
	<text transform="matrix(1 0 0 1 91.334 452.8316)" font-family="'Helvetica'" font-size="7.4163">Mock Treatment</text>
	<text transform="matrix(1 0 0 1 297.334 452.8316)" font-family="'Helvetica'" font-size="7.4163">Mock Treatment</text>
	<text transform="matrix(1 0 0 1 530.334 452.8316)" font-family="'Helvetica'" font-size="7.4163">Mock Treatment</text>
	<text transform="matrix(1 0 0 1 297.334 57.8316)" font-family="'Helvetica'" font-size="7.4163">Mock Treatment</text>
	<text transform="matrix(1 0 0 1 529.334 57.8316)" font-family="'Helvetica'" font-size="7.4163">Mock Treatment</text>
	<text transform="matrix(1 0 0 1 687.334 254.8316)" font-family="'Helvetica'" font-size="7.4163">Mock Treatment</text>
	<text transform="matrix(1 0 0 1 686.334 57.8316)" font-family="'Helvetica'" font-size="7.4163">Mock Treatment</text>
	<text transform="matrix(1 0 0 1 175.4966 191.8663)" font-family="'Helvetica'" font-size="7.4163">3 hours</text>
	<text transform="matrix(1 0 0 1 175.4966 391.1788)" font-family="'Helvetica'" font-size="7.4163">3 hours</text>
	<text transform="matrix(1 0 0 1 175.4966 583.3194)" font-family="'Helvetica'" font-size="7.4163">3 hours</text>
	<text transform="matrix(1 0 0 1 217.2134 191.8663)" font-family="'Helvetica'" font-size="7.4163">12 hours</text>
	<text transform="matrix(1 0 0 1 217.2134 391.1788)" font-family="'Helvetica'" font-size="7.4163">12 hours</text>
	<text transform="matrix(1 0 0 1 217.2134 583.0753)" font-family="'Helvetica'" font-size="7.4163">12 hours</text>
	<text transform="matrix(1 0 0 1 412.6206 191.8663)" font-family="'Helvetica'" font-size="7.4163">12 hours</text>
	<text transform="matrix(1 0 0 1 369.9771 191.8663)" font-family="'Helvetica'" font-size="7.4163">3 hours</text>
	<text transform="matrix(1 0 0 1 369.9771 583.0753)" font-family="'Helvetica'" font-size="7.4163">3 hours</text>
	<text transform="matrix(1 0 0 1 369.9771 391.1788)" font-family="'Helvetica'" font-size="7.4163">3 hours</text>
	<text transform="matrix(1 0 0 1 611.7373 391.1788)" font-family="'Helvetica'" font-size="7.4163">3 hours</text>
	<text transform="matrix(1 0 0 1 611.7373 191.8663)" font-family="'Helvetica'" font-size="7.4163">3 hours</text>
	<text transform="matrix(1 0 0 1 767.1445 191.8663)" font-family="'Helvetica'" font-size="7.4163">3 hours</text>
	<text transform="matrix(1 0 0 1 611.7373 583.0753)" font-family="'Helvetica'" font-size="7.4163">3 hours</text>
	<text transform="matrix(1 0 0 1 766.2168 391.1788)" font-family="'Helvetica'" font-size="7.4163">3 hours</text>
	<text transform="matrix(1 0 0 1 91.334 86.88)" font-family="'Helvetica'" font-size="7.4163">10um propiconzazole</text>
	<text transform="matrix(1 0 0 1 91.334 95.7794)" font-family="'Helvetica'" font-size="7.4163">(GA biosynthesis</text>
	<text transform="matrix(1 0 0 1 91.334 104.6773)" font-family="'Helvetica'" font-size="7.4163">inhibitor)</text>
	<text transform="matrix(1 0 0 1 91.6431 133.8487)" font-family="'Helvetica'" font-size="7.4163">10uM uniconazole</text>
	<text transform="matrix(1 0 0 1 91.6431 142.7481)" font-family="'Helvetica'" font-size="7.4163">(GA biosynthesis</text>
	<text transform="matrix(1 0 0 1 91.6431 151.6485)" font-family="'Helvetica'" font-size="7.4163">inhibitor)</text>
	<text transform="matrix(1 0 0 1 203.4487 298.3819)" font-family="'Helvetica'" font-size="7.4163">(Brz91)</text>
	<text transform="matrix(1 0 0 1 91.6431 289.3008)" font-family="'Helvetica'" font-size="7.4163">10 uM brassinazole</text>
	<text transform="matrix(1 0 0 1 91.6431 298.2003)" font-family="'Helvetica'" font-size="7.4163">(Brz220)</text>
	<text transform="matrix(1 0 0 1 91.6431 307.1006)" font-family="'Helvetica'" font-size="7.4163">BS biosynthesis</text>
	<text transform="matrix(1 0 0 1 91.6431 316.0001)" font-family="'Helvetica'" font-size="7.4163">inhibitor</text>
	<text transform="matrix(1 0 0 1 91.6431 479.5294)" font-family="'Helvetica'" font-size="7.4163">1uM PN08</text>
	<text transform="matrix(1 0 0 1 91.6431 488.4288)" font-family="'Helvetica'" font-size="7.4163">(N-octyl-3-nitro- </text>
	<text transform="matrix(1 0 0 1 91.6431 497.3292)" font-family="'Helvetica'" font-size="7.4163">2,4,6-trihydroxy </text>
	<text transform="matrix(1 0 0 1 91.6431 506.2286)" font-family="'Helvetica'" font-size="7.4163">benzamide) </text>
	<text transform="matrix(1 0 0 1 91.6431 515.128)" font-family="'Helvetica'" font-size="7.4163">PII inhibitor</text>
	<text transform="matrix(1 0 0 1 91.6431 533.5391)" font-family="'Helvetica'" font-size="7.4163">10uM PN08</text>
	<text transform="matrix(1 0 0 1 91.6431 542.4385)" font-family="'Helvetica'" font-size="7.4163">(N-octyl-3-nitro- </text>
	<text transform="matrix(1 0 0 1 91.6431 551.3389)" font-family="'Helvetica'" font-size="7.4163">2,4,6-trihydroxy </text>
	<text transform="matrix(1 0 0 1 91.6431 560.2374)" font-family="'Helvetica'" font-size="7.4163">benzamide) </text>
	<text transform="matrix(1 0 0 1 91.6431 569.1378)" font-family="'Helvetica'" font-size="7.4163">PII inhibitor</text>
	<text transform="matrix(1 0 0 1 293.3052 480.0079)" font-family="'Helvetica'" font-size="7.4163">10uM MG132</text>
	<text transform="matrix(1 0 0 1 293.3052 488.9063)" font-family="'Helvetica'" font-size="7.4163">(carbobenzoxyl-</text>
	<text transform="matrix(1 0 0 1 293.3052 497.8067)" font-family="'Helvetica'" font-size="7.4163">leucinyl-leucinyl-</text>
	<text transform="matrix(1 0 0 1 293.3052 506.7061)" font-family="'Helvetica'" font-size="7.4163">leucinal)</text>
	<text transform="matrix(1 0 0 1 296.1729 289.3008)" font-family="'Helvetica'" font-size="7.4163">10uM AgNO3</text>
	<text transform="matrix(1 0 0 1 296.1729 298.2003)" font-family="'Helvetica'" font-size="7.4163">(EI)</text>
	<text transform="matrix(1 0 0 1 528.9023 290.2569)" font-family="'Helvetica'" font-size="7.4163">10uM 2,4,6-T</text>
	<text transform="matrix(1 0 0 1 528.9023 299.1563)" font-family="'Helvetica'" font-size="7.4163">(2,4,6-trihydro-</text>
	<text transform="matrix(1 0 0 1 528.9023 308.0567)" font-family="'Helvetica'" font-size="7.4163">xybenzamide)</text>
	<text transform="matrix(1 0 0 1 688.1377 290.2569)" font-family="'Helvetica'" font-size="7.4163">10uM TIBA</text>
	<text transform="matrix(1 0 0 1 688.1377 299.1563)" font-family="'Helvetica'" font-size="7.4163">(2,3,5-triiodo</text>
	<text transform="matrix(1 0 0 1 688.1377 308.0567)" font-family="'Helvetica'" font-size="7.4163">benzoic acid)</text>
	<text transform="matrix(1 0 0 1 688.1377 316.9551)" font-family="'Helvetica'" font-size="7.4163">(A transport I)</text>
	<text transform="matrix(1 0 0 1 688.1377 338.5313)" font-family="'Helvetica'" font-size="7.4163">10uM NPA</text>
	<text transform="matrix(1 0 0 1 688.1377 347.4308)" font-family="'Helvetica'" font-size="7.4163">(naphthylphthalmic</text>
	<text transform="matrix(1 0 0 1 688.1377 356.3301)" font-family="'Helvetica'" font-size="7.4163">acid)</text>
	<text transform="matrix(1 0 0 1 528.9023 341.877)" font-family="'Helvetica'" font-size="7.4163">10uM PCIB</text>
	<text transform="matrix(1 0 0 1 528.9023 350.7765)" font-family="'Helvetica'" font-size="7.4163">(p-chloropheno</text>
	<text transform="matrix(1 0 0 1 528.9023 359.6758)" font-family="'Helvetica'" font-size="7.4163">xyisobutric acid)</text>
	<text transform="matrix(1 0 0 1 530.8145 477.1397)" font-family="'Helvetica'" font-size="7.4163">10uM CHX</text>
	<text transform="matrix(1 0 0 1 530.8145 486.0391)" font-family="'Helvetica'" font-size="7.4163">(cycloheximide) </text>
	<text transform="matrix(1 0 0 1 295.2168 341.3985)" font-family="'Helvetica'" font-size="7.4163">10uM AVG</text>
	<text transform="matrix(1 0 0 1 295.2168 350.2979)" font-family="'Helvetica'" font-size="7.4163">(EI)</text>
	<text transform="matrix(1 0 0 1 91.6431 341.877)" font-family="'Helvetica'" font-size="7.4163">3 uM brassinazole</text>
	<text transform="matrix(1 0 0 1 91.6431 350.7765)" font-family="'Helvetica'" font-size="7.4163">(Brz220)</text>
	<text transform="matrix(1 0 0 1 91.6431 359.6758)" font-family="'Helvetica'" font-size="7.4163">BS biosynthesis</text>
	<text transform="matrix(1 0 0 1 91.6431 368.5753)" font-family="'Helvetica'" font-size="7.4163">inhibitor</text>
	<text transform="matrix(1 0 0 1 299.1792 87.4971)" font-family="'Helvetica'" font-size="7.4163">10 uM pacio-</text>
	<text transform="matrix(1 0 0 1 528.2617 87.4971)" font-family="'Helvetica'" font-size="7.4163">10 uM ibuprofen</text>
	<text transform="matrix(1 0 0 1 685.8867 87.4971)" font-family="'Helvetica'" font-size="7.4163">10 uM daminozide</text>
	<text transform="matrix(1 0 0 1 528.2617 136.7271)" font-family="'Helvetica'" font-size="7.4163">10 uM salicylic acid</text>
	<text transform="matrix(1 0 0 1 299.1792 96.3961)" font-family="'Helvetica'" font-size="7.4163">butrazol</text>
	<text transform="matrix(1 0 0 1 299.1792 105.2965)" font-family="'Helvetica'" font-size="7.4163">(GA biosynthesis</text>
	<text transform="matrix(1 0 0 1 299.1792 114.1954)" font-family="'Helvetica'" font-size="7.4163">inhibitor)</text>
	<text transform="matrix(1 0 0 1 298.5615 133.8487)" font-family="'Helvetica'" font-size="7.4163">10UM pro-</text>
	<text transform="matrix(1 0 0 1 298.5615 142.7481)" font-family="'Helvetica'" font-size="7.4163">hexadione</text>
	<text transform="matrix(1 0 0 1 298.5615 151.6485)" font-family="'Helvetica'" font-size="7.4163">(GA biosynthesis</text>
	<text transform="matrix(1 0 0 1 298.5615 160.5465)" font-family="'Helvetica'" font-size="7.4163">inhibitor)</text>
</g>
</svg>
