<?xml version='1.0' encoding='utf-8'?>
<svg xmlns="http://www.w3.org/2000/svg" height="119.29" id="svg10" version="1.1" viewBox="0 0 650.70343 119.29013" width="650.7">
    <g id="germinationFourtyEightHoursOutlineSL">
        <path d="m620.83 0c-0.41264 0.059179-2.929 0.53262-5.3086 1.0039-0.0476-0.68337-0.23111-0.62584-0.75781 0.1543-0.4215 0.084591-0.79561 0.16379-1.1758 0.24219-0.002-0.077646-0.009-0.11158-0.01-0.19922-0.003-0.29988-0.57533-0.5479-3.125-0.75391l-3.24 2.0527c1.2141 0.18342 0.74827 1.1913-2.1523 6.9512-1.9388 3.85-4.0811 6.9878-4.7617 6.9727-0.68059-0.01514-2.3633-1.5557-3.7383-3.4219-2.9707-4.0319-6.0869-5.9855-11.256-6.8789l-20.852 1.1992c-2.6053 0.60002-4.919 1.3069-6.4824 2.0859-4.62 2.3022-9.2817 6.5749-10.41 9.543-0.54984 1.4462-1 5.5253-1 9.0645 0 6.0182-0.14572 6.4331-2.25 6.3965-1.2375-0.02153-3.825-0.72288-5.75-1.5586s-5.525-1.3961-8-1.2441l-4.1973 0.25781-4.3633 8.4355 4.5801 5.3047c0.2877-0.14003 0.64833-0.15625 1.1094-0.15625 1.2179 0 2.9247 0.6172 3.793 1.3711 0.86831 0.75389 4.71 2.3963 8.5371 3.6504 2.66 0.87164 4.2357 1.4525 5.0195 1.8945l15.812 5.125-3.1074 3.7734 0.23242 1.998c0.27163 0.30095 0.46154 0.48999 0.44336 0.51172l8.8203 9.8828 4.0898-0.42578 2.1621-0.69141c0.4139-0.18986 0.80141-0.3291 1.168-0.43164l1.6602-0.61328 0.81641 0.85156 0.002 0.002 0.004 0.0039 1.0508 1.0977 3.0117 4.6406 2.2422 6.4492 5.7695 8.7891c1.0828 2.0765 3.4074 2.9566 6.1113 3.2324l-0.93554 0.1543 2.2383-0.0625c1.0654 0.03562 2.161-0.0027 3.2539-0.08984l9.6426-0.26758c3.0726-0.43013 4.4222-3.1241 6.6074-13.188 1.5859-7.3031 1.5905-8.246 0.0645-13.734-2.091-7.5208-2.0662-10.24 0.11133-12.148 0.9625-0.84364 7.0924-4.0578 13.621-7.1426 7.6247-3.6027 13.079-6.8896 15.25-9.1914l3.0234-3.207 1.8594-4.1855c-0.081-0.94399 0.0548-3.4042 0.19336-5.7773 0.15079-0.42768 0.24888-0.8602 0.23242-1.2227-0.0166-0.36566-0.061-0.58094-0.13085-0.67188 0.1105-1.9527 0.19035-3.6094 0.0684-3.6094-0.0778 0-0.15597 0.07298-0.23437 0.17383 0.0155-0.21889 0.035-0.44505 0.0293-0.62891-0.007-0.22872-0.0603-0.24043-0.12696-0.17383l-1.6406-2.2305-2.459-0.93359c-3.5678-1.3565-7.9229-1.2172-11.717 0.375-1.7698 0.74278-5.1899 3.3303-7.5996 5.75-2.588 2.5987-4.0685 3.5818-3.6172 2.4004 1.2745-3.3361 1.7878-17.794 0.76367-21.512l-0.93-3.4213z" fill="#000000" id="germinationFourtyEightHoursOutlineSL" stroke="#000000" stroke-miterlimit="10" stroke-width="0.5" />
    </g>
    <g id="germinationFourtyEightHoursFillSL">
        <path d="m615.52 1.0039c2.382 0.22852 4.9073 0.56174 5.1816 1.2832 2.3288 6.1253 2.2042 18.613-0.18555 18.613-0.55294 0-0.75174-0.9653-0.44336-2.1445 0.31643-1.21 0.18485-1.7546-0.30078-1.25-1.4389 1.495-1.6432 4.9177-0.27734 4.6445 1.7779-0.35558 1.5798 1.0756-1.2656 9.1289-2.3047 6.5229-2.3451 6.9111-0.48633 4.6211 1.6593-2.0443 1.909-2.1354 1.375-0.5-0.35917 1.1 0.86497 0.07463 2.7207-2.2773 1.8558-2.352 5.0694-5.4494 7.1406-6.8848 2.0712-1.4353 3.7656-3.084 3.7656-3.6621s-1.4606 0.27132-3.2461 1.8867l-3.2461 2.9375 2.4961-2.8789c1.373-1.5834 3.945-3.4959 5.7148-4.25 4.3472-1.8523 10.714-1.7584 12.324 0.18164 1.8695 2.2526 1.4948 9.7259-0.67383 13.42-2.3828 4.0588-11.659 10.155-21.738 14.289-8.9276 3.6617-12.631 6.5892-12.631 9.9805 0 1.2857 0.675 4.9283 1.5 8.0957s1.501 6.7503 1.502 7.9609c0.006 4.64-3.3897 16.306-5.3984 18.547l-6.4141 1.0508c-4.07-0.20613-8.7492-0.88012-10.43-2.7402-3.5341-3.9118-9.8172-15.22-9.6894-17.438 0.0386-0.67105 0.4216-0.31875 0.85156 0.78125 0.75042 1.9198 0.81185 1.906 1.5215-0.32617 0.95159-2.9932-0.0184-3.9194-2.4883-2.377-1.596 0.99675-1.9551 0.95868-1.9551-0.20508 0-0.78383-0.5625-1.6523-1.25-1.9297-0.74674-0.30132-0.54544-0.53682 0.5-0.58398 0.9625-0.04342 1.7462-0.41562 1.7422-0.82812-0.0128-1.2354-4.9376-3.1485-5.5508-2.1562-0.30783 0.49808-1.2336 0.90625-2.0586 0.90625-0.87918 0-1.2053-0.47761-0.78711-1.1543 0.44563-0.72104 0.27419-0.88356-0.45703-0.43164-0.644 0.39798-0.94331 1.0931-0.66406 1.5449 0.27925 0.45184-0.57127 1.53-1.8906 2.3945-3.2135 2.1056-4.2742-0.23491-1.4707-3.2441 1.9634-2.1075 1.9617-2.1094-0.51563-2.1094-1.364 0-2.7577 0.45-3.0976 1-0.33992 0.55-1.0914 1-1.6699 1-0.57847 0 0.0102-0.8851 1.3086-1.9668s1.888-1.9817 1.3106-2c-0.5775-0.0183-1.5007 0.41864-2.0527 0.9707-0.67166 0.67166-1.6488 0.5276-2.9512-0.43359-1.6574-1.2233-1.7387-1.6321-0.54883-2.7539 1.1676-1.1009 1.3045-1.0475 0.82617 0.32031-0.43651 1.2483-0.10064 1.5124 1.418 1.1152 1.3299-0.34778 1.6593-0.85242 0.99024-1.5215-0.66907-0.66907-0.52165-1.4823 0.44336-2.4473 1.9144-1.9144 1.1406-2.9257-2.8125-3.6758-1.7936-0.34032-4.3867-1.1965-5.7617-1.9023-1.375-0.70581-6.55-2.5868-11.5-4.1816s-9.675-3.4562-10.5-4.1348c-0.825-0.67857-2.722-1.5376-4.2148-1.9102-1.4928-0.37253-2.976-1.5047-3.2969-2.5156-1.2704-4.0028 4.7577-8.6646 7.8672-6.084 0.73096 0.60664 1.6481 0.78354 2.0391 0.39258 0.39097-0.39096 0.44408-0.01395 0.11719 0.83789-0.44352 1.1558 0.49472 1.8715 3.6973 2.8223 2.3603 0.7007 4.9275 1.7912 5.7051 2.4219 1.1796 0.95684 1.238 0.8153 0.34961-0.85352-0.92069-1.7295-0.74239-2.0202 1.3281-2.1445 1.3597-0.08166 2.13 0.28538 1.7812 0.84961-0.33774 0.54646 0.4117 0.44473 1.666-0.22656 2.0246-1.0835 2.0946-1.3238 0.62109-2.1484-0.91294-0.51091-1.6544-1.6957-1.6484-2.6309 0.008-1.203 0.76005-0.74863 2.5723 1.5508 1.4731 1.8691 3.486 3.2568 4.7383 3.2656 1.7425 0.01225 1.8821 0.20199 0.69727 0.95117-0.96515 0.61029 0.49343 0.73127 4.1914 0.34961 3.93-0.40562 7.2092-0.08311 10.67 1.0488 2.7475 0.89868 5.6613 1.6348 6.4746 1.6348 0.81333 0 1.6272 0.44632 1.8105 0.99219 0.45511 1.3551 10.756 3.9412 11.42 2.8672 1.0465-1.6933 2.4141-0.81658 2.4141 1.5469 0 1.9949 0.38072 2.3064 2.2246 1.8242 1.2233-0.3199 1.6733-0.7658 1-0.99024-0.67332-0.22444-1.2246-0.84619-1.2246-1.3828 0-0.53663 0.3375-0.76666 0.75-0.51172s0.78843-0.50643 0.83593-1.6914 0.42047-2.9078 0.82813-3.8281c1.0049-2.2686-3.059-4.6308-4.7715-2.7734-0.87729 0.95156-0.81666 1.0546 0.26172 0.43945 0.91103-0.51971 1.1667-0.41799 0.72852 0.29102-0.37155 0.60118 0.12163 1.5579 1.0957 2.125 0.97407 0.56708 1.2936 1.0438 0.70899 1.0605-0.5846 0.01673-2.3315-1.293-3.8809-2.9102-3.0831-3.2181-2.906-6.0586 0.37695-6.0586 2.0813 0 4.5025-3.2319 3.3125-4.4219-0.37639-0.37639 0.0275-0.4104 0.89844-0.07617 1.8555 0.71203 11.02-3.4295 11.613-5.248 0.22343-0.68486-0.88268-2.5331-2.457-4.1074l-2.8613-2.8613 3.418-6.2305c2.4755-4.5113 3.6603-5.8607 4.2988-4.8926 0.70303 1.0659 1.1823 0.9444 2.3633-0.60352 0.54698-0.71693 1.0042-1.6515 1.2559-2.4551z" fill="#ffffff" id="germinationFourthEightHoursFillSL" stroke="#000000" stroke-miterlimit="10" stroke-width="0.5" />
    </g>
    <g id="germinationFourtyEightHoursFillTopSL">
        <path d="m578.39 6.6743c6.83 0.037039 12.123 1.8654 14 5.166 0.87127 1.5321 1.9476 2.7895 2.3926 2.793 0.44497 0.0035 0.48814 0.52518 0.0957 1.1602-0.42587 0.68907-0.27477 0.88475 0.37305 0.48438 1.9619-1.2125 2.3357 1.2431 0.67773 4.4492-0.89481 1.7304-1.419 3.9431-1.1641 4.918 0.73343 2.8047-0.9509 4.4941-4.4824 4.4941-1.3172 0-2.2075 0.15109-2.9102 0.5957l1.1035 2.7695c0.18227-0.25847 0.36864-0.42964 0.5332-0.46875 0.10159-0.02414 0.19451-0.000794 0.27149 0.07617 0.25625 0.25625 0.0693 0.85567-0.38867 1.4414l2.0859 5.2383c0.3847 0.17456 0.77041 0.48248 0.9961 0.84766 0.23892 0.38658 0.0945 0.72048-0.30664 0.88672l0.36132 0.90625-4.6973-0.61719c-0.0159 0.39168-0.0749 0.77583-0.19531 1.0742-0.27073 0.67093-0.48945 0.13737-0.5-1.166l-0.79493-0.10352-8.4883-3.209c-0.0383 0.07566-0.0806 0.12286-0.1289 0.09766-2.1241-1.1097-9.9118-2.5748-12-2.2578-1.5782 0.23957-2.75-0.05005-2.75-0.67773 0-0.68091-1.0705-0.85845-2.8359-0.4707-1.9628 0.43111-3.5144 0.07143-5.041-1.1699-2.202-1.7905-2.2025-1.7961-0.19921-3.5039 1.1036-0.9408 2.2625-1.2973 2.5742-0.79297 0.31166 0.50428 1.2258 0.66334 2.0332 0.35352 0.80738-0.30982 1.4688-0.06588 1.4688 0.54297 0 0.60884 0.7875 1.1146 1.75 1.123 1.3402 0.01173 1.4375 0.21186 0.41601 0.85938-1.0739 0.68077-1.0252 0.96378 0.25 1.4531 1.0938 0.41972 1.584 0.0348 1.584-1.2441 0-1.0186-0.90164-2.0868-2.0039-2.375-1.4512-0.37951-1.8179-1.033-1.3301-2.3672 0.65149-1.7818 0.60558-1.7827-1.3965-0.02734-1.1959 1.0485-2.3251 1.4048-2.6719 0.84375-0.70589-1.1422-4.5976-0.33214-4.5976 0.95703 0 0.48585-0.59641 0.88477-1.3262 0.88477-0.89884 0-1.2187-1.0483-0.99219-3.25 0.27211-2.6447 0.15919-2.8775-0.60352-1.25-0.77502 1.6537-0.94971 1.3381-1.0078-1.8184-0.0611-3.3205 0.17922-3.7379 1.8457-3.209 1.0537 0.33444 2.2029 0.1442 2.5527-0.42188 0.38727-0.62662-0.069-0.80138-1.166-0.44726-1.2875 0.41559-1.089-0.04008 0.69727-1.5977 1.375-1.1989 1.9678-1.9079 1.3184-1.5762-0.6495 0.3317-1.5063 0.07559-1.9043-0.56836-0.44171-0.7147-0.2912-0.90336 0.38672-0.48438 0.61619 0.38083 1.8529-0.44648 2.7773-1.8574 1.9384-2.9583 5.7958-4.8197 13.248-6.3945 3.5633-0.75299 6.9853-1.1067 10.09-1.0898z" fill="#ffffff" id="germinationFourtyEightHoursFillTopSL" stroke="#000000" stroke-miterlimit="10" stroke-width="0.5" />
    </g>
    <g id="germinationFourtyEightHoursFillTopSmallBitSL">
        <path d="m600.35 17.576c2.6638 0 6.3333 3.2816 5.3848 4.8164-0.32075 0.51899-1.602 1.1656-2.8477 1.4355-1.2456 0.26994-3.0531 0.82199-4.0156 1.2266-1.7746 0.74593-2.5324-0.87822-0.88477-1.8965 0.47622-0.29433 0.65013-1.6705 0.38477-3.0586-0.41016-2.1456-0.11417-2.5234 1.9785-2.5234z" fill="#ffffff" id="germinationFourtyEightHoursFillTopSmallBitSL" stroke="#000000" stroke-miterlimit="10" stroke-width="0.5" />
    </g>
    <g id="germinationTwentyFourHoursOutlineSL">
        <path d="m462.75 19.834c-0.51637-0.02349-1.0729 0.047-1.7363 0.17969-1.6901 0.33802-3.6433 1.3931-4.3398 2.3457-2.0853 2.8519-2.7973 13.493-1.1641 17.402 0.77966 1.866 1.7482 5.5978 2.1524 8.293 1.2003 8.0043 5.6143 12.663 12.562 13.262 1.925 0.16577 5.3 0.72697 7.5 1.2461s7.4279 0.82198 11.617 0.67383c8.9368-0.31606 14.473-2.9839 20.283-9.7715 4.0159-4.6916 5.1433-8.8603 4.2188-15.605-0.84465-6.1624-2.6033-8.5685-8.2637-11.309-7.5981-3.6782-14.626-3.6842-29.723-0.02539-3.6978 0.89621-4.0389 0.76013-7.8184-3.0957-2.5598-2.6115-3.74-3.5252-5.2891-3.5957z" fill="#000000" id="germinationTwentyFourHoursOutlineSL" stroke="#000000" stroke-miterlimit="10" stroke-width="0.5" />
    </g>
    <g id="germinationSixHoursOutlineSL">
        <path d="m353.43 26.185c-0.16429 0-1.9101 0.31455-3.8555 0.70508 0.0911-0.02594 0.1716-0.06237 0.26563-0.08398 0.61875-0.14222 0.464-0.22152-0.28516-0.23438s-2.0923 0.04135-3.8477 0.16406c-12.171 0.85083-19.118 7.1538-19.115 17.346 0.002 8.4161 2.2143 11.945 9.998 15.941 6.3368 3.2536 6.7511 3.3266 16.5 2.916 6.711-0.28264 10.987-0.96196 13-2.0645 13.781-7.5465 15.445-21.372 3.5957-29.869-0.49584-0.35557-1.0683-0.67544-1.6641-0.97461l-0.002-0.002c-0.0624-0.21212-1.0993-0.59232-2.5176-1.0254-0.23216-0.07488-0.45169-0.14018-0.67774-0.20312-3.9976-1.1628-10.445-2.6152-11.395-2.6152z" fill="#000000" id="germinationSixHoursOutlineSL" stroke="#000000" stroke-miterlimit="10" stroke-width="0.5" />
    </g>
    <g id="germinationTwelveHourOutlineSL">
        <path d="m416.19 26.424c-9.071-0.20318-18.749 3.1135-23.732 8.752-3.0271 3.4247-3.3003 4.2829-3.2715 10.238 0.021 4.3436 0.61234 7.4952 1.7852 9.5 2.327 3.9776 9.6727 8.4176 15.721 9.5039 11.692 2.1001 25.584-1.086 31.033-7.1191 8.3098-9.2005 1.5559-24.666-12.863-29.455-2.6928-0.8944-5.6482-1.3522-8.6719-1.4199z" fill="#000000" id="germinationTwelveHourOutlineSL" stroke="#000000" stroke-miterlimit="10" stroke-width="0.5" />
    </g>
    <g id="germinationFourtyEightHourOutlineS">
        <path d="m242.91 28.726-10.062 0.0957c-11.609 0.11194-17.331 1.8153-21.799 6.4902-3.772 3.9471-6.0583 9.3445-4.9394 11.658 0.46669 0.96511 1.7096 3.5184 2.7617 5.6738 2.1865 4.4795 5.3209 7.0772 10.971 9.0898 7.4084 2.6391 23.414 1.3731 23.457-1.8555 0.01-0.73786 0.31604-0.67586 0.85352 0.17188 0.67603 1.0663 1.4433 0.95516 3.9453-0.56641 5.1924-3.1577 7.9078-7.5137 8.7578-14.057 0.61737-4.7521-1.5908-8.1935-8.1641-12.721z" fill="#000000" id="germinationFourtyEightHourOutlineS" stroke="#000000" stroke-miterlimit="10" stroke-width="0.5" />
    </g>
    <g id="germinationTwentyFourHourFillSL">
        <path d="m460.25 23.913c0.72471-0.02393 1.6874 0.84485 3.1777 2.7988 1.7484 2.2923 3.5672 3.5859 5.0469 3.5859 1.4421 0 2.5562 0.75874 2.9551 2.0156 0.88546 2.7898 7.3042 5.8415 13.67 6.498 9.8545 1.0164 14.824 1.1167 14.824 0.29883 0-0.44711-1.2375-0.88528-2.75-0.97461-8.6699-0.51203-10.576-0.69858-13.037-1.2734-4.2316-0.98833-9.2129-3.8822-9.2129-5.3516 0-0.73239 0.45-1.0528 1-0.71289 0.55 0.33992 1 0.20346 1-0.30273s1.125-0.70621 2.5-0.44336c1.9412 0.37108 2.5037 0.06067 2.5156-1.3887 0.0111-1.3532 0.23927-1.5105 0.83203-0.57617 0.61627 0.97134 1.4916 1.0329 3.5508 0.25 4.0745-1.5491 7.0886-1.2649 9.0039 0.85156 1.5953 1.7628 5.5977 1.8777 5.5977 0.16016 0-1.2647 3.6719-0.49618 6.5098 1.3633 1.6883 1.1062 2.2258 1.7012 1.8691 2.2422l0.84961 1.8867 0.51758 3.1133-0.19531 3.5117c0.26442 0.161 0.44922 0.4188 0.44922 0.72461 0 0.30282-0.20606 0.60008-0.50782 0.86133l-0.0332 1.3555-0.8457 1.0332c0.29755 0.21709-0.0331 0.75888-1.0274 2.1074-0.91231 1.2375-1.9252 3.056-2.25 4.041-0.3248 0.98499-1.0954 1.6162-1.7129 1.4023-0.61748-0.21384-2.1355 0.69008-3.373 2.0098-1.9616 2.0919-2.2572 2.1683-2.3125 0.59766-0.0496-1.4087-0.26641-1.296-0.99219 0.51367-0.51048 1.2728-1.4017 2.0217-1.9805 1.6641-0.57874-0.35768-1.7246-0.09254-2.5469 0.58984-1.6602 1.3778-15.418 2.4044-15.418 1.1504 0-0.43605-0.97862-0.867-2.1738-0.95703s-3.1077-1.1489-4.25-2.3516-1.544-1.8909-0.89453-1.5312c0.6495 0.35966 1.4631 0.19569 1.8086-0.36328 0.34546-0.55897 1.3315-1.0156 2.1914-1.0156 1.232 0 1.3148 0.29902 0.39258 1.4102-0.95084 1.1457-0.64436 1.506 1.6289 1.9258 3.8505 0.71103 6.3095 0.49303 5.6934-0.50391-0.28346-0.45833-1.4638-0.83203-2.623-0.83203s-1.8288-0.27866-1.4883-0.61914c0.34048-0.34048-0.042-1.2822-0.85156-2.0918-1.1569-1.1569-2.1158-1.2462-4.4805-0.42187-3.7574 1.3098-5.8429 0.55026-7.0234-2.5547-0.50566-1.33-2.2676-2.8836-3.9238-3.4609-2.3409-0.81604-3.0059-1.6455-3.0059-3.75 0-1.4862-0.38562-3.1298-0.85743-3.6523-1.1303-1.2523 0.11697-13.109 1.5274-14.52 0.19972-0.19972 0.41468-0.30648 0.65625-0.31445z" fill="#ffffff" id="germinationTwentyFourHourFillSL" stroke="#000000" stroke-miterlimit="10" stroke-width="0.5" />
    </g>
    <g id="germinationHOutline">
        <path d="m27.019 35.833c-11.364 0-26.157 9.4518-24.617 15.73 0.86838 3.5414 1.8532 4.4544 8.5469 7.9102 12.193 6.2947 32.701 2.9924 35.107-5.6523 0.02712-0.09745 0.05339-0.11724 0.08008-0.16797l1.0352-5.3047-0.81836-1.793c-0.10674 0.16903-0.22871 0.10055-0.36328-0.22266-2.389-5.7379-10.993-10.5-18.971-10.5z" fill="#000000" id="germinationHOutline" stroke="#000000" stroke-miterlimit="10" stroke-width="0.5" />
    </g>
    <g id="germinationZeroHOutlineS">
        <path d="m75.824 34.52c-10.146 0.01976-14.075 1.1115-18.75 5.2109-0.05875 0.05151-0.10136 0.07195-0.15625 0.11719l-2.9707 8.7461 2.2754 8.1465 5.1387 2.5488c5.2704 2.6123 7.1444 2.9987 14.75 3.043 7.1711 0.04171 9.5705-0.36642 13.561-2.3008 11.174-5.4173 11.757-16.931 1.1523-22.775-4.5288-2.4961-5.9423-2.754-15-2.7363z" fill="#000000" id="germinationZeroHOutlineS" stroke="#000000" stroke-miterlimit="10" stroke-width="0.5" />
    </g>
    <g id="germinationOneHourS">
        <path d="m123.02 34.173c-9.3826 0.16256-15.639 3.2461-18.633 9.1836-3.6697 7.2772-3.1501 9.4018 3.3144 13.537 3.0607 1.9579 7.2232 3.951 9.25 4.4297 6.1508 1.4528 19.434 1.2064 24.299-0.45117 8.4772-2.8885 13.149-15.21 7.6367-20.141-4.241-3.7933-15.832-6.7325-25.867-6.5586z" fill="#000000" id="germinationOneHourS" stroke="#000000" stroke-miterlimit="10" stroke-width="0.5" />
    </g>
    <g id="germinationTwelveHourSL">
        <path d="m416.19 26.424c2.6123 0.0226 4.8255 0.36005 4.4336 0.99414-0.33992 0.55-0.14106 1 0.4414 1s1.0662-0.5625 1.0742-1.25c0.0102-0.83333 0.33813-0.75 0.98438 0.25 0.53316 0.825 0.97637 1.1512 0.98437 0.72461 0.0299-1.515 5.578 2.1797 9.6777 6.4453 5.0357 5.2394 6.8982 10.844 4.8926 14.723-2.13 4.1189-10.029 9.2786-14.477 9.4551-2.484 0.09858-3.6636 0.56529-3.3691 1.334 0.32284 0.84278-1.3204 1.1301-5.7207 1-3.396-0.10044-6.3528-0.46821-6.5703-0.81836s-2.0094-0.93881-3.9805-1.3086-5.0123-1.5439-6.7598-2.6094c-3.1241-1.9049-3.136-1.9396-0.67773-2.0449 1.9879-0.08515 1.7369-0.31095-1.2227-1.0977-3.1806-0.84544-3.8165-1.4957-4.375-4.4727-0.36565-1.9491-0.1571-4.571 0.47266-5.9531 1.4461-3.1738 1.4341-4.6857-0.0293-3.7812-0.72104 0.44563-0.88356 0.2742-0.43164-0.45703 0.39798-0.64395 1.0524-0.96838 1.4531-0.7207 0.40076 0.24768 1.381 0.03654 2.1797-0.46875 1.2519-0.79191 1.2545-0.92039 0.0156-0.93359-2.7548-0.02935 3.9498-5.7041 8.2363-6.9707 2.3104-0.68268 4.9824-1.6462 5.9375-2.1426 1.2064-0.62705 4.2178-0.91909 6.8301-0.89648z" fill="#ffffff" id="germinationTwelveHourSL" stroke="#000000" stroke-miterlimit="10" stroke-width="0.5" />
    </g>
    <g id="germinationTwelveHourOutlineS">
        <path d="m183.83 31.829-14.232 0.04297c-4.7591 2.1254-13.404 6.189-14.598 12.561-1.265 6.7551 4.9365 14.85 14.441 18.85 11.189 4.7079 25.673 1.916 30.607-5.9004 3.0441-4.8221 3.9656-10.506 2.2324-13.762-2.8712-5.393-7.3904-9.9234-10.865-10.889-1.4568-0.40468-4.0733-0.67285-6.8652-0.83008-0.23429-0.02525-0.48471-0.04728-0.72071-0.07227z" fill="#000000" id="germinationTwelveHourOutlineS" stroke="#000000" stroke-miterlimit="10" stroke-width="0.5" />
    </g>
    <g id="germinationFourtyEightHoursFillS">
        <path d="m230.17 29.741c0.38667 0.01554 0.9611 0.12518 1.7383 0.32617 1.5942 0.4123 4.7868 0.88301 7.0957 1.0449 4.907 0.3441 12.876 5.2552 12.666 7.8066-0.0754 0.91732 0.2621 1.4207 0.75 1.1191 0.48791-0.30154 0.9373-0.18324 1 0.26172 0.68405 4.8536 0.54784 6.3442-0.67774 7.3613-0.78916 0.65494-1.4355 1.7814-1.4355 2.502 0 0.72059-0.98468 1.6221-2.1875 2.0039-2.1115 0.67017-2.1219 0.74245-0.3086 2.0684 1.0329 0.7553 1.3204 1.373 0.63867 1.373-0.68168 0-3.0374 0.86821-5.2344 1.9297-4.9815 2.4068-9.9082 3.5401-9.9082 2.2793 0-0.52222 2.0362-1.5199 4.5254-2.2168 2.4892-0.69693 4.813-1.7308 5.1641-2.2988 0.41201-0.66665-0.0399-0.75464-1.2754-0.24609-2.2024 0.90655-5.0351 1.3377-11.498 1.748-5.0535 0.32083-6.6033 2.8047-1.75 2.8047 1.5583 0 2.834 0.45 2.834 1s-0.1125 0.92786-0.25 0.83984-1.7104-0.3408-3.4961-0.5625c-2.4376-0.30262-3.4002-1.0122-3.8594-2.8418-0.42718-1.702-1.3077-2.4355-2.9199-2.4355-1.2696 0-2.5084-0.5625-2.7539-1.25-0.24554-0.6875-0.78735-0.93514-1.2031-0.54883-0.98035 0.91091 2.0152 3.9163 3.5547 3.5664 0.64821-0.14732 1.3846 0.29492 1.6367 0.98242 0.78891 2.1516-3.0127 1.3186-7.2031-1.5781-2.1972-1.5189-4.1633-3.6415-4.3672-4.7168s-0.69828-2.1801-1.0996-2.4551c-1.1035-0.75616-2.085-8.1461-0.99219-7.4707 0.51112 0.31589 0.67863-0.08139 0.3711-0.88281-0.30976-0.80721 0.70825-2.876 2.2832-4.6387 2.0918-2.3412 3.8294-3.2483 6.5742-3.4316 2.0518-0.13707 4.0295-0.54708 4.3945-0.91211 0.36503-0.36503 2.1908-0.66406 4.0566-0.66406 2.2933 0 3.162-0.37049 2.6836-1.1445-0.31622-0.51165-0.19133-0.74855 0.45313-0.72266z" fill="#ffffff" id="germinationFourtyEightHoursFillS" stroke="#000000" stroke-miterlimit="10" stroke-width="0.5" />
    </g>
    <g id="germinationSixHourSLFill">
        <path d="m355.04 29.224c0.3984-0.01757 0.84699 0.24083 1.123 0.6875 0.19541 0.31618 3.3894 0.62885 6.4355 0.81055 0.33456 0.08014 0.68493 0.13867 1.041 0.13867 2.3404 0 5.4422 2.7626 6.6445 5.3672l0.95508 0.85156 0.88476 1.8105c-0.0314-0.11977-0.0725-0.23755-0.13671-0.34961-0.37215-0.6495-0.30721-0.84494 0.14453-0.43555 0.45174 0.4094 0.92085 1.9844 1.041 3.5 0.12017 1.5156 0.54533 4.3756 0.94532 6.3555 0.65305 3.2338 0.38632 3.9203-2.6289 6.748-4.9322 4.6256-9.3502 6.3642-17.281 6.8027-10.531 0.58225-19.292-3.2171-23.641-10.254-1.5968-2.5836-2.2835-6.2212-1.7188-7.709l0.0899-1.6289 0.32422-0.79297c0.0402-0.428 0.33579-1.2354 0.88671-2.3008 1.2998-2.5135 1.8899-2.9388 2.584-1.8613 0.71912 1.1163 1.0084 0.99624 1.4512-0.60352 0.31349-1.1326 2.4819-2.8566 5-3.9746 1.9781-0.87822 3.6514-1.9215 4.2305-2.5898 0.3034 0.05871 0.74415 0.09309 1.2539 0.11523 0.67257 1.0261 0.93639 1.0723 0.94726 0.14062 0.00054-0.04832 0.019-0.07848 0.0234-0.12305 3.3762 0.02631 8.7123-0.39708 9.0273-0.5918 0.11359-0.0702 0.24025-0.10742 0.37305-0.11328z" fill="#ffffff" id="germinationSixHourSLFill" stroke="#000000" stroke-miterlimit="10" stroke-width="0.5" />
    </g>
    <g id="germinationZeroHourFillS">
        <path d="m77.657 36.582c0.08975 0.0091 0.13956 0.26421 0.16992 0.76758 0.04342 0.71998 0.50095 1.0478 1.0176 0.72852 1.3274-0.82038 9.0605 0.53648 9.0605 1.5898 0 0.04854-0.02058 0.09551-0.04492 0.14258l1.9102 1.2148c0.73254 0.04794 1.5072 0.36286 2.375 0.9707 1.4766 1.0342 1.8987 1.3758 1.377 1.5293l0.44336 1.7129c0.38073 0.34997 0.71268 0.90382 1.084 1.7188 1.0398 2.2821 0.91227 2.8809-0.97656 4.6406-1.1929 1.1113-2.168 2.6788-2.168 3.4824 0 0.80358-0.5625 1.5295-1.25 1.6133-2.3644 0.28811-3.2568 0.5377-6.1797 1.7344-4.2638 1.7457-10.837 2.3592-12.57 1.1719-1.2384-0.84848-1.2536-1.0303-0.08398-1.043 0.77917-0.0084 1.1791-0.25453 0.88867-0.54492-0.29039-0.29039-1.7822-0.05012-3.3164 0.5332-2.3359 0.88811-3.1414 0.7294-4.9531-0.97266-1.19-1.1179-2.9555-2.0312-3.9219-2.0312-1.9504 0-2.4844-1.0523-2.4844-2.7129 0-0.58929-1.4198-2.2871-0.55273-2.2871 1.2199 0 1.5119-0.90186 1.2891-3.9883-0.3247-4.4971 0.23928-5.2737 4.9961-6.8633 2.975-0.99416 3.215-0.94713 2.0918 0.40625-0.90182 1.0866-0.95791 1.839-0.19727 2.5996 1.6563 1.6563 3.4784-0.08713 2.8223-2.7012-0.44906-1.7892-0.17912-2.3128 1.168-2.2578 0.96444 0.0394 2.6152-0.29052 3.668-0.73242 1.3537-0.56823 1.7028-0.46023 1.1914 0.36719-0.42729 0.69137-0.12009 1.1699 0.75195 1.1699 0.81163 0 1.7031-0.5625 1.9805-1.25 0.19396-0.48067 0.32431-0.71807 0.41406-0.70898z" fill="#ffffff" id="germinationZeroHourFillS" stroke="#000000" stroke-miterlimit="10" stroke-width="0.5" />
    </g>
    <g id="germinationHFill">
        <path d="m25.323 38.735c7.8786-0.27367 17.805 6.4591 17.805 12.533 0 3.3412-2.0102 5.1903-8.0684 7.4219-7.0101 2.5822-13.219 2.9493-14.746 0.87109-0.69292-0.94306-0.99202-1.1523-0.66406-0.46484 1.0235 2.1455-1.3645 1.3769-5.7793-1.8594l-4.2422-3.1094 3.25 0.68945c4.1376 0.87663 8.916-0.15041 8.916-1.916 0.000002-1.0507-0.51584-1.1252-2.2695-0.32617-1.2483 0.56874-2.9879 0.75732-3.8672 0.41992-1.4503-0.55653-1.4402-0.85657 0.11523-3.2305 0.94299-1.4392 2.6465-2.9923 3.7852-3.4531 1.6598-0.67177 1.7294-0.85152 0.35156-0.90234-1.2008-0.04429-1.5287-0.58978-1.0879-1.8125 0.40301-1.1179-0.30305-0.7666-1.957 0.97266-1.424 1.4974-2.7363 3.7124-2.9141 4.9219-0.17773 1.2095-0.89358 2.3872-1.5918 2.6172-1.0082 0.3321-1.0266-0.11558-0.08789-2.1758 1.4503-3.1831 0.71108-4.1131-2.084-2.6172-1.2517 0.66989-1.8209 1.6195-1.3945 2.3301 0.4193 0.69877 0.002 0.61813-0.99805-0.19336-1.6095-1.306-1.611-1.5087-0.03516-3.25 2.2848-2.5247 10.951-6.483 16.02-7.3164 0.50348-0.08278 1.0197-0.13214 1.5449-0.15039z" fill="#ffffff" id="germinationHFill" stroke="#000000" stroke-miterlimit="10" stroke-width="0.5" />
    </g>
    <g id="germinationTwelveHourFillS">
        <path d="m175.47 33.969c0.74085 0.07039 1.6661 0.12871 2.6035 0.19336 0.14443 0.81832 0.49788 1.4004 0.91407 1.4004 0.8098 0 1.0886-0.45006 0.85156-1.2871 0.94233 0.05626 1.7418 0.11448 2.7031 0.16211 0.13578 0.07326 0.28321 0.125 0.44532 0.125 0.20663 0 0.38897-0.03412 0.54883-0.08203 3.5423 0.16438 6.7782 0.2693 7.0391 0.23047 0.59886-0.08914 1.9074 0.73999 2.9062 1.8438 1.9975 2.2072 1.4197 2.5676-1.5606 0.97266-1.356-0.72571-1.9336-0.71431-1.9336 0.04101 0 2.0604 2.41 3.6378 4.9473 3.2383 2.0219-0.31834 2.2407-0.17977 1.0527 0.66211-1.246 0.88298-1.1261 1.0654 0.71093 1.0781 1.7335 0.012 2.448 0.89035 3.3027 4.0645 1.1131 4.1338 0.59487 7.9512-1.0801 7.9512-0.51293 0-0.93359 0.60399-0.93359 1.3438 0 1.2396-4.0272 5.6479-4.3555 4.7676-0.0798-0.21388-2.3477 0.61485-5.041 1.8418-3.4023 1.5499-5.8441 2.0372-8 1.5977-1.7067-0.34798-3.891-0.7112-4.8535-0.80664s-1.75-0.55298-1.75-1.0176c0-0.4646-0.43709-0.57589-0.97071-0.24609-1.5738 0.97268-10.961-3.4952-10.402-4.9512 0.29022-0.7563-0.52951-1.5396-1.998-1.9082-2.7828-0.69844-3.8168-4.0175-2.1582-6.9277 0.79144-1.3887 0.63438-2.0286-0.67969-2.7754-0.94547-0.53734-1.4555-1.6298-1.1426-2.4453 0.79534-2.0726 2.1033-1.8302 2.8516 0.52734 0.96869 3.0521 2.7462 2.4118 2.082-0.75-0.31772-1.5125-0.22952-3.2896 0.19726-3.9492 1.3746-2.1247 9.4824-5.2321 11.223-4.3008 0.98735 0.52842 1.7402 0.35852 2.4805-0.59375z" fill="#ffffff" id="germinationTwelveHourFillS" stroke="#000000" stroke-miterlimit="10" stroke-width="0.5" />
    </g>
    <g id="germinationOneHourSFill">
        <path d="m122.13 36.778c4.2374-0.01879 9.3214 0.59206 14.197 1.8379 8.122 2.0752 9.0903 2.5825 10.811 5.6738 2.1733 3.9055 1.4598 6.8007-2.8125 11.408-2.9098 3.138-3.6063 3.381-2.7188 0.94727 0.55654-1.5261 0.34822-1.4967-1.623 0.23633-1.8982 1.6688-3.969 2.0336-12.92 2.2773-10.688 0.29105-14.158-0.49843-14.158-3.2246 0-0.749-0.7875-1.2358-1.75-1.0801-0.96249 0.1557-2.225-0.08967-2.8047-0.54688-1.4485-1.1425-0.54436-7.9121 1.0566-7.9121 0.70598 0 1.5676-0.73978 1.914-1.6426 0.47095-1.2273 0.30913-1.3863-0.64258-0.63477-0.70008 0.55282-2.0359 0.99131-2.9687 0.97461-1.3512-0.02419-1.4913-0.41434-0.68554-1.9199 0.55627-1.0394 1.7707-2.1588 2.6973-2.4863 0.92652-0.32753 2.4061-1.2121 3.2891-1.9668 1.4906-1.2741 4.8818-1.9226 9.1191-1.9414z" fill="#ffffff" id="germinationOneHourSFill" stroke="#000000" stroke-miterlimit="10" stroke-width="0.5" />
    </g>
    <g id="germinationOneHourOutlineSL">
        <path d="m301.04 28.532-10.062 0.0957c-11.609 0.11194-17.331 1.8153-21.799 6.4902-3.772 3.9471-6.0583 9.3445-4.9394 11.658 0.46669 0.96511 1.7096 3.5184 2.7617 5.6738 2.1865 4.4795 5.3209 7.0772 10.971 9.0898 7.4084 2.6391 23.414 1.3731 23.457-1.8555 0.01-0.73786 0.31604-0.67586 0.85352 0.17188 0.67603 1.0663 1.4433 0.95516 3.9453-0.56641 5.1924-3.1577 7.9078-7.5137 8.7578-14.057 0.61737-4.7521-1.5908-8.1935-8.1641-12.721z" fill="#000000" id="germinationOneHourOutlineSL" stroke="#000000" stroke-miterlimit="10" stroke-width="0.5" />
    </g>
    <g id="germinationOneHourFillSL">
        <path d="m290.81 30.041c0.37646-0.01695 0.80035 0.2323 1.0612 0.66316 0.18465 0.30499 3.2027 0.60658 6.0811 0.78184 0.31613 0.0773 0.64721 0.13376 0.98369 0.13376 2.2115 0 5.1424 2.6648 6.2786 5.1771l0.90248 0.82141 0.83603 1.7464c-0.0297-0.11553-0.0685-0.22914-0.12918-0.33723-0.35165-0.6265-0.29029-0.81502 0.13657-0.42012s0.87014 1.9141 0.98368 3.3761c0.11355 1.4619 0.5153 4.2206 0.89326 6.1304 0.61709 3.1193 0.36505 3.7815-2.4841 6.5091-4.6606 4.4618-8.8353 6.1389-16.33 6.5618-9.9514 0.56163-18.229-3.1032-22.339-9.8908-1.5088-2.4921-2.1577-6.0009-1.6241-7.436l0.0849-1.5712 0.30636-0.76489c0.038-0.41284 0.3173-1.1916 0.83788-2.2193 1.2282-2.4245 1.7858-2.8347 2.4417-1.7954 0.67951 1.0768 0.95286 0.96096 1.3712-0.58214 0.29622-1.0925 2.3452-2.7555 4.7246-3.8339 1.8691-0.84712 3.4503-1.8535 3.9975-2.4981 0.28669 0.05663 0.70317 0.08979 1.1849 0.11115 0.63553 0.98973 0.88482 1.0344 0.89509 0.13564 0.00051-0.04661 0.018-0.0757 0.0221-0.11869 3.1903 0.02538 8.2325-0.38301 8.5302-0.57084 0.10734-0.06771 0.22702-0.10362 0.35251-0.10927z" fill="#ffffff" id="germinationOneHourFillSL" stroke="#000000" stroke-miterlimit="10" stroke-width=".95471" />
    </g>
    <g id="outlines">
		<rect id="rect3751" style="stroke-width:.96413;fill:#000000" height="18.785" width="604.11" y="99.589" x="48.161"/>
		<rect id="rect3755" style="stroke-width:1.0409;fill:#ffffff" height="14.58" width="388.22" y="101.39" x="261.12"/>
		<rect id="rect3761" style="fill:#000000" height="118.03" width="1.3188" y=".34277" x="48.161"/>
		<rect id="rect3761-0" style="fill:#000000" height="118.03" width="1.3188" y="-.48078" x="259.54"/>
		<text id="text3780" style="word-spacing:0px;font-size:16px;font-family:sans-serif;fill:#000000;font-variant-numeric:normal;letter-spacing:0px;font-variant-ligatures:normal;font-feature-settings:normal;font-variant-caps:normal;line-height:1.25" x="51.578945" y="94.02697" xml:space="preserve">
            <tspan id="tspan3778" x="51.578945" y="94.02697">Stratification</tspan>
        </text>
		<flowRoot id="flowRoot3782" xml:space="preserve" style="font-size:40px;font-family:sans-serif;letter-spacing:0px;line-height:1.25;word-spacing:0px;fill:black"><flowRegion id="flowRegion3784"><rect id="rect3786" y="84.553" width="8.4211" x="100.53" height="66.842"/></flowRegion><flowPara id="flowPara3788"/></flowRoot>
        <text id="text3780-9" style="word-spacing:0px;font-size:16px;font-family:sans-serif;fill:#000000;font-variant-numeric:normal;letter-spacing:0px;font-variant-ligatures:normal;font-feature-settings:normal;font-variant-caps:normal;line-height:1.25" x="263.54544" y="92.65464" xml:space="preserve">
            <tspan id="tspan3778-9" x="263.54544" y="92.65464">Light</tspan>
        </text>
        <text id="text3810" style="word-spacing:0px;font-size:12px;font-family:sans-serif;fill:#ffffff;font-variant-numeric:normal;letter-spacing:0px;font-variant-ligatures:normal;font-feature-settings:normal;font-variant-caps:normal;line-height:1.25" x="61.578945" y="114.02698" xml:space="preserve">
            <tspan id="tspan3808" x="61.578945" y="114.02698">0h </tspan>
        </text>
        <text id="text3810-2" style="word-spacing:0px;font-size:12px;font-family:sans-serif;fill:#ffffff;font-variant-numeric:normal;letter-spacing:0px;font-variant-ligatures:normal;font-feature-settings:normal;font-variant-caps:normal;line-height:1.25" x="118.82355" y="113.7579" xml:space="preserve">
            <tspan id="tspan3808-5" x="118.82355" y="113.7579">1h </tspan>
        </text>
        <text id="text3810-7" style="word-spacing:0px;font-size:12px;font-family:sans-serif;fill:#ffffff;font-variant-numeric:normal;letter-spacing:0px;font-variant-ligatures:normal;font-feature-settings:normal;font-variant-caps:normal;line-height:1.25" x="167.24461" y="112.70528" xml:space="preserve">
            <tspan id="tspan3808-6" x="167.24461" y="112.70528">12h </tspan>
        </text>
        <text id="text3810-1" style="word-spacing:0px;font-size:12px;font-family:sans-serif;fill:#ffffff;font-variant-numeric:normal;letter-spacing:0px;font-variant-ligatures:normal;font-feature-settings:normal;font-variant-caps:normal;line-height:1.25" x="220.4025" y="113.2316" xml:space="preserve">
            <tspan id="tspan3808-1" x="220.4025" y="113.2316">48h </tspan>
        </text>
        <text id="text3810-9" style="word-spacing:0px;font-size:12px;font-family:sans-serif;fill:#000000;font-variant-numeric:normal;letter-spacing:0px;font-variant-ligatures:normal;font-feature-settings:normal;font-variant-caps:normal;line-height:1.25" x="14.613024" y="112.17896" xml:space="preserve">
            <tspan id="tspan3808-11" x="14.613024" y="112.17896">H </tspan>
        </text>
        <text id="text3810-9-3" style="word-spacing:0px;font-size:13.466px;font-family:sans-serif;fill:#000000;font-variant-numeric:normal;letter-spacing:0px;font-variant-ligatures:normal;font-feature-settings:normal;font-variant-caps:normal;line-height:1.25" transform="matrix(1.1221 -.050527 0 .89115 0 0)" x="243.57957" y="140.19893" xml:space="preserve">
            <tspan id="tspan3808-11-2" style="stroke-width:1.1221" x="243.57957" y="140.19893">1h </tspan>
        </text>
        <text id="text3810-9-3-9" style="word-spacing:0px;font-size:13.466px;font-family:sans-serif;fill:#000000;font-variant-numeric:normal;letter-spacing:0px;font-variant-ligatures:normal;font-feature-settings:normal;font-variant-caps:normal;line-height:1.25" transform="matrix(1.1221 -.050527 0 .89115 0 0)" x="303.84763" y="143.12367" xml:space="preserve">
            <tspan id="tspan3808-11-2-6" style="stroke-width:1.1221" x="303.84763" y="143.12367">6h </tspan>
        </text>
        <text id="text3810-9-3-9-9" style="word-spacing:0px;font-size:13.466px;font-family:sans-serif;fill:#000000;font-variant-numeric:normal;letter-spacing:0px;font-variant-ligatures:normal;font-feature-settings:normal;font-variant-caps:normal;line-height:1.25" transform="matrix(1.1221 -.050527 0 .89115 0 0)" x="358.24915" y="147.26115" xml:space="preserve">
            <tspan id="tspan3808-11-2-6-9" style="stroke-width:1.1221" x="358.24915" y="147.26115">12h </tspan>
        </text>
        <text id="text3810-9-3-9-9-1" style="word-spacing:0px;font-size:13.466px;font-family:sans-serif;fill:#000000;font-variant-numeric:normal;letter-spacing:0px;font-variant-ligatures:normal;font-feature-settings:normal;font-variant-caps:normal;line-height:1.25" transform="matrix(1.1221 -.050527 0 .89115 0 0)" x="421.97641" y="151.24564" xml:space="preserve">
            <tspan id="tspan3808-11-2-6-9-8" style="stroke-width:1.1221" x="421.97641" y="151.24564">24h </tspan>
        </text>
        <text id="text3810-9-3-9-9-9" style="word-spacing:0px;font-size:13.466px;font-family:sans-serif;fill:#000000;font-variant-numeric:normal;letter-spacing:0px;font-variant-ligatures:normal;font-feature-settings:normal;font-variant-caps:normal;line-height:1.25" transform="matrix(1.1221 -.050527 0 .89115 0 0)" x="514.84351" y="156.51105" xml:space="preserve">
            <tspan id="tspan3808-11-2-6-9-0" style="stroke-width:1.1221" x="514.84351" y="156.51105">48h </tspan>
        </text>
    </g>
</svg>
