<svg id="Layer_1" xmlns="http://www.w3.org/2000/svg" viewBox="125 175 650 250"><g id="Samples_2_"><path fill="none" d="M242.053 331.191c-.027-.284-.046-.57-.053-.858-.032-1.406-.466-2.726-1.194-3.833-1.186-6.286-3.785-12.38-5.293-18.727-.266-1.117-.695-2.071-1.235-2.888-.057-.414-.132-.836-.219-1.272-.015-.112-.03-.227-.045-.34-.273-.973-.702-1.854-1.254-2.662-.025-.113-.061-.221-.079-.338-.102-.648-.361-1.289-.708-1.899-.093-.856-.294-1.697-.6-2.495-.139-1.551-.672-3.094-1.528-4.514-.4-3.114-1.51-6.088-2.206-9.16-.137-.605-.393-1.155-.73-1.645-.223-1.371-.972-2.688-2.465-3.644-6.074-3.889-13.407-4.65-20.442-5.084-.472-.029-.91-.004-1.318.062-.642-.193-1.318-.278-1.999-.216-.434-.113-.884-.179-1.35-.179-1.399 0-2.739.144-4.129.363-.064.01-.128.033-.192.048-.493-.106-1.004-.234-1.55-.381-.938-.251-1.895-.238-2.788-.01-.833-.224-1.771-.248-2.803.01-5.473 1.366-10.952 1.432-16.04 3.472-1.186.009-2.277.492-3.149 1.252-.138.018-.275.023-.413.057-2.179.502-4.07 1.762-5.956 2.902-1.653 1.002-2.374 3.039-1.734 4.814-.04.268-.08.533-.08.806 0 .244.024.485.058.728-.087.078-.176.155-.26.237-1.321 1.284-1.706 3.188-1.24 4.88-.158.359-.3.725-.403 1.098-.168.611-.269 1.213-.311 1.799-.284.843-.489 1.738-.677 2.646-.937 1.19-1.504 2.679-1.5 4.281 0 .158.004.319.007.481-.137.33-.277.662-.411.994-.004 0-.009-.002-.013-.005-.011.034-.018.07-.028.104-2.109 5.226-3.699 10.549-4.972 16.062-.023.103-.034.199-.054.3-.241.431-.449.887-.613 1.367-.604 1.771-.664 3.729-.855 5.581-.004.046-.011.103-.019.165-.033.192-.07.385-.111.575-1.074 1.082-1.565 2.567-1.592 4.097-.016.025-.035.051-.051.076-1.93 3.296-.774 7.649 2.511 9.577.385.226.777.437 1.167.647.551.803 1.275 1.459 2.167 1.853.231.103.46.208.69.312 1.123 1.373 2.836 2.304 5.148 2.312.775.351 1.549.702 2.328 1.045 1.446.638 2.978.921 4.425.79.691.598 1.544 1.087 2.581 1.416 5.772 1.836 11.517 1.708 17.381 1.614.648.243 1.361.409 2.146.469 7.879.584 15.694.577 23.52-.64 3.084-.479 6.091-1.024 9.209-1.193 2.514-.136 7.167-2.35 8.271-2.333 2.462.037 4.247-.979 5.365-2.478 1.992-.465 3.872-1.523 5.139-3.08.273-.201.537-.418.779-.659 1.384-1.386 1.911-3.044 2.05-4.95.093-1.271-.089-2.546-.28-3.809z" id="Suspension_cell_culture_control"/><path fill="none" d="M416.053 331.191c-.026-.284-.046-.57-.053-.858-.032-1.406-.466-2.726-1.194-3.833-1.186-6.286-3.784-12.38-5.293-18.727-.266-1.117-.694-2.071-1.234-2.888-.058-.414-.132-.836-.22-1.272-.015-.112-.029-.227-.045-.34-.272-.973-.701-1.854-1.254-2.662-.024-.113-.061-.221-.079-.338-.102-.648-.36-1.289-.708-1.899-.093-.856-.294-1.697-.6-2.495-.139-1.551-.672-3.094-1.528-4.514-.399-3.114-1.51-6.088-2.206-9.16-.137-.605-.393-1.155-.729-1.645-.224-1.371-.972-2.688-2.465-3.644-6.074-3.889-13.407-4.65-20.442-5.084-.472-.029-.91-.004-1.318.062-.642-.193-1.317-.278-1.999-.216-.434-.113-.884-.179-1.35-.179-1.399 0-2.739.144-4.129.363-.064.01-.128.033-.192.048-.492-.106-1.004-.234-1.55-.381-.938-.251-1.895-.238-2.788-.01-.833-.224-1.771-.248-2.803.01-5.473 1.366-10.952 1.432-16.04 3.472-1.186.009-2.277.492-3.149 1.252-.138.018-.274.023-.412.057-2.18.502-4.07 1.762-5.956 2.902-1.653 1.002-2.374 3.039-1.734 4.814-.04.268-.08.533-.08.806 0 .244.024.485.058.728-.087.078-.176.155-.26.237-1.32 1.284-1.706 3.188-1.24 4.88-.157.359-.3.725-.402 1.098-.168.611-.27 1.213-.312 1.799-.284.843-.488 1.738-.677 2.646-.937 1.19-1.504 2.679-1.5 4.281 0 .158.004.319.007.481-.137.33-.276.662-.411.994-.004 0-.009-.002-.013-.005-.011.034-.018.07-.028.104-2.108 5.226-3.698 10.549-4.972 16.062-.023.103-.034.199-.054.3-.241.431-.449.887-.613 1.367-.604 1.771-.664 3.729-.855 5.581-.004.046-.011.103-.019.165-.033.192-.07.385-.111.575-1.073 1.082-1.564 2.567-1.592 4.097-.016.025-.035.051-.051.076-1.93 3.296-.774 7.649 2.511 9.577.385.226.777.437 1.167.647.551.803 1.275 1.459 2.167 1.853.231.103.46.208.69.312 1.123 1.373 2.836 2.304 5.147 2.312.775.351 1.549.702 2.328 1.045 1.446.638 2.979.921 4.425.79.691.598 1.544 1.087 2.581 1.416 5.772 1.836 11.518 1.708 17.381 1.614.648.243 1.361.409 2.146.469 7.879.584 15.694.577 23.52-.64 3.084-.479 6.092-1.024 9.209-1.193 2.515-.136 7.167-2.35 8.271-2.333 2.462.037 4.247-.979 5.365-2.478 1.992-.465 3.872-1.523 5.139-3.08.273-.201.537-.418.779-.659 1.384-1.386 1.911-3.044 2.05-4.95.092-1.271-.09-2.546-.281-3.809z" id="Suspension_cell_culture_plus_50_uM_ABA"/><path fill="none" d="M587.053 331.191c-.026-.284-.047-.57-.053-.858-.031-1.406-.467-2.726-1.194-3.833-1.186-6.286-3.784-12.38-5.294-18.727-.266-1.117-.693-2.071-1.233-2.888-.059-.414-.134-.836-.221-1.272-.015-.112-.029-.227-.046-.34-.271-.973-.701-1.854-1.254-2.662-.024-.113-.061-.221-.079-.338-.102-.648-.36-1.289-.708-1.899-.094-.856-.294-1.697-.6-2.495-.14-1.551-.672-3.094-1.528-4.514-.398-3.114-1.511-6.088-2.206-9.16-.137-.605-.393-1.155-.729-1.645-.224-1.371-.973-2.688-2.465-3.644-6.074-3.889-13.407-4.65-20.442-5.084-.472-.029-.91-.004-1.318.062-.642-.193-1.316-.278-1.998-.216-.434-.113-.885-.179-1.35-.179-1.4 0-2.739.144-4.129.363-.064.01-.129.033-.193.048-.491-.106-1.004-.234-1.55-.381-.938-.251-1.896-.238-2.788-.01-.833-.224-1.771-.248-2.803.01-5.473 1.366-10.951 1.432-16.039 3.472-1.186.009-2.277.492-3.148 1.252-.139.018-.274.023-.413.057-2.18.502-4.07 1.762-5.955 2.902-1.653 1.002-2.373 3.039-1.734 4.814-.039.268-.08.533-.08.806 0 .244.023.485.059.728-.088.078-.176.155-.261.237-1.321 1.284-1.706 3.188-1.24 4.88-.157.359-.3.725-.402 1.098-.168.611-.269 1.213-.312 1.799-.283.843-.488 1.738-.678 2.646-.936 1.19-1.504 2.679-1.5 4.281.001.158.005.319.008.481-.137.33-.276.662-.411.994-.005 0-.009-.002-.013-.005-.011.034-.018.07-.028.104-2.108 5.226-3.698 10.549-4.972 16.062-.023.103-.034.199-.054.3-.241.431-.448.887-.612 1.367-.604 1.771-.664 3.729-.854 5.581-.006.046-.013.103-.021.165-.033.192-.07.385-.111.575-1.073 1.082-1.563 2.567-1.592 4.097-.016.025-.035.051-.051.076-1.93 3.296-.773 7.649 2.512 9.577.385.226.777.437 1.167.647.552.803 1.274 1.459 2.167 1.853.23.103.459.208.689.312 1.123 1.373 2.837 2.304 5.147 2.312.775.351 1.551.702 2.328 1.045 1.446.638 2.979.921 4.427.79.69.598 1.544 1.087 2.58 1.416 5.771 1.836 11.517 1.708 17.381 1.614.647.243 1.36.409 2.146.469 7.879.584 15.694.577 23.521-.64 3.084-.479 6.092-1.024 9.209-1.193 2.514-.136 7.168-2.35 8.271-2.333 2.462.037 4.246-.979 5.365-2.478 1.992-.465 3.871-1.523 5.139-3.08.273-.201.537-.418.779-.659 1.385-1.386 1.911-3.044 2.051-4.95.089-1.271-.093-2.546-.284-3.809z" id="Suspension_cell_culture_plus_5_mM_DMTU"/><path fill="none" d="M757.053 331.191c-.026-.284-.047-.57-.053-.858-.031-1.406-.467-2.726-1.194-3.833-1.186-6.286-3.784-12.38-5.294-18.727-.266-1.117-.693-2.071-1.233-2.888-.059-.414-.134-.836-.221-1.272-.015-.112-.029-.227-.046-.34-.271-.973.299-1.854-.254-2.662-.024-.113-.061-.221-.079-.338-.102-.648-.36-1.289-.708-1.899-.094-.856-1.294-1.697-1.6-2.495-.14-1.551.269-2.382-.588-3.802-.403-3.146-2.372-6.449-3.146-9.872-.137-.605-.393-1.155-.729-1.645-.224-1.371-.973-2.688-2.465-3.644-6.074-3.889-13.407-4.65-20.442-5.084-.472-.029-.91-.004-1.318.062-.642-.193-1.316-.278-1.998-.216-.434-.113-.885-.179-1.35-.179-1.4 0-2.739.144-4.129.363-.064.01-.129.033-.193.048-.491-.106-1.004-.234-1.55-.381-.938-.251-1.896-.238-2.788-.01-.833-.224-1.771-.248-2.803.01-5.473 1.366-10.951 1.432-16.039 3.472-1.186.009-2.277.492-3.148 1.252-.139.018-.274.023-.413.057-2.18.502-4.07 1.762-5.955 2.902.536-.325-1.896 4.366-1.734 4.814-.039.268-.08.533-.08.806 0 .244.023.485.059.728-.088.078-.176.155-.261.237.783-.761-1.143 5.233-1.24 4.88-.157.359-.3.725-.402 1.098-.168.611-.269 1.213-.312 1.799-.283.843-.488 1.738-.678 2.646-.936 1.19-1.504 2.679-1.5 4.281.001.158.005.319.008.481-.137.33-.276.662-.411.994-.005 0-.009-.002-.013-.005-.011.034-.018.07-.028.104-1.882 7.259-3.383 12.121-4.972 16.062-.039.097-.034.199-.054.3-.241.431-.448.887-.612 1.367-.604 1.771-.664 3.729-.854 5.581-.006.046-.013.103-.021.165-.033.192-.07.385-.111.575-1.073 1.082-1.563 2.567-1.592 4.097-.016.025-.035.051-.051.076-1.93 3.296-.773 7.649 2.512 9.577.385.226.777.437 1.167.647.552.803 1.274 1.459 2.167 1.853.23.103.459.208.689.312 1.123 1.373 2.837 2.304 5.147 2.312.775.351 1.551.702 2.328 1.045 1.446.638 2.979.921 4.427.79.69.598 1.544 1.087 2.579 1.416 5.772 1.836 11.518 1.708 17.382 1.614.647.243 1.36.409 2.146.469 7.879.584 15.694.577 23.521-.64 3.084-.479 6.092-1.024 9.209-1.193 2.514-.136 7.168-2.35 8.271-2.333 2.462.037 4.246-.979 5.365-2.478 1.992-.465 3.871-1.523 5.139-3.08.273-.201.537-.418.779-.659 1.385-1.386 1.911-3.044 2.051-4.95.089-1.271-.093-2.546-.284-3.809z" id="Suspension_cell_culture_plus_50_uM_ABA_and_5_mM_DMTU"/></g><g id="Outlines"><path fill="none" stroke="#000000" stroke-width=".75" stroke-linecap="round" stroke-linejoin="round" stroke-miterlimit="10" d="M173.35 215.645c0 .669-.054 1.344.008 2.009 1.595 17.269-2.332 33.554-7.91 49.774-5.613 16.323-8.923 33.361-14.452 49.766-1.281 3.802-2.292 7.943-3.264 11.972M347.145 215.645c0 .669-.053 1.344.009 2.009 1.595 17.269-2.332 33.554-7.91 49.774-5.613 16.323-8.923 33.361-14.452 49.766-1.281 3.802-2.292 7.943-3.264 11.972M518.932 215.645c0 .669-.054 1.344.009 2.009 1.595 17.269-2.332 33.554-7.909 49.774-5.613 16.323-8.923 33.361-14.452 49.766-1.281 3.802-2.292 7.943-3.264 11.972M688.709 215.645c0 .669-.054 1.344.008 2.009 1.595 17.269-2.332 33.554-7.909 49.774-5.611 16.323-8.924 33.361-14.452 49.766-1.28 3.802-2.293 7.943-3.264 11.972M749.989 304.05c1.749 8.927 5.339 17.329 7.479 26.134 1.623 6.67.229 8.834-6.453 13.082-4.65 2.959-9.949 3.668-15.092 4.987-10.734 2.753-21.73 3.063-32.638 2.331-7.036-.473-14.346.062-21.108-2.834M580.212 304.05c1.749 8.927 5.339 17.329 7.48 26.134 1.622 6.67.228 8.834-6.453 13.082-4.651 2.959-9.95 3.668-15.093 4.987-10.734 2.753-21.729 3.063-32.637 2.331-7.036-.473-14.347.062-21.107-2.834M408.426 304.05c1.748 8.927 5.338 17.329 7.48 26.134 1.623 6.67.228 8.834-6.453 13.082-4.652 2.959-9.951 3.668-15.092 4.987-10.735 2.753-21.731 3.063-32.638 2.331-7.036-.473-14.347.062-21.108-2.834M234.63 304.05c1.749 8.927 5.339 17.329 7.481 26.134 1.623 6.67.228 8.834-6.453 13.082-4.652 2.959-9.95 3.668-15.092 4.987-10.736 2.753-21.731 3.063-32.637 2.331-7.036-.473-14.347.062-21.109-2.834"/><path fill="none" stroke="#000000" stroke-width=".75" stroke-linecap="round" stroke-linejoin="round" stroke-miterlimit="10" d="M730.4 211.626c.997 4.659.723 9.407.417 14.059-.82 12.516 1.372 24.401 5.499 36.209 4.506 12.89 8.082 26.102 12.239 39.118.589 1.846-.039 3.372-.073 5.047M560.623 211.626c.997 4.659.723 9.407.418 14.059-.821 12.516 1.371 24.401 5.498 36.209 4.506 12.89 8.082 26.102 12.24 39.118.589 1.846-.039 3.372-.074 5.047M388.836 211.626c.998 4.659.723 9.407.418 14.059-.821 12.516 1.372 24.401 5.499 36.209 4.505 12.89 8.083 26.102 12.24 39.118.589 1.846-.039 3.372-.074 5.047M215.041 211.626c.998 4.659.723 9.407.418 14.059-.821 12.516 1.372 24.401 5.499 36.209 4.506 12.89 8.083 26.102 12.24 39.118.589 1.846-.038 3.372-.074 5.047M224.584 276.926c-12.085-5.213-24.846-5.566-37.669-4.96-6.196.293-12.399 1.134-18.072 3.981-1.727.867-3.951 1.688-3.95 3.992.001 2.369 1.792 3.703 3.93 4.537 1.042.405 2.016.987 3.021 1.489M398.38 276.926c-12.086-5.213-24.846-5.566-37.669-4.96-6.196.293-12.4 1.134-18.073 3.981-1.727.867-3.95 1.688-3.95 3.992.002 2.369 1.793 3.703 3.931 4.537 1.042.405 2.016.987 3.02 1.489M570.166 276.926c-12.085-5.213-24.846-5.566-37.669-4.96-6.196.293-12.399 1.134-18.073 3.981-1.727.867-3.95 1.688-3.949 3.992.001 2.369 1.792 3.703 3.931 4.537 1.042.405 2.016.987 3.021 1.489M739.943 276.926c-12.085-5.213-24.847-5.566-37.669-4.96-6.196.293-12.399 1.134-18.072 3.981-1.728.867-3.952 1.688-3.951 3.992.001 2.369 1.793 3.703 3.931 4.537 1.043.405 2.017.987 3.021 1.489M217.05 347.75c-5.904-1.365-11.729.305-17.582.386-8.533.118-17.077-.554-25.616-.889M390.845 347.75c-5.903-1.365-11.729.305-17.582.386-8.532.118-17.077-.554-25.615-.889M562.632 347.75c-5.903-1.365-11.729.305-17.582.386-8.532.118-17.077-.554-25.616-.889M732.409 347.75c-5.904-1.365-11.729.305-17.583.386-8.532.118-17.076-.554-25.615-.889M224.584 281.948c-6.569 6.065-15.007 6.303-23.115 6.901-6.482.479-13.05-.205-19.58-.371M398.38 281.948c-6.569 6.065-15.008 6.303-23.116 6.901-6.481.479-13.05-.205-19.58-.371M570.166 281.948c-6.568 6.065-15.008 6.303-23.115 6.901-6.481.479-13.05-.205-19.58-.371M739.943 281.948c-6.569 6.065-15.009 6.303-23.115 6.901-6.482.479-13.05-.205-19.58-.371M211.022 321.128c-1.467-1.37-3.292-.993-5.023-.997-7.367-.018-14.735-.094-22.101.026-4.028.065-7.963 1.532-12.056.971M384.818 321.128c-1.468-1.37-3.292-.993-5.023-.997-7.367-.018-14.736-.094-22.101.026-4.027.065-7.962 1.532-12.057.971M556.604 321.128c-1.468-1.37-3.293-.993-5.022-.997-7.367-.018-14.735-.094-22.101.026-4.027.065-7.964 1.532-12.057.971M726.382 321.128c-1.468-1.37-3.293-.993-5.022-.997-7.366-.018-14.735-.094-22.102.026-4.026.065-7.963 1.532-12.056.971M203.99 208.613c2.548-.317 5.158.625 7.654-1.357 1.078-.856 3.672-.56 4.739 2.205-3.831 3.06-7.805 4.754-12.894 4.809-6.536.07-13.057.606-19.593-.11-2.665-.292-5.355-.356-8.035-.523M377.786 208.613c2.548-.317 5.158.625 7.654-1.357 1.077-.856 3.672-.56 4.738 2.205-3.831 3.06-7.805 4.754-12.894 4.809-6.536.07-13.057.606-19.594-.11-2.665-.292-5.355-.356-8.034-.523M549.572 208.613c2.549-.317 5.158.625 7.652-1.357 1.078-.856 3.674-.56 4.739 2.205-3.831 3.06-7.806 4.754-12.894 4.809-6.536.07-13.058.606-19.594-.11-2.665-.292-5.355-.356-8.034-.523M719.35 208.613c2.55-.317 5.158.625 7.653-1.357 1.078-.856 3.673-.56 4.739 2.205-3.831 3.06-7.807 4.754-12.896 4.809-6.534.07-13.056.606-19.593-.11-2.665-.292-5.354-.356-8.034-.523"/><path fill="none" stroke="#000000" stroke-width=".75" stroke-linecap="round" stroke-linejoin="round" stroke-miterlimit="10" d="M211.022 207.608c-3.339-3.028-7.414-1.472-11.045-1.349-5.044.171-10.043.081-15.077.008-4.574-.066-9.326.55-13.54 2.557-.156 2.427.745 4.186 1.991 5.816.974 1.274.936-.538 1.505-.501M384.818 207.608c-3.34-3.028-7.415-1.472-11.045-1.349-5.045.171-10.043.081-15.077.008-4.574-.066-9.327.55-13.54 2.557-.157 2.427.745 4.186 1.99 5.816.975 1.274.937-.538 1.507-.501M556.604 207.608c-3.34-3.028-7.414-1.472-11.046-1.349-5.044.171-10.043.081-15.075.008-4.574-.066-9.326.55-13.54 2.557-.157 2.427.745 4.186 1.99 5.816.975 1.274.937-.538 1.506-.501M726.382 207.608c-3.34-3.028-7.414-1.472-11.046-1.349-5.044.171-10.043.081-15.076.008-4.572-.066-9.327.55-13.54 2.557-.155 2.427.745 4.186 1.99 5.816.975 1.274.937-.538 1.506-.501M193.944 296.014c-6.359-.402-12.759.76-19.108-.926-3.286-.871-5.579.29-5.05 4.447.273 2.142.048 4.348.048 6.523M367.74 296.014c-6.359-.402-12.76.76-19.109-.926-3.285-.871-5.579.29-5.05 4.447.272 2.142.048 4.348.048 6.523M539.526 296.014c-6.359-.402-12.761.76-19.108-.926-3.286-.871-5.579.29-5.051 4.447.272 2.142.049 4.348.049 6.523M709.304 296.014c-6.358-.402-12.759.76-19.108-.926-3.284-.871-5.578.29-5.051 4.447.273 2.142.05 4.348.05 6.523M691.221 216.649c0 6.195-.03 12.39.012 18.585.025 3.888.085 7.769-1.017 11.553M521.443 216.649c0 6.195-.031 12.39.011 18.585.026 3.888.085 7.769-1.017 11.553M349.657 216.649c0 6.195-.031 12.39.011 18.585.026 3.888.084 7.769-1.016 11.553M175.861 216.649c0 6.195-.031 12.39.012 18.585.026 3.888.084 7.769-1.016 11.553M204.492 328.662c-6.53-.852-13.097-.985-19.575.091-3.388.562-6.717.151-10.061.412M378.288 328.662c-6.53-.852-13.096-.985-19.574.091-3.389.562-6.717.151-10.061.412M550.074 328.662c-6.529-.852-13.098-.985-19.574.091-3.389.562-6.718.151-10.062.412M719.852 328.662c-6.529-.852-13.097-.985-19.574.091-3.39.562-6.717.151-10.062.412M213.031 215.645v27.124M386.827 215.645v27.124M558.613 215.645v27.124M728.391 215.645v27.124M662.59 330.169c-1.717 3.238-1.432 5.745 1.401 8.644 4.838 4.945 10.509 7.552 17.184 8.436M492.812 330.169c-1.717 3.238-1.434 5.745 1.4 8.644 4.837 4.945 10.509 7.552 17.185 8.436M321.025 330.169c-1.717 3.238-1.433 5.745 1.401 8.644 4.837 4.945 10.509 7.552 17.185 8.436M147.23 330.169c-1.716 3.238-1.432 5.745 1.401 8.644 4.837 4.945 10.51 7.552 17.184 8.436M193.944 308.068c-5.413 2.197-11.081.908-16.565.715-1.618-.057-3.705-.322-5.536-.715M367.74 308.068c-5.413 2.197-11.081.908-16.566.715-1.617-.057-3.704-.322-5.536-.715M539.526 308.068c-5.413 2.197-11.081.908-16.565.715-1.618-.057-3.705-.322-5.536-.715M709.304 308.068c-5.413 2.197-11.081.908-16.565.715-1.617-.057-3.703-.322-5.535-.715M214.036 311.584c-3.349.335-6.697.67-10.046 1.005M387.832 311.584c-3.349.335-6.697.67-10.046 1.005M559.618 311.584c-3.35.335-6.698.67-10.046 1.005M729.396 311.584c-3.35.335-6.698.67-10.047 1.005M727.889 297.52c-3.084 1.269-6.33.978-9.544 1.006M558.111 297.52c-3.084 1.269-6.33.978-9.544 1.006M386.325 297.52c-3.083 1.269-6.331.978-9.544 1.006M212.529 297.52c-3.083 1.269-6.33.978-9.543 1.006"/></g><g id="Labels"><text transform="translate(174.5 390.5)" font-family="'Helvetica'" font-size="10">Control</text><text transform="translate(347.5 390.5)" font-family="'Helvetica'" font-size="10">50um ABA</text><text transform="translate(513.5 390.5)" font-family="'Helvetica'" font-size="10">5 mM DMTU</text><text transform="translate(686.8203 390.5)"><tspan x="0" y="0" font-family="'Helvetica'" font-size="10">50 uM ABA </tspan><tspan x="-1.65" y="12" font-family="'Helvetica'" font-size="10">5 mM DMTU</tspan></text></g></svg>