<?xml version="1.0" encoding="utf-8"?>
<!-- Generator: Adobe Illustrator 16.0.0, SVG Export Plug-In . SVG Version: 6.00 Build 0)  -->
<!DOCTYPE svg PUBLIC "-//W3C//DTD SVG 1.1//EN" "http://www.w3.org/Graphics/SVG/1.1/DTD/svg11.dtd">
<svg version="1.1" id="Layer_1" xmlns="http://www.w3.org/2000/svg" xmlns:xlink="http://www.w3.org/1999/xlink" x="0px" y="0px"
	 width="900px" height="600px" viewBox="0 0 900 600" enable-background="new 0 0 900 600" xml:space="preserve">
<g id="Samples_2_">
	<g id="Suspension_cell_culture_control">
		<path fill="none" d="M242.053,331.191c-0.027-0.284-0.046-0.57-0.053-0.858c-0.032-1.406-0.466-2.726-1.194-3.833
			c-1.186-6.286-3.785-12.38-5.293-18.727c-0.266-1.117-0.695-2.071-1.235-2.888c-0.057-0.414-0.132-0.836-0.219-1.272
			c-0.015-0.112-0.03-0.227-0.045-0.34c-0.273-0.973-0.702-1.854-1.254-2.662c-0.025-0.113-0.061-0.221-0.079-0.338
			c-0.102-0.648-0.361-1.289-0.708-1.899c-0.093-0.856-0.294-1.697-0.6-2.495c-0.139-1.551-0.672-3.094-1.528-4.514
			c-0.4-3.114-1.51-6.088-2.206-9.16c-0.137-0.605-0.393-1.155-0.73-1.645c-0.223-1.371-0.972-2.688-2.465-3.644
			c-6.074-3.889-13.407-4.65-20.442-5.084c-0.472-0.029-0.91-0.004-1.318,0.062c-0.642-0.193-1.318-0.278-1.999-0.216
			c-0.434-0.113-0.884-0.179-1.35-0.179c-1.399,0-2.739,0.144-4.129,0.363c-0.064,0.01-0.128,0.033-0.192,0.048
			c-0.493-0.106-1.004-0.234-1.55-0.381c-0.938-0.251-1.895-0.238-2.788-0.01c-0.833-0.224-1.771-0.248-2.803,0.01
			c-5.473,1.366-10.952,1.432-16.04,3.472c-1.186,0.009-2.277,0.492-3.149,1.252c-0.138,0.018-0.275,0.023-0.413,0.057
			c-2.179,0.502-4.07,1.762-5.956,2.902c-1.653,1.002-2.374,3.039-1.734,4.814c-0.04,0.268-0.08,0.533-0.08,0.806
			c0,0.244,0.024,0.485,0.058,0.728c-0.087,0.078-0.176,0.155-0.26,0.237c-1.321,1.284-1.706,3.188-1.24,4.88
			c-0.158,0.359-0.3,0.725-0.403,1.098c-0.168,0.611-0.269,1.213-0.311,1.799c-0.284,0.843-0.489,1.738-0.677,2.646
			c-0.937,1.19-1.504,2.679-1.5,4.281c0,0.158,0.004,0.319,0.007,0.481c-0.137,0.33-0.277,0.662-0.411,0.994
			c-0.004,0-0.009-0.002-0.013-0.005c-0.011,0.034-0.018,0.07-0.028,0.104c-2.109,5.226-3.699,10.549-4.972,16.062
			c-0.023,0.103-0.034,0.199-0.054,0.3c-0.241,0.431-0.449,0.887-0.613,1.367c-0.604,1.771-0.664,3.729-0.855,5.581
			c-0.004,0.046-0.011,0.103-0.019,0.165c-0.033,0.192-0.07,0.385-0.111,0.575c-1.074,1.082-1.565,2.567-1.592,4.097
			c-0.016,0.025-0.035,0.051-0.051,0.076c-1.93,3.296-0.774,7.649,2.511,9.577c0.385,0.226,0.777,0.437,1.167,0.647
			c0.551,0.803,1.275,1.459,2.167,1.853c0.231,0.103,0.46,0.208,0.69,0.312c1.123,1.373,2.836,2.304,5.148,2.312
			c0.775,0.351,1.549,0.702,2.328,1.045c1.446,0.638,2.978,0.921,4.425,0.79c0.691,0.598,1.544,1.087,2.581,1.416
			c5.772,1.836,11.517,1.708,17.381,1.614c0.648,0.243,1.361,0.409,2.146,0.469c7.879,0.584,15.694,0.577,23.52-0.64
			c3.084-0.479,6.091-1.024,9.209-1.193c2.514-0.136,7.167-2.35,8.271-2.333c2.462,0.037,4.247-0.979,5.365-2.478
			c1.992-0.465,3.872-1.523,5.139-3.08c0.273-0.201,0.537-0.418,0.779-0.659c1.384-1.386,1.911-3.044,2.05-4.95
			C242.426,333.729,242.244,332.454,242.053,331.191z"/>
	</g>
	<g id="Suspension_cell_culture_plus_50_uM_ABA">
		<path fill="none" d="M416.053,331.191c-0.026-0.284-0.046-0.57-0.053-0.858c-0.032-1.406-0.466-2.726-1.194-3.833
			c-1.186-6.286-3.784-12.38-5.293-18.727c-0.266-1.117-0.694-2.071-1.234-2.888c-0.058-0.414-0.132-0.836-0.22-1.272
			c-0.015-0.112-0.029-0.227-0.045-0.34c-0.272-0.973-0.701-1.854-1.254-2.662c-0.024-0.113-0.061-0.221-0.079-0.338
			c-0.102-0.648-0.36-1.289-0.708-1.899c-0.093-0.856-0.294-1.697-0.6-2.495c-0.139-1.551-0.672-3.094-1.528-4.514
			c-0.399-3.114-1.51-6.088-2.206-9.16c-0.137-0.605-0.393-1.155-0.729-1.645c-0.224-1.371-0.972-2.688-2.465-3.644
			c-6.074-3.889-13.407-4.65-20.442-5.084c-0.472-0.029-0.91-0.004-1.318,0.062c-0.642-0.193-1.317-0.278-1.999-0.216
			c-0.434-0.113-0.884-0.179-1.35-0.179c-1.399,0-2.739,0.144-4.129,0.363c-0.064,0.01-0.128,0.033-0.192,0.048
			c-0.492-0.106-1.004-0.234-1.55-0.381c-0.938-0.251-1.895-0.238-2.788-0.01c-0.833-0.224-1.771-0.248-2.803,0.01
			c-5.473,1.366-10.952,1.432-16.04,3.472c-1.186,0.009-2.277,0.492-3.149,1.252c-0.138,0.018-0.274,0.023-0.412,0.057
			c-2.18,0.502-4.07,1.762-5.956,2.902c-1.653,1.002-2.374,3.039-1.734,4.814c-0.04,0.268-0.08,0.533-0.08,0.806
			c0,0.244,0.024,0.485,0.058,0.728c-0.087,0.078-0.176,0.155-0.26,0.237c-1.32,1.284-1.706,3.188-1.24,4.88
			c-0.157,0.359-0.3,0.725-0.402,1.098c-0.168,0.611-0.27,1.213-0.312,1.799c-0.284,0.843-0.488,1.738-0.677,2.646
			c-0.937,1.19-1.504,2.679-1.5,4.281c0,0.158,0.004,0.319,0.007,0.481c-0.137,0.33-0.276,0.662-0.411,0.994
			c-0.004,0-0.009-0.002-0.013-0.005c-0.011,0.034-0.018,0.07-0.028,0.104c-2.108,5.226-3.698,10.549-4.972,16.062
			c-0.023,0.103-0.034,0.199-0.054,0.3c-0.241,0.431-0.449,0.887-0.613,1.367c-0.604,1.771-0.664,3.729-0.855,5.581
			c-0.004,0.046-0.011,0.103-0.019,0.165c-0.033,0.192-0.07,0.385-0.111,0.575c-1.073,1.082-1.564,2.567-1.592,4.097
			c-0.016,0.025-0.035,0.051-0.051,0.076c-1.93,3.296-0.774,7.649,2.511,9.577c0.385,0.226,0.777,0.437,1.167,0.647
			c0.551,0.803,1.275,1.459,2.167,1.853c0.231,0.103,0.46,0.208,0.69,0.312c1.123,1.373,2.836,2.304,5.147,2.312
			c0.775,0.351,1.549,0.702,2.328,1.045c1.446,0.638,2.979,0.921,4.425,0.79c0.691,0.598,1.544,1.087,2.581,1.416
			c5.772,1.836,11.518,1.708,17.381,1.614c0.648,0.243,1.361,0.409,2.146,0.469c7.879,0.584,15.694,0.577,23.52-0.64
			c3.084-0.479,6.092-1.024,9.209-1.193c2.515-0.136,7.167-2.35,8.271-2.333c2.462,0.037,4.247-0.979,5.365-2.478
			c1.992-0.465,3.872-1.523,5.139-3.08c0.273-0.201,0.537-0.418,0.779-0.659c1.384-1.386,1.911-3.044,2.05-4.95
			C416.426,333.729,416.244,332.454,416.053,331.191z"/>
	</g>
	<g id="Suspension_cell_culture_plus_5_mM_DMTU">
		<path fill="none" d="M587.053,331.191c-0.026-0.284-0.047-0.57-0.053-0.858c-0.031-1.406-0.467-2.726-1.194-3.833
			c-1.186-6.286-3.784-12.38-5.294-18.727c-0.266-1.117-0.693-2.071-1.233-2.888c-0.059-0.414-0.134-0.836-0.221-1.272
			c-0.015-0.112-0.029-0.227-0.046-0.34c-0.271-0.973-0.701-1.854-1.254-2.662c-0.024-0.113-0.061-0.221-0.079-0.338
			c-0.102-0.648-0.36-1.289-0.708-1.899c-0.094-0.856-0.294-1.697-0.6-2.495c-0.14-1.551-0.672-3.094-1.528-4.514
			c-0.398-3.114-1.511-6.088-2.206-9.16c-0.137-0.605-0.393-1.155-0.729-1.645c-0.224-1.371-0.973-2.688-2.465-3.644
			c-6.074-3.889-13.407-4.65-20.442-5.084c-0.472-0.029-0.91-0.004-1.318,0.062c-0.642-0.193-1.316-0.278-1.998-0.216
			c-0.434-0.113-0.885-0.179-1.35-0.179c-1.4,0-2.739,0.144-4.129,0.363c-0.064,0.01-0.129,0.033-0.193,0.048
			c-0.491-0.106-1.004-0.234-1.55-0.381c-0.938-0.251-1.896-0.238-2.788-0.01c-0.833-0.224-1.771-0.248-2.803,0.01
			c-5.473,1.366-10.951,1.432-16.039,3.472c-1.186,0.009-2.277,0.492-3.148,1.252c-0.139,0.018-0.274,0.023-0.413,0.057
			c-2.18,0.502-4.07,1.762-5.955,2.902c-1.653,1.002-2.373,3.039-1.734,4.814c-0.039,0.268-0.08,0.533-0.08,0.806
			c0,0.244,0.023,0.485,0.059,0.728c-0.088,0.078-0.176,0.155-0.261,0.237c-1.321,1.284-1.706,3.188-1.24,4.88
			c-0.157,0.359-0.3,0.725-0.402,1.098c-0.168,0.611-0.269,1.213-0.312,1.799c-0.283,0.843-0.488,1.738-0.678,2.646
			c-0.936,1.19-1.504,2.679-1.5,4.281c0.001,0.158,0.005,0.319,0.008,0.481c-0.137,0.33-0.276,0.662-0.411,0.994
			c-0.005,0-0.009-0.002-0.013-0.005c-0.011,0.034-0.018,0.07-0.028,0.104c-2.108,5.226-3.698,10.549-4.972,16.062
			c-0.023,0.103-0.034,0.199-0.054,0.3c-0.241,0.431-0.448,0.887-0.612,1.367c-0.604,1.771-0.664,3.729-0.854,5.581
			c-0.006,0.046-0.013,0.103-0.021,0.165c-0.033,0.192-0.07,0.385-0.111,0.575c-1.073,1.082-1.563,2.567-1.592,4.097
			c-0.016,0.025-0.035,0.051-0.051,0.076c-1.93,3.296-0.773,7.649,2.512,9.577c0.385,0.226,0.777,0.437,1.167,0.647
			c0.552,0.803,1.274,1.459,2.167,1.853c0.23,0.103,0.459,0.208,0.689,0.312c1.123,1.373,2.837,2.304,5.147,2.312
			c0.775,0.351,1.551,0.702,2.328,1.045c1.446,0.638,2.979,0.921,4.427,0.79c0.69,0.598,1.544,1.087,2.58,1.416
			c5.771,1.836,11.517,1.708,17.381,1.614c0.647,0.243,1.36,0.409,2.146,0.469c7.879,0.584,15.694,0.577,23.521-0.64
			c3.084-0.479,6.092-1.024,9.209-1.193c2.514-0.136,7.168-2.35,8.271-2.333c2.462,0.037,4.246-0.979,5.365-2.478
			c1.992-0.465,3.871-1.523,5.139-3.08c0.273-0.201,0.537-0.418,0.779-0.659c1.385-1.386,1.911-3.044,2.051-4.95
			C587.426,333.729,587.244,332.454,587.053,331.191z"/>
	</g>
	<g id="Suspension_cell_culture_plus_50_uM_ABA_and_5_mM_DMTU">
		<path fill="none" d="M757.053,331.191c-0.026-0.284-0.047-0.57-0.053-0.858c-0.031-1.406-0.467-2.726-1.194-3.833
			c-1.186-6.286-3.784-12.38-5.294-18.727c-0.266-1.117-0.693-2.071-1.233-2.888c-0.059-0.414-0.134-0.836-0.221-1.272
			c-0.015-0.112-0.029-0.227-0.046-0.34c-0.271-0.973,0.299-1.854-0.254-2.662c-0.024-0.113-0.061-0.221-0.079-0.338
			c-0.102-0.648-0.36-1.289-0.708-1.899c-0.094-0.856-1.294-1.697-1.6-2.495c-0.14-1.551,0.269-2.382-0.588-3.802
			c-0.403-3.146-2.372-6.449-3.146-9.872c-0.137-0.605-0.393-1.155-0.729-1.645c-0.224-1.371-0.973-2.688-2.465-3.644
			c-6.074-3.889-13.407-4.65-20.442-5.084c-0.472-0.029-0.91-0.004-1.318,0.062c-0.642-0.193-1.316-0.278-1.998-0.216
			c-0.434-0.113-0.885-0.179-1.35-0.179c-1.4,0-2.739,0.144-4.129,0.363c-0.064,0.01-0.129,0.033-0.193,0.048
			c-0.491-0.106-1.004-0.234-1.55-0.381c-0.938-0.251-1.896-0.238-2.788-0.01c-0.833-0.224-1.771-0.248-2.803,0.01
			c-5.473,1.366-10.951,1.432-16.039,3.472c-1.186,0.009-2.277,0.492-3.148,1.252c-0.139,0.018-0.274,0.023-0.413,0.057
			c-2.18,0.502-4.07,1.762-5.955,2.902c0.536-0.325-1.896,4.366-1.734,4.814c-0.039,0.268-0.08,0.533-0.08,0.806
			c0,0.244,0.023,0.485,0.059,0.728c-0.088,0.078-0.176,0.155-0.261,0.237c0.783-0.761-1.143,5.233-1.24,4.88
			c-0.157,0.359-0.3,0.725-0.402,1.098c-0.168,0.611-0.269,1.213-0.312,1.799c-0.283,0.843-0.488,1.738-0.678,2.646
			c-0.936,1.19-1.504,2.679-1.5,4.281c0.001,0.158,0.005,0.319,0.008,0.481c-0.137,0.33-0.276,0.662-0.411,0.994
			c-0.005,0-0.009-0.002-0.013-0.005c-0.011,0.034-0.018,0.07-0.028,0.104c-1.882,7.259-3.383,12.121-4.972,16.062
			c-0.039,0.097-0.034,0.199-0.054,0.3c-0.241,0.431-0.448,0.887-0.612,1.367c-0.604,1.771-0.664,3.729-0.854,5.581
			c-0.006,0.046-0.013,0.103-0.021,0.165c-0.033,0.192-0.07,0.385-0.111,0.575c-1.073,1.082-1.563,2.567-1.592,4.097
			c-0.016,0.025-0.035,0.051-0.051,0.076c-1.93,3.296-0.773,7.649,2.512,9.577c0.385,0.226,0.777,0.437,1.167,0.647
			c0.552,0.803,1.274,1.459,2.167,1.853c0.23,0.103,0.459,0.208,0.689,0.312c1.123,1.373,2.837,2.304,5.147,2.312
			c0.775,0.351,1.551,0.702,2.328,1.045c1.446,0.638,2.979,0.921,4.427,0.79c0.69,0.598,1.544,1.087,2.579,1.416
			c5.772,1.836,11.518,1.708,17.382,1.614c0.647,0.243,1.36,0.409,2.146,0.469c7.879,0.584,15.694,0.577,23.521-0.64
			c3.084-0.479,6.092-1.024,9.209-1.193c2.514-0.136,7.168-2.35,8.271-2.333c2.462,0.037,4.246-0.979,5.365-2.478
			c1.992-0.465,3.871-1.523,5.139-3.08c0.273-0.201,0.537-0.418,0.779-0.659c1.385-1.386,1.911-3.044,2.051-4.95
			C757.426,333.729,757.244,332.454,757.053,331.191z"/>
	</g>
</g>
<g id="Outlines">
	<g>
		
			<path fill="none" stroke="#000000" stroke-width="0.75" stroke-linecap="round" stroke-linejoin="round" stroke-miterlimit="10" d="
			M173.35,215.645c0,0.669-0.054,1.344,0.008,2.009c1.595,17.269-2.332,33.554-7.91,49.774
			c-5.613,16.323-8.923,33.361-14.452,49.766c-1.281,3.802-2.292,7.943-3.264,11.972"/>
		
			<path fill="none" stroke="#000000" stroke-width="0.75" stroke-linecap="round" stroke-linejoin="round" stroke-miterlimit="10" d="
			M347.145,215.645c0,0.669-0.053,1.344,0.009,2.009c1.595,17.269-2.332,33.554-7.91,49.774
			c-5.613,16.323-8.923,33.361-14.452,49.766c-1.281,3.802-2.292,7.943-3.264,11.972"/>
		
			<path fill="none" stroke="#000000" stroke-width="0.75" stroke-linecap="round" stroke-linejoin="round" stroke-miterlimit="10" d="
			M518.932,215.645c0,0.669-0.054,1.344,0.009,2.009c1.595,17.269-2.332,33.554-7.909,49.774
			c-5.613,16.323-8.923,33.361-14.452,49.766c-1.281,3.802-2.292,7.943-3.264,11.972"/>
		
			<path fill="none" stroke="#000000" stroke-width="0.75" stroke-linecap="round" stroke-linejoin="round" stroke-miterlimit="10" d="
			M688.709,215.645c0,0.669-0.054,1.344,0.008,2.009c1.595,17.269-2.332,33.554-7.909,49.774
			c-5.611,16.323-8.924,33.361-14.452,49.766c-1.28,3.802-2.293,7.943-3.264,11.972"/>
		
			<path fill="none" stroke="#000000" stroke-width="0.75" stroke-linecap="round" stroke-linejoin="round" stroke-miterlimit="10" d="
			M749.989,304.05c1.749,8.927,5.339,17.329,7.479,26.134c1.623,6.67,0.229,8.834-6.453,13.082
			c-4.65,2.959-9.949,3.668-15.092,4.987c-10.734,2.753-21.73,3.063-32.638,2.331c-7.036-0.473-14.346,0.062-21.108-2.834"/>
		
			<path fill="none" stroke="#000000" stroke-width="0.75" stroke-linecap="round" stroke-linejoin="round" stroke-miterlimit="10" d="
			M580.212,304.05c1.749,8.927,5.339,17.329,7.48,26.134c1.622,6.67,0.228,8.834-6.453,13.082c-4.651,2.959-9.95,3.668-15.093,4.987
			c-10.734,2.753-21.729,3.063-32.637,2.331c-7.036-0.473-14.347,0.062-21.107-2.834"/>
		
			<path fill="none" stroke="#000000" stroke-width="0.75" stroke-linecap="round" stroke-linejoin="round" stroke-miterlimit="10" d="
			M408.426,304.05c1.748,8.927,5.338,17.329,7.48,26.134c1.623,6.67,0.228,8.834-6.453,13.082
			c-4.652,2.959-9.951,3.668-15.092,4.987c-10.735,2.753-21.731,3.063-32.638,2.331c-7.036-0.473-14.347,0.062-21.108-2.834"/>
		
			<path fill="none" stroke="#000000" stroke-width="0.75" stroke-linecap="round" stroke-linejoin="round" stroke-miterlimit="10" d="
			M234.63,304.05c1.749,8.927,5.339,17.329,7.481,26.134c1.623,6.67,0.228,8.834-6.453,13.082c-4.652,2.959-9.95,3.668-15.092,4.987
			c-10.736,2.753-21.731,3.063-32.637,2.331c-7.036-0.473-14.347,0.062-21.109-2.834"/>
		
			<path fill="none" stroke="#000000" stroke-width="0.75" stroke-linecap="round" stroke-linejoin="round" stroke-miterlimit="10" d="
			M730.4,211.626c0.997,4.659,0.723,9.407,0.417,14.059c-0.82,12.516,1.372,24.401,5.499,36.209
			c4.506,12.89,8.082,26.102,12.239,39.118c0.589,1.846-0.039,3.372-0.073,5.047"/>
		
			<path fill="none" stroke="#000000" stroke-width="0.75" stroke-linecap="round" stroke-linejoin="round" stroke-miterlimit="10" d="
			M560.623,211.626c0.997,4.659,0.723,9.407,0.418,14.059c-0.821,12.516,1.371,24.401,5.498,36.209
			c4.506,12.89,8.082,26.102,12.24,39.118c0.589,1.846-0.039,3.372-0.074,5.047"/>
		
			<path fill="none" stroke="#000000" stroke-width="0.75" stroke-linecap="round" stroke-linejoin="round" stroke-miterlimit="10" d="
			M388.836,211.626c0.998,4.659,0.723,9.407,0.418,14.059c-0.821,12.516,1.372,24.401,5.499,36.209
			c4.505,12.89,8.083,26.102,12.24,39.118c0.589,1.846-0.039,3.372-0.074,5.047"/>
		
			<path fill="none" stroke="#000000" stroke-width="0.75" stroke-linecap="round" stroke-linejoin="round" stroke-miterlimit="10" d="
			M215.041,211.626c0.998,4.659,0.723,9.407,0.418,14.059c-0.821,12.516,1.372,24.401,5.499,36.209
			c4.506,12.89,8.083,26.102,12.24,39.118c0.589,1.846-0.038,3.372-0.074,5.047"/>
		
			<path fill="none" stroke="#000000" stroke-width="0.75" stroke-linecap="round" stroke-linejoin="round" stroke-miterlimit="10" d="
			M224.584,276.926c-12.085-5.213-24.846-5.566-37.669-4.96c-6.196,0.293-12.399,1.134-18.072,3.981
			c-1.727,0.867-3.951,1.688-3.95,3.992c0.001,2.369,1.792,3.703,3.93,4.537c1.042,0.405,2.016,0.987,3.021,1.489"/>
		
			<path fill="none" stroke="#000000" stroke-width="0.75" stroke-linecap="round" stroke-linejoin="round" stroke-miterlimit="10" d="
			M398.38,276.926c-12.086-5.213-24.846-5.566-37.669-4.96c-6.196,0.293-12.4,1.134-18.073,3.981
			c-1.727,0.867-3.95,1.688-3.95,3.992c0.002,2.369,1.793,3.703,3.931,4.537c1.042,0.405,2.016,0.987,3.02,1.489"/>
		
			<path fill="none" stroke="#000000" stroke-width="0.75" stroke-linecap="round" stroke-linejoin="round" stroke-miterlimit="10" d="
			M570.166,276.926c-12.085-5.213-24.846-5.566-37.669-4.96c-6.196,0.293-12.399,1.134-18.073,3.981
			c-1.727,0.867-3.95,1.688-3.949,3.992c0.001,2.369,1.792,3.703,3.931,4.537c1.042,0.405,2.016,0.987,3.021,1.489"/>
		
			<path fill="none" stroke="#000000" stroke-width="0.75" stroke-linecap="round" stroke-linejoin="round" stroke-miterlimit="10" d="
			M739.943,276.926c-12.085-5.213-24.847-5.566-37.669-4.96c-6.196,0.293-12.399,1.134-18.072,3.981
			c-1.728,0.867-3.952,1.688-3.951,3.992c0.001,2.369,1.793,3.703,3.931,4.537c1.043,0.405,2.017,0.987,3.021,1.489"/>
		
			<path fill="none" stroke="#000000" stroke-width="0.75" stroke-linecap="round" stroke-linejoin="round" stroke-miterlimit="10" d="
			M217.05,347.75c-5.904-1.365-11.729,0.305-17.582,0.386c-8.533,0.118-17.077-0.554-25.616-0.889"/>
		
			<path fill="none" stroke="#000000" stroke-width="0.75" stroke-linecap="round" stroke-linejoin="round" stroke-miterlimit="10" d="
			M390.845,347.75c-5.903-1.365-11.729,0.305-17.582,0.386c-8.532,0.118-17.077-0.554-25.615-0.889"/>
		
			<path fill="none" stroke="#000000" stroke-width="0.75" stroke-linecap="round" stroke-linejoin="round" stroke-miterlimit="10" d="
			M562.632,347.75c-5.903-1.365-11.729,0.305-17.582,0.386c-8.532,0.118-17.077-0.554-25.616-0.889"/>
		
			<path fill="none" stroke="#000000" stroke-width="0.75" stroke-linecap="round" stroke-linejoin="round" stroke-miterlimit="10" d="
			M732.409,347.75c-5.904-1.365-11.729,0.305-17.583,0.386c-8.532,0.118-17.076-0.554-25.615-0.889"/>
		
			<path fill="none" stroke="#000000" stroke-width="0.75" stroke-linecap="round" stroke-linejoin="round" stroke-miterlimit="10" d="
			M224.584,281.948c-6.569,6.065-15.007,6.303-23.115,6.901c-6.482,0.479-13.05-0.205-19.58-0.371"/>
		
			<path fill="none" stroke="#000000" stroke-width="0.75" stroke-linecap="round" stroke-linejoin="round" stroke-miterlimit="10" d="
			M398.38,281.948c-6.569,6.065-15.008,6.303-23.116,6.901c-6.481,0.479-13.05-0.205-19.58-0.371"/>
		
			<path fill="none" stroke="#000000" stroke-width="0.75" stroke-linecap="round" stroke-linejoin="round" stroke-miterlimit="10" d="
			M570.166,281.948c-6.568,6.065-15.008,6.303-23.115,6.901c-6.481,0.479-13.05-0.205-19.58-0.371"/>
		
			<path fill="none" stroke="#000000" stroke-width="0.75" stroke-linecap="round" stroke-linejoin="round" stroke-miterlimit="10" d="
			M739.943,281.948c-6.569,6.065-15.009,6.303-23.115,6.901c-6.482,0.479-13.05-0.205-19.58-0.371"/>
		
			<path fill="none" stroke="#000000" stroke-width="0.75" stroke-linecap="round" stroke-linejoin="round" stroke-miterlimit="10" d="
			M211.022,321.128c-1.467-1.37-3.292-0.993-5.023-0.997c-7.367-0.018-14.735-0.094-22.101,0.026
			c-4.028,0.065-7.963,1.532-12.056,0.971"/>
		
			<path fill="none" stroke="#000000" stroke-width="0.75" stroke-linecap="round" stroke-linejoin="round" stroke-miterlimit="10" d="
			M384.818,321.128c-1.468-1.37-3.292-0.993-5.023-0.997c-7.367-0.018-14.736-0.094-22.101,0.026
			c-4.027,0.065-7.962,1.532-12.057,0.971"/>
		
			<path fill="none" stroke="#000000" stroke-width="0.75" stroke-linecap="round" stroke-linejoin="round" stroke-miterlimit="10" d="
			M556.604,321.128c-1.468-1.37-3.293-0.993-5.022-0.997c-7.367-0.018-14.735-0.094-22.101,0.026
			c-4.027,0.065-7.964,1.532-12.057,0.971"/>
		
			<path fill="none" stroke="#000000" stroke-width="0.75" stroke-linecap="round" stroke-linejoin="round" stroke-miterlimit="10" d="
			M726.382,321.128c-1.468-1.37-3.293-0.993-5.022-0.997c-7.366-0.018-14.735-0.094-22.102,0.026
			c-4.026,0.065-7.963,1.532-12.056,0.971"/>
		
			<path fill="none" stroke="#000000" stroke-width="0.75" stroke-linecap="round" stroke-linejoin="round" stroke-miterlimit="10" d="
			M203.99,208.613c2.548-0.317,5.158,0.625,7.654-1.357c1.078-0.856,3.672-0.56,4.739,2.205c-3.831,3.06-7.805,4.754-12.894,4.809
			c-6.536,0.07-13.057,0.606-19.593-0.11c-2.665-0.292-5.355-0.356-8.035-0.523"/>
		
			<path fill="none" stroke="#000000" stroke-width="0.75" stroke-linecap="round" stroke-linejoin="round" stroke-miterlimit="10" d="
			M377.786,208.613c2.548-0.317,5.158,0.625,7.654-1.357c1.077-0.856,3.672-0.56,4.738,2.205c-3.831,3.06-7.805,4.754-12.894,4.809
			c-6.536,0.07-13.057,0.606-19.594-0.11c-2.665-0.292-5.355-0.356-8.034-0.523"/>
		
			<path fill="none" stroke="#000000" stroke-width="0.75" stroke-linecap="round" stroke-linejoin="round" stroke-miterlimit="10" d="
			M549.572,208.613c2.549-0.317,5.158,0.625,7.652-1.357c1.078-0.856,3.674-0.56,4.739,2.205c-3.831,3.06-7.806,4.754-12.894,4.809
			c-6.536,0.07-13.058,0.606-19.594-0.11c-2.665-0.292-5.355-0.356-8.034-0.523"/>
		
			<path fill="none" stroke="#000000" stroke-width="0.75" stroke-linecap="round" stroke-linejoin="round" stroke-miterlimit="10" d="
			M719.35,208.613c2.55-0.317,5.158,0.625,7.653-1.357c1.078-0.856,3.673-0.56,4.739,2.205c-3.831,3.06-7.807,4.754-12.896,4.809
			c-6.534,0.07-13.056,0.606-19.593-0.11c-2.665-0.292-5.354-0.356-8.034-0.523"/>
		
			<path fill="none" stroke="#000000" stroke-width="0.75" stroke-linecap="round" stroke-linejoin="round" stroke-miterlimit="10" d="
			M211.022,207.608c-3.339-3.028-7.414-1.472-11.045-1.349c-5.044,0.171-10.043,0.081-15.077,0.008
			c-4.574-0.066-9.326,0.55-13.54,2.557c-0.156,2.427,0.745,4.186,1.991,5.816c0.974,1.274,0.936-0.538,1.505-0.501"/>
		
			<path fill="none" stroke="#000000" stroke-width="0.75" stroke-linecap="round" stroke-linejoin="round" stroke-miterlimit="10" d="
			M384.818,207.608c-3.34-3.028-7.415-1.472-11.045-1.349c-5.045,0.171-10.043,0.081-15.077,0.008
			c-4.574-0.066-9.327,0.55-13.54,2.557c-0.157,2.427,0.745,4.186,1.99,5.816c0.975,1.274,0.937-0.538,1.507-0.501"/>
		
			<path fill="none" stroke="#000000" stroke-width="0.75" stroke-linecap="round" stroke-linejoin="round" stroke-miterlimit="10" d="
			M556.604,207.608c-3.34-3.028-7.414-1.472-11.046-1.349c-5.044,0.171-10.043,0.081-15.075,0.008
			c-4.574-0.066-9.326,0.55-13.54,2.557c-0.157,2.427,0.745,4.186,1.99,5.816c0.975,1.274,0.937-0.538,1.506-0.501"/>
		
			<path fill="none" stroke="#000000" stroke-width="0.75" stroke-linecap="round" stroke-linejoin="round" stroke-miterlimit="10" d="
			M726.382,207.608c-3.34-3.028-7.414-1.472-11.046-1.349c-5.044,0.171-10.043,0.081-15.076,0.008
			c-4.572-0.066-9.327,0.55-13.54,2.557c-0.155,2.427,0.745,4.186,1.99,5.816c0.975,1.274,0.937-0.538,1.506-0.501"/>
		
			<path fill="none" stroke="#000000" stroke-width="0.75" stroke-linecap="round" stroke-linejoin="round" stroke-miterlimit="10" d="
			M193.944,296.014c-6.359-0.402-12.759,0.76-19.108-0.926c-3.286-0.871-5.579,0.29-5.05,4.447c0.273,2.142,0.048,4.348,0.048,6.523
			"/>
		
			<path fill="none" stroke="#000000" stroke-width="0.75" stroke-linecap="round" stroke-linejoin="round" stroke-miterlimit="10" d="
			M367.74,296.014c-6.359-0.402-12.76,0.76-19.109-0.926c-3.285-0.871-5.579,0.29-5.05,4.447c0.272,2.142,0.048,4.348,0.048,6.523"
			/>
		
			<path fill="none" stroke="#000000" stroke-width="0.75" stroke-linecap="round" stroke-linejoin="round" stroke-miterlimit="10" d="
			M539.526,296.014c-6.359-0.402-12.761,0.76-19.108-0.926c-3.286-0.871-5.579,0.29-5.051,4.447
			c0.272,2.142,0.049,4.348,0.049,6.523"/>
		
			<path fill="none" stroke="#000000" stroke-width="0.75" stroke-linecap="round" stroke-linejoin="round" stroke-miterlimit="10" d="
			M709.304,296.014c-6.358-0.402-12.759,0.76-19.108-0.926c-3.284-0.871-5.578,0.29-5.051,4.447c0.273,2.142,0.05,4.348,0.05,6.523"
			/>
		
			<path fill="none" stroke="#000000" stroke-width="0.75" stroke-linecap="round" stroke-linejoin="round" stroke-miterlimit="10" d="
			M691.221,216.649c0,6.195-0.03,12.39,0.012,18.585c0.025,3.888,0.085,7.769-1.017,11.553"/>
		
			<path fill="none" stroke="#000000" stroke-width="0.75" stroke-linecap="round" stroke-linejoin="round" stroke-miterlimit="10" d="
			M521.443,216.649c0,6.195-0.031,12.39,0.011,18.585c0.026,3.888,0.085,7.769-1.017,11.553"/>
		
			<path fill="none" stroke="#000000" stroke-width="0.75" stroke-linecap="round" stroke-linejoin="round" stroke-miterlimit="10" d="
			M349.657,216.649c0,6.195-0.031,12.39,0.011,18.585c0.026,3.888,0.084,7.769-1.016,11.553"/>
		
			<path fill="none" stroke="#000000" stroke-width="0.75" stroke-linecap="round" stroke-linejoin="round" stroke-miterlimit="10" d="
			M175.861,216.649c0,6.195-0.031,12.39,0.012,18.585c0.026,3.888,0.084,7.769-1.016,11.553"/>
		
			<path fill="none" stroke="#000000" stroke-width="0.75" stroke-linecap="round" stroke-linejoin="round" stroke-miterlimit="10" d="
			M204.492,328.662c-6.53-0.852-13.097-0.985-19.575,0.091c-3.388,0.562-6.717,0.151-10.061,0.412"/>
		
			<path fill="none" stroke="#000000" stroke-width="0.75" stroke-linecap="round" stroke-linejoin="round" stroke-miterlimit="10" d="
			M378.288,328.662c-6.53-0.852-13.096-0.985-19.574,0.091c-3.389,0.562-6.717,0.151-10.061,0.412"/>
		
			<path fill="none" stroke="#000000" stroke-width="0.75" stroke-linecap="round" stroke-linejoin="round" stroke-miterlimit="10" d="
			M550.074,328.662c-6.529-0.852-13.098-0.985-19.574,0.091c-3.389,0.562-6.718,0.151-10.062,0.412"/>
		
			<path fill="none" stroke="#000000" stroke-width="0.75" stroke-linecap="round" stroke-linejoin="round" stroke-miterlimit="10" d="
			M719.852,328.662c-6.529-0.852-13.097-0.985-19.574,0.091c-3.39,0.562-6.717,0.151-10.062,0.412"/>
		
			<path fill="none" stroke="#000000" stroke-width="0.75" stroke-linecap="round" stroke-linejoin="round" stroke-miterlimit="10" d="
			M213.031,215.645c0,9.042,0,18.083,0,27.124"/>
		
			<path fill="none" stroke="#000000" stroke-width="0.75" stroke-linecap="round" stroke-linejoin="round" stroke-miterlimit="10" d="
			M386.827,215.645c0,9.042,0,18.083,0,27.124"/>
		
			<path fill="none" stroke="#000000" stroke-width="0.75" stroke-linecap="round" stroke-linejoin="round" stroke-miterlimit="10" d="
			M558.613,215.645c0,9.042,0,18.083,0,27.124"/>
		
			<path fill="none" stroke="#000000" stroke-width="0.75" stroke-linecap="round" stroke-linejoin="round" stroke-miterlimit="10" d="
			M728.391,215.645c0,9.042,0,18.083,0,27.124"/>
		
			<path fill="none" stroke="#000000" stroke-width="0.75" stroke-linecap="round" stroke-linejoin="round" stroke-miterlimit="10" d="
			M662.59,330.169c-1.717,3.238-1.432,5.745,1.401,8.644c4.838,4.945,10.509,7.552,17.184,8.436"/>
		
			<path fill="none" stroke="#000000" stroke-width="0.75" stroke-linecap="round" stroke-linejoin="round" stroke-miterlimit="10" d="
			M492.812,330.169c-1.717,3.238-1.434,5.745,1.4,8.644c4.837,4.945,10.509,7.552,17.185,8.436"/>
		
			<path fill="none" stroke="#000000" stroke-width="0.75" stroke-linecap="round" stroke-linejoin="round" stroke-miterlimit="10" d="
			M321.025,330.169c-1.717,3.238-1.433,5.745,1.401,8.644c4.837,4.945,10.509,7.552,17.185,8.436"/>
		
			<path fill="none" stroke="#000000" stroke-width="0.75" stroke-linecap="round" stroke-linejoin="round" stroke-miterlimit="10" d="
			M147.23,330.169c-1.716,3.238-1.432,5.745,1.401,8.644c4.837,4.945,10.51,7.552,17.184,8.436"/>
		
			<path fill="none" stroke="#000000" stroke-width="0.75" stroke-linecap="round" stroke-linejoin="round" stroke-miterlimit="10" d="
			M193.944,308.068c-5.413,2.197-11.081,0.908-16.565,0.715c-1.618-0.057-3.705-0.322-5.536-0.715"/>
		
			<path fill="none" stroke="#000000" stroke-width="0.75" stroke-linecap="round" stroke-linejoin="round" stroke-miterlimit="10" d="
			M367.74,308.068c-5.413,2.197-11.081,0.908-16.566,0.715c-1.617-0.057-3.704-0.322-5.536-0.715"/>
		
			<path fill="none" stroke="#000000" stroke-width="0.75" stroke-linecap="round" stroke-linejoin="round" stroke-miterlimit="10" d="
			M539.526,308.068c-5.413,2.197-11.081,0.908-16.565,0.715c-1.618-0.057-3.705-0.322-5.536-0.715"/>
		
			<path fill="none" stroke="#000000" stroke-width="0.75" stroke-linecap="round" stroke-linejoin="round" stroke-miterlimit="10" d="
			M709.304,308.068c-5.413,2.197-11.081,0.908-16.565,0.715c-1.617-0.057-3.703-0.322-5.535-0.715"/>
		
			<path fill="none" stroke="#000000" stroke-width="0.75" stroke-linecap="round" stroke-linejoin="round" stroke-miterlimit="10" d="
			M214.036,311.584c-3.349,0.335-6.697,0.67-10.046,1.005"/>
		
			<path fill="none" stroke="#000000" stroke-width="0.75" stroke-linecap="round" stroke-linejoin="round" stroke-miterlimit="10" d="
			M387.832,311.584c-3.349,0.335-6.697,0.67-10.046,1.005"/>
		
			<path fill="none" stroke="#000000" stroke-width="0.75" stroke-linecap="round" stroke-linejoin="round" stroke-miterlimit="10" d="
			M559.618,311.584c-3.35,0.335-6.698,0.67-10.046,1.005"/>
		
			<path fill="none" stroke="#000000" stroke-width="0.75" stroke-linecap="round" stroke-linejoin="round" stroke-miterlimit="10" d="
			M729.396,311.584c-3.35,0.335-6.698,0.67-10.047,1.005"/>
		
			<path fill="none" stroke="#000000" stroke-width="0.75" stroke-linecap="round" stroke-linejoin="round" stroke-miterlimit="10" d="
			M727.889,297.52c-3.084,1.269-6.33,0.978-9.544,1.006"/>
		
			<path fill="none" stroke="#000000" stroke-width="0.75" stroke-linecap="round" stroke-linejoin="round" stroke-miterlimit="10" d="
			M558.111,297.52c-3.084,1.269-6.33,0.978-9.544,1.006"/>
		
			<path fill="none" stroke="#000000" stroke-width="0.75" stroke-linecap="round" stroke-linejoin="round" stroke-miterlimit="10" d="
			M386.325,297.52c-3.083,1.269-6.331,0.978-9.544,1.006"/>
		
			<path fill="none" stroke="#000000" stroke-width="0.75" stroke-linecap="round" stroke-linejoin="round" stroke-miterlimit="10" d="
			M212.529,297.52c-3.083,1.269-6.33,0.978-9.543,1.006"/>
	</g>
</g>
<g id="Labels">
	<text transform="matrix(1 0 0 1 174.5 390.5)" font-family="'Helvetica'" font-size="10">Control</text>
	<text transform="matrix(1 0 0 1 347.5 390.5)" font-family="'Helvetica'" font-size="10">50um ABA</text>
	<text transform="matrix(1 0 0 1 513.5 390.5)" font-family="'Helvetica'" font-size="10">5 mM DMTU</text>
	<text transform="matrix(1 0 0 1 686.8203 390.5)"><tspan x="0" y="0" font-family="'Helvetica'" font-size="10">50 uM ABA </tspan><tspan x="-1.65" y="12" font-family="'Helvetica'" font-size="10">5 mM DMTU</tspan></text>
</g>
</svg>
