<?xml version="1.0" encoding="UTF-8"?>
<svg id="svg107" width="762.3" height="360.31" version="1.1" viewBox="0 0 762.3 360.31" xmlns="http://www.w3.org/2000/svg">
 <defs id="defs111">
  <marker id="Arrow1Send" overflow="visible" orient="auto">
   <path id="path4845" d="m-1.2 0-1 1 3.5-1-3.5-1 1 1" fill="#000000" fill-rule="evenodd" stroke="#000000" stroke-width=".53333"/>
  </marker>
 </defs>
 <g id="ATML1">
  <path fill="#662d91" stroke="#000000" stroke-width="4.4282" id="path270" d="m183.53 230.96s14.557-9.2799 26.202-10.372c0 0 19.288-4.0031 33.844-1.6376 0 0 15.466 2.7294 28.567 12.373 0 0 30.023 23.291 44.58 46.763l1.6376 3.4572 2.0015 3.8211h4.0031s3.8211-8.9159 5.0948-14.557c0 0 13.465-21.107-23.291-56.589 0 0-21.697-21.254-43.055-35.149 0 0-39.371-29.335-63.817-71.794 0 0-2.8306-36.798 15.44-48.378 0 0 12.609-21.616 55.325-21.101 0 0 66.905-7.2052 117.86 70.508 0 0 31.909 33.967 52.495 91.094 0 0 28.821 67.42 26.762 85.433 0 0 0.20945 5.4462-3.7937 8.7214 0 0-1.0917 6.1866 6.5505 1.0917 0 0 6.5505-14.193 0-26.566 0 0-15.648-60.046-47.673-120.46 0 0-46.217-71.328-74.603-91.707 0 0-62.23-46.581-126.64-10.917 0 0-46.945 40.759-18.56 79.334 0 0 39.303 47.309 57.863 58.591 20.015 13.101 28.022 23.655 28.022 23.655l28.022 26.93s16.012 25.474 6.1866 43.67c0 0-42.214-68.052-93.89-64.777 0 0-54.224-3.2752-83.337 59.682 0 0-6.1866 6.5505-6.1866 6.5505s37.847-82.245 37.847-82.245 17.468-59.682-46.945-61.502c0 0-71.328 5.8227-98.257 155.03 0 0 4.0031 1.4556 6.5505-1.4557 0 0 32.752-185.6 124.1-137.56 0 0 8.0062 9.8257 9.8257 22.563 1.8196 12.737-2.5474 22.927-2.5474 22.927l-36.392 82.791-2.5474 6.7324 3.0933 3.4572 5.4587-3.8211s10.372-9.8257 14.011-16.194c0 0 11.827-26.566 30.205-38.393"/>
  <path fill="#662d91" stroke="#000000" stroke-width="4.4282" id="path294" d="m474.66 156s9.8257-29.477 46.217-5.0948c1.8196 0 49.493 65.869 134.29 19.651 0 0 24.018-26.93 48.037-33.116 0 0 21.471 0.36391 20.379 37.119 0 0-9.4618 17.468-37.847 46.945 0 0-14.557 7.2783-25.838 30.933-11.281 23.655-34.936 33.844-34.936 33.844s-40.395 12.737-77.878-14.193l-27.294-44.034s-14.557-16.012-27.658-27.294c0 0-26.566-23.655-17.468-44.762m188.14 15.284s-67.688 53.132-134.65-5.4588c0 0-35.3-33.844-45.49-11.645 0 0-13.465 17.468 20.379 48.037 0 0 24.746 21.107 33.48 40.759 0 0 16.012 36.756 48.401 38.211 0 0 49.129 14.921 69.872-33.116 0 0 24.018-34.208 37.847-43.67 0 0 37.847-29.477 21.835-48.037-1.4557-33.48-51.676 14.921-51.676 14.921" fill-rule="evenodd"/>
 </g>
 <g id="FIL">
  <path fill="#83af9b" stroke="#000000" stroke-width="4.4282" id="path173-5" d="m321.09 170.55s-76.602-89.382-106.35-111.65c0 0 12.609-21.616 55.325-21.101 0 0 66.905-7.2052 117.86 70.508 0 0 31.909 33.967 52.495 91.094 0 0 28.821 67.42 26.762 85.433 0 0-0.15455 18.547-62.384 4.3544l-56.771-15.285s-6.1866 0.36392-4.7309-8.734c0 0 34.936-25.474-22.199-94.618"/>
  <path fill="#83af9b" stroke="#000000" stroke-width="4.4282" id="path330" d="m513.6 186.2c-23.655-15.284-30.933-32.025-30.933-32.025s-13.465 17.468 20.379 48.037c0 0 24.746 21.107 33.48 40.759 0 0 16.012 36.756 48.401 38.211 0 0 49.129 14.921 69.872-33.116 0 0 24.018-34.208 37.847-43.67 0 0 37.847-29.477 21.835-48.037 0 0-13.829 30.205-35.3 33.48l-5.4587-6.5505c-76.422 71.328-155.76-2.1835-155.76-2.1835l-4.367 5.0948"/>
  <path fill="#83af9b" stroke="#000000" stroke-width="4.4282" id="path125" d="m172.25 173.46c-1.8196-12.737-9.8257-22.563-9.8257-22.563-91.343-48.037-124.1 137.56-124.1 137.56s30.569-14.921 81.153-9.0979c0 0 14.557-38.939 39.303-87.704 0 0 4.367-19.651 13.465-18.196"/>
 </g>
 <g id="PTL">
  <path fill="#123555" stroke="#000000" stroke-width="4.4282" id="path298" d="m482.67 154.18s7.2783 16.74 30.933 32.025l4.367-5.0948 10.19-15.284s-35.3-33.844-45.49-11.645"/>
  <path fill="#123555" stroke="#000000" stroke-width="4.4282" id="path324" d="m662.81 171.28s50.22-48.401 51.676-14.921c0 0-13.829 30.205-35.3 33.48l-5.4587-6.5505s-10.917-12.009-10.917-12.009"/>
 </g>
 <g id="AS2">
  <path fill="#f9cdad" stroke="#000000" stroke-width="4.4282" id="path125-6" d="m119.48 279.36s14.557-38.939 39.303-87.704c0 0 4.367-19.651 13.465-18.196 1.8196 12.737-2.5474 22.927-2.5474 22.927l-36.392 82.791c-6.1866 5.6407-13.829 0.182-13.829 0.182v-4e-5"/>
  <path fill="#f9cdad" stroke="#000000" stroke-width="4.4282" id="path173" d="m214.74 58.902c-18.27 11.58-15.44 48.378-15.44 48.378 24.446 42.459 63.817 71.794 63.817 71.794 21.358 13.896 43.055 35.149 43.055 35.149 36.756 35.482 23.291 56.589 23.291 56.589s0.36393 10.372 13.829-5.6407c0 0 34.936-25.474-22.199-94.618 0 0-76.602-89.382-106.35-111.65"/>
  <path fill="#f9cdad" stroke="#000000" stroke-width="4.4282" id="path316" d="m673.72 183.29s-10.917-12.009-10.917-12.009-67.688 53.132-134.65-5.4588l-10.19 15.284s79.334 73.511 155.76 2.1835"/>
 </g>
 <g id="WUS">
  <path id="path292" d="m215.19 244.61 23.837-2.0015s5.6407 2.0015 6.3685 4.185l1.8196 12.191s-0.36391 6.3685-4.9129 7.8242l-19.833 1.6376s-7.2783-0.54588-9.6438-4.7309c0 0-3.8211-13.101 2.3654-19.106" fill="#c8c8a9" stroke="#000000" stroke-width="4.4282"/>
 </g>
 <g id="CLV3">
  <path id="path290" d="m209.73 220.59s19.833-5.2768 35.846-1.0917c0 0 2.3655 1.8196 1.6376 7.2783 0 0-0.36391 8.734-0.36391 8.734s-1.8196 6.1866-7.8242 7.0964l-23.837 2.0015s-5.8226-1.0918-7.6422-6.1866c0 0-3.2752-14.921 2.1835-17.832" fill="#fc9d9a" stroke="#000000" stroke-width="4.4282"/>
 </g>
 <g id="UFO">
  <path id="path254" d="m272.14 231.33s30.023 23.291 44.58 46.763c0 0-16.296 24.501-65.189 29.904l-47.606-1.2866s-15.697 3.8599-56.097-24.961l5.4933-12.391s11.827-26.566 30.205-38.393c0 0 10.917 1.4557 16.012 21.471 0 0 8.552 19.288 18.924 23.291l26.02-0.182s12.191-1.4557 15.103-23.109l0.54588-17.65s-2.3655-11.281 12.009-3.4572" fill="#fe4365" stroke="#000000" stroke-width="4.4282"/>
 </g>
 <g id="LAS">
  <path fill="#e69b03" stroke="#000000" stroke-width="4.4282" id="path250" d="m130.76 285.91s-5.4588-4.7309-6.1866 10.917c0 0 9.8257 4.367 15.648-1.0917 0 0 1.8196-6.1866-0.9098-10.19l-5.4587 3.8211-3.0933-3.4572"/>
  <path fill="#e69b03" stroke="#000000" stroke-width="4.4282" id="path252" d="m321.82 290.28-1.4556-4.9129s-1.2793-4.1359-1.7939-4.0072c-0.51468 0.12869-12.094 9.6498-2.4446 17.756 0 0 10.808 9.2638 16.083-4.1172 0 0 2.9593-6.8192-3.0879-13.252 0 0-2.173 0.68065-4.7534 3.6212l-2.5474 4.9129"/>
 </g>
 <g id="lines" fill="none" stroke="#000000" stroke-dasharray="4.42818094, 2.21409046" stroke-width="4.4282">
  <path id="path332" d="m175.36 124.78h258.87"/>
  <path id="path4828" d="m474.89 113.46s58.156-32.938 53.01 24.189" marker-end="url(#Arrow1Send)"/>
 </g>
 <g id="labels" fill="#000000" font-family="Arial" letter-spacing="0px" text-anchor="middle" word-spacing="0px">
  <text id="text5234" transform="translate(10.52 10.457)" x="209.84578" y="316.48904" font-size="16px" text-align="center" style="line-height:1.25" xml:space="preserve"><tspan id="tspan5232" x="209.84578" y="316.48904" font-size="16px">Longitudinal section of vegetative shoot apex</tspan></text>
  <text id="text5238" transform="translate(10.52 10.457)" x="589.20001" y="314.50986" font-size="8px" text-align="center" style="line-height:1.25" xml:space="preserve"><tspan id="tspan5236" x="589.20001" y="314.50986" font-size="16px">Transverse section of leaf primordium</tspan></text>
 </g>
</svg>
