<?xml version="1.0" encoding="utf-8"?>
<!-- Generator: Adobe Illustrator 16.0.0, SVG Export Plug-In . SVG Version: 6.00 Build 0)  -->
<!DOCTYPE svg PUBLIC "-//W3C//DTD SVG 1.1//EN" "http://www.w3.org/Graphics/SVG/1.1/DTD/svg11.dtd">
<svg version="1.1" id="Layer_1" xmlns="http://www.w3.org/2000/svg" xmlns:xlink="http://www.w3.org/1999/xlink" x="0px" y="0px"
	 width="900px" height="600px" viewBox="0 0 900 600" enable-background="new 0 0 900 600" xml:space="preserve">
<g id="samples">
	<g id="Stem_epidermis_top_of_stem">
		<path fill="none" d="M531.285,97.763c-1.964-3.353-5.215-5.862-8.965-6.894c-3.473-0.955-8.556-0.794-11.561,1.512
			c-0.039,0.03-0.082,0.052-0.121,0.082c-7.399,0.946-13.308,7.168-13.308,14.871c0,8.072,6.822,15.139,15,15
			c4.604-0.078,9.836-1.18,13.571-4.048c1.012-0.782,2.021-1.564,3.033-2.346c1.859-1.872,3.146-4.078,3.857-6.619
			C533.862,105.45,533.314,101.227,531.285,97.763z"/>
		<path fill="none" d="M534.297,113.529c2.621-7.136,0.51-15.108-4.688-20.469c-3.944-4.065-9.536-5.139-14.573-3.721
			c-11.866-6.45-30.776-0.977-36.915,11.09c-0.464,0.913-0.854,1.838-1.204,2.771c-3.688,1.858-6.605,5.257-8.045,9.478
			c-1.941,5.691-3.663,10.158-6.907,15.417c-0.335,0.543-0.667,1.081-0.997,1.619c-2.966,1.893-5.221,4.73-5.763,8.297
			c-0.13,1.071-0.323,2.131-0.581,3.179c-0.021,0.063-0.033,0.11-0.051,0.169c-0.619,1.396-1.194,2.826-1.701,4.319
			c-0.903,2.66-0.953,5.166-0.396,7.438c-2.009,6.625-3.417,13.43-4.174,20.358c-0.757,6.928,0.396,13.673,0.87,20.562
			c0.484,7.042,0.153,12.641-1.301,18.309c-2.029,7.915,2.496,16.256,10.477,18.452c5.804,1.596,12.086-0.618,15.747-5.133
			c0.389,0.385,0.784,0.758,1.197,1.107c6.849,5.792,15.167,7.262,22.688,3.727c4.577,1.086,9.646,0.099,13.627-3.893
			c4.444-4.456,8.823-9.147,11.865-14.561c2.259-1.172,4.284-2.97,5.813-5.475c4.437-7.266,5.669-18.127,2.29-26.445
			c0.27-1.128,0.425-2.286,0.425-3.458v-2.333c0-2.512-0.646-4.975-1.827-7.156c-0.016-0.055-0.026-0.11-0.042-0.166
			c-0.362-1.284-0.9-2.475-1.561-3.578c1.867-4.489,1.659-9.918-0.628-14.195c0.524-2.235,1.081-4.463,1.469-6.732
			c1.079-6.344,1.072-12.755,0.518-19.136c0.493-1.198,0.845-2.458,1.042-3.75C532.393,117.698,533.533,115.609,534.297,113.529z"/>
	</g>
	<g id="Stem_epidermis_bottom_of_stem">
		<path fill="none" d="M522.72,340.389c-4.826,3.198-9.934,5.889-15.127,8.416c-1.065-0.211-2.161-0.269-3.26-0.138
			c-2.016,0.239-4.013,0.552-6.004,0.89c-0.779-1.717-1.647-3.311-2.743-4.902c-0.13-0.189-0.253-0.383-0.381-0.572
			c0.086-0.589,0.102-1.189,0.046-1.784c0.496-0.411,0.964-0.85,1.354-1.354c2.444-3.158,3.527-4.66,4.934-8.373
			c0.831-2.199,1.058-4.615,1.295-6.932c0.282-2.758,0.041-5.582-0.438-8.338c1.564-4.047,0.672-8.82-1.625-12.622
			c1.439-2.663,0.188-6.844-3.771-6.844c-1.12,0-2.019,0.34-2.706,0.881c-4.398-2.08-8.835-1.686-12.677,0.325
			c-0.989,0.066-1.977,0.232-2.938,0.497c-3.129,0.86-6.405,2.956-8.291,5.754c-1.17,0.774-2.332,1.562-3.451,2.413
			c-3.495,2.662-6.466,5.681-6.771,10.297c-0.049,0.738,0.09,1.447,0.365,2.096c-0.912,2.156-1.629,4.377-2.183,6.512
			c-1.692,6.537-1.022,13.105,0.14,19.646c0.118,0.597,0.205,1.022,0.269,1.319c0.04,0.826,0.047,1.65,0.003,2.479
			c0.315-1.592,0.304-1.501-0.035,0.273c-0.26,1.395-0.704,2.752-1.133,4.1c-0.16,0.508-2.237,5.626-1.134,3.073
			c-1.286,2.974-2.569,5.944-3.827,8.931c-2.137,5.071-3.352,10.228-3.888,15.708c-0.305,3.104-0.268,6.339-0.131,9.582
			c-1.038,4.231-1.233,8.646-0.689,13.001c-0.205-0.554,0.067,1.655,0.019,3.353c-0.091,0.684-0.188,1.43-0.238,1.754
			c-0.227,1.45-0.452,2.898-0.669,4.351c-1.022,6.836-1.952,13.208-0.525,20.053c0.938,4.501,4.16,8.343,7.884,10.812
			c5.312,3.523,11.5,2.958,16.73,0.236c0.803,0.308,1.598,0.646,2.389,0.903c1.754,0.576,3.593,0.942,5.378,1.409
			c0.446,0.118,0.893,0.247,1.331,0.386c0.009,0.067,0.29,0.276,0.877,0.646c8.603,6.273,24.026-2.028,22.571-12.952
			c-2.111-15.843-6.404-32.594-8.334-47.667c-0.083-0.645-0.198-1.277-0.331-1.904c2.41-1.096,4.978-1.463,7.915-1.392
			c4.816,0.116,8.759-1.975,10.931-6.343c0.515-1.031,0.714-2.042,0.682-2.996c0.395-0.494,0.772-1.002,1.127-1.532
			c1.707-0.68,3.131-2.051,3.465-3.905c0.306-1.703,0.748-3.346,1.349-4.969c0.053-0.127,0.085-0.212,0.118-0.297
			c0.156-0.346,0.314-0.689,0.479-1.032c0.039-0.084,0.083-0.166,0.123-0.249c2.296-2.833,4.638-5.783,6.325-9.02
			c0.011-0.016,0.014-0.031,0.021-0.049c1.37-0.739,2.261-2.006,2.67-3.435C535.579,345.927,529.384,335.97,522.72,340.389z
			 M472.348,444.587c0.911-0.549,1.791-1.155,2.619-1.823c0.284-0.229,0.568-0.458,0.854-0.688
			C474.711,443.34,473.554,444.175,472.348,444.587z"/>
	</g>
	<g id="Whole_stem_top_of_stem">
		<g>
			<path fill="none" d="M609.508,123.265c-0.005,0.062-0.008,0.138-0.008,0.235C609.5,123.421,609.507,123.344,609.508,123.265z"/>
			<path fill="none" d="M660.727,192.991c-0.616-1.42-1.396-2.746-2.259-4.023c-0.249-0.492-0.495-0.985-0.741-1.477
				c-0.164-0.33,0.62-0.563,0.383-0.728c-1.314-2.139-3.049-4.045-4.383-6.272c-0.297-0.496-1.701-1.77-2.137-1.886
				c-1.182-1.885-2.15-2.885-2.661-5.136c-0.229-1.021-1.007-1.445-1.807-1.427c0.279-6.322,0.207-12.611-0.401-18.914
				c0.094-0.172,0.17-0.365,0.208-0.596c0.508-3.041,1.056-6.06,2-9c0.255-0.791,0.025-1.433-0.425-1.863
				c1.389-2.075,2.663-4.203,3.425-6.637c0.607-1.942-1.957-3.332-3.343-1.946l-0.877,0.877c-0.151-0.519-0.315-1.033-0.51-1.536
				c0.521-1.75-0.198-3.578-0.199-5.427c0-0.622-0.012-1.241-0.074-1.86c-0.03-0.3,0.941-0.584,0.913-0.857
				c0.096-0.75,0.161-1.509,0.161-2.282c0-10.085-8.415-18.5-18.5-18.5c-3.216,0-6.258,0.862-8.915,2.355
				c-2.138,0.857-3.998,2.097-5.556,3.627c-0.461-0.157-0.996-0.104-1.539,0.291c-3.094,2.252-4.694,6.19-4.49,9.977
				c0.032,0.605,0.284,1.063,0.642,1.384c-0.072,0.701-0.126,1.41-0.134,2.131c0.071-0.92,0.652,2.045,1.006,4.74
				c-1.19,0.681-1.258,2.581-0.182,3.382c-0.002,0.03-0.015,0.058-0.015,0.088c-0.022-0.044-0.043-0.08-0.067-0.132
				c-0.407,1.03-0.725,2.102-0.938,3.205c-1.949-1.614-4.183-2.884-6.304-4.275c-2.165-1.418-4.167,2.047-2.02,3.454
				c0.166,0.109,0.334,0.214,0.502,0.322c4.252,4.562,5.048,5.257,7.922,8.88c0.044,0.522,2.077,1.045,2.086,1.571
				c-0.002-0.101,2.021,11.463,1.386,10.545c0.518,6.477,2.491,12.944,2.114,19.455c-0.123,2.125-1.747,4.164-1.004,6.05
				c-0.616,0.694-1.254,1.372-1.91,2.036c-1.813,1.835,1.013,4.665,2.828,2.828c0.24-0.243,0.479-0.491,0.716-0.739
				c0.1,0.651,0.229,1.301,0.424,1.946c0.118,0.388,0.209,0.781,0.284,1.176c0.183,1.452,0.383,2.903,0.716,4.324
				c0.062,0.254,0.146,0.495,0.222,0.742C615.7,200.478,619.934,208.5,630,208.5c0.983,0,1.909-0.088,2.78-0.251
				c0.854,0.156,1.773,0.443,2.72,0.251c16-3.25,11.502-9.5,11.825-18.516c0.081-0.67,0.104-1.347,0.101-2.026
				c0.373-0.071,0.726-0.247,0.988-0.543c0.343-0.384,0.581-0.803,0.748-1.247c0.775,0.734,1.563,1.458,2.336,2.19
				c-0.061,0.516,0.1,1.068,0.588,1.557l3.153,3.153c0.167,0.369,0.431,0.612,0.749,0.75l0.598,0.598
				c0.182,0.181,0.372,0.304,0.566,0.399c0.042,0.065,0.079,0.132,0.121,0.196c0.519,1.191,1.649,1.26,2.517,0.737
				C660.808,195.316,661.504,194.181,660.727,192.991z"/>
		</g>
	</g>
	<g id="Whole_stem_bottom_of_stem">
		<g>
			<path fill="none" d="M609.508,335.266c-0.005,0.062-0.008,0.139-0.008,0.234C609.5,335.421,609.507,335.344,609.508,335.266z"/>
			<path fill="none" d="M660.727,404.99c-0.616-1.42-1.396-2.745-2.259-4.022c-0.249-0.491-0.495-0.983-0.741-1.478
				c-0.164-0.33,0.62-0.562,0.383-0.729c-1.314-2.14-3.049-4.045-4.383-6.271c-0.297-0.496-1.701-1.771-2.137-1.887
				c-1.182-1.886-2.15-2.886-2.661-5.137c-0.229-1.021-1.007-1.443-1.807-1.428c0.279-6.322,0.207-12.611-0.401-18.914
				c0.094-0.172,0.17-0.365,0.208-0.596c0.508-3.041,1.056-6.062,2-9c0.255-0.791,0.025-1.435-0.425-1.863
				c1.389-2.074,2.663-4.202,3.425-6.637c0.607-1.941-1.957-3.331-3.343-1.945l-0.877,0.877c-0.151-0.52-0.315-1.033-0.51-1.535
				c0.521-1.751-0.198-3.578-0.199-5.428c0-0.622-0.012-1.241-0.074-1.859c-0.03-0.301,0.941-0.586,0.913-0.856
				c0.096-0.751,0.161-1.509,0.161-2.282c0-10.085-8.415-18.5-18.5-18.5c-3.216,0-6.258,0.861-8.915,2.355
				c-2.138,0.854-3.998,2.096-5.556,3.627c-0.461-0.158-0.996-0.105-1.539,0.291c-3.094,2.252-4.694,6.188-4.49,9.977
				c0.032,0.605,0.284,1.062,0.642,1.384c-0.072,0.701-0.126,1.41-0.134,2.132c0.071-0.921,0.652,2.045,1.006,4.739
				c-1.19,0.681-1.258,2.581-0.182,3.382c-0.002,0.031-0.015,0.061-0.015,0.09c-0.022-0.045-0.043-0.08-0.067-0.133
				c-0.407,1.029-0.725,2.102-0.938,3.204c-1.949-1.614-4.183-2.884-6.304-4.272c-2.165-1.42-4.167,2.047-2.02,3.451
				c0.166,0.109,0.334,0.217,0.502,0.322c4.252,4.562,5.048,5.258,7.922,8.881c0.044,0.521,2.077,1.045,2.086,1.57
				c-0.002-0.102,2.021,11.463,1.386,10.545c0.518,6.479,2.491,12.945,2.114,19.455c-0.123,2.125-1.747,4.164-1.004,6.051
				c-0.616,0.693-1.254,1.371-1.91,2.035c-1.813,1.835,1.013,4.664,2.828,2.828c0.24-0.243,0.479-0.491,0.716-0.739
				c0.1,0.651,0.229,1.301,0.424,1.946c0.118,0.388,0.209,0.78,0.284,1.176c0.183,1.452,0.383,2.902,0.716,4.324
				c0.062,0.254,0.146,0.494,0.222,0.742C615.7,412.479,619.934,420.5,630,420.5c0.983,0,1.909-0.088,2.78-0.251
				c0.854,0.155,1.773,0.442,2.72,0.251c16-3.25,11.502-9.5,11.825-18.516c0.081-0.67,0.104-1.35,0.101-2.027
				c0.373-0.07,0.726-0.246,0.988-0.543c0.343-0.384,0.581-0.803,0.748-1.246c0.775,0.734,1.563,1.457,2.336,2.189
				c-0.061,0.516,0.1,1.066,0.588,1.557l3.153,3.152c0.167,0.367,0.431,0.61,0.749,0.75l0.598,0.598
				c0.182,0.181,0.372,0.304,0.566,0.398c0.042,0.063,0.079,0.133,0.121,0.195c0.519,1.19,1.649,1.26,2.517,0.736
				C660.808,407.316,661.504,406.181,660.727,404.99z"/>
		</g>
	</g>
</g>
<g id="outlines">
	<g>
		
			<path fill="none" stroke="#000000" stroke-width="0.75" stroke-linecap="round" stroke-linejoin="round" stroke-miterlimit="10" d="
			M658.45,341.212c-10.167,7.31-12.438,17.556-11.103,29.275c0.372,3.271,0.062,6.62,0.057,9.934
			c-0.006,3.514,0.895,5.94,3.505,9.132c6.158,7.532,11.959,15.877,13.062,26.212"/>
		
			<path fill="none" stroke="#000000" stroke-width="0.75" stroke-linecap="round" stroke-linejoin="round" stroke-miterlimit="10" d="
			M658.45,128.854c-10.167,7.309-12.438,17.554-11.103,29.275c0.372,3.271,0.062,6.621,0.057,9.934
			c-0.006,3.514,0.895,5.939,3.505,9.132c6.158,7.532,11.959,15.876,13.062,26.211"/>
		
			<path fill="none" stroke="#000000" stroke-width="0.75" stroke-linecap="round" stroke-linejoin="round" stroke-miterlimit="10" d="
			M448.973,382.63"/>
		
			<path fill="none" stroke="#000000" stroke-width="0.75" stroke-linecap="round" stroke-linejoin="round" stroke-miterlimit="10" d="
			M648.511,348.393c-2.077-4.275-1.254-8.846-1.03-13.25c0.573-11.261-6.315-18.567-17.744-18.209
			c-8.672,0.271-16.424,2.453-19.776,11.615c-0.713,1.947-1.453,3.946-0.402,6.702c1.223,3.201,0.689,7.288-0.388,11.448
			c-4.923-3.977-12.255-3.307-15.882-9.354"/>
		
			<path fill="none" stroke="#000000" stroke-width="0.75" stroke-linecap="round" stroke-linejoin="round" stroke-miterlimit="10" d="
			M648.511,136.033c-2.077-4.275-1.254-8.844-1.03-13.25c0.573-11.259-6.315-18.567-17.744-18.208
			c-8.672,0.271-16.424,2.454-19.776,11.616c-0.713,1.947-1.453,3.946-0.402,6.703c1.223,3.201,0.689,7.287-0.388,11.447
			c-4.923-3.974-12.255-3.305-15.882-9.352"/>
		
			<path fill="none" stroke="#000000" stroke-width="0.75" stroke-linecap="round" stroke-linejoin="round" stroke-miterlimit="10" d="
			M624.764,322.436c-3.23,1.188-4.459,4.447-6.477,6.761c-2.161,2.474,1.331,7.919,4.82,8.141c2.073,0.132,4.029,0.308,6.12,0.962
			c4.606,1.443,9.438-2.572,9.895-7.576c0.396-4.365-2.614-7.42-7.732-7.714c-2.018-0.114-4.048-0.019-6.071-0.019"/>
		
			<path fill="none" stroke="#000000" stroke-width="0.75" stroke-linecap="round" stroke-linejoin="round" stroke-miterlimit="10" d="
			M624.764,110.078c-3.23,1.186-4.459,4.447-6.477,6.758c-2.161,2.474,1.331,7.919,4.82,8.141c2.073,0.132,4.029,0.307,6.12,0.962
			c4.606,1.442,9.438-2.573,9.895-7.578c0.396-4.365-2.614-7.419-7.732-7.712c-2.018-0.116-4.048-0.019-6.071-0.019"/>
		
			<path fill="none" stroke="#000000" stroke-width="0.75" stroke-linecap="round" stroke-linejoin="round" stroke-miterlimit="10" d="
			M647.958,398.093c-0.084,3.866-1.473,7.482-0.292,11.679c0.879,3.122-1.146,6.724-4.65,8.804
			c-6.15,3.65-17.985,2.903-22.668-1.705c-1.855-1.831-2.651-3.59-2.499-6.644c0.189-3.75-0.036-7.935-1.921-11.58"/>
		
			<path fill="none" stroke="#000000" stroke-width="0.75" stroke-linecap="round" stroke-linejoin="round" stroke-miterlimit="10" d="
			M647.958,185.734c-0.084,3.866-1.473,7.482-0.292,11.679c0.879,3.121-1.146,6.721-4.65,8.801
			c-6.15,3.652-17.985,2.905-22.668-1.705c-1.855-1.83-2.651-3.589-2.499-6.64c0.189-3.751-0.036-7.935-1.921-11.583"/>
		
			<path fill="none" stroke="#000000" stroke-width="0.75" stroke-linecap="round" stroke-linejoin="round" stroke-miterlimit="10" d="
			M466.645,314.152c-0.688,5.891,1.982,11.296,2.404,17.104c0.793,10.91,2.75,21.735,4.223,32.598"/>
		
			<path fill="none" stroke="#000000" stroke-width="0.75" stroke-linecap="round" stroke-linejoin="round" stroke-miterlimit="10" d="
			M492.6,166.406c1.154-6.066,0.849-12.352,3.191-18.272c0.757-1.913,0.351-4.419-0.498-6.572
			c-14.246,1.372-16.8,12.051-9.872,19.875"/>
		
			<path fill="none" stroke="#000000" stroke-width="0.75" stroke-linecap="round" stroke-linejoin="round" stroke-miterlimit="10" d="
			M488.182,385.943c-4.188,7.448-0.815,15.062-0.728,22.645c0.079,6.684,5.721,10.812,6.325,17.109
			c0.566,5.925,1.766,11.789,2.687,17.679"/>
		
			<path fill="none" stroke="#000000" stroke-width="0.75" stroke-linecap="round" stroke-linejoin="round" stroke-miterlimit="10" d="
			M454.495,362.749c0.071,12.728,2.425,25.152,4.966,37.554c0.036,0.178,0.018,0.368,0.003,0.551
			c-0.741,9.434,2.054,18.727,1.106,28.165"/>
		
			<path fill="none" stroke="#000000" stroke-width="0.75" stroke-linecap="round" stroke-linejoin="round" stroke-miterlimit="10" d="
			M487.63,87.436c-6.425,8.536-12.022,16.908-8.091,28.835c1.33,4.034-0.836,9.51-2.229,14.29
			c-1.729,5.94-1.798,12.373-5.693,17.621"/>
		
			<path fill="none" stroke="#000000" stroke-width="0.75" stroke-linecap="round" stroke-linejoin="round" stroke-miterlimit="10" d="
			M475.48,105.107c-3.014,1.741-4.851,4.035-5.668,7.699c-1.062,4.735-3.332,9.188-4.718,13.871c-0.37,1.25-1.039,2.534-1.776,2.625
			c-7.762,0.964-7.531,7.745-9.287,12.835c-1.748,5.07-3.117,10.38,0.418,15.465c0.345,0.496,0.353,1.667,0,2.143
			c-6.126,8.297-2.635,18.117-4.392,27.09c-0.042,0.212-0.351,0.372-0.532,0.556"/>
		
			<path fill="none" stroke="#000000" stroke-width="0.75" stroke-linecap="round" stroke-linejoin="round" stroke-miterlimit="10" d="
			M478.242,400.302c3.783,5.517,3.098,12.139,4.289,18.249c1.471,7.548,2.188,15.232,4.457,22.646
			c0.354,1.166,0.396,2.096,1.746,2.169c2.207,0.121,1.729-1.57,1.627-2.746c-0.486-5.527-1.163-11.04-1.566-16.573
			c-0.104-1.43-0.678-3.062,0.491-4.414"/>
		
			<path fill="none" stroke="#000000" stroke-width="0.75" stroke-linecap="round" stroke-linejoin="round" stroke-miterlimit="10" d="
			M646.302,336.794c-8.47,8.228-18.314,9.813-29.27,6.075"/>
		
			<path fill="none" stroke="#000000" stroke-width="0.75" stroke-linecap="round" stroke-linejoin="round" stroke-miterlimit="10" d="
			M646.302,124.436c-8.47,8.226-18.314,9.814-29.27,6.074"/>
		
			<path fill="none" stroke="#000000" stroke-width="0.75" stroke-linecap="round" stroke-linejoin="round" stroke-miterlimit="10" d="
			M474.376,371.585c-0.239,8.775,2.681,17.193,2.979,25.948c0.068,2.075-0.388,4.057-0.22,6.082"/>
		
			<path fill="none" stroke="#000000" stroke-width="0.75" stroke-linecap="round" stroke-linejoin="round" stroke-miterlimit="10" d="
			M463.331,391.466c-0.218,11.631,2.39,22.899,4.464,34.23c0.34,1.857,0.42,3.789,2.658,5.079c3.549,2.044,4.163,5.49,2.818,9.287"
			/>
		
			<path fill="none" stroke="#000000" stroke-width="0.75" stroke-linecap="round" stroke-linejoin="round" stroke-miterlimit="10" d="
			M532.913,99.585c-5.176,5.949-7.097,13.585-10.325,20.511c-1.172,2.517-2.252,4.597-4.585,5.997"/>
		
			<path fill="none" stroke="#000000" stroke-width="0.75" stroke-linecap="round" stroke-linejoin="round" stroke-miterlimit="10" d="
			M531.809,334.033c-8.148,7.535-18.838,11.107-27.629,17.648c-0.234,0.178-0.721,0.002-1.088,0.024
			c-6.615,0.421-13.376,0.118-19.458,4.756c-2.437,7.685-2.314,15.909,2.253,24.006c2.92,5.172,4.708,6.547,10.018,4.889
			c3.681-1.15,7.292-1.965,11.056-0.52"/>
		
			<path fill="none" stroke="#000000" stroke-width="0.75" stroke-linecap="round" stroke-linejoin="round" stroke-miterlimit="10" d="
			M450.077,387.048c1.261,5.268,2.209,10.522,2.321,16.013c0.145,7.048,2.594,13.875,2.695,20.986
			c0.012,0.742,0.491,1.799,1.086,2.16c6.667,4.042,5.602,10.994,6.6,17.169"/>
		
			<path fill="none" stroke="#000000" stroke-width="0.75" stroke-linecap="round" stroke-linejoin="round" stroke-miterlimit="10" d="
			M531.257,348.943c-5.339,8.283-10.677,16.565-16.016,24.851"/>
		
			<path fill="none" stroke="#000000" stroke-width="0.75" stroke-linecap="round" stroke-linejoin="round" stroke-miterlimit="10" d="
			M465.54,357.229c3.222,13.059,4.94,26.334,4.892,39.762c-0.035,9.996,2.52,19.788,1.953,29.833
			c-0.064,1.196-0.494,2.562-0.218,3.854"/>
		
			<path fill="none" stroke="#000000" stroke-width="0.75" stroke-linecap="round" stroke-linejoin="round" stroke-miterlimit="10" d="
			M532.913,187.943c-1.099,8.325-1.771,16.803-8.283,23.194"/>
		
			<path fill="none" stroke="#000000" stroke-width="0.75" stroke-linecap="round" stroke-linejoin="round" stroke-miterlimit="10" d="
			M457.256,138.794c5.257,2.259,7.396,8.24,12.668,10.571c1.415,0.626,0.457,2.504,0.537,3.79c0.073,1.16-0.758,2.329-1.204,3.238
			c-3.339,6.804-2.312,13.134,1.224,19.418c0.235,0.419,0.029,1.087,0.029,1.639"/>
		
			<path fill="none" stroke="#000000" stroke-width="0.75" stroke-linecap="round" stroke-linejoin="round" stroke-miterlimit="10" d="
			M477.689,408.033c-0.048,7.259,0.24,14.466,2.17,21.548c1.252,4.597-3.27,4.382-5.483,6.062"/>
		
			<path fill="none" stroke="#000000" stroke-width="0.75" stroke-linecap="round" stroke-linejoin="round" stroke-miterlimit="10" d="
			M504.749,160.332c-2.649,3.455-5.762,6.397-9.37,8.862c-2.688,1.837-3.315,5.142-5.02,7.684
			c-5.376,8.03-4.438,17.104-4.241,25.973c0.047,2.141-0.006,3.661-1.159,5.581c-3.739,6.227-4.597,13.229-4.509,20.378"/>
		
			<path fill="none" stroke="#000000" stroke-width="0.75" stroke-linecap="round" stroke-linejoin="round" stroke-miterlimit="10" d="
			M532.913,152.6c-1.839,1.607-2.834,3.375-2.897,6.071c-0.07,3.098-2.914,4.944-4.771,7.232c-2.104,2.591-2.147,5.166,1.596,6.577"
			/>
		
			<path fill="none" stroke="#000000" stroke-width="0.75" stroke-linecap="round" stroke-linejoin="round" stroke-miterlimit="10" d="
			M485.973,332.376c1.355,6.683,2.824,13.377-2.209,19.329"/>
		
			<path fill="none" stroke="#000000" stroke-width="0.75" stroke-linecap="round" stroke-linejoin="round" stroke-miterlimit="10" d="
			M460.018,316.361c0.062,6.338,2.562,12.39,2.209,18.774"/>
		
			<path fill="none" stroke="#000000" stroke-width="0.75" stroke-linecap="round" stroke-linejoin="round" stroke-miterlimit="10" d="
			M481.003,154.257c-5.122,4.7-5.999,10.667-4.94,17.114c0.605,3.692-0.607,5.856-4.457,6.58c-2.156,0.406-2.955,2.234-4.406,3.366
			c-1.545,1.206-1.771,3.922-4.418,3.865"/>
		
			<path fill="none" stroke="#000000" stroke-width="0.75" stroke-linecap="round" stroke-linejoin="round" stroke-miterlimit="10" d="
			M448.42,383.734c-1.104,12.353-0.747,24.684,0.553,37"/>
		
			<path fill="none" stroke="#000000" stroke-width="0.75" stroke-linecap="round" stroke-linejoin="round" stroke-miterlimit="10" d="
			M514.137,87.436c1.619,0.163,2.729,1.684,5.276,0.663c-1.861,4.961-3.272,8.783-4.73,12.588c-1.166,3.044-0.334,6.461-1.251,9.342
			c-2.174,6.827-4.96,13.515-9.271,19.35c-2.661,3.604-3.496,7.208-2.271,11.65c1.187,4.294,1.347,8.864,2.401,13.204
			c0.523,2.146-1.119,6.865,4.322,4.994"/>
		
			<path fill="none" stroke="#000000" stroke-width="0.75" stroke-linecap="round" stroke-linejoin="round" stroke-miterlimit="10" d="
			M600.466,131.615c1.825,4.545,5.52,7.327,10.351,11.129c-1.161-3.398,1.688-5.607-0.963-7.816"/>
		
			<path fill="none" stroke="#000000" stroke-width="0.75" stroke-linecap="round" stroke-linejoin="round" stroke-miterlimit="10" d="
			M600.466,343.975c1.825,4.543,5.52,7.325,10.351,11.129c-1.161-3.396,1.688-5.605-0.963-7.814"/>
		
			<path fill="none" stroke="#000000" stroke-width="0.75" stroke-linecap="round" stroke-linejoin="round" stroke-miterlimit="10" d="
			M532.913,180.212c0,1.658,0,3.315,0,4.699c-4.767,1.12-8.88,2.55-13.254,2.48"/>
		
			<path fill="none" stroke="#000000" stroke-width="0.75" stroke-linecap="round" stroke-linejoin="round" stroke-miterlimit="10" d="
			M493.704,388.152c2.536,3.183,0.307,6.636,0.45,9.942c0.289,6.697,3.646,12.443,5.179,18.746
			c2.136,8.786,2.185,17.63,2.103,26.533"/>
		
			<path fill="none" stroke="#000000" stroke-width="0.75" stroke-linecap="round" stroke-linejoin="round" stroke-miterlimit="10" d="
			M521.316,212.242c-2.906-2.574-6.076-4.673-9.94-5.673c0-1.69,0.131-3.542-0.026-5.37c-0.371-4.314-8.088-10.229-12.123-9.39
			c-2.777,0.578-5.242,5.22-3.818,7.706c2.377,4.147,1.7,8.969,3.48,13.415c1.876,4.68-3.386,7.556-9.05,5.387"/>
		
			<path fill="none" stroke="#000000" stroke-width="0.75" stroke-linecap="round" stroke-linejoin="round" stroke-miterlimit="10" d="
			M480.45,219.973c-2.001-0.636-4.001-1.272-6.232-1.982c-3.556,3.088-2.415,7.128-2.603,10.818"/>
		
			<path fill="none" stroke="#000000" stroke-width="0.75" stroke-linecap="round" stroke-linejoin="round" stroke-miterlimit="10" d="
			M624.764,378.212c2.098,10.554-5.146,15.699-12.146,20.985"/>
		
			<path fill="none" stroke="#000000" stroke-width="0.75" stroke-linecap="round" stroke-linejoin="round" stroke-miterlimit="10" d="
			M458.913,366.062c2.497,7.15,3.643,14.538,3.866,22.09"/>
		
			<path fill="none" stroke="#000000" stroke-width="0.75" stroke-linecap="round" stroke-linejoin="round" stroke-miterlimit="10" d="
			M624.764,165.854c2.098,10.553-5.146,15.699-12.146,20.985"/>
		
			<path fill="none" stroke="#000000" stroke-width="0.75" stroke-linecap="round" stroke-linejoin="round" stroke-miterlimit="10" d="
			M507.51,107.316c-1.225,5.862-4.026,11.016-7.179,16.015"/>
		
			<path fill="none" stroke="#000000" stroke-width="0.75" stroke-linecap="round" stroke-linejoin="round" stroke-miterlimit="10" d="
			M494.257,118.361c-0.072,7.928-7.955,12.03-9.496,19.306c-0.274,1.305-2.425,1.263-3.688,1.832
			c-1.786,0.802-2.676-0.312-3.937-0.705"/>
		
			<path fill="none" stroke="#000000" stroke-width="0.75" stroke-linecap="round" stroke-linejoin="round" stroke-miterlimit="10" d="
			M472.719,179.107c-1.84,5.891-3.638,11.795-5.535,17.668c-1.823,5.653-3.438,6.424-9.928,4.974"/>
		
			<path fill="none" stroke="#000000" stroke-width="0.75" stroke-linecap="round" stroke-linejoin="round" stroke-miterlimit="10" d="
			M501.436,148.734c-2.596,4.995-3.979,10.077-1.104,15.463"/>
		
			<path fill="none" stroke="#000000" stroke-width="0.75" stroke-linecap="round" stroke-linejoin="round" stroke-miterlimit="10" d="
			M511.928,134.928c0.187,0.552,0.661,1.207,0.51,1.642c-3.28,9.392-2.985,19.036-2.174,28.732
			c0.699,8.338-2.13,15.477-7.771,21.492c-1.269,1.351-2.361,2.522-2.161,4.463"/>
		
			<path fill="none" stroke="#000000" stroke-width="0.75" stroke-linecap="round" stroke-linejoin="round" stroke-miterlimit="10" d="
			M661.212,196.227c-7.152-2.245-9.881-9.268-14.872-13.848c-2.664-2.443-0.698-4.609,1.066-6.585"/>
		
			<path fill="none" stroke="#000000" stroke-width="0.75" stroke-linecap="round" stroke-linejoin="round" stroke-miterlimit="10" d="
			M449.525,196.779c1.107-3.252,4.246-0.786,6.164-2.075c0.426-0.285,2.5,0.544,1.629,2.653c-1.326,3.212-1.033,6.79-4.357,9.511
			c-4.406,3.607-3.031,9.218-3.604,15.267c5.261-2.167,9.533-0.069,13.974,0.047"/>
		
			<path fill="none" stroke="#000000" stroke-width="0.75" stroke-linecap="round" stroke-linejoin="round" stroke-miterlimit="10" d="
			M661.212,408.585c-7.152-2.244-9.881-9.268-14.872-13.847c-2.664-2.444-0.698-4.609,1.066-6.586"/>
		
			<path fill="none" stroke="#000000" stroke-width="0.75" stroke-linecap="round" stroke-linejoin="round" stroke-miterlimit="10" d="
			M610.958,142.66c1.104,8.468,2.245,16.931,3.285,25.406c0.229,1.884-0.261,3.883,1.133,5.519"/>
		
			<path fill="none" stroke="#000000" stroke-width="0.75" stroke-linecap="round" stroke-linejoin="round" stroke-miterlimit="10" d="
			M610.958,355.02c1.104,8.467,2.245,16.932,3.285,25.405c0.229,1.884-0.261,3.883,1.133,5.521"/>
		
			<path fill="none" stroke="#000000" stroke-width="0.75" stroke-linecap="round" stroke-linejoin="round" stroke-miterlimit="10" d="
			M494.257,100.689c-0.734,1.289-1.346,2.674-2.23,3.849c-3.47,4.596-6.568,9.272-4.947,15.48"/>
		
			<path fill="none" stroke="#000000" stroke-width="0.75" stroke-linecap="round" stroke-linejoin="round" stroke-miterlimit="10" d="
			M495.913,206.72c-2.368-0.136-4.965,0.857-5.358,2.794c-1.212,5.98-3.709,11.875-2.312,18.177c0.104,0.468,1.046,0.75,1.599,1.118
			"/>
		
			<path fill="none" stroke="#000000" stroke-width="0.75" stroke-linecap="round" stroke-linejoin="round" stroke-miterlimit="10" d="
			M508.062,210.033c-2.479,2.02-2.279,5.271-2.55,7.754c-0.698,6.492-5.252,8.194-10.153,9.915c-1.1,0.385-2.207,0.739-3.312,1.107"
			/>
		
			<path fill="none" stroke="#000000" stroke-width="0.75" stroke-linecap="round" stroke-linejoin="round" stroke-miterlimit="10" d="
			M494.809,406.376c-2.214,1.902-0.905,4.418-1.033,6.632c-0.138,2.369-0.114,4.708-1.176,6.898"/>
		
			<path fill="none" stroke="#000000" stroke-width="0.75" stroke-linecap="round" stroke-linejoin="round" stroke-miterlimit="10" d="
			M511.928,369.376c4.67,7.739,4.168,9.496-4.418,15.463"/>
		
			<path fill="none" stroke="#000000" stroke-width="0.75" stroke-linecap="round" stroke-linejoin="round" stroke-miterlimit="10" d="
			M529.6,154.257c-2.666-1.659-3.397-4.506-4.195-7.19c-6.278,0.33-8.978,4.749-6.896,10.521c1.132,3.14,2.01,6.316,5.021,8.267"/>
		
			<path fill="none" stroke="#000000" stroke-width="0.75" stroke-linecap="round" stroke-linejoin="round" stroke-miterlimit="10" d="
			M456.152,427.914c-0.369,0.552-1.102,1.14-1.049,1.651c0.454,4.608,1.049,9.209,1.601,13.811"/>
		
			<path fill="none" stroke="#000000" stroke-width="0.75" stroke-linecap="round" stroke-linejoin="round" stroke-miterlimit="10" d="
			M456.704,194.57c2.78-4.072,5.045-8.37,6.087-13.251c0.764-3.574-3.086-10.967-6.668-12.056c-1.084-0.33-2.691-0.73-3.837,0.456"
			/>
		
			<path fill="none" stroke="#000000" stroke-width="0.75" stroke-linecap="round" stroke-linejoin="round" stroke-miterlimit="10" d="
			M466.092,149.287c-2.096,4.928-7.105,6.21-11.045,8.836"/>
		
			<path fill="none" stroke="#000000" stroke-width="0.75" stroke-linecap="round" stroke-linejoin="round" stroke-miterlimit="10" d="
			M525.182,173.033c-2.711,4.496-6.067,8.325-6.479,14.331c-0.255,3.728-3.075,8.354-7.878,9.968"/>
		
			<path fill="none" stroke="#000000" stroke-width="0.75" stroke-linecap="round" stroke-linejoin="round" stroke-miterlimit="10" d="
			M623.659,381.525c-4.719-1.158-7.222,2.113-7.49,5.541c-0.384,4.865-4.374,7.907-4.874,12.658c-0.26,2.47-2.408,4.959-4.755,6.649
			"/>
		
			<path fill="none" stroke="#000000" stroke-width="0.75" stroke-linecap="round" stroke-linejoin="round" stroke-miterlimit="10" d="
			M496.466,322.988c0.235,4.093-0.845,8.363,1.656,12.147"/>
		
			<path fill="none" stroke="#000000" stroke-width="0.75" stroke-linecap="round" stroke-linejoin="round" stroke-miterlimit="10" d="
			M623.659,169.167c-4.719-1.158-7.222,2.115-7.49,5.542c-0.384,4.867-4.374,7.909-4.874,12.66c-0.26,2.467-2.408,4.958-4.755,6.649
			"/>
		
			<path fill="none" stroke="#000000" stroke-width="0.75" stroke-linecap="round" stroke-linejoin="round" stroke-miterlimit="10" d="
			M493.704,168.062c-2.278-2.603-4.229-0.778-6.049,0.586c-1.605,1.202-2.634,3.235-4.971,3.324
			c-4.132-6.795-4.064-7.511,1.077-12.193"/>
		
			<path fill="none" stroke="#000000" stroke-width="0.75" stroke-linecap="round" stroke-linejoin="round" stroke-miterlimit="10" d="
			M511.928,118.914c4.784,6.941,10.06,13.423,17.12,18.224"/>
		
			<path fill="none" stroke="#000000" stroke-width="0.75" stroke-linecap="round" stroke-linejoin="round" stroke-miterlimit="10" d="
			M499.779,302.003c1.108,0,2.222,0,3.333,0c-4.812,3.161-3.495,6.479-1.14,9.949c0.459,0.675,1.217,1.6,1.049,2.18
			c-1.919,6.567-0.28,13.318-1.156,19.886c-0.424,3.188-4.178,3.486-6.504,4.985"/>
		
			<path fill="none" stroke="#000000" stroke-width="0.75" stroke-linecap="round" stroke-linejoin="round" stroke-miterlimit="10" d="
			M514.689,219.421c-0.856,3.396-1.277,7.036-4.973,8.836"/>
		
			<path fill="none" stroke="#000000" stroke-width="0.75" stroke-linecap="round" stroke-linejoin="round" stroke-miterlimit="10" d="
			M451.182,419.078c-4.406,5.331-3.811,17.871,1.104,23.193"/>
		
			<path fill="none" stroke="#000000" stroke-width="0.75" stroke-linecap="round" stroke-linejoin="round" stroke-miterlimit="10" d="
			M532.913,117.257c-3.752,5.989-3.332,12.693-3.313,19.328"/>
		
			<path fill="none" stroke="#000000" stroke-width="0.75" stroke-linecap="round" stroke-linejoin="round" stroke-miterlimit="10" d="
			M501.988,129.958c-1.486-3.481-3.562-6.279-7.731-6.626"/>
		
			<path fill="none" stroke="#000000" stroke-width="0.75" stroke-linecap="round" stroke-linejoin="round" stroke-miterlimit="10" d="
			M460.018,174.689c-0.553,0.921-1.59,1.848-1.574,2.76c0.07,5.087-2.73,7.627-7.262,8.837"/>
		
			<path fill="none" stroke="#000000" stroke-width="0.75" stroke-linecap="round" stroke-linejoin="round" stroke-miterlimit="10" d="
			M462.227,143.764c0.034,3.578-4.687,5.836-2.762,9.94"/>
		
			<path fill="none" stroke="#000000" stroke-width="0.75" stroke-linecap="round" stroke-linejoin="round" stroke-miterlimit="10" d="
			M495.361,347.287c1.437,0.236,3.226,1.251,3.176,2.201c-0.311,5.906,4.993,7.578,7.868,11.053"/>
		
			<path fill="none" stroke="#000000" stroke-width="0.75" stroke-linecap="round" stroke-linejoin="round" stroke-miterlimit="10" d="
			M519.659,147.63c-1.415-3.467-4.022-5.265-7.731-5.522"/>
		
			<path fill="none" stroke="#000000" stroke-width="0.75" stroke-linecap="round" stroke-linejoin="round" stroke-miterlimit="10" d="
			M479.898,433.988c2.226,2.835,1.564,6.177,1.654,9.388"/>
		
			<path fill="none" stroke="#000000" stroke-width="0.75" stroke-linecap="round" stroke-linejoin="round" stroke-miterlimit="10" d="
			M485.421,184.63c-3.167,0.184-4.888,1.306-5.745,4.917c-0.801,3.376-3.23,6.476-5.354,9.4c-2.704,3.721-5.445,7.255-5.606,12.186
			c-0.023,0.784,0.102,2.231-0.463,2.705c-4.498,3.786-4.062,8.834-3.812,13.867"/>
		
			<path fill="none" stroke="#000000" stroke-width="0.75" stroke-linecap="round" stroke-linejoin="round" stroke-miterlimit="10" d="
			M518.555,181.316c-2.761-1.473-5.521-2.945-8.283-4.418"/>
		
			<path fill="none" stroke="#000000" stroke-width="0.75" stroke-linecap="round" stroke-linejoin="round" stroke-miterlimit="10" d="
			M518.003,129.958c-1.396,2.26-1.827,5.164-4.418,6.627"/>
		
			<path fill="none" stroke="#000000" stroke-width="0.75" stroke-linecap="round" stroke-linejoin="round" stroke-miterlimit="10" d="
			M519.659,202.302c-0.368,2.393-0.736,4.786-1.104,7.179"/>
		
			<path fill="none" stroke="#000000" stroke-width="0.75" stroke-linecap="round" stroke-linejoin="round" stroke-miterlimit="10" d="
			M457.256,222.734c-1.477,1.771,0.118,4.94-2.761,6.075"/>
		
			<path fill="none" stroke="#000000" stroke-width="0.75" stroke-linecap="round" stroke-linejoin="round" stroke-miterlimit="10" d="
			M523.525,134.928c-1.427,1.745-1.157,4.676-3.866,5.522"/>
		
			<path fill="none" stroke="#000000" stroke-width="0.75" stroke-linecap="round" stroke-linejoin="round" stroke-miterlimit="10" d="
			M479.346,125.541c1.995,0.517,3.913,1.876,6.075,0.552"/>
		
			<path fill="none" stroke="#000000" stroke-width="0.75" stroke-linecap="round" stroke-linejoin="round" stroke-miterlimit="10" d="
			M524.63,154.257c-0.682,2.36-1.583,4.524-4.418,4.97"/>
		
			<path fill="none" stroke="#000000" stroke-width="0.75" stroke-linecap="round" stroke-linejoin="round" stroke-miterlimit="10" d="
			M460.018,348.393c0.186,3.312,0.368,6.627,0.555,9.939"/>
		
			<path fill="none" stroke="#000000" stroke-width="0.75" stroke-linecap="round" stroke-linejoin="round" stroke-miterlimit="10" d="
			M527.391,95.167c0.692,1.955,0.474,4.366,2.764,5.522"/>
		
			<path fill="none" stroke="#000000" stroke-width="0.75" stroke-linecap="round" stroke-linejoin="round" stroke-miterlimit="10" d="
			M483.764,139.346c0.736,1.657,1.475,3.313,2.209,4.97"/>
		
			<path fill="none" stroke="#000000" stroke-width="0.75" stroke-linecap="round" stroke-linejoin="round" stroke-miterlimit="10" d="
			M452.286,177.451c1.433,2.203,3.291,0.571,4.97,0.552"/>
		
			<path fill="none" stroke="#000000" stroke-width="0.75" stroke-linecap="round" stroke-linejoin="round" stroke-miterlimit="10" d="
			M496.466,318.57c1.021,2.175,2.972,0.631,4.417,1.104"/>
		
			<path fill="none" stroke="#000000" stroke-width="0.75" stroke-linecap="round" stroke-linejoin="round" stroke-miterlimit="10" d="
			M485.421,115.048c-1.616,0.674-3.037,1.935-4.971,1.657"/>
		
			<path fill="none" stroke="#000000" stroke-width="0.75" stroke-linecap="round" stroke-linejoin="round" stroke-miterlimit="10" d="
			M465.54,168.615c-1.903,1.111-1.691,3.397-2.761,4.97"/>
		
			<path fill="none" stroke="#000000" stroke-width="0.75" stroke-linecap="round" stroke-linejoin="round" stroke-miterlimit="10" d="
			M500.331,137.689c-2.298-0.399-3.028,1.708-4.418,2.761"/>
		
			<path fill="none" stroke="#000000" stroke-width="0.75" stroke-linecap="round" stroke-linejoin="round" stroke-miterlimit="10" d="
			M489.839,335.689c5.086,0.517,5.301,4.604,6.074,8.283"/>
		
			<path fill="none" stroke="#000000" stroke-width="0.75" stroke-linecap="round" stroke-linejoin="round" stroke-miterlimit="10" d="
			M471.615,185.182c2.211,1.941,5.69,0.333,7.729,2.761"/>
		
			<path fill="none" stroke="#000000" stroke-width="0.75" stroke-linecap="round" stroke-linejoin="round" stroke-miterlimit="10" d="
			M453.391,370.48c-1.287,0-2.575,0-3.863,0"/>
		
			<path fill="none" stroke="#000000" stroke-width="0.75" stroke-linecap="round" stroke-linejoin="round" stroke-miterlimit="10" d="
			M469.406,192.361c1.427,3.08,4.678,0.693,6.627,2.209"/>
	</g>
	<g id="ArabidopsisPlant">
		<path d="M231.02,433.812l0.688,0.257c1.675-4.521-0.081-8.938-1.491-12.485c-0.183-0.462-0.362-0.911-0.523-1.338
			c-2.105-6.141,2.271-11.332,2.315-11.383l-0.556-0.479c-0.047,0.054-4.697,5.557-2.449,12.111c0.168,0.44,0.348,0.894,0.532,1.358
			C230.97,425.465,232.597,429.558,231.02,433.812z"/>
		<path d="M257.125,351.275l-0.519-0.52c-4.027,4.023-8.672,12.387-8.868,12.739l0.642,0.354
			C248.428,363.766,253.172,355.229,257.125,351.275z"/>
		<path d="M257.808,384.17l0.686-0.26c-1.532-4.023-8.282-4.615-8.569-4.639l-0.06,0.729
			C249.93,380.007,256.438,380.575,257.808,384.17z"/>
		<path d="M217.313,381.304c-4.763,1.462-14.536,7.665-14.95,7.931l0.394,0.619c0.101-0.062,10.103-6.41,14.771-7.85
			L217.313,381.304z"/>
		<path d="M208.162,392.779l0.539,0.498c0.11-0.118,11.147-11.952,17.291-11.076l0.104-0.729
			C219.552,380.542,208.625,392.279,208.162,392.779z"/>
		<path d="M182.146,369.629l0.467,0.564c0.113-0.096,11.635-9.422,28.711-7.438l0.084-0.729
			C194.027,360.018,182.263,369.533,182.146,369.629z"/>
		<path d="M223.264,351.977l-0.678,0.281c0.128,0.312,3.18,7.625,5.777,10.036l0.5-0.537
			C226.381,359.451,223.294,352.051,223.264,351.977z"/>
		<path d="M237.262,366.379c0.007,0.02,0.72,1.812,0.894,3.036l0.727-0.104c-0.188-1.312-0.91-3.127-0.94-3.199L237.262,366.379z"/>
		<path d="M262.705,409.209c-2.929-6.59-10.276-13.98-10.351-14.052l-0.519,0.516c0.073,0.075,7.325,7.367,10.198,13.836
			L262.705,409.209z"/>
		<path d="M314.813,381.139c-0.486-0.229-1.042-0.461-1.655-0.718c-3.302-1.386-8.293-3.473-12.907-9.47
			c-0.807-0.889-4.01-4.19-9.271-6.956c1.896-0.658,2.676-2.58,3.272-4.056c0.187-0.459,0.361-0.894,0.538-1.211
			c0.508-0.847,2.267-2.438,4.588-3.332l0.574-0.222l-0.468-0.399c-1.413-1.211-12.441-3.426-18.415-4.125
			c-10.142,0.355-20.719,11.168-21.822,12.322c-3.262,1.295-6.686,3.043-10.265,5.354c2.503-2.627,5.035-4.859,6.925-6.521
			c1.274-1.119,2.278-2.007,2.896-2.672c1.552-1.94,4.224-5.689,4.666-9.035c0-2.496-0.842-4.17-2.504-4.976
			c-2.999-1.453-7.75,0.515-10.067,2.354c-5.013,5.877-5.065,8.026-5.191,13.228l-0.032,1.285
			c-0.471,5.019-2.836,8.233-5.159,11.313c0.073-0.467,0.144-1.031,0.2-1.692h0.002c0.005-0.046,0.007-0.084,0.012-0.13
			c0.036-0.225,0.173-0.758,0.307-1.282c0.405-1.577,1.083-4.22,1.334-6.864c0.18-2.527,0.008-7.586-0.946-10.443
			c-1.004-2.343-4.661-11.703-5.236-13.182l3.741-1.374l-0.253-0.688l-8.99,3.304l0.253,0.688l1.663-0.609
			c0.436,1.268,2.033,5.795,3.741,9.21c1.932,4.83,1.971,6.575,2.04,9.743c0.018,0.806,0.038,1.692,0.09,2.74
			c-0.779-0.617-2.113-1.785-2.948-3.097l-0.534-0.839l-0.14,0.98c-0.006,0.049-0.158,1.127-0.322,3.672l-0.043-0.008
			c-0.002,0.015-0.003,0.023-0.005,0.037c-1.731-1.713-2.936-6.279-2.936-8.972c0-3.306-11.479-13.116-12.789-14.224l-0.443-0.377
			l-0.148,0.562c-0.01,0.035-0.929,3.542-1.663,7.398c-0.823,9.061,1.488,10.963,3.526,12.639c0.275,0.229,0.549,0.451,0.811,0.691
			l0.136,0.078c3.793,1.223,8.101,5.377,11.562,8.717c0.33,0.316,0.652,0.626,0.963,0.926c-1.632-1.077-3.463-2.354-5.26-3.605
			c-3.361-2.344-6.269-4.371-7.529-4.877c-0.133-0.099-0.376-0.318-0.677-0.594c-0.93-0.845-2.653-2.414-4.943-3.771
			c-3.67-4.336-9.725-7.391-15.469-7.785c-9.641,0-19.708,11.457-25.117,17.611l-0.125,0.144c-6.177,7.997-6.364,9.61-5.936,11.321
			l0.114,0.455l0.414-0.221c2.86-1.516,5.464-1.269,10.649-0.777l0.902,0.084c5.543,0.293,9.017-2.002,12.08-4.021
			c0.961-0.631,1.87-1.229,2.809-1.722c3.066-1.891,8.842-5.131,13.021-5.635c15.867-0.184,23.082,8.045,26.163,11.549
			c0.074,0.084,0.146,0.166,0.215,0.246c-2.147-0.332-6.149-1.144-10.348-1.987c-5.88-1.188-12.544-2.532-15.443-2.833
			c-5.334-0.598-13.685,6.949-16.667,11.16l-0.043,0.082c-3.062,8.039,1.016,11.913,5.071,14.91
			c6.353,4.961,14.621-1.091,19.063-4.343c0.993-0.724,1.85-1.354,2.48-1.706c1.272-0.955,4.497-3.887,7.592-8.143
			c2.397-3.079,7.126-3.661,9.519-3.545c0.155,0.598,0.55,2.376,0.833,5.9c0.127,3.439-1.667,7.09-3.25,10.312
			c-0.644,1.309-1.252,2.55-1.685,3.685c-1.675,5.025,2.171,11.146,3.921,13.563c4.098,4.81,5.046,8.581,5.785,12.64
			c0.794,8.415-0.765,12.509-2.271,16.465c-0.219,0.574-0.436,1.146-0.623,1.677c-1.026,1.938-0.97,5.48-0.917,8.907
			c0.036,2.273,0.07,4.421-0.208,5.825c-0.635,1.903-1.02,3.932-1.177,5.93l-0.198-0.205c-0.253,0.244-6.19,6.081-4.871,11.544
			c0.881,3.523,1.632,8.052,1.112,10.231c-1.09,2.004-1.682,3.555-1.488,5.489l0.73-0.073c-0.178-1.771,0.364-3.164,1.424-5.106
			l0.034-0.085c0.574-2.299-0.192-7-1.1-10.633c-1.041-4.314,3.045-9.111,4.302-10.463c-0.12,2.386,0.104,4.695,0.699,6.674
			c4.114,8.405,4.005,11.044,3.648,19.778l-0.02,0.414c-0.303,7.122,1.735,11.148,4.1,15.797c0.047,0.159,0.086,0.312,0.136,0.476
			l0.089-0.027c0.453,0.891,0.916,1.807,1.374,2.778c1.262,8.834,1.637,13.452,1.641,13.499l0.731-0.061
			c-0.003-0.046-0.381-4.7-1.653-13.599l-0.03-0.105c-0.536-1.138-1.078-2.199-1.602-3.229c-2.968-10.009-1.554-17.136-0.933-20.277
			c0-0.779-0.131-1.98-0.308-3.273c0.954,0.634,3.244,2.463,3.249,5.415c-0.539,3.232-0.966,5.796,1.315,8.137
			c0.072,0.317,0.101,0.81,0.133,1.37c0.108,1.826,0.254,4.325,2.031,5.363l0.37-0.633c-1.437-0.84-1.57-3.111-1.667-4.772
			c-0.04-0.658-0.073-1.229-0.183-1.613l-0.027-0.092l-0.067-0.067c-2.095-2.095-1.711-4.391-1.177-7.63
			c0-4.209-3.884-6.292-4.05-6.379l-0.044,0.086c-0.193-1.313-0.417-2.646-0.588-3.67l-0.092-0.554l-0.021-0.076
			c-0.114-0.286-0.26-0.896-0.431-1.602c-0.358-1.488-0.851-3.533-1.618-5.062c-0.887-1.423-1.949-5.179-1.596-7.479
			c0.05-0.498,0.215-1.339,0.425-2.398c0.542-2.743,1.361-6.893,1.227-10.504c-0.352-4.926,0.688-7.314,2.411-11.271l0.145-0.344
			c0.439-1.539,0.649-3.758,0.742-6.189c1.003,0.596,4.042,2.854,4.043,8.278c-0.185,5.369-0.194,7.837,1.548,9.965l0.243,0.3
			c1.385,1.707,3.11,3.832,2.431,10.627l0.73,0.07c0.709-7.096-1.12-9.348-2.591-11.16l-0.242-0.299
			c-1.576-1.927-1.563-4.297-1.384-9.492c0-6.669-4.235-8.871-4.751-9.115c0.066-2.375,0.035-4.902,0.008-7.172
			c-0.015-1.081-0.027-2.094-0.028-2.996c-0.223-3.9-2.064-6.443-4.012-9.136c-1.303-1.801-2.65-3.659-3.538-6.028
			c-2.677-6.396-0.795-9.535,0.865-12.311c0.34-0.565,0.662-1.104,0.94-1.659c0.067-0.083,0.113-0.186,0.173-0.274
			c1.642,4.144,2.532,7.813,2.636,10.899c0,3.855,3.633,6.88,4.361,7.445l0.451-0.579c-0.681-0.529-4.079-3.35-4.079-6.878
			c-0.108-3.258-1.05-7.107-2.8-11.453c-0.054-0.134-0.091-0.227-0.119-0.299c0.78-1.963,0.604-4.764,0.434-7.302
			c-0.03-0.451-0.06-0.895-0.084-1.268c0.089-0.98,0.265-1.728,0.451-2.518c0.145-0.614,0.292-1.246,0.396-1.993
			c1.383,1.14,3.159,3.795,5.408,8.082c2.265,13.746,4.559,16.898,7.791,20.131c11.139,11.851,18.921,7.461,21.851,5.812
			c0.156-0.085,0.296-0.167,0.423-0.231l0.163-0.089l0.027-0.183c0.262-1.837,0.517-6.911-2.77-14.305
			c-2.47-6.839-14.596-9.639-19.112-10.676c-3.475-1.325-9.549-9.127-11.693-12.104c2.076,0.354,4.219,2.977,6.133,5.313
			c1.433,1.752,2.671,3.267,3.789,3.786c7.711,4.141,14.283-0.688,15.496-2.104l0.179-0.209l-0.151-0.229
			c-0.028-0.045-2.8-4.279-5.711-7.553c-2.79-3.411-12.62-2.594-17.901-2.155c-0.839,0.072-1.558,0.132-2.105,0.162
			c0.049-0.083,0.103-0.167,0.153-0.25c0.795-0.505,11.844-7.437,21.731-7.253c6.053,0.656,11.863,3.743,17.774,9.447
			c3.404,3.054,10.475,8.279,18.949,8.279c4.281,0,8.921-1.336,13.627-4.96l0.475-0.366L314.813,381.139z M281.04,351.38
			c5.647,0.665,14.787,2.528,17.373,3.626c-2.022,0.934-3.663,2.363-4.258,3.354c-0.204,0.367-0.388,0.82-0.582,1.304
			c-0.684,1.688-1.453,3.588-3.628,3.806c-3.851-1.873-8.693-3.395-14.415-3.562c1.516-0.675,6.203-2.507,11.197-1.923l0.086-0.729
			c-6.281-0.738-11.901,2.119-12.138,2.241l0.207,0.399c-4.203-0.047-8.867,0.64-13.95,2.439
			C264.104,359.309,272.885,351.669,281.04,351.38z M237.013,349.934c-1.706-3.41-3.296-7.929-3.721-9.16l2.207-0.812
			c0.559,1.435,4.239,10.854,5.242,13.19c0.912,2.733,1.075,7.66,0.899,10.121c-0.175,1.846-0.566,3.692-0.921,5.174
			c-0.309-2.613-1.263-4.637-1.469-5.051c-0.084-1.354-0.108-2.461-0.13-3.432C239.049,356.816,239.007,354.916,237.013,349.934z
			 M233.049,369.46c-3.493-3.368-7.835-7.558-11.771-8.86c-0.254-0.229-0.517-0.442-0.782-0.662
			c-1.991-1.639-4.05-3.332-3.266-11.972c0.551-2.893,1.213-5.604,1.5-6.746c4.425,3.786,12.083,10.941,12.083,13.284
			c0,2.967,1.406,8.193,3.552,9.83c-0.415,3.497,0.172,5.682,1.033,7.355C234.69,371.042,233.902,370.282,233.049,369.46z
			 M208.851,366.794c-0.153,0-0.308,0-0.463,0.003c-4.357,0.521-10.239,3.819-13.335,5.727c-0.949,0.5-1.873,1.105-2.849,1.75
			c-2.97,1.951-6.348,4.166-11.623,3.897l-0.887-0.084c-5.08-0.479-7.748-0.733-10.63,0.644c-0.171-1.14,0.284-2.974,5.887-10.227
			l0.11-0.125c5.333-6.068,15.257-17.361,24.541-17.363c5.55,0.385,11.428,3.356,14.971,7.574l0.095,0.079
			c2.252,1.327,3.896,2.821,4.876,3.714c0.376,0.342,0.624,0.565,0.794,0.68l0.071,0.039c1.153,0.442,4.195,2.563,7.415,4.812
			c3.291,2.292,6.688,4.66,8.819,5.78c0.035,0.051,0.071,0.104,0.106,0.152c0.318,0.461,0.618,0.896,0.877,1.344
			c0.342,1.398,0.251,2.494-0.271,3.258c-0.456,0.66-1.141,0.897-1.458,0.976c-0.21-0.221-0.452-0.491-0.748-0.828
			C232.299,375.352,224.778,366.794,208.851,366.794z M244.813,377.064c4.78-0.396,14.727-1.226,17.282,1.896
			c2.487,2.798,4.871,6.305,5.496,7.241c-1.516,1.518-7.456,5.459-14.423,1.724c-0.984-0.459-2.23-1.98-3.549-3.594
			c-2.245-2.743-4.787-5.85-7.464-5.612l-0.626,0.061l0.357,0.517c0.078,0.109,7.94,11.254,12.512,12.991
			c4.458,1.024,16.3,3.762,18.644,10.249c3.116,7.011,2.99,11.834,2.749,13.743c-0.085,0.049-0.174,0.1-0.27,0.149
			c-2.794,1.576-10.212,5.756-20.964-5.679c-3.143-3.144-5.371-6.222-7.603-19.8l-0.037-0.11c-2.633-5.026-4.601-7.812-6.191-8.765
			l-0.501-0.301l-0.053,0.582c-0.09,0.981-0.265,1.729-0.45,2.517c-0.184,0.782-0.373,1.586-0.468,2.676
			c0.024,0.429,0.054,0.872,0.085,1.324c0.2,2.962,0.426,6.319-0.92,7.966l-0.043,0.068c-0.271,0.54-0.593,1.078-0.932,1.646
			c-1.663,2.775-3.732,6.232-0.918,12.955c0.917,2.447,2.294,4.352,3.625,6.19c1.884,2.602,3.663,5.06,3.874,8.727
			c0,0.887,0.012,1.899,0.026,2.984c0.058,4.596,0.136,10.891-0.729,13.93l-0.129,0.296c-1.768,4.062-2.834,6.514-2.471,11.605
			c0.131,3.515-0.678,7.608-1.213,10.317c-0.214,1.085-0.382,1.938-0.434,2.452c-0.388,2.523,0.768,6.461,1.687,7.929
			c0.711,1.424,1.192,3.42,1.543,4.877c0.177,0.732,0.318,1.319,0.447,1.659l0.086,0.52c0.375,2.236,1.003,5.979,1.01,7.567
			c-0.552,2.762-1.743,8.74,0.068,17.117c-1.572-3.414-2.687-6.968-2.461-12.262l0.017-0.409c0.353-8.646,0.473-11.559-3.701-20.076
			c-1.086-3.622-0.877-8.528,0.559-12.851c0.305-1.524,0.271-3.711,0.235-6.024c-0.053-3.335-0.107-6.777,0.851-8.601
			c0.207-0.573,0.423-1.14,0.64-1.709c1.537-4.036,3.126-8.209,2.312-16.827c-0.762-4.189-1.736-8.062-5.934-12.992
			c-1.665-2.304-5.37-8.175-3.808-12.861c0.417-1.089,1.017-2.312,1.653-3.609c1.621-3.3,3.459-7.038,3.324-10.678
			c-0.366-4.577-0.912-6.251-0.935-6.324l-0.077-0.229l-0.243-0.02c-2.432-0.191-7.732,0.369-10.416,3.818
			c-3.05,4.193-6.205,7.062-7.403,7.968c-0.629,0.351-1.462,0.959-2.517,1.729c-4.586,3.356-12.263,8.975-18.186,4.351
			c-4.014-2.967-7.694-6.494-4.846-14.022c3.319-4.662,11.34-11.328,15.965-10.816c2.866,0.298,9.512,1.641,15.376,2.824
			c4.995,1.008,9.711,1.963,11.41,2.131l1.022,0.102l-0.281-0.282c0.449-0.167,1.035-0.495,1.478-1.134
			c0.66-0.948,0.786-2.266,0.375-3.909l-0.037-0.094c-0.281-0.491-0.6-0.95-0.936-1.438c-1.303-1.881-2.76-4-2.294-8.656
			l0.124,0.072l0.035-0.597c0.095-1.606,0.19-2.729,0.259-3.435c1.207,1.519,2.78,2.678,3.124,2.922
			c0.257,0.527,1.835,3.945,1.404,7.642c-0.009,0.062-0.015,0.114-0.015,0.154c-0.177,2.122-0.53,3.207-0.534,3.218l0.07,0.037
			c-0.397,2.141-0.277,3.703-0.271,3.779l0.732-0.062c-0.001-0.017-0.118-1.557,0.271-3.63c0.237-0.319,0.476-0.638,0.719-0.962
			c2.312-3.064,4.933-6.537,5.434-11.879l0.034-1.312c0.125-5.158,0.17-7.09,4.964-12.721c2.203-1.738,6.64-3.475,9.239-2.217
			c1.387,0.672,2.091,2.124,2.094,4.266c-0.416,3.122-3.003,6.742-4.492,8.607c-0.573,0.617-1.567,1.49-2.825,2.598
			c-2.42,2.128-5.883,5.18-9.014,8.816c-0.133,0.094-0.264,0.184-0.398,0.276l0.074,0.105c-1.639,1.94-3.176,4.039-4.402,6.253
			l-0.301,0.544h0.622C242.585,377.252,243.568,377.17,244.813,377.064z M282.806,377.905c-6.022-5.816-11.974-8.972-18.228-9.646
			c-8.407-0.156-17.562,4.656-20.904,6.602c0.984-1.482,2.083-2.903,3.236-4.246c18.81-13.256,33.518-10.916,42.613-6.537v0.146
			c0.094,0,0.181-0.012,0.271-0.017c5.646,2.776,9.072,6.306,9.895,7.208c4.714,6.131,9.812,8.268,13.186,9.679
			c0.379,0.159,0.735,0.312,1.066,0.453C300.539,391.417,287.723,382.314,282.806,377.905z"/>
		<path d="M265.718,364.986l0.275,0.68c0.125-0.051,12.654-4.871,30.442,10.76l0.485-0.552
			C278.795,359.948,265.847,364.934,265.718,364.986z"/>
		<path d="M208.658,329.014l0.648,0.346c0.072-0.139,7.337-13.549,17.072-12.647l0.067-0.729
			C216.216,315.052,208.963,328.439,208.658,329.014z"/>
		<path d="M251.401,248.44l0.657-0.328c-4.807-9.614-11.395-10.268-11.673-10.291l-0.062,0.73
			C240.387,238.557,246.791,239.221,251.401,248.44z"/>
		<path d="M192.979,199.539c2.984,0,6.466-0.37,9.007-0.641c1.249-0.133,2.235-0.238,2.7-0.247c0.263-0.003,0.524-0.007,0.783-0.007
			c2.437,0,4.199,0.251,5.897,0.84c0.479,0.166,1.057,0.43,1.669,0.71c1.44,0.659,3.074,1.407,4.495,1.407
			c0.305,0,0.593-0.035,0.854-0.105c0.413-0.109,0.706-0.272,0.899-0.476l0.012,0.103c1.175-0.132,3.397,0.748,7.258,5.679
			c0.409,0.522,1,1.114,1.626,1.742c1.568,1.571,3.521,3.527,3.368,5.207l0.359,0.032c-1.232,11.02-2.048,28.889-2.194,43.817
			c-1.584,19.003-1.827,45.362-1.182,54.136c-9.696-9.404-13.043-20.074-15.746-28.689c-0.239-0.759-0.472-1.503-0.701-2.216
			c-4.357-15.589-3.629-32.31-3.491-34.788c8.263-0.646,10.816,4.891,13.066,9.777c0.251,0.545,0.499,1.083,0.749,1.603l0.593,1.228
			l0.104-1.36c0.393-5.155-0.798-9.024-3.54-11.5c-3.975-3.589-9.895-3.107-11.519-2.895l-0.155-3.862
			c0.109,0.015,0.221,0.023,0.335,0.023c0.409,0,0.845-0.096,1.29-0.29c1.312-0.568,2.392-1.827,2.567-2.994
			c0.105-0.696-0.125-1.445-0.585-1.909c-0.362-0.364-0.841-0.528-1.349-0.452c-0.301,0.044-0.564,0.196-0.8,0.4
			c0.125-0.263,0.222-0.528,0.253-0.782c0.092-0.759-0.296-1.34-1.067-1.597c-0.206-0.069-0.4-0.111-0.586-0.138
			c0.038-0.276,0.085-0.565,0.132-0.851c0.104-0.634,0.202-1.235,0.191-1.698c0.407-0.184,0.709-0.425,0.892-0.728
			c0.3-0.497,0.278-1.111-0.065-1.824c-0.526-1.09-1.486-1.231-2.203-0.888c-0.024,0.011-0.046,0.028-0.07,0.041
			c-0.225-0.486-0.608-0.817-1.104-0.913c-1.181-0.23-1.505,0.446-1.59,0.749c-0.267,0.957,0.563,2.593,1.501,3.026
			c-0.001,0.346-0.095,0.774-0.201,1.228c-0.168,0.717-0.354,1.514-0.209,2.248c-0.187-0.072-0.422-0.115-0.743-0.12
			c-0.869-0.015-1.48,0.364-1.792,1.062c-0.242,0.539-0.251,1.206-0.068,1.814c-0.083,0.042-0.166,0.079-0.252,0.133
			c-1.094,0.701-1.38,1.68-0.786,2.686c0.281,0.476,0.588,0.712,0.917,0.831c-0.067,0.123-0.114,0.25-0.118,0.391
			c-0.008,0.289,0.088,0.541,0.276,0.728c0.442,0.444,1.277,0.426,1.945,0.41c0.046-0.001,0.096-0.001,0.146-0.002l-0.128,2.182
			c-2.39-2.076-4.716-2.904-6.927-2.458c-3.854,0.775-6.201,5.249-7.031,7.135l0.595,0.407c6.594-6.592,10.018-4.538,12.283-3.178
			c0.129,0.077,0.255,0.153,0.377,0.224c-0.948,0.788-3.257,2.84-5.135,5.586c-2.05,2.61-2.657,5.665-2.096,10.501
			c0,4.462,2.196,6.295,3.848,7.287l0.556,0.333v-0.647c0-0.031,0.006-3.094,0.512-4.972c0.756-1.512,1.134-2.271,1.323-5.852
			c0-3.038,1.07-6.045,2.073-8.204c0.079,1.968,0.245,6.225,0.497,13.367c0.861,12.236,4.173,21.821,6.364,28.165l0.435,1.257
			c2.844,10.715,8.013,17.46,11.736,21.167c-11.966-2.318-20.797,6.419-23.229,10.068c-1.081,1.392-4.564,10.289-6.645,15.607
			c-0.458,1.172-0.843,2.157-1.112,2.829l-0.184,0.457l0.491,0.044c0.825,0.074,1.626,0.109,2.407,0.109
			c13.157,0,20.218-10.087,24.112-15.65c0.499-0.711,0.938-1.338,1.307-1.826c2.786-3.11,6.01-3.978,7.415-3.8
			c-0.389,7.702,2.504,15.804,3.198,17.625l-3.465,0.991l0.201,0.706l10.274-2.937l-0.201-0.705l-6.101,1.742
			c-0.64-1.666-3.64-9.947-3.156-17.695l0.019-0.295l-0.285-0.077c-1.577-0.452-5.349,0.497-8.464,3.98
			c-0.392,0.517-0.837,1.151-1.342,1.873c-3.994,5.704-11.389,16.269-25.361,15.271c0.249-0.63,0.566-1.444,0.93-2.37
			c1.93-4.938,5.524-14.12,6.556-15.449c2.436-3.652,11.398-12.493,23.458-9.57l0.026-0.106c2.057,1.917,3.503,2.797,3.543,2.819
			l0.372-0.633c-0.11-0.062-11.121-6.752-15.8-24.386l-0.443-1.283c-2.178-6.307-5.472-15.838-6.326-27.964
			c-0.362-10.339-0.549-14.638-0.55-14.68h-0.008c0.583-1.099,1.033-1.779,1.047-1.797l-0.608-0.412
			c-0.16,0.235-3.916,5.849-3.915,11.744c-0.179,3.409-0.536,4.123-1.272,5.611c-0.407,1.492-0.52,3.529-0.551,4.568
			c-1.396-0.974-2.948-2.701-2.95-6.347c-0.545-4.728,0-7.533,1.957-10.026c2.322-3.393,5.393-5.763,5.424-5.786l0.467-0.357
			l-0.525-0.262c-0.253-0.126-0.524-0.29-0.821-0.467c-2.139-1.283-5.61-3.369-11.66,1.869c1.125-1.951,2.998-4.366,5.58-4.885
			c2.142-0.43,4.444,0.509,6.851,2.793l0.573,0.543l0.215-3.652l1.685-0.519l0.182,4.53l0.414-0.074
			c0.071-0.011,7.042-1.205,11.316,2.659c2.3,2.078,3.429,5.244,3.365,9.425c-0.038-0.083-0.077-0.167-0.115-0.251
			c-2.381-5.168-5.078-11.026-14.115-10.174l-0.31,0.03l-0.021,0.31c-0.014,0.182-1.235,18.422,3.502,35.363
			c0.231,0.725,0.464,1.466,0.703,2.226c2.79,8.898,6.264,19.973,16.641,29.67l0.71,0.663l-0.094-0.968
			c-0.742-7.599-0.542-35.247,1.102-55c0.193-19.695,1.545-44.467,3.48-51.862c0.48-2.828,1.199-6.64,2.015-10.75l0.179-0.049
			c-0.031-0.115-0.07-0.226-0.103-0.34c1.962-9.863,4.458-21.324,5.6-25.13c1.198-3.529,6.384-18.58,11.9-31.105
			c0.377-0.349,0.613-0.951,0.757-1.697c1.221-2.705,2.451-5.259,3.648-7.504l0.041-0.127c0.303-2.424,0.386-4.696,0.38-6.539
			l0.501,0.102c-0.305,0.755-0.477,1.46-0.316,2.081l0.71-0.184c-0.188-0.726,0.367-1.86,0.903-2.958
			c0.1-0.203,0.199-0.407,0.295-0.61c-0.203,1.404-0.59,2.817-1.011,4.062l-0.171,0.031c0.025,0.134,0.019,0.302-0.007,0.492
			c-0.316,0.882-0.633,1.656-0.885,2.23l0.197,0.086c-0.217,0.626-0.424,1.254-0.512,1.783l0.383,0.122
			c-2.36,5.359-6.89,17.001-8.14,20.576c-2.217,5.05-5.115,16.441-7.231,24.758c-1.052,4.134-1.96,7.705-2.51,9.417
			c-1.597,5.859-4.409,18.878-5.146,28.852c-0.297,2.23-0.555,5.079-0.772,8.044c-0.041,0.107-0.087,0.212-0.126,0.319l0.1,0.036
			c-0.564,7.808-0.852,16.286-0.855,16.405l-0.029,0.877l0.646-0.596c1.35-1.246,6.392-3.237,11.636-2.767
			c4.16,0.372,7.47,2.151,9.829,5.274c3.381,4.903,5.058,8.816,5.439,17.788l0.031,0.133c0.467,1.052,0.587,2.14,0.27,2.427
			c-0.202,0.183-0.726,0.061-1.366-0.3c-0.833-0.626-2.115-1.399-3.597-2.296c-3.718-2.248-8.812-5.327-10.618-8.422
			c-0.332-0.56-0.681-1.162-1.041-1.786c-2.456-4.246-5.238-9.058-7.707-9.382c-0.642-0.084-1.226,0.13-1.758,0.662
			c-0.456,0.547-0.932,0.529-1.589,0.499c-0.416-0.018-0.886-0.038-1.364,0.122l0.231,0.696c0.257-0.085,0.522-0.1,0.797-0.094
			c-0.076,1.51-1.113,21.92-1.463,29.821c-0.167,4.508-0.144,12.611-0.122,20.446c0.027,9.454,0.056,19.229-0.245,23.031
			c-0.362,7.781,0.877,18.354,2.6,22.184l0.669-0.302c-1.685-3.746-2.895-14.159-2.538-21.836c0.301-3.821,0.273-13.61,0.247-23.079
			c-0.022-7.829-0.045-15.925,0.121-20.415c0.353-7.935,1.397-28.501,1.464-29.83c0.584-0.001,1.198-0.107,1.731-0.749
			c0.343-0.343,0.708-0.481,1.121-0.429c2.11,0.277,5.033,5.331,7.167,9.021c0.362,0.625,0.711,1.23,1.043,1.79
			c1.898,3.256,7.084,6.39,10.871,8.679c1.465,0.885,2.731,1.65,3.574,2.279c1.023,0.585,1.783,0.663,2.259,0.233
			c0.703-0.636,0.411-2.107-0.062-3.205c-0.355-8.203-1.659-12.441-5.575-18.117c-2.462-3.261-6.043-5.189-10.357-5.576
			c-4.716-0.424-9.437,1.066-11.556,2.465c0.085-2.303,0.368-9.34,0.843-15.843c0.879-2.243,2.307-4.35,4.064-5.964
			c0.435-0.398,1.072-0.816,1.75-1.259c1.271-0.832,2.689-1.769,3.255-2.924c0.62,0.091,1.191,0.145,1.715,0.145
			c2.193,0,3.874-0.807,5.449-2.616c0.38-0.438,0.743-0.873,1.099-1.3c1.421-1.705,2.761-3.315,4.796-4.486
			c2.915-1.677,6-3.114,8.984-4.502c1.621-0.754,3.298-1.535,4.933-2.347c3.971-1.974,5.856-3.716,5.768-5.331
			c-0.047-0.872-0.594-1.372-1.498-1.372c-1.129,0-2.654,0.734-3.565,1.172c-0.137,0.066-0.256,0.124-0.354,0.168l-0.318,0.146
			c-10.017,4.592-21.367,9.796-27.329,19.513l-0.658,0.658l0.22,0.036c-0.549,0.891-1.786,1.702-2.895,2.427
			c-0.703,0.46-1.366,0.894-1.844,1.333c-1.374,1.261-2.522,2.759-3.406,4.406c0.183-2.225,0.388-4.315,0.617-6.036
			c0.165-2.223,0.433-4.599,0.767-7.01l0.07,0.057c0.556-0.695,1.134-1.596,1.748-2.548c0.884-1.376,1.797-2.798,2.818-3.908
			c0.626-0.682,1.272-1.358,1.918-2.036c1.02-1.07,2.064-2.169,3.044-3.294c2.645-0.688,4.758-2.538,6.646-4.478
			c3.54-3.636,7.373-6.601,12.062-9.331c0.987-0.575,1.977-1.17,2.968-1.764c1.239-0.745,2.521-1.516,3.779-2.233l0.477-0.268
			c1.803-1,5.157-2.863,5.137-4.836l-0.003-0.333l-0.332-0.03c-0.113-0.01-0.224-0.003-0.336-0.008l0.001-0.018
			c-0.123-0.013-0.252,0.001-0.379,0.008c-2.429,0-4.753,1.047-6.936,2.148c-3.911,1.972-7.542,4.45-11.054,6.848
			c-0.617,0.421-1.234,0.842-1.854,1.262c-2.44,1.652-4.41,3.526-6.197,5.899c-0.269,0.356-0.563,0.725-0.865,1.104
			c-1.118,1.402-2.367,2.979-2.898,4.655c-0.013,0.014-0.027,0.027-0.041,0.041v-0.001c-0.003,0.004-0.006,0.007-0.009,0.012
			c-0.235,0.232-0.463,0.458-0.702,0.697l0.005,0.004c-0.118,0.025-0.234,0.056-0.354,0.076l0.062,0.374
			c-0.892,1.008-1.833,1.997-2.752,2.961c-0.649,0.681-1.298,1.361-1.927,2.045c-1.064,1.157-2.038,2.671-2.896,4.007
			c-0.347,0.541-0.681,1.056-1.004,1.53c1.175-7.953,2.993-16.078,4.158-20.35c0.552-1.718,1.462-5.298,2.518-9.444
			c0.092-0.362,0.188-0.736,0.282-1.109l0.294,0.156c2.742-5.173,6.213-9.719,10.817-14.137c0.024-0.015,0.05-0.026,0.073-0.042
			l-0.011-0.017c0.647-0.619,1.315-1.236,2.007-1.852c2.403-2.138,5.072-4.037,7.653-5.875c2.802-1.994,5.699-4.056,8.282-6.438
			l0.236-0.215c1.045-0.942,3.492-3.148,3.503-4.776c0-0.138-0.022-0.268-0.053-0.393c0.176-0.228,0.348-0.466,0.505-0.729
			l-0.628-0.379c-0.09,0.149-0.185,0.286-0.282,0.422c-0.004-0.003-0.007-0.008-0.011-0.011c-1.351-1.25-4.548,0.224-7.499,1.828
			l-0.442,0.238c-5.642,2.965-10.298,7.223-14.651,13.402c-3.52,4.998-6.379,10.382-8.942,15.484
			c1.937-7.525,4.238-16.06,6.067-20.228c0.343-0.98,0.93-2.56,1.649-4.447l0.032,0.052c0.676-0.418,1.12-1.391,1.548-2.33
			c0.217-0.475,0.422-0.925,0.626-1.219c0.401-0.578,0.852-1.138,1.289-1.68c0.43-0.533,0.873-1.083,1.278-1.66
			c0.26-0.37,0.813-0.991,1.454-1.709c1.655-1.854,2.816-3.218,3.086-4.113c0.717-0.352,1.382-1.138,2.083-1.972
			c0.512-0.611,1.042-1.241,1.535-1.6c0.683-0.495,1.431-0.945,2.156-1.38c0.86-0.517,1.751-1.053,2.555-1.677
			c3.198-2.479,5.507-5.561,7.419-8.254l-0.495-0.521c-1.016,0.643-2.093,1.207-3.135,1.752c-1.787,0.936-3.635,1.903-5.234,3.3
			l-0.546,0.477c-1.488,1.299-3.029,2.643-4.491,4.02c-0.821,0.773-3.428,4.06-2.53,5.66c-0.213,0.751-2.034,2.793-2.951,3.822
			c-0.656,0.735-1.224,1.37-1.507,1.775c-0.391,0.559-0.827,1.099-1.249,1.622c-0.445,0.552-0.905,1.122-1.32,1.721
			c-0.093,0.134-0.182,0.292-0.27,0.458c1.974-5.064,4.34-10.929,5.646-13.76c0.02-0.069,0.052-0.156,0.083-0.24l0.018,0.018
			c0.417-0.448,0.812-0.91,1.209-1.372c0.809-0.943,1.646-1.919,2.658-2.768c0.524-0.438,1.104-0.876,1.664-1.301
			c0.794-0.602,1.606-1.224,2.322-1.88c1.688-0.93,5.468-3.182,5.577-4.762c0.019-0.278-0.056-0.672-0.52-0.979
			c-0.301-0.197-0.811-0.363-1.533-0.039c-1.76,0.793-3.798,4.125-3.936,5.092l0.066,0.009c-0.033,0.033-0.072,0.062-0.106,0.096
			c-0.262,0.143-0.498,0.266-0.671,0.349l0.082,0.171c-0.55,0.463-1.142,0.915-1.724,1.356c-0.567,0.429-1.153,0.874-1.689,1.324
			c-0.942,0.788-1.722,1.665-2.466,2.529c1.208-2.506,3.07-5.937,3.755-7.041c1.52,0.06,3.169-2.016,4.392-3.563
			c0.245-0.311,0.467-0.59,0.656-0.811l0.07-0.08l0.015-0.106c0.158-1.113-1.078-2.021-1.85-2.473l0.039-0.026
			c0.013-0.008,0.018-0.021,0.03-0.029l0.106,0.042c0.034-0.084,0.077-0.171,0.113-0.256c0.257-0.299,0.375-0.666,0.422-0.95
			c0.042-0.095,0.086-0.189,0.126-0.284l2.157-1.678l-0.45-0.579l-0.684,0.532l-0.491,0.164c-0.249,0.083-0.426,0.166-0.561,0.241
			l-0.056-0.088l-0.083-0.116c0.006-0.015,0.007-0.026,0.021-0.048l0.203-0.305l-1.513-1.009c-0.08-0.312-0.183-0.619-0.318-0.888
			l-0.542-1.084l-0.648,5.187c-0.4-0.07-0.75,0-1.044,0.203c-0.552,0.383-0.863,1.195-0.978,2.628
			c-0.049-0.032-0.102-0.061-0.156-0.085c-0.495-0.215-1.131-0.041-1.934,0.533c-0.652,0.434-0.935,1.019-1.08,1.603l0.004-0.035
			l-0.019-0.073c-0.005-0.02-0.501-1.878-0.026-3.572c1.206-1.329,1.098-2.35,0.923-2.844c-0.233-0.66-0.842-1.152-1.553-1.252
			c-0.577-0.084-1.108,0.117-1.431,0.533c-1.427,1.116-2.234,2.508-2.401,4.139c-0.223,2.171,0.795,4.29,1.578,5.259
			c0.073,0.75,0.463,5.306-0.186,10.564c-0.909,1.708-1.836,3.593-2.765,5.583c0.017-0.556,0.015-1.126,0.007-1.685l-0.004-0.505
			c-0.002-1.088,0.018-2.185,0.042-3.284c0.196-1.313,0.384-2.661,0.466-4.004c0.23-3.791,0.229-7.403,0.227-11.228v-1.246v-0.202
			c0.01-1.979-0.093-4.359-0.979-5.181c-0.243-0.227-0.54-0.333-0.859-0.307l-0.317,0.025l-0.021,0.317
			c-0.209,3.259,0.092,6.567,0.383,9.768c0.123,1.346,0.25,2.738,0.335,4.093c0.151,2.415,0.096,4.916,0.043,7.335
			c-0.004,0.189-0.008,0.379-0.012,0.567c-0.02,0.135-0.04,0.269-0.06,0.402c-0.356,2.383-0.725,4.848-0.532,7.396l0.257-0.019
			c-3.891,8.664-7.68,18.808-10.112,25.608c-0.168-1.857-0.415-3.717-0.657-5.531c-0.463-3.469-0.941-7.054-0.849-10.571
			c0.016-0.62,0.036-1.229,0.056-1.831c0.152-4.7,0.283-8.759-1.223-13.409c-0.7-2.164-1.247-4.466-1.772-7.468
			c-0.054-0.31-0.106-0.687-0.164-1.103c-0.303-2.199-0.719-5.212-2.33-6.277c-0.6-0.397-1.143-0.474-1.612-0.23
			c-1.032,0.534-1.202,2.413-1.227,3.196c-0.085,2.672,0.884,5.226,1.821,7.694l0.135,0.356c0.397,1.048,0.769,2.095,1.138,3.137
			c1.261,3.55,2.452,6.903,4.507,10.111l0.08-0.051c0,0.07,0,0.142,0,0.212c-0.152-0.011-0.239-0.12-0.249-0.146
			c0.053,0.191,0.155,0.276,0.249,0.312c-0.007,1.183-0.045,2.39-0.086,3.642c-0.02,0.603-0.04,1.213-0.056,1.835
			c-0.093,3.576,0.388,7.191,0.856,10.687c0.313,2.341,0.636,4.76,0.779,7.134c-0.856,2.418-1.486,4.261-1.817,5.234
			c-1.1,3.667-3.443,14.358-5.365,23.929c-0.844-2.353-2.001-4.537-3.217-6.821c-0.38-0.713-0.763-1.431-1.136-2.157
			c-0.655-1.274-1.413-2.693-2.281-4.007c-0.021-0.046-0.043-0.092-0.064-0.138c-0.937-1.964-1.822-3.819-2.266-5.998
			c-0.854-4.197-3.403-7.824-5.867-11.33c-0.806-1.146-1.638-2.333-2.379-3.498c-0.065-0.104-6.724-10.342-10.139-10.419
			c-0.302-0.003-0.579,0.074-0.826,0.216l-0.112-0.125c-0.172,0.158-0.29,0.342-0.365,0.549c-0.018,0.022-0.039,0.039-0.056,0.063
			l0.028,0.02c-0.035,0.122-0.061,0.248-0.065,0.385c-0.044,1.634,2.349,4.061,4.096,5.834c0.542,0.55,1.009,1.024,1.255,1.331
			c2.486,3.087,4.59,6.266,6.32,8.968c2.084,3.256,3.93,6.459,5.614,9.436c0.536,0.949,1.306,1.73,2.05,2.487
			c0.52,0.528,1.058,1.074,1.498,1.663c0.221,0.295,0.43,0.608,0.638,0.921c0.306,0.643,0.615,1.294,0.912,1.969l0.227-0.1
			c0.402,0.718,0.783,1.435,1.128,2.108c0.375,0.73,0.76,1.451,1.142,2.167c1.41,2.648,2.74,5.16,3.573,7.937
			c-0.832,4.19-1.565,8.079-2.053,10.948c-0.408,1.559-0.79,3.895-1.142,6.782c-0.559-1.556-2.082-3.086-3.369-4.375
			c-0.609-0.611-1.187-1.188-1.568-1.676c-3.091-3.947-5.636-5.95-7.589-5.97c-0.063-2.06-7.698-5.335-7.775-5.368
			c-2.131-0.897-4.299-1.316-6.823-1.316c-1.979,0-3.959,0.254-6.053,0.521l-1.243,0.157c-0.369,0.045-1.048,0.051-1.833,0.057
			c-2.682,0.021-6.737,0.055-8.192,1.571c-0.39,0.406-0.578,0.894-0.559,1.448C187.113,198.875,188.993,199.539,192.979,199.539z
			 M205.2,237.774c-0.034-0.037-0.075-0.067-0.114-0.099c0.021-0.039,0.044-0.076,0.062-0.116c0.006,0.014,0.006,0.028,0.013,0.042
			l0.669-0.3c-0.119-0.266-0.071-0.543,0.144-0.827c0.259-0.343,0.706-0.596,1.147-0.704c0.061-0.011,0.121-0.023,0.183-0.042
			c0.143-0.021,0.285-0.03,0.413-0.012c0.116,0.017,0.212,0.055,0.3,0.103c-0.029,0.054-0.061,0.119-0.088,0.166l0.434,0.248
			c0.122,0.34-0.123,0.836-0.658,1.326c-0.781,0.716-1.698,1.001-1.958,0.877c-0.02-0.009-0.079-0.037-0.067-0.23l-0.275-0.016
			C205.37,238,205.278,237.86,205.2,237.774z M208.358,235.176c-0.016-0.009-0.03-0.02-0.047-0.028
			c0.044-0.037,0.085-0.079,0.127-0.119C208.411,235.079,208.384,235.127,208.358,235.176z M210.256,234.141
			c0.278-0.039,0.523,0.041,0.724,0.244c0.297,0.3,0.45,0.815,0.379,1.282c-0.138,0.917-1.056,1.962-2.132,2.43
			c-0.294,0.126-0.773,0.276-1.259,0.203c0.081-0.066,0.16-0.132,0.234-0.2c0.777-0.714,1.086-1.489,0.848-2.129
			c-0.036-0.099-0.089-0.184-0.141-0.269C209.25,235.052,209.726,234.218,210.256,234.141z M208.305,232.132
			c0.438,0.146,0.62,0.404,0.57,0.811c-0.098,0.804-0.99,1.778-1.662,2.05c-0.405,0.056-0.815,0.215-1.171,0.447
			c-0.001-0.078-0.006-0.154-0.021-0.23c0.066-0.086,0.121-0.187,0.165-0.301c0.067-0.06,0.122-0.179,0.123-0.421
			c0.038-0.176,0.071-0.362,0.103-0.562c0.113-0.716,0.242-1.527,0.709-1.812c0.008-0.004,0.018-0.006,0.027-0.01
			c0,0.008,0,0.017,0,0.025l0.734,0.001c0-0.032,0.003-0.069,0.004-0.104C208.017,232.051,208.154,232.083,208.305,232.132z
			 M207.36,230.328c-0.055,0.331-0.109,0.666-0.15,0.987c-0.168,0.037-0.328,0.088-0.469,0.174c-0.43,0.261-0.666,0.708-0.815,1.196
			c-0.072-0.292-0.151-0.533-0.297-0.716l0.393-0.156c-0.244-0.619-0.054-1.425,0.13-2.206c0.035-0.153,0.07-0.303,0.101-0.45
			c0.483-0.024,0.912-0.08,1.285-0.165C207.515,229.365,207.439,229.847,207.36,230.328z M207.215,225.97
			c0.183-0.088,0.813-0.306,1.225,0.545c0.23,0.476,0.263,0.855,0.099,1.126c-0.255,0.423-1.006,0.694-2.129,0.773
			c0-0.008,0-0.015,0-0.023l0.002-0.108h-0.036c0-0.003,0-0.005,0-0.008c0.478-0.468,0.702-1.26,0.67-1.976
			c-0.002-0.072-0.013-0.138-0.022-0.208C207.085,226.045,207.147,226.003,207.215,225.97z M204.843,225.381
			c0.021-0.076,0.072-0.259,0.432-0.259c0.085,0,0.188,0.01,0.311,0.034c0.386,0.076,0.567,0.403,0.653,0.704
			c-0.297,0.408-0.408,0.944-0.157,1.474l0.062-0.03c-0.013,0.033-0.026,0.066-0.042,0.098l-0.195,0.116
			C205.316,227.213,204.68,225.968,204.843,225.381z M203.361,232.928c0.191-0.426,0.569-0.654,1.11-0.628
			c0.606,0.01,0.614,0.041,0.743,0.57c0.031,0.128,0.066,0.271,0.113,0.429c0.061,0.204,0.199,0.849,0.241,1.149
			c-0.039,0.163-0.083,0.298-0.134,0.345l0.073,0.082l-0.309,0.223c0.115,0.159,0.149,0.38,0.092,0.576
			c-0.004,0.012-0.011,0.029-0.016,0.042c-0.088-0.305-0.223-0.587-0.404-0.82c-0.334-0.429-0.875-0.747-1.543-0.673
			C203.195,233.782,203.196,233.298,203.361,232.928z M202.218,236.889c-0.143-0.241-0.575-0.974,0.55-1.693
			c0.055-0.035,0.107-0.047,0.161-0.076c0.083,0.134,0.173,0.264,0.28,0.379l0.54-0.498c-0.006-0.005-0.009-0.013-0.015-0.017
			c0.208,0.051,0.399,0.16,0.557,0.362c0.404,0.52,0.502,1.404,0.114,2.054c-0.335-0.05-0.701-0.021-1.022,0.071
			C202.799,237.486,202.537,237.43,202.218,236.889z M204.591,238.888c-0.475,0.011-1.19,0.027-1.411-0.194
			c-0.031-0.032-0.063-0.08-0.06-0.192c0.001-0.098,0.149-0.217,0.366-0.297c0.006-0.002,0.012-0.002,0.019-0.004
			c0.052-0.001,0.105-0.003,0.158-0.004c0.117-0.005,0.241-0.01,0.372-0.012v-0.072c0.264-0.005,0.489,0.043,0.592,0.133
			l0.021,0.023c0.002-0.003,0.004-0.005,0.006-0.008l0,0c0.051,0.057,0.039,0.161-0.035,0.308l0.481,0.242
			c0.024,0.036,0.052,0.059,0.079,0.089C205.011,238.886,204.823,238.882,204.591,238.888z M271.736,191.774l0.318-0.146
			c0.1-0.046,0.224-0.106,0.366-0.174c0.798-0.385,2.284-1.1,3.247-1.1c0.524,0,0.739,0.19,0.766,0.677
			c0.048,0.874-0.843,2.388-5.362,4.633c-1.627,0.809-3.299,1.587-4.917,2.339c-2.998,1.395-6.097,2.838-9.04,4.532
			c-2.148,1.237-3.531,2.896-4.993,4.652c-0.353,0.424-0.712,0.854-1.089,1.288c-1.441,1.657-2.905,2.365-4.895,2.365
			c-0.392,0-0.809-0.028-1.26-0.083C250.765,201.389,261.9,196.284,271.736,191.774z M272.076,175.991l-0.486,0.272
			c-1.264,0.721-2.549,1.495-3.792,2.24c-0.987,0.594-1.974,1.187-2.958,1.759c-4.751,2.766-8.633,5.769-12.22,9.453
			c-1.521,1.562-3.185,3.07-5.145,3.896c3.651-3.62,6.837-6.484,10.771-9.164c1.974-1.344,3.923-2.758,5.808-4.125
			c2.255-1.636,4.586-3.327,6.958-4.896c0.379-0.25,0.818-0.587,1.283-0.943c1.408-1.081,3.152-2.408,4.448-2.343
			c0.015,0,0.031,0,0.046,0.001C276.392,173.595,273.514,175.193,272.076,175.991z M250.188,189.133
			c0.307-0.385,0.606-0.759,0.878-1.121c1.736-2.305,3.65-4.126,6.023-5.731c0.62-0.419,1.238-0.841,1.856-1.263
			c3.491-2.384,7.101-4.848,10.969-6.798c1.177-0.593,2.395-1.168,3.637-1.563c-0.593,0.396-1.172,0.837-1.705,1.247
			c-0.454,0.348-0.884,0.678-1.241,0.914c-2.383,1.577-4.722,3.274-6.982,4.915c-1.881,1.364-3.825,2.775-5.79,4.113
			c-3.534,2.407-6.464,4.958-9.652,8.051C248.756,190.928,249.499,189.996,250.188,189.133z M272.914,145.208l-0.242,0.22
			c-2.55,2.352-5.428,4.399-8.21,6.38c-2.597,1.848-5.283,3.76-7.716,5.924c-0.692,0.616-1.353,1.234-2,1.853
			c-0.424,0.259-0.919,0.323-1.352,0.168c0-0.033,0.008-0.072,0.009-0.105c0.666-0.463,1.125-1.092,1.56-1.712
			c0.224-0.318,0.454-0.646,0.708-0.938c0.966-1.116,2.041-2.025,3.185-2.992c0.608-0.515,1.236-1.012,1.865-1.511
			c0.784-0.621,1.593-1.262,2.363-1.936c2.276-1.994,4.84-3.622,7.322-5.195c0.817-0.519,1.635-1.037,2.446-1.57l0.576-0.374
			c0.944-0.611,1.855-1.2,2.65-1.966C275.623,142.765,273.626,144.565,272.914,145.208z M254.449,155.778
			c4.283-6.081,8.857-10.267,14.392-13.176l0.452-0.243c1.11-0.604,4.068-2.212,5.743-2.212c0.381,0,0.695,0.083,0.906,0.278
			c0.022,0.019,0.029,0.043,0.046,0.064c-0.823,0.931-1.833,1.585-2.958,2.312l-0.581,0.377c-0.809,0.531-1.622,1.047-2.436,1.563
			c-2.504,1.589-5.093,3.232-7.414,5.263c-0.754,0.662-1.558,1.298-2.334,1.913c-0.636,0.504-1.269,1.006-1.89,1.531
			c-1.16,0.98-2.255,1.907-3.259,3.066c-0.278,0.321-0.52,0.665-0.753,0.998c-0.265,0.377-0.526,0.736-0.822,1.051
			c0.019-0.098,0.034-0.197,0.054-0.294c0.11-0.548,0.207-1.063,0.157-1.479C253.984,156.455,254.212,156.114,254.449,155.778z
			 M252.88,158.104c-0.001,0.008-0.002,0.015-0.004,0.024c-0.123,0.608-0.261,1.298-0.201,1.907l0.02,0.196l0.175,0.092
			c0.273,0.144,0.571,0.212,0.874,0.231c-2.791,2.78-5.156,5.623-7.188,8.65C248.444,165.52,250.512,161.738,252.88,158.104z
			 M264.287,128.184c1.452-1.366,2.986-2.706,4.47-4l0.547-0.477c1.533-1.339,3.261-2.244,5.091-3.203
			c0.55-0.288,1.111-0.581,1.669-0.89c-1.677,2.272-3.673,4.688-6.25,6.686c-0.77,0.597-1.642,1.121-2.485,1.627
			c-0.737,0.443-1.499,0.902-2.208,1.415c-0.566,0.412-1.126,1.078-1.667,1.722c-0.555,0.661-1.126,1.341-1.652,1.683
			C261.55,131.612,263.33,129.085,264.287,128.184z M271.381,116.294c0.198-0.09,0.358-0.119,0.481-0.119
			c0.191,0,0.298,0.071,0.347,0.102c0.179,0.118,0.197,0.22,0.19,0.313c-0.062,0.906-2.495,2.589-4.332,3.683
			C268.603,119.125,270.105,116.869,271.381,116.294z M258.188,118.601l0.367-0.038c-0.112,0.473-0.211,0.959-0.222,1.465
			l0.734,0.014c0.008-0.428,0.091-0.851,0.196-1.284c0.054,0.117,0.125,0.237,0.219,0.361c-0.126,0.387-0.274,0.778-0.426,1.18
			c-0.275,0.721-0.559,1.467-0.713,2.219C258.337,120.672,258.244,119.271,258.188,118.601z M259.38,116.029
			c0.043-0.131,0.08-0.252,0.12-0.378c0.043,0.257,0.086,0.448,0.11,0.549c-0.056,0.35-0.157,0.636-0.254,0.914l-0.288-0.039
			C259.161,116.722,259.271,116.367,259.38,116.029z M259.494,121.229c0.081-0.224,0.166-0.448,0.25-0.67
			c0.19-0.499,0.379-1.008,0.531-1.522c0.067-0.062,0.129-0.127,0.182-0.197C260.292,119.59,259.89,120.419,259.494,121.229z
			 M261.137,119.146l0.164-0.025l0.008,0.339l0.295,0.009c-0.061,0.135-0.113,0.273-0.157,0.415l0.016,0.009
			c-0.067,0.119-0.133,0.239-0.196,0.361c0-0.001,0-0.001,0-0.003l-0.491-0.044C260.923,119.85,261.049,119.495,261.137,119.146z
			 M263.816,119.013c0.005,0.003,0.011,0.004,0.016,0.008c-0.615,0.966-2.617,4.621-3.891,7.274
			c0.071-0.247,0.139-0.497,0.213-0.735c0.155-0.492,0.352-0.991,0.56-1.518c0.347-0.878,0.693-1.784,0.855-2.694
			c0.194-0.48,0.44-0.948,0.711-1.402c0.015-0.023,0.029-0.046,0.042-0.069c0.229-0.375,0.471-0.743,0.717-1.099l-0.267-0.185
			l0.072-0.284h-0.009c0.301-0.314,0.418-0.904,0.407-1.5C263.258,117.855,263.385,118.7,263.816,119.013z M264.749,117.271
			c-0.403-0.544-0.214-1.778,0.133-2.619c-0.094,0.338-0.158,0.684-0.192,1.013C264.635,116.172,264.643,116.761,264.749,117.271z
			 M264.786,117.419c0.109,0.426,0.294,0.786,0.589,0.969c0.016,0.01,0.04,0.019,0.058,0.028c-0.374,0.248-0.73,0.385-1.048,0.354
			l-0.139-0.35c-0.093-0.062-0.19-0.305-0.239-0.926c0.079,0.16,0.182,0.305,0.312,0.426L264.786,117.419z M268.801,114.752
			c-0.177,0.21-0.376,0.464-0.596,0.741c-0.558,0.707-1.319,1.667-2.08,2.369l-0.097-0.155c-0.176,0.112-0.241,0.072-0.264,0.059
			c-0.25-0.156-0.454-0.973-0.344-2.024c0.102-0.981,0.503-2.229,1.295-2.516l-0.183-0.505l0.271,0.125
			C267.336,113.094,268.795,113.952,268.801,114.752z M267.126,111.664l0.217,0.127c-0.001,0.003-0.003,0.006-0.004,0.009
			c-0.015,0.012-0.021,0.031-0.036,0.041l-0.268,0.179C267.062,111.909,267.094,111.791,267.126,111.664z M267.604,109.35
			c-0.03,0.149-0.016,0.28,0.012,0.379c0.026,0.097,0.071,0.183,0.122,0.261c-0.089,0.188-0.182,0.397-0.291,0.654
			c-0.041,0.097-0.082,0.194-0.124,0.29c0.25-0.965,0.292-1.298,0.165-1.518l-0.164-0.124v-0.13L267.604,109.35z M264.917,112.121
			c0.071-0.048,0.282-0.195,0.81,0.001l0.435,0.163l0.367-2.934c0.059,0.539,0.061,0.951,0.061,0.959h0.133
			c-0.072,0.305-0.167,0.658-0.238,0.918c-0.112,0.414-0.215,0.801-0.256,1.036l0.346,0.061l-0.365,0.245l0.096,0.045
			c-0.523,0.253-0.907,0.749-1.171,1.341l-0.48-0.391c-0.133,0.164-0.274,0.414-0.403,0.708
			C264.34,113.089,264.563,112.367,264.917,112.121z M261.85,115.197c0.755-0.539,1.09-0.521,1.222-0.464
			c0.08,0.036,0.149,0.123,0.21,0.239c-0.003,0.09-0.007,0.188-0.012,0.298c-0.021,0.519-0.034,1.019-0.028,1.485
			c-0.02-0.607-0.168-1.211-0.388-1.52l-0.599,0.426c0.284,0.397,0.363,1.833,0.051,2.146c-0.053,0.052-0.194-0.033-0.272-0.09
			L262,117.764l-0.667-0.25c-0.157,0.26-0.202,0.479-0.217,0.686h-0.353c0.089-0.308,0.129-0.639,0.167-0.966
			C261.021,116.442,261.105,115.692,261.85,115.197z M260.259,116.687c-0.024,0.159-0.043,0.315-0.059,0.464
			c-0.029,0.258-0.059,0.48-0.1,0.674l-0.197-0.025c0.034-0.12,0.076-0.249,0.131-0.405
			C260.11,117.183,260.192,116.952,260.259,116.687z M259.582,109.146c0.441,0.062,0.819,0.365,0.963,0.769
			c0.184,0.52-0.016,1.17-0.563,1.858l-0.146-0.329c-0.38,0.168-0.691,0.177-0.935,0.064c0.044-0.104,0.087-0.212,0.132-0.307
			l-0.579-0.271c-0.016-0.061-0.023-0.124-0.029-0.188c0.004-0.004,0.006-0.011,0.012-0.015l-0.015-0.012
			c-0.029-0.45,0.172-0.948,0.627-1.175l-0.114-0.227C259.16,109.125,259.45,109.128,259.582,109.146z M258.63,112.193
			c0.012,0.005,0.022,0.013,0.034,0.017c-0.082,0.467-0.292,1.06-0.509,1.678c-0.134,0.38-0.275,0.78-0.397,1.182
			C257.975,114.248,258.279,113.158,258.63,112.193z M257.689,110.525c-0.376,0.571-0.583,1.229-0.76,1.825
			c-0.11,0.373-0.218,0.719-0.354,1.008c0.004-0.064,0-0.129,0.006-0.194C256.682,112.186,257.058,111.304,257.689,110.525z
			 M256.572,113.463l0.62,0.318c0.187-0.363,0.31-0.781,0.44-1.223c0.096-0.324,0.193-0.653,0.317-0.965
			c0.025,0.041,0.048,0.081,0.077,0.121c-0.507,1.335-0.928,2.963-1.149,3.827l0.704,0.181c-0.103,0.432-0.166,0.857-0.165,1.259
			C256.926,116.062,256.511,114.789,256.572,113.463z M257.486,117.113l0.664-0.03c-0.039-0.865,0.353-1.973,0.697-2.951
			c0.232-0.656,0.451-1.285,0.542-1.825c0.076-0.007,0.151-0.01,0.23-0.027c-0.167,0.579-0.232,1.166-0.243,1.708l-0.307,0.046
			c0.057,0.391-0.16,1.061-0.389,1.77c-0.25,0.772-0.512,1.627-0.529,2.415c-0.002-0.031-0.005-0.055-0.005-0.057l-0.012-0.112
			l-0.074-0.086C257.879,117.749,257.679,117.458,257.486,117.113z M253.747,107.708c0.753,0.722,0.739,3.662,0.734,4.632v0.205
			v1.246c0.002,2.202,0.002,4.334-0.041,6.468c-0.08-1.123-0.185-2.257-0.285-3.36C253.88,113.879,253.596,110.762,253.747,107.708z
			 M237.35,130.063c-0.371-1.045-0.744-2.097-1.143-3.15l-0.135-0.356c-0.912-2.402-1.854-4.886-1.773-7.411
			c0.034-1.082,0.305-2.295,0.83-2.567c0.069-0.036,0.146-0.054,0.231-0.054c0.18,0,0.394,0.082,0.64,0.244
			c1.335,0.882,1.74,3.822,2.008,5.766c0.059,0.426,0.111,0.811,0.167,1.129c0.532,3.037,1.086,5.371,1.797,7.568
			c0.887,2.738,1.19,5.282,1.257,7.89C239.547,136.252,238.477,133.238,237.35,130.063z M217.726,159.656
			c0.095,0.15,0.202,0.3,0.3,0.451c-0.133-0.141-0.266-0.294-0.398-0.428c-1.514-1.527-3.259-2.927-4.947-4.282l-0.074-0.059
			c-0.241-0.193-0.508-0.401-0.792-0.623c-1.384-1.077-3.28-2.553-3.978-3.849l-0.041,0.022c-0.164-0.34-0.26-0.653-0.253-0.917
			c0.002-0.057,0.02-0.103,0.032-0.152c0.167-0.166,0.363-0.241,0.613-0.242C210.566,149.631,215.733,156.52,217.726,159.656z
			 M224.735,175.158c-1.69-2.986-3.541-6.2-5.636-9.471c-1.74-2.718-3.858-5.917-6.366-9.033c-0.215-0.268-0.566-0.633-0.98-1.055
			c0.132,0.104,0.275,0.214,0.395,0.31l0.073,0.059c1.673,1.342,3.402,2.729,4.886,4.226c2.588,2.611,5.24,6.696,7.273,11.208
			l0.2,0.441c0.762,1.682,1.668,3.703,2.039,5.594C225.894,176.703,225.212,176.002,224.735,175.158z M188.154,196.511
			c1.241-1.293,5.264-1.326,7.668-1.345c0.841-0.007,1.507-0.013,1.917-0.063l1.247-0.157c2.07-0.265,4.026-0.515,5.959-0.515
			c2.421,0,4.499,0.4,6.537,1.258c2.527,1.064,7.406,3.697,7.333,4.724c-0.009,0.135-0.24,0.275-0.618,0.375
			c-0.201,0.053-0.426,0.08-0.667,0.08c-1.261,0-2.817-0.712-4.189-1.34c-0.628-0.288-1.222-0.559-1.734-0.737
			c-1.779-0.616-3.614-0.879-6.137-0.879c-0.264,0-0.529,0.003-0.795,0.007c-0.499,0.009-1.499,0.115-2.766,0.25
			c-2.525,0.269-5.984,0.637-8.929,0.637c-4.468,0-5.165-0.865-5.183-1.379C187.787,197.072,187.902,196.773,188.154,196.511z"/>
		<path d="M201.565,249.42c-0.29,0.34-0.592,0.692-0.794,1.065l0.645,0.352c0.167-0.306,0.442-0.628,0.708-0.939
			c0.412-0.482,0.838-0.98,0.977-1.531l-0.712-0.178C202.292,248.571,201.922,249.003,201.565,249.42z"/>
		<path d="M199.875,254.485c-0.787,1.113-0.709,3.083-0.646,4.665c0.016,0.385,0.031,0.743,0.029,1.049l0.734,0.002
			c0-0.316-0.014-0.684-0.029-1.08c-0.056-1.394-0.131-3.304,0.512-4.213L199.875,254.485z"/>
		<path d="M275.07,307.05"/>
	</g>
	<polyline id="line-bottomOfStem" fill="none" stroke="#000000" stroke-miterlimit="10" points="241.946,367.917 248.532,366.5 
		357,366.5 	"/>
	<polyline id="line-topOfStem_1_" fill="none" stroke="#000000" stroke-miterlimit="10" points="256.033,141.918 262.705,140.5 
		371,140.5 	"/>
</g>
<g id="labels">
	<text transform="matrix(1 0 0 1 380.8843 131.5)" font-family="'Helvetica'" font-size="10">Top</text>
	<text transform="matrix(1 0 0 1 385.3301 143.5)" font-family="'Helvetica'" font-size="10">of</text>
	<text transform="matrix(1 0 0 1 377.8301 155.5)" font-family="'Helvetica'" font-size="10">Stem</text>
	<text transform="matrix(1 0 0 1 373.6602 358.5)" font-family="'Helvetica'" font-size="10">Bottom</text>
	<text transform="matrix(1 0 0 1 385.3301 370.5)" font-family="'Helvetica'" font-size="10">of</text>
	<text transform="matrix(1 0 0 1 377.8301 382.5)" font-family="'Helvetica'" font-size="10">Stem</text>
	<text transform="matrix(1 0 0 1 444.5938 492.5)" font-family="'Helvetica'" font-size="10">Epidermal Peel</text>
	<text transform="matrix(1 0 0 1 603.2686 492.5)" font-family="'Helvetica'" font-size="10">Whole Stem</text>
</g>
</svg>
