<?xml version="1.0" encoding="utf-8"?>
<!-- Generator: Adobe Illustrator 16.0.0, SVG Export Plug-In . SVG Version: 6.00 Build 0)  -->
<!DOCTYPE svg PUBLIC "-//W3C//DTD SVG 1.1//EN" "http://www.w3.org/Graphics/SVG/1.1/DTD/svg11.dtd">
<svg version="1.1" id="Layer_1" xmlns="http://www.w3.org/2000/svg" xmlns:xlink="http://www.w3.org/1999/xlink" x="0px" y="0px"
	 width="100%" viewBox="0 0 900 600" enable-background="new 0 0 900 600" xml:space="preserve">
<g id="Samples">
	<g id="Pollen_tubes_harvested_after_growth_through_pistil_explants" fill="#FFFFFF" >
		<path d="M405.472,414h-3.279c-0.036,0-0.062-0.682-0.095-0.682c-1.304-1.537-4.062-2.349-5.478-0.111
			c-3.055,4.83-3.645,9.961-3.889,15.317c-0.581,0.36-1.072,0.826-1.364,1.612c-1.799,4.858-1.294,10.117-3.008,14.999
			c-0.277,0.786-0.246,1.459-0.021,2.043c-0.129,0.146-0.255,0.286-0.359,0.452c-0.871,0.035-1.764,0.199-2.487,0.701
			c-0.673,0.466-1.165,1.104-1.421,1.816c-3.344,1.316-6.893,2.253-10.066,3.921c-1.511,0.793-1.861,2.185-1.512,3.437
			c-0.022,1.658,1.03,3.295,3.167,3.229c3.46-0.112,6.482-1.521,9.587-2.909c0.73-0.327,1.195-0.981,1.427-1.729
			c2.192-0.82,4.322-1.774,6.231-3.194c0.211-0.157,0.367-0.329,0.538-0.498c0.675-0.208,1.296-0.673,1.735-1.501
			c4.363-8.219,2.459-17.846,4.06-26.539c1.729-2.334,1.927-5.583,4.272-7.438c0.312-0.246,0.397-0.543,0.356-0.827
			c0.721-0.479,1.464-0.241,2.157-0.764C406.847,414.723,406.648,414,405.472,414z"/>
		<g>
			<path d="M424.07,462.649c-0.046-0.438-0.22-0.779-0.433-1.08c0.121-4.492-0.228-9.4-2.564-13.165
				c-0.006-0.349-0.077-0.707-0.312-1.081c-2.054-3.305-1.938-7.188-2.294-10.99c0.087-0.231,0.136-0.485,0.132-0.759
				c-0.021-1.855-0.844-3.949-0.908-5.894c0.409-0.271,0.731-0.67,0.833-1.187c0.302-1.569,0.528-3.093,0.625-4.687
				c0.004-0.075-0.027-0.13-0.03-0.204c0.077-0.121,0.172-0.229,0.225-0.366c0.707-1.861,1.362-3.665,1.816-5.562
				c0.607-0.421,0.932-1.123,0.917-1.851c0.034-0.064,0.079-0.126,0.104-0.194c0.357-0.247,0.712-0.497,1.073-0.741
				c0.743-0.501,0.717-1.749-0.262-1.98c-0.598-0.146-1.205-0.261-1.815-0.359c-0.327-0.12-0.683-0.146-1.041-0.115
				c-0.421-0.043-0.841-0.104-1.264-0.108c-0.979-0.021-1.262,1.021-0.882,1.674c-0.414,0.403-0.675,0.974-0.759,1.608
				c-0.15,1.133-0.479,2.238-0.872,3.33c-0.169,0.218-0.312,0.466-0.417,0.735c-0.341,0.866-0.658,1.457-0.812,2.32
				c-0.003,0.005-0.006-0.064-0.008-0.086c-0.031,0.038-0.065,0.489-0.079,0.688c-0.006,0.086,0.023,0.146,0.026,0.227
				c-0.161,0.277-0.275,0.604-0.301,0.987c-0.021,0.534-0.069,1.062-0.136,1.589c-0.385,0.275-0.707,0.65-0.882,1.112
				c-0.531,1.396-0.483,2.735-0.283,4.075c-0.227,0.33-0.375,0.711-0.342,1.155c0.095,1.276,0.302,2.338,0.703,3.404
				c-0.878,0.605-1.344,1.966-0.677,2.896c0.444,0.622,0.771,1.13,0.795,1.903c0.021,0.804,0.409,1.351,0.925,1.693
				c0.167,2.423,0.512,4.82,1.729,7.135c-0.035,0.406,0.067,0.851,0.382,1.303c2.208,3.188,2.434,7.508,2.295,11.472
				c-0.351,0.339-0.618,0.779-0.683,1.371c-0.185,1.773-0.708,3.377-1.398,4.896c-0.236,0.093-0.475,0.201-0.692,0.396
				c-2.284,2-4.554,4.015-6.837,6.018c-2.229,1.954-3.418,4.889-5.743,6.84c-1.118,0.938-0.816,2.198,0.021,2.965
				c-0.317,1.647,1.375,3.549,3.18,2.386c3.197-2.062,5.922-4.354,8.239-7.034c0.345-0.012,0.699-0.094,1.06-0.351
				c1.37-0.977,2.351-2.097,2.987-3.531c0.322-0.242,0.598-0.576,0.753-1.06c0.297-0.93,0.7-1.819,1.104-2.711
				C423.019,468.942,424.43,466.023,424.07,462.649z"/>
			<polygon points="415.123,421.899 415.124,421.911 415.128,421.899 			"/>
		</g>
		<path d="M473.274,478.502c-0.271-0.543-0.534-1.084-0.805-1.625c0.601-0.615,0.854-1.523,0.254-2.478
			c-1.14-1.827-2.089-3.743-2.988-5.688c0.684-0.601,0.968-1.549,0.257-2.52c-1.46-1.989-2.795-4.061-4.109-6.146
			c-0.083-0.411-0.218-0.825-0.402-1.247c-0.605-1.371-1.621-2.499-2.323-3.817c-0.164-0.312-0.369-0.549-0.599-0.723
			c-0.903-3.447-1.819-6.886-3.24-10.167c-2.199-5.073-6.438-9.149-10.451-12.803c-0.214-0.194-0.442-0.305-0.672-0.4
			c-1.553-2.092-3.238-4.125-5.008-6.123c0.013-0.229,0.021-0.457-0.051-0.715c-0.368-1.329-0.974-2.575-1.588-3.805
			c-0.44-0.886-1.19-1.163-1.926-1.076c-0.021-0.104-0.003-0.203-0.042-0.312c-0.396-1.179-0.836-2.217-1.658-3.155
			c-0.453-0.521-1.143-0.673-1.803-0.583c-0.049-0.217-0.074-0.438-0.134-0.654c-0.453-1.655-1.766-2.342-3.085-2.312
			c-0.346-0.527-0.897-0.918-1.723-0.918c-2.086,0-2.619,2.381-1.622,3.629c-0.056,0.412-0.031,0.858,0.101,1.346
			c0.973,3.55-0.206,10.099,2.438,13.315c-0.227,0.404-0.369,0.878-0.289,1.437c0.092,0.639,0.186,1.277,0.273,1.914
			c0.007,0.053,0.035,0.099,0.046,0.146c-0.223,0.318-0.391,0.691-0.398,1.187c-0.018,1.381-0.199,2.716-0.468,4.068
			c-0.198,1.006,0.21,1.993,1.094,2.47c-0.126,1.954,0.038,4.047,0.855,6.624c1.997,6.293,3.528,12.557,4.285,18.989
			c-0.001,0.045-0.022,0.071-0.022,0.121c0.039,1.647-0.094,3.332-0.354,5.012c-0.634,0.396-1.105,1.073-1.014,1.826
			c0.362,2.88-1.28,5.024-2.709,7.373c-0.358,0.594-0.396,1.173-0.235,1.675c-0.278,0.451-0.556,0.905-0.856,1.334
			c-0.796,1.128-0.296,2.223,0.608,2.785c-0.008,0.179-0.044,0.346-0.008,0.542c0.428,2.317,0.471,4.727,0,7.042
			c-0.529,2.601,3.167,3.747,4.056,1.545c0.405-0.158,0.779-0.437,1.036-0.952c1.027-2.07,1.755-4.256,2.452-6.451
			c1.938-3.179,3.901-6.396,3.861-10.243c-0.003-0.199-0.053-0.374-0.102-0.552c0.655-0.472,1.079-1.248,0.847-2.134
			c1.832-3.884,0.478-7.663,0.623-11.812c0.024-0.671-0.216-1.171-0.58-1.521c0.116-2.71-0.399-5.13-2.248-7.409
			c-0.072-0.092-0.171-0.125-0.254-0.197c-2.942-5.285-5.063-10.795-5.67-16.854c-0.021-0.231-0.107-0.414-0.185-0.609
			c0.504-2.102,1.206-4.194,1.445-6.293c0.012-0.008,0.021-0.014,0.029-0.021c0.803,0.924,1.754,1.137,2.643,0.939
			c0.505,0.635,1.065,1.203,1.682,1.653c-0.062,1.406,0.521,2.677,1.849,3.514c0.469,0.295,0.986,0.468,1.516,0.617
			c0.235,0.58,0.484,1.019,0.966,1.471c0.498,0.473,1.153,0.671,1.801,0.603c2.425,3.799,4.638,7.712,6.697,11.719
			c-0.699,0.452-1.146,1.26-0.854,2.305c1.271,4.579,3.616,8.588,5.689,12.83c0.514,1.055,1.298,2.197,2.099,3.395
			c-0.688,0.612-1.047,1.586-0.457,2.626c1,1.766,2.271,3.425,3.301,5.188c-0.018,0.271,0,0.542-0.045,0.814
			c-0.085,1.04,0.559,1.712,1.365,1.979c0.146,0.438,0.27,0.878,0.355,1.334c0.415,2.171,3.398,1.945,4.132,0.229
			C472.453,481.971,474.19,480.329,473.274,478.502z"/>
		<path d="M486.941,450.827c-0.242-1.146-0.515-2.271-0.825-3.335c-0.131-1.522-0.595-2.865-1.449-4.24
			c0.054-0.612-0.111-1.277-0.603-1.95c-1.748-2.398-3.894-4.193-6.221-5.769c-0.151-0.229-0.337-0.445-0.585-0.643
			c-0.219-0.171-0.45-0.333-0.674-0.502c0.002-0.004,0.007-0.007,0.009-0.011c-1.272-0.878-2.5-1.803-3.711-2.769
			c-0.199-0.158-0.402-0.291-0.611-0.397c-1.452-1.088-2.864-2.223-4.097-3.526c-2.54-2.691-4.211-5.795-7.44-7.803
			c-0.649-0.4-1.289-0.543-1.879-0.5c-3.075-3.824-6.284-7.667-11.538-7.88c-2.652-0.109-2.771,3.707-0.444,4.267
			c-0.054,0.552,0.091,1.135,0.538,1.656c0.269,0.316,0.571,0.615,0.884,0.91c-0.051,0.795,0.252,1.619,1.077,2.324
			c0.833,0.713,1.464,1.55,2.06,2.408c0,0.062-0.015,0.131-0.013,0.192c0.049,1.063,0.707,1.703,1.493,1.955
			c0.363,0.51,0.75,1.01,1.188,1.478c2.626,2.792,5.995,4.679,8.947,7.096c4.718,3.863,11.708,5.823,15.35,10.821
			c0.676,0.924,1.588,1.338,2.511,1.402c-0.154,0.485-0.179,1.028,0.077,1.603c0.107,0.25,0.222,0.499,0.333,0.748
			c-0.217,0.41-0.298,0.879-0.218,1.38c-0.055,0.188-0.102,0.37-0.102,0.596v7.043c0,0.037-0.084,0.045-0.168,0.095
			c-1.096,0.643-1.201,1.865-0.741,2.943c-0.007,0.019,0.019,0.079,0.02,0.312c0.007,0.812,0.405,1.362,0.93,1.71
			c-0.351,1.176-1.127,2.271-1.565,3.2c-1.193,2.539,2.515,4.764,3.715,2.209c0.072-0.158,0.108-0.34,0.184-0.502
			c0.557,0.063,1.122-0.108,1.616-0.693c1.639-1.944,2.395-4.541,2.623-7.354C488.771,456.438,489.208,453.484,486.941,450.827z"/>
		<path d="M506.331,451.03c0.91-6.773-2.892-16.057-7.312-18.987c-0.683-0.453-1.347-0.448-1.896-0.189
			c-1.304-1.284-2.65-2.522-3.991-3.732c-3.302-2.978-6.953-5.521-10.146-8.619c-2.15-2.09-3.896-4.074-6.299-5.479
			c-0.349-0.633-0.952-1.102-1.623-1.194c-0.052-0.079-0.104-0.153-0.149-0.234c-0.369-0.665-1.132-1.089-1.889-1.083
			c-2.309,0.021-4.563,0.19-6.807-0.468c-2.713-0.8-3.86,3.422-1.161,4.216c0.311,0.094,0.616,0.146,0.927,0.211
			c0.11,0.629,0.438,1.231,1.014,1.484c1.397,0.62,2.306,1.822,3.438,2.803c0.818,0.708,1.731,1.215,2.713,1.528
			c0.186,0.217,0.387,0.354,0.592,0.469c0.083,0.552,0.363,1.084,0.915,1.491c5.213,3.838,10.679,7.312,15.69,11.418
			c4.09,3.345,10.25,7.947,9.013,14.009c-0.22,1.062,0.278,1.878,0.999,2.335c-0.383,1.396-0.606,2.759-0.53,4.265
			c0.095,1.834,1.948,2.645,3.387,1.772c0.611,0.185,1.309,0.144,1.82-0.157c0.748-0.437,1.03-1.146,1.011-1.893
			c0.692-0.292,1.216-0.917,1.167-1.912C507.171,452.22,506.896,451.639,506.331,451.03z"/>
	</g>
	<g id="Pollen_germinated_in_vitro_for_4_hours" fill="#FFFFFF" >
		<path d="M634.573,179.625c-5.267,3.916-12.895,3.651-19.643,1.298c-0.671-2.263-2.769-3.952-5.224-3.959
			c-0.266,0.002-0.529-0.002-0.798-0.01c-0.062-0.021-0.104-0.039-0.209-0.068c-0.133-0.037-0.271-0.042-0.399-0.068
			c-0.41-0.205-0.812-0.431-1.216-0.65c-0.795-0.433-1.623-0.797-2.464-1.132c-0.111-0.101-0.236-0.197-0.346-0.298
			c-0.246-0.23-0.504-0.406-0.76-0.581c-0.25-0.854-0.772-1.689-1.703-2.428c-3.688-2.933-7.801-4.542-11.922-6.737
			c-5.016-2.672-9.18-7.468-13.801-10.802c-0.802-0.578-1.701-0.825-2.604-0.824c-0.316-0.181-0.634-0.363-0.95-0.543
			c-2.656-1.519-5.191-0.603-6.721,1.203c-0.425,0.006-0.863,0.051-1.323,0.16c-5.283,1.246-9.354,4.089-13.533,7.43
			c-5.794,4.629-11.875,8.974-17.858,13.36c-0.62,0.456-1.089,0.985-1.454,1.547c-1.897,0.198-3.594,1.398-4.066,3.911
			c-1.356,7.155-4.84,16.406-0.271,23.085c0.271,0.396,0.572,0.73,0.892,1.024c-0.425,1.184-0.392,2.524,0.328,3.621
			c1.621,2.476,1.891,5.499,2.841,8.254c0.462,1.337,1.429,2.383,2.639,2.886c0.416,0.959,0.882,1.888,1.414,2.748
			c0.812,1.883,1.521,3.799,1.964,5.853c0.439,2.021,1.851,2.977,3.396,3.119c-0.738,3.729,1.248,7.35,4.269,9.551
			c0.952,1.692,2.098,3.293,3.541,4.893c1.276,1.411,2.877,2.216,4.582,2.573c10.271,9.628,26.442,17.225,35.902,4.624
			c13.327-17.754-13.271-40.462-30.797-34.636c-3.609-1.951-8.271-1.464-11.43,0.784c-0.106-0.068-0.184-0.162-0.302-0.223
			c-1.895-0.991-3.48-2.206-4.816-3.74c-0.242-0.509-0.482-1.018-0.724-1.527c-0.463-0.983-1.187-1.581-2.008-1.894
			c-0.698-2.521-1.323-5.051-2.707-7.322c1.489-1.52,2.059-3.777,0.462-6.105c-2.149-3.146-0.048-9.048,1.002-13.065
			c0.288-0.144,0.576-0.298,0.864-0.51c4.841-3.548,9.541-7.278,14.495-10.667c3.798-2.598,6.919-5.877,10.967-7.812
			c0.7,0.385,1.498,0.628,2.41,0.628c0.624,0,1.149-0.036,1.646-0.088c8.699,5.037,16.625,11.318,25.681,15.751
			c1.073,0.525,2.119,0.667,3.097,0.56c10.562,9.588,30.837,15.457,43.176,6.277C645.685,184.911,640.242,175.409,634.573,179.625z"
			/>
	</g>
	<g id="Pollen_germinated_in_vitro_for_30_minutes" fill="#FFFFFF" >
		<g>
			<path d="M353.295,133.084c0.033-0.198,0.064-0.514,0.086-1.012c-0.015,0.056-0.034,0.11-0.048,0.166
				C353.319,132.52,353.33,132.806,353.295,133.084z"/>
			<path d="M355.043,121.483c0.024-0.264,0.07-0.532,0.07-0.792c0-4.375-3.004-8.337-7.229-9.494
				c-2.092-0.573-4.269-1.097-6.446-0.899c-2.869,0.261-5.467,1.452-7.285,3.363c-0.469-0.079-0.932-0.124-1.386-0.122
				c-1.94-1.239-4.321-1.908-7.075-1.522c-9.152,1.283-13.921,1.696-19.088,10.369c-4.64,7.786-6.346,17.527-7.013,26.402
				c-1.258,16.753,4.362,40.613,24.068,41.098c21.882,0.539,29.956-16.455,30.085-36.102c0.034-5.066-0.603-10.812-2.042-16.401
				c0.834-1.283,1.395-2.741,1.591-4.3c-0.094,0.557-0.191,0.096-0.035-0.594c0.019-0.085,0.052-0.168,0.072-0.252
				c0.011-0.221,0.033-0.44,0.03-0.663c0.015,0.05,0.025,0.022,0.03-0.057c-0.003,0.191-0.005,0.397-0.012,0.554
				c0.133-0.497,0.277-0.992,0.427-1.483c0.683-2.219,1.073-4.333,1.304-6.671C355.189,123.121,355.158,122.301,355.043,121.483z"/>
		</g>
	</g>
	<g id="Dry_pollen" fill="#FFFFFF" >
		<path d="M497.449,83.347c0.666-2.898,0.537-5.968-0.444-8.752c0.021-0.492,0.049-0.984,0.058-1.475
			c0.062-3.151-0.489-6.02-1.546-8.82c0.229-4.152-1.089-8.237-4.01-11.317c-0.451-1.364-1.005-2.716-1.784-4.163
			c-1.975-3.669-4.808-7.432-8.054-10.067c-3.22-2.613-6.7-4.354-10.59-4.466c-4.857-0.882-10.104,0.265-13.26,4.193
			c-0.219,0.268-0.406,0.534-0.613,0.802c-0.83,0.605-1.628,1.258-2.396,1.933c-2.27,2-3.617,4.657-4.169,7.497
			c-10.003,10.632-7.328,26.083-3.716,39.095c0.151,4.498,1.447,8.432,3.126,13.163c0.851,2.392,2.088,4.331,3.578,5.871
			c2.825,3.548,7.184,5.84,12.011,5.92c8.748,0.146,16.203-2.516,22.209-7.557c0.566-0.244,1.125-0.511,1.659-0.824
			c3.781-2.217,5.408-5.278,7.037-9.153c0.489-1.162,0.797-2.333,1.095-3.556C498.325,88.851,498.213,85.992,497.449,83.347z"/>
	</g>
</g>
<g id="Outlines">
	<g>
		
			<path fill="none" stroke="#000000" stroke-width="0.75" stroke-linecap="round" stroke-linejoin="round" stroke-miterlimit="10" d="
			M548.069,219.017c-12.679-6.772-11.729-18.698-11.306-32.085c6.95-5.478,14.999-11.566,22.742-18.023
			c4.644-3.87,9.194-1.916,13.104,0.195c11.963,6.463,23.312,14.1,35.436,20.217c11.991,6.051,24.374,8.01,35.147-3.458
			c-1.17-7.465-3.36-9.365-9.715-6.077c-10.428,5.393-18.899,0.474-27.062-4.413c-8.892-5.323-17.732-11.131-25.342-18.099
			c-7.935-7.262-15.086-4.874-22.271-0.5c-9.579,5.829-19.049,11.993-27.765,19.007c-3.166,2.548-5.545,7.907-5.677,12.067
			c-0.518,16.288,5.445,30.659,15.318,43.477"/>
		
			<path fill="none" stroke="#000000" stroke-width="0.75" stroke-linecap="round" stroke-linejoin="round" stroke-miterlimit="10" d="
			M438.735,403.783c-3.856,8.753-3.063,17.504,0.108,26.745c-3.333,8.23,0.59,15.773,4.029,23.288
			c6.536,14.278,2.468,27.38-4.236,40.172c-0.637,1.217-2.611,1.729-5.646,3.606c0-6.541-1.74-12.837,0.358-17.34
			c4.457-9.551,4.385-18.936,1.061-27.981c-4.361-11.872-2.221-24.271-4.749-36.175c-0.396-1.857-1.446-3.583-2.601-6.342
			c-9.086,11.805-10.912,23.776-6.187,35.794c7.598,19.318,2.771,30.654-14.175,41.941c-4.69-1.921-3.695-5.146-1.527-8.17
			c1.204-1.686,3.246-2.744,4.837-4.167c8.839-7.907,10.893-14.812,6.464-26.207c-4.217-10.858-5.113-21.318,0.02-32.083
			c1.163-2.442,1.183-5.429,1.729-8.161"/>
		
			<path fill="none" stroke="#000000" stroke-width="0.75" stroke-linecap="round" stroke-linejoin="round" stroke-miterlimit="10" d="
			M448.583,402.143c1.367,3.559,1.799,8.065,4.273,10.492c8.019,7.854,16.39,15.476,25.383,22.166
			c7.732,5.76,13.354,21.408,8.755,29.614c-1.247,2.224-4.336,3.417-7.342,5.649c0.472-8.295,0.857-15.127,1.331-23.376
			c-5.043-3.696-10.392-7.904-16.02-11.689c-16.729-11.255-25.719-26.906-28.963-46.761c-1.38-8.448,0.802-14.442,4.761-21.617
			c3.444-6.237,3.585-14.483,4.416-21.926c0.817-7.325,0.824-14.755,0.881-22.146c0.036-4.646-0.865-9.312-0.689-13.942
			c0.546-14.405,3.302-15.982,16.34-9.85c1.325,9.791,0.104,11.421-10.666,13.271c0,5.324,0,10.794,0,16.269
			c0,5.195-0.709,10.511,0.135,15.567c2.313,13.829-3.374,25.531-7.982,37.896c-2.505,6.722,0.084,13.938,6.103,19.672
			c12.865,12.263,26.326,23.655,41.029,33.68c4.052,2.761,6.88,7.312,9.801,10.525c-0.194,4.342-0.354,7.893-0.529,11.742
			c4.524,1.026,7.104,0.76,7.313-4.365c0.306-7.501-0.419-14.557-6.66-19.667c-7.836-6.407-17.254-14.231-25.188-20.522"/>
		
			<path fill="none" stroke="#000000" stroke-width="0.75" stroke-linecap="round" stroke-linejoin="round" stroke-miterlimit="10" d="
			M484.685,377.527c13.937-8.229,30.15-12.577,42.145-24.108c-0.209-0.756-0.421-1.51-0.629-2.265
			c-4.812,1.133-9.757,1.889-14.403,3.5c-5.224,1.812-8.939,7.761-16.911,5.232c1.087,1.544,1.563,2.222,1.38,1.958
			c-7.357,4.916-14.804,9.892-22.245,14.859"/>
		
			<path fill="none" stroke="#000000" stroke-width="0.75" stroke-linecap="round" stroke-linejoin="round" stroke-miterlimit="10" d="
			M399.352,372.604c-1.364,0.274-3.062,1.205-4.045,0.716c-6.132-3.055-12.105-6.428-18.114-9.686
			c0.242-1.71,0.476-3.365,0.758-5.357c1.194,0.137,2.414-0.024,3.333,0.427c10.948,5.355,19.087,14.787,31.049,19.229
			c13.576,5.043,13.846,24.125,0.87,31.415c-11.121,6.248-15.202,15.906-14.377,27.236c0.851,11.661-4.494,17.58-14.242,21.349
			c-3.092,1.194-6.205,2.334-9.961,3.744c-0.566-1.894-1.31-4.379-2.027-6.775c5.83-2.969,11.175-5.688,16.335-8.312
			c1.658-10.212,3.021-19.561,4.728-28.845c1.307-7.105,7.138-9.967,13.119-11.335c9.285-2.126,11.981-9.491,7.347-18.21"/>
		
			<path fill="none" stroke="#000000" stroke-width="0.75" stroke-linecap="round" stroke-linejoin="round" stroke-miterlimit="10" d="
			M435.986,414.464c4.923,5.743,11.56,14.96,16.767,20.436c4.097,4.303,6.887,8.799,8.417,14.762
			c1.419,5.535,5.288,10.416,7.887,15.682c1.57,3.186,3.89,6.551,3.865,9.825c-0.027,4.332-1.07,9.596-5.793,8.54
			c-3.771-8.807-7.102-16.448-10.31-24.141c-0.766-1.824-1.396-3.786-1.624-5.738c-0.719-6.104-2.612-11.236-8.164-14.901
			c-2.976-1.958-5.017-5.33-7.478-8.062"/>
		
			<path fill="none" stroke="#000000" stroke-width="0.75" stroke-linecap="round" stroke-linejoin="round" stroke-miterlimit="10" d="
			M419.864,310.248c-2.154-0.273-4.311-0.545-8.396-1.062c2.355,6.279,2.892,12.326,6.185,15.578
			c8.359,8.267,9.445,18.812,10.054,28.988c0.521,8.771,3.769,16.109,6.929,23.773"/>
		
			<path fill="none" stroke="#000000" stroke-width="0.75" stroke-linecap="round" stroke-linejoin="round" stroke-miterlimit="10" d="
			M376.378,359.477c-4.65-1.641-9.184-4.016-13.972-4.77c-9.772-1.539-19.683-2.206-28.626-3.137
			c-2.444-4.604-4.576-8.619-7.653-14.415c-3.724,3.893-7.917,6.553-7.564,8.282c0.676,3.316,3.42,8.008,6.219,8.768
			c9.192,2.499,17.495,8.55,27.817,7.018c6.176-0.915,11.505,0.885,16.551,5.47c7.81,7.094,16.141,13.566,27.722,14.383
			c5.305,0.372,10.413,3.564,15.604,5.479"/>
		
			<path fill="none" stroke="#000000" stroke-width="0.75" stroke-linecap="round" stroke-linejoin="round" stroke-miterlimit="10" d="
			M492.068,349.631c4.99-6.761,9.987-13.519,14.979-20.277c1.011,0.995,2.021,1.99,3.031,2.983
			c7.328,2.784,10.774-1.325,13.713-7.676c-1.764-2.905-3.534-5.83-6.154-10.153c-9.017,7.74-17.773,15.262-26.536,22.782
			c-0.299-0.287-0.594-0.575-0.888-0.864c1.312-3.68,2.625-7.356,3.939-11.041c-0.897-0.538-1.793-1.077-2.69-1.617
			c-6.91,8.075-13.82,16.148-20.729,24.226"/>
		
			<path fill="none" stroke="#000000" stroke-width="0.75" stroke-linecap="round" stroke-linejoin="round" stroke-miterlimit="10" d="
			M370.634,320.913c1.671-2.163,3.345-4.326,5.233-6.771c-1.077-2.146-2.175-4.334-3.637-7.244
			c-3.267,0.169-6.545,0.339-9.779,0.506c-1.166,1.993-2.159,3.689-3.154,5.392c-0.571,0.385-1.142,0.771-1.713,1.157
			c4.897,6.146,9.793,12.296,14.69,18.447"/>
		
			<path fill="none" stroke="#000000" stroke-width="0.75" stroke-linecap="round" stroke-linejoin="round" stroke-miterlimit="10" d="
			M397.71,344.708c7.846,0.979,11.048,6.844,13.993,13.105c1.091,2.316,2.203,5.066,4.14,6.475
			c10.222,7.41,13.653,17.567,13.065,29.649c-0.289,5.91,1.291,12.151-3.302,17.229"/>
		
			<path fill="none" stroke="#000000" stroke-width="0.75" stroke-linecap="round" stroke-linejoin="round" stroke-miterlimit="10" d="
			M497.812,359.477c6.72-5.809,13.439-11.615,20.159-17.428c-0.762-1.062-1.521-2.124-2.279-3.185
			c-7.06,4.407-14.109,8.814-21.162,13.228"/>
		
			<path fill="none" stroke="#000000" stroke-width="0.75" stroke-linecap="round" stroke-linejoin="round" stroke-miterlimit="10" d="
			M351.455,139.225c5.066-11.604,7.778-20.176-1.565-27.177c-4.803-3.599-8.828-2.999-13.204,0.101"/>
		
			<path fill="none" stroke="#000000" stroke-width="0.75" stroke-linecap="round" stroke-linejoin="round" stroke-miterlimit="10" d="
			M343.558,333.221c-1.96-4.069-3.918-8.143-5.922-12.308c-12.004,6.737-10.972,13.188,3.507,22.408
			c0.619-3.604,1.106-6.441,1.594-9.28"/>
		
			<path fill="none" stroke="#000000" stroke-width="0.75" stroke-linecap="round" stroke-linejoin="round" stroke-miterlimit="10" d="
			M410.018,398.861c-3.874-0.533-7.749-1.063-11.082-1.522c-1.383-3.225-2.401-5.604-3.958-9.235
			c-6.158,4.104-11.147,7.434-16.138,10.761"/>
		
			<path fill="none" stroke="#000000" stroke-width="0.75" stroke-linecap="round" stroke-linejoin="round" stroke-miterlimit="10" d="
			M437.915,333.221c-2.791,11.832-0.857,23.557,0.82,35.281"/>
		
			<path fill="none" stroke="#000000" stroke-width="0.75" stroke-linecap="round" stroke-linejoin="round" stroke-miterlimit="10" d="
			M487.146,306.966c0-1.368,0.044-2.739-0.039-4.103c-0.021-0.288-0.511-0.549-0.782-0.821c-9.197,4.304-9.845,5.472-8.511,13.035
			c-7.74,12.823-14.798,24.509-21.851,36.194"/>
		
			<path fill="none" stroke="#000000" stroke-width="0.75" stroke-linecap="round" stroke-linejoin="round" stroke-miterlimit="10" d="
			M348.481,362.758c10.667,5.471,21.333,10.94,32,16.41"/>
		
			<path fill="none" stroke="#000000" stroke-width="0.75" stroke-linecap="round" stroke-linejoin="round" stroke-miterlimit="10" d="
			M399.352,334.861c-0.354-7.229-4-12.479-11.389-17.826c0.952,6.188,1.658,10.772,2.363,15.365"/>
		
			<path fill="none" stroke="#000000" stroke-width="0.75" stroke-linecap="round" stroke-linejoin="round" stroke-miterlimit="10" d="
			M403.454,363.578c-2.631-6.766-5.264-13.531-8.323-21.395c-6.179-3.002-13.449-6.526-20.72-10.058
			c-0.455,0.522-0.909,1.047-1.362,1.57c3.024,5.037,6.049,10.071,9.073,15.108"/>
		
			<path fill="none" stroke="#000000" stroke-width="0.75" stroke-linecap="round" stroke-linejoin="round" stroke-miterlimit="10" d="
			M491.249,352.092c-0.364,0.779-0.728,1.56-1.529,3.271c1.968-1.046,3.048-1.621,4.047-2.152c-0.945-1.346-1.732-2.464-3.122-4.436
			c-4.971,3.273-10.44,6.056-14.884,9.999c-7.359,6.535-12.211,15.586-21.258,20.708c-2.029,1.146-1.817,6.251-2.639,9.53"/>
		
			<path fill="none" stroke="#000000" stroke-width="0.75" stroke-linecap="round" stroke-linejoin="round" stroke-miterlimit="10" d="
			M478.94,319.273c1.646,0.52,3.3,1.04,5.509,1.734c-8.928,9.259-15.583,19.564-18.637,31.901"/>
		
			<path fill="none" stroke="#000000" stroke-width="0.75" stroke-linecap="round" stroke-linejoin="round" stroke-miterlimit="10" d="
			M427.249,321.733c1.005-3.366,2.009-6.731,3.014-10.1c0.957-0.039,1.915-0.079,2.87-0.118c1.321,6.688,2.644,13.374,3.962,20.062"
			/>
		
			<path fill="none" stroke="#000000" stroke-width="0.75" stroke-linecap="round" stroke-linejoin="round" stroke-miterlimit="10" d="
			M414.941,343.887c-14.223-6.292-28.354-12.812-42.77-18.618c-2.124-0.854-2.057-7.807-6.462-2.714"/>
		
			<path fill="none" stroke="#000000" stroke-width="0.75" stroke-linecap="round" stroke-linejoin="round" stroke-miterlimit="10" d="
			M455.967,336.503c4.062-6.562,5.18-13.128,0.466-20.831c-1.473,1.812-2.195,2.704-2.927,3.604"/>
		
			<path fill="none" stroke="#000000" stroke-width="0.75" stroke-linecap="round" stroke-linejoin="round" stroke-miterlimit="10" d="
			M485.505,379.989c9.628,3.091,14.453,11.198,19.691,18.872"/>
		
			<path fill="none" stroke="#000000" stroke-width="0.75" stroke-linecap="round" stroke-linejoin="round" stroke-miterlimit="10" d="
			M493.71,398.861c-5.784-4.41-11.57-8.82-17.354-13.229c-0.725,0.272-1.446,0.544-2.176,0.815c-0.162,2.22-0.324,4.438-0.533,7.284
			c-5.002,1.6-10.521,3.36-16.035,5.13"/>
		
			<path fill="none" stroke="#000000" stroke-width="0.75" stroke-linecap="round" stroke-linejoin="round" stroke-miterlimit="10" d="
			M405.916,314.35c0,5.744,0,11.487,0,17.229c0,2.188,0,4.375,0,6.562"/>
		
			<path fill="none" stroke="#000000" stroke-width="0.75" stroke-linecap="round" stroke-linejoin="round" stroke-miterlimit="10" d="
			M413.3,364.399c-1.35,1.11-2.701,2.228-4.929,4.062c-16.966-11.841-34.134-23.821-51.3-35.803
			c-0.46,0.298-0.919,0.596-1.379,0.894c0.879,2.624,1.757,5.248,2.635,7.872"/>
		
			<path fill="none" stroke="#000000" stroke-width="0.75" stroke-linecap="round" stroke-linejoin="round" stroke-miterlimit="10" d="
			M386.224,379.989c-9.37,3.21-11.938,13.224-18.872,18.872"/>
		
			<path fill="none" stroke="#000000" stroke-width="0.75" stroke-linecap="round" stroke-linejoin="round" stroke-miterlimit="10" d="
			M489.607,355.374c-7.111,6.291-14.226,12.58-21.333,18.871"/>
		
			<path fill="none" stroke="#000000" stroke-width="0.75" stroke-linecap="round" stroke-linejoin="round" stroke-miterlimit="10" d="
			M488.787,303.684c1.697,2.419,3.4,4.841,6.04,8.598c-3.459,2.665-6.802,5.237-10.146,7.812"/>
		
			<path fill="none" stroke="#000000" stroke-width="0.75" stroke-linecap="round" stroke-linejoin="round" stroke-miterlimit="10" d="
			M469.095,355.374c-9.106,4.967-13.734,12.812-14.769,22.974"/>
		
			<path fill="none" stroke="#000000" stroke-width="0.75" stroke-linecap="round" stroke-linejoin="round" stroke-miterlimit="10" d="
			M489.607,337.323c-6.291,5.192-12.582,10.393-18.872,15.589"/>
		
			<path fill="none" stroke="#000000" stroke-width="0.75" stroke-linecap="round" stroke-linejoin="round" stroke-miterlimit="10" d="
			M452.686,390.656c2.781,11.98,11.99,17.545,22.152,22.149"/>
		
			<path fill="none" stroke="#000000" stroke-width="0.75" stroke-linecap="round" stroke-linejoin="round" stroke-miterlimit="10" d="
			M449.403,51.432c3.711-18.647,25.465-21.01,32.525-12.874c6.062,6.981,11.208,15.681,13.796,24.491
			c2.717,9.242,1.9,19.521,2.579,28.696c-4.878,2.607-8.438,4.512-12.024,6.429c-1.87-1.339-3.784-2.707-5.697-4.077"/>
		
			<path fill="none" stroke="#000000" stroke-width="0.75" stroke-linecap="round" stroke-linejoin="round" stroke-miterlimit="10" d="
			M304.687,128.558c2.438-9.408,7.497-15.475,18.033-16.584c7.518-0.792,13.254,0.464,17.187,6.778
			c4.39,7.047,8.297,14.395,13.168,22.934c-5.136,0-8.7,0-13.152,0c0.874-2.859,1.69-5.532,2.507-8.205"/>
		
			<path fill="none" stroke="#000000" stroke-width="0.75" stroke-linecap="round" stroke-linejoin="round" stroke-miterlimit="10" d="
			M472.377,379.989c-5.417,4.385-14.282,2.441-18.051,9.847"/>
		
			<path fill="none" stroke="#000000" stroke-width="0.75" stroke-linecap="round" stroke-linejoin="round" stroke-miterlimit="10" d="
			M351.455,142.507c0.75,9.003,1.499,18.006,2.194,26.334c-4.938,2.639-8.498,4.542-12.086,6.459
			c-1.87-1.339-3.784-2.707-5.697-4.077"/>
		
			<path fill="none" stroke="#000000" stroke-width="0.75" stroke-linecap="round" stroke-linejoin="round" stroke-miterlimit="10" d="
			M426.428,323.375c2.462,5.744,4.924,11.486,7.388,17.229"/>
		
			<path fill="none" stroke="#000000" stroke-width="0.75" stroke-linecap="round" stroke-linejoin="round" stroke-miterlimit="10" d="
			M548.069,228.042c-0.852-0.496-1.7-0.995-3.16-1.849c-1.454,2.331-3.021,4.843-4.952,7.936c3.035,4.301,5.994,8.494,9.426,13.359
			c1.732-0.163,3.901-0.368,6.071-0.573"/>
		
			<path fill="none" stroke="#000000" stroke-width="0.75" stroke-linecap="round" stroke-linejoin="round" stroke-miterlimit="10" d="
			M442.018,314.35c-1.093,5.744-2.188,11.487-3.279,17.229"/>
		
			<path fill="none" stroke="#000000" stroke-width="0.75" stroke-linecap="round" stroke-linejoin="round" stroke-miterlimit="10" d="
			M575.967,234.605c3.442,3.376,6.884,6.75,11.11,10.895c0.054-0.134-0.597,1.466-1.337,3.287c1.384,0.468,2.777,0.938,4.175,1.409"
			/>
		
			<path fill="none" stroke="#000000" stroke-width="0.75" stroke-linecap="round" stroke-linejoin="round" stroke-miterlimit="10" d="
			M345.199,344.708c9.649,4.334,21.708,2.475,29.538,11.486"/>
		
			<path fill="none" stroke="#000000" stroke-width="0.75" stroke-linecap="round" stroke-linejoin="round" stroke-miterlimit="10" d="
			M493.71,100.662c-8.712,9.425-18.733,13.485-32.076,11.096c-5.849-1.046-8.498-3.85-10.433-7.889
			c-2.482-5.189-3.823-10.923-5.76-16.732c1.685-1.608,3.643-3.478,5.603-5.347"/>
		
			<path fill="none" stroke="#000000" stroke-width="0.75" stroke-linecap="round" stroke-linejoin="round" stroke-miterlimit="10" d="
			M348.993,177.788c-8.709,9.426-18.731,13.484-32.076,11.096c-5.847-1.046-8.498-3.849-10.431-7.888
			c-2.483-5.188-3.822-10.922-5.76-16.732c1.686-1.609,3.644-3.478,5.602-5.347"/>
		
			<path fill="none" stroke="#000000" stroke-width="0.75" stroke-linecap="round" stroke-linejoin="round" stroke-miterlimit="10" d="
			M410.838,367.682c4.923,4.649,9.846,9.301,14.771,13.948"/>
		
			<path fill="none" stroke="#000000" stroke-width="0.75" stroke-linecap="round" stroke-linejoin="round" stroke-miterlimit="10" d="
			M344.378,338.965c9.025,1.643,18.051,3.281,27.076,4.922"/>
		
			<path fill="none" stroke="#000000" stroke-width="0.75" stroke-linecap="round" stroke-linejoin="round" stroke-miterlimit="10" d="
			M410.018,318.452c1.75,4.833,3.5,9.669,5.938,16.398c-1.854,7.233,1.442,15.189,8.012,22.162"/>
		
			<path fill="none" stroke="#000000" stroke-width="0.75" stroke-linecap="round" stroke-linejoin="round" stroke-miterlimit="10" d="
			M335.866,126.917c-2.832,5.329,2.389,7.781,4.102,11.487"/>
		
			<path fill="none" stroke="#000000" stroke-width="0.75" stroke-linecap="round" stroke-linejoin="round" stroke-miterlimit="10" d="
			M387.865,340.604c2.735,3.829,5.471,7.657,8.205,11.487"/>
		
			<path fill="none" stroke="#000000" stroke-width="0.75" stroke-linecap="round" stroke-linejoin="round" stroke-miterlimit="10" d="
			M480.581,49.791c-2.83,5.329,2.39,7.781,4.104,11.486"/>
		
			<path fill="none" stroke="#000000" stroke-width="0.75" stroke-linecap="round" stroke-linejoin="round" stroke-miterlimit="10" d="
			M455.967,339.785c0,4.375,0.13,8.76-0.108,13.12c-0.052,0.861-1.529,1.646-2.353,2.469"/>
		
			<path fill="none" stroke="#000000" stroke-width="0.75" stroke-linecap="round" stroke-linejoin="round" stroke-miterlimit="10" d="
			M576.787,222.299c-5.414-5.397-11.939-5.688-18.872-4.103"/>
		
			<path fill="none" stroke="#000000" stroke-width="0.75" stroke-linecap="round" stroke-linejoin="round" stroke-miterlimit="10" d="
			M483.863,379.168c-3.008,0.55-6.02,1.096-7.441,1.357c-4.808-2.787-8.53-4.943-12.25-7.104"/>
		
			<path fill="none" stroke="#000000" stroke-width="0.75" stroke-linecap="round" stroke-linejoin="round" stroke-miterlimit="10" d="
			M312.892,144.968c-0.371,12.281-0.743,24.562-1.113,36.843c0.939-0.142,1.878-0.283,2.817-0.426
			c1.347,2.356,2.693,4.712,4.04,7.069"/>
		
			<path fill="none" stroke="#000000" stroke-width="0.75" stroke-linecap="round" stroke-linejoin="round" stroke-miterlimit="10" d="
			M551.352,219.017c1.643,3.01,3.281,6.017,4.926,9.025"/>
		
			<path fill="none" stroke="#000000" stroke-width="0.75" stroke-linecap="round" stroke-linejoin="round" stroke-miterlimit="10" d="
			M591.557,236.248c3.612,13.291-4.601,24.962-16.018,22.044c2.004-3.361,3.959-5.704,7.812-2.352"/>
		
			<path fill="none" stroke="#000000" stroke-width="0.75" stroke-linecap="round" stroke-linejoin="round" stroke-miterlimit="10" d="
			M451.864,53.894c-1.025-0.652-2.052-1.304-3.128-1.989c-4.875,10.995-6.228,21.895-2.616,33.167"/>
		
			<path fill="none" stroke="#000000" stroke-width="0.75" stroke-linecap="round" stroke-linejoin="round" stroke-miterlimit="10" d="
			M307.147,131.019c-1.025-0.651-2.05-1.304-3.126-1.988c-4.875,10.995-6.224,21.896-2.617,33.167"/>
		
			<path fill="none" stroke="#000000" stroke-width="0.75" stroke-linecap="round" stroke-linejoin="round" stroke-miterlimit="10" d="
			M457.608,67.841c-0.373,12.281-0.744,24.562-1.116,36.844c0.938-0.143,1.879-0.285,2.815-0.425
			c1.35,2.356,2.695,4.711,4.041,7.068"/>
		
			<path fill="none" stroke="#000000" stroke-width="0.75" stroke-linecap="round" stroke-linejoin="round" stroke-miterlimit="10" d="
			M559.556,253.479c4.765,5.608,3.833-9.646,8.97-1.537c-0.71,1.18-1.844,3.062-2.983,4.97c-1.341-0.685-2.432-1.235-3.522-1.789"/>
		
			<path fill="none" stroke="#000000" stroke-width="0.75" stroke-linecap="round" stroke-linejoin="round" stroke-miterlimit="10" d="
			M494.53,64.56c-3.009,0-6.02,0-9.896,0c0.873-2.859,1.69-5.532,2.512-8.205"/>
		
			<path fill="none" stroke="#000000" stroke-width="0.75" stroke-linecap="round" stroke-linejoin="round" stroke-miterlimit="10" d="
			M566.94,234.605c-2.188-0.271-4.375-0.547-6.564-0.82"/>
		
			<path fill="none" stroke="#000000" stroke-width="0.75" stroke-linecap="round" stroke-linejoin="round" stroke-miterlimit="10" d="
			M572.686,234.605c-1.094,2.188-2.188,4.377-3.28,6.562"/>
		
			<path fill="none" stroke="#000000" stroke-width="0.75" stroke-linecap="round" stroke-linejoin="round" stroke-miterlimit="10" d="
			M455.146,50.612c1.563,3.446,3.135,6.892,4.697,10.338c0.135-0.143,0.269-0.285,0.4-0.429c1.034,1.347,2.066,2.692,3.104,4.039"/>
		
			<path fill="none" stroke="#000000" stroke-width="0.75" stroke-linecap="round" stroke-linejoin="round" stroke-miterlimit="10" d="
			M576.787,245.273c3.588,0.466,6.46,1.853,7.385,5.741"/>
		
			<path fill="none" stroke="#000000" stroke-width="0.75" stroke-linecap="round" stroke-linejoin="round" stroke-miterlimit="10" d="
			M310.43,127.737c1.567,3.447,3.135,6.894,4.702,10.339c0.133-0.144,0.265-0.285,0.398-0.429c1.035,1.347,2.069,2.693,3.105,4.039"
			/>
		
			<path fill="none" stroke="#000000" stroke-width="0.75" stroke-linecap="round" stroke-linejoin="round" stroke-miterlimit="10" d="
			M575.146,225.581c0.759-1.136,1.517-2.273,2.522-3.782c5.468,3.72,13.655,4.284,11.48,13.868c-0.292-1.994-0.587-3.989-0.88-5.984
			"/>
		
			<path fill="none" stroke="#000000" stroke-width="0.75" stroke-linecap="round" stroke-linejoin="round" stroke-miterlimit="10" d="
			M562.018,222.299c1.229,0.494,2.456,0.988,5.246,2.109c-9.677,3.772-8.938-13.934-18.464-5.6c0.244,1.594,0.577,3.774,0.91,5.952"
			/>
		
			<path fill="none" stroke="#000000" stroke-width="0.75" stroke-linecap="round" stroke-linejoin="round" stroke-miterlimit="10" d="
			M576.787,241.992c-2.188,2.188-4.376,4.374-6.563,6.562"/>
		
			<path fill="none" stroke="#000000" stroke-width="0.75" stroke-linecap="round" stroke-linejoin="round" stroke-miterlimit="10" d="
			M559.556,236.248c-1.096,0-2.192,0-3.292,0c0.046,0.636,0.094,1.273,0.14,1.911c0.775-0.364,1.556-0.729,2.333-1.09"/>
		
			<path fill="none" stroke="#000000" stroke-width="0.75" stroke-linecap="round" stroke-linejoin="round" stroke-miterlimit="10" d="
			M341.917,342.246c2.188,3.008,4.375,6.016,6.563,9.025"/>
		
			<path fill="none" stroke="#000000" stroke-width="0.75" stroke-linecap="round" stroke-linejoin="round" stroke-miterlimit="10" d="
			M305.507,162.198c2.461,0,4.964-0.259,7.368,0.111c1.192,0.184,2.205,1.53,3.299,2.351"/>
		
			<path fill="none" stroke="#000000" stroke-width="0.75" stroke-linecap="round" stroke-linejoin="round" stroke-miterlimit="10" d="
			M450.224,85.072c2.462,0,4.961-0.261,7.367,0.111c1.192,0.185,2.205,1.53,3.299,2.351"/>
		
			<path fill="none" stroke="#000000" stroke-width="0.75" stroke-linecap="round" stroke-linejoin="round" stroke-miterlimit="10" d="
			M486.325,66.2c1.095,4.103,2.188,8.206,3.282,12.308"/>
		
			<path fill="none" stroke="#000000" stroke-width="0.75" stroke-linecap="round" stroke-linejoin="round" stroke-miterlimit="10" d="
			M341.609,143.327c1.094,4.103,2.189,8.205,3.282,12.308"/>
		
			<path fill="none" stroke="#000000" stroke-width="0.75" stroke-linecap="round" stroke-linejoin="round" stroke-miterlimit="10" d="
			M332.583,118.712c-1.641,1.094-3.282,2.189-4.923,3.282"/>
		
			<path fill="none" stroke="#000000" stroke-width="0.75" stroke-linecap="round" stroke-linejoin="round" stroke-miterlimit="10" d="
			M469.915,39.124c-0.82,1.915-1.641,3.83-2.461,5.744"/>
		
			<path fill="none" stroke="#000000" stroke-width="0.75" stroke-linecap="round" stroke-linejoin="round" stroke-miterlimit="10" d="
			M325.199,116.25c-0.821,1.915-1.641,3.831-2.462,5.744"/>
		
			<path fill="none" stroke="#000000" stroke-width="0.75" stroke-linecap="round" stroke-linejoin="round" stroke-miterlimit="10" d="
			M477.3,41.585c-1.642,1.094-3.282,2.189-4.923,3.283"/>
		
			<path fill="none" stroke="#000000" stroke-width="0.75" stroke-linecap="round" stroke-linejoin="round" stroke-miterlimit="10" d="
			M586.633,237.069c1.096,0.546,2.188,1.092,3.282,1.641"/>
		
			<path fill="none" stroke="#000000" stroke-width="0.75" stroke-linecap="round" stroke-linejoin="round" stroke-miterlimit="10" d="
			M572.686,220.658c-0.548,1.641-1.094,3.282-1.642,4.923"/>
		
			<path fill="none" stroke="#000000" stroke-width="0.75" stroke-linecap="round" stroke-linejoin="round" stroke-miterlimit="10" d="
			M324.687,343.066c-1.094,1.094-2.188,2.188-3.282,3.279"/>
		
			<path fill="none" stroke="#000000" stroke-width="0.75" stroke-linecap="round" stroke-linejoin="round" stroke-miterlimit="10" d="
			M496.171,87.533c-2.979,2.103-8.558,2.125-6.562,8.206"/>
		
			<path fill="none" stroke="#000000" stroke-width="0.75" stroke-linecap="round" stroke-linejoin="round" stroke-miterlimit="10" d="
			M351.455,164.66c-2.979,2.103-8.558,2.125-6.564,8.205"/>
		
			<path fill="none" stroke="#000000" stroke-width="0.75" stroke-linecap="round" stroke-linejoin="round" stroke-miterlimit="10" d="
			M570.224,227.222c-1.38,5.664-6.728,10.761-2.463,17.231"/>
		
			<path fill="none" stroke="#000000" stroke-width="0.75" stroke-linecap="round" stroke-linejoin="round" stroke-miterlimit="10" d="
			M491.249,71.944c0.547,1.641,1.093,3.282,1.64,4.923"/>
		
			<path fill="none" stroke="#000000" stroke-width="0.75" stroke-linecap="round" stroke-linejoin="round" stroke-miterlimit="10" d="
			M346.532,149.071c0.548,1.641,1.094,3.282,1.641,4.923"/>
		
			<path fill="none" stroke="#000000" stroke-width="0.75" stroke-linecap="round" stroke-linejoin="round" stroke-miterlimit="10" d="
			M566.12,225.581c4.197,1.942,9.906-1.189,13.35,3.955c0.213,0.318,3.608-1.494,5.522-2.314"/>
		
			<path fill="none" stroke="#000000" stroke-width="0.75" stroke-linecap="round" stroke-linejoin="round" stroke-miterlimit="10" d="
			M493.71,79.329c-3.281,0.546-6.563,1.094-9.847,1.641"/>
		
			<path fill="none" stroke="#000000" stroke-width="0.75" stroke-linecap="round" stroke-linejoin="round" stroke-miterlimit="10" d="
			M544.787,234.605c2.736,1.369,5.471,2.732,8.205,4.104"/>
		
			<path fill="none" stroke="#000000" stroke-width="0.75" stroke-linecap="round" stroke-linejoin="round" stroke-miterlimit="10" d="
			M455.146,80.969c-2.735,0-5.473,0-8.206,0"/>
		
			<path fill="none" stroke="#000000" stroke-width="0.75" stroke-linecap="round" stroke-linejoin="round" stroke-miterlimit="10" d="
			M557.915,231.324c-1.368,0.273-2.734,0.548-4.103,0.82"/>
		
			<path fill="none" stroke="#000000" stroke-width="0.75" stroke-linecap="round" stroke-linejoin="round" stroke-miterlimit="10" d="
			M452.686,65.38c3.281,1.367,6.563,2.734,9.849,4.103"/>
		
			<path fill="none" stroke="#000000" stroke-width="0.75" stroke-linecap="round" stroke-linejoin="round" stroke-miterlimit="10" d="
			M555.454,238.71c0.934,4.351,1.869,8.703,2.817,13.128c1.283,0,2.927,0,4.564,0"/>
		
			<path fill="none" stroke="#000000" stroke-width="0.75" stroke-linecap="round" stroke-linejoin="round" stroke-miterlimit="10" d="
			M559.556,228.042c1.368,0.273,2.735,0.548,4.104,0.821"/>
		
			<path fill="none" stroke="#000000" stroke-width="0.75" stroke-linecap="round" stroke-linejoin="round" stroke-miterlimit="10" d="
			M348.993,156.455c-3.282,0.548-6.564,1.094-9.846,1.641"/>
		
			<path fill="none" stroke="#000000" stroke-width="0.75" stroke-linecap="round" stroke-linejoin="round" stroke-miterlimit="10" d="
			M310.43,158.096c-2.735,0-5.47,0-8.205,0"/>
		
			<path fill="none" stroke="#000000" stroke-width="0.75" stroke-linecap="round" stroke-linejoin="round" stroke-miterlimit="10" d="
			M307.968,142.507c3.282,1.368,6.564,2.735,9.846,4.102"/>
		
			<path fill="none" stroke="#000000" stroke-width="0.75" stroke-linecap="round" stroke-linejoin="round" stroke-miterlimit="10" d="
			M464.992,75.226c0.295,0.535,0.59,1.069,0.889,1.608c-0.615,0.308-1.162,0.58-1.709,0.854"/>
		
			<path fill="none" stroke="#000000" stroke-width="0.75" stroke-linecap="round" stroke-linejoin="round" stroke-miterlimit="10" d="
			M579.249,247.734c-0.547,1.093-1.095,2.188-1.641,3.28"/>
		
			<path fill="none" stroke="#000000" stroke-width="0.75" stroke-linecap="round" stroke-linejoin="round" stroke-miterlimit="10" d="
			M560.376,237.069c3.83,2.188,7.658,4.374,11.488,6.562"/>
		
			<path fill="none" stroke="#000000" stroke-width="0.75" stroke-linecap="round" stroke-linejoin="round" stroke-miterlimit="10" d="
			M469.915,70.303c-0.82,0.82-1.641,1.641-2.461,2.461"/>
		
			<path fill="none" stroke="#000000" stroke-width="0.75" stroke-linecap="round" stroke-linejoin="round" stroke-miterlimit="10" d="
			M367.352,315.17c-1.092,0.547-2.188,1.093-3.282,1.645"/>
		
			<path fill="none" stroke="#000000" stroke-width="0.75" stroke-linecap="round" stroke-linejoin="round" stroke-miterlimit="10" d="
			M325.199,173.685c0,1.094,0,2.189,0,3.282"/>
		
			<path fill="none" stroke="#000000" stroke-width="0.75" stroke-linecap="round" stroke-linejoin="round" stroke-miterlimit="10" d="
			M478.12,55.535c-0.82,0.82-1.642,1.641-2.462,2.461"/>
		
			<path fill="none" stroke="#000000" stroke-width="0.75" stroke-linecap="round" stroke-linejoin="round" stroke-miterlimit="10" d="
			M320.276,152.353c0.295,0.535,0.591,1.07,0.889,1.609c-0.615,0.307-1.162,0.581-1.709,0.853"/>
		
			<path fill="none" stroke="#000000" stroke-width="0.75" stroke-linecap="round" stroke-linejoin="round" stroke-miterlimit="10" d="
			M325.199,147.43c-0.821,0.82-1.641,1.641-2.462,2.462"/>
		
			<path fill="none" stroke="#000000" stroke-width="0.75" stroke-linecap="round" stroke-linejoin="round" stroke-miterlimit="10" d="
			M325.199,137.584c-0.821,0.82-1.641,1.641-2.462,2.461"/>
		
			<path fill="none" stroke="#000000" stroke-width="0.75" stroke-linecap="round" stroke-linejoin="round" stroke-miterlimit="10" d="
			M333.404,132.66c-0.821,0.821-1.641,1.642-2.461,2.462"/>
		
			<path fill="none" stroke="#000000" stroke-width="0.75" stroke-linecap="round" stroke-linejoin="round" stroke-miterlimit="10" d="
			M471.557,108.046c0.273,1.094,0.547,2.188,0.82,3.282"/>
		
			<path fill="none" stroke="#000000" stroke-width="0.75" stroke-linecap="round" stroke-linejoin="round" stroke-miterlimit="10" d="
			M477.3,99.021c-0.548,0.273-1.097,0.547-1.71,0.854c0.297,0.539,0.593,1.073,0.891,1.608"/>
		
			<path fill="none" stroke="#000000" stroke-width="0.75" stroke-linecap="round" stroke-linejoin="round" stroke-miterlimit="10" d="
			M469.915,96.559c0,1.094,0,2.188,0,3.282"/>
		
			<path fill="none" stroke="#000000" stroke-width="0.75" stroke-linecap="round" stroke-linejoin="round" stroke-miterlimit="10" d="
			M376.378,362.758c-1.348-1.396-2.695-2.797-4.042-4.195c0.315-0.578,0.63-1.159,0.947-1.74c1.853,0.338,3.704,0.677,5.557,1.017"
			/>
		
			<path fill="none" stroke="#000000" stroke-width="0.75" stroke-linecap="round" stroke-linejoin="round" stroke-miterlimit="10" d="
			M469.915,60.458c-0.82,0.82-1.641,1.641-2.461,2.461"/>
		
			<path fill="none" stroke="#000000" stroke-width="0.75" stroke-linecap="round" stroke-linejoin="round" stroke-miterlimit="10" d="
			M326.84,185.173c0.274,1.094,0.547,2.188,0.82,3.282"/>
		
			<path fill="none" stroke="#000000" stroke-width="0.75" stroke-linecap="round" stroke-linejoin="round" stroke-miterlimit="10" d="
			M332.583,176.146c-0.546,0.274-1.094,0.547-1.709,0.854c0.298,0.538,0.593,1.072,0.889,1.607"/>
		
			<path fill="none" stroke="#000000" stroke-width="0.75" stroke-linecap="round" stroke-linejoin="round" stroke-miterlimit="10" d="
			M478.94,79.329c-0.55,0.546-1.097,1.094-1.644,1.641"/>
		
			<path fill="none" stroke="#000000" stroke-width="0.75" stroke-linecap="round" stroke-linejoin="round" stroke-miterlimit="10" d="
			M464.172,46.509c-0.547,0.547-1.094,1.094-1.641,1.641"/>
		
			<path fill="none" stroke="#000000" stroke-width="0.75" stroke-linecap="round" stroke-linejoin="round" stroke-miterlimit="10" d="
			M328.789,343.887c-0.273,0.547-0.579,1.081-0.805,1.648c-0.093,0.231-0.015,0.54-0.015,0.812"/>
		
			<path fill="none" stroke="#000000" stroke-width="0.75" stroke-linecap="round" stroke-linejoin="round" stroke-miterlimit="10" d="
			M475.658,53.073c-0.547,0.547-1.094,1.094-1.644,1.641"/>
		
			<path fill="none" stroke="#000000" stroke-width="0.75" stroke-linecap="round" stroke-linejoin="round" stroke-miterlimit="10" d="
			M475.658,61.277c0.548,0.547,1.094,1.094,1.642,1.641"/>
		
			<path fill="none" stroke="#000000" stroke-width="0.75" stroke-linecap="round" stroke-linejoin="round" stroke-miterlimit="10" d="
			M469.095,51.432c-0.817,0.274-1.641,0.547-2.462,0.821"/>
		
			<path fill="none" stroke="#000000" stroke-width="0.75" stroke-linecap="round" stroke-linejoin="round" stroke-miterlimit="10" d="
			M330.942,138.404c0.547,0.548,1.094,1.094,1.641,1.641"/>
		
			<path fill="none" stroke="#000000" stroke-width="0.75" stroke-linecap="round" stroke-linejoin="round" stroke-miterlimit="10" d="
			M334.225,156.455c-0.547,0.548-1.094,1.094-1.642,1.641"/>
		
			<path fill="none" stroke="#000000" stroke-width="0.75" stroke-linecap="round" stroke-linejoin="round" stroke-miterlimit="10" d="
			M562.018,240.351c-0.817,0.551-1.641,1.096-2.461,1.645"/>
		
			<path fill="none" stroke="#000000" stroke-width="0.75" stroke-linecap="round" stroke-linejoin="round" stroke-miterlimit="10" d="
			M551.352,232.965c0.55,0.549,1.097,1.094,1.643,1.643"/>
		
			<path fill="none" stroke="#000000" stroke-width="0.75" stroke-linecap="round" stroke-linejoin="round" stroke-miterlimit="10" d="
			M548.069,231.324c-0.272,0.82-0.546,1.641-0.82,2.461"/>
		
			<path fill="none" stroke="#000000" stroke-width="0.75" stroke-linecap="round" stroke-linejoin="round" stroke-miterlimit="10" d="
			M570.224,230.504c0.82,0.273,1.644,0.548,2.462,0.82"/>
		
			<path fill="none" stroke="#000000" stroke-width="0.75" stroke-linecap="round" stroke-linejoin="round" stroke-miterlimit="10" d="
			M305.507,167.121c-0.82,0-1.641,0-2.461,0"/>
		
			<path fill="none" stroke="#000000" stroke-width="0.75" stroke-linecap="round" stroke-linejoin="round" stroke-miterlimit="10" d="
			M334.225,166.301c-0.547,0.548-1.094,1.094-1.642,1.641"/>
		
			<path fill="none" stroke="#000000" stroke-width="0.75" stroke-linecap="round" stroke-linejoin="round" stroke-miterlimit="10" d="
			M319.456,123.635c-0.547,0.548-1.094,1.094-1.641,1.641"/>
		
			<path fill="none" stroke="#000000" stroke-width="0.75" stroke-linecap="round" stroke-linejoin="round" stroke-miterlimit="10" d="
			M450.224,89.995c-0.818,0-1.641,0-2.463,0"/>
		
			<path fill="none" stroke="#000000" stroke-width="0.75" stroke-linecap="round" stroke-linejoin="round" stroke-miterlimit="10" d="
			M324.378,128.558c-0.82,0.273-1.641,0.548-2.461,0.82"/>
		
			<path fill="none" stroke="#000000" stroke-width="0.75" stroke-linecap="round" stroke-linejoin="round" stroke-miterlimit="10" d="
			M330.942,130.199c-0.547,0.548-1.094,1.094-1.641,1.641"/>
		
			<path fill="none" stroke="#000000" stroke-width="0.75" stroke-linecap="round" stroke-linejoin="round" stroke-miterlimit="10" d="
			M478.94,89.174c-0.55,0.546-1.097,1.094-1.644,1.642"/>
	</g>
	
		<line fill="#BBBBBB" stroke="#BBBBBB" stroke-linecap="round" stroke-linejoin="round" stroke-miterlimit="10" x1="286" y1="412.5" x2="604" y2="412.5"/>
</g>
<g id="labels">
	<text transform="matrix(1 0 0 1 379.5 71.5)" font-family="'Helvetica'" font-size="10">Dry Pollen</text>
	<text transform="matrix(1 0 0 1 225.042 140.5)" font-family="'Helvetica'" font-size="10">30 minutes</text>
	<text transform="matrix(1 0 0 1 234.7729 152.5)" font-family="'Helvetica-Oblique'" font-size="10">in vitro</text>
	<text transform="matrix(1 0 0 1 226.7051 164.5)" font-family="'Helvetica'" font-size="10">incubation</text>
	<text transform="matrix(1 0 0 1 456.8223 204.5)" font-family="'Helvetica'" font-size="10">4 hours </text>
	<text transform="matrix(1 0 0 1 458.7734 216.5)" font-family="'Helvetica-Oblique'" font-size="10">in vitro</text>
	<text transform="matrix(1 0 0 1 450.7051 228.5)" font-family="'Helvetica'" font-size="10">incubation</text>
	<text transform="matrix(1 0 0 1 273.9805 443.5)" font-family="'Helvetica'" font-size="10">Pollen tubes</text>
	<text transform="matrix(1 0 0 1 256.7515 455.5)" font-family="'Helvetica'" font-size="10">after growth through</text>
	<text transform="matrix(1 0 0 1 263.7026 467.5)" font-family="'Helvetica'" font-size="10">Stigma and Style</text>
	<text transform="matrix(1 0 0 1 268.1553 479.5)" font-family="'Helvetica'" font-size="10">(pistil explants)</text>
</g>
</svg>
