<?xml version="1.0" encoding="utf-8"?>
<!-- Generator: Adobe Illustrator 16.0.0, SVG Export Plug-In . SVG Version: 6.00 Build 0)  -->
<!DOCTYPE svg PUBLIC "-//W3C//DTD SVG 1.1//EN" "http://www.w3.org/Graphics/SVG/1.1/DTD/svg11.dtd">
<svg version="1.1" id="Layer_1" xmlns="http://www.w3.org/2000/svg" xmlns:xlink="http://www.w3.org/1999/xlink" x="0px" y="0px"
	 width="100%" viewBox="0 0 900 600" enable-background="new 0 0 900 600" xml:space="preserve">
<g id="Samples">
	<g id="Uninucleate_Microphore" fill="#FFFFFF" >
		<path d="M170.333,240c-1.956-0.172-4.092-0.625-6.5-0.666c-0.962-0.017-1.824,0.306-2.535,0.844
			c-0.083-0.146-0.153-0.305-0.247-0.449c-1.183-1.815-3.382-2.683-5.394-1.963c-0.101-0.342-0.243-0.688-0.439-1.037
			c-2.497-4.427-4.8-7.929-6.046-12.922c-1.109-4.445-2.575-8.874-4.167-13.167c-2-5.392-10.702-3.061-8.679,2.393
			c1.803,4.859,3.342,9.859,4.597,14.888c1.269,5.084,3.982,8.846,6.524,13.354c0.998,1.77,2.599,2.357,4.136,2.168
			c0.241,1.527,2.911,3.499,4.594,4.034c0.814,0.958-2.469-2.266,0,0c0.875,0.805,3.969,0.521,4.8-0.278
			c0.776,0.688,1.781,1.12,2.896,1.139c0.962,0.019,1.892,0.105,2.846,0.223c0.252,0.036,1.183,0.161,1.642,0.225
			c0.659,0.086,1.313,0.164,1.976,0.222c2.447,0.215,4.497-2.209,4.497-4.5C174.836,241.885,172.776,240.214,170.333,240z"/>
		<path d="M168.353,248.778c-0.006-0.001-0.013-0.001-0.019-0.002C168.738,248.83,168.643,248.817,168.353,248.778z"
			/>
		<path d="M230.648,208.178c-1.022-4.252-2.383-9.834-5.966-12.693c-1.548-1.234-3.364-1.52-4.87-0.918
			c-1.47-0.601-2.881-0.423-4.032,0.193c-0.09-0.09-0.162-0.194-0.265-0.274c-1.174-0.915-2.548-1.928-3.141-2.918
			c-1.066-1.778-0.666-3.927-0.875-5.9c-0.049-0.468-0.163-0.914-0.309-1.341c4.667,4.289,9,3.452,7.481-4.688
			c-0.997-5.34-2.961-11.754-7.024-15.587c-3.587-3.384-9.901-4.271-14.252-6.415c-4.821-2.375-10.289-2.47-15.518-3.318
			c-5.532-0.897-10.811-1.093-15.983,1.297c-0.509,0.235-0.924,0.521-1.257,0.842c-0.762-0.239-1.661-0.209-2.668,0.204
			c-6.631,2.722-11.675,6.707-15.271,12.975c-1.609,2.806-3.074,6.145-3.264,9.407c-0.183,3.14,1.014,8.003-0.822,10.686
			c-1.043,1.526-0.772,4.265,0.704,5.454c1.503,1.21,2.914,2.499,4.253,3.889c0.432,0.448,0.8,0.917,1.143,1.407
			c-0.49,0.348-0.93,0.806-1.266,1.418c-0.438,0.87-0.938,1.704-1.5,2.5c-0.1,0.153-0.188,0.306-0.266,0.458
			c-0.21-0.003-0.42-0.007-0.631-0.003c-0.433,0.007-0.863,0.001-1.294-0.016c-1.811-1.308-4.259-1.361-5.938,0.317
			c-1.655,1.656-1.836,4.736,0,6.364c1.594,1.413,3.299,2.087,5.399,2.282c0.16,0.015,0.319,0.018,0.478,0.026
			c0.054,0.044,0.114,0.072,0.17,0.113c-0.583,6.469,1.731,13.2,4.721,18.891c3.389,6.451,10.003,8.79,16.266,7.816
			c0.918,2.434,4.464,3.872,7.026,2.246c1.2,0.136,2.408-0.239,3.304-1.375c0.886-1.123,4.875-0.355,6.226-0.13
			c1.854,0.315,2.341,1.789,3.416,3.13c0.278,0.346,0.62,0.62,1,0.848c-3.226,3.896,1.66,9.325,5.48,7.014
			c0.189,0.031,0.434,0.077,0.759,0.152c1.035,0.238,2.055,0.563,3.075,0.862c1.736,0.503,3.542,0.976,5.361,0.939
			c5.424-0.1,10.651-3.854,15.132-6.479c5.13-3.008,7.225-6.762,10.319-11.785c2.417-3.925,5.088-8.81,4.715-13.567
			c-0.044-0.563-0.202-1.125-0.445-1.653c0.372-0.99,0.719-1.982,0.914-2.99C231.752,214.674,231.4,211.305,230.648,208.178z"/>
		<path d="M165.833,180.333"/>
		<path d="M156.667,190.667"/>
	</g>
	<g id="Bicellular_Pollen" fill="#FFFFFF" >
		<path d="M386.954,216.231c0.023,0.078,0.046,0.156,0.07,0.233c-0.122-0.529-0.364-0.981-0.675-1.371
			c0.287-1.864,0.636-3.727,0.873-5.603c0.598-4.728,0.373-9.53-0.222-14.241c-0.389-3.077-3.513-4.291-5.75-3.619
			c-0.999-0.898-2.133-1.664-3.341-2.309c-0.222-0.443-0.536-0.837-0.93-1.168c0.04,0.023,0.08,0.046,0.119,0.069
			c-0.053-0.042-0.108-0.069-0.162-0.109c-0.281-0.23-0.601-0.423-0.942-0.588c-0.083-0.401-0.151-0.806-0.214-1.207
			c-0.184-1.177-0.308-2.356-0.656-3.501c-0.139-0.455-0.348-0.827-0.592-1.149c0.09-0.642,0.148-1.284,0.16-1.926
			c0.021,0,0.037,0.006,0.058,0.006c4.843,0,5.139-7.048,0.889-7.912c-1.114-8.924-9.174-14.54-16.675-18.93
			c-1.354-1.264-2.707-2.114-4.635-2.479c-0.802-0.152-1.562-0.113-2.261,0.063c-0.544-0.868-1.477-1.492-2.818-1.492
			c-1.004,0-1.772,0.358-2.33,0.896c-0.305-0.12-0.589-0.224-0.839-0.301c-4.663-1.435-10.015-1.091-14.832-1.095
			c-1.852-0.001-3.169,0.824-3.957,1.999c-6.514,0.493-14.157,2.598-18.252,7.476c-0.499,0.594-0.946,1.199-1.365,1.81
			c-0.514,0.109-1.007,0.316-1.449,0.649c-1.517,1.14-2.499,2.255-3.648,3.747c1.083-1.406-0.028,0.013-0.307,0.322
			c-0.069,0.077-0.148,0.144-0.222,0.217c-0.105,0.079-0.222,0.16-0.323,0.214c-2.399,1.286-3.133,4.556-1.794,6.841
			c1.018,1.737,2.87,2.554,4.724,2.404c0.193,0.889-1.119,0.995-0.793,1.864c-0.917,0.562-0.279,1.889-1.191,2.461
			c-0.741,0.464-1.423,0.99-2.073,1.544c-1.801,0.01-3.694,0.199-5.736,0.542c-1.237,0.208-2.4,0.63-3.493,1.193
			c-0.502-0.325-1.118-0.532-1.871-0.532c-2.854,0-3.898,2.796-3.143,4.854c-3.184,4.221-4.55,10.038-3.018,14.782
			c0.212,0.803,0.341,1.184,0.394,1.181c0.053,0.971,0.066,1.947,0.097,2.911c0.125,3.957,0.68,7.838,1.236,11.756
			c0.025,0.175,0.062,0.341,0.088,0.515c-0.154,0.427-0.218,0.925-0.155,1.501c0.263,2.391,1.218,4.366,2.181,6.346
			c0.408,1.12,0.857,2.225,1.353,3.319c0.15,3.32,1.707,6.203,4.102,8.466c0.006,0.579,0.043,1.161,0.151,1.746
			c0.821,4.475,3.217,8.383,6.49,11.496c2.74,2.606,5.964,4.51,8.318,7.534c1.403,1.803,3.668,2.477,5.909,2.313
			c0.676,0.562,1.4,1.072,2.17,1.523c2.686,1.573,5.388,2.235,8.034,2.199c1.435,1.396,2.196,0.946,4.793,0.946
			c5.605,0,9.745-2.844,9.937-7.185c1.664-1.146,0.646-5.174,4.579-5.174c1.767,0,2.519-1.244,3.553-2.69
			c0.593,0.411,1.229,0.771,1.904,1.088c0.46,0.987,1.128,1.921,1.897,2.737c-0.034,1.775,1.088,3.578,3.379,3.578
			c0.68,0,1.244-0.172,1.719-0.441c1.932,0.553,4.002,0.586,5.956,0.052c0.77-0.215,1.506-0.52,2.207-0.892
			c0.815,0.088,1.654-0.061,2.388-0.515c2.255-1.396,4.514-2.67,6.56-4.376c0.402-0.335,0.688-0.756,0.88-1.218
			c0.124-0.093,0.25-0.176,0.37-0.282c5.161-4.682,9.086-10.33,10.951-16.8c0.576-0.731,0.846-1.652,0.642-2.688
			c0.022-0.114,0.049-0.226,0.07-0.34c0.495-1.589,0.874-3.213,1.103-4.901c0.279-0.541,0.406-1.167,0.406-1.851v-0.5
			c0-0.696,0.034-1.348-0.328-1.897C387.531,219.259,388.017,217.766,386.954,216.231z M335.185,162.579
			C332.282,160.054,333.622,160.325,335.185,162.579L335.185,162.579z"/>
	</g>
	<g id="Tricellular_Pollen" fill="#FFFFFF" >
		<path d="M571.66,222.757c0.222-1.4,0.34-2.823,0.34-4.257v-0.25c0-0.967-0.066-1.927-0.164-2.881
			c0.741-1.239,1.024-2.717,0.468-4.081c-0.085-0.173-0.134-0.358-0.185-0.542c-0.05-0.741-0.138-1.49-0.315-2.208
			c-0.123-0.495-0.32-0.952-0.575-1.371c-0.062-0.375-0.117-0.75-0.175-1.129c-0.295-2.053-2.163-3.444-4.148-3.873
			c-0.004-0.012-0.004-0.024-0.011-0.036c-0.826-1.401-1.7-2.694-2.737-3.886c-0.111-0.892-0.259-1.778-0.451-2.657
			c0.015-0.021,0.031-0.04,0.046-0.061c0.854-1.232,1.67-2.49,2.514-3.729c0.319-0.469,0.652-0.928,0.988-1.385
			c0.05-0.061,0.116-0.143,0.208-0.256c0.293-0.354,0.61-0.686,0.93-1.016c1.718-1.77,2.034-4.429,0.911-6.513
			c0.032-0.526,0.042-1.055-0.019-1.595c-0.158-1.426-0.311-2.818-0.817-4.158c-0.468-1.23-1.017-2.312-1.806-3.227
			c-0.854-4.644-2.661-9.146-5.107-13.19c-8.737-14.446-26.636-22.741-43.305-20.956c-0.513,0.055-1.021,0.124-1.526,0.199
			c-0.312-0.102-0.626-0.201-0.938-0.288c-5.143-1.414-9.934-1.204-14.206,0.222c-5.488-0.956-10.188-0.724-16.053,0.221
			c-5.184,0.834-9.479,3.322-12.771,6.773c-1.195,0.084-2.4,0.403-3.538,0.965c-2.114,1.045-3.647,2.896-4.922,4.822
			c-0.521,0.791-0.938,1.643-1.43,2.449c-2.764,3.174-2.826,7.984,0.229,11.043c0.637,0.635,1.374,1.134,2.167,1.511
			c0.099,2.1,0.434,4.178,0.998,6.188c-0.809,0.738-1.605,1.488-2.438,2.212c-0.438,0.381-0.752,0.851-0.97,1.36
			c-0.128,0.086-0.258,0.172-0.383,0.258c-0.619-0.349-1.354-0.437-2.219-0.437h-2c-3.597,0-4.959,3.329-4.098,5.958
			c-0.469,1.158-0.799,2.311-0.958,3.588c-0.118,0.956-0.005,1.993,0.312,2.969c-0.507,1.923-0.71,3.923-0.507,6
			c0.654,6.7,0.149,13.425,0.759,20.127c0.85,9.317,3.463,17.521,7.192,26.034c4.472,10.208,13.054,20.614,24.062,23.533
			c4.595,3.936,11.805,6.702,16.372,2.43c1.491-1.394,1.887-3.527,1.353-5.404c0.509-0.354,1.003-0.729,1.479-1.123
			c0.058,0.005,0.106,0.013,0.161,0.017c2.575,0.198,5.146,0.122,7.712,0.09c1.53,0.486,3.129,0.806,4.771,0.946
			c0.431,0.445,0.877,0.869,1.332,1.277c-1.799,3.393-0.299,8.439,4.553,8.061c4.01-0.315,8.021,0.372,12.021-0.073
			c4.364-0.482,7.753-2.396,10.396-5.602c1.802-1.132,3.442-2.517,4.864-4.104c6.212-1.722,11.797-5.722,15.237-11.604
			c0.479-0.817,0.872-1.676,1.284-2.524c2.347-2.8,4.031-5.981,5.035-9.563c1.041-3.785,1.229-8.17,0.396-12.267
			C571.938,224.751,571.828,223.749,571.66,222.757z"/>
	</g>
	<g id="Mature_Pollen_Grain" fill="#FFFFFF" >
		<path d="M698.5,162.75c-1.744,0.033-3.487,0.326-5.196,0.661c-2.17,0.424-3.464,2.767-3.253,4.856
			c-1.837,1.473-2.733,3.784-1.437,6.004c1.136,1.939,4.186,3.083,6.157,1.614c2.35-1.751,4.809-3.4,6.907-5.454
			C704.464,167.713,702.422,162.676,698.5,162.75z"/>
		<path d="M765.182,202.214c0.301-1.574,0.347-3.191,0.154-4.79c0.094-0.473,0.178-0.947,0.234-1.424
			c0.588-4.918,0.461-9.809,0.43-14.75c-0.003-0.44-0.035-0.86-0.091-1.265c0.056-0.322,0.091-0.649,0.091-0.985
			c0-3.271-2.729-6-6-6h-3.358c-1.103-1.779-2.052-3.398-2.514-5.487c-0.307-1.384-0.765-3.08-1.079-4.772
			c0.476-0.779,0.868-1.635,1.148-2.514c0.891-0.264,1.761-0.807,2.545-1.735c6.299-7.451-0.609-17.836-5.021-24.468
			c-2.507-3.772-5.392-7.294-8.271-10.783c-4.971-6.022-11.021-10.501-16.959-15.484c-1.91-1.603-4.096-1.896-5.951-1.322
			c-2.234-1.091-4.542-2.024-6.896-2.784c-0.713-0.437-1.422-0.875-2.116-1.332c-2.049-1.342-4.048-1.224-5.624-0.304
			c-6.239-0.81-13.159-0.824-18.872-1.013c-10.636-0.352-21.474,3.881-29.086,11.275c-0.98,0.952-1.854,1.926-2.67,2.916
			c-1.813-0.016-3.599,0.867-4.707,3.028c-1.24,2.413-3.364,4.333-5,6.5c-1.938,2.567-3.646,5.365-5.5,8
			c-2.957,4.202-5.102,8.793-6.407,13.664c-0.381,0.46-0.757,0.924-1.154,1.372c-1.276,1.439-1.711,3.05-1.56,4.567
			c-0.842,1.732-0.796,3.83,0.121,5.704c0.543,1.11,1.03,2.237,1.75,3.25c1.193,1.687,2.888,2.835,4.846,2.959
			c0.125,1.02,0.263,2.042,0.425,3.069c0.232,1.479,0.553,2.945,0.911,4.403c-0.177,0.118-0.345,0.25-0.529,0.359
			c2.101-1.245-3.463,7.224-2.834,4.049c-0.682,0.532-1.347,1.085-1.973,1.68c-0.221-0.021-0.44-0.042-0.665-0.048
			c-3.271-0.086-5,2.794-5,6c0,0.824-0.832,1.601-0.532,2.306c-0.005,0.322,0.023,0.642,0.07,0.958
			c-0.938,2.583-1.41,5.357-1.288,8.235c0.123,2.891,0.521,5.683,0.928,8.544c-0.004,0.154-0.01,0.308-0.013,0.461
			c-0.076,0.287-0.146,0.575-0.225,0.861c-0.988,3.68-0.291,7.606-0.569,11.388c-0.49,6.645-0.178,13.438,1.819,19.871
			c-0.065,1.544-0.062,3.088,0.053,4.625c0.457,6.165,1.634,12.365,5.24,17.535c0.798,1.145,1.629,2.234,2.48,3.306
			c0.624,2.245,8.1,13.668,8.752,14.252c0.688,1.647,1.449,3.258,2.376,4.772c3.021,4.933,7.528,8.526,12.619,10.46
			c0.865,0.937,1.865,1.751,2.978,2.397c3.003,1.762,6.661,2.233,10.018,1.312c2.784-0.769,5.459-2.56,7.14-4.963
			c0.16-0.09,0.322-0.167,0.481-0.261c1.354,0.272,2.749,0.428,4.173,0.438c0.316,0.002,0.633,0.012,0.949,0.017
			c1.55,1.376,3.203,2.393,4.952,3.252c0.58,1.533,1.504,2.938,2.652,4.144c1.037,2.971,3.604,4.341,7.693,4.341
			c1.829,0,3.347,0.52,4.565-0.271c0.305-0.062,0.605-0.135,0.905-0.219c0.023,0.007,0.048,0.02,0.07,0.023
			c0.812,0.223,1.591,0.345,2.36,0.399c1.457,0.562,3.02-0.13,4.628-0.13c3.711,0,7.153-0.619,9.604-3.271
			c1.223-0.11,2.457-0.434,3.651-0.943c2.528-1.087,5.104-2.27,6.545-4.792c1.935-0.553,3.661-1.879,4.732-4.122
			c5.046-2.735,8.438-7.172,10.621-12.334c0.771-0.883,1.521-1.789,2.245-2.763c1.741-2.344,2.487-5.21,3.164-8.063
			c0.356-0.662,0.649-1.402,0.849-2.256c0.229-1.007,0.531-1.989,0.855-2.963c1.219-1.502,1.97-3.448,2.195-5.547
			c0.021-0.218,0.062-0.432,0.096-0.646c0.628-1.719,1.18-3.463,1.531-5.276c1.748-4.278,3.607-8.647,4.319-13.814
			c1.299-9.434,1.581-19.037,2.554-28.51C766.409,204.947,765.979,203.481,765.182,202.214z M635.707,260.956
			C634.227,258.387,634.807,257.906,635.707,260.956L635.707,260.956z"/>
	</g>
</g>
<g id="Outlines">
	<g>
		
			<path fill="none" stroke="#000000" stroke-width="0.75" stroke-linecap="round" stroke-linejoin="round" stroke-miterlimit="10" d="
			M758.119,148.158c0.509-2.979-2.932-6.401-4.296-8.76c-2.12-3.668-4.312-7.317-6.748-10.776
			c-2.627-3.724-5.158-7.684-8.493-10.696c-4.04-3.648-8.514-7.354-13.48-9.283c-4.696-1.825-9.598-3.146-14.076-5.613
			c-0.69-0.38-1.771-0.053-2.667-0.053c-8.988,0-17.983,0.209-26.962-0.076c-5.661-0.18-10.626,1.48-15.137,4.511
			c-4.652,3.13-8.814,7.025-13.585,9.95c-3.702,2.272-4.511,6.277-6.909,9.29c-3.322,4.173-5.998,8.873-8.834,13.42
			c-0.978,1.567-1.641,3.336-2.383,5.041c-1.266,2.908-2.981,5.736-3.604,8.783c-1.08,5.31,1.688,8.996,6.332,11.574
			c1.404,4.923,1.843,9.663-0.879,11.857c0.177,1.592,0.476,3.056,0.479,4.521c0.038,12.134-0.278,24.278,0.143,36.397
			c0.229,6.622,0.736,13.312,1.49,19.856c0.877,7.619,1.826,15.602,6.49,22.271c1.608,2.301,3.115,4.748,5.091,6.702
			c5.254,5.192,10.534,10.402,16.217,15.108c2.885,2.39,6.486,4.332,10.081,5.287c2.67,0.709,2.43,2.308,3.09,4.622
			c-2.936,1.604-5.94,3.69-9.271,4.851c-1.431,0.493-3.636-0.739-5.308-1.562c-2.347-1.147-4.61-2.516-6.746-4.021
			c-5.284-3.726-10.35-7.513-13.297-13.729c-2.126-4.479-5.48-8.381-8.295-12.533c-1.227-1.806-2.352-3.694-3.732-5.372
			c-2.376-2.87-2.442-6.479-3.307-9.807c-4.913-18.896-1.885-38.187-2.771-57.287c-0.229-4.904,1.189-9.263,3.164-13
			c2.236-0.686,4.104-1.259,5.972-1.832"/>
		
			<path fill="none" stroke="#000000" stroke-width="0.75" stroke-linecap="round" stroke-linejoin="round" stroke-miterlimit="10" d="
			M754.193,161.624c-1.736,3.578,0.203,6.811,1.074,10.094c0.368,1.386,1.554,2.053,3.303,2.143c2.106,0.108,4.179,0.981,6.55,1.597
			c0.202,3.562,0.494,6.492,0.511,9.423c0.061,10.673,0.133,21.348-0.013,32.02c-0.113,8.346-1.49,16.542-3.657,24.609
			c-1.535,5.71-2.857,11.479-4.442,17.173c-0.488,1.77-1.521,3.388-2.312,5.068c-3.034,6.471-6.011,12.975-10.12,18.869
			c-0.268,0.385-0.665,0.68-1.002,1.017c-3.595,3.599-7.154,7.229-10.797,10.774c-3.004,2.926-6.45,5.058-10.773,5.415
			c-0.344,0.025-0.787,0.109-0.994,0.342c-2.7,2.98-6.24,2.753-9.792,2.7c-5.056-0.075-10.108-0.021-15.481-0.021
			c-2.077-3.158-4.116-6.566-6.511-9.708c-0.672-0.881-2.354-1.186-3.629-1.361c-2.107-0.296-4.264-0.274-6.396-0.39"/>
		
			<path fill="none" stroke="#000000" stroke-width="0.75" stroke-linecap="round" stroke-linejoin="round" stroke-miterlimit="10" d="
			M715.096,133.312c-4.483-0.045-8.396,1.202-11.498,4.685c-0.989,1.115-2.434,1.831-3.669,2.73"/>
		
			<path fill="none" stroke="#000000" stroke-width="0.75" stroke-linecap="round" stroke-linejoin="round" stroke-miterlimit="10" d="
			M699.929,141.75c-2.472-1.741-9.169-4.99-11.848-6.312c-1.986-0.98-4.432-1.281-6.693-1.378c-2.457-0.105-4.999,0.117-7.396,0.669
			c-2.544,0.586-5.176,1.371-7.382,2.708c-3.501,2.123-6.755,4.409-7.271,9.341c-0.473,4.54,2.999,10.622,7.555,11.488
			c1.928,0.366,3.804,1.11,5.736,1.292c5.95,0.562,10.995-1.551,15.94-4.859c2.514-1.682,5.402-3.906,8.994-3.174
			c1.812,0.37,3.793,0.539,5.349,1.417c2.207,1.246,4.432,2.776,6.045,4.694c3.604,4.288,9.007,5.755,13.235,9.014
			c0.28,0.217,0.933,0.163,1.314,0.006c2.378-0.967,4.961-1.665,7.028-3.097c2.562-1.775,4.979-4.462,4.635-7.651
			c-0.575-5.327-0.858-10.871-4.222-15.533c-2.442-3.389-5.526-5.474-9.787-5.773c-0.702-0.049-5.397-0.843-6.071-1.292"/>
		
			<path fill="none" stroke="#000000" stroke-width="0.75" stroke-linecap="round" stroke-linejoin="round" stroke-miterlimit="10" d="
			M173.902,234.764c2.121,1.7,4.678,1.061,7.068,1.415c3.019,0.452,5.969,1.378,8.941,2.128c4.94,1.246,9.85,1.741,14.659-0.518
			c0.59-0.277,1.325-0.532,1.658-1.023c3.099-4.576,6.604-9.125,5.33-15.125c-0.409-1.925-1.783-3.72-2.979-5.384
			c-1.295-1.803-2.898-3.384-4.681-5.421c-4.375,0-9.104,0.17-13.815-0.055c-3.608-0.172-7.433-0.203-10.734-1.438
			c-5.542-2.073-11.087-2.917-16.896-2.471c-6.24,3.164-5.002,9.009-5.072,14.412c-0.046,3.532,1.849,6.198,4.458,7.988
			c2.486,1.708,5.548,2.572,8.356,3.81c1.013,0.444,2.022,0.896,3.034,1.349"/>
		
			<path fill="none" stroke="#000000" stroke-width="0.75" stroke-linecap="round" stroke-linejoin="round" stroke-miterlimit="10" d="
			M517.021,264.424c-0.429,3.38,0.594,6.066,3.705,7.753c3.709,0,7.415-0.023,11.123,0.006c5.613,0.051,10.385-1.735,14.562-5.665
			c2.56-2.403,5.656-4.318,8.721-6.097c7.104-4.111,11.927-10.315,15.678-17.306c1.319-2.454,1.349-5.759,1.43-8.69
			c0.188-6.96-0.204-13.943,0.156-20.89c0.226-4.277-0.983-7.239-4.424-9.853c-4.421-3.361-4.809-5.907-3.086-10.217
			c2.481-2.508,4.381-4.427,6.201-6.267c-1.906-6.259-3.547-12.268-5.577-18.143c-2.224-6.438-5.214-12.447-11.061-16.554
			c-3.347-2.348-6.372-5.185-9.852-7.296c-2.151-1.308-4.854-1.781-7.361-2.429c-3.454-0.894-6.953-1.624-10.444-2.371
			c-0.99-0.212-2.019-0.329-3.03-0.337c-4.493-0.035-8.995-0.175-13.479,0.021c-7.084,0.311-14.182,0.657-21.228,1.408
			c-2.98,0.318-5.854,1.701-8.771,2.6"/>
		
			<path fill="none" stroke="#000000" stroke-width="0.75" stroke-linecap="round" stroke-linejoin="round" stroke-miterlimit="10" d="
			M463.768,153.198c-1.123,1.91-2.404,3.748-3.305,5.759c-0.479,1.072-0.802,2.733-0.299,3.619c1.129,1.986,2.646,3.837,4.316,5.411
			c2.771,2.611,3.012,3.347,0.972,6.444c-0.789,1.199-1.592,2.39-1.974,2.962c-3.354,0.571-5.94,1.011-8.994,1.53
			c-0.518,3.886-1.261,7.605-1.44,11.352c-0.247,5.044-0.36,10.131,0.014,15.159c0.479,6.427,1.49,12.814,2.286,19.217
			c0.914,7.349,3.689,14.075,7.117,20.542c1.204,2.271,2.673,4.478,4.388,6.385c2.862,3.186,6.112,6.021,9.029,9.163
			c3.604,3.88,8.479,5.756,12.896,8.294c2.101,1.207,4.856,1.575,7.354,1.722c4.502,0.264,7.271-2.681,7.41-7.341"/>
		
			<path fill="none" stroke="#000000" stroke-width="0.75" stroke-linecap="round" stroke-linejoin="round" stroke-miterlimit="10" d="
			M144.073,238.135c-0.044-1.585-0.912-3.619-2.057-5.154c-1.451-1.946-2.121-4.566-2.778-6.994
			c-0.684-2.521-0.44-5.391-1.505-7.689c-2.356-5.09-1.61-9.656,0.999-14.614c0.909,0.604,1.496,1.065,2.145,1.411
			c2.028,1.081,5.354,0.366,6.399-1.338c1.393-2.273,0.819-4.263-1.679-6.075c-1.352-0.98-2.64-2.048-4.262-3.314
			c0.65-3.482,1.409-6.802,1.857-10.164c0.438-3.287-0.78-6.736,1.663-9.818c1.669-2.104,2.63-4.755,4.129-7.014
			c5.75-8.667,15.071-10.21,24.259-11.729c3.171-0.524,6.513,0.087,9.758-0.125c4.297-0.282,8.208,1.051,12.132,2.415
			c2.719,0.945,5.358,2.133,8.102,2.993c4.651,1.457,9.124,2.999,11.144,8.105c0.829,2.094,2.908,4.104,2.803,6.068
			c-0.188,3.521,4.319,10.983,1.201,12.459l-6.882-0.887"/>
		
			<path fill="none" stroke="#000000" stroke-width="0.75" stroke-linecap="round" stroke-linejoin="round" stroke-miterlimit="10" d="
			M726.556,123.706c-5.981-2.173-12.372-4.269-18.478-6.098c-5.623-1.685-11.261-3.42-16.868-2.28
			c-4.783,0.973-9.776,0.013-14.1,1.437c-3.596,1.183-8.148-0.504-10.935,3.37c-0.953,1.327-2.461,2.244-3.651,3.412
			c-1.735,1.697-2.635,4.377-5.736,4.453c-0.688,0.017-1.502,0.933-2,1.623c-4.293,5.941-9.839,11.15-11.156,18.855
			c-0.04,0.237-0.237,0.443-0.324,0.677c-1.913,5.167-3.82,10.335-5.73,15.503"/>
		
			<path fill="none" stroke="#000000" stroke-width="0.75" stroke-linecap="round" stroke-linejoin="round" stroke-miterlimit="10" d="
			M375.01,181.847c1.641-1.361,3.282-2.723,4.793-3.976c-4.036-6.342-7.306-12.202-11.292-17.524
			c-3.366-4.493-8.267-7.14-13.707-8.889c-8.585-2.759-17.33-0.608-25.976-1.215c-1.534-0.107-3.138,0.827-4.713,1.268
			c-6.318,1.768-12.715,3.239-17.236,8.726c-2.674,3.245-6.45,5.641-7.414,10.837c1.371,1.161,3.068,2.596,4.764,4.032"/>
		
			<path fill="none" stroke="#000000" stroke-width="0.75" stroke-linecap="round" stroke-linejoin="round" stroke-miterlimit="10" d="
			M462.42,178.477c0,14.043-0.253,28.095,0.154,42.126c0.122,4.186,1.666,8.513,3.427,12.379c0.7,1.537-0.185,4.254,2.485,4.812
			c2.234,8.594,9.021,13.087,15.849,17.517c4.838,3.143,9.974,5.57,15.834,6.074c0.224,0.021,0.525-0.091,0.662,0.021
			c0.684,0.548,1.324,1.146,1.53,1.333c4.321,0,8.442-0.901,11.882,0.246c3.608,1.207,7.087,1.332,10.519,0.979
			c5.961-0.607,12.169-0.979,16.746-5.896c0.828-0.893,2.287-1.228,3.493-1.727c4.589-1.896,8.202-5.215,11.735-8.498
			c3.521-3.271,5.557-7.519,6.152-12.402c0.268-2.156,0.254-4.77,1.476-6.281c1.521-1.89,1.127-3.668,1.155-5.519
			c0.099-5.729,0-11.459,0.065-17.189c0.013-1.126,0.419-2.247,0.644-3.371"/>
		
			<path fill="none" stroke="#000000" stroke-width="0.75" stroke-linecap="round" stroke-linejoin="round" stroke-miterlimit="10" d="
			M143.23,206.114c0,1.124,0.057,2.25-0.009,3.37c-0.306,5.17,0.376,9.954,3.267,14.565c2.459,3.925,3.824,8.521,5.876,12.72
			c1.804,3.692,5.034,4.924,9.063,5.153c4.282,0.248,8.526,1.136,12.646,1.728c4.479-3.263,8.763-2.506,11.39,1.536
			c-0.197,2.579-0.367,4.818-0.514,6.748c5.64,2.788,10.801,3.946,16.25,3.354c2.158-0.234,4.48-0.446,6.37-1.389
			c6.249-3.114,12.46-6.132,16.396-12.623c1.833-3.026,3.622-6.089,5.118-9.255c1.057-2.237,1.534-4.875,1.709-7.375
			c0.273-3.914,0.11-7.86,0.058-11.792c-0.029-2.136,0.474-4.65-0.459-6.329c-2.228-4.009-3.23-8.934-7.729-11.62
			c-2.583,0-5.279,0-8.133,0c-1.413-2.261-4.166-4.131-2.331-7.733c0.339-0.665-1.009-2.175-1.55-3.308
			c-0.26-0.545-0.656-1.123-0.65-1.682c0.09-8.842-5.336-13.666-12.508-17.174c-3.595-1.759-7.414-2.897-11.451-2.683
			c-6.41,0.34-13.144-0.223-19.125,1.608c-6.78,2.075-13.144,6.076-15.925,13.532c-2.065,5.539-3.069,11.266-3.071,17.188
			c0,1.348-0.417,2.696-0.641,4.044"/>
		
			<path fill="none" stroke="#000000" stroke-width="0.75" stroke-linecap="round" stroke-linejoin="round" stroke-miterlimit="10" d="
			M298.836,182.521c-0.787,1.348-1.696,2.641-2.338,4.054c-2.678,5.899-5.867,11.663-5.101,18.531
			c0.161,1.443,0.138,2.929,0.005,4.377c-0.862,9.402,2.636,17.613,6.235,26.035c2.492,5.83,5.816,10.634,10.681,14.354
			c4.048,3.098,8.226,6.319,12.861,8.247c2.834,1.178,6.686,0.299,9.996-0.209c1.891-0.29,3.573-1.784,5.431-2.534
			c0.659-0.266,1.56,0.07,2.319,0.129c0.857,6.912-1.775,9.529-8.399,10.035c-7.76,0.592-14.708-1.315-21.211-5.211
			c-1.884-1.129-3.55-2.732-5.055-4.36c-3.026-3.271-6.227-6.476-8.687-10.151c-2.095-3.137-3.253-6.896-4.827-10.378"/>
		
			<path fill="none" stroke="#000000" stroke-width="0.75" stroke-linecap="round" stroke-linejoin="round" stroke-miterlimit="10" d="
			M554.771,167.354c-1.896-4.495-6.39-6.238-9.84-9.022c-2.839-2.291-6.187-3.974-9.396-5.765c-1.086-0.605-2.438-0.785-3.688-1.039
			c-2.462-0.499-4.925-1.086-7.417-1.313c-2.448-0.225-5.271,0.696-7.33-0.229c-2.88-1.294-5.818-1.707-8.471-1.028
			c-5.508,1.412-11.134,0.477-16.515,1.417c-4.646,0.812-9.879,1.015-13.766,3.958c-3.688,2.798-6.662,6.569-9.838,10.015
			c-1.085,1.177-1.828,2.669-2.727,4.018"/>
		
			<path fill="none" stroke="#000000" stroke-width="0.75" stroke-linecap="round" stroke-linejoin="round" stroke-miterlimit="10" d="
			M370.291,245.55c-0.887,1.32-4.47,1.965-5.073,2.862c-5.999,1.028-11.314,1.938-17.333,2.971c1.835,2.741,3.152,4.709,4.669,6.978
			c1.212,0,2.575-0.104,3.916,0.019c4.875,0.45,9.383-0.62,13.104-3.776c3.019-2.562,5.448-5.829,8.527-8.304
			c3.202-2.568,4.804-6.119,6.208-9.562c2.067-5.07,3.073-10.483,2.901-16.125c-0.26-8.531-0.068-17.075-0.068-26.064
			c-0.968-0.742-2.169-1.662-3.371-2.583l-4.381,1.011c-0.45-0.899-0.899-1.798-1.349-2.697"/>
		
			<path fill="none" stroke="#000000" stroke-width="0.75" stroke-linecap="round" stroke-linejoin="round" stroke-miterlimit="10" d="
			M756.891,174.095c-0.225,1.236-0.638,2.471-0.645,3.708c-0.055,9.55-0.129,19.101,0.004,28.649
			c0.093,6.789-1.037,13.332-2.59,19.919c-0.791,3.354-0.178,6.97-1.408,10.444c-1.671,4.717-2.604,9.688-4.195,14.438
			c-0.836,2.493-2.398,4.742-3.638,7.104"/>
		
			<path fill="none" stroke="#000000" stroke-width="0.75" stroke-linecap="round" stroke-linejoin="round" stroke-miterlimit="10" d="
			M340.968,183.532c1.236,0.337,2.456,0.761,3.711,0.99c1.832,0.335,3.808-0.612,5.478,1.292c0.868,0.991,6.284-0.999,7.272-2.652
			c1.019-1.705,1.037-3.417-0.201-5.411c-2.609-4.203-6.103-6.407-10.749-8.324c-5.473-2.257-10.702-1.142-15.961-1.177
			c-2.852-0.02-5.721,2.23-8.88,3.584c0.358,4.668,2.563,8.02,5.405,11.361c4.594,0,9.091,0,13.588,0"/>
		
			<path fill="none" stroke="#000000" stroke-width="0.75" stroke-linecap="round" stroke-linejoin="round" stroke-miterlimit="10" d="
			M215.359,195.329c1.573,2.471,2.799,5.275,4.786,7.351c5.218,5.448,6.392,12.209,5.139,18.904
			c-1.907,10.184-7.408,18.182-16.909,23.461c-4.107,2.282-7.916,4.112-12.559,3.49c-2.061-0.277-4.05-1.078-6.074-1.637
			c-1.234-0.344-2.471-0.678-3.707-1.015"/>
		
			<path fill="none" stroke="#000000" stroke-width="0.75" stroke-linecap="round" stroke-linejoin="round" stroke-miterlimit="10" d="
			M377.706,189.599c-1.244-1.457-1.636-3.19-2.231-4.986c-1.05-3.169-3.343-5.939-5.195-8.825c-1.97-3.067-3.996-6.1-6.064-9.102
			c-2.906-4.22-6.933-6.794-11.767-8.493c-5.902-2.074-12.046-1.846-17.851-1.042c-6.175,0.854-12.84,1.163-18.207,5.186
			c-1.312,0.984-2.275,2.434-3.398,3.67"/>
		
			<path fill="none" stroke="#000000" stroke-width="0.75" stroke-linecap="round" stroke-linejoin="round" stroke-miterlimit="10" d="
			M744.082,259.031c-3.306,9-7.932,17.218-14.5,24.261c-3.271,3.507-7.627,4.546-12.028,6.028c-3.056,1.024-6.673-0.33-9.255,2.351
			c-0.379,0.396-1.517,0.055-2.303,0.055c-4.157,0-8.315-0.055-12.471,0.03c-1.354,0.028-2.697,0.419-4.045,0.646"/>
		
			<path fill="none" stroke="#000000" stroke-width="0.75" stroke-linecap="round" stroke-linejoin="round" stroke-miterlimit="10" d="
			M312.655,166.68c-5.615,4.122-8.412,10.634-12.328,15.167c-3.29,0-5.789,0.23-8.226-0.057c-3.271-0.384-4.41,1.098-5.38,4.781
			c-0.347,1.316-0.242,2.781-0.73,4.025c-3.284,8.355-2.375,17.138-1.715,25.609c0.497,6.379,2.712,12.824,6.133,18.559"/>
		
			<path fill="none" stroke="#000000" stroke-width="0.75" stroke-linecap="round" stroke-linejoin="round" stroke-miterlimit="10" d="
			M379.729,193.644c0.225,1.124,0.635,2.246,0.644,3.371c0.059,7.302,0.052,14.605,0.02,21.908
			c-0.013,2.797-0.394,5.391-1.379,8.193c-0.996,2.833-2.178,5.722-2.941,8.673c-0.853,3.299-2.64,5.854-5.082,8.103
			c-0.402,0.37-0.475,1.1-0.699,1.659"/>
		
			<path fill="none" stroke="#000000" stroke-width="0.75" stroke-linecap="round" stroke-linejoin="round" stroke-miterlimit="10" d="
			M555.108,168.028c1.461,2.921,2.714,5.971,4.429,8.734c2.854,4.603,4.224,9.67,5.346,14.859"/>
		
			<path fill="none" stroke="#000000" stroke-width="0.75" stroke-linecap="round" stroke-linejoin="round" stroke-miterlimit="10" d="
			M745.936,144.771c-5.003-8.036-10.839-16.277-19.38-21.066"/>
		
			<path fill="none" stroke="#000000" stroke-width="0.75" stroke-linecap="round" stroke-linejoin="round" stroke-miterlimit="10" d="
			M174.239,243.864c0,1.123-0.053,2.251,0.031,3.368c0.026,0.352,0.418,0.677,0.954,1.479c-1.195,0.438-2.289,1.197-3.341,1.146
			c-2.946-0.148-5.896,0.664-8.874-1.1c-1.4-0.828-4.81-0.512-6.832-0.287"/>
		
			<path fill="none" stroke="#000000" stroke-width="0.75" stroke-linecap="round" stroke-linejoin="round" stroke-miterlimit="10" d="
			M745.936,144.771c1.573,4.157,3.416,8.616,4.846,12.823c0.671,1.974,1.539,3.434,3.574,3.814c5.744-3.97,6.22-6.621,3.767-13.25"
			/>
		
			<path fill="none" stroke="#000000" stroke-width="0.75" stroke-linecap="round" stroke-linejoin="round" stroke-miterlimit="10" d="
			M144.073,238.135c1.46,1.688,3.714,4.091,5.238,5.717c1.644,1.757,4.129,4.79,6.867,4.625"/>
		
			<path fill="none" stroke="#000000" stroke-width="0.75" stroke-linecap="round" stroke-linejoin="round" stroke-miterlimit="10" d="
			M480.283,144.097c-2.584,1.46-11.272,4.883-13.793,6.447c-0.626,0.389-0.925,1.306-1.374,1.979"/>
		
			<path fill="none" stroke="#000000" stroke-width="0.75" stroke-linecap="round" stroke-linejoin="round" stroke-miterlimit="10" d="
			M346.75,251.25c-1.348,0.899-6.119,3.175-7.468,4.074"/>
		
			<path fill="none" stroke="#000000" stroke-width="0.75" stroke-linecap="round" stroke-linejoin="round" stroke-miterlimit="10" d="
			M497.136,155.557c-2.135,0.899-4.248,1.852-6.407,2.686c-5.125,1.976-6.51,7.646-2.675,11.452
			c2.146,2.126,4.282,4.363,6.788,5.985c1.809,1.168,4.216,1.404,5.367,1.755c3.417-0.399,6.307,0.002,8.284-1.155
			c2.459-1.441,4.796-1.207,7.176-1.081c1.71,0.09,3.616,0.688,5.011,1.665c2.863,2.008,5.249,4.735,8.204,6.564
			c2.142,1.324,4.835,1.908,7.364,2.39c1.951,0.372,4.03,0.074,6.053,0.074c4.568-4.021,4.968-10.727,1.031-15.521
			c-1.58-1.924-2.708-4.264-4.458-5.994c-2.475-2.447-5.05-5.129-9.042-4.754c-2.832,0.266-5.791-0.871-8.514,1.216
			c-0.795,0.609-2.685,0.117-3.946-0.27c-3.633-1.112-7.308-2.194-10.767-3.734c-3.007-1.337-6.036-1.257-9.136-1.277"/>
	</g>
	
		<path fill="none" stroke="#000000" stroke-width="0.75" stroke-linecap="round" stroke-linejoin="round" stroke-miterlimit="10" d="
		M169.833,187.5c4.5,1,9.792,3.031,14.146,2.099s7.854-0.766,10.854-2.099s4.166-6.5,4.333-8.167s-4.667-5.165-5.5-6.249
		s-4.829-3.584-9.165-2.751s-8.335-0.667-11.668,1.833s-7.5,4.333-7,7.167s1,3.667,1.667,5.333S169.833,187.5,169.833,187.5z"/>
	<path fill="none" stroke="#000000" stroke-linecap="round" stroke-linejoin="round" stroke-miterlimit="10" d="M170.333,184.182
		c1-2.5,0.25-4.841,0.25-4.841l1.625-3.337l3.292-1.67V177l-0.914,3.002l0.513,4.144l2.738-2.812l1.798-5l2.016-3.249l0.823,2.416
		l-1.144,4.502c0,0-0.998,3.623-1.332,4.144s-1.333,1.933-1.333,1.933l1.5,1.588l2.315-2.333l2.094-6.333l1.461-4.833l1.797-1.083
		L189,175.5l-0.833,3.333c0,0-2.428,1.333-2.13,2.5s-0.703,3.71-0.703,3.71l-0.758,1.456H188l1.5-2.5v-2v-3l1-1.958V174l2,3.042V180
		c0,0-0.583,0.86-0.917,1.847c-0.334,0.987,1.292,3.487,1.292,3.487"/>
	<g id="Layer_5">
		
			<path fill="none" stroke="#000000" stroke-width="0.75" stroke-linecap="round" stroke-linejoin="round" stroke-miterlimit="10" d="
			M343.016,198.75C338,197.5,331,194.307,328,196.778c-3,2.471-5.725,4.972-6.362,6.222c-0.637,1.25-3.388,8.5,2.612,12
			s10.916,3.75,14.833,3.5s5.938,0.5,8.802-1.25c2.864-1.75,5.615-6.51,6.115-8.38s3-4.87,0-7.37S343.016,198.75,343.016,198.75z"/>
		<path fill="none" stroke="#000000" stroke-linecap="round" stroke-linejoin="round" stroke-miterlimit="10" d="M325.242,212.234
			c0.75-1.984-0.371-3.423-0.121-4.891c0.25-1.468,0.939-3.03,2.189-4.78s2.22-1.338,3.22-1.81c1-0.472,0.485,0.013-0.015,1.513
			s0.743-0.975-1.007,2.759s-1.718,5.447-1.486,6.963c0.232,1.516-2.77,1.014,0.23,1.514s2.499,2.749,2.999,0.499s1-4.51,1.75-5.13
			s1.876-2.837,2.188-3.854s-2.812-4.073,0-4.295c2.812-0.222,4.718-1.222,4.718-1.222s2.156,1,0,3.25
			c-2.156,2.25-4.529,2.431-4.718,4.84C335,209.999,335,210,335,210s0.377,0.75,0.188,3.25s-2.261,2.249-1.188,3.75
			s4.166,1.75,5.083,0s0.833-2.75,0-3.75s-0.583,0.5-0.833-1s-1.844-3.01-0.297-3.38s1.109-0.935,1.953-1.652
			c0.844-0.717,1.094-0.935,1.844-2.201s-1.5-2.017,0-2.267s3.949-1.75,3.6-0.75s0.034,3.017,0.034,3.017l-3.141,6.967l1.258,2.516
			v1.5l4.385-4.016c0,0-1.885-2.744-1.135-3.114s1.135-2.116,1.135-2.116l1.365-1.738"/>
	</g>
	<g id="Layer_6">
		<path fill="none" stroke="#000000" stroke-linecap="round" stroke-linejoin="round" stroke-miterlimit="10" d="M341,170.781
			c-2.25,0.219-5.5-2.719-7.25,0c-1.75,2.719-3,3.803-1.75,6.261s3.584,3.456,5.167,4.805c1.583,1.349,2.865,0.57,5.849-0.513
			s2.734-1.75,3.734-4.292s1.5-2.123,0-3.958S341,170.781,341,170.781z"/>
		<path fill="none" stroke="#000000" stroke-linecap="round" stroke-linejoin="round" stroke-miterlimit="10" d="M336.917,170.988
			c-0.667,1.47-1.665-0.465-1.854,2.2s0.251,2.947,0.062,3.905s-0.377,2.252,0.031,2.934c0.408,0.682,1.411,1.739,1.994-0.013
			s-0.575-1.175,0.008-2.967s0.243-3.918,0.79-3.753c0.547,0.165,1.957,0.205,1.957,0.205H341c0,0,0.5,2.461,0,2.48
			s-1.56-2.396-1.405,1.062c0.155,3.458-1.095,4.208,0.155,3.458s3.282-0.297,3.266-2.023S342.75,178,343,176.75
			s0.004-2.68,1.25-3.666s1.246-0.985,1.246-0.985L341,170.781"/>
	</g>
	<g id="Layer_8">
		<path fill="none" stroke="#000000" stroke-miterlimit="10" d="M503.54,161.624c-6.54-0.874-8.04-1.624-9.79,1.126
			s-1.25,2.229,0,5.615c1.25,3.386,0.25,4.804,3.25,4.72s3.08,1.084,6.54,0s3.21-1.096,4.46-3.465s4.46-1.929,0-4.962
			C503.54,161.625,503.54,161.624,503.54,161.624z"/>
		<path fill="none" stroke="#000000" stroke-miterlimit="10" d="M497.5,161.624c-1.25,2.376-1.75,1.87-2.75,4.305
			c-1,2.435,0.582,1.09,0,2.436c-0.582,1.346,0.66,2.874,1.205,1.254c0.545-1.62-0.205-2.679,1.545-3.649c1.75-0.97,3-1.312,3-1.312
			s0.158-1.157,0.954-1.157s0.546-1.5,0.796,0s1.158,1.873-0.796,3.687s-1.364,1.947-2.909,3.13s-0.045-0.505,0.955,0.464
			c1,0.969,2.107,0.781,3.179,0c1.072-0.781,2.071-0.801,2.071-2.416c0-1.615-0.75-3.708,1.25-3.708s-0.5,1.216,0,2.529"/>
		<path fill="none" stroke="#000000" stroke-miterlimit="10" d="M531.75,167.187c-2.25-0.687-6.75-1.257-6.75-1.257
			s-1.75,0.8-2.25,2.436c-0.5,1.636,0,3.554,0,4.72s0.75,1.847,1.75,3.006c1,1.159,5,2.386,5,2.386l6.5,1.348c0,0,2-0.121,3-1.348
			s2-4.928,2-4.928l-3-3.929l-2.75-1.254L531.75,167.187z"/>
		<polyline fill="none" stroke="#000000" stroke-miterlimit="10" points="528.5,168.19 525.979,169.711 524.5,170.781 524.5,174 
			526.688,173.084 528.875,171.056 531.764,169.5 532.5,169.5 532.5,171 531.764,173.084 528.5,176.091 530.25,177.042 
			532.5,174.75 534.75,169.619 536.75,171.439 535.75,173.548 532.75,177.042 533.875,178.477 536.5,177.042 536.5,176 
			538.75,172.877 		"/>
	</g>
	<g id="Layer_9">
	</g>
	<g id="Layer_10">
		<path fill="none" stroke="#000000" stroke-miterlimit="10" d="M514.287,190.273c-2.469-0.869-9.457-0.075-10.747-0.674
			s0.907-0.803-2.941,0.674c-3.848,1.477-7.861,4.727-7.979,7.477s2.13,10.25,3.63,12.25s11.25,2.468,15.5,1.984
			s11.5-0.263,12.75-3.124c1.25-2.861,1.25-5.86,0-10.86S515.304,190.631,514.287,190.273z"/>
		<path fill="none" stroke="#000000" stroke-miterlimit="10" d="M512.759,191.621c-0.759,0.879,3.13,3.109,3.188,4.244
			C516.001,197,520,199.5,520,199.5s1,1.75,0,4s-3.447,4.09-3.447,4.09s-0.914-0.557-0.605-1.574
			c0.306-1.017,0.605-4.267,0.605-4.267s2.053-2.5,0-3.25s-4.035-1.52-3.794-2.635c0.241-1.115-2.696-0.635-2.478,0
			c0.218,0.635,2.483,1.885,2.478,3.635s0.009,6.436,0,7.718c-0.009,1.282-2.489,1.643-2.489,1.643s0.271,0.325,0-1.643
			c-0.27-1.968,1.271-8.218,0-8.718c-1.27-0.5-2.94-7.008-3.479-6.879s-2.958,0.916-3.248,2.022s0.96,0.837,1.46,2.222
			c0.5,1.385,2.826,3.385,1.788,4.385s-1.788,3.533-1.288,5.767s4.5,1.494,2.5,2.864s-6.546-0.02-6.546-0.02s-0.796-1.44,0-2.775
			s2.086-3.835,2.086-3.835s-1.132-1.099-2.086-2.299c-0.954-1.2-3.704-2.22-2.454-4.085c1.25-1.865,1.599-5.592,1.599-5.592"/>
	</g>
	<g id="Layer_12">
		
			<path fill="none" stroke="#000000" stroke-width="0.75" stroke-linecap="round" stroke-linejoin="round" stroke-miterlimit="10" d="
			M682.064,142.5c-2.814-1-6.564-1.25-9.064,0s-5.5,1.75-5.25,4.5s-0.5,4.43,1.5,6.09c2,1.66,5,1.66,6.75,1.41
			s5.129-1.25,6.064-2.75c0.935-1.5,3.186-6.707,2.436-6.979S682.064,142.5,682.064,142.5z"/>
		
			<path fill="none" stroke="#000000" stroke-width="0.75" stroke-linecap="round" stroke-linejoin="round" stroke-miterlimit="10" d="
			M679.706,144.771c0.544,1.479,2.294,2.252,1.294,3.365c-1,1.113,1.162,2.613-1.294,3.363s-1.956,2-2.456,0.75s0.25-3.477,0-4.113
			c-0.25-0.636,0.398-3.094-0.176-3.365S672.5,140.75,673,142.5s-2.086,3-0.043,3.25s1.543,0.773,1.293,2.387
			c-0.25,1.614-1.5-0.387-0.25,1.613s4.398,1.821,2.193,3.34s-5.039,1.05-5.222,0.981c-0.18-0.069-0.272-2.321,0-3.071
			c0.275-0.75-3.975-2.021-2.225-2.885c1.75-0.864,2-3.343,2-3.343s-2,1.479-0.25,2.479s0.5,3.75,1.75,4"/>
		
			<path fill="none" stroke="#000000" stroke-width="0.75" stroke-linecap="round" stroke-linejoin="round" stroke-miterlimit="10" d="
			M712.75,144.771c1-0.271,1.812-4.568,4.031-4.045s5.969,0.331,6.969,0.927c1,0.596,2.611,2.596,2.806,4.096
			c0.195,1.5,4.444,6.49,2.694,8.87s-3,6.13-5.25,5.13s-8.059-3.76-8.904-5.13c-0.845-1.37-2.846-3.021-2.346-4.321
			C713.25,148.998,712.75,144.771,712.75,144.771z"/>
		<path fill="none" stroke="#000000" stroke-linecap="round" stroke-linejoin="round" stroke-miterlimit="10" d="M716.93,142.037
			c2.058-1.013,5.852,1.463,5.852,1.463s-1.259,0.543-2.999,1.271c-1.742,0.728-4.319,0.479-4.665,2.229
			c-0.349,1.75-0.009,3.299-0.009,3.299l4.646-4.253l4.497-1.275c0,0,4.61,2.002,2.305,3.365c-2.305,1.363-3.852,0-3.852,0
			s-7.609,3.423-7.609,4.953c0,1.53-0.283,2.546,1.688,1.103c1.969-1.443,1.719,0.737,3.219-1.103c1.5-1.84,3-3.991,3.75-2.791
			c0.75,1.2,2.806,0,2.806,0l0.646,2.791l-2.451,1.103l-6.5,0.427l2.821,1.88H723l4.202-1.88l-2.452,3.63"/>
	</g>
	<g id="Layer_14">
		<path fill="none" stroke="#000000" stroke-linecap="round" stroke-linejoin="round" stroke-miterlimit="10" d="M677.75,193
			c1.5-1.25,3.801-7.25,6.9-7.5c3.099-0.25,17.85-1.5,19.6,0s10.416,11.901,10.708,14.451c0.292,2.55,1.983,15.799,0.138,19.299
			c-1.845,3.5-5.912,11.268-12.129,13.009S693.25,234,688,231s-8-8.75-10.25-11.5s-3.371-8.5-2.936-11.5c0.435-3-1.938-10,0-11.5
			C676.75,195,677.75,193,677.75,193z"/>
		<path fill="none" stroke="#000000" stroke-linecap="round" stroke-linejoin="round" stroke-miterlimit="10" d="M679.706,196
			c2.544-1.5,8.544-3.258,11.794-4.379s9.184-2.129,11.467,0s5.533,4.879,5.783,6.129s1.023,6.4-1.238,4.825
			c-2.261-1.575-6.401-4.075-7.583-4.575c-1.179-0.5-4.882-3.254-7.527-1.377c-2.648,1.877-11.986,3.028-12.692,3.328
			c-0.706,0.3-2.794,3.549,0,5.049s7.044,0.75,8.294,0s3.717-3.1,7.483-2.425c3.766,0.675,4.447-0.825,7.48,1.175
			s10.125-0.33,9.704,2.335s-0.421,6.665-2.921,6.915s-3-3.037-4.25-3.894s-4.5-3.687-6.5-3.021s-5.203,0.415-6.604,1.415
			c-1.396,1-7.348,0.963-7.745,1.606c-0.4,0.643-4.738,0.894-4.944,2.644s-1.794,3.75,0,5.5s5.095,1.75,4.944,0
			c-0.151-1.75-2.853-3.5,0-4.25c2.85-0.75,11.299-4,11.571-2.75c0.275,1.25,5.459,1.5,6.742,2.75s7.033,2.702,7.783,3.226
			s1,2.024-0.5,3.524s-5.5,0-5.5,0s-0.646-0.75-4.821-2.25s-8.968-3.048-10.447-1.274s-4.181,2.638-4.828,5.081
			c-0.65,2.443-0.9,2.443,1.1,2.693s0.461-4.136,3.729-2.693c3.271,1.443,10.448,1.193,10.448,1.193s4.821,0.521,6.571,1.51
			c1.75,0.989,0.184,4.24-3.533,3.49s-6.729-1-7.973-1.75s-4.783-1.5-5.517-0.25c-0.729,1.25-2.479,3.25,1.521,4s6.604,0.5,8.929,0"
			/>
		<g>
			<g>
				<path fill="none" stroke="#000000" stroke-linecap="round" stroke-linejoin="round" stroke-miterlimit="10" d="M864,420"/>
			</g>
		</g>
		<g>
			<g>
				<path fill="none" stroke="#000000" stroke-linecap="round" stroke-linejoin="round" stroke-miterlimit="10" d="M960,382"/>
			</g>
		</g>
	</g>
	<g id="Layer_13">
	</g>
	<line fill="#BBBBBB" stroke="#BBBBBB" stroke-miterlimit="10" x1="122.5" y1="196.5" x2="141.5" y2="199.5"/>
	<line fill="#BBBBBB" stroke="#BBBBBB" stroke-miterlimit="10" x1="151.5" y1="137.5" x2="184.574" y2="179.002"/>
	<line fill="#BBBBBB" stroke="#BBBBBB" stroke-miterlimit="10" x1="216.5" y1="141.5" x2="201.5" y2="163.5"/>
	<line fill="#BBBBBB" stroke="#BBBBBB" stroke-miterlimit="10" x1="231.5" y1="244.5" x2="193.5" y2="226.5"/>
	<line fill="#BBBBBB" stroke="#BBBBBB" stroke-miterlimit="10" x1="363.5" y1="134.5" x2="344.25" y2="173.084"/>
</g>
<g id="labels">
	<text transform="matrix(1 0 0 1 93.5 198.5)" font-family="'Helvetica'" font-size="10">porex</text>
	<text transform="matrix(1 0 0 1 236.5 248.5)" font-family="'Helvetica'" font-size="10">vacuole</text>
	<text transform="matrix(1 0 0 1 131.5 133.5)" font-family="'Helvetica'" font-size="10">nucleus</text>
	<text transform="matrix(1 0 0 1 203.5 137.5)" font-family="'Helvetica'" font-size="10">cell wall</text>
	<text transform="matrix(1 0 0 1 335.5 130.5)" font-family="'Helvetica'" font-size="10">generative cell</text>
	<text transform="matrix(1 0 0 1 129.5 339.5)" font-family="'Helvetica'" font-size="10">Uninucleate Microphore</text>
	<text transform="matrix(1 0 0 1 299.5 340.5)" font-family="'Helvetica'" font-size="10">Bicellular Pollen</text>
	<text transform="matrix(1 0 0 1 471.5 340.5)" font-family="'Helvetica'" font-size="10">Tricellular Pollen</text>
	<text transform="matrix(1 0 0 1 655.5 340.5)" font-family="'Helvetica'" font-size="10">Mature Pollen Grain</text>
</g>
</svg>
