<?xml version="1.0" encoding="utf-8"?>
<!-- Generator: Adobe Illustrator 16.0.0, SVG Export Plug-In . SVG Version: 6.00 Build 0)  -->
<!DOCTYPE svg PUBLIC "-//W3C//DTD SVG 1.1//EN" "http://www.w3.org/Graphics/SVG/1.1/DTD/svg11.dtd">
<svg version="1.1" id="Layer_1" xmlns="http://www.w3.org/2000/svg" xmlns:xlink="http://www.w3.org/1999/xlink" x="0px" y="0px"
	 width="100%" viewBox="0 0 900 600" enable-background="new 0 0 900 600" xml:space="preserve">
<g id="labels">
	<text transform="matrix(1 0 0 1 98.5518 354.5)" font-family="'Helvetica'" font-size="10">Col-0</text>
	<text transform="matrix(1 0 0 1 75.7568 366.5)" font-family="'Helvetica'" font-size="10">Processed Leaf</text>
	<text transform="matrix(1 0 0 1 73.271 378.5)" font-family="'Helvetica'" font-size="10">(minu trichomes)</text>
	<text transform="matrix(1 0 0 1 282.5518 359.5)" font-family="'Helvetica'" font-size="10">Col-0</text>
	<text transform="matrix(1 0 0 1 460.7734 359.5)" font-family="'Helvetica'" font-size="10">gl3-sst</text>
	<text transform="matrix(1 0 0 1 604.6084 359.5)" font-family="'Helvetica'" font-size="10">gl3-sst sim</text>
	<text transform="matrix(1 0 0 1 758.3223 359.5)" font-family="'Helvetica'" font-size="10">gl3-sst nok</text>
</g>
<g id="samples">
	<g id="WT_Col-0_leaves_after_trichome_removal" fill="#FFFFFF" >
		<path d="M172.932,195.818c-1.762-1.762-4.594-1.695-6.364,0c-0.041,0.041-0.085,0.078-0.127,0.117
			c-0.763-0.219-1.583-0.254-2.387-0.024c-0.375,0.107-0.75,0.222-1.125,0.336c-1.049-0.198-2.133-0.142-3.173,0.271
			c-6.869,2.732-14.226,2.468-21.012,5.708c-6.159,2.941-10.562,8.359-15.298,13.221c-1.728,1.774-3.313,2.788-3.124,4.688
			c-0.016,0.027-0.034,0.052-0.049,0.08c-0.597,1.098-1.099,2.246-1.537,3.418c-5.729,7.632-8.875,16.4-13.713,24.582
			c-0.776,1.313-1.102,2.604-1.093,3.818c-0.782,1.39-1.77,2.654-2.703,3.949c-0.431,0.601-0.561,1.312-0.477,2.019
			c-0.243,0.044-0.468,0.192-0.614,0.494c-1.31,2.695-3.751,4.5-5.594,6.798c-0.071,0.088-0.119,0.181-0.157,0.273
			c-0.443,0.092-0.854,0.301-1.153,0.666c-1.017,1.24-2.252,2.251-3.5,3.25c-0.641,0.513-0.824,1.365-0.681,2.157
			c-0.348,0.128-0.658,0.351-0.888,0.654c-0.933,0.186-1.663,0.945-1.663,1.954c0,0.38,0.122,0.751,0.325,1.07
			c-0.532,0.578-0.316,1.739,0.675,1.68c0.498-0.031,0.948-0.312,1.133-0.771c1.191-0.092,2.237-0.653,2.844-1.72
			c0.146-0.257,0.225-0.534,0.251-0.812c0.541-0.072,1.076-0.31,1.54-0.681c1.248-0.999,2.483-2.008,3.5-3.25
			c0.126-0.152,0.233-0.317,0.328-0.485c0.037-0.023,0.075-0.044,0.111-0.073c1.068-0.859,1.987-1.843,2.84-2.884
			c1.872-0.975,3.375-2.403,4.872-3.859c0.245,0.104,0.536,0.099,0.835-0.101c0.964-0.645,1.917-1.302,2.856-1.978
			c0.823-0.429,1.512-0.672,2.42-1.057c2.144,0.256,4.367-0.383,6.037-2.293c4.24-0.577,8.118-2.028,11.95-3.609
			c0.323,0.043,0.649,0.072,0.982,0.071c2.074-0.009,4.002-0.437,5.785-1.522c0.914-0.56,1.667-1.298,2.266-2.135
			c1.607-0.543,3.247-1.014,4.942-1.36c2.768-0.566,4.377-2.204,5.042-4.187c9.879-6.736,17.781-16.331,21.446-27.801
			c0.13-0.409,0.213-0.808,0.269-1.202c0.814-1.813,1.481-3.668,1.682-5.79c0.152-0.306,0.329-0.622,0.543-0.967
			c1.162-1.871,1.383-3.703,0.984-5.325c0.235-0.487,0.364-1.017,0.417-1.559C174.661,199.919,174.474,197.359,172.932,195.818z"/>
	</g>
	<g id="WT_Col-0_trichomes" fill="#FFFFFF" >
		<path d="M365,229.25c-0.199,0-0.357,0.059-0.495,0.14c-0.231-0.148-0.512-0.211-0.771-0.104
			c-0.497,0.205-0.98,0.438-1.462,0.674c-0.625-0.742-1.653-0.863-2.531-0.437c-0.744,0.362-1.52,0.665-2.277,1.001
			c-0.842-0.352-1.838-0.3-2.728,0.135c-1.161,0.567-2.392,0.983-3.783,1.448c-10.821,4.51-22.005,8.022-33.034,11.968
			c-0.723-0.071-1.482,0.059-2.186,0.402c-1.06,0.517-2.163,0.928-3.287,1.284c-0.278-0.137-0.567-0.251-0.868-0.333
			c-1.148-0.316-2.155-0.161-3.183,0.226c0.129-0.055,0.258-0.109,0.388-0.164c-0.303,0.119-0.598,0.237-0.895,0.354
			c-0.024-0.142-0.042-0.283-0.068-0.425c-0.118-0.636-0.392-1.202-0.768-1.691c0.889-4.263,1.625-8.545,1.868-12.904
			c0.047-0.198,0.079-0.407,0.079-0.638c0-1.804,0.136-3.569,0.361-5.311c0.141-0.214,0.253-0.448,0.299-0.713
			c0.315-1.793,0.745-3.563,0.82-5.387c1.279-5.637,3.032-11.163,3.77-17.027c0.027-0.216,0.025-0.414,0.006-0.601
			c1.446-3.653,2.791-7.318,2.994-11.399c0.013-0.251-0.016-0.476-0.061-0.687c0.519-0.19,0.972-0.535,1.22-1.051
			c0.528-1.103,0.989-2.468,0.502-3.676c-0.111-0.277-0.233-0.523-0.38-0.75c0.795-0.821,0.455-2.586-1.03-2.586
			c-0.99,0-1.47,0.785-1.447,1.553c-0.073,0.013-0.146,0.017-0.218,0.037c-0.725,0.199-1.391,0.817-1.694,1.554
			c-0.385,0.182-0.693,0.523-0.838,0.958l-0.75,2.25c-0.124,0.372-0.059,0.762,0.122,1.091c-0.24,0.353-0.4,0.785-0.426,1.308
			c-0.043,0.869-0.148,1.727-0.296,2.576c-0.475,0.199-0.891,0.568-1.132,1.142c-1.638,3.894-2.952,7.909-4,12
			c-0.129,0.504-0.069,0.946,0.104,1.316c-0.163,0.463-0.322,0.927-0.468,1.393c-1.896,6.037-3.666,12.32-4.894,18.591
			c-0.279,0.47-0.472,1.022-0.527,1.669c-0.146,0.163-0.277,0.342-0.376,0.548c-0.58,1.202-0.979,2.427-1.302,3.717
			c-0.034,0.136-0.046,0.273-0.062,0.41c-0.4,0.442-0.715,0.973-0.902,1.574c-0.305,0.982-0.435,1.974-0.569,2.992
			c-0.042,0.321-0.081,0.642-0.117,0.964c-0.019,0.165-0.037,0.33-0.056,0.494c-0.003,0.02-0.004,0.027-0.007,0.049
			c-0.004,0.024-0.003,0.049-0.006,0.073c-0.001,0.009-0.002,0.017-0.003,0.026c0.001-0.005,0.001-0.007,0.002-0.012
			c-0.084,0.6-0.069,1.193,0.037,1.756c-0.576,0.583-1.014,1.309-1.244,2.142c-0.236,0.857-0.422,1.734-0.573,2.618
			c-0.312,0.358-0.597,0.745-0.832,1.176c-0.054,0.099-0.102,0.203-0.155,0.303c-5.757-1.125-11.28-3.296-16.726-5.702
			c-0.459-0.335-1.002-0.575-1.596-0.712c-2.673-1.203-5.331-2.441-7.991-3.625c-0.534-0.35-1.054-0.693-1.541-1
			c-0.707-0.448-1.402-0.602-2.043-0.547c-0.245-0.102-0.49-0.208-0.735-0.308c-0.423-1.061-1.472-1.878-2.903-1.533
			c-0.639,0.154-1.28,0.272-1.922,0.373c-0.554-0.403-1.246-0.589-1.911-0.408c-1.153-0.268-2.306-0.523-3.503-0.554
			c-1.041-0.026-1.977,0.471-2.623,1.223c-2.3-0.12-4.604-0.326-6.906-0.439c-6.146-0.304-12.325,0.633-18.472,0.716
			c-1.295,0.018-2.061,0.839-2.315,1.809c-0.989,0.039-1.97,0.039-2.935-0.059c-0.587-0.06-0.992,0.181-1.218,0.546
			c-0.166-0.03-0.342-0.046-0.532-0.046c-2,0-2,4,0,4c1.235,0,1.953-0.68,2.171-1.478c1.194,0.086,2.368,0.018,3.536-0.109
			c0.351,0.211,0.776,0.343,1.292,0.336c6.166-0.083,12.302-0.837,18.472-0.716c2.452,0.048,4.859,0.222,7.254,0.333
			c0.617,0.528,1.408,0.861,2.274,0.883c0.085,0.002,0.306,0.023,0.436,0.032c0.258,0.049,0.516,0.098,0.771,0.156
			c0.622,0.141,1.238,0.306,1.862,0.437c0.614,0.128,1.228,0.103,1.8-0.04c0.43,0.746,1.095,1.387,2.067,1.772
			c9.844,3.901,19.332,9.431,29.656,11.91c0.555,0.91,1.3,1.739,2.196,2.306c0.181,1.551,0.554,2.909,1.443,4.131
			c-0.405,1.904-0.48,3.854-0.481,5.799c0,0.022,0.006,0.044,0.007,0.067c-0.197,0.562-0.432,1.117-0.711,1.664
			c-0.537,1.053-0.571,2.069-0.301,2.969c-0.031,0.082-0.074,0.148-0.102,0.236c-2.729,8.606-9.19,12.962-17,15.555
			c-1.036,0.046-2.076-0.001-3.111-0.17c-1.331-0.217-2.252,0.754-2.461,1.777c-0.779,0.314-1.34,0.812-1.705,1.405
			c-0.132,0.008-0.266,0.029-0.397,0.065c-1.057,0.291-1.677,1.407-1.397,2.46c0.35,1.312,1.07,2.421,2.015,3.383
			c0.666,0.678,1.738,0.755,2.51,0.256c0.523,0.096,1.098,0.086,1.718-0.062c2.495-0.598,4.896-1.326,7.188-2.199
			c0.241,0.125,0.495,0.217,0.758,0.279c0.375,0.522,0.917,0.954,1.638,1.236c-1.576,2.817-2.329,6.391-2.648,9.324
			c-0.173,1.584,1.29,2.176,2.498,1.801c0.393,0.058,0.823-0.025,1.262-0.324c1.425-0.964,2.594-2.174,3.647-3.49
			c0.214-0.043,0.42-0.119,0.603-0.26c0.838-0.637,1.647-1.308,2.395-2.031c0.505,0.735,1.032,1.403,1.687,1.973
			c-0.023,0.14-0.038,0.277-0.06,0.416c-0.043,0.285-0.084,0.569-0.138,0.854c-0.018,0.099-0.013,0.186-0.025,0.278
			c-0.305,2.479-0.33,4.92-0.049,7.461c-0.022,2.208,0.408,4.327,0.734,6.725c0.182,1.336,1.647,1.336,2.426,0.567
			c0.144,0.047,0.29,0.087,0.438,0.116c1.501,1.062,3.682,1.177,5.057-0.052c0.363,0.197,0.808,0.265,1.174,0.164
			c0.861-0.236,1.165-1.036,1.047-1.847c-0.161-1.114-0.369-2.202-0.669-3.271c0.034-0.652,0.042-1.304,0.009-1.953
			c0.72,0.63,1.674,1.021,2.713,1.125c4.014,0.399,7.903-1.302,9.6-5.105c0.132-0.296,0.232-0.591,0.338-0.886
			c3.604,0.08,7.206,0.557,10.227-1.845c0.848-0.673,0.714-2.132,0-2.828c-1.252-1.222-2.603-2.317-4.02-3.336
			c0.578-0.512,1.006-1.187,1.212-1.937c0.254-0.926,0.213-2.283-0.403-3.082c-0.091-0.118-0.176-0.218-0.264-0.326
			c0.841-2.646-1.228-6.205-4.754-5.265c-0.078,0.021-0.118,0.037-0.167,0.056c-0.049-0.028-0.124-0.062-0.26-0.099
			c0.256,0.146,0.16,0.102-0.289-0.138c-0.421-0.213-0.813-0.483-1.205-0.745c-0.535-0.355-1.064-0.77-1.612-1.197
			c-0.3-0.551-0.74-1.061-1.385-1.474c-0.43-0.273-0.853-0.634-1.255-1.05c-1.309-2.264-2.044-4.938-2.014-7.246
			c0.015-1.122-0.365-1.984-0.948-2.618c0.122-3.868,0.37-7.763-0.052-11.632c-0.06-0.545-0.219-1.021-0.43-1.449
			c0.134-0.592,0.293-1.179,0.49-1.761c0.023-0.056,0.036-0.114,0.058-0.171c0.223-0.64,0.48-1.274,0.769-1.909
			c1.493-0.848,2.981-1.704,4.464-2.568c0.058-0.024,0.116-0.048,0.173-0.072c0.22-0.103,0.429-0.232,0.626-0.389
			c1.447-0.844,2.901-1.672,4.365-2.482c0.229,0.042,0.471,0.064,0.736,0.054c5.884-0.252,10.908-3.683,15.736-6.734
			c1.02-0.371,2.034-0.753,3.028-1.176c0.265-0.113,0.482-0.251,0.676-0.4c3.202-1.132,6.39-2.3,9.557-3.528
			c0.311,0.072,0.655,0.051,1.01-0.117c4.83-2.289,9.987-3.148,14.304-6.485c0.505-0.391,0.604-0.881,0.463-1.322
			c0.077-0.042,0.156-0.078,0.231-0.125c0.208-0.129,0.32-0.302,0.39-0.483c0.124-0.055,0.246-0.114,0.371-0.166
			c0.078-0.032,0.144-0.08,0.213-0.124c0.143,0.091,0.308,0.159,0.521,0.159C366.29,231.25,366.29,229.25,365,229.25z"/>
	</g>
	<g id="gl3-sst_mutant_trichomes" fill="#FFFFFF" >
		<path d="M521.438,239.882c-0.306-0.489-0.861-0.797-1.587-0.579c-0.187,0.056-0.363,0.127-0.55,0.188
			c-0.63-0.554-1.521-0.786-2.6-0.384c-1.833,0.684-3.603,1.514-5.307,2.459c-0.452-0.172-0.959-0.196-1.485-0.061
			c-0.173-0.016-0.358-0.007-0.561,0.048c-1.395,0.383-2.742,0.868-4.074,1.393c-0.325-0.513-0.684-1.006-1.103-1.449
			c0.11-0.579,0.291-1.166,0.325-1.747c0.063-1.111,0.134-2.213,0.201-3.312c0.104-0.147,0.192-0.323,0.245-0.539
			c0.544-2.269,0.759-4.501,0.25-6.798c-0.046-0.205-0.124-0.373-0.223-0.516c-0.026-0.273-0.104-0.513-0.238-0.699
			c0.068-0.163,0.145-0.325,0.211-0.487c0.733-1.79-2.168-2.562-2.895-0.798c-0.684,1.664-1.455,3.244-1.911,4.933
			c-0.559,0.202-1.075,0.586-1.481,1.202c-1.461,2.218-2.807,4.51-4.264,6.73c-1.771,0.731-3.341,2.011-4.418,3.742
			c-0.613,0.987-1.185,2-1.752,3.014c-0.854,0.206-1.703,0.499-2.522,0.894c-0.552,0.266-1.063,0.571-1.564,0.887
			c-0.128-0.003-0.25-0.015-0.389-0.002c-1.191,0.113-2.385,0.162-3.579,0.194c-0.735-0.744-1.843-0.998-2.969-0.837
			c-0.211,0.03-0.422,0.065-0.634,0.095c-2.322-1.037-4.523-2.328-6.499-3.941c-4.483-3.661-9.93-10.349-10.569-16.262
			c-0.408-3.763-6.276-3.836-6.001-0.118c-1.343,0.456-2.312,1.697-1.643,3.415c0.767,1.965,1.466,6.061-0.747,7.401
			c-0.713,0.431-1.708,0.444-2.764,0.269c-3.15-2.27-5.706-5.473-6.955-9.015c-0.441-1.256-1.429-1.881-2.474-2.017
			c0.424-1.58-1.901-2.814-2.714-1.192c-1.219,2.431-3.042,4.435-4.529,6.696c-1.011,1.537-1.702,3.131-2.587,4.612
			c-1.378,0.892-2.908,1.51-4.589,1.699c-0.454,0.051-0.85,0.186-1.196,0.375c-0.041-0.012-0.084-0.019-0.126-0.029
			c-0.558-0.241-1.053-0.574-1.382-1.103c-1.021-1.638-3.617-0.133-2.591,1.514c0.223,0.358,0.479,0.656,0.75,0.929
			c-0.29,0.458-0.464,0.992-0.455,1.564c0.028,1.742,0.544,3.318,1.562,4.585c1.984,4.72,6.463,8.446,11.173,10.916
			c-1.18-0.086-1.99,0.419-2.442,1.165c-0.777,0.289-1.547,0.615-2.307,0.993c-3.465,1.726-0.424,6.898,3.026,5.182
			c1.065-0.53,2.164-0.928,3.284-1.226c2.731,0.2,5.462,0.369,8.202,0.385c0.782,0.005,1.397-0.244,1.864-0.633
			c4.141,0.696,8.248,2.168,11.932,3.764c6.104,3.845,9.752,10.817,13.876,16.55c-1.062,1.282-1.231,3.451,0.564,4.66
			c0.188,0.126,0.376,0.229,0.562,0.339c0.189,1.639,1.629,3.302,3.748,2.963c6.636-1.056,13.812-1.857,19.736-5.307
			c3.245-0.345,6.46-0.773,9.479-2.495c2.178-1.241,1.858-4.924-0.716-5.481c-0.612-0.135-1.247-0.212-1.88-0.288
			c-0.73-2.33-2.771-3.518-5.004-3.932c-0.003-0.876-0.062-1.752-0.164-2.64c-0.125-1.072-0.701-1.834-1.442-2.305
			c0.086-0.777,0.249-1.538,0.483-2.258c0.456-0.828,0.911-1.655,1.356-2.488c0.615-0.366,1.199-0.797,1.717-1.335
			c2.099-2.192,3.637-4.689,5.132-7.238c0.126-0.08,0.253-0.153,0.375-0.255c2.888-2.405,5.79-4.758,8.877-6.858
			c0.242,0,0.498-0.06,0.759-0.217c1.142-0.688,2.212-1.465,3.256-2.279c0.251-0.142,0.497-0.289,0.751-0.426
			c0.55-0.296,0.922-0.682,1.162-1.108c0.258-0.21,0.516-0.419,0.773-0.629c0.029-0.025,0.062-0.049,0.092-0.075
			c0.729-0.59,1.462-1.175,2.216-1.733C522.521,241.794,522.212,240.409,521.438,239.882z"/>
	</g>
	<g id="gl3-sst_sim_double_mutant_trichomes" fill="#FFFFFF" >
		<path d="M686.521,280.025c-0.521-0.139-1.079-0.225-1.677-0.253c-0.227-0.065-0.517-0.149-0.932-0.267
			c-1.058-0.294-2.134-0.674-3.142-1.107c-1.723-0.745-3.4-1.589-5.063-2.464c0.433-0.98,0.704-2.06,0.79-3.187
			c0.446-5.877-0.854-11.237-3.082-16.538c-0.242-1.671-0.931-3.192-1.949-4.412c-0.765-1.862-1.68-3.526-3.229-4.872
			c-0.025-0.03-0.047-0.064-0.074-0.092c-0.124-0.124-0.256-0.22-0.391-0.302c-0.007-0.003-0.011-0.008-0.016-0.011
			c-0.689-0.524-1.688-0.298-2.32,0.244c-0.033,0.024-0.068,0.043-0.104,0.069c0.344-0.269-0.19,0.126-0.211,0.141
			c-0.178,0.124-0.359,0.241-0.541,0.359c-0.438,0.285-0.89,0.551-1.344,0.812c-0.334,0.193-0.674,0.376-1.019,0.554
			c-0.079,0.041-0.159,0.079-0.237,0.118c-0.009,0.001-0.009,0-0.018,0.001c-0.188,0.029-0.354,0.104-0.512,0.197
			c-1.782-1.614-3.685-3.161-5.669-4.676c-0.501-0.382-1.046-0.654-1.613-0.848c-0.625-0.504-1.291-0.86-1.974-1.068
			c0.521-1.638,1.201-3.271,1.525-4.962c1.238-1.164,2.37-2.424,3.182-3.953c0.165-0.312,0.254-0.618,0.288-0.915
			c0.471-0.824,0.877-1.679,1.127-2.593c0.144-0.219,0.2-0.471,0.14-0.732c-0.033-1.073-1.695-1.464-1.927-0.288
			c-0.004,0.018-0.011,0.033-0.017,0.051c-0.342,0.295-0.662,0.601-0.934,0.938c-1.037-0.458-2.308-0.285-2.996,1.016
			c-0.538,1.015-1.271,1.885-2.087,2.688c-1.118,0.184-2.147,0.898-2.429,2.135c-0.109,0.09-0.221,0.181-0.327,0.272
			c-0.824-2.955-2.864-4.6-5.158-5.176c1.364-1.296,2.462-2.924,3.458-4.381c1.355-1.983,2.623-4.337,3.217-6.665
			c0.229-0.894,0.247-1.794,0.139-2.667c1.127-1.243,1.586-2.964,1.602-4.693c0.001-0.137-0.015-0.27-0.033-0.402
			c0.018-0.029,0.038-0.051,0.053-0.081c1.223-2.475,2.279-5.025,3.5-7.5c0.602-1.215,0.573-2.602-0.104-3.671
			c0.881-1.537,1.771-3.066,2.26-4.812c0.695-2.489-3.164-3.544-3.855-1.063c-0.437,1.557-1.212,2.97-2.015,4.375
			c-0.977,0.178-1.878,0.722-2.331,1.641c-0.521,1.059-1.014,2.132-1.502,3.207c-0.792,0.262-1.505,0.795-1.998,1.543
			c-1.069,1.624-2.033,3.312-3,5c-0.061,0.105-0.097,0.217-0.146,0.326c-0.963,0.103-1.887,0.42-2.729,0.883
			c-0.121-2.229-1.08-4.236-2.991-5.779c-2.15-1.735-5.094-2.598-6.989-4.535c-0.709-0.725-1.521-0.96-2.289-0.876
			c-0.051-0.262-0.104-0.522-0.153-0.785c-0.48-2.532-4.337-1.457-3.855,1.063c1.117,5.875,2.481,11.677,2.839,17.645
			c-0.068,0.353-0.126,0.709-0.16,1.073c-0.18,1.934-0.431,3.859-0.688,5.782c-0.188-0.017-0.378-0.032-0.562-0.032
			c-0.433,0-0.843,0.037-1.239,0.095c-1.315-1.651-2.492-3.385-3.42-5.359c-1.253-2.666-1.729-5.511-3.043-8.14
			c-2.537-6.57-6.13-12.738-10.412-17.984c-0.759-1.151-1.702-2.115-2.719-3.043c-0.979-0.893-2.226-1.833-2.738-3.101
			c-0.359-0.895-1.118-1.544-2.08-1.462c-0.209-0.337-0.409-0.68-0.622-1.015c-1.376-2.172-4.839-0.167-3.453,2.019
			c3.505,5.529,6.598,11.282,10.449,16.584c1.354,1.862,2.999,5.618,4.957,7.617c0.188,0.431,0.379,0.859,0.559,1.295
			c0.037,0.406,0.17,0.83,0.423,1.259c0.1,0.169,0.184,0.346,0.274,0.519c2.365,6.388,3.63,13.167,3.435,19.71
			c-0.239,0.079-0.465,0.19-0.695,0.291c-0.645-0.88-1.259-1.78-1.696-2.792c-0.249-0.577-0.837-0.885-1.451-0.954
			c-0.83-1.555-3.738-1.235-3.773,0.963c-0.037,2.378-0.312,4.728-0.639,7.071c-0.829,1.664-1.653,3.35-2.379,5.068
			c-5.174-8.218-9.242-17.135-16.818-23.553c-1.935-1.638-4.729,1.094-2.885,2.77c-0.309,0.533-0.377,1.206-0.006,1.904
			c3.757,7.069,7.61,13.746,8.969,21.469c-0.32,0.932-0.729,1.844-1.219,2.763c-0.146,0.27-0.199,0.531-0.223,0.786
			c-1.055-1.248-3.609-0.847-3.553,1.223c0.062,2.179,1.087,3.656,2.548,4.78c-3.938-0.491-8.164-0.34-10.57,1.928
			c-1.356,0.417-2.276,2.096-0.892,3.206c0.581,0.466,1.156,0.938,1.735,1.408c1.626,3.036,3.899,5.641,6.034,8.34
			c-0.378,0.348-0.753,0.699-1.117,1.062c-0.838,0.968-1.638,1.962-2.396,2.988c-0.196,0.277-0.339,0.489-0.455,0.669
			c-2.204,0.892-4.39,1.716-6.45,2.919c-1.171,0.687-1.513,1.021-2.53,1.808c-0.271-0.022-0.64-0.058-1.154-0.105
			c-4.348-0.423-8,3.959-8,8c0,4.681,3.661,7.578,8,8c3.345,0.325,5.706-0.58,7.978-1.808c6.453,4.896,12.288,4.764,20.112,3.812
			c3.854-0.467,2.818,0.312,5.753,2.65c3.922,3.123,8.55,4.018,13.409,4.58c8.687,1.007,15.587-2.71,23.572-5.157
			c3.437-1.054,7.443-0.286,10.924,0.196c4.771,0.661,9.438,1.29,14.252,0.724c3.773-0.444,7.046-2.588,7.823-6.274
			c2.241,0.232,4.476,0.491,6.743,0.518c0.887,0.129,1.779,0.221,2.684,0.259C696.477,296.434,696.521,280.734,686.521,280.025z"/>
	</g>
	<g id="gl3-sst_nok-1_double_mutant_trichomes" fill="#FFFFFF" >
		<path d="M808.798,280.607c-5.104-1.894-10.465-2.912-15.5-5c-0.271-0.112-0.528-0.178-0.773-0.209
			c-1.023-1.208-2.203-2.34-3.401-3.521c-0.09-0.089-0.188-0.151-0.279-0.226c0.053-0.906,0.115-1.772,0.146-2.544
			c2.362-1.521,4.375-3.578,5.808-6.024c1.273-2.175,2.038-4.602,2.312-7.085c1.366-2.234,2.276-4.771,2.553-7.478
			c0.492-1.959,0.789-3.999,0.842-6.272c0.01-0.424,0-0.845-0.023-1.263c0.342-1.371,0.524-2.791,0.523-4.237
			c-0.002-2.353-0.206-4.793-0.893-7.035c-0.605-1.433-1.211-2.867-1.814-4.3c-0.201-0.34-0.438-0.645-0.658-0.967
			c-1.075-5.205-4.458-9.644-8.997-12.179c-0.43-0.374-0.878-0.72-1.339-1.044c-2.83-2.899-6.756-4.725-11.049-4.725
			c-5.29,0-10.03,2.764-12.837,6.905c-1.978,2.092-3.408,4.586-4.198,7.294c-1.043,1.526-1.915,3.208-2.572,5.016
			c-1.6,4.401-1.231,9.256-0.139,13.718c0.054,0.218,0.12,0.436,0.192,0.651c-0.038,1.827,0.151,3.705,0.444,5.701
			c0.359,2.451,1.143,4.799,1.5,7.25c0.06-0.024,0.116-0.051,0.176-0.073c0.443,1.53,1.01,3.007,1.641,4.373
			c0.301,0.652,0.671,1.258,1.07,1.841c0.411,1.021,0.86,2.028,1.365,3.003c1.738,3.354,4.303,5.236,7.271,7.364
			c1.434,0.604,2.866,1.209,4.3,1.812c0.469,0.127,0.938,0.229,1.405,0.316c0.296,0.354,0.662,0.677,1.107,0.962
			c1.352,0.863,1.666,2.083,1.812,3.513c0.025,0.259,0.046,0.513,0.062,0.766c-0.423,0.126-0.839,0.35-1.228,0.717
			c-1.278,1.206-2.404,2.547-3.513,3.903c-0.169,0.103-0.332,0.218-0.487,0.347c-1.846,1.529-3.717,3.02-4.97,5.107
			c-0.841,1.401-0.321,3.283,1.077,4.104c0.031,0.021,0.067,0.03,0.104,0.048c0.429,1.395,1.694,2.429,3.458,1.754
			c2.903-1.106,5.562-2.931,8.405-4.176c5.665-1.346,11.776,0.055,17.547-0.717c0.004-0.001,0.008-0.002,0.012-0.003
			c3.877,0.206,7.961,0.021,10.859-2.376C812.018,284.053,810.701,281.312,808.798,280.607z"/>
	</g>
</g>
<g id="outlines">
	<g>
		
			<path fill="none" stroke="#000000" stroke-width="0.75" stroke-linecap="round" stroke-linejoin="round" stroke-miterlimit="10" d="
			M317.5,181c-4.853,3.183-4.322,6.392-6.23,11.472c-5.946,15.835-9.055,32.471-13.959,48.598c-1.833,6.029-2.689,6.505-9.016,5.186
			c-4.939-1.031-8.389-4.547-12.716-6.575c-6.959-3.26-13.778-6.182-21.775-5.733c-10.889,0.611-21.952-1.154-32.585,2.634
			c-1.672,0.596-3.881,0.541-3.833,3.196"/>
		
			<path fill="none" stroke="#000000" stroke-width="0.75" stroke-linecap="round" stroke-linejoin="round" stroke-miterlimit="10" d="
			M806.027,279.394c-4.807-1.115-9.896-1.309-14.062-4.467c-2.869-2.175-4.836-4.16-1.33-7.729
			c6.035-6.146,8.676-14.349,9.964-22.36c1.179-7.324,0.097-15.257-2.999-22.261c-2.951-6.682-8.161-11.635-15.229-14.073
			c-7.882-2.718-14.699-1.887-18.724,4.954c-3.736,6.357-8.985,11.843-8.071,19.926c0.702,6.194,1.383,12.415,2.595,18.521
			c1.815,9.146,7.614,15.104,15.862,19.271c6.342,3.205,6.333,5.152,0.652,9.456c-3.181,2.411-5.873,5.048-7,8.985"/>
		
			<path fill="none" stroke="#000000" stroke-width="0.75" stroke-linecap="round" stroke-linejoin="round" stroke-miterlimit="10" d="
			M317.708,181.627c3.568,2.982,0.407,6.518-0.299,8.855c-4.432,14.681-7.351,29.579-8.605,44.824
			c-0.262,3.187-2.636,6.241-0.723,9.726c3.535,1.666,6.516-0.509,9.621-1.442c13.937-4.187,27.365-9.897,41.47-13.664
			c2.692-0.719,5.199-0.488,7.738-1.013"/>
		
			<path fill="none" stroke="#000000" stroke-width="0.75" stroke-linecap="round" stroke-linejoin="round" stroke-miterlimit="10" d="
			M245.5,293.452c4.775-1.699,9.685-2.898,14.149-5.603c2.237-1.354,5.375-2.316,8.196-1.369c5.308,1.779,9.951-0.725,14.685-2.086
			c3.668-1.055,6.289-3.53,7.839-7.504c1.801-4.612,2.747-9.467,3.409-14.151c0.637-4.511-2.268-8.384-7.382-9.548
			c-8.037-1.83-15.353-5.131-22.472-9.404c-5.625-3.375-12.431-4.261-19.064-4.632c-11.778-0.659-15.781-0.388-27.476,0.62"/>
		
			<path fill="none" stroke="#000000" stroke-width="0.75" stroke-linecap="round" stroke-linejoin="round" stroke-miterlimit="10" d="
			M82.589,283.228c1.531-1.367-0.57-4.371,1.933-5.055c7.149-1.944,11.494-7.598,16.564-12.233
			c7.481-6.846,17.086-8.871,26.277-11.301c15.919-4.203,27.47-13.468,36.485-26.933c5.933-8.862,8.739-18.537,10.07-28.832
			c0.399-3.081-1.26-4.382-4.428-3.846c-10.498,1.775-20.894,3.302-30.779,8.099c-8.651,4.198-15.388,9.721-19.656,18.14
			c-5.513,10.876-12.031,21.241-16.652,32.569c-2.377,5.827-6.443,10.479-10.962,14.592c-2.667,2.426-5.139,4.52-5.018,8.41"/>
		
			<path fill="none" stroke="#000000" stroke-width="0.75" stroke-linecap="round" stroke-linejoin="round" stroke-miterlimit="10" d="
			M366.91,228.913c-8.318,9.331-11.643,8.422-22.983,12.832c-10.32,4.013-20.454,8.503-30.699,12.711
			c-4.374,1.797-6.694,4.637-5.785,9.609c0.264,1.44,0.07,2.976,0.036,4.466c-0.31,13.685,3.905,18.669,17.192,23.194
			c6.269,2.138,13.63,1.992,18.597,7.478"/>
		
			<path fill="none" stroke="#000000" stroke-width="0.75" stroke-linecap="round" stroke-linejoin="round" stroke-miterlimit="10" d="
			M487.009,247.444c5.794,1.447,10.107-2.937,15.312-3.958c4.59-0.9,9.131-2.259,13.521-4.165c1.893-0.82,4.894-0.904,7.246,0.874
			c-3.658,6.128-10.352,8.004-14.991,12.364c-4.801,4.513-9.976,8.353-12.469,15.216c-1.564,4.312-0.203,6.765,2.331,8.275
			c7.975,4.758,16.758,6.73,26.11,5.26"/>
		
			<path fill="none" stroke="#000000" stroke-width="0.75" stroke-linecap="round" stroke-linejoin="round" stroke-miterlimit="10" d="
			M630.975,267.614c-0.97-7.431,2.162-18.557,6.559-27.114c5.645-10.992,4.327-21.537-0.309-31.973
			c-2.407-5.426-9.465-6.013-13.57-10.532c-2.269,5.607,1.486,10.423,1.802,15.567c0.32,5.242-0.109,10.218-0.72,15.368
			c-0.657,5.555-2.771,10.617-3.983,15.958"/>
		
			<path fill="none" stroke="#000000" stroke-width="0.75" stroke-linecap="round" stroke-linejoin="round" stroke-miterlimit="10" d="
			M624.585,225.718c-4.015-2.229-4.731-6.802-6.141-10.324c-3.379-8.447-9.122-15.279-13.661-22.908
			c-2.285-3.841-6.081-5.899-9.526-8.333c-2.552,2.901-0.089,4.889,1.218,7.055c6.014,9.967,13.074,19.292,16.795,30.614
			c1.312,3.989,0.645,9.731,1.094,13.563"/>
		
			<path fill="none" stroke="#000000" stroke-width="0.75" stroke-linecap="round" stroke-linejoin="round" stroke-miterlimit="10" d="
			M601.581,253.195c-3.776-1.438-7.553-2.87-11.065-4.205c-2.949,2.5-2.011,5.354-0.328,6.617c4.184,3.145,8.005,6.951,13.289,8.522
			c2.054,0.61,3.891,2,5.768,3.132c4.367,2.639,7.78,1.021,9.001-3.832c3.374-13.402,0.062-24.823-10.393-34.683
			c0.083,11.936-7.625,22.403-5.633,34.67"/>
		
			<path fill="none" stroke="#000000" stroke-width="0.75" stroke-linecap="round" stroke-linejoin="round" stroke-miterlimit="10" d="
			M463.366,229.552c-1.278,2.204-2.177,2.977-3.979,0.089c-1.079-1.731,1.228-4.382-2.181-5.25
			c-2.699-0.542-3.359,2.331-4.576,3.979c-0.713,0.965-0.024,2.895-0.156,4.374c-0.151,1.754,0.872,3.835-1.303,5.129
			c-7.854-0.669-8.813-8.618-13.307-13.007c-6.141,3.367-5.661,12.848-13.496,14.18c-1.157,0.197-2.521-0.814-4.229-1.423
			c-2.382,6.285,1.146,10.227,4.825,14.346c2.548,2.852,6.688,3.877,8.365,7.616"/>
		
			<path fill="none" stroke="#000000" stroke-width="0.75" stroke-linecap="round" stroke-linejoin="round" stroke-miterlimit="10" d="
			M655.257,193.129c1.171,1.811,1.649,3.571,0.679,5.769c-4.142,9.383-5.713,19.749-10.922,28.726
			c-0.761,1.311-1.8,3.452-4.176,3.207"/>
		
			<path fill="none" stroke="#000000" stroke-width="0.75" stroke-linecap="round" stroke-linejoin="round" stroke-miterlimit="10" d="
			M659.729,278.755c-4.443-0.016-9.079,0.417-12.125-3.845c-4.803-6.719-4.279-11.662,3.979-17.66
			c5.189-3.768,8.88-9.466,15.888-11.521c5.548,6.439,9.192,14.19,8.154,23.433c-0.821,7.312,2.393,11.388,9.024,13.428"/>
		
			<path fill="none" stroke="#000000" stroke-width="0.75" stroke-linecap="round" stroke-linejoin="round" stroke-miterlimit="10" d="
			M430.777,257.668c-4.94,3.604-4.94,3.604-3.834,7.668c22.8-4.286,37.57,3.21,42.812,21.727"/>
		
			<path fill="none" stroke="#000000" stroke-width="0.75" stroke-linecap="round" stroke-linejoin="round" stroke-miterlimit="10" d="
			M603.859,246.61c-4.368-10.69-12.307-23.194-18.236-26.634c-2.827,1.861-2.043,3.973-0.698,6.404
			c2.075,3.747,3.905,7.631,5.784,11.483c1.688,3.458,2.859,7.003,1.287,10.858"/>
		
			<path fill="none" stroke="#000000" stroke-width="0.75" stroke-linecap="round" stroke-linejoin="round" stroke-miterlimit="10" d="
			M593.913,276.199c-1.491,1.275-3.111,2.437-4.438,3.868c-1.231,1.334-4.326,1.7-3.155,4.404c1.105,2.562,3.625,3.472,6.311,3.189
			c3.895-0.404,7.496-1.812,10.867-3.796"/>
		
			<path fill="none" stroke="#000000" stroke-width="0.75" stroke-linecap="round" stroke-linejoin="round" stroke-miterlimit="10" d="
			M462.088,232.108c0,0.213-0.081,0.474,0.012,0.632c7.752,13.107,7.754,13.107,22.832,15.951
			c7.146-6.756,13.146-14.356,18.418-23.493c5.297,5.888,0.588,11.428,1.554,16.495"/>
		
			<path fill="none" stroke="#000000" stroke-width="0.75" stroke-linecap="round" stroke-linejoin="round" stroke-miterlimit="10" d="
			M290.87,301.12c1.802,2.769-0.182,5.521-0.113,8.31c0.239,9.766,2.005,11.391,11.676,9.57c-0.946-7.439,0.194-15.122-2.617-22.354
			"/>
		
			<path fill="none" stroke="#000000" stroke-width="0.75" stroke-linecap="round" stroke-linejoin="round" stroke-miterlimit="10" d="
			M600.303,265.336c-3.164,5.368,0.674,7.691,4.504,9.521c6.114,2.915,10.488,6.836,10.912,14.118
			c0.089,1.522,0.796,3.473,1.907,4.396c4.805,3.992,2.763,8.051,0.569,12.225"/>
		
			<path fill="none" stroke="#000000" stroke-width="0.75" stroke-linecap="round" stroke-linejoin="round" stroke-miterlimit="10" d="
			M270.421,287.701c-0.442,2.631-5.59,3.12-3.68,6.297c2.042,3.395,5.816,3.141,9.446,2.061c2.035-0.604,4.044-2.48,6.375-0.688"/>
		
			<path fill="none" stroke="#000000" stroke-width="0.75" stroke-linecap="round" stroke-linejoin="round" stroke-miterlimit="10" d="
			M591.718,257.029c-4.034,0.907-10.241-3.748-13.271,2.707c2.998,4.54,6.774,8.504,10.221,11.846
			c-5.929,7.83-15.646,7.562-22.871,12.285"/>
		
			<path fill="none" stroke="#000000" stroke-width="0.75" stroke-linecap="round" stroke-linejoin="round" stroke-miterlimit="10" d="
			M665.48,246.722c2.574,7.895,3.521,18.083,4.512,26.277c0.396,3.279-3.749,5.84-0.789,9.676c3.01,3.901,5.118,8.497,7.923,13.307
			c3.011-3.678,5.484-7.794,10.72-7.642"/>
		
			<path fill="none" stroke="#000000" stroke-width="0.75" stroke-linecap="round" stroke-linejoin="round" stroke-miterlimit="10" d="
			M471.034,288.979c-0.641-0.639-1.278-1.275-2.394-2.392c-2.9,7.868-9.678,9.86-16.776,11.338"/>
		
			<path fill="none" stroke="#000000" stroke-width="0.75" stroke-linecap="round" stroke-linejoin="round" stroke-miterlimit="10" d="
			M653.979,194.407c-4.857,6.044-8.717,13.609-15.058,18.531"/>
		
			<path fill="none" stroke="#000000" stroke-width="0.75" stroke-linecap="round" stroke-linejoin="round" stroke-miterlimit="10" d="
			M643.755,267.253c-1.862,1.155-3.726,2.312-5.739,3.562c0.583,2.626,0.854,5.766,2.006,8.537c1.425,3.433,3.432,6.787,8.205,5.786
			c1.226-0.257,1.876,0.52,2.56,1.284"/>
		
			<path fill="none" stroke="#000000" stroke-width="0.75" stroke-linecap="round" stroke-linejoin="round" stroke-miterlimit="10" d="
			M653.979,288.979c-8.9,0-10.224,1.405-10.224,10.863"/>
		
			<path fill="none" stroke="#000000" stroke-width="0.75" stroke-linecap="round" stroke-linejoin="round" stroke-miterlimit="10" d="
			M698.069,284.506c-3.196-0.352-5.772-2.229-8.241-3.93c-2.97-2.045-7.812-2.287-11.012-1.185"/>
		
			<path fill="none" stroke="#000000" stroke-width="0.75" stroke-linecap="round" stroke-linejoin="round" stroke-miterlimit="10" d="
			M147.767,221.884c-7.021,5.062-14.858,8.43-20.998,15.497c-4.152,4.779-9.607,9.5-14.786,13.898"/>
		
			<path fill="none" stroke="#000000" stroke-width="0.75" stroke-linecap="round" stroke-linejoin="round" stroke-miterlimit="10" d="
			M583.05,281.95c-0.368,2.188-3.125,2.059-3.802,3.846c-0.694,1.835-3.189,3.354-1.296,5.729c1.281,1.606,2.646,2.831,5.103,2.629
			c7.229-0.6,14.479-0.913,21.724-1.34"/>
		
			<path fill="none" stroke="#000000" stroke-width="0.75" stroke-linecap="round" stroke-linejoin="round" stroke-miterlimit="10" d="
			M320.902,292.174c0.951,2.558,1.194,5.112-0.247,7.501c1.769,1.188,3.289,2.208,4.943,3.317
			c-1.796,5.729-6.965,3.196-10.447,4.518"/>
		
			<path fill="none" stroke="#000000" stroke-width="0.75" stroke-linecap="round" stroke-linejoin="round" stroke-miterlimit="10" d="
			M667.12,296.008c-0.568-1.312-2.485-2.725-2.739-3.873c-0.855-3.874-3.243-4.782-6.562-4.407
			c-4.807,0.546-1.718,5.396-2.198,8.004"/>
		
			<path fill="none" stroke="#000000" stroke-width="0.75" stroke-linecap="round" stroke-linejoin="round" stroke-miterlimit="10" d="
			M653.979,253.834c-4.771-3.164-11.706-1.494-16.694,0.361"/>
		
			<path fill="none" stroke="#000000" stroke-width="0.75" stroke-linecap="round" stroke-linejoin="round" stroke-miterlimit="10" d="
			M306.845,293.452c2.69,1.854,2.068,5.618,4.46,7.682c2.549,2.2,4.104,6.031,2.31,8.065c-2.368,2.684-5.904,6.025-10.604,3.423"/>
		
			<path fill="none" stroke="#000000" stroke-width="0.75" stroke-linecap="round" stroke-linejoin="round" stroke-miterlimit="10" d="
			M641.56,283.228c-4.006,4.345-11.598,5.132-15.058,10.227"/>
		
			<path fill="none" stroke="#000000" stroke-width="0.75" stroke-linecap="round" stroke-linejoin="round" stroke-miterlimit="10" d="
			M639.365,269.17c-2.144-2.912-6.885-2.188-9.669-1.28c-2.996,0.977-2.531,3.444-2.571,5.753c-0.038,2.144,0.401,4.344-0.623,6.393
			"/>
		
			<path fill="none" stroke="#000000" stroke-width="0.75" stroke-linecap="round" stroke-linejoin="round" stroke-miterlimit="10" d="
			M652.062,242.332c1.051-5.041,6.726-8.189,6.649-14.601c-13.128,7.913-13.128,8.913-9.846,14.962"/>
		
			<path fill="none" stroke="#000000" stroke-width="0.75" stroke-linecap="round" stroke-linejoin="round" stroke-miterlimit="10" d="
			M618.195,267.892c2.708,7.427,8.436,14.836,12.777,21.171"/>
		
			<path fill="none" stroke="#000000" stroke-width="0.75" stroke-linecap="round" stroke-linejoin="round" stroke-miterlimit="10" d="
			M287.036,290.257c-5.767,4.355-5.405,11.209-7.8,17.354c6.38-0.823,12.433-7.194,12.912-12.88"/>
		
			<path fill="none" stroke="#000000" stroke-width="0.75" stroke-linecap="round" stroke-linejoin="round" stroke-miterlimit="10" d="
			M669.037,268.531c-6.027,3.896-7.819,10.615-9.946,16.611"/>
		
			<path fill="none" stroke="#000000" stroke-width="0.75" stroke-linecap="round" stroke-linejoin="round" stroke-miterlimit="10" d="
			M632.809,251.917c5.82,1.955,7.968,8.093,10.946,12.141"/>
		
			<path fill="none" stroke="#000000" stroke-width="0.75" stroke-linecap="round" stroke-linejoin="round" stroke-miterlimit="10" d="
			M634.614,288.257c3.458,2.277,0.077,8.345,1.473,11.585"/>
		
			<path fill="none" stroke="#000000" stroke-width="0.75" stroke-linecap="round" stroke-linejoin="round" stroke-miterlimit="10" d="
			M598.386,294.091c1.065,2.982,2.13,5.964,3.195,8.946"/>
		
			<path fill="none" stroke="#000000" stroke-width="0.75" stroke-linecap="round" stroke-linejoin="round" stroke-miterlimit="10" d="
			M661.008,248.722c-8.583-8.583-9.157-8.604-17.253-0.639"/>
		
			<path fill="none" stroke="#000000" stroke-width="0.75" stroke-linecap="round" stroke-linejoin="round" stroke-miterlimit="10" d="
			M593.913,260.224c0,1.065,0.444,2.48-0.073,3.139c-2.986,3.791-1.479,7.664-0.563,11.561"/>
		
			<path fill="none" stroke="#000000" stroke-width="0.75" stroke-linecap="round" stroke-linejoin="round" stroke-miterlimit="10" d="
			M312.596,292.812c1.363,3.507,5.33,3.544,7.668,5.751"/>
		
			<path fill="none" stroke="#000000" stroke-width="0.75" stroke-linecap="round" stroke-linejoin="round" stroke-miterlimit="10" d="
			M655.257,296.008c3.453,1.567,6.034,6.836,10.863,2.558"/>
		
			<path fill="none" stroke="#000000" stroke-width="0.75" stroke-linecap="round" stroke-linejoin="round" stroke-miterlimit="10" d="
			M598.386,275.56c-3.1-0.092-6.349,0.521-8.943-1.917"/>
	</g>
</g>
</svg>
