<svg xmlns="http://www.w3.org/2000/svg" id="AbioticStressII_svg" version="1.1" viewBox="45 35 591.9 262.7"  author="Provart Lab - Bio Analytic Resource, University of Toronto">
  <g id="WellWatered-Predawn" fill="#fff" stroke="#000" stroke-miterlimit="10" stroke-width=".7" transform="translate(-2 -14)">
    <path id="path88" d="M155 72s2-4 5-6c3-1 5-2 7-1l6 5-3-3-1-4 1-1 4 4v2l1-1 2 3 1-3c0-2 1-4 3-4 1 0 3 0 2 2l-3 3-1 2 4-2c0-1 3-3 6-3l5 1-2 2 3 3 3 2s-6 2-8 0c-2-1-4-4-8-3-3 0-5 1-5 2h1c1 0 4-1 6 1l1 2c-1 0-4 2-6-1l-2-1 2 2c2 1 7 2 8 4v4c-1 0-4 2-7-2l-2-5c0-1 0-2-2-3h-1c-1 1-2 0-3 2-1 1-4 4-8 4-1-1-3-2-2-4l3-3h6l4 1c-1-1-2-3-7-4l-6 2-4 1h-3"/>
    <path id="path91" d="M179 103v6c-2-2-1-2-1-5 0-2-4-5-4-9l2-4c1-2 2-3 0-5-1-2-5-4-4-6l2-4v-2h3l-1 4-2 3 5 5v3l-2 4c-2 4 1 7 2 10"/>
  </g>
  <g id="WellWatered-Midday" fill="#fff" stroke="#000" stroke-miterlimit="10" stroke-width=".7" transform="translate(-2 -14)">
    <path id="path95" d="M227 72s2-4 5-6c3-1 4-2 6-1l7 5-3-3-1-4v-1l4 4 1 2 1-1c0 1 2 2 1 3 1 0 2-1 2-3s1-4 3-4c1 0 2 0 2 2l-3 3-1 2 3-2c1-1 3-3 7-3l5 1-3 2 4 3 3 2s-6 2-8 0c-3-1-4-4-8-3-4 0-5 1-5 2 1 0 4-1 6 1l1 2s-3 2-5-1l-2-1 2 2c1 1 7 2 7 4l1 4c-1 0-4 2-7-2-1-1-2-2-2-5l-2-3h-1c-1 1-2 0-3 2-2 1-4 4-8 4-1-1-3-2-2-4l2-3h7l3 1c0-1-2-3-6-4l-6 2-5 1h-2"/>
    <path id="path98" d="M250 103v6l-1-5c0-2-3-5-3-9l2-4c1-2 2-3 0-5s-5-4-5-6l3-4v-2h3l-1 4c-1 0-3 2-2 3s4 3 4 5l1 3-3 4c-2 4 2 7 2 10"/>
  </g>
  <g id="WellWatered-LateDay" fill="#fff" stroke="#000" stroke-miterlimit="10" stroke-width=".7" transform="translate(-2 -14)">
    <path id="path102" d="m298 72 6-6c2-1 4-2 6-1l6 5-3-3v-5l4 4 1 2v-1l2 3s2-1 1-3l3-4c1 0 3 0 3 2l-4 3-1 2 4-2c1-1 3-3 6-3l5 1-2 2 4 3 3 2c-1 0-6 2-9 0-2-1-4-4-7-3-4 0-5 1-6 2h1c1 0 4-1 6 1l1 2c-1 0-3 2-5-1l-2-1 2 2c1 1 6 2 7 4v4c-1 0-4 2-7-2l-1-5-2-3h-2c-1 1-2 0-3 2-1 1-3 4-7 4-1-1-4-2-3-4l3-3h6l4 1c0-1-2-3-6-4l-7 2-4 1h-3"/>
    <path id="path105" d="M322 103v6l-1-5c0-2-3-5-3-9-1-2 1-4 1-4 1-2 2-3 1-5-2-2-5-4-5-6l3-4v-2h2c1 1 0 3-1 4 0 0-2 2-1 3l4 5v3l-2 4c-2 4 2 7 2 10"/>
  </g>
  <g id="WellWatered-Midnight" fill="#fff" stroke="#000" stroke-miterlimit="10" stroke-width=".7" transform="translate(-2 -14)">
    <path id="path109" d="M370 72s2-4 5-6c3-1 5-2 7-1l6 5-3-3-1-4 1-1 4 4v2l1-1 2 3 1-3c0-2 1-4 3-4 1 0 3 0 2 2l-3 3-1 2 4-2c0-1 3-3 6-3l5 1-2 2 3 3 3 2s-6 2-8 0c-2-1-4-4-8-3-3 0-5 1-5 2h1c1 0 4-1 6 1l1 2c-1 0-4 2-6-1l-2-1 2 2c2 1 7 2 8 4v4c-1 0-4 2-7-2l-2-5c0-1 0-2-2-3h-1c-1 1-2 0-3 2-1 1-4 4-8 4-1-1-3-2-2-4l3-3h6l4 1c-1-1-2-3-7-4l-6 2-4 1h-3"/>
    <path id="path112" d="M394 103v6c-2-2-1-2-1-5 0-2-4-5-4-9l2-4c1-2 2-3 0-5-1-2-5-4-4-6l2-4v-2h3l-1 4-2 3 5 5v3l-2 4c-2 4 2 7 2 10"/>
  </g>
  <g id="WaterLimited-Predawn" fill="#fff" stroke="#000" stroke-miterlimit="10" stroke-width=".7" transform="translate(-2 -14)">
    <path id="path88-8" d="M155 126s2-4 5-6c3-1 5-2 7-1l6 5-3-3-1-4 1-1 4 4v2l1-1 2 3 1-3c0-2 1-4 3-4 1 0 3 0 2 2l-3 4-1 1 4-2c0-1 3-3 6-3l5 1-2 2 3 4 3 1s-6 2-8 0c-2-1-4-4-8-3l-5 2h1c1 0 4-1 6 1l1 2c-1 0-4 2-6-1l-2-1 2 3c2 0 7 1 8 4v3c-1 0-4 2-7-2l-2-5c0-1 0-2-2-2h-1l-3 1c-1 1-4 4-8 4-1 0-3-2-2-4l3-3h6l4 1c-1-1-2-3-7-4l-6 2-4 1h-3"/>
    <path id="path91-3" d="M179 157v6c-2-1-1-2-1-5 0-2-4-5-4-9l2-4c1-1 2-3 0-5-1-2-5-4-4-6l2-4v-2h3l-1 4-2 3 5 5v3l-2 5c-2 3 1 6 2 9"/>
  </g>
  <g id="WaterLimited-Midday" fill="#fff" stroke="#000" stroke-miterlimit="10" stroke-width=".7" transform="translate(-2 -14)">
    <path id="path95-2" d="M227 126s2-4 5-6c3-1 4-2 6-1l7 5-3-3-1-4v-1l4 4 1 2 1-1c0 1 2 2 1 3 1 0 2-1 2-3s1-4 3-4c1 0 2 0 2 2l-3 4-1 1 3-2c1-1 3-3 7-3l5 1-3 2 4 4 3 1s-6 2-8 0c-3-1-4-4-8-3l-5 2c1 0 4-1 6 1l1 2s-3 2-5-1l-2-1 2 3c1 0 7 1 7 4l1 3c-1 0-4 2-7-2-1-1-2-2-2-5l-2-2h-1l-3 1c-2 1-4 4-8 4-1 0-3-2-2-4l2-3h7l3 1c0-1-2-3-6-4l-6 2-5 1h-2"/>
    <path id="path98-4" d="M250 157v6l-1-5c0-2-3-5-3-9l2-4c1-1 2-3 0-5s-5-4-5-6l3-4v-2h3l-1 4c-1 0-3 2-2 3s4 3 4 5l1 3-3 5c-2 3 2 6 2 9"/>
  </g>
  <g id="WaterLimited-LateDay" fill="#fff" stroke="#000" stroke-miterlimit="10" stroke-width=".7" transform="translate(-2 -14)">
    <path id="path102-0" d="m298 126 6-6c2-1 4-2 6-1l6 5-3-3v-5l4 4 1 2v-1l2 3s2-1 1-3l3-4c1 0 3 0 3 2l-4 4-1 1 4-2c1-1 3-3 6-3l5 1-2 2 4 4 3 1c-1 0-6 2-9 0-2-1-4-4-7-3l-6 2h1c1 0 4-1 6 1l1 2c-1 0-3 2-5-1l-2-1 2 3c1 0 6 1 7 4v3c-1 0-4 2-7-2l-1-5-2-2h-2l-3 1c-1 1-3 4-7 4-1 0-4-2-3-4l3-3h6l4 1c0-1-2-3-6-4l-7 2-4 1h-3"/>
    <path id="path105-5" d="M322 157v6l-1-5c0-2-3-5-3-9-1-2 1-4 1-4 1-1 2-3 1-5-2-2-5-4-5-6l3-4v-2h2c1 1 0 3-1 4 0 0-2 2-1 3l4 5v3l-2 5c-2 3 2 6 2 9"/>
  </g>
  <g id="WaterLimited-Midnight" fill="#fff" stroke="#000" stroke-miterlimit="10" stroke-width=".7" transform="translate(-2 -14)">
    <path id="path109-9" d="M370 126s2-4 5-6c3-1 5-2 7-1l6 5-3-3-1-4 1-1 4 4v2l1-1 2 3 1-3c0-2 1-4 3-4 1 0 3 0 2 2l-3 4-1 1 4-2c0-1 3-3 6-3l5 1-2 2 3 4 3 1s-6 2-8 0c-2-1-4-4-8-3l-5 2h1c1 0 4-1 6 1l1 2c-1 0-4 2-6-1l-2-1 2 3c2 0 7 1 8 4v3c-1 0-4 2-7-2l-2-5c0-1 0-2-2-2h-1l-3 1c-1 1-4 4-8 4-1 0-3-2-2-4l3-3h6l4 1c-1-1-2-3-7-4l-6 2-4 1h-3"/>
    <path id="path112-2" d="M394 157v6c-2-1-1-2-1-5 0-2-4-5-4-9l2-4c1-1 2-3 0-5-1-2-5-4-4-6l2-4v-2h3l-1 4-2 3 5 5v3l-2 5c-2 3 2 6 2 9"/>
  </g>
  <g id="NonStressed-TotalRNA" fill="#fff" stroke="#000" stroke-miterlimit="10" stroke-width=".7" transform="translate(-2 -14)">
    <path id="path88-9" d="M155 204s2-5 5-6c3-2 5-3 7-1l6 4-3-2-1-4 1-2 4 5v2l1-1 2 3 1-4c0-1 1-3 3-3 1 0 3 0 2 1 0 2-2 3-3 4l-1 1 4-1 6-4 5 1-2 3 3 3 3 2h-8c-2-1-4-4-8-4l-5 2 1 1c1 0 4-1 6 1l1 1c-1 0-4 2-6 0 0-1-1-2-2-1l2 2c2 0 7 2 8 4v4c-1 0-4 2-7-2l-2-5c0-1 0-2-2-3h-1c-1 0-2 0-3 2-1 1-4 4-8 4-1-1-3-2-2-4s1-3 3-3h10c-1 0-2-2-7-3-2 0-4 0-6 2l-4 1h-3"/>
    <path id="path91-7" d="M179 235v5c-2-1-1-2-1-4 0-3-4-5-4-9l2-5c1-1 2-3 0-5-1-1-5-4-4-6l2-4v-2l3 1-1 3-2 4 5 4v4l-2 4c-2 4 1 6 2 10"/>
  </g>
  <g id="NonStressed-PolysomalMRNA" fill="#fff" stroke="#000" stroke-miterlimit="10" stroke-width=".7" transform="translate(-2 -14)">
    <path id="path95-1" d="M227 204s2-5 5-6c3-2 4-3 6-1l7 4-3-2-1-4v-2l4 5 1 2 1-1c0 1 2 2 1 3 1 0 2-1 2-4 0-1 1-3 3-3l2 1c0 2-3 3-3 4l-1 1 3-1c1-1 3-3 7-4l5 1-3 3 4 3 3 2h-8c-3-1-4-4-8-4l-5 2v1c1 0 4-1 6 1l1 1s-3 2-5 0c-1-1-1-2-2-1l2 2c1 0 7 2 7 4l1 4c-1 0-4 2-7-2-1-2-2-2-2-5l-2-3h-1c-1 0-2 0-3 2-2 1-4 4-8 4-1-1-3-2-2-4 0-2 1-3 2-3h10l-6-3c-2 0-4 0-6 2l-5 1h-2"/>
    <path id="path98-1" d="M250 235v5l-1-4c0-3-3-5-3-9l2-5c1-1 2-3 0-5-2-1-5-4-5-6 1-2 3-2 3-4v-2l3 1-1 3c-1 1-3 2-2 4l4 4 1 4-3 4c-2 4 2 6 2 10"/>
  </g>
  <g id="Hypoxia-TotalRNA" fill="#fff" stroke="#000" stroke-miterlimit="10" stroke-width=".7" transform="translate(-2 -14)">
    <path id="path88-8-0" d="M155 258s2-4 5-6 5-2 7-1l6 4-3-2-1-4 1-2 4 5v2l1-1 2 3 1-3c0-2 1-4 3-4 1 0 3 0 2 1 0 2-2 3-3 4l-1 1 4-1 6-4 5 1-2 3 3 3 3 2h-8c-2-1-4-4-8-3l-5 1 1 1c1 0 4-1 6 1l1 1c-1 1-4 2-6 0l-2-1 2 2c2 1 7 2 8 4v4c-1 0-4 2-7-2l-2-5c0-1 0-2-2-3h-1c-1 0-2 0-3 2-1 1-4 4-8 4-1-1-3-2-2-4 1-1 1-3 3-3h10c-1 0-2-2-7-3-2 0-4 0-6 2l-4 1h-3"/>
    <path id="path91-3-8" d="M179 289v6c-2-2-1-3-1-5s-4-5-4-9l2-5c1-1 2-3 0-4-1-2-5-4-4-7l2-3v-3l3 1-1 3-2 4 5 4v4l-2 4c-2 4 1 6 2 10"/>
  </g>
  <g id="Hypoxia-PolysomalMRNA" fill="#fff" stroke="#000" stroke-miterlimit="10" stroke-width=".7" transform="translate(-2 -14)">
    <path id="path95-2-2" d="M227 258s2-4 5-6 4-2 6-1l7 4-3-2-1-4v-2l4 5 1 2 1-1c0 1 2 2 1 3 1 0 2-1 2-3s1-4 3-4l2 1c0 2-3 3-3 4l-1 1 3-1c1-1 3-3 7-4l5 1-3 3 4 3 3 2h-8c-3-1-4-4-8-3l-5 1v1c1 0 4-1 6 1l1 1c0 1-3 2-5 0l-2-1 2 2c1 1 7 2 7 4l1 4c-1 0-4 2-7-2-1-2-2-2-2-5l-2-3h-1c-1 0-2 0-3 2-2 1-4 4-8 4-1-1-3-2-2-4l2-3h10l-6-3c-2 0-4 0-6 2l-5 1h-2"/>
    <path id="path98-4-6" d="M250 289v6l-1-5c0-2-3-5-3-9l2-5c1-1 2-3 0-4-2-2-5-4-5-7l3-3v-3l3 1-1 3c-1 1-3 2-2 4l4 4 1 4-3 4c-2 4 2 6 2 10"/>
  </g>
  <g id="g2840" fill-rule="evenodd" transform="translate(-2 -14)">
    <path id="path2199" fill="#000" stroke="#000" stroke-miterlimit="10" stroke-width=".5" d="M518 129a30 30 0 0 1-30-29 30 30 0 0 1 30-30v30z"/>
    <path id="circle2201" fill="#fff594" stroke="#000" stroke-miterlimit="10" stroke-width=".5" d="M518 70a30 30 0 0 1 29 30 30 30 0 0 1-29 29v-29Z"/>
    <circle id="circle2203" cx="517.9" cy="99.9" r="21" fill="#fff"/>
  </g>
  <g id="g2856" fill-rule="evenodd" transform="translate(-2 -14)">
    <path id="path2199-3" fill="#000" stroke="#000" stroke-miterlimit="10" stroke-width=".5" d="M345 230a30 30 0 0 1-15 25 30 30 0 0 1-29 0l14-25Z"/>
    <path id="circle2201-4" fill="#fff594" stroke="#000" stroke-miterlimit="10" stroke-width=".5" d="M301 255a30 30 0 0 1-13-35 30 30 0 0 1 33-19 30 30 0 0 1 24 29h-30z"/>
    <circle id="circle2203-2" cx="315.5" cy="229.9" r="21" fill="#fff"/>
  </g>
  <g id="g2848" fill-rule="evenodd" transform="translate(-2 -14)">
    <path id="path2199-3-3" fill="#000" stroke="#000" stroke-miterlimit="10" stroke-width=".5" d="M626 229a30 30 0 0 1-15 26 30 30 0 0 1-30 0l15-26z"/>
    <path id="circle2201-4-8" fill="#fff594" stroke="#000" stroke-miterlimit="10" stroke-width=".5" d="M581 255a30 30 0 0 1-13-36 30 30 0 0 1 33-19 30 30 0 0 1 25 29h-30z"/>
    <circle id="circle2203-2-0" cx="596" cy="229.3" r="21" fill="#fff"/>
  </g>
  <g id="outlines" fill="none" stroke="#000" stroke-miterlimit="10" stroke-width="1.4" transform="translate(-2 -14)">
    <path id="path1585" d="M50 178h586"/>
    <path id="path2300" d="M365 178v117"/>
  </g>
  <g id="NonSelenate-Shoot" transform="translate(-2 -14)">
    <path id="path2314" fill="#fff" stroke="#000" stroke-miterlimit="10" stroke-width=".7" d="M509 204s2-5 5-6c3-2 4-3 7-1l6 4-3-2-1-4 1-2 4 5v2l1-1 2 3 1-4c0-1 1-3 3-3l2 1c0 2-2 3-3 4l-1 1 4-1 6-4 5 1-2 3 3 3 3 2h-8c-2-1-4-4-8-4l-5 2 1 1s4-1 6 1l1 1c-1 0-4 2-6 0-1-1-1-2-2-1l2 2c1 0 7 2 7 4l1 4c-1 0-4 2-7-2-1-2-2-2-2-5l-2-3h-1c-1 0-2 0-3 2-1 1-4 4-8 4-1-1-3-2-2-4 0-2 1-3 2-3h11l-7-3c-2 0-4 0-6 2l-4 1h-3"/>
  </g>
  <g id="NonSelenate-Root" transform="translate(-2 -14)">
    <path id="path2318" fill="#fff" stroke="#000" stroke-miterlimit="10" stroke-width=".7" d="m532 235 1 5c-2-1-1-2-2-4 0-3-3-5-3-9l2-5c1-1 2-3 0-5-1-1-5-4-4-6l2-4v-2l3 1-1 3-2 4 5 4v4l-3 4c-2 4 2 6 2 10"/>
  </g>
  <g id="Selenate-Shoot" transform="translate(-2 -14)">
    <path id="path2324" fill="#fff" stroke="#000" stroke-miterlimit="10" stroke-width=".7" d="M509 258s2-4 5-6 4-2 7-1l6 4-3-2-1-4 1-2 4 5v2l1-1 2 3 1-3c0-2 1-4 3-4l2 1c0 2-2 3-3 4l-1 1 4-1 6-4 5 1-2 3 3 3 3 2h-8c-2-1-4-4-8-3l-5 1 1 1s4-1 6 1l1 1c-1 1-4 2-6 0l-2-1 2 2c1 1 7 2 7 4l1 4c-1 0-4 2-7-2-1-2-2-2-2-5l-2-3h-1c-1 0-2 0-3 2-1 1-4 4-8 4-1-1-3-2-2-4l2-3h11l-7-3c-2 0-4 0-6 2l-4 1h-3"/>
  </g>
  <g id="Selenate-Root" transform="translate(-2 -14)">
    <path id="path2328" fill="#fff" stroke="#000" stroke-miterlimit="10" stroke-width=".7" d="m532 289 1 6c-2-2-1-3-2-5 0-2-3-5-3-9l2-5c1-1 2-3 0-4-1-2-5-4-4-7l2-3v-3l3 1-1 3-2 4 5 4v4l-3 4c-2 4 2 6 2 10"/>
  </g>
  <g id="g1045" fill="#000" font-family="Helvetica" font-size="10.4" transform="translate(-2 -14)">
    <text id="text16" x="121.1" y="138.1"><tspan id="tspan1474" style="text-align:end" text-anchor="end">Water limited</tspan></text>
    <text id="text18" x="120.5" y="88.9"><tspan id="tspan1472" style="text-align:end" text-anchor="end">Well watered</tspan></text>
  </g>
  <g id="g1039" fill="#000" font-family="Helvetica" font-size="10.4" transform="translate(-2 -14)">
    <text id="text14" x="121.2" y="216.1"><tspan id="tspan1476" style="text-align:end" text-anchor="end">Non-stressed</tspan></text>
    <text id="text2296" x="121.2" y="269.2"><tspan id="tspan2294" style="text-align:end" text-anchor="end">Hypoxia stress</tspan></text>
  </g>
  <g id="g2902" fill="#000" font-family="Helvetica" font-size="10.4" transform="translate(-2 -14)">
    <text id="text2304" x="474.6" y="216.1"><tspan id="tspan2302" style="text-align:end" text-anchor="end">Non-selenate treated</tspan></text>
    <text id="text2310" x="474.6" y="269.2"><tspan id="tspan2308" style="text-align:end" text-anchor="end">Selenate treated</tspan></text>
  </g>
  <g id="g2926" fill="#000" font-family="Arial" font-size="8" letter-spacing="0" text-anchor="middle" transform="translate(-2 -14)" word-spacing="0">
    <text xml:space="preserve" id="text2260" x="517.3" y="65.9" style="line-height:1.25;text-align:center">             <tspan id="tspan2258" x="527.3" y="65.9" fill="#000">Predawn</tspan>        </text>
    <text xml:space="preserve" id="text2264" x="517.3" y="138.7" style="line-height:1.25;text-align:center">             <tspan id="tspan2262" x="527.3" y="138.7" fill="#000">Late day</tspan>        </text>
    <text xml:space="preserve" id="text2272" x="549.5" y="104.1" style="line-height:1.25;text-align:center">             <tspan id="tspan2270" x="559.5" y="104.1" fill="#000" style="text-align:start" text-anchor="start">Midday</tspan>        </text>
    <text xml:space="preserve" id="text2276" x="486.1" y="101.8" style="line-height:1.25;text-align:center">             <tspan id="tspan2274" x="496.1" y="101.8" fill="#000" style="text-align:end" text-anchor="end">Midnight</tspan>        </text>
  </g>
  <g id="g2896" fill="#000" font-family="Arial" font-size="8" letter-spacing="0" text-anchor="middle" transform="translate(-2 -14)" word-spacing="0">
    <text xml:space="preserve" id="text2280" x="391.7" y="55.7" style="line-height:1.25;text-align:center">             <tspan id="tspan2278" x="401.7" y="55.7" fill="#000" style="text-align:center" text-anchor="middle">Midnight</tspan>        </text>
    <text xml:space="preserve" id="text2284" x="320.3" y="55.7" style="line-height:1.25;text-align:center">             <tspan id="tspan2282" x="330.3" y="55.7" fill="#000" style="text-align:center" text-anchor="middle">Late day</tspan>        </text>
    <text xml:space="preserve" id="text2288" x="247" y="55.7" style="line-height:1.25;text-align:center">             <tspan id="tspan2286" x="257" y="55.7" fill="#000" style="text-align:center" text-anchor="middle">Midday</tspan>        </text>
    <text xml:space="preserve" id="text2292" x="175.5" y="55.7" style="line-height:1.25;text-align:center">             <tspan id="tspan2290" x="185.5" y="55.7" fill="#000" style="text-align:center" text-anchor="middle">Predawn</tspan>        </text>
  </g>
  <g id="g2870" fill="#000" font-family="Arial" font-size="8" letter-spacing="0" text-anchor="middle" transform="translate(-2 -14)" word-spacing="0">
    <text xml:space="preserve" id="text2860" x="176.2" y="308.4" style="line-height:1.25;text-align:center">             <tspan id="tspan2858" x="186.2" y="308.4">Total RNA</tspan>        </text>
    <text xml:space="preserve" id="text2864" x="246.3" y="308.4" style="line-height:1.25;text-align:center">             <tspan id="tspan2862" x="256.3" y="308.4">Polysomal mRNA</tspan>        </text>
  </g>
  <g id="g1027" transform="translate(-2 -14)">
    <circle id="circle2306" cx="485.3" cy="212.9" r="6" fill="#999"/>
    <circle id="circle2312" cx="485.3" cy="265.9" r="6" fill="#fb77ce"/>
    <circle id="condition_Cold" cx="131.9" cy="85.8" r="6" fill="#3fa9f5"/>
    <circle id="condition_Osmotic" cx="131.9" cy="134.9" r="6" fill="#f69921"/>
    <circle id="condition_Salt" cx="131.9" cy="212.9" r="6" fill="#0ff"/>
    <circle id="circle2298" cx="131.9" cy="265.9" r="6" fill="#26e45c"/>
  </g>
</svg>