<svg xmlns="http://www.w3.org/2000/svg" xml:space="preserve" id="AbioticStress_svg" x="0" y="0" version="1.1" viewBox="0 0 748.2 583.5" author="Provart Lab - Bio Analytic Resource, University of Toronto">
  <g id="Condition_Labels" font-family="Helvetica" transform="translate(-35 -12)">
    <text id="text2" font-size="10.4" transform="translate(104 565)">Heat</text>
    <text id="text4" font-size="10.4" transform="translate(79 516)">Wounding</text>
    <text id="text6" font-size="10.4" transform="translate(102 466)">UV-B</text>
    <text id="text8" font-size="10.4" transform="translate(83 418)">Oxidative</text>
    <text id="text10" font-size="10.4" transform="translate(79 368)">Genotoxic</text>
    <text id="text12" font-size="10.4" transform="translate(89 318)">Drought</text>
    <text id="text14" font-size="10.4" transform="translate(108 270)">Salt</text>
    <text id="text16" font-size="10.4" transform="translate(88 220)">Osmotic</text>
    <text id="text18" font-size="10.4" transform="translate(104 171)">Cold</text>
    <text id="text20" font-size="12.1" transform="translate(92 106)">Control</text>
  </g>
  <g id="Time_labels" font-family="Helvetica" transform="translate(-35 -12)">
    <text id="text23" font-size="11.6" transform="translate(47 52)">-3</text>
    <text id="text25" font-size="7.7" transform="translate(42 62)">hours</text>
    <text id="text27" font-size="11.6" transform="translate(178 52)">0</text>
    <text id="text29" font-size="7.7" transform="translate(171 62)">hours</text>
    <text id="text31" font-size="11.6" transform="translate(241 52)">0.25</text>
    <text id="text33" font-size="7.7" transform="translate(243 62)">hours</text>
    <text id="text35" font-size="11.6" transform="translate(316 52)">0.5</text>
    <text id="text37" font-size="7.7" transform="translate(314 62)">hours</text>
    <text id="text39" font-size="11.6" transform="translate(392 52)">1</text>
    <text id="text41" font-size="7.7" transform="translate(386 62)">hours</text>
    <text id="text43" font-size="11.6" transform="translate(464 52)">3</text>
    <text id="text45" font-size="7.7" transform="translate(458 62)">hours</text>
    <text id="text47" font-size="11.6" transform="translate(536 52)">4</text>
    <text id="text49" font-size="7.7" transform="translate(529 62)">hours</text>
    <text id="text51" font-size="11.6" transform="translate(607 52)">6</text>
    <text id="text53" font-size="7.7" transform="translate(601 62)">hours</text>
    <text id="text55" font-size="11.6" transform="translate(675 52)">12</text>
    <text id="text57" font-size="7.7" transform="translate(672 62)">hours</text>
    <text id="text59" font-size="11.6" transform="translate(747 52)">24</text>
    <text id="text61" font-size="7.7" transform="translate(744 62)">hours</text>
  </g>
  <g id="Top" transform="translate(-35 -12)">
    <g id="Light_Indicator">
      <g id="log_time_scale">
        <path id="Light" fill="#fff594" d="M50 18h723v9H50Z"/>
        <g id="Dark_1_">
          <path id="Dark_BG" d="M687 18h50v9h-50z"/>
          <text id="text82" fill="#f2f2f2" font-family="Helvetica" font-size="7.7" transform="matrix(1.0199 0 0 1 698 26)">8 hours</text>
        </g>
      </g>
    </g>
  </g>
  <g id="samples_6_" transform="translate(-35 -12)">
    <g id="Control">
      <g id="samples" fill="#fff">
        <g id="_x30__hour">
          <g id="Control_Shoot_0_Hour">
            <path id="path88" stroke="#000" stroke-miterlimit="10" stroke-width=".5" d="M159 88s2-4 5-6 5-2 7-1l6 4-3-2-1-4 1-2 4 5 1 2v-1l2 3 1-3c0-2 1-4 3-4 1 0 3 0 2 1 0 2-2 3-3 4l-1 1 4-1 6-4 5 1-2 3 3 3 4 2h-9c-2-1-4-4-8-4l-5 2 1 1c1 0 4-1 6 1l1 1c-1 1-3 2-6 0l-2-1 2 2c2 1 7 2 8 4v4c-1 0-4 2-7-2l-2-5c0-1 0-2-2-3h-1c-1 0-2 0-3 2-1 1-4 4-8 4-1-1-3-2-2-4s1-3 3-3h10c-1 0-2-2-7-3-2 0-4 0-6 2l-4 1h-3z"/>
          </g>
          <g id="Control_Root_0_Hour">
            <path id="path91" stroke="#000" stroke-miterlimit="10" stroke-width=".5" d="M183 119v5c-2-1-1-2-1-4s-4-5-4-9l2-5c1-1 2-3 0-4-1-2-4-4-4-7l2-4v-2l3 1-1 3-2 4 5 4v4l-2 4c-2 4 2 6 2 10z"/>
          </g>
        </g>
        <g id="_x30_.25_hour">
          <g id="Control_Shoot_After_15_Minutes">
            <path id="path95" stroke="#000" stroke-miterlimit="10" stroke-width=".5" d="M231 88s2-4 5-6 4-2 6-1l7 4-3-2-1-4v-2l4 5 1 2 1-1c0 1 2 2 1 3 1 0 2-1 2-3s1-4 3-4l2 1c0 2-3 3-3 4l-1 1 3-1c1-1 3-3 7-4l5 1-3 3 4 3 3 2h-8c-3-1-4-4-8-4l-5 2v1c1 0 4-1 6 1l1 1c0 1-3 2-5 0l-2-1 2 2c1 1 7 2 7 4l1 4c-1 0-4 2-7-2-1-2-2-2-2-5l-2-3h-1c-1 0-2 0-3 2-2 1-4 4-8 4-1-1-3-2-2-4 0-2 1-3 2-3h11l-7-3c-2 0-4 0-6 2l-5 1h-2z"/>
          </g>
          <g id="Control_Root_After_15_Minutes">
            <path id="path98" stroke="#000" stroke-miterlimit="10" stroke-width=".5" d="M254 119v5l-1-4c0-2-3-5-3-9l2-5c1-1 2-3 0-4-2-2-5-4-5-7 1-2 3-2 3-4v-2l3 1-1 3c-1 1-3 2-2 4l4 4 1 4-3 4c-2 4 2 6 2 10z"/>
          </g>
        </g>
        <g id="_x30_.5_hour">
          <g id="Control_Shoot_After_30_Minutes">
            <path id="path102" stroke="#000" stroke-miterlimit="10" stroke-width=".5" d="m302 88 6-6c2-2 4-2 6-1l6 4-3-2v-6l4 5 1 2v-1l2 3s2-1 1-3l3-4 3 1-4 4-1 1 4-1 6-4 5 1-2 3 4 3 3 2h-9c-2-1-4-4-7-4l-6 2 1 1c1 0 4-1 6 1l1 1c-1 1-3 2-5 0l-2-1 2 2c1 1 6 2 7 4v4c-1 0-3 2-7-2l-1-5-2-3h-2s-2 0-3 2c-1 1-3 4-7 4-1-1-4-2-3-4l3-3h10l-6-3c-2 0-4 0-7 2l-4 1h-3z"/>
          </g>
          <g id="Control_Root_After_30_Minutes">
            <path id="path105" stroke="#000" stroke-miterlimit="10" stroke-width=".5" d="M326 119v5l-1-4c0-2-3-5-3-9-1-2 1-4 1-5 1-1 2-3 1-4-2-2-5-4-5-7l3-4v-2l2 1-1 3c0 1-2 2-1 4l4 4v4l-2 4c-2 4 2 6 2 10z"/>
          </g>
        </g>
        <g id="_x31__hour">
          <g id="Control_Shoot_After_1_Hour">
            <path id="path109" stroke="#000" stroke-miterlimit="10" stroke-width=".5" d="M374 88s2-4 5-6 5-2 7-1l6 4-3-2-1-4 1-2 4 5 1 2v-1l2 3 1-3c0-2 1-4 3-4 1 0 3 0 2 1 0 2-2 3-3 4l-1 1 4-1 6-4 5 1-2 3 3 3 4 2h-9c-2-1-4-4-8-4l-5 2 1 1c1 0 4-1 6 1l1 1c-1 1-3 2-6 0l-2-1 2 2c2 1 7 2 8 4v4c-1 0-4 2-7-2l-2-5c0-1 0-2-2-3h-1c-1 0-2 0-3 2-1 1-4 4-8 4-1-1-3-2-2-4s1-3 3-3h10c-1 0-2-2-7-3-2 0-4 0-6 2l-4 1h-3z"/>
          </g>
          <g id="Control_Root_After_1_Hour">
            <path id="path112" stroke="#000" stroke-miterlimit="10" stroke-width=".5" d="M398 119v5c-2-1-1-2-1-4s-4-5-4-9l2-5c1-1 2-3 0-4-1-2-4-4-4-7l2-4v-2l3 1-1 3-2 4 5 4v4l-2 4c-2 4 2 6 2 10z"/>
          </g>
        </g>
        <g id="_x33__hour">
          <g id="Control_Shoot_After_3_Hours">
            <path id="path116" stroke="#000" stroke-miterlimit="10" stroke-width=".5" d="M446 88s2-4 5-6 4-2 6-1l7 4-3-2-1-4v-2l4 5 1 2 1-1c0 1 2 2 1 3 1 0 2-1 2-3s1-4 3-4l2 1c0 2-2 3-3 4l-1 1 3-1c1-1 3-3 7-4l5 1-3 3 4 3 3 2h-8c-3-1-4-4-8-4l-5 2v1c1 0 4-1 6 1l1 1c0 1-3 2-5 0l-2-1 2 2c1 1 7 2 7 4l1 4c-1 0-4 2-7-2-1-2-2-2-2-5l-2-3h-1c-1 0-2 0-3 2-2 1-4 4-8 4-1-1-3-2-2-4 0-2 1-3 2-3h11l-7-3c-2 0-4 0-6 2l-5 1h-2z"/>
          </g>
          <g id="Control_Root_After_3_Hours">
            <path id="path119" stroke="#000" stroke-miterlimit="10" stroke-width=".5" d="M469 119v5l-1-4c0-2-3-5-3-9l2-5c1-1 2-3 0-4-2-2-5-4-5-7 1-2 3-2 3-4v-2l3 1-1 3c-1 1-3 2-2 4l4 4 1 4-3 4c-2 4 2 6 2 10z"/>
          </g>
        </g>
        <g id="_x34__hour">
          <g id="Control_Shoot_After_4_Hours">
            <path id="path123" stroke="#000" stroke-miterlimit="10" stroke-width=".5" d="m517 88 6-6c2-2 4-2 6-1l6 4-3-2v-6l4 5 1 2v-1l2 3s2-1 1-3l3-4 3 1-4 4-1 1 4-1 6-4 5 1-2 3 4 3 3 2h-9c-2-1-4-4-7-4l-6 2 1 1c1 0 4-1 6 1l1 1c-1 1-3 2-5 0l-2-1 2 2c1 1 6 2 7 4v4c-1 0-3 2-7-2l-1-5-2-3h-2s-2 0-3 2c-1 1-3 4-7 4-1-1-4-2-3-4l3-3h10l-6-3c-2 0-4 0-7 2l-4 1h-3z"/>
          </g>
          <g id="Control_Root_After_4_Hours">
            <path id="path126" stroke="#000" stroke-miterlimit="10" stroke-width=".5" d="M541 119v5l-1-4c0-2-3-5-3-9-1-2 1-4 1-5 1-1 2-3 1-4-2-2-5-4-5-7l3-4v-2l2 1-1 3c0 1-2 2-1 4l4 4v4l-2 4c-2 4 2 6 2 10z"/>
          </g>
        </g>
        <g id="_x36__hour">
          <g id="Control_Shoot_After_6_Hours">
            <path id="path130" stroke="#000" stroke-miterlimit="10" stroke-width=".5" d="M589 88s2-4 5-6 5-2 7-1l6 4-3-2v-6l4 5 1 2v-1l2 3 1-3c0-2 1-4 3-4 1 0 3 0 2 1 0 2-2 3-3 4l-1 1 4-1 6-4 5 1-2 3 3 3 4 2h-9c-2-1-4-4-8-4l-5 2 1 1c1 0 4-1 6 1l1 1c-1 1-3 2-6 0l-2-1 2 2c2 1 7 2 8 4v4c-1 0-4 2-7-2l-2-5c0-1 0-2-2-3h-1c-1 0-2 0-3 2-1 1-4 4-8 4-1-1-3-2-2-4s1-3 3-3h10c-1 0-2-2-7-3-2 0-4 0-6 2l-4 1h-3z"/>
          </g>
          <g id="Control_Root_After_6_Hours">
            <path id="path133" stroke="#000" stroke-miterlimit="10" stroke-width=".5" d="M613 119v5c-2-1-1-2-1-4s-4-5-4-9l2-5c1-1 2-3 0-4-1-2-4-4-4-7l2-4v-2l3 1-1 3-2 4 5 4v4l-2 4c-2 4 2 6 2 10z"/>
          </g>
        </g>
        <g id="_x31_2_hour">
          <g id="Control_Shoot_After_12_Hours">
            <path id="path137" stroke="#000" stroke-miterlimit="10" stroke-width=".5" d="M661 88s2-4 5-6 4-2 6-1l7 4-3-2-1-4v-2l4 5 1 2 1-1c0 1 2 2 1 3 1 0 2-1 2-3s1-4 3-4l2 1c0 2-2 3-3 4l-1 1 3-1c1-1 3-3 7-4l5 1-3 3 4 3 3 2h-8c-3-1-4-4-8-4l-5 2v1c1 0 4-1 6 1l1 1c0 1-3 2-5 0l-2-1 2 2c1 1 7 2 7 4l1 4c-1 0-4 2-7-2-1-2-2-2-2-5l-2-3h-1c-1 0-2 0-3 2-2 1-4 4-8 4-1-1-3-2-2-4 0-2 1-3 2-3h11l-7-3c-2 0-4 0-6 2l-5 1h-2z"/>
          </g>
          <g id="Control_Root_After_12_Hours">
            <path id="path140" stroke="#000" stroke-miterlimit="10" stroke-width=".5" d="M684 119v5l-1-4c0-2-3-5-3-9l2-5c1-1 2-3 0-4-2-2-5-4-5-7 1-2 3-2 3-4v-2l3 1-1 3c-1 1-3 2-2 4l5 4v4l-3 4c-2 4 2 6 2 10z"/>
          </g>
        </g>
        <g id="_x32_4_hour">
          <g id="Control_Shoot_After_24_Hours">
            <path id="path144" stroke="#000" stroke-miterlimit="10" stroke-width=".5" d="m732 88 6-6c2-2 4-2 6-1l6 4-3-2v-6l4 5 1 2v-1l2 3s2-1 1-3l3-4 3 1-4 4-1 1 4-1 6-4 5 1-2 3 4 3 3 2h-9c-2-1-4-4-7-4l-6 2 1 1c1 0 4-1 6 1l1 1c-1 1-3 2-5 0l-2-1 2 2c1 1 6 2 7 4v4c-1 0-3 2-7-2l-1-5-2-3h-2s-2 0-3 2c-1 1-3 4-7 4-1-1-4-2-3-4l3-3h10l-6-3c-2 0-4 0-7 2l-4 1h-3z"/>
          </g>
          <g id="Control_Root_After_24_Hours">
            <path id="path147" stroke="#000" stroke-miterlimit="10" stroke-width=".5" d="M756 119v5l-1-4c0-2-3-5-3-9-1-2 1-4 1-5 1-1 2-3 1-4-2-2-5-4-5-7l3-4v-2l2 1-1 3c0 1-2 2-1 4l4 4v4l-2 4c-2 4 2 6 2 10z"/>
          </g>
        </g>
      </g>
    </g>
    <g id="Cold">
      <g id="samples_18_" fill="#fff">
        <g id="_x30__hour_18_">
          <g id="Cold_Shoot_0_Hour">
            <path id="path153" stroke="#000" stroke-miterlimit="10" stroke-width=".5" d="M159 154s2-4 5-6c3-1 5-2 7-1l6 4-3-2-1-4 1-1 4 4 1 2v-1l2 3 1-3c0-2 1-4 3-4 1 0 3 0 2 2l-3 3-1 1 4-1c0-1 3-3 6-3l5 1-2 2 3 3 4 2h-9c-2-1-4-4-8-3-3 0-5 1-5 2h1c1 0 4-1 6 1l1 1c-1 1-3 2-6 0l-2-1 2 2c2 1 7 2 8 4v4c-1 0-4 2-7-2l-2-5c0-1 0-2-2-3h-1c-1 1-2 0-3 2-1 1-4 4-8 4-1-1-3-2-2-4l3-3h6l4 1c-1-1-2-3-7-4-2 0-4 0-6 2l-4 1h-3z"/>
          </g>
          <g id="Cold_Root_0_Hour">
            <path id="path156" stroke="#000" stroke-miterlimit="10" stroke-width=".5" d="M183 185v6c-2-2-1-2-1-5 0-2-4-5-4-9l2-5c1-1 2-2 0-4-1-2-4-4-4-6l2-4v-3l3 1-1 3-2 4 5 4v4l-2 4c-2 4 2 6 2 10z"/>
          </g>
        </g>
        <g id="_x30_.5_hour_18_">
          <g id="Cold_Shoot_After_30_Minutes">
            <path id="path160" stroke="#000" stroke-miterlimit="10" stroke-width=".5" d="m302 154 6-6c2-1 4-2 6-1l6 4-3-2v-5l4 4 1 2v-1l2 3s2-1 1-3l3-4c1 0 3 0 3 2l-4 3-1 1 4-1c1-1 3-3 6-3l5 1-2 2 4 3 3 2h-9c-2-1-4-4-7-3-4 0-5 1-6 2h1c1 0 4-1 6 1l1 1c-1 1-3 2-5 0l-2-1 2 2c1 1 6 2 7 4v4c-1 0-3 2-7-2l-1-5-2-3h-2c0 1-2 0-3 2-1 1-3 4-7 4-1-1-4-2-3-4l3-3h6l4 1c0-1-2-3-6-4-2 0-4 0-7 2l-4 1h-3z"/>
          </g>
          <g id="Cold_Root_After_30_Minutes">
            <path id="path163" stroke="#000" stroke-miterlimit="10" stroke-width=".5" d="M326 185v6l-1-5c0-2-3-5-3-9-1-2 1-4 1-5 1-1 2-2 1-4-2-2-5-4-5-6l3-4v-3l2 1c1 1 0 3-1 3 0 1-2 3-1 4l4 4v4l-2 4c-2 4 2 6 2 10z"/>
          </g>
        </g>
        <g id="_x31__hour_18_">
          <g id="Cold_Shoot_After_1_Hour">
            <path id="path167" stroke="#000" stroke-miterlimit="10" stroke-width=".5" d="M374 154s2-4 5-6c3-1 5-2 7-1l6 4-3-2-1-4 1-1 4 4 1 2v-1l2 3 1-3c0-2 1-4 3-4 1 0 3 0 2 2l-3 3-1 1 4-1c0-1 3-3 6-3l5 1-2 2 3 3 4 2h-9c-2-1-4-4-8-3-3 0-5 1-5 2h1c1 0 4-1 6 1l1 1c-1 1-3 2-6 0l-2-1 2 2c2 1 7 2 8 4v4c-1 0-4 2-7-2l-2-5c0-1 0-2-2-3h-1c-1 1-2 0-3 2-1 1-4 4-8 4-1-1-3-2-2-4l3-3h6l4 1c-1-1-2-3-7-4-2 0-4 0-6 2l-4 1h-3z"/>
          </g>
          <g id="Cold_Root_After_1_Hour">
            <path id="path170" stroke="#000" stroke-miterlimit="10" stroke-width=".5" d="M398 185v6c-2-2-1-2-1-5 0-2-4-5-4-9l2-5c1-1 2-2 0-4-1-2-4-4-4-6l2-4v-3l3 1-1 3-2 4 5 4v4l-2 4c-2 4 2 6 2 10z"/>
          </g>
        </g>
        <g id="_x33__hour_18_">
          <g id="Cold_Shoot_After_3_Hours">
            <path id="path174" stroke="#000" stroke-miterlimit="10" stroke-width=".5" d="M446 154s2-4 5-6c3-1 4-2 6-1l7 4-3-2-1-4v-1l4 4 1 2 1-1c0 1 2 2 1 3 1 0 2-1 2-3s1-4 3-4c1 0 2 0 2 2l-3 3-1 1 3-1c1-1 3-3 7-3l5 1-3 2 4 3 3 2h-8c-3-1-4-4-8-3-4 0-5 1-5 2 1 0 4-1 6 1l1 1c0 1-3 2-5 0l-2-1 2 2c1 1 7 2 7 4l1 4c-1 0-4 2-7-2-1-1-2-2-2-5l-2-3h-1c-1 1-2 0-3 2-2 1-4 4-8 4-1-1-3-2-2-4l2-3h7l4 1c-1-1-3-3-7-4-2 0-4 0-6 2l-5 1h-2z"/>
          </g>
          <g id="Cold_Root_After_3_Hours">
            <path id="path177" stroke="#000" stroke-miterlimit="10" stroke-width=".5" d="M469 185v6l-1-5c0-2-3-5-3-9l2-5c1-1 2-2 0-4s-5-4-5-6l3-4v-3l3 1-1 3c-1 1-3 3-2 4l4 4 1 4-3 4c-2 4 2 6 2 10z"/>
          </g>
        </g>
        <g id="_x36__hour_18_">
          <g id="Cold_Shoot_After_6_Hours">
            <path id="path181" stroke="#000" stroke-miterlimit="10" stroke-width=".5" d="M589 154s2-4 5-6c3-1 5-2 7-1l6 4-3-2v-5l4 4 1 2v-1l2 3 1-3c0-2 1-4 3-4 1 0 3 0 2 2l-3 3-1 1 4-1c0-1 3-3 6-3l5 1-2 2 3 3 4 2h-9c-2-1-4-4-8-3-3 0-5 1-5 2h1c1 0 4-1 6 1l1 1c-1 1-3 2-6 0l-2-1 2 2c2 1 7 2 8 4v4c-1 0-4 2-7-2l-2-5c0-1 0-2-2-3h-1c-1 1-2 0-3 2-1 1-4 4-8 4-1-1-3-2-2-4l3-3h6l4 1c-1-1-2-3-7-4-2 0-4 0-6 2l-4 1h-3z"/>
          </g>
          <g id="Cold_Root_After_6_Hours">
            <path id="path184" stroke="#000" stroke-miterlimit="10" stroke-width=".5" d="M613 185v6c-2-2-1-2-1-5 0-2-4-5-4-9l2-5c1-1 2-2 0-4-1-2-4-4-4-6l2-4v-3l3 1-1 3-2 4 5 4v4l-2 4c-2 4 2 6 2 10z"/>
          </g>
        </g>
        <g id="_x31_2_hour_18_">
          <g id="Cold_Shoot_After_12_Hours">
            <path id="path188" stroke="#000" stroke-miterlimit="10" stroke-width=".5" d="M661 154s2-4 5-6c3-1 4-2 6-1l7 4-3-2-1-4v-1l4 4 1 2 1-1c0 1 2 2 1 3 1 0 2-1 2-3s1-4 3-4c1 0 2 0 2 2l-3 3-1 1 3-1c1-1 3-3 7-3l5 1-3 2 4 3 3 2h-8c-3-1-4-4-8-3-4 0-5 1-5 2 1 0 4-1 6 1l1 1c0 1-3 2-5 0l-2-1 2 2c1 1 7 2 7 4l1 4c-1 0-4 2-7-2-1-1-2-2-2-5l-2-3h-1c-1 1-2 0-3 2-2 1-4 4-8 4-1-1-3-2-2-4l2-3h7l4 1c-1-1-3-3-7-4-2 0-4 0-6 2l-5 1h-2z"/>
          </g>
          <g id="Cold_Root_After_12_Hours">
            <path id="path191" stroke="#000" stroke-miterlimit="10" stroke-width=".5" d="M684 185v6l-1-5c0-2-3-5-3-9l2-5c1-1 2-2 0-4s-5-4-5-6l3-4v-3l3 1-1 3c-1 1-3 3-2 4l5 4v4l-3 4c-2 4 2 6 2 10z"/>
          </g>
        </g>
        <g id="_x32_4_hour_18_">
          <g id="Cold_Shoot_After_24_Hours">
            <path id="path195" stroke="#000" stroke-miterlimit="10" stroke-width=".5" d="m732 154 6-6c2-1 4-2 6-1l6 4-3-2v-5l4 4 1 2v-1l2 3s2-1 1-3l3-4c1 0 3 0 3 2l-4 3-1 1 4-1c1-1 3-3 6-3l5 1-2 2 4 3 3 2h-9c-2-1-4-4-7-3-4 0-5 1-6 2h1c1 0 4-1 6 1l1 1c-1 1-3 2-5 0l-2-1 2 2c1 1 6 2 7 4v4c-1 0-3 2-7-2l-1-5-2-3h-2c0 1-2 0-3 2-1 1-3 4-7 4-1-1-4-2-3-4l3-3h6l4 1c0-1-2-3-6-4-2 0-4 0-7 2l-4 1h-3z"/>
          </g>
          <g id="Cold_Root_After_24_Hours">
            <path id="path198" stroke="#000" stroke-miterlimit="10" stroke-width=".5" d="M756 185v6l-1-5c0-2-3-5-3-9-1-2 1-4 1-5 1-1 2-2 1-4-2-2-5-4-5-6l3-4v-3l2 1c1 1 0 3-1 3 0 1-2 3-1 4l4 4v4l-2 4c-2 4 2 6 2 10z"/>
          </g>
        </g>
      </g>
    </g>
    <g id="Osmotic_1_">
      <g id="samples_2_" fill="#fff">
        <g id="_x30__hour_2_">
          <g id="Osmotic_Shoot_0_Hour">
            <path id="path204" stroke="#000" stroke-miterlimit="10" stroke-width=".5" d="M159 204s2-5 5-6c3-2 5-3 7-1l6 4-3-2-1-4 1-2 4 5 1 2v-1l2 3 1-4c0-1 1-3 3-3 1-1 3 0 2 1 0 2-2 3-3 4l-1 1 4-2 6-3 5 1-2 3 3 3 4 2h-9c-2-2-4-4-8-4l-5 2 1 1c1-1 4-2 6 1l1 1c-1 0-3 2-6 0l-2-2 2 3c2 0 7 2 8 4v3c-1 1-4 3-7-1l-2-5c0-1 0-2-2-3h-1c-1 0-2 0-3 2-1 1-4 4-8 3-1 0-3-1-2-3s1-3 3-3h10c-1 0-2-3-7-3-2 0-4 0-6 2l-4 1h-3z"/>
          </g>
          <g id="Osmotic_Root_0_Hour">
            <path id="path207" stroke="#000" stroke-miterlimit="10" stroke-width=".5" d="M183 235v5c-2-1-1-2-1-4 0-3-4-5-4-9l2-5c1-1 2-3 0-5-1-1-4-4-4-6l2-4v-2l3 1-1 3-2 4 5 4v4l-2 4c-2 4 2 6 2 10z"/>
          </g>
        </g>
        <g id="_x30_.5_hour_2_">
          <g id="Osmotic_Shoot_After_30_Minutes">
            <path id="path211" stroke="#000" stroke-miterlimit="10" stroke-width=".5" d="M302 204s3-5 6-6c2-2 4-3 6-1l6 4-3-2v-6l4 5 1 2v-1l2 3s2-1 1-4l3-3c1-1 3 0 3 1l-4 4-1 1 4-2 6-3 5 1-2 3 4 3 3 2h-9c-2-2-4-4-7-4l-6 2 1 1c1-1 4-2 6 1l1 1c-1 0-3 2-5 0l-2-2 2 3c1 0 6 2 7 4v3c-1 1-3 3-7-1l-1-5-2-3h-2s-2 0-3 2c-1 1-3 4-7 3-1 0-4-1-3-3l3-3h10s-2-3-6-3c-2 0-4 0-7 2l-4 1h-3z"/>
          </g>
          <g id="Osmotic_Root_After_30_Minutes">
            <path id="path214" stroke="#000" stroke-miterlimit="10" stroke-width=".5" d="M326 235v5l-1-4c0-3-3-5-3-9-1-2 1-4 1-5 1-1 2-3 1-5-2-1-5-4-5-6l3-4v-2l2 1-1 3c0 1-2 2-1 4l4 4v4l-2 4c-2 4 2 6 2 10z"/>
          </g>
        </g>
        <g id="_x31__hour_2_">
          <g id="Osmotic_Shoot_After_1_Hour">
            <path id="path218" stroke="#000" stroke-miterlimit="10" stroke-width=".5" d="M374 204s2-5 5-6c3-2 5-3 7-1l6 4-3-2-1-4 1-2 4 5 1 2v-1l2 3 1-4c0-1 1-3 3-3 1-1 3 0 2 1 0 2-2 3-3 4l-1 1 4-2 6-3 5 1-2 3 3 3 4 2h-9c-2-2-4-4-8-4l-5 2 1 1c1-1 4-2 6 1l1 1c-1 0-3 2-6 0l-2-2 2 3c2 0 7 2 8 4v3c-1 1-4 3-7-1l-2-5c0-1 0-2-2-3h-1c-1 0-2 0-3 2-1 1-4 4-8 3-1 0-3-1-2-3s1-3 3-3h10c-1 0-2-3-7-3-2 0-4 0-6 2l-4 1h-3z"/>
          </g>
          <g id="Osmotic_Root_After_1_Hour">
            <path id="path221" stroke="#000" stroke-miterlimit="10" stroke-width=".5" d="M398 235v5c-2-1-1-2-1-4 0-3-4-5-4-9l2-5c1-1 2-3 0-5-1-1-4-4-4-6l2-4v-2l3 1-1 3-2 4 5 4v4l-2 4c-2 4 2 6 2 10z"/>
          </g>
        </g>
        <g id="_x33__hour_2_">
          <g id="Osmotic_Shoot_After_3_Hours">
            <path id="path225" stroke="#000" stroke-miterlimit="10" stroke-width=".5" d="M446 204s2-5 5-6c3-2 4-3 6-1l7 4-3-2-1-4v-2l4 5 1 2 1-1c0 1 2 2 1 3 1 0 2-1 2-4 0-1 1-3 3-3 1-1 2 0 2 1 0 2-2 3-3 4l-1 1 3-2 7-3 5 1-3 3 4 3 3 2h-8c-3-2-4-4-8-4l-5 2v1c1-1 4-2 6 1l1 1s-3 2-5 0l-2-2 2 3c1 0 7 2 7 4l1 3c-1 1-4 3-7-1-1-2-2-2-2-5l-2-3h-1c-1 0-2 0-3 2-2 1-4 4-8 3-1 0-3-1-2-3 0-2 1-3 2-3h11c-1 0-3-3-7-3-2 0-4 0-6 2l-5 1h-2z"/>
          </g>
          <g id="Osmotic_Root_After_3_Hours">
            <path id="path228" stroke="#000" stroke-miterlimit="10" stroke-width=".5" d="M469 235v5l-1-4c0-3-3-5-3-9l2-5c1-1 2-3 0-5-2-1-5-4-5-6l3-4v-2l3 1-1 3c-1 1-3 2-2 4l4 4 1 4-3 4c-2 4 2 6 2 10z"/>
          </g>
        </g>
        <g id="_x36__hour_2_">
          <g id="Osmotic_Shoot_After_6_Hours">
            <path id="path232" stroke="#000" stroke-miterlimit="10" stroke-width=".5" d="M589 204s2-5 5-6c3-2 5-3 7-1l6 4-3-2v-6l4 5 1 2v-1l2 3 1-4c0-1 1-3 3-3 1-1 3 0 2 1 0 2-2 3-3 4l-1 1 4-2 6-3 5 1-2 3 3 3 4 2h-9c-2-2-4-4-8-4l-5 2 1 1c1-1 4-2 6 1l1 1c-1 0-3 2-6 0l-2-2 2 3c2 0 7 2 8 4v3c-1 1-4 3-7-1l-2-5c0-1 0-2-2-3h-1c-1 0-2 0-3 2-1 1-4 4-8 3-1 0-3-1-2-3s1-3 3-3h10c-1 0-2-3-7-3-2 0-4 0-6 2l-4 1h-3z"/>
          </g>
          <g id="Osmotic_Root_After_6_Hours">
            <path id="path235" stroke="#000" stroke-miterlimit="10" stroke-width=".5" d="M613 235v5c-2-1-1-2-1-4 0-3-4-5-4-9l2-5c1-1 2-3 0-5-1-1-4-4-4-6l2-4v-2l3 1-1 3-2 4 5 4v4l-2 4c-2 4 2 6 2 10z"/>
          </g>
        </g>
        <g id="_x31_2_hour_2_">
          <g id="Osmotic_Shoot_After_12_Hours">
            <path id="path239" stroke="#000" stroke-miterlimit="10" stroke-width=".5" d="M661 204s2-5 5-6c3-2 4-3 6-1l7 4-3-2-1-4v-2l4 5 1 2 1-1c0 1 2 2 1 3 1 0 2-1 2-4 0-1 1-3 3-3 1-1 2 0 2 1 0 2-2 3-3 4l-1 1 3-2 7-3 5 1-3 3 4 3 3 2h-8c-3-2-4-4-8-4l-5 2v1c1-1 4-2 6 1l1 1s-3 2-5 0l-2-2 2 3c1 0 7 2 7 4l1 3c-1 1-4 3-7-1-1-2-2-2-2-5l-2-3h-1c-1 0-2 0-3 2-2 1-4 4-8 3-1 0-3-1-2-3 0-2 1-3 2-3h11c-1 0-3-3-7-3-2 0-4 0-6 2l-5 1h-2z"/>
          </g>
          <g id="Osmotic_Root_After_12_Hours">
            <path id="path242" stroke="#000" stroke-miterlimit="10" stroke-width=".5" d="M684 235v5l-1-4c0-3-3-5-3-9l2-5c1-1 2-3 0-5-2-1-5-4-5-6l3-4v-2l3 1-1 3c-1 1-3 2-2 4l5 4v4l-3 4c-2 4 2 6 2 10z"/>
          </g>
        </g>
        <g id="_x32_4_hour_2_">
          <g id="Osmotic_Shoot_After_24_Hours">
            <path id="path246" stroke="#000" stroke-miterlimit="10" stroke-width=".5" d="M732 204s3-5 6-6c2-2 4-3 6-1l6 4-3-2v-6l4 5 1 2v-1l2 3s2-1 1-4l3-3c1-1 3 0 3 1l-4 4-1 1 4-2 6-3 5 1-2 3 4 3 3 2h-9c-2-2-4-4-7-4l-6 2 1 1c1-1 4-2 6 1l1 1c-1 0-3 2-5 0l-2-2 2 3c1 0 6 2 7 4v3c-1 1-3 3-7-1l-1-5-2-3h-2s-2 0-3 2c-1 1-3 4-7 3-1 0-4-1-3-3l3-3h10s-2-3-6-3c-2 0-4 0-7 2l-4 1h-3z"/>
          </g>
          <g id="Osmotic_Root_After_24_Hours">
            <path id="path249" stroke="#000" stroke-miterlimit="10" stroke-width=".5" d="M756 235v5l-1-4c0-3-3-5-3-9-1-2 1-4 1-5 1-1 2-3 1-5-2-1-5-4-5-6l3-4v-2l2 1-1 3c0 1-2 2-1 4l4 4v4l-2 4c-2 4 2 6 2 10z"/>
          </g>
        </g>
      </g>
    </g>
    <g id="Salt">
      <g id="samples_15_" fill="#fff">
        <g id="_x30__hour_15_">
          <g id="Salt_Shoot_0_Hour">
            <path id="path255" stroke="#000" stroke-miterlimit="10" stroke-width=".5" d="M159 254s2-5 5-6c3-2 5-3 7-1l6 4-3-3-1-3 1-2 4 4 1 3v-2l2 4 1-4 3-4c1 0 3 0 2 2 0 2-2 3-3 4l-1 1 4-2c0-1 3-3 6-3l5 1-2 3 3 3 4 1c-1 1-7 2-9 1-2-2-4-5-8-4l-5 2h1c1 0 4-1 6 2l1 1c-1 0-3 2-6 0l-2-2 2 3c2 0 7 2 8 4v3c-1 1-4 2-7-2l-2-4c0-2 0-2-2-3h-1l-3 1c-1 1-4 5-8 4-1 0-3-2-2-4l3-3h6l4 1c-1-1-2-3-7-3-2 0-4 0-6 2l-4 1h-3z"/>
          </g>
          <g id="Salt_Root_0_Hour">
            <path id="path258" stroke="#000" stroke-miterlimit="10" stroke-width=".5" d="M183 284v6c-2-1-1-2-1-4 0-3-4-6-4-9s1-4 2-5 2-3 0-5c-1-2-4-4-4-6l2-4v-2h3l-1 4-2 3 5 5v3l-2 5c-2 3 2 6 2 9z"/>
          </g>
        </g>
        <g id="_x30_.5_hour_15_">
          <g id="Salt_Shoot_After_30_Minutes">
            <path id="path262" stroke="#000" stroke-miterlimit="10" stroke-width=".5" d="M302 254s3-5 6-6c2-2 4-3 6-1l6 4-3-3v-5l4 4 1 3v-2l2 4c0-1 2-1 1-4l3-4c1 0 3 0 3 2l-4 4-1 1 4-2c1-1 3-3 6-3l5 1-2 3 4 3 3 1c-1 1-6 2-9 1-2-2-4-5-7-4l-6 2h1c1 0 4-1 6 2l1 1c-1 0-3 2-5 0l-2-2 2 3c1 0 6 2 7 4v3c-1 1-3 2-7-2l-1-4-2-3h-2l-3 1c-1 1-3 5-7 4-1 0-4-2-3-4l3-3h6l4 1c0-1-2-3-6-3-2 0-4 0-7 2l-4 1h-3z"/>
          </g>
          <g id="Salt_Root_After_30_Minutes">
            <path id="path265" stroke="#000" stroke-miterlimit="10" stroke-width=".5" d="M326 284v6l-1-4-3-9c-1-3 1-4 1-5 1-1 2-3 1-5-2-2-5-4-5-6l3-4v-2h2c1 1 0 3-1 4 0 0-2 2-1 3l4 5v3l-2 5c-2 3 2 6 2 9z"/>
          </g>
        </g>
        <g id="_x31__hour_15_">
          <g id="Salt_Shoot_After_1_Hour">
            <path id="path269" stroke="#000" stroke-miterlimit="10" stroke-width=".5" d="M374 254s2-5 5-6c3-2 5-3 7-1l6 4-3-3-1-3 1-2 4 4 1 3v-2l2 4 1-4 3-4c1 0 3 0 2 2 0 2-2 3-3 4l-1 1 4-2c0-1 3-3 6-3l5 1-2 3 3 3 4 1c-1 1-7 2-9 1-2-2-4-5-8-4l-5 2h1c1 0 4-1 6 2l1 1c-1 0-3 2-6 0l-2-2 2 3c2 0 7 2 8 4v3c-1 1-4 2-7-2l-2-4c0-2 0-2-2-3h-1l-3 1c-1 1-4 5-8 4-1 0-3-2-2-4l3-3h6l4 1c-1-1-2-3-7-3-2 0-4 0-6 2l-4 1h-3z"/>
          </g>
          <g id="Salt_Root_After_1_Hour">
            <path id="path272" stroke="#000" stroke-miterlimit="10" stroke-width=".5" d="M398 284v6c-2-1-1-2-1-4 0-3-4-6-4-9s1-4 2-5 2-3 0-5c-1-2-4-4-4-6l2-4v-2h3l-1 4-2 3 5 5v3l-2 5c-2 3 2 6 2 9z"/>
          </g>
        </g>
        <g id="_x33__hour_15_">
          <g id="Salt_Shoot_After_3_Hours">
            <path id="path276" stroke="#000" stroke-miterlimit="10" stroke-width=".5" d="M446 254s2-5 5-6c3-2 4-3 6-1l7 4-3-3-1-3v-2l4 4 1 3 1-2c0 1 2 2 1 4 1-1 2-1 2-4l3-4c1 0 2 0 2 2s-2 3-3 4l-1 1 3-2c1-1 3-3 7-3l5 1-3 3 4 3 3 1c0 1-6 2-8 1-3-2-4-5-8-4l-5 2s0 1 0 0c1 0 4-1 6 2l1 1s-3 2-5 0l-2-2 2 3c1 0 7 2 7 4l1 3c-1 1-4 2-7-2l-2-4-2-3h-1l-3 1c-2 1-4 5-8 4-1 0-3-2-2-4l2-3h7l4 1c-1-1-3-3-7-3-2 0-4 0-6 2l-5 1h-2z"/>
          </g>
          <g id="Salt_Root_After_3_Hours">
            <path id="path279" stroke="#000" stroke-miterlimit="10" stroke-width=".5" d="M469 284v6l-1-4-3-9c0-3 1-4 2-5s2-3 0-5-5-4-5-6l3-4v-2h3l-1 4c-1 0-3 2-2 3l4 5 1 3-3 5c-2 3 2 6 2 9z"/>
          </g>
        </g>
        <g id="_x36__hour_15_">
          <g id="Salt_Shoot_After_6_Hours">
            <path id="path283" stroke="#000" stroke-miterlimit="10" stroke-width=".5" d="M589 254s2-5 5-6c3-2 5-3 7-1l6 4-3-3v-5l4 4 1 3v-2l2 4 1-4 3-4c1 0 3 0 2 2 0 2-2 3-3 4l-1 1 4-2c0-1 3-3 6-3l5 1-2 3 3 3 4 1c-1 1-7 2-9 1-2-2-4-5-8-4l-5 2h1c1 0 4-1 6 2l1 1c-1 0-3 2-6 0l-2-2 2 3c2 0 7 2 8 4v3c-1 1-4 2-7-2l-2-4c0-2 0-2-2-3h-1l-3 1c-1 1-4 5-8 4-1 0-3-2-2-4l3-3h6l4 1c-1-1-2-3-7-3-2 0-4 0-6 2l-4 1h-3z"/>
          </g>
          <g id="Salt_Root_After_6_Hours">
            <path id="path286" stroke="#000" stroke-miterlimit="10" stroke-width=".5" d="M613 284v6c-2-1-1-2-1-4 0-3-4-6-4-9s1-4 2-5 2-3 0-5c-1-2-4-4-4-6l2-4v-2h3l-1 4-2 3 5 5v3l-2 5c-2 3 2 6 2 9z"/>
          </g>
        </g>
        <g id="_x31_2_hour_15_">
          <g id="Salt_Shoot_After_12_Hours">
            <path id="path290" stroke="#000" stroke-miterlimit="10" stroke-width=".5" d="M661 254s2-5 5-6c3-2 4-3 6-1l7 4-3-3-1-3v-2l4 4 1 3 1-2c0 1 2 2 1 4 1-1 2-1 2-4l3-4c1 0 2 0 2 2s-2 3-3 4l-1 1 3-2c1-1 3-3 7-3l5 1-3 3 4 3 3 1c0 1-6 2-8 1-3-2-4-5-8-4l-5 2s0 1 0 0c1 0 4-1 6 2l1 1s-3 2-5 0l-2-2 2 3c1 0 7 2 7 4l1 3c-1 1-4 2-7-2l-2-4-2-3h-1l-3 1c-2 1-4 5-8 4-1 0-3-2-2-4l2-3h7l4 1c-1-1-3-3-7-3-2 0-4 0-6 2l-5 1h-2z"/>
          </g>
          <g id="Salt_Root_After_12_Hours">
            <path id="path293" stroke="#000" stroke-miterlimit="10" stroke-width=".5" d="M684 284v6l-1-4-3-9c0-3 1-4 2-5s2-3 0-5-5-4-5-6l3-4v-2h3l-1 4c-1 0-3 2-2 3l5 5v3l-3 5c-2 3 2 6 2 9z"/>
          </g>
        </g>
        <g id="_x32_4_hour_15_">
          <g id="Salt_Shoot_After_24_Hours">
            <path id="path297" stroke="#000" stroke-miterlimit="10" stroke-width=".5" d="M732 254s3-5 6-6c2-2 4-3 6-1l6 4-3-3v-5l4 4 1 3v-2l2 4c0-1 2-1 1-4l3-4c1 0 3 0 3 2l-4 4-1 1 4-2c1-1 3-3 6-3l5 1-2 3 4 3 3 1c-1 1-6 2-9 1-2-2-4-5-7-4l-6 2h1c1 0 4-1 6 2l1 1c-1 0-3 2-5 0l-2-2 2 3c1 0 6 2 7 4v3c-1 1-3 2-7-2l-1-4-2-3h-2l-3 1c-1 1-3 5-7 4-1 0-4-2-3-4l3-3h6l4 1c0-1-2-3-6-3-2 0-4 0-7 2l-4 1h-3z"/>
          </g>
          <g id="Salt_Root_After_24_Hours">
            <path id="path300" stroke="#000" stroke-miterlimit="10" stroke-width=".5" d="M756 284v6l-1-4-3-9c-1-3 1-4 1-5 1-1 2-3 1-5-2-2-5-4-5-6l3-4v-2h2c1 1 0 3-1 4 0 0-2 2-1 3l4 5v3l-2 5c-2 3 2 6 2 9z"/>
          </g>
        </g>
      </g>
    </g>
    <g id="Drought">
      <g id="samples_4_" fill="#fff">
        <g id="_x30__hour_4_">
          <g id="Drought_Shoot_0_Hour">
            <path id="path306" stroke="#000" stroke-miterlimit="10" stroke-width=".5" d="M159 303s2-4 5-6c3-1 5-2 7-1l6 5-3-3-1-4 1-1 4 4 1 2v-1l2 3 1-3c0-2 1-4 3-4 1 0 3 0 2 2l-3 3-1 2 4-2c0-1 3-3 6-3l5 1-2 2 3 4 4 1c-1 0-7 2-9 0-2-1-4-4-8-3l-5 2h1c1 0 4-1 6 1l1 2c-1 0-3 2-6-1l-2-1 2 3c2 0 7 1 8 4v3c-1 0-4 2-7-2l-2-5c0-1 0-2-2-2h-1l-3 1c-1 1-4 4-8 4-1 0-3-2-2-4l3-3h6l4 1c-1-1-2-3-7-4l-6 2-4 1h-3z"/>
          </g>
          <g id="Drought_Root_0_Hour">
            <path id="path309" stroke="#000" stroke-miterlimit="10" stroke-width=".5" d="M183 334v6c-2-1-1-2-1-5 0-2-4-5-4-9l2-4c1-1 2-3 0-5-1-2-4-4-4-6l2-4v-2h3l-1 4-2 3 5 5v3l-2 5c-2 3 2 6 2 9z"/>
          </g>
        </g>
        <g id="_x30_.25_hour_4_">
          <g id="Drought_Shoot_After_15_Minutes">
            <path id="path313" stroke="#000" stroke-miterlimit="10" stroke-width=".5" d="M231 303s2-4 5-6c3-1 4-2 6-1l7 5-3-3-1-4v-1l4 4 1 2 1-1c0 1 2 2 1 3 1 0 2-1 2-3s1-4 3-4c1 0 2 0 2 2l-3 3-1 2 3-2c1-1 3-3 7-3l5 1-3 2 4 4 3 1s-6 2-8 0c-3-1-4-4-8-3l-5 2c1 0 4-1 6 1l1 2s-3 2-5-1l-2-1 2 3c1 0 7 1 7 4l1 3c-1 0-4 2-7-2-1-1-2-2-2-5l-2-2h-1l-3 1c-2 1-4 4-8 4-1 0-3-2-2-4l2-3h7l4 1c-1-1-3-3-7-4l-6 2-5 1h-2z"/>
          </g>
          <g id="Drought_Root_After_15_Minutes">
            <path id="path316" stroke="#000" stroke-miterlimit="10" stroke-width=".5" d="M254 334v6l-1-5c0-2-3-5-3-9l2-4c1-1 2-3 0-5s-5-4-5-6l3-4v-2h3l-1 4c-1 0-3 2-2 3s4 3 4 5l1 3-3 5c-2 3 2 6 2 9z"/>
          </g>
        </g>
        <g id="_x30_.5_hour_4_">
          <g id="Drought_Shoot_After_30_Minutes">
            <path id="path320" stroke="#000" stroke-miterlimit="10" stroke-width=".5" d="m302 303 6-6c2-1 4-2 6-1l6 5-3-3v-5l4 4 1 2v-1l2 3s2-1 1-3l3-4c1 0 3 0 3 2l-4 3-1 2 4-2c1-1 3-3 6-3l5 1-2 2 4 4 3 1c-1 0-6 2-9 0-2-1-4-4-7-3l-6 2h1c1 0 4-1 6 1l1 2c-1 0-3 2-5-1l-2-1 2 3c1 0 6 1 7 4v3c-1 0-3 2-7-2l-1-5-2-2h-2l-3 1c-1 1-3 4-7 4-1 0-4-2-3-4l3-3h6l4 1c0-1-2-3-6-4l-7 2-4 1h-3z"/>
          </g>
          <g id="Drought_Root_After_30_Minutes">
            <path id="path323" stroke="#000" stroke-miterlimit="10" stroke-width=".5" d="M326 334v6l-1-5c0-2-3-5-3-9-1-2 1-4 1-4 1-1 2-3 1-5-2-2-5-4-5-6l3-4v-2h2c1 1 0 3-1 4 0 0-2 2-1 3l4 5v3l-2 5c-2 3 2 6 2 9z"/>
          </g>
        </g>
        <g id="_x31__hour_4_">
          <g id="Drought_Shoot_After_1_Hour">
            <path id="path327" stroke="#000" stroke-miterlimit="10" stroke-width=".5" d="M374 303s2-4 5-6c3-1 5-2 7-1l6 5-3-3-1-4 1-1 4 4 1 2v-1l2 3 1-3c0-2 1-4 3-4 1 0 3 0 2 2l-3 3-1 2 4-2c0-1 3-3 6-3l5 1-2 2 3 4 4 1c-1 0-7 2-9 0-2-1-4-4-8-3l-5 2h1c1 0 4-1 6 1l1 2c-1 0-3 2-6-1l-2-1 2 3c2 0 7 1 8 4v3c-1 0-4 2-7-2l-2-5c0-1 0-2-2-2h-1l-3 1c-1 1-4 4-8 4-1 0-3-2-2-4l3-3h6l4 1c-1-1-2-3-7-4l-6 2-4 1h-3z"/>
          </g>
          <g id="Drought_Root_After_1_Hour">
            <path id="path330" stroke="#000" stroke-miterlimit="10" stroke-width=".5" d="M398 334v6c-2-1-1-2-1-5 0-2-4-5-4-9l2-4c1-1 2-3 0-5-1-2-4-4-4-6l2-4v-2h3l-1 4-2 3 5 5v3l-2 5c-2 3 2 6 2 9z"/>
          </g>
        </g>
        <g id="_x33__hour_4_">
          <g id="Drought_Shoot_After_3_Hours">
            <path id="path334" stroke="#000" stroke-miterlimit="10" stroke-width=".5" d="M446 303s2-4 5-6c3-1 4-2 6-1a383 383 0 0 1 4 2l-1-4v-1l4 4 1 2 1-1c0 1 2 2 1 3 1 0 2-1 2-3s1-4 3-4c1 0 2 0 2 2l-3 3-1 2 3-2c1-1 3-3 7-3l5 1-3 2 4 4 3 1s-6 2-8 0c-3-1-4-4-8-3l-5 2c1 0 4-1 6 1l1 2s-3 2-5-1l-2-1 2 3c1 0 7 1 7 4l1 3c-1 0-4 2-7-2-1-1-2-2-2-5l-2-2h-1l-3 1c-2 1-4 4-8 4-1 0-3-2-2-4l2-3h7l4 1c-1-1-3-3-7-4l-6 2-5 1h-2z"/>
          </g>
          <g id="Drought_Root_After_3_Hours">
            <path id="path337" stroke="#000" stroke-miterlimit="10" stroke-width=".5" d="M469 334v6l-1-5c0-2-3-5-3-9l2-4c1-1 2-3 0-5s-5-4-5-6l3-4v-2h3l-1 4c-1 0-3 2-2 3s4 3 4 5l1 3-3 5c-2 3 2 6 2 9z"/>
          </g>
        </g>
        <g id="_x36__hour_4_">
          <g id="Drought_Shoot_After_6_Hours">
            <path id="path341" stroke="#000" stroke-miterlimit="10" stroke-width=".5" d="M589 303s2-4 5-6c3-1 5-2 7-1l6 5-3-3v-5l4 4 1 2v-1l2 3 1-3c0-2 1-4 3-4 1 0 3 0 2 2l-3 3-1 2 4-2c0-1 3-3 6-3l5 1-2 2 3 4 4 1c-1 0-7 2-9 0-2-1-4-4-8-3l-5 2h1c1 0 4-1 6 1l1 2c-1 0-3 2-6-1l-2-1 2 3c2 0 7 1 8 4v3c-1 0-4 2-7-2l-2-5c0-1 0-2-2-2h-1l-3 1c-1 1-4 4-8 4-1 0-3-2-2-4l3-3h6l4 1c-1-1-2-3-7-4l-6 2-4 1h-3z"/>
          </g>
          <g id="Drought_Root_After_6_Hours">
            <path id="path344" stroke="#000" stroke-miterlimit="10" stroke-width=".5" d="M613 334v6c-2-1-1-2-1-5 0-2-4-5-4-9l2-4c1-1 2-3 0-5-1-2-4-4-4-6l2-4v-2h3l-1 4-2 3 5 5v3l-2 5c-2 3 2 6 2 9z"/>
          </g>
        </g>
        <g id="_x31_2_hour_4_">
          <g id="Drought_Shoot_After_12_Hours">
            <path id="path348" stroke="#000" stroke-miterlimit="10" stroke-width=".5" d="M661 303s2-4 5-6c3-1 4-2 6-1l7 5-3-3-1-4v-1l4 4 1 2 1-1c0 1 2 2 1 3 1 0 2-1 2-3s1-4 3-4c1 0 2 0 2 2l-3 3-1 2 3-2c1-1 3-3 7-3l5 1-3 2 4 4 3 1s-6 2-8 0c-3-1-4-4-8-3l-5 2c1 0 4-1 6 1l1 2s-3 2-5-1l-2-1 2 3c1 0 7 1 7 4l1 3c-1 0-4 2-7-2-1-1-2-2-2-5l-2-2h-1l-3 1c-2 1-4 4-8 4-1 0-3-2-2-4l2-3h7l4 1c-1-1-3-3-7-4l-6 2-5 1h-2z"/>
          </g>
          <g id="Drought_Root_After_12_Hours">
            <path id="path351" stroke="#000" stroke-miterlimit="10" stroke-width=".5" d="M684 334v6l-1-5c0-2-3-5-3-9l2-4c1-1 2-3 0-5s-5-4-5-6l3-4v-2h3l-1 4c-1 0-3 2-2 3l5 5v3l-3 5c-2 3 2 6 2 9z"/>
          </g>
        </g>
        <g id="_x32_4_hour_4_">
          <g id="Drought_Shoot_After_24_Hours">
            <path id="path355" stroke="#000" stroke-miterlimit="10" stroke-width=".5" d="m732 303 6-6c2-1 4-2 6-1l6 5-3-3v-5l4 4 1 2v-1l2 3s2-1 1-3l3-4c1 0 3 0 3 2l-4 3-1 2 4-2c1-1 3-3 6-3l5 1-2 2 4 4 3 1c-1 0-6 2-9 0-2-1-4-4-7-3l-6 2h1c1 0 4-1 6 1l1 2c-1 0-3 2-5-1l-2-1 2 3c1 0 6 1 7 4v3c-1 0-3 2-7-2l-1-5-2-2h-2l-3 1c-1 1-3 4-7 4-1 0-4-2-3-4l3-3h6l4 1c0-1-2-3-6-4l-7 2-4 1h-3z"/>
          </g>
          <g id="Drought_Root_After_24_Hours">
            <path id="path358" stroke="#000" stroke-miterlimit="10" stroke-width=".5" d="M756 334v6l-1-5c0-2-3-5-3-9-1-2 1-4 1-4 1-1 2-3 1-5-2-2-5-4-5-6l3-4v-2h2c1 1 0 3-1 4 0 0-2 2-1 3l4 5v3l-2 5c-2 3 2 6 2 9z"/>
          </g>
        </g>
      </g>
    </g>
    <g id="Genotoxic">
      <g id="samples_12_" fill="#fff">
        <g id="_x30__hour_12_">
          <g id="Genotoxic_Shoot_0_Hour">
            <path id="path364" stroke="#000" stroke-miterlimit="10" stroke-width=".5" d="M159 353s2-4 5-6 5-2 7-1l6 4-3-2-1-4 1-2 4 5 1 2v-1l2 3 1-3c0-2 1-4 3-4 1 0 3 0 2 1 0 2-2 3-3 4l-1 1 4-1c0-1 3-3 6-3l5 1-2 2 3 3 4 2h-9c-2-1-4-4-8-3-3 0-5 1-5 2h1c1 0 4-1 6 1l1 1c-1 1-3 2-6 0l-2-1 2 2c2 1 7 2 8 4v4c-1 0-4 2-7-2l-2-5c0-1 0-2-2-3h-1c-1 0-2 0-3 2-1 1-4 4-8 4-1-1-3-2-2-4 1-1 1-3 3-3h10c-1 0-2-2-7-3-2 0-4 0-6 2l-4 1h-3z"/>
          </g>
          <g id="Genotoxic_Root_0_Hour">
            <path id="path367" stroke="#000" stroke-miterlimit="10" stroke-width=".5" d="M183 384v6c-2-2-1-3-1-5s-4-5-4-9l2-5c1-1 2-3 0-4-1-2-4-4-4-7l2-3v-3l3 1-1 3-2 4 5 4v4l-2 4c-2 4 2 6 2 10z"/>
          </g>
        </g>
        <g id="_x30_.5_hour_12_">
          <g id="Genotoxic_Shoot_After_30_Minutes">
            <path id="path371" stroke="#000" stroke-miterlimit="10" stroke-width=".5" d="m302 353 6-6c2-2 4-2 6-1l6 4-3-2v-6l4 5 1 2v-1l2 3s2-1 1-3l3-4 3 1-4 4-1 1 4-1c1-1 3-3 6-3l5 1-2 2 4 3 3 2h-9c-2-1-4-4-7-3-4 0-5 1-6 2h1c1 0 4-1 6 1l1 1c-1 1-3 2-5 0l-2-1 2 2c1 1 6 2 7 4v4c-1 0-3 2-7-2l-1-5-2-3h-2s-2 0-3 2c-1 1-3 4-7 4-1-1-4-2-3-4l3-3h10l-6-3c-2 0-4 0-7 2l-4 1h-3z"/>
          </g>
          <g id="Genotoxic_Root_After_30_Minutes">
            <path id="path374" stroke="#000" stroke-miterlimit="10" stroke-width=".5" d="M326 384v6l-1-5c0-2-3-5-3-9-1-2 1-4 1-5 1-1 2-3 1-4-2-2-5-4-5-7l3-3v-3l2 1-1 3c0 1-2 2-1 4l4 4v4l-2 4c-2 4 2 6 2 10z"/>
          </g>
        </g>
        <g id="_x31__hour_12_">
          <g id="Genotoxic_Shoot_After_1_Hour">
            <path id="path378" stroke="#000" stroke-miterlimit="10" stroke-width=".5" d="M374 353s2-4 5-6 5-2 7-1l6 4-3-2-1-4 1-2 4 5 1 2v-1l2 3 1-3c0-2 1-4 3-4 1 0 3 0 2 1 0 2-2 3-3 4l-1 1 4-1c0-1 3-3 6-3l5 1-2 2 3 3 4 2h-9c-2-1-4-4-8-3-3 0-5 1-5 2h1c1 0 4-1 6 1l1 1c-1 1-3 2-6 0l-2-1 2 2c2 1 7 2 8 4v4c-1 0-4 2-7-2l-2-5c0-1 0-2-2-3h-1c-1 0-2 0-3 2-1 1-4 4-8 4-1-1-3-2-2-4 1-1 1-3 3-3h10c-1 0-2-2-7-3-2 0-4 0-6 2l-4 1h-3z"/>
          </g>
          <g id="Genotoxic_Root_After_1_Hour">
            <path id="path381" stroke="#000" stroke-miterlimit="10" stroke-width=".5" d="M398 384v6c-2-2-1-3-1-5s-4-5-4-9l2-5c1-1 2-3 0-4-1-2-4-4-4-7l2-3v-3l3 1-1 3-2 4 5 4v4l-2 4c-2 4 2 6 2 10z"/>
          </g>
        </g>
        <g id="_x33__hour_12_">
          <g id="Genotoxic_Shoot_After_3_Hours">
            <path id="path385" stroke="#000" stroke-miterlimit="10" stroke-width=".5" d="M446 353s2-4 5-6 4-2 6-1a383 383 0 0 1 4 2l-1-4v-2l4 5 1 2 1-1c0 1 2 2 1 3 1 0 2-1 2-3s1-4 3-4l2 1c0 2-2 3-3 4l-1 1 3-1c1-1 3-3 7-3l5 1-3 2 4 3 3 2h-8c-3-1-4-4-8-3-4 0-5 1-5 2 1 0 4-1 6 1l1 1c0 1-3 2-5 0l-2-1 2 2c1 1 7 2 7 4l1 4c-1 0-4 2-7-2-1-1-2-2-2-5l-2-3h-1c-1 0-2 0-3 2-2 1-4 4-8 4-1-1-3-2-2-4l2-3h11l-7-3c-2 0-4 0-6 2l-5 1h-2z"/>
          </g>
          <g id="Genotoxic_Root_After_3_Hours">
            <path id="path388" stroke="#000" stroke-miterlimit="10" stroke-width=".5" d="M469 384v6l-1-5c0-2-3-5-3-9l2-5c1-1 2-3 0-4-2-2-5-4-5-7l3-3v-3l3 1-1 3c-1 1-3 2-2 4l4 4 1 4-3 4c-2 4 2 6 2 10z"/>
          </g>
        </g>
        <g id="_x36__hour_12_">
          <g id="Genotoxic_Shoot_After_6_Hours">
            <path id="path392" stroke="#000" stroke-miterlimit="10" stroke-width=".5" d="M589 353s2-4 5-6 5-2 7-1l6 4-3-2v-6l4 5 1 2v-1l2 3 1-3c0-2 1-4 3-4 1 0 3 0 2 1 0 2-2 3-3 4l-1 1 4-1c0-1 3-3 6-3l5 1-2 2 3 3 4 2h-9c-2-1-4-4-8-3-3 0-5 1-5 2h1c1 0 4-1 6 1l1 1c-1 1-3 2-6 0l-2-1 2 2c2 1 7 2 8 4v4c-1 0-4 2-7-2l-2-5c0-1 0-2-2-3h-1c-1 0-2 0-3 2-1 1-4 4-8 4-1-1-3-2-2-4 1-1 1-3 3-3h10c-1 0-2-2-7-3-2 0-4 0-6 2l-4 1h-3z"/>
          </g>
          <g id="Genotoxic_Root_After_6_Hours">
            <path id="path395" stroke="#000" stroke-miterlimit="10" stroke-width=".5" d="M613 384v6c-2-2-1-3-1-5s-4-5-4-9l2-5c1-1 2-3 0-4-1-2-4-4-4-7l2-3v-3l3 1-1 3-2 4 5 4v4l-2 4c-2 4 2 6 2 10z"/>
          </g>
        </g>
        <g id="_x31_2_hour_12_">
          <g id="Genotoxic_Shoot_After_12_Hours">
            <path id="path399" stroke="#000" stroke-miterlimit="10" stroke-width=".5" d="M661 353s2-4 5-6 4-2 6-1l7 4-3-2-1-4v-2l4 5 1 2 1-1c0 1 2 2 1 3 1 0 2-1 2-3s1-4 3-4l2 1c0 2-2 3-3 4l-1 1 3-1c1-1 3-3 7-3l5 1-3 2 4 3 3 2h-8c-3-1-4-4-8-3-4 0-5 1-5 2 1 0 4-1 6 1l1 1c0 1-3 2-5 0l-2-1 2 2c1 1 7 2 7 4l1 4c-1 0-4 2-7-2-1-1-2-2-2-5l-2-3h-1c-1 0-2 0-3 2-2 1-4 4-8 4-1-1-3-2-2-4l2-3h11l-7-3c-2 0-4 0-6 2l-5 1h-2z"/>
          </g>
          <g id="Genotoxic_Root_After_12_Hours">
            <path id="path402" stroke="#000" stroke-miterlimit="10" stroke-width=".5" d="M684 384v6l-1-5c0-2-3-5-3-9l2-5c1-1 2-3 0-4-2-2-5-4-5-7l3-3v-3l3 1-1 3c-1 1-3 2-2 4l5 4v4l-3 4c-2 4 2 6 2 10z"/>
          </g>
        </g>
        <g id="_x32_4_hour_12_">
          <g id="Genotoxic_Shoot_After_24_Hours">
            <path id="path406" stroke="#000" stroke-miterlimit="10" stroke-width=".5" d="m732 353 6-6c2-2 4-2 6-1l6 4-3-2v-6l4 5 1 2v-1l2 3s2-1 1-3l3-4 3 1-4 4-1 1 4-1c1-1 3-3 6-3l5 1-2 2 4 3 3 2h-9c-2-1-4-4-7-3-4 0-5 1-6 2h1c1 0 4-1 6 1l1 1c-1 1-3 2-5 0l-2-1 2 2c1 1 6 2 7 4v4c-1 0-3 2-7-2l-1-5-2-3h-2s-2 0-3 2c-1 1-3 4-7 4-1-1-4-2-3-4l3-3h10l-6-3c-2 0-4 0-7 2l-4 1h-3z"/>
          </g>
          <g id="Genotoxic_Root_After_24_Hours">
            <path id="path409" stroke="#000" stroke-miterlimit="10" stroke-width=".5" d="M756 384v6l-1-5c0-2-3-5-3-9-1-2 1-4 1-5 1-1 2-3 1-4-2-2-5-4-5-7l3-3v-3l2 1-1 3c0 1-2 2-1 4l4 4v4l-2 4c-2 4 2 6 2 10z"/>
          </g>
        </g>
      </g>
    </g>
    <g id="Oxidative">
      <g id="samples_1_" fill="#fff">
        <g id="_x30__hour_1_">
          <g id="Oxidative_Shoot_0_Hour">
            <path id="path415" stroke="#000" stroke-miterlimit="10" stroke-width=".5" d="M159 403s2-5 5-6c3-2 5-3 7-1l6 4-3-3-1-3 1-2 4 4 1 3v-1s2 1 2 3l1-4c0-1 1-3 3-3 1-1 3 0 2 1 0 2-2 3-3 4l-1 1 4-2s3-3 6-3l5 1-2 3 3 3 4 2h-9c-2-2-4-4-8-4l-5 2 1 1c1-1 4-2 6 1l1 1c-1 0-3 2-6 0l-2-2 2 3c2 0 7 2 8 4v3c-1 1-4 3-7-1l-2-5c0-1 0-2-2-3h-1l-3 1c-1 2-4 5-8 4-1 0-3-1-2-3s1-3 3-3h10c-1 0-2-3-7-3-2 0-4 0-6 2l-4 1h-3z"/>
          </g>
          <g id="Oxidative_Root_0_Hour">
            <path id="path418" stroke="#000" stroke-miterlimit="10" stroke-width=".5" d="M183 433v6c-2-1-1-2-1-4 0-3-4-5-4-9l2-5c1-1 2-3 0-5-1-1-4-4-4-6l2-4v-2h3l-1 4-2 3 5 5v3l-2 5c-2 3 2 6 2 9z"/>
          </g>
        </g>
        <g id="_x30_.5_hour_1_">
          <g id="Oxidative_Shoot_After_30_Minutes">
            <path id="path422" stroke="#000" stroke-miterlimit="10" stroke-width=".5" d="M302 403s3-5 6-6c2-2 4-3 6-1l6 4-3-3v-5l4 4 1 3v-1c1 0 2 1 2 3 0 0 2-1 1-4l3-3c1-1 3 0 3 1l-4 4-1 1 4-2c1 0 3-3 6-3l5 1-2 3 4 3 3 2h-9c-2-2-4-4-7-4l-6 2 1 1c1-1 4-2 6 1l1 1c-1 0-3 2-5 0l-2-2 2 3c1 0 6 2 7 4v3c-1 1-3 3-7-1l-1-5-2-3h-2l-3 1c-1 2-3 5-7 4-1 0-4-1-3-3l3-3h10s-2-3-6-3c-2 0-4 0-7 2l-4 1h-3z"/>
          </g>
          <g id="Oxidative_Root_After_30_Minutes">
            <path id="path425" stroke="#000" stroke-miterlimit="10" stroke-width=".5" d="M326 433v6l-1-4c0-3-3-5-3-9-1-2 1-4 1-5 1-1 2-3 1-5-2-1-5-4-5-6l3-4v-2h2c1 1 0 3-1 4 0 1-2 2-1 3l4 5v3c0 1 0 3-2 5-2 3 2 6 2 9z"/>
          </g>
        </g>
        <g id="_x31__hour_1_">
          <g id="Oxidative_Shoot_After_1_Hour">
            <path id="path429" stroke="#000" stroke-miterlimit="10" stroke-width=".5" d="M374 403s2-5 5-6c3-2 5-3 7-1l6 4-3-3-1-3 1-2 4 4 1 3v-1s2 1 2 3l1-4c0-1 1-3 3-3 1-1 3 0 2 1 0 2-2 3-3 4l-1 1 4-2s3-3 6-3l5 1-2 3 3 3 4 2h-9c-2-2-4-4-8-4l-5 2 1 1c1-1 4-2 6 1l1 1c-1 0-3 2-6 0l-2-2 2 3c2 0 7 2 8 4v3c-1 1-4 3-7-1l-2-5c0-1 0-2-2-3h-1l-3 1c-1 2-4 5-8 4-1 0-3-1-2-3s1-3 3-3h10c-1 0-2-3-7-3-2 0-4 0-6 2l-4 1h-3z"/>
          </g>
          <g id="Oxidative_Root_After_1_Hour">
            <path id="path432" stroke="#000" stroke-miterlimit="10" stroke-width=".5" d="M398 433v6c-2-1-1-2-1-4 0-3-4-5-4-9l2-5c1-1 2-3 0-5-1-1-4-4-4-6l2-4v-2h3l-1 4-2 3 5 5v3l-2 5c-2 3 2 6 2 9z"/>
          </g>
        </g>
        <g id="_x33__hour_1_">
          <g id="Oxidative_Shoot_After_3_Hours">
            <path id="path436" stroke="#000" stroke-miterlimit="10" stroke-width=".5" d="M446 403s2-5 5-6c3-2 4-3 6-1l7 4-3-3-1-3v-2l4 4 1 3 1-1s2 1 1 3c1 0 2-1 2-4 0-1 1-3 3-3 1-1 2 0 2 1 0 2-2 3-3 4l-1 1 3-2c1 0 3-3 7-3l5 1-3 3 4 3 3 2h-8c-3-2-4-4-8-4l-5 2v1c1-1 4-2 6 1l1 1s-3 2-5 0l-2-2 2 3c1 0 7 2 7 4l1 3c-1 1-4 3-7-1l-2-5-2-3h-1l-3 1c-2 2-4 5-8 4-1 0-3-1-2-3 0-2 1-3 2-3h11c-1 0-3-3-7-3-2 0-4 0-6 2l-5 1h-2z"/>
          </g>
          <g id="Oxidative_Root_After_3_Hours">
            <path id="path439" stroke="#000" stroke-miterlimit="10" stroke-width=".5" d="M469 433v6l-1-4c0-3-3-5-3-9l2-5c1-1 2-3 0-5-2-1-5-4-5-6l3-4v-2h3l-1 4c-1 1-3 2-2 3l4 5 1 3-3 5c-2 3 2 6 2 9z"/>
          </g>
        </g>
        <g id="_x36__hour_1_">
          <g id="Oxidative_Shoot_After_6_Hours">
            <path id="path443" stroke="#000" stroke-miterlimit="10" stroke-width=".5" d="M589 403s2-5 5-6c3-2 5-3 7-1l6 4-3-3v-5l4 4 1 3v-1s2 1 2 3l1-4c0-1 1-3 3-3 1-1 3 0 2 1 0 2-2 3-3 4l-1 1 4-2s3-3 6-3l5 1-2 3 3 3 4 2h-9c-2-2-4-4-8-4l-5 2 1 1c1-1 4-2 6 1l1 1c-1 0-3 2-6 0l-2-2 2 3c2 0 7 2 8 4v3c-1 1-4 3-7-1l-2-5c0-1 0-2-2-3h-1l-3 1c-1 2-4 5-8 4-1 0-3-1-2-3s1-3 3-3h10c-1 0-2-3-7-3-2 0-4 0-6 2l-4 1h-3z"/>
          </g>
          <g id="Oxidative_Root_After_6_Hours">
            <path id="path446" stroke="#000" stroke-miterlimit="10" stroke-width=".5" d="M613 433v6c-2-1-1-2-1-4 0-3-4-5-4-9l2-5c1-1 2-3 0-5-1-1-4-4-4-6l2-4v-2h3l-1 4-2 3 5 5v3l-2 5c-2 3 2 6 2 9z"/>
          </g>
        </g>
        <g id="_x31_2_hour_1_">
          <g id="Oxidative_Shoot_After_12_Hours">
            <path id="path450" stroke="#000" stroke-miterlimit="10" stroke-width=".5" d="M661 403s2-5 5-6c3-2 4-3 6-1l7 4-3-3-1-3v-2l4 4 1 3 1-1s2 1 1 3c1 0 2-1 2-4 0-1 1-3 3-3 1-1 2 0 2 1 0 2-2 3-3 4l-1 1 3-2c1 0 3-3 7-3l5 1-3 3 4 3 3 2h-8c-3-2-4-4-8-4l-5 2v1c1-1 4-2 6 1l1 1s-3 2-5 0l-2-2 2 3c1 0 7 2 7 4l1 3c-1 1-4 3-7-1l-2-5-2-3h-1l-3 1c-2 2-4 5-8 4-1 0-3-1-2-3 0-2 1-3 2-3h11c-1 0-3-3-7-3-2 0-4 0-6 2l-5 1h-2z"/>
          </g>
          <g id="Oxidative_Root_After_12_Hours">
            <path id="path453" stroke="#000" stroke-miterlimit="10" stroke-width=".5" d="M684 433v6l-1-4c0-3-3-5-3-9l2-5c1-1 2-3 0-5-2-1-5-4-5-6l3-4v-2h3l-1 4c-1 1-3 2-2 3l5 5v3l-3 5c-2 3 2 6 2 9z"/>
          </g>
        </g>
        <g id="_x32_4_hour_1_">
          <g id="Oxidative_Shoot_After_24_Hours">
            <path id="path457" stroke="#000" stroke-miterlimit="10" stroke-width=".5" d="M732 403s3-5 6-6c2-2 4-3 6-1l6 4-3-3v-5l4 4 1 3v-1c1 0 2 1 2 3 0 0 2-1 1-4l3-3c1-1 3 0 3 1l-4 4-1 1 4-2c1 0 3-3 6-3l5 1-2 3 4 3 3 2h-9c-2-2-4-4-7-4l-6 2 1 1c1-1 4-2 6 1l1 1c-1 0-3 2-5 0l-2-2 2 3c1 0 6 2 7 4v3c-1 1-3 3-7-1l-1-5-2-3h-2l-3 1c-1 2-3 5-7 4-1 0-4-1-3-3l3-3h10s-2-3-6-3c-2 0-4 0-7 2l-4 1h-3z"/>
          </g>
          <g id="Oxidative_Root_After_24_Hours">
            <path id="path460" stroke="#000" stroke-miterlimit="10" stroke-width=".5" d="M756 433v6l-1-4c0-3-3-5-3-9-1-2 1-4 1-5 1-1 2-3 1-5-2-1-5-4-5-6l3-4v-2h2c1 1 0 3-1 4 0 1-2 2-1 3l4 5v3c0 1 0 3-2 5-2 3 2 6 2 9z"/>
          </g>
        </g>
      </g>
    </g>
    <g id="UV-B">
      <g id="samples_9_" fill="#fff">
        <g id="_x30__hour_9_">
          <g id="UV-B_Shoot_0_Hour">
            <path id="path466" stroke="#000" stroke-miterlimit="10" stroke-width=".5" d="M159 453s2-5 5-7c3-1 5-2 7 0a393 393 0 0 1 3 1l-1-4 1-1 4 4 1 2v-1l2 4 1-4 3-4c1 0 3 0 2 2l-3 4-1 1 4-2c0-1 3-3 6-3l5 1-2 3 3 3 4 1c-1 1-7 2-9 0-2-1-4-4-8-3l-5 2h1c1 0 4-1 6 2l1 1c-1 0-3 2-6 0l-2-2 2 3c2 0 7 1 8 4v3c-1 1-4 2-7-2l-2-4c0-2 0-2-2-3h-1l-3 1c-1 1-4 4-8 4-1 0-3-2-2-4l3-3h6l4 1c-1-1-2-3-7-3l-6 1-4 2h-3z"/>
          </g>
          <g id="UV-B_Root_0_Hour">
            <path id="path469" stroke="#000" stroke-miterlimit="10" stroke-width=".5" d="M183 483v6c-2-1-1-2-1-5 0-2-4-5-4-9l2-4c1-1 2-3 0-5-1-2-4-4-4-6l2-4v-2h3l-1 4-2 3 5 5v3l-2 5c-2 3 2 6 2 9z"/>
          </g>
        </g>
        <g id="_x30_.25_hour_9_">
          <g id="UV-B_Shoot_After_15_Minutes">
            <path id="path473" stroke="#000" stroke-miterlimit="10" stroke-width=".5" d="M231 453s2-5 5-7c3-1 4-2 6 0a393 393 0 0 1 4 1l-1-4v-1l4 4 1 2 1-1c0 1 2 2 1 4 1-1 2-1 2-4l3-4c1 0 2 0 2 2l-3 4-1 1 3-2c1-1 3-3 7-3l5 1-3 3 4 3 3 1c0 1-6 2-8 0-3-1-4-4-8-3l-5 2c1 0 4-1 6 2l1 1s-3 2-5 0l-2-2 2 3c1 0 7 1 7 4l1 3c-1 1-4 2-7-2l-2-4-2-3h-1l-3 1c-2 1-4 4-8 4-1 0-3-2-2-4l2-3h7l4 1c-1-1-3-3-7-3l-6 1c-2 1-2 2-5 2h-2z"/>
          </g>
          <g id="UV-B_Root_After_15_Minutes">
            <path id="path476" stroke="#000" stroke-miterlimit="10" stroke-width=".5" d="M254 483v6l-1-5c0-2-3-5-3-9l2-4c1-1 2-3 0-5s-5-4-5-6l3-4v-2h3l-1 4c-1 0-3 2-2 3l4 5 1 3-3 5c-2 3 2 6 2 9z"/>
          </g>
        </g>
        <g id="_x30_.5_hour_9_">
          <g id="UV-B_Shoot_After_30_Minutes">
            <path id="path480" stroke="#000" stroke-miterlimit="10" stroke-width=".5" d="m302 453 6-7c2-1 4-2 6 0a393 393 0 0 1 3 1v-5l4 4 1 2v-1l2 4c0-1 2-1 1-4l3-4c1 0 3 0 3 2l-4 4-1 1 4-2c1-1 3-3 6-3l5 1-2 3 4 3 3 1c-1 1-6 2-9 0-2-1-4-4-7-3l-6 2h1c1 0 4-1 6 2l1 1c-1 0-3 2-5 0l-2-2 2 3c1 0 6 1 7 4v3c-1 1-3 2-7-2l-1-4-2-3h-2l-3 1c-1 1-3 4-7 4-1 0-4-2-3-4l3-3h6l4 1c0-1-2-3-6-3l-7 1c-1 1-1 2-4 2h-3z"/>
          </g>
          <g id="UV-B_Root_After_30_Minutes">
            <path id="path483" stroke="#000" stroke-miterlimit="10" stroke-width=".5" d="M326 483v6l-1-5c0-2-3-5-3-9-1-2 1-3 1-4 1-1 2-3 1-5-2-2-5-4-5-6l3-4v-2h2c1 1 0 3-1 4 0 0-2 2-1 3l4 5v3l-2 5c-2 3 2 6 2 9z"/>
          </g>
        </g>
        <g id="_x31__hour_9_">
          <g id="UV-B_Shoot_After_1_Hour">
            <path id="path487" stroke="#000" stroke-miterlimit="10" stroke-width=".5" d="M374 453s2-5 5-7c3-1 5-2 7 0a393 393 0 0 1 3 1l-1-4 1-1 4 4 1 2v-1l2 4 1-4 3-4c1 0 3 0 2 2l-3 4-1 1 4-2c0-1 3-3 6-3l5 1-2 3 3 3 4 1c-1 1-7 2-9 0-2-1-4-4-8-3l-5 2h1c1 0 4-1 6 2l1 1c-1 0-3 2-6 0l-2-2 2 3c2 0 7 1 8 4v3c-1 1-4 2-7-2l-2-4c0-2 0-2-2-3h-1l-3 1c-1 1-4 4-8 4-1 0-3-2-2-4l3-3h6l4 1c-1-1-2-3-7-3l-6 1-4 2h-3z"/>
          </g>
          <g id="UV-B_Root_After_1_Hour">
            <path id="path490" stroke="#000" stroke-miterlimit="10" stroke-width=".5" d="M398 483v6c-2-1-1-2-1-5 0-2-4-5-4-9l2-4c1-1 2-3 0-5-1-2-4-4-4-6l2-4v-2h3l-1 4-2 3 5 5v3l-2 5c-2 3 2 6 2 9z"/>
          </g>
        </g>
        <g id="_x33__hour_9_">
          <g id="UV-B_Shoot_After_3_Hours">
            <path id="path494" stroke="#000" stroke-miterlimit="10" stroke-width=".5" d="M446 453s2-5 5-7c3-1 4-2 6 0l7 4-3-3-1-4v-1l4 4 1 2 1-1c0 1 2 2 1 4 1-1 2-1 2-4l3-4c1 0 2 0 2 2l-3 4-1 1 3-2c1-1 3-3 7-3l5 1-3 3 4 3 3 1c0 1-6 2-8 0-3-1-4-4-8-3l-5 2c1 0 4-1 6 2l1 1s-3 2-5 0l-2-2 2 3c1 0 7 1 7 4l1 3c-1 1-4 2-7-2l-2-4-2-3h-1l-3 1c-2 1-4 4-8 4-1 0-3-2-2-4l2-3h7l4 1c-1-1-3-3-7-3l-6 1c-2 1-2 2-5 2h-2z"/>
          </g>
          <g id="UV-B_Root_After_3_Hours">
            <path id="path497" stroke="#000" stroke-miterlimit="10" stroke-width=".5" d="M469 483v6l-1-5c0-2-3-5-3-9l2-4c1-1 2-3 0-5s-5-4-5-6l3-4v-2h3l-1 4c-1 0-3 2-2 3l4 5 1 3-3 5c-2 3 2 6 2 9z"/>
          </g>
        </g>
        <g id="_x36__hour_9_">
          <g id="UV-B_Shoot_After_6_Hours">
            <path id="path501" stroke="#000" stroke-miterlimit="10" stroke-width=".5" d="M589 453s2-5 5-7c3-1 5-2 7 0a389 389 0 0 1 3 1v-5l4 4 1 2v-1l2 4 1-4 3-4c1 0 3 0 2 2l-3 4-1 1 4-2c0-1 3-3 6-3l5 1-2 3 3 3 4 1c-1 1-7 2-9 0-2-1-4-4-8-3l-5 2h1c1 0 4-1 6 2l1 1c-1 0-3 2-6 0l-2-2 2 3c2 0 7 1 8 4v3c-1 1-4 2-7-2l-2-4c0-2 0-2-2-3h-1l-3 1c-1 1-4 4-8 4-1 0-3-2-2-4l3-3h6l4 1c-1-1-2-3-7-3l-6 1-4 2h-3z"/>
          </g>
          <g id="UV-B_Root_After_6_Hours">
            <path id="path504" stroke="#000" stroke-miterlimit="10" stroke-width=".5" d="M613 483v6c-2-1-1-2-1-5 0-2-4-5-4-9l2-4c1-1 2-3 0-5-1-2-4-4-4-6l2-4v-2h3l-1 4-2 3 5 5v3l-2 5c-2 3 2 6 2 9z"/>
          </g>
        </g>
        <g id="_x31_2_hour_9_">
          <g id="UV-B_Shoot_After_12_Hours">
            <path id="path508" stroke="#000" stroke-miterlimit="10" stroke-width=".5" d="M661 453s2-5 5-7c3-1 4-2 6 0a389 389 0 0 1 4 1l-1-4v-1l4 4 1 2 1-1c0 1 2 2 1 4 1-1 2-1 2-4l3-4c1 0 2 0 2 2l-3 4-1 1 3-2c1-1 3-3 7-3l5 1-3 3 4 3 3 1c0 1-6 2-8 0-3-1-4-4-8-3l-5 2c1 0 4-1 6 2l1 1s-3 2-5 0l-2-2 2 3c1 0 7 1 7 4l1 3c-1 1-4 2-7-2l-2-4-2-3h-1l-3 1c-2 1-4 4-8 4-1 0-3-2-2-4l2-3h7l4 1c-1-1-3-3-7-3l-6 1c-2 1-2 2-5 2h-2z"/>
          </g>
          <g id="UV-B_Root_After_12_Hours">
            <path id="path511" stroke="#000" stroke-miterlimit="10" stroke-width=".5" d="M684 483v6l-1-5c0-2-3-5-3-9l2-4c1-1 2-3 0-5s-5-4-5-6l3-4v-2h3l-1 4c-1 0-3 2-2 3l5 5v3l-3 5c-2 3 2 6 2 9z"/>
          </g>
        </g>
        <g id="_x32_4_hour_9_">
          <g id="UV-B_Shoot_After_24_Hours">
            <path id="path515" stroke="#000" stroke-miterlimit="10" stroke-width=".5" d="m732 453 6-7c2-1 4-2 6 0a389 389 0 0 1 3 1v-5l4 4 1 2v-1l2 4c0-1 2-1 1-4l3-4c1 0 3 0 3 2l-4 4-1 1 4-2c1-1 3-3 6-3l5 1-2 3 4 3 3 1c-1 1-6 2-9 0-2-1-4-4-7-3l-6 2h1c1 0 4-1 6 2l1 1c-1 0-3 2-5 0l-2-2 2 3c1 0 6 1 7 4v3c-1 1-3 2-7-2l-1-4-2-3h-2l-3 1c-1 1-3 4-7 4-1 0-4-2-3-4l3-3h6l4 1c0-1-2-3-6-3l-7 1c-1 1-1 2-4 2h-3z"/>
          </g>
          <g id="UV-B_Root_After_24_Hours">
            <path id="path518" stroke="#000" stroke-miterlimit="10" stroke-width=".5" d="M756 483v6l-1-5c0-2-3-5-3-9-1-2 1-3 1-4 1-1 2-3 1-5-2-2-5-4-5-6l3-4v-2h2c1 1 0 3-1 4 0 0-2 2-1 3l4 5v3l-2 5c-2 3 2 6 2 9z"/>
          </g>
        </g>
      </g>
    </g>
    <g id="Wounding">
      <g id="samples_5_" fill="#fff">
        <g id="_x30__Hour">
          <g id="Wounding_Shoot_0_Hour">
            <path id="path524" stroke="#000" stroke-miterlimit="10" stroke-width=".5" d="M159 502s2-4 5-6c3-1 5-2 7-1l6 5-3-3-1-4 1-1 4 4 1 2v-1l2 3 1-3c0-2 1-4 3-4 1 0 3 0 2 2l-3 3-1 1 4-1c0-1 3-3 6-3l5 1-2 2 3 3 4 2c-1 0-7 2-9 0-2-1-4-4-8-3-3 0-5 1-5 2h1c1 0 4-1 6 1l1 2c-1 0-3 2-6-1l-2-1 2 2c2 1 7 2 8 4v4c-1 0-4 2-7-2l-2-5c0-1 0-2-2-3h-1c-1 1-2 0-3 2-1 1-4 4-8 4-1-1-3-2-2-4l3-3h6l4 1c-1-1-2-3-7-4-2 0-4 0-6 2l-4 1h-3z"/>
          </g>
          <g id="Wounding_Root_0_Hour">
            <path id="path527" stroke="#000" stroke-miterlimit="10" stroke-width=".5" d="M183 533v6c-2-2-1-2-1-5 0-2-4-5-4-9l2-4c1-2 2-3 0-5-1-2-4-4-4-6l2-4v-2h3l-1 4-2 3 5 5v3l-2 4c-2 4 2 7 2 10z"/>
          </g>
        </g>
        <g id="_x30_.25_hour_5_">
          <g id="Wounding_Shoot_After_15_Minutes">
            <path id="path531" stroke="#000" stroke-miterlimit="10" stroke-width=".5" d="M231 502s2-4 5-6c3-1 4-2 6-1l7 5-3-3-1-4v-1l4 4 1 2 1-1c0 1 2 2 1 3 1 0 2-1 2-3s1-4 3-4c1 0 2 0 2 2l-3 3-1 1 3-1c1-1 3-3 7-3l5 1-3 2 4 3 3 2s-6 2-8 0c-3-1-4-4-8-3-4 0-5 1-5 2 1 0 4-1 6 1l1 2s-3 2-5-1l-2-1 2 2c1 1 7 2 7 4l1 4c-1 0-4 2-7-2-1-1-2-2-2-5l-2-3h-1c-1 1-2 0-3 2-2 1-4 4-8 4-1-1-3-2-2-4l2-3h7l4 1c-1-1-3-3-7-4-2 0-4 0-6 2l-5 1h-2z"/>
          </g>
          <g id="Wounding_Root_After_15_Minutes">
            <path id="path534" stroke="#000" stroke-miterlimit="10" stroke-width=".5" d="M254 533v6l-1-5c0-2-3-5-3-9l2-4c1-2 2-3 0-5s-5-4-5-6l3-4v-2h3l-1 4c-1 0-3 2-2 3s4 3 4 5l1 3-3 4c-2 4 2 7 2 10z"/>
          </g>
        </g>
        <g id="_x30_.5_hour_5_">
          <g id="Wounding_Shoot_After_30_Minutes">
            <path id="path538" stroke="#000" stroke-miterlimit="10" stroke-width=".5" d="m302 502 6-6c2-1 4-2 6-1l6 5-3-3v-5l4 4 1 2v-1l2 3s2-1 1-3l3-4c1 0 3 0 3 2l-4 3-1 1 4-1c1-1 3-3 6-3l5 1-2 2 4 3 3 2c-1 0-6 2-9 0-2-1-4-4-7-3-4 0-5 1-6 2h1c1 0 4-1 6 1l1 2c-1 0-3 2-5-1l-2-1 2 2c1 1 6 2 7 4v4c-1 0-3 2-7-2l-1-5-2-3h-2c0 1-2 0-3 2-1 1-3 4-7 4-1-1-4-2-3-4l3-3h6l4 1c0-1-2-3-6-4-2 0-4 0-7 2l-4 1h-3z"/>
          </g>
          <g id="Wounding_Root_After_30_Minutes">
            <path id="path541" stroke="#000" stroke-miterlimit="10" stroke-width=".5" d="M326 533v6l-1-5c0-2-3-5-3-9-1-2 1-4 1-4 1-2 2-3 1-5-2-2-5-4-5-6l3-4v-2h2c1 1 0 3-1 4 0 0-2 2-1 3l4 5v3l-2 4c-2 4 2 7 2 10z"/>
          </g>
        </g>
        <g id="_x31__hour_5_">
          <g id="Wounding_Shoot_After_1_Hour">
            <path id="path545" stroke="#000" stroke-miterlimit="10" stroke-width=".5" d="M374 502s2-4 5-6c3-1 5-2 7-1l6 5-3-3-1-4 1-1 4 4 1 2v-1l2 3 1-3c0-2 1-4 3-4 1 0 3 0 2 2l-3 3-1 1 4-1c0-1 3-3 6-3l5 1-2 2 3 3 4 2c-1 0-7 2-9 0-2-1-4-4-8-3-3 0-5 1-5 2h1c1 0 4-1 6 1l1 2c-1 0-3 2-6-1l-2-1 2 2c2 1 7 2 8 4v4c-1 0-4 2-7-2l-2-5c0-1 0-2-2-3h-1c-1 1-2 0-3 2-1 1-4 4-8 4-1-1-3-2-2-4l3-3h6l4 1c-1-1-2-3-7-4-2 0-4 0-6 2l-4 1h-3z"/>
          </g>
          <g id="Wounding_Root_After_1_Hour">
            <path id="path548" stroke="#000" stroke-miterlimit="10" stroke-width=".5" d="M398 533v6c-2-2-1-2-1-5 0-2-4-5-4-9l2-4c1-2 2-3 0-5-1-2-4-4-4-6l2-4v-2h3l-1 4-2 3 5 5v3l-2 4c-2 4 2 7 2 10z"/>
          </g>
        </g>
        <g id="_x33__hour_5_">
          <g id="Wounding_Shoot_After_3_Hours">
            <path id="path552" stroke="#000" stroke-miterlimit="10" stroke-width=".5" d="M446 502s2-4 5-6c3-1 4-2 6-1a383 383 0 0 1 4 2l-1-4v-1l4 4 1 2 1-1c0 1 2 2 1 3 1 0 2-1 2-3s1-4 3-4c1 0 2 0 2 2l-3 3-1 1 3-1c1-1 3-3 7-3l5 1-3 2 4 3 3 2s-6 2-8 0c-3-1-4-4-8-3-4 0-5 1-5 2 1 0 4-1 6 1l1 2s-3 2-5-1l-2-1 2 2c1 1 7 2 7 4l1 4c-1 0-4 2-7-2-1-1-2-2-2-5l-2-3h-1c-1 1-2 0-3 2-2 1-4 4-8 4-1-1-3-2-2-4l2-3h7l4 1c-1-1-3-3-7-4-2 0-4 0-6 2l-5 1h-2z"/>
          </g>
          <g id="Wounding_Root_After_3_Hours">
            <path id="path555" stroke="#000" stroke-miterlimit="10" stroke-width=".5" d="M469 533v6l-1-5c0-2-3-5-3-9l2-4c1-2 2-3 0-5s-5-4-5-6l3-4v-2h3l-1 4c-1 0-3 2-2 3s4 3 4 5l1 3-3 4c-2 4 2 7 2 10z"/>
          </g>
        </g>
        <g id="_x36__hour_5_">
          <g id="Wounding_Shoot_After_6_Hours">
            <path id="path559" stroke="#000" stroke-miterlimit="10" stroke-width=".5" d="M589 502s2-4 5-6c3-1 5-2 7-1l6 5-3-3v-5l4 4 1 2v-1l2 3 1-3c0-2 1-4 3-4 1 0 3 0 2 2l-3 3-1 1 4-1c0-1 3-3 6-3l5 1-2 2 3 3 4 2c-1 0-7 2-9 0-2-1-4-4-8-3-3 0-5 1-5 2h1c1 0 4-1 6 1l1 2c-1 0-3 2-6-1l-2-1 2 2c2 1 7 2 8 4v4c-1 0-4 2-7-2l-2-5c0-1 0-2-2-3h-1c-1 1-2 0-3 2-1 1-4 4-8 4-1-1-3-2-2-4l3-3h6l4 1c-1-1-2-3-7-4-2 0-4 0-6 2l-4 1h-3z"/>
          </g>
          <g id="Wounding_Root_After_6_Hours">
            <path id="path562" stroke="#000" stroke-miterlimit="10" stroke-width=".5" d="M613 533v6c-2-2-1-2-1-5 0-2-4-5-4-9l2-4c1-2 2-3 0-5-1-2-4-4-4-6l2-4v-2h3l-1 4-2 3 5 5v3l-2 4c-2 4 2 7 2 10z"/>
          </g>
        </g>
        <g id="_x31_2_hour_5_">
          <g id="Wounding_Shoot_After_12_Hours">
            <path id="path566" stroke="#000" stroke-miterlimit="10" stroke-width=".5" d="M661 502s2-4 5-6c3-1 4-2 6-1l7 5-3-3-1-4v-1l4 4 1 2 1-1c0 1 2 2 1 3 1 0 2-1 2-3s1-4 3-4c1 0 2 0 2 2l-3 3-1 1 3-1c1-1 3-3 7-3l5 1-3 2 4 3 3 2s-6 2-8 0c-3-1-4-4-8-3-4 0-5 1-5 2 1 0 4-1 6 1l1 2s-3 2-5-1l-2-1 2 2c1 1 7 2 7 4l1 4c-1 0-4 2-7-2-1-1-2-2-2-5l-2-3h-1c-1 1-2 0-3 2-2 1-4 4-8 4-1-1-3-2-2-4l2-3h7l4 1c-1-1-3-3-7-4-2 0-4 0-6 2l-5 1h-2z"/>
          </g>
          <g id="Wounding_Root_After_12_Hours">
            <path id="path569" stroke="#000" stroke-miterlimit="10" stroke-width=".5" d="M684 533v6l-1-5c0-2-3-5-3-9l2-4c1-2 2-3 0-5s-5-4-5-6l3-4v-2h3l-1 4c-1 0-3 2-2 3l5 5v3l-3 4c-2 4 2 7 2 10z"/>
          </g>
        </g>
        <g id="_x32_4_hour_5_">
          <g id="Wounding_Shoot_After_24_Hours">
            <path id="path573" stroke="#000" stroke-miterlimit="10" stroke-width=".5" d="m732 502 6-6c2-1 4-2 6-1l6 5-3-3v-5l4 4 1 2v-1l2 3s2-1 1-3l3-4c1 0 3 0 3 2l-4 3-1 1 4-1c1-1 3-3 6-3l5 1-2 2 4 3 3 2c-1 0-6 2-9 0-2-1-4-4-7-3-4 0-5 1-6 2h1c1 0 4-1 6 1l1 2c-1 0-3 2-5-1l-2-1 2 2c1 1 6 2 7 4v4c-1 0-3 2-7-2l-1-5-2-3h-2c0 1-2 0-3 2-1 1-3 4-7 4-1-1-4-2-3-4l3-3h6l4 1c0-1-2-3-6-4-2 0-4 0-7 2l-4 1h-3z"/>
          </g>
          <g id="Wounding_Root_After_24_Hours">
            <path id="path576" stroke="#000" stroke-miterlimit="10" stroke-width=".5" d="M756 533v6l-1-5c0-2-3-5-3-9-1-2 1-4 1-4 1-2 2-3 1-5-2-2-5-4-5-6l3-4v-2h2c1 1 0 3-1 4 0 0-2 2-1 3l4 5v3l-2 4c-2 4 2 7 2 10z"/>
          </g>
        </g>
      </g>
    </g>
    <g id="Heat">
      <g id="samples_3_" fill="#fff">
        <g id="_x30__hour_3_">
          <g id="Heat_Shoot_0_Hour">
            <path id="path582" stroke="#000" stroke-miterlimit="10" stroke-width=".5" d="M159 552s2-4 5-6 5-3 7-1l6 4-3-2-1-4 1-2 4 5 1 2v-1l2 3 1-3c0-2 1-4 3-4 1 0 3 0 2 1 0 2-2 3-3 4l-1 1 4-1 6-4 5 1-2 3 3 3 4 2h-9c-2-1-4-4-8-4l-5 2 1 1c1 0 4-1 6 1l1 1c-1 1-3 2-6 0 0-1-1-2-2-1l2 2c2 1 7 2 8 4v4c-1 0-4 2-7-2l-2-5c0-1 0-2-2-3h-1c-1 0-2 0-3 2-1 1-4 4-8 4-1-1-3-2-2-4s1-3 3-3h10c-1 0-2-2-7-3-2 0-4 0-6 2l-4 1h-3z"/>
          </g>
          <g id="Heat_Root_0_Hour">
            <path id="path585" stroke="#000" stroke-miterlimit="10" stroke-width=".5" d="M183 583v5c-2-1-1-2-1-4 0-3-4-5-4-9l2-5c1-1 2-3 0-4-1-2-4-4-4-7l2-4v-2l3 1-1 3-2 4 5 4v4l-2 4c-2 4 2 6 2 10z"/>
          </g>
        </g>
        <g id="_x30_.25_hour_3_">
          <g id="Heat_Shoot_After_15_Minutes">
            <path id="path589" stroke="#000" stroke-miterlimit="10" stroke-width=".5" d="M231 552s2-4 5-6 4-3 6-1l7 4-3-2-1-4v-2l4 5 1 2 1-1c0 1 2 2 1 3 1 0 2-1 2-3s1-4 3-4l2 1c0 2-3 3-3 4l-1 1 3-1c1-1 3-3 7-4l5 1-3 3 4 3 3 2h-8c-3-1-4-4-8-4l-5 2v1c1 0 4-1 6 1l1 1c0 1-3 2-5 0-1-1-1-2-2-1l2 2c1 1 7 2 7 4l1 4c-1 0-4 2-7-2-1-2-2-2-2-5l-2-3h-1c-1 0-2 0-3 2-2 1-4 4-8 4-1-1-3-2-2-4 0-2 1-3 2-3h11l-7-3c-2 0-4 0-6 2l-5 1h-2z"/>
          </g>
          <g id="Heat_Root_After_15_Minutes">
            <path id="path592" stroke="#000" stroke-miterlimit="10" stroke-width=".5" d="M254 583v5l-1-4c0-3-3-5-3-9l2-5c1-1 2-3 0-4-2-2-5-4-5-7 1-2 3-2 3-4v-2l3 1-1 3c-1 1-3 2-2 4l4 4 1 4-3 4c-2 4 2 6 2 10z"/>
          </g>
        </g>
        <g id="_x30_.5_hour_3_">
          <g id="Heat_Shoot_After_30_Minutes">
            <path id="path596" stroke="#000" stroke-miterlimit="10" stroke-width=".5" d="m302 552 6-6c2-2 4-3 6-1l6 4-3-2v-6l4 5 1 2v-1l2 3s2-1 1-3l3-4 3 1-4 4-1 1 4-1 6-4 5 1-2 3 4 3 3 2h-9c-2-1-4-4-7-4l-6 2 1 1c1 0 4-1 6 1l1 1c-1 1-3 2-5 0l-2-1 2 2c1 1 6 2 7 4v4c-1 0-3 2-7-2l-1-5-2-3h-2s-2 0-3 2c-1 1-3 4-7 4-1-1-4-2-3-4l3-3h10l-6-3c-2 0-4 0-7 2l-4 1h-3z"/>
          </g>
          <g id="Heat_Root_After_30_Minutes">
            <path id="path599" stroke="#000" stroke-miterlimit="10" stroke-width=".5" d="M326 583v5l-1-4c0-3-3-5-3-9-1-2 1-4 1-5 1-1 2-3 1-4-2-2-5-4-5-7l3-4v-2l2 1-1 3c0 1-2 2-1 4l4 4v4l-2 4c-2 4 2 6 2 10z"/>
          </g>
        </g>
        <g id="_x31__hour_3_">
          <g id="Heat_Shoot_After_1_Hour">
            <path id="path603" stroke="#000" stroke-miterlimit="10" stroke-width=".5" d="M374 552s2-4 5-6 5-3 7-1l6 4-3-2-1-4 1-2 4 5 1 2v-1l2 3 1-3c0-2 1-4 3-4 1 0 3 0 2 1 0 2-2 3-3 4l-1 1 4-1 6-4 5 1-2 3 3 3 4 2h-9c-2-1-4-4-8-4l-5 2 1 1c1 0 4-1 6 1l1 1c-1 1-3 2-6 0 0-1-1-2-2-1l2 2c2 1 7 2 8 4v4c-1 0-4 2-7-2l-2-5c0-1 0-2-2-3h-1c-1 0-2 0-3 2-1 1-4 4-8 4-1-1-3-2-2-4s1-3 3-3h10c-1 0-2-2-7-3-2 0-4 0-6 2l-4 1h-3z"/>
          </g>
          <g id="Heat_Root_After_1_Hour">
            <path id="path606" stroke="#000" stroke-miterlimit="10" stroke-width=".5" d="M398 583v5c-2-1-1-2-1-4 0-3-4-5-4-9l2-5c1-1 2-3 0-4-1-2-4-4-4-7l2-4v-2l3 1-1 3-2 4 5 4v4l-2 4c-2 4 2 6 2 10z"/>
          </g>
        </g>
        <g id="_x33__hour_3_">
          <g id="Heat_Shoot_After_3_Hours">
            <path id="path610" stroke="#000" stroke-miterlimit="10" stroke-width=".5" d="M446 552s2-4 5-6 4-3 6-1l7 4-3-2-1-4v-2l4 5 1 2 1-1c0 1 2 2 1 3 1 0 2-1 2-3s1-4 3-4l2 1c0 2-2 3-3 4l-1 1 3-1c1-1 3-3 7-4l5 1-3 3 4 3 3 2h-8c-3-1-4-4-8-4l-5 2v1c1 0 4-1 6 1l1 1c0 1-3 2-5 0-1-1-1-2-2-1l2 2c1 1 7 2 7 4l1 4c-1 0-4 2-7-2-1-2-2-2-2-5l-2-3h-1c-1 0-2 0-3 2-2 1-4 4-8 4-1-1-3-2-2-4 0-2 1-3 2-3h11l-7-3c-2 0-4 0-6 2l-5 1h-2z"/>
          </g>
          <g id="Heat_Root_After_3_Hours">
            <path id="path613" stroke="#000" stroke-miterlimit="10" stroke-width=".5" d="M469 583v5l-1-4c0-3-3-5-3-9l2-5c1-1 2-3 0-4-2-2-5-4-5-7 1-2 3-2 3-4v-2l3 1-1 3c-1 1-3 2-2 4l4 4 1 4-3 4c-2 4 2 6 2 10z"/>
          </g>
        </g>
        <g id="_x34__hour_3_">
          <g id="Heat_Shoot_After_4_Hours">
            <path id="path617" stroke="#000" stroke-miterlimit="10" stroke-width=".5" d="m517 552 6-6c2-2 4-3 6-1a379 379 0 0 1 3 2v-6l4 5 1 2v-1l2 3s2-1 1-3l3-4 3 1-4 4-1 1 4-1 6-4 5 1-2 3 4 3 3 2h-9c-2-1-4-4-7-4l-6 2 1 1c1 0 4-1 6 1l1 1c-1 1-3 2-5 0l-2-1 2 2c1 1 6 2 7 4v4c-1 0-3 2-7-2l-1-5-2-3h-2s-2 0-3 2c-1 1-3 4-7 4-1-1-4-2-3-4l3-3h10l-6-3c-2 0-4 0-7 2l-4 1h-3z"/>
          </g>
          <g id="Heat_Root_After_4_Hours">
            <path id="path620" stroke="#000" stroke-miterlimit="10" stroke-width=".5" d="M541 583v5l-1-4c0-3-3-5-3-9-1-2 1-4 1-5 1-1 2-3 1-4-2-2-5-4-5-7l3-4v-2l2 1-1 3c0 1-2 2-1 4l4 4v4l-2 4c-2 4 2 6 2 10z"/>
          </g>
        </g>
        <g id="_x36__hour_3_">
          <g id="Heat_Shoot_After_6_Hours">
            <path id="path624" stroke="#000" stroke-miterlimit="10" stroke-width=".5" d="M589 552s2-4 5-6 5-3 7-1l6 4-3-2v-6l4 5 1 2v-1l2 3 1-3c0-2 1-4 3-4 1 0 3 0 2 1 0 2-2 3-3 4l-1 1 4-1 6-4 5 1-2 3 3 3 4 2h-9c-2-1-4-4-8-4l-5 2 1 1c1 0 4-1 6 1l1 1c-1 1-3 2-6 0 0-1-1-2-2-1l2 2c2 1 7 2 8 4v4c-1 0-4 2-7-2l-2-5c0-1 0-2-2-3h-1c-1 0-2 0-3 2-1 1-4 4-8 4-1-1-3-2-2-4s1-3 3-3h10c-1 0-2-2-7-3-2 0-4 0-6 2l-4 1h-3z"/>
          </g>
          <g id="Heat_Root_After_6_Hours">
            <path id="path627" stroke="#000" stroke-miterlimit="10" stroke-width=".5" d="M613 583v5c-2-1-1-2-1-4 0-3-4-5-4-9l2-5c1-1 2-3 0-4-1-2-4-4-4-7l2-4v-2l3 1-1 3-2 4 5 4v4l-2 4c-2 4 2 6 2 10z"/>
          </g>
        </g>
        <g id="_x31_2_hour_3_">
          <g id="Heat_Shoot_After_12_Hours">
            <path id="path631" stroke="#000" stroke-miterlimit="10" stroke-width=".5" d="M661 552s2-4 5-6 4-3 6-1l7 4-3-2-1-4v-2l4 5 1 2 1-1c0 1 2 2 1 3 1 0 2-1 2-3s1-4 3-4l2 1c0 2-2 3-3 4l-1 1 3-1c1-1 3-3 7-4l5 1-3 3 4 3 3 2h-8c-3-1-4-4-8-4l-5 2v1c1 0 4-1 6 1l1 1c0 1-3 2-5 0-1-1-1-2-2-1l2 2c1 1 7 2 7 4l1 4c-1 0-4 2-7-2-1-2-2-2-2-5l-2-3h-1c-1 0-2 0-3 2-2 1-4 4-8 4-1-1-3-2-2-4 0-2 1-3 2-3h11l-7-3c-2 0-4 0-6 2l-5 1h-2z"/>
          </g>
          <g id="Heat_Root_After_12_Hours">
            <path id="path634" stroke="#000" stroke-miterlimit="10" stroke-width=".5" d="M684 583v5l-1-4c0-3-3-5-3-9l2-5c1-1 2-3 0-4-2-2-5-4-5-7 1-2 3-2 3-4v-2l3 1-1 3c-1 1-3 2-2 4l5 4v4l-3 4c-2 4 2 6 2 10z"/>
          </g>
        </g>
        <g id="_x32_4_hour_3_">
          <g id="Heat_Shoot_After_24_Hours">
            <path id="path638" stroke="#000" stroke-miterlimit="10" stroke-width=".5" d="m732 552 6-6c2-2 4-3 6-1l6 4-3-2v-6l4 5 1 2v-1l2 3s2-1 1-3l3-4 3 1-4 4-1 1 4-1 6-4 5 1-2 3 4 3 3 2h-9c-2-1-4-4-7-4l-6 2 1 1c1 0 4-1 6 1l1 1c-1 1-3 2-5 0l-2-1 2 2c1 1 6 2 7 4v4c-1 0-3 2-7-2l-1-5-2-3h-2s-2 0-3 2c-1 1-3 4-7 4-1-1-4-2-3-4l3-3h10l-6-3c-2 0-4 0-7 2l-4 1h-3z"/>
          </g>
          <g id="Heat_Root_After_24_Hours">
            <path id="path641" stroke="#000" stroke-miterlimit="10" stroke-width=".5" d="M756 583v5l-1-4c0-3-3-5-3-9-1-2 1-4 1-5 1-1 2-3 1-4-2-2-5-4-5-7l3-4v-2l2 1-1 3c0 1-2 2-1 4l4 4v4l-2 4c-2 4 2 6 2 10z"/>
          </g>
        </g>
      </g>
    </g>
  </g>
  <g id="Info_Buttons" transform="translate(-35 -12)">
    <circle id="condition_Cold" cx="135.9" cy="167.7" r="6" fill="#3fa9f5"/>
    <circle id="condition_Osmotic" cx="135.9" cy="216.8" r="6" fill="#0ff"/>
    <circle id="condition_Salt" cx="135.9" cy="266.9" r="6" fill="#ccc"/>
    <circle id="condition_Drought" cx="135.9" cy="316" r="6" fill="#ff931e"/>
    <circle id="condition_Genotoxic" cx="135.9" cy="364.1" r="6" fill="#c69c6d"/>
    <circle id="condition_Oxidative" cx="135.9" cy="414.2" r="6" fill="#009245"/>
    <circle id="condition_UV-B" cx="135.9" cy="463.3" r="6" fill="#f0f"/>
    <circle id="condition_Wounding" cx="135.9" cy="512.4" r="6" fill="#9e005d"/>
    <circle id="condition_Heat" cx="135.9" cy="561.5" r="6" fill="#ed1c24"/>
  </g>
</svg>