<svg xmlns="http://www.w3.org/2000/svg" id="AbioticStressII_svg" version="1.1" viewBox="45 35 591.88 262.677" author="Provart Lab - Bio Analytic Resource, University of Toronto">
  <g id="WellWatered-Predawn" fill="#fff" stroke="#000" stroke-miterlimit="10" stroke-width=".707" transform="translate(-2.07 -13.7)">
    <path id="path88" d="M154.85 72.375s2.565-4.593 5.351-6.178c2.786-1.586 4.358-2.428 6.454-.938 1.765 1.103 6.454 4.247 6.454 4.247-.661-.717-2.343-2.055-3.088-2.648-.745-.592-.938-1.435-.551-3.641l.165-1.545c.828.718 3.917 3.2 4.083 4.192-.055.828.276 1.821.772 2.317.166-.882.387-1.213.387-1.213.496.937 2.041 1.931 1.82 3.365.385-.221 1.489-1.048 1.379-3.53.11-1.544 1.269-3.42 2.869-3.806 1.103-.166 2.579.124 2.261 1.655-.317 1.53-2.399 2.951-3.365 3.751-.966.8-.883 1.103-.883 1.103.883-.552 3.255-1.6 3.696-1.655.662-.772 3.034-2.924 6.344-3.144 1.545.11 4.744.827 5.075.993-.662.386-2.151 2.261-2.373 2.647.663.607 2.965 2.635 3.476 3.144.51.511 2.979 1.379 3.31 1.489-.386.387-6.303 1.573-8.55.222-2.248-1.352-4.013-4.193-7.723-3.476-3.71.718-4.799 1.655-5.186 1.985 0 .332.166.497.662.332.827-.221 4.027-1.214 6.013 1.324.607.882.938 1.158.938 1.158-.551.276-3.144 2.041-5.295-.166-.717-.882-1.324-1.599-2.096-1.544.441.662 1.6 2.316 2.151 2.647 1.158.332 6.62 1.711 7.116 3.972.441 1.766.606 2.759.441 3.421-.828.441-3.806 2.151-6.951-1.765-.938-1.379-1.434-2.207-1.599-4.799-.607-1.213-.883-1.93-1.986-2.868-.552-.166-1.379 0-1.379 0-.882.166-2.096.055-3.144 1.489-1.159 1.159-3.586 4.302-7.447 3.917-1.269-.386-3.475-1.766-2.593-3.862.662-1.214 1.6-2.303 2.648-2.979 1.048-.676 3.365-.993 6.343.11 1.6.275 3.972.552 3.972.552-.606-.552-2.317-2.814-6.51-3.31-1.985 0-3.861.166-6.399 1.875-1.269.718-1.765 1.103-4.248 1.103-1.491-.108-2.097-.108-2.814.057"/>
    <path id="path91" d="M178.5 102.88c-.157 1.884-.689 4.579.196 5.848-1.476-1.324-.82-2.062-1.13-4.544.021-2.42-3.124-5.109-3.331-8.957-.119-2.205 1.19-3.951 1.774-4.703.849-1.088 1.926-2.869.252-4.744-1.575-1.821-4.788-3.972-4.493-6.123.443-1.904 2.103-2.814 2.595-3.917.478-.799.061-2.229.061-2.229 1.92-.31 2.521.412 2.521.412.248.662.047 2.838-.908 3.638-.691.53-2.328 2.096-1.638 3.365.58.979 3.596 3.46 4.394 4.633.943 1.579.645 2.423.198 3.358-.446.935-.807 2.151-2.378 4.51-2.107 3.458 1.883 6.143 1.887 9.453"/>
  </g>
  <g id="WellWatered-Midday" fill="#fff" stroke="#000" stroke-miterlimit="10" stroke-width=".707" transform="translate(-2.07 -13.7)">
    <path id="path95" d="M226.52 72.375s2.565-4.593 5.351-6.178c2.785-1.586 4.358-2.428 6.454-.938 1.765 1.103 6.454 4.247 6.454 4.247-.661-.717-2.344-2.055-3.089-2.648-.745-.592-.938-1.435-.551-3.641l.165-1.545c.828.718 3.917 3.2 4.082 4.192-.056.828.276 1.821.772 2.317.166-.882.387-1.213.387-1.213.496.937 2.041 1.931 1.82 3.365.386-.221 1.489-1.048 1.379-3.53.11-1.544 1.268-3.42 2.868-3.806 1.104-.166 2.579.124 2.261 1.655-.317 1.53-2.399 2.951-3.365 3.751-.966.8-.883 1.103-.883 1.103.883-.552 3.255-1.6 3.696-1.655.662-.772 3.034-2.924 6.344-3.144 1.545.11 4.744.827 5.075.993-.663.386-2.151 2.261-2.373 2.647.663.607 2.965 2.635 3.476 3.144.511.511 2.979 1.379 3.31 1.489-.386.387-6.302 1.573-8.55.222-2.248-1.352-4.013-4.193-7.723-3.476-3.709.718-4.799 1.655-5.186 1.985 0 .332.166.497.662.332.828-.221 4.027-1.214 6.013 1.324.607.882.938 1.158.938 1.158-.552.276-3.145 2.041-5.296-.166-.717-.882-1.324-1.599-2.096-1.544.441.662 1.6 2.316 2.151 2.647 1.158.332 6.619 1.711 7.116 3.972.441 1.766.607 2.759.441 3.421-.827.441-3.806 2.151-6.95-1.765-.938-1.379-1.434-2.207-1.6-4.799-.606-1.213-.883-1.93-1.985-2.868-.552-.166-1.38 0-1.38 0-.883.166-2.096.055-3.144 1.489-1.159 1.159-3.585 4.302-7.447 3.917-1.268-.386-3.475-1.766-2.592-3.862.662-1.214 1.6-2.303 2.647-2.979 1.048-.676 3.365-.993 6.344.11 1.6.275 3.972.552 3.972.552-.606-.552-2.317-2.814-6.509-3.31-1.986 0-3.862.166-6.399 1.875-1.269.718-1.765 1.103-4.248 1.103-1.488-.108-2.095-.108-2.812.057"/>
    <path id="path98" d="M250.17 102.88c-.157 1.884-.689 4.579.196 5.848-1.477-1.324-.82-2.062-1.13-4.544.021-2.42-3.123-5.109-3.331-8.957-.119-2.205 1.189-3.951 1.775-4.703.848-1.088 1.925-2.869.251-4.744-1.575-1.821-4.788-3.972-4.493-6.123.444-1.904 2.103-2.814 2.595-3.917.478-.799.062-2.229.062-2.229 1.919-.31 2.521.412 2.521.412.248.662.047 2.838-.909 3.638-.69.53-2.327 2.096-1.638 3.365.58.979 3.597 3.46 4.395 4.633.943 1.579.644 2.423.198 3.358s-.807 2.151-2.379 4.51c-2.106 3.458 1.884 6.143 1.887 9.453"/>
  </g>
  <g id="WellWatered-LateDay" fill="#fff" stroke="#000" stroke-miterlimit="10" stroke-width=".707" transform="translate(-2.07 -13.7)">
    <path id="path102" d="M298.18 72.375s2.566-4.593 5.351-6.178c2.786-1.586 4.358-2.428 6.454-.938 1.765 1.103 6.454 4.247 6.454 4.247-.662-.717-2.344-2.055-3.089-2.648-.745-.592-.938-1.435-.552-3.641l.165-1.545c.828.718 3.917 3.2 4.083 4.192-.056.828.276 1.821.772 2.317.166-.882.387-1.213.387-1.213.496.937 2.04 1.931 1.82 3.365.386-.221 1.49-1.048 1.379-3.53.11-1.544 1.269-3.42 2.869-3.806 1.103-.166 2.578.124 2.261 1.655-.317 1.53-2.399 2.951-3.365 3.751-.965.8-.882 1.103-.882 1.103.882-.552 3.255-1.6 3.695-1.655.662-.772 3.035-2.924 6.345-3.144 1.544.11 4.743.827 5.074.993-.662.386-2.151 2.261-2.372 2.647.662.607 2.965 2.635 3.476 3.144.51.511 2.979 1.379 3.31 1.489-.386.387-6.303 1.573-8.55.222-2.249-1.352-4.013-4.193-7.723-3.476-3.71.718-4.8 1.655-5.186 1.985 0 .332.166.497.662.332.828-.221 4.027-1.214 6.013 1.324.606.882.937 1.158.937 1.158-.551.276-3.144 2.041-5.295-.166-.717-.882-1.323-1.599-2.096-1.544.441.662 1.6 2.316 2.15 2.647 1.159.332 6.62 1.711 7.117 3.972.44 1.766.606 2.759.44 3.421-.827.441-3.806 2.151-6.95-1.765-.938-1.379-1.435-2.207-1.6-4.799-.606-1.213-.882-1.93-1.986-2.868-.552-.166-1.379 0-1.379 0-.883.166-2.096.055-3.145 1.489-1.158 1.159-3.585 4.302-7.447 3.917-1.268-.386-3.475-1.766-2.592-3.862.662-1.214 1.6-2.303 2.648-2.979 1.048-.676 3.365-.993 6.343.11 1.6.275 3.973.552 3.973.552-.607-.552-2.317-2.814-6.51-3.31-1.985 0-3.862.166-6.399 1.875-1.269.718-1.765 1.103-4.247 1.103-1.489-.108-2.096-.108-2.813.057"/>
    <path id="path105" d="M321.84 102.88c-.158 1.884-.689 4.579.196 5.848-1.477-1.324-.821-2.062-1.131-4.544.021-2.42-3.123-5.109-3.33-8.957-.12-2.205 1.189-3.951 1.774-4.703.848-1.088 1.925-2.869.251-4.744-1.575-1.821-4.788-3.972-4.492-6.123.443-1.904 2.103-2.814 2.595-3.917.478-.799.062-2.229.062-2.229 1.919-.31 2.521.412 2.521.412.248.662.047 2.838-.909 3.638-.691.53-2.327 2.096-1.637 3.365.58.979 3.596 3.46 4.394 4.633.943 1.579.645 2.423.199 3.358s-.807 2.151-2.379 4.51c-2.107 3.458 1.883 6.143 1.886 9.453"/>
  </g>
  <g id="WellWatered-Midnight" fill="#fff" stroke="#000" stroke-miterlimit="10" stroke-width=".707" transform="translate(-2.07 -13.7)">
    <path id="path109" d="M369.85 72.375s2.566-4.593 5.352-6.178c2.785-1.586 4.357-2.428 6.454-.938 1.765 1.103 6.454 4.247 6.454 4.247-.662-.717-2.344-2.055-3.089-2.648-.745-.592-.937-1.435-.551-3.641l.166-1.545c.827.718 3.917 3.2 4.082 4.192-.055.828.276 1.821.772 2.317.166-.882.387-1.213.387-1.213.496.937 2.041 1.931 1.82 3.365.386-.221 1.489-1.048 1.376-3.53.11-1.544 1.271-3.42 2.868-3.806 1.104-.166 2.58.124 2.264 1.655-.317 1.53-2.398 2.951-3.364 3.751-.966.8-.883 1.103-.883 1.103.883-.552 3.255-1.6 3.693-1.655.662-.772 3.034-2.924 6.347-3.144 1.544.11 4.741.827 5.072.993-.659.386-2.148 2.261-2.372 2.647.661.607 2.967 2.635 3.478 3.144.511.511 2.979 1.379 3.31 1.489-.386.387-6.302 1.573-8.55.222-2.248-1.351-4.013-4.193-7.723-3.476-3.71.718-4.799 1.655-5.188 1.985 0 .332.166.497.662.332.828-.221 4.027-1.214 6.016 1.324.604.882.938 1.158.938 1.158-.551.276-3.144 2.041-5.295-.166-.717-.882-1.324-1.599-2.096-1.544.438.662 1.6 2.316 2.148 2.647 1.159.332 6.62 1.711 7.116 3.972.441 1.766.606 2.759.441 3.421-.828.441-3.809 2.151-6.951-1.765-.938-1.379-1.437-2.207-1.603-4.799-.604-1.213-.882-1.93-1.984-2.868-.552-.166-1.379 0-1.379 0-.883.166-2.096.055-3.144 1.489-1.159 1.159-3.586 4.302-7.447 3.917-1.268-.386-3.475-1.766-2.592-3.862.662-1.214 1.6-2.303 2.647-2.979 1.048-.676 3.366-.993 6.344.11 1.6.275 3.972.552 3.972.552-.607-.552-2.317-2.814-6.51-3.31-1.985 0-3.861.166-6.398 1.875-1.269.718-1.765 1.103-4.248 1.103-1.487-.108-2.095-.108-2.812.057"/>
    <path id="path112" d="M393.51 102.88c-.157 1.884-.689 4.579.196 5.848-1.479-1.324-.819-2.062-1.133-4.544.021-2.42-3.123-5.109-3.331-8.957-.118-2.205 1.19-3.951 1.775-4.703.848-1.088 1.925-2.869.251-4.744-1.576-1.821-4.789-3.972-4.493-6.123.444-1.904 2.103-2.814 2.596-3.917.478-.799.061-2.229.061-2.229 1.92-.31 2.521.412 2.521.412.248.662.046 2.838-.909 3.638-.691.53-2.328 2.096-1.638 3.365.58.979 3.597 3.46 4.394 4.633.941 1.579.645 2.423.199 3.358-.447.935-.81 2.151-2.379 4.51-2.102 3.458 1.887 6.143 1.89 9.453"/>
  </g>
  <g id="WaterLimited-Predawn" fill="#fff" stroke="#000" stroke-miterlimit="10" stroke-width=".707" transform="translate(-2.07 -13.7)">
    <path id="path88-8" d="M154.85 126.48s2.565-4.593 5.351-6.178c2.786-1.586 4.358-2.428 6.454-.938 1.765 1.103 6.454 4.247 6.454 4.247-.661-.717-2.343-2.055-3.088-2.648-.745-.592-.938-1.435-.551-3.641l.165-1.545c.828.718 3.917 3.2 4.083 4.192-.055.828.276 1.821.772 2.317.166-.882.387-1.213.387-1.213.496.937 2.041 1.931 1.82 3.365.385-.221 1.489-1.048 1.379-3.53.11-1.544 1.269-3.42 2.869-3.806 1.103-.166 2.579.124 2.261 1.655-.317 1.53-2.399 2.951-3.365 3.751-.966.8-.883 1.103-.883 1.103.883-.552 3.255-1.6 3.696-1.655.662-.772 3.034-2.924 6.344-3.144 1.545.11 4.744.827 5.075.993-.662.386-2.151 2.261-2.373 2.647.663.607 2.965 2.635 3.476 3.144.51.511 2.979 1.379 3.31 1.489-.386.387-6.303 1.573-8.55.222-2.248-1.352-4.013-4.193-7.723-3.476-3.71.718-4.799 1.655-5.186 1.985 0 .332.166.497.662.332.827-.221 4.027-1.214 6.013 1.324.607.882.938 1.158.938 1.158-.551.276-3.144 2.041-5.295-.166-.717-.882-1.324-1.599-2.096-1.544.441.662 1.6 2.316 2.151 2.647 1.158.332 6.62 1.711 7.116 3.972.441 1.766.606 2.759.441 3.421-.828.441-3.806 2.151-6.951-1.765-.938-1.379-1.434-2.207-1.599-4.799-.607-1.213-.883-1.93-1.986-2.868-.552-.166-1.379 0-1.379 0-.882.166-2.096.055-3.144 1.489-1.159 1.159-3.586 4.302-7.447 3.917-1.269-.386-3.475-1.766-2.593-3.862.662-1.214 1.6-2.303 2.648-2.979 1.048-.676 3.365-.993 6.343.11 1.6.275 3.972.552 3.972.552-.606-.552-2.317-2.814-6.51-3.31-1.985 0-3.861.166-6.399 1.875-1.269.718-1.765 1.103-4.248 1.103-1.491-.108-2.097-.108-2.814.057"/>
    <path id="path91-3" d="M178.5 156.98c-.157 1.884-.689 4.579.196 5.848-1.476-1.324-.82-2.062-1.13-4.544.021-2.42-3.124-5.109-3.331-8.957-.119-2.205 1.19-3.951 1.774-4.703.849-1.088 1.926-2.869.252-4.744-1.575-1.821-4.788-3.972-4.493-6.123.443-1.904 2.103-2.814 2.595-3.917.478-.799.061-2.229.061-2.229 1.92-.31 2.521.412 2.521.412.248.662.047 2.838-.908 3.638-.691.53-2.328 2.096-1.638 3.365.58.979 3.596 3.46 4.394 4.633.943 1.579.645 2.423.198 3.358-.446.935-.807 2.151-2.378 4.51-2.107 3.458 1.883 6.143 1.887 9.453"/>
  </g>
  <g id="WaterLimited-Midday" fill="#fff" stroke="#000" stroke-miterlimit="10" stroke-width=".707" transform="translate(-2.07 -13.7)">
    <path id="path95-2" d="M226.52 126.48s2.565-4.593 5.351-6.178c2.785-1.586 4.358-2.428 6.454-.938 1.765 1.103 6.454 4.247 6.454 4.247-.661-.717-2.344-2.055-3.089-2.648-.745-.592-.938-1.435-.551-3.641l.165-1.545c.828.718 3.917 3.2 4.082 4.192-.056.828.276 1.821.772 2.317.166-.882.387-1.213.387-1.213.496.937 2.041 1.931 1.82 3.365.386-.221 1.489-1.048 1.379-3.53.11-1.544 1.268-3.42 2.868-3.806 1.104-.166 2.579.124 2.261 1.655-.317 1.53-2.399 2.951-3.365 3.751-.966.8-.883 1.103-.883 1.103.883-.552 3.255-1.6 3.696-1.655.662-.772 3.034-2.924 6.344-3.144 1.545.11 4.744.827 5.075.993-.663.386-2.151 2.261-2.373 2.647.663.607 2.965 2.635 3.476 3.144.511.511 2.979 1.379 3.31 1.489-.386.387-6.302 1.573-8.55.222-2.248-1.352-4.013-4.193-7.723-3.476-3.709.718-4.799 1.655-5.186 1.985 0 .332.166.497.662.332.828-.221 4.027-1.214 6.013 1.324.607.882.938 1.158.938 1.158-.552.276-3.145 2.041-5.296-.166-.717-.882-1.324-1.599-2.096-1.544.441.662 1.6 2.316 2.151 2.647 1.158.332 6.619 1.711 7.116 3.972.441 1.766.607 2.759.441 3.421-.827.441-3.806 2.151-6.95-1.765-.938-1.379-1.434-2.207-1.6-4.799-.606-1.213-.883-1.93-1.985-2.868-.552-.166-1.38 0-1.38 0-.883.166-2.096.055-3.144 1.489-1.159 1.159-3.585 4.302-7.447 3.917-1.268-.386-3.475-1.766-2.592-3.862.662-1.214 1.6-2.303 2.647-2.979 1.048-.676 3.365-.993 6.344.11 1.6.275 3.972.552 3.972.552-.606-.552-2.317-2.814-6.509-3.31-1.986 0-3.862.166-6.399 1.875-1.269.718-1.765 1.103-4.248 1.103-1.488-.108-2.095-.108-2.812.057"/>
    <path id="path98-4" d="M250.17 156.98c-.157 1.884-.689 4.579.196 5.848-1.477-1.324-.82-2.062-1.13-4.544.021-2.42-3.123-5.109-3.331-8.957-.119-2.205 1.189-3.951 1.775-4.703.848-1.088 1.925-2.869.251-4.744-1.575-1.821-4.788-3.972-4.493-6.123.444-1.904 2.103-2.814 2.595-3.917.478-.799.062-2.229.062-2.229 1.919-.31 2.521.412 2.521.412.248.662.047 2.838-.909 3.638-.69.53-2.327 2.096-1.638 3.365.58.979 3.597 3.46 4.395 4.633.943 1.579.644 2.423.198 3.358s-.807 2.151-2.379 4.51c-2.106 3.458 1.884 6.143 1.887 9.453"/>
  </g>
  <g id="WaterLimited-LateDay" fill="#fff" stroke="#000" stroke-miterlimit="10" stroke-width=".707" transform="translate(-2.07 -13.7)">
    <path id="path102-0" d="M298.18 126.48s2.566-4.593 5.351-6.178c2.786-1.586 4.358-2.428 6.454-.938 1.765 1.103 6.454 4.247 6.454 4.247-.662-.717-2.344-2.055-3.089-2.648-.745-.592-.938-1.435-.552-3.641l.165-1.545c.828.718 3.917 3.2 4.083 4.192-.056.828.276 1.821.772 2.317.166-.882.387-1.213.387-1.213.496.937 2.04 1.931 1.82 3.365.386-.221 1.49-1.048 1.379-3.53.11-1.544 1.269-3.42 2.869-3.806 1.103-.166 2.578.124 2.261 1.655-.317 1.53-2.399 2.951-3.365 3.751-.965.8-.882 1.103-.882 1.103.882-.552 3.255-1.6 3.695-1.655.662-.772 3.035-2.924 6.345-3.144 1.544.11 4.743.827 5.074.993-.662.386-2.151 2.261-2.372 2.647.662.607 2.965 2.635 3.476 3.144.51.511 2.979 1.379 3.31 1.489-.386.387-6.303 1.573-8.55.222-2.249-1.352-4.013-4.193-7.723-3.476-3.71.718-4.8 1.655-5.186 1.985 0 .332.166.497.662.332.828-.221 4.027-1.214 6.013 1.324.606.882.937 1.158.937 1.158-.551.276-3.144 2.041-5.295-.166-.717-.882-1.323-1.599-2.096-1.544.441.662 1.6 2.316 2.15 2.647 1.159.332 6.62 1.711 7.117 3.972.44 1.766.606 2.759.44 3.421-.827.441-3.806 2.151-6.95-1.765-.938-1.379-1.435-2.207-1.6-4.799-.606-1.213-.882-1.93-1.986-2.868-.552-.166-1.379 0-1.379 0-.883.166-2.096.055-3.145 1.489-1.158 1.159-3.585 4.302-7.447 3.917-1.268-.386-3.475-1.766-2.592-3.862.662-1.214 1.6-2.303 2.648-2.979 1.048-.676 3.365-.993 6.343.11 1.6.275 3.973.552 3.973.552-.607-.552-2.317-2.814-6.51-3.31-1.985 0-3.862.166-6.399 1.875-1.269.718-1.765 1.103-4.247 1.103-1.489-.108-2.096-.108-2.813.057"/>
    <path id="path105-5" d="M321.84 156.98c-.158 1.884-.689 4.579.196 5.848-1.477-1.324-.821-2.062-1.131-4.544.021-2.42-3.123-5.109-3.33-8.957-.12-2.205 1.189-3.951 1.774-4.703.848-1.088 1.925-2.869.251-4.744-1.575-1.821-4.788-3.972-4.492-6.123.443-1.904 2.103-2.814 2.595-3.917.478-.799.062-2.229.062-2.229 1.919-.31 2.521.412 2.521.412.248.662.047 2.838-.909 3.638-.691.53-2.327 2.096-1.637 3.365.58.979 3.596 3.46 4.394 4.633.943 1.579.645 2.423.199 3.358s-.807 2.151-2.379 4.51c-2.107 3.458 1.883 6.143 1.886 9.453"/>
  </g>
  <g id="WaterLimited-Midnight" fill="#fff" stroke="#000" stroke-miterlimit="10" stroke-width=".707" transform="translate(-2.07 -13.7)">
    <path id="path109-9" d="M369.85 126.48s2.566-4.593 5.352-6.178c2.785-1.586 4.357-2.428 6.454-.938 1.765 1.103 6.454 4.247 6.454 4.247-.662-.717-2.344-2.055-3.089-2.648-.745-.592-.937-1.435-.551-3.641l.166-1.545c.827.718 3.917 3.2 4.082 4.192-.055.828.276 1.821.772 2.317.166-.882.387-1.213.387-1.213.496.937 2.041 1.931 1.82 3.365.386-.221 1.489-1.048 1.376-3.53.11-1.544 1.271-3.42 2.868-3.806 1.104-.166 2.58.124 2.264 1.655-.317 1.53-2.398 2.951-3.364 3.751-.966.8-.883 1.103-.883 1.103.883-.552 3.255-1.6 3.693-1.655.662-.772 3.034-2.924 6.347-3.144 1.544.11 4.741.827 5.072.993-.659.386-2.148 2.261-2.372 2.647.661.607 2.967 2.635 3.478 3.144.511.511 2.979 1.379 3.31 1.489-.386.387-6.302 1.573-8.55.222-2.248-1.351-4.013-4.193-7.723-3.476-3.71.718-4.799 1.655-5.188 1.985 0 .332.166.497.662.332.828-.221 4.027-1.214 6.016 1.324.604.882.938 1.158.938 1.158-.551.276-3.144 2.041-5.295-.166-.717-.882-1.324-1.599-2.096-1.544.438.662 1.6 2.316 2.148 2.647 1.159.332 6.62 1.711 7.116 3.972.441 1.766.606 2.759.441 3.421-.828.441-3.809 2.151-6.951-1.765-.938-1.379-1.437-2.207-1.603-4.799-.604-1.213-.882-1.93-1.984-2.868-.552-.166-1.379 0-1.379 0-.883.166-2.096.055-3.144 1.489-1.159 1.159-3.586 4.302-7.447 3.917-1.268-.386-3.475-1.766-2.592-3.862.662-1.214 1.6-2.303 2.647-2.979 1.048-.676 3.366-.993 6.344.11 1.6.275 3.972.552 3.972.552-.607-.552-2.317-2.814-6.51-3.31-1.985 0-3.861.166-6.398 1.875-1.269.718-1.765 1.103-4.248 1.103-1.487-.108-2.095-.108-2.812.057"/>
    <path id="path112-2" d="M393.51 156.98c-.157 1.884-.689 4.579.196 5.848-1.479-1.324-.819-2.062-1.133-4.544.021-2.42-3.123-5.109-3.331-8.957-.118-2.205 1.19-3.951 1.775-4.703.848-1.088 1.925-2.869.251-4.744-1.576-1.821-4.789-3.972-4.493-6.123.444-1.904 2.103-2.814 2.596-3.917.478-.799.061-2.229.061-2.229 1.92-.31 2.521.412 2.521.412.248.662.046 2.838-.909 3.638-.691.53-2.328 2.096-1.638 3.365.58.979 3.597 3.46 4.394 4.633.941 1.579.645 2.423.199 3.358-.447.935-.81 2.151-2.379 4.51-2.102 3.458 1.887 6.143 1.89 9.453"/>
  </g>
  <g id="NonStressed-TotalRNA" fill="#fff" stroke="#000" stroke-miterlimit="10" stroke-width=".707" transform="translate(-2.07 -13.7)">
    <path id="path88-9" d="M154.85 204.06s2.565-4.593 5.351-6.178c2.786-1.586 4.358-2.428 6.454-.938 1.765 1.103 6.454 4.247 6.454 4.247-.661-.717-2.343-2.055-3.088-2.648-.745-.592-.938-1.435-.551-3.641l.165-1.545c.828.718 3.917 3.2 4.083 4.192-.055.828.276 1.821.772 2.317.166-.882.387-1.213.387-1.213.496.937 2.041 1.931 1.82 3.365.385-.221 1.489-1.048 1.379-3.53.11-1.544 1.269-3.42 2.869-3.806 1.103-.166 2.579.124 2.261 1.655-.317 1.53-2.399 2.951-3.365 3.751-.966.8-.883 1.103-.883 1.103.883-.552 3.255-1.6 3.696-1.655.662-.772 3.034-2.924 6.344-3.144 1.545.11 4.744.827 5.075.993-.662.386-2.151 2.261-2.373 2.647.663.607 2.965 2.635 3.476 3.144.51.511 2.979 1.379 3.31 1.489-.386.387-6.303 1.573-8.55.222-2.248-1.352-4.013-4.193-7.723-3.476-3.71.718-4.799 1.655-5.186 1.985 0 .332.166.497.662.332.827-.221 4.027-1.214 6.013 1.324.607.882.938 1.158.938 1.158-.551.276-3.144 2.041-5.295-.166-.717-.882-1.324-1.599-2.096-1.544.441.662 1.6 2.316 2.151 2.647 1.158.332 6.62 1.711 7.116 3.972.441 1.766.606 2.759.441 3.421-.828.441-3.806 2.151-6.951-1.765-.938-1.379-1.434-2.207-1.599-4.799-.607-1.213-.883-1.93-1.986-2.868-.552-.166-1.379 0-1.379 0-.882.166-2.096.055-3.144 1.489-1.159 1.159-3.586 4.302-7.447 3.917-1.269-.386-3.475-1.766-2.593-3.862.662-1.214 1.6-2.303 2.648-2.979 1.048-.676 3.365-.993 6.343.11 1.6.275 3.972.552 3.972.552-.606-.552-2.317-2.814-6.51-3.31-1.985 0-3.861.166-6.399 1.875-1.269.718-1.765 1.103-4.248 1.103-1.491-.108-2.097-.108-2.814.057"/>
    <path id="path91-7" d="M178.5 234.57c-.157 1.884-.689 4.579.196 5.848-1.476-1.324-.82-2.062-1.13-4.544.021-2.42-3.124-5.109-3.331-8.957-.119-2.205 1.19-3.951 1.774-4.703.849-1.088 1.926-2.869.252-4.744-1.575-1.821-4.788-3.972-4.493-6.123.443-1.904 2.103-2.814 2.595-3.917.478-.799.061-2.229.061-2.229 1.92-.31 2.521.412 2.521.412.248.662.047 2.838-.908 3.638-.691.53-2.328 2.096-1.638 3.365.58.979 3.596 3.46 4.394 4.633.943 1.579.645 2.423.198 3.358-.446.935-.807 2.151-2.378 4.51-2.107 3.458 1.883 6.143 1.887 9.453"/>
  </g>
  <g id="NonStressed-PolysomalMRNA" fill="#fff" stroke="#000" stroke-miterlimit="10" stroke-width=".707" transform="translate(-2.07 -13.7)">
    <path id="path95-1" d="M226.52 204.06s2.565-4.593 5.351-6.178c2.785-1.586 4.358-2.428 6.454-.938 1.765 1.103 6.454 4.247 6.454 4.247-.661-.717-2.344-2.055-3.089-2.648-.745-.592-.938-1.435-.551-3.641l.165-1.545c.828.718 3.917 3.2 4.082 4.192-.056.828.276 1.821.772 2.317.166-.882.387-1.213.387-1.213.496.937 2.041 1.931 1.82 3.365.386-.221 1.489-1.048 1.379-3.53.11-1.544 1.268-3.42 2.868-3.806 1.104-.166 2.579.124 2.261 1.655-.317 1.53-2.399 2.951-3.365 3.751-.966.8-.883 1.103-.883 1.103.883-.552 3.255-1.6 3.696-1.655.662-.772 3.034-2.924 6.344-3.144 1.545.11 4.744.827 5.075.993-.663.386-2.151 2.261-2.373 2.647.663.607 2.965 2.635 3.476 3.144.511.511 2.979 1.379 3.31 1.489-.386.387-6.302 1.573-8.55.222-2.248-1.352-4.013-4.193-7.723-3.476-3.709.718-4.799 1.655-5.186 1.985 0 .332.166.497.662.332.828-.221 4.027-1.214 6.013 1.324.607.882.938 1.158.938 1.158-.552.276-3.145 2.041-5.296-.166-.717-.882-1.324-1.599-2.096-1.544.441.662 1.6 2.316 2.151 2.647 1.158.332 6.619 1.711 7.116 3.972.441 1.766.607 2.759.441 3.421-.827.441-3.806 2.151-6.95-1.765-.938-1.379-1.434-2.207-1.6-4.799-.606-1.213-.883-1.93-1.985-2.868-.552-.166-1.38 0-1.38 0-.883.166-2.096.055-3.144 1.489-1.159 1.159-3.585 4.302-7.447 3.917-1.268-.386-3.475-1.766-2.592-3.862.662-1.214 1.6-2.303 2.647-2.979 1.048-.676 3.365-.993 6.344.11 1.6.275 3.972.552 3.972.552-.606-.552-2.317-2.814-6.509-3.31-1.986 0-3.862.166-6.399 1.875-1.269.718-1.765 1.103-4.248 1.103-1.488-.108-2.095-.108-2.812.057"/>
    <path id="path98-1" d="M250.17 234.57c-.157 1.884-.689 4.579.196 5.848-1.477-1.324-.82-2.062-1.13-4.544.021-2.42-3.123-5.109-3.331-8.957-.119-2.205 1.189-3.951 1.775-4.703.848-1.088 1.925-2.869.251-4.744-1.575-1.821-4.788-3.972-4.493-6.123.444-1.904 2.103-2.814 2.595-3.917.478-.799.062-2.229.062-2.229 1.919-.31 2.521.412 2.521.412.248.662.047 2.838-.909 3.638-.69.53-2.327 2.096-1.638 3.365.58.979 3.597 3.46 4.395 4.633.943 1.579.644 2.423.198 3.358s-.807 2.151-2.379 4.51c-2.106 3.458 1.884 6.143 1.887 9.453"/>
  </g>
  <g id="Hypoxia-TotalRNA" fill="#fff" stroke="#000" stroke-miterlimit="10" stroke-width=".707" transform="translate(-2.07 -13.7)">
    <path id="path88-8-0" d="M154.85 258.16s2.565-4.593 5.351-6.178c2.786-1.586 4.358-2.428 6.454-.938 1.765 1.103 6.454 4.247 6.454 4.247-.661-.717-2.343-2.055-3.088-2.648-.745-.592-.938-1.435-.551-3.641l.165-1.545c.828.718 3.917 3.2 4.083 4.192-.055.828.276 1.821.772 2.317.166-.882.387-1.213.387-1.213.496.937 2.041 1.931 1.82 3.365.385-.221 1.489-1.048 1.379-3.53.11-1.544 1.269-3.42 2.869-3.806 1.103-.166 2.579.124 2.261 1.655-.317 1.53-2.399 2.951-3.365 3.751-.966.8-.883 1.103-.883 1.103.883-.552 3.255-1.6 3.696-1.655.662-.772 3.034-2.924 6.344-3.144 1.545.11 4.744.827 5.075.993-.662.386-2.151 2.261-2.373 2.647.663.607 2.965 2.635 3.476 3.144.51.511 2.979 1.379 3.31 1.489-.386.387-6.303 1.573-8.55.222-2.248-1.352-4.013-4.193-7.723-3.476-3.71.718-4.799 1.655-5.186 1.985 0 .332.166.497.662.332.827-.221 4.027-1.214 6.013 1.324.607.882.938 1.158.938 1.158-.551.276-3.144 2.041-5.295-.166-.717-.882-1.324-1.599-2.096-1.544.441.662 1.6 2.316 2.151 2.647 1.158.332 6.62 1.711 7.116 3.972.441 1.766.606 2.759.441 3.421-.828.441-3.806 2.151-6.951-1.765-.938-1.379-1.434-2.207-1.599-4.799-.607-1.213-.883-1.93-1.986-2.868-.552-.166-1.379 0-1.379 0-.882.166-2.096.055-3.144 1.489-1.159 1.159-3.586 4.302-7.447 3.917-1.269-.386-3.475-1.766-2.593-3.862.662-1.214 1.6-2.303 2.648-2.979 1.048-.676 3.365-.993 6.343.11 1.6.275 3.972.552 3.972.552-.606-.552-2.317-2.814-6.51-3.31-1.985 0-3.861.166-6.399 1.875-1.269.718-1.765 1.103-4.248 1.103-1.491-.108-2.097-.108-2.814.057"/>
    <path id="path91-3-8" d="M178.5 288.67c-.157 1.884-.689 4.579.196 5.848-1.476-1.324-.82-2.062-1.13-4.544.021-2.42-3.124-5.109-3.331-8.957-.119-2.205 1.19-3.951 1.774-4.703.849-1.088 1.926-2.869.252-4.744-1.575-1.821-4.788-3.972-4.493-6.123.443-1.904 2.103-2.814 2.595-3.917.478-.799.061-2.229.061-2.229 1.92-.31 2.521.412 2.521.412.248.662.047 2.838-.908 3.638-.691.53-2.328 2.096-1.638 3.365.58.979 3.596 3.46 4.394 4.633.943 1.579.645 2.423.198 3.358-.446.935-.807 2.151-2.378 4.51-2.107 3.458 1.883 6.143 1.887 9.453"/>
  </g>
  <g id="Hypoxia-PolysomalMRNA" fill="#fff" stroke="#000" stroke-miterlimit="10" stroke-width=".707" transform="translate(-2.07 -13.7)">
    <path id="path95-2-2" d="M226.52 258.16s2.565-4.593 5.351-6.178c2.785-1.586 4.358-2.428 6.454-.938 1.765 1.103 6.454 4.247 6.454 4.247-.661-.717-2.344-2.055-3.089-2.648-.745-.592-.938-1.435-.551-3.641l.165-1.545c.828.718 3.917 3.2 4.082 4.192-.056.828.276 1.821.772 2.317.166-.882.387-1.213.387-1.213.496.937 2.041 1.931 1.82 3.365.386-.221 1.489-1.048 1.379-3.53.11-1.544 1.268-3.42 2.868-3.806 1.104-.166 2.579.124 2.261 1.655-.317 1.53-2.399 2.951-3.365 3.751-.966.8-.883 1.103-.883 1.103.883-.552 3.255-1.6 3.696-1.655.662-.772 3.034-2.924 6.344-3.144 1.545.11 4.744.827 5.075.993-.663.386-2.151 2.261-2.373 2.647.663.607 2.965 2.635 3.476 3.144.511.511 2.979 1.379 3.31 1.489-.386.387-6.302 1.573-8.55.222-2.248-1.352-4.013-4.193-7.723-3.476-3.709.718-4.799 1.655-5.186 1.985 0 .332.166.497.662.332.828-.221 4.027-1.214 6.013 1.324.607.882.938 1.158.938 1.158-.552.276-3.145 2.041-5.296-.166-.717-.882-1.324-1.599-2.096-1.544.441.662 1.6 2.316 2.151 2.647 1.158.332 6.619 1.711 7.116 3.972.441 1.766.607 2.759.441 3.421-.827.441-3.806 2.151-6.95-1.765-.938-1.379-1.434-2.207-1.6-4.799-.606-1.213-.883-1.93-1.985-2.868-.552-.166-1.38 0-1.38 0-.883.166-2.096.055-3.144 1.489-1.159 1.159-3.585 4.302-7.447 3.917-1.268-.386-3.475-1.766-2.592-3.862.662-1.214 1.6-2.303 2.647-2.979 1.048-.676 3.365-.993 6.344.11 1.6.275 3.972.552 3.972.552-.606-.552-2.317-2.814-6.509-3.31-1.986 0-3.862.166-6.399 1.875-1.269.718-1.765 1.103-4.248 1.103-1.488-.108-2.095-.108-2.812.057"/>
    <path id="path98-4-6" d="M250.17 288.67c-.157 1.884-.689 4.579.196 5.848-1.477-1.324-.82-2.062-1.13-4.544.021-2.42-3.123-5.109-3.331-8.957-.119-2.205 1.189-3.951 1.775-4.703.848-1.088 1.925-2.869.251-4.744-1.575-1.821-4.788-3.972-4.493-6.123.444-1.904 2.103-2.814 2.595-3.917.478-.799.062-2.229.062-2.229 1.919-.31 2.521.412 2.521.412.248.662.047 2.838-.909 3.638-.69.53-2.327 2.096-1.638 3.365.58.979 3.597 3.46 4.395 4.633.943 1.579.644 2.423.198 3.358s-.807 2.151-2.379 4.51c-2.106 3.458 1.884 6.143 1.887 9.453"/>
  </g>
  <g id="g2840" fill-rule="evenodd" transform="translate(-2.07 -13.7)">
    <path id="path2199" fill="#000" stroke="#000" stroke-miterlimit="10" stroke-width=".5" d="M517.93 129.43a29.555 29.555 0 0 1-29.555-29.394 29.555 29.555 0 0 1 29.233-29.714l.321 29.553z"/>
    <path id="circle2201" fill="#fff594" stroke="#000" stroke-miterlimit="10" stroke-width=".5" d="M517.93 70.318a29.555 29.555 0 0 1 29.555 29.555 29.555 29.555 0 0 1-29.555 29.555V99.873Z"/>
    <circle id="circle2203" cx="517.93" cy="99.873" r="21.012" fill="#fff"/>
  </g>
  <g id="g2856" fill-rule="evenodd" transform="translate(-2.07 -13.7)">
    <path id="path2199-3" fill="#000" stroke="#000" stroke-miterlimit="10" stroke-width=".5" d="M345.03 229.9a29.555 29.555 0 0 1-14.778 25.595 29.555 29.555 0 0 1-29.555 0l14.778-25.595Z"/>
    <path id="circle2201-4" fill="#fff594" stroke="#000" stroke-miterlimit="10" stroke-width=".5" d="M300.69 255.49a29.555 29.555 0 0 1-12.995-35.704 29.555 29.555 0 0 1 32.905-18.998 29.555 29.555 0 0 1 24.423 29.106h-29.555z"/>
    <circle id="circle2203-2" cx="315.47" cy="229.9" r="21.012" fill="#fff"/>
  </g>
  <g id="g2848" fill-rule="evenodd" transform="translate(-2.07 -13.7)">
    <path id="path2199-3-3" fill="#000" stroke="#000" stroke-miterlimit="10" stroke-width=".5" d="M625.54 229.28a29.555 29.555 0 0 1-14.778 25.595 29.555 29.555 0 0 1-29.555 0l14.778-25.595z"/>
    <path id="circle2201-4-8" fill="#fff594" stroke="#000" stroke-miterlimit="10" stroke-width=".5" d="M581.21 254.88a29.555 29.555 0 0 1-12.995-35.704 29.555 29.555 0 0 1 32.905-18.998 29.555 29.555 0 0 1 24.423 29.106h-29.555z"/>
    <circle id="circle2203-2-0" cx="595.98" cy="229.28" r="21.012" fill="#fff"/>
  </g>
  <g id="outlines" fill="none" stroke="#000" stroke-miterlimit="10" stroke-width="1.414" transform="translate(-2.07 -13.7)">
    <path id="path1585" d="M50 178.1h586.02"/>
    <path id="path2300" d="M364.62 178.13v117.23"/>
  </g>
  <g id="NonSelenate-Shoot" transform="translate(-2.07 -13.7)">
    <path id="path2314" fill="#fff" stroke="#000" stroke-miterlimit="10" stroke-width=".707" d="M508.72 204.06s2.565-4.593 5.351-6.178c2.785-1.586 4.358-2.428 6.454-.938 1.765 1.103 6.454 4.247 6.454 4.247-.661-.717-2.344-2.055-3.089-2.648-.745-.592-.938-1.435-.551-3.641l.165-1.545c.828.718 3.917 3.2 4.082 4.192-.056.828.276 1.821.772 2.317.166-.882.387-1.213.387-1.213.496.937 2.041 1.931 1.82 3.365.386-.221 1.489-1.048 1.379-3.53.11-1.544 1.268-3.42 2.868-3.806 1.104-.166 2.579.124 2.261 1.655-.317 1.53-2.399 2.951-3.365 3.751-.966.8-.883 1.103-.883 1.103.883-.552 3.255-1.6 3.696-1.655.662-.772 3.034-2.924 6.344-3.144 1.545.11 4.744.827 5.075.993-.663.386-2.151 2.261-2.373 2.647.663.607 2.965 2.635 3.476 3.144.511.511 2.979 1.379 3.31 1.489-.386.387-6.302 1.573-8.55.222-2.248-1.352-4.013-4.193-7.723-3.476-3.709.718-4.799 1.655-5.186 1.985 0 .332.166.497.662.332.828-.221 4.027-1.214 6.013 1.324.607.882.938 1.158.938 1.158-.552.276-3.145 2.041-5.296-.166-.717-.882-1.324-1.599-2.096-1.544.441.662 1.6 2.316 2.151 2.647 1.158.332 6.619 1.711 7.116 3.972.441 1.766.607 2.759.441 3.421-.827.441-3.806 2.151-6.95-1.765-.938-1.379-1.434-2.207-1.6-4.799-.606-1.213-.883-1.93-1.985-2.868-.552-.166-1.38 0-1.38 0-.883.166-2.096.055-3.144 1.489-1.159 1.159-3.585 4.302-7.447 3.917-1.268-.386-3.475-1.766-2.592-3.862.662-1.214 1.6-2.303 2.647-2.979 1.048-.676 3.365-.993 6.344.11 1.6.275 3.972.552 3.972.552-.606-.552-2.317-2.814-6.509-3.31-1.986 0-3.862.166-6.399 1.875-1.269.718-1.765 1.103-4.248 1.103-1.488-.108-2.095-.108-2.812.057"/>
  </g>
  <g id="NonSelenate-Root" transform="translate(-2.07 -13.7)">
    <path id="path2318" fill="#fff" stroke="#000" stroke-miterlimit="10" stroke-width=".707" d="M532.37 234.57c-.157 1.884-.689 4.579.196 5.848-1.477-1.324-.82-2.062-1.13-4.544.021-2.42-3.123-5.109-3.331-8.957-.119-2.205 1.189-3.951 1.775-4.703.848-1.088 1.925-2.869.251-4.744-1.575-1.821-4.788-3.972-4.493-6.123.444-1.904 2.103-2.814 2.595-3.917.478-.799.062-2.229.062-2.229 1.919-.31 2.521.412 2.521.412.248.662.047 2.838-.909 3.638-.69.53-2.327 2.096-1.638 3.365.58.979 3.597 3.46 4.395 4.633.943 1.579.644 2.423.198 3.358s-.807 2.151-2.379 4.51c-2.106 3.458 1.884 6.143 1.887 9.453"/>
  </g>
  <g id="Selenate-Shoot" transform="translate(-2.07 -13.7)">
    <path id="path2324" fill="#fff" stroke="#000" stroke-miterlimit="10" stroke-width=".707" d="M508.72 258.16s2.565-4.593 5.351-6.178c2.785-1.586 4.358-2.428 6.454-.938 1.765 1.103 6.454 4.247 6.454 4.247-.661-.717-2.344-2.055-3.089-2.648-.745-.592-.938-1.435-.551-3.641l.165-1.545c.828.718 3.917 3.2 4.082 4.192-.056.828.276 1.821.772 2.317.166-.882.387-1.213.387-1.213.496.937 2.041 1.931 1.82 3.365.386-.221 1.489-1.048 1.379-3.53.11-1.544 1.268-3.42 2.868-3.806 1.104-.166 2.579.124 2.261 1.655-.317 1.53-2.399 2.951-3.365 3.751-.966.8-.883 1.103-.883 1.103.883-.552 3.255-1.6 3.696-1.655.662-.772 3.034-2.924 6.344-3.144 1.545.11 4.744.827 5.075.993-.663.386-2.151 2.261-2.373 2.647.663.607 2.965 2.635 3.476 3.144.511.511 2.979 1.379 3.31 1.489-.386.387-6.302 1.573-8.55.222-2.248-1.352-4.013-4.193-7.723-3.476-3.709.718-4.799 1.655-5.186 1.985 0 .332.166.497.662.332.828-.221 4.027-1.214 6.013 1.324.607.882.938 1.158.938 1.158-.552.276-3.145 2.041-5.296-.166-.717-.882-1.324-1.599-2.096-1.544.441.662 1.6 2.316 2.151 2.647 1.158.332 6.619 1.711 7.116 3.972.441 1.766.607 2.759.441 3.421-.827.441-3.806 2.151-6.95-1.765-.938-1.379-1.434-2.207-1.6-4.799-.606-1.213-.883-1.93-1.985-2.868-.552-.166-1.38 0-1.38 0-.883.166-2.096.055-3.144 1.489-1.159 1.159-3.585 4.302-7.447 3.917-1.268-.386-3.475-1.766-2.592-3.862.662-1.214 1.6-2.303 2.647-2.979 1.048-.676 3.365-.993 6.344.11 1.6.275 3.972.552 3.972.552-.606-.552-2.317-2.814-6.509-3.31-1.986 0-3.862.166-6.399 1.875-1.269.718-1.765 1.103-4.248 1.103-1.488-.108-2.095-.108-2.812.057"/>
  </g>
  <g id="Selenate-Root" transform="translate(-2.07 -13.7)">
    <path id="path2328" fill="#fff" stroke="#000" stroke-miterlimit="10" stroke-width=".707" d="M532.37 288.67c-.157 1.884-.689 4.579.196 5.848-1.477-1.324-.82-2.062-1.13-4.544.021-2.42-3.123-5.109-3.331-8.957-.119-2.205 1.189-3.951 1.775-4.703.848-1.088 1.925-2.869.251-4.744-1.575-1.821-4.788-3.972-4.493-6.123.444-1.904 2.103-2.814 2.595-3.917.478-.799.062-2.229.062-2.229 1.919-.31 2.521.412 2.521.412.248.662.047 2.838-.909 3.638-.69.53-2.327 2.096-1.638 3.365.58.979 3.597 3.46 4.395 4.633.943 1.579.644 2.423.198 3.358s-.807 2.151-2.379 4.51c-2.106 3.458 1.884 6.143 1.887 9.453"/>
  </g>
  <g id="g1045" fill="#000" font-family="Helvetica" font-size="10.386" transform="translate(-2.07 -13.7)">
    <text id="text16" x="121.149" y="138.11"><tspan id="tspan1474" style="text-align:end" text-anchor="end">Water limited</tspan></text>
    <text id="text18" x="120.485" y="88.926"><tspan id="tspan1472" style="text-align:end" text-anchor="end">Well watered</tspan></text>
  </g>
  <g id="g1039" fill="#000" font-family="Helvetica" font-size="10.386" transform="translate(-2.07 -13.7)">
    <text id="text14" x="121.215" y="216.128"><tspan id="tspan1476" style="text-align:end" text-anchor="end">Non-stressed</tspan></text>
    <text id="text2296" x="121.215" y="269.161"><tspan id="tspan2294" style="text-align:end" text-anchor="end">Hypoxia stress</tspan></text>
  </g>
  <g id="g2902" fill="#000" font-family="Helvetica" font-size="10.386" transform="translate(-2.07 -13.7)">
    <text id="text2304" x="474.605" y="216.128"><tspan id="tspan2302" style="text-align:end" text-anchor="end">Non-selenate treated</tspan></text>
    <text id="text2310" x="474.605" y="269.161"><tspan id="tspan2308" style="text-align:end" text-anchor="end">Selenate treated</tspan></text>
  </g>
  <g id="g2926" fill="#000" font-family="Arial" font-size="8" letter-spacing="0" text-anchor="middle" transform="translate(-2.07 -13.7)" word-spacing="0">
    <text xml:space="preserve" id="text2260" x="517.29" y="65.891" style="line-height:1.25;text-align:center">             <tspan id="tspan2258" x="527.29" y="65.891" fill="#000">Predawn</tspan>        </text>
    <text xml:space="preserve" id="text2264" x="517.29" y="138.699" style="line-height:1.25;text-align:center">             <tspan id="tspan2262" x="527.29" y="138.699" fill="#000">Late day</tspan>        </text>
    <text xml:space="preserve" id="text2272" x="549.456" y="104.092" style="line-height:1.25;text-align:center">             <tspan id="tspan2270" x="559.456" y="104.092" fill="#000" style="text-align:start" text-anchor="start">Midday</tspan>        </text>
    <text xml:space="preserve" id="text2276" x="486.077" y="101.845" style="line-height:1.25;text-align:center">             <tspan id="tspan2274" x="496.077" y="101.845" fill="#000" style="text-align:end" text-anchor="end">Midnight</tspan>        </text>
  </g>
  <g id="g2896" fill="#000" font-family="Arial" font-size="8" letter-spacing="0" text-anchor="middle" transform="translate(-2.07 -13.7)" word-spacing="0">
    <text xml:space="preserve" id="text2280" x="391.722" y="55.727" style="line-height:1.25;text-align:center">             <tspan id="tspan2278" x="401.722" y="55.727" fill="#000" style="text-align:center" text-anchor="middle">Midnight</tspan>        </text>
    <text xml:space="preserve" id="text2284" x="320.263" y="55.727" style="line-height:1.25;text-align:center">             <tspan id="tspan2282" x="330.263" y="55.727" fill="#000" style="text-align:center" text-anchor="middle">Late day</tspan>        </text>
    <text xml:space="preserve" id="text2288" x="247.005" y="55.727" style="line-height:1.25;text-align:center">             <tspan id="tspan2286" x="257.005" y="55.727" fill="#000" style="text-align:center" text-anchor="middle">Midday</tspan>        </text>
    <text xml:space="preserve" id="text2292" x="175.545" y="55.727" style="line-height:1.25;text-align:center">             <tspan id="tspan2290" x="185.545" y="55.727" fill="#000" style="text-align:center" text-anchor="middle">Predawn</tspan>        </text>
  </g>
  <g id="g2870" fill="#000" font-family="Arial" font-size="8" letter-spacing="0" text-anchor="middle" transform="translate(-2.07 -13.7)" word-spacing="0">
    <text xml:space="preserve" id="text2860" x="176.177" y="308.392" style="line-height:1.25;text-align:center">             <tspan id="tspan2858" x="186.177" y="308.392">Total RNA</tspan>        </text>
    <text xml:space="preserve" id="text2864" x="246.289" y="308.392" style="line-height:1.25;text-align:center">             <tspan id="tspan2862" x="256.289" y="308.392">Polysomal mRNA</tspan>        </text>
  </g>
  <g id="g1027" transform="translate(-2.07 -13.7)">
    <circle id="circle2306" cx="485.28" cy="212.92" r="5.956" fill="#999"/>
    <circle id="circle2312" cx="485.28" cy="265.95" r="5.956" fill="#fb77ce"/>
    <circle id="condition_Cold" cx="131.89" cy="85.84" r="5.956" fill="#3fa9f5"/>
    <circle id="condition_Osmotic" cx="131.89" cy="134.95" r="5.956" fill="#f69921"/>
    <circle id="condition_Salt" cx="131.89" cy="212.92" r="5.956" fill="#0ff"/>
    <circle id="circle2298" cx="131.89" cy="265.95" r="5.956" fill="#26e45c"/>
  </g>
</svg>