<svg id="AtGenExpress_svg" xmlns="http://www.w3.org/2000/svg" viewBox="0 0 800 620"><path fill="none" stroke="#000000" stroke-width=".5" stroke-miterlimit="10" d="M675.5 313.625l.375-.5 2.25.25s6.75 8 9.75 23.375c1 7.125 1.75 16.25 1.125 20.5-1.625 2.75-12 20.125-10.5 33.375-2.875.5-3.625.625-3.625.625 1-2.875 3.875-7.625-3.875-20.125-2.625-5-6.75-14.875-4.875-30.5 1.25-9 6.625-22.875 9.375-27z" id="Rosette_Leaf_12"/><path fill="none" stroke="#000000" stroke-width=".5" stroke-miterlimit="10" d="M636.25 308.625s.375-1.625 3.5-1.5c3 .375 6.625 1.625 8.125 6.75 1.125 3.5 2.125 6.125 2.625 7.25.625 1.375 1 3.75 1.5 4.875.75 2.75 2.125 5.5 2 13.875 0 5.125.546 13.91-2.597 24.518-1.278 4.982-2.901 9.176-4.528 12.232-1 1.75-1.625 4.375-1.25 7.125.375 3.5 1.375 12.125 1.375 12.125-1.75-.125-3.75-.5-3.75-.5-.875-2.5-2.75-12.625-2.75-14-.25-2.5 0-4.875-1.375-6.25-2.75-3.25-12.5-17.625-13-29.25-.25-5.25.125-8.875.875-11.5.375-3.625 1.875-17.625 9.25-25.75z" id="Rosette_Leaf_10"/><path fill="none" stroke="#000000" stroke-width=".5" stroke-miterlimit="10" d="M613.75 313.875c1.125-17.625-3.75-28.5-5.5-31.75-2-7.625-10-10.375-13.625-12.125-3-1.875-5.875.5-5.875.5s-11.25 16.875-13 26.75c-.75 5.125-1.125 7.75 2.375 23.75 1.375 6 4.375 18.375 5.5 23.5.375 2.625.5 2.875 2.25 5.625 2.25 3.375 10.125 13.75 11.25 15.875.5 3.5 3.375 22.625 3.625 29.75 1.25.375 3.75.25 3.75.25-.375-4.625-2.75-26.375-1-34.625 2.375-10.875 7.625-26.625 8.75-34.25 1.25-6.25 1.5-13.25 1.5-13.25z" id="Rosette_Leaf_8"/><path fill="none" stroke="#000000" stroke-width=".5" stroke-miterlimit="10" d="M487.875 275.625s2.75-6.5 7.75-.125c1.625 2.125 11.875 11.125 15.75 28.25 1.125 8.375 2.5 16.75.375 28.75-1.5 4.875-1.875 7.625-9.5 23.25-.875 1.875-1.875 4.625-1.75 7.625-.25 4.25-1.125 18.125-.125 35.5-2-.5-3.875-1.75-3.875-1.75-.625-7.625-2.125-26-3.625-30.125-3.5-6.25-17.625-37.625-19-46.625-.875-6.375-2.25-11.625 6.375-31 2.625-5.75 7.625-13.75 7.625-13.75z" id="Rosette_Leaf_6"/><path fill="none" stroke="#000000" stroke-width=".5" stroke-miterlimit="10" d="M542.25 257.875c-4.125-3.125-6.875 3.125-9.5 6.875-7.875 10.625-8.125 18-9 24.5-.875 5.875-.125 22.875-.125 22.875.004.079.014.168.021.252.614-.059 1.229-.129 1.859-.201 1.188-.136 2.567-.346 3.693-.64 2.636-.688 5.322-1.246 7.964-1.995 2.729-.775 5.533-.991 8.334-1.378 2.839-.392 5.738.345 8.5.337 1.26-.004 2.432.3 3.666.333 1.256.035 2.438.051 3.667.204 1.292.161 2.549.332 3.874.454.208.019.418.057.627.101-.512-8.744-3.334-27.092-3.334-27.092-3.746-11.375-16.371-21.125-20.246-24.625z" id="Leaf_7_Distal_Half"/><path fill="none" stroke="#000000" stroke-width=".5" stroke-miterlimit="10" d="M440.5 324.375s5.75-3.5 9.75.125c4.25 3 12.625 7.875 14.75 18.75.625 7.375 2.125 15.25-12.75 26.125-.25 1.625.25 15.75 2.75 22.875-1.625-.25-3.75-.625-3.75-.625-1.375-4.625-4.625-20.875-4.625-20.875-5.25-3.5-18.125-12.625-16.5-25.5.75-4.5 3.125-14.25 10.375-20.875z" id="Rosette_Leaf_4"/><path fill="none" stroke="#000000" stroke-width=".5" stroke-miterlimit="10" d="M397.75 357.25s-.25-3.875 4.125-5.5c3.75-1 14 .375 17.75 8 1.5 3.5 3.25 10.75-2.375 15.875C414.625 377.5 411 380 411 380c.75 4.25 2.375 12.5 2.375 12.875-1.25-.625-4.375-1.75-4.375-1.75-1.125-5.75-2.25-11.25-2.25-11.25-4-3.5-9.875-8.25-9.5-14.375-.125-4.25.5-8.25.5-8.25z" id="Rosette_Leaf_2"/><path fill="none" stroke="#000000" stroke-width=".5" stroke-miterlimit="10" d="M374.625 355.875s6.875-1.625 10 1.75c3.125 3.25 7 6.25 4.75 11.5-3.375 5.625-8.625 13.25-8.5 13.625.25 2.5 1.875 11.625 1.875 11.625-1.5 0-3.375.125-3.375.125-1-4.625-2.75-11.75-2.75-11.75-2.75-3-11.75-12-10.125-17.125 1.375-3.5 3.375-7.25 8.125-9.75z" id="Leaf_1_2"/><path fill="none" stroke="#000000" stroke-width=".5" stroke-miterlimit="10" d="M545.333 362.667c-.275-.008-.543-.038-.808-.077.513 2.479.416 4.542.35 7.285 0 5.75 1.375 24.375 2.25 30.25 0 0 3.75 0 5.875.125 0 0-1.625-16.875-2.125-23-.562-7.48.347-12.372.84-14.361-1.136-.086-2.289-.119-3.382-.221-.987-.092-2.009.025-3-.001z" id="Leaf_7_Petiole"/><path fill="none" stroke="#000000" stroke-width=".5" stroke-miterlimit="10" d="M561.333 309.037c-1.227-.152-2.411-.169-3.667-.204-1.234-.034-2.406-.337-3.666-.333-2.762.008-5.661-.729-8.5-.337-2.801.387-5.604.603-8.334 1.378-2.641.75-5.328 1.309-7.964 1.995-1.126.294-2.507.504-3.693.64-.631.072-1.245.145-1.859.201.218 2.578 1.889 7.486 2.979 10.998 1.875 8.375 11.25 25.875 14.75 31.125 1.801 3.484 2.705 5.941 3.15 8.09.265.039.53.069.808.077.991.026 2.013-.091 3 .001 1.093.102 2.246.135 3.382.22.166-.67.285-1.013.285-1.013 2-6.125 8-18.25 10.375-25.875 3.125-10.625 3.5-21.75 3.5-25.625-.012-.251-.024-.513-.041-.783-.209-.044-.419-.082-.627-.101-1.329-.122-2.586-.293-3.878-.454z" id="Leaf_7_Proximal_Half"/><path fill="none" stroke="#000000" stroke-width=".5" stroke-miterlimit="10" d="M746.625 317.25s3.125 4.375 6 5.875c1.75 1.25 3 2.875 2.625 6.875-.125 1.375.25 2.375 1.25 3.5 1.875 1.625 6.125 3.75 6 7.125-.125 2.5 0 6.123.875 7.875.375 2.25 1 5.5-.125 8.125-1.375 2.5-2.25 4.625-1.625 5.75.75 1.25 1.875 2.625.125 5.625-1.375 2.125-1.625 3.375-1.375 5s1.246 3.834-1.314 5.542c-2.561 1.833-5.311 3.833-5.186 5.208-.25 2.25-.25 7.5-.25 7.5-.75.25-4.125-1-4.125-1 0-2.25.375-5.75-1-6.625-1.25-1.125-2.25-3.375-3.5-3.375-1.25-1.375-3.25-3-3.25-8.125-.125-4.75-.055-6.49-2.652-8.745-1.598-1.505-2.598-2.505-1.973-5.63.125-2.625 1.625-7.5 1.375-9.375-.625-2-2.5-5.375-1.375-9s2.125-7.875 2.625-8.375c1.25-1.75 4-3.75 3.75-7 0-1.875 1.125-3.875 1.75-4.375.75-.875 1.375-2.375 1.375-2.375z" id="Senescing_Leaf"/><g id="Seeds_Stage_4_w_Siliques"><path fill="none" stroke="#000000" stroke-width=".5" stroke-miterlimit="10" d="M439.667 68s2.167-8.333 4.167-2c-.167 3-.501 5.333 1.666 8.5 1.167 3.667 1.833 8.833 1 15.333-.333 4.667-.166 9.333-.333 11.5-.667 2.833.333 7.833 0 8.5-1.333 1.333-2.5 3.333-3 4-1.167.833-3.499 4.166-4.666-3.5-.334-4.333.165-14.667.999-19.667-.166-6.333.167-9.666-.333-18.333.167-2.666.5-4.333.5-4.333zM431.167 187.667s.501-3.667 4.167-6.667c3.333-3.333 6.666-9.333 14.833-6 4.667 2.167 9.999 7 11.333 12.167.5 3.333 1.667 9.167.667 14.667-1.167 4.5-2.334 9.667-5.667 12.167-2.666 2.667-6.666 7.5-14.333 4.167-3.167-2-5.833-3-8.833-10C432.5 206.333 430.5 201 430.5 198c0-3.833.667-10.333.667-10.333zM144.5 65s-1.5-2.75 3-6.875c4-3.625 8.75-8.25 13.125-10.25 4.25-2.125 4.75-2.5 4.75-2.5-1.875 2.625-5.375 7.875-8.125 10-3.25 1.875-7.5 4.5-8 5-1.125 1.25-3.375 5-4.75 4.625z"/></g><g id="Seeds_Stage_5_w_Siliques"><path fill="none" stroke="#000000" stroke-width=".5" stroke-miterlimit="10" d="M479.334 58.167s-1.333-8.667 3.5-2c1.666 3.167 4.167 5.833 5.5 15.667.833 6 1.5 11.333 1.833 12.667 0 3.167-.501 9.5-.167 11.5.5 3.167 2 10.167 1.167 14.333l-2 8c-2.333-1.167-4.167 1.167-4-9.333 0-7.833-1.833-21.167-1.833-21.167-.834-5.667-1.166-12.667-2.5-16.167-1.167-6.334-1.5-13.5-1.5-13.5zM477.667 178s7.501-8.167 15.167-3c2.833 2.833 4.333 4 8.833 17 .5 2.833 1.333 7.834.833 15.667-.5 3.5-2.5 9.166-7.5 10.833-4 1.833-8.166 3.667-8.166 3.667-1.667 0-3.667.5-4.667-2.833-1.833-1.5-6-7.5-7.5-11.333-1.667-2.667-3.833-6-3.5-10.667.333-5.501.333-12.501 6.5-19.334zM116.625 74.375s-6-12.75-8.5-20.875c-1.5-5.875-2.125-11.5.75-11.625 1.375.625 3.75 3.25 3.875 7.875.625 5.125 2.125 10.875 3.375 14.25.25 4 2.375 9.5.5 10.375z"/></g><g id="Seeds_Stage_3_w_Siliques"><path fill="none" stroke="#000000" stroke-width=".5" stroke-miterlimit="10" d="M400.5 89s-1.5-4.333 2.5-4.667c2 .333 5.667 2.167 2.667 5.5-.333.667-.5 3.5.5 8.333.833 4.667 3.166 10.834 1.833 13.667-1.333 2.667-3.666 6.333-6.333 1.167-1.333-2.833-2.167-6.833-.667-22.5-.167-.5-.5-1.5-.5-1.5zM396.5 178.5s7.5-6.333 13.667-2.167c4.833 3.667 7.333 6.5 9.5 10 1.333 3.5 2.667 10.167-1 18.333-2.833 5.833-6.166 12.5-9.833 14.333-2.834.833-4.5.833-4.5.833-.667.5-2 2.667-3.5-.167-1.167-1-6.5-1.167-11-10.333-2-5.167-3.167-13.833-1.5-18.333C390 186.667 391 181.333 396.5 178.5z"/></g><path fill="none" stroke="#000000" stroke-width=".5" stroke-miterlimit="10" d="M525.167 179s8.5-7.5 12.5-8c4.5.333 12.834 3.333 15.834 13.5.666 4.667 1.333 14.167-.167 20-2 5.333-4.834 12.667-9.667 14.833-5.5 1.5-15.334 5.667-23.5-15.5-1.166-3.667-1.334-5.667.5-12.333 0-2.5 1.5-5.833 1.5-5.833-.333-2.167.5-3.334 3-6.667z" id="Seeds_Stage_6_wo_Siliques"/><path fill="none" stroke="#000000" stroke-width=".5" stroke-miterlimit="10" d="M584.834 172.833s2.334-1.5 4.667-.667c2.666.167 7.166-1 8.666 3 1.167 2.167 3.167 4.167 3.667 7 .833 2.833 2.501 6.5 2.167 11.667-.334 4.167-2 11-3.667 14.5-.833 2.667-3.667 9.333-14.667 12-1.666-.5-6.666-3.333-10.166-11.667-1.167-4.333-3.501-9-3.334-13.333-.333-4.833.333-7.667 3-12.167 3.167-4.666 6.167-7.999 9.667-10.333z" id="Seeds_Stage_7_wo_Siliques"/><path fill="none" stroke="#000000" stroke-width=".5" stroke-miterlimit="10" d="M616.834 188.833s3.501-6.833 11.667-10c2.333-.5 4.5-1.667 8.833 1.5 3.333 2 8.833 6 10 11.833 1.167 2.833 4.167 8.833-.333 14.333-3 4.333-6.834 7.167-7.167 8.5-1.5 2.5-5.999 9.167-10.833 9-3.167.333-6.665 2.833-8.666-4.5-1.501-5.833-3.334-10.167-5.334-13.333-.5-1.999-1.167-11.166 1.833-17.333z" id="Seeds_Stage_8_wo_Siliques"/><path fill="none" stroke="#000000" stroke-width=".5" stroke-miterlimit="10" d="M679.334 170.333s3.667-3 9.167-1.5c5.166.833 14.666 4.5 16.666 13 .834 5.167.167 17.333-.333 20.5-1 2.667-2.167 7.167-2.167 8.833-1 2.833-4.001 11.667-14.167 14-3.999.833-8.165 1.666-10.999-4.167-2.167-1.667-3.667-5-4.167-7-1.833-4.167-6.167-9.833-5.5-22.333 0-3.667 1.501-6.666 3.667-11.833 1.666-3.166 3.5-5.333 7.833-9.5z" id="Seeds_Stage_9_wo_Siliques"/><path fill="none" stroke="#000000" stroke-width=".5" stroke-miterlimit="10" d="M732.834 174.5s4.833-5 7.5-5.167c4.5.333 10.834 0 15.167 5.833 3.833 3.833 6.667 7 8.5 15.5 1.333 5.5 5.666 19.5-5.667 30.333-4.167 3.833-10.334 7.5-15.667 5.167-2.166-.833-10 .5-11.833-8.167-3.667-8.167-8.999-20.333-5.833-30.833 1.833-5.333 4.666-9.166 7.833-12.666z" id="Seeds_Stage_10_wo_Siliques"/><g id="Mature_Pollen"><path fill="none" stroke="#000000" stroke-width=".5" stroke-miterlimit="10" d="M738.833 479s2.667-11.5 9.5-12.5c5.5-.667 11.666-3.5 18.333 13 2.834 5.666 6.668 22.332-1.166 29.666-4.667 3.334-22.668 11.334-26.834-6.666-.666-6.334-2.333-21.666.167-23.5zM751 474.333c.273.284.489.611.666 1M753.334 471.667c.273.284.489.611.666 1M752.834 479c.273.284.489.611.666 1M750.167 481.833c.273.284.489.611.666 1M754.167 475.833c.273.284.489.611.666 1M747.333 474.833c.118.538.406 1.035.667 1.5M749.5 478.167c.135.262.19.539.166.833M742.833 479.333c.104.21.162.435.167.667M741.5 484.167c.104.21.161.435.166.666M741.833 489.667V490M741.166 494c.221-.273.192.061.167.333M741.666 498.167v.333M740.833 502.167l-.167-.167M740.166 495H740M740 491.833c.013-.124-.043-.18-.167-.166M740 486.167V486M741.166 480.167v.166M743 476v-.167M744.5 474c.023.479-.09.921-.334 1.333M744 478.333c.085.259.043.45-.167.5M744.166 480.667v-.834M745.333 473.333h-.167M746.833 470.5H747M748.666 471.333c.027.512-.114 1.035-.333 1.5M749.5 473.833V474M752.833 468c.014.125-.042.181-.167.167M751.666 468.167c-.51.188-1.017.44-1.5.666M749.5 468c-.024.43.029.8.166 1.167M751.5 471c.1.153.155.32.166.5M752.666 470.667v.833M748.5 484.833c.182.413.446 1.089.5 1.667M749.5 485.5c-.083-.189-.198-.358-.334-.5M748.333 482.167c-.179.295-.233.636-.167 1M748.333 485.5c-.049.478-.224.944-.5 1.333M746.833 488.667c-.247.516-.412 1.122 0 1.5M748.5 492.333c.074.23.183.318.333.167M750.5 486.833c-.059.187-.01.308.166.334M754.833 483.667c.167-.165.278-.165.333 0M757.833 482.333c.17.421.226.872.167 1.334M758.333 485.833c-.037.315-.083.546-.167.834"/><path fill="none" stroke="#000000" stroke-width=".5" stroke-miterlimit="10" d="M755.833 485.333c-.157-.023-.323-.013-.475.025-.032.187-.073.448-.025.642M754.5 486.167c-.188.593-.196 1.209-.167 1.833M754.333 490c.061.282-.049.467-.333.5M750.833 489.167c-.112.168-.222.331-.333.5M749.166 490.667c.262.278.531.749.667 1.166M752.333 494.333c.433.379.457.931.667 1.5M752.833 497.333c.059.187.01.309-.167.334M749.166 494.167c.059.186.01.308-.166.333M748 494.167c-.03.04-.27.8-.5 1.166M746.333 498.5c.019.346.074.674.167 1M747.833 501.167c.085.111.196.167.333.166M748.833 497.833v-.5M750.833 496.667c.166.059.328.126.486.203.116.284-.016.329-.153.463M746.833 492c-.025-.177-.146-.226-.333-.167M750.333 498.167c.083.188.198.358.333.5M751.166 500.167c.393.548.874 1.016 1.334 1.5M751.833 502.167c-.384-.086-.704-.245-1-.5M749.833 501.333v1M749.5 505v.667M747.166 503.833c.104.439.28.911.5 1.334M749.333 508.333c.332.118.664.229 1 .334M752.5 510.167c-.056-.169-.11-.332-.167-.5M752 505h.166M754.666 504.333c.29.202.61.394.834.5M757.666 506c.07.23.037.424-.166.5M754.833 506.667c-.187.189-.15.506 0 .833M755 510.5c.581.067 1.201.051 1.666-.333M759.5 509.333c.138-.132.269-.406.333-.666M761.833 504.5c.32-.229.292-.451 0-.667M762 499.333c.073.088-.104.22-.334.334M760.833 500.333c-.109.444-.164.879-.167 1.334M759.166 503.833c-.499.009-.829-.31-1-.833M757 501.333c-.223.193-.442.198-.667 0M756 498.333v-.5M757.166 495.333v.5M758.333 497.667c-.251.408-.28.706.167.666M760.333 497.833c-.007-.413-.121-.806-.333-1.166M762 492.167c-.195.042-.367-.016-.5-.167M762 490v2.333M761.833 496c.024.348.13.451.333.167M762.333 493.833c-.195.041-.367-.016-.5-.166M759.166 492c-.067.371-.217.651-.5.833M756.666 493.5c-.392-.07-.678-.301-.833-.667M752.833 490.667c-.185-.149-.29-.062-.333.166M753 493.167c.146.118.307.175.5.166M757.5 491.667c-.292-.189-.452-.48-.5-.834M757.5 489.5c.124-.013.18.043.166.167M759 489.833c-.142.444-.108.818.333.834M760.833 489.5v-.333M761.5 486.833c-.186.173-.416.227-.667.167M760.333 484.833c-.114-.286-.219-.547-.333-.833M757.166 480.5c-.275.058-.391-.058-.333-.333M756.333 477.167c-.287.168-.444.465-.5.833M755.5 480.5c-.062.275-.118.554-.167.833M754 482.833c-.067.249-.243.368-.5.334M751.833 483.667c-.248.636-.165 1.319-.167 2M751.5 487.333c.203-.076.236-.269.166-.5M757.833 474.667H758M756.833 473.333c-.24.173-.528.227-.833.167M755.666 471.667c.021-.294-.035-.57-.166-.834M757.666 470.167V471M758.833 472.5c-.021.262.093.442.333.5M757.333 469h.333M755.833 468.167c-.037.177-.157.296-.333.333M754.666 468.667V469M745.5 470.167c-.151.193-.207.411-.167.666M741.166 477.833c-.157-.2-.331.042-.5.334M740 480c-.258.279-.347.564-.167.833M743.5 481.833c.176.026.225.147.166.334M743 484.833c-.284.385-.509.831-.667 1.334M740.833 490.5c.035.465.087.881.167 1.333M741.666 503.167v1.166M742 506.5c.096.338.279.702.5 1M743.333 509c.434.417.934 1.021 1 1.667M744.833 510.833c.452.274.748.6 1.167 1M761.333 475.667v.833M762.833 478.833c-.111-.11-.223-.222-.333-.333M761.333 473c.039-.135-.06-.08-.167 0M760.666 470.833v.5M764.5 481.333c.209.051.251.242.166.5M766.333 483.167c.264.564.405 1.206.333 1.833M765.666 485.667c-.172-.186-.225-.416-.166-.667M764.333 479c-.195.209-.25.619-.167 1M763.666 480.833c.172.581.597 1.06.834 1.667M766.666 487.333c.146.575.291 1.073.334 1.667M766.833 491.167c-.037.641-.228 1.18-.167 1.833M767 494.833c.086.026.146-.2.166-.5M768.833 488.833c-.436-.048-.364.78-.167 1.334M768 494.833c.074.466.018.943-.167 1.334M767.166 498.667v.833M766.666 501.5c.05.515-.005 1.013-.166 1.5M765.5 505.333V506M765.333 507.167c.036.956-.747 2.01-1.167 2.833"/></g><g id="Flower_Stage_15_Petals"><path fill="none" stroke="#000000" stroke-width=".5" stroke-miterlimit="10" d="M636.5 482.333s-3.166-7.666 4.5-17.333c4.166-2.834 12-8.834 13-9.167 2.666-.333 9-1.666 7.833 1.167-1.667 1.833-3 4.666-9 6.666-3.667 2.834-9 7.666-11.5 12.5-2.333 4.834-3.666 9-4.833 6.167zM700.166 510s0-7.167 2.5-1.667c.334 3.333 1.668 10.334-7.166 20.167-2.667 2.666-13.501 10.666-16.834 6.666.5-1.833 7-5.333 14-13.833 5-5.833 7.5-8.999 7.5-11.333zM637.667 512.667s.5-6.001 3 .166c1.833 4.5 2.334 9 14 16.167 5.333 3 9.5 5.501 6.833 6.667-3.333.166-17.501-.334-21.167-12.167-1.833-5.5-2.666-8.499-2.666-10.833zM679.166 456.833s-1.666-3.499 3.167-3.333c3.833.5 10.999 1.999 16.333 10.666 1 3.334 3.333 9.833 2.5 14-1 1.667-2.5 4.001-4-2.166-2-4.834-4.667-9.5-13.5-15-3-2-4.5-4.167-4.5-4.167z"/></g><g id="Flower_Stage_15_Stamen"><path fill="none" stroke="#000000" stroke-width=".5" stroke-miterlimit="10" d="M662.666 475.166s-2.667 4.833-5-.5c-1.166-2.5-.833-5.999 5.167-7.166 1.667.166 4.499 0 4.833 6.833 0 1.833-1.667 4.666-5 .833zM674 514.666s2.5-3 4.5 2c.333 2.167-4 10.334-9.667 4.167-.5-2.167 0-10 4-6.5.833 1 1.167.333 1.167.333zM659.5 515.833s2.333-3.666 4.333 1.167c.667 2.166.834 8.666-6.333 6.166-1.834-1.166-4.167-1.834-2.167-7 .833-1.333 2.334-3.5 4.167-.333zM696.666 494s-3.667-4 1.5-6.167c2.334-.333 8 .167 7.667 6.167-.167 2.666-2.666 8.5-7.833 4.833-1.5-1.333-3.334-2.333-1.334-4.833zM642.833 494.5s5.001-2.666-1.166-5.333c-3.167-.334-8.334-.5-9.167 6 .167 2.833.667 6.5 4.167 7 3.166.5 8.5.666 7.333-4.167-.833-1.667-2.001-3.333-1.167-3.5zM673.333 475.5s-2-5.667 3-8.167c2.333-.333 7.667 1.001 7.5 7.167-1 2.166-3.333 3.666-6 .666-1.5 1.834-3.333 2.501-4.5.334z"/></g><g id="Flower_Stage_15_Sepals"><path fill="none" stroke="#000000" stroke-width=".5" stroke-miterlimit="10" d="M629.833 453.5s1.167-4.667 9.667-7.667c9.666-4.5 21.666-7.999 35.166-8.333 6.667.666 15.668 3.999 24.334 8.666 6.833 2.5 14.166 5.5 9.666 8.5-3.5-.166-8.166-3.666-8.166-3.666l-11.167-4.334-12-3.166-12.167.166L653 445.833l-8.834 3.333-6.666 4.334-5.834 2.333S628.5 457 629.833 453.5zM703.5 462.333s-2.834-4.334 2.833-2.167c3.667 2.834 12.166 10.334 14.5 30.667-.333 6.833-.667 35.001-18 36.667 0-1.667 4-6.833 7.667-13 3-8.5 6.166-12.334 1.833-35.334-2.166-5-6.5-13.5-8.833-16.833zM631.167 537.333s-5-5.5 2.833-4.5c3.333 1.667 12.332 8.333 19.166 10 6.167 1.667 24.501 4.333 34.834-2.167 5.5-3.166 15.5-8.167 20.5-9 1.333 0 2.501-.166 1.167 2.834-1.5 2.5-14.166 11.5-29.5 15.333-12 1.667-26.667 3.333-38.667-3.5-4.5-3.167-10.333-9-10.333-9zM626.333 465.833s5.833-6.832 7.5-5.666c.167 1.166-2.834 8.334-5 13-1.666 4.5-5.832 16.667-2.166 32 1.666 5.833 5 16.666 6.333 19.166.667 1.334.167 5.834-5.333-.833-3.834-4.5-8.333-11.166-9-31.833-.167-8-1.001-12.668 7.666-25.834z"/></g><path fill="none" stroke="#000000" stroke-width=".5" stroke-miterlimit="10" d="M655 494.5s-2-1.666 2.833-5c4-3 5-3.833 10.5-3 4.667-.167 12.834.999 14.167 9.666-.5 2.5-2.334 9.666-14.334 7.5-5.5-.333-12.666-1.166-13.166-9.166z" id="Flower_Stage_15_Carpels"/><path fill="none" stroke="#000000" stroke-width=".5" stroke-miterlimit="10" d="M545.333 525.5s-.5 8.833.167 11.833c1.167 5.167 3.167 15 3.167 15 2-.666 13-3.166 13-3.166.5-3.167 1.666-16.001.833-19.334-2.333 2-5.833 4.833-7 4.5-2-1.5-5.499-2.499-6.833-7.666-1-.167-2.168-.667-3.334-1.167z" id="Flowers_Stage_15_Pedicels"/><path fill="none" stroke="#000000" stroke-width=".5" stroke-miterlimit="10" d="M545.333 525.5s-6-.999-6.833-2.333c-2.333-1.834-6.666-5.5-7.333-7.5-2.5-2-10.667-8.666-11.167-12.5-.667-3.834-3.001-11.5-3.167-14 .167-2.834 2.5-7.833 3-8.5 1-.667 2.834.166 4.167 2.833 1.5 3.167 4.834 12.667 5.667 15.167 1.666 3.833 8.167 12.168 10 14.167.166-5.167-.167-14.668-.667-18.001 0-4.333.333-9 .333-9-1.666-1.666-10.168-5.666-14.167-7.833-2.833-2.167-3.833-.334-5.833-8.167-.666-2 0-2.666 1.667-2.333 3.167.833 5.833 2.833 5.833 2.333-.166-3.166-.166-5.5-4.333-7.833-4.5-2.167-6.501-4.334-7.834-5.667-3.166-.666-7.167-4.666-9-7.166-2.666-2.667-3-4.834-3.833-7.334-2.333-3.166-5.5-7.5-3-8.333 2.5.333 4.167.334 9-.833 2.5.333 5.501 2.167 9.167 5 4.333 2.666 12.666 5.333 15.166 9.333 2.834 3.5 5.667 8.167 5.667 8.167.5-3.5 1.167-9.334 1.167-9.334-1.334-1.5-2.5-3.833.5-3.333 3.5.167 8.166-.333 8.166-.333-.833-2-.167-5 4.5-5.5 2.834.333 10 2 10 2 1.167-1.5-.667 4.333-1.5 5.166.834 2.167 1.667 13.667 1.667 13.667 1.667-3.5 2.501-8.668 2.667-15.334-1.5-1.5-3.834-3.166-.834-6.166 2.167-2 5.834-3.834 6.167-.167 0 2.333-.167 3.334 5.5-2.833 4.333-3.167 6.667-4.833 11.5-5 5.5.166 13-.666 14-.5 1.667.833 4.667 1.833 3 7.333-1.5 4.333-4.834 11.5-6.667 14.5 1.667 0 6.168-1.334 7.834-3.667 1.833-2.166 3.334-3.832 8-3.666 3.833-.667 5.332-1.333 6.666 2 .834 3.333.167 8.666-6.166 12.333-5.333 2.333-15.667 7.167-21.5 12.667-5.5 5.166-17.001 14.333-15.667 23.333 2.5-1.833 9.334-8.167 11.667-11.5 3.167-4 5.334-8.001 6.167-9.167 1.166.834 3.666 7.667 2.333 13.667-2 5.5-2 9.834-12 22.167-1.667 2.833-3.167 6.666-6.167 8.666-2.5 2-5.833 4-5.833 4-2.167 2.334-8.833 7.334-10.5 9.667-2.167 1.667-7 4.5-7 4.5-2.167-1.333-5.499-3.499-6.833-7.666-1.167-.001-3.168-2.167-3.334-1.167z" id="Flower_Stage_15"/><g id="Flower_Stage_12_Sepals"><path fill="none" stroke="#000000" stroke-width=".5" stroke-miterlimit="10" d="M427.167 468.333s13.666-22.334 35.666-21.167c11 1.834 20 3.668 33.667 17.334-6-2.667-25.334-13.833-44.667-7.5-9 2.333-20.499 9-24.666 11.333zM432 532.334s31.167 18.667 64.167-6.833c-1.667 3.333-9.333 19-31 21.5-11 .333-26.501-5.167-33.167-14.667zM493.167 470.001s11.834 16.332 10 30.666c-2 9.334-5.334 16-9.334 20.167-.666-2.833.667-6.833 3.167-21.333-.333-9 .167-14.5-3.833-29.5zM428.833 474.833s-25.667 25.334 4.167 49.334c-1.5-3.667-10.166-19.168-4.833-45.167.5-2.832.666-4.167.666-4.167z"/></g><g id="Flower_Stage_12_Petals"><path fill="none" stroke="#000000" stroke-width=".5" stroke-miterlimit="10" d="M435.667 484.5s-6.834-21.333 18.166-19.5c-4.666 2.5-13.166 6.667-18.166 19.5zM469.833 465.333S489.5 460.5 486 483.5c-2.167-4.667-1.667-10.167-16.167-18.167zM438.334 511.668S448.5 525.167 455 526.334c-2.166 1.667-18.666 5.001-16.666-14.666zM486.5 507.834s3.5 19.666-14.333 17.5c3.5-3.5 10.833-7.334 14.333-17.5z"/></g><g id="Flower_Stage_12_Stamens"><path fill="none" stroke="#000000" stroke-width=".5" stroke-miterlimit="10" d="M440.334 496.834s-.334-6.167-5.167-3c-2.167 2-5.501 6.5-.667 9 2.667.834 6.334-.833 6.167-4.833-.167-.333-.333-1.167-.333-1.167zM453.834 482.001s-2.5 4.666-3.5-.667c-.334-3-.001-7.834 5.666-7.5 1.334.667 4.334 4.001 1.334 8.334-1.5 1-2.833 2.5-3.5-.167zM467.667 480.501s-2.501 3.333-3.167-2.167c-.5-3 2.668-8.667 6.834-2.5.333 1.667 0 10.167-3.667 4.667zM482.667 494.834s-2.333-1.499 2.667-4.166c2-.667 7 .667 6 5-1.167 1.666-3.167 7.332-9.167 1.666-.5-1.166-.667-2.167.5-2.5zM469 508.834s1.333-3.167 4 1.5c.5 2.667-2.5 12.666-8 3.5-.833-1.5.166-7.167 4-5zM456.667 508.668s3.333-.833 3.333 4c-.333 2.5-4.832 8.499-8.666.666 0-2.666 1.333-6.666 5.333-4.666z"/></g><path fill="none" stroke="#000000" stroke-width=".5" stroke-miterlimit="10" d="M453.334 491.668S462 486 469.167 492.834c1.333 2.334 3.499 4.668-2.667 7.834-3.666 1.5-12 4.666-14.833-3.834-.167-2.166-.666-3.666 1.667-5.166z" id="Flower_Stage_12_Carpels"/><path fill="none" stroke="#000000" stroke-width=".5" stroke-miterlimit="10" d="M356.667 459.834s1.5-5.166 7.333-7.666c4.333-1.834 6.334-3.334 8.167-1.334 1.833-2.833 6.5-8 13.333-.5 4.333-.333 14.334 1.668 18.667 12.834 1.5 4.333 5.999 20.167 3.333 31.5-1.5 7-4.833 15.166-13.833 27.833.5.833 1.333 3.167-2 7.5-1.167 3.833-4.834 18.166-2.667 24.166-2.167.5-10.5 2.667-10.5 2.667-.833-3.833-4.5-21-7.833-25.5-1.833-2-2.334-6.333-1.667-8.333-2.5-2.834-24-20.5-18.5-44.5 1.833-8.5 5.167-16.834 6.167-18.667z" id="Flower_Stage_12"/><g id="Flower_Stage_10_11"><path fill="none" stroke="#000000" stroke-width=".5" stroke-miterlimit="10" d="M306.167 463.501s4.167-10 13-1c2.833.167 8.333-.833 15.5 17.167 3 9 8.333 25.999-5.5 44.499.833.834.333 4-.333 6.5-.333 3.334-.5 13.334-.5 13.334-3.167.333-19.833 1.333-19.833 1.333-1.167-3.667-5-16.999-5-20.333-3.167-4-14.333-18.333-10.5-45 2.332-6.5 9.833-18.667 13.166-16.5zM251.667 468.501s2.834-9 11.5-.667c2.833.167 12 2.333 16.667 23 1.333 6.5 3.833 18.5-6.833 34.5.167 4-1.667 17.833-1.667 18.333-4.167.834-18.167 1.667-18.167 1.667-1.333-3.833-4.833-19.167-4.833-19.167-3.667-5.5-12.834-15.999-10.167-36.166 1.166-9.5 6.666-21.833 13.5-21.5z"/></g><path fill="none" stroke="#000000" stroke-width=".5" stroke-miterlimit="10" d="M196 476.334s2.5-10 12-1c2.667.333 7.167 1.833 12 13.833 2 7.167 6.833 21.668-4.5 38.334-.167 2.666-.833 16.333-.833 16.333-5 .833-17.167 1.667-17.167 1.667-1.667-6.667-3.5-16.334-3.5-16.334-4.5-4.833-11.833-16.166-10.333-35.666 1-6.667 6-18 12.333-17.167z" id="Flower_Stage_9"/><g id="Cauline_Leaf"><path fill="none" stroke="#000000" stroke-width=".5" stroke-miterlimit="10" d="M107.125 208.25s8.5-5.5 19.25-3.125c7.5 2.25 14.75 7.875 17.375 24.5.375 3.375.375 6.25.75 6.875.625 1.125 2.5 5.375-2.375 3.25-4.875-3.25-16.75-9.25-20-15.5-2.875-5.625-7.5-13.875-11.375-14.375-1.75.625-2.75 2.125-4.125 1.75.125-2.625.5-3.375.5-3.375zM98.875 313s-4.875-4.25-6.5-4.125c-4.25-.5-16-.25-26 8.75-3.875 3.875-5.75 6.875-8.5 13.875-2.125 5-5.75 15-6.375 16.125 1.625.375 15.75 1.75 25.25-8.5 4.75-4.625 11-12.375 12-14.625 2.375-2.75 5.625-5.875 11.125-5.5M713.962 318.288s.663 4.587 2.913 8.337c1.5 2.25 4.375 4.625 4.875 8.5 1.062 2.368 4.264 10.625 4.944 12.375.556 3.125 1.806 7.125 1.556 14.5-.25 3.875-.25 7.25-6.625 16-1.75 1.875-4.375 4-3.375 8h-3.5c.5-1.125 1.125-3.875-.625-4-1.875-2-6.25-9-6.5-9.375-.75-1.125-1.5-5.625-1.5-9.25.125-3.375.625-4.875-.625-5.875-1.625-3-3.5-8.375-2.5-13.25 1-3.875 4.375-15.5 5.375-17.625 1-3.5 3.549-8.549 5.587-8.337"/></g><path fill="none" stroke="#000000" stroke-width=".5" stroke-miterlimit="10" d="M18 400.25s-2.375-1.375 6-12.25c6.875-8.5 15.375-18 21.25-21 6-3.625 11.875-8 24.625-3.125 4.125 2.375 8.208 6.098 10.625 8 2.25 1.375 7.104 5.175 7.625 5.75C90.875 379 104.75 389.25 108.25 390.5c-3.375-3.125-13.417-12.916-18.5-14.625-2.917-1.208-7.375-5-6.375-17.125 1.25-6.875 2.5-10.875 2.5-10.875 2.75 2.375 14.375 12.875 16.5 16.875.625 1.625.625 4.875 1.625 8.125.75 2.875 2.625 6 3.75 6.75.25-2.125.875-5.125.875-5.125 1 1.5 4.625 4.25 4.625 4.25 1.417 1.225 2.875 7.5 2.625 9-.375 2.375-.75 5.875-.75 5.875 1.875-2.25 5.75-5.875 7.5-13.5.625-4.25.375-12.875 3.125-16.75 2.5-3.625 4.625-7.375 10.625-9 3.25-.75 8.375-2.25 10.125 5.375.333 2.084-.375 6.125-6.25 13-3.583 3.886-8.869 7.969-13 12-2 2.375-2.875 3.375-2.875 3.375 4.125-2.875 16.5-9.5 18.25-10.125 1.875-2.375 18.708-17 27.76-16.305 6.615.657 21.498 3.691 25.365 5.68-2.375 1.25-6.25 3.375-6.875 5.375-.75 2.25-2.75 6.75-5.375 6.625C186 381 195 386.75 198.625 391.75c2.75 3.125 12 9.875 17.625 11.25-1 1.5-18.75 8.25-27.75 5.375s-13.875-8.5-22.375-15.125c-5-3.375-12.75-8.75-24.375-6.75-6.5 1.5-17.875 5.125-23 9.125l-1 1.25c2.75-.125 24-2 28.125 3.25 3.5 4.625 7.25 9.75 7.25 9.75-2.125 1.75-12.625 10.5-23.625-.125-4.25-4.875-7.75-9.625-11.5-9.25 1.75 2.25 10.375 13.875 16.125 17 6.5 1.75 23.5 4.125 27.5 17.5 2.375 7.625 2.75 16.375 2.75 16.375-3.875 1.625-16 10.125-32.75-11-3.875-7.5-4.5-8.125-7.75-24-2.25-4.375-4.375-8.75-8-11.625-3.875-.25-5.375-.375-5.875-.125-3 .375-11 1-14.25 6-3.75 4.875-9.625 12-22.125 18.375-6.5 2.75-12.625 6-22.375-5.375-2.375-3.625-3.5-11.375.375-15.625C55.75 403.5 62 396.75 70.25 394.625c4.875.25 24.375 3.625 38.375 6.375-1.875-2.375-12.375-16.5-34.625-16.875-4.25.375-9.75 1.125-16.375 5.5C50 394.375 40.5 402.5 28.75 398.875c-3.25 0-7.5-.375-10.75 1.375z" id="Entire_Rosette_After_Transition_to_Flowering"/><path fill="none" stroke="#000000" stroke-width=".5" stroke-miterlimit="10" d="M99.625 302.75h4.875v-32.875c-.125-6.625.75-31.625 1.125-36.375.75-9 1-21.875 1-21.875l-4.75.125c0 3.25-.5 17.375-.375 18.125 0 4.375-1.625 23.875-1.375 26.625-.25 4.75-.75 26.125-.75 29.75 0 3.125.25 16.5.25 16.5z" id="Stem_2nd_Internode"/><path fill="none" stroke="#000000" stroke-width=".5" stroke-miterlimit="10" d="M99.625 302.75h4.875s.25 7.125 0 7.75c-.375 2-.25 8.75-.25 8.75-1.375-.125-4.375-.25-4.375-.25-.125-1.375-1.5-.25-1.5-.25-.75-.25-.875-2.25-.875-2.25s-.125-.25-.25-.625 0-.875 0-.875l.375-.875.625-.5.625-.625 1.125-3.625s-.625-4.875-.375-6.625z" id="1st_Node"/><path fill="none" stroke="#000000" stroke-width=".5" stroke-miterlimit="10" d="M258.5 79.625l-.125-16.125c-2.125-.75-14.875-4.25-10.75-13.375C250.875 46 257 38.75 262.5 43c1.5 1.375 2 2.125 2 2.125 2-.125 3.875-.25 8.5-4.375 4.625-2.5 15.125-7.75 21.75-6.625 6.625.875 17.375 2.625 20.875 5.625l5.5 5.5c1.25 0 3.25-.375 2.625-4.375-.75-4.625-1-11.75 2.875-13.625 3.75-2.25 6.5-2.75 6.5-2.75 3.125.75 16.125 3.875 22.875 10.75s5.375 16 2 23.125c-2.75 4.375-5.5 9.25-22 9.5-2.375.5-4.75 2.625-4.75 5.75.125 2.5-.25 5.75-.25 5.75-2.25.125-72.5.25-72.5.25z" id="Shoot_Apex_Inflorescence"/><path fill="none" stroke="#000000" stroke-width=".5" stroke-miterlimit="10" d="M263.875 148.625V132s-9-6.5-7.375-12.625c1.5-4.625 7-10.125 11-8.125 2.625 1.375 3.875 3.75 4.25 4.75.5 1.125 1.875 1.875 3.625.375 1.625-1.25 10.875-7.25 30.25-4.75 4.25 1.125 9.75 2.25 13.75 5.875 1.875-.125 5.625-.375 2.75-4.5-2.125-3.25-2.75-7.75 3.125-12.25 4-2 10.875-6 18.125 3.125 2.375 3.5 7.75 13.375 1.25 22.125-3.125 3.75-6.875 6.875-17.625 12.5-.375 2.25 0 8.875 0 8.875-3.5.125-63.125 1.25-63.125 1.25z" id="Shoot_Apex_Transition"/><path fill="none" stroke="#000000" stroke-width=".5" stroke-miterlimit="10" d="M263.5 194.875s-8.375-7.375-4.125-14.875c2.875-4.75 6.75-8 7.375-7 0 1.25.25 8.25.25 8.25 2.875-.75 30-4.5 48.25-.875 1.75-.125 4.5-.5 4-6.25-.875-6.25-1.25-8.875-1.875-9.5-.625-1-.75-3 3-2.625 2.75.875 15.5 5.625 15.5 24.375-1.75 2.5-9 9.875-8.875 10.375.125 2.25.5 12.375.5 12.375-5.75.125-63.5 2.375-63.5 2.375l-.5-16.625z" id="Shoot_Apex_Vegetative"/><path fill="none" stroke="#000000" stroke-width=".5" stroke-miterlimit="10" d="M155.667 225.167s6.5-10 28.167-4.167c2.667 1.333 5.167 3.167 9 2.333 3.833-1.333 11.166-4.167 24.833-2 2.5 1.5 9.834 5 7.167 12-1.833 2.333-6.167 5.333-17.333-.833-4.833-3-9-6.166-15.167-5.333l-4.5.333c-2.167-.667-5.834-.333-8.667 1.333-4 2-13.833 7.167-20 4.833-3.5-1.666-6.167-2.666-3.5-8.499z" id="Cotyledon"/><path fill="none" stroke="#000000" stroke-width=".5" stroke-miterlimit="10" d="M187.833 227.5s3.333-.5 4.5-.333c.333 3.667.5 18.167 0 29-.333 4.5.5 6.5-5.333 13-4 4.167-10.333 10-11.5 11.5-1.5 3-6 14-6.333 16.167.167-6 .333-15.333 5.167-19.5 4-3.667 8.833-7.5 14.167-17.833-.168-7.334.166-30.168-.668-32.001z" id="Hypocotyl"/><path fill="none" stroke="#000000" stroke-width=".5" stroke-miterlimit="10" d="M192.333 318.333s1.333-7 9-5.833c3 1 6.834 4.167 7.667 12 0 4.167-.5 12.5-10.167 11-2.667-.333-7.167-2.499-7.5-12.333.334-2.5 1-4.834 1-4.834z" id="Imbibed_seed_24_h"/><path fill="none" stroke="#000000" stroke-width=".5" stroke-miterlimit="10" d="M236.167 362.834s5.333-7.333 11.667-2.5c2.167 1.666 5.833 5.667 4.667 14-1.333 3.666-2.333 7.166-8.167 8.166-3.833-.833-9-2.5-9.5-12-.167-3.5.833-6.832 1.333-7.666z" id="Dry_seed"/><path fill="none" stroke="#000000" stroke-width=".5" stroke-miterlimit="10" d="M224.167 294.333S224 289 240.334 275.666c4.5-2.833 13.167-7.333 19.5-2.833 5.333 3.333 19.5 12.833 19.5 12.833-2-2.167-7-6.333-9.333-8-2.167-2.833-2.833-4.333-1.667-11l.5-4.667c2.5 2.167 11.833 9.667 12.333 12.667-.167 2.5.833 5.5 2.333 7C284 279 284.667 278 284.667 278c1.5 2.833 6.167 5.834 5.5 10.167 1.167-.667 4.5-3.167 4.167-10.667.333-4.667 3.833-10.333 8.667-11.5 3.333-.5 7.333 0 6.833 5-.833 2.333-4.5 8.667-10.167 11.333-1.833 2.333-2.667 3.333-2.667 3.333 2.667-1.667 9.834-4.833 11.167-5 2-2.333 9.167-8.833 19.167-9.5 4.667.333 14.333 2.5 15.333 3-2 1.167-6.5 6.833-7.167 8 2 1.833 9.5 7.167 10.5 9.5 3.667 1.5 9 4.167 10 4.5-1.167 1.167-7.833 9.5-25.833.667-3.5-3.5-10-11.5-23.333-10.5-6 1.5-14.5 5-15.667 6 0 1 .5 1.5 2 1 2.5-.667 12.167-3.667 18.167 4 1.833 2.667 2.833 3.5 2.833 3.5-1.667.833-9.5 6.167-16-.5-2.167-2.667-4-4.833-6.333-4.667 1.333 2 4.833 7 6.5 8 3.5 1 20 5.167 21.5 12C321.167 321 321.667 324 321.167 326c-2.5 1.333-11.5 6.5-21-5.333-2.833-4.167-4.333-6.667-4.833-14.5-1.833-3.667-2.667-5.833-6-8.667-1.667-.5-4.167 0-4.167 0-2.667.5-6.333.167-9.5 4.5-3.5 3.5-10.833 12.999-22.5 11.833-3.833-1.166-10.5-5.333-7.833-11.667 2-3.667 7.333-8.5 8-9 3.667-1.333 10.167-3 19.167.333 4.833.833 12 1.667 12 1.667-1.833-1.667-7-8.5-19.667-10-6 0-11.667.5-19.333 5.667-3.833 2.167-5.333 3.333-12.833 3.333-4.501-.333-6.334-.333-8.501.167z" id="Vegetative_Rosette"/><path fill="none" stroke="#000000" stroke-width=".5" stroke-miterlimit="10" d="M285.542 297.333l3.333-.208c-.167 2.833-.542 12.375-.542 12.875-1.167 1.334-4.5 6.334-3.333 10.167 1.667 3.167 7.5 10.5 8 14 0 3.5.167 8.834.167 9.667-.333 2.833-1 5.499-2.333 8.666-.833 2.334-1.167 4.001-.333 7.334-.333 2.5-1.666 6.999-1.833 10.499-.333 3.167.5 4.833 1.333 6.5.833 2.167 2.333 7.334 2.5 9.667-.167 3.166-1.167 13.832.333 17.666-2.5-4-4.167-8.833-3.167-14.333.667-4.333.833-5 .833-5-1.167-1.333-5.333-11.501-4.667-16.167.667-4.833 1.5-11.667 1.333-15.5 1.667-4.833 5.5-12.666 2.667-18.333-2.667-5.5-8.667-12-8.167-18.5.667-3.667 3-8.5 3.833-11.833.168-2.833.043-7.167.043-7.167z" id="Root"/><g id="outlines"><path fill="none" stroke="#000000" stroke-width=".5" stroke-miterlimit="10" d="M406.422 131.077c.655-1.345.325-2.897.325-4.328v-8c0-.577.059-1.153.03-1.73-.024-.505-.319-2.185-.314-2.675m-3.966 17.404c-.003-2.808.5-5.58.802-8.363l.165-1.489c.209-1.859.74-4.375.818-6.299m-2.548-24.876c.93.334 1.968.456 2.938.24M442.25 114.602l-.003 1.954c-.003 2.186.095 4.383-.157 6.557-.104.888-.075 1.74-.015 2.628.032.482.243 1.597-.125 1.994m-1.925-12.845c.242.833-.362 2.445-.489 3.272-.169 1.099-.124 2.227-.21 3.333-.092 1.179-.372 2.31-.697 3.443-.321 1.122-1.227 2.043-1.374 3.215m2.979-59.591c.922.116 1.854.031 2.776-.024m-2.814 1.177M486.076 116.955c-.134.925-.991 2.359-1.325 3.219l-.223.585c-.65 1.709-1.36 3.421-2.35 4.97-.393.616-.755 1.215-1.086 1.868-.229.451-.472 1.152-.882 1.474.001 0 .05-.038.145-.057m5.069 3.321c.729-1.453.956-3.092 1.669-4.568.728-1.505 1.372-3.034 1.954-4.6.591-1.591 1.075-3.246.12-4.833M481.665 56.037c-.627.051-1.188.168-1.761.374M526.75 139.273c.016-.557.429-1.042.637-1.537.188-.448.223-.92.31-1.392.216-1.163.924-2.23 1.275-3.358l.094-.286c.588-1.859 1.188-3.773 1.373-5.793 3.641-1.613 2.764-6.526 2.675-9.719-.057-1.92.143-3.794.35-5.7.193-1.769.74-3.443.876-5.207.144-1.828.66-3.607.769-5.458.105-1.91.056-3.828.183-5.737.252-3.861.71-7.709.71-11.586v-.223c-.001-1.592-.006-3.195.262-4.77.293-1.721.574-3.287.536-5.049-.076-3.464.003-6.922.146-10.383.139-3.438.321-6.873.438-10.311.061-1.693.103-3.388.113-5.083.013-1.576.259-3.265-.033-4.825-.004-.134.163.872 0 0-.004-.134-.033-.256-.092-.371-.215-.804-.659-1.495-1.354-1.967-.964-.657-1.731-.201-2.479.517l-.115.11c-1.714 1.634-2.823 3.517-3.362 5.818-.56 2.384-1.007 4.756-1.298 7.188l-.062.509c-.223 1.84-.354 3.691-.424 5.543-.077 2.023-.42 4.017-.513 6.037-.169 3.841-.661 7.643-.741 11.492l-.024.999c-.098 3.927-.845 7.79-1.301 11.682-.465 3.985-.282 8.015-.75 12-.213 1.812-.894 3.528-1.193 5.324-.33 1.954-.188 3.94.013 5.9.206 1.992.68 3.924 1.136 5.87.418 1.783.415 3.665.992 5.406-1.104 1.578-2 3.219-2.344 5.135-.425 2.366-1.024 4.781-1.053 7.195m7.938-10.336c-.104.814-3.521-.907-4.542-1.994m9.894-82.432c-1.075.475-1.927 1.351-3.036 1.746M575.4 153.384c1.391-.876.775-4.049.704-5.333-.146-2.571.735-5.19.245-7.736.526-.761.817-1.781 1.022-2.529l.09-.324c.671-2.336 2.275-4.412 3.261-6.634 1.063-2.393 1.908-4.919 2.188-7.533.302-2.864.144-5.828.237-8.709.051-1.487.096-2.975.104-4.463.008-1.383.254-2.748.249-4.125l-.007-.694c-.035-2.605.255-5.268.471-7.866.206-2.484.155-4.96.411-7.443.56-5.412 1.086-10.828 1.663-16.239l.014-.121c.152-1.442.633-2.833 1.032-4.22.404-1.408.699-2.841 1.118-4.246.851-2.851 1.533-5.749 2.122-8.665.538-2.668 1.014-5.382 1.126-8.107.076-1.87.175-4.507-1.162-6.013-.867-.975 1.508 1.699 0 0-1.015-1.141-2.536-.809-3.696-.089-1.118.694-1.803 2.608-2.323 3.761-.757 1.67-1.572 3.321-2.301 5.004-.746 1.733-.931 3.48-1.216 5.325l-.143.958c-.321 2.198-.883 4.324-1.39 6.484-.53 2.274-1.313 4.55-1.634 6.864-.297 2.157-.396 4.313-.796 6.46-.433 2.329-.689 4.637-.875 6.998-.169 2.14-.732 4.293-.698 6.438.009.492.033.985.009 1.477-.028.556-.283 1.002-.428 1.53-.135.508-.046 1.013-.022 1.527.021.543-.13 1.115-.228 1.646-.357 2.013-.604 4.042-.952 6.057-.405 2.354-.89 4.677-1.208 7.048l-.169 1.242c-.354 2.581-.507 5.117-.457 7.722.025 1.338.089 2.677.253 4.005.168 1.361.01 2.736.021 4.102.021 2.49.761 4.833.534 7.358-.167 1.867-1.076 4.287.071 6.009l-.047.074c-.05-.031-.072-.068-.08-.08.267.555-.146 1.592-.235 2.168-.169 1.062-.412 2.12-.539 3.188l-.02.135c-.138 1.142-.28 2.297-.204 3.449.036.535.33 1.813-.067 2.244m1.195-11.178c1.858 2.106 3.373.07 3.707.005M632.992 163.404l.004-.068c.002-.014.002-.03.002-.046l-.012-.138c-.126-.691.238-1.526.42-2.182.251-.915.498-1.831.747-2.747.534-1.965.788-4.039 1.756-5.86.99-1.863 1.888-3.814 2.259-5.906.308-1.739 1.095-3.733.672-5.511 1.021-.618 1.233-1.903 1.441-2.984.279-1.466.605-2.921.854-4.394.486-2.896.61-5.769.61-8.701v-.12c0-1.961-.208-3.639-.429-5.417l-.084-.674c-.288-2.387-.312-4.8-.288-7.201.021-2.547-.001-5.104.148-7.646.291-4.876-.058-9.772-.331-14.646-.281-5.033-.191-9.956.091-14.984.146-2.53.098-5.065.263-7.593.167-2.571.479-5.129.79-7.686l.097-.801c.464-3.782-.023-7.878-.451-11.492 0 0 .428 3.614 0 0l-.108-.944c-.289-2.471-.716-4.961-1.393-7.359-.545-1.93-1.774-3.578-3.999-2.901-1.827.557-2.419 2.566-2.649 4.258-.322 2.338-.038 4.713-.342 7.049-.146 1.164-.892 2.002-1.3 3.074-.503 1.321-.225 2.8-.375 4.182-.329 3.022-.2 6.131-.294 9.171-.099 3.197-.021 6.347.12 9.54.143 3.162-.222 6.327-.207 9.493.022 4.806.492 9.486.95 14.261.472 4.916-.311 9.756.012 14.672.155 2.364.114 4.781.368 7.132.256 2.381.666 4.743.922 7.129.269 2.477.289 4.954.586 7.429.257 2.133-.127 4.501.815 6.501-.264.691-.72 1.286-.979 1.983-.244.664-.396 1.352-.541 2.044l-.107.521c-.438 2.036-.479 4.183-1.284 6.127-.36.864-.91 1.634-1.256 2.506-.396.996-.44 2.06-.708 3.086l-.149.561c-.515 1.902-1.086 4.182-.882 6.165v.127m5.906-23.12c1.677 2.79 3.511 1.636 4.183 1.652M700.008 160.163V160c-.011-1.528-.188-2.869-.374-4.289-.066-.505.187 1.42 0 0-.206-1.564-.476-3.017-.936-4.526-.457-1.5-.556-3.031-.795-4.572-.45-2.877-1.283-5.842-3.35-8 .097-1.33-.032-2.701.134-4.021l.047-.37c.383-3.069.649-6.179.723-9.273.069-3.016-1.137-5.926-1.447-8.916-.326-3.127-.601-6.192-1.146-9.293-.521-2.939-.938-5.892-1.498-8.825-.271-1.412-.673-2.802-.817-4.235-.162-1.604-.208-3.203-.438-4.802-.45-3.087-.914-6.142-1.255-9.244-.352-3.185-.991-6.326-1.497-9.487-.229-1.423-.425-2.852-.522-4.291-.104-1.481-.004-2.978-.23-4.448-.203-1.32-.571-2.607-.804-3.921-.254-1.451-.443-2.909-.731-4.354-.286-1.435-.639-2.821-.758-4.284-.104-1.272-.021-2.784-.525-3.977-.709-1.663-3.114-3.051-4.896-2.304-1.562.654-1.761 2.735-1.897 4.191l-.036.354c-.153 1.445-.41 2.84-.514 4.298-.111 1.581-.383 3.145-.493 4.726-.198 2.788-.119 5.605.395 8.358.569 3.056 1.271 6.075 1.734 9.153.467 3.102.862 6.214 1.32 9.318.893 6.042.788 12.188 1.459 18.262.683 6.194 1.73 12.347 3.1 18.426.851 3.786 1.823 7.544 2.907 11.271.554 1.903 1.136 3.797 1.746 5.683.438 1.362 1.093 2.779 2.428 3.475.117 2.975.907 5.846 1.41 8.766.541 3.136 1.024 6.28 1.589 9.413l.469 2.623m-3.471-20.802c3.336 2.667 3.33-1.044 3.515-1.47M770.975 164.318c-.845-3.378-2.265-6.572-3.398-9.854-1.146-3.308-1.953-6.691-3.188-9.977l-.188-.5c-.499-1.333-1.094-2.63-1.554-3.979l-.099-.285c-.356-1.072-.783-1.779-1.557-2.584l-.124-.731c.418-2.434.366-4.537-.324-6.931-.688-2.386-1.718-4.659-2.255-7.089-.521-2.349-1.091-4.692-1.581-7.046-.49-2.352-.755-4.733-1.285-7.082l-.207-.922c-.376-1.695-.271-3.447-.438-5.166-.18-1.847-.604-3.671-.887-5.503-.541-3.509-.816-7.064-1.284-10.585-.473-3.53-.534-7.073-.675-10.627-.066-1.768-.13-3.516-.25-5.281-.125-1.838.032-3.687-.188-5.521l-.093-.815c-.445-3.596-.427-7.209-.83-10.811l-.021-.168c-.188-1.683-.103-3.39-.41-5.06-.305-1.656-.748-3.318-1.146-4.955-.57-2.348-1.333-5.352-3.906-6.227-1.367-.464-2.646.196-2.938 1.632-.279 1.375.254 2.716.171 4.085-.102 1.609-.771 3.156-.969 4.763-.222 1.791-.353 3.595-.353 5.4V65c0 2.467.118 4.938.447 7.384.308 2.291.954 4.504 1.312 6.783.406 2.583.549 5.196.798 7.796.136 1.379.288 2.625.061 4.003-.213 1.276-.115 2.5-.115 3.783l.002 1.085c.003 1.034-.09 2.111.076 3.135.167 1.032.476 2.055.693 3.079.525 2.485 1.099 4.962 1.552 7.462.199 1.101.297 2.237.559 3.324.29 1.205.826 2.33 1.299 3.47.929 2.232 1.224 4.619 1.512 7l.096.79c.234 1.925.438 3.587 1.201 5.453l.242.601c.569 1.432 1.153 2.916 2.141 4.124 1.154 1.416 2.896 2.145 4.162 3.44.651.67.118 2.285.211 3.134.146 1.311.812 2.523 1.232 3.757.758 2.216 1.544 4.422 2.381 6.61.906 2.375 2.082 4.638 3.009 7.006.457 1.163.962 2.315 1.437 3.471m-8.271-23.978c.588.172 3.478-.847 3.832-1.304m.124.731c.01.065-.124-.731-.124-.731M762.67 196.334c-.241-2.754-.625-5.38-1.726-7.935-1.16-2.691-2.807-5.059-4.471-7.451-.71-1.021-1.379-2.08-2.261-2.964-.961-.962-2.202-1.729-3.414-2.333-2.652-1.324-5.275-1.153-8.146-1.151-2.519.002-5.279.603-7.196 2.333-1.9 1.717-3.137 4.092-4.213 6.379-2.48 5.274-3.729 11.107-3.744 16.925-.001.248-.001.495-.001.743l-.001.619c-.008 2.903 1.467 5.58 3.417 7.643 1.297 1.372 3.33 4.522 5.586 3.909.038 3.156 3.356 4.208 6.016 3.757 1.51-.255 2.78-.938 3.822-2.051.95-1.015 1.922-1.886 2.67-3.072l.229-.359c1.454-2.267 2.264-5.026 2.267-7.708.417 2.625.992 5.222 1.422 7.846.312 1.888.711 4.24 2.062 5.698 1.67 1.807 3.54.397 4.819-1.094 1.47-1.706 1.903-3.889 2.288-6.045l.257-1.372c.725-3.821.75-7.577.396-11.447l-.078-.87c-.146-1.659 0 0 0 0zm-26.169 16.717c-.113-1.424 1.224-7.289 1.451-8.877.19-1.365.153-2.75.495-4.092.369-1.447.759-2.837.956-4.323l.095-.692c.14-.975.513-1.96.812-2.896.261-.807.813-1.798.652-2.672m8.361 1.248c.05-.007.077-.008.081-.011 1.008.588.896 2.225.873 3.21-.045 1.694.103 3.213.488 4.868l-.059.085c.498.699.798 4.719.798 4.719M702.134 186.288c-.631-1.336-1.061-2.759-1.741-4.073-.607-1.179-1.438-2.28-2.258-3.321-1.479-1.884-3.265-3.463-5.31-4.714-2.112-1.292-4.502-2.241-7.015-1.89-2.523.354-4.546 1.151-6.451 2.84-2.035 1.801-4.086 3.827-5.556 6.128-.746 1.169-1.104 2.468-1.388 3.812-.325 1.537-.716 3.051-.944 4.607-.217 1.473-.559 2.963-.646 4.449-.091 1.52.093 3.035.16 4.551.06 1.355.108 2.713.507 4.022.319 1.067.938 2.535 2.103 2.909.45.145.938.137 1.405.141.637.054 1.357.091 1.979-.08.359 2.415 2.422 4.207 4.746 4.706 2.718.583 5.561-.861 7.128-3.087l.197-.28c.274-.382.535-.75.751-1.2.146 2.178.067 4.385.284 6.555.178 1.769.42 4.406 2.541 4.841 1.823.374 3.622-.688 4.688-2.097 1.164-1.539 2.179-3.385 3.035-5.11 1.809-3.629 3.305-7.645 3.729-11.691.217-2.056.366-4.165.057-6.22-.302-2.045-1.124-3.941-2.001-5.798-.271-.574.961 2.035 0 0zm-25.154 19.381c.225-1.332 1.526-4.683 1.688-6.026.168-1.403.225-2.875.563-4.249.326-1.322.846-2.602 1.257-3.9.188-.591.352-1.255.685-1.784.33-.524.791-1.031.827-1.682m7.142 4.186c-.021.864-.104 1.724-.137 2.587-.045 1.249.189 2.496.351 3.729.182 1.396.362 5.875.447 7.278M643.289 202.554c-.48 1.127-1.179 2.019-1.918 2.963l-.328.419c-.679.88-1.286 1.873-2.256 2.468-1.064.652-2.409.989-3.588 1.387l-.068-.277c-.76.178-.389-3.673-.407-4.15-.091-2.438.067-4.87.521-7.272l.02-.101c.542-2.861.475-4.213-.243-4.665l-.544.839c.069.069.39.569-.192 3.639l-.021.103c-.224 1.188-.328 2.394-.464 3.593h-.046c0 2.117-.801 3.96-1.867 5.751-.921 1.546-2.363 2.152-4.13 2.008-.054-1.13.203-2.248.241-3.375.043-1.231.107-2.442.243-3.668l.062-.608c.095-.881.323-1.907.545-2.9l.138-.607c.291-1.324.97-2.695.772-4.082l-.112-.817-.673.479c-.245.175-.33.379-.393.528l-.034.082.239.11c.019 1.193-.528 2.337-.779 3.486l-.134.603c-.218.973-.465 2.076-.562 3.013l-.063.604c-.241 2.206-.448 4.494-.489 6.712-.891-.007-1.822.484-2.62-.096-.705-.514-1.3-1.206-1.979-1.757-.69-.56-1.403-1.133-1.863-1.91-.618-1.046-.399-2.218-.535-3.371l-.057-.466c-.337-2.769-.136-5.42.77-8.071l.105-.309c.494-1.447.979-2.924 1.749-4.254.805-1.393 2.134-2.168 3.506-2.919l.416-.229c1.081-.599 2.188-1.202 3.398-1.496 1.2-.292 2.516-.227 3.746-.241 1.101-.013 2.331-.006 3.321.535.946.518 1.746 1.279 2.443 2.092 2.726 3.173 4.607 7.722 4.596 11.919l.004.732c.008 1.305.018 2.43-.47 3.576-.48 1.128.488-1.146 0 0zM599.665 196.001c-.081.809-.165 1.645-.165 2.499l-.002 1.082c-.004 1.543.036 2.908-.502 4.375l-.156.433c-.457 1.307-.848 2.629-1.396 3.903-.512 1.179-1.158 2.656-2.307 3.355-1.746 1.066-2.259-.902-2.319-2.176-.101-1.946-.184-3.902-.233-5.85-.058-2.117-.368-4.066-1.529-5.879-1.066-1.668-2.442-3.357-3.852-4.755-.679-.674-1.438-1.14-2.262-1.605-.61-.344-1.526-.829-1.396-1.667.338-2.107 3.151-1.606 4.608-1.281 2.62 1.623 7.309 2.814 7.343 6.57l1-.009c-.039-4.308-4.865-5.578-7.891-7.458l.006-.024c-.023-.006-.049-.012-.072-.017-.913-.574-1.944-1.265-2.391-2.292-.391-.895-.259-2.022.69-2.467 2.291-1.073 4.888.447 6.866 1.483 1.993 1.043 3.518 2.459 4.655 4.419 1.376 2.361 1.574 4.688 1.305 7.361-.081.809.119-1.186 0 0zM547.233 206.426c-.378 1.029-.412 2.182-.875 3.174l-.202.438c-.318.693-.623 1.518-1.255 1.995-.717.538-1.771.56-2.62.68-1.312.186-1.84-.359-1.809-1.646.034-1.29-.052-2.55-.193-3.833l-.032-.29c-.228-2.023-.404-3.704-2.009-5.139-.712-.637-1.492-1.188-2.197-1.835-.678-.622-1.342-1.269-2.126-1.758-1.448-.904-3.621-.572-4.688-2.036-.764-1.049-.487-2.82-.278-4.022 1.025-.464 2.101-.482 3.187-.694 1.096-.213 2.058.125 3.139-.001l.311-.037.104-.294c.183-.514-.019-.955-.149-1.443-.127-.462.102-.864.211-1.301.281-1.131.771-1.939 1.69-2.664 1.883-1.476 4.104-.713 5.834.659.774.615 1.483 1.447 1.637 2.458.178 1.189.165 2.467.275 3.672.099 1.042-.096 2.212.338 3.193.472 1.067 1.047 1.761 1.179 2.963l.046.406c.143 1.203.312 2.402.479 3.602.171 1.295.462 2.492.003 3.753-.078.213.2-.547 0 0zM492.724 201.386c1.016-.229 1.896-.562 2.929-.188 1.059.386 1.629 1.335 1.373 2.453-.304 1.325.156-.683 0 0-.338 1.469-1.243 2.862-2.158 4.036-1.094 1.405-2.738 2.229-3.941 3.525-.947 1.02-1.566 2.58-2.871 3.218-1.402.689-1.929-.671-1.956-1.799-.027-1.296.276-2.551.399-3.833.187-1.965.031-3.94.005-5.908-.018-1.39.23-3.03 1.968-3.03.688 0 1.194.196 1.758.561.479.308.726.925 1.315 1.04 1.739 1.92-.16 4.02-.997 5.829M458.14 200.204c-.611 1.312-.844 2.769-1.337 4.129-.508 1.403-1.121 2.769-1.812 4.091-.706 1.35-1.508 2.637-2.367 3.894-.729 1.064-1.51 2.531-2.555 3.317-1.271-1.539-.229-3.563.729-4.911 1.157-1.633 2.499-3.261 2.369-5.386-.124-2.028-1.56-4.134-.938-6.169.243-.8.839-1.686 1.77-1.687.63 0 1.271 1.095 1.645 1.513l1.189 1.338-.323-1.76c-.148-.822.725-.925 1.311-.662 1.007.457.694 1.498.319 2.293-.106.225.233-.495 0 0zM411.886 208.651c-.892.885-1.873 1.657-2.401 2.831-.54 1.2-.838 2.497-1.47 3.659-.202.372-1.622 2.314-2.224 1.437-.607-.905.566-2.851.87-3.708.923-2.603.661-5.614 2.863-7.551 1.207-1.061 2.01-.069 2.812.93.81 1.005.39 1.566-.45 2.402-.198.196 1.35-1.345 0 0zM750 333.5l.003.693c.009 1.307.022 2.632-.259 3.914-.263 1.197-.718 2.367-.766 3.606-.104 2.696 1.712 4.095 2.966 6.232 1.374 2.344 1.812 4.893 1.844 7.577.028 2.754-.012 5.41-.68 8.096l-.063.248c-.345 1.402-.528 3.045-.545 4.888 0 0 .017-1.843 0 0M715.49 344.365c-.172.732.242 1.578.418 2.275.228.905.286 1.873.437 2.795l.158.986c.508 3.273.379 6.545.603 9.837.252 3.751.896 7.476.897 11.24l-.003.167"/><path fill="none" stroke="#000000" stroke-width=".5" stroke-miterlimit="10" d="M716.653 358.545s.686-.938 0 0l-.81-.59c-.062.083-.067.163-.065.188-.04-.608-2.128-3.828-2.614-4.271M722.042 363.094c-.193.984-1.469 1.332-2.042 2.027-.652.795-.989 1.895-1.997 2.337 0 0 .712-.313 0 0M674.002 342.78c.04.672.53 1.551 1.005 2.398.211.377.411.733.534 1.021.171.396.265.852.363 1.334.134.657.275 1.334.637 1.913-.024.604-.042 1.207-.04 1.806.006 2.438-.061 4.913-.125 7.306-.062 2.28-.125 4.641-.125 6.943"/><path fill="none" stroke="#000000" stroke-width=".5" stroke-miterlimit="10" d="M676.782 339.435v7.164h-.001c0 .75-.246 3.912-.28 4.653M640.365 354.017c.406-.683 1.54-2.94 1.822-3.63.163-.396.326-.794.517-1.188.104-.224.219-.539.343-.892.211-.596.604-1.701.929-1.863"/><path fill="none" stroke="#000000" stroke-width=".5" stroke-miterlimit="10" d="M639.957 329.645c.278.348.144 2.396.093 3.166-.023.395-.047.727-.047.937V349c.001 2.586.356 5.088.7 7.507.105.769.218 1.534.314 2.31.116.912.194 1.793.273 2.682.061.68.121 1.363.199 2.072.051.453.203.963.352 1.455.063.211.126.416.174.603.036.138.059.315.079.508M597.338 326.7c-.91-3.795-4.804-22.311-5.592-27.786M596.81 318.703c-.873-10.329-2.294-24.835-2.312-25.007"/><path fill="none" stroke="#000000" stroke-width=".5" stroke-miterlimit="10" d="M597.694 333.635c-.177-4.172-.749-12.822-1.096-17.383l.402 2.421c-.012-.077-1.13-7.808 4.594-13.054M597.756 341.764c.081-2.234.048-5.029-.062-8.129.312.332-.34.422 0 .74M593.049 326.7c.065.146 2.376 4.146 4.646 6.935M539.508 282.84c.022.122 2.247 12.279 2.493 17.682M545.25 300c0-3.983-1.682-18.683-1.753-19.307M546 319.25c0 .246.028.875.071 1.809.174 3.812.581 12.732.18 21.168M494.003 339.531c-.01-1.504-.331-7.354-.29-8.781h.037c0-.152-.014-.309-.024-.464.374-11.733 2.233-20.542 2.266-20.681"/><path fill="none" stroke="#000000" stroke-width=".5" stroke-miterlimit="10" d="M495.483 352.966c-.852-4.507-1.298-9.06-1.48-13.435.117-3.438 2.373-6.649 2.396-6.686M489.593 322.855c.033.044 4.282 13.593 4.41 16.676M408.74 375.654c-.75-3.752-2.001-9.754-2.001-9.754M377 366.75c0 .749.24 8.678.25 9.016M758.584 477.107c.087.201.17.396.248.552.14.278.259.555.376.827.177.411.359.835.604 1.255l.208.354c.833 1.428 1.555 2.654 2.117 4.16.547 1.458.989 3.026 1.469 4.777.381 1.377.813 3.205.813 5.132.001.763-.043 1.518-.085 2.266-.036.636-.071 1.265-.082 1.89l-.011.89c-.011 1.107-.021 2.152-.147 3.208-.144 1.193-.322 2.679-.752 3.822-.419 1.115-1.081 2.044-1.782 3.023l-.206.29c-.919 1.295-2.287 2.207-3.909 2.673-.185.021-.364.039-.547.065-.327.047-.635.14-.93.232-.314.031-.641.054-.971.056h-.086c-1.235 0-2.611-.177-3.701-.479-1.078-.299-1.728-1.119-2.465-2.166-.204-.289-.42-.578-.638-.87-.578-.775-1.179-1.577-1.555-2.412-.477-1.063-.771-2.248-1.058-3.396l-.11-.439c-.533-2.117-.638-4.777-.308-7.905.079-.748.089-1.472.098-2.172.009-.634.019-1.232.072-1.839.068-.74.201-1.511.331-2.251.109-.635.22-1.267.295-1.896.173-1.429.396-2.764.654-3.968.07-.328.12-.664.167-.999.055-.388.104-.755.194-1.1l.071-.264M664.006 468.25h.012c2.321 0 2.977 4.31 3.081 5.175.189 1.535-.059 2.07-1.204 2.604-.556.255-.574.256-1.211-.13-.159-.103-.33-.188-.492-.271-.509-.252-.587-.323-.608-.544l-.077.009c.271-.681.456-1.472.383-2.095-.072-.647-.396-.975-.65-1.136l-.858 1.211c.184.369-.338 1.908-.701 2.274-.612.626-2.026 1.296-2.645.896-.482-.312-.947-1.925-1.103-2.455l-.047-.16c-.335-1.149-.22-2.476.281-3.217.613-.906 1.347-1.587 1.87-1.734 1.358-.379 2.652-.418 3.969-.427zM673.417 473.002c.003-1.22.343-2.181 1.138-3.216.943-1.229 2.169-1.688 3.365-1.688.813 0 1.612.21 2.301.532 1.746.817 3.104 4.047 2.877 5.953-.106.927-1.158 1.496-2.078 1.496h-.015c-.801-.005-1.069-.006-1.596-.38-.256-.183-.333-.24-.413-.394-.013-.021-.034-.1-.05-.152-.042-.146-.108-.382-.271-.602.278-.92.314-1.949-.251-2.684l-1.188.916c.358.468-.066 1.934-.617 2.535-.359.393-1.06.812-1.647.823-.313.001-.475-.115-.562-.207-.646-.654-.995-2.001-.993-2.932zM699.11 493.284l-.839.262c-.648.068-1.261-.221-1.649-.8-.407-.601-.376-2.104.058-2.816.788-1.3 2.354-1.494 3.219-1.494.886 0 1.85.198 2.644.547 2.131.928 3.13 3.974 2.568 5.976-.542 1.915-2.482 4.8-4.842 4.471-.963-.138-1.778-.922-2.569-1.68l-.169-.162c-.505-.479-.599-.568-.61-1.104l-.014-.246c-.008-.125-.023-.358.023-.437.08-.077.197-.188.301-.354l1.362-.429.004-.002M636.664 490.294c.622-.304 1.492-.464 2.518-.464.407 0 .82.025 1.229.076l.198.021c1.039.126 2.021.246 2.616.938.678.774.51 1.702.246 2.342-.301.744-1.037.875-2.471.875l-.147 1.485.892.176c.572.07 1.055 1.03 1.374 1.665l.048.095c.525 1.042.521 1.837-.016 2.742-.599 1.003-1.857 1.49-3.855 1.49h-.001c-.885 0-1.771-.099-2.536-.188-2.125-.25-2.849-2.733-3.357-5.047-.506-2.253.991-5.097 3.262-6.206zM668.751 495.338c0-1.503.084-3.013.166-4.473m-1.358-3.689c-.021 1.212-.077 2.425-.146 3.604-.083 1.479-.168 3.012-.168 4.557 0 2.902.016 5.4.119 7.909M669.413 518.974l.005-.483c0-1.074 0-2.699.681-3.45.348-.381.695-.574 1.04-.574.447 0 .854.324 1.182.666.251.263.459.479.608.716l.157 2.208 1.498-.044c.002-.207.03-.396.057-.579.062-.433.132-.922-.047-1.515-.018-.059-.036-.116-.056-.171l.021-.031-.048-.091c.063-.214.081-.421.099-.592.008-.1.021-.243.024-.271.128-.18.417-.207.578-.207.069 0 .138.007.205.017.656.078 1.521.419 1.716.779.514.951.758 2.287.629 3.404-.087.75-.585 1.402-1.664 2.185-.938.676-2.467 1.396-3.941 1.396-.827 0-1.518-.229-2.043-.688-.694-.604-.718-1.41-.701-2.675zM663.173 521.658c-.405.773-1.854 1.306-3.079 1.428-1.072.102-2.537-.509-3.416-1.025-2.229-1.31-.906-4.836-.447-5.886.19-.438.867-.968 1.424-.968.156 0 .279.046.388.143.271.249.34.763.382 1.223.021.203-.029.453-.081.718-.066.354-.146.759-.078 1.171l1.476.032.466-2.172c.177-.255.27-.483.341-.659.106-.264.125-.313.42-.438.175-.072.33-.11.461-.11.13 0 .313.028.577.271 1.344 1.232 1.991 4.692 1.166 6.272zM595.464 437.811c-.319.329-.746.604-1.198.896-.346.223-.702.452-1.03.723-.447.364-.93.691-1.438 1.039-.36.246-.723.493-1.075.756-1.118.828-2.051 1.805-2.953 2.749-.566.599-1.155 1.214-1.776 1.775-1.252 1.133-2.58 2.417-4.062 3.926-1.033 1.059-3.521 4.335-3.675 4.614-.171.306-.524.938-.721 1.028M587.455 433.593c-.131.391-.758.94-1.863 1.646-1.087.688-2.055 1.705-2.761 2.442-2.691 2.818-4.801 5.348-6.448 7.727M618.59 442.84c.048.059.1.113.146.18l-.116.036c-.027-.082-.032-.153-.03-.216zm-.055-.057c-.161.242-.561.756-1.499 1.847l-.152.177c-.523.619-1.196 1.195-1.85 1.754l-.489.424c-.667.581-1.438.85-2.33 1.154-.269.093-.541.188-.814.291-1.291.488-2.471.857-3.451 1.154-.513.154-1.072.25-1.665.352-.787.138-1.602.273-2.382.567-1.487.56-2.922 1.279-4.147 2.084l-.369.242c-2.425 1.592-4.931 3.233-7.497 4.268-.521.208-1.009.461-1.483.729.197-.15.39-.312.587-.459.934-.7 1.898-1.425 2.738-2.365.361-.409.746-.818 1.132-1.23.896-.96 2.021-3.363 2.804-4.438M561.292 493l2.219-2.343c.039-.063.259-.189.389-.267.218-.127.464-.27.676-.479.437-.432.74-1.098.956-1.63.354-.877.552-1.782.742-2.657.08-.367.16-.737.254-1.107.588-2.354.575-4.856.562-7.28l-.004-1.067c0-1.455.104-2.795.328-4.217.089-.57.236-1.134.393-1.73.191-.736.394-1.505.479-2.304.035-.312.098-.635.159-.957.062-.342.131-.687.173-1.034.041-.334.054-.687.064-1.042.004-.053.01-.104.012-.152.098.211.202.413.31.565.674.979 2.176 1.628 3.247 1.746.385.043.817.073 1.268.073.275 0 .561-.019.843-.043-.104.133-.25.303-.519.536-.769.675-1.251 1.269-1.667 2.049-.844 1.584-1.373 3.131-1.614 4.729-.354 2.314-.276 4.8-.2 7.196.027.986.833 4.13.833 5.082m-8.403-28.939c.256-2.237-1.897 5.08-2.167 7.301-.188 1.578-.387 3.211-.479 4.888l.153.009c-.091 1.038-.062 2.104-.024 3.14.019.536.037 1.072.037 1.601 0 3.431.388 6.881.764 10.218l.037.329c.396 3.515.222 7.142.054 10.649-.093 1.94-.188 3.953-.188 5.934H561m14.617-36.605c-.643.381-1.811.512-3.205.355-.722-.08-1.807-.567-2.178-1.105-.157-.229-.387-.771-.469-1.118-.03-.141.001-.297.062-.545.068-.295.155-.661.078-1.081l-.454.083c.104-.637.448-1.19 1.024-1.656.701-.566 1.31-.58 2.505-.542 2.265.062 3.279 1.899 3.271 3.579l-.001.238c-.001 1.053-.032 1.436-.633 1.792zm-11.718 25.199s1.101-5.641.351-11.891.25-15 1.581-20.966 2.417-15.034 4.667-20.034c-.565.383-1.748 4.746-4.748 4.746-.351 0 .189.109 0 0m-5.084 1.587c-2.791 2.731-8.201.783-9.249.42-.804-.28-1.411-.577-1.924-.949-.117-.214-.258-.361-.435-.452-.09-.126-.196-.236-.34-.321l-.03.052c-.104-.115-.202-.236-.305-.366m-9.567 4.498c.947.704 2.07 1.305 3.259 1.305.434 0 .869-.078 1.312-.258 1.101-.449 2.482-1.097 3.434-2.099.294-.311 1.129-3.022 1.338-3.286 0 0-.517 2.934-.479 3.266l.021.183c.137 1.101.152 2.253.152 3.237 0 1.308.042 2.604.084 3.906.041 1.288.083 2.579.083 3.885 0 2.706-.111 5.15-.339 7.478-.071.722-.045 1.451-.021 2.159.015.352.024.695.024 1.035 0 .41.05.786.099 1.149.021.146.036.294.055.437m-10.005-13.795c-.062.891-.062 1.777.1 2.646.434 2.311.831 4.707 1.188 7.134.083.562.246 1.106.404 1.637.105.36.217.721.288 1.062.036.184.143 2.685.161 2.916.022.247-.032-1.774.01-1.517-.065.008-.127.019-.193.023m-12.791.505c2.967 1.083 5.537 1.588 8.09 1.588.204 0 .417.01.631.021.483.021.981.047 1.476-.021.415-.059.79-.189 1.12-.306.259-.093.503-.179.716-.21.447-.068.893-.125 1.333-.183.944-.118 1.926-.241 2.919-.497 1.15-.298 2.361-.301 3.645-.305h.015c1.064 0 1.923.461 2.88 1.152.417.303.881.598 1.354.897 1.627 1.035 3.312 2.105 3.646 3.839.141.736.184 1.512.229 2.328.032.604.066 1.205.141 1.789.047.37.025.805.011 1.227-.011.229-.021.46-.021.681-.002.427.044.81.088 1.179.039.322.079.646.078.989-.004 1.452.041 2.914.084 4.328.041 1.341.083 2.677.083 4.007 0 1.055.063 2.14.124 3.188.101 1.683.198 3.417.045 5.076-.156 1.737-.509 3.706-.98 5.543-.152.595-.146 1.169-.141 1.729.006.366.01.714-.03 1.051-.02.13-.04.261-.064.395-.054.298-.115.633-.117 1.021-.001.297.062.558.112.788.037.159.079.34.064.423l.159.026m-5.781-37.713c-.572-.06-1.098.104-1.561.242-.173.052-.342.104-.51.14-.493.107-.979.172-1.479.238l-.302.041c-.678.091-1.354.144-2.199.169-.338.011-.669.056-1 .102-.436.062-.84.118-1.233.073-.766-.085-1.535-.149-2.305-.219-.855-.073-1.712-.147-2.562-.248-1.329-.156-2.673-.425-4.226-.845-1.195-.323-2.537-.858-3.5-1.397m11.301 13.784c.141.229.92 2.464 1.057 2.688.146.24.29.479.438.716 1.646 2.638 2.843 4.712 3.229 7.378.232 1.584.489 3.163.747 4.74.217 1.31.43 2.615.626 3.93.273 1.809.518 3.671.759 5.535.135 1.042.271 2.085.408 3.117.061.43.101.85.139 1.265.074.811.152 1.646.365 2.489.146.578.354 1.152.551 1.71.244.688.476 1.337.578 1.935.019.113.053.263.09.426.046.197.14.607.134.734 0-.001.003-.063.045-.15l.169.082c-.183.336-.326.682-.439 1.029-.055-.063.053.063 0 0-.23-.271-.618-.741-.822-1.028-.155-.217-.299-.438-.444-.668-.266-.415-.541-.845-.89-1.251-.604-.695-1.103-1.532-1.628-2.419-.335-.561-.67-1.121-1.03-1.646-.331-.481-.706-.915-1.068-1.334-.211-.244-.424-.489-.626-.744-.17-.214-1.886-1.319-2.053-1.533m7.381 13.712c.524-.918 5.098-7.133 7.016-11.583.381-.883.87-1.688 1.395-2.543.278-.457.559-.916.822-1.389.446-.807.828-1.645 1.194-2.451.24-.529.479-1.056.736-1.57 1.324-2.647 2.838-4.867 4.275-6.869.605-.848 1.256-1.688 1.899-2.521.891-1.151 1.81-2.342 2.606-3.536l.252-.375c.72-1.071 1.464-2.179 2.113-3.344.151-.277 2.76-.063 3.135.229.719.563 1.866 2.513 2.155 3.434.057.185-.125-.599-.089-.412m.09.411c.146 1.078.041 2.203-.078 3.379-.074.731-.151 1.494-.162 2.255-.021 1.445-.208 2.84-.407 4.313-.209 1.558-.426 3.163-.426 4.824 0 2.979-1.679 10.021-2.091 12.822m22.621-47.343c-.006.038-.01.081-.015.118-.075.544-.243 1.085-.421 1.654-.076.246-.153.493-.224.743-.596 2.104-1.279 4.254-1.941 6.332-.354 1.11-.709 2.222-1.053 3.334-.722 2.334-1.892 5.75-3.695 8.454l-.505.756c-.758 1.133-1.51 2.257-2.256 3.423-.329.516-.689.968-1.07 1.444-.219.274-.438.551-.654.842l-.87 1.163c-.095.122-.18.281-.259.438-.031.064-.062.135-.086.169-.031.033-.078.062-.119.093-.112.082-.257.186-.369.333l-.461.601c-.833 1.089-1.693 2.214-2.62 3.126-.535.526-1.242 1.211-1.972 1.828-.172.146-.317.313-.455.48.009-.272.024-.543.024-.816 0-1.561.21-3.118.413-4.624.195-1.455.398-2.96.42-4.495.01-.693.08-1.39.154-2.125.106-1.08.854-4.105.761-5.216m-5.824-5.1c.016-.053-1.668 3.184-1.649 3.132.122-.367 1.991-4.042 2.162-4.422.106-.233.212-.468.306-.689.164-.399.337-.79.509-1.178.378-.857.77-1.744 1.057-2.688.255-.834.629-1.623 1.025-2.459.26-.548.519-1.094.741-1.646.356-.896.755-1.785 1.147-2.678.243-.547.486-1.094.725-1.642.499-1.163.987-2.294 1.564-3.361.22-.219.425-.447.62-.686.162-.194.321-.388.486-.553.497-.498 1.009-.923 1.55-1.373l.448-.375c1.133-.955 2.223-1.998 3.153-2.901 1.142-1.103 6.14-6.348 6.14-6.348"/><path fill="none" stroke="#000000" stroke-width=".5" stroke-miterlimit="10" d="M550.7 496.841c-.072-.332-.163-.67-.255-1.009-.139-.503-.267-.978-.33-1.431-.271-1.87-.702-3.697-1.36-5.751-.569-1.784-1.188-3.515-1.843-5.138-.316-.784-.72-1.466-1.109-2.124l-.15-.259c-.081-.139-.198-.312-.33-.514-.211-.316-.706-1.062-.733-1.312M528.401 461.333c.29-1.282-.984-2.58-1.745-3.356l-.152-.152c-1.051-1.089-2.31-2.362-3.676-3.562-1.216-1.064-2.649-2.072-3.936-2.761-.521-.28-.992-.638-1.491-1.016-.207-.156-.415-.314-.63-.471-.101-.068-.204-.164-.317-.262-.427-.367-.958-.825-1.604-.839M511.485 442.246c-.105.021-.17 0-.17 0 .165.056.574.431.753.591.112.104.217.196.295.26l.185.148c.744.601 1.515 1.221 2.396 1.741 1.13.655 2.256 1.397 3.344 2.114.877.578 1.757 1.157 2.657 1.716 1.396.86 2.638 2.07 3.688 3.139.397.403.833.756 1.254 1.097.211.17.421.341.623.518.935.806 1.087 1.104 1.112 1.175M456.421 474.784c.974 1.082 1.31 3.389 1.176 4.638-.118 1.121-.77 2.884-2.075 3.146-.143.025-.27.043-.382.043-.083 0-.229-.013-.289-.07-.21-.222-.161-1.086-.131-1.658.019-.286.031-.564.03-.829l-1.499-.024c-.056 1.454-.502 2.68-.994 2.729l-.078.004c-.773 0-1.299-1.457-1.443-2.375-.265-1.638.131-3.356 1-4.389.653-.777 2.52-1.712 3.563-1.756.424-.006.791.173 1.122.541zM465.536 474.763c.513-.579 1.292-.812 2.384-.688 2.443.265 3.2 1.496 2.998 4.88-.084 1.421-.428 2.246-1.051 2.521-.443.196-.727.237-.882.237-.163 0-.496 0-.562-.92.18-.571.232-1.25.151-1.889l-1.479-.056-.182.906.001.795c-.192.438-.429.438-.521.438-.098 0-.207-.021-.329-.062-.829-.268-1.023-1.327-1.181-2.58l-.014-.104c-.186-1.543.049-2.777.667-3.478zM484.928 499.07c-.917-.306-2.378-1.893-2.306-2.705.021-.229.295-.382.835-.458l1-.167-.189-1.487c-.198.021-.386.026-.555.026-.696 0-.938-.153-.964-.193-.095-.243.538-1.322 1.889-2.115 1.728-1.01 3.653-.854 4.886.456 1.025 1.1 1.258 2.558.632 4-.9 2.069-3.231 3.296-5.228 2.643zM466.464 509.433c.339-.35.712-.524 1.108-.524.146 0 .304.021.465.071l-.283 3.12 1.491.159c.026-.217.051-.462.075-.725.086-.9.287-3.009.889-3.009.115 0 .452.054 1.093.555 1.422 1.112 1.406 3.66.669 5.493-.594 1.479-1.56 2.293-2.719 2.293-1.746 0-3.751-1.843-3.836-4.488-.034-1.044.406-2.283 1.048-2.945zM458.57 515.311c-.525.613-1.53.979-2.688.979-.801 0-1.591-.178-2.165-.488-1.729-.934-1.929-3.069-1.572-4.619.265-1.13 1.471-2.085 2.638-2.085.162 0 .314.021.466.06-.094.496-.046 1.04-.001 1.544.033.377.068.767.021.978l1.463.339.691-2.772c.355.179.753.554.981.897.961 1.454 1.298 3.845.166 5.167zM437.104 493.802c.048 0 .094.002.139.005.708.062 1.229.307 1.594.746.416.505.621 1.272.593 2.192-.054.01-.106.018-.166.021-.175-.02-.362-.027-.564-.027l-.093.002c-.107-.022-.211-.057-.295-.092l-.643 1.354.514.257.316-.018c.236.034.479.047.722.032.436.065.692.224.772.461.167.491-.211 1.569-1.24 2.602-.824.823-1.759 1.259-2.701 1.259-1.109 0-2.14-.6-2.747-1.604-.689-1.146-.687-2.569.021-3.914.681-1.316 2.257-3.276 3.778-3.276zM460.174 490.183c.024 0 .053.002.077.002v6.069c0 .531.051 1.209.105 1.927.083 1.089.187 2.492.07 3.348M372.167 450.834c-1.021 1.749-4.574 6.78-8.372 16.657-11.047 30.381 5.047 44.927 5.211 45.067m21.87.355c22.046-33.068.11-57.175-5.376-62.579m-15.894 73.608c2.225.577 8.569 2.086 14.418 2.086 3.745 0 7.269-.636 9.37-2.518M304.304 525.917c2.288.41 8.246 1.367 14.054 1.367 4.012 0 7.935-.469 10.542-1.878m-22.733-61.905c-2.76 4.723-16.826 30.298.223 53.943m16.998 2.206c16.26-26.281-.392-51.71-4.221-57.149M263.5 467.972c.261.281 18.675 20.586 3.866 51.66M252.354 518.303c-.164-.223-16.602-23.208-.687-49.802m-2.393 58.608c1.833.229 6.236.715 11.004.715 4.28 0 8.831-.4 12.067-1.716M194.916 530.018c.635.014 1.545.022 2.655.022 4.911 0 13.501-.229 17.361-1.712M208 475.334c.587.751 15.722 22.389 1.349 47.541m-12.322-2.026c-.151-.185-14.778-18.396-.965-44.099M103.719 475.174c2.282-6.16-.11-12.179-2.031-17.014-.25-.628-.493-1.241-.714-1.822-2.869-8.366 3.895-16.418 3.956-16.488M126.438 379.492c.064-.117 6.529-11.752 11.916-17.14M140.218 406.824c-2.088-5.482-11.286-6.289-11.677-6.32M84.103 403.272c-6.49 1.993-19.808 10.444-20.372 10.806M96.071 403.505c-8.917-1.27-23.808 14.724-24.438 15.405M76.058 377.002c-23.686-2.738-39.717 10.23-39.876 10.362M99.841 376.636c-3.381-3.141-7.587-13.226-7.629-13.327M111.286 382.936c.01.024.981 2.469 1.219 4.137M145.957 441.297c-3.992-8.979-14.003-19.05-14.104-19.147"/><path fill="none" stroke="#000000" stroke-width=".5" stroke-miterlimit="10" d="M107.566 378.932l.184.693c-.003.02-.247-.67-.25-.652m8.22 13.401c.1-.634.196-1.405.273-2.308h.002c.008-.061.01-.115.017-.176.048-.304.235-1.033.418-1.747.551-2.149 1.475-5.75 1.818-9.355.246-3.442.011-10.337-1.289-14.231-1.369-3.191-6.352-15.949-7.136-17.961l5.099-1.873-.345-.938-12.25 4.5.345.938 2.267-.832c.594 1.729 2.77 7.896 5.097 12.551 2.633 6.582 2.686 8.961 2.781 13.279.024 1.096-.384 2.52-.312 3.946M124.058 448.858c-.928-.725-5.557-4.564-5.558-9.372-.147-4.438-2.32-10.967-4.704-16.885m6.704 56.806c1.368.812 6.5 4.188 6.501 11.579-.252 7.317-.264 10.68 2.109 13.58l.331.406c1.888 2.326 4.238 5.224 3.313 14.479m-2.252 55.123c-1.958-1.146-2.14-4.242-2.272-6.506-.053-.898.437-1.485-.249-2.2l-.036-.124c-1.419-1.925-2.424-6.075-1.696-10.488 0-5.736-6.418-8.843-6.644-8.961l1.065.384m-16.919 11.264c-.242-2.416.496-4.312 1.941-6.961l.046-.118c.783-3.131-.261-9.539-1.499-14.488-1.418-5.879 5.164-12.869 6.877-14.708m50.518-146.994c-5.728-.063-12.083.869-19.009 3.326m35.266-6.924c-8.558-1.008-16.153 1.924-16.475 2.09m22.084 6.209c-5.248-2.553-14.07-4.473-21.866-4.701M108.625 401c.612-.229 2.996-.168 3.599-1.036.899-1.294 1.071-3.087.511-5.328l-.051-.127c-.383-.67-.817-1.297-1.276-1.961-1.774-2.562-4.294-6.572-3.658-12.919m7.502 25.082c-.122 1.34-.361 2.354-.614 3.431-.25 1.063-.508 2.159-.637 3.645.032.584.073 1.188.115 1.806.272 4.035.581 8.609-1.253 10.853l-.06.094c-.369.736-.807 1.469-1.27 2.243-2.266 3.782-5.086 8.492-1.251 17.654 1.25 3.334 3.126 5.926 4.94 8.433 2.567 3.547 4.991 6.896 5.278 11.894 0 1.207.017 2.587.036 4.066.078 6.263.185 14.84-.994 18.982l-.175.402c-2.408 5.534-3.862 8.874-3.366 15.814.177 4.789-.925 10.37-1.654 14.062-.292 1.479-.521 2.641-.591 3.342-.529 3.439 1.046 8.805 2.297 10.801.971 1.94 1.625 4.661 2.104 6.646.241 1.001.433 1.8.609 2.263l.118.705c.511 3.049 1.367 8.149 1.376 10.313-.752 3.762-2.375 11.911.093 23.326-2.142-4.652-3.661-9.493-3.354-16.709l.023-.557c.482-11.78.645-15.751-5.043-27.356-1.481-4.938-1.196-11.624.761-17.512.416-2.078.369-5.058.32-8.21-.072-4.543-.146-9.238 1.16-11.719.282-.782.576-1.554.872-2.33 2.094-5.499 4.26-11.186 3.15-22.929-1.039-5.712-2.366-10.99-8.086-17.703-2.269-3.142-7.317-11.142-5.188-17.529.566-1.483 1.385-3.15 2.252-4.918 2.209-4.496 4.713-9.592 4.529-14.55-.499-6.237-1.243-8.521-1.274-8.618l-.105-.312-.331-.025M192.58 395.874c-24.697-21.703-42.342-14.909-42.518-14.837M97.194 314.191c-13.938-1.262-24.47 17.045-24.885 17.824M131.448 221.777c-6.55-13.101-15.527-13.993-15.906-14.024M99.475 319.407c-.529 10.494 3.412 21.533 4.358 24.016l-4.722 1.352.274.961 14-4-.274-.961-5.252 1.501c-.872-2.271-4.269-12.467-3.609-23.024m-4.328-10.528c-13.213-12.815-18.305-27.602-21.987-39.34-.325-1.036-.643-2.05-.954-3.021-5.938-21.242-4.946-44.027-4.758-47.404 11.259-.881 14.738 6.664 17.805 13.322.342.743.68 1.476 1.021 2.184l.808 1.673.141-1.853c.535-7.025-1.088-12.297-4.824-15.67-5.417-4.891-13.483-4.235-15.697-3.945l-.211-5.263c.149.02.301.032.456.032.557 0 1.151-.131 1.759-.395 1.787-.775 3.258-2.491 3.498-4.079.143-.949-.17-1.97-.797-2.602-.494-.497-1.146-.72-1.838-.616-.411.06-.769.267-1.091.545.172-.358.303-.719.345-1.066.126-1.033-.403-1.826-1.453-2.176-.281-.094-.545-.151-.799-.188.051-.376.116-.771.18-1.16.143-.863.275-1.682.26-2.314.555-.251.967-.579 1.216-.991.409-.677.379-1.514-.09-2.486-.716-1.485-2.024-1.677-3.001-1.21-.033.016-.063.039-.095.056-.306-.663-.829-1.113-1.503-1.244-1.61-.313-2.052.608-2.167 1.02-.363 1.304.767 3.533 2.046 4.124-.002.472-.129 1.055-.274 1.673-.23.978-.482 2.064-.285 3.063-.254-.097-.575-.156-1.013-.163-1.184-.021-2.017.496-2.442 1.447-.329.734-.342 1.643-.092 2.473-.114.057-.227.107-.344.182-1.491.954-1.881 2.288-1.071 3.659.383.648.8.971 1.25 1.133-.091.166-.156.341-.161.532-.01.393.12.736.376.992.603.604 1.741.58 2.651.558.063-.001.131-.002.199-.004l-.175 2.974c-3.256-2.83-6.426-3.957-9.439-3.351-5.251 1.057-8.449 7.152-9.581 9.723l.811.555c8.985-8.983 13.651-6.184 16.738-4.331.177.106.348.209.514.306-1.292 1.073-4.438 3.869-6.998 7.612-2.793 3.557-3.62 7.719-2.856 14.31 0 6.08 2.992 8.578 5.243 9.929l.757.454v-.883c0-.042.009-4.216.697-6.776 1.03-2.06 1.546-3.093 1.803-7.974 0-4.139 1.458-8.237 2.825-11.179.108 2.682.334 8.482.676 18.214 1.174 16.673 5.687 29.736 8.673 38.38l.592 1.713c3.875 14.603 10.92 23.793 15.992 28.845m23.367-234.348c-.009 1.612.028 4.358-.027 6.065-.027.821-.054 1.654-.076 2.501-.128 4.872.529 9.798 1.166 14.563.426 3.189.866 6.487 1.062 9.721-1.166 3.296-2.026 5.807-2.476 7.133-1.499 4.997-4.691 19.566-7.31 32.608-1.151-3.207-2.727-6.184-4.385-9.295-.518-.972-1.039-1.95-1.548-2.94-.893-1.736-1.925-3.669-3.108-5.461-.029-.062-.059-.125-.088-.187-1.276-2.676-2.482-5.205-3.087-8.174-1.165-5.719-4.637-10.661-7.994-15.439-1.098-1.563-2.233-3.179-3.242-4.766-.089-.141-9.163-14.092-13.817-14.197-.412-.004-.789.101-1.125.294-.234.213-.549.296-.651.578-.024.031-.053.053-.076.086l.039.027c-.048.166-.083.338-.088.525-.061 2.226 3.2 5.534 5.581 7.95.738.749 1.375 1.396 1.711 1.813 3.387 4.208 6.254 8.539 8.612 12.22 2.84 4.437 5.355 8.802 7.65 12.859.73 1.292 1.78 2.357 2.794 3.388.708.72 1.441 1.464 2.041 2.266.301.402.585.829.869 1.256.417.876 1.147 1.627 1.551 2.547.549.978 1.066 1.954 1.538 2.872.512.995 1.035 1.977 1.555 2.953 1.922 3.608 3.734 7.032 4.869 10.815-1.134 5.71-2.133 11.009-2.797 14.918-.556 2.124-.972 4.459-1.451 8.395-.761-2.12-2.942-3.358-4.695-5.115-.831-.833-1.617-1.62-2.137-2.284-4.211-5.379-7.679-8.107-10.341-8.135-.087-2.807-10.49-7.27-10.596-7.315-2.904-1.224-5.858-1.793-9.297-1.793-2.698 0-5.394.345-8.248.709l-1.693.214c-.503.062-1.428.069-2.499.078-3.655.029-9.18.074-11.162 2.141-.531.554-.788 1.218-.762 1.973.063 1.941 2.625 2.845 8.058 2.845 4.066 0 8.81-.504 12.273-.873 1.702-.181 3.046-.324 3.68-.335.358-.006.713-.01 1.066-.01 3.319 0 5.722.342 8.035 1.144.654.227 1.441.587 2.275.969 1.963.898 4.188 1.917 6.125 1.917.416 0 .808-.048 1.165-.143.563-.149.961-.371 1.226-.648l.016.139c1.602-.179 4.629 1.019 9.891 7.739.557.712 1.363 1.519 2.216 2.374 2.137 2.141 5.286 4.85 5.078 7.138-2.427 21.715-1.984 23.194-2.116 36.752m50.073-163.417c-.357.194-.678.362-.915.475l.111.234c-.75.631-1.556 1.247-2.348 1.847-.772.586-1.572 1.191-2.303 1.804-1.284 1.074-2.347 2.269-3.36 3.446 1.646-3.415 4.184-8.089 5.116-9.593 2.071.081 4.319-2.746 5.986-4.855.334-.423.636-.805.894-1.105l.095-.11.021-.144c.216-1.517-1.47-2.755-2.52-3.37l.052-.035c.017-.011.025-.028.041-.04l.146.058c.046-.115.104-.233.154-.349.351-.408.511-.907.575-1.295.058-.129.117-.257.172-.386l2.94-2.287-.614-.789-.932.725-.669.223c-.338.113-.58.226-.764.328L153.75 33l-.113-.158c.008-.021.01-.036.029-.065l.277-.416-2.062-1.375c-.109-.426-.25-.844-.434-1.21l-.739-1.477-.883 7.067c-.545-.095-1.022 0-1.422.277-.753.522-1.176 1.629-1.333 3.581-.067-.044-.138-.083-.213-.116-.673-.294-1.541-.056-2.635.726-.887.591-1.272 1.387-1.47 2.182l.007-.047-.027-.1c-.007-.026-.683-2.559-.035-4.867 1.644-1.81 1.497-3.201 1.258-3.875-.318-.9-1.148-1.57-2.116-1.706-.786-.114-1.51.159-1.95.726-1.944 1.521-3.044 3.418-3.272 5.64-.303 2.959 1.084 5.846 2.15 7.166.099 1.023.631 7.23-.253 14.395-1.239 2.328-2.503 4.897-3.767 7.609.021-.758.019-1.535.009-2.296l-.006-.688c-.003-1.483.024-2.978.057-4.475.266-1.79.524-3.627.635-5.457.314-5.166.312-10.088.309-15.3v-1.697l.001-.275c.013-2.699-.127-5.941-1.333-7.06-.332-.308-.736-.453-1.171-.418l-.432.035-.028.432c-.285 4.44.125 8.949.523 13.31.167 1.834.34 3.731.456 5.577.206 3.291.131 6.699.059 9.995-.006.258-.012.516-.017.773-.027.183-.055.366-.082.548-.485 3.248-.988 6.606-.725 10.078l.35-.026c-5.303 11.807-10.466 25.629-13.78 34.896-.229-2.53-.565-5.065-.895-7.537-.631-4.726-1.283-9.612-1.157-14.404.022-.845-.156-8.774-.129-9.593m26.982-8.72c-.292 1.024-3.168 4.5-4.418 5.901-.894 1.002-1.667 1.868-2.053 2.42-.533.76-1.127 1.497-1.702 2.209-.606.752-1.232 1.529-1.799 2.346-.126.182-.248.397-.367.624 2.689-6.902 5.914-14.893 7.692-18.751.028-.094.072-.213.113-.327l.025.023c.567-.611 1.106-1.24 1.647-1.87 1.103-1.285 2.243-2.615 3.623-3.77.713-.597 1.502-1.195 2.266-1.774 1.082-.82 2.19-1.668 3.164-2.562 2.301-1.267 7.451-4.335 7.599-6.489.026-.378-.076-.915-.708-1.331-.41-.269-1.106-.496-2.089-.053-2.399 1.081-5.174 5.622-5.363 6.938m12.681 26.14c-.005-.005-.009-.011-.014-.016-1.841-1.702-6.198.305-10.218 2.491l-.603.325c-7.688 4.04-14.032 9.843-19.964 18.263-4.797 6.81-8.692 14.147-12.185 21.1 2.639-10.254 5.775-21.884 8.268-27.564.467-1.335 1.311-3.419 2.291-5.99.921-.57 1.526-1.894 2.11-3.174.296-.648.576-1.261.853-1.661.546-.787 1.161-1.55 1.756-2.288.585-.726 1.19-1.476 1.742-2.263.354-.504 1.108-1.35 1.981-2.329 2.254-2.527 4.258-5.172 4.626-6.391M107.125 208.25c.117-3.138.909-13.761 1.556-22.622 1.198-3.058 3.143-5.928 5.539-8.128.591-.542 1.461-1.112 2.383-1.715 1.732-1.134 3.664-2.411 4.436-3.986.845.125 1.623.198 2.336.198 2.99 0 5.28-1.1 7.425-3.565.518-.596 1.012-1.188 1.498-1.771 1.935-2.323 3.762-4.517 6.535-6.113 3.972-2.287 8.175-4.244 12.241-6.136 2.209-1.028 4.494-2.092 6.723-3.199 5.411-2.688 7.981-5.064 7.86-7.264-.065-1.188-.81-1.869-2.042-1.869-1.539 0-3.616 1-4.857 1.598-.187.09-.35.168-.482.229l-.434.199c-13.648 6.257-29.116 13.349-37.241 26.59l-.896.896c-.749 1.214-2.135 2.368-3.646 3.357-.958.626-1.861 1.218-2.513 1.816-1.871 1.718-3.437 3.76-4.641 6.003.248-3.032.528-5.879.84-8.224.225-3.03.499-5.599.954-8.885l.187-.59c.758-.947 1.546-2.174 2.381-3.472 1.205-1.875 2.45-3.813 3.841-5.325.854-.928 1.733-1.85 2.614-2.774 1.389-1.458 2.812-2.956 4.148-4.49 3.604-.937 6.483-3.458 9.056-6.101 4.823-4.954 10.046-8.994 16.438-12.715 1.344-.783 2.693-1.593 4.043-2.404 1.689-1.015 3.436-2.064 5.149-3.042l.65-.364c2.456-1.363 7.027-3.902 7-6.591l-.004-.453-.452-.04c-.154-.014-.305-.005-.458-.012l.002-.025c-.168-.017-.344.002-.517.012-3.31.001-6.476 1.427-9.451 2.927-5.329 2.687-10.277 6.064-15.062 9.331-.841.574-1.682 1.148-2.526 1.72-3.327 2.252-6.01 4.806-8.445 8.038-.366.486-.767.988-1.179 1.505-1.524 1.91-3.225 4.059-3.949 6.343-.018.019-.037.037-.055.055l-.001-.001c-.004.005-.009.01-.013.016-.319.317-.625.631-.949.957.314-.328-.235.585-.399.613-1.215 1.372-2.497 2.72-3.75 4.034-.885.929-1.769 1.855-2.626 2.788-1.45 1.576-2.776 3.64-3.946 5.461-.473.736-.929 1.439-1.37 2.084 1.602-10.838 4.079-21.909 5.666-27.73.752-2.341 1.994-7.22 3.431-12.869.125-.493.255-1.003.385-1.511 3.736-7.049 8.867-13.031 15.14-19.052.033-.021.068-.036.1-.058l-.015-.022c.881-.844 1.792-1.685 2.735-2.524 3.275-2.913 6.912-5.501 10.429-8.005 3.818-2.718 7.767-5.528 11.286-8.774l.322-.292c1.424-1.284 4.759-4.29 4.773-6.509.001-.189-.028-.365-.072-.535.241-.311-.552-.934-.552-.934M68.456 207.045c-.162-.362-.096-.741.196-1.126.354-.468.962-.813 1.564-.96.083-.014.165-.031.249-.056.194-.028.387-.041.563-.016m.872-.738c-.022-.012-.041-.026-.063-.037.059-.051.115-.108.173-.162-.037.067-.074.133-.11.199zm-.533 4.257c.11-.089.218-.18.319-.272 1.059-.972 1.48-2.029 1.156-2.902m-2.302-7.69c-.075.451-.149.907-.205 1.345-.229.049-.447.12-.639.237-.586.356-.908.966-1.112 1.631-.098-.398-.206-.726-.405-.977l.536-.212c-.333-.843-.074-1.943.176-3.006.049-.208.096-.412.139-.613.658-.034 1.242-.109 1.75-.226-.028.509-.132 1.166-.24 1.821zm-1.295-2.605c0-.01.001-.021.001-.032l.003-.148h-.05v-.011c.651-.638.957-1.718.915-2.693-.004-.098-.019-.188-.03-.283m-1.072-.316c-.404.556-.556 1.286-.214 2.008m-1.078 11.365c-.005.017-.015.039-.022.058-.12-.415-.304-.8-.551-1.118-.455-.584-1.193-1.018-2.103-.916M65.854 207.453l-.001-.098c.359-.007.667.059.806.181l.03.032c.003-.003.005-.007.008-.01h.001c.069.077.053.219-.049.42M140.986 47.61c-.375.983-.761 2-.972 3.024-.008-2.516-.135-4.426-.212-5.338l.5-.051c-.154.644-.289 1.307-.302 1.996m1.426-5.45c.058-.178.109-.344.163-.514.059.35.118.61.151.748-.077.476-.214.867-.348 1.245l-.392-.054c.127-.481.277-.965.426-1.425zm.155 7.086c.111-.306.225-.611.34-.913.259-.68.516-1.373.723-2.074.092-.084.176-.173.248-.269-.224 1.022-.771 2.152-1.311 3.256zm5.89-3.02c.007.005.015.006.021.011-.837 1.316-3.566 6.298-5.302 9.912.096-.336.189-.677.291-1.001.21-.671.479-1.351.762-2.069.473-1.197.944-2.431 1.166-3.671.264-.655.599-1.292.97-1.911.019-.032.039-.063.057-.094.31-.512.276-1.263.612-1.749l.098-.387-.011.002c.41-.429.569-1.233.554-2.045.021 1.425.195 2.575.782 3.002zm1.271-2.373c-.549-.741-.292-2.423.182-3.568-.128.46-.216.931-.263 1.38-.073.691-.064 1.492.081 2.188zm1.383.673c-.342-.212-.618-1.326-.469-2.757.139-1.337.686-3.038 1.765-3.429M145.344 41.29c.386.542.494 2.498.068 2.924m-2.788-1.526c-.032.217-.057.429-.08.633-.04.351-.08.654-.136.918l-.268-.034c.045-.164.103-.339.179-.552.102-.29.214-.604.305-.965zm-.924-10.277c.602.085 1.117.497 1.313 1.049.25.708-.022 1.594-.767 2.53l-.198-.447c-.519.23-.943.241-1.274.087.06-.141.119-.288.18-.418l-.789-.369c-.02-.083-.032-.169-.04-.257.006-.006.009-.015.015-.021l-.019-.016c-.039-.614.234-1.291.855-1.602l-.155-.308c.305-.255.701-.252.879-.228zm-2.485 8.073c.296-1.12.711-2.605 1.189-3.92.016.007.03.017.046.023m-1.474 4.786c-.14.589-.227 1.168-.224 1.716-.669-1.254-1.235-2.988-1.152-4.794l.845.433c.254-.495.422-1.064.6-1.666.131-.441.264-.89.433-1.315.033.056.065.111.104.165"/><path fill="none" stroke="#000000" stroke-width=".5" stroke-miterlimit="10" d="M63.766 221.88c-.132.522-.636 1.11-1.122 1.679-.396.464-.807.943-1.083 1.452M60.342 230.461c-1.073 1.517-.967 4.201-.881 6.357.021.525.041 1.012.039 1.43M245.437 368.482c.083.5.148 1.084.219 1.703.126 1.115.269 2.379.548 3.539-.101 1.219-.558 2.062-1.435 2.65-.694.468-1.313.705-1.839.705-1.274 0-1.848-1.473-1.965-2.887.597-1.729 1.045-4.479 1.315-6.139.092-.562.163-1 .214-1.236l-.975-.225c-.189.777-.403 1.551-.618 2.321-.274.989-.559 2.013-.784 3.035-.147.668-.204 1.392-.165 2.103-.325.877-.548 1-.543 1-.32.066-.562-.011-.786-.267-1.006-1.151-.965-4.927-.778-6.309.363-2.688 1.586-6.218 3.842-7.309.508-.246 1.061-.37 1.642-.37 1.916 0 3.733 1.287 4.796 2.491 1.989 2.253 2.793 5.279 3.117 7.422.212 1.402.338 4.659-.623 5.776-.34.396-.775.443-1.392.203-.927-.366-1.587-1.368-2.017-3.062.083-1.431-.267-2.979-.577-4.354-.077-.342-.151-.67-.212-.967-.032-.193-.067-.379-.105-.547l-.98.194c.032.191.066.366.101.53zM206.319 330.503c-.241.263-.548.317-.981.195-1.066-.302-1.812-1.789-2.274-4.49-.049-.91-.204-1.813-.353-2.688l-.048-.275c-.056-.436-.111-.816-.173-1.123l-.986.161c.044.352.105.724.167 1.09l.079.638c.087.71.185 1.512.315 2.256.101 1.873-.337 3.049-1.422 3.805-1.157.81-2.064.881-2.703.142-.643-.742-.949-2.249-.745-3.666.229-1.591.707-3.183 1.169-4.72l.085-.284-.945-.325c-.104.27-.247.771-.444 1.469-1.453 5.143-2.219 6.225-2.618 6.225h-.001c-1.308-.377-.776-3.342-.458-5.113.114-.634.212-1.182.227-1.561.136-3.405.813-5.863 3.674-6.787.625-.2 1.279-.304 1.943-.304 1.894 0 3.66.81 4.847 2.218 1.66 1.971 1.882 4.604 2.096 7.148l.053.608c.102 1.079.406 4.385-.504 5.381zM293.167 343.834c1 .617 3.788 2.938 3.664 7.626-.317 4.914-.101 7.958 1.9 8.956 1.068.667 1.936 5.016 1.602 8.021m-1.393 33.645c-.953-.636-1.006-2.295-1.048-3.629-.014-.434-1.73-5.808-1.737-9.045-.531-3.01-3.105-4.756-3.215-4.829l-.805-.369m4.528 41.292c.007-.534-.615-13.79-3.942-21.657M285.833 368.666c-.208.157-6.046 5.019-4.826 10.604l.118.523c.959 4.284 1.716 7.667-1.229 12.783m1.741-73.742c-.164.19-4.502 5.246-3.451 9.973.317 1.041.803 2.088 1.272 3.103 1.342 2.893 2.61 5.624.772 8.841M288.333 310c.511 1.605 1.623 6.543 2.011 9.116 1.02 4.08 2.09 4.893 3.894 5.975M330.501 276h-.014c-2.128 0-2.778-.72-5.32-.541-3.291.481-5.202 2.293-6.167 2.25m-35.5 3.957c.051 2.253-.382 5.345.931 7.054.077.101.282.385.282.385-.131-.111-4.703-3.021-7.074-5.11m30.528-3.329c3.605-1.353 8.553-2.302 11.167-2.166 7.528.041 15.153 3.282 16.167 3.666m-45.001 9.167c1.275-1.793 1.542-2.751 6.5-5.667M309.157 319.904c-.856-4.282-8.981-11.475-9.327-11.777M305.807 299.009c-.897-2.692-6.709-4.021-7.369-4.164M267.948 297.553c-5.596.689-13.396 5.6-13.725 5.808M276.359 296.833c-6.625-.332-16.292 8.587-16.7 8.967M262.35 279.834c-14.14-.491-26.16 6.834-26.28 6.908M278.645 279.776c-1.297-1.038-3.953-5.889-4.867-7.671M288.167 288.667l.001-.364c.005-.932.009-1.895-.316-2.797-.248-.686-.641-1.244-1.021-1.784-.25-.355-.509-.723-.723-1.124M302.471 271.323c-1.46 1.534-2.942 3.333-4.174 5.062-.786 1.106-1.209 2.278-1.618 3.412-.249.689-.484 1.341-.796 1.983M339.325 292.121c-1.02-.884-2.118-1.686-3.182-2.46-.843-.617-1.718-1.255-2.538-1.925-3.367-2.751-11.355-5.956-21.392-4.647M178.375 277.686c.066 2.144 1.07 4 2.368 6.075m-3.581 7.184c-.328-3.149-1.133-7.719-1.662-10.278m-1.839 16.604c-.088-.714-.387-1.348-.677-1.962-.182-.387-.354-.752-.47-1.125-.141-.454-.754-4.323-.839-4.824m-.672 13.737c-.321-2.179-.653-4.432-.84-6.639l.15-3.271M166.161 315.227c.638-5.293 1.617-13.662 3.022-18.977m-5.689 14.359c-.21-1.746 2.733-6 4.351-7.823m1.322-9.224c-1.644 1.197-3.413 4.628-4.515 6.14-.539.739-1.096 1.502-1.708 2.219-.047.044-.094.099-.137.168m4.108-9.836c.428-1.096.961-2.46 1.164-2.88.36-.746 1.301-1.876 1.843-2.531m5.516-10.511c-3.7.281-8.11 5.493-8.693 6.401M218.645 230.515c-.592-1.861-3.378-3.008-5.043-3.694l-.314-.129c-2.104-.876-4.389-1.329-6.365-1.684M176.501 222c-2.534-.015-5.483.136-8.043 1.207-2.016.841-5.389 2.251-6.403 4.232"/></g><g id="labels"><text transform="translate(71.6328 60.2012)" fill="none" stroke="#000000" stroke-width=".5" stroke-miterlimit="10" font-family="'Helvetica'" font-size="10">Seed/</text><text transform="translate(71.6328 69.2012)" fill="none" stroke="#000000" stroke-width=".5" stroke-miterlimit="10" font-family="'Helvetica'" font-size="10">Silique 5</text><text transform="translate(162.0552 30.2988)" fill="none" stroke="#000000" stroke-width=".5" stroke-miterlimit="10" font-family="'Helvetica'" font-size="10">Seed/</text><text transform="translate(162.0552 39.2988)" fill="none" stroke="#000000" stroke-width=".5" stroke-miterlimit="10" font-family="'Helvetica'" font-size="10">Silique 4</text><text transform="translate(194.5078 67)" fill="none" stroke="#000000" stroke-width=".5" stroke-miterlimit="10" font-family="'Helvetica'" font-size="10">Shoot Apex</text><text transform="translate(194.5078 76)" fill="none" stroke="#000000" stroke-width=".5" stroke-miterlimit="10" font-family="'Helvetica'" font-size="10">Inflorescence</text><text transform="translate(207.1094 137.2725)" fill="none" stroke="#000000" stroke-width=".5" stroke-miterlimit="10" font-family="'Helvetica'" font-size="10">Shoot Apex</text><text transform="translate(207.1094 146.2725)" fill="none" stroke="#000000" stroke-width=".5" stroke-miterlimit="10" font-family="'Helvetica'" font-size="10">Transition</text><text transform="translate(207.1094 199.4414)" fill="none" stroke="#000000" stroke-width=".5" stroke-miterlimit="10" font-family="'Helvetica'" font-size="10">Shoot Apex</text><text transform="translate(207.1094 208.4414)" fill="none" stroke="#000000" stroke-width=".5" stroke-miterlimit="10" font-family="'Helvetica'" font-size="10">Vegetative</text><text transform="translate(115.458 197.8311)" fill="none" stroke="#000000" stroke-width=".5" stroke-miterlimit="10" font-family="'Helvetica'" font-size="10">Cauline Leaf</text><text transform="translate(107.8589 260.999)" fill="none" stroke="#000000" stroke-width=".5" stroke-miterlimit="10" font-family="'Helvetica'" font-size="10">2nd Internode</text><text transform="translate(106.8589 314.5566)" fill="none" stroke="#000000" stroke-width=".5" stroke-miterlimit="10" font-family="'Helvetica'" font-size="10">1st node</text><text transform="translate(10.689 309)" fill="none" stroke="#000000" stroke-width=".5" stroke-miterlimit="10" font-family="'Helvetica'" font-size="10">Cauline Leaf</text><text transform="translate(206.7461 245.918)" fill="none" stroke="#000000" stroke-width=".5" stroke-miterlimit="10" font-family="'Helvetica'" font-size="10">Cotyledons</text><text transform="translate(194.5078 266.9014)" fill="none" stroke="#000000" stroke-width=".5" stroke-miterlimit="10" font-family="'Helvetica'" font-size="10">Hypocotyl</text><text transform="translate(178.501 293.125)" fill="none" stroke="#000000" stroke-width=".5" stroke-miterlimit="10" font-family="'Helvetica'" font-size="10">Root</text><text transform="translate(172.647 346.8994)" fill="none" stroke="#000000" stroke-width=".5" stroke-miterlimit="10" font-family="'Helvetica'" font-size="10">24h Imbibed</text><text transform="translate(188.4893 355.8994)" fill="none" stroke="#000000" stroke-width=".5" stroke-miterlimit="10" font-family="'Helvetica'" font-size="10">Seed</text><text transform="translate(223.5962 393.5059)" fill="none" stroke="#000000" stroke-width=".5" stroke-miterlimit="10" font-family="'Helvetica'" font-size="10">Dry Seed</text><text transform="translate(293.2095 379.4922)" fill="none" stroke="#000000" stroke-width=".5" stroke-miterlimit="10" font-family="'Helvetica'" font-size="10">Root</text><text transform="translate(325.769 311.793)" fill="none" stroke="#000000" stroke-width=".5" stroke-miterlimit="10" font-family="'Helvetica'" font-size="10">Vegetative</text><text transform="translate(325.769 320.793)" fill="none" stroke="#000000" stroke-width=".5" stroke-miterlimit="10" font-family="'Helvetica'" font-size="10">Roesette</text><text transform="translate(169.3208 424.502)" fill="none" stroke="#000000" stroke-width=".5" stroke-miterlimit="10" font-family="'Helvetica'" font-size="10">Entire Rosette</text><text transform="translate(169.3208 433.502)" fill="none" stroke="#000000" stroke-width=".5" stroke-miterlimit="10" font-family="'Helvetica'" font-size="10">after transition</text><text transform="translate(169.3208 442.502)" fill="none" stroke="#000000" stroke-width=".5" stroke-miterlimit="10" font-family="'Helvetica'" font-size="10">to flowering</text><text transform="translate(353.7236 234.4609)" fill="none" stroke="#000000" stroke-width=".5" stroke-miterlimit="10" font-family="'Helvetica'" font-size="10">Seed</text><text transform="translate(353.7236 243.4609)" fill="none" stroke="#000000" stroke-width=".5" stroke-miterlimit="10" font-family="'Helvetica'" font-size="10">Silique</text><text transform="translate(353.7236 252.4609)" fill="none" stroke="#000000" stroke-width=".5" stroke-miterlimit="10" font-family="'Helvetica'" font-size="10">Embryo</text><text transform="translate(403.0469 234.4609)" fill="none" stroke="#000000" stroke-width=".5" stroke-miterlimit="10" font-family="'Helvetica'" font-size="10">3</text><text transform="translate(402.9082 243.4609)" fill="none" stroke="#000000" stroke-width=".5" stroke-miterlimit="10" font-family="'Helvetica'" font-size="10">+</text><text transform="translate(444.8926 234.4609)" fill="none" stroke="#000000" stroke-width=".5" stroke-miterlimit="10" font-family="'Helvetica'" font-size="10">4</text><text transform="translate(444.752 243.4609)" fill="none" stroke="#000000" stroke-width=".5" stroke-miterlimit="10" font-family="'Helvetica'" font-size="10">+</text><text transform="translate(486.8926 234.4609)" fill="none" stroke="#000000" stroke-width=".5" stroke-miterlimit="10" font-family="'Helvetica'" font-size="10">5</text><text transform="translate(486.752 243.4609)" fill="none" stroke="#000000" stroke-width=".5" stroke-miterlimit="10" font-family="'Helvetica'" font-size="10">+</text><text transform="translate(534.8926 234.4609)" fill="none" stroke="#000000" stroke-width=".5" stroke-miterlimit="10" font-family="'Helvetica'" font-size="10">6</text><text transform="translate(536.0078 243.4609)" fill="none" stroke="#000000" stroke-width=".5" stroke-miterlimit="10" font-family="'Helvetica'" font-size="10">-</text><text transform="translate(584.8926 234.4609)" fill="none" stroke="#000000" stroke-width=".5" stroke-miterlimit="10" font-family="'Helvetica'" font-size="10">7</text><text transform="translate(586.0078 243.4609)" fill="none" stroke="#000000" stroke-width=".5" stroke-miterlimit="10" font-family="'Helvetica'" font-size="10">-</text><text transform="translate(625.8926 234.4609)" fill="none" stroke="#000000" stroke-width=".5" stroke-miterlimit="10" font-family="'Helvetica'" font-size="10">8</text><text transform="translate(627.0078 243.4609)" fill="none" stroke="#000000" stroke-width=".5" stroke-miterlimit="10" font-family="'Helvetica'" font-size="10">-</text><text transform="translate(685.8926 234.4609)" fill="none" stroke="#000000" stroke-width=".5" stroke-miterlimit="10" font-family="'Helvetica'" font-size="10">9</text><text transform="translate(687.0078 243.4609)" fill="none" stroke="#000000" stroke-width=".5" stroke-miterlimit="10" font-family="'Helvetica'" font-size="10">-</text><text transform="translate(740.4385 234.4609)" fill="none" stroke="#000000" stroke-width=".5" stroke-miterlimit="10" font-family="'Helvetica'" font-size="10">10</text><text transform="translate(744.334 243.4609)" fill="none" stroke="#000000" stroke-width=".5" stroke-miterlimit="10" font-family="'Helvetica'" font-size="10">-</text><text transform="translate(405.043 254.1875)" fill="none" stroke="#000000" stroke-width=".5" stroke-miterlimit="10" font-family="'Helvetica'" font-size="10">globular</text><text transform="translate(464.4375 254.1875)" fill="none" stroke="#000000" stroke-width=".5" stroke-miterlimit="10" font-family="'Helvetica'" font-size="10">heart</text><text transform="translate(498.876 254.1875)" fill="none" stroke="#000000" stroke-width=".5" stroke-miterlimit="10" font-family="'Helvetica'" font-size="10">torpedo</text><text transform="translate(542.4941 254.1875)" fill="none" stroke="#000000" stroke-width=".5" stroke-miterlimit="10" font-family="'Helvetica'" font-size="10">walking-stick</text><text transform="translate(617.2158 254.1875)" fill="none" stroke="#000000" stroke-width=".5" stroke-miterlimit="10" font-family="'Helvetica'" font-size="10">curled</text><text transform="translate(655.9297 254.1875)" fill="none" stroke="#000000" stroke-width=".5" stroke-miterlimit="10" font-family="'Helvetica'" font-size="10">cotyledons</text><text transform="translate(714.7529 254.1875)" fill="none" stroke="#000000" stroke-width=".5" stroke-miterlimit="10" font-family="'Helvetica'" font-size="10">green cotyledons</text><text transform="translate(339.1025 410.1875)" fill="none" stroke="#000000" stroke-width=".5" stroke-miterlimit="10" font-family="'Helvetica'" font-size="10">Leaf</text><text transform="translate(376.0532 410.1875)" fill="none" stroke="#000000" stroke-width=".5" stroke-miterlimit="10" font-family="'Helvetica'" font-size="10">1</text><text transform="translate(408.0527 410.1875)" fill="none" stroke="#000000" stroke-width=".5" stroke-miterlimit="10" font-family="'Helvetica'" font-size="10">2</text><text transform="translate(448.7246 410.1875)" fill="none" stroke="#000000" stroke-width=".5" stroke-miterlimit="10" font-family="'Helvetica'" font-size="10">4</text><text transform="translate(494.7246 410.1875)" fill="none" stroke="#000000" stroke-width=".5" stroke-miterlimit="10" font-family="'Helvetica'" font-size="10">6</text><text transform="translate(545.7246 410.1875)" fill="none" stroke="#000000" stroke-width=".5" stroke-miterlimit="10" font-family="'Helvetica'" font-size="10">7</text><text transform="translate(510.1562 419.1875)" fill="none" stroke="#000000" stroke-width=".5" stroke-miterlimit="10" font-family="'Helvetica'" font-size="10">(dist/prox/petiole)</text><text transform="translate(600.7246 410.1875)" fill="none" stroke="#000000" stroke-width=".5" stroke-miterlimit="10" font-family="'Helvetica'" font-size="10">8</text><text transform="translate(637.9434 410.1875)" fill="none" stroke="#000000" stroke-width=".5" stroke-miterlimit="10" font-family="'Helvetica'" font-size="10">10</text><text transform="translate(670.9434 410.1875)" fill="none" stroke="#000000" stroke-width=".5" stroke-miterlimit="10" font-family="'Helvetica'" font-size="10">12</text><text transform="translate(699.5488 410.1875)" fill="none" stroke="#000000" stroke-width=".5" stroke-miterlimit="10" font-family="'Helvetica'" font-size="10">Cauline</text><text transform="translate(742.877 410.1875)" fill="none" stroke="#000000" stroke-width=".5" stroke-miterlimit="10" font-family="'Helvetica'" font-size="10">Senescent</text><text transform="translate(144.5527 567.5215)" fill="none" stroke="#000000" stroke-width=".5" stroke-miterlimit="10" font-family="'Helvetica'" font-size="10">Flowers</text><text transform="translate(204.2744 567.5215)" fill="none" stroke="#000000" stroke-width=".5" stroke-miterlimit="10" font-family="'Helvetica'" font-size="10">9</text><text transform="translate(256.4937 567.5215)" fill="none" stroke="#000000" stroke-width=".5" stroke-miterlimit="10" font-family="'Helvetica'" font-size="10">10</text><text transform="translate(311.4937 567.5215)" fill="none" stroke="#000000" stroke-width=".5" stroke-miterlimit="10" font-family="'Helvetica'" font-size="10">11</text><text transform="translate(378.4937 567.5215)" fill="none" stroke="#000000" stroke-width=".5" stroke-miterlimit="10" font-family="'Helvetica'" font-size="10">12</text><text transform="translate(462.4941 567.5215)" fill="none" stroke="#000000" stroke-width=".5" stroke-miterlimit="10" font-family="'Helvetica'" font-size="10">12</text><text transform="translate(424.9844 576.5215)" fill="none" stroke="#000000" stroke-width=".5" stroke-miterlimit="10" font-family="'Helvetica'" font-size="10">(sep/pet/stam/carp)</text><text transform="translate(552.4941 567.5215)" fill="none" stroke="#000000" stroke-width=".5" stroke-miterlimit="10" font-family="'Helvetica'" font-size="10">15</text><text transform="translate(524.1543 576.5215)" fill="none" stroke="#000000" stroke-width=".5" stroke-miterlimit="10" font-family="'Helvetica'" font-size="10">(flower/pedicel)</text><text transform="translate(662.4941 567.5215)" fill="none" stroke="#000000" stroke-width=".5" stroke-miterlimit="10" font-family="'Helvetica'" font-size="10">15</text><text transform="translate(624.9844 576.5215)" fill="none" stroke="#000000" stroke-width=".5" stroke-miterlimit="10" font-family="'Helvetica'" font-size="10">(sep/pet/stam/carp)</text><text transform="translate(729.7598 567.5215)" fill="none" stroke="#000000" stroke-width=".5" stroke-miterlimit="10" font-family="'Helvetica'" font-size="10">mature pollen</text></g><path fill="none" stroke="#000000" stroke-width=".5" stroke-miterlimit="10" d="M445.677 344.136c-.177 5.114.132 14.364.853 16.864"/></svg>