<svg xmlns="http://www.w3.org/2000/svg" xml:space="preserve" id="AtGenExpress_svg" x="0" y="0" version="1.1" viewBox="0 0 787.6 561.7" author="Provart Lab - Bio Analytic Resource, University of Toronto">
  <g id="Rosette_Leaf_12" transform="translate(-7 -20)">
    <path id="path2" fill="none" stroke="#000" stroke-miterlimit="10" stroke-width=".5" d="M676 314v-1h2s7 8 10 24c1 7 2 16 1 20-2 3-12 20-10 34h-4c1-3 4-7-4-20-3-5-7-15-5-30 1-9 7-23 10-27z"/>
  </g>
  <g id="Rosette_Leaf_10" transform="translate(-7 -20)">
    <path id="path5" fill="none" stroke="#000" stroke-miterlimit="10" stroke-width=".5" d="M636 309s1-2 4-2c3 1 6 2 8 7l3 7 1 5c1 3 2 6 2 14 0 5 1 14-3 24-1 5-2 10-4 13a2174 2174 0 0 0 0 19l-4-1-2-14c-1-2 0-4-2-6-3-3-12-17-13-29l1-12c0-3 2-17 9-25z"/>
  </g>
  <g id="Rosette_Leaf_8" transform="translate(-7 -20)">
    <path id="path8" fill="none" stroke="#000" stroke-miterlimit="10" stroke-width=".5" d="M614 314c1-18-4-29-6-32-2-7-10-10-13-12s-6 1-6 1-11 16-13 26c-1 5-1 8 2 24l6 24 2 5 11 16 4 30h4c-1-5-3-26-1-35l8-34c2-6 2-13 2-13z"/>
  </g>
  <g id="Rosette_Leaf_6" transform="translate(-7 -20)">
    <path id="path11" fill="none" stroke="#000" stroke-miterlimit="10" stroke-width=".5" d="M488 276s3-7 8 0c1 2 12 11 15 28 2 8 3 17 1 29l-10 23a174 174 0 0 0-2 43l-3-2-4-30c-4-6-18-38-19-47-1-6-2-11 6-31l8-13z"/>
  </g>
  <g id="Leaf_7_Distal_Half" transform="translate(-7 -20)">
    <path id="path14" fill="none" stroke="#000" stroke-miterlimit="10" stroke-width=".5" d="M542 258c-4-3-7 3-9 7-8 10-8 18-9 24v23a104 104 0 0 0 2 0h3l8-2 8-2 9 1h11l1 1-4-27c-3-12-16-22-20-25z"/>
  </g>
  <g id="Rosette_Leaf_4" transform="translate(-7 -20)">
    <path id="path17" fill="none" stroke="#000" stroke-miterlimit="10" stroke-width=".5" d="M441 324s5-3 9 1c5 3 13 7 15 18 1 8 2 16-13 26 0 2 1 16 3 23h-4l-4-21c-6-4-18-13-17-26 1-4 3-14 11-21z"/>
  </g>
  <g id="Rosette_Leaf_2" transform="translate(-7 -20)">
    <path id="path20" fill="none" stroke="#000" stroke-miterlimit="10" stroke-width=".5" d="M398 357s0-4 4-5 14 0 18 8c1 3 3 11-3 16l-6 4 2 13-4-2-2-11c-4-4-10-8-10-14l1-9z"/>
  </g>
  <g id="Leaf_1_2" transform="translate(-7 -20)">
    <path id="path23" fill="none" stroke="#000" stroke-miterlimit="10" stroke-width=".5" d="M375 356s7-2 10 2c3 3 7 6 4 11l-8 14 2 11-4 1-2-12c-3-3-12-12-10-17 1-4 3-8 8-10z"/>
  </g>
  <g id="Leaf_7_Petiole" transform="translate(-7 -20)">
    <path id="path26" fill="none" stroke="#000" stroke-miterlimit="10" stroke-width=".5" d="M545 363v7l2 30h6l-2-23c-1-7 0-12 1-14h-7z"/>
  </g>
  <g id="Leaf_7_Proximal_Half" transform="translate(-7 -20)">
    <path id="path29" fill="none" stroke="#000" stroke-miterlimit="10" stroke-width=".5" d="M561 309h-3l-4-1h-9l-8 2-8 2h-5l3 11c2 9 11 26 14 31l4 9h7v-1c2-6 8-18 10-26 4-11 4-22 4-26a5 5 0 0 0-1-1h-4z"/>
  </g>
  <g id="Senescing_Leaf" transform="translate(-7 -20)">
    <path id="path32" fill="none" stroke="#000" stroke-miterlimit="10" stroke-width=".5" d="m747 317 6 6c1 1 3 3 2 7l2 4c1 1 6 3 6 7v16c-1 2-2 4-1 5 0 2 2 3 0 6-2 2-2 3-2 5s2 4-1 6c-2 1-5 3-5 5v7c-1 1-4-1-4-1l-1-6-4-4c-1-1-3-3-3-8s0-6-3-9c-2-1-3-2-2-5l2-10c-1-2-3-5-2-9l3-8c1-2 4-4 4-7l1-4 2-3z"/>
  </g>
  <g id="Seeds_Stage_4_w_Siliques" fill="none" stroke="#000" stroke-miterlimit="10" stroke-width=".5" transform="translate(-7 -20)">
    <path id="path35" d="M440 68s2-8 4-2c0 3-1 5 1 9 2 3 2 8 1 15v20l-3 4c-1 1-3 4-4-4V72l1-4z"/>
    <path id="path37" d="M431 188s1-4 4-7c4-3 7-9 15-6 5 2 10 7 11 12 1 4 2 9 1 15-1 4-2 10-6 12-2 3-6 8-14 4-3-2-6-3-9-10l-2-10v-10z"/>
    <path id="path39" d="M145 65s-2-3 3-7c4-3 8-8 13-10l4-3c-1 3-5 8-8 10l-8 5-4 5z"/>
  </g>
  <g id="Seeds_Stage_5_w_Siliques" fill="none" stroke="#000" stroke-miterlimit="10" stroke-width=".5" transform="translate(-7 -20)">
    <path id="path42" d="M479 58s-1-8 4-2c2 3 4 6 5 16l2 13v11c1 3 2 10 1 14l-2 8c-2-1-4 2-4-9l-2-21-2-16-2-14z"/>
    <path id="path44" d="M478 178s7-8 15-3c3 3 4 4 9 17v16c0 3-2 9-7 11l-8 3c-2 0-4 1-5-3-2-1-6-7-7-11-2-3-4-6-4-11 1-5 1-12 7-19z"/>
    <path id="path46" d="m117 74-9-20c-1-6-2-12 1-12 1 1 4 3 4 8s2 11 3 14c0 4 3 10 1 10z"/>
  </g>
  <g id="Seeds_Stage_3_w_Siliques" fill="none" stroke="#000" stroke-miterlimit="10" stroke-width=".5" transform="translate(-7 -20)">
    <path id="path49" d="M401 89s-2-4 2-5c2 1 6 2 3 6v8c1 5 3 11 2 14-1 2-4 6-6 1-2-3-3-7-1-22v-2Z"/>
    <path id="path51" d="M397 179s7-7 13-3l10 10c1 4 2 10-1 19-3 5-6 12-10 14l-5 1s-2 2-3 0c-1-1-7-2-11-11-2-5-3-14-2-18 2-4 3-10 9-12Z"/>
  </g>
  <g id="Seeds_Stage_6_wo_Siliques" transform="translate(-7 -20)">
    <path id="path54" fill="none" stroke="#000" stroke-miterlimit="10" stroke-width=".5" d="M525 179s9-7 13-8c4 0 13 3 16 14 0 4 1 14-1 20-2 5-5 12-9 14-6 2-16 6-24-15-1-4-1-6 1-13l1-5 3-7z"/>
  </g>
  <g id="Seeds_Stage_7_wo_Siliques" transform="translate(-7 -20)">
    <path id="path57" fill="none" stroke="#000" stroke-miterlimit="10" stroke-width=".5" d="M585 173s2-2 5-1c2 0 7-1 8 3l4 7 2 12c0 4-2 11-4 14 0 3-3 10-14 12-2 0-7-3-10-11-2-5-4-9-4-14s1-7 3-12c3-5 6-8 10-10z"/>
  </g>
  <g id="Seeds_Stage_8_wo_Siliques" transform="translate(-7 -20)">
    <path id="path60" fill="none" stroke="#000" stroke-miterlimit="10" stroke-width=".5" d="M617 189s3-7 12-10c2-1 4-2 8 1 4 2 9 6 10 12 2 3 5 9 0 14l-7 9c-2 2-6 9-11 9-3 0-7 3-9-5l-5-13c0-2-1-11 2-17z"/>
  </g>
  <g id="Seeds_Stage_9_wo_Siliques" transform="translate(-7 -20)">
    <path id="path63" fill="none" stroke="#000" stroke-miterlimit="10" stroke-width=".5" d="M679 170s4-3 10-1c5 1 14 4 16 13v20l-2 9c-1 3-4 12-14 14-4 1-9 2-11-4-3-2-4-5-5-7-1-4-6-10-5-22 0-4 1-7 4-12l7-10z"/>
  </g>
  <g id="Seeds_Stage_10_wo_Siliques" transform="translate(-7 -20)">
    <path id="path66" fill="none" stroke="#000" stroke-miterlimit="10" stroke-width=".5" d="m733 175 7-6c5 1 11 0 16 6 3 4 6 7 8 16 1 5 6 19-6 30-4 4-10 7-15 5-2-1-10 1-12-8-4-8-9-20-6-31l8-13z"/>
  </g>
  <g id="Mature_Pollen" fill="none" stroke="#000" stroke-miterlimit="10" stroke-width=".5" transform="translate(-7 -20)">
    <path id="path69" d="M739 479s2-11 9-12c6-1 12-4 19 13 2 5 6 22-2 29-4 3-22 11-26-7-1-6-3-21 0-23z"/>
    <g id="g337">
      <path id="path71" d="m751 474 1 1"/>
      <path id="path73" d="m753 472 1 1"/>
      <path id="path75" d="M753 479v1"/>
      <path id="path77" d="m750 482 1 1"/>
      <path id="path79" d="m754 476 1 1"/>
      <path id="path81" d="m747 475 1 1"/>
      <path id="path83" d="M750 478v1"/>
      <path id="path85" d="M743 479v1"/>
      <path id="path87" d="M742 484v1"/>
      <path id="path107" d="m745 474-1 1"/>
      <path id="path109" d="M744 478v1"/>
      <path id="path111" d="M744 481v-1"/>
      <path id="path117" d="m749 471-1 2"/>
      <path id="path123" d="m752 468-2 1"/>
      <path id="path125" d="M750 468v1"/>
      <path id="path127" d="M752 471v1"/>
      <path id="path131" d="M749 485v2"/>
      <path id="path133" d="M750 486a2 2 0 0 0-1-1"/>
      <path id="path135" d="M748 482a1 1 0 0 0 0 1"/>
      <path id="path137" d="M748 486a3 3 0 0 1 0 1"/>
      <path id="path139" d="M747 489v1"/>
      <path id="path141" d="M749 492v1"/>
      <path id="path143" d="M751 487c-1 0-1 0 0 0"/>
      <path id="path147" d="M758 482v2"/>
      <path id="path149" d="M758 486a5 5 0 0 1 0 1"/>
      <path id="path151" d="M756 485a1 1 0 0 0-1 0v1"/>
      <path id="path153" d="m755 486-1 2"/>
      <path id="path155" d="M754 490v1"/>
      <path id="path157" d="m751 489-1 1"/>
      <path id="path159" d="m749 491 1 1"/>
      <path id="path161" d="m752 494 1 2"/>
      <path id="path163" d="M753 497v1"/>
      <path id="path167" d="M748 494v1"/>
      <path id="path169" d="M746 499v1"/>
      <path id="path173" d="M749 498v-1"/>
      <path id="path177" d="M747 492h-1"/>
      <path id="path179" d="m750 498 1 1"/>
      <path id="path181" d="m751 500 2 2"/>
      <path id="path183" d="M752 502a2 2 0 0 1-1 0"/>
      <path id="path185" d="M750 501v1"/>
      <path id="path187" d="M750 505v1"/>
      <path id="path189" d="m747 504 1 1"/>
      <path id="path191" d="m749 508 1 1"/>
      <path id="path193" d="M753 510h-1"/>
      <path id="path197" d="m755 504 1 1"/>
      <path id="path199" d="M758 506v1"/>
      <path id="path203" d="m755 511 2-1"/>
      <path id="path207" d="M762 505v-1"/>
      <path id="path209" d="M762 499v1"/>
      <path id="path211" d="M761 500a6 6 0 0 0 0 2"/>
      <path id="path213" d="m759 504-1-1"/>
      <path id="path215" d="M757 501h-1"/>
      <path id="path219" d="M757 495v1"/>
      <path id="path223" d="M760 498a2 2 0 0 0 0-1"/>
      <path id="path227" d="M762 490v2"/>
      <path id="path233" d="M759 492v1"/>
      <path id="path235" d="M757 494a1 1 0 0 1-1-1"/>
      <path id="path237" d="M753 491h-1"/>
      <path id="path239" d="M753 493a1 1 0 0 0 1 0"/>
      <path id="path241" d="m758 492-1-1"/>
      <path id="path243" d="M758 490c0-1 0 0 0 0"/>
      <path id="path245" d="M759 490v1"/>
      <path id="path247" d="M761 490v-1"/>
      <path id="path249" d="M762 487a1 1 0 0 1-1 0"/>
      <path id="path251" d="M760 485v-1"/>
      <path id="path253" d="M757 481v-1"/>
      <path id="path255" d="M756 477v1"/>
      <path id="path257" d="M756 481h-1"/>
      <path id="path261" d="M752 484v2"/>
      <path id="path267" d="m757 473-1 1"/>
      <path id="path269" d="M756 472a2 2 0 0 0 0-1"/>
      <path id="path271" d="M758 470v1"/>
      <path id="path275" d="M757 469h1"/>
      <path id="path277" d="M756 468h-1"/>
      <path id="path281" d="M746 470a1 1 0 0 0-1 1"/>
      <path id="path285" d="M740 480v1"/>
      <path id="path289" d="M743 485a5 5 0 0 0-1 1"/>
      <path id="path291" d="M741 491v1"/>
      <path id="path293" d="M742 503v1"/>
      <path id="path295" d="m742 507 1 1"/>
      <path id="path297" d="m743 509 1 2"/>
      <path id="path299" d="m745 511 1 1"/>
      <path id="path303" d="M763 479h-1"/>
      <path id="path309" d="M765 481v1"/>
      <path id="path311" d="m766 483 1 2"/>
      <path id="path313" d="M766 486a1 1 0 0 1 0-1"/>
      <path id="path315" d="M764 479v1"/>
      <path id="path317" d="m764 481 1 2"/>
      <path id="path319" d="M767 487v2"/>
      <path id="path321" d="M767 491v2"/>
      <path id="path323" d="M767 495v-1"/>
      <path id="path325" d="M769 489v1"/>
      <path id="path327" d="M768 495v1"/>
      <path id="path331" d="M767 502a4 4 0 0 1 0 1"/>
      <path id="path333" d="M766 505v1"/>
      <path id="path335" d="m765 507-1 3"/>
    </g>
  </g>
  <g id="Flower_Stage_15_Petals" fill="none" stroke="#000" stroke-miterlimit="10" stroke-width=".5" transform="translate(-7 -20)">
    <path id="path340" d="M637 482s-4-7 4-17l13-9c3 0 9-2 8 1-2 2-3 5-9 7-4 2-9 7-12 12-2 5-3 9-5 6z"/>
    <path id="path342" d="M700 510s0-7 3-2c0 4 1 11-7 21-3 2-14 10-17 6 0-2 7-5 14-14 5-5 7-9 7-11z"/>
    <path id="path344" d="M638 513s0-6 3 0c2 4 2 9 14 16 5 3 9 6 7 7-4 0-18-1-22-12l-2-11z"/>
    <path id="path346" d="M679 457s-1-4 3-3c4 0 11 1 17 10 1 3 3 10 2 14-1 2-2 4-4-2-2-5-5-9-13-15l-5-4z"/>
  </g>
  <g id="Flower_Stage_15_Stamen" fill="none" stroke="#000" stroke-miterlimit="10" stroke-width=".5" transform="translate(-7 -20)">
    <path id="path349" d="M663 475s-3 5-5 0c-1-3-1-6 5-8 2 1 4 1 5 7 0 2-2 5-5 1z"/>
    <path id="path351" d="M674 515s3-3 5 2c0 2-4 10-10 4-1-2 0-10 4-7l1 1z"/>
    <path id="path353" d="M660 516s2-4 4 1c0 2 1 9-7 6-1-1-4-2-2-7 1-1 3-3 4 0z"/>
    <path id="path355" d="M697 494s-4-4 1-6c3 0 8 0 8 6 0 3-3 9-8 5-1-1-3-2-1-5z"/>
    <path id="path357" d="M643 495s5-3-1-6c-4 0-9 0-10 6 1 3 1 7 5 7 3 1 8 1 7-4l-1-3z"/>
    <path id="path359" d="M673 476s-2-6 3-9c3 0 8 1 8 8-1 2-4 3-6 0-2 2-4 3-5 0z"/>
  </g>
  <g id="Flower_Stage_15_Sepals" fill="none" stroke="#000" stroke-miterlimit="10" stroke-width=".5" transform="translate(-7 -20)">
    <path id="path362" d="M630 454s1-5 9-8c10-5 22-8 36-8 6 0 15 3 24 8 7 3 14 6 10 9l-9-4-11-4-12-4-12 1-12 2-9 3-6 5-6 2s-3 1-2-2z"/>
    <path id="path364" d="M704 462s-3-4 2-2c4 3 12 11 15 31-1 7-1 35-18 37l7-13c4-9 7-13 2-36l-9-17z"/>
    <path id="path366" d="M631 537s-5-5 3-4c3 1 12 8 19 10 6 1 25 4 35-2 6-4 16-9 21-9 1 0 2-1 1 2-2 3-14 12-30 16-12 1-26 3-38-4l-11-9z"/>
    <path id="path368" d="M626 466s6-7 8-6l-5 13c-2 5-6 17-2 32l6 19c1 2 0 6-5 0-4-5-9-12-9-32-1-8-1-13 7-26z"/>
  </g>
  <g id="Flower_Stage_15_Carpels" transform="translate(-7 -20)">
    <path id="path371" fill="none" stroke="#000" stroke-miterlimit="10" stroke-width=".5" d="M655 495s-2-2 3-5c4-3 5-4 10-3 5-1 13 0 14 9 0 3-2 10-14 8-5-1-12-2-13-10Z"/>
  </g>
  <g id="Flowers_Stage_15_Pedicels" transform="translate(-7 -20)">
    <path id="path374" fill="none" stroke="#000" stroke-miterlimit="10" stroke-width=".5" d="M545 526v11l4 15 13-3 1-19c-3 2-6 5-7 4-2-1-6-2-7-7l-4-2z"/>
  </g>
  <g id="Flower_Stage_15" transform="translate(-7 -20)">
    <path id="path377" fill="none" stroke="#000" stroke-miterlimit="10" stroke-width=".5" d="m545 526-7-3-7-7c-2-2-10-9-11-13l-3-14c0-3 2-8 3-8 1-1 3 0 4 3l6 15c1 4 8 12 10 14l-1-18v-9c-1-2-10-6-14-8-3-2-4 0-6-8 0-2 0-3 2-2l6 2c0-3 0-6-5-8-4-2-6-4-7-6-3 0-8-4-9-7-3-2-3-5-4-7-2-3-6-8-3-8l9-1 9 5c4 2 13 5 15 9l6 8 1-9c-1-2-2-4 1-3l8-1c-1-2-1-5 4-5l10 2-1 5 1 13c2-3 3-8 3-15-1-1-4-3-1-6 2-2 6-4 6 0 0 2 0 3 6-3 4-3 7-5 11-5l14-1c2 1 5 2 3 8l-6 14c1 0 6-1 8-3 1-3 3-4 8-4 3-1 5-1 6 2s0 9-6 12c-5 3-16 8-21 13-6 5-18 14-16 23l12-11 6-9c1 0 3 7 2 13-2 6-2 10-12 22-2 3-3 7-6 9l-6 4-10 10-7 4c-3-1-6-3-7-7l-4-1z"/>
  </g>
  <g id="Flower_Stage_12_Sepals" fill="none" stroke="#000" stroke-miterlimit="10" stroke-width=".5" transform="translate(-7 -20)">
    <path id="path380" d="M427 468s14-22 36-21c11 2 20 4 33 18-5-3-25-14-44-8-9 2-21 9-25 11z"/>
    <path id="path382" d="M432 532s31 19 64-6c-1 3-9 19-31 21-11 0-26-5-33-15z"/>
    <path id="path384" d="M493 470s12 16 10 31c-2 9-5 16-9 20-1-3 0-7 3-21 0-9 0-15-4-30z"/>
    <path id="path386" d="M429 475s-26 25 4 49c-1-3-10-19-5-45l1-4z"/>
  </g>
  <g id="Flower_Stage_12_Petals" fill="none" stroke="#000" stroke-miterlimit="10" stroke-width=".5" transform="translate(-7 -20)">
    <path id="path389" d="M436 485s-7-22 18-20c-5 3-13 7-18 20z"/>
    <path id="path391" d="M470 465s20-4 16 19c-2-5-2-11-16-19z"/>
    <path id="path393" d="M438 512s11 13 17 14c-2 2-19 5-17-14z"/>
    <path id="path395" d="M487 508s3 20-15 17c4-3 11-7 14-17z"/>
  </g>
  <g id="Flower_Stage_12_Stamens" fill="none" stroke="#000" stroke-miterlimit="10" stroke-width=".5" transform="translate(-7 -20)">
    <path id="path398" d="M440 497s0-6-5-3c-2 2-5 6 0 9 2 1 6-1 6-5l-1-1z"/>
    <path id="path400" d="M454 482s-3 5-4-1c0-3 0-7 6-7 1 1 4 4 1 8-1 1-2 3-3 0z"/>
    <path id="path402" d="M468 481s-3 3-4-3c0-3 3-8 7-2 1 2 0 10-3 5z"/>
    <path id="path404" d="M483 495s-3-2 2-4c2-1 7 0 6 5-1 1-3 7-9 1 0-1-1-2 1-2z"/>
    <path id="path406" d="M469 509s1-3 4 1c1 3-2 13-8 4-1-2 0-7 4-5z"/>
    <path id="path408" d="M457 509s3-1 3 4c0 2-5 8-9 0 0-2 2-6 6-4z"/>
  </g>
  <g id="Flower_Stage_12_Carpels" transform="translate(-7 -20)">
    <path id="path411" fill="none" stroke="#000" stroke-miterlimit="10" stroke-width=".5" d="M453 492s9-6 16 1c1 2 4 5-3 8-3 1-11 4-14-4-1-2-1-4 1-5z"/>
  </g>
  <g id="Flower_Stage_12" transform="translate(-7 -20)">
    <path id="path414" fill="none" stroke="#000" stroke-miterlimit="10" stroke-width=".5" d="M357 460s1-5 7-8c4-2 6-3 8-1 2-3 7-8 13-1 5 0 15 2 19 13 2 5 6 20 4 32-2 7-5 15-14 28 0 0 1 3-2 7-1 4-5 18-3 24l-10 3c-1-4-5-21-8-26-2-2-3-6-2-8-2-3-24-20-18-44 1-9 5-17 6-19z"/>
  </g>
  <g id="Flower_Stage_10_11" fill="none" stroke="#000" stroke-miterlimit="10" stroke-width=".5" transform="translate(-7 -20)">
    <path id="path417" d="M306 464s4-10 13-1c3 0 8-1 16 17 3 9 8 26-6 44v7l-1 13-19 1c-2-3-5-17-5-20-4-4-15-18-11-45 2-6 10-19 13-16z"/>
    <path id="path419" d="M252 469s3-9 11-1c3 0 12 2 17 23 1 6 4 18-7 34l-2 19-18 1-5-19c-3-5-12-16-10-36 1-9 7-22 14-21z"/>
  </g>
  <g id="Flower_Stage_9" transform="translate(-7 -20)">
    <path id="path422" fill="none" stroke="#000" stroke-miterlimit="10" stroke-width=".5" d="M196 476s3-10 12-1c3 1 7 2 12 14 2 7 7 22-4 39l-1 16-17 2-4-17c-4-5-12-16-10-35 1-7 6-18 12-18z"/>
  </g>
  <g id="Cauline_Leaf" fill="none" stroke="#000" stroke-miterlimit="10" stroke-width=".5" transform="translate(-7 -20)">
    <path id="path425" d="M107 208s9-5 19-3c8 2 15 8 18 25l1 7c0 1 2 5-3 3-5-3-17-9-20-16-3-5-7-14-11-14l-4 2v-4z"/>
    <path id="path427" d="m99 313-7-4c-4-1-16 0-26 9l-8 14-6 16c1 0 15 1 25-9 5-4 11-12 12-14 2-3 5-6 11-6"/>
    <path id="path429" d="m714 318 3 9c1 2 4 4 5 8l5 13 1 14c0 4 0 7-6 16-2 2-5 4-4 8h-3c0-1 1-4-1-4l-6-9-2-10v-5c-2-3-4-9-3-14l5-17c1-4 4-9 6-9"/>
  </g>
  <g id="Entire_Rosette_After_Transition_to_Flowering" transform="translate(-7 -20)">
    <path id="path432" fill="none" stroke="#000" stroke-miterlimit="10" stroke-width=".5" d="M18 400s-2-1 6-12c7-8 15-18 21-21 6-4 12-8 25-3l11 8 7 6 20 13c-3-4-13-13-18-15-3-1-8-5-7-17l3-11c3 2 14 13 16 17l2 8 4 7 1-5 4 4c2 1 3 7 3 9l-1 6c2-3 6-6 8-14 0-4 0-13 3-17 2-3 4-7 10-9 4 0 9-2 11 6 0 2-1 6-7 13l-13 12-3 3 19-10c2-2 18-17 27-16 7 0 22 3 26 5l-7 6c-1 2-3 7-5 6 2 2 11 8 15 13 2 3 12 10 17 11-1 2-18 8-27 5s-14-8-23-15c-5-3-13-8-24-6-7 1-18 5-23 9l-1 1c3 0 24-2 28 3l7 10c-2 2-12 10-23 0-5-5-8-10-12-9 2 2 10 13 16 17 7 1 24 4 28 17l2 16c-3 2-16 11-32-11-4-7-5-8-8-24-2-4-4-8-8-11h-6c-3 0-11 1-14 6-4 5-10 12-22 18-7 3-13 6-23-5-2-4-3-12 1-16s10-11 18-13l39 6c-2-2-13-16-35-17-4 1-10 1-16 6-8 4-17 13-29 9l-11 1z"/>
  </g>
  <g id="Stem_2nd_Internode" transform="translate(-7 -20)">
    <path id="path435" fill="none" stroke="#000" stroke-miterlimit="10" stroke-width=".5" d="M100 303h5v-33c-1-7 0-32 1-36l1-22h-5v18l-2 27a1331 1331 0 0 0 0 46z"/>
  </g>
  <g id="1st_Node" transform="translate(-7 -20)">
    <path id="path438" fill="none" stroke="#000" stroke-miterlimit="10" stroke-width=".5" d="M100 303h5v8l-1 8h-6v-2l-1-1v-1l1-1 1-1 1-4v-6z"/>
  </g>
  <g id="Shoot_Apex_Inflorescence" transform="translate(-7 -20)">
    <path id="path441" fill="none" stroke="#000" stroke-miterlimit="10" stroke-width=".5" d="m259 80-1-16c-2-1-14-5-10-14 3-4 9-11 15-7l2 2c2 0 3 0 8-4 5-3 15-8 22-7 6 1 17 3 21 6l5 5c1 0 3 0 3-4-1-5-1-12 3-14l6-2c3 0 16 3 23 10s5 16 2 23c-3 5-5 10-22 10-2 0-5 3-5 6v5l-72 1z"/>
  </g>
  <g id="Shoot_Apex_Transition" transform="translate(-7 -20)">
    <path id="path444" fill="none" stroke="#000" stroke-miterlimit="10" stroke-width=".5" d="M264 149v-17s-9-6-7-13c1-4 7-10 11-8l4 5c0 1 2 2 3 0 2-1 11-7 31-4 4 1 9 2 13 6 2-1 6-1 3-5-2-3-3-8 3-12 4-2 11-6 18 3 3 3 8 13 2 22-3 4-7 7-18 13v8l-63 2z"/>
  </g>
  <g id="Shoot_Apex_Vegetative" transform="translate(-7 -20)">
    <path id="path447" fill="none" stroke="#000" stroke-miterlimit="10" stroke-width=".5" d="M264 195s-9-7-5-15c3-5 7-8 8-7v8c3 0 30-4 48-1 2 0 5 0 4-6l-2-9c0-1 0-3 3-3 3 1 16 6 16 24l-9 11 1 12-64 3z"/>
  </g>
  <g id="Cotyledon" transform="translate(-7 -20)">
    <path id="path450" fill="none" stroke="#000" stroke-miterlimit="10" stroke-width=".5" d="M156 225s6-10 28-4c3 1 5 3 9 2s11-4 25-2c2 2 10 5 7 12-2 3-6 6-17-1-5-2-9-6-16-5l-4 1c-2-1-6-1-9 1-4 2-14 7-20 5-3-2-6-3-3-9z"/>
  </g>
  <g id="Hypocotyl" transform="translate(-7 -20)">
    <path id="path453" fill="none" stroke="#000" stroke-miterlimit="10" stroke-width=".5" d="m188 228 4-1v29c0 5 1 7-5 13l-11 12-7 16c0-6 1-15 5-20 4-3 9-7 15-17l-1-32z"/>
  </g>
  <g id="Imbibed_seed_24_h" transform="translate(-7 -20)">
    <path id="path456" fill="none" stroke="#000" stroke-miterlimit="10" stroke-width=".5" d="M192 318s2-7 9-5c3 1 7 4 8 12 0 4 0 12-10 11-3-1-7-3-8-13l1-5z"/>
  </g>
  <g id="Dry_seed" transform="translate(-7 -20)">
    <path id="path459" fill="none" stroke="#000" stroke-miterlimit="10" stroke-width=".5" d="M236 363s6-7 12-3c2 2 6 6 5 14-2 4-3 8-9 9-3-1-9-3-9-12l1-8z"/>
  </g>
  <g id="Vegetative_Rosette" transform="translate(-7 -20)">
    <path id="path462" fill="none" stroke="#000" stroke-miterlimit="10" stroke-width=".5" d="M224 294s0-5 16-18c5-3 14-8 20-3l19 13-9-8c-2-3-3-5-2-11l1-5c2 2 12 10 12 13 0 2 1 5 3 7l1-4c1 3 6 6 5 10 1-1 5-3 4-11 1-4 4-10 9-11 3 0 7 0 7 5-1 2-5 9-10 11l-3 4 11-5c2-3 9-9 19-10l16 3-8 8c3 2 10 7 11 10l10 4c-1 1-8 10-26 1-3-4-10-12-23-11l-16 6c0 1 1 2 2 1 3 0 12-3 18 4l3 4c-1 1-9 6-16-1-2-2-4-4-6-4l6 8c4 1 20 5 22 12 1 5 2 8 1 10-2 1-11 7-21-5-3-5-4-7-5-15-1-4-2-6-6-9l-4 1c-3 0-6 0-9 4-4 4-11 13-23 12-4-1-10-5-8-12 2-4 8-8 8-9 4-1 11-3 20 0l12 2c-2-2-7-8-20-10-6 0-12 1-19 6-4 2-6 3-13 3h-9z"/>
  </g>
  <g id="Root" transform="translate(-7 -20)">
    <path id="path465" fill="none" stroke="#000" stroke-miterlimit="10" stroke-width=".5" d="M286 297h3l-1 13c-1 1-4 6-3 10 2 3 8 11 8 14v10l-2 8v8l-2 10c-1 3 0 5 1 7l3 9c-1 4-2 14 0 18-3-4-4-9-3-14v-5c-1-2-5-12-4-16l1-16c2-5 6-13 3-18-3-6-9-12-8-19l3-12 1-7z"/>
  </g>
  <g id="outlines" fill="none" stroke="#000" stroke-miterlimit="10" stroke-width=".5" transform="translate(-7 -20)">
    <path id="path468" d="m406 131 1-4v-10l-1-3m-4 18 1-9v-1l1-6m-2-25h3"/>
    <path id="path470" d="M442 115v13m-2-13v3l-1 3v4l-2 3m3-59h3m-3 1"/>
    <path id="path472" d="m486 117-1 3v1l-3 5a22 22 0 0 0-1 2l-1 1m5 3 2-4a53 53 0 0 0 2-5v-5m-7-62a7 7 0 0 0-2 0"/>
    <path id="path474" d="M527 139v-1l1-2 1-3 1-6c4-2 3-7 3-10v-6l1-5 1-5v-6l1-12v-4l1-6V43s1 1 0 0a1 1 0 0 0 0-1l-1-1h-3l-3 6-1 7v1a67 67 0 0 0-1 5v6l-1 12v1l-1 11-1 12-1 6v6l1 6 1 5-2 5-2 7m8-10-4-2m10-83-3 2"/>
    <path id="path476" d="M575 153c2 0 1-4 1-5v-8l1-2v-1l4-6 2-8v-18l1-8v-7l2-16 1-5 1-4a98 98 0 0 0 3-17c1-1 1-4-1-6-1-1 2 2 0 0h-3l-3 4-2 5-1 5v1l-2 7-1 7-1 6-1 7-1 7v6l-1 6-2 7v1a49 49 0 0 0 0 8v8l1 7c-1 2-2 5 0 6l-1 2v7l-1 2m2-11c2 2 3 0 3 0"/>
    <path id="path478" d="M633 163v-2l1-3 2-6 2-6 1-5 1-3 1-4 1-9-1-6V67l1-8V47s0 3 0 0l-1-1-1-8c0-2-2-3-4-3-2 1-2 3-3 5v7l-1 3-1 4v28l1 14v22l1 7 1 8 1 6-1 2-1 2v1l-1 6-2 2v4l-1 6m6-23c1 3 3 2 4 2"/>
    <path id="path480" d="M700 160v-4c0-1 0 1 0 0l-1-5-1-4c-1-3-1-6-3-8v-14c1-3-1-6-1-9l-1-9-2-9v-4l-1-5-1-9-2-10v-9l-1-4-1-4-1-4v-4c-1-2-3-3-5-2-2 0-2 2-2 4l-1 4v13l2 10 1 9 2 18a167 167 0 0 0 3 19 188 188 0 0 0 3 11 201 201 0 0 0 2 6l2 3 1 9 2 9 1 3m-4-21c3 3 3-1 4-1"/>
    <path id="path482" d="m771 164-3-10-4-10-1-4-2-3v-8l-3-7-1-7-2-7v-6l-1-5-1-11-1-11v-5l-1-5V53l-1-5-1-5c-1-3-1-6-4-6-1-1-3 0-3 1v4l-1 5a44 44 0 0 0 0 5v20l2 7 1 8v15l2 8v3l2 3 1 7v1l1 6h1l2 4 4 4v3l1 4a196 196 0 0 0 3 6l3 7 1 4m-8-24 4-2m0 1v-1"/>
    <path id="path484" d="M763 196a25 25 0 0 0-7-15l-2-3-3-2c-3-2-5-2-8-1-3 0-6 0-8 2l-4 6-4 17v1c0 3 2 6 4 8 1 2 3 5 6 4 0 3 3 4 6 4a7 7 0 0 0 3-2l3-3v-1a15 15 0 0 0 3-7l1 7 2 6c2 2 4 1 5-1l2-6v-1l1-12v-1c0-1 0 0 0 0zm-26 17c-1-1 1-7 1-9v-4l1-4v-1l1-3 1-3m8 2 1 3a19 19 0 0 0 1 5l1 5"/>
    <path id="path486" d="m702 186-2-4-2-3a20 20 0 0 0-5-5 11 11 0 0 0-14 1l-5 6-2 4-1 5v13l3 3h3c0 2 2 4 5 4 2 1 5 0 7-3l1-1v6c0 2 1 5 3 5 1 1 3 0 4-2l3-5c2-4 4-8 4-12v-6a21 21 0 0 0-2-6zm-25 20 2-6v-5l1-4 1-1 1-2m7 4v7l1 7"/>
    <path id="path488" d="m643 203-2 3-2 2-4 2v-17l-1 1v8l-2 5c-1 2-2 2-4 2v-7l1-3v-1l1-4v-1l-1 1-1 4-1 4v7h-3l-2-2-2-2v-12h1l1-4c1-2 2-3 4-3v-1l4-1h7l2 2c3 3 5 8 5 12v1l-1 4c0 1 1-2 0 0z"/>
    <path id="path490" d="m600 196-1 3v5l-2 4-2 4c-2 1-2-1-2-3a220 220 0 0 1 0-5l-2-6a29 29 0 0 0-4-5l-2-2c-1 0-2 0-1-1 0-2 3-2 4-2 3 2 7 3 7 7h1c0-4-4-6-7-7a2 2 0 0 0 0-1l-3-2 1-2c2-1 5 0 7 1l4 5c2 2 2 4 2 7 0 1 0-1 0 0z"/>
    <path id="path492" d="m547 206-1 4-1 2-3 1-2-2v-4c0-2 0-4-2-5l-2-2-2-2c-2-1-4 0-5-2v-4l3-1h4v-3l1-2c2-2 5-1 6 0l2 3v4l1 3 1 3v7c0 1 0 0 0 0z"/>
    <path id="path494" d="M493 201h3l1 3c0 1 0-1 0 0l-2 4-4 3-3 3c-1 1-2 0-2-1v-4l1-6c-1-1 0-3 1-3h2l2 1c1 2-1 4-1 6"/>
    <path id="path496" d="m458 200-1 4a33 33 0 0 1-2 4 39 39 0 0 1-2 4l-3 4c-1-2 0-4 1-5l2-6-1-6 2-2 2 2 1 1v-1c-1-1 0-1 1-1v2z"/>
    <path id="path498" d="m412 209-3 2-1 4-2 2c-1-1 0-3 1-4 1-3 0-6 3-8 1-1 2 0 2 1v3s1-2 0 0z"/>
    <path id="path500" d="M750 334v4l-1 4 3 6 2 8-1 8v5s0-2 0 0"/>
    <path id="path502" d="m715 344 1 3v2l1 1v10l1 11v1"/>
    <path id="path504" d="M717 359s0-1 0 0l-1-1-3-4"/>
    <path id="path506" d="m722 363-2 2-2 2s1 0 0 0"/>
    <path id="path510" d="m674 343 1 2 1 1v2l1 1a42 42 0 0 0 0 2l-1 8v7"/>
    <path id="path512" d="M677 339v12"/>
    <path id="path514" d="m640 354 2-4 1-1v-1l1-2"/>
    <path id="path516" d="M640 330v19l1 8v7l1 1v1"/>
    <path id="path518" d="m597 327-5-28"/>
    <path id="path520" d="m597 319-3-25"/>
    <path id="path522" d="m598 334-1-18v3s-1-8 5-13"/>
    <path id="path524" d="M598 342v-8s-1 0 0 0"/>
    <path id="path526" d="m593 327 5 7"/>
    <path id="path528" d="m540 283 2 18"/>
    <path id="path530" d="m545 300-2-19"/>
    <path id="path532" d="M546 319v23"/>
    <path id="path534" d="M494 340v-10c0-11 2-20 2-20"/>
    <path id="path536" d="m495 353-1-13c0-4 2-7 2-7"/>
    <path id="path538" d="m490 323 4 17"/>
    <path id="path542" d="m409 376-2-10"/>
    <path id="path544" d="M377 367v9"/>
    <path id="path546" d="M759 477v1l1 2 2 4a55 55 0 0 1 2 10v2a49 49 0 0 0 0 2v4l-1 4-1 3-1 1-4 2-1 1a11 11 0 0 1-1 0l-4-1-2-2-1-1-1-2-2-4v-10a25 25 0 0 1 1-4v-2a45 45 0 0 1 1-5v-2"/>
    <path id="path548" d="M664 468c2 0 3 5 3 5l-1 3h-2v-3l-1-1-1 1v2c-1 1-2 2-3 1l-1-2v-4l2-1 4-1z"/>
    <path id="path550" d="m673 473 2-3 3-2 2 1c2 0 3 4 3 6l-2 1h-2v-1l-1-3-1 1v2l-2 1h-1l-1-3z"/>
    <path id="path552" d="m699 493-1 1-1-1v-3l3-2 3 1c2 1 3 4 2 6 0 2-2 5-5 4l-2-1-1-2v-1h2"/>
    <path id="path554" d="M637 490h4l2 1v2l-2 1v2h1l1 1v3l-4 2h-2l-4-5c0-3 1-6 4-7z"/>
    <path id="path556" d="M669 495v-4m-1-4a88 88 0 0 1-1 4 81 81 0 0 0 0 12"/>
    <path id="path558" d="M669 519v-1l1-3 1-1 1 1 1 1v2h2v-3h2l1 4-2 2-4 1h-2l-1-3z"/>
    <path id="path560" d="m663 522-3 1-3-1c-3-1-1-5-1-6l2-1v3h2v-2h1v-1h1c1 2 2 5 1 7z"/>
    <path id="path562" d="m595 438-1 1h-1l-1 1-1 1-3 3-2 2a96 96 0 0 0-4 4l-4 4v1"/>
    <path id="path564" d="m587 434-1 1-3 3-7 7"/>
    <path id="path566" d="M619 443zm0 0-2 2-2 2-3 1h-1a53 53 0 0 1-3 2h-2l-2 1-4 2h-1a45 45 0 0 1-9 5l1-1 3-2 1-1 3-5m-37 44 3-2v-1h1l1-2v-2l1-1v-9a26 26 0 0 1 1-6v-3l1-1v-1l3 2a12 12 0 0 0 2 0v1l-2 2-1 4-1 8 1 5m-8-29-2 7-1 5a26 26 0 0 0 0 5l1 10v17m15-37-4 1-2-2v-2h-1l1-2h3c2 0 3 1 3 3v2zm-12 25v-11c-1-6 1-15 2-21s2-16 4-21c0 1-1 5-4 5-1 0 0 0 0 0m-5 2c-3 3-9 1-10 0l-2-1a7 7 0 0 1-1-1m-9 5 3 1h1l4-2 1-4v27m-10-14v3l1 7 1 2v4-2m-13 1a23 23 0 0 0 9 1h4l3-1h4l3 1 1 1 4 4v12l1 4v3a34 34 0 0 1-1 11v3h-1v2h1m-6-37h-4a21 21 0 0 1-2 1 9 9 0 0 0-1 0h-4a78 78 0 0 1-2-1l-4-1-4-1m11 14 1 3h1c1 3 3 5 3 8a287 287 0 0 0 3 21l1 1v3h1a6 6 0 0 0-1 1 19 19 0 0 1-1-1l-1-1-2-3a31 31 0 0 0-1-2l-1-1v-1l-2-1m7 14 7-12 1-3 1-1 1-2 1-2 4-7 2-2 3-4 2-4 3 1 3 3s0-1 0 0m0 0v3l-1 3v9l-3 13m23-48v2l-1 1-1 6-2 3-3 9-1 1-2 3a16 16 0 0 1-2 2l-1 2v1h-1l-3 3a37 37 0 0 1-1 2 4 4 0 0 0-1 1v-6l1-4v-2l1-6m-6-5-2 3 3-4a31 31 0 0 0 0-2l1-3 1-2 1-2 1-2 1-2 2-3v-1l1-1 1-1h1l3-3 6-7"/>
    <path id="path568" d="m551 497-1-1v-2l-1-5a73 73 0 0 0-2-5l-1-3h-1v-2"/>
    <path id="path570" d="M528 461c1-1-1-2-1-3l-4-4-4-2-2-2h-1l-1-1"/>
    <path id="path572" d="m511 442 1 1h1l2 2a70 70 0 0 1 10 7l1 1a20 20 0 0 1 2 2"/>
    <path id="path574" d="m456 475 2 4-2 4h-1v-3h-2l-1 3-1-3c-1-1 0-3 1-4l3-2 1 1z"/>
    <path id="path576" d="m466 475 2-1c2 0 3 2 3 5l-1 2-1 1-1-1 1-2h-2v2h-1l-1-3 1-3z"/>
    <path id="path578" d="m485 499-2-3h1v-2h-1l2-2h5v4c-1 2-3 4-5 3z"/>
    <path id="path580" d="M466 509h2v3h1l1-3h1c2 1 2 4 1 6l-3 2c-1 0-3-2-4-5l1-3z"/>
    <path id="path582" d="m459 515-3 1h-2c-2-1-2-3-2-5l3-2v3h2v-3l1 1c1 2 2 4 1 5z"/>
    <path id="path584" d="m437 494 2 1v2a2 2 0 0 1-1 0v1h1l1 1-1 2-3 2-3-2v-4l4-3z"/>
    <path id="path586" d="M460 490v12"/>
    <path id="path588" d="m372 451-8 16c-11 31 5 45 5 46m22 0c22-33 0-57-6-63m-15 74 14 2 9-2"/>
    <path id="path590" d="m304 526 14 1c4 0 8 0 11-2m-23-61c-3 4-17 30 0 53m17 3c17-27 0-52-4-57"/>
    <path id="path592" d="M264 468s18 21 3 52m-15-2s-16-23 0-49m-3 58 11 1 12-2"/>
    <path id="path594" d="M195 530a129 129 0 0 0 20-2m-7-53c1 1 16 23 1 48m-12-2s-15-19-1-44"/>
    <path id="path596" d="M104 475c2-6 0-12-2-17l-1-2c-3-8 4-16 4-16"/>
    <path id="path598" d="m126 379 12-17"/>
    <path id="path600" d="M140 407c-2-6-11-6-11-6"/>
    <path id="path602" d="M84 403c-6 2-20 11-20 11"/>
    <path id="path604" d="M96 404c-9-2-24 14-24 15"/>
    <path id="path606" d="M76 377c-24-3-40 10-40 10"/>
    <path id="path608" d="M100 377c-4-4-8-14-8-14"/>
    <path id="path610" d="m111 383 2 4"/>
    <path id="path612" d="M146 441c-4-9-14-19-14-19"/>
    <path id="path614" d="M108 379v1-1m8 13v-4l2-9-1-14-7-18 5-2v-1l-13 4 1 1 2-1 5 13c3 7 3 9 3 13v4m11 71c-1-1-5-5-6-10l-4-16m7 56c1 1 6 5 6 12s0 11 2 14c2 2 5 5 4 14m-2 56c-2-2-3-5-3-7v-2l-2-11c0-5-6-9-6-9l1 1m-17 11c0-2 0-4 2-7 1-3-1-10-2-15-1-6 5-12 7-14m51-147-19 3m35-7c-9-1-16 2-17 2m22 6c-5-2-14-4-21-4m-53 26 3-1 1-5-2-2c-1-3-4-7-3-13m7 25v3l-1 4v2c0 4 1 8-1 10v1l-1 2c-3 4-6 8-2 17l5 9c3 3 5 7 5 12l1 4-1 19h-1c-2 6-3 9-3 16l-2 14v3c-1 4 1 9 2 11l2 7 1 2v1l1 10c0 4-2 12 0 23-2-4-3-9-3-16v-1c1-12 1-16-5-27-2-5-1-12 1-18v-8l1-12a136 136 0 0 1 1-2c2-5 4-11 3-23-1-6-2-11-8-18-2-3-7-11-5-17l2-5c2-4 5-10 5-15l-2-8"/>
    <path id="path616" d="M193 396c-25-22-43-15-43-15"/>
    <path id="path618" d="M97 314c-14-1-24 17-25 18"/>
    <path id="path620" d="M131 222c-6-13-15-14-15-14"/>
    <path id="path622" d="M99 319c0 11 4 22 5 24l-5 2v1l14-4v-1l-5 1c-1-2-4-12-4-23m-4-10a88 88 0 0 1-22-40l-1-3c-6-21-5-44-5-47 11-1 15 7 18 13l1 2 1 2v-2c1-7-1-12-5-15-5-5-13-5-16-4v-6h2c2-1 4-2 4-4l-1-3a2 2 0 0 0-2 0h-1l1-1-2-2a5 5 0 0 0-1 0l1-1v-3l1-1v-2c-1-2-2-2-3-1l-2-1c-1-1-2 0-2 1l2 4v4h-1c-2 0-2 1-3 2v2c-2 1-2 3-1 4l1 1a1 1 0 0 0 0 1v1h3v3c-3-3-7-4-10-3-5 1-8 7-9 10h1c9-9 13-6 16-4h1c-1 1-5 4-7 8-3 3-4 7-3 14 0 6 3 9 5 10h1v-1l1-6 2-8 2-11 1 18c1 16 6 30 9 38v2c4 14 11 24 16 29m24-235v6a361 361 0 0 0 1 18l1 9a598 598 0 0 0-3 7l-7 33-4-9a225 225 0 0 1-2-3l-3-6c-1-3-3-5-3-8-1-6-5-11-8-16l-3-4c-1 0-10-14-14-14a2 2 0 0 0-1 0h-1a2 2 0 0 0 0 1c0 2 3 6 5 8l2 2a138 138 0 0 1 16 25l3 3 2 3 1 1 2 2a89 89 0 0 1 1 3 233 233 0 0 0 7 14 585 585 0 0 0-5 23c0-2-3-3-4-5l-3-2c-4-6-7-8-10-8 0-3-10-8-10-8l-10-1h-8l-2 1h-2c-4 0-9 0-11 2a3 3 0 0 0-1 2c0 2 3 3 8 3l12-1 4-1h1a23 23 0 0 1 10 2l6 2a5 5 0 0 0 2 0h1c1 0 4 1 10 7l2 3c2 2 5 5 5 7l-2 37m50-164a21 21 0 0 1-1 1 59 59 0 0 1-2 2l-3 2-3 3 5-9c2 0 5-3 6-5l1-1v-1l-2-3 1-2 3-2-1-1-1 1a4 4 0 0 0-1 0v-1l-2-1a6 6 0 0 0-1-1v-2l-1 7-2 1-1 3-3 1-1 2v-5l1-4-2-2-2 1-3 6c-1 3 1 6 2 7v14a162 162 0 0 0-4 8 57 57 0 0 0 0-2v-1a186 186 0 0 1 1-25v-2c0-3 0-6-2-7a2 2 0 0 0-1-1v14l1 6v11l-1 10-13 35-1-8c-1-4-2-9-1-14l-1-10m27-8-4 6-2 2-2 2-2 3 8-19 2-2 3-4a61 61 0 0 1 2-1l4-3c2-1 7-4 7-6l-1-2h-2c-2 1-5 6-5 7m13 26c-2-1-7 1-11 3-8 4-14 10-20 18l-12 21c2-10 5-21 8-27l2-6 2-3 1-2 2-2 2-2 2-3 4-6m-38 143 2-22 5-9 3-1 4-4h2c3 0 6-1 8-4a112 112 0 0 0 1-1c2-3 4-5 7-6a158 158 0 0 1 19-10c5-2 8-5 8-7l-2-2a13 13 0 0 0-6 2c-14 6-29 13-37 27l-1 1-4 3-2 2a23 23 0 0 0-5 6 170 170 0 0 1 2-17v-1l2-3 4-6a216 216 0 0 1 7-7l9-6 16-13a351 351 0 0 0 4-2 271 271 0 0 1 6-3v-1c3-1 7-4 7-6v-1h-1c-4 0-7 2-10 3l-15 10-2 1-9 8-1 2-4 6-1 1v1l-4 4-3 3-4 5a89 89 0 0 1-1 2 265 265 0 0 1 9-40l1-2c3-7 8-13 15-19a101 101 0 0 1 2-3l11-8 11-8 1-1c1-1 4-4 4-6a2 2 0 0 0 0-1v-1M68 207l1-1a3 3 0 0 1 1-1h1m1-1zm-1 4h1l1-3m-2-7-1 1-1 2-1-1h1v-3a31 31 0 0 0 0-1 10 10 0 0 0 2 0v2zm-2-3 1-3m-1-1v2m-1 12a3 3 0 0 0-1-1l-2-1m1 4 1 1m74-160-1 3a68 68 0 0 0 0-6v2m1-5 1-1v1l-1 1v-1zm1 7zm5-3-5 10v-1l1-2 1-4 1-2 1-2 1-2v3zm2-3v-3a9 9 0 0 0 0 1v2zm1 1v-3l1-3m-6 3v3m-2-1a19 19 0 0 0-1 1l1-1zm-1-11a2 2 0 0 1 1 1l-1 3h-1v-1h-1l1-2 1-1zm-3 8 1-3m-1 4v2l-1-5v1l1-2v-1h1"/>
    <path id="path624" d="m64 222-1 2-1 1"/>
    <path id="path626" d="m60 230-1 7v1"/>
    <path id="path628" d="m245 368 1 2v4l-1 2-2 1c-1 0-2-1-2-3l1-6v-1a71 71 0 0 1-1 2l-1 3a8 8 0 0 0 0 2l-1 1-1-7c0-2 1-6 4-7a4 4 0 0 1 1 0l5 2 3 8v5l-2 1-2-3v-5l-1-1h-1z"/>
    <path id="path630" d="M206 331h-1l-2-5v-3a17 17 0 0 0-1-1v4l-1 4h-3l-1-3 1-5v-1l-1 2c-1 5-2 6-3 6v-7c0-3 1-6 4-7a6 6 0 0 1 2 0l5 2 2 8-1 6z"/>
    <path id="path632" d="M293 344c1 0 4 3 4 7 0 5 0 8 2 9 1 1 2 5 1 8m-1 34-1-4-2-9c0-3-3-4-3-4l-1-1m5 42c0-1-1-14-4-22m-7-35s-6 5-5 10v1c1 4 2 7-1 13m2-74c-1 0-5 5-4 10l1 3c2 3 3 6 1 9m8-31 2 9c1 4 2 5 4 6m37-49h-1l-5-1-6 3m-35 4v7h1l-7-5m30-3 11-3 17 4m-46 9 7-5"/>
    <path id="path634" d="M309 320c-1-4-9-12-9-12"/>
    <path id="path636" d="M306 299c-1-3-7-4-8-4"/>
    <path id="path638" d="M268 298c-6 0-13 5-14 5"/>
    <path id="path640" d="M276 297c-6 0-16 8-16 9"/>
    <path id="path642" d="M262 280c-14-1-26 7-26 7"/>
    <path id="path644" d="M279 280c-2-1-4-6-5-8"/>
    <path id="path646" d="M288 289v-3l-1-2-1-1"/>
    <path id="path648" d="M302 271a48 48 0 0 0-4 5l-1 4-1 2"/>
    <path id="path654" d="m339 292-3-2-2-2c-4-3-12-6-22-5"/>
    <path id="path656" d="m178 278 3 6m-4 7-1-10m-2 16-1-2v-1l-1-5m-1 14-1-7v-3m-4 22 3-19m-6 15c0-2 3-6 5-8m1-9-4 6-2 2m4-10 1-3 2-2m5-11c-3 1-8 6-8 7"/>
    <path id="path658" d="m219 231-5-4h-1l-6-2"/>
    <path id="path662" d="m177 222-9 1c-2 1-5 2-6 4"/>
  </g>
  <g id="labels" fill="none" stroke="#000" stroke-miterlimit="10" stroke-width=".5" font-family="Helvetica" font-size="10" transform="translate(-7 -20)">
    <text id="text665" display="inline" transform="translate(72 60)">Seed/</text>
    <text id="text667" display="inline" transform="translate(72 69)">Silique 5</text>
    <text id="text669" display="inline" transform="translate(162 30)">Seed/</text>
    <text id="text671" display="inline" transform="translate(162 39)">Silique 4</text>
    <text id="text673" display="inline" transform="translate(195 67)">Shoot Apex</text>
    <text id="text675" display="inline" transform="translate(195 76)">Inflorescence</text>
    <text id="text677" display="inline" transform="translate(207 137)">Shoot Apex</text>
    <text id="text679" display="inline" transform="translate(207 146)">   Transition </text>
    <text id="text681" display="inline" transform="translate(207 199)">Shoot Apex</text>
    <text id="text683" display="inline" transform="translate(207 208)">  Vegetative</text>
    <text id="text685" display="inline" transform="translate(115 198)">Cauline Leaf</text>
    <text id="text687" display="inline" transform="translate(108 261)">2nd Internode</text>
    <text id="text689" display="inline" transform="translate(107 315)">1st node</text>
    <text id="text691" display="inline" transform="translate(11 309)">Cauline Leaf</text>
    <text id="text693" display="inline" transform="translate(207 246)">Cotyledons</text>
    <text id="text695" display="inline" transform="translate(195 267)">Hypocotyl</text>
    <text id="text697" display="inline" transform="translate(179 293)">Root</text>
    <text id="text699" display="inline" transform="translate(173 347)">24h Imbibed</text>
    <text id="text701" display="inline" transform="translate(188 356)">Seed</text>
    <text id="text703" display="inline" transform="translate(224 394)">Dry Seed</text>
    <text id="text705" display="inline" transform="translate(293 379)">Root</text>
    <text id="text707" display="inline" transform="translate(326 312)">Vegetative</text>
    <text id="text709" display="inline" transform="translate(326 321)">Roesette</text>
    <text id="text711" display="inline" transform="translate(169 425)">Entire Rosette</text>
    <text id="text713" display="inline" transform="translate(169 434)">after transition</text>
    <text id="text715" display="inline" transform="translate(169 443)">to flowering</text>
    <text id="text717" display="inline" transform="translate(354 234)">Seed</text>
    <text id="text719" display="inline" transform="translate(354 243)">Silique</text>
    <text id="text721" display="inline" transform="translate(354 252)">Embryo</text>
    <text id="text723" display="inline" transform="translate(403 234)">3</text>
    <text id="text725" display="inline" transform="translate(403 243)">+</text>
    <text id="text727" display="inline" transform="translate(445 234)">4</text>
    <text id="text729" display="inline" transform="translate(445 243)">+</text>
    <text id="text731" display="inline" transform="translate(487 234)">5</text>
    <text id="text733" display="inline" transform="translate(487 243)">+</text>
    <text id="text735" display="inline" transform="translate(535 234)">6</text>
    <text id="text737" display="inline" transform="translate(536 243)">-</text>
    <text id="text739" display="inline" transform="translate(585 234)">7</text>
    <text id="text741" display="inline" transform="translate(586 243)">-</text>
    <text id="text743" display="inline" transform="translate(626 234)">8</text>
    <text id="text745" display="inline" transform="translate(627 243)">-</text>
    <text id="text747" display="inline" transform="translate(686 234)">9</text>
    <text id="text749" display="inline" transform="translate(687 243)">-</text>
    <text id="text751" display="inline" transform="translate(740 234)">10 </text>
    <text id="text753" display="inline" transform="translate(744 243)">-</text>
    <text id="text755" display="inline" transform="translate(405 254)">globular</text>
    <text id="text757" display="inline" transform="translate(464 254)">heart</text>
    <text id="text759" display="inline" transform="translate(499 254)">torpedo</text>
    <text id="text761" display="inline" transform="translate(542 254)">walking-stick</text>
    <text id="text763" display="inline" transform="translate(617 254)">curled</text>
    <text id="text765" display="inline" transform="translate(656 254)">cotyledons</text>
    <text id="text767" display="inline" transform="translate(715 254)">green cotyledons</text>
    <text id="text769" display="inline" transform="translate(339 410)">Leaf</text>
    <text id="text771" display="inline" transform="translate(376 410)">1</text>
    <text id="text773" display="inline" transform="translate(408 410)">2</text>
    <text id="text775" display="inline" transform="translate(449 410)">4</text>
    <text id="text777" display="inline" transform="translate(495 410)">6</text>
    <text id="text779" display="inline" transform="translate(546 410)">7</text>
    <text id="text781" display="inline" transform="translate(510 419)">(dist/prox/petiole)</text>
    <text id="text783" display="inline" transform="translate(601 410)">8</text>
    <text id="text785" display="inline" transform="translate(638 410)">10</text>
    <text id="text787" display="inline" transform="translate(671 410)">12</text>
    <text id="text789" display="inline" transform="translate(700 410)">Cauline</text>
    <text id="text791" display="inline" transform="translate(743 410)">Senescent</text>
    <text id="text793" display="inline" transform="translate(145 568)">Flowers</text>
    <text id="text795" display="inline" transform="translate(204 568)">9</text>
    <text id="text797" display="inline" transform="translate(256 568)">10</text>
    <text id="text799" display="inline" transform="translate(311 568)">11</text>
    <text id="text801" display="inline" transform="translate(378 568)">12</text>
    <text id="text803" display="inline" transform="translate(462 568)">12</text>
    <text id="text805" display="inline" transform="translate(425 577)">(sep/pet/stam/carp)</text>
    <text id="text807" display="inline" transform="translate(552 568)">15</text>
    <text id="text809" display="inline" transform="translate(524 577)">(flower/pedicel)</text>
    <text id="text811" display="inline" transform="translate(662 568)">15</text>
    <text id="text813" display="inline" transform="translate(625 577)">(sep/pet/stam/carp)</text>
    <text id="text815" display="inline" transform="translate(730 568)">mature pollen</text>
  </g>
  <path id="path818" fill="none" stroke="#000" stroke-miterlimit="10" stroke-width=".5" d="M439 324v17"/>
</svg>