<svg xmlns="http://www.w3.org/2000/svg" id="BioticStressGolovinomycesorontii_svg" viewBox="10 15 200 145"><g id="ColLaserMicrodissected-5dUninfected"><path d="M165.44 23.739c-1.5135-.94595-6.527-.18919-6.527-.18919-1.4189-1.0405-5.2027.000001-5.2027.000001-2.0811-1.4189-6.2432 0-6.2432 0s-2.7905-.66216-5.3919-.33108c0 0-1.5135.66216-.33109 2.223.75676-.09459 1.7027.28378 1.7027.28378.61486-.23649 2.8851-.18919 2.8851-.18919.56757-.18919 1.4189-.52027 1.4189-.52027.70946.23649 1.1351.33108 1.1351.33108l3.4527.18919c.28379-.37838 1.5608-.56757 1.5608-.56757.47298.47297 2.2703.37838 2.2703.37838l3.0743-.14189c1.75.42568 3.6419.37838 3.6419.37838l2.4595-.23649.0946-1.6081" fill="none" id="path32-8" stroke="#000000" stroke-miterlimit="10" stroke-width=".1"/><path d="M147.46 23.55s.80406.52027.28379 1.4662" fill="none" id="path40-1" stroke="#000000" stroke-miterlimit="10" stroke-width=".1"/><path d="M153.71 23.55l.18919 1.4189" fill="none" id="path42-8" stroke="#000000" stroke-miterlimit="10" stroke-width=".1"/><path d="M158.91 23.55l.33108 1.6554" fill="none" id="path44-3" stroke="#000000" stroke-miterlimit="10" stroke-width=".1"/><path d="M155.46 25.389s-1.0953.05259-1.5683-.42038c0 0-1.277.18919-1.5608.56757l-3.4527-.18919s-.42568-.09459-1.1351-.33108c0 0-.85135.33108-1.4189.52027 0 0-2.2703-.0473-2.8851.18919 0 0-.94595-.37838-1.7027-.28378l-.83752.13683.13378 7.7925s.96988 1.1706 2.2073.33444c0 0 1.2709 1.9398 3.1772-.03345 0 0 1.5719.46822 2.2742-.13378.0377-.16037 1.953 1.2232 3.8461-.301.013-.06516 1.432 1.0339 3.4448-.26756-.10378-.25944.24276 1.1262 1.9564 1.3135.18133-.59042.95287-1.2682 1.4883-1.3804 0 0 1.3043 1.0368 2.7759.36789 0 0 .76922-.33444.76922-.76922 0 0 .49406.46136 1.2633.56169.53176-.18217.98983-.16761 1.2116-.58227 0 0 .61771-3.3519-.10919-7.1338l-2.4595.23649s-.88864.27312-2.6386-.15256l-.88046 1.0062s-1.4674-2.0125-3.438-.16771l-.46119-.88046" fill="none" id="path36-7" stroke="#000000" stroke-miterlimit="10" stroke-width=".1"/><path d="M162.88 25.584s.76266 1.6337.42822 4.2758l-.33444 2.6421" fill="none" id="path58-5" stroke="#000000" stroke-miterlimit="10" stroke-width=".1"/><path d="M152.33 25.536l.20648 7.701" fill="none" id="path64-0" stroke="#000000" stroke-miterlimit="10" stroke-width=".1"/><path d="M148.7 33.538l.18691-8.1912" fill="none" id="path66-8" stroke="#000000" stroke-miterlimit="10" stroke-width=".1"/><path d="M146.33 25.536s.46082 2.5171.0261 4.39c-.43477 1.8729.0669 3.7458.0669 3.7458" fill="none" id="path68-2" stroke="#000000" stroke-miterlimit="10" stroke-width=".1"/><path d="M143.44 25.726s.36942 1.9266.035 3.7995c-.33444 1.8729-.2341 4.1805-.2341 4.1805" fill="none" id="path70-0" stroke="#000000" stroke-miterlimit="10" stroke-width=".1"/><path d="M155.99 32.97s-.39639-.20156-.061-1.5013c.37734-2.4737 0-5.1989 0-5.1989" fill="none" id="path119-2" stroke="#000000" stroke-miterlimit="10" stroke-width=".1"/><path d="M159.43 32.903s-.78054-1.0571-.19356-3.4049c.58696-2.3479.12577-3.0606.12577-3.0606" fill="none" id="path121-1" stroke="#000000" stroke-miterlimit="10" stroke-width=".1"/><path d="M165.62 22.268l-24.615-.13378-.10034 3.4448.83753-.13684c-1.1824-1.5608.33108-2.223.33108-2.223 2.6014-.33108 5.3919.33108 5.3919.33108s4.1622-1.4189 6.2432 0c0 0 3.7838-1.0405 5.2027-.000001 0 0 5.0135-.75676 6.527.18919l.18182-1.4714" fill="none" id="path125-0" stroke="#000000" stroke-miterlimit="10" stroke-width=".1"/><path d="M146.08 38.691c2.3717-2.4903 1.1859-3.9726 1.1859-3.9726-.88939-1.3637-3.0239.11858-3.0239.11858l-2.016 1.7195s-.23717 1.2451.11859 1.8677c0 0 .94868 2.8164 3.7354.26681" fill="none" id="path237-3" stroke="#000000" stroke-miterlimit="10" stroke-width=".1"/><path d="M147.5 35.993s.47435-2.3421 2.7275-2.0753c0 0 1.7788.11859 2.3717.68187 0 0 .17788-.85974 1.1266-.97833 0 0 2.9226-.27741 4.2184.66175 0 0 1.8591 3.2812-1.1352 4.4671 0 0-1.7491.26682-2.6385-.53364 0 0-3.7947 3.35-6.6704-2.2235" fill="none" id="path241-2" stroke="#000000" stroke-miterlimit="10" stroke-width=".1"/><path d="M152.6 34.6s3.7355 1.8381 1.5713 3.6169" fill="none" id="path243-5" stroke="#000000" stroke-miterlimit="10" stroke-width=".1"/><path d="M145.87 44.769s-3.4686-1.8677.20752-6.0775c0 0 2.3717-1.3341 4.2098.26682 0 0 2.9054 4.1802-2.4607 6.2258 0 0 2.2828 1.8084-.0593 3.7651.9171-.0027 2.3741.56329 2.3741.56329h-4.5087s-4.1505-2.3421.23718-4.7434" fill="none" id="path245-9" stroke="#000000" stroke-miterlimit="10" stroke-width=".1"/><path d="M145.87 44.769s.7708.68187 1.9567.41505" fill="none" id="path247-2" stroke="#000000" stroke-miterlimit="10" stroke-width=".1"/><path d="M160.29 36.29s-5.5762 1.8028-.7966 5.8697c0 0 4.0778-.1186 3.0699-4.0319 0 0-.69249-1.8078-2.2733-1.8378" fill="none" id="path259-4" stroke="#000000" stroke-miterlimit="10" stroke-width=".1"/><path d="M157.94 34.283s.6136-1.2097 1.4883-1.3804c0 0 2.1792.48148 2.6239.3036 0 0 .80046.35575.8894.7708 0 0-.85975 1.6602-.97834 1.7491-.11858.08894-2.1345 1.2748-3.5279-.26681l-.49534-1.1763" fill="none" id="path261-0" stroke="#000000" stroke-miterlimit="10" stroke-width=".1"/><path d="M165.45 32.481l-.002 6.7439c.3533.40614-2.5832-.40868-3.4859-1.9286 0 0-.57014-3.4674 3.4883-4.8153h.00003" fill="none" id="path265-5" stroke="#000000" stroke-miterlimit="10" stroke-width=".1"/><path d="M162.72 49.525c.0252-.17719.0421-.36898.0495-.57651 0 0 3.7354-.91904 2.016-4.1505 0 0-.85975-2.9943-4.1209-2.6089 0 0-4.0912 1.6898-.23717 6.285 0 0-2.1344.08315-2.1293 1.0645l4.4219-.01363" fill="none" id="path255-3" stroke="#000000" stroke-miterlimit="10" stroke-width=".1"/><path d="M160.42 48.474s.50399.56329 1.3341.11858c.8301-.44469 1.008.35576 1.008.35576" fill="none" id="path257-8" stroke="#000000" stroke-miterlimit="10" stroke-width=".1"/><path d="M145.63 49.512s1.426-.05333 2.1346-.56329" fill="none" id="path1454-1" stroke="#000000" stroke-miterlimit="10" stroke-width=".1"/></g><g id="ColLaserMicrodissected-5dPostInfected"><path d="M200.23 23.552c-1.5135-.94595-6.527-.18919-6.527-.18919-1.4189-1.0405-5.2027.000001-5.2027.000001-2.0811-1.4189-6.2432 0-6.2432 0s-2.7905-.66216-5.3919-.33108c0 0-1.5135.66216-.33109 2.223.75676-.09459 1.7027.28378 1.7027.28378.61486-.23649 2.8851-.18919 2.8851-.18919.56757-.18919 1.4189-.52027 1.4189-.52027.70946.23649 1.1351.33108 1.1351.33108l3.4527.18919c.28379-.37838 1.5608-.56757 1.5608-.56757.47298.47297 2.2703.37838 2.2703.37838l3.0743-.14189c1.75.42568 3.6419.37838 3.6419.37838l2.4595-.23649.0946-1.6081" fill="none" id="path2159" stroke="#000000" stroke-miterlimit="10" stroke-width=".1"/><path d="M182.26 23.363s.80406.52027.28379 1.4662" fill="none" id="path2161" stroke="#000000" stroke-miterlimit="10" stroke-width=".1"/><path d="M188.5 23.363l.18919 1.4189" fill="none" id="path2163" stroke="#000000" stroke-miterlimit="10" stroke-width=".1"/><path d="M193.71 23.363l.33108 1.6554" fill="none" id="path2165" stroke="#000000" stroke-miterlimit="10" stroke-width=".1"/><path d="M190.26 25.202s-1.0953.05259-1.5683-.42038c0 0-1.277.18919-1.5608.56757l-3.4527-.18919s-.42568-.09459-1.1351-.33108c0 0-.85135.33108-1.4189.52027 0 0-2.2703-.0473-2.8851.18919 0 0-.94595-.37838-1.7027-.28378l-.83752.13683.13378 7.7925s.96988 1.1706 2.2073.33444c0 0 1.2709 1.9398 3.1772-.03345 0 0 1.5719.46822 2.2742-.13378.0377-.16037 1.953 1.2232 3.8461-.301.013-.06516 1.432 1.0339 3.4448-.26756-.10378-.25944.24276 1.1262 1.9564 1.3135.18133-.59042.95287-1.2682 1.4883-1.3804 0 0 1.3043 1.0368 2.7759.36789 0 0 .76922-.33444.76922-.76922 0 0 .49406.46136 1.2633.56169.53176-.18217.98983-.16761 1.2116-.58227 0 0 .61771-3.3519-.10919-7.1338l-2.4595.23649s-.88864.27312-2.6386-.15256l-.88046 1.0062s-1.4674-2.0125-3.438-.16771l-.46119-.88046" fill="none" id="path2171" stroke="#000000" stroke-miterlimit="10" stroke-width=".1"/><path d="M197.68 25.397s.76266 1.6337.42822 4.2758l-.33444 2.6421" fill="none" id="path2173" stroke="#000000" stroke-miterlimit="10" stroke-width=".1"/><path d="M187.13 25.349l.20648 7.701" fill="none" id="path2175" stroke="#000000" stroke-miterlimit="10" stroke-width=".1"/><path d="M183.49 33.351l.18691-8.1912" fill="none" id="path2177" stroke="#000000" stroke-miterlimit="10" stroke-width=".1"/><path d="M181.13 25.349s.46082 2.5171.0261 4.39c-.43477 1.8729.0669 3.7458.0669 3.7458" fill="none" id="path2179" stroke="#000000" stroke-miterlimit="10" stroke-width=".1"/><path d="M178.24 25.539s.36942 1.9266.035 3.7995c-.33444 1.8729-.2341 4.1805-.2341 4.1805" fill="none" id="path2181" stroke="#000000" stroke-miterlimit="10" stroke-width=".1"/><path d="M190.78 32.783s-.39639-.20156-.061-1.5013c.37734-2.4737 0-5.1989 0-5.1989" fill="none" id="path2183" stroke="#000000" stroke-miterlimit="10" stroke-width=".1"/><path d="M194.23 32.716s-.78054-1.0571-.19356-3.4049c.58696-2.3479.12577-3.0606.12577-3.0606" fill="none" id="path2185" stroke="#000000" stroke-miterlimit="10" stroke-width=".1"/><path d="M200.42 22.081l-24.615-.13378-.10034 3.4448.83753-.13684c-1.1824-1.5608.33108-2.223.33108-2.223 2.6014-.33108 5.3919.33108 5.3919.33108s4.1622-1.4189 6.2432 0c0 0 3.7838-1.0405 5.2027-.000001 0 0 5.0135-.75676 6.527.18919l.18182-1.4714" fill="none" id="path2191" stroke="#000000" stroke-miterlimit="10" stroke-width=".1"/><path d="M180.87 38.504c2.3717-2.4903 1.1859-3.9726 1.1859-3.9726-.88939-1.3637-3.0239.11858-3.0239.11858l-2.016 1.7195s-.23717 1.2451.11859 1.8677c0 0 .94868 2.8164 3.7354.26681" fill="none" id="path2195" stroke="#000000" stroke-miterlimit="10" stroke-width=".1"/><path d="M182.3 35.806s.47435-2.3421 2.7275-2.0753c0 0 1.7788.11859 2.3717.68187 0 0 .17788-.85974 1.1266-.97833 0 0 2.9226-.27741 4.2184.66175 0 0 1.8591 3.2812-1.1352 4.4671 0 0-1.7491.26682-2.6385-.53364 0 0-3.7947 3.35-6.6704-2.2235" fill="none" id="path2197" stroke="#000000" stroke-miterlimit="10" stroke-width=".1"/><path d="M187.4 34.413s3.7355 1.8381 1.5713 3.6169" fill="none" id="path2199" stroke="#000000" stroke-miterlimit="10" stroke-width=".1"/><path d="M180.67 44.582s-3.4686-1.8677.20752-6.0775c0 0 2.3717-1.3341 4.2098.26682 0 0 2.9054 4.1802-2.4607 6.2258 0 0 2.2828 1.8084-.0593 3.7651.9171-.0027 2.3741.56329 2.3741.56329h-4.5087s-4.1505-2.3421.23718-4.7434" fill="none" id="path2203" stroke="#000000" stroke-miterlimit="10" stroke-width=".1"/><path d="M180.67 44.582s.7708.68187 1.9567.41505" fill="none" id="path2205" stroke="#000000" stroke-miterlimit="10" stroke-width=".1"/><path d="M195.08 36.103s-5.5762 1.8028-.7966 5.8697c0 0 4.0778-.1186 3.0699-4.0319 0 0-.69249-1.8078-2.2733-1.8378" fill="none" id="path2209" stroke="#000000" stroke-miterlimit="10" stroke-width=".1"/><path d="M192.74 34.096s.6136-1.2097 1.4883-1.3804c0 0 2.1792.48148 2.6239.3036 0 0 .80046.35575.8894.7708 0 0-.85975 1.6602-.97834 1.7491-.11858.08894-2.1345 1.2748-3.5279-.26681l-.49534-1.1763" fill="none" id="path2211" stroke="#000000" stroke-miterlimit="10" stroke-width=".1"/><path d="M200.25 32.294l-.002 6.7439c.3533.40614-2.5832-.40868-3.4859-1.9286 0 0-.57014-3.4674 3.4883-4.8153h.00003" fill="none" id="path2213" stroke="#000000" stroke-miterlimit="10" stroke-width=".1"/><path d="M197.52 49.338c.0252-.17719.0421-.36898.0495-.57651 0 0 3.7354-.91904 2.016-4.1505 0 0-.85975-2.9943-4.1209-2.6089 0 0-4.0912 1.6898-.23717 6.285 0 0-2.1344.08315-2.1293 1.0645l4.4219-.01363" fill="none" id="path2215" stroke="#000000" stroke-miterlimit="10" stroke-width=".1"/><path d="M195.22 48.287s.50399.56329 1.3341.11858c.8301-.44469 1.008.35576 1.008.35576" fill="none" id="path2217" stroke="#000000" stroke-miterlimit="10" stroke-width=".1"/><path d="M180.43 49.325s1.426-.05333 2.1346-.56329" fill="none" id="path2221" stroke="#000000" stroke-miterlimit="10" stroke-width=".1"/></g><g id="eds16LaserMicrodissected-5dPostInfected"><path d="M200.1 59.227c-1.2989-.81178-5.6013-.16236-5.6013-.16236-1.2177-.89296-4.4648.000001-4.4648.000001-1.7859-1.2177-5.3578 0-5.3578 0s-2.3948-.56825-4.6272-.28412c0 0-1.2988.56825-.28412 1.9077.64942-.08117 1.4612.24353 1.4612.24353.52766-.20295 2.4759-.16236 2.4759-.16236.48707-.16236 1.2177-.44648 1.2177-.44648.60884.20295.97414.28412.97414.28412l2.963.16236c.24353-.32471 1.3394-.48707 1.3394-.48707.40589.40589 1.9483.32471 1.9483.32471l2.6383-.12177c1.5018.3653 3.1254.32471 3.1254.32471l2.1106-.20294.0812-1.38" fill="none" id="path2227" stroke="#000000" stroke-miterlimit="10" stroke-width=".1"/><path d="M184.68 59.064s.69002.44648.24353 1.2583" fill="none" id="path2229" stroke="#000000" stroke-miterlimit="10" stroke-width=".1"/><path d="M190.04 59.064l.16236 1.2177" fill="none" id="path2231" stroke="#000000" stroke-miterlimit="10" stroke-width=".1"/><path d="M194.5 59.064l.28412 1.4206" fill="none" id="path2233" stroke="#000000" stroke-miterlimit="10" stroke-width=".1"/><path d="M191.55 60.643s-.93994.04513-1.3458-.36076c0 0-1.0959.16236-1.3394.48707l-2.963-.16236s-.3653-.08118-.97414-.28412c0 0-.7306.28412-1.2177.44648 0 0-1.9483-.04059-2.4759.16236 0 0-.81178-.32471-1.4612-.24353l-.71874.11742.11481 6.6873s.83232 1.0045 1.8942.28701c0 0 1.0906 1.6646 2.7266-.0287 0 0 1.3489.40181 1.9516-.1148.0324-.13762 1.676 1.0497 3.3006-.25831.0112-.05592 1.2289.88728 2.9562-.22961-.0891-.22264.20833.9665 1.679 1.1272.15561-.50668.81771-1.0883 1.2772-1.1846 0 0 1.1193.88972 2.3822.31571 0 0 .66012-.28701.66012-.66012 0 0 .42399.39592 1.0841.48203.45633-.15633.84943-.14384 1.0397-.49969 0 0 .5301-2.8765-.0937-6.122l-2.1106.20294s-.7626.23438-2.2644-.13092l-.75558.86352s-1.2593-1.727-2.9503-.14392l-.39578-.75558" fill="none" id="path2239" stroke="#000000" stroke-miterlimit="10" stroke-width=".1"/><path d="M197.91 60.809s.65449 1.402.36749 3.6694l-.28701 2.2674" fill="none" id="path2241" stroke="#000000" stroke-miterlimit="10" stroke-width=".1"/><path d="M188.86 60.769l.17719 6.6087" fill="none" id="path2243" stroke="#000000" stroke-miterlimit="10" stroke-width=".1"/><path d="M185.74 67.636l.1604-7.0294" fill="none" id="path2245" stroke="#000000" stroke-miterlimit="10" stroke-width=".1"/><path d="M183.71 60.769s.39547 2.1601.0224 3.7673c-.37311 1.6072.0574 3.2145.0574 3.2145" fill="none" id="path2247" stroke="#000000" stroke-miterlimit="10" stroke-width=".1"/><path d="M181.23 60.931s.31703 1.6533.03 3.2606c-.28701 1.6072-.20091 3.5876-.20091 3.5876" fill="none" id="path2249" stroke="#000000" stroke-miterlimit="10" stroke-width=".1"/><path d="M191.99 67.148s-.34017-.17297-.0523-1.2883c.32382-2.1228 0-4.4615 0-4.4615" fill="none" id="path2251" stroke="#000000" stroke-miterlimit="10" stroke-width=".1"/><path d="M194.95 67.091s-.66982-.90713-.1661-2.922c.50372-2.0149.10794-2.6265.10794-2.6265" fill="none" id="path2253" stroke="#000000" stroke-miterlimit="10" stroke-width=".1"/><path d="M200.26 57.964l-21.124-.1148-.0861 2.9562.71873-.11743c-1.0147-1.3394.28412-1.9077.28412-1.9077 2.2324-.28412 4.6272.28412 4.6272.28412s3.5718-1.2177 5.3578 0c0 0 3.2471-.89296 4.4648 0 0 0 4.3024-.64942 5.6013.16236l.15603-1.2627" fill="none" id="path2259" stroke="#000000" stroke-miterlimit="10" stroke-width=".1"/><path d="M183.49 72.058c2.0353-2.1371 1.0177-3.4092 1.0177-3.4092-.76325-1.1703-2.595.10176-2.595.10176l-1.73 1.4756s-.20353 1.0685.10177 1.6028c0 0 .81413 2.4169 3.2056.22897" fill="none" id="path2263" stroke="#000000" stroke-miterlimit="10" stroke-width=".1"/><path d="M184.71 69.743s.40707-2.0099 2.3406-1.7809c0 0 1.5265.10177 2.0353.58516 0 0 .15265-.7378.96678-.83957 0 0 2.5081-.23806 3.6201.56789 0 0 1.5954 2.8158-.97421 3.8335 0 0-1.501.22898-2.2643-.45795 0 0-3.2565 2.8749-5.7244-1.9081" fill="none" id="path2265" stroke="#000000" stroke-miterlimit="10" stroke-width=".1"/><path d="M189.09 68.547s3.2056 1.5774 1.3484 3.1039" fill="none" id="path2267" stroke="#000000" stroke-miterlimit="10" stroke-width=".1"/><path d="M183.31 77.273s-2.9767-1.6028.17809-5.2155c0 0 2.0353-1.1449 3.6127.22898 0 0 2.4933 3.5873-2.1116 5.3427 0 0 1.959 1.5519-.0509 3.2311.78703-.0023 2.0374.48339 2.0374.48339h-3.8692s-3.5618-2.0099.20353-4.0707" fill="none" id="path2271" stroke="#000000" stroke-miterlimit="10" stroke-width=".1"/><path d="M183.31 77.273s.66148.58516 1.6792.35618" fill="none" id="path2273" stroke="#000000" stroke-miterlimit="10" stroke-width=".1"/><path d="M195.68 69.997s-4.7853 1.5471-.68362 5.0372c0 0 3.4995-.10178 2.6345-3.4601 0 0-.59428-1.5514-1.9508-1.5771" fill="none" id="path2277" stroke="#000000" stroke-miterlimit="10" stroke-width=".1"/><path d="M193.67 68.275s.52656-1.0381 1.2772-1.1846c0 0 1.8701.41319 2.2517.26054 0 0 .68692.3053.76325.66148 0 0-.73781 1.4247-.83958 1.5011-.10176.07633-1.8318 1.094-3.0276-.22897l-.42508-1.0095" fill="none" id="path2279" stroke="#000000" stroke-miterlimit="10" stroke-width=".1"/><path d="M200.12 66.729l-.002 5.7874c.3032.34854-2.2168-.35071-2.9914-1.6551 0 0-.48928-2.9756 2.9936-4.1323h.00002" fill="none" id="path2281" stroke="#000000" stroke-miterlimit="10" stroke-width=".1"/><path d="M197.77 81.355c.0216-.15206.0361-.31664.0425-.49474 0 0 3.2056-.78869 1.73-3.5618 0 0-.73781-2.5696-3.5364-2.2389 0 0-3.5109 1.4502-.20353 5.3936 0 0-1.8317.07135-1.8273.9135l3.7947-.0117" fill="none" id="path2283" stroke="#000000" stroke-miterlimit="10" stroke-width=".1"/><path d="M195.8 80.454s.43251.4834 1.1449.10176c.71237-.38162.86502.3053.86502.3053" fill="none" id="path2285" stroke="#000000" stroke-miterlimit="10" stroke-width=".1"/><path d="M183.11 81.344s1.2237-.04577 1.8318-.48339" fill="none" id="path2289" stroke="#000000" stroke-miterlimit="10" stroke-width=".1"/></g><g id="g2297"><path d="M190.86 20.254s2.3151 1.2568 1.7198 3.8365c0 0-1.6536 1.1245-2.1167-.79375 0 0 .72761-1.5214.39688-3.0427" fill="#595959" id="path2295" stroke="#000000" stroke-miterlimit="10" stroke-width=".1"/></g><g id="g2301"><path d="M192.4 56.965s1.5929.86474 1.1833 2.6397c0 0-1.1378.77372-1.4564-.54615 0 0 .50064-1.0468.27308-2.0936" fill="#595959" id="path2299" stroke="#000000" stroke-miterlimit="10" stroke-width=".1"/></g><g id="ColWholeLeafAmplified-5dUninfected"><path d="M149.23 96.051c-.0327-2.976 1.4062-5.5596 3.0741-7.947.42515.52326.65407.85029.94841 1.1446 3.0087 3.2049 3.7609 6.9658 2.0603 10.956-1.21 2.9106-1.7987 5.8866-1.5371 8.9935.0327.52325 0 1.0792 0 1.6025m-.49055-.29433c-.0981-1.21-.0981-2.3874-.29433-3.6301-.13082-.883-.42515-1.8314-.78489-2.6817-.45785-1.1446-1.21-2.2238-1.5371-3.3358-.42515-1.5044-1.5371-3.1068-1.3736-4.8074m3.6955-1.0465c-.13082 1.1446-.32704 2.2238-.39245 3.3358-.0327 1.1773.0327 2.2892.13082 3.4666" fill="#ffffff" id="path2948" stroke="#000000" stroke-linecap="round" stroke-linejoin="round" stroke-miterlimit="10" stroke-width=".1"/></g><g id="ColLeafScrape-5dPostInfected"><path d="M182.57 119.46c-.73391-.45869-3.165-.0917-3.165-.0917-.68803-.50456-2.5228 0-2.5228 0-1.0091-.68804-3.0274 0-3.0274 0s-1.3531-.32109-2.6145-.16055c0 0-.7339.32109-.16054 1.0779.36695-.0459.82564.13761.82564.13761.29815-.11467 1.399-.0917 1.399-.0917.27522-.0917.68804-.25228.68804-.25228.34401.11468.55043.16054.55043.16054l1.6742.0917c.13761-.18347.75684-.27521.75684-.27521.22934.22934 1.1008.18347 1.1008.18347l1.4907-.0688c.84858.20641 1.766.18348 1.766.18348l1.1926-.11468.0459-.77977" fill="none" id="path2728" stroke="#000000" stroke-miterlimit="10" stroke-width=".1"/><path d="M173.86 119.37s.38989.25227.13761.71096" fill="none" id="path2730" stroke="#000000" stroke-miterlimit="10" stroke-width=".1"/><path d="M176.88 119.37l.0917.68803" fill="none" id="path2732" stroke="#000000" stroke-miterlimit="10" stroke-width=".1"/><path d="M179.41 119.37l.16054.8027" fill="none" id="path2734" stroke="#000000" stroke-miterlimit="10" stroke-width=".1"/><path d="M177.74 120.26s-.53111.0255-.76045-.20384c0 0-.61923.0917-.75684.27521l-1.6742-.0917s-.20642-.0459-.55043-.16054c0 0-.41282.16054-.68804.25228 0 0-1.1008-.0229-1.399.0917 0 0-.45869-.18347-.82564-.13761l-.40611.0663.0649 3.7786s.47029.5676 1.0703.16217c0 0 .61625.94059 1.5406-.0162 0 0 .76221.22704 1.1028-.0649.0183-.0778.94699.59312 1.865-.14596.006-.0316.69437.50135 1.6704-.12973-.0503-.12581.11772.54611.94867.63692.0879-.2863.46205-.61494.7217-.66936 0 0 .63246.50273 1.346.17839 0 0 .37299-.16217.37299-.37299 0 0 .23957.22371.61257.27236.25784-.0883.47996-.0813.5875-.28234 0 0 .29952-1.6254-.0529-3.4592l-1.1926.11468s-.4309.13243-1.2795-.074l-.42693.48792s-.71154-.97584-1.6671-.0813l-.22363-.42693" fill="none" id="path2740" stroke="#000000" stroke-miterlimit="10" stroke-width=".1"/><path d="M181.33 120.36s.36981.79218.20764 2.0733l-.16217 1.2812" fill="none" id="path2742" stroke="#000000" stroke-miterlimit="10" stroke-width=".1"/><path d="M176.22 120.33l.10012 3.7342" fill="none" id="path2744" stroke="#000000" stroke-miterlimit="10" stroke-width=".1"/><path d="M174.45 124.21l.0906-3.9719" fill="none" id="path2746" stroke="#000000" stroke-miterlimit="10" stroke-width=".1"/><path d="M173.31 120.33s.22346 1.2206.0126 2.1287c-.21082.90816.0324 1.8163.0324 1.8163" fill="none" id="path2748" stroke="#000000" stroke-miterlimit="10" stroke-width=".1"/><path d="M171.91 120.42s.17913.9342.017 1.8424c-.16217.90816-.11352 2.0271-.11352 2.0271" fill="none" id="path2750" stroke="#000000" stroke-miterlimit="10" stroke-width=".1"/><path d="M177.99 123.94s-.19221-.0977-.0296-.72796c.18297-1.1995 0-2.5209 0-2.5209" fill="none" id="path2752" stroke="#000000" stroke-miterlimit="10" stroke-width=".1"/><path d="M179.66 123.9s-.37848-.51256-.0939-1.651c.28462-1.1385.061-1.4841.061-1.4841" fill="none" id="path2754" stroke="#000000" stroke-miterlimit="10" stroke-width=".1"/><path d="M182.66 118.75l-11.936-.0649-.0487 1.6704.40611-.0664c-.57336-.75683.16054-1.0779.16054-1.0779 1.2614-.16054 2.6145.16055 2.6145.16055s2.0182-.68804 3.0274 0c0 0 1.8348-.50456 2.5228 0 0 0 2.431-.36696 3.165.0917l.0882-.7135" fill="none" id="path2760" stroke="#000000" stroke-miterlimit="10" stroke-width=".1"/><path d="M173.18 126.71c1.15-1.2076.57503-1.9263.57503-1.9263-.43127-.66128-1.4663.0575-1.4663.0575l-.97754.83378s-.115.60377.0575.90566c0 0 .46002 1.3657 1.8113.12938" fill="none" id="path2764" stroke="#000000" stroke-miterlimit="10" stroke-width=".1"/><path d="M173.87 125.4s.23001-1.1357 1.3226-1.0063c0 0 .86253.0575 1.15.33063 0 0 .0863-.41689.54627-.47439 0 0 1.4172-.13451 2.0455.32089 0 0 .90147 1.5911-.55046 2.1661 0 0-.84816.12938-1.2794-.25876 0 0-1.8401 1.6244-3.2345-1.0782" fill="none" id="path2766" stroke="#000000" stroke-miterlimit="10" stroke-width=".1"/><path d="M176.35 124.73s1.8113.89128.76191 1.7538" fill="none" id="path2768" stroke="#000000" stroke-miterlimit="10" stroke-width=".1"/><path d="M173.08 129.66s-1.6819-.90566.10063-2.947c0 0 1.15-.6469 2.0413.12938 0 0 1.4088 2.027-1.1932 3.0189 0 0 1.1069.87691-.0288 1.8257.4447-.001 1.1512.27314 1.1512.27314h-2.1862s-2.0126-1.1357.115-2.3001" fill="none" id="path2772" stroke="#000000" stroke-miterlimit="10" stroke-width=".1"/><path d="M173.08 129.66s.37377.33064.94879.20126" fill="none" id="path2774" stroke="#000000" stroke-miterlimit="10" stroke-width=".1"/><path d="M180.08 125.55s-2.7039.87419-.38627 2.8462c0 0 1.9774-.0575 1.4886-1.9551 0 0-.33579-.8766-1.1023-.89113" fill="none" id="path2778" stroke="#000000" stroke-miterlimit="10" stroke-width=".1"/><path d="M178.94 124.57s.29754-.58657.7217-.66936c0 0 1.0567.23347 1.2723.14722 0 0 .38814.1725.43127.37376 0 0-.41689.80503-.47439.84815-.0575.0431-1.035.61816-1.7107-.12937l-.2402-.5704" fill="none" id="path2780" stroke="#000000" stroke-miterlimit="10" stroke-width=".1"/><path d="M182.58 123.7l-.001 3.2701c.17132.19694-1.2526-.19816-1.6903-.93518 0 0-.27646-1.6813 1.6915-2.3349h.00002" fill="none" id="path2782" stroke="#000000" stroke-miterlimit="10" stroke-width=".1"/><path d="M181.25 131.97c.0122-.0859.0204-.17892.024-.27955 0 0 1.8113-.44564.97753-2.0126 0 0-.41689-1.4519-1.9982-1.265 0 0-1.9838.8194-.115 3.0476 0 0-1.035.0403-1.0325.51617l2.1442-.007" fill="none" id="path2784" stroke="#000000" stroke-miterlimit="10" stroke-width=".1"/><path d="M180.14 131.46s.24438.27314.6469.0575c.40251-.21563.48877.17251.48877.17251" fill="none" id="path2786" stroke="#000000" stroke-miterlimit="10" stroke-width=".1"/><path d="M172.97 131.96s.69146-.0259 1.035-.27314" fill="none" id="path2790" stroke="#000000" stroke-miterlimit="10" stroke-width=".1"/><path d="M182.44 118.75h7.9249v.7411c-1.0978-.14231-1.6874.14231-1.6874.14231-.44726-.63023-2.8869-.22363-2.8869-.22363-1.2198-.32528-2.9915.0537-2.9915.0537h-.2277l-.28838-.15318" fill="none" id="path2796" stroke="#000000" stroke-miterlimit="10" stroke-width=".1"/><path d="M182.54 119.9c.34502.40252 1.6819.25876 1.6819.25876 1.0926.0719 1.3226-.115 1.3226-.115l.33064.18688 1.7538.0431c.71878.0431.81941-.28752.81941-.28752.00033.35257.48876.40252.48876.40252h1.265l-.0667-.89739s-1.1788-.0622-1.6874.14231c0 0 .31971-.60145-2.8869-.22363 0 0-1.1362-.47162-2.9915.0537l-.0296.43622" fill="none" id="path2798" stroke="#000000" stroke-miterlimit="10" stroke-width=".1"/><path d="M185.55 120.04s.22019-.37612.0167-.6337" fill="none" id="path2800" stroke="#000000" stroke-miterlimit="10" stroke-width=".1"/><path d="M188.45 119.63l.00033.35256" fill="none" id="path2802" stroke="#000000" stroke-miterlimit="10" stroke-width=".1"/><path d="M182.58 123.7s.23268-2.67-.0529-3.4592l.0162-.34355s.35939.37377 1.6819.25876c0 0 .89129.17251 1.3226-.115l.33064.18688 1.7394.0288.51752.0144s.18688.28751.80503.115l.31627.27314-.0719 2.4726s.0144.43127-.21564.69003c0 0-1.035.66127-1.2938-.14376 0 0-.60378.83378-1.8544.11501l-.31626.23-1.035.0431-.25876-.27313s-.91851.71958-1.6309-.093" fill="none" id="path2808" stroke="#000000" stroke-miterlimit="10" stroke-width=".1"/><path d="M184.23 120.16s.5319 2.2282-.0144 3.637" fill="none" id="path2810" stroke="#000000" stroke-miterlimit="10" stroke-width=".1"/><path d="M185.88 120.23s.25876 2.0844-.0575 3.5651" fill="none" id="path2812" stroke="#000000" stroke-miterlimit="10" stroke-width=".1"/><path d="M187.59 120.27s.66128 1.9407.0863 3.407" fill="none" id="path2814" stroke="#000000" stroke-miterlimit="10" stroke-width=".1"/><path d="M192.64 119.25s1.2401-.0813 1.3418.30495c0 0 2.6226-.2033 2.9682.14231 0 0 2.3176-.67089 2.7852.10165 0 0 1.3418-.58957 3.0089.0407 0 0 1.0978-.34561 1.9517-.26429l.0407-.8742h-12.096v.54892" fill="none" id="path2822" stroke="#000000" stroke-miterlimit="10" stroke-width=".1"/><path d="M204.69 119.57c-.85386-.0813-1.9517.26429-1.9517.26429-1.6671-.63023-3.0088-.0407-3.0088-.0407-.4676-.77254-2.7852-.10165-2.7852-.10165-.34561-.34561-2.9682-.14231-2.9682-.14231-.10165-.38627-1.3418-.30495-1.3418-.30495v1.1791l.65056-.12198s.4676-.12198.71156-.0813l.6099.28462 1.5654-.0203s.65056.0203.73188-.16264c0 0 .58957.24394.91486.24394l1.4231.0204.46759-.18298s.30496.50826 1.1588.30496l1.6264.0203.28462-.30495s.24396.44726 1.3418.42693h.6099l-.0407-1.2808" fill="none" id="path2824" stroke="#000000" stroke-miterlimit="10" stroke-width=".1"/><path d="M193.98 119.55l.0203.67089" fill="none" id="path2826" stroke="#000000" stroke-miterlimit="10" stroke-width=".1"/><path d="M196.95 119.69l-.0407.63025" fill="none" id="path2828" stroke="#000000" stroke-miterlimit="10" stroke-width=".1"/><path d="M199.73 119.79s.2042.22104-.0203.60992" fill="none" id="path2830" stroke="#000000" stroke-miterlimit="10" stroke-width=".1"/><path d="M202.74 119.83l.0407.58958" fill="none" id="path2832" stroke="#000000" stroke-miterlimit="10" stroke-width=".1"/><path d="M204.74 120.85h-.6099c-1.0978.0203-1.3418-.42693-1.3418-.42693l-.28462.30495-1.6264-.0203c-.85386.2033-1.1588-.30496-1.1588-.30496l-.46759.18298-1.4231-.0204c-.32529 0-.91486-.24394-.91486-.24394-.0813.18295-.73188.16264-.73188.16264l-1.5654.0203-.6099-.28462c-.24396-.0407-.71156.0813-.71156.0813l-.061.52858-.0813 3.2935s.32529.46759.71156.34561l.6099-.32528s.65056.67089 1.6264.0407c0 0 .44726.71155 1.4434.18297 0 0-.10165.30495.24397.34561l1.1385.0204.26429-.0813s.38627.24396.79288.28463l.67089-.28465.58957.2033s1.0572.0813 1.0978-.28462c0 0 .3761.68106 1.5654.061 0 0 .47776.31512.8437.2033l-.0102-3.9847" fill="none" id="path2838" stroke="#000000" stroke-miterlimit="10" stroke-width=".1"/><path d="M194.61 120.51s.2033.60991.0813 1.85c-.48792 1.3011-.22363 1.789-.22363 1.789" fill="none" id="path2840" stroke="#000000" stroke-miterlimit="10" stroke-width=".1"/><path d="M196.26 120.55l-.16264 3.6391" fill="none" id="path2842" stroke="#000000" stroke-miterlimit="10" stroke-width=".1"/><path d="M197.82 120.53l-.28463 3.8424" fill="none" id="path2844" stroke="#000000" stroke-miterlimit="10" stroke-width=".1"/><path d="M199.25 120.59l-.061 4.066" fill="none" id="path2846" stroke="#000000" stroke-miterlimit="10" stroke-width=".1"/><path d="M200.87 120.71s.2033 1.5654-.22363 3.944" fill="none" id="path2848" stroke="#000000" stroke-miterlimit="10" stroke-width=".1"/><path d="M202.5 120.73s.26429 1.3824-.0407 1.9314c-.30495.54892-.12198 1.911-.12198 1.911" fill="none" id="path2850" stroke="#000000" stroke-miterlimit="10" stroke-width=".1"/><path d="M204.15 120.87s.10166.58958-.061 1.1792c-.16264.58957-.18297 2.5819-.18297 2.5819" fill="none" id="path2852" stroke="#000000" stroke-miterlimit="10" stroke-width=".1"/><path d="M200.03 136.17h.5152l.18297.27446s.19314-.18297.56924-.18297l.85387.0305.0813.10166.1728-.0712h1.2096l.14231.16264.2033-.24396h1.352s.42693.31511.18297.75221h-1.7281s-.69122.34563-1.4638 0c0 0-.86403.3456-1.5044-.0915 0 0-.13098.17468-.46162.21781h-.28289l-.0248-.94969m-1.9348.94969h-.27325l-.30188-.17251-.27314.18688h-1.1932l-.15813-.18688-.21563.20126h-2.0988l-.27314-.20126-.18688.20126h-1.6963l-.21563-.24438-.23001.15813h-2.1132l-.21564-.23001-.31626.31626h-2.4151l-.31626-.27314-.35939.25876h-.65016v-1.0047h.5621s.32528.0305.32528.2338c0 0 .24396-.34561.50825-.28462h2.155s.44726.14231.44726.34561c0 0 .2033-.26429.48793-.26429h1.6671s.38627.0813.44727.22363l.2033-.10165h1.6264l.26429.18297.28463-.18297h1.9924s.28462.12198.30495.22363c0 0 .21346-.34561.51841-.34561h.77255l.33544.26429.22364-.25413h.36765l.008.94969m-15.54.0431h-2.3145l-.24439-.27314-.18688.18688h-2.0844l-.21564-.28751-.15813.21564h-1.8688l-.27313-.30189-.20126.15813h-2.487l-.27314-.21563-.37376.31626-1.1735-.13083.0203-.77254 1.0978-.0407s.26429-.0813.38627.2643c0 0 .14231-.26429.4066-.22363h2.2973l.28592.31397.12938-.17251 1.7394-.0431.46002.23001.29244-.19621h1.9415s.26429.061.23379.2338c0 0-.0407-.22363.22363-.22363h2.277l.0631.96232" fill="none" id="path2864" stroke="#000000" stroke-miterlimit="10" stroke-width=".1"/><path d="M172.21 136.28l.0428.36348" fill="none" id="path2866" stroke="#000000" stroke-miterlimit="10" stroke-width=".1"/><path d="M175.2 136.37l.0144.33064" fill="none" id="path2868" stroke="#000000" stroke-miterlimit="10" stroke-width=".1"/><path d="M177.53 136.39l-.0144.40252" fill="none" id="path2870" stroke="#000000" stroke-miterlimit="10" stroke-width=".1"/><path d="M179.99 136.42l.005.46555" fill="none" id="path2872" stroke="#000000" stroke-miterlimit="10" stroke-width=".1"/><path d="M185.48 136.36l.12217.51216" fill="none" id="path2874" stroke="#000000" stroke-miterlimit="10" stroke-width=".1"/><path d="M188.59 136.42l.0593.40805" fill="none" id="path2876" stroke="#000000" stroke-miterlimit="10" stroke-width=".1"/><path d="M191.2 136.38l.0159.52059" fill="none" id="path2878" stroke="#000000" stroke-miterlimit="10" stroke-width=".1"/><path d="M193.29 136.46l.0207.48239" fill="none" id="path2880" stroke="#000000" stroke-miterlimit="10" stroke-width=".1"/><path d="M195.87 136.51l.0264.44173" fill="none" id="path2882" stroke="#000000" stroke-miterlimit="10" stroke-width=".1"/><path d="M197.5 136.42l.0244.52305" fill="none" id="path2884" stroke="#000000" stroke-miterlimit="10" stroke-width=".1"/><path d="M200.73 136.44l.0711.45742" fill="none" id="path2886" stroke="#000000" stroke-miterlimit="10" stroke-width=".1"/><path d="M202.23 136.39l.0711.59973" fill="none" id="path2888" stroke="#000000" stroke-miterlimit="10" stroke-width=".1"/><path d="M203.76 136.48l.0102.50825" fill="none" id="path2890" stroke="#000000" stroke-miterlimit="10" stroke-width=".1"/><path d="M182.56 137.16h-2.3145l-.24438-.27313-.18688.18688h-2.0845l-.21563-.28751-.15813.21563h-1.8688l-.27314-.30189-.20126.15814h-2.487l-.27314-.21564-.37376.31627-1.1735-.13083v1.1227h11.842l.0125-.79066m17.5.79066h5.415l.0258-.96009h-1.7281s-.69123.34562-1.4638 0c0 0-.86403.3456-1.5044-.0915 0 0-.13098.17468-.46162.21781h-.29943l.0165.83378m-1.943-.83378h-.28978l-.30189-.17251-.27313.18688h-1.1932l-.15813-.18688-.21564.20126h-2.0988l-.27313-.20126-.18688.20126h-1.6963l-.21563-.24438-.23001.15812h-2.1132l-.21563-.23001-.31626.31627h-2.4151l-.31626-.27314-.35939.25876h-.65017v.81941h13.519v-.83378" fill="none" id="path2862" stroke="#000000" stroke-miterlimit="10" stroke-width=".1"/><path d="M179.46 131.6c-.29987.0457-.35026.37616-.35026.37616.001.22009.22425.53335.87438.97889 0 0 1.0866.30323 1.2698-.9855l.024-.27955" fill="none" id="path2954" stroke="#000000" stroke-miterlimit="10" stroke-width=".1"/><path d="M174.84 134.6s1.38-.48877 1.912.71877c0 0 1.0782-.7619 1.9551-.27313 0 0 .33064.99191-.44564 1.1357 0 0-.50314 0-.73315.20125 0 0-.0719-.23001-.46002-.23001 0 0-.27313-.25875-.31626-.38813 0 0-.25876.41689-1.4232.43126l-.12938.17251-.25876-.30189-.46002-.0287s-.8194-1.0207.35939-1.4376" fill="none" id="path2956" stroke="#000000" stroke-miterlimit="10" stroke-width=".1"/><path d="M176.75 135.32s.21563.13657 0 .44565" fill="none" id="path2958" stroke="#000000" stroke-miterlimit="10" stroke-width=".1"/><path d="M174.91 131.86c-.034.0789 1.1999.2053 1.4232 1.5396 0 0 1.2794-.44564 1.8688.21564 0 0 .6469-.77628 1.7826-.66128 0 0 1.4232.74753.0431 1.8401 0 0-1.265.79066-1.7107-.41689 0 0-.0863.6469-1.1932.53189 0 0-.74753.28751-1.1069-.71878 0 0-2.9757.96317-3.5795-.8769 0 0-.0144-1.2219.5319-1.3513" fill="none" id="path2962" stroke="#000000" stroke-miterlimit="10" stroke-width=".1"/><path d="M176.33 133.4s.1725.7619-.31626.79065" fill="none" id="path2964" stroke="#000000" stroke-miterlimit="10" stroke-width=".1"/><path d="M178.2 133.61l.115.7619" fill="none" id="path2966" stroke="#000000" stroke-miterlimit="10" stroke-width=".1"/><path d="M181.99 123.98l.5875-.28234c-.071-.025 3.0426 1.6249-.001 3.2701l-.67377-.14231" fill="none" id="path2970" stroke="#000000" stroke-miterlimit="10" stroke-width=".1"/><path d="M183.73 126.08s2.1936-2.1348 2.5606.89444c0 0-.73087 1.8908-2.3166 1.3012 0 0-1.1791-.75221-.24396-2.1956" fill="none" id="path2972" stroke="#000000" stroke-miterlimit="10" stroke-width=".1"/><path d="M193.7 125c-1.3513-1.4807-2.5732.21564-2.5732.21564-1.2794-2.602-2.6738.0144-2.6738.0144-.50315 3.6514 2.0557 1.3513 2.0557 1.3513-.17251 1.5526 1.2794 1.4088 1.2794 1.4088-.8194.8194-.0288 1.7251-.0288 1.7251-.99191.81941-.14375 1.2507-.14375 1.2507-1.1213.34501-1.1644 1.4376-1.1644 1.4376-.50315.0719-.86254.73315-.86254.73315-.99191-.31626-1.7969.0719-1.7969.0719.0719-.48877-.57502-.43127-.57502-.43127-.40252.0862-.4744-.24438-.4744-.24438.0719-.30189-.53189-.69003-.53189-.69003 1.035-.84816-.18688-1.4951-.18688-1.4951l.23001-.24438s-.0863-.28751.31626-.73315c.40251-.44565.20126-.76191.20126-.76191 2.1563-1.1644.94878-2.0844.94878-2.0844.94879-1.0782.74753-1.6244.74753-1.6244-.37376-1.8401-2.4438-.31626-2.4438-.31626.0431-.27314-.51752-.56065-.51752-.56065l-1.035.0431c-.5319-.0431-.73315.74753-.73315.74753s.84815 1.15 2.142.28751c0 0-.25876 1.0638.93441 1.2363l.23001.33064-.74753.30188s-.12938.4744-.40251.77628l.0288.48877s-1.2938-.46002-1.035 1.3226c0 0 .17251.80503.48877.93441 0 0-1.4519 1.0782-.80503 1.7107 0 0 .54627.40252 1.1069.20126 0 0-.27313 2.487 1.6963 1.2507 0 0 1.0494 1.5526 2.1276 1.0638 0 0 .50314-.23001.73315-.80503 0 0 .50315-.28751.80503-.31626.51752-.21563.35939-.61815.35939-.61815s.61815-.20126.94879-.74753c0 0 .18688-.24438 0-.60377s-.21563-.66127-.21563-.66127.74752-.24439.44564-.97754c0 0 .73315-.40252.50314-1.3657 0 0 .12938-.31626-.20126-.21563-.33063.10062-.38814-.63253-.38814-.63253l-.35938-.0863-.0719-.30189-.38814-.79065s.38814.0287.67565-.14376c.28751-.17251.80503 0 .80503 0l.53189-.40252.0144-1.0494" fill="none" id="path2974" stroke="#000000" stroke-miterlimit="10" stroke-width=".1"/><path d="M191.67 126.6l-.74019-.41903.19392-.96102" fill="none" id="path2976" stroke="#000000" stroke-miterlimit="10" stroke-width=".1"/><path d="M190.93 126.18l-.42423.40465" fill="none" id="path2978" stroke="#000000" stroke-miterlimit="10" stroke-width=".1"/><path d="M191.76 129.72s.51356-.0422.81941.27314" fill="none" id="path2980" stroke="#000000" stroke-miterlimit="10" stroke-width=".1"/><path d="M191.79 127.99l.34502-.30189" fill="none" id="path2982" stroke="#000000" stroke-miterlimit="10" stroke-width=".1"/><path d="M191.61 130.97h.51752" fill="none" id="path2984" stroke="#000000" stroke-miterlimit="10" stroke-width=".1"/><path d="M191.4 132.98s-.35303-.60994-.94878-.57502" fill="none" id="path2986" stroke="#000000" stroke-miterlimit="10" stroke-width=".1"/><path d="M189.59 133.14s.0918.66505.6469.77628" fill="none" id="path2988" stroke="#000000" stroke-miterlimit="10" stroke-width=".1"/><path d="M187.79 133.21l-.41689.44564" fill="none" id="path2990" stroke="#000000" stroke-miterlimit="10" stroke-width=".1"/><path d="M185.68 132.4l.5319-.56065" fill="none" id="path2992" stroke="#000000" stroke-miterlimit="10" stroke-width=".1"/><path d="M185.38 130.49l.6469-.14376" fill="none" id="path2994" stroke="#000000" stroke-miterlimit="10" stroke-width=".1"/><path d="M185.92 128.24s.18305.48774.84816.37376" fill="none" id="path2996" stroke="#000000" stroke-miterlimit="10" stroke-width=".1"/><path d="M187.04 126.67s.57307.42702.67565-.14376" fill="none" id="path2998" stroke="#000000" stroke-miterlimit="10" stroke-width=".1"/><path d="M186.02 124.58l-.14376.51752" fill="none" id="path3000" stroke="#000000" stroke-miterlimit="10" stroke-width=".1"/><path d="M188.41 135.1s-.0407-1.5858-1.8297-.38627c0 0-.67089 1.0775.24396 1.3824 0 0 1.1236.00018 1.3536-.45983l-.0322.43951.44726.34561s.20304-.35386.9937-.25323c0 0 .46001-.18688.54626-.51752l.61503.50646s.23013-.0238.44727.22363c0 0 .24588-.14069.63402-.11194 0 0 1.6963-.63252.35939-2.0413 0 0 1.2219-.21563 1.3369-.79065 0 0 1.1213.5894 1.3944-.6469 0 0 1.2507.14375 1.5382-.70441 0 0 .7619 1.15 1.5957.17251 0 0 .5319-.35939.30189-1.0638 0 0 .99191.0288 1.1788-.44564 0 0 .62626-.56853.44329-1.0564 0 0 .87419.38627 1.6061-.16264 0 0-.0813 1.2808 1.3418 1.3621 0 0-1.4231 1.4638.22363 2.4193 0 0-.92502.28461-.83353 1.6467 0 0-.83354-.18297-1.0368 1.2401l.8742.0915s.79287-.51843.5794-.9047l.52859.14231s-.66073.81319.0203.76238l.33544.0305.14231.16264.2033-.24396s.97585-.37612.13215-.92503c0 0 2.0228-1.1893.12198-2.3278 0 0 1.7281-2.1855-.68106-2.3176 0 0 .60991-.52858.10165-1.2198 0 0 2.6531-1.0775.55908-2.958 0 0 1.0978-.66073.18297-1.5756l-.47776-.28462s-.47775.30495-.88435.27446c0 0-.55003.32398-.49252.85588 0 0-2.0988-2.1563-3.2201-.21564 0 0-.47439 1.9838 1.4951 2.2282 0 0 2.0557-.14375 1.9263-1.5669l.57503.43126s-1.4232.50315-1.3369 1.3513c0 0-.21563.58939.28751.89128l-.40251.17251s.0575-1.8257-2.2713-1.0638c0 0 .31626-1.2219-.92004-1.2794 0 0 1.3311-.97915.26303-1.9774l-1.1385-.0204-.67711.47399-.50314-.60377-.50715-.3988s-.71235.62679-1.6264-.0407c0 0-1.1872.61197-.61217 2.3802 0 0-.28235-.0422-.63813.1611 0 0-.41677-.6404-.66073-.0407l-.49808.74209.0719.30189.35938.0863s.0973.70964.37177.63849c0 0 .27262-.11941.21763.20967 0 0 1.6731-.16901 1.1953-1.7751 0 0 1.8297.62007 2.7242-.8437 0 0 .18297.77255 1.0877.82337 0 0-1.3113 1.4333.45742 2.4599 0 0-.64882.57178-.70632 1.4487 0 0-.71878-.20126-1.3657.57502 0 0 0-1.4519-1.2075-.43127 0 0-.87691.73315-.79066 1.1213 0 0-.99191-.33064-1.2219.69003 0 0-.21563-.74753-1.2219-.14376 0 0-.6469.56065-.4744 1.1788 0 0-1.6963-.44564-1.6532 1.2794 0 0-.59951-.45452-1.4929.0962" fill="none" id="path3006" stroke="#000000" stroke-miterlimit="10" stroke-width=".1"/><path d="M203.64 129.45s-.3115-.62856-1.3857-.56841" fill="none" id="path3008" stroke="#000000" stroke-miterlimit="10" stroke-width=".1"/><path d="M202.93 130.89s.34561.16264.6099-.22363" fill="none" id="path3010" stroke="#000000" stroke-miterlimit="10" stroke-width=".1"/><path d="M203.15 133.31s.65056-.30495 1.0673-.32528" fill="none" id="path3012" stroke="#000000" stroke-miterlimit="10" stroke-width=".1"/><path d="M202.32 134.96l.41676.42693" fill="none" id="path3014" stroke="#000000" stroke-miterlimit="10" stroke-width=".1"/><path d="M203.26 135.53s.33544-.2033.83353-.21346" fill="none" id="path3016" stroke="#000000" stroke-miterlimit="10" stroke-width=".1"/><path d="M201.85 129.05l-.26511.47722" fill="none" id="path3018" stroke="#000000" stroke-miterlimit="10" stroke-width=".1"/><path d="M199.58 127.99s-.98229.9311.40016 1.7036" fill="none" id="path3020" stroke="#000000" stroke-miterlimit="10" stroke-width=".1"/><path d="M198.54 129.29s.57941-.14231.62007-.52858" fill="none" id="path3022" stroke="#000000" stroke-miterlimit="10" stroke-width=".1"/><path d="M198.09 126.83l.5705-.11653" fill="none" id="path3024" stroke="#000000" stroke-miterlimit="10" stroke-width=".1"/><path d="M197.11 125.19l-.1056.81697" fill="none" id="path3026" stroke="#000000" stroke-miterlimit="10" stroke-width=".1"/><path d="M197.84 130.74l.51752.46001" fill="none" id="path3028" stroke="#000000" stroke-miterlimit="10" stroke-width=".1"/><path d="M196.47 131.31l-.0144.77627" fill="none" id="path3030" stroke="#000000" stroke-miterlimit="10" stroke-width=".1"/><path d="M194.47 132s.53132.20869.44564.79066" fill="none" id="path3032" stroke="#000000" stroke-miterlimit="10" stroke-width=".1"/><path d="M193.25 132.69s-.0598.48718.27313.74753" fill="none" id="path3034" stroke="#000000" stroke-miterlimit="10" stroke-width=".1"/><path d="M191.56 133.73l.63253.50314" fill="none" id="path3036" stroke="#000000" stroke-miterlimit="10" stroke-width=".1"/><path d="M189.9 135.01l.23.6469" fill="none" id="path3038" stroke="#000000" stroke-miterlimit="10" stroke-width=".1"/><path d="M188.41 135.1l-.23214.53634" fill="none" id="path3040" stroke="#000000" stroke-miterlimit="10" stroke-width=".1"/><path d="M203.3 126.64l.89538-.14703" fill="none" id="path3042" stroke="#000000" stroke-miterlimit="10" stroke-width=".1"/><path d="M193.86 126.52l.41903.32374" fill="none" id="path3044" stroke="#000000" stroke-miterlimit="10" stroke-width=".1"/><path d="M202.53 125.76l.20125.44564" fill="none" id="path3046" stroke="#000000" stroke-miterlimit="10" stroke-width=".1"/></g><g id="ColWholeLeafAmplified-5dPostInfected"><path d="M185.9 96.051c-.0327-2.976 1.4062-5.5596 3.0741-7.947.42515.52326.65407.85029.94841 1.1446 3.0087 3.2049 3.7609 6.9658 2.0603 10.956-1.21 2.9106-1.7987 5.8866-1.5371 8.9935.0327.52325 0 1.0792 0 1.6025m-.49055-.29433c-.0981-1.21-.0981-2.3874-.29433-3.6301-.13082-.883-.42515-1.8314-.78489-2.6817-.45785-1.1446-1.21-2.2238-1.5371-3.3358-.42515-1.5044-1.5371-3.1068-1.3736-4.8074m3.6955-1.0465c-.13082 1.1446-.32704 2.2238-.39245 3.3358-.0327 1.1773.0327 2.2892.13082 3.4666" fill="#ffffff" id="path3664" stroke="#000000" stroke-linecap="round" stroke-linejoin="round" stroke-miterlimit="10" stroke-width=".1"/></g><g id="g2840"><path d="M47.789 147.95c-4.3022 0-7.7963-3.4752-7.8197-7.7773s3.4328-7.8151 7.7347-7.8618l.08499 7.8193.000002 7.8198" fill="#000000" fill-rule="evenodd" id="path2199-1" stroke="#000000" stroke-miterlimit="10" stroke-width="0"/><path d="M47.789 132.31c4.3187 0 7.8198 3.501 7.8198 7.8198-.000001 4.3188-3.501 7.8198-7.8198 7.8198l-.000002-7.8198.000002-7.8198" fill="#fff594" fill-rule="evenodd" id="circle2201" stroke="#000000" stroke-miterlimit="10" stroke-width="0"/><path d="M53.349 140.13c-.000001 1.4744-.58572 2.8885-1.6283 3.9311-1.0426 1.0426-2.4567 1.6283-3.9311 1.6283-3.0704 0-5.5594-2.489-5.5594-5.5594 0-3.0704 2.489-5.5594 5.5594-5.5594 1.4744 0 2.8885.58572 3.9311 1.6283 1.0426 1.0426 1.6283 2.4566 1.6283 3.9311" fill="#ffffff" fill-rule="evenodd" id="circle2203" stroke="#000000" stroke-miterlimit="10" stroke-width="0"/></g><g id="outlines"><path d="M99.308 82.831L46.109 46.308 20.268 82.801" fill="none" id="path3980" stroke="#000000" stroke-miterlimit="10" stroke-width=".1"/></g><g id="g382"><path d="M48.006 82.951l-27.739-.15075-.11307 3.8819.94381-.1542c-1.3325-1.7589.3731-2.5051.3731-2.5051 2.9315-.3731 6.0761.3731 6.0761.3731s4.6904-1.599 7.0355 0c0 0 4.264-1.1726 5.863-.000001 0 0 5.6497-.85279 7.3553.2132l.2049-1.6582" fill="#99cc66" id="path125" stroke="#000000" stroke-miterlimit="10" stroke-width=".1"/></g><g id="g56"><path d="M47.801 84.61c-1.7056-1.066-7.3553-.2132-7.3553-.2132-1.599-1.1726-5.863.000001-5.863.000001-2.3452-1.599-7.0355 0-7.0355 0s-3.1447-.74619-6.0761-.3731c0 0-1.7056.74619-.3731 2.5051.85279-.10659 1.9188.3198 1.9188.3198.6929-.2665 3.2513-.2132 3.2513-.2132.6396-.2132 1.599-.5863 1.599-.5863.79949.2665 1.2792.3731 1.2792.3731l3.8909.2132c.31979-.4264 1.7589-.6396 1.7589-.6396.533.53299 2.5584.4264 2.5584.4264l3.4645-.1599c1.9721.4797 4.1041.4264 4.1041.4264l2.7716-.2665.10661-1.8122" fill="#99cc66" id="path32" stroke="#000000" stroke-miterlimit="10" stroke-width=".1"/></g><g id="g49"><path d="M27.547 84.396s.9061.58629.3198 1.6523" fill="#99cc66" id="path40" stroke="#000000" stroke-miterlimit="10" stroke-width=".1"/><path d="M34.583 84.396l.2132 1.599" fill="#99cc66" id="path42" stroke="#000000" stroke-miterlimit="10" stroke-width=".1"/><path d="M40.446 84.396l.3731 1.8655" fill="#99cc66" id="path44" stroke="#000000" stroke-miterlimit="10" stroke-width=".1"/></g><g id="g90"><path d="M36.564 86.469s-1.2343.05926-1.7673-.47373c0 0-1.4391.2132-1.7589.6396l-3.8909-.2132s-.4797-.1066-1.2792-.3731c0 0-.95939.3731-1.599.5863 0 0-2.5584-.0533-3.2513.2132 0 0-1.066-.4264-1.9188-.3198l-.94381.1542.15075 8.7814s1.093 1.3191 2.4874.37688c0 0 1.4322 2.1859 3.5804-.0377 0 0 1.7714.52764 2.5628-.15075.042529-.18072 2.2008 1.3784 4.3342-.33919.014665-.0734 1.6137 1.1651 3.8819-.30151-.11695-.29237.27357 1.2692 2.2047 1.4802.20434-.66534 1.0738-1.4291 1.6772-1.5556 0 0 1.4699 1.1683 3.1281.41457 0 0 .86684-.37688.86684-.86683 0 0 .55676.51991 1.4236.63297.59924-.20528 1.1154-.18887 1.3653-.65616 0 0 .6961-3.7773-.12305-8.0391l-2.7716.2665s-1.0014.30778-2.9735-.17192l-.99219 1.1339s-1.6536-2.2679-3.8742-.18899l-.51972-.99219" fill="#99cc66" id="path36" stroke="#000000" stroke-miterlimit="10" stroke-width=".1"/></g><g id="g79"><path d="M44.923 86.688s.85945 1.841.48257 4.8184l-.37689 2.9774" fill="#99cc66" id="path58" stroke="#000000" stroke-miterlimit="10" stroke-width=".1"/><path d="M33.037 86.635l.23268 8.6783" fill="#99cc66" id="path64" stroke="#000000" stroke-miterlimit="10" stroke-width=".1"/><path d="M28.936 95.652l.21063-9.2307" fill="#99cc66" id="path66" stroke="#000000" stroke-miterlimit="10" stroke-width=".1"/><path d="M26.268 86.635s.51931 2.8365.02938 4.9471c-.48995 2.1106.07538 4.2211.07538 4.2211" fill="#99cc66" id="path68" stroke="#000000" stroke-miterlimit="10" stroke-width=".1"/><path d="M23.017 86.848s.4163 2.1711.03942 4.2816c-.37688 2.1106-.26382 4.7111-.26382 4.7111" fill="#99cc66" id="path70" stroke="#000000" stroke-miterlimit="10" stroke-width=".1"/><path d="M37.152 95.012s-.4467-.22714-.068702-1.6918c.42522-2.7876 0-5.8586 0-5.8586" fill="#99cc66" id="path119" stroke="#000000" stroke-miterlimit="10" stroke-width=".1"/><path d="M41.034 94.936s-.87958-1.1912-.21812-3.837c.66145-2.6458.14174-3.449.14174-3.449" fill="#99cc66" id="path121" stroke="#000000" stroke-miterlimit="10" stroke-width=".1"/></g><g id="g445"><path d="M25.983 101.46c2.6727-2.8063 1.3363-4.4768 1.3363-4.4768-1.0023-1.5368-3.4077.13363-3.4077.13363l-2.2718 1.9377s-.26727 1.4032.13363 2.1048c0 0 1.0691 3.1738 4.2095.30067" fill="#99cc66" id="path237" stroke="#000000" stroke-miterlimit="10" stroke-width=".1"/><path d="M41.997 98.753s-6.2839 2.0316-.89769 6.6146c0 0 4.5953-.13365 3.4594-4.5436 0 0-.78037-2.0372-2.5618-2.071" fill="#99cc66" id="path259" stroke="#000000" stroke-miterlimit="10" stroke-width=".1"/><path d="M39.357 96.492s.69146-1.3632 1.6772-1.5556c0 0 2.4557.54258 2.9569.34213 0 0 .90203.4009 1.0023.86862 0 0-.96885 1.8709-1.1025 1.9711-.13363.10023-2.4054 1.4366-3.9756-.30067l-.5582-1.3256" fill="#99cc66" id="path261" stroke="#000000" stroke-miterlimit="10" stroke-width=".1"/><path d="M47.818 94.461l-.0028 7.5997c.39814.45768-2.9111-.46054-3.9282-2.1734 0 0-.64249-3.9074 3.931-5.4264h.000033" fill="#99cc66" id="path265" stroke="#000000" stroke-miterlimit="10" stroke-width=".1"/><path d="M25.482 113.65s1.607-.0601 2.4054-.63477" fill="#99cc66" id="path1454" stroke="#000000" stroke-miterlimit="10" stroke-width=".1"/></g><g id="g315"><path d="M27.587 98.419s.53454-2.6393 3.0736-2.3386c0 0 2.0045.13364 2.6727.7684 0 0 .20045-.96885 1.2695-1.1025 0 0 3.2935-.31261 4.7538.74573 0 0 2.095 3.6976-1.2793 5.034 0 0-1.9711.30068-2.9734-.60136 0 0-4.2763 3.7752-7.517-2.5056" fill="#99cc66" id="path241" stroke="#000000" stroke-miterlimit="10" stroke-width=".1"/><path d="M33.333 96.849s4.2095 2.0713 1.7707 4.0759" fill="#99cc66" id="path243" stroke="#000000" stroke-miterlimit="10" stroke-width=".1"/></g><g id="g307"><path d="M25.75 108.31s-3.9088-2.1048.23386-6.8488c0 0 2.6727-1.5034 4.744.30068 0 0 3.2741 4.7106-2.7729 7.0158 0 0 2.5725 2.0379-.066817 4.2429 1.0335-.003 2.6754.63477 2.6754.63477h-5.0808s-4.6772-2.6393.26727-5.3454" fill="#99cc66" id="path245" stroke="#000000" stroke-miterlimit="10" stroke-width=".1"/><path d="M25.75 108.31s.86863.7684 2.205.46772" fill="#99cc66" id="path247" stroke="#000000" stroke-miterlimit="10" stroke-width=".1"/></g><g id="g311"><path d="M44.737 113.67c.028386-.19968.047441-.4158.055793-.64967 0 0 4.2095-1.0357 2.2718-4.6772 0 0-.96885-3.3743-4.6438-2.94 0 0-4.6104 1.9043-.26727 7.0826 0 0-2.4053.0937-2.3995 1.1996l4.983-.0154" fill="#99cc66" id="path255" stroke="#000000" stroke-miterlimit="10" stroke-width=".1"/><path d="M42.153 112.48s.56795.63477 1.5034.13363c.93544-.50112 1.1359.40091 1.1359.40091" fill="#99cc66" id="path257" stroke="#000000" stroke-miterlimit="10" stroke-width=".1"/></g><g id="g797"><path d="M47.496 82.951h18.417v1.7223c-2.5513-.33073-3.9215.33073-3.9215.33073-1.0394-1.4647-6.7091-.51972-6.7091-.51972-2.8348-.75595-6.9523.12486-6.9523.12486l-.52917.000001-.6702-.35599" fill="#99cc66" id="path32-5" stroke="#000000" stroke-miterlimit="10" stroke-width=".1"/></g><g id="g161"><path d="M47.732 85.623c.80181.93545 3.9088.60136 3.9088.60136 2.5391.16704 3.0736-.26727 3.0736-.26727l.7684.43431 4.0759.10023c1.6704.10023 1.9043-.66817 1.9043-.66817.000774.81935 1.1359.93544 1.1359.93544h2.94l-.15513-2.0855s-2.7396-.14452-3.9215.33073c0 0 .74301-1.3978-6.7091-.51972 0 0-2.6405-1.096-6.9523.12486l-.06885 1.0138" fill="#99cc66" id="path127" stroke="#000000" stroke-miterlimit="10" stroke-width=".1"/></g><g id="g155"><path d="M54.715 85.957s.51172-.87409.0387-1.4727" fill="#99cc66" id="path129" stroke="#000000" stroke-miterlimit="10" stroke-width=".1"/><path d="M61.463 85.004l.000767.81936" fill="#99cc66" id="path131" stroke="#000000" stroke-miterlimit="10" stroke-width=".1"/></g><g id="g151"><path d="M47.818 94.461s.54077-6.205-.12305-8.0391l.03776-.79842s.83522.86863 3.9088.60136c0 0 2.0713.4009 3.0736-.26727l.7684.43432 4.0425.06682 1.2027.03341s.43431.66817 1.8709.26727l.73499.63477-.16704 5.7463s.03341 1.0023-.50113 1.6036c0 0-2.4054 1.5368-3.0068-.33409 0 0-1.4032 1.9377-4.3097.26727l-.73499.53454-2.4054.10022-.60136-.63476s-2.1346 1.6723-3.7901-.21622" fill="#99cc66" id="path133" stroke="#000000" stroke-miterlimit="10" stroke-width=".1"/></g><g id="g144"><path d="M51.641 86.225s1.2361 5.1784-.03341 8.4524" fill="#99cc66" id="path135" stroke="#000000" stroke-miterlimit="10" stroke-width=".1"/><path d="M55.483 86.392s.60136 4.8443-.13364 8.2854" fill="#99cc66" id="path137" stroke="#000000" stroke-miterlimit="10" stroke-width=".1"/><path d="M59.459 86.492s1.5368 4.5102.20045 7.9179" fill="#99cc66" id="path139" stroke="#000000" stroke-miterlimit="10" stroke-width=".1"/></g><g id="g596"><path d="M71.196 84.107s2.8821-.18899 3.1183.7087c0 0 6.0949-.47247 6.8981.33073 0 0 5.3862-1.5592 6.4728.23624 0 0 3.1183-1.3702 6.9926.09449 0 0 2.5513-.8032 4.5357-.61421l.09449-2.0316h-28.112l.000004 1.2757" fill="#99cc66" id="path165" stroke="#000000" stroke-miterlimit="10" stroke-width=".1"/></g><g id="g201"><path d="M99.213 84.863c-1.9844-.18899-4.5357.61421-4.5357.61421-3.8743-1.4647-6.9926-.09449-6.9926-.09449-1.0867-1.7954-6.4728-.23624-6.4728-.23624-.8032-.8032-6.8981-.33073-6.8981-.33073-.23624-.89769-3.1183-.7087-3.1183-.7087l-.000002 2.7403 1.5119-.28348s1.0867-.28348 1.6536-.18899l1.4174.66146 3.638-.0472s1.5119.0472 1.7009-.37798c0 0 1.3702.56692 2.1261.56692l3.3073.0473 1.0867-.42523s.7087 1.1812 2.6931.70871l3.7798.0472.66146-.7087s.56696 1.0394 3.1183.99219h1.4174l-.09449-2.9766" fill="#99cc66" id="path163" stroke="#000000" stroke-miterlimit="10" stroke-width=".1"/></g><g id="g179"><path d="M74.314 84.815l.04725 1.5592" fill="#99cc66" id="path167" stroke="#000000" stroke-miterlimit="10" stroke-width=".1"/><path d="M81.212 85.146l-.0945 1.4647" fill="#99cc66" id="path169" stroke="#000000" stroke-miterlimit="10" stroke-width=".1"/><path d="M87.685 85.382s.47454.5137-.04725 1.4175" fill="#99cc66" id="path171" stroke="#000000" stroke-miterlimit="10" stroke-width=".1"/><path d="M94.677 85.477l.09449 1.3702" fill="#99cc66" id="path173" stroke="#000000" stroke-miterlimit="10" stroke-width=".1"/></g><g id="g235"><path d="M99.308 87.839h-1.4174c-2.5513.0472-3.1183-.99219-3.1183-.99219l-.66146.7087-3.7798-.0472c-1.9844.47247-2.6931-.70871-2.6931-.70871l-1.0867.42523-3.3073-.0473c-.75595 0-2.1261-.56692-2.1261-.56692-.18899.42518-1.7009.37798-1.7009.37798l-3.638.0472-1.4174-.66146c-.56696-.09449-1.6536.18899-1.6536.18899l-.14174 1.2284-.18899 7.654s.75595 1.0867 1.6536.8032l1.4174-.75596s1.5119 1.5592 3.7798.0945c0 0 1.0394 1.6536 3.3545.42522 0 0-.23624.70871.56696.8032l2.6458.0473.61421-.18899s.89769.56696 1.8426.66146l1.5592-.66151 1.3702.47247s2.4568.18899 2.5513-.66146c0 0 .87407 1.5828 3.638.14174 0 0 1.1103.73233 1.9608.47247l-.02362-9.2604" fill="#99cc66" id="path191" stroke="#000000" stroke-miterlimit="10" stroke-width=".1"/></g><g id="g224"><path d="M75.779 87.036s.47247 1.4174.18899 4.2995c-1.1339 3.0238-.51972 4.1577-.51972 4.1577" fill="#99cc66" id="path203" stroke="#000000" stroke-miterlimit="10" stroke-width=".1"/><path d="M79.606 87.131l-.37798 8.4572" fill="#99cc66" id="path205" stroke="#000000" stroke-miterlimit="10" stroke-width=".1"/><path d="M83.244 87.083l-.66146 8.9297" fill="#99cc66" id="path207" stroke="#000000" stroke-miterlimit="10" stroke-width=".1"/><path d="M86.551 87.225l-.14174 9.4494" fill="#99cc66" id="path209" stroke="#000000" stroke-miterlimit="10" stroke-width=".1"/><path d="M90.331 87.509s.47247 3.638-.51972 9.1659" fill="#99cc66" id="path211" stroke="#000000" stroke-miterlimit="10" stroke-width=".1"/><path d="M94.11 87.556s.61421 3.2128-.09449 4.4885c-.70871 1.2757-.28348 4.4412-.28348 4.4412" fill="#99cc66" id="path213" stroke="#000000" stroke-miterlimit="10" stroke-width=".1"/><path d="M97.937 87.887s.23624 1.3702-.14174 2.7403-.42522 6.0004-.42522 6.0004" fill="#99cc66" id="path215" stroke="#000000" stroke-miterlimit="10" stroke-width=".1"/></g><g id="g570"><path d="M101.08 125.35h-4.016s-1.6064.80323-3.4018 0c0 0-2.008.80317-3.4963-.21264 0 0-.3044.40595-1.0728.50618h-5.8465l-.70158-.40091-.63476.43431h-2.7729l-.3675-.43431-.50113.46772h-4.8777l-.63476-.46772-.43431.46772h-3.9422l-.50113-.56794-.53454.36749h-4.9111l-.50113-.53454-.73499.73499h-5.6127l-.73499-.63476-.83522.60135h-4.9111l-.86863-.53453-.46772.60135h-5.3788l-.56795-.63476-.43431.43431h-4.8443l-.50113-.66817-.3675.50113h-4.3431l-.63477-.70159-.46772.3675h-5.7797l-.63477-.50113-.86863.73499-2.7272-.30404v2.6092h80.803l.05997-2.2312" fill="#99cc66" id="path482" stroke="#000000" stroke-miterlimit="10" stroke-width=".1"/></g><g id="g550"><path d="M20.263 123.18l2.5513-.0945s.61421-.18898.89769.61422c0 0 .33073-.61421.94494-.51972h5.3389l.66448.72967.30068-.4009 4.0425-.10023 1.0691.53454.67964-.45597h4.5121s.61421.14174.54334.54334c0 0-.094494-.51972.51972-.51972h5.2917s.44252.0426.51972.33073c0 0 .18899-.49609.51972-.49609h5.1499s.75595.0709.75595.54334c0 0 .56696-.8032 1.1812-.66146h5.0082s1.0394.33073 1.0394.8032c0 0 .47247-.61421 1.1339-.61421h3.8743s.89769.18898 1.0394.51971l.47247-.23623h3.7798l.61421.42522.66146-.42522h4.6302s.66146.28348.7087.51972c0 0 .49609-.8032 1.2048-.8032h1.7954l.77958.61421.51972-.59059h6.5673l.42522.63783s.44885-.42522 1.3229-.42522l1.9844.0709.18899.23624.4016-.16537h2.8112l.33073.37798.47247-.56697h3.1419s.99219.73233.42522 1.7481h-4.016s-1.6064.80323-3.4018 0c0 0-2.008.80317-3.4963-.21264 0 0-.3044.40595-1.0728.50618h-5.8465l-.70158-.40091-.63476.43431h-2.7729l-.3675-.43431-.50113.46772h-4.8777l-.63476-.46772-.43431.46772h-3.9422l-.50113-.56794-.53454.36749h-4.9111l-.50113-.53454-.73499.73499h-5.6127l-.73499-.63476-.83522.60135h-4.9111l-.86863-.53453-.46772.60135h-5.3788l-.56795-.63476-.43431.43431h-4.8443l-.50113-.66817-.3675.50113h-4.3431l-.63477-.70159-.46772.3675h-5.7797l-.63477-.50113-.86863.73499-2.7272-.30404.04725-1.7954" fill="#99cc66" id="path514" stroke="#000000" stroke-miterlimit="10" stroke-width=".1"/></g><g id="g532"><path d="M23.712 123.7l.09955.84472" fill="#99cc66" id="path484" stroke="#000000" stroke-miterlimit="10" stroke-width=".1"/><path d="M30.661 123.91l.033409.7684" fill="#99cc66" id="path486" stroke="#000000" stroke-miterlimit="10" stroke-width=".1"/><path d="M36.073 123.94l-.033409.93545" fill="#99cc66" id="path488" stroke="#000000" stroke-miterlimit="10" stroke-width=".1"/><path d="M41.808 124.03l.011226 1.0819" fill="#99cc66" id="path490" stroke="#000000" stroke-miterlimit="10" stroke-width=".1"/><path d="M48.139 123.84l.09459 1.3043" fill="#99cc66" id="path492" stroke="#000000" stroke-miterlimit="10" stroke-width=".1"/><path d="M54.565 123.89l.28392 1.1903" fill="#99cc66" id="path494" stroke="#000000" stroke-miterlimit="10" stroke-width=".1"/><path d="M61.793 124.03l.13777.9483" fill="#99cc66" id="path496" stroke="#000000" stroke-miterlimit="10" stroke-width=".1"/><path d="M67.841 123.94l.03689 1.2098" fill="#99cc66" id="path498" stroke="#000000" stroke-miterlimit="10" stroke-width=".1"/><path d="M72.707 124.13l.04812 1.1211" fill="#99cc66" id="path500" stroke="#000000" stroke-miterlimit="10" stroke-width=".1"/><path d="M78.708 124.22l.06131 1.0266" fill="#99cc66" id="path502" stroke="#000000" stroke-miterlimit="10" stroke-width=".1"/><path d="M82.488 124.03l.05673 1.2156" fill="#99cc66" id="path504" stroke="#000000" stroke-miterlimit="10" stroke-width=".1"/><path d="M90 124.08l.16536 1.0631" fill="#99cc66" id="path506" stroke="#000000" stroke-miterlimit="10" stroke-width=".1"/><path d="M93.496 123.96l.16536 1.3938" fill="#99cc66" id="path508" stroke="#000000" stroke-miterlimit="10" stroke-width=".1"/><path d="M97.04 124.17l.02363 1.1812" fill="#99cc66" id="path510" stroke="#000000" stroke-miterlimit="10" stroke-width=".1"/></g><g id="g1199"><path d="M40.568 112.81c-.69689.1063-.81399.87419-.81399.87419.00267.51149.52115 1.2395 2.032 2.2749 0 0 2.5252.7047 2.951-2.2903l.055793-.64967" fill="#99cc66" id="path279" stroke="#000000" stroke-miterlimit="10" stroke-width=".1"/><path d="M29.992 113.42c-.079075.18334 2.7885.47711 3.3075 3.5781 0 0 2.9734-1.0357 4.3431.50113 0 0 1.5034-1.8041 4.1427-1.5368 0 0 3.3075 1.7372.10023 4.2763 0 0-2.94 1.8375-3.9756-.96885 0 0-.20045 1.5034-2.7729 1.2361 0 0-1.7373.66817-2.5725-1.6704 0 0-6.9156 2.2384-8.3188-2.0379 0 0-.03341-2.8397 1.2361-3.1404" fill="#99cc66" id="path271" stroke="#000000" stroke-miterlimit="10" stroke-width=".1"/><path d="M33.3 116.99s.4009 1.7706-.73499 1.8375" fill="#99cc66" id="path251" stroke="#000000" stroke-miterlimit="10" stroke-width=".1"/><path d="M37.643 117.5l.26727 1.7707" fill="#99cc66" id="path253" stroke="#000000" stroke-miterlimit="10" stroke-width=".1"/></g><g id="g296"><path d="M29.825 119.8s3.2072-1.1359 4.4434 1.6704c0 0 2.5057-1.7707 4.5436-.63477 0 0 .7684 2.3052-1.0357 2.6393 0 0-1.1693 0-1.7038.46772 0 0-.16704-.53454-1.0691-.53454 0 0-.63477-.60135-.73499-.90203 0 0-.60136.96885-3.3075 1.0023l-.30068.4009-.60136-.70158-1.0691-.0668s-1.9043-2.372.83522-3.3409v-.00002" fill="#99cc66" id="path281" stroke="#000000" stroke-miterlimit="10" stroke-width=".1"/><path d="M34.269 121.47s.50113.31738-3e-7 1.0357" fill="#99cc66" id="path283" stroke="#000000" stroke-miterlimit="10" stroke-width=".1"/></g><g id="g783"><path d="M46.452 95.117l1.3653-.65616c-.16501-.0582 7.0709 3.7763-.0028 7.5997l-1.5658-.33073" fill="#99cc66" id="path267" stroke="#000000" stroke-miterlimit="10" stroke-width=".1"/><path d="M50.501 99.982s5.098-4.9613 5.9508 2.0787c0 0-1.6985 4.3942-5.3838 3.024 0 0-2.7403-1.7481-.56696-5.1027" fill="#99cc66" id="path574" stroke="#000000" stroke-miterlimit="10" stroke-width=".1"/></g><g id="g690"><path d="M73.658 97.483c-3.1404-3.4411-5.9802.50114-5.9802.50114-2.9734-6.047-6.214.0334-6.214.0334-1.1693 8.4858 4.7774 3.1404 4.7774 3.1404-.4009 3.6081 2.9734 3.274 2.9734 3.274-1.9043 1.9043-.06682 4.009-.06682 4.009-2.3052 1.9043-.33409 2.9066-.33409 2.9066-2.6059.80181-2.7061 3.3409-2.7061 3.3409-1.1693.16704-2.0045 1.7038-2.0045 1.7038-2.3052-.73499-4.1761.16704-4.1761.16704.16704-1.1359-1.3363-1.0023-1.3363-1.0023-.93544.20045-1.1025-.56795-1.1025-.56795.16704-.70158-1.2361-1.6036-1.2361-1.6036 2.4054-1.9711-.43431-3.4745-.43431-3.4745l.53454-.56794s-.20045-.66818.73499-1.7038c.93544-1.0357.46772-1.7707.46772-1.7707 5.0113-2.7061 2.205-4.8443 2.205-4.8443 2.205-2.5056 1.7373-3.7752 1.7373-3.7752-.86863-4.2763-5.6795-.73499-5.6795-.73499.10023-.63477-1.2027-1.3029-1.2027-1.3029l-2.4054.10022c-1.2361-.10023-1.7038 1.7373-1.7038 1.7373s1.9711 2.6727 4.9779.66817c0 0-.60136 2.4722 2.1716 2.8732l.53454.7684-1.7373.70158s-.30068 1.1025-.93544 1.8041l.06682 1.1359s-3.0068-1.0691-2.4054 3.0736c0 0 .4009 1.8709 1.1359 2.1716 0 0-3.3743 2.5056-1.8709 3.9756 0 0 1.2695.93545 2.5725.46773 0 0-.63476 5.7797 3.9422 2.9066 0 0 2.4388 3.6081 4.9445 2.4722 0 0 1.1693-.53453 1.7038-1.8709 0 0 1.1693-.66818 1.8709-.73499 1.2027-.50113.83522-1.4366.83522-1.4366s1.4366-.46772 2.205-1.7372c0 0 .43431-.56795 0-1.4032-.43431-.83522-.50113-1.5368-.50113-1.5368s1.7373-.56795 1.0357-2.2718c0 0 1.7038-.93545 1.1693-3.1738 0 0 .30068-.73499-.46772-.50113s-.90204-1.47-.90204-1.47l-.83522-.20045-.16704-.70159-.90204-1.8375s.90204.0668 1.5702-.33408c.66817-.40091 1.8709 0 1.8709 0l1.2361-.93545.03341-2.4388" fill="#99cc66" id="path572" stroke="#000000" stroke-miterlimit="10" stroke-width=".1"/></g><g id="g673"><path d="M68.947 101.19l-1.7202-.97381.45065-2.2334" fill="#99cc66" id="path618" stroke="#000000" stroke-miterlimit="10" stroke-width=".1"/><path d="M67.227 100.22l-.98592.94041" fill="#99cc66" id="path620" stroke="#000000" stroke-miterlimit="10" stroke-width=".1"/><path d="M69.147 108.44s1.1935-.0981 1.9043.63477" fill="#99cc66" id="path622" stroke="#000000" stroke-miterlimit="10" stroke-width=".1"/><path d="M69.214 104.43l.80181-.70158" fill="#99cc66" id="path624" stroke="#000000" stroke-miterlimit="10" stroke-width=".1"/><path d="M68.813 111.35h1.2027" fill="#99cc66" id="path626" stroke="#000000" stroke-miterlimit="10" stroke-width=".1"/><path d="M68.312 116.03s-.82044-1.4175-2.205-1.3363" fill="#99cc66" id="path628" stroke="#000000" stroke-miterlimit="10" stroke-width=".1"/><path d="M64.103 116.39s.21344 1.5456 1.5034 1.8041" fill="#99cc66" id="path630" stroke="#000000" stroke-miterlimit="10" stroke-width=".1"/><path d="M59.927 116.56l-.96885 1.0357" fill="#99cc66" id="path632" stroke="#000000" stroke-miterlimit="10" stroke-width=".1"/><path d="M55.016 114.69l1.2361-1.3029" fill="#99cc66" id="path634" stroke="#000000" stroke-miterlimit="10" stroke-width=".1"/><path d="M54.314 110.25l1.5034-.33409" fill="#99cc66" id="path636" stroke="#000000" stroke-miterlimit="10" stroke-width=".1"/><path d="M55.584 105s.42542 1.1335 1.9711.86862" fill="#99cc66" id="path638" stroke="#000000" stroke-miterlimit="10" stroke-width=".1"/><path d="M58.189 101.36s1.3318.9924 1.5702-.33409" fill="#99cc66" id="path640" stroke="#000000" stroke-miterlimit="10" stroke-width=".1"/><path d="M55.817 96.515l-.33409 1.2027" fill="#99cc66" id="path642" stroke="#000000" stroke-miterlimit="10" stroke-width=".1"/></g><g id="g740"><path d="M61.368 120.96s-.09449-3.6853-4.2522-.89769c0 0-1.5592 2.5041.56696 3.2128 0 0 2.6112.00042 3.1458-1.0687l-.07471 1.0214 1.0394.8032s.47185-.82236 2.3093-.5885c0 0 1.0691-.43431 1.2695-1.2027l1.4293 1.177s.53482-.0554 1.0394.51971c0 0 .57143-.32695 1.4735-.26014 0 0 3.9422-1.47.83522-4.744 0 0 2.8397-.50113 3.107-1.8375 0 0 2.6059 1.3698 3.2406-1.5034 0 0 2.9066.33409 3.5747-1.637 0 0 1.7707 2.6727 3.7084.40091 0 0 1.2361-.83522.70158-2.4722 0 0 2.3052.0668 2.7395-1.0357 0 0 1.4554-1.3213 1.0302-2.4552 0 0 2.0316.8977 3.7325-.37797 0 0-.18899 2.9766 3.1183 3.1656 0 0-3.3073 3.4018.51972 5.6224 0 0-2.1497.66143-1.9371 3.827 0 0-1.9371-.42522-2.4096 2.8821l2.0316.21264s1.8426-1.2048 1.3465-2.1025l1.2284.33073s-1.5355 1.8898.04725 1.7718l.77957.0709.33073.37798.47247-.56697s2.2679-.8741.3071-2.1498c0 0 4.7011-2.764.28348-5.4098 0 0 4.016-5.079-1.5828-5.3862 0 0 1.4174-1.2284.23624-2.8348 0 0 6.1657-2.5041 1.2993-6.8744 0 0 2.5513-1.5355.42522-3.6616l-1.1103-.66146s-1.1103.70871-2.0552.63784c0 0-1.2782.75293-1.1446 1.989 0 0-4.8777-5.0113-7.4835-.50113 0 0-1.1025 4.6104 3.4745 5.1784 0 0 4.7774-.33409 4.4768-3.6416l1.3363 1.0023s-3.3075 1.1693-3.107 3.1404c0 0-.50113 1.3698.66817 2.0713l-.93544.4009s.13364-4.2429-5.2786-2.4722c0 0 .73499-2.8397-2.1382-2.9734 0 0 3.0934-2.2755.61127-4.5956l-2.6458-.0473-1.5736 1.1016-1.1693-1.4032-1.1786-.92681s-1.6555 1.4567-3.7798-.0945c0 0-2.759 1.4222-1.4227 5.5315 0 0-.65619-.0981-1.483.3744 0 0-.96856-1.4883-1.5355-.0945l-1.1575 1.7246.16704.70159.83522.20045s.22615 1.6492.86399 1.4838c0 0 .63356-.27751.50577.48727 0 0 3.8882-.39278 2.7779-4.1253 0 0 4.2522 1.441 6.3311-1.9608 0 0 .42522 1.7954 2.5277 1.9135 0 0-3.0474 3.3309 1.0631 5.7169 0 0-1.5079 1.3288-1.6415 3.3667 0 0-1.6704-.46772-3.1738 1.3364 0 0 0-3.3743-2.8063-1.0023 0 0-2.0379 1.7038-1.8375 2.6059 0 0-2.3052-.7684-2.8397 1.6036 0 0-.50113-1.7372-2.8397-.33409 0 0-1.5034 1.3029-1.1025 2.7395 0 0-3.9422-1.0357-3.842 2.9734 0 0-1.3932-1.0563-3.4695.22354" fill="#99cc66" id="path576" stroke="#000000" stroke-miterlimit="10" stroke-width=".1"/></g><g id="g716"><path d="M96.756 107.82s-.72393-1.4608-3.2204-1.321" fill="#99cc66" id="path598" stroke="#000000" stroke-miterlimit="10" stroke-width=".1"/><path d="M95.103 111.18s.8032.37797 1.4174-.51972" fill="#99cc66" id="path600" stroke="#000000" stroke-miterlimit="10" stroke-width=".1"/><path d="M95.622 116.8s1.5119-.7087 2.4805-.75595" fill="#99cc66" id="path602" stroke="#000000" stroke-miterlimit="10" stroke-width=".1"/><path d="M93.685 120.63l.96856.99219" fill="#99cc66" id="path604" stroke="#000000" stroke-miterlimit="10" stroke-width=".1"/><path d="M95.882 121.95s.77957-.47248 1.9371-.4961" fill="#99cc66" id="path606" stroke="#000000" stroke-miterlimit="10" stroke-width=".1"/><path d="M92.6 106.9l-.6161 1.1091" fill="#99cc66" id="path608" stroke="#000000" stroke-miterlimit="10" stroke-width=".1"/><path d="M87.322 104.43s-2.2828 2.1639.92996 3.9593" fill="#99cc66" id="path610" stroke="#000000" stroke-miterlimit="10" stroke-width=".1"/><path d="M84.921 107.45s1.3465-.33073 1.441-1.2284" fill="#99cc66" id="path612" stroke="#000000" stroke-miterlimit="10" stroke-width=".1"/><path d="M83.858 101.73l1.3259-.27082" fill="#99cc66" id="path614" stroke="#000000" stroke-miterlimit="10" stroke-width=".1"/><path d="M81.575 97.918l-.24543 1.8986" fill="#99cc66" id="path616" stroke="#000000" stroke-miterlimit="10" stroke-width=".1"/><path d="M83.279 110.81l1.2027 1.0691" fill="#99cc66" id="path644" stroke="#000000" stroke-miterlimit="10" stroke-width=".1"/><path d="M80.106 112.15l-.03341 1.8041" fill="#99cc66" id="path646" stroke="#000000" stroke-miterlimit="10" stroke-width=".1"/><path d="M75.462 113.75s1.2348.485 1.0357 1.8375" fill="#99cc66" id="path648" stroke="#000000" stroke-miterlimit="10" stroke-width=".1"/><path d="M72.622 115.36s-.1389 1.1322.63476 1.7372" fill="#99cc66" id="path650" stroke="#000000" stroke-miterlimit="10" stroke-width=".1"/><path d="M68.68 117.76l1.47 1.1693" fill="#99cc66" id="path652" stroke="#000000" stroke-miterlimit="10" stroke-width=".1"/><path d="M64.838 120.74l.53454 1.5034" fill="#99cc66" id="path654" stroke="#000000" stroke-miterlimit="10" stroke-width=".1"/><path d="M61.368 120.96l-.5395 1.2464" fill="#99cc66" id="path656" stroke="#000000" stroke-miterlimit="10" stroke-width=".1"/><path d="M95.975 101.29l2.0809-.34171" fill="#99cc66" id="path658" stroke="#000000" stroke-miterlimit="10" stroke-width=".1"/><path d="M74.025 101.02l.97383.75238" fill="#99cc66" id="path692" stroke="#000000" stroke-miterlimit="10" stroke-width=".1"/><path d="M94.171 99.254l.46772 1.0357" fill="#99cc66" id="path694" stroke="#000000" stroke-miterlimit="10" stroke-width=".1"/></g><g id="g2946"><path d="M23.842 37.19s-.38887-.24304 1.0208-2.0416c1.1666-1.4097 2.5763-3.0138 3.5485-3.5485 1.0208-.63192 1.993-1.361 4.1318-.5347.68052.38887 1.118.68052 1.7985 1.361.34026.5347 1.3124.97218 1.4097 1.118.48609.24304 2.6735 1.7985 3.2568 2.0416-.58331-.5347-2.4791-2.1874-3.111-2.4791-.68052-.29165-1.2638-.82635-1.0694-2.8679.19444-1.1666.43748-1.8471.43748-1.8471.48609.38887 2.4304 2.1874 2.7707 2.8193.29165.48609.097218.82635.29165 1.361.14583.48609.43748 1.0208.63192 1.118.048609-.34026.14583-.87496.14583-.87496.14583.24304.77774.72913.77774.72913.097218.24304.48609 1.2638.43748 1.5069-.048609.38887-.14583.97218-.14583.97218.29165-.38887.97218-.97218 1.2638-2.2846.097218-.72913.048609-2.1874.5347-2.8193.43748-.63192.77774-1.2638 1.7985-1.5069.5347-.14583 1.4097-.38887 1.7013.92357.048609.43748-.048609 1.0208-1.0694 2.1874-.68052.63192-2.1874 1.9444-2.1874 1.993-.34026.38887-.48609.58331-.48609.58331.68052-.48609 2.7707-1.6041 3.0624-1.7013.29165-.38887 2.1874-2.4304 4.6178-2.7221 1.0694-.09722 3.5971.58331 4.3262.92357-.38887.19444-1.0694.58331-1.1666.92357-.14583.38887-.48609 1.118-.92357 1.118.43748.29165 1.9444 1.2638 2.5277 2.0902.48609.5347 1.993 1.6527 2.9651 1.8957-.14583.24304-3.1596 1.4097-4.6665.92357-1.5069-.48609-2.3332-1.4097-3.7429-2.5277-.82635-.58331-2.1388-1.4583-4.0831-1.118-1.0694.24304-3.0138.87496-3.8887 1.5555l-.14583.19444c.48609 0 4.0345-.34026 4.7151.5347.58331.77774 1.2152 1.6527 1.2152 1.6527-.34026.29165-2.1388 1.7499-3.9859 0-.72913-.82635-1.3124-1.6041-1.9444-1.5555.29165.38887 1.7499 2.3332 2.7221 2.8679 1.0694.29165 3.9373.68052 4.6178 2.9651.38887 1.2638.48609 2.7707.48609 2.7707-.63192.29165-2.6735 1.7013-5.4928-1.8471-.63192-1.2638-.77774-1.361-1.3124-4.0345-.38887-.72913-.72913-1.4583-1.361-1.9444-.63192-.04861-.92357-.04861-.97218 0-.48609.04861-1.8471.14583-2.3818 1.0208-.63192.82635-1.6041 1.993-3.7429 3.111-1.0694.48609-2.1388 1.0208-3.7429-.92357-.38887-.63192-.58331-1.8957.048609-2.6249.68052-.77774 1.8957-2.2846 3.111-2.236.82635.04861 4.0831.63192 6.465 1.0694-.29165-.38887-2.0902-2.7707-5.8331-2.8193-.72913.04861-1.6527.19444-2.7707.92357-1.2638.77774-2.8679 2.1874-4.8609 1.5555-.48609-.19444-1.2152-.24304-1.7499.04861" fill="none" id="path2944" stroke="#000000" stroke-miterlimit="10" stroke-width=".1"/></g><g id="g2942"><path d="M38.23 49.779c.38887-1.0208 0-2.0416-.34026-2.8679-.048609-.09722-.097218-.19444-.097218-.29165-.48609-1.4097.77774-2.7707.77774-2.7707" fill="none" id="path2896" stroke="#000000" stroke-miterlimit="10" stroke-width=".1"/><path d="M42.07 33.69s1.118-1.993 1.993-2.8679" fill="none" id="path2898" stroke="#000000" stroke-miterlimit="10" stroke-width=".1"/><path d="M44.403 38.308c-.34026-.92357-1.8957-1.0694-1.9444-1.0694" fill="none" id="path2900" stroke="#000000" stroke-miterlimit="10" stroke-width=".1"/><path d="M34.973 37.676c-1.0694.34026-3.3054 1.7499-3.4026 1.7985" fill="none" id="path2902" stroke="#000000" stroke-miterlimit="10" stroke-width=".1"/><path d="M36.966 37.724c-1.5069-.19444-3.9859 2.4791-4.1318 2.5763" fill="none" id="path2904" stroke="#000000" stroke-miterlimit="10" stroke-width=".1"/><path d="M33.612 33.252c-3.9859-.43748-6.6594 1.7013-6.708 1.7499" fill="none" id="path2906" stroke="#000000" stroke-miterlimit="10" stroke-width=".1"/><path d="M37.598 33.204c-.58331-.5347-1.2638-2.236-1.2638-2.236" fill="none" id="path2908" stroke="#000000" stroke-miterlimit="10" stroke-width=".1"/><path d="M39.542 34.273s.14583.43748.19444.68052" fill="none" id="path2910" stroke="#000000" stroke-miterlimit="10" stroke-width=".1"/><path d="M45.327 44.092c-.68052-1.5069-2.3332-3.2082-2.3818-3.2082" fill="none" id="path2912" stroke="#000000" stroke-miterlimit="10" stroke-width=".1"/><path d="M38.91 33.592c-.048609 0-.048609 0 0 0" fill="none" id="path2914" stroke="#000000" stroke-miterlimit="10" stroke-width=".1"/><path d="M41.633 45.21c-.14583-.14583-.92357-.77774-.92357-1.5555-.048609-.72913-.24304-1.6527-.63192-2.6249-.048609-.19444-.24304-.29165-.19444-.19444.19444-.43748.29165-1.2638.29165-1.5555v-.29165c0-.24304.048609-.38887.097218-.58331.048609-.14583.048609-.29165.097218-.43748" fill="none" id="path2916" stroke="#000000" stroke-miterlimit="10" stroke-width=".1"/><path d="M38.084 63.681c-.048609-.43748.097218-.77774.34026-1.2638.097218-.48609-.048609-1.5555-.24304-2.3332-.29165-1.2638 1.0694-2.5763 1.118-2.6249l.048609.04861c.048609-.43748.14583-.92357.29165-1.361.048609-.34026.048609-.82635.048609-1.3124 0-.77774-.048609-1.6041.19444-2.0416.048609-.09722.097218-.24304.14583-.38887.34026-.92357.68052-1.8471.5347-3.7915-.72913-1.7499-.5347-1.2152-.77774-1.6041-.24304-.38887-.63192-.19444-.97218-2.0416s0-2.5277 0-3.4026c0-.87496.43748-3.0138.58331-3.6457" fill="none" id="path2918" stroke="#000000" stroke-miterlimit="10" stroke-width=".1"/><path d="M42.653 66.647c-.38887-.24304-.43748-.82635-.48609-1.2152 0-.14583 0-.24304-.048609-.29165-.5347-.5347-.43748-1.118-.29165-1.8471 0-.68052-.5347-1.118-.72913-1.2638.048609.29165.048609.58331.048609.72913-.14583.72913-.48609 2.3332.19444 4.6665.097218.24304.24304.48609.38887.72913.29165 2.0416.43748 3.7429.43748 3.7429l-.048609-.77774s-.24304-.87496-.5347-2.9165c-.097218-.24304-.19444-.43748-.29165-.63192 0-.04861 0-.04861-.048609-.09722-.5347-1.0694-1.0208-1.993-.92357-3.5971v-.09722c.097218-1.993.097218-2.6249-.82635-4.5206-.14583-.43748-.14583-1.2638-.14583-1.7985" fill="none" id="path2920" stroke="#000000" stroke-miterlimit="10" stroke-width=".1"/><path d="M43.139 57.216c.14583-1.5555-.24304-2.0416-.5347-2.4304l-.048609-.04861c-.38887-.48609-.38887-1.0694-.34026-2.2846 0-1.2638-.68052-1.7499-.92357-1.8957 0 .5347-.048609 1.0694-.14583 1.4097l-.048609.09722c-.38887.92357-.63192 1.4583-.5347 2.5763.048609.82635-.14583 1.7985-.29165 2.3818-.048609.24304-.097218.43748-.097218.5347-.097218.5347.14583 1.4097.38887 1.7013.19444.34026.29165.82635.38887 1.1666.048609.14583.048609.29165.097218.38887v.14583c.048609.24304.097218.5347.14583.82635l.048609.19444" fill="none" id="path2922" stroke="#000000" stroke-miterlimit="10" stroke-width=".1"/><path d="M39.883 40.835c-.19444.97218-.14583.97218-.14583 1.9444 0 .97218-.14583 1.5069 0 1.993.14583.48609.38887.87496.58331 1.118.43748.63192.87496 1.2152.92357 2.0902V50.50822" fill="none" id="path2924" stroke="#000000" stroke-miterlimit="10" stroke-width=".1"/><path d="M50.868 32.183c-1.4583-.14583-2.9165.58331-2.9651.63192h.38887c-.97218 0-2.1874.14583-3.354.5347" fill="none" id="path2926" stroke="#000000" stroke-miterlimit="10" stroke-width=".1"/><path d="M51.597 33.592c-.87496-.43748-1.993-.77774-3.3054-.82635" fill="none" id="path2928" stroke="#000000" stroke-miterlimit="10" stroke-width=".1"/><path d="M39.105 37.287c.097218-.04861.48609-.04861.58331-.19444.14583-.19444.19444-.5347.097218-.87496-.048609-.097218-.14583-.19444-.19444-.34026-.29165-.43748-.72913-1.118-.63192-2.1874" fill="none" id="path2930" stroke="#000000" stroke-miterlimit="10" stroke-width=".1"/><path d="M40.126 36.169c-.097218.48609-.048609.87496-.048609.87496" fill="none" id="path2932" stroke="#000000" stroke-miterlimit="10" stroke-width=".1"/><path d="M46.056 33.933l7.1455 2.4791c-4.1804-3.5971-7.1455-2.4791-7.1455-2.4791" fill="none" id="path2934" stroke="#000000" stroke-miterlimit="10" stroke-width=".1"/></g><g id="labels" font-size="30" font-family="sans-serif"><text id="text3976" style="line-height:1.25;text-align:center" transform="translate(-.00026)" x="58.058022" y="138.94167" font-family="Arial" font-size="2.1167" letter-spacing="0" stroke-width=".013861" text-anchor="middle" word-spacing="0"><tspan id="tspan3974" style="text-align:start" x="56.999077" y="138.94167" text-anchor="start">5 Day uninfected</tspan> <tspan id="tspan3978" style="text-align:start" x="56.999077" y="141.58749" text-anchor="start">5 Day post infected</tspan></text><text id="text3984" style="line-height:1.25;text-align:end" transform="translate(-.00026)" x="108.83546" y="32.976051" font-family="Arial" font-size="2.1167" letter-spacing="0" stroke-width=".013861" text-anchor="end" word-spacing="0"><tspan id="tspan3982" style="text-align:end" x="138.83546" y="32.976051" font-size="3.5278">Col laser</tspan> <tspan id="tspan3986" style="text-align:end" x="138.83546" y="37.385773" font-size="3.5278">microdissected</tspan></text><text id="text3992" style="line-height:1.25;text-align:end" transform="translate(-.00026)" x="138.83546" y="64.461472" font-family="Arial" font-size="2.1167" letter-spacing="0" stroke-width=".013861" text-anchor="end" word-spacing="0"><tspan id="tspan3988" style="text-align:end" x="138.83546" y="64.461472" font-size="3.5278"> <tspan id="tspan4006" style="text-align:end" font-style="italic">eds16</tspan> laser</tspan> <tspan id="tspan3990" style="text-align:end" x="138.83546" y="68.871193" font-size="3.5278">microdissected</tspan></text><text id="text3998" style="line-height:1.25;text-align:end" transform="translate(-.00026)" x="110.07053" y="96.476051" font-family="Arial" font-size="2.1167" letter-spacing="0" stroke-width=".013861" text-anchor="end" word-spacing="0"><tspan id="tspan3994" style="text-align:end" x="140.07053" y="96.476051" font-size="3.5278">Col whole leaf</tspan> <tspan id="tspan3996" style="text-align:end" x="140.07053" y="100.88577" font-size="3.5278">amplified</tspan></text><text id="text4004" style="line-height:1.25;text-align:end" transform="translate(-.00026)" x="108.97154" y="127.96147" font-family="Arial" font-size="2.1167" letter-spacing="0" stroke-width=".013861" text-anchor="end" word-spacing="0"><tspan id="tspan4002" style="text-align:end" x="138.97154" y="127.96147" font-size="3.5278">Col leaf scrape</tspan></text><text id="text4012" style="line-height:1.25;text-align:end" transform="translate(-.00026)" x="125.5359" y="152.03856" font-family="Arial" font-size="2.1167" letter-spacing="0" stroke-width=".013861" text-anchor="end" word-spacing="0"><tspan id="tspan4010" style="text-align:start" x="140.5359" y="152.03856" font-size="3.5278" text-anchor="start">5 Day uninfected</tspan></text><text id="text4016" style="line-height:1.25;text-align:end" transform="translate(-.00026)" x="157.79854" y="152.03856" font-family="Arial" font-size="2.1167" letter-spacing="0" stroke-width=".013861" text-anchor="end" word-spacing="0"><tspan id="tspan4014" style="text-align:start" x="172.79854" y="152.03856" font-size="3.5278" text-anchor="start">5 Day post infected</tspan></text><text id="text8052" style="line-height:1.25;text-align:end" transform="translate(-.00026)" x="39.244114" y="82.042969" font-family="Arial" font-size="2.1167" letter-spacing="0" stroke-width=".037044" text-anchor="end" word-spacing="0"><tspan id="tspan8050" style="text-align:start" x="39.244114" y="82.042969" text-anchor="start">*Haustorial complex</tspan></text></g><g id="g8056"><path d="M178.66 118.09s1.3894.75426 1.0321 2.3025c0 0-.99244.67486-1.2703-.47637 0 0 .43668-.91305.23819-1.8261" fill="#595959" id="path8054" stroke="#000000" stroke-miterlimit="10" stroke-width=".1"/></g><g id="HC"><path d="M37.603 81.263s2.3151 1.2568 1.7198 3.8365c0 0-1.6536 1.1245-2.1167-.79375 0 0 .7276-1.5214.39687-3.0427" fill="#595959" id="path2154" stroke="#000000" stroke-miterlimit="10" stroke-width=".1"/></g></svg>