<svg id="Layer_1" xmlns="http://www.w3.org/2000/svg" viewBox="20 70 550 300"><g id="Phytophthora_infestans"><g id="Labels"><text transform="translate(32.9314 97.314)" font-family="'HelveticaNeue-Italic'" font-size="18">Phytophthora infestans</text><text transform="translate(262.0428 163.6665)" font-family="'HelveticaNeue-Thin'" font-size="12">Control</text><text transform="translate(265.5075 176.6665)" font-family="'HelveticaNeue-Thin'" font-size="10">(Water)</text><text transform="translate(228.7966 266.1665)"><tspan x="0" y="0" font-family="'HelveticaNeue-Thin'" font-size="12">Suspension of 10^6</tspan><tspan x="-7.1" y="14.4" font-family="'HelveticaNeue-ThinItalic'" font-size="12">Phytophthora infestans </tspan><tspan x="23" y="28.8" font-family="'HelveticaNeue-Thin'" font-size="12">spores / ml</tspan></text><text transform="translate(369.8842 341.6665)" font-family="'HelveticaNeue-Thin'" font-size="10">6 hours</text><text transform="translate(450.4377 342.6665)" font-family="'HelveticaNeue-Thin'" font-size="10">12 hours</text></g><g id="infoButton_Botrytis_cinerea"><circle fill="#E00AE0" cx="245.2" cy="91.2" r="9.2"/><text transform="translate(243.4521 94.5)" fill="#FFFFFF" font-family="'HelveticaNeue-Bold'" font-size="12">i</text></g><g id="treatmentInfographic"><g id="root"><path fill="none" stroke="#000000" stroke-width=".5" stroke-miterlimit="10" d="M110.4 296c.8-2.1 0-4.2-.7-5.9-.1-.2-.2-.4-.2-.6-1-2.9 1.6-5.7 1.6-5.7M118.3 262.9s2.3-4.1 4.1-5.9M123.1 272.4c-.7-1.9-3.9-2.2-4-2.2M103.7 271.1c-2.2.7-6.8 3.6-7 3.7M107.8 271.2c-3.1-.4-8.2 5.1-8.5 5.3M100.9 262c-8.2-.9-13.7 3.5-13.8 3.6M109.1 261.9c-1.2-1.1-2.6-4.6-2.6-4.6M113.1 264.1s.3.9.4 1.4M125 284.3c-1.4-3.1-4.8-6.6-4.9-6.6M111.8 262.7c-.1 0-.1 0 0 0M117.4 286.6c-.3-.3-1.9-1.6-1.9-3.2-.1-1.5-.5-3.4-1.3-5.4-.1-.4-.5-.6-.4-.4.4-.9.6-2.6.6-3.2v-.6c0-.5.1-.8.2-1.2.1-.3.1-.6.2-.9"/><path fill="none" stroke="#000000" stroke-width=".5" stroke-miterlimit="10" d="M110.1 324.6c-.1-.9.2-1.6.7-2.6.2-1-.1-3.2-.5-4.8-.6-2.6 2.2-5.3 2.3-5.4l.1.1c.1-.9.3-1.9.6-2.8.1-.7.1-1.7.1-2.7 0-1.6-.1-3.3.4-4.2.1-.2.2-.5.3-.8.7-1.9 1.4-3.8 1.1-7.8-1.5-3.6-1.1-2.5-1.6-3.3s-1.3-.4-2-4.2c-.7-3.8 0-5.2 0-7s.9-6.2 1.2-7.5"/><path fill="none" stroke="#000000" stroke-width=".5" stroke-miterlimit="10" d="M119.5 330.7c-.8-.5-.9-1.7-1-2.5 0-.3 0-.5-.1-.6-1.1-1.1-.9-2.3-.6-3.8 0-1.4-1.1-2.3-1.5-2.6.1.6.1 1.2.1 1.5-.3 1.5-1 4.8.4 9.6.2.5.5 1 .8 1.5.6 4.2.9 7.7.9 7.7l-.1-1.6s-.5-1.8-1.1-6c-.2-.5-.4-.9-.6-1.3 0-.1 0-.1-.1-.2-1.1-2.2-2.1-4.1-1.9-7.4v-.2c.2-4.1.2-5.4-1.7-9.3-.3-.9-.3-2.6-.3-3.7"/><path fill="none" stroke="#000000" stroke-width=".5" stroke-miterlimit="10" d="M120.5 311.3c.3-3.2-.5-4.2-1.1-5l-.1-.1c-.8-1-.8-2.2-.7-4.7 0-2.6-1.4-3.6-1.9-3.9 0 1.1-.1 2.2-.3 2.9l-.1.2c-.8 1.9-1.3 3-1.1 5.3.1 1.7-.3 3.7-.6 4.9-.1.5-.2.9-.2 1.1-.2 1.1.3 2.9.8 3.5.4.7.6 1.7.8 2.4.1.3.1.6.2.8v.3c.1.5.2 1.1.3 1.7l.1.4M113.8 277.6c-.4 2-.3 2-.3 4s-.3 3.1 0 4.1.8 1.8 1.2 2.3c.9 1.3 1.8 2.5 1.9 4.3V297.5M136.4 259.8c-3-.3-6 1.2-6.1 1.3h.8c-2 0-4.5.3-6.9 1.1M137.9 262.7c-1.8-.9-4.1-1.6-6.8-1.7M112.2 270.3c.2-.1 1-.1 1.2-.4.3-.4.4-1.1.2-1.8-.1-.2-.3-.4-.4-.7-.6-.9-1.5-2.3-1.3-4.5M114.3 268c-.2 1-.1 1.8-.1 1.8M126.5 263.4l14.7 5.1c-8.6-7.4-14.7-5.1-14.7-5.1zM114.6 267.4l-.2.4M114.4 268v-.2M113.6 262.2v.3"/></g><path id="rosette" fill="none" stroke="#000000" stroke-width=".5" stroke-miterlimit="10" d="M80.8 270.1s-.8-.5 2.1-4.2c2.4-2.9 5.3-6.2 7.3-7.3 2.1-1.3 4.1-2.8 8.5-1.1 1.4.8 2.3 1.4 3.7 2.8.7 1.1 2.7 2 2.9 2.3 1 .5 5.5 3.7 6.7 4.2-1.2-1.1-5.1-4.5-6.4-5.1-1.4-.6-2.6-1.7-2.2-5.9.4-2.4.9-3.8.9-3.8 1 .8 5 4.5 5.7 5.8.6 1 .2 1.7.6 2.8.3 1 .9 2.1 1.3 2.3.1-.7.3-1.8.3-1.8.3.5 1.6 1.5 1.6 1.5.2.5 1 2.6.9 3.1-.1.8-.3 2-.3 2 .6-.8 2-2 2.6-4.7.2-1.5.1-4.5 1.1-5.8.9-1.3 1.6-2.6 3.7-3.1 1.1-.3 2.9-.8 3.5 1.9.1.9-.1 2.1-2.2 4.5-1.4 1.3-4.5 4-4.5 4.1-.7.8-1 1.2-1 1.2 1.4-1 5.7-3.3 6.3-3.5.6-.8 4.5-5 9.5-5.6 2.2-.2 7.4 1.2 8.9 1.9-.8.4-2.2 1.2-2.4 1.9-.3.8-1 2.3-1.9 2.3.9.6 4 2.6 5.2 4.3 1 1.1 4.1 3.4 6.1 3.9-.3.5-6.5 2.9-9.6 1.9s-4.8-2.9-7.7-5.2c-1.7-1.2-4.4-3-8.4-2.3-2.2.5-6.2 1.8-8 3.2l-.3.4c1 0 8.3-.7 9.7 1.1 1.2 1.6 2.5 3.4 2.5 3.4-.7.6-4.4 3.6-8.2 0-1.5-1.7-2.7-3.3-4-3.2.6.8 3.6 4.8 5.6 5.9 2.2.6 8.1 1.4 9.5 6.1.8 2.6 1 5.7 1 5.7-1.3.6-5.5 3.5-11.3-3.8-1.3-2.6-1.6-2.8-2.7-8.3-.8-1.5-1.5-3-2.8-4-1.3-.1-1.9-.1-2 0-1 .1-3.8.3-4.9 2.1-1.3 1.7-3.3 4.1-7.7 6.4-2.2 1-4.4 2.1-7.7-1.9-.8-1.3-1.2-3.9.1-5.4 1.4-1.6 3.9-4.7 6.4-4.6 1.7.1 8.4 1.3 13.3 2.2-.6-.8-4.3-5.7-12-5.8-1.5.1-3.4.4-5.7 1.9-2.6 1.6-5.9 4.5-10 3.2-1-.4-2.5-.5-3.6.1z"/><g id="eyeDropper"><path fill="#FFFFFF" d="M126.5 255.5v-39H167v39h-40.5zm24.8-20.7c.4.5.9.8 1.5.3.6-.6.3-1.1-.2-1.5l-.4-.4c.2-.2.4-.5.7-.7l5.3-5.3c1.6-1.7 1.7-3.9.2-5.4-1.5-1.6-3.8-1.5-5.5.2-2 2-3.9 4-5.9 6-.3-.3-.5-.4-.7-.6-.4-.4-.9-.5-1.3-.1-.5.5-.4 1 .1 1.4.4.4.8.7 1.3 1.1-.3.3-.5.6-.7.8l-4.2 4.2c-1.6 1.6-3.2 3-4.1 5.1-.5 1.2-1.6 2.2-2.4 3.2-.5.5-.6.9 0 1.5 1.7 1.6 1.2 1.3 2.8.1 1.3-1 2.8-1.9 4.3-2.8.3-.2.7-.4 1-.7 2.3-2.2 4.6-4.5 6.9-6.8.2-.2.4-.3.7-.6 0 .2.2.6.6 1zm-18.5 14.1c-.5.9-.3 1.9.4 2.4.6.5 1.7.5 2.4 0s1-1.5.4-2.4c-.4-.7-1-1.3-1.6-2.2-.6.9-1.2 1.5-1.6 2.2z"/><path d="M149.7 234.2c-2.3 2.3-4.6 4.5-6.9 6.8-.3.3-.6.5-1 .7-1.4.9-2.9 1.8-4.3 2.8-1.6 1.2-1.1 1.5-2.8-.1-.6-.6-.4-.9 0-1.5.9-1 1.9-2 2.4-3.2.9-2.1 2.6-3.6 4.1-5.1l4.2-4.2c.2-.2.4-.5.7-.8-.5-.4-.9-.7-1.3-1.1-.4-.4-.5-.9-.1-1.4.4-.4.9-.3 1.3.1.2.2.4.4.7.6 2-2 3.9-4 5.9-6 1.7-1.7 4-1.8 5.5-.2 1.5 1.5 1.4 3.8-.2 5.4l-5.3 5.3c-.2.2-.4.5-.7.7l.4.4c.5.5.8 1 .2 1.5s-1.1.2-1.5-.3c-.3-.4-.6-.7-.9-1.1-.1.4-.3.6-.4.7zm-13.5 10.3c.6-.5 1.1-1 1.7-1.4 1.1-.8 2.4-1.4 3.5-2.2 1.2-.9 2.2-1.9 3.2-2.8-.1-.7-.2-1.1-.3-1.5.4.1.8.2 1.3.3l.4-.4c-.1-.6-.2-1-.3-1.4.4.1.8.2 1.3.3l.4-.4c-.1-.6-.2-1-.2-1.4.4.1.8.2 1.3.4.2-.2.5-.6.7-.9l-2.6-2.6c-.2.3-.5.7-.9 1.1l-3.5 3.5c-1.6 1.6-3.2 3.1-4.2 5.2-.6 1.2-1.6 2.2-2.5 3.5l.7.7zm19-17.8c-1.4 1.4-2.8 2.7-4.1 4.1-.2.2-.2.6-.3.8.3-.1.7-.1.9-.2 1.4-1.3 2.7-2.7 4-4 .2-.2.2-.5.3-.8 0-.1-.2-.2-.4-.3 0 .2-.2.3-.4.4zM136 249c.5.9.3 1.9-.4 2.4-.6.5-1.7.5-2.4 0s-.9-1.5-.4-2.4c.4-.7 1-1.3 1.6-2.1.6.7 1.2 1.3 1.6 2.1zm-2.5 1.7c.4.4 1.3.4 1.7 0 .6-.6.3-1.5-.8-2.6-1.2 1.1-1.5 2-.9 2.6z"/><path fill="#FFFFFF" d="M138 240.3c1-2.1 2.6-3.6 4.2-5.2l3.5-3.5c.4-.4.7-.8.9-1.1 1 1 1.9 1.8 2.6 2.6-.2.3-.5.7-.7.9-.6-.2-.9-.3-1.3-.4.1.4.2.9.2 1.4l-.4.4c-.6-.1-.9-.2-1.3-.3.1.4.1.9.3 1.4-.1.1-.4.3-.4.4-.5-.1-.9-.2-1.3-.3.1.4.2.9.3 1.5-.9.8-2 1.9-3.2 2.8-1.1.8-2.3 1.4-3.5 2.2-.6.4-1.1.9-1.7 1.4-.3-.3-.5-.4-.7-.6.9-1.3 2-2.3 2.5-3.6zm6-6.3c-1.3 1.3-2.7 2.6-4 4-.2.2-.2.6-.3.9.3-.1.7-.1.9-.3 1.4-1.3 2.8-2.7 4.1-4.1.2-.2.2-.5.3-.7 0-.1-.3-.2-.4-.3-.2.2-.4.3-.6.5zM156.1 226.6c-.1.3-.1.6-.3.8-1.3 1.4-2.7 2.7-4 4-.2.2-.6.2-.9.2.1-.3.1-.7.3-.8l4.1-4.1c.1-.1.3-.2.5-.4l.3.3zM135.2 250.7c-.4.4-1.3.4-1.7 0-.6-.6-.3-1.5.8-2.6 1.2 1.1 1.5 2 .9 2.6z"/><path d="M145 233.8c0 .2-.1.5-.3.7-1.3 1.4-2.7 2.8-4.1 4.1-.2.2-.6.2-.9.3.1-.3.1-.7.3-.9 1.3-1.4 2.6-2.7 4-4 .2-.2.4-.3.6-.5.2.1.4.3.4.3z"/></g></g><g id="Phytophthora_infestans_at_12_Hours"><path id="Treated_Phytophthora_infestans_at_12_Hours" fill="#FFFFFF" stroke="#000000" stroke-width=".5" stroke-linecap="round" stroke-linejoin="round" stroke-miterlimit="10" d="M454.8 253.4c-.1-9.1 4.3-17 9.4-24.3 1.3 1.6 2 2.6 2.9 3.5 9.2 9.8 11.5 21.3 6.3 33.5-3.7 8.9-5.5 18-4.7 27.5.1 1.6 0 3.3 0 4.9m-1.5-1c-.3-3.7-.3-7.3-.9-11.1-.4-2.7-1.3-5.6-2.4-8.2-1.4-3.5-3.7-6.8-4.7-10.2-1.3-4.6-4.7-9.5-4.2-14.7m11.3-3.2c-.4 3.5-1 6.8-1.2 10.2-.1 3.6.1 7 .4 10.6"/><path id="Control_Phytophthora_infestans_at_12_Hours" fill="#FFFFFF" stroke="#000000" stroke-width=".5" stroke-linecap="round" stroke-linejoin="round" stroke-miterlimit="10" d="M454.8 161.5c-.1-9.1 4.3-17 9.4-24.3 1.3 1.6 2 2.6 2.9 3.5 9.2 9.8 11.5 21.3 6.3 33.5-3.7 8.9-5.5 18-4.7 27.5.1 1.6 0 3.3 0 4.9m-1.5-1c-.3-3.7-.3-7.3-.9-11.1-.4-2.7-1.3-5.6-2.4-8.2-1.4-3.5-3.7-6.8-4.7-10.2-1.3-4.6-4.7-9.5-4.2-14.7m11.3-3.1c-.4 3.5-1 6.8-1.2 10.2-.1 3.6.1 7 .4 10.6"/></g><text transform="translate(523.4377 342.6665)" font-family="'HelveticaNeue-Thin'" font-size="10">24 hours</text><g id="Phytophthora_infestans_at_24_Hours"><path id="Treated_Phytophthora_infestans_at_24_Hours" fill="#FFFFFF" stroke="#000000" stroke-width=".5" stroke-linecap="round" stroke-linejoin="round" stroke-miterlimit="10" d="M527.8 253.4c-.1-9.1 4.3-17 9.4-24.3 1.3 1.6 2 2.6 2.9 3.5 9.2 9.8 11.5 21.3 6.3 33.5-3.7 8.9-5.5 18-4.7 27.5.1 1.6 0 3.3 0 4.9m-1.5-1c-.3-3.7-.3-7.3-.9-11.1-.4-2.7-1.3-5.6-2.4-8.2-1.4-3.5-3.7-6.8-4.7-10.2-1.3-4.6-4.7-9.5-4.2-14.7m11.3-3.2c-.4 3.5-1 6.8-1.2 10.2-.1 3.6.1 7 .4 10.6"/><path id="Control_Phytophthora_infestans_at_24_Hours" fill="#FFFFFF" stroke="#000000" stroke-width=".5" stroke-linecap="round" stroke-linejoin="round" stroke-miterlimit="10" d="M527.8 161.5c-.1-9.1 4.3-17 9.4-24.3 1.3 1.6 2 2.6 2.9 3.5 9.2 9.8 11.5 21.3 6.3 33.5-3.7 8.9-5.5 18-4.7 27.5.1 1.6 0 3.3 0 4.9m-1.5-1c-.3-3.7-.3-7.3-.9-11.1-.4-2.7-1.3-5.6-2.4-8.2-1.4-3.5-3.7-6.8-4.7-10.2-1.3-4.6-4.7-9.5-4.2-14.7m11.3-3.1c-.4 3.5-1 6.8-1.2 10.2-.1 3.6.1 7 .4 10.6"/></g><g id="Phytophthora_infestans_at_6_Hours"><path id="Treated_Phytophthora_infestans_at_6_Hours" fill="#FFFFFF" stroke="#000000" stroke-width=".5" stroke-linecap="round" stroke-linejoin="round" stroke-miterlimit="10" d="M378.3 251.9c-.1-9.1 4.3-17 9.4-24.3 1.3 1.6 2 2.6 2.9 3.5 9.2 9.8 11.5 21.3 6.3 33.5-3.7 8.9-5.5 18-4.7 27.5.1 1.6 0 3.3 0 4.9m-1.5-.9c-.3-3.7-.3-7.3-.9-11.1-.4-2.7-1.3-5.6-2.4-8.2-1.4-3.5-3.7-6.8-4.7-10.2-1.3-4.6-4.7-9.5-4.2-14.7m11.3-3.3c-.4 3.5-1 6.8-1.2 10.2-.1 3.6.1 7 .4 10.6"/><path id="Control_Phytophthora_infestans_at_6_Hours" fill="#FFFFFF" stroke="#000000" stroke-width=".5" stroke-linecap="round" stroke-linejoin="round" stroke-miterlimit="10" d="M379.3 160c-.1-9.1 4.3-17 9.4-24.3 1.3 1.6 2 2.6 2.9 3.5 9.2 9.8 11.5 21.3 6.3 33.5-3.7 8.9-5.5 18-4.7 27.5.1 1.6 0 3.3 0 4.9m-1.5-.9c-.3-3.7-.3-7.3-.9-11.1-.4-2.7-1.3-5.6-2.4-8.2-1.4-3.5-3.7-6.8-4.7-10.2-1.3-4.6-4.7-9.5-4.2-14.7m11.3-3.2c-.4 3.5-1 6.8-1.2 10.2-.1 3.6.1 7 .4 10.6"/></g></g><text transform="translate(104.9961 162)" font-family="'HelveticaNeue'" font-size="8">24hr</text><g id="TimeSampleChart"><path fill="none" stroke="#555555" stroke-width="10" stroke-miterlimit="10" d="M100.6 167.8c-4.6-7.7-2-17.7 5.7-22.3 2.7-1.6 5.5-2.3 8.4-2.3" id="darkCycle"/><path fill="none" stroke="#FFF69F" stroke-width="10" stroke-miterlimit="10" d="M114.7 143.3c5.5 0 10.9 2.9 13.9 7.9 4.6 7.7 2 17.7-5.7 22.3s-17.7 2-22.3-5.7" id="lightCycle"/><g id="labels"><text transform="translate(89.7393 121.9444)" font-family="'HelveticaNeue-Thin'" font-size="8">INNOCULATION</text><text transform="translate(90.2393 130.9444)" font-family="'HelveticaNeue-Thin'" font-size="8">24 hour sample</text><path fill="none" stroke="#000000" stroke-miterlimit="10" d="M114.4 135.8v11.3"/><text transform="translate(90.2393 193.1944)" font-family="'HelveticaNeue-Thin'" font-size="8">12 hour sample</text><path fill="none" stroke="#000000" stroke-miterlimit="10" d="M114.4 171.1v11.3"/><text transform="translate(141.9072 162.5537)" font-family="'HelveticaNeue-Thin'" font-size="8">6 hour sample</text><path fill="none" stroke="#000000" stroke-miterlimit="10" d="M126.2 160h12"/></g></g></svg>