<svg xmlns="http://www.w3.org/2000/svg" id="BioticStressGolovinomycesorontii_svg" version="1.1" viewBox="10 15 200 145"><g id="ColLaserMicrodissected-5dUninfected" fill="none" stroke="#000" stroke-miterlimit="10" stroke-width=".1"><path d="M165.44 23.739c-1.514-.946-6.527-.19-6.527-.19-1.419-1.04-5.203 0-5.203 0-2.08-1.418-6.243 0-6.243 0s-2.79-.661-5.392-.33c0 0-1.513.662-.33 2.223.756-.095 1.702.284 1.702.284.615-.237 2.885-.19 2.885-.19.567-.189 1.419-.52 1.419-.52.71.237 1.135.331 1.135.331l3.453.19c.283-.38 1.56-.568 1.56-.568.473.473 2.27.378 2.27.378l3.075-.142c1.75.426 3.642.379 3.642.379l2.46-.237.094-1.608" id="path32-8"/><path d="M147.46 23.55s.804.52.284 1.466" id="path40-1"/><path d="m153.71 23.55.19 1.419" id="path42-8"/><path d="m158.91 23.55.331 1.655" id="path44-3"/><path d="M155.46 25.389s-1.095.053-1.568-.42c0 0-1.277.189-1.561.567l-3.453-.189s-.425-.095-1.135-.331c0 0-.851.331-1.419.52 0 0-2.27-.047-2.885.19 0 0-.946-.379-1.703-.284l-.837.136.134 7.793s.97 1.17 2.207.334c0 0 1.27 1.94 3.177-.033 0 0 1.572.468 2.274-.134.038-.16 1.953 1.223 3.846-.3.013-.066 1.432 1.033 3.445-.268-.104-.26.243 1.126 1.957 1.313.181-.59.953-1.268 1.488-1.38 0 0 1.304 1.036 2.776.368 0 0 .77-.335.77-.77 0 0 .493.462 1.262.562.532-.182.99-.168 1.212-.582 0 0 .618-3.352-.11-7.134l-2.459.236s-.888.274-2.638-.152l-.88 1.006s-1.468-2.012-3.439-.168l-.461-.88" id="path36-7"/><path d="M162.88 25.584s.763 1.634.428 4.276l-.334 2.642" id="path58-5"/><path d="m152.33 25.536.206 7.701" id="path64-0"/><path d="m148.7 33.538.187-8.191" id="path66-8"/><path d="M146.33 25.536s.46 2.517.026 4.39c-.435 1.873.067 3.746.067 3.746" id="path68-2"/><path d="M143.44 25.726s.37 1.927.035 3.8c-.334 1.872-.234 4.18-.234 4.18" id="path70-0"/><path d="M155.99 32.97s-.396-.202-.061-1.501c.377-2.474 0-5.2 0-5.2" id="path119-2"/><path d="M159.43 32.903s-.78-1.057-.194-3.405c.587-2.348.126-3.06.126-3.06" id="path121-1"/><path d="m165.62 22.268-24.615-.134-.1 3.445.837-.137c-1.182-1.56.331-2.223.331-2.223 2.602-.33 5.392.331 5.392.331s4.162-1.419 6.243 0c0 0 3.784-1.04 5.203 0 0 0 5.014-.757 6.527.19l.182-1.472" id="path125-0"/><path d="M146.08 38.691c2.372-2.49 1.186-3.973 1.186-3.973-.89-1.363-3.024.119-3.024.119l-2.016 1.72s-.237 1.245.119 1.867c0 0 .948 2.817 3.735.267" id="path237-3"/><path d="M147.5 35.993s.474-2.342 2.728-2.075c0 0 1.778.118 2.371.682 0 0 .178-.86 1.127-.979 0 0 2.922-.277 4.218.662 0 0 1.86 3.281-1.135 4.467 0 0-1.75.267-2.639-.534 0 0-3.794 3.35-6.67-2.223" id="path241-2"/><path d="M152.6 34.6s3.736 1.838 1.571 3.617" id="path243-5"/><path d="M145.87 44.769s-3.469-1.868.208-6.077c0 0 2.371-1.335 4.21.266 0 0 2.905 4.18-2.461 6.226 0 0 2.282 1.809-.06 3.765.917-.002 2.374.564 2.374.564h-4.508s-4.15-2.343.237-4.744" id="path245-9"/><path d="M145.87 44.769s.77.682 1.957.415" id="path247-2"/><path d="M160.29 36.29s-5.576 1.803-.797 5.87c0 0 4.078-.119 3.07-4.032 0 0-.692-1.808-2.273-1.838" id="path259-4"/><path d="M157.94 34.283s.614-1.21 1.488-1.38c0 0 2.18.481 2.624.303 0 0 .8.356.89.771 0 0-.86 1.66-.979 1.75-.118.088-2.134 1.274-3.528-.268l-.495-1.176" id="path261-0"/><path d="m165.45 32.481-.002 6.744c.353.406-2.583-.409-3.486-1.929 0 0-.57-3.467 3.488-4.815" id="path265-5"/><path d="M162.72 49.525c.025-.177.042-.369.05-.577 0 0 3.735-.919 2.015-4.15 0 0-.86-2.994-4.12-2.609 0 0-4.092 1.69-.238 6.285 0 0-2.134.083-2.129 1.065l4.422-.014" id="path255-3"/><path d="M160.42 48.474s.504.563 1.334.119c.83-.445 1.008.355 1.008.355" id="path257-8"/><path d="M145.63 49.512s1.426-.053 2.135-.563" id="path1454-1"/></g><g id="ColLaserMicrodissected-5dPostInfected" fill="none" stroke="#000" stroke-miterlimit="10" stroke-width=".1"><path d="M200.23 23.552c-1.514-.946-6.527-.19-6.527-.19-1.419-1.04-5.203 0-5.203 0-2.08-1.418-6.243 0-6.243 0s-2.79-.661-5.392-.33c0 0-1.513.662-.33 2.223.756-.095 1.702.284 1.702.284.615-.237 2.885-.19 2.885-.19.567-.189 1.419-.52 1.419-.52.71.237 1.135.331 1.135.331l3.453.19c.283-.38 1.56-.568 1.56-.568.473.473 2.27.378 2.27.378l3.075-.142c1.75.426 3.642.379 3.642.379l2.46-.237.094-1.608" id="path2159"/><path d="M182.26 23.363s.804.52.284 1.466" id="path2161"/><path d="m188.5 23.363.19 1.419" id="path2163"/><path d="m193.71 23.363.331 1.655" id="path2165"/><path d="M190.26 25.202s-1.095.053-1.568-.42c0 0-1.277.189-1.561.567l-3.453-.189s-.425-.095-1.135-.331c0 0-.851.331-1.419.52 0 0-2.27-.047-2.885.19 0 0-.946-.379-1.703-.284l-.837.136.134 7.793s.97 1.17 2.207.334c0 0 1.27 1.94 3.177-.033 0 0 1.572.468 2.274-.134.038-.16 1.953 1.223 3.846-.3.013-.066 1.432 1.033 3.445-.268-.104-.26.243 1.126 1.957 1.313.181-.59.953-1.268 1.488-1.38 0 0 1.304 1.036 2.776.368 0 0 .77-.335.77-.77 0 0 .493.462 1.262.562.532-.182.99-.168 1.212-.582 0 0 .618-3.352-.11-7.134l-2.459.236s-.888.274-2.638-.152l-.88 1.006s-1.468-2.012-3.439-.168l-.461-.88" id="path2171"/><path d="M197.68 25.397s.763 1.634.428 4.276l-.334 2.642" id="path2173"/><path d="m187.13 25.349.206 7.701" id="path2175"/><path d="m183.49 33.351.187-8.191" id="path2177"/><path d="M181.13 25.349s.46 2.517.026 4.39c-.435 1.873.067 3.746.067 3.746" id="path2179"/><path d="M178.24 25.539s.37 1.927.035 3.8c-.334 1.872-.234 4.18-.234 4.18" id="path2181"/><path d="M190.78 32.783s-.396-.202-.061-1.501c.377-2.474 0-5.2 0-5.2" id="path2183"/><path d="M194.23 32.716s-.78-1.057-.194-3.405c.587-2.348.126-3.06.126-3.06" id="path2185"/><path d="m200.42 22.081-24.615-.134-.1 3.445.837-.137c-1.182-1.56.331-2.223.331-2.223 2.602-.33 5.392.331 5.392.331s4.162-1.419 6.243 0c0 0 3.784-1.04 5.203 0 0 0 5.014-.757 6.527.19l.182-1.472" id="path2191"/><path d="M180.87 38.504c2.372-2.49 1.186-3.973 1.186-3.973-.89-1.363-3.024.119-3.024.119l-2.016 1.72s-.237 1.245.119 1.867c0 0 .948 2.817 3.735.267" id="path2195"/><path d="M182.3 35.806s.474-2.342 2.728-2.075c0 0 1.778.118 2.371.682 0 0 .178-.86 1.127-.979 0 0 2.922-.277 4.218.662 0 0 1.86 3.281-1.135 4.467 0 0-1.75.267-2.639-.534 0 0-3.794 3.35-6.67-2.223" id="path2197"/><path d="M187.4 34.413s3.736 1.838 1.571 3.617" id="path2199"/><path d="M180.67 44.582s-3.469-1.868.208-6.077c0 0 2.371-1.335 4.21.266 0 0 2.905 4.18-2.461 6.226 0 0 2.282 1.809-.06 3.765.917-.002 2.374.564 2.374.564h-4.508s-4.15-2.343.237-4.744" id="path2203"/><path d="M180.67 44.582s.77.682 1.957.415" id="path2205"/><path d="M195.08 36.103s-5.576 1.803-.797 5.87c0 0 4.078-.119 3.07-4.032 0 0-.692-1.808-2.273-1.838" id="path2209"/><path d="M192.74 34.096s.614-1.21 1.488-1.38c0 0 2.18.481 2.624.303 0 0 .8.356.89.771 0 0-.86 1.66-.979 1.75-.118.088-2.134 1.274-3.528-.268l-.495-1.176" id="path2211"/><path d="m200.25 32.294-.002 6.744c.353.406-2.583-.409-3.486-1.929 0 0-.57-3.467 3.488-4.815" id="path2213"/><path d="M197.52 49.338c.025-.177.042-.369.05-.577 0 0 3.735-.919 2.016-4.15 0 0-.86-2.994-4.121-2.609 0 0-4.092 1.69-.238 6.285 0 0-2.134.083-2.129 1.065l4.422-.014" id="path2215"/><path d="M195.22 48.287s.504.563 1.334.119c.83-.445 1.008.355 1.008.355" id="path2217"/><path d="M180.43 49.325s1.426-.053 2.135-.563" id="path2221"/></g><g id="eds16LaserMicrodissected-5dPostInfected" fill="none" stroke="#000" stroke-miterlimit="10" stroke-width=".1"><path d="M200.1 59.227c-1.299-.812-5.601-.162-5.601-.162-1.218-.893-4.465 0-4.465 0-1.786-1.218-5.358 0-5.358 0s-2.395-.569-4.627-.284c0 0-1.299.568-.284 1.907.65-.08 1.461.244 1.461.244.528-.203 2.476-.163 2.476-.163a33.365 33.365 0 0 0 1.218-.446c.608.203.974.284.974.284l2.963.162c.243-.324 1.34-.487 1.34-.487.405.406 1.947.325 1.947.325l2.639-.122c1.502.366 3.125.325 3.125.325l2.11-.203.082-1.38" id="path2227"/><path d="M184.68 59.064s.69.446.244 1.258" id="path2229"/><path d="m190.04 59.064.162 1.218" id="path2231"/><path d="m194.5 59.064.284 1.42" id="path2233"/><path d="M191.55 60.643s-.94.045-1.346-.36c0 0-1.096.162-1.34.486l-2.962-.162s-.365-.081-.974-.284c0 0-.73.284-1.218.446 0 0-1.948-.04-2.476.163 0 0-.812-.325-1.461-.244l-.719.118.115 6.687s.832 1.004 1.894.287c0 0 1.09 1.664 2.727-.029 0 0 1.349.402 1.951-.115.033-.137 1.676 1.05 3.3-.258.012-.056 1.23.887 2.957-.23-.089-.222.208.967 1.68 1.128.155-.507.817-1.089 1.276-1.185 0 0 1.12.89 2.383.316 0 0 .66-.287.66-.66 0 0 .424.396 1.084.482.456-.157.85-.144 1.04-.5 0 0 .53-2.877-.094-6.122l-2.11.203s-.763.234-2.265-.131l-.756.864s-1.26-1.727-2.95-.144l-.396-.756" id="path2239"/><path d="M197.91 60.809s.654 1.402.367 3.67l-.287 2.267" id="path2241"/><path d="m188.86 60.769.177 6.609" id="path2243"/><path d="m185.74 67.636.16-7.03" id="path2245"/><path d="M183.71 60.769s.395 2.16.022 3.767c-.373 1.607.058 3.215.058 3.215" id="path2247"/><path d="M181.23 60.931s.317 1.653.03 3.26c-.287 1.608-.2 3.588-.2 3.588" id="path2249"/><path d="M191.99 67.148s-.34-.173-.052-1.288c.324-2.123 0-4.462 0-4.462" id="path2251"/><path d="M194.95 67.091s-.67-.907-.166-2.922.108-2.627.108-2.627" id="path2253"/><path d="m200.26 57.964-21.124-.115-.086 2.956.719-.117c-1.015-1.34.284-1.908.284-1.908 2.232-.284 4.627.284 4.627.284s3.572-1.217 5.358 0c0 0 3.247-.893 4.465 0 0 0 4.302-.649 5.6.163l.157-1.263" id="path2259"/><path d="M183.49 72.058c2.035-2.137 1.018-3.41 1.018-3.41-.764-1.17-2.595.103-2.595.103l-1.73 1.475s-.204 1.069.101 1.603c0 0 .815 2.417 3.206.229" id="path2263"/><path d="M184.71 69.743s.407-2.01 2.34-1.78c0 0 1.527.1 2.036.584 0 0 .153-.738.967-.84 0 0 2.508-.237 3.62.569 0 0 1.595 2.815-.974 3.833 0 0-1.501.23-2.265-.458 0 0-3.256 2.875-5.724-1.908" id="path2265"/><path d="M189.09 68.547s3.206 1.577 1.348 3.104" id="path2267"/><path d="M183.31 77.273s-2.977-1.603.178-5.215c0 0 2.035-1.145 3.613.228 0 0 2.493 3.588-2.112 5.343 0 0 1.96 1.552-.05 3.231.786-.002 2.037.484 2.037.484h-3.87s-3.561-2.01.204-4.071" id="path2271"/><path d="M183.31 77.273s.661.585 1.68.356" id="path2273"/><path d="M195.68 69.997s-4.785 1.547-.684 5.037c0 0 3.5-.102 2.635-3.46 0 0-.594-1.551-1.95-1.577" id="path2277"/><path d="M193.67 68.275s.527-1.038 1.277-1.185c0 0 1.87.414 2.252.26 0 0 .687.306.763.662 0 0-.738 1.425-.84 1.502-.101.076-1.831 1.094-3.027-.23l-.425-1.009" id="path2279"/><path d="m200.12 66.729-.002 5.787c.303.349-2.217-.35-2.991-1.655 0 0-.49-2.975 2.993-4.132" id="path2281"/><path d="M197.77 81.355c.022-.152.036-.317.043-.495 0 0 3.205-.788 1.73-3.562 0 0-.738-2.57-3.537-2.238 0 0-3.51 1.45-.203 5.393 0 0-1.832.072-1.828.914l3.795-.012" id="path2283"/><path d="M195.8 80.454s.433.483 1.145.102c.712-.382.865.305.865.305" id="path2285"/><path d="M183.11 81.344s1.224-.046 1.832-.483" id="path2289"/></g><g id="g2297"><path d="M190.86 20.254s2.315 1.257 1.72 3.837c0 0-1.654 1.124-2.117-.794 0 0 .728-1.522.397-3.043" fill="#595959" id="path2295" stroke="#000" stroke-miterlimit="10" stroke-width=".1"/></g><g id="g2301"><path d="M192.4 56.965s1.593.865 1.183 2.64c0 0-1.137.773-1.456-.546 0 0 .5-1.047.273-2.094" fill="#595959" id="path2299" stroke="#000" stroke-miterlimit="10" stroke-width=".1"/></g><g id="ColWholeLeafAmplified-5dUninfected"><path d="M149.23 96.051c-.033-2.976 1.406-5.56 3.074-7.947.425.523.654.85.949 1.145 3.008 3.205 3.76 6.965 2.06 10.956-1.21 2.91-1.799 5.886-1.537 8.993.032.523 0 1.08 0 1.603m-.49-.295c-.099-1.21-.099-2.387-.295-3.63-.131-.883-.425-1.831-.785-2.682-.458-1.144-1.21-2.223-1.537-3.335-.425-1.505-1.537-3.107-1.374-4.808m3.696-1.046c-.131 1.144-.327 2.224-.393 3.336-.032 1.177.033 2.289.131 3.466" fill="#fff" id="path2948" stroke="#000" stroke-linecap="round" stroke-linejoin="round" stroke-miterlimit="10" stroke-width=".1"/></g><g id="ColLeafScrape-5dPostInfected" fill="none" stroke="#000" stroke-miterlimit="10" stroke-width=".1"><path d="M182.57 119.46c-.734-.459-3.165-.092-3.165-.092-.688-.504-2.523 0-2.523 0-1.009-.688-3.027 0-3.027 0s-1.353-.32-2.615-.16c0 0-.734.32-.16 1.078.367-.046.825.137.825.137.299-.114 1.4-.091 1.4-.091.275-.092.687-.253.687-.253.344.115.55.16.55.16l1.675.093c.138-.184.757-.276.757-.276.23.23 1.1.184 1.1.184l1.491-.069c.849.206 1.766.183 1.766.183l1.193-.114.046-.78" id="path2728"/><path d="M173.86 119.37s.39.252.138.711" id="path2730"/><path d="m176.88 119.37.092.688" id="path2732"/><path d="m179.41 119.37.16.803" id="path2734"/><path d="M177.74 120.26s-.531.025-.76-.204c0 0-.62.092-.757.275l-1.674-.091s-.207-.046-.55-.16c0 0-.414.16-.689.251 0 0-1.1-.022-1.399.092 0 0-.459-.183-.826-.137l-.406.066.065 3.778s.47.568 1.07.163c0 0 .617.94 1.541-.017 0 0 .762.227 1.103-.065.018-.077.947.594 1.865-.145.006-.032.694.5 1.67-.13-.05-.126.118.546.949.637.088-.287.462-.615.722-.67 0 0 .632.503 1.346.179 0 0 .373-.162.373-.373 0 0 .24.223.612.272.258-.088.48-.081.588-.282 0 0 .3-1.626-.053-3.46l-1.193.115s-.43.133-1.28-.074l-.426.488s-.712-.976-1.667-.081l-.224-.427" id="path2740"/><path d="M181.33 120.36s.37.792.208 2.073l-.163 1.281" id="path2742"/><path d="m176.22 120.33.1 3.734" id="path2744"/><path d="m174.45 124.21.09-3.972" id="path2746"/><path d="M173.31 120.33s.223 1.22.013 2.129c-.211.908.032 1.816.032 1.816" id="path2748"/><path d="M171.91 120.42s.18.934.017 1.842c-.162.909-.114 2.027-.114 2.027" id="path2750"/><path d="M177.99 123.94s-.192-.098-.03-.728c.183-1.2 0-2.52 0-2.52" id="path2752"/><path d="M179.66 123.9s-.378-.513-.094-1.651c.285-1.138.061-1.484.061-1.484" id="path2754"/><path d="m182.66 118.75-11.936-.065-.049 1.67.406-.066c-.573-.757.161-1.078.161-1.078 1.261-.16 2.614.16 2.614.16s2.019-.687 3.028 0c0 0 1.835-.504 2.523 0 0 0 2.43-.366 3.165.092l.088-.713" id="path2760"/><path d="M173.18 126.71c1.15-1.208.575-1.926.575-1.926-.431-.662-1.466.057-1.466.057l-.978.834s-.115.604.058.906c0 0 .46 1.365 1.811.129" id="path2764"/><path d="M173.87 125.4s.23-1.136 1.323-1.006c0 0 .862.057 1.15.33 0 0 .086-.417.546-.474 0 0 1.417-.135 2.045.32 0 0 .902 1.592-.55 2.167 0 0-.848.13-1.28-.259 0 0-1.84 1.625-3.234-1.078" id="path2766"/><path d="M176.35 124.73s1.811.891.762 1.754" id="path2768"/><path d="M173.08 129.66s-1.682-.906.1-2.947c0 0 1.15-.647 2.042.13 0 0 1.409 2.026-1.193 3.018 0 0 1.107.877-.03 1.826.446-.001 1.152.273 1.152.273h-2.186s-2.013-1.136.115-2.3" id="path2772"/><path d="M173.08 129.66s.374.33.949.201" id="path2774"/><path d="M180.08 125.55s-2.704.874-.386 2.846c0 0 1.977-.057 1.488-1.955 0 0-.335-.877-1.102-.891" id="path2778"/><path d="M178.94 124.57s.298-.587.722-.67c0 0 1.056.234 1.272.148 0 0 .388.172.431.374 0 0-.417.805-.474.848-.058.043-1.035.618-1.71-.13l-.241-.57" id="path2780"/><path d="m182.58 123.7-.001 3.27c.171.197-1.253-.198-1.69-.935 0 0-.277-1.681 1.691-2.335" id="path2782"/><path d="M181.25 131.97c.012-.086.02-.179.024-.28 0 0 1.811-.445.978-2.012 0 0-.417-1.452-1.999-1.265 0 0-1.983.82-.115 3.047 0 0-1.035.04-1.032.517l2.144-.007" id="path2784"/><path d="M180.14 131.46s.244.273.647.058c.402-.216.489.172.489.172" id="path2786"/><path d="M172.97 131.96s.691-.026 1.035-.273" id="path2790"/><path d="M182.44 118.75h7.925v.741c-1.098-.142-1.688.142-1.688.142-.447-.63-2.886-.223-2.886-.223-1.22-.325-2.992.053-2.992.053h-.228l-.288-.153" id="path2796"/><path d="M182.54 119.9c.345.403 1.682.259 1.682.259 1.092.072 1.322-.115 1.322-.115l.331.187 1.754.043c.719.043.82-.288.82-.288 0 .353.488.403.488.403h1.265l-.067-.898s-1.178-.062-1.687.143c0 0 .32-.602-2.887-.224 0 0-1.136-.472-2.991.054l-.03.436" id="path2798"/><path d="M185.55 120.04s.22-.376.017-.634" id="path2800"/><path d="M188.45 119.63v.353" id="path2802"/><path d="M182.58 123.7s.233-2.67-.053-3.46l.016-.343s.36.374 1.682.259c0 0 .891.173 1.323-.115l.33.187 1.74.029.517.014s.187.288.805.115l.317.273-.072 2.473s.014.431-.216.69c0 0-1.035.661-1.294-.144 0 0-.603.834-1.854.115l-.316.23-1.035.043-.26-.273s-.918.72-1.63-.093" id="path2808"/><path d="M184.23 120.16s.532 2.228-.014 3.637" id="path2810"/><path d="M185.88 120.23s.259 2.084-.058 3.565" id="path2812"/><path d="M187.59 120.27s.661 1.94.086 3.407" id="path2814"/><path d="M192.64 119.25s1.24-.081 1.342.305c0 0 2.622-.203 2.968.142 0 0 2.318-.67 2.785.102 0 0 1.342-.59 3.01.04 0 0 1.097-.345 1.95-.264l.041-.874H192.64v.549" id="path2822"/><path d="M204.69 119.57c-.854-.081-1.952.264-1.952.264-1.667-.63-3.008-.04-3.008-.04-.468-.773-2.786-.102-2.786-.102-.345-.346-2.968-.142-2.968-.142-.102-.387-1.342-.305-1.342-.305v1.179l.65-.122s.468-.122.712-.082l.61.285 1.566-.02s.65.02.732-.163c0 0 .59.244.914.244l1.424.02.467-.182s.305.508 1.159.304l1.626.02.285-.304s.244.447 1.342.427h.61l-.041-1.281" id="path2824"/><path d="m193.98 119.55.02.67" id="path2826"/><path d="m196.95 119.69-.04.63" id="path2828"/><path d="M199.73 119.79s.204.221-.02.61" id="path2830"/><path d="m202.74 119.83.04.59" id="path2832"/><path d="M204.74 120.85h-.61c-1.098.02-1.342-.427-1.342-.427l-.284.305-1.627-.02c-.854.203-1.159-.305-1.159-.305l-.467.183-1.423-.02c-.326 0-.915-.245-.915-.245-.081.183-.732.163-.732.163l-1.565.02-.61-.284c-.244-.041-.712.081-.712.081l-.06.529-.082 3.293s.325.468.711.346l.61-.326s.65.671 1.627.041c0 0 .447.712 1.443.183 0 0-.102.305.244.346l1.139.02.264-.081s.386.244.793.284l.67-.284.59.203s1.057.081 1.098-.285c0 0 .376.682 1.565.061 0 0 .478.316.844.204l-.01-3.985" id="path2838"/><path d="M194.61 120.51s.203.61.081 1.85c-.488 1.301-.223 1.789-.223 1.789" id="path2840"/><path d="m196.26 120.55-.163 3.64" id="path2842"/><path d="m197.82 120.53-.285 3.842" id="path2844"/><path d="m199.25 120.59-.061 4.066" id="path2846"/><path d="M200.87 120.71s.203 1.565-.224 3.944" id="path2848"/><path d="M202.5 120.73s.264 1.382-.04 1.931c-.306.55-.123 1.911-.123 1.911" id="path2850"/><path d="M204.15 120.87s.102.59-.061 1.18c-.163.589-.183 2.581-.183 2.581" id="path2852"/><path d="M200.03 136.17h.515l.183.274s.193-.183.57-.183l.853.031.082.102.172-.072h1.21l.142.163.204-.244h1.352s.427.315.183.752h-1.729s-.69.346-1.463 0c0 0-.864.346-1.505-.091 0 0-.13.175-.461.218h-.283l-.025-.95m-1.935.95h-.273l-.302-.173-.273.187h-1.193l-.158-.187-.216.201h-2.099l-.273-.2-.187.2h-1.696l-.216-.244-.23.158h-2.113l-.216-.23-.316.316h-2.415l-.316-.273-.36.259h-.65v-1.005h.562s.326.03.326.234c0 0 .243-.345.508-.285h2.155s.447.143.447.346c0 0 .203-.264.488-.264h1.667s.386.081.447.223l.204-.101h1.626l.264.183.285-.183h1.992s.285.122.305.223c0 0 .214-.345.519-.345h.772l.336.264.223-.254h.368l.008.95m-15.54.043h-2.315l-.244-.273-.187.187h-2.084l-.216-.288-.158.216h-1.869l-.273-.302-.201.158h-2.487l-.273-.216-.374.317-1.174-.131.02-.773 1.099-.04s.264-.082.386.264c0 0 .142-.265.406-.224h2.298l.286.314.129-.172 1.74-.044.46.23.292-.196h1.941s.265.061.234.234c0 0-.04-.224.224-.224h2.277l.063.963" id="path2864"/><path d="m172.21 136.28.043.363" id="path2866"/><path d="m175.2 136.37.014.33" id="path2868"/><path d="m177.53 136.39-.014.403" id="path2870"/><path d="m179.99 136.42.005.466" id="path2872"/><path d="m185.48 136.36.122.512" id="path2874"/><path d="m188.59 136.42.06.408" id="path2876"/><path d="m191.2 136.38.016.52" id="path2878"/><path d="m193.29 136.46.02.482" id="path2880"/><path d="m195.87 136.51.026.442" id="path2882"/><path d="m197.5 136.42.024.523" id="path2884"/><path d="m200.73 136.44.071.457" id="path2886"/><path d="m202.23 136.39.071.6" id="path2888"/><path d="m203.76 136.48.01.508" id="path2890"/><path d="M182.56 137.16h-2.314l-.245-.273-.187.187h-2.084l-.216-.288-.158.216h-1.869l-.273-.302-.201.158h-2.487l-.273-.216-.374.317-1.174-.131v1.123h11.842l.013-.791m17.5.79h5.415l.026-.96h-1.728s-.692.346-1.464 0c0 0-.864.346-1.505-.091 0 0-.13.175-.461.218h-.3l.017.834m-1.943-.834h-.29l-.302-.173-.273.187h-1.193l-.158-.187-.216.202h-2.099l-.273-.202-.187.202h-1.696l-.216-.245-.23.158h-2.113l-.216-.23-.316.317h-2.415l-.316-.274-.36.26h-.65v.819h13.52v-.834" id="path2862"/><path d="M179.46 131.6c-.3.046-.35.376-.35.376 0 .22.224.534.874.979 0 0 1.087.303 1.27-.985l.024-.28" id="path2954"/><path d="M174.84 134.6s1.38-.489 1.912.719c0 0 1.078-.762 1.955-.273 0 0 .33.992-.446 1.135 0 0-.503 0-.733.202 0 0-.072-.23-.46-.23 0 0-.273-.26-.316-.389 0 0-.259.417-1.423.432l-.13.172-.258-.302-.46-.028s-.82-1.021.36-1.438" id="path2956"/><path d="M176.75 135.32s.216.137 0 .446" id="path2958"/><path d="M174.91 131.86c-.034.079 1.2.205 1.423 1.54 0 0 1.28-.446 1.869.215 0 0 .647-.776 1.783-.661 0 0 1.423.747.043 1.84 0 0-1.265.79-1.711-.417 0 0-.086.647-1.193.532 0 0-.748.288-1.107-.719 0 0-2.976.963-3.58-.877 0 0-.014-1.222.532-1.35" id="path2962"/><path d="M176.33 133.4s.172.762-.316.79" id="path2964"/><path d="m178.2 133.61.115.762" id="path2966"/><path d="m181.99 123.98.588-.282c-.071-.025 3.042 1.625-.001 3.27l-.674-.143" id="path2970"/><path d="M183.73 126.08s2.194-2.135 2.56.894c0 0-.73 1.891-2.316 1.302 0 0-1.18-.753-.244-2.196" id="path2972"/><path d="M193.7 125c-1.351-1.48-2.573.216-2.573.216-1.28-2.602-2.674.014-2.674.014-.503 3.651 2.056 1.351 2.056 1.351-.173 1.553 1.28 1.41 1.28 1.41-.82.819-.03 1.724-.03 1.724-.992.82-.143 1.25-.143 1.25-1.122.346-1.165 1.439-1.165 1.439-.503.071-.862.733-.862.733a2.619 2.619 0 0 0-1.797.072c.072-.49-.575-.432-.575-.432-.403.087-.475-.244-.475-.244.072-.302-.532-.69-.532-.69 1.035-.848-.186-1.495-.186-1.495l.23-.245s-.087-.287.316-.733c.402-.445.201-.762.201-.762 2.156-1.164.949-2.084.949-2.084.949-1.078.747-1.624.747-1.624-.373-1.84-2.443-.317-2.443-.317.043-.273-.518-.56-.518-.56l-1.035.043c-.532-.043-.733.747-.733.747s.848 1.15 2.142.288c0 0-.259 1.064.934 1.236l.23.33-.747.303s-.13.474-.403.776l.03.489s-1.295-.46-1.036 1.322c0 0 .173.805.489.935 0 0-1.452 1.078-.805 1.71 0 0 .546.403 1.107.202 0 0-.273 2.487 1.696 1.25 0 0 1.05 1.553 2.128 1.064 0 0 .503-.23.733-.805 0 0 .503-.287.805-.316.517-.216.36-.618.36-.618s.617-.202.948-.748c0 0 .187-.244 0-.604s-.216-.66-.216-.66.748-.245.446-.978c0 0 .733-.403.503-1.366 0 0 .13-.316-.201-.216-.33.1-.388-.632-.388-.632l-.36-.087-.072-.301-.388-.791s.388.029.676-.144c.287-.172.805 0 .805 0l.532-.402.014-1.05" id="path2974"/><path d="m191.67 126.6-.74-.419.194-.961" id="path2976"/><path d="m190.93 126.18-.424.405" id="path2978"/><path d="M191.76 129.72s.514-.042.82.273" id="path2980"/><path d="m191.79 127.99.345-.302" id="path2982"/><path d="M191.61 130.97h.518" id="path2984"/><path d="M191.4 132.98s-.353-.61-.949-.575" id="path2986"/><path d="M189.59 133.14s.092.665.647.776" id="path2988"/><path d="m187.79 133.21-.417.446" id="path2990"/><path d="m185.68 132.4.532-.56" id="path2992"/><path d="m185.38 130.49.647-.144" id="path2994"/><path d="M185.92 128.24s.183.488.848.374" id="path2996"/><path d="M187.04 126.67s.573.427.676-.144" id="path2998"/><path d="m186.02 124.58-.144.518" id="path3000"/><path d="M188.41 135.1s-.04-1.586-1.83-.386c0 0-.67 1.077.244 1.382 0 0 1.124 0 1.354-.46l-.032.44.447.345s.203-.353.994-.253c0 0 .46-.187.546-.517l.615.506s.23-.024.447.224c0 0 .246-.14.634-.112 0 0 1.696-.633.36-2.041 0 0 1.221-.216 1.336-.791 0 0 1.122.59 1.395-.647 0 0 1.25.144 1.538-.704 0 0 .762 1.15 1.596.172 0 0 .532-.36.302-1.064 0 0 .992.03 1.178-.445 0 0 .627-.569.444-1.057 0 0 .874.387 1.606-.162 0 0-.081 1.28 1.342 1.362 0 0-1.423 1.463.223 2.419 0 0-.925.285-.833 1.647 0 0-.834-.183-1.037 1.24l.874.091s.793-.518.58-.904l.528.142s-.66.813.02.762l.336.03.142.163.204-.244s.975-.376.132-.925c0 0 2.022-1.189.122-2.327 0 0 1.728-2.186-.681-2.318 0 0 .61-.529.101-1.22 0 0 2.653-1.077.56-2.958 0 0 1.097-.66.182-1.575l-.477-.285s-.478.305-.885.274c0 0-.55.324-.492.856 0 0-2.1-2.156-3.22-.215 0 0-.475 1.984 1.495 2.228 0 0 2.055-.144 1.926-1.567l.575.431s-1.423.503-1.337 1.352c0 0-.216.589.288.89l-.403.173s.058-1.825-2.271-1.063c0 0 .316-1.222-.92-1.28 0 0 1.33-.979.263-1.977l-1.139-.02-.677.473-.503-.603-.507-.4s-.712.628-1.627-.04c0 0-1.187.612-.612 2.38 0 0-.282-.042-.638.161 0 0-.417-.64-.66-.04l-.499.742.072.302.36.086s.097.71.371.638c0 0 .273-.119.218.21 0 0 1.673-.169 1.195-1.775 0 0 1.83.62 2.725-.844 0 0 .183.773 1.087.824 0 0-1.311 1.433.458 2.46 0 0-.65.571-.707 1.448 0 0-.718-.201-1.365.575 0 0 0-1.452-1.208-.431 0 0-.877.733-.79 1.121 0 0-.992-.33-1.222.69 0 0-.216-.747-1.222-.143 0 0-.647.56-.475 1.178 0 0-1.696-.445-1.653 1.28 0 0-.6-.455-1.493.096" id="path3006"/><path d="M203.64 129.45s-.311-.629-1.386-.568" id="path3008"/><path d="M202.93 130.89s.346.163.61-.224" id="path3010"/><path d="M203.15 133.31s.65-.305 1.067-.325" id="path3012"/><path d="m202.32 134.96.417.427" id="path3014"/><path d="M203.26 135.53s.335-.203.834-.213" id="path3016"/><path d="m201.85 129.05-.265.477" id="path3018"/><path d="M199.58 127.99s-.982.931.4 1.704" id="path3020"/><path d="M198.54 129.29s.58-.142.62-.529" id="path3022"/><path d="m198.09 126.83.57-.117" id="path3024"/><path d="m197.11 125.19-.106.817" id="path3026"/><path d="m197.84 130.74.518.46" id="path3028"/><path d="m196.47 131.31-.014.776" id="path3030"/><path d="M194.47 132s.531.209.446.79" id="path3032"/><path d="M193.25 132.69s-.06.487.273.748" id="path3034"/><path d="m191.56 133.73.633.503" id="path3036"/><path d="m189.9 135.01.23.647" id="path3038"/><path d="m188.41 135.1-.232.536" id="path3040"/><path d="m203.3 126.64.895-.147" id="path3042"/><path d="m193.86 126.52.419.324" id="path3044"/><path d="m202.53 125.76.201.446" id="path3046"/></g><g id="ColWholeLeafAmplified-5dPostInfected"><path d="M185.9 96.051c-.033-2.976 1.406-5.56 3.074-7.947.425.523.654.85.949 1.145 3.008 3.205 3.76 6.965 2.06 10.956-1.21 2.91-1.799 5.886-1.537 8.993.032.523 0 1.08 0 1.603m-.49-.295c-.099-1.21-.099-2.387-.295-3.63-.131-.883-.425-1.831-.785-2.682-.458-1.144-1.21-2.223-1.537-3.335-.425-1.505-1.537-3.107-1.374-4.808m3.696-1.046c-.131 1.144-.327 2.224-.393 3.336-.032 1.177.033 2.289.131 3.466" fill="#fff" id="path3664" stroke="#000" stroke-linecap="round" stroke-linejoin="round" stroke-miterlimit="10" stroke-width=".1"/></g><g id="g2840" fill-rule="evenodd" stroke="#000" stroke-miterlimit="10" stroke-width="0"><path d="M47.789 147.95a7.82 7.82 0 0 1-.085-15.64l.085 7.82v7.82" fill="#000" id="path2199-1"/><path d="M47.789 132.31a7.82 7.82 0 0 1 0 15.64v-15.64" fill="#fff594" id="circle2201"/><path d="M53.349 140.13a5.56 5.56 0 1 1-11.12 0 5.56 5.56 0 0 1 11.12 0" fill="#fff" id="circle2203"/></g><g id="outlines"><path d="M99.308 82.831 46.109 46.308 20.268 82.801" fill="none" id="path3980" stroke="#000" stroke-miterlimit="10" stroke-width=".1"/></g><g id="g382"><path d="m48.006 82.951-27.739-.15-.113 3.881.944-.154c-1.333-1.759.373-2.505.373-2.505 2.931-.373 6.076.373 6.076.373s4.69-1.6 7.035 0c0 0 4.264-1.173 5.863 0 0 0 5.65-.853 7.356.213l.205-1.658" fill="#9c6" id="path125" stroke="#000" stroke-miterlimit="10" stroke-width=".1"/></g><g id="g56"><path d="M47.801 84.61c-1.706-1.066-7.355-.213-7.355-.213-1.6-1.173-5.863 0-5.863 0-2.345-1.6-7.036 0-7.036 0s-3.144-.746-6.076-.373c0 0-1.705.746-.373 2.505.853-.107 1.919.32 1.919.32.693-.267 3.251-.214 3.251-.214.64-.213 1.6-.586 1.6-.586.799.267 1.278.373 1.278.373l3.891.213c.32-.426 1.76-.64 1.76-.64.532.534 2.558.427 2.558.427l3.464-.16c1.972.48 4.104.427 4.104.427l2.772-.267.106-1.812" fill="#9c6" id="path32" stroke="#000" stroke-miterlimit="10" stroke-width=".1"/></g><g id="g49" fill="#9c6" stroke="#000" stroke-miterlimit="10" stroke-width=".1"><path d="M27.547 84.396s.906.586.32 1.652" id="path40"/><path d="m34.583 84.396.213 1.599" id="path42"/><path d="m40.446 84.396.373 1.865" id="path44"/></g><g id="g90"><path d="M36.564 86.469s-1.234.06-1.767-.474c0 0-1.44.213-1.76.64l-3.89-.213s-.48-.107-1.28-.373c0 0-.959.373-1.598.586 0 0-2.559-.053-3.252.213 0 0-1.066-.426-1.918-.32l-.944.154.15 8.782s1.094 1.319 2.488.377c0 0 1.432 2.186 3.58-.038 0 0 1.772.528 2.563-.15.043-.181 2.2 1.378 4.334-.34.015-.073 1.614 1.165 3.882-.301-.117-.293.274 1.269 2.205 1.48.204-.666 1.074-1.43 1.677-1.556 0 0 1.47 1.168 3.128.415 0 0 .867-.377.867-.867 0 0 .557.52 1.424.633.599-.205 1.115-.189 1.365-.656 0 0 .696-3.778-.123-8.04l-2.772.267s-1.001.308-2.973-.172l-.992 1.134s-1.654-2.268-3.875-.189l-.52-.992" fill="#9c6" id="path36" stroke="#000" stroke-miterlimit="10" stroke-width=".1"/></g><g id="g79" fill="#9c6" stroke="#000" stroke-miterlimit="10" stroke-width=".1"><path d="M44.923 86.688s.86 1.841.483 4.818l-.377 2.978" id="path58"/><path d="m33.037 86.635.233 8.678" id="path64"/><path d="m28.936 95.652.21-9.23" id="path66"/><path d="M26.268 86.635s.52 2.837.03 4.947.075 4.221.075 4.221" id="path68"/><path d="M23.017 86.848s.416 2.171.04 4.282c-.377 2.11-.264 4.71-.264 4.71" id="path70"/><path d="M37.152 95.012s-.447-.227-.069-1.692c.426-2.787 0-5.858 0-5.858" id="path119"/><path d="M41.034 94.936s-.88-1.191-.218-3.837c.661-2.646.142-3.449.142-3.449" id="path121"/></g><g id="g445" fill="#9c6" stroke="#000" stroke-miterlimit="10" stroke-width=".1"><path d="M25.983 101.46c2.673-2.806 1.336-4.477 1.336-4.477-1.002-1.537-3.407.134-3.407.134l-2.272 1.938s-.267 1.403.133 2.104c0 0 1.07 3.174 4.21.301" id="path237"/><path d="M41.997 98.753s-6.284 2.032-.898 6.615c0 0 4.596-.134 3.46-4.544 0 0-.78-2.037-2.562-2.071" id="path259"/><path d="M39.357 96.492s.691-1.363 1.677-1.556c0 0 2.456.543 2.957.343 0 0 .902.4 1.002.868 0 0-.968 1.871-1.102 1.971-.134.1-2.406 1.437-3.976-.3l-.558-1.326" id="path261"/><path d="m47.818 94.461-.003 7.6c.398.457-2.91-.46-3.928-2.174 0 0-.642-3.907 3.931-5.426" id="path265"/><path d="M25.482 113.65s1.607-.06 2.405-.635" id="path1454"/></g><g id="g315" fill="#9c6" stroke="#000" stroke-miterlimit="10" stroke-width=".1"><path d="M27.587 98.419s.535-2.64 3.074-2.339c0 0 2.004.134 2.672.769 0 0 .2-.97 1.27-1.103 0 0 3.293-.312 4.754.746 0 0 2.095 3.698-1.28 5.034 0 0-1.97.3-2.973-.601 0 0-4.276 3.775-7.517-2.506" id="path241"/><path d="M33.333 96.849s4.21 2.071 1.77 4.076" id="path243"/></g><g id="g307" fill="#9c6" stroke="#000" stroke-miterlimit="10" stroke-width=".1"><path d="M25.75 108.31s-3.909-2.105.234-6.849c0 0 2.673-1.503 4.744.3 0 0 3.274 4.711-2.773 7.017 0 0 2.572 2.038-.067 4.243 1.034-.003 2.676.634 2.676.634h-5.081s-4.677-2.639.267-5.345" id="path245"/><path d="M25.75 108.31s.869.768 2.205.468" id="path247"/></g><g id="g311" fill="#9c6" stroke="#000" stroke-miterlimit="10" stroke-width=".1"><path d="M44.737 113.67c.028-.2.047-.416.056-.65 0 0 4.21-1.035 2.272-4.677 0 0-.97-3.374-4.644-2.94 0 0-4.61 1.904-.267 7.083 0 0-2.406.093-2.4 1.2l4.983-.016" id="path255"/><path d="M42.153 112.48s.568.635 1.503.134c.936-.501 1.136.4 1.136.4" id="path257"/></g><g id="g797"><path d="M47.496 82.951h18.417v1.722c-2.551-.33-3.921.331-3.921.331-1.04-1.465-6.71-.52-6.71-.52-2.834-.756-6.952.125-6.952.125h-.53l-.67-.356" fill="#9c6" id="path32-5" stroke="#000" stroke-miterlimit="10" stroke-width=".1"/></g><g id="g161"><path d="M47.732 85.623c.802.935 3.909.601 3.909.601 2.539.167 3.073-.267 3.073-.267l.769.434 4.076.1c1.67.1 1.904-.668 1.904-.668 0 .82 1.136.936 1.136.936h2.94l-.155-2.086s-2.74-.144-3.922.331c0 0 .743-1.398-6.709-.52 0 0-2.64-1.096-6.952.125l-.069 1.014" fill="#9c6" id="path127" stroke="#000" stroke-miterlimit="10" stroke-width=".1"/></g><g id="g155" fill="#9c6" stroke="#000" stroke-miterlimit="10" stroke-width=".1"><path d="M54.715 85.957s.512-.874.039-1.473" id="path129"/><path d="M61.463 85.004v.82" id="path131"/></g><g id="g151"><path d="M47.818 94.461s.54-6.205-.123-8.04l.038-.798s.835.87 3.909.602c0 0 2.07.4 3.073-.267l.769.434 4.042.067 1.203.033s.434.668 1.87.267l.736.635-.167 5.746s.033 1.003-.502 1.604c0 0-2.405 1.537-3.006-.334 0 0-1.404 1.938-4.31.267l-.735.535-2.405.1-.602-.635s-2.134 1.673-3.79-.216" fill="#9c6" id="path133" stroke="#000" stroke-miterlimit="10" stroke-width=".1"/></g><g id="g144" fill="#9c6" stroke="#000" stroke-miterlimit="10" stroke-width=".1"><path d="M51.641 86.225s1.236 5.178-.033 8.452" id="path135"/><path d="M55.483 86.392s.601 4.844-.134 8.285" id="path137"/><path d="M59.459 86.492s1.537 4.51.2 7.918" id="path139"/></g><g id="g596"><path d="M71.196 84.107s2.882-.189 3.118.709c0 0 6.095-.473 6.898.33 0 0 5.387-1.559 6.473.237 0 0 3.119-1.37 6.993.094 0 0 2.551-.803 4.536-.614l.094-2.032H71.196v1.276" fill="#9c6" id="path165" stroke="#000" stroke-miterlimit="10" stroke-width=".1"/></g><g id="g201"><path d="M99.213 84.863c-1.984-.189-4.536.614-4.536.614-3.874-1.464-6.992-.094-6.992-.094-1.087-1.796-6.473-.237-6.473-.237-.803-.803-6.898-.33-6.898-.33-.236-.898-3.119-.709-3.119-.709v2.74l1.512-.283s1.087-.284 1.654-.19l1.417.662 3.638-.047s1.512.047 1.701-.378c0 0 1.37.567 2.126.567l3.308.047 1.086-.425s.71 1.181 2.693.709l3.78.047.662-.709s.567 1.04 3.118.993h1.417l-.094-2.977" fill="#9c6" id="path163" stroke="#000" stroke-miterlimit="10" stroke-width=".1"/></g><g id="g179" fill="#9c6" stroke="#000" stroke-miterlimit="10" stroke-width=".1"><path d="m74.314 84.815.047 1.56" id="path167"/><path d="m81.212 85.146-.095 1.465" id="path169"/><path d="M87.685 85.382s.475.514-.047 1.417" id="path171"/><path d="m94.677 85.477.094 1.37" id="path173"/></g><g id="g235"><path d="M99.308 87.839h-1.417c-2.552.047-3.119-.992-3.119-.992l-.661.709-3.78-.048c-1.984.473-2.693-.708-2.693-.708l-1.087.425-3.307-.047c-.756 0-2.126-.567-2.126-.567-.19.425-1.701.378-1.701.378l-3.638.047-1.417-.662c-.567-.094-1.654.19-1.654.19l-.142 1.228-.189 7.654s.756 1.086 1.654.803l1.417-.756s1.512 1.56 3.78.094c0 0 1.04 1.654 3.355.426 0 0-.237.708.566.803l2.646.047.614-.189s.898.567 1.843.662l1.56-.662 1.37.473s2.456.189 2.55-.662c0 0 .875 1.583 3.639.142 0 0 1.11.732 1.96.472l-.023-9.26" fill="#9c6" id="path191" stroke="#000" stroke-miterlimit="10" stroke-width=".1"/></g><g id="g224" fill="#9c6" stroke="#000" stroke-miterlimit="10" stroke-width=".1"><path d="M75.779 87.036s.472 1.417.189 4.3c-1.134 3.023-.52 4.157-.52 4.157" id="path203"/><path d="m79.606 87.131-.378 8.457" id="path205"/><path d="m83.244 87.083-.661 8.93" id="path207"/><path d="m86.551 87.225-.142 9.45" id="path209"/><path d="M90.331 87.509s.472 3.638-.52 9.166" id="path211"/><path d="M94.11 87.556s.614 3.213-.094 4.489c-.71 1.275-.284 4.44-.284 4.44" id="path213"/><path d="M97.937 87.887s.236 1.37-.142 2.74-.425 6-.425 6" id="path215"/></g><g id="g570"><path d="M101.08 125.35h-4.016s-1.606.803-3.402 0c0 0-2.008.803-3.496-.213 0 0-.305.406-1.073.507h-5.846l-.702-.401-.635.434h-2.773l-.367-.434-.501.467H73.39l-.635-.467-.434.467H68.38l-.501-.568-.535.368h-4.911l-.501-.535-.735.735h-5.613l-.735-.634-.835.6h-4.911l-.869-.534-.467.602h-5.38l-.567-.635-.435.434h-4.844l-.501-.668-.367.501h-4.344l-.634-.701-.468.367h-5.78l-.635-.5-.868.734-2.727-.304v2.61h80.803l.06-2.232" fill="#9c6" id="path482" stroke="#000" stroke-miterlimit="10" stroke-width=".1"/></g><g id="g550"><path d="m20.263 123.18 2.551-.095s.615-.188.898.615c0 0 .33-.614.945-.52h5.339l.664.73.301-.401 4.042-.1 1.07.534.68-.456h4.511s.615.142.544.543c0 0-.095-.52.52-.52h5.291s.443.043.52.331c0 0 .189-.496.52-.496h5.15s.755.071.755.544c0 0 .567-.803 1.182-.662h5.008s1.04.331 1.04.803c0 0 .472-.614 1.133-.614h3.874s.898.19 1.04.52l.472-.236h3.78l.614.425.662-.425h4.63s.661.283.709.52c0 0 .496-.804 1.204-.804h1.796l.78.614.52-.59h6.566l.426.638s.448-.426 1.323-.426l1.984.071.189.237.402-.166h2.81l.331.378.473-.567h3.142s.992.733.425 1.748h-4.016s-1.606.804-3.402 0c0 0-2.008.804-3.496-.212 0 0-.304.406-1.073.506h-5.846l-.702-.401-.635.434h-2.773l-.367-.434-.501.468H73.39l-.635-.468-.434.468h-3.942l-.501-.568-.535.367h-4.911l-.501-.534-.735.735h-5.613l-.735-.635-.835.601h-4.911l-.869-.534-.467.601h-5.38l-.567-.635-.435.435H36.54l-.5-.669-.368.502h-4.344l-.634-.702-.468.368h-5.78l-.634-.502-.87.735-2.726-.304.047-1.795" fill="#9c6" id="path514" stroke="#000" stroke-miterlimit="10" stroke-width=".1"/></g><g id="g532" fill="#9c6" stroke="#000" stroke-miterlimit="10" stroke-width=".1"><path d="m23.712 123.7.1.845" id="path484"/><path d="m30.661 123.91.033.768" id="path486"/><path d="m36.073 123.94-.033.935" id="path488"/><path d="m41.808 124.03.011 1.082" id="path490"/><path d="m48.139 123.84.095 1.304" id="path492"/><path d="m54.565 123.89.284 1.19" id="path494"/><path d="m61.793 124.03.138.948" id="path496"/><path d="m67.841 123.94.037 1.21" id="path498"/><path d="m72.707 124.13.048 1.121" id="path500"/><path d="m78.708 124.22.061 1.027" id="path502"/><path d="m82.488 124.03.057 1.216" id="path504"/><path d="m90 124.08.165 1.063" id="path506"/><path d="m93.496 123.96.165 1.394" id="path508"/><path d="m97.04 124.17.024 1.181" id="path510"/></g><g id="g1199" fill="#9c6" stroke="#000" stroke-miterlimit="10" stroke-width=".1"><path d="M40.568 112.81c-.697.106-.814.874-.814.874.003.512.521 1.24 2.032 2.275 0 0 2.525.705 2.951-2.29l.056-.65" id="path279"/><path d="M29.992 113.42c-.08.183 2.788.477 3.308 3.578 0 0 2.973-1.036 4.343.501 0 0 1.503-1.804 4.142-1.537 0 0 3.308 1.738.1 4.277 0 0-2.94 1.837-3.975-.97 0 0-.2 1.504-2.773 1.237 0 0-1.737.668-2.572-1.67 0 0-6.916 2.238-8.32-2.038 0 0-.033-2.84 1.237-3.14" id="path271"/><path d="M33.3 116.99s.4 1.77-.735 1.837" id="path251"/><path d="m37.643 117.5.267 1.77" id="path253"/></g><g id="g296" fill="#9c6" stroke="#000" stroke-miterlimit="10" stroke-width=".1"><path d="M29.825 119.8s3.207-1.136 4.443 1.67c0 0 2.506-1.77 4.544-.634 0 0 .768 2.305-1.036 2.639 0 0-1.169 0-1.704.468 0 0-.167-.535-1.069-.535 0 0-.634-.601-.735-.902 0 0-.601.969-3.307 1.002l-.3.401-.602-.701-1.07-.067s-1.904-2.372.836-3.341" id="path281"/><path d="M34.269 121.47s.501.317 0 1.036" id="path283"/></g><g id="g783" fill="#9c6" stroke="#000" stroke-miterlimit="10" stroke-width=".1"><path d="m46.452 95.117 1.365-.656c-.165-.058 7.071 3.776-.003 7.6l-1.565-.331" id="path267"/><path d="M50.501 99.982s5.098-4.961 5.95 2.079c0 0-1.698 4.394-5.383 3.024 0 0-2.74-1.748-.567-5.103" id="path574"/></g><g id="g690"><path d="M73.658 97.483c-3.14-3.441-5.98.501-5.98.501-2.974-6.047-6.214.034-6.214.034-1.17 8.485 4.777 3.14 4.777 3.14-.4 3.608 2.974 3.274 2.974 3.274-1.905 1.904-.067 4.009-.067 4.009-2.305 1.904-.334 2.907-.334 2.907-2.606.801-2.706 3.34-2.706 3.34-1.17.167-2.005 1.704-2.005 1.704-2.305-.735-4.176.167-4.176.167.167-1.136-1.336-1.002-1.336-1.002-.936.2-1.103-.568-1.103-.568.167-.702-1.236-1.604-1.236-1.604 2.405-1.97-.434-3.474-.434-3.474l.534-.568s-.2-.668.735-1.704c.936-1.036.468-1.77.468-1.77 5.011-2.707 2.205-4.845 2.205-4.845 2.205-2.505 1.737-3.775 1.737-3.775-.868-4.276-5.68-.735-5.68-.735.101-.635-1.202-1.303-1.202-1.303l-2.405.1c-1.236-.1-1.704 1.738-1.704 1.738s1.971 2.672 4.978.668c0 0-.602 2.472 2.171 2.873l.535.768-1.737.702s-.301 1.102-.936 1.804l.067 1.136s-3.007-1.07-2.405 3.074c0 0 .4 1.87 1.136 2.171 0 0-3.375 2.506-1.871 3.976 0 0 1.27.935 2.572.468 0 0-.635 5.78 3.942 2.906 0 0 2.44 3.608 4.945 2.472 0 0 1.17-.534 1.704-1.87 0 0 1.169-.669 1.87-.736 1.203-.5.836-1.436.836-1.436s1.436-.468 2.205-1.737c0 0 .434-.568 0-1.404-.435-.835-.501-1.536-.501-1.536s1.737-.568 1.035-2.272c0 0 1.704-.936 1.17-3.174 0 0 .3-.735-.468-.501s-.902-1.47-.902-1.47l-.835-.2-.167-.702-.902-1.838s.902.067 1.57-.334c.668-.4 1.87 0 1.87 0l1.237-.935.033-2.439" fill="#9c6" id="path572" stroke="#000" stroke-miterlimit="10" stroke-width=".1"/></g><g id="g673" fill="#9c6" stroke="#000" stroke-miterlimit="10" stroke-width=".1"><path d="m68.947 101.19-1.72-.974.45-2.233" id="path618"/><path d="m67.227 100.22-.986.94" id="path620"/><path d="M69.147 108.44s1.194-.098 1.904.635" id="path622"/><path d="m69.214 104.43.802-.702" id="path624"/><path d="M68.813 111.35h1.203" id="path626"/><path d="M68.312 116.03s-.82-1.417-2.205-1.336" id="path628"/><path d="M64.103 116.39s.213 1.546 1.503 1.804" id="path630"/><path d="m59.927 116.56-.969 1.036" id="path632"/><path d="m55.016 114.69 1.236-1.303" id="path634"/><path d="m54.314 110.25 1.503-.334" id="path636"/><path d="M55.584 105s.425 1.133 1.971.869" id="path638"/><path d="M58.189 101.36s1.332.992 1.57-.334" id="path640"/><path d="m55.817 96.515-.334 1.203" id="path642"/></g><g id="g740"><path d="M61.368 120.96s-.094-3.685-4.252-.898c0 0-1.56 2.504.567 3.213 0 0 2.611 0 3.146-1.069l-.075 1.022 1.04.803s.471-.822 2.309-.588c0 0 1.069-.435 1.269-1.203l1.43 1.177s.534-.056 1.039.52c0 0 .571-.327 1.473-.26 0 0 3.942-1.47.835-4.745 0 0 2.84-.5 3.107-1.837 0 0 2.606 1.37 3.241-1.504 0 0 2.907.335 3.575-1.637 0 0 1.77 2.673 3.708.401 0 0 1.236-.835.702-2.472 0 0 2.305.067 2.74-1.036 0 0 1.455-1.32 1.03-2.455 0 0 2.031.898 3.732-.378 0 0-.189 2.977 3.118 3.166 0 0-3.307 3.402.52 5.622 0 0-2.15.662-1.937 3.827 0 0-1.937-.425-2.41 2.882l2.032.213s1.842-1.205 1.346-2.102l1.229.33s-1.536 1.89.047 1.772l.78.071.33.378.473-.567s2.268-.874.307-2.15c0 0 4.701-2.764.283-5.41 0 0 4.016-5.079-1.582-5.386 0 0 1.417-1.228.236-2.835 0 0 6.166-2.504 1.3-6.874 0 0 2.55-1.536.424-3.662l-1.11-.661s-1.11.709-2.055.638c0 0-1.278.753-1.145 1.989 0 0-4.877-5.012-7.483-.501 0 0-1.103 4.61 3.474 5.178 0 0 4.778-.334 4.477-3.642l1.336 1.003s-3.307 1.169-3.107 3.14c0 0-.5 1.37.669 2.071l-.936.401s.134-4.243-5.279-2.472c0 0 .735-2.84-2.138-2.973 0 0 3.094-2.276.612-4.596l-2.646-.047-1.574 1.101-1.17-1.403-1.178-.927s-1.655 1.457-3.78-.094c0 0-2.759 1.422-1.422 5.531 0 0-.656-.098-1.483.375 0 0-.969-1.488-1.536-.095l-1.157 1.725.167.702.835.2s.226 1.65.864 1.484c0 0 .634-.278.506.487 0 0 3.888-.393 2.778-4.125 0 0 4.252 1.44 6.33-1.961 0 0 .426 1.795 2.528 1.913 0 0-3.047 3.331 1.064 5.717 0 0-1.508 1.33-1.642 3.367 0 0-1.67-.468-3.174 1.336 0 0 0-3.374-2.806-1.002 0 0-2.038 1.704-1.838 2.606 0 0-2.305-.768-2.84 1.604 0 0-.5-1.738-2.839-.334 0 0-1.503 1.302-1.102 2.74 0 0-3.943-1.037-3.842 2.972 0 0-1.394-1.056-3.47.224" fill="#9c6" id="path576" stroke="#000" stroke-miterlimit="10" stroke-width=".1"/></g><g id="g716" fill="#9c6" stroke="#000" stroke-miterlimit="10" stroke-width=".1"><path d="M96.756 107.82s-.724-1.46-3.22-1.321" id="path598"/><path d="M95.103 111.18s.803.378 1.417-.52" id="path600"/><path d="M95.622 116.8s1.512-.709 2.48-.756" id="path602"/><path d="m93.685 120.63.969.992" id="path604"/><path d="M95.882 121.95s.78-.472 1.937-.496" id="path606"/><path d="m92.6 106.9-.616 1.11" id="path608"/><path d="M87.322 104.43s-2.283 2.164.93 3.96" id="path610"/><path d="M84.921 107.45s1.347-.33 1.441-1.228" id="path612"/><path d="m83.858 101.73 1.326-.27" id="path614"/><path d="m81.575 97.918-.245 1.899" id="path616"/><path d="m83.279 110.81 1.203 1.07" id="path644"/><path d="m80.106 112.15-.033 1.804" id="path646"/><path d="M75.462 113.75s1.235.485 1.036 1.837" id="path648"/><path d="M72.622 115.36s-.139 1.132.635 1.737" id="path650"/><path d="m68.68 117.76 1.47 1.17" id="path652"/><path d="m64.838 120.74.535 1.503" id="path654"/><path d="m61.368 120.96-.54 1.246" id="path656"/><path d="m95.975 101.29 2.08-.342" id="path658"/><path d="m74.025 101.02.974.752" id="path692"/><path d="m94.171 99.254.468 1.036" id="path694"/></g><g id="g2946"><path d="M23.842 37.19s-.389-.243 1.02-2.042c1.167-1.41 2.577-3.013 3.55-3.548 1.02-.632 1.992-1.361 4.131-.535.68.39 1.118.68 1.799 1.361.34.535 1.312.972 1.41 1.118.485.243 2.673 1.799 3.256 2.042-.583-.535-2.479-2.188-3.11-2.48-.681-.291-1.265-.826-1.07-2.867.194-1.167.437-1.847.437-1.847.486.389 2.43 2.187 2.77 2.819.293.486.098.826.293 1.361.145.486.437 1.02.631 1.118.05-.34.146-.875.146-.875.146.243.778.73.778.73.097.242.486 1.263.437 1.506-.048.389-.145.972-.145.972.291-.389.972-.972 1.263-2.284.098-.73.05-2.188.535-2.82.438-.632.778-1.263 1.799-1.507.534-.145 1.41-.388 1.701.924.049.438-.049 1.02-1.07 2.187-.68.632-2.187 1.945-2.187 1.993-.34.39-.486.584-.486.584.68-.486 2.77-1.604 3.062-1.702.292-.388 2.188-2.43 4.618-2.722 1.07-.097 3.597.584 4.326.924-.388.194-1.069.583-1.166.923-.146.39-.486 1.118-.924 1.118.438.292 1.945 1.264 2.528 2.09.486.535 1.993 1.653 2.965 1.896-.146.243-3.16 1.41-4.666.924-1.507-.486-2.334-1.41-3.743-2.528-.827-.583-2.14-1.458-4.083-1.118-1.07.243-3.014.875-3.89 1.556l-.145.194c.486 0 4.035-.34 4.715.535.583.778 1.215 1.653 1.215 1.653-.34.291-2.138 1.75-3.986 0-.729-.827-1.312-1.605-1.944-1.556.292.389 1.75 2.333 2.722 2.868 1.07.292 3.937.68 4.618 2.965.389 1.264.486 2.77.486 2.77-.632.292-2.673 1.702-5.493-1.846-.632-1.264-.777-1.361-1.312-4.035-.389-.729-.73-1.458-1.361-1.944-.632-.049-.924-.049-.972 0-.486.048-1.847.146-2.382 1.02-.632.827-1.604 1.994-3.743 3.112-1.07.486-2.139 1.02-3.743-.924-.389-.632-.583-1.896.049-2.625.68-.778 1.895-2.284 3.11-2.236.827.049 4.084.632 6.466 1.07-.292-.39-2.09-2.771-5.833-2.82-.73.049-1.653.195-2.771.924-1.264.778-2.868 2.187-4.861 1.555-.486-.194-1.215-.243-1.75.049" fill="none" id="path2944" stroke="#000" stroke-miterlimit="10" stroke-width=".1"/></g><g id="g2942" fill="none" stroke="#000" stroke-miterlimit="10" stroke-width=".1"><path d="M38.23 49.779c.389-1.02 0-2.042-.34-2.868-.049-.097-.097-.194-.097-.292-.487-1.41.777-2.77.777-2.77" id="path2896"/><path d="M42.07 33.69s1.118-1.993 1.993-2.868" id="path2898"/><path d="M44.403 38.308c-.34-.924-1.896-1.07-1.944-1.07" id="path2900"/><path d="M34.973 37.676c-1.07.34-3.305 1.75-3.403 1.798" id="path2902"/><path d="M36.966 37.724c-1.507-.194-3.986 2.48-4.132 2.576" id="path2904"/><path d="M33.612 33.252c-3.986-.437-6.66 1.701-6.708 1.75" id="path2906"/><path d="M37.598 33.204c-.583-.535-1.264-2.236-1.264-2.236" id="path2908"/><path d="M39.542 34.273s.146.437.194.68" id="path2910"/><path d="M45.327 44.092c-.68-1.507-2.333-3.208-2.382-3.208" id="path2912"/><path d="M38.91 33.592c-.049 0-.049 0 0 0" id="path2914"/><path d="M41.633 45.21c-.146-.146-.924-.778-.924-1.556-.048-.729-.243-1.652-.631-2.624-.05-.195-.244-.292-.195-.195.195-.437.292-1.264.292-1.555v-.292c0-.243.048-.389.097-.583.049-.146.049-.292.097-.438" id="path2916"/><path d="M38.084 63.681c-.049-.437.097-.778.34-1.264.097-.486-.048-1.555-.243-2.333-.291-1.264 1.07-2.576 1.118-2.625l.049.049a6.81 6.81 0 0 1 .291-1.361c.05-.34.05-.827.05-1.313 0-.777-.05-1.604.194-2.041a3.35 3.35 0 0 0 .145-.39c.34-.923.68-1.846.535-3.79-.73-1.75-.535-1.216-.778-1.605s-.632-.194-.972-2.041 0-2.528 0-3.403.438-3.014.583-3.646" id="path2918"/><path d="M42.653 66.647c-.389-.243-.437-.826-.486-1.215 0-.146 0-.243-.049-.292-.534-.535-.437-1.118-.291-1.847 0-.68-.535-1.118-.73-1.264.05.292.05.584.05.73-.147.729-.487 2.333.194 4.666.097.243.243.486.388.729a74.73 74.73 0 0 1 .438 3.743l-.049-.778s-.243-.875-.534-2.916a8.209 8.209 0 0 0-.292-.632c0-.049 0-.049-.049-.097-.534-1.07-1.02-1.993-.923-3.598v-.097c.097-1.993.097-2.625-.827-4.52-.145-.438-.145-1.264-.145-1.799" id="path2920"/><path d="M43.139 57.216c.146-1.556-.243-2.042-.535-2.43l-.048-.049c-.39-.486-.39-1.07-.34-2.285 0-1.263-.681-1.75-.924-1.895 0 .534-.049 1.07-.146 1.41l-.049.097c-.388.923-.631 1.458-.534 2.576.048.826-.146 1.798-.292 2.382-.049.243-.097.437-.097.534-.097.535.146 1.41.389 1.702.194.34.291.826.389 1.166.048.146.048.292.097.39v.145c.048.243.097.535.146.826l.048.195" id="path2922"/><path d="M39.883 40.835c-.194.972-.146.972-.146 1.944 0 .973-.146 1.507 0 1.993.146.486.389.875.583 1.118.438.632.875 1.216.924 2.09v2.528" id="path2924"/><path d="M50.868 32.183c-1.458-.146-2.917.583-2.965.632h.389c-.972 0-2.188.146-3.354.535" id="path2926"/><path d="M51.597 33.592a8.055 8.055 0 0 0-3.305-.826" id="path2928"/><path d="M39.105 37.287c.097-.049.486-.049.583-.194.146-.195.195-.535.098-.875-.05-.098-.146-.195-.195-.34-.292-.438-.729-1.119-.632-2.188" id="path2930"/><path d="M40.126 36.169c-.097.486-.049.875-.049.875" id="path2932"/><path d="m46.056 33.933 7.146 2.48c-4.18-3.598-7.146-2.48-7.146-2.48" id="path2934"/></g><g id="labels" font-size="2.117" font-family="Arial" fill="#000" letter-spacing="0" word-spacing="0"><text id="text3976" style="line-height:1.25;text-align:center" x="58.058" y="138.942" xml:space="preserve" stroke-width=".014" text-anchor="middle">
            <tspan id="tspan3974" style="text-align:start" x="56.999" y="138.942" stroke-width=".014" text-anchor="start">5 Day uninfected</tspan>
            <tspan id="tspan3978" style="text-align:start" x="56.999" y="141.587" stroke-width=".014" text-anchor="start">5 Day post infected</tspan>
        </text><text id="text3984" style="line-height:1.25;text-align:end" x="108.835" y="32.976" xml:space="preserve" stroke-width=".014" text-anchor="end">
            <tspan id="tspan3982" style="text-align:end" x="138.835" y="32.976" font-size="3.528" stroke-width=".014" text-anchor="end">Col laser</tspan>
            <tspan id="tspan3986" style="text-align:end" x="138.835" y="37.386" font-size="3.528" stroke-width=".014" text-anchor="end">microdissected</tspan>
        </text><text id="text3992" style="line-height:1.25;text-align:end" x="138.835" y="64.461" xml:space="preserve" stroke-width=".014" text-anchor="end">
            <tspan id="tspan3988" style="text-align:end" x="138.835" y="64.461" font-size="3.528" stroke-width=".014" text-anchor="end">
                <tspan id="tspan4006" style="text-align:end" font-family="Arial" font-style="italic" text-anchor="end">eds16</tspan> laser</tspan>
            <tspan id="tspan3990" style="text-align:end" x="138.835" y="68.871" font-size="3.528" stroke-width=".014" text-anchor="end">microdissected</tspan>
        </text><text id="text3998" style="line-height:1.25;text-align:end" x="110.071" y="96.476" xml:space="preserve" stroke-width=".014" text-anchor="end">
            <tspan id="tspan3994" style="text-align:end" x="140.071" y="96.476" font-size="3.528" stroke-width=".014" text-anchor="end">Col whole leaf</tspan>
            <tspan id="tspan3996" style="text-align:end" x="140.071" y="100.886" font-size="3.528" stroke-width=".014" text-anchor="end">amplified</tspan>
        </text><text id="text4004" style="line-height:1.25;text-align:end" x="108.972" y="127.961" xml:space="preserve" stroke-width=".014" text-anchor="end">
            <tspan id="tspan4002" style="text-align:end" x="138.972" y="127.961" font-size="3.528" stroke-width=".014" text-anchor="end">Col leaf scrape</tspan>
        </text><text id="text4012" style="line-height:1.25;text-align:end" x="125.536" y="152.039" xml:space="preserve" stroke-width=".014" text-anchor="end">
            <tspan id="tspan4010" style="text-align:start" x="140.536" y="152.039" font-size="3.528" stroke-width=".014" text-anchor="start">5 Day uninfected</tspan>
        </text><text id="text4016" style="line-height:1.25;text-align:end" x="157.799" y="152.039" xml:space="preserve" stroke-width=".014" text-anchor="end">
            <tspan id="tspan4014" style="text-align:start" x="172.799" y="152.039" font-size="3.528" stroke-width=".014" text-anchor="start">5 Day post infected</tspan>
        </text><text id="text8052" style="line-height:1.25;text-align:end" x="39.244" y="82.043" xml:space="preserve" stroke-width=".037" text-anchor="end">
            <tspan id="tspan8050" style="text-align:start" x="39.244" y="82.043" stroke-width=".037" text-anchor="start">*Haustorial complex</tspan>
        </text></g><g id="g8056"><path d="M178.66 118.09s1.39.754 1.032 2.303c0 0-.992.674-1.27-.477 0 0 .436-.913.238-1.826" fill="#595959" id="path8054" stroke="#000" stroke-miterlimit="10" stroke-width=".1"/></g><g id="HC"><path d="M37.603 81.263s2.315 1.257 1.72 3.837c0 0-1.654 1.124-2.117-.794 0 0 .728-1.522.397-3.043" fill="#595959" id="path2154" stroke="#000" stroke-miterlimit="10" stroke-width=".1"/></g></svg>