<svg xmlns="http://www.w3.org/2000/svg" xml:space="preserve" id="BioticStressPseudomonassyringae_svg" x="0" y="0" version="1.1" viewBox="20 40 832.2 518.5" author="Provart Lab - Bio Analytic Resource, University of Toronto">
  &gt;
  <g id="Infiltrating">
    <g id="Labels" transform="translate(-7 -12)">
      <text id="text6" transform="translate(31 348)"><tspan id="tspan3441" x="0" y="0"><tspan id="tspan2" x="0" y="0" font-family="HelveticaNeue" font-size="18">Infiltrating    </tspan></tspan><tspan id="tspan3443" x="84.3" y="0"><tspan id="tspan3445" x="84.3" y="0" font-family="HelveticaNeue-Italic" font-size="18">   Pseudomonas syringae</tspan></tspan></text>
      <text id="text12" transform="translate(245 384)"><tspan id="tspan8" x="0" y="0" font-family="HelveticaNeue-Thin" font-size="12">Mock Treatment</tspan><tspan id="tspan10" x="-7.9" y="13" font-family="HelveticaNeue-Thin" font-size="10">(10mM MgCl2 solution)</tspan></text>
      <text id="text20" transform="translate(240 437)"><tspan id="tspan14" x="0" y="0" font-family="HelveticaNeue-Thin" font-size="12">Avirulent pathogen</tspan><tspan id="tspan16" x="12" y="13" font-family="HelveticaNeue-Thin" font-size="10">(10e8 cfu/ml pv. </tspan><tspan id="tspan18" x="10.3" y="26" font-family="HelveticaNeue-Thin" font-size="10">tomato avrRpm1)</tspan></text>
      <text id="text28" transform="translate(243 501)"><tspan id="tspan22" x="0" y="0" font-family="HelveticaNeue-Thin" font-size="12">Virulent pathogen</tspan><tspan id="tspan24" x="9.1" y="13" font-family="HelveticaNeue-Thin" font-size="10">(10e8 cfu/ml pv. </tspan><tspan id="tspan26" x="8.2" y="26" font-family="HelveticaNeue-Thin" font-size="10">tomato DC3000)</tspan></text>
      <text id="text30" font-family="HelveticaNeue-Thin" font-size="10" transform="translate(370 568)">2 hours</text>
      <text id="text32" font-family="HelveticaNeue-Thin" font-size="10" transform="translate(431 568)">6 hours</text>
      <text id="text34" font-family="HelveticaNeue-Thin" font-size="10" transform="translate(489 568)">24 hours</text>
      <text id="text40" transform="translate(572 384)"><tspan id="tspan36" x="0" y="0" font-family="HelveticaNeue-Thin" font-size="12">Mock Treatment</tspan><tspan id="tspan38" x="-7.9" y="13" font-family="HelveticaNeue-Thin" font-size="10">(10mM MgCl2 solution)</tspan></text>
      <text id="text50" transform="translate(570 437)"><tspan id="tspan42" x="0" y="0" font-family="HelveticaNeue-Thin" font-size="12">Type III-Secretion </tspan><tspan id="tspan44" x=".8" y="13" font-family="HelveticaNeue-Thin" font-size="12">System Deficient </tspan><tspan id="tspan46" x="8.6" y="26" font-family="HelveticaNeue-Thin" font-size="10">(10e8 cfu/ml pv. </tspan><tspan id="tspan48" x="-5.5" y="39" font-family="HelveticaNeue-Thin" font-size="10">tomato DC3000 hrcC-)</tspan></text>
      <text id="text58" transform="translate(570 501)"><tspan id="tspan52" x="0" y="0" font-family="HelveticaNeue-Thin" font-size="12">Nonhost Bacteria</tspan><tspan id="tspan54" x="8.9" y="13" font-family="HelveticaNeue-Thin" font-size="10">(10e8 cfu/ml pv. </tspan><tspan id="tspan56" x="16" y="26" font-family="HelveticaNeue-Thin" font-size="10">phaseolicola)</tspan></text>
      <text id="text60" font-family="HelveticaNeue-Thin" font-size="10" transform="translate(697 568)">2 hours</text>
      <text id="text62" font-family="HelveticaNeue-Thin" font-size="10" transform="translate(758 568)">6 hours</text>
      <text id="text64" font-family="HelveticaNeue-Thin" font-size="10" transform="translate(816 568)">24 hours</text>
    </g>
    <g id="treatmentInfographic" transform="translate(-7 -12)">
      <g id="root" fill="none" stroke="#000" stroke-miterlimit="10" stroke-width=".5">
        <path id="path67" d="M110 507v-7c-1-3 1-6 1-6"/>
        <path id="path69" d="m118 473 4-6"/>
        <path id="path71" d="M123 483c-1-2-4-2-4-2"/>
        <path id="path73" d="m104 482-7 3"/>
        <path id="path75" d="M108 482c-3-1-8 5-9 5"/>
        <path id="path77" d="M101 473c-8-1-14 3-14 3"/>
        <path id="path79" d="m109 472-3-4"/>
        <path id="path81" d="M113 475v1"/>
        <path id="path83" d="m125 495-5-7"/>
        <path id="path87" d="m117 497-1-3-2-5v-5l1-1v-1"/>
        <path id="path89" d="m110 535 1-2-1-5c0-3 2-5 3-6v1-6l1-4v-1l1-8-1-3c-1-1-2 0-2-4v-7l1-8"/>
        <path id="path91" d="m120 541-1-2-1-1v-4l-2-2v1c0 2-1 5 1 10l1 1 1 8-1-2-1-6v-1l-2-7v-1c0-4 0-5-2-9v-4"/>
        <path id="path93" d="M121 522c0-3-1-4-2-5v-5c0-3-2-4-2-4l-1 3-1 5v5l-1 1 1 4 1 2v1l1 2v1"/>
        <path id="path95" d="m114 488-1 4 1 4 1 3 2 4v5"/>
        <path id="path97" d="m136 470-6 2h1l-7 1"/>
        <path id="path99" d="m138 473-7-2"/>
        <path id="path101" d="m112 481 1-1 1-1-1-1-1-5"/>
        <path id="path103" d="M114 479v1"/>
        <path id="path105" d="m127 474 14 5c-8-7-15-5-15-5z"/>
        <path id="line107" d="M115 478h-1"/>
        <path id="line109" d="M114 479v-1"/>
      </g>
      <path id="rosette" fill="none" stroke="#000" stroke-miterlimit="10" stroke-width=".5" d="m81 481 2-5 7-7c2-1 4-3 9-1l3 3 3 2 7 4-6-5c-2 0-3-2-3-6l1-3 6 5 1 3 1 2v-1l2 1 1 3-1 2 3-4 1-6c1-2 2-3 4-3 1-1 3-1 3 2l-2 4-4 4-1 1 6-3c0-1 4-5 9-6l9 2-2 2-2 2 5 5 6 3c0 1-6 3-9 2l-8-5c-2-1-4-3-8-2-3 0-7 2-8 3h-1c1 0 9 0 10 2l2 3c0 1-4 4-8 0-1-2-2-3-4-3l6 6c2 0 8 1 9 6l1 5c-1 1-5 4-11-3l-3-9-2-4h-2l-5 2c-2 2-4 5-8 7-2 1-4 2-8-2v-5c2-2 4-5 7-5l13 2c-1-1-4-6-12-6l-6 2c-2 2-6 5-10 3l-3 1z"/>
      <g id="syringe">
        <path id="path115" d="m139 458-2-1-3 1-5 5h-1v-1l6-5v-2c-1-2 0-4 2-6l8-8v-2h1l7 7v1h-2l-10 10-1 1z"/>
        <path id="path117" fill="#030303" d="m156 441-1 1h-2l-1 1-1 1v-1l2-2-1-2-2-1-1 2h-1v-1l1-1v-2h1l3 3 2 2h1z"/>
        <path id="path119" fill="#fff" d="m144 446-1 1-2-2h1l2 1z"/>
        <path id="path121" fill="#fff" d="m138 448 2 2h-1l-1-1v-1z"/>
        <path id="path123" fill="#fff" d="m137 450 1 2v1l-2-2 1-1z"/>
        <path id="path125" fill="#fff" d="M142 448v1l-2-2h1l1 1z"/>
        <path id="path127" fill="#fff" d="m144 443 2 2h-1l-1-1v-1z"/>
      </g>
    </g>
    <g id="TimeSampleChart" transform="translate(-7 -12)">
      <g id="ligtCycle">
        <path id="path131" fill="none" stroke="#fff69f" stroke-miterlimit="10" stroke-width="10" d="M99 402a16 16 0 0 1 28 7"/>
      </g>
      <g id="darkCycle">
        <path id="path134" fill="none" stroke="#555" stroke-miterlimit="10" stroke-width="10" d="M127 409c1 5 0 11-4 16a16 16 0 0 1-24-23"/>
      </g>
      <g id="labels">
        <path id="line137" fill="none" stroke="#000" stroke-miterlimit="10" d="M111 392v9"/>
        <text id="text143" transform="translate(139 413)"><tspan id="tspan139" x="0" y="0" font-family="HelveticaNeue-Thin" font-size="8">6 hour</tspan><tspan id="tspan141" x="-1.3" y="9" font-family="HelveticaNeue-Thin" font-size="8">sample</tspan></text>
        <path id="line145" fill="none" stroke="#000" stroke-miterlimit="10" d="M124 414h9"/>
        <text id="text151" transform="translate(129 389)"><tspan id="tspan147" x="0" y="0" font-family="HelveticaNeue-Thin" font-size="8">2 hour</tspan><tspan id="tspan149" x="-1.3" y="9" font-family="HelveticaNeue-Thin" font-size="8">sample</tspan></text>
        <path id="line153" fill="none" stroke="#000" stroke-miterlimit="10" d="m118 403 6-7"/>
        <text id="text159" transform="translate(99 376)"><tspan id="tspan155" x="0" y="0" font-family="HelveticaNeue-Thin" font-size="8">24 hour</tspan><tspan id="tspan157" x=".9" y="9" font-family="HelveticaNeue-Thin" font-size="8">sample</tspan></text>
      </g>
    </g>
    <g id="Infiltrating_Pseudomonas_syringae_at_24_Hours" fill="#fff" stroke="#000" stroke-linecap="round" stroke-linejoin="round" stroke-miterlimit="10" stroke-width=".5" transform="translate(-7 -12)">
      <path id="Nonhost_Pseudomonas_syringae_at_24_Hours" d="M827 505c0-6 3-11 7-17l2 3c6 7 8 15 4 23-2 6-4 13-3 19v4m-1-1-1-8-1-5-4-8c-1-3-3-6-3-10m8-2-1 7 1 7"/>
      <path id="Deficient_Pseudomonas_syringae_at_24_Hours" d="M827 442c0-7 3-12 7-17l2 2c6 7 8 15 4 23-2 7-4 13-3 19v4m-1-1-1-8-1-5-4-7c-1-4-3-7-3-11m8-2-1 7 1 8"/>
      <path id="Virulent_Pseudomonas_syringae_at_24_Hours" d="M502 507c0-6 3-11 7-17l2 3c6 7 8 15 4 23-2 6-4 13-3 19v4m-1-1-1-8-1-5-4-8c-1-3-3-6-3-10m8-2v14"/>
      <path id="Avirulent_Pseudomonas_syringae_at_24_Hours" d="M502 444c0-7 3-12 7-17l2 2c6 7 8 15 4 23-2 7-4 13-3 19v4m-1-1-1-8-1-5-4-7c-1-4-3-7-3-11m8-2v15"/>
      <path id="Control_Pseudomonas_syringae_at_24_Hours" d="M502 380c0-7 3-12 7-17l2 2c6 7 8 15 4 23-2 7-4 13-3 20v3m-1-1-1-7-1-6-4-7-3-10m8-3v15m317-14c0-7 3-12 7-17l2 2c6 7 8 15 4 23-2 7-4 13-3 20v3m-1-1-1-7-1-6-4-7-3-10m8-3-1 8 1 7"/>
    </g>
    <g id="Infiltrating_Pseudomonas_syringae_at_6_Hours" fill="#fff" stroke="#000" stroke-linecap="round" stroke-linejoin="round" stroke-miterlimit="10" stroke-width=".5" transform="translate(-7 -12)">
      <path id="Nonhost_Pseudomonas_syringae_at_6_Hours" d="M765 505c0-6 3-11 7-17l2 3c6 7 8 15 4 23-2 6-4 13-3 19v4m-1-1-1-8-1-5-4-8c-1-3-3-6-3-10m8-2-1 7 1 7"/>
      <path id="Deficient_Pseudomonas_syringae_at_6_Hours" d="M765 442c0-7 3-12 7-17l2 2c6 7 8 15 4 23-2 7-4 13-3 19v4m-1-1-1-8-1-5-4-7c-1-4-3-7-3-11m8-2-1 7 1 8"/>
      <path id="Virulent_Pseudomonas_syringae_at_6_Hours" d="M441 506c0-6 3-11 7-17l2 3c6 7 8 15 4 23-2 6-4 13-3 19v4m-1-1-1-8-1-5-4-8c-1-3-3-6-3-10m8-2-1 7 1 7"/>
      <path id="Avirulent_Pseudomonas_syringae_at_6_Hours" d="M441 443c0-7 3-12 7-17l2 2c6 7 8 15 4 23-2 7-4 13-3 19v4m-1-1-1-8-1-5-4-7c-1-4-3-7-3-11m8-2-1 7 1 8"/>
      <path id="Control_Pseudomonas_syringae_at_6_Hours" d="M441 379c0-7 3-12 7-17l2 2c6 7 8 15 4 23-2 7-4 13-3 20v3m-1-1-1-7-1-6-4-7-3-10m8-3-1 8 1 7m316-13c0-7 3-12 7-17l2 2c6 7 8 15 4 23-2 7-4 13-3 20v3m-1-1-1-7-1-6-4-7-3-10m8-3-1 8 1 7"/>
    </g>
    <g id="Infiltrating_Pseudomonas_syringae_at_2_Hours" fill="#fff" stroke="#000" stroke-linecap="round" stroke-linejoin="round" stroke-miterlimit="10" stroke-width=".5" transform="translate(-7 -12)">
      <path id="Nonhost_Pseudomonas_syringae_at_2_Hours" d="M704 506c0-6 3-11 7-17l2 3c6 7 8 15 4 23-2 6-4 13-3 19v4m-1-1-1-8-1-5-4-8c-1-3-3-6-3-10m8-2-1 7 1 7"/>
      <path id="Deficient_Pseudomonas_syringae_at_2_Hours" d="M704 443c0-7 3-12 7-17l2 2c6 7 8 15 4 23-2 7-4 13-3 19v4m-1-1-1-8-1-5-4-7c-1-4-3-7-3-11m8-2-1 7 1 8"/>
      <path id="Virulent_Pseudomonas_syringae_at_2_Hours" d="M378 506c0-6 3-11 7-17l2 3c6 7 8 15 4 23-2 6-4 13-3 19v4m-1-1-1-8-1-5-4-8c-1-3-3-6-3-10m8-2-1 7 1 7"/>
      <path id="Avirulent_Pseudomonas_syringae_at_2_Hours" d="M378 443c0-7 3-12 7-17l2 2c6 7 8 15 4 23-2 7-4 13-3 19v4m-1-1-1-8-1-5-4-7c-1-4-3-7-3-11m8-2-1 7 1 8"/>
      <path id="Control_Pseudomonas_syringae_at_2_Hours" d="M378 379c0-7 3-12 7-17l2 2c6 7 8 15 4 23-2 7-4 13-3 20v3m-1-1-1-7-1-6-4-7-3-10m8-3-1 8 1 7m318-12c0-7 3-12 7-17l2 2c6 7 8 15 4 23-2 7-4 13-3 20v3m-1-1-1-7-1-6-4-7-3-10m8-3-1 8 1 7"/>
    </g>
    <g id="infoButton_Infiltrating_Psuedomonas_syringae" transform="translate(11 -12)">
      <circle id="circle181" cx="319.2" cy="342.2" r="9.2" fill="#f77128"/>
      <text id="text183" fill="#fff" font-family="HelveticaNeue-Bold" font-size="12" transform="translate(317 347)">i</text>
    </g>
  </g>
  <g id="Half_Leaf" transform="translate(-7 -12)">
    <g id="g222">
      <text id="text192" transform="translate(31 70)"><tspan id="tspan2672" x="0" y="0"><tspan id="tspan188" x="0" y="0" font-family="HelveticaNeue" font-size="18">Half Leaf</tspan></tspan><tspan id="tspan2674" x="0" y="0"><tspan id="tspan2676" x="0" y="0" font-family="HelveticaNeue" font-size="18"> </tspan></tspan><tspan id="tspan2679" x="76.7" y="0"><tspan id="tspan2681" x="76.7" y="0" font-family="HelveticaNeue-Italic" font-size="18"> Pseudomonas syringae</tspan></tspan></text>
      <text id="text198" transform="translate(245 118)"><tspan id="tspan194" x="0" y="0" font-family="HelveticaNeue-Thin" font-size="12">Mock Treatment</tspan><tspan id="tspan196" x="-7.9" y="13" font-family="HelveticaNeue-Thin" font-size="10">(10mM MgCl2 solution)</tspan></text>
      <text id="text204" transform="translate(240 181)"><tspan id="tspan200" x="0" y="0" font-family="HelveticaNeue-Thin" font-size="12">Avirulent pathogen</tspan><tspan id="tspan202" x="9.2" y="13" font-family="HelveticaNeue-Thin" font-size="10">(ES4326 avrRpt2)</tspan></text>
      <text id="text210" transform="translate(243 245)"><tspan id="tspan206" x="0" y="0" font-family="HelveticaNeue-Thin" font-size="12">Virulent pathogen</tspan><tspan id="tspan208" x="23.8" y="13" font-family="HelveticaNeue-Thin" font-size="10">(ES4326)</tspan></text>
      <text id="text212" font-family="HelveticaNeue-Thin" font-size="10" transform="translate(370 302)">4 hours</text>
      <text id="text214" font-family="HelveticaNeue-Thin" font-size="10" transform="translate(431 302)">8 hours</text>
      <text id="text216" font-family="HelveticaNeue-Thin" font-size="10" transform="translate(489 302)">16 hours</text>
      <text id="text218" font-family="HelveticaNeue-Thin" font-size="10" transform="translate(550 303)">24 hours</text>
      <text id="text220" font-family="HelveticaNeue-Thin" font-size="10" transform="translate(611 303)">48 hours</text>
    </g>
    <g id="infoButton_Half_Leaf_Psuedomonas_syringae">
      <circle id="circle224" cx="314.2" cy="64.2" r="9.2" fill="#f9ad26"/>
      <text id="text226" fill="#fff" font-family="HelveticaNeue-Bold" font-size="12" transform="translate(312 69)">i</text>
    </g>
    <g id="g295">
      <g id="g275" fill="none" stroke="#000" stroke-miterlimit="10" stroke-width=".5">
        <path id="path229" d="M110 236v-7c-1-2 1-5 1-5"/>
        <path id="path231" d="m118 203 4-6"/>
        <path id="path233" d="m123 212-4-2"/>
        <path id="path235" d="m104 211-7 4"/>
        <path id="path237" d="M108 211c-3 0-8 5-9 5"/>
        <path id="path239" d="M101 202c-8-1-14 4-14 4"/>
        <path id="path241" d="m109 202-3-5"/>
        <path id="path243" d="M113 204v1"/>
        <path id="path245" d="M125 224c-1-3-5-6-5-6"/>
        <path id="path249" d="m117 227-1-4-2-5s0-1 0 0v-4l1-1v-1"/>
        <path id="path251" d="m110 265 1-3-1-5c0-2 2-5 3-5v-6l1-4v-1l1-7-1-4c-1-1-2 0-2-4v-7l1-7"/>
        <path id="path253" d="m120 271-1-3h-1v-4c0-2-1-3-2-3v2c0 1-1 4 1 9l1 2 1 7-1-1-1-6v-2l-2-7c0-4 0-6-2-10v-3"/>
        <path id="path255" d="M121 251c0-3-1-4-2-5v-4c0-3-2-4-2-4l-1 3-1 5v5l-1 1 1 4 1 2v1l1 2"/>
        <path id="path257" d="m114 218-1 4 1 4 1 2 2 4v6"/>
        <path id="path259" d="m136 200-6 1h1l-7 1"/>
        <path id="path261" d="m138 203-7-2"/>
        <path id="path263" d="M112 210h1l1-2-1-1-1-4"/>
        <path id="path265" d="M114 208v2"/>
        <path id="path267" d="m127 203 14 6c-8-8-15-6-15-6z"/>
        <path id="line269" d="m115 207-1 1"/>
      </g>
      <path id="path277" fill="none" stroke="#000" stroke-miterlimit="10" stroke-width=".5" d="m81 210 2-4 7-7c2-2 4-3 9-2l3 3 3 3 7 4-6-5c-2-1-3-2-3-6l1-4 6 6 1 3 1 2v-2l2 2 1 3-1 2 3-5 1-6 4-3c1 0 3-1 3 2l-2 5-4 4-1 1 6-4s4-5 9-5l9 2-2 2-2 2 5 4c1 1 4 4 6 4 0 1-6 3-9 2l-8-5c-2-1-4-3-8-3-3 1-7 2-8 4h-1c1 0 9-1 10 1l2 4s-4 3-8 0c-1-2-2-4-4-4l6 6c2 1 8 2 9 6l1 6c-1 1-5 4-11-4l-3-8-2-4h-2c-1 0-4 0-5 2l-8 6c-2 1-4 3-8-1v-6c2-1 4-5 7-4l13 2c-1-1-4-6-12-6l-6 2c-2 1-6 4-10 3h-3z"/>
      <g id="g293">
        <path id="path279" d="m139 188-2-1-3 1-5 5h-1v-1l6-6v-1c-1-2 0-4 2-6l8-8v-2h1l7 7v1h-2l-10 10-1 1z"/>
        <path id="path281" fill="#030303" d="m156 171-1 1h-2l-1 1-1 1v-1l2-2-1-2-2-1-1 2h-1v-1l1-1v-2h1c0-1 0 0 0 0l3 3 2 2h1z"/>
        <path id="path283" fill="#fff" d="m144 176-1 1-2-2h1l2 1z"/>
        <path id="path285" fill="#fff" d="m138 178 2 2h-1l-1-1v-1z"/>
        <path id="path287" fill="#fff" d="m137 180 1 2v1l-2-2 1-1z"/>
        <path id="path289" fill="#fff" d="M142 178v1l-2-2h1l1 1z"/>
        <path id="path291" fill="#fff" d="m144 173 2 2h-1l-1-1v-1z"/>
      </g>
    </g>
    <g id="g338">
      <g id="g299">
        <path id="path297" fill="none" stroke="#555" stroke-miterlimit="10" stroke-width="10" d="M127 135a16 16 0 0 1-24 14"/>
      </g>
      <g id="lightCycle">
        <path id="path301" fill="none" stroke="#fff69f" stroke-miterlimit="10" stroke-width="10" d="M103 149a16 16 0 0 1 8-30c9 0 16 7 16 16"/>
      </g>
      <g id="g336">
        <text id="text308" transform="translate(90 97)"><tspan id="tspan304" x="0" y="0" font-family="HelveticaNeue-Thin" font-size="8">24 &amp; 48 hour</tspan><tspan id="tspan306" x="8.5" y="9" font-family="HelveticaNeue-Thin" font-size="8">injection</tspan></text>
        <path id="line310" fill="none" stroke="#000" stroke-miterlimit="10" d="M111 112v10"/>
        <text id="text316" transform="translate(135 148)"><tspan id="tspan312" x="0" y="0" font-family="HelveticaNeue-Thin" font-size="8">16 hour</tspan><tspan id="tspan314" x="-.5" y="9" font-family="HelveticaNeue-Thin" font-size="8">injection</tspan></text>
        <path id="line318" fill="none" stroke="#000" stroke-miterlimit="10" d="m121 140 8 4"/>
        <text id="text324" transform="translate(64 146)"><tspan id="tspan320" x="0" y="0" font-family="HelveticaNeue-Thin" font-size="8">8 hour</tspan><tspan id="tspan322" x="-2.8" y="9" font-family="HelveticaNeue-Thin" font-size="8">injection</tspan></text>
        <path id="line326" fill="none" stroke="#000" stroke-miterlimit="10" d="m100 139-9 4"/>
        <text id="text332" x="56.5" y="116.9"><tspan id="tspan328" x="56.5" y="116.9" font-family="HelveticaNeue-Thin" font-size="8">4 hour</tspan><tspan id="tspan330" x="53.7" y="125.9" font-family="HelveticaNeue-Thin" font-size="8">injection</tspan></text>
        <path id="line334" fill="none" stroke="#000" stroke-miterlimit="10" d="m100 130-8-5"/>
      </g>
    </g>
    <g id="Half_Leaf_Pseudomonas_syringae_at_48_Hours">
      <path id="Virulent_Half_Leaf_Pseudomonas_syringae_at_48_Hours" fill="#fff" d="m630 224-7 14a18 18 0 0 0 2 11l5 10 2 8v5z"/>
      <path id="Virulent_Half_Leaf_Pseudomonas_syringae_at_48_Hours_outline" fill="none" stroke="#000" stroke-linecap="round" stroke-linejoin="round" stroke-miterlimit="10" stroke-width=".5" d="M623 241c0-6 3-11 7-17l2 3c6 7 8 15 4 23-2 6-4 13-3 19v4m-1-1-1-8-1-5-4-7c-1-4-3-7-3-11m8-2-1 7 1 8"/>
      <path id="Avirulent_Half_Leaf_Pseudomonas_syringae_at_48_Hours" fill="#fff200" d="M630 160c-1 3-5 9-6 14a18 18 0 0 0 1 12l5 10 2 7v5h1z"/>
      <path id="Avirulent_Half_Leaf_Pseudomonas_syringae_at_48_Hours_outline" fill="none" stroke="#000" stroke-linecap="round" stroke-linejoin="round" stroke-miterlimit="10" stroke-width=".5" d="M623 178c0-7 3-12 7-17l2 2c6 7 8 15 4 23-2 7-4 13-3 19v4m-1-1-1-7-1-6-4-7-3-10m8-3-1 7 1 8"/>
      <path id="Control_Half_Leaf_Pseudomonas_syringae_at_48_Hours" fill="#fff" d="M630 96c-1 3-5 9-6 14a18 18 0 0 0 1 12l5 10 2 7v5h1z"/>
      <path id="Control_Half_Leaf_Pseudomonas_syringae_at_48_Hours_outline" fill="none" stroke="#000" stroke-linecap="round" stroke-linejoin="round" stroke-miterlimit="10" stroke-width=".5" d="M623 114c0-7 3-12 7-17l2 2c6 7 8 15 4 23-2 7-4 13-3 19v4m-1-1-1-7-1-6-4-7-3-10m8-3-1 8 1 7"/>
    </g>
    <g id="Half_Leaf_Pseudomonas_syringae_at_24_Hours">
      <path id="Virulent_Half_Leaf_Pseudomonas_syringae_at_24_Hours" fill="#fff200" d="m570 224-7 14a18 18 0 0 0 2 11l5 10 2 8v5z"/>
      <path id="Virulent_Half_Leaf_Pseudomonas_syringae_at_24_Hours_outline" fill="none" stroke="#000" stroke-linecap="round" stroke-linejoin="round" stroke-miterlimit="10" stroke-width=".5" d="M563 241c0-6 3-11 7-17l2 3c6 7 8 15 4 23-2 6-4 13-3 19v4m-1-1-1-8-1-5-4-7c-1-4-3-7-3-11m8-2-1 7 1 8"/>
      <path id="Avirulent_Half_Leaf_Pseudomonas_syringae_at_24_Hours" fill="#fff" d="M570 160c-1 3-5 9-6 14a18 18 0 0 0 1 12l5 10 2 7v5h1z"/>
      <path id="Avirulent_Half_Leaf_Pseudomonas_syringae_at_24_Hours_outline" fill="none" stroke="#000" stroke-linecap="round" stroke-linejoin="round" stroke-miterlimit="10" stroke-width=".5" d="M563 178c0-7 3-12 7-17l2 2c6 7 8 15 4 23-2 7-4 13-3 19v4m-1-1-1-7-1-6-4-7-3-10m8-3-1 7 1 8"/>
      <path id="Control_Half_Leaf_Pseudomonas_syringae_at_24_Hours" fill="#fff" d="M570 96c-1 3-5 9-6 14a18 18 0 0 0 1 12l5 10 2 7v5h1z"/>
      <path id="Control_Half_Leaf_Pseudomonas_syringae_at_24_Hours_outline" fill="none" stroke="#000" stroke-linecap="round" stroke-linejoin="round" stroke-miterlimit="10" stroke-width=".5" d="M563 114c0-7 3-12 7-17l2 2c6 7 8 15 4 23-2 7-4 13-3 19v4m-1-1-1-7-1-6-4-7-3-10m8-3-1 8 1 7"/>
    </g>
    <g id="Half_Leaf_Pseudomonas_syringae_at_16_Hours">
      <path id="Virulent_Half_Leaf_Pseudomonas_syringae_at_16_Hours" fill="#fff200" d="M509 223c-1 3-5 9-6 14a18 18 0 0 0 1 11l5 10 2 8v5z"/>
      <path id="Virulent_Half_Leaf_Pseudomonas_syringae_at_16_Hours_outline" fill="none" stroke="#000" stroke-linecap="round" stroke-linejoin="round" stroke-miterlimit="10" stroke-width=".5" d="M502 240c0-6 3-11 7-17l2 3c6 7 8 15 4 23-2 6-4 13-3 19v4m-1-1-1-8-1-5-4-7c-1-4-3-7-3-11m8-2v15"/>
      <path id="Avirulent_Half_Leaf_Pseudomonas_syringae_at_16_Hours" fill="#fff" d="M509 159c-1 3-5 9-6 14a18 18 0 0 0 1 12l5 10 2 7v5h1z"/>
      <path id="Avirulent_Half_Leaf_Pseudomonas_syringae_at_16_Hours_outline" fill="none" stroke="#000" stroke-linecap="round" stroke-linejoin="round" stroke-miterlimit="10" stroke-width=".5" d="M502 177c0-7 3-12 7-17l2 2c6 7 8 15 4 23-2 7-4 13-3 19v4m-1-1-1-7-1-6-4-7-3-10m8-3v15"/>
      <path id="Control_Half_Leaf_Pseudomonas_syringae_at_16_Hours" fill="#fff" d="M509 95c-1 3-5 9-6 14a18 18 0 0 0 1 12l5 10 2 7v5h1z"/>
      <path id="Control_Half_Leaf_Pseudomonas_syringae_at_16_Hours_outline" fill="none" stroke="#000" stroke-linecap="round" stroke-linejoin="round" stroke-miterlimit="10" stroke-width=".5" d="M502 113c0-7 3-12 7-17l2 2c6 7 8 15 4 23-2 7-4 13-3 19v4m-1-1-1-7-1-6-4-7-3-10m8-3v15"/>
    </g>
    <g id="Half_Leaf_Pseudomonas_syringae_at_8_Hours">
      <path id="Virulent_Half_Leaf_Pseudomonas_syringae_at_8_Hours" fill="#fff" d="M448 225c-1 3-5 9-6 14a18 18 0 0 0 1 11l5 10 2 8v5z"/>
      <path id="Virulent_Half_Leaf_Pseudomonas_syringae_at_8_Hours_outline" fill="none" stroke="#000" stroke-linecap="round" stroke-linejoin="round" stroke-miterlimit="10" stroke-width=".5" d="M441 242c0-6 3-11 7-17l2 3c6 7 8 15 4 23-2 6-4 13-3 19v4m-1-1-1-8-1-5-4-7c-1-4-3-7-3-11m8-2-1 7 1 8"/>
      <path id="Avirulent_Half_Leaf_Pseudomonas_syringae_at_8_Hours" fill="#fff" d="M448 161c-1 3-5 9-6 14a18 18 0 0 0 1 12l5 10 2 7v5h1z"/>
      <path id="Avirulent_Half_Leaf_Pseudomonas_syringae_at_8_Hours_outline" fill="none" stroke="#000" stroke-linecap="round" stroke-linejoin="round" stroke-miterlimit="10" stroke-width=".5" d="M441 179c0-7 3-12 7-17l2 2c6 7 8 15 4 23-2 7-4 13-3 19v4m-1-1-1-7-1-6-4-7-3-10m8-3-1 7 1 8"/>
      <path id="Control_Half_Leaf_Pseudomonas_syringae_at_8_Hours" fill="#fff" d="M448 97c-1 3-5 9-6 14a18 18 0 0 0 1 12l5 10 2 7v5h1z"/>
      <path id="Control_Half_Leaf_Pseudomonas_syringae_at_8_Hours_outline" fill="none" stroke="#000" stroke-linecap="round" stroke-linejoin="round" stroke-miterlimit="10" stroke-width=".5" d="M441 115c0-7 3-12 7-17l2 2c6 7 8 15 4 23-2 7-4 13-3 19v4m-1-1-1-7-1-6-4-7-3-10m8-3-1 8 1 7"/>
    </g>
    <g id="Half_Leaf_Pseudomonas_syringae_at_4_Hours">
      <path id="Virulent_Half_Leaf_Pseudomonas_syringae_at_4_Hours" fill="#fff" d="M385 223c-1 3-5 9-6 14a18 18 0 0 0 1 11l5 10 2 8v5z"/>
      <path id="Virulent_Half_Leaf_Pseudomonas_syringae_at_4_Hours_outline" fill="none" stroke="#000" stroke-linecap="round" stroke-linejoin="round" stroke-miterlimit="10" stroke-width=".5" d="M378 240c0-6 3-11 7-17l2 3c6 7 8 15 4 23-2 6-4 13-3 19v4m-1-1-1-8-1-5-4-7c-1-4-3-7-3-11m8-2-1 7 1 8"/>
      <path id="Avirulent_Half_Leaf_Pseudomonas_syringae_at_4_Hours" fill="#fff" d="M385 159c-1 3-5 9-6 14a18 18 0 0 0 1 12l5 10 2 7v5h1z"/>
      <path id="Avirulent_Half_Leaf_Pseudomonas_syringae_at_4_Hours_outline" fill="none" stroke="#000" stroke-linecap="round" stroke-linejoin="round" stroke-miterlimit="10" stroke-width=".5" d="M378 177c0-7 3-12 7-17l2 2c6 7 8 15 4 23-2 7-4 13-3 19v4m-1-1-1-7-1-6-4-7-3-10m8-3-1 7 1 8"/>
      <path id="Control_Half_Leaf_Pseudomonas_syringae_at_4_Hours" fill="#fff" d="M385 95c-1 3-5 9-6 14a18 18 0 0 0 1 12l5 10 2 7v5h1z"/>
      <path id="Control_Half_Leaf_Pseudomonas_syringae_at_4_Hours_outline" fill="none" stroke="#000" stroke-linecap="round" stroke-linejoin="round" stroke-miterlimit="10" stroke-width=".5" d="M378 113c0-7 3-12 7-17l2 2c6 7 8 15 4 23-2 7-4 13-3 19v4m-1-1-1-7-1-6-4-7-3-10m8-3-1 8 1 7"/>
    </g>
  </g>
</svg>