<svg xmlns="http://www.w3.org/2000/svg" xml:space="preserve" id="BioticStressPseudomonassyringae_svg" x="0" y="0" version="1.1" viewBox="20 40 832.185 518.523" author="Provart Lab - Bio Analytic Resource, University of Toronto">>
  <g id="Infiltrating">
    <g id="Labels" transform="translate(-7.111 -12.433)">
      <text id="text6" transform="translate(31.231 348.248)"><tspan id="tspan3441" x="0" y="0"><tspan id="tspan2" x="0" y="0" font-family="HelveticaNeue" font-size="18">Infiltrating    </tspan></tspan><tspan id="tspan3443" x="84.3" y="0"><tspan id="tspan3445" x="84.3" y="0" font-family="HelveticaNeue-Italic" font-size="18">   Pseudomonas syringae</tspan></tspan></text>
      <text id="text12" transform="translate(245.313 383.666)"><tspan id="tspan8" x="0" y="0" font-family="HelveticaNeue-Thin" font-size="12">Mock Treatment</tspan><tspan id="tspan10" x="-7.9" y="13" font-family="HelveticaNeue-Thin" font-size="10">(10mM MgCl2 solution)</tspan></text>
      <text id="text20" transform="translate(239.871 437.166)"><tspan id="tspan14" x="0" y="0" font-family="HelveticaNeue-Thin" font-size="12">Avirulent pathogen</tspan><tspan id="tspan16" x="12" y="13" font-family="HelveticaNeue-Thin" font-size="10">(10e8 cfu/ml pv. </tspan><tspan id="tspan18" x="10.3" y="26" font-family="HelveticaNeue-Thin" font-size="10">tomato avrRpm1)</tspan></text>
      <text id="text28" transform="translate(242.767 500.666)"><tspan id="tspan22" x="0" y="0" font-family="HelveticaNeue-Thin" font-size="12">Virulent pathogen</tspan><tspan id="tspan24" x="9.1" y="13" font-family="HelveticaNeue-Thin" font-size="10">(10e8 cfu/ml pv. </tspan><tspan id="tspan26" x="8.2" y="26" font-family="HelveticaNeue-Thin" font-size="10">tomato DC3000)</tspan></text>
      <text id="text30" font-family="HelveticaNeue-Thin" font-size="10" transform="translate(369.884 567.667)">2 hours</text>
      <text id="text32" font-family="HelveticaNeue-Thin" font-size="10" transform="translate(430.968 567.667)">6 hours</text>
      <text id="text34" font-family="HelveticaNeue-Thin" font-size="10" transform="translate(489.27 567.667)">24 hours</text>
      <text id="text40" transform="translate(572.313 383.666)"><tspan id="tspan36" x="0" y="0" font-family="HelveticaNeue-Thin" font-size="12">Mock Treatment</tspan><tspan id="tspan38" x="-7.9" y="13" font-family="HelveticaNeue-Thin" font-size="10">(10mM MgCl2 solution)</tspan></text>
      <text id="text50" transform="translate(570.261 437.166)"><tspan id="tspan42" x="0" y="0" font-family="HelveticaNeue-Thin" font-size="12">Type III-Secretion </tspan><tspan id="tspan44" x=".8" y="13" font-family="HelveticaNeue-Thin" font-size="12">System Deficient </tspan><tspan id="tspan46" x="8.6" y="26" font-family="HelveticaNeue-Thin" font-size="10">(10e8 cfu/ml pv. </tspan><tspan id="tspan48" x="-5.5" y="39" font-family="HelveticaNeue-Thin" font-size="10">tomato DC3000 hrcC-)</tspan></text>
      <text id="text58" transform="translate(569.94 500.666)"><tspan id="tspan52" x="0" y="0" font-family="HelveticaNeue-Thin" font-size="12">Nonhost Bacteria</tspan><tspan id="tspan54" x="8.9" y="13" font-family="HelveticaNeue-Thin" font-size="10">(10e8 cfu/ml pv. </tspan><tspan id="tspan56" x="16" y="26" font-family="HelveticaNeue-Thin" font-size="10">phaseolicola)</tspan></text>
      <text id="text60" font-family="HelveticaNeue-Thin" font-size="10" transform="translate(696.884 567.667)">2 hours</text>
      <text id="text62" font-family="HelveticaNeue-Thin" font-size="10" transform="translate(757.968 567.667)">6 hours</text>
      <text id="text64" font-family="HelveticaNeue-Thin" font-size="10" transform="translate(816.27 567.667)">24 hours</text>
    </g>
    <g id="treatmentInfographic" transform="translate(-7.111 -12.433)">
      <g id="root" fill="none" stroke="#000" stroke-miterlimit="10" stroke-width=".5">
        <path id="path67" d="M110.4 506.5c.8-2.1 0-4.2-.7-5.9-.1-.2-.2-.4-.2-.6-1-2.9 1.6-5.7 1.6-5.7"/>
        <path id="path69" d="M118.3 473.4s2.3-4.1 4.1-5.9"/>
        <path id="path71" d="M123.1 482.9c-.7-1.9-3.9-2.2-4-2.2"/>
        <path id="path73" d="M103.7 481.6c-2.2.7-6.8 3.6-7 3.7"/>
        <path id="path75" d="M107.8 481.7c-3.1-.4-8.2 5.1-8.5 5.3"/>
        <path id="path77" d="M100.9 472.6c-8.2-.9-13.7 3.5-13.8 3.6"/>
        <path id="path79" d="M109.1 472.4c-1.2-1.1-2.6-4.6-2.6-4.6"/>
        <path id="path81" d="M113.1 474.6s.3.9.4 1.4"/>
        <path id="path83" d="M125 494.8c-1.4-3.1-4.8-6.6-4.9-6.6"/>
        <path id="path85" d="M111.8 473.2c-.1 0-.1 0 0 0"/>
        <path id="path87" d="M117.4 497.1c-.3-.3-1.9-1.6-1.9-3.2-.1-1.5-.5-3.4-1.3-5.4-.1-.4-.5-.6-.4-.4.4-.9.6-2.6.6-3.2v-.6c0-.5.1-.8.2-1.2.1-.3.1-.6.2-.9"/>
        <path id="path89" d="M110.1 535.2c-.1-.9.2-1.6.7-2.6.2-1-.1-3.2-.5-4.8-.6-2.6 2.2-5.3 2.3-5.4l.1.1c.1-.9.3-1.9.6-2.8.1-.7.1-1.7.1-2.7 0-1.6-.1-3.3.4-4.2.1-.2.2-.5.3-.8.7-1.9 1.4-3.8 1.1-7.8-1.5-3.6-1.1-2.5-1.6-3.3-.5-.8-1.3-.4-2-4.2-.8-3.7 0-5.2 0-7 0-1.8.9-6.2 1.2-7.5"/>
        <path id="path91" d="M119.5 541.2c-.8-.5-.9-1.7-1-2.5 0-.3 0-.5-.1-.6-1.1-1.1-.9-2.3-.6-3.8 0-1.4-1.1-2.3-1.5-2.6.1.6.1 1.2.1 1.5-.3 1.5-1 4.8.4 9.6.2.5.5 1 .8 1.5.6 4.2.9 7.7.9 7.7l-.1-1.6s-.5-1.8-1.1-6c-.2-.5-.4-.9-.6-1.3 0-.1 0-.1-.1-.2-1.1-2.2-2.1-4.1-1.9-7.4v-.2c.2-4.1.2-5.4-1.7-9.3-.3-.9-.3-2.6-.3-3.7"/>
        <path id="path93" d="M120.5 521.8c.3-3.2-.5-4.2-1.1-5l-.1-.1c-.8-1-.8-2.2-.7-4.7 0-2.6-1.4-3.6-1.9-3.9 0 1.1-.1 2.2-.3 2.9l-.1.2c-.8 1.9-1.3 3-1.1 5.3.1 1.7-.3 3.7-.6 4.9-.1.5-.2.9-.2 1.1-.2 1.1.3 2.9.8 3.5.4.7.6 1.7.8 2.4.1.3.1.6.2.8v.3c.1.5.2 1.1.3 1.7l.1.4"/>
        <path id="path95" d="M113.8 488.1c-.4 2-.3 2-.3 4s-.3 3.1 0 4.1c.3 1 .8 1.8 1.2 2.3.9 1.3 1.8 2.5 1.9 4.3v5.2"/>
        <path id="path97" d="M136.4 470.3c-3-.3-6 1.2-6.1 1.3h.8c-2 0-4.5.3-6.9 1.1"/>
        <path id="path99" d="M137.9 473.2c-1.8-.9-4.1-1.6-6.8-1.7"/>
        <path id="path101" d="M112.2 480.8c.2-.1 1-.1 1.2-.4.3-.4.4-1.1.2-1.8-.1-.2-.3-.4-.4-.7-.6-.9-1.5-2.3-1.3-4.5"/>
        <path id="path103" d="M114.3 478.5c-.2 1-.1 1.8-.1 1.8"/>
        <path id="path105" d="m126.5 473.9 14.7 5.1c-8.6-7.4-14.7-5.1-14.7-5.1z"/>
        <path id="line107" d="m114.6 477.9-.2.4"/>
        <path id="line109" d="M114.4 478.6v-.3"/>
        <path id="line111" d="M113.6 472.8v.2"/>
      </g>
      <path id="rosette" fill="none" stroke="#000" stroke-miterlimit="10" stroke-width=".5" d="M80.8 480.6s-.8-.5 2.1-4.2c2.4-2.9 5.3-6.2 7.3-7.3 2.1-1.3 4.1-2.8 8.5-1.1 1.4.8 2.3 1.4 3.7 2.8.7 1.1 2.7 2 2.9 2.3 1 .5 5.5 3.7 6.7 4.2-1.2-1.1-5.1-4.5-6.4-5.1-1.4-.6-2.6-1.7-2.2-5.9.4-2.4.9-3.8.9-3.8 1 .8 5 4.5 5.7 5.8.6 1 .2 1.7.6 2.8.3 1 .9 2.1 1.3 2.3.1-.7.3-1.8.3-1.8.3.5 1.6 1.5 1.6 1.5.2.5 1 2.6.9 3.1-.1.8-.3 2-.3 2 .6-.8 2-2 2.6-4.7.2-1.5.1-4.5 1.1-5.8.9-1.3 1.6-2.6 3.7-3.1 1.1-.3 2.9-.8 3.5 1.9.1.9-.1 2.1-2.2 4.5-1.4 1.3-4.5 4-4.5 4.1-.7.8-1 1.2-1 1.2 1.4-1 5.7-3.3 6.3-3.5.6-.8 4.5-5 9.5-5.6 2.2-.2 7.4 1.2 8.9 1.9-.8.4-2.2 1.2-2.4 1.9-.3.8-1 2.3-1.9 2.3.9.6 4 2.6 5.2 4.3 1 1.1 4.1 3.4 6.1 3.9-.3.5-6.5 2.9-9.6 1.9-3.1-1-4.8-2.9-7.7-5.2-1.7-1.2-4.4-3-8.4-2.3-2.2.5-6.2 1.8-8 3.2l-.3.4c1 0 8.3-.7 9.7 1.1 1.2 1.6 2.5 3.4 2.5 3.4-.7.6-4.4 3.6-8.2 0-1.5-1.7-2.7-3.3-4-3.2.6.8 3.6 4.8 5.6 5.9 2.2.6 8.1 1.4 9.5 6.1.8 2.6 1 5.7 1 5.7-1.3.6-5.5 3.5-11.3-3.8-1.3-2.6-1.6-2.8-2.7-8.3-.8-1.5-1.5-3-2.8-4-1.3-.1-1.9-.1-2 0-1 .1-3.8.3-4.9 2.1-1.3 1.7-3.3 4.1-7.7 6.4-2.2 1-4.4 2.1-7.7-1.9-.8-1.3-1.2-3.9.1-5.4 1.4-1.6 3.9-4.7 6.4-4.6 1.7.1 8.4 1.3 13.3 2.2-.6-.8-4.3-5.7-12-5.8-1.5.1-3.4.4-5.7 1.9-2.6 1.6-5.9 4.5-10 3.2-1-.4-2.5-.5-3.6.1z"/>
      <g id="syringe">
        <path id="path115" d="M139.2 457.6c-.8-.2-1.7-.3-2.5-.6-1-.4-1.7-.1-2.4.7-.8.9-4.2 4.2-5.1 5.1-.3.3-.6.6-1 .2-.4-.4 0-.7.2-1l5.5-5.5c.5-.4.6-.8.4-1.4v-.1c-1.2-2.4-.3-4 1.6-5.7 2.9-2.6 5.5-5.5 8.3-8.2.4-.4.7-.7.1-1.1-.3-.2-.5-.6-.1-.9.3-.3.6 0 .9.2l6.9 6.9c.3.3.5.6.2.9-.3.3-.7.2-.9-.1-.5-.6-.8-.3-1.1.1-3.3 3.3-6.6 6.7-10 10-.2.2-.4.6-1 .5z"/>
        <path id="path117" fill="#030303" d="M155.5 441.4c0 .3-.1.5-.3.6-.3.2-.5 0-.7-.2-.5-.7-.8-.4-1.2.1-.4.5-.9.9-1.4 1.4-.2.2-.5.6-.9.2-.4-.4-.1-.7.2-1 .5-.5 1.3-1 1.6-1.7.6-1.1-.7-1.3-1.2-1.9-.2-.3-.4-1.2-1.2-.5l-1.6 1.6c-.3.3-.6.6-1 .2-.4-.4 0-.6.2-.9.3-.4.7-.7 1.1-1.1.5-.5 1.3-1 .3-1.8-.3-.2-.1-.5.1-.7.3-.2.6 0 .8.2 1 .9 1.9 1.9 2.9 2.9l2 2c.2.3.3.5.3.6z"/>
        <path id="path119" fill="#fff" d="M143.5 446.2c0 .3-.2.5-.5.5s-1.6-1.2-1.6-1.6c0-.3.2-.5.5-.5.4 0 1.7 1.3 1.6 1.6z"/>
        <path id="path121" fill="#fff" d="M138.3 448.3c.3 0 1.6 1.2 1.6 1.6 0 .3-.2.6-.5.5-.7-.3-1.2-.8-1.5-1.5-.1-.3.1-.5.4-.6z"/>
        <path id="path123" fill="#fff" d="M136.8 450.4c.3 0 1.6 1.3 1.6 1.6 0 .3-.2.5-.5.5s-1.5-1.3-1.5-1.6c-.1-.3.1-.5.4-.5z"/>
        <path id="path125" fill="#fff" d="M142 448.3c0 .3-.2.6-.5.4-.7-.3-1.2-.8-1.5-1.5-.1-.2.2-.5.5-.5s1.5 1.3 1.5 1.6z"/>
        <path id="path127" fill="#fff" d="M144.1 443.1c.3 0 1.5 1.2 1.5 1.6 0 .3-.3.5-.5.4-.7-.3-1.2-.8-1.5-1.5-.1-.2.2-.4.5-.5z"/>
      </g>
    </g>
    <g id="TimeSampleChart" transform="translate(-7.111 -12.433)">
      <g id="ligtCycle">
        <path id="path131" fill="none" stroke="#fff69f" stroke-miterlimit="10" stroke-width="10" d="M99.4 402.2c6.2-6.5 16.5-6.7 23-.5 2.2 2.1 3.7 4.7 4.4 7.5"/>
      </g>
      <g id="darkCycle">
        <path id="path134" fill="none" stroke="#555" stroke-miterlimit="10" stroke-width="10" d="M126.8 409.2c1.4 5.3.1 11.2-4 15.5-6.2 6.5-16.5 6.7-23 .5s-6.7-16.5-.5-23"/>
      </g>
      <g id="labels">
        <path id="line137" fill="none" stroke="#000" stroke-miterlimit="10" d="M110.9 391.6v9.3"/>
        <text id="text143" transform="translate(138.991 413.475)"><tspan id="tspan139" x="0" y="0" font-family="HelveticaNeue-Thin" font-size="8">6 hour</tspan><tspan id="tspan141" x="-1.3" y="9" font-family="HelveticaNeue-Thin" font-size="8">sample</tspan></text>
        <path id="line145" fill="none" stroke="#000" stroke-miterlimit="10" d="m123.8 414 9.5-.2"/>
        <text id="text151" transform="translate(129.293 388.615)"><tspan id="tspan147" x="0" y="0" font-family="HelveticaNeue-Thin" font-size="8">2 hour</tspan><tspan id="tspan149" x="-1.3" y="9" font-family="HelveticaNeue-Thin" font-size="8">sample</tspan></text>
        <path id="line153" fill="none" stroke="#000" stroke-miterlimit="10" d="m117.7 403.1 6.4-6.9"/>
        <text id="text159" transform="translate(99.283 375.94)"><tspan id="tspan155" x="0" y="0" font-family="HelveticaNeue-Thin" font-size="8">24 hour</tspan><tspan id="tspan157" x=".9" y="9" font-family="HelveticaNeue-Thin" font-size="8">sample</tspan></text>
      </g>
    </g>
    <g id="Infiltrating_Pseudomonas_syringae_at_24_Hours" fill="#fff" stroke="#000" stroke-linecap="round" stroke-linejoin="round" stroke-miterlimit="10" stroke-width=".5" transform="translate(-7.111 -12.433)">
      <path id="Nonhost_Pseudomonas_syringae_at_24_Hours" d="M827.3 505.3c-.1-6.3 3-11.8 6.5-16.9.9 1.1 1.4 1.8 2 2.4 6.4 6.8 8 14.8 4.4 23.3-2.6 6.2-3.8 12.5-3.3 19.1.1 1.1 0 2.3 0 3.4m-1-.6c-.2-2.6-.2-5.1-.6-7.7-.3-1.9-.9-3.9-1.7-5.7-1-2.4-2.6-4.7-3.3-7.1-.9-3.2-3.3-6.6-2.9-10.2m7.9-2.3c-.3 2.4-.7 4.7-.8 7.1-.1 2.5.1 4.9.3 7.4"/>
      <path id="Deficient_Pseudomonas_syringae_at_24_Hours" d="M827.3 441.5c-.1-6.3 3-11.8 6.5-16.9.9 1.1 1.4 1.8 2 2.4 6.4 6.8 8 14.8 4.4 23.3-2.6 6.2-3.8 12.5-3.3 19.1.1 1.1 0 2.3 0 3.4m-1-.6c-.2-2.6-.2-5.1-.6-7.7-.3-1.9-.9-3.9-1.7-5.7-1-2.4-2.6-4.7-3.3-7.1-.9-3.2-3.3-6.6-2.9-10.2m7.9-2.3c-.3 2.4-.7 4.7-.8 7.1-.1 2.5.1 4.9.3 7.4"/>
      <path id="Virulent_Pseudomonas_syringae_at_24_Hours" d="M502.3 507.3c-.1-6.3 3-11.8 6.5-16.9.9 1.1 1.4 1.8 2 2.4 6.4 6.8 8 14.8 4.4 23.3-2.6 6.2-3.8 12.5-3.3 19.1.1 1.1 0 2.3 0 3.4m-1-.6c-.2-2.6-.2-5.1-.6-7.7-.3-1.9-.9-3.9-1.7-5.7-1-2.4-2.6-4.7-3.3-7.1-.9-3.2-3.3-6.6-2.9-10.2m7.9-2.3c-.3 2.4-.7 4.7-.8 7.1-.1 2.5.1 4.9.3 7.4"/>
      <path id="Avirulent_Pseudomonas_syringae_at_24_Hours" d="M502.3 443.5c-.1-6.3 3-11.8 6.5-16.9.9 1.1 1.4 1.8 2 2.4 6.4 6.8 8 14.8 4.4 23.3-2.6 6.2-3.8 12.5-3.3 19.1.1 1.1 0 2.3 0 3.4m-1-.6c-.2-2.6-.2-5.1-.6-7.7-.3-1.9-.9-3.9-1.7-5.7-1-2.4-2.6-4.7-3.3-7.1-.9-3.2-3.3-6.6-2.9-10.2m7.9-2.3c-.3 2.4-.7 4.7-.8 7.1-.1 2.5.1 4.9.3 7.4"/>
      <path id="Control_Pseudomonas_syringae_at_24_Hours" d="M502.3 379.6c-.1-6.3 3-11.8 6.5-16.9.9 1.1 1.4 1.8 2 2.4 6.4 6.8 8 14.8 4.4 23.3-2.6 6.2-3.8 12.5-3.3 19.1.1 1.1 0 2.3 0 3.4m-1-.6c-.2-2.6-.2-5.1-.6-7.7-.3-1.9-.9-3.9-1.7-5.7-1-2.4-2.6-4.7-3.3-7.1-.9-3.2-3.3-6.6-2.9-10.2m7.9-2.2c-.3 2.4-.7 4.7-.8 7.1-.1 2.5.1 4.9.3 7.4m317.5-14.3c-.1-6.3 3-11.8 6.5-16.9.9 1.1 1.4 1.8 2 2.4 6.4 6.8 8 14.8 4.4 23.3-2.6 6.2-3.8 12.5-3.3 19.1.1 1.1 0 2.3 0 3.4m-1-.6c-.2-2.6-.2-5.1-.6-7.7-.3-1.9-.9-3.9-1.7-5.7-1-2.4-2.6-4.7-3.3-7.1-.9-3.2-3.3-6.6-2.9-10.2m7.9-2.2c-.3 2.4-.7 4.7-.8 7.1-.1 2.5.1 4.9.3 7.4"/>
    </g>
    <g id="Infiltrating_Pseudomonas_syringae_at_6_Hours" fill="#fff" stroke="#000" stroke-linecap="round" stroke-linejoin="round" stroke-miterlimit="10" stroke-width=".5" transform="translate(-7.111 -12.433)">
      <path id="Nonhost_Pseudomonas_syringae_at_6_Hours" d="M765.3 505.3c-.1-6.3 3-11.8 6.5-16.9.9 1.1 1.4 1.8 2 2.4 6.4 6.8 8 14.8 4.4 23.3-2.6 6.2-3.8 12.5-3.3 19.1.1 1.1 0 2.3 0 3.4m-1-.6c-.2-2.6-.2-5.1-.6-7.7-.3-1.9-.9-3.9-1.7-5.7-1-2.4-2.6-4.7-3.3-7.1-.9-3.2-3.3-6.6-2.9-10.2m7.9-2.3c-.3 2.4-.7 4.7-.8 7.1-.1 2.5.1 4.9.3 7.4"/>
      <path id="Deficient_Pseudomonas_syringae_at_6_Hours" d="M765.3 441.5c-.1-6.3 3-11.8 6.5-16.9.9 1.1 1.4 1.8 2 2.4 6.4 6.8 8 14.8 4.4 23.3-2.6 6.2-3.8 12.5-3.3 19.1.1 1.1 0 2.3 0 3.4m-1-.6c-.2-2.6-.2-5.1-.6-7.7-.3-1.9-.9-3.9-1.7-5.7-1-2.4-2.6-4.7-3.3-7.1-.9-3.2-3.3-6.6-2.9-10.2m7.9-2.3c-.3 2.4-.7 4.7-.8 7.1-.1 2.5.1 4.9.3 7.4"/>
      <path id="Virulent_Pseudomonas_syringae_at_6_Hours" d="M441.3 506.3c-.1-6.3 3-11.8 6.5-16.9.9 1.1 1.4 1.8 2 2.4 6.4 6.8 8 14.8 4.4 23.3-2.6 6.2-3.8 12.5-3.3 19.1.1 1.1 0 2.3 0 3.4m-1-.6c-.2-2.6-.2-5.1-.6-7.7-.3-1.9-.9-3.9-1.7-5.7-1-2.4-2.6-4.7-3.3-7.1-.9-3.2-3.3-6.6-2.9-10.2m7.9-2.3c-.3 2.4-.7 4.7-.8 7.1-.1 2.5.1 4.9.3 7.4"/>
      <path id="Avirulent_Pseudomonas_syringae_at_6_Hours" d="M441.3 442.5c-.1-6.3 3-11.8 6.5-16.9.9 1.1 1.4 1.8 2 2.4 6.4 6.8 8 14.8 4.4 23.3-2.6 6.2-3.8 12.5-3.3 19.1.1 1.1 0 2.3 0 3.4m-1-.6c-.2-2.6-.2-5.1-.6-7.7-.3-1.9-.9-3.9-1.7-5.7-1-2.4-2.6-4.7-3.3-7.1-.9-3.2-3.3-6.6-2.9-10.2m7.9-2.3c-.3 2.4-.7 4.7-.8 7.1-.1 2.5.1 4.9.3 7.4"/>
      <path id="Control_Pseudomonas_syringae_at_6_Hours" d="M441.3 378.6c-.1-6.3 3-11.8 6.5-16.9.9 1.1 1.4 1.8 2 2.4 6.4 6.8 8 14.8 4.4 23.3-2.6 6.2-3.8 12.5-3.3 19.1.1 1.1 0 2.3 0 3.4m-1-.6c-.2-2.6-.2-5.1-.6-7.7-.3-1.9-.9-3.9-1.7-5.7-1-2.4-2.6-4.7-3.3-7.1-.9-3.2-3.3-6.6-2.9-10.2m7.9-2.2c-.3 2.4-.7 4.7-.8 7.1-.1 2.5.1 4.9.3 7.4m316.5-13.3c-.1-6.3 3-11.8 6.5-16.9.9 1.1 1.4 1.8 2 2.4 6.4 6.8 8 14.8 4.4 23.3-2.6 6.2-3.8 12.5-3.3 19.1.1 1.1 0 2.3 0 3.4m-1-.6c-.2-2.6-.2-5.1-.6-7.7-.3-1.9-.9-3.9-1.7-5.7-1-2.4-2.6-4.7-3.3-7.1-.9-3.2-3.3-6.6-2.9-10.2m7.9-2.2c-.3 2.4-.7 4.7-.8 7.1-.1 2.5.1 4.9.3 7.4"/>
    </g>
    <g id="Infiltrating_Pseudomonas_syringae_at_2_Hours" fill="#fff" stroke="#000" stroke-linecap="round" stroke-linejoin="round" stroke-miterlimit="10" stroke-width=".5" transform="translate(-7.111 -12.433)">
      <path id="Nonhost_Pseudomonas_syringae_at_2_Hours" d="M704.3 506.3c-.1-6.3 3-11.8 6.5-16.9.9 1.1 1.4 1.8 2 2.4 6.4 6.8 8 14.8 4.4 23.3-2.6 6.2-3.8 12.5-3.3 19.1.1 1.1 0 2.3 0 3.4m-1-.6c-.2-2.6-.2-5.1-.6-7.7-.3-1.9-.9-3.9-1.7-5.7-1-2.4-2.6-4.7-3.3-7.1-.9-3.2-3.3-6.6-2.9-10.2m7.9-2.3c-.3 2.4-.7 4.7-.8 7.1-.1 2.5.1 4.9.3 7.4"/>
      <path id="Deficient_Pseudomonas_syringae_at_2_Hours" d="M704.3 442.5c-.1-6.3 3-11.8 6.5-16.9.9 1.1 1.4 1.8 2 2.4 6.4 6.8 8 14.8 4.4 23.3-2.6 6.2-3.8 12.5-3.3 19.1.1 1.1 0 2.3 0 3.4m-1-.6c-.2-2.6-.2-5.1-.6-7.7-.3-1.9-.9-3.9-1.7-5.7-1-2.4-2.6-4.7-3.3-7.1-.9-3.2-3.3-6.6-2.9-10.2m7.9-2.3c-.3 2.4-.7 4.7-.8 7.1-.1 2.5.1 4.9.3 7.4"/>
      <path id="Virulent_Pseudomonas_syringae_at_2_Hours" d="M378.3 506.3c-.1-6.3 3-11.8 6.5-16.9.9 1.1 1.4 1.8 2 2.4 6.4 6.8 8 14.8 4.4 23.3-2.6 6.2-3.8 12.5-3.3 19.1.1 1.1 0 2.3 0 3.4m-1-.6c-.2-2.6-.2-5.1-.6-7.7-.3-1.9-.9-3.9-1.7-5.7-1-2.4-2.6-4.7-3.3-7.1-.9-3.2-3.3-6.6-2.9-10.2m7.9-2.3c-.3 2.4-.7 4.7-.8 7.1-.1 2.5.1 4.9.3 7.4"/>
      <path id="Avirulent_Pseudomonas_syringae_at_2_Hours" d="M378.3 442.5c-.1-6.3 3-11.8 6.5-16.9.9 1.1 1.4 1.8 2 2.4 6.4 6.8 8 14.8 4.4 23.3-2.6 6.2-3.8 12.5-3.3 19.1.1 1.1 0 2.3 0 3.4m-1-.6c-.2-2.6-.2-5.1-.6-7.7-.3-1.9-.9-3.9-1.7-5.7-1-2.4-2.6-4.7-3.3-7.1-.9-3.2-3.3-6.6-2.9-10.2m7.9-2.3c-.3 2.4-.7 4.7-.8 7.1-.1 2.5.1 4.9.3 7.4"/>
      <path id="Control_Pseudomonas_syringae_at_2_Hours" d="M378.3 378.6c-.1-6.3 3-11.8 6.5-16.9.9 1.1 1.4 1.8 2 2.4 6.4 6.8 8 14.8 4.4 23.3-2.6 6.2-3.8 12.5-3.3 19.1.1 1.1 0 2.3 0 3.4m-1-.6c-.2-2.6-.2-5.1-.6-7.7-.3-1.9-.9-3.9-1.7-5.7-1-2.4-2.6-4.7-3.3-7.1-.9-3.2-3.3-6.6-2.9-10.2m7.9-2.2c-.3 2.4-.7 4.7-.8 7.1-.1 2.5.1 4.9.3 7.4m318.5-12.3c-.1-6.3 3-11.8 6.5-16.9.9 1.1 1.4 1.8 2 2.4 6.4 6.8 8 14.8 4.4 23.3-2.6 6.2-3.8 12.5-3.3 19.1.1 1.1 0 2.3 0 3.4m-1-.6c-.2-2.6-.2-5.1-.6-7.7-.3-1.9-.9-3.9-1.7-5.7-1-2.4-2.6-4.7-3.3-7.1-.9-3.2-3.3-6.6-2.9-10.2m7.9-2.2c-.3 2.4-.7 4.7-.8 7.1-.1 2.5.1 4.9.3 7.4"/>
    </g>
    <g id="infoButton_Infiltrating_Psuedomonas_syringae" transform="translate(10.889 -12.433)">
      <circle id="circle181" cx="319.2" cy="342.2" r="9.2" fill="#f77128"/>
      <text id="text183" fill="#fff" font-family="HelveticaNeue-Bold" font-size="12" transform="translate(317.452 346.5)">i</text>
    </g>
  </g>
  <g id="Half_Leaf" transform="translate(-7.111 -12.433)">
    <g id="g222">
      <text id="text192" transform="translate(31.231 70.314)"><tspan id="tspan2672" x="0" y="0"><tspan id="tspan188" x="0" y="0" font-family="HelveticaNeue" font-size="18">Half Leaf</tspan></tspan><tspan id="tspan2674" x="0" y="0"><tspan id="tspan2676" x="0" y="0" font-family="HelveticaNeue" font-size="18"> </tspan></tspan><tspan id="tspan2679" x="76.7" y="0"><tspan id="tspan2681" x="76.7" y="0" font-family="HelveticaNeue-Italic" font-size="18"> Pseudomonas syringae</tspan></tspan></text>
      <text id="text198" transform="translate(245.313 117.666)"><tspan id="tspan194" x="0" y="0" font-family="HelveticaNeue-Thin" font-size="12">Mock Treatment</tspan><tspan id="tspan196" x="-7.9" y="13" font-family="HelveticaNeue-Thin" font-size="10">(10mM MgCl2 solution)</tspan></text>
      <text id="text204" transform="translate(239.871 181.167)"><tspan id="tspan200" x="0" y="0" font-family="HelveticaNeue-Thin" font-size="12">Avirulent pathogen</tspan><tspan id="tspan202" x="9.2" y="13" font-family="HelveticaNeue-Thin" font-size="10">(ES4326 avrRpt2)</tspan></text>
      <text id="text210" transform="translate(242.767 244.667)"><tspan id="tspan206" x="0" y="0" font-family="HelveticaNeue-Thin" font-size="12">Virulent pathogen</tspan><tspan id="tspan208" x="23.8" y="13" font-family="HelveticaNeue-Thin" font-size="10">(ES4326)</tspan></text>
      <text id="text212" font-family="HelveticaNeue-Thin" font-size="10" transform="translate(369.884 301.666)">4 hours</text>
      <text id="text214" font-family="HelveticaNeue-Thin" font-size="10" transform="translate(430.968 301.666)">8 hours</text>
      <text id="text216" font-family="HelveticaNeue-Thin" font-size="10" transform="translate(489.27 301.666)">16 hours</text>
      <text id="text218" font-family="HelveticaNeue-Thin" font-size="10" transform="translate(550.354 302.666)">24 hours</text>
      <text id="text220" font-family="HelveticaNeue-Thin" font-size="10" transform="translate(611.438 302.666)">48 hours</text>
    </g>
    <g id="infoButton_Half_Leaf_Psuedomonas_syringae">
      <circle id="circle224" cx="314.2" cy="64.2" r="9.2" fill="#f9ad26"/>
      <text id="text226" fill="#fff" font-family="HelveticaNeue-Bold" font-size="12" transform="translate(312.452 68.5)">i</text>
    </g>
    <g id="g295">
      <g id="g275" fill="none" stroke="#000" stroke-miterlimit="10" stroke-width=".5">
        <path id="path229" d="M110.4 236c.8-2.1 0-4.2-.7-5.9-.1-.2-.2-.4-.2-.6-1-2.9 1.6-5.7 1.6-5.7"/>
        <path id="path231" d="M118.3 202.9s2.3-4.1 4.1-5.9"/>
        <path id="path233" d="M123.1 212.4c-.7-1.9-3.9-2.2-4-2.2"/>
        <path id="path235" d="M103.7 211.1c-2.2.7-6.8 3.6-7 3.7"/>
        <path id="path237" d="M107.8 211.2c-3.1-.4-8.2 5.1-8.5 5.3"/>
        <path id="path239" d="M100.9 202c-8.2-.9-13.7 3.5-13.8 3.6"/>
        <path id="path241" d="M109.1 201.9c-1.2-1.1-2.6-4.6-2.6-4.6"/>
        <path id="path243" d="M113.1 204.1s.3.9.4 1.4"/>
        <path id="path245" d="M125 224.3c-1.4-3.1-4.8-6.6-4.9-6.6"/>
        <path id="path247" d="M111.8 202.7c-.1 0-.1 0 0 0"/>
        <path id="path249" d="M117.4 226.6c-.3-.3-1.9-1.6-1.9-3.2-.1-1.5-.5-3.4-1.3-5.4-.1-.4-.5-.6-.4-.4.4-.9.6-2.6.6-3.2v-.6c0-.5.1-.8.2-1.2.1-.3.1-.6.2-.9"/>
        <path id="path251" d="M110.1 264.6c-.1-.9.2-1.6.7-2.6.2-1-.1-3.2-.5-4.8-.6-2.6 2.2-5.3 2.3-5.4l.1.1c.1-.9.3-1.9.6-2.8.1-.7.1-1.7.1-2.7 0-1.6-.1-3.3.4-4.2.1-.2.2-.5.3-.8.7-1.9 1.4-3.8 1.1-7.8-1.5-3.6-1.1-2.5-1.6-3.3-.5-.8-1.3-.4-2-4.2-.7-3.8 0-5.2 0-7 0-1.8.9-6.2 1.2-7.5"/>
        <path id="path253" d="M119.5 270.7c-.8-.5-.9-1.7-1-2.5 0-.3 0-.5-.1-.6-1.1-1.1-.9-2.3-.6-3.8 0-1.4-1.1-2.3-1.5-2.6.1.6.1 1.2.1 1.5-.3 1.5-1 4.8.4 9.6.2.5.5 1 .8 1.5.6 4.2.9 7.7.9 7.7l-.1-1.6s-.5-1.8-1.1-6c-.2-.5-.4-.9-.6-1.3 0-.1 0-.1-.1-.2-1.1-2.2-2.1-4.1-1.9-7.4v-.2c.2-4.1.2-5.4-1.7-9.3-.3-.9-.3-2.6-.3-3.7"/>
        <path id="path255" d="M120.5 251.3c.3-3.2-.5-4.2-1.1-5l-.1-.1c-.8-1-.8-2.2-.7-4.7 0-2.6-1.4-3.6-1.9-3.9 0 1.1-.1 2.2-.3 2.9l-.1.2c-.8 1.9-1.3 3-1.1 5.3.1 1.7-.3 3.7-.6 4.9-.1.5-.2.9-.2 1.1-.2 1.1.3 2.9.8 3.5.4.7.6 1.7.8 2.4.1.3.1.6.2.8v.3c.1.5.2 1.1.3 1.7l.1.4"/>
        <path id="path257" d="M113.8 217.6c-.4 2-.3 2-.3 4s-.3 3.1 0 4.1c.3 1 .8 1.8 1.2 2.3.9 1.3 1.8 2.5 1.9 4.3v5.2"/>
        <path id="path259" d="M136.4 199.8c-3-.3-6 1.2-6.1 1.3h.8c-2 0-4.5.3-6.9 1.1"/>
        <path id="path261" d="M137.9 202.7c-1.8-.9-4.1-1.6-6.8-1.7"/>
        <path id="path263" d="M112.2 210.3c.2-.1 1-.1 1.2-.4.3-.4.4-1.1.2-1.8-.1-.2-.3-.4-.4-.7-.6-.9-1.5-2.3-1.3-4.5"/>
        <path id="path265" d="M114.3 208c-.2 1-.1 1.8-.1 1.8"/>
        <path id="path267" d="m126.5 203.4 14.7 5.1c-8.6-7.4-14.7-5.1-14.7-5.1z"/>
        <path id="line269" d="m114.6 207.4-.2.4"/>
        <path id="line271" d="M114.4 208v-.2"/>
        <path id="line273" d="M113.6 202.2v.3"/>
      </g>
      <path id="path277" fill="none" stroke="#000" stroke-miterlimit="10" stroke-width=".5" d="M80.8 210.1s-.8-.5 2.1-4.2c2.4-2.9 5.3-6.2 7.3-7.3 2.1-1.3 4.1-2.8 8.5-1.1 1.4.8 2.3 1.4 3.7 2.8.7 1.1 2.7 2 2.9 2.3 1 .5 5.5 3.7 6.7 4.2-1.2-1.1-5.1-4.5-6.4-5.1-1.4-.6-2.6-1.7-2.2-5.9.4-2.4.9-3.8.9-3.8 1 .8 5 4.5 5.7 5.8.6 1 .2 1.7.6 2.8.3 1 .9 2.1 1.3 2.3.1-.7.3-1.8.3-1.8.3.5 1.6 1.5 1.6 1.5.2.5 1 2.6.9 3.1-.1.8-.3 2-.3 2 .6-.8 2-2 2.6-4.7.2-1.5.1-4.5 1.1-5.8.9-1.3 1.6-2.6 3.7-3.1 1.1-.3 2.9-.8 3.5 1.9.1.9-.1 2.1-2.2 4.5-1.4 1.3-4.5 4-4.5 4.1-.7.8-1 1.2-1 1.2 1.4-1 5.7-3.3 6.3-3.5.6-.8 4.5-5 9.5-5.6 2.2-.2 7.4 1.2 8.9 1.9-.8.4-2.2 1.2-2.4 1.9-.3.8-1 2.3-1.9 2.3.9.6 4 2.6 5.2 4.3 1 1.1 4.1 3.4 6.1 3.9-.3.5-6.5 2.9-9.6 1.9-3.1-1-4.8-2.9-7.7-5.2-1.7-1.2-4.4-3-8.4-2.3-2.2.5-6.2 1.8-8 3.2l-.3.4c1 0 8.3-.7 9.7 1.1 1.2 1.6 2.5 3.4 2.5 3.4-.7.6-4.4 3.6-8.2 0-1.5-1.7-2.7-3.3-4-3.2.6.8 3.6 4.8 5.6 5.9 2.2.6 8.1 1.4 9.5 6.1.8 2.6 1 5.7 1 5.7-1.3.6-5.5 3.5-11.3-3.8-1.3-2.6-1.6-2.8-2.7-8.3-.8-1.5-1.5-3-2.8-4-1.3-.1-1.9-.1-2 0-1 .1-3.8.3-4.9 2.1-1.3 1.7-3.3 4.1-7.7 6.4-2.2 1-4.4 2.1-7.7-1.9-.8-1.3-1.2-3.9.1-5.4 1.4-1.6 3.9-4.7 6.4-4.6 1.7.1 8.4 1.3 13.3 2.2-.6-.8-4.3-5.7-12-5.8-1.5.1-3.4.4-5.7 1.9-2.6 1.6-5.9 4.5-10 3.2-1-.4-2.5-.5-3.6.1z"/>
      <g id="g293">
        <path id="path279" d="M139.2 187.6c-.8-.2-1.7-.3-2.5-.6-1-.4-1.7-.1-2.4.7-.8.9-4.2 4.2-5.1 5.1-.3.3-.6.6-1 .2-.4-.4 0-.7.2-1l5.5-5.5c.5-.4.6-.8.4-1.4v-.1c-1.2-2.4-.3-4 1.6-5.7 2.9-2.6 5.5-5.5 8.3-8.2.4-.4.7-.7.1-1.1-.3-.2-.5-.6-.1-.9.3-.3.6 0 .9.2l6.9 6.9c.3.3.5.6.2.9-.3.3-.7.2-.9-.1-.5-.6-.8-.3-1.1.1-3.3 3.3-6.6 6.7-10 10-.2.2-.4.6-1 .5z"/>
        <path id="path281" fill="#030303" d="M155.5 171.4c0 .3-.1.5-.3.6-.3.2-.5 0-.7-.2-.5-.7-.8-.4-1.2.1-.4.5-.9.9-1.4 1.4-.2.2-.5.6-.9.2-.4-.4-.1-.7.2-1 .5-.5 1.3-1 1.6-1.7.6-1.1-.7-1.3-1.2-1.9-.2-.3-.4-1.2-1.2-.5l-1.6 1.6c-.3.3-.6.6-1 .2-.4-.4 0-.6.2-.9.3-.4.7-.7 1.1-1.1.5-.5 1.3-1 .3-1.8-.3-.2-.1-.5.1-.7.3-.2.6 0 .8.2 1 .9 1.9 1.9 2.9 2.9l2 2c.2.3.3.5.3.6z"/>
        <path id="path283" fill="#fff" d="M143.5 176.2c0 .3-.2.5-.5.5s-1.6-1.2-1.6-1.6c0-.3.2-.5.5-.5.4 0 1.7 1.3 1.6 1.6z"/>
        <path id="path285" fill="#fff" d="M138.3 178.3c.3 0 1.6 1.2 1.6 1.6 0 .3-.2.6-.5.5-.7-.3-1.2-.8-1.5-1.5-.1-.3.1-.5.4-.6z"/>
        <path id="path287" fill="#fff" d="M136.8 180.4c.3 0 1.6 1.3 1.6 1.6 0 .3-.2.5-.5.5s-1.5-1.3-1.5-1.6c-.1-.3.1-.5.4-.5z"/>
        <path id="path289" fill="#fff" d="M142 178.3c0 .3-.2.6-.5.4-.7-.3-1.2-.8-1.5-1.5-.1-.2.2-.5.5-.5s1.5 1.3 1.5 1.6z"/>
        <path id="path291" fill="#fff" d="M144.1 173.1c.3 0 1.5 1.2 1.5 1.6 0 .3-.3.5-.5.4-.7-.3-1.2-.8-1.5-1.5-.1-.2.2-.4.5-.5z"/>
      </g>
    </g>
    <g id="g338">
      <g id="g299">
        <path id="path297" fill="none" stroke="#555" stroke-miterlimit="10" stroke-width="10" d="M127.4 135c0 9-7.3 16.3-16.3 16.3-3.1 0-5.9-.8-8.4-2.3"/>
      </g>
      <g id="lightCycle">
        <path id="path301" fill="none" stroke="#fff69f" stroke-miterlimit="10" stroke-width="10" d="M102.7 148.9c-4.7-2.8-7.9-8-7.9-13.9 0-9 7.3-16.3 16.3-16.3s16.3 7.3 16.3 16.3"/>
      </g>
      <g id="g336">
        <text id="text308" transform="translate(90.24 97.444)"><tspan id="tspan304" x="0" y="0" font-family="HelveticaNeue-Thin" font-size="8">24 &amp; 48 hour</tspan><tspan id="tspan306" x="8.5" y="9" font-family="HelveticaNeue-Thin" font-size="8">injection</tspan></text>
        <path id="line310" fill="none" stroke="#000" stroke-miterlimit="10" d="M110.9 112.3v9.3"/>
        <text id="text316" transform="translate(135.407 148.054)"><tspan id="tspan312" x="0" y="0" font-family="HelveticaNeue-Thin" font-size="8">16 hour</tspan><tspan id="tspan314" x="-.5" y="9" font-family="HelveticaNeue-Thin" font-size="8">injection</tspan></text>
        <path id="line318" fill="none" stroke="#000" stroke-miterlimit="10" d="m121 140.1 8.3 4.3"/>
        <text id="text324" transform="translate(63.946 146.499)"><tspan id="tspan320" x="0" y="0" font-family="HelveticaNeue-Thin" font-size="8">8 hour</tspan><tspan id="tspan322" x="-2.8" y="9" font-family="HelveticaNeue-Thin" font-size="8">injection</tspan></text>
        <path id="line326" fill="none" stroke="#000" stroke-miterlimit="10" d="m99.8 139.1-8.3 4.3"/>
        <text id="text332" x="56.452" y="116.92"><tspan id="tspan328" x="56.452" y="116.92" font-family="HelveticaNeue-Thin" font-size="8">4 hour</tspan><tspan id="tspan330" x="53.652" y="125.92" font-family="HelveticaNeue-Thin" font-size="8">injection</tspan></text>
        <path id="line334" fill="none" stroke="#000" stroke-miterlimit="10" d="m100.4 129.7-8.3-4.2"/>
      </g>
    </g>
    <g id="Half_Leaf_Pseudomonas_syringae_at_48_Hours">
      <path id="Virulent_Half_Leaf_Pseudomonas_syringae_at_48_Hours" fill="#fff" d="M629.8 224c-1.3 2.5-5.2 9.1-6.3 14-.3 1.1-.4 3.7 0 6.2.3 1.9 1 3.7 1.7 5.2 1.5 3.4 4.3 8.3 4.7 10 .3 1.7 1.7 5.7 1.7 7.3v4.7l.8.3z"/>
      <path id="Virulent_Half_Leaf_Pseudomonas_syringae_at_48_Hours_outline" fill="none" stroke="#000" stroke-linecap="round" stroke-linejoin="round" stroke-miterlimit="10" stroke-width=".5" d="M623.3 241.3c-.1-6.3 3-11.8 6.5-16.9.9 1.1 1.4 1.8 2 2.4 6.4 6.8 8 14.8 4.4 23.3-2.6 6.2-3.8 12.5-3.3 19.1.1 1.1 0 2.3 0 3.4m-1-.6c-.2-2.6-.2-5.1-.6-7.7-.3-1.9-.9-3.9-1.7-5.7-1-2.4-2.6-4.7-3.3-7.1-.9-3.2-3.3-6.6-2.9-10.2m7.9-2.3c-.3 2.4-.7 4.7-.8 7.1-.1 2.5.1 4.9.3 7.4"/>
      <path id="Avirulent_Half_Leaf_Pseudomonas_syringae_at_48_Hours" fill="#fff200" d="M630 160.3c-1.3 2.5-5.2 9.1-6.3 14-.3 1.1-.4 3.7 0 6.2.3 1.9 1 3.7 1.7 5.2 1.5 3.4 4.3 8.3 4.7 10 .3 1.7 1.7 5.7 1.7 7.3v4.7l.8.3z"/>
      <path id="Avirulent_Half_Leaf_Pseudomonas_syringae_at_48_Hours_outline" fill="none" stroke="#000" stroke-linecap="round" stroke-linejoin="round" stroke-miterlimit="10" stroke-width=".5" d="M623.3 177.5c-.1-6.3 3-11.8 6.5-16.9.9 1.1 1.4 1.8 2 2.4 6.4 6.8 8 14.8 4.4 23.3-2.6 6.2-3.8 12.5-3.3 19.1.1 1.1 0 2.3 0 3.4m-1-.6c-.2-2.6-.2-5.1-.6-7.7-.3-1.9-.9-3.9-1.7-5.7-1-2.4-2.6-4.7-3.3-7.1-.9-3.2-3.3-6.6-2.9-10.2m7.9-2.3c-.3 2.4-.7 4.7-.8 7.1-.1 2.5.1 4.9.3 7.4"/>
      <path id="Control_Half_Leaf_Pseudomonas_syringae_at_48_Hours" fill="#fff" d="M630 96.3c-1.3 2.5-5.2 9.1-6.3 14-.3 1.1-.4 3.7 0 6.2.3 1.9 1 3.7 1.7 5.2 1.5 3.4 4.3 8.3 4.7 10 .3 1.7 1.7 5.7 1.7 7.3v4.7l.8.3z"/>
      <path id="Control_Half_Leaf_Pseudomonas_syringae_at_48_Hours_outline" fill="none" stroke="#000" stroke-linecap="round" stroke-linejoin="round" stroke-miterlimit="10" stroke-width=".5" d="M623.3 113.6c-.1-6.3 3-11.8 6.5-16.9.9 1.1 1.4 1.8 2 2.4 6.4 6.8 8 14.8 4.4 23.3-2.6 6.2-3.8 12.5-3.3 19.1.1 1.1 0 2.3 0 3.4m-1-.6c-.2-2.6-.2-5.1-.6-7.7-.3-1.9-.9-3.9-1.7-5.7-1-2.4-2.6-4.7-3.3-7.1-.9-3.2-3.3-6.6-2.9-10.2m7.9-2.2c-.3 2.4-.7 4.7-.8 7.1-.1 2.5.1 4.9.3 7.4"/>
    </g>
    <g id="Half_Leaf_Pseudomonas_syringae_at_24_Hours">
      <path id="Virulent_Half_Leaf_Pseudomonas_syringae_at_24_Hours" fill="#fff200" d="M569.8 224c-1.3 2.5-5.2 9.1-6.3 14-.3 1.1-.4 3.7 0 6.2.3 1.9 1 3.7 1.7 5.2 1.5 3.4 4.3 8.3 4.7 10 .3 1.7 1.7 5.7 1.7 7.3v4.7l.8.3z"/>
      <path id="Virulent_Half_Leaf_Pseudomonas_syringae_at_24_Hours_outline" fill="none" stroke="#000" stroke-linecap="round" stroke-linejoin="round" stroke-miterlimit="10" stroke-width=".5" d="M563.3 241.3c-.1-6.3 3-11.8 6.5-16.9.9 1.1 1.4 1.8 2 2.4 6.4 6.8 8 14.8 4.4 23.3-2.6 6.2-3.8 12.5-3.3 19.1.1 1.1 0 2.3 0 3.4m-1-.6c-.2-2.6-.2-5.1-.6-7.7-.3-1.9-.9-3.9-1.7-5.7-1-2.4-2.6-4.7-3.3-7.1-.9-3.2-3.3-6.6-2.9-10.2m7.9-2.3c-.3 2.4-.7 4.7-.8 7.1-.1 2.5.1 4.9.3 7.4"/>
      <path id="Avirulent_Half_Leaf_Pseudomonas_syringae_at_24_Hours" fill="#fff" d="M570 160.3c-1.3 2.5-5.2 9.1-6.3 14-.3 1.1-.4 3.7 0 6.2.3 1.9 1 3.7 1.7 5.2 1.5 3.4 4.3 8.3 4.7 10 .3 1.7 1.7 5.7 1.7 7.3v4.7l.8.3z"/>
      <path id="Avirulent_Half_Leaf_Pseudomonas_syringae_at_24_Hours_outline" fill="none" stroke="#000" stroke-linecap="round" stroke-linejoin="round" stroke-miterlimit="10" stroke-width=".5" d="M563.3 177.5c-.1-6.3 3-11.8 6.5-16.9.9 1.1 1.4 1.8 2 2.4 6.4 6.8 8 14.8 4.4 23.3-2.6 6.2-3.8 12.5-3.3 19.1.1 1.1 0 2.3 0 3.4m-1-.6c-.2-2.6-.2-5.1-.6-7.7-.3-1.9-.9-3.9-1.7-5.7-1-2.4-2.6-4.7-3.3-7.1-.9-3.2-3.3-6.6-2.9-10.2m7.9-2.3c-.3 2.4-.7 4.7-.8 7.1-.1 2.5.1 4.9.3 7.4"/>
      <path id="Control_Half_Leaf_Pseudomonas_syringae_at_24_Hours" fill="#fff" d="M570 96.3c-1.3 2.5-5.2 9.1-6.3 14-.3 1.1-.4 3.7 0 6.2.3 1.9 1 3.7 1.7 5.2 1.5 3.4 4.3 8.3 4.7 10 .3 1.7 1.7 5.7 1.7 7.3v4.7l.8.3z"/>
      <path id="Control_Half_Leaf_Pseudomonas_syringae_at_24_Hours_outline" fill="none" stroke="#000" stroke-linecap="round" stroke-linejoin="round" stroke-miterlimit="10" stroke-width=".5" d="M563.3 113.6c-.1-6.3 3-11.8 6.5-16.9.9 1.1 1.4 1.8 2 2.4 6.4 6.8 8 14.8 4.4 23.3-2.6 6.2-3.8 12.5-3.3 19.1.1 1.1 0 2.3 0 3.4m-1-.6c-.2-2.6-.2-5.1-.6-7.7-.3-1.9-.9-3.9-1.7-5.7-1-2.4-2.6-4.7-3.3-7.1-.9-3.2-3.3-6.6-2.9-10.2m7.9-2.2c-.3 2.4-.7 4.7-.8 7.1-.1 2.5.1 4.9.3 7.4"/>
    </g>
    <g id="Half_Leaf_Pseudomonas_syringae_at_16_Hours">
      <path id="Virulent_Half_Leaf_Pseudomonas_syringae_at_16_Hours" fill="#fff200" d="M508.8 223c-1.3 2.5-5.2 9.1-6.3 14-.3 1.1-.4 3.7 0 6.2.3 1.9 1 3.7 1.7 5.2 1.5 3.4 4.3 8.3 4.7 10 .3 1.7 1.7 5.7 1.7 7.3v4.7l.8.3z"/>
      <path id="Virulent_Half_Leaf_Pseudomonas_syringae_at_16_Hours_outline" fill="none" stroke="#000" stroke-linecap="round" stroke-linejoin="round" stroke-miterlimit="10" stroke-width=".5" d="M502.3 240.3c-.1-6.3 3-11.8 6.5-16.9.9 1.1 1.4 1.8 2 2.4 6.4 6.8 8 14.8 4.4 23.3-2.6 6.2-3.8 12.5-3.3 19.1.1 1.1 0 2.3 0 3.4m-1-.6c-.2-2.6-.2-5.1-.6-7.7-.3-1.9-.9-3.9-1.7-5.7-1-2.4-2.6-4.7-3.3-7.1-.9-3.2-3.3-6.6-2.9-10.2m7.9-2.3c-.3 2.4-.7 4.7-.8 7.1-.1 2.5.1 4.9.3 7.4"/>
      <path id="Avirulent_Half_Leaf_Pseudomonas_syringae_at_16_Hours" fill="#fff" d="M509 159.3c-1.3 2.5-5.2 9.1-6.3 14-.3 1.1-.4 3.7 0 6.2.3 1.9 1 3.7 1.7 5.2 1.5 3.4 4.3 8.3 4.7 10 .3 1.7 1.7 5.7 1.7 7.3v4.7l.8.3z"/>
      <path id="Avirulent_Half_Leaf_Pseudomonas_syringae_at_16_Hours_outline" fill="none" stroke="#000" stroke-linecap="round" stroke-linejoin="round" stroke-miterlimit="10" stroke-width=".5" d="M502.3 176.5c-.1-6.3 3-11.8 6.5-16.9.9 1.1 1.4 1.8 2 2.4 6.4 6.8 8 14.8 4.4 23.3-2.6 6.2-3.8 12.5-3.3 19.1.1 1.1 0 2.3 0 3.4m-1-.6c-.2-2.6-.2-5.1-.6-7.7-.3-1.9-.9-3.9-1.7-5.7-1-2.4-2.6-4.7-3.3-7.1-.9-3.2-3.3-6.6-2.9-10.2m7.9-2.3c-.3 2.4-.7 4.7-.8 7.1-.1 2.5.1 4.9.3 7.4"/>
      <path id="Control_Half_Leaf_Pseudomonas_syringae_at_16_Hours" fill="#fff" d="M509 95.3c-1.3 2.5-5.2 9.1-6.3 14-.3 1.1-.4 3.7 0 6.2.3 1.9 1 3.7 1.7 5.2 1.5 3.4 4.3 8.3 4.7 10 .3 1.7 1.7 5.7 1.7 7.3v4.7l.8.3z"/>
      <path id="Control_Half_Leaf_Pseudomonas_syringae_at_16_Hours_outline" fill="none" stroke="#000" stroke-linecap="round" stroke-linejoin="round" stroke-miterlimit="10" stroke-width=".5" d="M502.3 112.6c-.1-6.3 3-11.8 6.5-16.9.9 1.1 1.4 1.8 2 2.4 6.4 6.8 8 14.8 4.4 23.3-2.6 6.2-3.8 12.5-3.3 19.1.1 1.1 0 2.3 0 3.4m-1-.6c-.2-2.6-.2-5.1-.6-7.7-.3-1.9-.9-3.9-1.7-5.7-1-2.4-2.6-4.7-3.3-7.1-.9-3.2-3.3-6.6-2.9-10.2m7.9-2.2c-.3 2.4-.7 4.7-.8 7.1-.1 2.5.1 4.9.3 7.4"/>
    </g>
    <g id="Half_Leaf_Pseudomonas_syringae_at_8_Hours">
      <path id="Virulent_Half_Leaf_Pseudomonas_syringae_at_8_Hours" fill="#fff" d="M447.8 225c-1.3 2.5-5.2 9.1-6.3 14-.3 1.1-.4 3.7 0 6.2.3 1.9 1 3.7 1.7 5.2 1.5 3.4 4.3 8.3 4.7 10 .3 1.7 1.7 5.7 1.7 7.3v4.7l.8.3z"/>
      <path id="Virulent_Half_Leaf_Pseudomonas_syringae_at_8_Hours_outline" fill="none" stroke="#000" stroke-linecap="round" stroke-linejoin="round" stroke-miterlimit="10" stroke-width=".5" d="M441.3 242.3c-.1-6.3 3-11.8 6.5-16.9.9 1.1 1.4 1.8 2 2.4 6.4 6.8 8 14.8 4.4 23.3-2.6 6.2-3.8 12.5-3.3 19.1.1 1.1 0 2.3 0 3.4m-1-.6c-.2-2.6-.2-5.1-.6-7.7-.3-1.9-.9-3.9-1.7-5.7-1-2.4-2.6-4.7-3.3-7.1-.9-3.2-3.3-6.6-2.9-10.2m7.9-2.3c-.3 2.4-.7 4.7-.8 7.1-.1 2.5.1 4.9.3 7.4"/>
      <path id="Avirulent_Half_Leaf_Pseudomonas_syringae_at_8_Hours" fill="#fff" d="M448 161.3c-1.3 2.5-5.2 9.1-6.3 14-.3 1.1-.4 3.7 0 6.2.3 1.9 1 3.7 1.7 5.2 1.5 3.4 4.3 8.3 4.7 10 .3 1.7 1.7 5.7 1.7 7.3v4.7l.8.3z"/>
      <path id="Avirulent_Half_Leaf_Pseudomonas_syringae_at_8_Hours_outline" fill="none" stroke="#000" stroke-linecap="round" stroke-linejoin="round" stroke-miterlimit="10" stroke-width=".5" d="M441.3 178.5c-.1-6.3 3-11.8 6.5-16.9.9 1.1 1.4 1.8 2 2.4 6.4 6.8 8 14.8 4.4 23.3-2.6 6.2-3.8 12.5-3.3 19.1.1 1.1 0 2.3 0 3.4m-1-.6c-.2-2.6-.2-5.1-.6-7.7-.3-1.9-.9-3.9-1.7-5.7-1-2.4-2.6-4.7-3.3-7.1-.9-3.2-3.3-6.6-2.9-10.2m7.9-2.3c-.3 2.4-.7 4.7-.8 7.1-.1 2.5.1 4.9.3 7.4"/>
      <path id="Control_Half_Leaf_Pseudomonas_syringae_at_8_Hours" fill="#fff" d="M448 97.3c-1.3 2.5-5.2 9.1-6.3 14-.3 1.1-.4 3.7 0 6.2.3 1.9 1 3.7 1.7 5.2 1.5 3.4 4.3 8.3 4.7 10 .3 1.7 1.7 5.7 1.7 7.3v4.7l.8.3z"/>
      <path id="Control_Half_Leaf_Pseudomonas_syringae_at_8_Hours_outline" fill="none" stroke="#000" stroke-linecap="round" stroke-linejoin="round" stroke-miterlimit="10" stroke-width=".5" d="M441.3 114.6c-.1-6.3 3-11.8 6.5-16.9.9 1.1 1.4 1.8 2 2.4 6.4 6.8 8 14.8 4.4 23.3-2.6 6.2-3.8 12.5-3.3 19.1.1 1.1 0 2.3 0 3.4m-1-.6c-.2-2.6-.2-5.1-.6-7.7-.3-1.9-.9-3.9-1.7-5.7-1-2.4-2.6-4.7-3.3-7.1-.9-3.2-3.3-6.6-2.9-10.2m7.9-2.2c-.3 2.4-.7 4.7-.8 7.1-.1 2.5.1 4.9.3 7.4"/>
    </g>
    <g id="Half_Leaf_Pseudomonas_syringae_at_4_Hours">
      <path id="Virulent_Half_Leaf_Pseudomonas_syringae_at_4_Hours" fill="#fff" d="M384.8 223c-1.3 2.5-5.2 9.1-6.3 14-.3 1.1-.4 3.7 0 6.2.3 1.9 1 3.7 1.7 5.2 1.5 3.4 4.3 8.3 4.7 10 .3 1.7 1.7 5.7 1.7 7.3v4.7l.8.3z"/>
      <path id="Virulent_Half_Leaf_Pseudomonas_syringae_at_4_Hours_outline" fill="none" stroke="#000" stroke-linecap="round" stroke-linejoin="round" stroke-miterlimit="10" stroke-width=".5" d="M378.3 240.3c-.1-6.3 3-11.8 6.5-16.9.9 1.1 1.4 1.8 2 2.4 6.4 6.8 8 14.8 4.4 23.3-2.6 6.2-3.8 12.5-3.3 19.1.1 1.1 0 2.3 0 3.4m-1-.6c-.2-2.6-.2-5.1-.6-7.7-.3-1.9-.9-3.9-1.7-5.7-1-2.4-2.6-4.7-3.3-7.1-.9-3.2-3.3-6.6-2.9-10.2m7.9-2.3c-.3 2.4-.7 4.7-.8 7.1-.1 2.5.1 4.9.3 7.4"/>
      <path id="Avirulent_Half_Leaf_Pseudomonas_syringae_at_4_Hours" fill="#fff" d="M385 159.3c-1.3 2.5-5.2 9.1-6.3 14-.3 1.1-.4 3.7 0 6.2.3 1.9 1 3.7 1.7 5.2 1.5 3.4 4.3 8.3 4.7 10 .3 1.7 1.7 5.7 1.7 7.3v4.7l.8.3z"/>
      <path id="Avirulent_Half_Leaf_Pseudomonas_syringae_at_4_Hours_outline" fill="none" stroke="#000" stroke-linecap="round" stroke-linejoin="round" stroke-miterlimit="10" stroke-width=".5" d="M378.3 176.5c-.1-6.3 3-11.8 6.5-16.9.9 1.1 1.4 1.8 2 2.4 6.4 6.8 8 14.8 4.4 23.3-2.6 6.2-3.8 12.5-3.3 19.1.1 1.1 0 2.3 0 3.4m-1-.6c-.2-2.6-.2-5.1-.6-7.7-.3-1.9-.9-3.9-1.7-5.7-1-2.4-2.6-4.7-3.3-7.1-.9-3.2-3.3-6.6-2.9-10.2m7.9-2.3c-.3 2.4-.7 4.7-.8 7.1-.1 2.5.1 4.9.3 7.4"/>
      <path id="Control_Half_Leaf_Pseudomonas_syringae_at_4_Hours" fill="#fff" d="M385 95.3c-1.3 2.5-5.2 9.1-6.3 14-.3 1.1-.4 3.7 0 6.2.3 1.9 1 3.7 1.7 5.2 1.5 3.4 4.3 8.3 4.7 10 .3 1.7 1.7 5.7 1.7 7.3v4.7l.8.3z"/>
      <path id="Control_Half_Leaf_Pseudomonas_syringae_at_4_Hours_outline" fill="none" stroke="#000" stroke-linecap="round" stroke-linejoin="round" stroke-miterlimit="10" stroke-width=".5" d="M378.3 112.6c-.1-6.3 3-11.8 6.5-16.9.9 1.1 1.4 1.8 2 2.4 6.4 6.8 8 14.8 4.4 23.3-2.6 6.2-3.8 12.5-3.3 19.1.1 1.1 0 2.3 0 3.4m-1-.6c-.2-2.6-.2-5.1-.6-7.7-.3-1.9-.9-3.9-1.7-5.7-1-2.4-2.6-4.7-3.3-7.1-.9-3.2-3.3-6.6-2.9-10.2m7.9-2.2c-.3 2.4-.7 4.7-.8 7.1-.1 2.5.1 4.9.3 7.4"/>
    </g>
  </g>
</svg>