<svg height="570.9" id="BioticStressGolovinomycesorontii_svg" version="1.1" viewBox="10 15 191.1 126.8" width="815" xmlns="http://www.w3.org/2000/svg" author="Provart Lab - Bio Analytic Resource, University of Toronto">
  <g id="ColLaserMicrodissected-5dUninfected" transform="translate(-5 -9)" fill="none" stroke="#000" stroke-miterlimit="10" stroke-width=".1">
    <path d="M165 24h-11c-2-2-7 0-7 0l-5-1v2l1 1h3l2-1h1l3 1 2-1h5l4 1 2-1v-1" id="path32-8"/>
    <path d="m147 24 1 1" id="path40-1"/>
    <path d="M154 24v1" id="path42-8"/>
    <path d="M159 24v1" id="path44-3"/>
    <path d="M155 25h-1l-2 1-3-1h-1l-2 1h-3l-1-1-1 1v7s1 2 2 1c0 0 2 2 3 0h3c0-1 2 1 4-1h3l2 1 1-1h5l1-1v-7l-2 1-3-1-1 1s-1-2-3 0l-1-1" id="path36-7"/>
    <path d="M163 26v7" id="path58-5"/>
    <path d="m152 26 1 7" id="path64-0"/>
    <path d="M149 34v-9" id="path66-8"/>
    <path d="M146 26v8" id="path68-2"/>
    <path d="M143 26v8" id="path70-0"/>
    <path d="M156 33v-7" id="path119-2"/>
    <path d="M159 33v-7" id="path121-1"/>
    <path d="M166 22h-25v4l1-1v-2l5 1s5-2 7 0h11l1-2" id="path125-0"/>
    <path d="M146 39c2-3 1-4 1-4-1-2-3 0-3 0l-2 2v1s1 3 4 1" id="path237-3"/>
    <path d="M148 36s0-2 2-2l3 1 1-1h4s2 4-1 5l-3-1s-4 4-6-2" id="path241-2"/>
    <path d="M153 35s3 1 1 3" id="path243-5"/>
    <path d="M146 45s-4-2 0-6c0 0 2-2 4 0 0 0 3 4-2 6 0 0 2 2 0 4l2 1h-4s-5-3 0-5" id="path245-9"/>
    <path d="M146 45h2" id="path247-2"/>
    <path d="M160 36s-5 2-1 6c0 0 5 0 4-4 0 0-1-2-3-2" id="path259-4"/>
    <path d="m158 34 1-1h3l1 1-1 2s-2 1-4-1v-1" id="path261-0"/>
    <path d="M165 32v7c1 1-2 0-3-2 0 0-1-3 3-5" id="path265-5"/>
    <path d="M163 50v-1s4-1 2-4c0 0-1-3-4-3 0 0-4 2-1 6l-2 2h5" id="path255-3"/>
    <path d="m160 48 2 1h1" id="path257-8"/>
    <path d="m146 50 2-1" id="path1454-1"/>
  </g>
  <g id="ColLaserMicrodissected-5dPostInfected" transform="translate(-5 -9)" fill="none" stroke="#000" stroke-miterlimit="10" stroke-width=".1">
    <path d="m200 24-6-1h-17s-2 1 0 2l1 1 3-1h19v-1" id="path2159"/>
    <path d="m182 23 1 2" id="path2161"/>
    <path d="M189 23v2" id="path2163"/>
    <path d="M194 23v2" id="path2165"/>
    <path d="M190 25h-9l-3 1-1-1h-1v8l2 1s1 1 3-1h2c1 0 2 2 4 0h4l2 1 1-1h3l1-1 1 1 1-1v-7h-5l-1 1s-1-2-3 0l-1-1" id="path2171"/>
    <path d="M198 25v7" id="path2173"/>
    <path d="M187 25v8" id="path2175"/>
    <path d="m183 33 1-8" id="path2177"/>
    <path d="M181 25v8" id="path2179"/>
    <path d="M178 26v8" id="path2181"/>
    <path d="M191 33v-7" id="path2183"/>
    <path d="M194 33v-7" id="path2185"/>
    <path d="M200 22h-24v3h1c-2-1 0-2 0-2h17l6 1v-2" id="path2191"/>
    <path d="M181 39c2-3 1-4 1-4-1-2-3 0-3 0l-2 1v2s1 3 4 1" id="path2195"/>
    <path d="M182 36s1-3 3-2h2l2-1 4 1s2 3-1 5l-3-1s-4 3-7-2" id="path2197"/>
    <path d="M187 34s4 2 2 4" id="path2199"/>
    <path d="M181 45s-4-2 0-6c0 0 2-2 4 0 0 0 3 4-2 6 0 0 2 2 0 4h2-5s-4-2 1-4" id="path2203"/>
    <path d="M181 45h2" id="path2205"/>
    <path d="M195 36s-5 2-1 6c0 0 4 0 3-4 0 0 0-2-2-2" id="path2209"/>
    <path d="m193 34 1-1h3l1 1-1 2s-2 1-4-1v-1" id="path2211"/>
    <path d="M200 32v7c1 0-2 0-3-2 0 0-1-3 3-5" id="path2213"/>
    <path d="M198 49s3-1 2-4c0 0-1-3-5-3 0 0-4 2 0 6l-2 1h5" id="path2215"/>
    <path d="M195 48h2l1 1" id="path2217"/>
    <path d="M180 49h3" id="path2221"/>
  </g>
  <g id="eds16LaserMicrodissected-5dPostInfected" transform="translate(-5 -9)" fill="none" stroke="#000" stroke-miterlimit="10" stroke-width=".1">
    <path d="M200 59h-20v2h4l1-1 1 1h3l1-1 2 1 3-1 3 1h2v-2" id="path2227"/>
    <path d="M185 59v1" id="path2229"/>
    <path d="M190 59v1" id="path2231"/>
    <path d="M195 59v1" id="path2233"/>
    <path d="m192 61-2-1-1 1h-3l-1-1-1 1h-5v6l2 1h5c0-1 1 1 3-1h3l2 1 1-1h5v-6h-4l-1 1s-1-2-3-1" id="path2239"/>
    <path d="M198 61v6" id="path2241"/>
    <path d="M189 61v6" id="path2243"/>
    <path d="M186 68v-7" id="path2245"/>
    <path d="M184 61v7" id="path2247"/>
    <path d="M181 61v7" id="path2249"/>
    <path d="M192 67v-6" id="path2251"/>
    <path d="M195 67v-5" id="path2253"/>
    <path d="M200 58h-21v3h1v-2h20v-1" id="path2259"/>
    <path d="M183 72c3-2 2-3 2-3-1-2-3 0-3 0l-2 1v2s1 2 3 0" id="path2263"/>
    <path d="M185 70s0-2 2-2l2 1 1-1h4s1 3-1 4h-3s-3 3-5-2" id="path2265"/>
    <path d="M189 69s3 1 1 3" id="path2267"/>
    <path d="M183 77s-3-1 0-5h4s3 4-2 6c0 0 2 1 0 3h2-4s-3-2 0-4" id="path2271"/>
    <path d="m183 77 2 1" id="path2273"/>
    <path d="M196 70s-5 2-1 5c0 0 3 0 3-3l-2-2" id="path2277"/>
    <path d="m194 68 1-1h2l1 1-1 2s-2 1-3-1v-1" id="path2279"/>
    <path d="M200 67v6l-3-2s0-3 3-4" id="path2281"/>
    <path d="M198 81s3-1 2-4c0 0-1-2-4-2 0 0-4 2 0 5l-2 1h4" id="path2283"/>
    <path d="m196 80 1 1h1" id="path2285"/>
    <path d="M183 81h2" id="path2289"/>
  </g>
  <g id="g2297" transform="translate(-5 -9)">
    <path d="m191 20 2 4s-2 1-3-1l1-3" fill="#595959" id="path2295" stroke="#000" stroke-miterlimit="10" stroke-width=".1"/>
  </g>
  <g id="g2301" transform="translate(-5 -9)">
    <path d="M192 57s2 1 2 3l-2-1v-2" fill="#595959" id="path2299" stroke="#000" stroke-miterlimit="10" stroke-width=".1"/>
  </g>
  <g id="ColWholeLeafAmplified-5dUninfected" transform="translate(-5 -9)">
    <path d="M149 96c0-3 2-6 3-8l1 1c3 3 4 7 2 11l-1 9v2m-1 0v-4l-1-3-1-3-2-5m4-1v7" fill="#fff" id="path2948" stroke="#000" stroke-linecap="round" stroke-linejoin="round" stroke-miterlimit="10" stroke-width=".1"/>
  </g>
  <g id="ColLeafScrape-5dPostInfected" transform="translate(-5 -9)" fill="none" stroke="#000" stroke-miterlimit="10" stroke-width=".1">
    <path d="M183 119h-12v1h12v-1" id="path2728"/>
    <path d="M174 119v1" id="path2730"/>
    <path d="M177 119v1" id="path2732"/>
    <path d="m179 119 1 1" id="path2734"/>
    <path d="M178 120h-7v4h7l1 1 1-1h3v-4h-3v1h-2v-1" id="path2740"/>
    <path d="m181 120 1 2-1 2" id="path2742"/>
    <path d="M176 120v4" id="path2744"/>
    <path d="m174 124 1-4" id="path2746"/>
    <path d="M173 120v4" id="path2748"/>
    <path d="M172 120v4" id="path2750"/>
    <path d="M178 124v-3" id="path2752"/>
    <path d="M180 124v-3" id="path2754"/>
    <path d="M183 119h-12v1-1h12" id="path2760"/>
    <path d="m173 127 1-2h-2l-1 1v1h2" id="path2764"/>
    <path d="m174 125 1-1 1 1 1-1 2 1s1 1-1 2l-1-1s-2 2-3-1" id="path2766"/>
    <path d="m176 125 1 1" id="path2768"/>
    <path d="M173 130s-2-1 0-3h2s2 2-1 3v2h1-2s-2-1 0-2" id="path2772"/>
    <path d="M173 130h1" id="path2774"/>
    <path d="M180 126s-3 0 0 2c0 0 2 0 1-2h-1" id="path2778"/>
    <path d="m179 125 1-1h1v1h-2" id="path2780"/>
    <path d="M183 124v3l-2-1s0-2 2-2" id="path2782"/>
    <path d="M181 132s2-1 1-2c0 0 0-2-2-2 0 0-2 1 0 3l-1 1h2" id="path2784"/>
    <path d="m180 131 1 1c0-1 0 0 0 0" id="path2786"/>
    <path d="M173 132h1" id="path2790"/>
    <path d="M182 119h8l-1 1-3-1h-4" id="path2796"/>
    <path d="M183 120h7v-1l-2 1s1-1-2-1h-3v1" id="path2798"/>
    <path d="M186 120v-1" id="path2800"/>
    <path d="M183 124v-4h6v4h-6" id="path2808"/>
    <path d="M184 120v4" id="path2810"/>
    <path d="M186 120v4" id="path2812"/>
    <path d="M188 120v4" id="path2814"/>
    <path d="m193 119 1 1h11v-1h-12" id="path2822"/>
    <path d="M205 120h-11l-1-1v1h1l1 1 1-1h1l1 1h1l1-1 1 1h1l1-1 1 1h1v-1" id="path2824"/>
    <path d="M205 121h-1l-1-1v1h-2l-1-1-1 1h-1l-1-1h-1l-1 1-1-1h-1v4h5v1h7v-4" id="path2838"/>
    <path d="M195 121v1l-1 2" id="path2840"/>
    <path d="M196 121v3" id="path2842"/>
    <path d="M198 121v3" id="path2844"/>
    <path d="M199 121v4" id="path2846"/>
    <path d="M201 121v4" id="path2848"/>
    <path d="m203 121-1 2v2" id="path2850"/>
    <path d="M204 121v4" id="path2852"/>
    <path d="M200 136h5v1h-5v-1m-2 1h-13v-1h11v1-1h2v1m-15 0h-12v-1h11l1 1" id="path2864"/>
    <path d="M172 136v1" id="path2866"/>
    <path d="M175 136v1" id="path2868"/>
    <path d="M178 136v1" id="path2870"/>
    <path d="M180 136v1" id="path2872"/>
    <path d="m185 136 1 1" id="path2874"/>
    <path d="M189 136v1" id="path2876"/>
    <path d="M191 136v1" id="path2878"/>
    <path d="M193 136v1" id="path2880"/>
    <path d="M198 136v1" id="path2884"/>
    <path d="M201 136v1" id="path2886"/>
    <path d="M202 136v1" id="path2888"/>
    <path d="M204 136v1" id="path2890"/>
    <path d="M183 137h-12v1h12v-1m17 1h5l1-1h-6v1m-2-1h-13v1h13v-1" id="path2862"/>
    <path d="m179 132 1 1 1-1" id="path2954"/>
    <path d="M175 135h4l-1 1h-4l1-1" id="path2956"/>
    <path d="M177 135v1" id="path2958"/>
    <path d="m175 132 1 1 2 1 2-1v2s-1 1-2-1l-1 1-1-1s-3 1-4-1l1-1" id="path2962"/>
    <path d="M176 133v1" id="path2964"/>
    <path d="M182 124h1s3 1 0 3h-1" id="path2970"/>
    <path d="M184 126s2-2 2 1c0 0 0 2-2 1v-2" id="path2972"/>
    <path d="M194 125h-3c-1-2-3 0-3 0 0 4 3 2 3 2-1 1 1 1 1 1v3l-2 1v1h-3l-1-1v-2l1-1 1-2v-2c0-2-2 0-2 0v-1h-2v1h2l1 1v1h-1v1l-1 2v2h1s-1 3 1 2l3 1v-1h1v-1l1-1s1 0 0 0v-1l1-1v-2h-1v-2h2v-1" id="path2974"/>
    <path d="m192 127-1-1v-1" id="path2976"/>
    <path d="M191 126v1" id="path2978"/>
    <path d="M192 130h1" id="path2980"/>
    <path d="m191 133-1-1" id="path2986"/>
    <path d="M190 133v1" id="path2988"/>
    <path d="m188 133-1 1" id="path2990"/>
    <path d="M185 130h1" id="path2994"/>
    <path d="m186 128 1 1" id="path2996"/>
    <path d="M187 127h1" id="path2998"/>
    <path d="M188 135h-1v1h5s2 0 0-2l2-1h1l1-1h2v-1h2v-1h2l1 1v2l-1 2-1 1h1l1-1v1h1v-1s2-1 0-2c0 0 2-2 0-2v-2s2-1 0-3v-1h-1v1s-3-2-4 0c0 0 0 2 2 2 0 0 2 0 2-2v1l-1 1v1s0-2-2-1l-1-1v-2h-2l-1-1h-2v3h-1s0-1 0 0h-1v1h1v1s2-1 1-2l3-1 1 1s-1 1 1 2l-1 2h-3l-1 1-1 1h-1v1s-2-1-2 1h-2" id="path3006"/>
    <path d="M204 129h-2" id="path3008"/>
    <path d="M203 131h1" id="path3010"/>
    <path d="M203 133h1" id="path3012"/>
    <path d="M202 135h1" id="path3014"/>
    <path d="m203 136 1-1" id="path3016"/>
    <path d="M202 129v1" id="path3018"/>
    <path d="M200 128v2" id="path3020"/>
    <path d="M198 127h1" id="path3024"/>
    <path d="M197 125v1" id="path3026"/>
    <path d="M196 131v1" id="path3030"/>
    <path d="m194 132 1 1" id="path3032"/>
    <path d="M193 133h1" id="path3034"/>
    <path d="M190 135v1" id="path3038"/>
    <path d="M188 135v1" id="path3040"/>
    <path d="m203 127 1-1" id="path3042"/>
  </g>
  <g id="ColWholeLeafAmplified-5dPostInfected" transform="translate(-5 -9)">
    <path d="M186 96c0-3 1-6 3-8l1 1c3 3 4 7 2 11l-2 9v2m0 0v-4l-1-3-2-3-1-5m4-1-1 3v4" fill="#fff" id="path3664" stroke="#000" stroke-linecap="round" stroke-linejoin="round" stroke-miterlimit="10" stroke-width=".1"/>
  </g>
  <g id="g2840" transform="translate(-5 -9)" fill-rule="evenodd" stroke="#000" stroke-miterlimit="10" stroke-width="0">
    <path d="M48 148a8 8 0 0 1 0-16v16" fill="#000" id="path2199-1"/>
    <path d="M48 132a8 8 0 0 1 0 16v-16" fill="#fff594" id="circle2201"/>
    <path d="M53 140a6 6 0 1 1-11 0 6 6 0 0 1 11 0" fill="#fff" id="circle2203"/>
  </g>
  <g id="outlines" transform="translate(-5 -9)">
    <path d="M99 83 46 46 20 83" fill="none" id="path3980" stroke="#000" stroke-miterlimit="10" stroke-width=".1"/>
  </g>
  <g id="g382" transform="translate(-5 -9)">
    <path d="M48 83H20v4h1v-3h19l8 1v-2" fill="#9c6" id="path125" stroke="#000" stroke-miterlimit="10" stroke-width=".1"/>
  </g>
  <g id="g56" transform="translate(-5 -9)">
    <path d="m48 85-8-1H21v3h5l2-1h1l4 1 2-1h6l4 1 3-1v-1" fill="#9c6" id="path32" stroke="#000" stroke-miterlimit="10" stroke-width=".1"/>
  </g>
  <g id="g49" transform="translate(-5 -9)" fill="#9c6" stroke="#000" stroke-miterlimit="10" stroke-width=".1">
    <path d="M28 84v2" id="path40"/>
    <path d="M35 84v2" id="path42"/>
    <path d="m40 84 1 2" id="path44"/>
  </g>
  <g id="g90" transform="translate(-5 -9)">
    <path d="M37 86h-2l-2 1-4-1h-1l-2 1h-6v8s1 2 3 1c0 0 1 2 3 0h3c0-1 2 1 4-1h4l2 1 2-1h3l1-1 1 1 2-1v-8l-3 1h-3l-1 1s-2-3-4-1v-1" fill="#9c6" id="path36" stroke="#000" stroke-miterlimit="10" stroke-width=".1"/>
  </g>
  <g id="g79" transform="translate(-5 -9)" fill="#9c6" stroke="#000" stroke-miterlimit="10" stroke-width=".1">
    <path d="M45 87v7" id="path58"/>
    <path d="M33 87v8" id="path64"/>
    <path d="M29 96V86" id="path66"/>
    <path d="M26 87v9" id="path68"/>
    <path d="M23 87v9" id="path70"/>
    <path d="M37 95v-8" id="path119"/>
    <path d="M41 95v-7" id="path121"/>
  </g>
  <g id="g445" transform="translate(-5 -9)" fill="#9c6" stroke="#000" stroke-miterlimit="10" stroke-width=".1">
    <path d="M26 101c3-2 1-4 1-4-1-2-3 0-3 0l-2 2v2s1 3 4 0" id="path237"/>
    <path d="M42 99s-6 2-1 6c0 0 5 0 4-4 0 0-1-2-3-2" id="path259"/>
    <path d="m39 96 2-1h3l1 1-1 2s-3 2-4 0l-1-2" id="path261"/>
    <path d="M48 94v8c0 1-3 0-4-2 0 0-1-4 4-6" id="path265"/>
    <path d="m25 114 3-1" id="path1454"/>
  </g>
  <g id="g315" transform="translate(-5 -9)" fill="#9c6" stroke="#000" stroke-miterlimit="10" stroke-width=".1">
    <path d="M28 98s0-2 3-2l2 1 2-1h4s2 4-1 6l-3-1s-4 4-7-3" id="path241"/>
    <path d="M33 97s5 2 2 4" id="path243"/>
  </g>
  <g id="g307" transform="translate(-5 -9)" fill="#9c6" stroke="#000" stroke-miterlimit="10" stroke-width=".1">
    <path d="M26 108s-4-2 0-7c0 0 3-1 5 1 0 0 3 4-3 7 0 0 3 2 0 4l3 1h-6s-4-3 1-6" id="path245"/>
    <path d="m26 108 2 1" id="path247"/>
  </g>
  <g id="g311" transform="translate(-5 -9)" fill="#9c6" stroke="#000" stroke-miterlimit="10" stroke-width=".1">
    <path d="M45 114v-1s4-1 2-5c0 0-1-3-5-3 0 0-4 2 0 7l-2 2h5" id="path255"/>
    <path d="m42 112 2 1h1" id="path257"/>
  </g>
  <g id="g797" transform="translate(-5 -9)">
    <path d="M47 83h19v2h-4l-7-1-7 1-1-1" fill="#9c6" id="path32-5" stroke="#000" stroke-miterlimit="10" stroke-width=".1"/>
  </g>
  <g id="g161" transform="translate(-5 -9)">
    <path d="M48 86h13l2 1h3l-1-2h-4s1-1-6-1c0 0-3-1-7 1v1" fill="#9c6" id="path127" stroke="#000" stroke-miterlimit="10" stroke-width=".1"/>
  </g>
  <g id="g155" transform="translate(-5 -9)" fill="#9c6" stroke="#000" stroke-miterlimit="10" stroke-width=".1">
    <path d="M55 86v-2" id="path129"/>
    <path d="M61 85v1" id="path131"/>
  </g>
  <g id="g151" transform="translate(-5 -9)">
    <path d="M48 94v-8h13l2 1v8s-3 1-3-1c0 0-2 2-5 1h-3s-3 1-4-1" fill="#9c6" id="path133" stroke="#000" stroke-miterlimit="10" stroke-width=".1"/>
  </g>
  <g id="g144" transform="translate(-5 -9)" fill="#9c6" stroke="#000" stroke-miterlimit="10" stroke-width=".1">
    <path d="M52 86v9" id="path135"/>
    <path d="M55 86v9" id="path137"/>
    <path d="M59 86s2 5 1 8" id="path139"/>
  </g>
  <g id="g596" transform="translate(-5 -9)">
    <path d="m71 84 3 1h25v-2H71v1" fill="#9c6" id="path165" stroke="#000" stroke-miterlimit="10" stroke-width=".1"/>
  </g>
  <g id="g201" transform="translate(-5 -9)">
    <path d="M99 85H74l-3-1v3h2l1-1 2 1h12l2 1h4l1-1 3 1h1v-3" fill="#9c6" id="path163" stroke="#000" stroke-miterlimit="10" stroke-width=".1"/>
  </g>
  <g id="g179" transform="translate(-5 -9)" fill="#9c6" stroke="#000" stroke-miterlimit="10" stroke-width=".1">
    <path d="M74 85v1" id="path167"/>
    <path d="M81 85v2" id="path169"/>
    <path d="M88 85v2" id="path171"/>
    <path d="M95 85v2" id="path173"/>
  </g>
  <g id="g235" transform="translate(-5 -9)">
    <path d="M99 88h-1l-3-1-1 1h-4l-2-1H76l-2-1-1 1v1l-1 7s1 2 2 1l1-1s2 2 4 1h4v1h8l3-1s1 2 3 1h2v-9" fill="#9c6" id="path191" stroke="#000" stroke-miterlimit="10" stroke-width=".1"/>
  </g>
  <g id="g224" transform="translate(-5 -9)" fill="#9c6" stroke="#000" stroke-miterlimit="10" stroke-width=".1">
    <path d="M76 87v4l-1 4" id="path203"/>
    <path d="m80 87-1 9" id="path205"/>
    <path d="M83 87v9" id="path207"/>
    <path d="m87 87-1 10" id="path209"/>
    <path d="M90 88v9" id="path211"/>
    <path d="M94 88v8" id="path213"/>
    <path d="M98 88v3l-1 6" id="path215"/>
  </g>
  <g id="g570" transform="translate(-5 -9)">
    <path d="M101 125H90l-1 1h-6v-1l-1 1h-3v-1l-1 1h-5v-1l-1 1h-4v-1l-1 1h-5v-1l-1 1h-5l-1-1-1 1h-5l-1-1v1h-6v-1l-1 1h-4l-1-1H20v3h81v-3" fill="#9c6" id="path482" stroke="#000" stroke-miterlimit="10" stroke-width=".1"/>
  </g>
  <g id="g550" transform="translate(-5 -9)">
    <path d="M20 123h3l1 1 1-1h5l1 1 4-1 1 1 1-1h4l1 1h6l1-1h5l1 1 1-1h5l1 1 1-1h4l1 1h11l1-1h2v1l1-1h7v1h11v1H90l-1 1h-6v-1l-1 1h-3v-1l-1 1h-5v-1l-1 1h-4v-1l-1 1h-5v-1l-1 1h-5l-1-1-1 1h-5l-1-1v1h-6v-1l-1 1h-4l-1-1H20v-2" fill="#9c6" id="path514" stroke="#000" stroke-miterlimit="10" stroke-width=".1"/>
  </g>
  <g id="g532" transform="translate(-5 -9)" fill="#9c6" stroke="#000" stroke-miterlimit="10" stroke-width=".1">
    <path d="M24 124v1" id="path484"/>
    <path d="M31 124v1" id="path486"/>
    <path d="M36 124v1" id="path488"/>
    <path d="M42 124v1" id="path490"/>
    <path d="M48 124v1" id="path492"/>
    <path d="M55 124v1" id="path494"/>
    <path d="M62 124v1" id="path496"/>
    <path d="M68 124v1" id="path498"/>
    <path d="M73 124v1" id="path500"/>
    <path d="M79 124v1" id="path502"/>
    <path d="m82 124 1 1" id="path504"/>
    <path d="M90 124v1" id="path506"/>
    <path d="m93 124 1 1" id="path508"/>
    <path d="M97 124v1" id="path510"/>
  </g>
  <g id="g1199" transform="translate(-5 -9)" fill="#9c6" stroke="#000" stroke-miterlimit="10" stroke-width=".1">
    <path d="m41 113-1 1 2 2s2 1 3-2v-1" id="path279"/>
    <path d="M30 113c0 1 3 1 3 4h5l4-1s3 2 0 4c0 0-3 2-4-1 0 0 0 2-3 2 0 0-2 0-2-2 0 0-7 2-9-2l1-3" id="path271"/>
    <path d="M33 117v2" id="path251"/>
    <path d="M38 118v1" id="path253"/>
  </g>
  <g id="g296" transform="translate(-5 -9)" fill="#9c6" stroke="#000" stroke-miterlimit="10" stroke-width=".1">
    <path d="M30 120s3-1 4 1h5s1 2-1 2l-2 1-1-1h-1l-3 1-1-1h-1s-2-2 1-3" id="path281"/>
    <path d="M34 121v2" id="path283"/>
  </g>
  <g id="g783" transform="translate(-5 -9)" fill="#9c6" stroke="#000" stroke-miterlimit="10" stroke-width=".1">
    <path d="m46 95 2-1s7 4 0 8h-2" id="path267"/>
    <path d="M51 100s5-5 5 2c0 0-1 4-5 3 0 0-3-2 0-5" id="path574"/>
  </g>
  <g id="g690" transform="translate(-5 -9)">
    <path d="M74 97c-3-3-6 1-6 1-3-6-7 0-7 0-1 9 5 3 5 3 0 4 3 3 3 3-2 2 0 4 0 4-2 2 0 3 0 3-3 1-3 4-3 4l-2 1-4 1c0-2-1-1-1-1l-2-1c1-1-1-2-1-2 3-2 0-3 0-3v-1l1-1 1-2c5-3 2-5 2-5 2-2 1-4 1-4 0-4-5 0-5 0l-1-2h-3l-1 2s1 3 4 1c0 0 0 2 3 3l-2 1v3s-3-1-3 3l1 2s-3 3-2 4l3 1s-1 5 4 3c0 0 2 3 5 2l2-2 1-1c2 0 1-1 1-1s2 0 3-2v-1l-1-2s2 0 1-2c0 0 2-1 1-3v-1c-1 1-1-1-1-1h-1v-1l-1-2h3l2-1v-3" fill="#9c6" id="path572" stroke="#000" stroke-miterlimit="10" stroke-width=".1"/>
  </g>
  <g id="g673" transform="translate(-5 -9)" fill="#9c6" stroke="#000" stroke-miterlimit="10" stroke-width=".1">
    <path d="m69 101-2-1 1-2" id="path618"/>
    <path d="m67 100-1 1" id="path620"/>
    <path d="m69 108 2 1" id="path622"/>
    <path d="M69 104h1" id="path624"/>
    <path d="M69 111h1" id="path626"/>
    <path d="m68 116-2-1" id="path628"/>
    <path d="M64 116s0 2 2 2" id="path630"/>
    <path d="m60 117-1 1" id="path632"/>
    <path d="m55 115 1-2" id="path634"/>
    <path d="M54 110h2" id="path636"/>
    <path d="m56 105 2 1" id="path638"/>
    <path d="M58 101h2" id="path640"/>
    <path d="m56 97-1 1" id="path642"/>
  </g>
  <g id="g740" transform="translate(-5 -9)">
    <path d="M61 121s0-4-4-1c0 0-1 3 1 3l3-1v1l1 1 2-1 1-1 2 1 1 1h1s4-2 1-5l3-2s3 1 3-1c0 0 3 0 4-2 0 0 2 3 4 0v-2l3-1s2-1 1-3h4s0 3 3 3c0 0-3 4 1 6 0 0-3 0-2 4 0 0-2-1-3 3h2l2-2h1s-2 2 0 2h2s2-1 0-3c0 0 5-2 0-5 0 0 4-5-1-5v-3s6-3 1-7c0 0 3-2 0-4h-3l-1 2s-5-5-7 0c0 0-1 4 3 5 0 0 5 0 5-4l1 1s-3 1-3 3c0 0-1 2 1 3h-1s0-4-6-3c0 0 1-2-2-3 0 0 3-2 1-4h-3l-1 1-2-1-1-1s-1 1-4-1c0 0-2 2-1 6h-3l-1 2v1h1s0 2 1 1v1s4 0 3-4c0 0 4 1 6-2 0 0 1 2 3 2 0 0-3 3 1 5l-2 4s-1-1-3 1c0 0 0-3-3-1l-2 3s-2-1-2 1h-3s-2 1-1 3c0 0-4-1-4 3h-4" fill="#9c6" id="path576" stroke="#000" stroke-miterlimit="10" stroke-width=".1"/>
  </g>
  <g id="g716" transform="translate(-5 -9)" fill="#9c6" stroke="#000" stroke-miterlimit="10" stroke-width=".1">
    <path d="M97 108s-1-2-3-2" id="path598"/>
    <path d="M95 111h2" id="path600"/>
    <path d="m96 117 2-1" id="path602"/>
    <path d="m94 121 1 1" id="path604"/>
    <path d="m96 122 2-1" id="path606"/>
    <path d="m93 107-1 1" id="path608"/>
    <path d="M87 104s-2 3 1 4" id="path610"/>
    <path d="m85 107 1-1" id="path612"/>
    <path d="m84 102 1-1" id="path614"/>
    <path d="m82 98-1 2" id="path616"/>
    <path d="m83 111 1 1" id="path644"/>
    <path d="M80 112v2" id="path646"/>
    <path d="M75 114s2 0 1 2" id="path648"/>
    <path d="M73 115v2" id="path650"/>
    <path d="m69 118 1 1" id="path652"/>
    <path d="M65 121v1" id="path654"/>
    <path d="M61 121v1" id="path656"/>
    <path d="M96 101h2" id="path658"/>
    <path d="m74 101 1 1" id="path692"/>
    <path d="m94 99 1 1" id="path694"/>
  </g>
  <g id="g2946" transform="translate(-5 -9)">
    <path d="m24 37 1-2 3-3c1-1 2-2 5-1l1 1 2 2 3 2-3-3-1-3v-2l3 3v2l1 1v-1l1 1v2l1-2 1-3 2-2 1 1c1 1 0 1-1 3l-2 2 3-2 4-2 5 1-1 1-1 1 2 2 3 2-5 1-3-3-4-1-4 1v1h4l2 2c-1 0-3 2-4 0l-2-2 2 3c1 0 4 1 5 3v3s-2 2-5-2l-1-4-2-2h-1l-2 1-4 3c-1 1-2 1-4-1v-2c1-1 2-3 4-3l6 1s-2-2-6-2l-3 1c-1 0-2 2-4 1h-2" fill="none" id="path2944" stroke="#000" stroke-miterlimit="10" stroke-width=".1"/>
  </g>
  <g id="g2942" transform="translate(-5 -9)" fill="none" stroke="#000" stroke-miterlimit="10" stroke-width=".1">
    <path d="M38 50v-3c-1-2 1-3 1-3" id="path2896"/>
    <path d="m42 34 2-3" id="path2898"/>
    <path d="m44 38-2-1" id="path2900"/>
    <path d="m35 38-3 1" id="path2902"/>
    <path d="m37 38-4 2" id="path2904"/>
    <path d="M34 33c-4 0-7 2-7 2" id="path2906"/>
    <path d="m38 33-2-2" id="path2908"/>
    <path d="M40 34v1" id="path2910"/>
    <path d="m45 44-2-3" id="path2912"/>
    <path d="m42 45-1-1-1-3v-3" id="path2916"/>
    <path d="M38 64v-4l1-3v1l1-2v-4l1-3-1-2-1-2v-7" id="path2918"/>
    <path d="m43 67-1-2v-2l-1-1v5l1 1v4-4h-1v-1l-1-3-1-5v-2" id="path2920"/>
    <path d="M43 57v-2l-1-3-1-1v4l-1 2v1l1 1v3" id="path2922"/>
    <path d="M40 41v5l1 2v3" id="path2924"/>
    <path d="m51 32-3 1h-3" id="path2926"/>
    <path d="m52 34-4-1" id="path2928"/>
    <path d="M39 37h1v-1l-1-2" id="path2930"/>
    <path d="M40 36v1" id="path2932"/>
    <path d="m46 34 7 2c-4-3-7-2-7-2" id="path2934"/>
  </g>
  <g id="labels" style="font-size:30px;font-family:sans-serif;fill:#000" transform="translate(-5 -9)">
    <text id="text3976" style="font-size:2.1167px;line-height:1.25;font-family:Arial;text-align:center;letter-spacing:0;word-spacing:0;text-anchor:middle;fill:#000;stroke-width:.013861" x="58.1" y="138.9" xml:space="preserve">             <tspan id="tspan3974" style="text-align:start;text-anchor:start;stroke-width:.013861" x="57" y="138.9">5 Day uninfected</tspan>             <tspan id="tspan3978" style="text-align:start;text-anchor:start;stroke-width:.013861" x="57" y="141.6">5 Day post infected</tspan>        </text>
    <text id="text3984" style="font-size:2.1167px;line-height:1.25;font-family:Arial;text-align:end;letter-spacing:0;word-spacing:0;text-anchor:end;fill:#000;stroke-width:.013861" x="108.8" y="33" xml:space="preserve">             <tspan id="tspan3982" style="font-size:3.5278px;text-align:end;text-anchor:end;stroke-width:.013861" x="138.8" y="33">Col laser</tspan>             <tspan id="tspan3986" style="font-size:3.5278px;text-align:end;text-anchor:end;stroke-width:.013861" x="138.8" y="37.4">microdissected</tspan>        </text>
    <text id="text3992" style="font-size:2.1167px;line-height:1.25;font-family:Arial;text-align:end;letter-spacing:0;word-spacing:0;text-anchor:end;fill:#000;stroke-width:.013861" x="138.8" y="64.5" xml:space="preserve">             <tspan id="tspan3988" style="font-size:3.5278px;text-align:end;text-anchor:end;stroke-width:.013861" x="138.8" y="64.5">                 <tspan id="tspan4006" style="font-style:italic;font-family:Arial;text-align:end;text-anchor:end">eds16</tspan> laser</tspan>             <tspan id="tspan3990" style="font-size:3.5278px;text-align:end;text-anchor:end;stroke-width:.013861" x="138.8" y="68.9">microdissected</tspan>        </text>
    <text id="text3998" style="font-size:2.1167px;line-height:1.25;font-family:Arial;text-align:end;letter-spacing:0;word-spacing:0;text-anchor:end;fill:#000;stroke-width:.013861" x="110.1" y="96.5" xml:space="preserve">             <tspan id="tspan3994" style="font-size:3.5278px;text-align:end;text-anchor:end;stroke-width:.013861" x="140.1" y="96.5">Col whole leaf</tspan>             <tspan id="tspan3996" style="font-size:3.5278px;text-align:end;text-anchor:end;stroke-width:.013861" x="140.1" y="100.9">amplified</tspan>        </text>
    <text id="text4004" style="font-size:2.1167px;line-height:1.25;font-family:Arial;text-align:end;letter-spacing:0;word-spacing:0;text-anchor:end;fill:#000;stroke-width:.013861" x="109" y="128" xml:space="preserve">             <tspan id="tspan4002" style="font-size:3.5278px;text-align:end;text-anchor:end;stroke-width:.013861" x="139" y="128">Col leaf scrape</tspan>        </text>
    <text id="text4012" style="font-size:2.1167px;line-height:1.25;font-family:Arial;text-align:end;letter-spacing:0;word-spacing:0;text-anchor:end;fill:#000;stroke-width:.013861" x="125.5" y="152" xml:space="preserve">             <tspan id="tspan4010" style="font-size:3.5278px;text-align:start;text-anchor:start;stroke-width:.013861" x="140.5" y="152">5 Day uninfected</tspan>        </text>
    <text id="text4016" style="font-size:2.1167px;line-height:1.25;font-family:Arial;text-align:end;letter-spacing:0;word-spacing:0;text-anchor:end;fill:#000;stroke-width:.013861" x="157.8" y="152" xml:space="preserve">             <tspan id="tspan4014" style="font-size:3.5278px;text-align:start;text-anchor:start;stroke-width:.013861" x="172.8" y="152">5 Day post infected</tspan>        </text>
    <text id="text8052" style="font-size:2.1167px;line-height:1.25;font-family:Arial;text-align:end;letter-spacing:0;word-spacing:0;text-anchor:end;fill:#000;stroke-width:.037044" x="39.2" y="82" xml:space="preserve">             <tspan id="tspan8050" style="text-align:start;text-anchor:start;stroke-width:.037044" x="39.2" y="82">*Haustorial complex</tspan>        </text>
  </g>
  <g id="g8056" transform="translate(-5 -9)">
    <path d="m179 118 1 2h-2l1-2" fill="#595959" id="path8054" stroke="#000" stroke-miterlimit="10" stroke-width=".1"/>
  </g>
  <g id="HC" transform="translate(-5 -9)">
    <path d="M38 81s2 2 1 4c0 0-1 1-2-1l1-3" fill="#595959" id="path2154" stroke="#000" stroke-miterlimit="10" stroke-width=".1"/>
  </g>
</svg>