<svg xmlns="http://www.w3.org/2000/svg" xml:space="preserve" id="BioticStressBotrytiscinerea_svg" x="0" y="0" version="1.1" viewBox="25 75 461 264" author="Provart Lab - Bio Analytic Resource, University of Toronto">
  <g id="Botrytis_cinerea" transform="translate(-6 -6)">
    <g id="Labels">
      <text id="text2" font-family="HelveticaNeue-Italic" font-size="18" transform="translate(33 97)">Botrytis cinerea</text>
      <text id="text4" font-family="HelveticaNeue-Thin" font-size="12" transform="translate(247 164)">Mock Treatment</text>
      <text id="text6" font-family="HelveticaNeue-Thin" font-size="10" transform="translate(239 177)">(Potato Dextrose Broth)</text>
      <text id="text8" font-family="HelveticaNeue-Thin" font-size="12" transform="translate(251 266)">Conidiospore</text>
      <text id="text10" font-family="HelveticaNeue-Thin" font-size="10" transform="translate(225 279)">(Diluted to 5X10^5 spores/ml)</text>
      <text id="text12" font-family="HelveticaNeue-Thin" font-size="10" transform="translate(370 342)">18 hours</text>
      <text id="text14" font-family="HelveticaNeue-Thin" font-size="10" transform="translate(450 343)">48 hours</text>
    </g>
    <g id="infoButton_Botrytis_cinerea">
      <circle id="circle17" cx="184.2" cy="91.2" r="9.2" fill="#ccc"/>
      <text id="text19" fill="#fff" font-family="HelveticaNeue-Bold" font-size="12" transform="translate(182 96)">i</text>
    </g>
    <g id="treatmentInfographic">
      <g id="root" fill="none" stroke="#000" stroke-miterlimit="10" stroke-width=".5">
        <path id="path22" d="M110 296v-6c-1-3 1-6 1-6"/>
        <path id="path24" d="m118 263 4-6"/>
        <path id="path26" d="M123 272c-1-2-4-2-4-2"/>
        <path id="path28" d="m104 271-7 4"/>
        <path id="path30" d="M108 271c-3 0-8 5-9 5"/>
        <path id="path32" d="M101 262c-8-1-14 4-14 4"/>
        <path id="path34" d="m109 262-3-5"/>
        <path id="path36" d="M113 264v2"/>
        <path id="path38" d="M125 284c-1-3-5-6-5-6"/>
        <path id="path42" d="m117 287-1-4-2-5s0-1 0 0v-4l1-1v-1"/>
        <path id="path44" d="m110 325 1-3-1-5c0-2 2-5 3-5v-6l1-4v-1l1-7-1-4c-1 0-2 0-2-4v-7l1-7"/>
        <path id="path46" d="m120 331-1-3h-1v-4c0-2-1-3-2-3v2c0 1-1 4 1 9l1 2 1 7-1-1-1-6v-2l-2-7c0-4 0-6-2-10v-3"/>
        <path id="path48" d="M121 311c0-3-1-4-2-5v-5c0-2-2-3-2-3l-1 3-1 5v5l-1 1 1 4 1 2v1l1 2"/>
        <path id="path50" d="m114 278-1 4 1 4 1 2 2 4v6"/>
        <path id="path52" d="m136 260-6 1h1l-7 1"/>
        <path id="path54" d="m138 263-7-2"/>
        <path id="path56" d="M112 270h1l1-2-1-1-1-4"/>
        <path id="path58" d="M114 268v2"/>
        <path id="path60" d="m127 263 14 5c-8-7-15-5-15-5z"/>
        <path id="line62" d="m115 267-1 1"/>
      </g>
      <path id="rosette" fill="none" stroke="#000" stroke-miterlimit="10" stroke-width=".5" d="m81 270 2-4 7-7c2-2 4-3 9-1l3 2 3 3 7 4-6-5c-2-1-3-2-3-6l1-4 6 6 1 3 1 2v-2l2 2 1 3-1 2 3-5 1-6 4-3c1 0 3-1 3 2l-2 5-4 4-1 1 6-4s4-5 9-5c3-1 8 1 9 2l-2 1-2 3 5 4 6 4s-6 3-9 2l-8-5c-2-2-4-3-8-3-3 1-7 2-8 4h-1c1 0 9-1 10 1l2 3c0 1-4 4-8 0-1-1-2-3-4-3l6 6c2 1 8 2 9 6l1 6c-1 1-5 3-11-4l-3-8-2-4h-2c-1 0-4 0-5 2l-8 6c-2 1-4 2-8-2v-5c2-2 4-5 7-5l13 3c-1-1-4-6-12-6l-6 2c-2 1-6 4-10 3h-3z"/>
      <g id="eyeDropper">
        <g id="g84">
          <path id="path70" fill="#fff" d="M127 256v-39h40v39h-40zm24-21h2v-1l-1-1h1l5-6c2-1 2-4 0-5-1-2-3-2-5 0l-6 6-1-1h-1v2l1 1v1l-4 4-5 5-2 3v2h3l4-3 1-1 7-7h1v1zm-18 14v2h3v-2l-2-2-1 2z"/>
          <path id="path72" d="m150 234-7 7-1 1-5 2c-1 2-1 2-2 0v-1l2-3 4-5 4-5h1l-1-1v-2h1l1 1 6-6c1-2 4-2 5 0 2 1 1 3 0 5l-5 5-1 1v2h-1l-1-1zm-14 10 2-1 3-2 4-3-1-1h2v-2h1v-1h1l1-1-2-3-1 2-4 3-4 5-2 4zm19-17-4 4v1l1-1 4-4v-1l-1 1z"/>
          <path id="path74" d="M136 249v2h-3v-2l1-2 2 2zm-2 2h1c1-1 0-2-1-3l-1 3z"/>
          <path id="path76" fill="#fff" d="m138 240 4-5 4-3 1-1 2 2-1 1h-1v1h-1v2h-2l1 1-4 3-3 2-2 2-1-1c1-1 3-2 3-4zm6-6-4 4v1h1l4-5h-1z"/>
          <path id="path78" fill="#fff" d="m156 227-4 4-1 1v-1l4-4 1-1v1z"/>
          <path id="path80" fill="#fff" d="M135 251h-2l1-3c2 1 2 2 1 3z"/>
          <path id="path82" d="M145 234v1l-4 4h-1v-1l4-4h1z"/>
        </g>
      </g>
    </g>
    <g id="TimeSampleChart">
      <g id="darkCycle">
        <path id="path88" fill="none" stroke="#555" stroke-miterlimit="10" stroke-width="10" d="M114 176a16 16 0 0 1 0-33"/>
      </g>
      <g id="lightCycle">
        <path id="path91" fill="none" stroke="#fff69f" stroke-miterlimit="10" stroke-width="10" d="M114 143a16 16 0 0 1 0 33"/>
      </g>
    </g>
    <g id="Botrytis_cinerea_at_48_Hours" fill="#fff" stroke="#000" stroke-linecap="round" stroke-linejoin="round" stroke-miterlimit="10" stroke-width=".5">
      <path id="Treated_Botrytis_cinerea_at_48_Hours" d="M455 253c0-9 4-17 9-24l3 4c9 9 12 21 6 33-3 9-5 18-4 28v5m-2-1-1-12-2-8-5-10c-1-5-4-9-4-15m11-3-1 10 1 11"/>
      <path id="Control_Botrytis_cinerea_at_48_Hours" d="M455 162c0-10 4-17 9-25l3 4c9 9 12 21 6 33-3 9-5 18-4 28v5m-2-1-1-12-2-8-5-10c-1-4-4-9-4-15m11-3-1 11 1 10"/>
    </g>
    <g id="Botrytis_cinerea_18_Hours" fill="#fff" stroke="#000" stroke-linecap="round" stroke-linejoin="round" stroke-miterlimit="10" stroke-width=".5">
      <path id="Treated_Botrytis_cinerea_at_18_Hours" d="M378 252c0-9 5-17 10-24l3 3c9 10 11 21 6 34-4 9-6 18-5 27v5m-1-1-1-11c-1-3-1-6-3-8l-4-10c-2-5-5-10-4-15m11-3-1 10v10"/>
      <path id="Control_Botrytis_cinerea_at_18_Hours" d="M378 160c0-9 5-17 10-24l3 3c9 10 11 21 6 34-4 9-6 18-5 27v5m-1-1-1-11c-1-3-1-6-3-8l-4-10c-2-5-5-10-4-15m11-3-1 10v11"/>
    </g>
  </g>
  <text id="text127" x="99.3" y="156.3" font-family="HelveticaNeue" font-size="8">24hr</text>
</svg>