<svg version="1.1" id="BioticStressElicitors_svg" xmlns="http://www.w3.org/2000/svg" x="0" y="0" viewBox="25 20 800 575" xml:space="preserve"><g id="Botrytis_cinerea"><g id="Labels"><text transform="translate(32.931 97.314)" font-family="'HelveticaNeue-Italic'" font-size="18">Elicitors</text><text transform="translate(225.771 76.666)" font-family="'HelveticaNeue-Thin'" font-size="12">Infiltrated with Water</text><text transform="translate(241.713 134.167)" font-family="'HelveticaNeue-Thin'" font-size="12">Infiltrated with</text><text transform="translate(215.213 148.566)" font-family="'HelveticaNeue-Thin'" font-size="12">Bacterial-Derived Elicitor</text><text transform="translate(250.299 161.167)" font-family="'HelveticaNeue-Thin'" font-size="10">(1 uM flg22)</text><text transform="translate(241.713 209.167)" font-family="'HelveticaNeue-Thin'" font-size="12">Infiltrated with</text><text transform="translate(215.213 223.566)" font-family="'HelveticaNeue-Thin'" font-size="12">Bacterial-Derived Elicitor</text><text transform="translate(247.604 236.167)" font-family="'HelveticaNeue-Thin'" font-size="10">(10 uM HrpZ)</text><text transform="translate(369.884 574.667)" font-family="'HelveticaNeue-Thin'" font-size="10">1 hour</text><text transform="translate(449.438 575.667)" font-family="'HelveticaNeue-Thin'" font-size="10">4 hours</text><text transform="translate(104.996 162)" font-family="'HelveticaNeue'" font-size="8">24hr</text><text transform="translate(241.81 280.166)" font-family="'HelveticaNeue-Thin'" font-size="12">Infiltrated with</text><text transform="translate(237.81 294.567)" font-family="'HelveticaNeue-Thin'" font-size="12">1mM CaCl2 + </text><text transform="translate(239.01 308.966)" font-family="'HelveticaNeue-Thin'" font-size="12">2.5mM MgCl2</text><text transform="translate(241.713 354.733)" font-family="'HelveticaNeue-Thin'" font-size="12">Infiltrated with</text><text transform="translate(215.213 369.133)" font-family="'HelveticaNeue-Thin'" font-size="12">Bacterial-Derived Elicitor</text><text transform="translate(241.299 381.733)" font-family="'HelveticaNeue-Thin'" font-size="10">(100 ug/ml LPS)</text><text transform="translate(215.745 440.733)" font-family="'HelveticaNeue-Thin'" font-size="12">Infiltrated with 1uM GST</text><text transform="translate(241.713 503.645)" font-family="'HelveticaNeue-Thin'" font-size="12">Infiltrated with</text><text transform="translate(210.513 518.045)" font-family="'HelveticaNeue-Thin'" font-size="12">Oomycete-Derived Elicitor</text><text transform="translate(237.859 530.645)" font-family="'HelveticaNeue-Thin'" font-size="10">(1 uM GST-NPP1)</text></g><g id="infoButton_Botrytis_cinerea"><circle fill="#039388" cx="121.2" cy="91.2" r="9.2"/><text transform="translate(119.452 95.5)" fill="#FFF" font-family="'HelveticaNeue-Bold'" font-size="12">i</text></g><g id="treatmentInfographic" fill="none" stroke="#000" stroke-width=".5" stroke-miterlimit="10"><g id="root"><path d="M110.4 296c.8-2.1 0-4.2-.7-5.9-.1-.2-.2-.4-.2-.6-1-2.9 1.6-5.7 1.6-5.7m7.2-20.9s2.3-4.1 4.1-5.9m.7 15.4c-.7-1.9-3.9-2.2-4-2.2m-15.4.9c-2.2.7-6.8 3.6-7 3.7m11.1-3.6c-3.1-.4-8.2 5.1-8.5 5.3m1.6-14.5c-8.2-.9-13.7 3.5-13.8 3.6m22-3.7c-1.2-1.1-2.6-4.6-2.6-4.6m6.6 6.8s.3.9.4 1.4m11.5 18.8c-1.4-3.1-4.8-6.6-4.9-6.6m-8.3-15c-.1 0-.1 0 0 0m5.6 23.9c-.3-.3-1.9-1.6-1.9-3.2-.1-1.5-.5-3.4-1.3-5.4-.1-.4-.5-.6-.4-.4.4-.9.6-2.6.6-3.2v-.6c0-.5.1-.8.2-1.2.1-.3.1-.6.2-.9"/><path d="M110.1 324.6c-.1-.9.2-1.6.7-2.6.2-1-.1-3.2-.5-4.8-.6-2.6 2.2-5.3 2.3-5.4l.1.1c.1-.9.3-1.9.6-2.8.1-.7.1-1.7.1-2.7 0-1.6-.1-3.3.4-4.2.1-.2.2-.5.3-.8.7-1.9 1.4-3.8 1.1-7.8-1.5-3.6-1.1-2.5-1.6-3.3s-1.3-.4-2-4.2c-.7-3.8 0-5.2 0-7s.9-6.2 1.2-7.5"/><path d="M119.5 330.7c-.8-.5-.9-1.7-1-2.5 0-.3 0-.5-.1-.6-1.1-1.1-.9-2.3-.6-3.8 0-1.4-1.1-2.3-1.5-2.6.1.6.1 1.2.1 1.5-.3 1.5-1 4.8.4 9.6.2.5.5 1 .8 1.5.6 4.2.9 7.7.9 7.7l-.1-1.6s-.5-1.8-1.1-6c-.2-.5-.4-.9-.6-1.3 0-.1 0-.1-.1-.2-1.1-2.2-2.1-4.1-1.9-7.4v-.2c.2-4.1.2-5.4-1.7-9.3-.3-.9-.3-2.6-.3-3.7"/><path d="M120.5 311.3c.3-3.2-.5-4.2-1.1-5l-.1-.1c-.8-1-.8-2.2-.7-4.7 0-2.6-1.4-3.6-1.9-3.9 0 1.1-.1 2.2-.3 2.9l-.1.2c-.8 1.9-1.3 3-1.1 5.3.1 1.7-.3 3.7-.6 4.9-.1.5-.2.9-.2 1.1-.2 1.1.3 2.9.8 3.5.4.7.6 1.7.8 2.4.1.3.1.6.2.8v.3c.1.5.2 1.1.3 1.7l.1.4m-2.8-43.5c-.4 2-.3 2-.3 4s-.3 3.1 0 4.1.8 1.8 1.2 2.3c.9 1.3 1.8 2.5 1.9 4.3v5.2m19.8-37.7c-3-.3-6 1.2-6.1 1.3h.8c-2 0-4.5.3-6.9 1.1"/><path d="M137.9 262.7c-1.8-.9-4.1-1.6-6.8-1.7m-18.9 9.3c.2-.1 1-.1 1.2-.4.3-.4.4-1.1.2-1.8-.1-.2-.3-.4-.4-.7-.6-.9-1.5-2.3-1.3-4.5m2.4 5.1c-.2 1-.1 1.8-.1 1.8m12.3-6.4 14.7 5.1c-8.6-7.4-14.7-5.1-14.7-5.1zm-11.9 4-.2.4m0 .2v-.2m-.8-5.6v.3"/></g><path id="rosette" d="M80.8 270.1s-.8-.5 2.1-4.2c2.4-2.9 5.3-6.2 7.3-7.3 2.1-1.3 4.1-2.8 8.5-1.1 1.4.8 2.3 1.4 3.7 2.8.7 1.1 2.7 2 2.9 2.3 1 .5 5.5 3.7 6.7 4.2-1.2-1.1-5.1-4.5-6.4-5.1-1.4-.6-2.6-1.7-2.2-5.9.4-2.4.9-3.8.9-3.8 1 .8 5 4.5 5.7 5.8.6 1 .2 1.7.6 2.8.3 1 .9 2.1 1.3 2.3.1-.7.3-1.8.3-1.8.3.5 1.6 1.5 1.6 1.5.2.5 1 2.6.9 3.1-.1.8-.3 2-.3 2 .6-.8 2-2 2.6-4.7.2-1.5.1-4.5 1.1-5.8.9-1.3 1.6-2.6 3.7-3.1 1.1-.3 2.9-.8 3.5 1.9.1.9-.1 2.1-2.2 4.5-1.4 1.3-4.5 4-4.5 4.1-.7.8-1 1.2-1 1.2 1.4-1 5.7-3.3 6.3-3.5.6-.8 4.5-5 9.5-5.6 2.2-.2 7.4 1.2 8.9 1.9-.8.4-2.2 1.2-2.4 1.9-.3.8-1 2.3-1.9 2.3.9.6 4 2.6 5.2 4.3 1 1.1 4.1 3.4 6.1 3.9-.3.5-6.5 2.9-9.6 1.9s-4.8-2.9-7.7-5.2c-1.7-1.2-4.4-3-8.4-2.3-2.2.5-6.2 1.8-8 3.2l-.3.4c1 0 8.3-.7 9.7 1.1 1.2 1.6 2.5 3.4 2.5 3.4-.7.6-4.4 3.6-8.2 0-1.5-1.7-2.7-3.3-4-3.2.6.8 3.6 4.8 5.6 5.9 2.2.6 8.1 1.4 9.5 6.1.8 2.6 1 5.7 1 5.7-1.3.6-5.5 3.5-11.3-3.8-1.3-2.6-1.6-2.8-2.7-8.3-.8-1.5-1.5-3-2.8-4-1.3-.1-1.9-.1-2 0-1 .1-3.8.3-4.9 2.1-1.3 1.7-3.3 4.1-7.7 6.4-2.2 1-4.4 2.1-7.7-1.9-.8-1.3-1.2-3.9.1-5.4 1.4-1.6 3.9-4.7 6.4-4.6 1.7.1 8.4 1.3 13.3 2.2-.6-.8-4.3-5.7-12-5.8-1.5.1-3.4.4-5.7 1.9-2.6 1.6-5.9 4.5-10 3.2-1-.4-2.5-.5-3.6.1z"/></g><g id="all_samples_4_hours" fill="#FFF" stroke="#000" stroke-width=".5" stroke-linecap="round" stroke-linejoin="round" stroke-miterlimit="10"><path id="NPP_at_4_Hours" d="M453.1 508.3c-.1-8 3.8-14.9 8.2-21.3 1.1 1.4 1.8 2.3 2.5 3.1 8.1 8.6 10.1 18.6 5.5 29.3-3.2 7.8-4.8 15.8-4.1 24.1.1 1.4 0 2.9 0 4.3m-1.2-.8c-.3-3.2-.3-6.4-.8-9.7-.4-2.4-1.1-4.9-2.1-7.2-1.2-3.1-3.2-5.9-4.1-8.9-1.1-4-4.1-8.3-3.7-12.9m9.9-2.9c-.4 3.1-.9 5.9-1.1 8.9-.1 3.1.1 6.1.4 9.3"/><path id="GST_at_4_Hours" d="M453.1 433.7c-.1-8 3.8-14.9 8.2-21.3 1.1 1.4 1.8 2.3 2.5 3.1 8.1 8.6 10.1 18.6 5.5 29.3-3.2 7.8-4.8 15.8-4.1 24.1.1 1.4 0 2.9 0 4.3m-1.2-.8c-.3-3.2-.3-6.4-.8-9.7-.4-2.4-1.1-4.9-2.1-7.2-1.2-3.1-3.2-5.9-4.1-8.9-1.1-4-4.1-8.3-3.7-12.9m9.9-2.9c-.4 3.1-.9 6-1.1 8.9-.1 3.1.1 6.1.4 9.3"/><path id="LPS_at_4_Hours" d="M453.1 359.2c-.1-8 3.8-14.9 8.2-21.3 1.1 1.4 1.8 2.3 2.5 3.1 8.1 8.6 10.1 18.6 5.5 29.3-3.2 7.8-4.8 15.8-4.1 24.1.1 1.4 0 2.9 0 4.3m-1.2-.8c-.3-3.2-.3-6.4-.8-9.7-.4-2.4-1.1-4.9-2.1-7.2-1.2-3.1-3.2-5.9-4.1-8.9-1.1-4-4.1-8.3-3.7-12.9m9.9-2.9c-.4 3.1-.9 6-1.1 8.9-.1 3.1.1 6.1.4 9.3"/><path id="CaMg_at_4_Hours" d="M453.1 284.6c-.1-8 3.8-14.9 8.2-21.3 1.1 1.4 1.8 2.3 2.5 3.1 8.1 8.6 10.1 18.6 5.5 29.3-3.2 7.8-4.8 15.8-4.1 24.1.1 1.4 0 2.9 0 4.3m-1.2-.8c-.3-3.2-.3-6.4-.8-9.7-.4-2.4-1.1-4.9-2.1-7.2-1.2-3.1-3.2-5.9-4.1-8.9-1.1-4-4.1-8.3-3.7-12.9m9.9-2.9c-.4 3.1-.9 6-1.1 8.9-.1 3.2.1 6.1.4 9.3"/><path id="HrpZ_at_4_Hours" d="M453.1 210.1c-.1-8 3.8-14.9 8.2-21.3 1.1 1.4 1.8 2.3 2.5 3.1 8.1 8.6 10.1 18.6 5.5 29.3-3.2 7.8-4.8 15.8-4.1 24.1.1 1.4 0 2.9 0 4.3m-1.2-.9c-.3-3.2-.3-6.4-.8-9.7-.4-2.4-1.1-4.9-2.1-7.2-1.2-3.1-3.2-5.9-4.1-8.9-1.1-4-4.1-8.3-3.7-12.9m9.9-2.8c-.4 3.1-.9 6-1.1 8.9-.1 3.2.1 6.1.4 9.3"/><path id="FLG22_at_4_Hours" d="M453.1 135.5c-.1-8 3.8-14.9 8.2-21.3 1.1 1.4 1.8 2.3 2.5 3.1 8.1 8.6 10.1 18.6 5.5 29.3-3.2 7.8-4.8 15.8-4.1 24.1.1 1.4 0 2.9 0 4.3m-1.2-.8c-.3-3.2-.3-6.4-.8-9.7-.4-2.4-1.1-4.9-2.1-7.2-1.2-3.1-3.2-5.9-4.1-8.9-1.1-4-4.1-8.3-3.7-12.9m9.9-2.9c-.4 3.1-.9 5.9-1.1 8.9-.1 3.2.1 6.1.4 9.3"/><path id="H2O_at_4_Hours" d="M453.1 61c-.1-8 3.8-14.9 8.2-21.3 1.1 1.4 1.8 2.3 2.5 3.1 8.1 8.6 10.1 18.6 5.5 29.3-3.2 7.8-4.8 15.8-4.1 24.1.1 1.4 0 2.9 0 4.3m-1.2-.9c-.3-3.2-.3-6.4-.8-9.7-.4-2.4-1.1-4.9-2.1-7.2-1.2-3.1-3.2-5.9-4.1-8.9-1.1-4-4.1-8.3-3.7-12.9m9.9-2.7c-.4 3.1-.9 6-1.1 8.9-.1 3.2.1 6.1.4 9.3"/></g><g id="all_samples_1_hour" fill="#FFF" stroke="#000" stroke-width=".5" stroke-linecap="round" stroke-linejoin="round" stroke-miterlimit="10"><path id="NPP_at_1_Hour" d="M378.1 508.3c-.1-8 3.8-14.9 8.2-21.3 1.1 1.4 1.8 2.3 2.5 3.1 8.1 8.6 10.1 18.6 5.5 29.3-3.2 7.8-4.8 15.8-4.1 24.1.1 1.4 0 2.9 0 4.3m-1.2-.8c-.3-3.2-.3-6.4-.8-9.7-.4-2.4-1.1-4.9-2.1-7.2-1.2-3.1-3.2-5.9-4.1-8.9-1.1-4-4.1-8.3-3.7-12.9m9.9-2.9c-.4 3.1-.9 5.9-1.1 8.9-.1 3.1.1 6.1.4 9.3"/><path id="GST_at_1_Hour" d="M378.1 433.7c-.1-8 3.8-14.9 8.2-21.3 1.1 1.4 1.8 2.3 2.5 3.1 8.1 8.6 10.1 18.6 5.5 29.3-3.2 7.8-4.8 15.8-4.1 24.1.1 1.4 0 2.9 0 4.3m-1.2-.8c-.3-3.2-.3-6.4-.8-9.7-.4-2.4-1.1-4.9-2.1-7.2-1.2-3.1-3.2-5.9-4.1-8.9-1.1-4-4.1-8.3-3.7-12.9m9.9-2.9c-.4 3.1-.9 6-1.1 8.9-.1 3.1.1 6.1.4 9.3"/><path id="LPS_at_1_Hour" d="M378.1 359.2c-.1-8 3.8-14.9 8.2-21.3 1.1 1.4 1.8 2.3 2.5 3.1 8.1 8.6 10.1 18.6 5.5 29.3-3.2 7.8-4.8 15.8-4.1 24.1.1 1.4 0 2.9 0 4.3m-1.2-.8c-.3-3.2-.3-6.4-.8-9.7-.4-2.4-1.1-4.9-2.1-7.2-1.2-3.1-3.2-5.9-4.1-8.9-1.1-4-4.1-8.3-3.7-12.9m9.9-2.9c-.4 3.1-.9 6-1.1 8.9-.1 3.1.1 6.1.4 9.3"/><path id="CaMg_at_1_Hour" d="M378.1 284.6c-.1-8 3.8-14.9 8.2-21.3 1.1 1.4 1.8 2.3 2.5 3.1 8.1 8.6 10.1 18.6 5.5 29.3-3.2 7.8-4.8 15.8-4.1 24.1.1 1.4 0 2.9 0 4.3m-1.2-.8c-.3-3.2-.3-6.4-.8-9.7-.4-2.4-1.1-4.9-2.1-7.2-1.2-3.1-3.2-5.9-4.1-8.9-1.1-4-4.1-8.3-3.7-12.9m9.9-2.9c-.4 3.1-.9 6-1.1 8.9-.1 3.2.1 6.1.4 9.3"/><path id="HrpZ_at_1_Hour" d="M378.1 210.1c-.1-8 3.8-14.9 8.2-21.3 1.1 1.4 1.8 2.3 2.5 3.1 8.1 8.6 10.1 18.6 5.5 29.3-3.2 7.8-4.8 15.8-4.1 24.1.1 1.4 0 2.9 0 4.3m-1.2-.9c-.3-3.2-.3-6.4-.8-9.7-.4-2.4-1.1-4.9-2.1-7.2-1.2-3.1-3.2-5.9-4.1-8.9-1.1-4-4.1-8.3-3.7-12.9m9.9-2.8c-.4 3.1-.9 6-1.1 8.9-.1 3.2.1 6.1.4 9.3"/><path id="FLG22_at_1_Hour" d="M378.1 135.5c-.1-8 3.8-14.9 8.2-21.3 1.1 1.4 1.8 2.3 2.5 3.1 8.1 8.6 10.1 18.6 5.5 29.3-3.2 7.8-4.8 15.8-4.1 24.1.1 1.4 0 2.9 0 4.3m-1.2-.8c-.3-3.2-.3-6.4-.8-9.7-.4-2.4-1.1-4.9-2.1-7.2-1.2-3.1-3.2-5.9-4.1-8.9-1.1-4-4.1-8.3-3.7-12.9m9.9-2.9c-.4 3.1-.9 5.9-1.1 8.9-.1 3.2.1 6.1.4 9.3"/><path id="H2O_at_1_Hour" d="M378.1 61c-.1-8 3.8-14.9 8.2-21.3 1.1 1.4 1.8 2.3 2.5 3.1 8.1 8.6 10.1 18.6 5.5 29.3-3.2 7.8-4.8 15.8-4.1 24.1.1 1.4 0 2.9 0 4.3m-1.2-.9c-.3-3.2-.3-6.4-.8-9.7-.4-2.4-1.1-4.9-2.1-7.2-1.2-3.1-3.2-5.9-4.1-8.9-1.1-4-4.1-8.3-3.7-12.9m9.9-2.7c-.4 3.1-.9 6-1.1 8.9-.1 3.2.1 6.1.4 9.3"/></g><g id="TimeSampleChart"><path fill="none" stroke="#FFF69F" stroke-width="10" stroke-miterlimit="10" d="M102.4 148.2c6.2-6.5 16.5-6.7 23-.5 2.2 2.1 3.7 4.7 4.4 7.5" id="ligtCycle"/><path fill="none" stroke="#555" stroke-width="10" stroke-miterlimit="10" d="M129.8 155.2c1.4 5.3.1 11.2-4 15.5-6.2 6.5-16.5 6.7-23 .5s-6.7-16.5-.5-23" id="darkCycle"/><g id="labels"><path fill="none" stroke="#000" stroke-miterlimit="10" d="M113.9 132.6v14.3"/><text transform="translate(137.991 148.475)" font-family="'HelveticaNeue-Thin'" font-size="8">4 hour sample</text><path fill="none" stroke="#000" stroke-miterlimit="10" d="m124.8 153 8.5-4.2"/><text transform="translate(123.293 138.615)" font-family="'HelveticaNeue-Thin'" font-size="8">1 hour sample</text><path fill="none" stroke="#000" stroke-miterlimit="10" d="m117.7 148.1 4.4-7.9"/><text transform="translate(93.283 128.44)" font-family="'HelveticaNeue-Thin'" font-size="8">INJECTION</text></g></g></g><g id="syringe"><path d="M145.2 242.6c-.8-.2-1.7-.3-2.5-.6-1-.4-1.7-.1-2.4.7-.8.9-4.2 4.2-5.1 5.1-.3.3-.6.6-1 .2-.4-.4 0-.7.2-1l5.5-5.5c.5-.4.6-.8.4-1.4v-.1c-1.2-2.4-.3-4 1.6-5.7 2.9-2.6 5.5-5.5 8.3-8.2.4-.4.7-.7.1-1.1-.3-.2-.5-.6-.1-.9.3-.3.6 0 .9.2l6.9 6.9c.3.3.5.6.2.9s-.7.2-.9-.1c-.5-.6-.8-.3-1.1.1-3.3 3.3-6.6 6.7-10 10-.2.2-.4.6-1 .5z"/><path fill="#030303" d="M161.5 226.4c0 .3-.1.5-.3.6-.3.2-.5 0-.7-.2-.5-.7-.8-.4-1.2.1s-.9.9-1.4 1.4c-.2.2-.5.6-.9.2s-.1-.7.2-1c.5-.5 1.3-1 1.6-1.7.6-1.1-.7-1.3-1.2-1.9-.2-.3-.4-1.2-1.2-.5l-1.6 1.6c-.3.3-.6.6-1 .2s0-.6.2-.9c.3-.4.7-.7 1.1-1.1.5-.5 1.3-1 .3-1.8-.3-.2-.1-.5.1-.7.3-.2.6 0 .8.2 1 .9 1.9 1.9 2.9 2.9l2 2c.2.3.3.5.3.6z"/><path fill="#FFF" d="M149.5 231.2c0 .3-.2.5-.5.5s-1.6-1.2-1.6-1.6c0-.3.2-.5.5-.5.4 0 1.7 1.3 1.6 1.6zm-5.2 2.1c.3 0 1.6 1.2 1.6 1.6 0 .3-.2.6-.5.5-.7-.3-1.2-.8-1.5-1.5-.1-.3.1-.5.4-.6zm-1.5 2.1c.3 0 1.6 1.3 1.6 1.6s-.2.5-.5.5-1.5-1.3-1.5-1.6c-.1-.3.1-.5.4-.5zm5.2-2.1c0 .3-.2.6-.5.4-.7-.3-1.2-.8-1.5-1.5-.1-.2.2-.5.5-.5s1.5 1.3 1.5 1.6zm2.1-5.2c.3 0 1.5 1.2 1.5 1.6 0 .3-.3.5-.5.4-.7-.3-1.2-.8-1.5-1.5-.1-.2.2-.4.5-.5z"/></g></svg>