<svg xmlns="http://www.w3.org/2000/svg" xml:space="preserve" id="BioticStressMyzuspersicaere_svg" x="0" y="0" version="1.1" viewBox="20 70 700 415" author="Provart Lab - Bio Analytic Resource, University of Toronto">>
  <g id="Botrytis_cinerea">
    <g id="Labels">
      <text font-family="'HelveticaNeue-Italic'" font-size="18" transform="translate(32.931 97.314)">Myzus persicaere </text>
      <text font-family="'HelveticaNeue'" font-size="18" transform="translate(177.231 97.314)">(aphid)</text>
      <text font-family="'HelveticaNeue-Thin'" font-size="10" transform="translate(401.884 474.666)">Control</text>
      <text font-family="'HelveticaNeue-Thin'" font-size="10" transform="translate(611.438 475.666)">Aphid infested</text>
      <text font-family="'HelveticaNeue'" font-size="8" transform="translate(104.996 162)">24hr</text>
    </g>
    <g id="infoButton_Botrytis_cinerea">
      <circle cx="255.2" cy="91.2" r="9.2" fill="#5299FF"/>
      <text fill="#FFF" font-family="'HelveticaNeue-Bold'" font-size="12" transform="translate(253.452 95.5)">i</text>
    </g>
    <g id="treatmentInfographic">
      <g id="root" fill="none" stroke="#000" stroke-miterlimit="10" stroke-width=".5">
        <path d="M86.4 296c.8-2.1 0-4.2-.7-5.9-.1-.2-.2-.4-.2-.6-1-2.9 1.6-5.7 1.6-5.7m7.2-20.9s2.3-4.1 4.1-5.9m.7 15.4c-.7-1.9-3.9-2.2-4-2.2m-15.4.9c-2.2.7-6.8 3.6-7 3.7m11.1-3.6c-3.1-.4-8.2 5.1-8.5 5.3m1.6-14.5c-8.2-.9-13.7 3.5-13.8 3.6m22-3.7c-1.2-1.1-2.6-4.6-2.6-4.6m6.6 6.8s.3.9.4 1.4m11.5 18.8c-1.4-3.1-4.8-6.6-4.9-6.6m-8.3-15c-.1 0-.1 0 0 0m5.6 23.9c-.3-.3-1.9-1.6-1.9-3.2-.1-1.5-.5-3.4-1.3-5.4-.1-.4-.5-.6-.4-.4.4-.9.6-2.6.6-3.2v-.6c0-.5.1-.8.2-1.2.1-.3.1-.6.2-.9"/>
        <path d="M86.1 324.6c-.1-.9.2-1.6.7-2.6.2-1-.1-3.2-.5-4.8-.6-2.6 2.2-5.3 2.3-5.4l.1.1c.1-.9.3-1.9.6-2.8.1-.7.1-1.7.1-2.7 0-1.6-.1-3.3.4-4.2.1-.2.2-.5.3-.8.7-1.9 1.4-3.8 1.1-7.8-1.5-3.6-1.1-2.5-1.6-3.3s-1.3-.4-2-4.2c-.7-3.8 0-5.2 0-7s.9-6.2 1.2-7.5"/>
        <path d="M95.5 330.7c-.8-.5-.9-1.7-1-2.5 0-.3 0-.5-.1-.6-1.1-1.1-.9-2.3-.6-3.8 0-1.4-1.1-2.3-1.5-2.6.1.6.1 1.2.1 1.5-.3 1.5-1 4.8.4 9.6.2.5.5 1 .8 1.5.6 4.2.9 7.7.9 7.7l-.1-1.6s-.5-1.8-1.1-6c-.2-.5-.4-.9-.6-1.3 0-.1 0-.1-.1-.2-1.1-2.2-2.1-4.1-1.9-7.4v-.2c.2-4.1.2-5.4-1.7-9.3-.3-.9-.3-2.6-.3-3.7"/>
        <path d="M96.5 311.3c.3-3.2-.5-4.2-1.1-5l-.1-.1c-.8-1-.8-2.2-.7-4.7 0-2.6-1.4-3.6-1.9-3.9 0 1.1-.1 2.2-.3 2.9l-.1.2c-.8 1.9-1.3 3-1.1 5.3.1 1.7-.3 3.7-.6 4.9-.1.5-.2.9-.2 1.1-.2 1.1.3 2.9.8 3.5.4.7.6 1.7.8 2.4.1.3.1.6.2.8v.3c.1.5.2 1.1.3 1.7l.1.4m-2.8-43.5c-.4 2-.3 2-.3 4s-.3 3.1 0 4.1.8 1.8 1.2 2.3c.9 1.3 1.8 2.5 1.9 4.3v5.2m19.8-37.7c-3-.3-6 1.2-6.1 1.3h.8c-2 0-4.5.3-6.9 1.1"/>
        <path d="M113.9 262.7c-1.8-.9-4.1-1.6-6.8-1.7m-18.9 9.3c.2-.1 1-.1 1.2-.4.3-.4.4-1.1.2-1.8-.1-.2-.3-.4-.4-.7-.6-.9-1.5-2.3-1.3-4.5m2.4 5.1c-.2 1-.1 1.8-.1 1.8m27-1.3c-8.6-7.4-14.7-5.1-14.7-5.1m-11.9 4-.2.4m0 .2v-.2m-.8-5.6v.3"/>
      </g>
      <path id="rosette" fill="none" stroke="#000" stroke-miterlimit="10" stroke-width=".5" d="M56.8 270.1s-.8-.5 2.1-4.2c2.4-2.9 5.3-6.2 7.3-7.3 2.1-1.3 4.1-2.8 8.5-1.1 1.4.8 2.3 1.4 3.7 2.8.7 1.1 2.7 2 2.9 2.3 1 .5 5.5 3.7 6.7 4.2-1.2-1.1-5.1-4.5-6.4-5.1-1.4-.6-2.6-1.7-2.2-5.9.4-2.4.9-3.8.9-3.8 1 .8 5 4.5 5.7 5.8.6 1 .2 1.7.6 2.8.3 1 .9 2.1 1.3 2.3.1-.7.3-1.8.3-1.8.3.5 1.6 1.5 1.6 1.5.2.5 1 2.6.9 3.1-.1.8-.3 2-.3 2 .6-.8 2-2 2.6-4.7.2-1.5.1-4.5 1.1-5.8.9-1.3 1.6-2.6 3.7-3.1 1.1-.3 2.9-.8 3.5 1.9.1.9-.1 2.1-2.2 4.5-1.4 1.3-4.5 4-4.5 4.1-.7.8-1 1.2-1 1.2 1.4-1 5.7-3.3 6.3-3.5.6-.8 4.5-5 9.5-5.6 2.2-.2 7.4 1.2 8.9 1.9-.8.4-2.2 1.2-2.4 1.9-.3.8-1 2.3-1.9 2.3.9.6 4 2.6 5.2 4.3 1 1.1 4.1 3.4 6.1 3.9-.3.5-6.5 2.9-9.6 1.9s-4.8-2.9-7.7-5.2c-1.7-1.2-4.4-3-8.4-2.3-2.2.5-6.2 1.8-8 3.2l-.3.4c1 0 8.3-.7 9.7 1.1 1.2 1.6 2.5 3.4 2.5 3.4-.7.6-4.4 3.6-8.2 0-1.5-1.7-2.7-3.3-4-3.2.6.8 3.6 4.8 5.6 5.9 2.2.6 8.1 1.4 9.5 6.1.8 2.6 1 5.7 1 5.7-1.3.6-5.5 3.5-11.3-3.8-1.3-2.6-1.6-2.8-2.7-8.3-.8-1.5-1.5-3-2.8-4-1.3-.1-1.9-.1-2 0-1 .1-3.8.3-4.9 2.1-1.3 1.7-3.3 4.1-7.7 6.4-2.2 1-4.4 2.1-7.7-1.9-.8-1.3-1.2-3.9.1-5.4 1.4-1.6 3.9-4.7 6.4-4.6 1.7.1 8.4 1.3 13.3 2.2-.6-.8-4.3-5.7-12-5.8-1.5.1-3.4.4-5.7 1.9-2.6 1.6-5.9 4.5-10 3.2-1-.4-2.5-.5-3.6.1z"/>
      <path id="aphidClip" fill="#FFF" stroke="#000" stroke-miterlimit="10" stroke-width=".5" d="M76.7 252.5c.8.4 0 8.6 0 9.1 0 1.3-3 2.4-6.8 2.4s-6.8-1.1-6.8-2.4c0-.6-.8-8.6.2-9m6.6-2.4c-3.7 0-6.8 1.1-6.8 2.4s3 2.4 6.8 2.4 6.8-1.1 6.8-2.4-3-2.4-6.8-2.4z"/>
      <path id="aphidClip_1_" fill="#FFF" stroke="#000" stroke-miterlimit="10" stroke-width=".5" d="M114.4 252.5c.8.4 0 8.6 0 9.1 0 1.3-3 2.4-6.8 2.4s-6.8-1.1-6.8-2.4c0-.6-.8-8.6.2-9m6.7-2.4c-3.7 0-6.8 1.1-6.8 2.4s3 2.4 6.8 2.4 6.8-1.1 6.8-2.4-3.1-2.4-6.8-2.4z"/>
      <path id="aphid" d="M138.9 236.7c.2-.1 1.1-.6 1.2-.8.9-1.6 2-3.1 3-4.6.3-.4.7-.7 1.2-.8.6 0 1.3 0 1.9.1.3 0 1.4.3 1.6 0 .2-.3.7-1 .8-1.3s.4-.8 0-1c-.8-.4-2.8-.5-3.2-1.4-.1-.3-.1-.6 0-.9l1.2-2.7c.3-.7.8-1.1.5-1.9 0 .1-.1-.7-.1-.7h.1c0 .2.3.3.4.1v-.1.1c-.1.2 0 .8 0 1 0 .4-.1.8-.3 1.2-.4.9-.8 1.8-1.1 2.8 0 .1-.2.6-.2.6.1.2.6.4.8.5s2 .9 2.1.8c.1-.2.2-.4.4-.5.1 0 .1-.1.1-.1.1-.2.1-.5.2-.7.2-.5.8-.3.9.1.1.2.6 0 .7 0 .1 0 .1.1.3 0 .1-.1.2-.3.3-.4.3-.2.7 0 .8.4 0 .3.3 1.4.7 1.3.6-.2 1.1-.4 1.7-.7.4-.2.9-.7 1.4-.7.1 0 .1 0 .1-.1-.4-1.1-.6-2.3-1.1-3.3-.1-.1 0-.3 0-.4.1-.6.6-.8.8-1.3 0-.1.1-.1.1-.2-.2.6.1.1.2.2s-.6.8-.6.8c-.2.1-.4.3-.2.6.7 1.1 1.2 2.5 1.3 3.8 0 .2-.1.4-.3.5-.7.4-1.4.7-2.1 1-.2.1-1.5.4-1.4.5.1.2.5 1 .5 1.1 0 .2.4.7.5.9s1.4 0 1.7-.1c.6 0 1.3-.1 1.9 0 .2 0 .7.6.9.8.9 1.2 1.8 2.5 2.6 3.8.1.1.1.2.1.3 0 .2.2.3.4.4.1 0 1 .7 1 .7h-.2c-.3.1 0 .2 0 .4-.2-.2-.4-.3-.6-.4-.3-.2-.5-.5-.8-.7-.6-.4-1.1-1.6-1.5-2.2-.5-.8-1.2-1.5-1.8-2.4 0-.1-.1 0-.2 0-1 .1-2.1 0-3.1.1.2.5.5.9.7 1.4.1.3.2.9.4 1 .9.3 1.9.7 2.8 1.2.2.1.4.2.5.4.2.8-.4 1.9-.7 2.7s-.5 1.8-1 2.6v.2c.1.1.1.2.2.3.1.2.2.3.1.5 0 .1 0 .1.1.1 0 0 .2.1.2.2s-.3-.2-.4-.1c-.1.1 0 .2 0 .3v.1c-.1 0-.1 0-.1-.1 0-.4-.3-.9-.4-1.2-.1-.3 0-.6.1-.9.1-.4 1.5-4.1 1.2-4.3-.5-.4-1.1-.7-1.7-1-.3-.1-.9-.7-.9-.1 0 .7 0 1.4-.2 2-.1.2-.9 2.3-1.1 2.1v-.1c.4-.7.7-1.3.9-2.1.2-.6.2-1.2.2-1.8-.1-.5-.2-1.1-.3-1.6-.3-1.1-.9-2.1-1.5-3-.1-.1-.1-.2-.2-.1-.2 0-.4 0-.6.1.1-.1.2-.1.3-.2.1 0 .2 0 .3-.1.1 0 .1-.1.1-.1 0-.1-.2-.5-.4-.4-.1 0-.3 0-.4.1.1-.2.4-.2.4-.4 0-.3-.3-.5-.5-.3 0-.2.2-.1.2-.2-.2 0-.3-.1-.4-.2 0 0 .2-1 0-1 0 0-.2.8-.2.9-.2.6-.2 1.3-.2 1.9-.1 1.3-.1 2.7.2 4 .2 1.1.6 2.1 1 3.1.6 1.3 1.5 2.4 2.4 3.6 0 .1.1.1 0 .2s-.1 0-.1 0c-.9-.6-1.7-1.9-2.2-2.8-.7-1.2-1.1-2.4-1.4-3.7-.2-1.2-.4-2.5-.3-3.8 0-.7.1-1.4.2-2 .1-.5-.1-1.1 0-1.6 0-.2.2-.3.4-.3-.5-.2-.5.4-.5.7-.2-.1-.6-.5-.8-.2-.2.2-.4 0-.6.1 0-.2-.3-.8-.5-.4.4 0 .4.2.4.4.1 1.5.5 3 .5 4.6-.1 1.5-.4 3.1-.9 4.5-.6 1.7-1.6 3.7-3 4.9-.1 0-.1.1-.2 0s0-.1 0-.2c.4-.6.8-1.1 1.2-1.7v-.1c-.3-.3-.5-.6-.7-1-.3-.5-.4-1.1-.5-1.7-.1-.5-.1-1-.1-1.4v-.2c0-.1 0-.1-.1-.1l-2.4 1.2h-.2c-.3 0 0 .6.1.8.2.5.3.9.4 1.4.3.9.6 1.9.9 2.8.1.2 0 .4-.1.6-.1.1-.6 1.1-.7 1.1 0 0 .1-.5-.2-.2-.1.1-.1.2-.2.2 0-.2 0-.3.1-.3.3-.3.3-.7.7-1 .1 0 .1-.1 0-.1-.3-.8-.7-1.7-1-2.5s-.8-1.6-.8-2.5c0-.3.1-.6.4-.8.8-.6 1.8-.9 2.8-1.3.2-.1.3-.2.4-.5.1-.7.4-1.4.8-2 .1-.2.1-.2-.1-.2-1 .1-2.1 0-3.1-.1-.1 0-.1 0-.1.1-.2.8-1.2 1.7-1.6 2.3-.6.8-1.1 1.5-1.7 2.3-.2.4-.7.5-.9.8 0 .1-.5.4-.6.4 0 0 .3-.4.1-.3-.3-.4-.4-.4-.5-.4.3-.1 0 0 0 0zm10.2-7.2c-.4-.1-.4-.1-.5.2-.1.2-.1.2.1.3.1 0 .6.3.6.3 0 .1-.1 0-.1 0-.3-.1-.7-.5-.9-.2-.4.7-.8 1.3-1.1 2-.3.6-.5 1.3-.6 2-.1.5-.1 1.1 0 1.6.1.9.3 1.7.8 2.5.1.2.3.4.4.6 1.6-2.7 2.6-6 2.2-9.2-.1-.6-.1-2.1-.6-2.5 0 .2 0 .5-.1.7 0 .2-.5.5-.5.5 0 .1.2 0 .2.1 0-.1-.4.7-.4.5-.1.2-.1.2.1.2.3.2.4.3.4.4-.3-.1 0-.1 0 0zm-4.3 11c.2-.6-.5-2-.7-2.6-.1-.4-.3-.8-.4-1.3 0-.1-.4-.9-.4-1 0 0 1.1-.4 1.2-.4.6-.3 1.2-.6 1.7-1 .1-.1.2-.3.1-.5-.9.5-1.9.8-2.7 1.3-.9.5-.3 1.6 0 2.3.5 1.2.9 2.2 1.2 3.2.1-.1-.1-.4 0 0zm9.3-9.5c.2.5 3.6.2 3.6.2 0 .1 0 .2.1.2 1.1 1.3 2.1 2.8 3 4.2.1.1.3 0 .2-.1-.8-1.4-1.7-2.8-2.7-4-.1-.2-.3-.4-.5-.4-.1 0 0-.2-.2-.3-1.2-.1-2.3.1-3.5.2.1.2.3-.1 0 0zm4.3 4.7c.2-.3.2-.4-.1-.5-.9-.4-1.8-1-2.8-1.2-.5-.1.5.5.5.5.7.3 1.4.7 2 1.2.2.1.2-.2.4 0-.2.1-.3.2-.3.4-.3 1.3-.8 2.6-1.2 4 0 .1 0 .2.1.2s.1-.1.1-.1c.5-1.4.9-2.8 1.4-4.2 0-.2.1-.3-.1-.3.2-.3.2 0 0 0zm-12.8-8.9c0-.1.3-.3.3-.4.3-1.1.8-2.1 1.2-3.2.1-.1 0-.2 0-.3-.1-.1-1 1.9-1 2.1-.2.6-1 1.8-.3 2.2.8.5 1.9 1 2.9 1.2.1 0 .2-.1.1-.2 0-.1-.1-.1-.2-.1-.5-.2-1.1-.4-1.6-.6-.4-.3-1-.9-1.4-.7 0-.1.3-.1 0 0zm2.6 11.7c.1 0 .1 0 0 0 1.4-2.2 2.1-4.8 2.2-7.3 0-1.4-.5-2.8-.4-4.2 0-.3-.3-.4-.4-.1 0 .2.1.4.2.4-.1.1-.1.1 0 .3v.1c.1.9.4 1.8.4 2.8s0 2-.2 3c-.3 1.6-.9 3.4-1.8 5 0 0 .1-.2 0 0zm-4.3-7.4c0-.1-.1-.2-.2-.2-.2.1-.3.2-.4.3-.9 1.4-1.9 2.9-2.8 4.3-.1.1-.1.1 0 .2.1 0 .1 0 .2-.1.5-.7 1-1.5 1.6-2.2.5-.7 1.2-1.4 1.6-2.2-.1.1 0 0 0-.1s0 .1 0 0zm9.4-2.7c1.1-.2 2.2-.7 3.2-1.2.3-.2.3-.4 0-.5s-1 .5-1.3.6c-.4.2-.9.4-1.4.6-.1 0-1.1.5-.8.5 0 0 .2-.1.3 0 0 0-.1-.1 0 0zm-1.3-.7c-.1 0-.1 0-.1.1-.5 2.8-.4 5.6.6 8.3.4 1 .9 1.9 1.4 2.8v-.1c-1.9-3.3-2.8-7.1-1.9-10.8 0-.1.1-.2.2-.4 0-.4-.7-.2-.2.1-.1 0-.2-.1 0 0zm-5.7 3.4c.1 0 1.2.1 1.3 0 .1-.2-.5-.2-.7-.2-1-.1-1.9-.1-2.9-.2-.3 0-.1.3.1.3.8 0 1.5.1 2.2.1 0 0-.5 0 0 0zm10.4-4.4c-.3-1.2-.8-2.4-1.2-3.6 0-.1-.1 0-.2-.1-.1 0 0 .1 0 .1.4 1 .7 2 1 3 .1.3.2.5.4.6 0-.2-.2-.1 0 0zm-4.5.2c0-.3-.1-.3-.2-.3s-.1.1-.2.1c-.1.6.4.7.4.2 0-.3 0 .1 0 0zm-4.7 12.7-.9 1.2c.4-.3.6-.7.9-1.2-.3.4-.3.5 0 0zm.7-.7s.1-.1.2-.1l-.1.4c0 .7 0 1.4.3 2 .1.2.3.5.4.7 0 .2.4.1.3-.1v-.2c.1-.3 0-.6-.2-.9-.2-.2-.2-.4-.3-.6 0-.1-.2-1.4-.2-1.4.3-.2.2.8.2.9 0 .5.2.8.4 1.3.1.3.2.7.2 1 0 .1.1.2 0 .3s-.5.2-.5 0c0-.3-.2-.4-.3-.7-.2-.4-.2-.8-.3-1.2 0-.4 0-.7-.1-1.1-.1-.1-.1-.2 0-.3zm.7 3.2c.1 0 .2.1.3-.1-.1 0-.2 0-.3.1zm4.7-3.3c.1.1.1.1.1.2-.1.4-.1.8-.1 1.3 0 .6-.4 1.1-.5 1.7 0 .1-.1.2-.2.2-.3 0-.5-.1-.4-.4.1-.3 0-.7.1-1.1.1-.3.3-.6.3-.9.1-.2 0-1.1.1-1.3h.3c0 .1-.1.1-.1.1-.2.4-.1 1.1-.3 1.6-.1.2-.6 1.4-.4 1.6.1.1.2.1.3 0 .1-.3.3-.5.4-.8 0-.1.1-.2.1-.4.1-.5.1-1.2.3-1.8.1.1-.1.3 0 0zm-.7 3.3c-.1-.1-.2-.1-.3-.1.1.1.1.1.3.1zm-4-2c.2.1 1.4.5 1.5.7s.2.3.3.5c.2.3.4.3.6 0 .1-.2.2-.4.4-.5.2-.2.5-.3.7-.4.2-.1.3-.1.4-.3v-.1h-.1c-.2.1-1.3.5-1.3.7l.1.1c-.1.2-.2.3-.4.3.1.1.1.2 0 .3 0 0-.1.1-.2 0l-.2-.2s.2 0 .2-.1c-.1-.1-.7-.2-.3-.4.1 0 .1-.1 0-.1-.5 0-1-.2-1.4-.5-.2-.1-.3-.2-.5-.2l.2.2c.4.2-.1-.1 0 0z"/>
      <path id="aphid_1_" d="M176.7 236.7c.2-.1 1.1-.6 1.2-.8.9-1.6 2-3.1 3-4.6.3-.4.7-.7 1.2-.8.6 0 1.3 0 1.9.1.3 0 1.4.3 1.6 0 .2-.3.7-1 .8-1.3s.4-.8 0-1c-.8-.4-2.8-.5-3.2-1.4-.1-.3-.1-.6 0-.9l1.2-2.7c.3-.7.8-1.1.5-1.9 0 .1-.1-.7-.1-.7h.1c0 .2.3.3.4.1v-.1.1c-.1.2 0 .8 0 1 0 .4-.1.8-.3 1.2-.4.9-.8 1.8-1.1 2.8 0 .1-.2.6-.2.6.1.2.6.4.8.5s2 .9 2.1.8c.1-.2.2-.4.4-.5.1 0 .1-.1.1-.1.1-.2.1-.5.2-.7.2-.5.8-.3.9.1.1.2.6 0 .7 0 .1 0 .1.1.3 0 .1-.1.2-.3.3-.4.3-.2.7 0 .8.4 0 .3.3 1.4.7 1.3.6-.2 1.1-.4 1.7-.7.4-.2.9-.7 1.4-.7.1 0 .1 0 .1-.1-.4-1.1-.6-2.3-1.1-3.3-.1-.1 0-.3 0-.4.1-.6.6-.8.8-1.3 0-.1.1-.1.1-.2-.2.6.1.1.2.2s-.6.8-.6.8c-.2.1-.4.3-.2.6.7 1.1 1.2 2.5 1.3 3.8 0 .2-.1.4-.3.5-.7.4-1.4.7-2.1 1-.2.1-1.5.4-1.4.5.1.2.5 1 .5 1.1 0 .2.4.7.5.9s1.4 0 1.7-.1c.6 0 1.3-.1 1.9 0 .2 0 .7.6.9.8.9 1.2 1.8 2.5 2.6 3.8.1.1.1.2.1.3 0 .2.2.3.4.4.1 0 1 .7 1 .7h-.2c-.3.1 0 .2 0 .4-.2-.2-.4-.3-.6-.4-.3-.2-.5-.5-.8-.7-.6-.4-1.1-1.6-1.5-2.2-.5-.8-1.2-1.5-1.8-2.4 0-.1-.1 0-.2 0-1 .1-2.1 0-3.1.1.2.5.5.9.7 1.4.1.3.2.9.4 1 .9.3 1.9.7 2.8 1.2.2.1.4.2.5.4.2.8-.4 1.9-.7 2.7s-.5 1.8-1 2.6v.2c.1.1.1.2.2.3.1.2.2.3.1.5 0 .1 0 .1.1.1 0 0 .2.1.2.2s-.3-.2-.4-.1c-.1.1 0 .2 0 .3v.1c-.1 0-.1 0-.1-.1 0-.4-.3-.9-.4-1.2-.1-.3 0-.6.1-.9.1-.4 1.5-4.1 1.2-4.3-.5-.4-1.1-.7-1.7-1-.3-.1-.9-.7-.9-.1 0 .7 0 1.4-.2 2-.1.2-.9 2.3-1.1 2.1v-.1c.4-.7.7-1.3.9-2.1.2-.6.2-1.2.2-1.8-.1-.5-.2-1.1-.3-1.6-.3-1.1-.9-2.1-1.5-3-.1-.1-.1-.2-.2-.1-.2 0-.4 0-.6.1.1-.1.2-.1.3-.2.1 0 .2 0 .3-.1.1 0 .1-.1.1-.1 0-.1-.2-.5-.4-.4-.1 0-.3 0-.4.1.1-.2.4-.2.4-.4 0-.3-.3-.5-.5-.3 0-.2.2-.1.2-.2-.2 0-.3-.1-.4-.2 0 0 .2-1 0-1 0 0-.2.8-.2.9-.2.6-.2 1.3-.2 1.9-.1 1.3-.1 2.7.2 4 .2 1.1.6 2.1 1 3.1.6 1.3 1.5 2.4 2.4 3.6 0 .1.1.1 0 .2s-.1 0-.1 0c-.9-.6-1.7-1.9-2.2-2.8-.7-1.2-1.1-2.4-1.4-3.7-.2-1.2-.4-2.5-.3-3.8 0-.7.1-1.4.2-2 .1-.5-.1-1.1 0-1.6 0-.2.2-.3.4-.3-.5-.2-.5.4-.5.7-.2-.1-.6-.5-.8-.2-.2.2-.4 0-.6.1 0-.2-.3-.8-.5-.4.4 0 .4.2.4.4.1 1.5.5 3 .5 4.6-.1 1.5-.4 3.1-.9 4.5-.6 1.7-1.6 3.7-3 4.9-.1 0-.1.1-.2 0s0-.1 0-.2c.4-.6.8-1.1 1.2-1.7v-.1c-.3-.3-.5-.6-.7-1-.3-.5-.4-1.1-.5-1.7-.1-.5-.1-1-.1-1.4v-.2c0-.1 0-.1-.1-.1l-2.4 1.2h-.2c-.3 0 0 .6.1.8.2.5.3.9.4 1.4.3.9.6 1.9.9 2.8.1.2 0 .4-.1.6-.1.1-.6 1.1-.7 1.1 0 0 .1-.5-.2-.2-.1.1-.1.2-.2.2 0-.2 0-.3.1-.3.3-.3.3-.7.7-1 .1 0 .1-.1 0-.1-.3-.8-.7-1.7-1-2.5s-.8-1.6-.8-2.5c0-.3.1-.6.4-.8.8-.6 1.8-.9 2.8-1.3.2-.1.3-.2.4-.5.1-.7.4-1.4.8-2 .1-.2.1-.2-.1-.2-1 .1-2.1 0-3.1-.1-.1 0-.1 0-.1.1-.2.8-1.2 1.7-1.6 2.3-.6.8-1.1 1.5-1.7 2.3-.2.4-.7.5-.9.8 0 .1-.5.4-.6.4 0 0 .3-.4.1-.3-.4-.4-.4-.4-.5-.4.2-.1 0 0 0 0zm10.2-7.2c-.4-.1-.4-.1-.5.2-.1.2-.1.2.1.3.1 0 .6.3.6.3 0 .1-.1 0-.1 0-.3-.1-.7-.5-.9-.2-.4.7-.8 1.3-1.1 2-.3.6-.5 1.3-.6 2-.1.5-.1 1.1 0 1.6.1.9.3 1.7.8 2.5.1.2.3.4.4.6 1.6-2.7 2.6-6 2.2-9.2-.1-.6-.1-2.1-.6-2.5 0 .2 0 .5-.1.7 0 .2-.5.5-.5.5 0 .1.2 0 .2.1 0-.1-.4.7-.4.5-.1.2-.1.2.1.2.3.2.3.3.4.4-.4-.1-.1-.1 0 0zm-4.3 11c.2-.6-.5-2-.7-2.6-.1-.4-.3-.8-.4-1.3 0-.1-.4-.9-.4-1 0 0 1.1-.4 1.2-.4.6-.3 1.2-.6 1.7-1 .1-.1.2-.3.1-.5-.9.5-1.9.8-2.7 1.3-.9.5-.3 1.6 0 2.3.4 1.2.8 2.2 1.2 3.2 0-.1-.2-.4 0 0zm9.3-9.5c.2.5 3.6.2 3.6.2 0 .1 0 .2.1.2 1.1 1.3 2.1 2.8 3 4.2.1.1.3 0 .2-.1-.8-1.4-1.7-2.8-2.7-4-.1-.2-.3-.4-.5-.4-.1 0 0-.2-.2-.3-1.2-.1-2.4.1-3.5.2 0 .2.3-.1 0 0zm4.3 4.7c.2-.3.2-.4-.1-.5-.9-.4-1.8-1-2.8-1.2-.5-.1.5.5.5.5.7.3 1.4.7 2 1.2.2.1.2-.2.4 0-.2.1-.3.2-.3.4-.3 1.3-.8 2.6-1.2 4 0 .1 0 .2.1.2s.1-.1.1-.1c.5-1.4.9-2.8 1.4-4.2 0-.2.1-.3-.1-.3.2-.3.2 0 0 0zm-12.8-8.9c0-.1.3-.3.3-.4.3-1.1.8-2.1 1.2-3.2.1-.1 0-.2 0-.3-.1-.1-1 1.9-1 2.1-.2.6-1 1.8-.3 2.2.8.5 1.9 1 2.9 1.2.1 0 .2-.1.1-.2 0-.1-.1-.1-.2-.1-.5-.2-1.1-.4-1.6-.6-.4-.3-1.1-.9-1.4-.7-.1-.1.2-.1 0 0zm2.6 11.7c1.4-2.2 2.1-4.8 2.2-7.3 0-1.4-.5-2.8-.4-4.2 0-.3-.3-.4-.4-.1 0 .2.1.4.2.4-.1.1-.1.1 0 .3v.1c.1.9.4 1.8.4 2.8s0 2-.2 3c-.3 1.6-1 3.4-1.8 5 0 0 .1-.2 0 0zm-4.4-7.4c0-.1-.1-.2-.2-.2-.2.1-.3.2-.4.3-.9 1.4-1.9 2.9-2.8 4.3-.1.1-.1.1 0 .2.1 0 .1 0 .2-.1.5-.7 1-1.5 1.6-2.2.5-.7 1.2-1.4 1.6-2.2v-.1c.1-.1 0 .1 0 0zm9.5-2.7c1.1-.2 2.2-.7 3.2-1.2.3-.2.3-.4 0-.5s-1 .5-1.3.6c-.4.2-.9.4-1.4.6-.1 0-1.1.5-.8.5 0 0 .1-.1.3 0 0 0-.2-.1 0 0zm-1.4-.7c-.1 0-.1 0-.1.1-.5 2.8-.4 5.6.6 8.3.4 1 .9 1.9 1.4 2.8v-.1c-1.9-3.3-2.8-7.1-1.9-10.8 0-.1.1-.2.2-.4 0-.4-.7-.2-.2.1-.1 0-.2-.1 0 0zm-5.6 3.4c.1 0 1.2.1 1.3 0 .1-.2-.5-.2-.7-.2-1-.1-1.9-.1-2.9-.2-.3 0-.1.3.1.3.7 0 1.5.1 2.2.1 0 0-.5 0 0 0zm10.4-4.4c-.3-1.2-.8-2.4-1.2-3.6 0-.1-.1 0-.2-.1-.1 0 0 .1 0 .1.4 1 .7 2 1 3 0 .3.2.5.4.6-.1-.2-.2-.1 0 0zm-4.5.2c0-.3-.1-.3-.2-.3s-.1.1-.2.1c-.2.6.3.7.4.2 0-.3 0 .1 0 0zm-4.7 12.7-.9 1.2c.3-.3.6-.7.9-1.2-.3.4-.3.5 0 0zm.6-.7s.1-.1.2-.1l-.1.4c0 .7 0 1.4.3 2 .1.2.3.5.4.7 0 .2.4.1.3-.1v-.2c.1-.3 0-.6-.2-.9-.2-.2-.2-.4-.3-.6 0-.1-.2-1.4-.2-1.4.3-.2.2.8.2.9 0 .5.2.8.4 1.3.1.3.2.7.2 1 0 .1.1.2 0 .3s-.5.2-.5 0c0-.3-.2-.4-.3-.7-.2-.4-.2-.8-.3-1.2 0-.4 0-.7-.1-1.1v-.3zm.8 3.2c.1 0 .2.1.3-.1-.1 0-.2 0-.3.1zm4.6-3.3c.1.1.1.1.1.2-.1.4-.1.8-.1 1.3 0 .6-.4 1.1-.5 1.7 0 .1-.1.2-.2.2-.3 0-.5-.1-.4-.4.1-.3 0-.7.1-1.1.1-.3.3-.6.3-.9.1-.2 0-1.1.1-1.3h.3c0 .1-.1.1-.1.1-.2.4-.1 1.1-.3 1.6-.1.2-.6 1.4-.4 1.6.1.1.2.1.3 0 .1-.3.3-.5.4-.8 0-.1.1-.2.1-.4.2-.5.2-1.2.3-1.8.1.1 0 .3 0 0zm-.7 3.3c-.1-.1-.2-.1-.3-.1.1.1.2.1.3.1zm-3.9-2c.2.1 1.4.5 1.5.7s.2.3.3.5c.2.3.4.3.6 0 .1-.2.2-.4.4-.5.2-.2.5-.3.7-.4.2-.1.3-.1.4-.3v-.1h-.1c-.2.1-1.3.5-1.3.7l.1.1c-.1.2-.2.3-.4.3.1.1.1.2 0 .3 0 0-.1.1-.2 0l-.2-.2s.2 0 .2-.1c-.1-.1-.7-.2-.3-.4.1 0 .1-.1 0-.1-.5 0-1-.2-1.4-.5-.2-.1-.3-.2-.5-.2l.2.2c.4.2-.1-.1 0 0z"/>
    </g>
    <g id="treatmentInfographic_1_" stroke="#000" stroke-miterlimit="10" stroke-width=".5">
      <g id="root_1_" fill="none">
        <path d="M168.9 296c.8-2.1 0-4.2-.7-5.9-.1-.2-.2-.4-.2-.6-1-2.9 1.6-5.7 1.6-5.7m7.2-20.9s2.3-4.1 4.1-5.9m.7 15.4c-.7-1.9-3.9-2.2-4-2.2m-15.4.9c-2.2.7-6.8 3.6-7 3.7m11.1-3.6c-3.1-.4-8.2 5.1-8.5 5.3m1.6-14.5c-8.2-.9-13.7 3.5-13.8 3.6m22-3.7c-1.2-1.1-2.6-4.6-2.6-4.6m6.6 6.8s.3.9.4 1.4m11.5 18.8c-1.4-3.1-4.8-6.6-4.9-6.6m-8.3-15c-.1 0-.1 0 0 0m5.6 23.9c-.3-.3-1.9-1.6-1.9-3.2-.1-1.5-.5-3.4-1.3-5.4-.1-.4-.5-.6-.4-.4.4-.9.6-2.6.6-3.2v-.6c0-.5.1-.8.2-1.2.1-.3.1-.6.2-.9"/>
        <path d="M168.6 324.6c-.1-.9.2-1.6.7-2.6.2-1-.1-3.2-.5-4.8-.6-2.6 2.2-5.3 2.3-5.4l.1.1c.1-.9.3-1.9.6-2.8.1-.7.1-1.7.1-2.7 0-1.6-.1-3.3.4-4.2.1-.2.2-.5.3-.8.7-1.9 1.4-3.8 1.1-7.8-1.5-3.6-1.1-2.5-1.6-3.3s-1.3-.4-2-4.2c-.7-3.8 0-5.2 0-7s.9-6.2 1.2-7.5"/>
        <path d="M178 330.7c-.8-.5-.9-1.7-1-2.5 0-.3 0-.5-.1-.6-1.1-1.1-.9-2.3-.6-3.8 0-1.4-1.1-2.3-1.5-2.6.1.6.1 1.2.1 1.5-.3 1.5-1 4.8.4 9.6.2.5.5 1 .8 1.5.6 4.2.9 7.7.9 7.7l-.1-1.6s-.5-1.8-1.1-6c-.2-.5-.4-.9-.6-1.3 0-.1 0-.1-.1-.2-1.1-2.2-2.1-4.1-1.9-7.4v-.2c.2-4.1.2-5.4-1.7-9.3-.3-.9-.3-2.6-.3-3.7"/>
        <path d="M179 311.3c.3-3.2-.5-4.2-1.1-5l-.1-.1c-.8-1-.8-2.2-.7-4.7 0-2.6-1.4-3.6-1.9-3.9 0 1.1-.1 2.2-.3 2.9l-.1.2c-.8 1.9-1.3 3-1.1 5.3.1 1.7-.3 3.7-.6 4.9-.1.5-.2.9-.2 1.1-.2 1.1.3 2.9.8 3.5.4.7.6 1.7.8 2.4.1.3.1.6.2.8v.3c.1.5.2 1.1.3 1.7l.1.4m-2.8-43.5c-.4 2-.3 2-.3 4s-.3 3.1 0 4.1.8 1.8 1.2 2.3c.9 1.3 1.8 2.5 1.9 4.3v5.2m19.8-37.7c-3-.3-6 1.2-6.1 1.3h.8c-2 0-4.5.3-6.9 1.1"/>
        <path d="M196.4 262.7c-1.8-.9-4.1-1.6-6.8-1.7m-18.9 9.3c.2-.1 1-.1 1.2-.4.3-.4.4-1.1.2-1.8-.1-.2-.3-.4-.4-.7-.6-.9-1.5-2.3-1.3-4.5m2.4 5.1c-.2 1-.1 1.8-.1 1.8m27-1.3c-8.6-7.4-14.7-5.1-14.7-5.1m-11.9 4-.2.4m0 .2v-.2m-.8-5.6v.3"/>
      </g>
      <path id="rosette_1_" fill="none" d="M139.3 270.1s-.8-.5 2.1-4.2c2.4-2.9 5.3-6.2 7.3-7.3 2.1-1.3 4.1-2.8 8.5-1.1 1.4.8 2.3 1.4 3.7 2.8.7 1.1 2.7 2 2.9 2.3 1 .5 5.5 3.7 6.7 4.2-1.2-1.1-5.1-4.5-6.4-5.1-1.4-.6-2.6-1.7-2.2-5.9.4-2.4.9-3.8.9-3.8 1 .8 5 4.5 5.7 5.8.6 1 .2 1.7.6 2.8.3 1 .9 2.1 1.3 2.3.1-.7.3-1.8.3-1.8.3.5 1.6 1.5 1.6 1.5.2.5 1 2.6.9 3.1-.1.8-.3 2-.3 2 .6-.8 2-2 2.6-4.7.2-1.5.1-4.5 1.1-5.8.9-1.3 1.6-2.6 3.7-3.1 1.1-.3 2.9-.8 3.5 1.9.1.9-.1 2.1-2.2 4.5-1.4 1.3-4.5 4-4.5 4.1-.7.8-1 1.2-1 1.2 1.4-1 5.7-3.3 6.3-3.5.6-.8 4.5-5 9.5-5.6 2.2-.2 7.4 1.2 8.9 1.9-.8.4-2.2 1.2-2.4 1.9-.3.8-1 2.3-1.9 2.3.9.6 4 2.6 5.2 4.3 1 1.1 4.1 3.4 6.1 3.9-.3.5-6.5 2.9-9.6 1.9s-4.8-2.9-7.7-5.2c-1.7-1.2-4.4-3-8.4-2.3-2.2.5-6.2 1.8-8 3.2l-.3.4c1 0 8.3-.7 9.7 1.1 1.2 1.6 2.5 3.4 2.5 3.4-.7.6-4.4 3.6-8.2 0-1.5-1.7-2.7-3.3-4-3.2.6.8 3.6 4.8 5.6 5.9 2.2.6 8.1 1.4 9.5 6.1.8 2.6 1 5.7 1 5.7-1.3.6-5.5 3.5-11.3-3.8-1.3-2.6-1.6-2.8-2.7-8.3-.8-1.5-1.5-3-2.8-4-1.3-.1-1.9-.1-2 0-1 .1-3.8.3-4.9 2.1-1.3 1.7-3.3 4.1-7.7 6.4-2.2 1-4.4 2.1-7.7-1.9-.8-1.3-1.2-3.9.1-5.4 1.4-1.6 3.9-4.7 6.4-4.6 1.7.1 8.4 1.3 13.3 2.2-.6-.8-4.3-5.7-12-5.8-1.5.1-3.4.4-5.7 1.9-2.6 1.6-5.9 4.5-10 3.2-1-.4-2.5-.5-3.6.1z"/>
      <path id="aphidClip_3_" fill="#FFF" d="M158.7 252.5c.8.4 0 8.6 0 9.1 0 1.3-3 2.4-6.8 2.4-3.7 0-6.8-1.1-6.8-2.4 0-.6-.8-8.6.2-9m6.6-2.4c-3.7 0-6.8 1.1-6.8 2.4s3 2.4 6.8 2.4c3.7 0 6.8-1.1 6.8-2.4s-3-2.4-6.8-2.4z"/>
      <path id="aphidClip_2_" fill="#FFF" d="M196.4 252.5c.8.4 0 8.6 0 9.1 0 1.3-3 2.4-6.8 2.4-3.7 0-6.8-1.1-6.8-2.4 0-.6-.8-8.6.2-9m6.7-2.4c-3.7 0-6.8 1.1-6.8 2.4s3 2.4 6.8 2.4c3.7 0 6.8-1.1 6.8-2.4s-3.1-2.4-6.8-2.4z"/>
    </g>
    <g id="TimeSampleChart">
      <path id="darkCycle" fill="none" stroke="#555" stroke-miterlimit="10" stroke-width="10" d="M105.3 173.1c-7.6-4.8-9.8-14.9-4.9-22.5 1.6-2.6 3.9-4.5 6.5-5.8"/>
      <path id="lightCycle" fill="none" stroke="#FFF69F" stroke-miterlimit="10" stroke-width="10" d="M106.9 144.8c4.9-2.4 11-2.3 16 .9 7.6 4.8 9.8 14.9 4.9 22.5-4.8 7.6-14.9 9.8-22.5 4.9"/>
      <text id="labels" font-family="'HelveticaNeue-Thin'" font-size="8" transform="translate(140.991 161.475)">8 hour sample</text>
      <path fill="none" stroke="#000" stroke-miterlimit="10" d="M126 159.5h10.5"/>
    </g>
  </g>
  <g id="control_plant_1_" stroke="#000" stroke-miterlimit="10" stroke-width=".5">
    <path id="Control" fill="#FFF" d="M330.4 248.1s-1.9-1.2 4.9-9.8c5.6-6.8 12.3-14.4 17-17 4.9-3 9.5-6.5 19.8-2.6 3.3 1.9 5.4 3.3 8.6 6.5 1.6 2.6 6.3 4.7 6.8 5.4 2.3 1.2 12.8 8.6 15.6 9.8-2.8-2.6-11.9-10.5-14.9-11.9-3.3-1.4-6.1-4-5.1-13.7.9-5.6 2.1-8.8 2.1-8.8 2.3 1.9 11.6 10.5 13.3 13.5 1.4 2.3.5 4 1.4 6.5.7 2.3 2.1 4.9 3 5.4.2-1.6.7-4.2.7-4.2.7 1.2 3.7 3.5 3.7 3.5.5 1.2 2.3 6.1 2.1 7.2-.2 1.9-.7 4.7-.7 4.7 1.4-1.9 4.7-4.7 6.1-10.9.5-3.5.2-10.5 2.6-13.5 2.1-3 3.7-6.1 8.6-7.2 2.6-.7 6.8-1.9 8.1 4.4.2 2.1-.2 4.9-5.1 10.5-3.3 3-10.5 9.3-10.5 9.5-1.6 1.9-2.3 2.8-2.3 2.8 3.3-2.3 13.3-7.7 14.7-8.1 1.4-1.9 10.5-11.6 22.1-13 5.1-.5 17.2 2.8 20.7 4.4-1.9.9-5.1 2.8-5.6 4.4-.7 1.9-2.3 5.4-4.4 5.4 2.1 1.4 9.3 6.1 12.1 10 2.3 2.6 9.5 7.9 14.2 9.1-.7 1.2-15.1 6.8-22.4 4.4-7.2-2.3-11.2-6.8-17.9-12.1-4-2.8-10.2-7-19.6-5.4-5.1 1.2-14.4 4.2-18.6 7.5l-.7.9c2.3 0 19.3-1.6 22.6 2.6 2.8 3.7 5.8 7.9 5.8 7.9-1.6 1.4-10.2 8.4-19.1 0-3.5-4-6.3-7.7-9.3-7.5 1.4 1.9 8.4 11.2 13 13.7 5.1 1.4 18.9 3.3 22.1 14.2 1.9 6.1 2.3 13.3 2.3 13.3-3 1.4-12.8 8.1-26.3-8.8-3-6.1-3.7-6.5-6.3-19.3-1.9-3.5-3.5-7-6.5-9.3-3-.2-4.4-.2-4.7 0-2.3.2-8.8.7-11.4 4.9-3 4-7.7 9.5-17.9 14.9-5.1 2.3-10.2 4.9-17.9-4.4-1.9-3-2.8-9.1.2-12.6 3.3-3.7 9.1-10.9 14.9-10.7 4 .2 19.6 3 31 5.1-1.4-1.9-10-13.3-27.9-13.5-3.5.2-7.9.9-13.3 4.4-6.1 3.7-13.7 10.5-23.3 7.5-2.3-1.1-5.8-1.4-8.4 0z"/>
    <path id="root_2_" fill="none" d="M399.4 308.5c1.9-4.9 0-9.8-1.6-13.7-.2-.5-.5-.9-.5-1.4-2.3-6.8 3.7-13.3 3.7-13.3m16.7-48.7s5.4-9.5 9.5-13.7m1.7 35.8c-1.6-4.4-9.1-5.1-9.3-5.1m-35.8 2.1c-5.1 1.6-15.8 8.4-16.3 8.6m25.8-8.4c-7.2-.9-19.1 11.9-19.8 12.3m3.7-33.7c-19.1-2.1-31.9 8.1-32.1 8.4m51.2-8.6c-2.8-2.6-6.1-10.7-6.1-10.7m15.4 15.8s.7 2.1.9 3.3m26.9 43.7c-3.3-7.2-11.2-15.4-11.4-15.4m-19.4-34.9c-.2 0-.2 0 0 0m13.1 55.7c-.7-.7-4.4-3.7-4.4-7.5-.2-3.5-1.2-7.9-3-12.6-.2-.9-1.2-1.4-.9-.9.9-2.1 1.4-6.1 1.4-7.5v-1.4c0-1.2.2-1.9.5-2.8.2-.7.2-1.4.5-2.1M398.7 375c-.2-2.1.5-3.7 1.6-6.1.5-2.3-.2-7.5-1.2-11.2-1.4-6.1 5.1-12.3 5.4-12.6l.2.2c.2-2.1.7-4.4 1.4-6.5.2-1.6.2-4 .2-6.3 0-3.7-.2-7.7.9-9.8.2-.5.5-1.2.7-1.9 1.6-4.4 3.3-8.8 2.6-18.2-3.5-8.4-2.6-5.8-3.7-7.7-1.2-1.9-3-.9-4.7-9.8-1.6-8.8 0-12.1 0-16.3 0-4.2 2.1-14.4 2.8-17.5m15.6 137.9c-1.9-1.2-2.1-4-2.3-5.8 0-.7 0-1.2-.2-1.4-2.6-2.6-2.1-5.4-1.4-8.8 0-3.3-2.6-5.4-3.5-6.1.2 1.4.2 2.8.2 3.5-.7 3.5-2.3 11.2.9 22.4.5 1.2 1.2 2.3 1.9 3.5 1.4 9.8 2.1 17.9 2.1 17.9l-.2-3.7s-1.2-4.2-2.6-14c-.5-1.2-.9-2.1-1.4-3 0-.2 0-.2-.2-.5-2.6-5.1-4.9-9.5-4.4-17.2v-.5c.5-9.5.5-12.6-4-21.7-.7-2.1-.7-6.1-.7-8.6m18.2-1.1c.7-7.5-1.2-9.8-2.6-11.6l-.2-.2c-1.9-2.3-1.9-5.1-1.6-10.9 0-6.1-3.3-8.4-4.4-9.1 0 2.6-.2 5.1-.7 6.8l-.2.5c-1.9 4.4-3 7-2.6 12.3.2 4-.7 8.6-1.4 11.4-.2 1.2-.5 2.1-.5 2.6-.5 2.6.7 6.8 1.9 8.1.9 1.6 1.4 4 1.9 5.6.2.7.2 1.4.5 1.9v.7c.2 1.2.5 2.6.7 4l.2.9m-6.6-101.5c-.9 4.7-.7 4.7-.7 9.3 0 4.7-.7 7.2 0 9.5s1.9 4.2 2.8 5.4c2.1 3 4.2 5.8 4.4 10v12.1m46.1-87.7c-7-.7-14 2.8-14.2 3h1.9c-4.7 0-10.5.7-16.1 2.6m31.9 1.1c-4.2-2.1-9.5-3.7-15.8-4m-44.1 21.7c.5-.2 2.3-.2 2.8-.9.7-.9.9-2.6.5-4.2-.2-.5-.7-.9-.9-1.6-1.4-2.1-3.5-5.4-3-10.5m5.5 11.9c-.5 2.3-.2 4.2-.2 4.2m62.9-3.1c-20-17.2-34.2-11.9-34.2-11.9m-27.8 9.4-.5.9m.1.5v-.5m-1.9-13.1v.7"/>
  </g>
  <g id="aphid_infested_plant">
    <path id="Aphid_infested" fill="#FFF" stroke="#000" stroke-miterlimit="10" stroke-width=".5" d="M550.4 248.1s-1.9-1.2 4.9-9.8c5.6-6.8 12.3-14.4 17-17 4.9-3 9.5-6.5 19.8-2.6 3.3 1.9 5.4 3.3 8.6 6.5 1.6 2.6 6.3 4.7 6.8 5.4 2.3 1.2 12.8 8.6 15.6 9.8-2.8-2.6-11.9-10.5-14.9-11.9-3.3-1.4-6.1-4-5.1-13.7.9-5.6 2.1-8.8 2.1-8.8 2.3 1.9 11.6 10.5 13.3 13.5 1.4 2.3.5 4 1.4 6.5.7 2.3 2.1 4.9 3 5.4.2-1.6.7-4.2.7-4.2.7 1.2 3.7 3.5 3.7 3.5.5 1.2 2.3 6.1 2.1 7.2-.2 1.9-.7 4.7-.7 4.7 1.4-1.9 4.7-4.7 6.1-10.9.5-3.5.2-10.5 2.6-13.5 2.1-3 3.7-6.1 8.6-7.2 2.6-.7 6.8-1.9 8.1 4.4.2 2.1-.2 4.9-5.1 10.5-3.3 3-10.5 9.3-10.5 9.5-1.6 1.9-2.3 2.8-2.3 2.8 3.3-2.3 13.3-7.7 14.7-8.1 1.4-1.9 10.5-11.6 22.1-13 5.1-.5 17.2 2.8 20.7 4.4-1.9.9-5.1 2.8-5.6 4.4-.7 1.9-2.3 5.4-4.4 5.4 2.1 1.4 9.3 6.1 12.1 10 2.3 2.6 9.5 7.9 14.2 9.1-.7 1.2-15.1 6.8-22.4 4.4-7.2-2.3-11.2-6.8-17.9-12.1-4-2.8-10.2-7-19.6-5.4-5.1 1.2-14.4 4.2-18.6 7.5l-.7.9c2.3 0 19.3-1.6 22.6 2.6 2.8 3.7 5.8 7.9 5.8 7.9-1.6 1.4-10.2 8.4-19.1 0-3.5-4-6.3-7.7-9.3-7.5 1.4 1.9 8.4 11.2 13 13.7 5.1 1.4 18.9 3.3 22.1 14.2 1.9 6.1 2.3 13.3 2.3 13.3-3 1.4-12.8 8.1-26.3-8.8-3-6.1-3.7-6.5-6.3-19.3-1.9-3.5-3.5-7-6.5-9.3-3-.2-4.4-.2-4.7 0-2.3.2-8.8.7-11.4 4.9-3 4-7.7 9.5-17.9 14.9-5.1 2.3-10.2 4.9-17.9-4.4-1.9-3-2.8-9.1.2-12.6 3.3-3.7 9.1-10.9 14.9-10.7 4 .2 19.6 3 31 5.1-1.4-1.9-10-13.3-27.9-13.5-3.5.2-7.9.9-13.3 4.4-6.1 3.7-13.7 10.5-23.3 7.5-2.3-1.1-5.8-1.4-8.4 0z"/>
    <path id="root_4_" fill="none" stroke="#000" stroke-miterlimit="10" stroke-width=".5" d="M619.4 308.5c1.9-4.9 0-9.8-1.6-13.7-.2-.5-.5-.9-.5-1.4-2.3-6.8 3.7-13.3 3.7-13.3m16.7-48.7s5.4-9.5 9.5-13.7m1.7 35.8c-1.6-4.4-9.1-5.1-9.3-5.1m-35.8 2.1c-5.1 1.6-15.8 8.4-16.3 8.6m25.8-8.4c-7.2-.9-19.1 11.9-19.8 12.3m3.7-33.7c-19.1-2.1-31.9 8.1-32.1 8.4m51.2-8.6c-2.8-2.6-6.1-10.7-6.1-10.7m15.4 15.8s.7 2.1.9 3.3m26.9 43.7c-3.3-7.2-11.2-15.4-11.4-15.4m-19.4-34.9c-.2 0-.2 0 0 0m13.1 55.7c-.7-.7-4.4-3.7-4.4-7.5-.2-3.5-1.2-7.9-3-12.6-.2-.9-1.2-1.4-.9-.9.9-2.1 1.4-6.1 1.4-7.5v-1.4c0-1.2.2-1.9.5-2.8.2-.7.2-1.4.5-2.1M618.7 375c-.2-2.1.5-3.7 1.6-6.1.5-2.3-.2-7.5-1.2-11.2-1.4-6.1 5.1-12.3 5.4-12.6l.2.2c.2-2.1.7-4.4 1.4-6.5.2-1.6.2-4 .2-6.3 0-3.7-.2-7.7.9-9.8.2-.5.5-1.2.7-1.9 1.6-4.4 3.3-8.8 2.6-18.2-3.5-8.4-2.6-5.8-3.7-7.7-1.2-1.9-3-.9-4.7-9.8-1.6-8.8 0-12.1 0-16.3 0-4.2 2.1-14.4 2.8-17.5m15.6 137.9c-1.9-1.2-2.1-4-2.3-5.8 0-.7 0-1.2-.2-1.4-2.6-2.6-2.1-5.4-1.4-8.8 0-3.3-2.6-5.4-3.5-6.1.2 1.4.2 2.8.2 3.5-.7 3.5-2.3 11.2.9 22.4.5 1.2 1.2 2.3 1.9 3.5 1.4 9.8 2.1 17.9 2.1 17.9l-.2-3.7s-1.2-4.2-2.6-14c-.5-1.2-.9-2.1-1.4-3 0-.2 0-.2-.2-.5-2.6-5.1-4.9-9.5-4.4-17.2v-.5c.5-9.5.5-12.6-4-21.7-.7-2.1-.7-6.1-.7-8.6m18.2-1.1c.7-7.5-1.2-9.8-2.6-11.6l-.2-.2c-1.9-2.3-1.9-5.1-1.6-10.9 0-6.1-3.3-8.4-4.4-9.1 0 2.6-.2 5.1-.7 6.8l-.2.5c-1.9 4.4-3 7-2.6 12.3.2 4-.7 8.6-1.4 11.4-.2 1.2-.5 2.1-.5 2.6-.5 2.6.7 6.8 1.9 8.1.9 1.6 1.4 4 1.9 5.6.2.7.2 1.4.5 1.9v.7c.2 1.2.5 2.6.7 4l.2.9m-6.6-101.5c-.9 4.7-.7 4.7-.7 9.3 0 4.7-.7 7.2 0 9.5s1.9 4.2 2.8 5.4c2.1 3 4.2 5.8 4.4 10v12.1m46.1-87.7c-7-.7-14 2.8-14.2 3h1.9c-4.7 0-10.5.7-16.1 2.6m31.9 1.1c-4.2-2.1-9.5-3.7-15.8-4m-44.1 21.7c.5-.2 2.3-.2 2.8-.9.7-.9.9-2.6.5-4.2-.2-.5-.7-.9-.9-1.6-1.4-2.1-3.5-5.4-3-10.5m5.5 11.9c-.5 2.3-.2 4.2-.2 4.2m62.9-3.1c-20-17.2-34.2-11.9-34.2-11.9m-27.8 9.4-.5.9m.1.5v-.5m-1.9-13.1v.7"/>
    <path id="aphid_2_" d="M655.7 181.7c.2-.1 1.1-.6 1.2-.8.9-1.6 2-3.1 3-4.6.3-.4.7-.7 1.2-.8.6 0 1.3 0 1.9.1.3 0 1.4.3 1.6 0 .2-.3.7-1 .8-1.3s.4-.8 0-1c-.8-.4-2.8-.5-3.2-1.4-.1-.3-.1-.6 0-.9l1.2-2.7c.3-.7.8-1.1.5-1.9 0 .1-.1-.7-.1-.7h.1c0 .2.3.3.4.1v-.1.1c-.1.2 0 .8 0 1 0 .4-.1.8-.3 1.2-.4.9-.8 1.8-1.1 2.8 0 .1-.2.6-.2.6.1.2.6.4.8.5s2 .9 2.1.8c.1-.2.2-.4.4-.5.1 0 .1-.1.1-.1.1-.2.1-.5.2-.7.2-.5.8-.3.9.1.1.2.6 0 .7 0 .1 0 .1.1.3 0 .1-.1.2-.3.3-.4.3-.2.7 0 .8.4 0 .3.3 1.4.7 1.3.6-.2 1.1-.4 1.7-.7.4-.2.9-.7 1.4-.7.1 0 .1 0 .1-.1-.4-1.1-.6-2.3-1.1-3.3-.1-.1 0-.3 0-.4.1-.6.6-.8.8-1.3 0-.1.1-.1.1-.2-.2.6.1.1.2.2s-.6.8-.6.8c-.2.1-.4.3-.2.6.7 1.1 1.2 2.5 1.3 3.8 0 .2-.1.4-.3.5-.7.4-1.4.7-2.1 1-.2.1-1.5.4-1.4.5.1.2.5 1 .5 1.1 0 .2.4.7.5.9s1.4 0 1.7-.1c.6 0 1.3-.1 1.9 0 .2 0 .7.6.9.8.9 1.2 1.8 2.5 2.6 3.8.1.1.1.2.1.3 0 .2.2.3.4.4.1 0 1 .7 1 .7h-.2c-.3.1 0 .2 0 .4-.2-.2-.4-.3-.6-.4-.3-.2-.5-.5-.8-.7-.6-.4-1.1-1.6-1.5-2.2-.5-.8-1.2-1.5-1.8-2.4 0-.1-.1 0-.2 0-1 .1-2.1 0-3.1.1.2.5.5.9.7 1.4.1.3.2.9.4 1 .9.3 1.9.7 2.8 1.2.2.1.4.2.5.4.2.8-.4 1.9-.7 2.7s-.5 1.8-1 2.6v.2c.1.1.1.2.2.3.1.2.2.3.1.5 0 .1 0 .1.1.1 0 0 .2.1.2.2s-.3-.2-.4-.1c-.1.1 0 .2 0 .3v.1c-.1 0-.1 0-.1-.1 0-.4-.3-.9-.4-1.2-.1-.3 0-.6.1-.9.1-.4 1.5-4.1 1.2-4.3-.5-.4-1.1-.7-1.7-1-.3-.1-.9-.7-.9-.1 0 .7 0 1.4-.2 2-.1.2-.9 2.3-1.1 2.1v-.1c.4-.7.7-1.3.9-2.1.2-.6.2-1.2.2-1.8-.1-.5-.2-1.1-.3-1.6-.3-1.1-.9-2.1-1.5-3-.1-.1-.1-.2-.2-.1-.2 0-.4 0-.6.1.1-.1.2-.1.3-.2.1 0 .2 0 .3-.1.1 0 .1-.1.1-.1 0-.1-.2-.5-.4-.4-.1 0-.3 0-.4.1.1-.2.4-.2.4-.4 0-.3-.3-.5-.5-.3 0-.2.2-.1.2-.2-.2 0-.3-.1-.4-.2 0 0 .2-1 0-1 0 0-.2.8-.2.9-.2.6-.2 1.3-.2 1.9-.1 1.3-.1 2.7.2 4 .2 1.1.6 2.1 1 3.1.6 1.3 1.5 2.4 2.4 3.6 0 .1.1.1 0 .2s-.1 0-.1 0c-.9-.6-1.7-1.9-2.2-2.8-.7-1.2-1.1-2.4-1.4-3.7-.2-1.2-.4-2.5-.3-3.8 0-.7.1-1.4.2-2 .1-.5-.1-1.1 0-1.6 0-.2.2-.3.4-.3-.5-.2-.5.4-.5.7-.2-.1-.6-.5-.8-.2-.2.2-.4 0-.6.1 0-.2-.3-.8-.5-.4.4 0 .4.2.4.4.1 1.5.5 3 .5 4.6-.1 1.5-.4 3.1-.9 4.5-.6 1.7-1.6 3.7-3 4.9-.1 0-.1.1-.2 0s0-.1 0-.2c.4-.6.8-1.1 1.2-1.7v-.1c-.3-.3-.5-.6-.7-1-.3-.5-.4-1.1-.5-1.7-.1-.5-.1-1-.1-1.4v-.2c0-.1 0-.1-.1-.1l-2.4 1.2h-.2c-.3 0 0 .6.1.8.2.5.3.9.4 1.4.3.9.6 1.9.9 2.8.1.2 0 .4-.1.6-.1.1-.6 1.1-.7 1.1 0 0 .1-.5-.2-.2-.1.1-.1.2-.2.2 0-.2 0-.3.1-.3.3-.3.3-.7.7-1 .1 0 .1-.1 0-.1-.3-.8-.7-1.7-1-2.5s-.8-1.6-.8-2.5c0-.3.1-.6.4-.8.8-.6 1.8-.9 2.8-1.3.2-.1.3-.2.4-.5.1-.7.4-1.4.8-2 .1-.2.1-.2-.1-.2-1 .1-2.1 0-3.1-.1-.1 0-.1 0-.1.1-.2.8-1.2 1.7-1.6 2.3-.6.8-1.1 1.5-1.7 2.3-.2.4-.7.5-.9.8 0 .1-.5.4-.6.4 0 0 .3-.4.1-.3-.4-.4-.4-.4-.5-.4.2-.1 0 0 0 0zm10.2-7.2c-.4-.1-.4-.1-.5.2-.1.2-.1.2.1.3.1 0 .6.3.6.3 0 .1-.1 0-.1 0-.3-.1-.7-.5-.9-.2-.4.7-.8 1.3-1.1 2-.3.6-.5 1.3-.6 2-.1.5-.1 1.1 0 1.6.1.9.3 1.7.8 2.5.1.2.3.4.4.6 1.6-2.7 2.6-6 2.2-9.2-.1-.6-.1-2.1-.6-2.5 0 .2 0 .5-.1.7 0 .2-.5.5-.5.5 0 .1.2 0 .2.1 0-.1-.4.7-.4.5-.1.2-.1.2.1.2.3.2.3.3.4.4-.4-.1-.1-.1 0 0zm-4.3 11c.2-.6-.5-2-.7-2.6-.1-.4-.3-.8-.4-1.3 0-.1-.4-.9-.4-1 0 0 1.1-.4 1.2-.4.6-.3 1.2-.6 1.7-1 .1-.1.2-.3.1-.5-.9.5-1.9.8-2.7 1.3-.9.5-.3 1.6 0 2.3.4 1.2.8 2.2 1.2 3.2 0-.1-.2-.4 0 0zm9.3-9.5c.2.5 3.6.2 3.6.2 0 .1 0 .2.1.2 1.1 1.3 2.1 2.8 3 4.2.1.1.3 0 .2-.1-.8-1.4-1.7-2.8-2.7-4-.1-.2-.3-.4-.5-.4-.1 0 0-.2-.2-.3-1.2-.1-2.4.1-3.5.2 0 .2.3-.1 0 0zm4.3 4.7c.2-.3.2-.4-.1-.5-.9-.4-1.8-1-2.8-1.2-.5-.1.5.5.5.5.7.3 1.4.7 2 1.2.2.1.2-.2.4 0-.2.1-.3.2-.3.4-.3 1.3-.8 2.6-1.2 4 0 .1 0 .2.1.2s.1-.1.1-.1c.5-1.4.9-2.8 1.4-4.2 0-.2.1-.3-.1-.3.2-.3.2 0 0 0zm-12.8-8.9c0-.1.3-.3.3-.4.3-1.1.8-2.1 1.2-3.2.1-.1 0-.2 0-.3-.1-.1-1 1.9-1 2.1-.2.6-1 1.8-.3 2.2.8.5 1.9 1 2.9 1.2.1 0 .2-.1.1-.2 0-.1-.1-.1-.2-.1-.5-.2-1.1-.4-1.6-.6-.4-.3-1.1-.9-1.4-.7-.1-.1.2-.1 0 0zm2.6 11.7c1.4-2.2 2.1-4.8 2.2-7.3 0-1.4-.5-2.8-.4-4.2 0-.3-.3-.4-.4-.1 0 .2.1.4.2.4-.1.1-.1.1 0 .3v.1c.1.9.4 1.8.4 2.8s0 2-.2 3c-.3 1.6-1 3.4-1.8 5 0 0 .1-.2 0 0zm-4.4-7.4c0-.1-.1-.2-.2-.2-.2.1-.3.2-.4.3-.9 1.4-1.9 2.9-2.8 4.3-.1.1-.1.1 0 .2.1 0 .1 0 .2-.1.5-.7 1-1.5 1.6-2.2.5-.7 1.2-1.4 1.6-2.2v-.1c.1-.1 0 .1 0 0zm9.5-2.7c1.1-.2 2.2-.7 3.2-1.2.3-.2.3-.4 0-.5s-1 .5-1.3.6c-.4.2-.9.4-1.4.6-.1 0-1.1.5-.8.5 0 0 .1-.1.3 0 0 0-.2-.1 0 0zm-1.4-.7c-.1 0-.1 0-.1.1-.5 2.8-.4 5.6.6 8.3.4 1 .9 1.9 1.4 2.8v-.1c-1.9-3.3-2.8-7.1-1.9-10.8 0-.1.1-.2.2-.4 0-.4-.7-.2-.2.1-.1 0-.2-.1 0 0zm-5.6 3.4c.1 0 1.2.1 1.3 0 .1-.2-.5-.2-.7-.2-1-.1-1.9-.1-2.9-.2-.3 0-.1.3.1.3.7 0 1.5.1 2.2.1 0 0-.5 0 0 0zm10.4-4.4c-.3-1.2-.8-2.4-1.2-3.6 0-.1-.1 0-.2-.1-.1 0 0 .1 0 .1.4 1 .7 2 1 3 0 .3.2.5.4.6-.1-.2-.2-.1 0 0zm-4.5.2c0-.3-.1-.3-.2-.3s-.1.1-.2.1c-.2.6.3.7.4.2 0-.3 0 .1 0 0zm-4.7 12.7-.9 1.2c.3-.3.6-.7.9-1.2-.3.4-.3.5 0 0zm.6-.7s.1-.1.2-.1l-.1.4c0 .7 0 1.4.3 2 .1.2.3.5.4.7 0 .2.4.1.3-.1v-.2c.1-.3 0-.6-.2-.9-.2-.2-.2-.4-.3-.6 0-.1-.2-1.4-.2-1.4.3-.2.2.8.2.9 0 .5.2.8.4 1.3.1.3.2.7.2 1 0 .1.1.2 0 .3s-.5.2-.5 0c0-.3-.2-.4-.3-.7-.2-.4-.2-.8-.3-1.2 0-.4 0-.7-.1-1.1v-.3zm.8 3.2c.1 0 .2.1.3-.1-.1 0-.2 0-.3.1zm4.6-3.3c.1.1.1.1.1.2-.1.4-.1.8-.1 1.3 0 .6-.4 1.1-.5 1.7 0 .1-.1.2-.2.2-.3 0-.5-.1-.4-.4.1-.3 0-.7.1-1.1.1-.3.3-.6.3-.9.1-.2 0-1.1.1-1.3h.3c0 .1-.1.1-.1.1-.2.4-.1 1.1-.3 1.6-.1.2-.6 1.4-.4 1.6.1.1.2.1.3 0 .1-.3.3-.5.4-.8 0-.1.1-.2.1-.4.2-.5.2-1.2.3-1.8.1.1 0 .3 0 0zm-.7 3.3c-.1-.1-.2-.1-.3-.1.1.1.2.1.3.1zm-3.9-2c.2.1 1.4.5 1.5.7s.2.3.3.5c.2.3.4.3.6 0 .1-.2.2-.4.4-.5.2-.2.5-.3.7-.4.2-.1.3-.1.4-.3v-.1h-.1c-.2.1-1.3.5-1.3.7l.1.1c-.1.2-.2.3-.4.3.1.1.1.2 0 .3 0 0-.1.1-.2 0l-.2-.2s.2 0 .2-.1c-.1-.1-.7-.2-.3-.4.1 0 .1-.1 0-.1-.5 0-1-.2-1.4-.5-.2-.1-.3-.2-.5-.2l.2.2c.4.2-.1-.1 0 0z"/>
    <path id="aphid_3_" d="M570.7 181.7c.2-.1 1.1-.6 1.2-.8.9-1.6 2-3.1 3-4.6.3-.4.7-.7 1.2-.8.6 0 1.3 0 1.9.1.3 0 1.4.3 1.6 0 .2-.3.7-1 .8-1.3s.4-.8 0-1c-.8-.4-2.8-.5-3.2-1.4-.1-.3-.1-.6 0-.9l1.2-2.7c.3-.7.8-1.1.5-1.9 0 .1-.1-.7-.1-.7h.1c0 .2.3.3.4.1v-.1.1c-.1.2 0 .8 0 1 0 .4-.1.8-.3 1.2-.4.9-.8 1.8-1.1 2.8 0 .1-.2.6-.2.6.1.2.6.4.8.5s2 .9 2.1.8c.1-.2.2-.4.4-.5.1 0 .1-.1.1-.1.1-.2.1-.5.2-.7.2-.5.8-.3.9.1.1.2.6 0 .7 0 .1 0 .1.1.3 0 .1-.1.2-.3.3-.4.3-.2.7 0 .8.4 0 .3.3 1.4.7 1.3.6-.2 1.1-.4 1.7-.7.4-.2.9-.7 1.4-.7.1 0 .1 0 .1-.1-.4-1.1-.6-2.3-1.1-3.3-.1-.1 0-.3 0-.4.1-.6.6-.8.8-1.3 0-.1.1-.1.1-.2-.2.6.1.1.2.2s-.6.8-.6.8c-.2.1-.4.3-.2.6.7 1.1 1.2 2.5 1.3 3.8 0 .2-.1.4-.3.5-.7.4-1.4.7-2.1 1-.2.1-1.5.4-1.4.5.1.2.5 1 .5 1.1 0 .2.4.7.5.9s1.4 0 1.7-.1c.6 0 1.3-.1 1.9 0 .2 0 .7.6.9.8.9 1.2 1.8 2.5 2.6 3.8.1.1.1.2.1.3 0 .2.2.3.4.4.1 0 1 .7 1 .7h-.2c-.3.1 0 .2 0 .4-.2-.2-.4-.3-.6-.4-.3-.2-.5-.5-.8-.7-.6-.4-1.1-1.6-1.5-2.2-.5-.8-1.2-1.5-1.8-2.4 0-.1-.1 0-.2 0-1 .1-2.1 0-3.1.1.2.5.5.9.7 1.4.1.3.2.9.4 1 .9.3 1.9.7 2.8 1.2.2.1.4.2.5.4.2.8-.4 1.9-.7 2.7s-.5 1.8-1 2.6v.2c.1.1.1.2.2.3.1.2.2.3.1.5 0 .1 0 .1.1.1 0 0 .2.1.2.2s-.3-.2-.4-.1c-.1.1 0 .2 0 .3v.1c-.1 0-.1 0-.1-.1 0-.4-.3-.9-.4-1.2-.1-.3 0-.6.1-.9.1-.4 1.5-4.1 1.2-4.3-.5-.4-1.1-.7-1.7-1-.3-.1-.9-.7-.9-.1 0 .7 0 1.4-.2 2-.1.2-.9 2.3-1.1 2.1v-.1c.4-.7.7-1.3.9-2.1.2-.6.2-1.2.2-1.8-.1-.5-.2-1.1-.3-1.6-.3-1.1-.9-2.1-1.5-3-.1-.1-.1-.2-.2-.1-.2 0-.4 0-.6.1.1-.1.2-.1.3-.2.1 0 .2 0 .3-.1.1 0 .1-.1.1-.1 0-.1-.2-.5-.4-.4-.1 0-.3 0-.4.1.1-.2.4-.2.4-.4 0-.3-.3-.5-.5-.3 0-.2.2-.1.2-.2-.2 0-.3-.1-.4-.2 0 0 .2-1 0-1 0 0-.2.8-.2.9-.2.6-.2 1.3-.2 1.9-.1 1.3-.1 2.7.2 4 .2 1.1.6 2.1 1 3.1.6 1.3 1.5 2.4 2.4 3.6 0 .1.1.1 0 .2s-.1 0-.1 0c-.9-.6-1.7-1.9-2.2-2.8-.7-1.2-1.1-2.4-1.4-3.7-.2-1.2-.4-2.5-.3-3.8 0-.7.1-1.4.2-2 .1-.5-.1-1.1 0-1.6 0-.2.2-.3.4-.3-.5-.2-.5.4-.5.7-.2-.1-.6-.5-.8-.2-.2.2-.4 0-.6.1 0-.2-.3-.8-.5-.4.4 0 .4.2.4.4.1 1.5.5 3 .5 4.6-.1 1.5-.4 3.1-.9 4.5-.6 1.7-1.6 3.7-3 4.9-.1 0-.1.1-.2 0s0-.1 0-.2c.4-.6.8-1.1 1.2-1.7v-.1c-.3-.3-.5-.6-.7-1-.3-.5-.4-1.1-.5-1.7-.1-.5-.1-1-.1-1.4v-.2c0-.1 0-.1-.1-.1l-2.4 1.2h-.2c-.3 0 0 .6.1.8.2.5.3.9.4 1.4.3.9.6 1.9.9 2.8.1.2 0 .4-.1.6-.1.1-.6 1.1-.7 1.1 0 0 .1-.5-.2-.2-.1.1-.1.2-.2.2 0-.2 0-.3.1-.3.3-.3.3-.7.7-1 .1 0 .1-.1 0-.1-.3-.8-.7-1.7-1-2.5s-.8-1.6-.8-2.5c0-.3.1-.6.4-.8.8-.6 1.8-.9 2.8-1.3.2-.1.3-.2.4-.5.1-.7.4-1.4.8-2 .1-.2.1-.2-.1-.2-1 .1-2.1 0-3.1-.1-.1 0-.1 0-.1.1-.2.8-1.2 1.7-1.6 2.3-.6.8-1.1 1.5-1.7 2.3-.2.4-.7.5-.9.8 0 .1-.5.4-.6.4 0 0 .3-.4.1-.3-.4-.4-.4-.4-.5-.4.2-.1 0 0 0 0zm10.2-7.2c-.4-.1-.4-.1-.5.2-.1.2-.1.2.1.3.1 0 .6.3.6.3 0 .1-.1 0-.1 0-.3-.1-.7-.5-.9-.2-.4.7-.8 1.3-1.1 2-.3.6-.5 1.3-.6 2-.1.5-.1 1.1 0 1.6.1.9.3 1.7.8 2.5.1.2.3.4.4.6 1.6-2.7 2.6-6 2.2-9.2-.1-.6-.1-2.1-.6-2.5 0 .2 0 .5-.1.7 0 .2-.5.5-.5.5 0 .1.2 0 .2.1 0-.1-.4.7-.4.5-.1.2-.1.2.1.2.3.2.3.3.4.4-.4-.1-.1-.1 0 0zm-4.3 11c.2-.6-.5-2-.7-2.6-.1-.4-.3-.8-.4-1.3 0-.1-.4-.9-.4-1 0 0 1.1-.4 1.2-.4.6-.3 1.2-.6 1.7-1 .1-.1.2-.3.1-.5-.9.5-1.9.8-2.7 1.3-.9.5-.3 1.6 0 2.3.4 1.2.8 2.2 1.2 3.2 0-.1-.2-.4 0 0zm9.3-9.5c.2.5 3.6.2 3.6.2 0 .1 0 .2.1.2 1.1 1.3 2.1 2.8 3 4.2.1.1.3 0 .2-.1-.8-1.4-1.7-2.8-2.7-4-.1-.2-.3-.4-.5-.4-.1 0 0-.2-.2-.3-1.2-.1-2.4.1-3.5.2 0 .2.3-.1 0 0zm4.3 4.7c.2-.3.2-.4-.1-.5-.9-.4-1.8-1-2.8-1.2-.5-.1.5.5.5.5.7.3 1.4.7 2 1.2.2.1.2-.2.4 0-.2.1-.3.2-.3.4-.3 1.3-.8 2.6-1.2 4 0 .1 0 .2.1.2s.1-.1.1-.1c.5-1.4.9-2.8 1.4-4.2 0-.2.1-.3-.1-.3.2-.3.2 0 0 0zm-12.8-8.9c0-.1.3-.3.3-.4.3-1.1.8-2.1 1.2-3.2.1-.1 0-.2 0-.3-.1-.1-1 1.9-1 2.1-.2.6-1 1.8-.3 2.2.8.5 1.9 1 2.9 1.2.1 0 .2-.1.1-.2 0-.1-.1-.1-.2-.1-.5-.2-1.1-.4-1.6-.6-.4-.3-1.1-.9-1.4-.7-.1-.1.2-.1 0 0zm2.6 11.7c1.4-2.2 2.1-4.8 2.2-7.3 0-1.4-.5-2.8-.4-4.2 0-.3-.3-.4-.4-.1 0 .2.1.4.2.4-.1.1-.1.1 0 .3v.1c.1.9.4 1.8.4 2.8s0 2-.2 3c-.3 1.6-1 3.4-1.8 5 0 0 .1-.2 0 0zm-4.4-7.4c0-.1-.1-.2-.2-.2-.2.1-.3.2-.4.3-.9 1.4-1.9 2.9-2.8 4.3-.1.1-.1.1 0 .2.1 0 .1 0 .2-.1.5-.7 1-1.5 1.6-2.2.5-.7 1.2-1.4 1.6-2.2v-.1c.1-.1 0 .1 0 0zm9.5-2.7c1.1-.2 2.2-.7 3.2-1.2.3-.2.3-.4 0-.5s-1 .5-1.3.6c-.4.2-.9.4-1.4.6-.1 0-1.1.5-.8.5 0 0 .1-.1.3 0 0 0-.2-.1 0 0zm-1.4-.7c-.1 0-.1 0-.1.1-.5 2.8-.4 5.6.6 8.3.4 1 .9 1.9 1.4 2.8v-.1c-1.9-3.3-2.8-7.1-1.9-10.8 0-.1.1-.2.2-.4 0-.4-.7-.2-.2.1-.1 0-.2-.1 0 0zm-5.6 3.4c.1 0 1.2.1 1.3 0 .1-.2-.5-.2-.7-.2-1-.1-1.9-.1-2.9-.2-.3 0-.1.3.1.3.7 0 1.5.1 2.2.1 0 0-.5 0 0 0zm10.4-4.4c-.3-1.2-.8-2.4-1.2-3.6 0-.1-.1 0-.2-.1-.1 0 0 .1 0 .1.4 1 .7 2 1 3 0 .3.2.5.4.6-.1-.2-.2-.1 0 0zm-4.5.2c0-.3-.1-.3-.2-.3s-.1.1-.2.1c-.2.6.3.7.4.2 0-.3 0 .1 0 0zm-4.7 12.7-.9 1.2c.3-.3.6-.7.9-1.2-.3.4-.3.5 0 0zm.6-.7s.1-.1.2-.1l-.1.4c0 .7 0 1.4.3 2 .1.2.3.5.4.7 0 .2.4.1.3-.1v-.2c.1-.3 0-.6-.2-.9-.2-.2-.2-.4-.3-.6 0-.1-.2-1.4-.2-1.4.3-.2.2.8.2.9 0 .5.2.8.4 1.3.1.3.2.7.2 1 0 .1.1.2 0 .3s-.5.2-.5 0c0-.3-.2-.4-.3-.7-.2-.4-.2-.8-.3-1.2 0-.4 0-.7-.1-1.1v-.3zm.8 3.2c.1 0 .2.1.3-.1-.1 0-.2 0-.3.1zm4.6-3.3c.1.1.1.1.1.2-.1.4-.1.8-.1 1.3 0 .6-.4 1.1-.5 1.7 0 .1-.1.2-.2.2-.3 0-.5-.1-.4-.4.1-.3 0-.7.1-1.1.1-.3.3-.6.3-.9.1-.2 0-1.1.1-1.3h.3c0 .1-.1.1-.1.1-.2.4-.1 1.1-.3 1.6-.1.2-.6 1.4-.4 1.6.1.1.2.1.3 0 .1-.3.3-.5.4-.8 0-.1.1-.2.1-.4.2-.5.2-1.2.3-1.8.1.1 0 .3 0 0zm-.7 3.3c-.1-.1-.2-.1-.3-.1.1.1.2.1.3.1zm-3.9-2c.2.1 1.4.5 1.5.7s.2.3.3.5c.2.3.4.3.6 0 .1-.2.2-.4.4-.5.2-.2.5-.3.7-.4.2-.1.3-.1.4-.3v-.1h-.1c-.2.1-1.3.5-1.3.7l.1.1c-.1.2-.2.3-.4.3.1.1.1.2 0 .3 0 0-.1.1-.2 0l-.2-.2s.2 0 .2-.1c-.1-.1-.7-.2-.3-.4.1 0 .1-.1 0-.1-.5 0-1-.2-1.4-.5-.2-.1-.3-.2-.5-.2l.2.2c.4.2-.1-.1 0 0z"/>
  </g>
</svg>