<svg xmlns="http://www.w3.org/2000/svg" xml:space="preserve" id="BioticStressHyaloperonosporaarabidopsis_svg" x="0" y="0" version="1.1" viewBox="20 70 663.7 266.3" author="Provart Lab - Bio Analytic Resource, University of Toronto">
  &gt;
  <g id="Erysiphe_orontii" transform="translate(-10 -11)">
    <g id="Labels">
      <text id="text2" font-family="HelveticaNeue-Italic" font-size="18" transform="translate(33 97)">Hyaloperonospora arabidopsidis</text>
      <text id="text4" font-family="HelveticaNeue-Thin" font-size="12" transform="translate(230 164)">Wild type Col-0 plants</text>
      <text id="text6" font-family="HelveticaNeue-ThinItalic" font-size="12" transform="translate(235 266)">rpp4 </text>
      <text id="text8" font-family="HelveticaNeue-Thin" font-size="12" transform="translate(262 266)">mutant plants</text>
      <text id="text10" font-family="HelveticaNeue-Thin" font-size="10" transform="translate(373 343)">Day 0</text>
      <text id="text12" font-family="HelveticaNeue-Thin" font-size="10" transform="translate(443 343)">0.5 days</text>
      <text id="text14" font-family="HelveticaNeue" font-size="8" transform="translate(105 162)">24hr</text>
      <text id="text16" font-family="HelveticaNeue-Thin" font-size="10" transform="translate(515 343)">2 days</text>
      <text id="text18" font-family="HelveticaNeue-Thin" font-size="10" transform="translate(587 343)">4 days</text>
      <text id="text20" font-family="HelveticaNeue-Thin" font-size="10" transform="translate(661 344)">6 days</text>
    </g>
    <g id="infoButton_Botrytis_cinerea">
      <circle id="circle23" cx="316.2" cy="91.2" r="9.2" fill="#8800d8"/>
      <text id="text25" fill="#fff" font-family="HelveticaNeue-Bold" font-size="12" transform="translate(314 96)">i</text>
    </g>
    <g id="treatmentInfographic" fill="none" stroke="#000" stroke-miterlimit="10" stroke-width=".5">
      <g id="root">
        <path id="path28" d="M110 296v-6c-1-3 1-6 1-6"/>
        <path id="path30" d="m118 263 4-6"/>
        <path id="path32" d="M123 272c-1-2-4-2-4-2"/>
        <path id="path34" d="m104 271-7 4"/>
        <path id="path36" d="M108 271c-3 0-8 5-9 5"/>
        <path id="path38" d="M101 262c-8-1-14 4-14 4"/>
        <path id="path40" d="m109 262-3-5"/>
        <path id="path42" d="M113 264v2"/>
        <path id="path44" d="M125 284c-1-3-5-6-5-6"/>
        <path id="path48" d="m117 287-1-4-2-5s0-1 0 0v-4l1-1v-1"/>
        <path id="path50" d="m110 325 1-3-1-5c0-2 2-5 3-5v-6l1-4v-1l1-7-1-4c-1 0-2 0-2-4v-7l1-7"/>
        <path id="path52" d="m120 331-1-3h-1v-4c0-2-1-3-2-3v2c0 1-1 4 1 9l1 2 1 7-1-1-1-6v-2l-2-7c0-4 0-6-2-10v-3"/>
        <path id="path54" d="M121 311c0-3-1-4-2-5v-5c0-2-2-3-2-3l-1 3-1 5v5l-1 1 1 4 1 2v1l1 2"/>
        <path id="path56" d="m114 278-1 4 1 4 1 2 2 4v6"/>
        <path id="path58" d="m136 260-6 1h1l-7 1"/>
        <path id="path60" d="m138 263-7-2"/>
        <path id="path62" d="M112 270h1l1-2-1-1-1-4"/>
        <path id="path64" d="M114 268v2"/>
        <path id="path66" d="m127 263 14 5c-8-7-15-5-15-5z"/>
        <path id="line68" d="m115 267-1 1"/>
      </g>
      <path id="rosette" d="m81 270 2-4 7-7c2-2 4-3 9-1l3 2 3 3 7 4-6-5c-2-1-3-2-3-6l1-4 6 6 1 3 1 2v-2l2 2 1 3-1 2 3-5 1-6 4-3c1 0 3-1 3 2l-2 5-4 4-1 1 6-4s4-5 9-5c3-1 8 1 9 2l-2 1-2 3 5 4 6 4s-6 3-9 2l-8-5c-2-2-4-3-8-3-3 1-7 2-8 4h-1c1 0 9-1 10 1l2 3c0 1-4 4-8 0-1-1-2-3-4-3l6 6c2 1 8 2 9 6l1 6c-1 1-5 3-11-4l-3-8-2-4h-2c-1 0-4 0-5 2l-8 6c-2 1-4 2-8-2v-5c2-2 4-5 7-5l13 3c-1-1-4-6-12-6l-6 2c-2 1-6 4-10 3h-3z"/>
    </g>
    <g id="TimeSampleChart">
      <g id="darkCycle">
        <path id="path77" fill="none" stroke="#555" stroke-miterlimit="10" stroke-width="10" d="M114 176a16 16 0 0 1 0-33"/>
      </g>
      <g id="lightCycle">
        <path id="path80" fill="none" stroke="#fff69f" stroke-miterlimit="10" stroke-width="10" d="M114 143a16 16 0 0 1 0 33"/>
      </g>
      <text id="text108" font-family="HelveticaNeue-Thin" font-size="8" transform="translate(89 110)">6 days sample</text>
      <text id="text110" font-family="HelveticaNeue-Thin" font-size="8" transform="translate(89 120)">4 days sample</text>
      <text id="text112" font-family="HelveticaNeue-Thin" font-size="8" transform="translate(89 130)">2 days sample</text>
      <path id="line114" fill="none" stroke="#000" stroke-miterlimit="10" d="M114 136v12"/>
      <text id="text116" font-family="HelveticaNeue-Thin" font-size="8" transform="translate(87 196)">0.5 day sample</text>
      <path id="line118" fill="none" stroke="#000" stroke-miterlimit="10" d="M114 171v12"/>
    </g>
    <g id="Hyaloperonsospora_arabidopsis_6_days" fill="#fff" stroke="#000" stroke-linecap="round" stroke-linejoin="round" stroke-miterlimit="10" stroke-width=".5">
      <path id="rpp4_Emwa1_6dpi_rep1_rep2" d="M662 254c0-9 5-17 10-24l3 4c9 9 11 21 6 33-4 9-6 18-5 28v5m-1-1-1-11-3-9-4-10c-2-4-5-9-5-15m12-3-2 10 1 11"/>
      <path id="WT_Emwa1_6dpi_rep1_rep2" d="M662 161c0-9 5-17 10-24l3 3c9 10 11 21 6 34-4 9-6 18-5 27v5m-1-1-1-11-3-8-4-10c-2-5-5-10-5-15m12-3-2 10 1 11"/>
    </g>
    <g id="Hyaloperonsospora_arabidopsis_4_days" fill="#fff" stroke="#000" stroke-linecap="round" stroke-linejoin="round" stroke-miterlimit="10" stroke-width=".5">
      <path id="rpp4_Emwa1_4dpi_rep1_rep2" d="M589 253c0-9 4-17 9-24l3 4c9 9 12 21 6 33-3 9-5 18-4 28v5m-2-1-1-12-2-8-5-10c-1-5-5-9-4-15m11-3-1 10v11"/>
      <path id="WT_Emwa1_4dpi_rep1_rep2" d="M589 160c0-9 4-17 9-24l3 3c9 10 12 21 6 34-3 9-5 18-4 27v5m-2-1-1-11-2-8-5-10c-1-5-5-10-4-15m11-3-1 10v11"/>
    </g>
    <g id="Hyaloperonsospora_arabidopsis_2_days" fill="#fff" stroke="#000" stroke-linecap="round" stroke-linejoin="round" stroke-miterlimit="10" stroke-width=".5">
      <path id="rpp4_Emwa1_2dpi_rep1_rep2" d="M516 253c0-9 5-17 10-24l3 4c9 9 11 21 6 33-4 9-6 18-5 28v5m-1-1-1-11-3-9-4-10c-2-4-5-9-5-15m12-3-2 10 1 11"/>
      <path id="WT_Emwa1_2dpi_rep1_rep2" d="M516 160c0-9 5-17 10-24l3 3c9 10 11 21 6 34-4 9-6 18-5 27v5m-1-1-1-11-3-8-4-10c-2-5-5-10-5-15m12-3-2 10 1 11"/>
    </g>
    <g id="Hyaloperonsospora_arabidopsis_05_days" fill="#fff" stroke="#000" stroke-linecap="round" stroke-linejoin="round" stroke-miterlimit="10" stroke-width=".5">
      <path id="rpp4_Emwa1_05dpi_rep1_rep2" d="M447 253c0-9 4-17 9-24l3 4c9 9 12 21 6 33-3 9-5 18-4 28v5m-2-1-1-12-2-8-5-10c-1-5-4-9-4-15m11-3-1 10 1 11"/>
      <path id="WT_Emwa1_05dpi_rep1_rep2" d="M447 160c0-9 4-17 9-24l3 3c9 10 12 21 6 34-3 9-5 18-4 27v5m-2-1-1-11-2-8-5-10c-1-5-4-10-4-15m11-3-1 10 1 11"/>
    </g>
    <g id="Hyaloperonsospora_arabidopsis_0_days" fill="#fff" stroke="#000" stroke-linecap="round" stroke-linejoin="round" stroke-miterlimit="10" stroke-width=".5">
      <path id="rpp4_Emwa1_0dpi_rep1_rep2" d="M378 253c0-9 5-17 10-24l3 4c9 9 11 21 6 33-4 9-6 18-5 28v5m-1-1-1-11-3-9-4-10c-2-4-5-9-4-15m11-3-1 10v11"/>
      <path id="WT_Emwa1_0dpi_rep1_rep2" d="M378 160c0-9 5-17 10-24l3 3c9 10 11 21 6 34-4 9-6 18-5 27v5m-1-1-1-11c-1-3-1-6-3-8l-4-10c-2-5-5-10-4-15m11-3-1 10v11"/>
    </g>
  </g>
  <g id="spray_bottle" transform="translate(-10 -11)">
    <g id="g149">
      <g id="g147">
        <path id="path137" d="M163 243v1h-4l-5-4-1-2h-1l-1-3 4-5 3 1h2l6 4 1 4-1 1-3 3z"/>
        <path id="path139" d="m144 231-2 1-1-1v-1l4-5 2-2h2v3l-1 1 1 2-2 2-2-1 2 4v1l-3-4zm1-5v1h1l2-2v-1h-1l-2 2z"/>
        <path id="path141" d="m154 230-4 4-2-1v-2l2-3h1l3 2zm-2 0-1-1h-1l-1 3 1 1 2-3z"/>
        <path id="path143" d="m140 231 2 2-1 1-2-1 1-2z"/>
        <path id="path145" d="M139 235v1h-1v-1h1zm-3 1v1h1v-1h-1zm2 2v1h1v-1h-1zm-8 0v1h1v-1h-1zm3 2v1h1v-1h-1zm2 2v1h1v-1h-1zm3 2v1l1-1-1-1v1zm-10-4v1l1-1-1-1v1zm2 1v1h1v-1h-1zm2 2 1 1h1l-1-1h-1zm3 2v1h1v-1h-1zm-2-8v1h1v-1h-1zm2 2 1 1h1l-1-1h-1zm3 2v1l1-1v-1l-1 1zm-1 6 1 1 1-1-1-1-1 1z"/>
      </g>
    </g>
    <text id="text151" font-family="HelveticaNeue-Thin" font-size="8" transform="translate(44 216)">sprayed with 5 x 10</text>
    <text id="text153" font-family="HelveticaNeue-Thin" font-size="4.7" transform="translate(109 213)">6 </text>
    <text id="text155" font-family="HelveticaNeue-Thin" font-size="8" transform="translate(113 216)">spores / ml</text>
    <text id="text157" font-family="HelveticaNeue-Thin" font-size="8" transform="translate(44 226)">in distilled H</text>
    <text id="text159" font-family="HelveticaNeue-Thin" font-size="4.7" transform="translate(83 228)">2</text>
    <text id="text161" font-family="HelveticaNeue-Thin" font-size="8" transform="translate(86 226)">0</text>
  </g>
</svg>