<svg xmlns="http://www.w3.org/2000/svg" viewBox="20 40 900 550"><g id="Infiltrating"><g id="Labels"><text transform="translate(31.2314 348.2479)"><tspan x="0" y="0" font-family="'HelveticaNeue'" font-size="18">Infiltrating </tspan><tspan x="84.3" y="0" font-family="'HelveticaNeue-Italic'" font-size="18">Pseudomonas syringae</tspan></text><text transform="translate(245.3129 383.6665)"><tspan x="0" y="0" font-family="'HelveticaNeue-Thin'" font-size="12">Mock Treatment</tspan><tspan x="-7.9" y="13" font-family="'HelveticaNeue-Thin'" font-size="10">(10mM MgCl2 solution)</tspan></text><text transform="translate(239.8712 437.1665)"><tspan x="0" y="0" font-family="'HelveticaNeue-Thin'" font-size="12">Avirulent pathogen</tspan><tspan x="12" y="13" font-family="'HelveticaNeue-Thin'" font-size="10">(10e8 cfu/ml pv. </tspan><tspan x="10.3" y="26" font-family="'HelveticaNeue-Thin'" font-size="10">tomato avrRpm1)</tspan></text><text transform="translate(242.7665 500.6665)"><tspan x="0" y="0" font-family="'HelveticaNeue-Thin'" font-size="12">Virulent pathogen</tspan><tspan x="9.1" y="13" font-family="'HelveticaNeue-Thin'" font-size="10">(10e8 cfu/ml pv. </tspan><tspan x="8.2" y="26" font-family="'HelveticaNeue-Thin'" font-size="10">tomato DC3000)</tspan></text><text transform="translate(369.8842 567.6665)" font-family="'HelveticaNeue-Thin'" font-size="10">2 hours</text><text transform="translate(430.9676 567.6665)" font-family="'HelveticaNeue-Thin'" font-size="10">6 hours</text><text transform="translate(489.2708 567.6665)" font-family="'HelveticaNeue-Thin'" font-size="10">24 hours</text><text transform="translate(572.3129 383.6665)"><tspan x="0" y="0" font-family="'HelveticaNeue-Thin'" font-size="12">Mock Treatment</tspan><tspan x="-7.9" y="13" font-family="'HelveticaNeue-Thin'" font-size="10">(10mM MgCl2 solution)</tspan></text><text transform="translate(570.2614 437.1665)"><tspan x="0" y="0" font-family="'HelveticaNeue-Thin'" font-size="12">Type III-Secretion </tspan><tspan x=".8" y="13" font-family="'HelveticaNeue-Thin'" font-size="12">System Deficient </tspan><tspan x="8.6" y="26" font-family="'HelveticaNeue-Thin'" font-size="10">(10e8 cfu/ml pv. </tspan><tspan x="-5.5" y="39" font-family="'HelveticaNeue-Thin'" font-size="10">tomato DC3000 hrcC-)</tspan></text><text transform="translate(569.9408 500.6665)"><tspan x="0" y="0" font-family="'HelveticaNeue-Thin'" font-size="12">Nonhost Bacteria</tspan><tspan x="8.9" y="13" font-family="'HelveticaNeue-Thin'" font-size="10">(10e8 cfu/ml pv. </tspan><tspan x="16" y="26" font-family="'HelveticaNeue-Thin'" font-size="10">phaseolicola)</tspan></text><text transform="translate(696.8842 567.6665)" font-family="'HelveticaNeue-Thin'" font-size="10">2 hours</text><text transform="translate(757.9676 567.6665)" font-family="'HelveticaNeue-Thin'" font-size="10">6 hours</text><text transform="translate(816.2708 567.6665)" font-family="'HelveticaNeue-Thin'" font-size="10">24 hours</text></g><g id="treatmentInfographic"><g id="root"><path fill="none" stroke="#000000" stroke-width=".5" stroke-miterlimit="10" d="M110.4 506.5c.8-2.1 0-4.2-.7-5.9-.1-.2-.2-.4-.2-.6-1-2.9 1.6-5.7 1.6-5.7M118.3 473.4s2.3-4.1 4.1-5.9M123.1 482.9c-.7-1.9-3.9-2.2-4-2.2M103.7 481.6c-2.2.7-6.8 3.6-7 3.7M107.8 481.7c-3.1-.4-8.2 5.1-8.5 5.3M100.9 472.6c-8.2-.9-13.7 3.5-13.8 3.6M109.1 472.4c-1.2-1.1-2.6-4.6-2.6-4.6M113.1 474.6s.3.9.4 1.4M125 494.8c-1.4-3.1-4.8-6.6-4.9-6.6M111.8 473.2c-.1 0-.1 0 0 0M117.4 497.1c-.3-.3-1.9-1.6-1.9-3.2-.1-1.5-.5-3.4-1.3-5.4-.1-.4-.5-.6-.4-.4.4-.9.6-2.6.6-3.2v-.6c0-.5.1-.8.2-1.2.1-.3.1-.6.2-.9"/><path fill="none" stroke="#000000" stroke-width=".5" stroke-miterlimit="10" d="M110.1 535.2c-.1-.9.2-1.6.7-2.6.2-1-.1-3.2-.5-4.8-.6-2.6 2.2-5.3 2.3-5.4l.1.1c.1-.9.3-1.9.6-2.8.1-.7.1-1.7.1-2.7 0-1.6-.1-3.3.4-4.2.1-.2.2-.5.3-.8.7-1.9 1.4-3.8 1.1-7.8-1.5-3.6-1.1-2.5-1.6-3.3-.5-.8-1.3-.4-2-4.2-.8-3.7 0-5.2 0-7 0-1.8.9-6.2 1.2-7.5"/><path fill="none" stroke="#000000" stroke-width=".5" stroke-miterlimit="10" d="M119.5 541.2c-.8-.5-.9-1.7-1-2.5 0-.3 0-.5-.1-.6-1.1-1.1-.9-2.3-.6-3.8 0-1.4-1.1-2.3-1.5-2.6.1.6.1 1.2.1 1.5-.3 1.5-1 4.8.4 9.6.2.5.5 1 .8 1.5.6 4.2.9 7.7.9 7.7l-.1-1.6s-.5-1.8-1.1-6c-.2-.5-.4-.9-.6-1.3 0-.1 0-.1-.1-.2-1.1-2.2-2.1-4.1-1.9-7.4v-.2c.2-4.1.2-5.4-1.7-9.3-.3-.9-.3-2.6-.3-3.7"/><path fill="none" stroke="#000000" stroke-width=".5" stroke-miterlimit="10" d="M120.5 521.8c.3-3.2-.5-4.2-1.1-5l-.1-.1c-.8-1-.8-2.2-.7-4.7 0-2.6-1.4-3.6-1.9-3.9 0 1.1-.1 2.2-.3 2.9l-.1.2c-.8 1.9-1.3 3-1.1 5.3.1 1.7-.3 3.7-.6 4.9-.1.5-.2.9-.2 1.1-.2 1.1.3 2.9.8 3.5.4.7.6 1.7.8 2.4.1.3.1.6.2.8v.3c.1.5.2 1.1.3 1.7l.1.4M113.8 488.1c-.4 2-.3 2-.3 4s-.3 3.1 0 4.1.8 1.8 1.2 2.3c.9 1.3 1.8 2.5 1.9 4.3V508M136.4 470.3c-3-.3-6 1.2-6.1 1.3h.8c-2 0-4.5.3-6.9 1.1M137.9 473.2c-1.8-.9-4.1-1.6-6.8-1.7M112.2 480.8c.2-.1 1-.1 1.2-.4.3-.4.4-1.1.2-1.8-.1-.2-.3-.4-.4-.7-.6-.9-1.5-2.3-1.3-4.5M114.3 478.5c-.2 1-.1 1.8-.1 1.8M126.5 473.9l14.7 5.1c-8.6-7.4-14.7-5.1-14.7-5.1zM114.6 477.9l-.2.4M114.4 478.6v-.3M113.6 472.8v.2"/></g><path id="rosette" fill="none" stroke="#000000" stroke-width=".5" stroke-miterlimit="10" d="M80.8 480.6s-.8-.5 2.1-4.2c2.4-2.9 5.3-6.2 7.3-7.3 2.1-1.3 4.1-2.8 8.5-1.1 1.4.8 2.3 1.4 3.7 2.8.7 1.1 2.7 2 2.9 2.3 1 .5 5.5 3.7 6.7 4.2-1.2-1.1-5.1-4.5-6.4-5.1-1.4-.6-2.6-1.7-2.2-5.9.4-2.4.9-3.8.9-3.8 1 .8 5 4.5 5.7 5.8.6 1 .2 1.7.6 2.8.3 1 .9 2.1 1.3 2.3.1-.7.3-1.8.3-1.8.3.5 1.6 1.5 1.6 1.5.2.5 1 2.6.9 3.1-.1.8-.3 2-.3 2 .6-.8 2-2 2.6-4.7.2-1.5.1-4.5 1.1-5.8.9-1.3 1.6-2.6 3.7-3.1 1.1-.3 2.9-.8 3.5 1.9.1.9-.1 2.1-2.2 4.5-1.4 1.3-4.5 4-4.5 4.1-.7.8-1 1.2-1 1.2 1.4-1 5.7-3.3 6.3-3.5.6-.8 4.5-5 9.5-5.6 2.2-.2 7.4 1.2 8.9 1.9-.8.4-2.2 1.2-2.4 1.9-.3.8-1 2.3-1.9 2.3.9.6 4 2.6 5.2 4.3 1 1.1 4.1 3.4 6.1 3.9-.3.5-6.5 2.9-9.6 1.9-3.1-1-4.8-2.9-7.7-5.2-1.7-1.2-4.4-3-8.4-2.3-2.2.5-6.2 1.8-8 3.2l-.3.4c1 0 8.3-.7 9.7 1.1 1.2 1.6 2.5 3.4 2.5 3.4-.7.6-4.4 3.6-8.2 0-1.5-1.7-2.7-3.3-4-3.2.6.8 3.6 4.8 5.6 5.9 2.2.6 8.1 1.4 9.5 6.1.8 2.6 1 5.7 1 5.7-1.3.6-5.5 3.5-11.3-3.8-1.3-2.6-1.6-2.8-2.7-8.3-.8-1.5-1.5-3-2.8-4-1.3-.1-1.9-.1-2 0-1 .1-3.8.3-4.9 2.1-1.3 1.7-3.3 4.1-7.7 6.4-2.2 1-4.4 2.1-7.7-1.9-.8-1.3-1.2-3.9.1-5.4 1.4-1.6 3.9-4.7 6.4-4.6 1.7.1 8.4 1.3 13.3 2.2-.6-.8-4.3-5.7-12-5.8-1.5.1-3.4.4-5.7 1.9-2.6 1.6-5.9 4.5-10 3.2-1-.4-2.5-.5-3.6.1z"/><g id="syringe"><path d="M139.2 457.6c-.8-.2-1.7-.3-2.5-.6-1-.4-1.7-.1-2.4.7-.8.9-4.2 4.2-5.1 5.1-.3.3-.6.6-1 .2-.4-.4 0-.7.2-1l5.5-5.5c.5-.4.6-.8.4-1.4v-.1c-1.2-2.4-.3-4 1.6-5.7 2.9-2.6 5.5-5.5 8.3-8.2.4-.4.7-.7.1-1.1-.3-.2-.5-.6-.1-.9.3-.3.6 0 .9.2l6.9 6.9c.3.3.5.6.2.9-.3.3-.7.2-.9-.1-.5-.6-.8-.3-1.1.1-3.3 3.3-6.6 6.7-10 10-.2.2-.4.6-1 .5z"/><path fill="#030303" d="M155.5 441.4c0 .3-.1.5-.3.6-.3.2-.5 0-.7-.2-.5-.7-.8-.4-1.2.1-.4.5-.9.9-1.4 1.4-.2.2-.5.6-.9.2-.4-.4-.1-.7.2-1 .5-.5 1.3-1 1.6-1.7.6-1.1-.7-1.3-1.2-1.9-.2-.3-.4-1.2-1.2-.5l-1.6 1.6c-.3.3-.6.6-1 .2-.4-.4 0-.6.2-.9.3-.4.7-.7 1.1-1.1.5-.5 1.3-1 .3-1.8-.3-.2-.1-.5.1-.7.3-.2.6 0 .8.2 1 .9 1.9 1.9 2.9 2.9l2 2c.2.3.3.5.3.6z"/><path fill="#FFFFFF" d="M143.5 446.2c0 .3-.2.5-.5.5s-1.6-1.2-1.6-1.6c0-.3.2-.5.5-.5.4 0 1.7 1.3 1.6 1.6zM138.3 448.3c.3 0 1.6 1.2 1.6 1.6 0 .3-.2.6-.5.5-.7-.3-1.2-.8-1.5-1.5-.1-.3.1-.5.4-.6zM136.8 450.4c.3 0 1.6 1.3 1.6 1.6 0 .3-.2.5-.5.5s-1.5-1.3-1.5-1.6c-.1-.3.1-.5.4-.5zM142 448.3c0 .3-.2.6-.5.4-.7-.3-1.2-.8-1.5-1.5-.1-.2.2-.5.5-.5s1.5 1.3 1.5 1.6zM144.1 443.1c.3 0 1.5 1.2 1.5 1.6 0 .3-.3.5-.5.4-.7-.3-1.2-.8-1.5-1.5-.1-.2.2-.4.5-.5z"/></g></g><g id="TimeSampleChart"><path fill="none" stroke="#FFF69F" stroke-width="10" stroke-miterlimit="10" d="M99.4 402.2c6.2-6.5 16.5-6.7 23-.5 2.2 2.1 3.7 4.7 4.4 7.5" id="ligtCycle"/><path fill="none" stroke="#555555" stroke-width="10" stroke-miterlimit="10" d="M126.8 409.2c1.4 5.3.1 11.2-4 15.5-6.2 6.5-16.5 6.7-23 .5s-6.7-16.5-.5-23" id="darkCycle"/><g id="labels"><path fill="none" stroke="#000000" stroke-miterlimit="10" d="M110.9 391.6v9.3"/><text transform="translate(138.9912 413.4747)"><tspan x="0" y="0" font-family="'HelveticaNeue-Thin'" font-size="8">6 hour</tspan><tspan x="-1.3" y="9" font-family="'HelveticaNeue-Thin'" font-size="8">sample</tspan></text><path fill="none" stroke="#000000" stroke-miterlimit="10" d="M123.8 414l9.5-.2"/><text transform="translate(129.293 388.6152)"><tspan x="0" y="0" font-family="'HelveticaNeue-Thin'" font-size="8">2 hour</tspan><tspan x="-1.3" y="9" font-family="'HelveticaNeue-Thin'" font-size="8">sample</tspan></text><path fill="none" stroke="#000000" stroke-miterlimit="10" d="M117.7 403.1l6.4-6.9"/><text transform="translate(99.2833 375.9405)"><tspan x="0" y="0" font-family="'HelveticaNeue-Thin'" font-size="8">24 hour</tspan><tspan x=".9" y="9" font-family="'HelveticaNeue-Thin'" font-size="8">sample</tspan></text></g></g><g id="Infiltrating_Pseudomonas_syringae_at_24_Hours"><path id="Nonhost_Pseudomonas_syringae_at_24_Hours" fill="#FFFFFF" stroke="#000000" stroke-width=".5" stroke-linecap="round" stroke-linejoin="round" stroke-miterlimit="10" d="M827.3 505.3c-.1-6.3 3-11.8 6.5-16.9.9 1.1 1.4 1.8 2 2.4 6.4 6.8 8 14.8 4.4 23.3-2.6 6.2-3.8 12.5-3.3 19.1.1 1.1 0 2.3 0 3.4m-1-.6c-.2-2.6-.2-5.1-.6-7.7-.3-1.9-.9-3.9-1.7-5.7-1-2.4-2.6-4.7-3.3-7.1-.9-3.2-3.3-6.6-2.9-10.2m7.9-2.3c-.3 2.4-.7 4.7-.8 7.1-.1 2.5.1 4.9.3 7.4"/><path id="Deficient_Pseudomonas_syringae_at_24_Hours" fill="#FFFFFF" stroke="#000000" stroke-width=".5" stroke-linecap="round" stroke-linejoin="round" stroke-miterlimit="10" d="M827.3 441.5c-.1-6.3 3-11.8 6.5-16.9.9 1.1 1.4 1.8 2 2.4 6.4 6.8 8 14.8 4.4 23.3-2.6 6.2-3.8 12.5-3.3 19.1.1 1.1 0 2.3 0 3.4m-1-.6c-.2-2.6-.2-5.1-.6-7.7-.3-1.9-.9-3.9-1.7-5.7-1-2.4-2.6-4.7-3.3-7.1-.9-3.2-3.3-6.6-2.9-10.2m7.9-2.3c-.3 2.4-.7 4.7-.8 7.1-.1 2.5.1 4.9.3 7.4"/><path id="Virulent_Pseudomonas_syringae_at_24_Hours" fill="#FFFFFF" stroke="#000000" stroke-width=".5" stroke-linecap="round" stroke-linejoin="round" stroke-miterlimit="10" d="M502.3 507.3c-.1-6.3 3-11.8 6.5-16.9.9 1.1 1.4 1.8 2 2.4 6.4 6.8 8 14.8 4.4 23.3-2.6 6.2-3.8 12.5-3.3 19.1.1 1.1 0 2.3 0 3.4m-1-.6c-.2-2.6-.2-5.1-.6-7.7-.3-1.9-.9-3.9-1.7-5.7-1-2.4-2.6-4.7-3.3-7.1-.9-3.2-3.3-6.6-2.9-10.2m7.9-2.3c-.3 2.4-.7 4.7-.8 7.1-.1 2.5.1 4.9.3 7.4"/><path id="Avirulent_Pseudomonas_syringae_at_24_Hours" fill="#FFFFFF" stroke="#000000" stroke-width=".5" stroke-linecap="round" stroke-linejoin="round" stroke-miterlimit="10" d="M502.3 443.5c-.1-6.3 3-11.8 6.5-16.9.9 1.1 1.4 1.8 2 2.4 6.4 6.8 8 14.8 4.4 23.3-2.6 6.2-3.8 12.5-3.3 19.1.1 1.1 0 2.3 0 3.4m-1-.6c-.2-2.6-.2-5.1-.6-7.7-.3-1.9-.9-3.9-1.7-5.7-1-2.4-2.6-4.7-3.3-7.1-.9-3.2-3.3-6.6-2.9-10.2m7.9-2.3c-.3 2.4-.7 4.7-.8 7.1-.1 2.5.1 4.9.3 7.4"/><path id="Control_Pseudomonas_syringae_at_24_Hours" fill="#FFFFFF" stroke="#000000" stroke-width=".5" stroke-linecap="round" stroke-linejoin="round" stroke-miterlimit="10" d="M502.3 379.6c-.1-6.3 3-11.8 6.5-16.9.9 1.1 1.4 1.8 2 2.4 6.4 6.8 8 14.8 4.4 23.3-2.6 6.2-3.8 12.5-3.3 19.1.1 1.1 0 2.3 0 3.4m-1-.6c-.2-2.6-.2-5.1-.6-7.7-.3-1.9-.9-3.9-1.7-5.7-1-2.4-2.6-4.7-3.3-7.1-.9-3.2-3.3-6.6-2.9-10.2m7.9-2.2c-.3 2.4-.7 4.7-.8 7.1-.1 2.5.1 4.9.3 7.4m317.5-14.3c-.1-6.3 3-11.8 6.5-16.9.9 1.1 1.4 1.8 2 2.4 6.4 6.8 8 14.8 4.4 23.3-2.6 6.2-3.8 12.5-3.3 19.1.1 1.1 0 2.3 0 3.4m-1-.6c-.2-2.6-.2-5.1-.6-7.7-.3-1.9-.9-3.9-1.7-5.7-1-2.4-2.6-4.7-3.3-7.1-.9-3.2-3.3-6.6-2.9-10.2m7.9-2.2c-.3 2.4-.7 4.7-.8 7.1-.1 2.5.1 4.9.3 7.4"/></g><g id="Infiltrating_Pseudomonas_syringae_at_6_Hours"><path id="Nonhost_Pseudomonas_syringae_at_6_Hours" fill="#FFFFFF" stroke="#000000" stroke-width=".5" stroke-linecap="round" stroke-linejoin="round" stroke-miterlimit="10" d="M765.3 505.3c-.1-6.3 3-11.8 6.5-16.9.9 1.1 1.4 1.8 2 2.4 6.4 6.8 8 14.8 4.4 23.3-2.6 6.2-3.8 12.5-3.3 19.1.1 1.1 0 2.3 0 3.4m-1-.6c-.2-2.6-.2-5.1-.6-7.7-.3-1.9-.9-3.9-1.7-5.7-1-2.4-2.6-4.7-3.3-7.1-.9-3.2-3.3-6.6-2.9-10.2m7.9-2.3c-.3 2.4-.7 4.7-.8 7.1-.1 2.5.1 4.9.3 7.4"/><path id="Deficient_Pseudomonas_syringae_at_6_Hours" fill="#FFFFFF" stroke="#000000" stroke-width=".5" stroke-linecap="round" stroke-linejoin="round" stroke-miterlimit="10" d="M765.3 441.5c-.1-6.3 3-11.8 6.5-16.9.9 1.1 1.4 1.8 2 2.4 6.4 6.8 8 14.8 4.4 23.3-2.6 6.2-3.8 12.5-3.3 19.1.1 1.1 0 2.3 0 3.4m-1-.6c-.2-2.6-.2-5.1-.6-7.7-.3-1.9-.9-3.9-1.7-5.7-1-2.4-2.6-4.7-3.3-7.1-.9-3.2-3.3-6.6-2.9-10.2m7.9-2.3c-.3 2.4-.7 4.7-.8 7.1-.1 2.5.1 4.9.3 7.4"/><path id="Virulent_Pseudomonas_syringae_at_6_Hours" fill="#FFFFFF" stroke="#000000" stroke-width=".5" stroke-linecap="round" stroke-linejoin="round" stroke-miterlimit="10" d="M441.3 506.3c-.1-6.3 3-11.8 6.5-16.9.9 1.1 1.4 1.8 2 2.4 6.4 6.8 8 14.8 4.4 23.3-2.6 6.2-3.8 12.5-3.3 19.1.1 1.1 0 2.3 0 3.4m-1-.6c-.2-2.6-.2-5.1-.6-7.7-.3-1.9-.9-3.9-1.7-5.7-1-2.4-2.6-4.7-3.3-7.1-.9-3.2-3.3-6.6-2.9-10.2m7.9-2.3c-.3 2.4-.7 4.7-.8 7.1-.1 2.5.1 4.9.3 7.4"/><path id="Avirulent_Pseudomonas_syringae_at_6_Hours" fill="#FFFFFF" stroke="#000000" stroke-width=".5" stroke-linecap="round" stroke-linejoin="round" stroke-miterlimit="10" d="M441.3 442.5c-.1-6.3 3-11.8 6.5-16.9.9 1.1 1.4 1.8 2 2.4 6.4 6.8 8 14.8 4.4 23.3-2.6 6.2-3.8 12.5-3.3 19.1.1 1.1 0 2.3 0 3.4m-1-.6c-.2-2.6-.2-5.1-.6-7.7-.3-1.9-.9-3.9-1.7-5.7-1-2.4-2.6-4.7-3.3-7.1-.9-3.2-3.3-6.6-2.9-10.2m7.9-2.3c-.3 2.4-.7 4.7-.8 7.1-.1 2.5.1 4.9.3 7.4"/><path id="Control_Pseudomonas_syringae_at_6_Hours" fill="#FFFFFF" stroke="#000000" stroke-width=".5" stroke-linecap="round" stroke-linejoin="round" stroke-miterlimit="10" d="M441.3 378.6c-.1-6.3 3-11.8 6.5-16.9.9 1.1 1.4 1.8 2 2.4 6.4 6.8 8 14.8 4.4 23.3-2.6 6.2-3.8 12.5-3.3 19.1.1 1.1 0 2.3 0 3.4m-1-.6c-.2-2.6-.2-5.1-.6-7.7-.3-1.9-.9-3.9-1.7-5.7-1-2.4-2.6-4.7-3.3-7.1-.9-3.2-3.3-6.6-2.9-10.2m7.9-2.2c-.3 2.4-.7 4.7-.8 7.1-.1 2.5.1 4.9.3 7.4m316.5-13.3c-.1-6.3 3-11.8 6.5-16.9.9 1.1 1.4 1.8 2 2.4 6.4 6.8 8 14.8 4.4 23.3-2.6 6.2-3.8 12.5-3.3 19.1.1 1.1 0 2.3 0 3.4m-1-.6c-.2-2.6-.2-5.1-.6-7.7-.3-1.9-.9-3.9-1.7-5.7-1-2.4-2.6-4.7-3.3-7.1-.9-3.2-3.3-6.6-2.9-10.2m7.9-2.2c-.3 2.4-.7 4.7-.8 7.1-.1 2.5.1 4.9.3 7.4"/></g><g id="Infiltrating_Pseudomonas_syringae_at_2_Hours"><path id="Nonhost_Pseudomonas_syringae_at_2_Hours" fill="#FFFFFF" stroke="#000000" stroke-width=".5" stroke-linecap="round" stroke-linejoin="round" stroke-miterlimit="10" d="M704.3 506.3c-.1-6.3 3-11.8 6.5-16.9.9 1.1 1.4 1.8 2 2.4 6.4 6.8 8 14.8 4.4 23.3-2.6 6.2-3.8 12.5-3.3 19.1.1 1.1 0 2.3 0 3.4m-1-.6c-.2-2.6-.2-5.1-.6-7.7-.3-1.9-.9-3.9-1.7-5.7-1-2.4-2.6-4.7-3.3-7.1-.9-3.2-3.3-6.6-2.9-10.2m7.9-2.3c-.3 2.4-.7 4.7-.8 7.1-.1 2.5.1 4.9.3 7.4"/><path id="Deficient_Pseudomonas_syringae_at_2_Hours" fill="#FFFFFF" stroke="#000000" stroke-width=".5" stroke-linecap="round" stroke-linejoin="round" stroke-miterlimit="10" d="M704.3 442.5c-.1-6.3 3-11.8 6.5-16.9.9 1.1 1.4 1.8 2 2.4 6.4 6.8 8 14.8 4.4 23.3-2.6 6.2-3.8 12.5-3.3 19.1.1 1.1 0 2.3 0 3.4m-1-.6c-.2-2.6-.2-5.1-.6-7.7-.3-1.9-.9-3.9-1.7-5.7-1-2.4-2.6-4.7-3.3-7.1-.9-3.2-3.3-6.6-2.9-10.2m7.9-2.3c-.3 2.4-.7 4.7-.8 7.1-.1 2.5.1 4.9.3 7.4"/><path id="Virulent_Pseudomonas_syringae_at_2_Hours" fill="#FFFFFF" stroke="#000000" stroke-width=".5" stroke-linecap="round" stroke-linejoin="round" stroke-miterlimit="10" d="M378.3 506.3c-.1-6.3 3-11.8 6.5-16.9.9 1.1 1.4 1.8 2 2.4 6.4 6.8 8 14.8 4.4 23.3-2.6 6.2-3.8 12.5-3.3 19.1.1 1.1 0 2.3 0 3.4m-1-.6c-.2-2.6-.2-5.1-.6-7.7-.3-1.9-.9-3.9-1.7-5.7-1-2.4-2.6-4.7-3.3-7.1-.9-3.2-3.3-6.6-2.9-10.2m7.9-2.3c-.3 2.4-.7 4.7-.8 7.1-.1 2.5.1 4.9.3 7.4"/><path id="Avirulent_Pseudomonas_syringae_at_2_Hours" fill="#FFFFFF" stroke="#000000" stroke-width=".5" stroke-linecap="round" stroke-linejoin="round" stroke-miterlimit="10" d="M378.3 442.5c-.1-6.3 3-11.8 6.5-16.9.9 1.1 1.4 1.8 2 2.4 6.4 6.8 8 14.8 4.4 23.3-2.6 6.2-3.8 12.5-3.3 19.1.1 1.1 0 2.3 0 3.4m-1-.6c-.2-2.6-.2-5.1-.6-7.7-.3-1.9-.9-3.9-1.7-5.7-1-2.4-2.6-4.7-3.3-7.1-.9-3.2-3.3-6.6-2.9-10.2m7.9-2.3c-.3 2.4-.7 4.7-.8 7.1-.1 2.5.1 4.9.3 7.4"/><path id="Control_Pseudomonas_syringae_at_2_Hours" fill="#FFFFFF" stroke="#000000" stroke-width=".5" stroke-linecap="round" stroke-linejoin="round" stroke-miterlimit="10" d="M378.3 378.6c-.1-6.3 3-11.8 6.5-16.9.9 1.1 1.4 1.8 2 2.4 6.4 6.8 8 14.8 4.4 23.3-2.6 6.2-3.8 12.5-3.3 19.1.1 1.1 0 2.3 0 3.4m-1-.6c-.2-2.6-.2-5.1-.6-7.7-.3-1.9-.9-3.9-1.7-5.7-1-2.4-2.6-4.7-3.3-7.1-.9-3.2-3.3-6.6-2.9-10.2m7.9-2.2c-.3 2.4-.7 4.7-.8 7.1-.1 2.5.1 4.9.3 7.4m318.5-12.3c-.1-6.3 3-11.8 6.5-16.9.9 1.1 1.4 1.8 2 2.4 6.4 6.8 8 14.8 4.4 23.3-2.6 6.2-3.8 12.5-3.3 19.1.1 1.1 0 2.3 0 3.4m-1-.6c-.2-2.6-.2-5.1-.6-7.7-.3-1.9-.9-3.9-1.7-5.7-1-2.4-2.6-4.7-3.3-7.1-.9-3.2-3.3-6.6-2.9-10.2m7.9-2.2c-.3 2.4-.7 4.7-.8 7.1-.1 2.5.1 4.9.3 7.4"/></g><g id="infoButton_Infiltrating_Psuedomonas_syringae"><circle fill="#F77128" cx="319.2" cy="342.2" r="9.2"/><text transform="translate(317.4521 346.5)" fill="#FFFFFF" font-family="'HelveticaNeue-Bold'" font-size="12">i</text></g></g><g id="Half_Leaf"><g id="Labels"><text transform="translate(31.2314 70.314)"><tspan x="0" y="0" font-family="'HelveticaNeue'" font-size="18">Half Leaf </tspan><tspan x="76.7" y="0" font-family="'HelveticaNeue-Italic'" font-size="18">Pseudomonas syringae</tspan></text><text transform="translate(245.3129 117.6665)"><tspan x="0" y="0" font-family="'HelveticaNeue-Thin'" font-size="12">Mock Treatment</tspan><tspan x="-7.9" y="13" font-family="'HelveticaNeue-Thin'" font-size="10">(10mM MgCl2 solution)</tspan></text><text transform="translate(239.8712 181.1665)"><tspan x="0" y="0" font-family="'HelveticaNeue-Thin'" font-size="12">Avirulent pathogen</tspan><tspan x="9.2" y="13" font-family="'HelveticaNeue-Thin'" font-size="10">(ES4326 avrRpt2)</tspan></text><text transform="translate(242.7665 244.6665)"><tspan x="0" y="0" font-family="'HelveticaNeue-Thin'" font-size="12">Virulent pathogen</tspan><tspan x="23.8" y="13" font-family="'HelveticaNeue-Thin'" font-size="10">(ES4326)</tspan></text><text transform="translate(369.8842 301.6665)" font-family="'HelveticaNeue-Thin'" font-size="10">4 hours</text><text transform="translate(430.9676 301.6665)" font-family="'HelveticaNeue-Thin'" font-size="10">8 hours</text><text transform="translate(489.2708 301.6665)" font-family="'HelveticaNeue-Thin'" font-size="10">16 hours</text><text transform="translate(550.3544 302.6665)" font-family="'HelveticaNeue-Thin'" font-size="10">24 hours</text><text transform="translate(611.4377 302.6665)" font-family="'HelveticaNeue-Thin'" font-size="10">48 hours</text></g><g id="infoButton_Half_Leaf_Psuedomonas_syringae"><circle fill="#F9AD26" cx="314.2" cy="64.2" r="9.2"/><text transform="translate(312.4521 68.5)" fill="#FFFFFF" font-family="'HelveticaNeue-Bold'" font-size="12">i</text></g><g id="treatmentInfographic"><g id="root"><path fill="none" stroke="#000000" stroke-width=".5" stroke-miterlimit="10" d="M110.4 236c.8-2.1 0-4.2-.7-5.9-.1-.2-.2-.4-.2-.6-1-2.9 1.6-5.7 1.6-5.7M118.3 202.9s2.3-4.1 4.1-5.9M123.1 212.4c-.7-1.9-3.9-2.2-4-2.2M103.7 211.1c-2.2.7-6.8 3.6-7 3.7M107.8 211.2c-3.1-.4-8.2 5.1-8.5 5.3M100.9 202c-8.2-.9-13.7 3.5-13.8 3.6M109.1 201.9c-1.2-1.1-2.6-4.6-2.6-4.6M113.1 204.1s.3.9.4 1.4M125 224.3c-1.4-3.1-4.8-6.6-4.9-6.6M111.8 202.7c-.1 0-.1 0 0 0M117.4 226.6c-.3-.3-1.9-1.6-1.9-3.2-.1-1.5-.5-3.4-1.3-5.4-.1-.4-.5-.6-.4-.4.4-.9.6-2.6.6-3.2v-.6c0-.5.1-.8.2-1.2.1-.3.1-.6.2-.9"/><path fill="none" stroke="#000000" stroke-width=".5" stroke-miterlimit="10" d="M110.1 264.6c-.1-.9.2-1.6.7-2.6.2-1-.1-3.2-.5-4.8-.6-2.6 2.2-5.3 2.3-5.4l.1.1c.1-.9.3-1.9.6-2.8.1-.7.1-1.7.1-2.7 0-1.6-.1-3.3.4-4.2.1-.2.2-.5.3-.8.7-1.9 1.4-3.8 1.1-7.8-1.5-3.6-1.1-2.5-1.6-3.3-.5-.8-1.3-.4-2-4.2s0-5.2 0-7 .9-6.2 1.2-7.5"/><path fill="none" stroke="#000000" stroke-width=".5" stroke-miterlimit="10" d="M119.5 270.7c-.8-.5-.9-1.7-1-2.5 0-.3 0-.5-.1-.6-1.1-1.1-.9-2.3-.6-3.8 0-1.4-1.1-2.3-1.5-2.6.1.6.1 1.2.1 1.5-.3 1.5-1 4.8.4 9.6.2.5.5 1 .8 1.5.6 4.2.9 7.7.9 7.7l-.1-1.6s-.5-1.8-1.1-6c-.2-.5-.4-.9-.6-1.3 0-.1 0-.1-.1-.2-1.1-2.2-2.1-4.1-1.9-7.4v-.2c.2-4.1.2-5.4-1.7-9.3-.3-.9-.3-2.6-.3-3.7"/><path fill="none" stroke="#000000" stroke-width=".5" stroke-miterlimit="10" d="M120.5 251.3c.3-3.2-.5-4.2-1.1-5l-.1-.1c-.8-1-.8-2.2-.7-4.7 0-2.6-1.4-3.6-1.9-3.9 0 1.1-.1 2.2-.3 2.9l-.1.2c-.8 1.9-1.3 3-1.1 5.3.1 1.7-.3 3.7-.6 4.9-.1.5-.2.9-.2 1.1-.2 1.1.3 2.9.8 3.5.4.7.6 1.7.8 2.4.1.3.1.6.2.8v.3c.1.5.2 1.1.3 1.7l.1.4M113.8 217.6c-.4 2-.3 2-.3 4s-.3 3.1 0 4.1c.3 1 .8 1.8 1.2 2.3.9 1.3 1.8 2.5 1.9 4.3V237.5M136.4 199.8c-3-.3-6 1.2-6.1 1.3h.8c-2 0-4.5.3-6.9 1.1M137.9 202.7c-1.8-.9-4.1-1.6-6.8-1.7M112.2 210.3c.2-.1 1-.1 1.2-.4.3-.4.4-1.1.2-1.8-.1-.2-.3-.4-.4-.7-.6-.9-1.5-2.3-1.3-4.5M114.3 208c-.2 1-.1 1.8-.1 1.8M126.5 203.4l14.7 5.1c-8.6-7.4-14.7-5.1-14.7-5.1zM114.6 207.4l-.2.4M114.4 208v-.2M113.6 202.2v.3"/></g><path id="rosette" fill="none" stroke="#000000" stroke-width=".5" stroke-miterlimit="10" d="M80.8 210.1s-.8-.5 2.1-4.2c2.4-2.9 5.3-6.2 7.3-7.3 2.1-1.3 4.1-2.8 8.5-1.1 1.4.8 2.3 1.4 3.7 2.8.7 1.1 2.7 2 2.9 2.3 1 .5 5.5 3.7 6.7 4.2-1.2-1.1-5.1-4.5-6.4-5.1-1.4-.6-2.6-1.7-2.2-5.9.4-2.4.9-3.8.9-3.8 1 .8 5 4.5 5.7 5.8.6 1 .2 1.7.6 2.8.3 1 .9 2.1 1.3 2.3.1-.7.3-1.8.3-1.8.3.5 1.6 1.5 1.6 1.5.2.5 1 2.6.9 3.1-.1.8-.3 2-.3 2 .6-.8 2-2 2.6-4.7.2-1.5.1-4.5 1.1-5.8.9-1.3 1.6-2.6 3.7-3.1 1.1-.3 2.9-.8 3.5 1.9.1.9-.1 2.1-2.2 4.5-1.4 1.3-4.5 4-4.5 4.1-.7.8-1 1.2-1 1.2 1.4-1 5.7-3.3 6.3-3.5.6-.8 4.5-5 9.5-5.6 2.2-.2 7.4 1.2 8.9 1.9-.8.4-2.2 1.2-2.4 1.9-.3.8-1 2.3-1.9 2.3.9.6 4 2.6 5.2 4.3 1 1.1 4.1 3.4 6.1 3.9-.3.5-6.5 2.9-9.6 1.9-3.1-1-4.8-2.9-7.7-5.2-1.7-1.2-4.4-3-8.4-2.3-2.2.5-6.2 1.8-8 3.2l-.3.4c1 0 8.3-.7 9.7 1.1 1.2 1.6 2.5 3.4 2.5 3.4-.7.6-4.4 3.6-8.2 0-1.5-1.7-2.7-3.3-4-3.2.6.8 3.6 4.8 5.6 5.9 2.2.6 8.1 1.4 9.5 6.1.8 2.6 1 5.7 1 5.7-1.3.6-5.5 3.5-11.3-3.8-1.3-2.6-1.6-2.8-2.7-8.3-.8-1.5-1.5-3-2.8-4-1.3-.1-1.9-.1-2 0-1 .1-3.8.3-4.9 2.1-1.3 1.7-3.3 4.1-7.7 6.4-2.2 1-4.4 2.1-7.7-1.9-.8-1.3-1.2-3.9.1-5.4 1.4-1.6 3.9-4.7 6.4-4.6 1.7.1 8.4 1.3 13.3 2.2-.6-.8-4.3-5.7-12-5.8-1.5.1-3.4.4-5.7 1.9-2.6 1.6-5.9 4.5-10 3.2-1-.4-2.5-.5-3.6.1z"/><g id="syringe"><path d="M139.2 187.6c-.8-.2-1.7-.3-2.5-.6-1-.4-1.7-.1-2.4.7-.8.9-4.2 4.2-5.1 5.1-.3.3-.6.6-1 .2-.4-.4 0-.7.2-1l5.5-5.5c.5-.4.6-.8.4-1.4v-.1c-1.2-2.4-.3-4 1.6-5.7 2.9-2.6 5.5-5.5 8.3-8.2.4-.4.7-.7.1-1.1-.3-.2-.5-.6-.1-.9.3-.3.6 0 .9.2l6.9 6.9c.3.3.5.6.2.9-.3.3-.7.2-.9-.1-.5-.6-.8-.3-1.1.1-3.3 3.3-6.6 6.7-10 10-.2.2-.4.6-1 .5z"/><path fill="#030303" d="M155.5 171.4c0 .3-.1.5-.3.6-.3.2-.5 0-.7-.2-.5-.7-.8-.4-1.2.1-.4.5-.9.9-1.4 1.4-.2.2-.5.6-.9.2-.4-.4-.1-.7.2-1 .5-.5 1.3-1 1.6-1.7.6-1.1-.7-1.3-1.2-1.9-.2-.3-.4-1.2-1.2-.5l-1.6 1.6c-.3.3-.6.6-1 .2-.4-.4 0-.6.2-.9.3-.4.7-.7 1.1-1.1.5-.5 1.3-1 .3-1.8-.3-.2-.1-.5.1-.7.3-.2.6 0 .8.2 1 .9 1.9 1.9 2.9 2.9l2 2c.2.3.3.5.3.6z"/><path fill="#FFFFFF" d="M143.5 176.2c0 .3-.2.5-.5.5s-1.6-1.2-1.6-1.6c0-.3.2-.5.5-.5.4 0 1.7 1.3 1.6 1.6zM138.3 178.3c.3 0 1.6 1.2 1.6 1.6 0 .3-.2.6-.5.5-.7-.3-1.2-.8-1.5-1.5-.1-.3.1-.5.4-.6zM136.8 180.4c.3 0 1.6 1.3 1.6 1.6 0 .3-.2.5-.5.5s-1.5-1.3-1.5-1.6c-.1-.3.1-.5.4-.5zM142 178.3c0 .3-.2.6-.5.4-.7-.3-1.2-.8-1.5-1.5-.1-.2.2-.5.5-.5s1.5 1.3 1.5 1.6zM144.1 173.1c.3 0 1.5 1.2 1.5 1.6 0 .3-.3.5-.5.4-.7-.3-1.2-.8-1.5-1.5-.1-.2.2-.4.5-.5z"/></g></g><g id="TimeSampleChart"><path fill="none" stroke="#555555" stroke-width="10" stroke-miterlimit="10" d="M127.4 135c0 9-7.3 16.3-16.3 16.3-3.1 0-5.9-.8-8.4-2.3" id="darkCycle"/><path fill="none" stroke="#FFF69F" stroke-width="10" stroke-miterlimit="10" d="M102.7 148.9c-4.7-2.8-7.9-8-7.9-13.9 0-9 7.3-16.3 16.3-16.3s16.3 7.3 16.3 16.3" id="lightCycle"/><g id="labels"><text transform="translate(90.2393 97.4444)"><tspan x="0" y="0" font-family="'HelveticaNeue-Thin'" font-size="8">24 &amp; 48 hour</tspan><tspan x="8.5" y="9" font-family="'HelveticaNeue-Thin'" font-size="8">injection</tspan></text><path fill="none" stroke="#000000" stroke-miterlimit="10" d="M110.9 112.3v9.3"/><text transform="translate(135.4072 148.0537)"><tspan x="0" y="0" font-family="'HelveticaNeue-Thin'" font-size="8">16 hour</tspan><tspan x="-.5" y="9" font-family="'HelveticaNeue-Thin'" font-size="8">injection</tspan></text><path fill="none" stroke="#000000" stroke-miterlimit="10" d="M123 140.1l8.3 4.3"/><text transform="translate(63.9464 146.499)"><tspan x="0" y="0" font-family="'HelveticaNeue-Thin'" font-size="8">8 hour</tspan><tspan x="-2.8" y="9" font-family="'HelveticaNeue-Thin'" font-size="8">injection</tspan></text><path fill="none" stroke="#000000" stroke-miterlimit="10" d="M99.8 139.1l-8.3 4.3"/><text transform="translate(62.4517 116.9199)"><tspan x="0" y="0" font-family="'HelveticaNeue-Thin'" font-size="8">4 hour</tspan><tspan x="-2.8" y="9" font-family="'HelveticaNeue-Thin'" font-size="8">injection</tspan></text><path fill="none" stroke="#000000" stroke-miterlimit="10" d="M100.4 129.7l-8.3-4.2"/></g></g><g id="Half_Leaf_Pseudomonas_syringae_at_48_Hours"><path id="Virulent_Half_Leaf_Pseudomonas_syringae_at_48_Hours" fill="#FFFFFF" d="M629.8 224c-1.3 2.5-5.2 9.1-6.3 14-.3 1.1-.4 3.7 0 6.2.3 1.9 1 3.7 1.7 5.2 1.5 3.4 4.3 8.3 4.7 10 .3 1.7 1.7 5.7 1.7 7.3v4.7l.8.3-2.6-47.7z"/><path id="Virulent_Half_Leaf_Pseudomonas_syringae_at_48_Hours_outline" fill="none" stroke="#000000" stroke-width=".5" stroke-linecap="round" stroke-linejoin="round" stroke-miterlimit="10" d="M623.3 241.3c-.1-6.3 3-11.8 6.5-16.9.9 1.1 1.4 1.8 2 2.4 6.4 6.8 8 14.8 4.4 23.3-2.6 6.2-3.8 12.5-3.3 19.1.1 1.1 0 2.3 0 3.4m-1-.6c-.2-2.6-.2-5.1-.6-7.7-.3-1.9-.9-3.9-1.7-5.7-1-2.4-2.6-4.7-3.3-7.1-.9-3.2-3.3-6.6-2.9-10.2m7.9-2.3c-.3 2.4-.7 4.7-.8 7.1-.1 2.5.1 4.9.3 7.4"/><path id="Avirulent_Half_Leaf_Pseudomonas_syringae_at_48_Hours" fill="#FFF200" d="M630 160.3c-1.3 2.5-5.2 9.1-6.3 14-.3 1.1-.4 3.7 0 6.2.3 1.9 1 3.7 1.7 5.2 1.5 3.4 4.3 8.3 4.7 10 .3 1.7 1.7 5.7 1.7 7.3v4.7l.8.3-2.6-47.7z"/><path id="Avirulent_Half_Leaf_Pseudomonas_syringae_at_48_Hours_outline" fill="none" stroke="#000000" stroke-width=".5" stroke-linecap="round" stroke-linejoin="round" stroke-miterlimit="10" d="M623.3 177.5c-.1-6.3 3-11.8 6.5-16.9.9 1.1 1.4 1.8 2 2.4 6.4 6.8 8 14.8 4.4 23.3-2.6 6.2-3.8 12.5-3.3 19.1.1 1.1 0 2.3 0 3.4m-1-.6c-.2-2.6-.2-5.1-.6-7.7-.3-1.9-.9-3.9-1.7-5.7-1-2.4-2.6-4.7-3.3-7.1-.9-3.2-3.3-6.6-2.9-10.2m7.9-2.3c-.3 2.4-.7 4.7-.8 7.1-.1 2.5.1 4.9.3 7.4"/><path id="Control_Half_Leaf_Pseudomonas_syringae_at_48_Hours" fill="#FFFFFF" d="M630 96.3c-1.3 2.5-5.2 9.1-6.3 14-.3 1.1-.4 3.7 0 6.2.3 1.9 1 3.7 1.7 5.2 1.5 3.4 4.3 8.3 4.7 10 .3 1.7 1.7 5.7 1.7 7.3v4.7l.8.3-2.6-47.7z"/><path id="Control_Half_Leaf_Pseudomonas_syringae_at_48_Hours_outline" fill="none" stroke="#000000" stroke-width=".5" stroke-linecap="round" stroke-linejoin="round" stroke-miterlimit="10" d="M623.3 113.6c-.1-6.3 3-11.8 6.5-16.9.9 1.1 1.4 1.8 2 2.4 6.4 6.8 8 14.8 4.4 23.3-2.6 6.2-3.8 12.5-3.3 19.1.1 1.1 0 2.3 0 3.4m-1-.6c-.2-2.6-.2-5.1-.6-7.7-.3-1.9-.9-3.9-1.7-5.7-1-2.4-2.6-4.7-3.3-7.1-.9-3.2-3.3-6.6-2.9-10.2m7.9-2.2c-.3 2.4-.7 4.7-.8 7.1-.1 2.5.1 4.9.3 7.4"/></g><g id="Half_Leaf_Pseudomonas_syringae_at_24_Hours"><path id="Virulent_Half_Leaf_Pseudomonas_syringae_at_24_Hours" fill="#FFF200" d="M569.8 224c-1.3 2.5-5.2 9.1-6.3 14-.3 1.1-.4 3.7 0 6.2.3 1.9 1 3.7 1.7 5.2 1.5 3.4 4.3 8.3 4.7 10 .3 1.7 1.7 5.7 1.7 7.3v4.7l.8.3-2.6-47.7z"/><path id="Virulent_Half_Leaf_Pseudomonas_syringae_at_24_Hours_outline" fill="none" stroke="#000000" stroke-width=".5" stroke-linecap="round" stroke-linejoin="round" stroke-miterlimit="10" d="M563.3 241.3c-.1-6.3 3-11.8 6.5-16.9.9 1.1 1.4 1.8 2 2.4 6.4 6.8 8 14.8 4.4 23.3-2.6 6.2-3.8 12.5-3.3 19.1.1 1.1 0 2.3 0 3.4m-1-.6c-.2-2.6-.2-5.1-.6-7.7-.3-1.9-.9-3.9-1.7-5.7-1-2.4-2.6-4.7-3.3-7.1-.9-3.2-3.3-6.6-2.9-10.2m7.9-2.3c-.3 2.4-.7 4.7-.8 7.1-.1 2.5.1 4.9.3 7.4"/><path id="Avirulent_Half_Leaf_Pseudomonas_syringae_at_24_Hours" fill="#FFFFFF" d="M570 160.3c-1.3 2.5-5.2 9.1-6.3 14-.3 1.1-.4 3.7 0 6.2.3 1.9 1 3.7 1.7 5.2 1.5 3.4 4.3 8.3 4.7 10 .3 1.7 1.7 5.7 1.7 7.3v4.7l.8.3-2.6-47.7z"/><path id="Avirulent_Half_Leaf_Pseudomonas_syringae_at_24_Hours_outline" fill="none" stroke="#000000" stroke-width=".5" stroke-linecap="round" stroke-linejoin="round" stroke-miterlimit="10" d="M563.3 177.5c-.1-6.3 3-11.8 6.5-16.9.9 1.1 1.4 1.8 2 2.4 6.4 6.8 8 14.8 4.4 23.3-2.6 6.2-3.8 12.5-3.3 19.1.1 1.1 0 2.3 0 3.4m-1-.6c-.2-2.6-.2-5.1-.6-7.7-.3-1.9-.9-3.9-1.7-5.7-1-2.4-2.6-4.7-3.3-7.1-.9-3.2-3.3-6.6-2.9-10.2m7.9-2.3c-.3 2.4-.7 4.7-.8 7.1-.1 2.5.1 4.9.3 7.4"/><path id="Control_Half_Leaf_Pseudomonas_syringae_at_24_Hours" fill="#FFFFFF" d="M570 96.3c-1.3 2.5-5.2 9.1-6.3 14-.3 1.1-.4 3.7 0 6.2.3 1.9 1 3.7 1.7 5.2 1.5 3.4 4.3 8.3 4.7 10 .3 1.7 1.7 5.7 1.7 7.3v4.7l.8.3-2.6-47.7z"/><path id="Control_Half_Leaf_Pseudomonas_syringae_at_24_Hours_outline" fill="none" stroke="#000000" stroke-width=".5" stroke-linecap="round" stroke-linejoin="round" stroke-miterlimit="10" d="M563.3 113.6c-.1-6.3 3-11.8 6.5-16.9.9 1.1 1.4 1.8 2 2.4 6.4 6.8 8 14.8 4.4 23.3-2.6 6.2-3.8 12.5-3.3 19.1.1 1.1 0 2.3 0 3.4m-1-.6c-.2-2.6-.2-5.1-.6-7.7-.3-1.9-.9-3.9-1.7-5.7-1-2.4-2.6-4.7-3.3-7.1-.9-3.2-3.3-6.6-2.9-10.2m7.9-2.2c-.3 2.4-.7 4.7-.8 7.1-.1 2.5.1 4.9.3 7.4"/></g><g id="Half_Leaf_Pseudomonas_syringae_at_16_Hours"><path id="Virulent_Half_Leaf_Pseudomonas_syringae_at_16_Hours" fill="#FFF200" d="M508.8 223c-1.3 2.5-5.2 9.1-6.3 14-.3 1.1-.4 3.7 0 6.2.3 1.9 1 3.7 1.7 5.2 1.5 3.4 4.3 8.3 4.7 10 .3 1.7 1.7 5.7 1.7 7.3v4.7l.8.3-2.6-47.7z"/><path id="Virulent_Half_Leaf_Pseudomonas_syringae_at_16_Hours_outline" fill="none" stroke="#000000" stroke-width=".5" stroke-linecap="round" stroke-linejoin="round" stroke-miterlimit="10" d="M502.3 240.3c-.1-6.3 3-11.8 6.5-16.9.9 1.1 1.4 1.8 2 2.4 6.4 6.8 8 14.8 4.4 23.3-2.6 6.2-3.8 12.5-3.3 19.1.1 1.1 0 2.3 0 3.4m-1-.6c-.2-2.6-.2-5.1-.6-7.7-.3-1.9-.9-3.9-1.7-5.7-1-2.4-2.6-4.7-3.3-7.1-.9-3.2-3.3-6.6-2.9-10.2m7.9-2.3c-.3 2.4-.7 4.7-.8 7.1-.1 2.5.1 4.9.3 7.4"/><path id="Avirulent_Half_Leaf_Pseudomonas_syringae_at_16_Hours" fill="#FFFFFF" d="M509 159.3c-1.3 2.5-5.2 9.1-6.3 14-.3 1.1-.4 3.7 0 6.2.3 1.9 1 3.7 1.7 5.2 1.5 3.4 4.3 8.3 4.7 10 .3 1.7 1.7 5.7 1.7 7.3v4.7l.8.3-2.6-47.7z"/><path id="Avirulent_Half_Leaf_Pseudomonas_syringae_at_16_Hours_outline" fill="none" stroke="#000000" stroke-width=".5" stroke-linecap="round" stroke-linejoin="round" stroke-miterlimit="10" d="M502.3 176.5c-.1-6.3 3-11.8 6.5-16.9.9 1.1 1.4 1.8 2 2.4 6.4 6.8 8 14.8 4.4 23.3-2.6 6.2-3.8 12.5-3.3 19.1.1 1.1 0 2.3 0 3.4m-1-.6c-.2-2.6-.2-5.1-.6-7.7-.3-1.9-.9-3.9-1.7-5.7-1-2.4-2.6-4.7-3.3-7.1-.9-3.2-3.3-6.6-2.9-10.2m7.9-2.3c-.3 2.4-.7 4.7-.8 7.1-.1 2.5.1 4.9.3 7.4"/><path id="Control_Half_Leaf_Pseudomonas_syringae_at_16_Hours" fill="#FFFFFF" d="M509 95.3c-1.3 2.5-5.2 9.1-6.3 14-.3 1.1-.4 3.7 0 6.2.3 1.9 1 3.7 1.7 5.2 1.5 3.4 4.3 8.3 4.7 10 .3 1.7 1.7 5.7 1.7 7.3v4.7l.8.3-2.6-47.7z"/><path id="Control_Half_Leaf_Pseudomonas_syringae_at_16_Hours_outline" fill="none" stroke="#000000" stroke-width=".5" stroke-linecap="round" stroke-linejoin="round" stroke-miterlimit="10" d="M502.3 112.6c-.1-6.3 3-11.8 6.5-16.9.9 1.1 1.4 1.8 2 2.4 6.4 6.8 8 14.8 4.4 23.3-2.6 6.2-3.8 12.5-3.3 19.1.1 1.1 0 2.3 0 3.4m-1-.6c-.2-2.6-.2-5.1-.6-7.7-.3-1.9-.9-3.9-1.7-5.7-1-2.4-2.6-4.7-3.3-7.1-.9-3.2-3.3-6.6-2.9-10.2m7.9-2.2c-.3 2.4-.7 4.7-.8 7.1-.1 2.5.1 4.9.3 7.4"/></g><g id="Half_Leaf_Pseudomonas_syringae_at_8_Hours"><path id="Virulent_Half_Leaf_Pseudomonas_syringae_at_8_Hours" fill="#FFFFFF" d="M447.8 225c-1.3 2.5-5.2 9.1-6.3 14-.3 1.1-.4 3.7 0 6.2.3 1.9 1 3.7 1.7 5.2 1.5 3.4 4.3 8.3 4.7 10 .3 1.7 1.7 5.7 1.7 7.3v4.7l.8.3-2.6-47.7z"/><path id="Virulent_Half_Leaf_Pseudomonas_syringae_at_8_Hours_outline" fill="none" stroke="#000000" stroke-width=".5" stroke-linecap="round" stroke-linejoin="round" stroke-miterlimit="10" d="M441.3 242.3c-.1-6.3 3-11.8 6.5-16.9.9 1.1 1.4 1.8 2 2.4 6.4 6.8 8 14.8 4.4 23.3-2.6 6.2-3.8 12.5-3.3 19.1.1 1.1 0 2.3 0 3.4m-1-.6c-.2-2.6-.2-5.1-.6-7.7-.3-1.9-.9-3.9-1.7-5.7-1-2.4-2.6-4.7-3.3-7.1-.9-3.2-3.3-6.6-2.9-10.2m7.9-2.3c-.3 2.4-.7 4.7-.8 7.1-.1 2.5.1 4.9.3 7.4"/><path id="Avirulent_Half_Leaf_Pseudomonas_syringae_at_8_Hours" fill="#FFFFFF" d="M448 161.3c-1.3 2.5-5.2 9.1-6.3 14-.3 1.1-.4 3.7 0 6.2.3 1.9 1 3.7 1.7 5.2 1.5 3.4 4.3 8.3 4.7 10 .3 1.7 1.7 5.7 1.7 7.3v4.7l.8.3-2.6-47.7z"/><path id="Avirulent_Half_Leaf_Pseudomonas_syringae_at_8_Hours_outline" fill="none" stroke="#000000" stroke-width=".5" stroke-linecap="round" stroke-linejoin="round" stroke-miterlimit="10" d="M441.3 178.5c-.1-6.3 3-11.8 6.5-16.9.9 1.1 1.4 1.8 2 2.4 6.4 6.8 8 14.8 4.4 23.3-2.6 6.2-3.8 12.5-3.3 19.1.1 1.1 0 2.3 0 3.4m-1-.6c-.2-2.6-.2-5.1-.6-7.7-.3-1.9-.9-3.9-1.7-5.7-1-2.4-2.6-4.7-3.3-7.1-.9-3.2-3.3-6.6-2.9-10.2m7.9-2.3c-.3 2.4-.7 4.7-.8 7.1-.1 2.5.1 4.9.3 7.4"/><path id="Control_Half_Leaf_Pseudomonas_syringae_at_8_Hours" fill="#FFFFFF" d="M448 97.3c-1.3 2.5-5.2 9.1-6.3 14-.3 1.1-.4 3.7 0 6.2.3 1.9 1 3.7 1.7 5.2 1.5 3.4 4.3 8.3 4.7 10 .3 1.7 1.7 5.7 1.7 7.3v4.7l.8.3-2.6-47.7z"/><path id="Control_Half_Leaf_Pseudomonas_syringae_at_8_Hours_outline" fill="none" stroke="#000000" stroke-width=".5" stroke-linecap="round" stroke-linejoin="round" stroke-miterlimit="10" d="M441.3 114.6c-.1-6.3 3-11.8 6.5-16.9.9 1.1 1.4 1.8 2 2.4 6.4 6.8 8 14.8 4.4 23.3-2.6 6.2-3.8 12.5-3.3 19.1.1 1.1 0 2.3 0 3.4m-1-.6c-.2-2.6-.2-5.1-.6-7.7-.3-1.9-.9-3.9-1.7-5.7-1-2.4-2.6-4.7-3.3-7.1-.9-3.2-3.3-6.6-2.9-10.2m7.9-2.2c-.3 2.4-.7 4.7-.8 7.1-.1 2.5.1 4.9.3 7.4"/></g><g id="Half_Leaf_Pseudomonas_syringae_at_4_Hours"><path id="Virulent_Half_Leaf_Pseudomonas_syringae_at_4_Hours" fill="#FFFFFF" d="M384.8 223c-1.3 2.5-5.2 9.1-6.3 14-.3 1.1-.4 3.7 0 6.2.3 1.9 1 3.7 1.7 5.2 1.5 3.4 4.3 8.3 4.7 10 .3 1.7 1.7 5.7 1.7 7.3v4.7l.8.3-2.6-47.7z"/><path id="Virulent_Half_Leaf_Pseudomonas_syringae_at_4_Hours_outline" fill="none" stroke="#000000" stroke-width=".5" stroke-linecap="round" stroke-linejoin="round" stroke-miterlimit="10" d="M378.3 240.3c-.1-6.3 3-11.8 6.5-16.9.9 1.1 1.4 1.8 2 2.4 6.4 6.8 8 14.8 4.4 23.3-2.6 6.2-3.8 12.5-3.3 19.1.1 1.1 0 2.3 0 3.4m-1-.6c-.2-2.6-.2-5.1-.6-7.7-.3-1.9-.9-3.9-1.7-5.7-1-2.4-2.6-4.7-3.3-7.1-.9-3.2-3.3-6.6-2.9-10.2m7.9-2.3c-.3 2.4-.7 4.7-.8 7.1-.1 2.5.1 4.9.3 7.4"/><path id="Avirulent_Half_Leaf_Pseudomonas_syringae_at_4_Hours" fill="#FFFFFF" d="M385 159.3c-1.3 2.5-5.2 9.1-6.3 14-.3 1.1-.4 3.7 0 6.2.3 1.9 1 3.7 1.7 5.2 1.5 3.4 4.3 8.3 4.7 10 .3 1.7 1.7 5.7 1.7 7.3v4.7l.8.3-2.6-47.7z"/><path id="Avirulent_Half_Leaf_Pseudomonas_syringae_at_4_Hours_outline" fill="none" stroke="#000000" stroke-width=".5" stroke-linecap="round" stroke-linejoin="round" stroke-miterlimit="10" d="M378.3 176.5c-.1-6.3 3-11.8 6.5-16.9.9 1.1 1.4 1.8 2 2.4 6.4 6.8 8 14.8 4.4 23.3-2.6 6.2-3.8 12.5-3.3 19.1.1 1.1 0 2.3 0 3.4m-1-.6c-.2-2.6-.2-5.1-.6-7.7-.3-1.9-.9-3.9-1.7-5.7-1-2.4-2.6-4.7-3.3-7.1-.9-3.2-3.3-6.6-2.9-10.2m7.9-2.3c-.3 2.4-.7 4.7-.8 7.1-.1 2.5.1 4.9.3 7.4"/><path id="Control_Half_Leaf_Pseudomonas_syringae_at_4_Hours" fill="#FFFFFF" d="M385 95.3c-1.3 2.5-5.2 9.1-6.3 14-.3 1.1-.4 3.7 0 6.2.3 1.9 1 3.7 1.7 5.2 1.5 3.4 4.3 8.3 4.7 10 .3 1.7 1.7 5.7 1.7 7.3v4.7l.8.3-2.6-47.7z"/><path id="Control_Half_Leaf_Pseudomonas_syringae_at_4_Hours_outline" fill="none" stroke="#000000" stroke-width=".5" stroke-linecap="round" stroke-linejoin="round" stroke-miterlimit="10" d="M378.3 112.6c-.1-6.3 3-11.8 6.5-16.9.9 1.1 1.4 1.8 2 2.4 6.4 6.8 8 14.8 4.4 23.3-2.6 6.2-3.8 12.5-3.3 19.1.1 1.1 0 2.3 0 3.4m-1-.6c-.2-2.6-.2-5.1-.6-7.7-.3-1.9-.9-3.9-1.7-5.7-1-2.4-2.6-4.7-3.3-7.1-.9-3.2-3.3-6.6-2.9-10.2m7.9-2.2c-.3 2.4-.7 4.7-.8 7.1-.1 2.5.1 4.9.3 7.4"/></g></g></svg>