<svg xmlns="http://www.w3.org/2000/svg" xml:space="preserve" id="BioticStressElicitors_svg" x="0" y="0" version="1.1" viewBox="25 20 454.917 542.269" author="Provart Lab - Bio Analytic Resource, University of Toronto">
  <g id="Botrytis_cinerea" transform="translate(-5.68 -16.766)">
    <g id="Labels">
      <text id="text2" font-family="HelveticaNeue-Italic" font-size="18" transform="translate(32.931 97.314)">Elicitors</text>
      <text id="text4" font-family="HelveticaNeue-Thin" font-size="12" transform="translate(225.771 76.666)">Infiltrated with Water</text>
      <text id="text6" font-family="HelveticaNeue-Thin" font-size="12" transform="translate(241.713 134.167)">Infiltrated with</text>
      <text id="text8" font-family="HelveticaNeue-Thin" font-size="12" transform="translate(215.213 148.566)">Bacterial-Derived Elicitor</text>
      <text id="text10" font-family="HelveticaNeue-Thin" font-size="10" transform="translate(250.299 161.167)">(1 uM flg22)</text>
      <text id="text12" font-family="HelveticaNeue-Thin" font-size="12" transform="translate(241.713 209.167)">Infiltrated with</text>
      <text id="text14" font-family="HelveticaNeue-Thin" font-size="12" transform="translate(215.213 223.566)">Bacterial-Derived Elicitor</text>
      <text id="text16" font-family="HelveticaNeue-Thin" font-size="10" transform="translate(247.604 236.167)">(10 uM HrpZ)</text>
      <text id="text18" font-family="HelveticaNeue-Thin" font-size="10" transform="translate(369.884 574.667)">1 hour</text>
      <text id="text20" font-family="HelveticaNeue-Thin" font-size="10" transform="translate(449.438 575.667)">4 hours</text>
      <text id="text22" font-family="HelveticaNeue" font-size="8" transform="translate(104.996 162)">24hr</text>
      <text id="text24" font-family="HelveticaNeue-Thin" font-size="12" transform="translate(241.81 280.166)">Infiltrated with</text>
      <text id="text26" font-family="HelveticaNeue-Thin" font-size="12" transform="translate(237.81 294.567)">1mM CaCl2 + </text>
      <text id="text28" font-family="HelveticaNeue-Thin" font-size="12" transform="translate(239.01 308.966)">2.5mM MgCl2</text>
      <text id="text30" font-family="HelveticaNeue-Thin" font-size="12" transform="translate(241.713 354.733)">Infiltrated with</text>
      <text id="text32" font-family="HelveticaNeue-Thin" font-size="12" transform="translate(215.213 369.133)">Bacterial-Derived Elicitor</text>
      <text id="text34" font-family="HelveticaNeue-Thin" font-size="10" transform="translate(241.299 381.733)">(100 ug/ml LPS)</text>
      <text id="text36" font-family="HelveticaNeue-Thin" font-size="12" transform="translate(215.745 440.733)">Infiltrated with 1uM GST</text>
      <text id="text38" font-family="HelveticaNeue-Thin" font-size="12" transform="translate(241.713 503.645)">Infiltrated with</text>
      <text id="text40" font-family="HelveticaNeue-Thin" font-size="12" transform="translate(210.513 518.045)">Oomycete-Derived Elicitor</text>
      <text id="text42" font-family="HelveticaNeue-Thin" font-size="10" transform="translate(237.859 530.645)">(1 uM GST-NPP1)</text>
    </g>
    <g id="infoButton_Botrytis_cinerea">
      <circle id="circle45" cx="121.2" cy="91.2" r="9.2" fill="#039388"/>
      <text id="text47" fill="#fff" font-family="HelveticaNeue-Bold" font-size="12" transform="translate(119.452 95.5)">i</text>
    </g>
    <g id="treatmentInfographic" fill="none" stroke="#000" stroke-miterlimit="10" stroke-width=".5">
      <g id="root">
        <path id="path50" d="M110.4 296c.8-2.1 0-4.2-.7-5.9-.1-.2-.2-.4-.2-.6-1-2.9 1.6-5.7 1.6-5.7"/>
        <path id="path52" d="M118.3 262.9s2.3-4.1 4.1-5.9"/>
        <path id="path54" d="M123.1 272.4c-.7-1.9-3.9-2.2-4-2.2"/>
        <path id="path56" d="M103.7 271.1c-2.2.7-6.8 3.6-7 3.7"/>
        <path id="path58" d="M107.8 271.2c-3.1-.4-8.2 5.1-8.5 5.3"/>
        <path id="path60" d="M100.9 262c-8.2-.9-13.7 3.5-13.8 3.6"/>
        <path id="path62" d="M109.1 261.9c-1.2-1.1-2.6-4.6-2.6-4.6"/>
        <path id="path64" d="M113.1 264.1s.3.9.4 1.4"/>
        <path id="path66" d="M125 284.3c-1.4-3.1-4.8-6.6-4.9-6.6"/>
        <path id="path68" d="M111.8 262.7c-.1 0-.1 0 0 0"/>
        <path id="path70" d="M117.4 286.6c-.3-.3-1.9-1.6-1.9-3.2-.1-1.5-.5-3.4-1.3-5.4-.1-.4-.5-.6-.4-.4.4-.9.6-2.6.6-3.2v-.6c0-.5.1-.8.2-1.2.1-.3.1-.6.2-.9"/>
        <path id="path72" d="M110.1 324.6c-.1-.9.2-1.6.7-2.6.2-1-.1-3.2-.5-4.8-.6-2.6 2.2-5.3 2.3-5.4l.1.1c.1-.9.3-1.9.6-2.8.1-.7.1-1.7.1-2.7 0-1.6-.1-3.3.4-4.2.1-.2.2-.5.3-.8.7-1.9 1.4-3.8 1.1-7.8-1.5-3.6-1.1-2.5-1.6-3.3-.5-.8-1.3-.4-2-4.2-.7-3.8 0-5.2 0-7 0-1.8.9-6.2 1.2-7.5"/>
        <path id="path74" d="M119.5 330.7c-.8-.5-.9-1.7-1-2.5 0-.3 0-.5-.1-.6-1.1-1.1-.9-2.3-.6-3.8 0-1.4-1.1-2.3-1.5-2.6.1.6.1 1.2.1 1.5-.3 1.5-1 4.8.4 9.6.2.5.5 1 .8 1.5.6 4.2.9 7.7.9 7.7l-.1-1.6s-.5-1.8-1.1-6c-.2-.5-.4-.9-.6-1.3 0-.1 0-.1-.1-.2-1.1-2.2-2.1-4.1-1.9-7.4v-.2c.2-4.1.2-5.4-1.7-9.3-.3-.9-.3-2.6-.3-3.7"/>
        <path id="path76" d="M120.5 311.3c.3-3.2-.5-4.2-1.1-5l-.1-.1c-.8-1-.8-2.2-.7-4.7 0-2.6-1.4-3.6-1.9-3.9 0 1.1-.1 2.2-.3 2.9l-.1.2c-.8 1.9-1.3 3-1.1 5.3.1 1.7-.3 3.7-.6 4.9-.1.5-.2.9-.2 1.1-.2 1.1.3 2.9.8 3.5.4.7.6 1.7.8 2.4.1.3.1.6.2.8v.3c.1.5.2 1.1.3 1.7l.1.4"/>
        <path id="path78" d="M113.8 277.6c-.4 2-.3 2-.3 4s-.3 3.1 0 4.1c.3 1 .8 1.8 1.2 2.3.9 1.3 1.8 2.5 1.9 4.3v5.2"/>
        <path id="path80" d="M136.4 259.8c-3-.3-6 1.2-6.1 1.3h.8c-2 0-4.5.3-6.9 1.1"/>
        <path id="path82" d="M137.9 262.7c-1.8-.9-4.1-1.6-6.8-1.7"/>
        <path id="path84" d="M112.2 270.3c.2-.1 1-.1 1.2-.4.3-.4.4-1.1.2-1.8-.1-.2-.3-.4-.4-.7-.6-.9-1.5-2.3-1.3-4.5"/>
        <path id="path86" d="M114.3 268c-.2 1-.1 1.8-.1 1.8"/>
        <path id="path88" d="m126.5 263.4 14.7 5.1c-8.6-7.4-14.7-5.1-14.7-5.1z"/>
        <path id="line90" d="m114.6 267.4-.2.4"/>
        <path id="line92" d="M114.4 268v-.2"/>
        <path id="line94" d="M113.6 262.2v.3"/>
      </g>
      <path id="rosette" d="M80.8 270.1s-.8-.5 2.1-4.2c2.4-2.9 5.3-6.2 7.3-7.3 2.1-1.3 4.1-2.8 8.5-1.1 1.4.8 2.3 1.4 3.7 2.8.7 1.1 2.7 2 2.9 2.3 1 .5 5.5 3.7 6.7 4.2-1.2-1.1-5.1-4.5-6.4-5.1-1.4-.6-2.6-1.7-2.2-5.9.4-2.4.9-3.8.9-3.8 1 .8 5 4.5 5.7 5.8.6 1 .2 1.7.6 2.8.3 1 .9 2.1 1.3 2.3.1-.7.3-1.8.3-1.8.3.5 1.6 1.5 1.6 1.5.2.5 1 2.6.9 3.1-.1.8-.3 2-.3 2 .6-.8 2-2 2.6-4.7.2-1.5.1-4.5 1.1-5.8.9-1.3 1.6-2.6 3.7-3.1 1.1-.3 2.9-.8 3.5 1.9.1.9-.1 2.1-2.2 4.5-1.4 1.3-4.5 4-4.5 4.1-.7.8-1 1.2-1 1.2 1.4-1 5.7-3.3 6.3-3.5.6-.8 4.5-5 9.5-5.6 2.2-.2 7.4 1.2 8.9 1.9-.8.4-2.2 1.2-2.4 1.9-.3.8-1 2.3-1.9 2.3.9.6 4 2.6 5.2 4.3 1 1.1 4.1 3.4 6.1 3.9-.3.5-6.5 2.9-9.6 1.9-3.1-1-4.8-2.9-7.7-5.2-1.7-1.2-4.4-3-8.4-2.3-2.2.5-6.2 1.8-8 3.2l-.3.4c1 0 8.3-.7 9.7 1.1 1.2 1.6 2.5 3.4 2.5 3.4-.7.6-4.4 3.6-8.2 0-1.5-1.7-2.7-3.3-4-3.2.6.8 3.6 4.8 5.6 5.9 2.2.6 8.1 1.4 9.5 6.1.8 2.6 1 5.7 1 5.7-1.3.6-5.5 3.5-11.3-3.8-1.3-2.6-1.6-2.8-2.7-8.3-.8-1.5-1.5-3-2.8-4-1.3-.1-1.9-.1-2 0-1 .1-3.8.3-4.9 2.1-1.3 1.7-3.3 4.1-7.7 6.4-2.2 1-4.4 2.1-7.7-1.9-.8-1.3-1.2-3.9.1-5.4 1.4-1.6 3.9-4.7 6.4-4.6 1.7.1 8.4 1.3 13.3 2.2-.6-.8-4.3-5.7-12-5.8-1.5.1-3.4.4-5.7 1.9-2.6 1.6-5.9 4.5-10 3.2-1-.4-2.5-.5-3.6.1z"/>
    </g>
    <g id="all_samples_4_hours" fill="#fff" stroke="#000" stroke-linecap="round" stroke-linejoin="round" stroke-miterlimit="10" stroke-width=".5">
      <path id="NPP_at_4_Hours" d="M453.1 508.3c-.1-8 3.8-14.9 8.2-21.3 1.1 1.4 1.8 2.3 2.5 3.1 8.1 8.6 10.1 18.6 5.5 29.3-3.2 7.8-4.8 15.8-4.1 24.1.1 1.4 0 2.9 0 4.3m-1.2-.8c-.3-3.2-.3-6.4-.8-9.7-.4-2.4-1.1-4.9-2.1-7.2-1.2-3.1-3.2-5.9-4.1-8.9-1.1-4-4.1-8.3-3.7-12.9m9.9-2.9c-.4 3.1-.9 5.9-1.1 8.9-.1 3.1.1 6.1.4 9.3"/>
      <path id="GST_at_4_Hours" d="M453.1 433.7c-.1-8 3.8-14.9 8.2-21.3 1.1 1.4 1.8 2.3 2.5 3.1 8.1 8.6 10.1 18.6 5.5 29.3-3.2 7.8-4.8 15.8-4.1 24.1.1 1.4 0 2.9 0 4.3m-1.2-.8c-.3-3.2-.3-6.4-.8-9.7-.4-2.4-1.1-4.9-2.1-7.2-1.2-3.1-3.2-5.9-4.1-8.9-1.1-4-4.1-8.3-3.7-12.9m9.9-2.9c-.4 3.1-.9 6-1.1 8.9-.1 3.1.1 6.1.4 9.3"/>
      <path id="LPS_at_4_Hours" d="M453.1 359.2c-.1-8 3.8-14.9 8.2-21.3 1.1 1.4 1.8 2.3 2.5 3.1 8.1 8.6 10.1 18.6 5.5 29.3-3.2 7.8-4.8 15.8-4.1 24.1.1 1.4 0 2.9 0 4.3m-1.2-.8c-.3-3.2-.3-6.4-.8-9.7-.4-2.4-1.1-4.9-2.1-7.2-1.2-3.1-3.2-5.9-4.1-8.9-1.1-4-4.1-8.3-3.7-12.9m9.9-2.9c-.4 3.1-.9 6-1.1 8.9-.1 3.1.1 6.1.4 9.3"/>
      <path id="CaMg_at_4_Hours" d="M453.1 284.6c-.1-8 3.8-14.9 8.2-21.3 1.1 1.4 1.8 2.3 2.5 3.1 8.1 8.6 10.1 18.6 5.5 29.3-3.2 7.8-4.8 15.8-4.1 24.1.1 1.4 0 2.9 0 4.3m-1.2-.8c-.3-3.2-.3-6.4-.8-9.7-.4-2.4-1.1-4.9-2.1-7.2-1.2-3.1-3.2-5.9-4.1-8.9-1.1-4-4.1-8.3-3.7-12.9m9.9-2.9c-.4 3.1-.9 6-1.1 8.9-.1 3.2.1 6.1.4 9.3"/>
      <path id="HrpZ_at_4_Hours" d="M453.1 210.1c-.1-8 3.8-14.9 8.2-21.3 1.1 1.4 1.8 2.3 2.5 3.1 8.1 8.6 10.1 18.6 5.5 29.3-3.2 7.8-4.8 15.8-4.1 24.1.1 1.4 0 2.9 0 4.3m-1.2-.9c-.3-3.2-.3-6.4-.8-9.7-.4-2.4-1.1-4.9-2.1-7.2-1.2-3.1-3.2-5.9-4.1-8.9-1.1-4-4.1-8.3-3.7-12.9m9.9-2.8c-.4 3.1-.9 6-1.1 8.9-.1 3.2.1 6.1.4 9.3"/>
      <path id="FLG22_at_4_Hours" d="M453.1 135.5c-.1-8 3.8-14.9 8.2-21.3 1.1 1.4 1.8 2.3 2.5 3.1 8.1 8.6 10.1 18.6 5.5 29.3-3.2 7.8-4.8 15.8-4.1 24.1.1 1.4 0 2.9 0 4.3m-1.2-.8c-.3-3.2-.3-6.4-.8-9.7-.4-2.4-1.1-4.9-2.1-7.2-1.2-3.1-3.2-5.9-4.1-8.9-1.1-4-4.1-8.3-3.7-12.9m9.9-2.9c-.4 3.1-.9 5.9-1.1 8.9-.1 3.2.1 6.1.4 9.3"/>
      <path id="H2O_at_4_Hours" d="M453.1 61c-.1-8 3.8-14.9 8.2-21.3 1.1 1.4 1.8 2.3 2.5 3.1 8.1 8.6 10.1 18.6 5.5 29.3-3.2 7.8-4.8 15.8-4.1 24.1.1 1.4 0 2.9 0 4.3m-1.2-.9c-.3-3.2-.3-6.4-.8-9.7-.4-2.4-1.1-4.9-2.1-7.2-1.2-3.1-3.2-5.9-4.1-8.9-1.1-4-4.1-8.3-3.7-12.9m9.9-2.7c-.4 3.1-.9 6-1.1 8.9-.1 3.2.1 6.1.4 9.3"/>
    </g>
    <g id="all_samples_1_hour" fill="#fff" stroke="#000" stroke-linecap="round" stroke-linejoin="round" stroke-miterlimit="10" stroke-width=".5">
      <path id="NPP_at_1_Hour" d="M378.1 508.3c-.1-8 3.8-14.9 8.2-21.3 1.1 1.4 1.8 2.3 2.5 3.1 8.1 8.6 10.1 18.6 5.5 29.3-3.2 7.8-4.8 15.8-4.1 24.1.1 1.4 0 2.9 0 4.3m-1.2-.8c-.3-3.2-.3-6.4-.8-9.7-.4-2.4-1.1-4.9-2.1-7.2-1.2-3.1-3.2-5.9-4.1-8.9-1.1-4-4.1-8.3-3.7-12.9m9.9-2.9c-.4 3.1-.9 5.9-1.1 8.9-.1 3.1.1 6.1.4 9.3"/>
      <path id="GST_at_1_Hour" d="M378.1 433.7c-.1-8 3.8-14.9 8.2-21.3 1.1 1.4 1.8 2.3 2.5 3.1 8.1 8.6 10.1 18.6 5.5 29.3-3.2 7.8-4.8 15.8-4.1 24.1.1 1.4 0 2.9 0 4.3m-1.2-.8c-.3-3.2-.3-6.4-.8-9.7-.4-2.4-1.1-4.9-2.1-7.2-1.2-3.1-3.2-5.9-4.1-8.9-1.1-4-4.1-8.3-3.7-12.9m9.9-2.9c-.4 3.1-.9 6-1.1 8.9-.1 3.1.1 6.1.4 9.3"/>
      <path id="LPS_at_1_Hour" d="M378.1 359.2c-.1-8 3.8-14.9 8.2-21.3 1.1 1.4 1.8 2.3 2.5 3.1 8.1 8.6 10.1 18.6 5.5 29.3-3.2 7.8-4.8 15.8-4.1 24.1.1 1.4 0 2.9 0 4.3m-1.2-.8c-.3-3.2-.3-6.4-.8-9.7-.4-2.4-1.1-4.9-2.1-7.2-1.2-3.1-3.2-5.9-4.1-8.9-1.1-4-4.1-8.3-3.7-12.9m9.9-2.9c-.4 3.1-.9 6-1.1 8.9-.1 3.1.1 6.1.4 9.3"/>
      <path id="CaMg_at_1_Hour" d="M378.1 284.6c-.1-8 3.8-14.9 8.2-21.3 1.1 1.4 1.8 2.3 2.5 3.1 8.1 8.6 10.1 18.6 5.5 29.3-3.2 7.8-4.8 15.8-4.1 24.1.1 1.4 0 2.9 0 4.3m-1.2-.8c-.3-3.2-.3-6.4-.8-9.7-.4-2.4-1.1-4.9-2.1-7.2-1.2-3.1-3.2-5.9-4.1-8.9-1.1-4-4.1-8.3-3.7-12.9m9.9-2.9c-.4 3.1-.9 6-1.1 8.9-.1 3.2.1 6.1.4 9.3"/>
      <path id="HrpZ_at_1_Hour" d="M378.1 210.1c-.1-8 3.8-14.9 8.2-21.3 1.1 1.4 1.8 2.3 2.5 3.1 8.1 8.6 10.1 18.6 5.5 29.3-3.2 7.8-4.8 15.8-4.1 24.1.1 1.4 0 2.9 0 4.3m-1.2-.9c-.3-3.2-.3-6.4-.8-9.7-.4-2.4-1.1-4.9-2.1-7.2-1.2-3.1-3.2-5.9-4.1-8.9-1.1-4-4.1-8.3-3.7-12.9m9.9-2.8c-.4 3.1-.9 6-1.1 8.9-.1 3.2.1 6.1.4 9.3"/>
      <path id="FLG22_at_1_Hour" d="M378.1 135.5c-.1-8 3.8-14.9 8.2-21.3 1.1 1.4 1.8 2.3 2.5 3.1 8.1 8.6 10.1 18.6 5.5 29.3-3.2 7.8-4.8 15.8-4.1 24.1.1 1.4 0 2.9 0 4.3m-1.2-.8c-.3-3.2-.3-6.4-.8-9.7-.4-2.4-1.1-4.9-2.1-7.2-1.2-3.1-3.2-5.9-4.1-8.9-1.1-4-4.1-8.3-3.7-12.9m9.9-2.9c-.4 3.1-.9 5.9-1.1 8.9-.1 3.2.1 6.1.4 9.3"/>
      <path id="H2O_at_1_Hour" d="M378.1 61c-.1-8 3.8-14.9 8.2-21.3 1.1 1.4 1.8 2.3 2.5 3.1 8.1 8.6 10.1 18.6 5.5 29.3-3.2 7.8-4.8 15.8-4.1 24.1.1 1.4 0 2.9 0 4.3m-1.2-.9c-.3-3.2-.3-6.4-.8-9.7-.4-2.4-1.1-4.9-2.1-7.2-1.2-3.1-3.2-5.9-4.1-8.9-1.1-4-4.1-8.3-3.7-12.9m9.9-2.7c-.4 3.1-.9 6-1.1 8.9-.1 3.2.1 6.1.4 9.3"/>
    </g>
    <g id="TimeSampleChart">
      <g id="ligtCycle">
        <path id="path115" fill="none" stroke="#fff69f" stroke-miterlimit="10" stroke-width="10" d="M102.4 148.2c6.2-6.5 16.5-6.7 23-.5 2.2 2.1 3.7 4.7 4.4 7.5"/>
      </g>
      <g id="darkCycle">
        <path id="path118" fill="none" stroke="#555" stroke-miterlimit="10" stroke-width="10" d="M129.8 155.2c1.4 5.3.1 11.2-4 15.5-6.2 6.5-16.5 6.7-23 .5s-6.7-16.5-.5-23"/>
      </g>
      <g id="labels">
        <path id="line121" fill="none" stroke="#000" stroke-miterlimit="10" d="M113.9 132.6v14.3"/>
        <text id="text123" font-family="HelveticaNeue-Thin" font-size="8" transform="translate(137.991 148.475)">4 hour sample</text>
        <path id="line125" fill="none" stroke="#000" stroke-miterlimit="10" d="m124.8 153 8.5-4.2"/>
        <text id="text127" font-family="HelveticaNeue-Thin" font-size="8" transform="translate(123.293 138.615)">1 hour sample</text>
        <path id="line129" fill="none" stroke="#000" stroke-miterlimit="10" d="m117.7 148.1 4.4-7.9"/>
        <text id="text131" font-family="HelveticaNeue-Thin" font-size="8" transform="translate(93.283 128.44)">INJECTION</text>
      </g>
    </g>
  </g>
  <g id="syringe" transform="translate(-5.68 -16.766)">
    <path id="path136" d="M145.2 242.6c-.8-.2-1.7-.3-2.5-.6-1-.4-1.7-.1-2.4.7-.8.9-4.2 4.2-5.1 5.1-.3.3-.6.6-1 .2-.4-.4 0-.7.2-1l5.5-5.5c.5-.4.6-.8.4-1.4v-.1c-1.2-2.4-.3-4 1.6-5.7 2.9-2.6 5.5-5.5 8.3-8.2.4-.4.7-.7.1-1.1-.3-.2-.5-.6-.1-.9.3-.3.6 0 .9.2l6.9 6.9c.3.3.5.6.2.9-.3.3-.7.2-.9-.1-.5-.6-.8-.3-1.1.1-3.3 3.3-6.6 6.7-10 10-.2.2-.4.6-1 .5z"/>
    <path id="path138" fill="#030303" d="M161.5 226.4c0 .3-.1.5-.3.6-.3.2-.5 0-.7-.2-.5-.7-.8-.4-1.2.1-.4.5-.9.9-1.4 1.4-.2.2-.5.6-.9.2-.4-.4-.1-.7.2-1 .5-.5 1.3-1 1.6-1.7.6-1.1-.7-1.3-1.2-1.9-.2-.3-.4-1.2-1.2-.5l-1.6 1.6c-.3.3-.6.6-1 .2-.4-.4 0-.6.2-.9.3-.4.7-.7 1.1-1.1.5-.5 1.3-1 .3-1.8-.3-.2-.1-.5.1-.7.3-.2.6 0 .8.2 1 .9 1.9 1.9 2.9 2.9l2 2c.2.3.3.5.3.6z"/>
    <path id="path140" fill="#fff" d="M149.5 231.2c0 .3-.2.5-.5.5s-1.6-1.2-1.6-1.6c0-.3.2-.5.5-.5.4 0 1.7 1.3 1.6 1.6z"/>
    <path id="path142" fill="#fff" d="M144.3 233.3c.3 0 1.6 1.2 1.6 1.6 0 .3-.2.6-.5.5-.7-.3-1.2-.8-1.5-1.5-.1-.3.1-.5.4-.6z"/>
    <path id="path144" fill="#fff" d="M142.8 235.4c.3 0 1.6 1.3 1.6 1.6 0 .3-.2.5-.5.5s-1.5-1.3-1.5-1.6c-.1-.3.1-.5.4-.5z"/>
    <path id="path146" fill="#fff" d="M148 233.3c0 .3-.2.6-.5.4-.7-.3-1.2-.8-1.5-1.5-.1-.2.2-.5.5-.5s1.5 1.3 1.5 1.6z"/>
    <path id="path148" fill="#fff" d="M150.1 228.1c.3 0 1.5 1.2 1.5 1.6 0 .3-.3.5-.5.4-.7-.3-1.2-.8-1.5-1.5-.1-.2.2-.4.5-.5z"/>
  </g>
</svg>