<svg xmlns="http://www.w3.org/2000/svg" xml:space="preserve" id="BioticStressBotrytiscinerea_svg" x="0" y="0" version="1.1" viewBox="25 75 460.977 264.003" author="Provart Lab - Bio Analytic Resource, University of Toronto">
  <g id="Botrytis_cinerea" transform="translate(-5.65 -5.693)">
    <g id="Labels">
      <text id="text2" font-family="HelveticaNeue-Italic" font-size="18" transform="translate(32.931 97.314)">Botrytis cinerea</text>
      <text id="text4" font-family="HelveticaNeue-Thin" font-size="12" transform="translate(246.873 163.667)">Mock Treatment</text>
      <text id="text6" font-family="HelveticaNeue-Thin" font-size="10" transform="translate(238.973 176.667)">(Potato Dextrose Broth)</text>
      <text id="text8" font-family="HelveticaNeue-Thin" font-size="12" transform="translate(250.686 266.166)">Conidiospore</text>
      <text id="text10" font-family="HelveticaNeue-Thin" font-size="10" transform="translate(224.788 279.166)">(Diluted to 5X10^5 spores/ml)</text>
      <text id="text12" font-family="HelveticaNeue-Thin" font-size="10" transform="translate(369.884 341.666)">18 hours</text>
      <text id="text14" font-family="HelveticaNeue-Thin" font-size="10" transform="translate(450.438 342.666)">48 hours</text>
    </g>
    <g id="infoButton_Botrytis_cinerea">
      <circle id="circle17" cx="184.2" cy="91.2" r="9.2" fill="#ccc"/>
      <text id="text19" fill="#fff" font-family="HelveticaNeue-Bold" font-size="12" transform="translate(182.452 95.5)">i</text>
    </g>
    <g id="treatmentInfographic">
      <g id="root" fill="none" stroke="#000" stroke-miterlimit="10" stroke-width=".5">
        <path id="path22" d="M110.4 296c.8-2.1 0-4.2-.7-5.9-.1-.2-.2-.4-.2-.6-1-2.9 1.6-5.7 1.6-5.7"/>
        <path id="path24" d="M118.3 262.9s2.3-4.1 4.1-5.9"/>
        <path id="path26" d="M123.1 272.4c-.7-1.9-3.9-2.2-4-2.2"/>
        <path id="path28" d="M103.7 271.1c-2.2.7-6.8 3.6-7 3.7"/>
        <path id="path30" d="M107.8 271.2c-3.1-.4-8.2 5.1-8.5 5.3"/>
        <path id="path32" d="M100.9 262c-8.2-.9-13.7 3.5-13.8 3.6"/>
        <path id="path34" d="M109.1 261.9c-1.2-1.1-2.6-4.6-2.6-4.6"/>
        <path id="path36" d="M113.1 264.1s.3.9.4 1.4"/>
        <path id="path38" d="M125 284.3c-1.4-3.1-4.8-6.6-4.9-6.6"/>
        <path id="path40" d="M111.8 262.7c-.1 0-.1 0 0 0"/>
        <path id="path42" d="M117.4 286.6c-.3-.3-1.9-1.6-1.9-3.2-.1-1.5-.5-3.4-1.3-5.4-.1-.4-.5-.6-.4-.4.4-.9.6-2.6.6-3.2v-.6c0-.5.1-.8.2-1.2.1-.3.1-.6.2-.9"/>
        <path id="path44" d="M110.1 324.6c-.1-.9.2-1.6.7-2.6.2-1-.1-3.2-.5-4.8-.6-2.6 2.2-5.3 2.3-5.4l.1.1c.1-.9.3-1.9.6-2.8.1-.7.1-1.7.1-2.7 0-1.6-.1-3.3.4-4.2.1-.2.2-.5.3-.8.7-1.9 1.4-3.8 1.1-7.8-1.5-3.6-1.1-2.5-1.6-3.3-.5-.8-1.3-.4-2-4.2-.7-3.8 0-5.2 0-7 0-1.8.9-6.2 1.2-7.5"/>
        <path id="path46" d="M119.5 330.7c-.8-.5-.9-1.7-1-2.5 0-.3 0-.5-.1-.6-1.1-1.1-.9-2.3-.6-3.8 0-1.4-1.1-2.3-1.5-2.6.1.6.1 1.2.1 1.5-.3 1.5-1 4.8.4 9.6.2.5.5 1 .8 1.5.6 4.2.9 7.7.9 7.7l-.1-1.6s-.5-1.8-1.1-6c-.2-.5-.4-.9-.6-1.3 0-.1 0-.1-.1-.2-1.1-2.2-2.1-4.1-1.9-7.4v-.2c.2-4.1.2-5.4-1.7-9.3-.3-.9-.3-2.6-.3-3.7"/>
        <path id="path48" d="M120.5 311.3c.3-3.2-.5-4.2-1.1-5l-.1-.1c-.8-1-.8-2.2-.7-4.7 0-2.6-1.4-3.6-1.9-3.9 0 1.1-.1 2.2-.3 2.9l-.1.2c-.8 1.9-1.3 3-1.1 5.3.1 1.7-.3 3.7-.6 4.9-.1.5-.2.9-.2 1.1-.2 1.1.3 2.9.8 3.5.4.7.6 1.7.8 2.4.1.3.1.6.2.8v.3c.1.5.2 1.1.3 1.7l.1.4"/>
        <path id="path50" d="M113.8 277.6c-.4 2-.3 2-.3 4s-.3 3.1 0 4.1c.3 1 .8 1.8 1.2 2.3.9 1.3 1.8 2.5 1.9 4.3v5.2"/>
        <path id="path52" d="M136.4 259.8c-3-.3-6 1.2-6.1 1.3h.8c-2 0-4.5.3-6.9 1.1"/>
        <path id="path54" d="M137.9 262.7c-1.8-.9-4.1-1.6-6.8-1.7"/>
        <path id="path56" d="M112.2 270.3c.2-.1 1-.1 1.2-.4.3-.4.4-1.1.2-1.8-.1-.2-.3-.4-.4-.7-.6-.9-1.5-2.3-1.3-4.5"/>
        <path id="path58" d="M114.3 268c-.2 1-.1 1.8-.1 1.8"/>
        <path id="path60" d="m126.5 263.4 14.7 5.1c-8.6-7.4-14.7-5.1-14.7-5.1z"/>
        <path id="line62" d="m114.6 267.4-.2.4"/>
        <path id="line64" d="M114.4 268v-.2"/>
        <path id="line66" d="M113.6 262.2v.3"/>
      </g>
      <path id="rosette" fill="none" stroke="#000" stroke-miterlimit="10" stroke-width=".5" d="M80.8 270.1s-.8-.5 2.1-4.2c2.4-2.9 5.3-6.2 7.3-7.3 2.1-1.3 4.1-2.8 8.5-1.1 1.4.8 2.3 1.4 3.7 2.8.7 1.1 2.7 2 2.9 2.3 1 .5 5.5 3.7 6.7 4.2-1.2-1.1-5.1-4.5-6.4-5.1-1.4-.6-2.6-1.7-2.2-5.9.4-2.4.9-3.8.9-3.8 1 .8 5 4.5 5.7 5.8.6 1 .2 1.7.6 2.8.3 1 .9 2.1 1.3 2.3.1-.7.3-1.8.3-1.8.3.5 1.6 1.5 1.6 1.5.2.5 1 2.6.9 3.1-.1.8-.3 2-.3 2 .6-.8 2-2 2.6-4.7.2-1.5.1-4.5 1.1-5.8.9-1.3 1.6-2.6 3.7-3.1 1.1-.3 2.9-.8 3.5 1.9.1.9-.1 2.1-2.2 4.5-1.4 1.3-4.5 4-4.5 4.1-.7.8-1 1.2-1 1.2 1.4-1 5.7-3.3 6.3-3.5.6-.8 4.5-5 9.5-5.6 2.2-.2 7.4 1.2 8.9 1.9-.8.4-2.2 1.2-2.4 1.9-.3.8-1 2.3-1.9 2.3.9.6 4 2.6 5.2 4.3 1 1.1 4.1 3.4 6.1 3.9-.3.5-6.5 2.9-9.6 1.9-3.1-1-4.8-2.9-7.7-5.2-1.7-1.2-4.4-3-8.4-2.3-2.2.5-6.2 1.8-8 3.2l-.3.4c1 0 8.3-.7 9.7 1.1 1.2 1.6 2.5 3.4 2.5 3.4-.7.6-4.4 3.6-8.2 0-1.5-1.7-2.7-3.3-4-3.2.6.8 3.6 4.8 5.6 5.9 2.2.6 8.1 1.4 9.5 6.1.8 2.6 1 5.7 1 5.7-1.3.6-5.5 3.5-11.3-3.8-1.3-2.6-1.6-2.8-2.7-8.3-.8-1.5-1.5-3-2.8-4-1.3-.1-1.9-.1-2 0-1 .1-3.8.3-4.9 2.1-1.3 1.7-3.3 4.1-7.7 6.4-2.2 1-4.4 2.1-7.7-1.9-.8-1.3-1.2-3.9.1-5.4 1.4-1.6 3.9-4.7 6.4-4.6 1.7.1 8.4 1.3 13.3 2.2-.6-.8-4.3-5.7-12-5.8-1.5.1-3.4.4-5.7 1.9-2.6 1.6-5.9 4.5-10 3.2-1-.4-2.5-.5-3.6.1z"/>
      <g id="eyeDropper">
        <g id="g84">
          <path id="path70" fill="#fff" d="M126.5 255.5v-39H167v39h-40.5zm24.8-20.7c.4.5.9.8 1.5.3.6-.6.3-1.1-.2-1.5l-.4-.4c.2-.2.4-.5.7-.7l5.3-5.3c1.6-1.7 1.7-3.9.2-5.4-1.5-1.6-3.8-1.5-5.5.2-2 2-3.9 4-5.9 6-.3-.3-.5-.4-.7-.6-.4-.4-.9-.5-1.3-.1-.5.5-.4 1 .1 1.4.4.4.8.7 1.3 1.1-.3.3-.5.6-.7.8l-4.2 4.2c-1.6 1.6-3.2 3-4.1 5.1-.5 1.2-1.6 2.2-2.4 3.2-.5.5-.6.9 0 1.5 1.7 1.6 1.2 1.3 2.8.1 1.3-1 2.8-1.9 4.3-2.8.3-.2.7-.4 1-.7 2.3-2.2 4.6-4.5 6.9-6.8.2-.2.4-.3.7-.6 0 .2.2.6.6 1zm-18.5 14.1c-.5.9-.3 1.9.4 2.4.6.5 1.7.5 2.4 0s1-1.5.4-2.4c-.4-.7-1-1.3-1.6-2.2-.6.9-1.2 1.5-1.6 2.2z"/>
          <path id="path72" d="M149.7 234.2c-2.3 2.3-4.6 4.5-6.9 6.8-.3.3-.6.5-1 .7-1.4.9-2.9 1.8-4.3 2.8-1.6 1.2-1.1 1.5-2.8-.1-.6-.6-.4-.9 0-1.5.9-1 1.9-2 2.4-3.2.9-2.1 2.6-3.6 4.1-5.1l4.2-4.2c.2-.2.4-.5.7-.8-.5-.4-.9-.7-1.3-1.1-.4-.4-.5-.9-.1-1.4.4-.4.9-.3 1.3.1.2.2.4.4.7.6 2-2 3.9-4 5.9-6 1.7-1.7 4-1.8 5.5-.2 1.5 1.5 1.4 3.8-.2 5.4l-5.3 5.3c-.2.2-.4.5-.7.7l.4.4c.5.5.8 1 .2 1.5-.6.5-1.1.2-1.5-.3-.3-.4-.6-.7-.9-1.1-.1.4-.3.6-.4.7zm-13.5 10.3c.6-.5 1.1-1 1.7-1.4 1.1-.8 2.4-1.4 3.5-2.2 1.2-.9 2.2-1.9 3.2-2.8-.1-.7-.2-1.1-.3-1.5.4.1.8.2 1.3.3l.4-.4c-.1-.6-.2-1-.3-1.4.4.1.8.2 1.3.3l.4-.4c-.1-.6-.2-1-.2-1.4.4.1.8.2 1.3.4.2-.2.5-.6.7-.9l-2.6-2.6c-.2.3-.5.7-.9 1.1l-3.5 3.5c-1.6 1.6-3.2 3.1-4.2 5.2-.6 1.2-1.6 2.2-2.5 3.5l.7.7zm19-17.8c-1.4 1.4-2.8 2.7-4.1 4.1-.2.2-.2.6-.3.8.3-.1.7-.1.9-.2 1.4-1.3 2.7-2.7 4-4 .2-.2.2-.5.3-.8 0-.1-.2-.2-.4-.3 0 .2-.2.3-.4.4z"/>
          <path id="path74" d="M136 249c.5.9.3 1.9-.4 2.4-.6.5-1.7.5-2.4 0s-.9-1.5-.4-2.4c.4-.7 1-1.3 1.6-2.1.6.7 1.2 1.3 1.6 2.1zm-2.5 1.7c.4.4 1.3.4 1.7 0 .6-.6.3-1.5-.8-2.6-1.2 1.1-1.5 2-.9 2.6z"/>
          <path id="path76" fill="#fff" d="M138 240.3c1-2.1 2.6-3.6 4.2-5.2l3.5-3.5c.4-.4.7-.8.9-1.1 1 1 1.9 1.8 2.6 2.6-.2.3-.5.7-.7.9-.6-.2-.9-.3-1.3-.4.1.4.2.9.2 1.4l-.4.4c-.6-.1-.9-.2-1.3-.3.1.4.1.9.3 1.4-.1.1-.4.3-.4.4-.5-.1-.9-.2-1.3-.3.1.4.2.9.3 1.5-.9.8-2 1.9-3.2 2.8-1.1.8-2.3 1.4-3.5 2.2-.6.4-1.1.9-1.7 1.4-.3-.3-.5-.4-.7-.6.9-1.3 2-2.3 2.5-3.6zm6-6.3c-1.3 1.3-2.7 2.6-4 4-.2.2-.2.6-.3.9.3-.1.7-.1.9-.3 1.4-1.3 2.8-2.7 4.1-4.1.2-.2.2-.5.3-.7 0-.1-.3-.2-.4-.3-.2.2-.4.3-.6.5z"/>
          <path id="path78" fill="#fff" d="M156.1 226.6c-.1.3-.1.6-.3.8-1.3 1.4-2.7 2.7-4 4-.2.2-.6.2-.9.2.1-.3.1-.7.3-.8l4.1-4.1c.1-.1.3-.2.5-.4l.3.3z"/>
          <path id="path80" fill="#fff" d="M135.2 250.7c-.4.4-1.3.4-1.7 0-.6-.6-.3-1.5.8-2.6 1.2 1.1 1.5 2 .9 2.6z"/>
          <path id="path82" d="M145 233.8c0 .2-.1.5-.3.7-1.3 1.4-2.7 2.8-4.1 4.1-.2.2-.6.2-.9.3.1-.3.1-.7.3-.9 1.3-1.4 2.6-2.7 4-4 .2-.2.4-.3.6-.5.2.1.4.3.4.3z"/>
        </g>
      </g>
    </g>
    <g id="TimeSampleChart">
      <g id="darkCycle">
        <path id="path88" fill="none" stroke="#555" stroke-miterlimit="10" stroke-width="10" d="M114.4 175.9c-9 0-16.3-7.3-16.3-16.3s7.3-16.3 16.3-16.3"/>
      </g>
      <g id="lightCycle">
        <path id="path91" fill="none" stroke="#fff69f" stroke-miterlimit="10" stroke-width="10" d="M114.1 143.3c9 0 16.3 7.3 16.3 16.3s-7.3 16.3-16.3 16.3"/>
      </g>
    </g>
    <g id="Botrytis_cinerea_at_48_Hours" fill="#fff" stroke="#000" stroke-linecap="round" stroke-linejoin="round" stroke-miterlimit="10" stroke-width=".5">
      <path id="Treated_Botrytis_cinerea_at_48_Hours" d="M454.8 253.4c-.1-9.1 4.3-17 9.4-24.3 1.3 1.6 2 2.6 2.9 3.5 9.2 9.8 11.5 21.3 6.3 33.5-3.7 8.9-5.5 18-4.7 27.5.1 1.6 0 3.3 0 4.9m-1.5-1c-.3-3.7-.3-7.3-.9-11.1-.4-2.7-1.3-5.6-2.4-8.2-1.4-3.5-3.7-6.8-4.7-10.2-1.3-4.6-4.7-9.5-4.2-14.7m11.3-3.2c-.4 3.5-1 6.8-1.2 10.2-.1 3.6.1 7 .4 10.6"/>
      <path id="Control_Botrytis_cinerea_at_48_Hours" d="M454.8 161.5c-.1-9.1 4.3-17 9.4-24.3 1.3 1.6 2 2.6 2.9 3.5 9.2 9.8 11.5 21.3 6.3 33.5-3.7 8.9-5.5 18-4.7 27.5.1 1.6 0 3.3 0 4.9m-1.5-1c-.3-3.7-.3-7.3-.9-11.1-.4-2.7-1.3-5.6-2.4-8.2-1.4-3.5-3.7-6.8-4.7-10.2-1.3-4.6-4.7-9.5-4.2-14.7m11.3-3.1c-.4 3.5-1 6.8-1.2 10.2-.1 3.6.1 7 .4 10.6"/>
    </g>
    <g id="Botrytis_cinerea_18_Hours" fill="#fff" stroke="#000" stroke-linecap="round" stroke-linejoin="round" stroke-miterlimit="10" stroke-width=".5">
      <path id="Treated_Botrytis_cinerea_at_18_Hours" d="M378.3 251.9c-.1-9.1 4.3-17 9.4-24.3 1.3 1.6 2 2.6 2.9 3.5 9.2 9.8 11.5 21.3 6.3 33.5-3.7 8.9-5.5 18-4.7 27.5.1 1.6 0 3.3 0 4.9m-1.5-.9c-.3-3.7-.3-7.3-.9-11.1-.4-2.7-1.3-5.6-2.4-8.2-1.4-3.5-3.7-6.8-4.7-10.2-1.3-4.6-4.7-9.5-4.2-14.7m11.3-3.3c-.4 3.5-1 6.8-1.2 10.2-.1 3.6.1 7 .4 10.6"/>
      <path id="Control_Botrytis_cinerea_at_18_Hours" d="M378.3 160c-.1-9.1 4.3-17 9.4-24.3 1.3 1.6 2 2.6 2.9 3.5 9.2 9.8 11.5 21.3 6.3 33.5-3.7 8.9-5.5 18-4.7 27.5.1 1.6 0 3.3 0 4.9m-1.5-.9c-.3-3.7-.3-7.3-.9-11.1-.4-2.7-1.3-5.6-2.4-8.2-1.4-3.5-3.7-6.8-4.7-10.2-1.3-4.6-4.7-9.5-4.2-14.7m11.3-3.2c-.4 3.5-1 6.8-1.2 10.2-.1 3.6.1 7 .4 10.6"/>
    </g>
  </g>
  <text id="text127" x="99.347" y="156.307" font-family="HelveticaNeue" font-size="8">24hr</text>
</svg>