<svg xmlns="http://www.w3.org/2000/svg" xml:space="preserve" id="BioticStressMyzuspersicaere_svg" x="0" y="0" version="1.1" viewBox="20 70 700 415" author="Provart Lab - Bio Analytic Resource, University of Toronto">
  &gt;
  <g id="Botrytis_cinerea">
    <g id="Labels">
      <text font-family="'HelveticaNeue-Italic'" font-size="18" transform="translate(33 97)">Myzus persicaere </text>
      <text font-family="'HelveticaNeue'" font-size="18" transform="translate(177 97)">(aphid)</text>
      <text font-family="'HelveticaNeue-Thin'" font-size="10" transform="translate(402 475)">Control</text>
      <text font-family="'HelveticaNeue-Thin'" font-size="10" transform="translate(611 476)">Aphid infested</text>
      <text font-family="'HelveticaNeue'" font-size="8" transform="translate(105 162)">24hr</text>
    </g>
    <g id="infoButton_Botrytis_cinerea">
      <circle cx="255.2" cy="91.2" r="9.2" fill="#5299FF"/>
      <text fill="#FFF" font-family="'HelveticaNeue-Bold'" font-size="12" transform="translate(253 96)">i</text>
    </g>
    <g id="treatmentInfographic">
      <g id="root" fill="none" stroke="#000" stroke-miterlimit="10" stroke-width=".5">
        <path d="M86 296v-6c-1-3 1-6 1-6m7-21 4-6m1 15-4-2m-15 1-7 4m11-4c-3 0-8 5-9 5m2-14c-8-1-14 4-14 4m22-4-3-5m7 7v2m12 18c-1-3-5-6-5-6m-3 9-2-4-1-5s0-1 0 0v-4l1-1v-1m-5 53 1-3-1-5c0-2 2-5 3-5v-6l1-4v-1l1-7-1-4c0-1-2 0-2-4v-7l1-7m7 59-1-3h-1v-4c0-2-1-3-2-3v2c0 1-1 4 1 9l1 2 1 7-1-1-1-6v-2l-2-7c0-4 0-6-2-10v-3"/>
        <path d="M97 311c0-3-1-4-2-5v-5c0-2-2-3-2-3l-1 3-1 5v5l-1 1 1 4 1 2v1l1 2m-3-43v8l1 2 2 4v6m19-38-6 1h1l-7 1m14 1-7-2m-19 9h1l1-2-1-1-1-4m2 5v2m27-1c-8-8-14-6-14-6m-12 4-1 1m0-6"/>
      </g>
      <path id="rosette" fill="none" stroke="#000" stroke-miterlimit="10" stroke-width=".5" d="m57 270 2-4 7-7c2-2 4-3 9-1l3 2 3 3 7 4-6-5c-2-1-3-2-3-6l1-4 6 6 1 3 1 2v-2l2 2 1 3-1 2 3-5 1-6 4-3c1 0 3-1 3 2l-2 5-4 4-1 1 6-4s4-5 9-5c3-1 8 1 9 2l-2 1-2 3 5 4 6 4s-6 3-9 2l-8-5c-2-2-4-3-8-3-3 1-7 2-8 4h-1c1 0 9-1 10 1l2 3c0 1-4 4-8 0-1-1-2-3-4-3l6 6c2 1 8 2 9 6l1 6c-1 1-5 3-11-4l-3-8-2-4h-2c-1 0-4 0-5 2l-8 6c-2 1-4 2-8-2v-5c2-2 4-5 7-5l13 3c-1-1-4-6-12-6l-6 2c-2 1-6 4-10 3h-3z"/>
      <path id="aphidClip" fill="#FFF" stroke="#000" stroke-miterlimit="10" stroke-width=".5" d="M77 253v9c0 1-3 2-7 2s-7-1-7-2v-9m7-3c-4 0-7 1-7 3s3 2 7 2 7-1 7-2-3-3-7-3z"/>
      <path id="aphidClip_1_" fill="#FFF" stroke="#000" stroke-miterlimit="10" stroke-width=".5" d="M114 253v9l-6 2-7-2v-9m7-3c-4 0-7 1-7 3s3 2 7 2 7-1 7-2-4-3-7-3z"/>
      <path id="aphid" d="m139 237 1-1 3-5 1-1 2 1h2l1-2v-1l-4-1v-1l2-3v-2l1 1-1 1-1 3 1 1 2 1v-1l1-1h1s0 1 0 0h2v2l2-1 1-1-1-3 1-2c0 1 0 0 0 0v2l1 3v1l-2 1-2 1 1 1h4l1 1 2 4 1 1h1v1l-1-1h-1l-1-2-2-3h-3v2l1 1 2 1h1l-1 3-1 3 1 1h-1v-2l1-4-2-1s0-1 0 0l-1 2-1 2 1-3v-3l-1-3h-1 1l-1-1s0-1 0 0v-1h-1v-1 3a13 13 0 0 0 1 7l3 4-3-3-1-4a16 16 0 0 1 0-5v-2h-2l1 5-1 4-3 5 1-2-1-1v-3h-1l-2 1v2l1 3v1l-1 1s1-1 0 0l1-1v-1l-1-2-1-3 3-2h1v-2c1 0 1 0 0 0h-3l-1 2-2 2-1 1h-1s1 0 0 0zm10-8v1c-1 0-1 0 0 0h-1l-1 2a7 7 0 0 0 0 6l1 1 2-9-1-3v2c-1 0-1 0 0 0v1zm-4 12-1-3v-1l-1-1 1-1 2-1-2 1v2l1 4c0-1 0-1 0 0zm9-10h4l3 5v-1a28 28 0 0 0-3-4h-4zm4 5v-1l-2-1v1l2 1s0-1 0 0l-1 4 1-4c1 0 1 0 0 0 1-1 1 0 0 0zm-12-9v-1l1-3-1 2v2l3 1-2-1h-1zm2 11c2-2 2-4 2-7v-4 7l-2 5s0-1 0 0zm-4-7h-1l-3 4v1h1l1-3 2-2zm9-3 3-1c1 0 1 0 0 0h-1l-1 1h-1zm-1 0v8l2 3c-2-3-3-7-2-11 0-1-1-1 0 0zm-6 3h2-4 2zm11-4-2-4c1 0 0 0 0 0l1 3 1 1c0-1 0 0 0 0zm-5 0zm-5 13v1-1h1zm1-1 1 2v1-3 3s1 0 0 0l-1-2v-1zm1 3zm5-3v1l-1 2h-1l1-1v-3 2l-1 2h1v-1l1-2s-1 0 0 0zm-1 3zm-4-2 1 1h1c0 1 0 1 0 0h1v-1h1l-2 1s-1 0 0 0l-2-1z"/>
      <path id="aphid_1_" d="m177 237 1-1 3-5 1-1 2 1h2v-3l-3-1v-1l1-3 1-2v2l-1 3v1l3 1v-2h2s0 1 0 0h1l1 2 2-1 1-1-1-3 1-2c0 1 0 0 0 0v1l-1 1 2 3-1 1-2 1-1 1v1h4l1 1 3 4v1h2-1v1-1h-1l-2-2-1-3h-4l1 2v1l3 1h1l-1 3-1 3v1h1-1v-2l1-4-2-1h-1v2l-1 2 1-3v-3l-2-3v-1h-1l1-1h-1v-1 3a13 13 0 0 0 1 7l2 4s1 0 0 0l-2-3-1-4a16 16 0 0 1 0-5v-2h-2l1 5-1 4-3 5h-1l2-2-1-1-1-1v-2l-2 1v2l1 3v1l-1 1s0-1 0 0l1-1v-1l-1-2-1-3 3-2 1-2h-3l-2 2-1 2-1 1h-1zm10-8-1 1h1-1l-1 2a7 7 0 0 0 0 6l1 1 2-9-1-3v1l-1 1h1v1zm-4 12-1-3-1-1v-1l1-1 2-1-3 1v2l2 4c0-1-1-1 0 0zm9-10h4l3 5v-1a28 28 0 0 0-3-4h-4zm4 5v-1l-3-1 1 1 2 1s0-1 0 0l-1 4 1-4c0-1 0 0 0 0zm-13-9 1-1 1-3-1 2v2l2 1h1-1l-1-1h-2s1 0 0 0zm3 11 2-7v-4h-1 1v7l-2 5s0-1 0 0zm-4-7h-1l-3 4v1l2-3 2-2zm9-3 3-1c1 0 1 0 0 0h-1l-1 1h-1zm-1 0v8l2 3c-2-3-3-7-2-11 0-1-1-1 0 0 0 0-1 0 0 0zm-6 3h1-3c-1 0 0 0 0 0h2zm10-4-1-4 1 3v1h1zm-4 0c-1 0 0 0 0 0zm-5 13-1 1 1-1zm1-1v2l1 1v-2l-1-1c1-1 1 0 1 1v2h-1v-3zm1 3zm4-3v3h-1v-1l1-1v-2 2l-1 2 1-1v-2zm0 3h-1 1zm-4-2 1 1h1l1-1h1-1l-1 1h-1 1-1l-1-1h-1 1z"/>
    </g>
    <g id="treatmentInfographic_1_" stroke="#000" stroke-miterlimit="10" stroke-width=".5">
      <g id="root_1_" fill="none">
        <path d="M169 296c1-2 0-4-1-6-1-3 2-6 2-6m7-21 4-6m1 15-4-2m-16 1-7 4m11-4c-3 0-8 5-8 5m1-14c-8-1-13 4-13 4m22-4c-2-1-3-5-3-5m7 7v2m11 18-4-6m-3 9-2-4-1-5h-1l1-4v-2"/>
        <path d="M169 325v-8c-1-2 2-5 2-5l1-3v-7l1-1 1-7-2-4-2-4v-7l1-7"/>
        <path d="m178 331-1-3-1-4-1-3v11l1 2 1 7v-1l-1-6-1-1v-1l-2-7-1-10-1-3m8-1-1-5-1-5c0-2-1-3-2-3v3l-1 5-1 5v1l1 4 1 2v3m-3-43v8l1 2 2 4v6m20-38-6 1h1l-7 1m13 1-6-2m-19 9h1v-3l-2-4m3 5v2m27-1c-9-8-15-6-15-6m-12 4v1m-1-6"/>
      </g>
      <path id="rosette_1_" fill="none" d="m139 270 2-4 8-7c2-2 4-3 8-1l4 2 3 3 7 4-7-5c-1-1-3-2-2-6l1-4 6 6v3l1 2 1-2 1 2 1 3v2l3-5 1-6 3-3c1 0 3-1 4 2l-2 5-5 4-1 1 6-4c1 0 5-5 10-5 2-1 7 1 9 2l-3 1-1 3 5 4 6 4c-1 0-7 3-10 2l-8-5c-1-2-4-3-8-3l-8 4c1 0 8-1 9 1l3 3c-1 1-4 4-8 0l-4-3 5 6c3 1 8 2 10 6l1 6c-1 1-6 3-11-4-2-2-2-3-3-8l-3-4h-2c-1 0-4 0-5 2s-3 4-8 6c-2 1-4 2-7-2v-5c1-2 4-5 6-5l14 3c-1-1-5-6-12-6-2 0-4 0-6 2-3 1-6 4-10 3h-4z"/>
      <path id="aphidClip_3_" fill="#FFF" d="M159 253v9c0 1-3 2-7 2s-7-1-7-2v-9m7-3c-4 0-7 1-7 3s3 2 7 2 7-1 7-2-3-3-7-3z"/>
      <path id="aphidClip_2_" fill="#FFF" d="M196 253v9l-6 2c-4 0-7-1-7-2v-9m7-3c-4 0-7 1-7 3s3 2 7 2l6-2c0-1-3-3-6-3z"/>
    </g>
    <g id="TimeSampleChart">
      <path id="darkCycle" fill="none" stroke="#555" stroke-miterlimit="10" stroke-width="10" d="M105 173a16 16 0 0 1 2-28"/>
      <path id="lightCycle" fill="none" stroke="#FFF69F" stroke-miterlimit="10" stroke-width="10" d="M107 145c5-3 11-2 16 1 8 5 10 15 5 22-5 8-15 10-23 5"/>
      <text id="labels" font-family="'HelveticaNeue-Thin'" font-size="8" transform="translate(141 161)">8 hour sample</text>
      <path fill="none" stroke="#000" stroke-miterlimit="10" d="M126 160h11"/>
    </g>
  </g>
  <g id="control_plant_1_" stroke="#000" stroke-miterlimit="10" stroke-width=".5">
    <path id="Control" fill="#FFF" d="M330 248s-2-1 5-10l17-17c5-3 10-6 20-2l9 6c1 3 6 5 6 6l16 9-15-11c-3-2-6-4-5-14l2-9 14 14 1 6 3 5 1-4 3 4c1 1 3 6 2 7v5c1-2 4-5 6-11 0-4 0-11 2-14 3-3 4-6 9-7 3-1 7-2 8 4 0 3 0 5-5 11l-10 9-3 3 15-8c1-2 10-11 22-13 5 0 17 3 21 5-2 0-5 2-6 4s-2 5-4 5c2 2 9 6 12 10 2 3 9 8 14 9-1 2-15 7-22 5-8-2-12-7-18-12-4-3-10-7-20-6-5 2-14 5-18 8l-1 1c2 0 19-2 22 2l6 8c-1 2-10 9-19 0-3-4-6-7-9-7 1 2 8 11 13 13s19 4 22 15c2 6 2 13 2 13-3 1-13 8-26-9-3-6-4-6-6-19-2-4-4-7-7-9h-5c-2 0-8 0-11 4s-8 10-18 15c-5 3-10 5-18-4-2-3-3-9 0-13 4-3 10-11 15-10l31 5c-1-2-10-14-28-14-3 0-7 1-13 5-6 3-14 10-23 7h-9z"/>
    <path id="root_2_" fill="none" d="M399 309c2-5 0-10-1-14l-1-2c-2-6 4-13 4-13m17-49 9-13m2 36c-2-5-9-6-9-6m-36 3c-5 1-16 8-17 8m26-8c-7-1-19 12-20 12m4-34c-19-2-32 8-32 9m51-9c-3-2-6-11-6-11m16 16v4m27 43c-3-7-11-15-11-15m-19-35c-1 0-1 0 0 0m13 56c-1-1-5-4-5-8l-3-12-1-1 2-8v-4l1-2m-11 123c-1-2 0-4 1-6s0-8-1-11c-1-6 5-13 6-13l1-6v-7l1-9 1-2c1-5 3-9 2-18l-3-8c-1-2-3-1-5-10s0-12 0-16l3-18m15 138-2-6v-1c-3-3-2-5-1-9 0-3-3-5-4-6v4c0 3-2 11 1 22l2 3 2 18v-3l-3-14-1-3v-1c-3-5-5-9-5-17v-1c1-9 1-12-4-21v-9m18-1c1-7-1-10-3-12s-2-5-1-11c0-6-4-8-5-9l-1 7v1c-2 4-3 7-2 12l-2 11v3c-1 2 0 7 2 8l2 6v2l1 4v1m-7-101v18l2 6c2 3 5 6 5 10v12m46-88c-7-1-14 3-14 3h2l-17 3m32 1c-4-2-9-4-15-4m-45 22 3-1 1-5-1-1c-2-2-4-6-3-11m5 12v4m63-3c-20-17-34-12-34-12m-28 10v1m-2-13"/>
  </g>
  <g id="aphid_infested_plant">
    <path id="Aphid_infested" fill="#FFF" stroke="#000" stroke-miterlimit="10" stroke-width=".5" d="M550 248s-2-1 5-10l17-17c5-3 10-6 20-2l9 6c1 3 6 5 6 6l16 9-15-11c-3-2-6-4-5-14l2-9c2 2 12 11 13 14 2 2 1 4 2 6l3 5 1-4 3 4c1 1 3 6 2 7v5c1-2 4-5 6-11 0-4 0-11 2-14s4-6 9-7c3-1 7-2 8 4 0 3 0 5-5 11l-10 9-3 3 15-8c1-2 10-11 22-13 5 0 17 3 21 5-2 0-5 2-6 4s-2 5-4 5c2 2 9 6 12 10 2 3 9 8 14 9-1 2-15 7-22 5-8-2-12-7-18-12-4-3-10-7-20-6-5 2-14 5-18 8l-1 1c2 0 19-2 22 2l6 8c-1 2-10 9-19 0-3-4-6-7-9-7 1 2 8 11 13 13s19 4 22 15c2 6 2 13 2 13-3 1-13 8-26-9-3-6-4-6-6-19-2-4-4-7-7-9h-5c-2 0-8 0-11 4s-8 10-18 15c-5 3-10 5-18-4-2-3-3-9 0-13 4-3 10-11 15-10l31 5c-1-2-10-14-28-14-3 0-7 1-13 5-6 3-14 10-23 7h-9z"/>
    <path id="root_4_" fill="none" stroke="#000" stroke-miterlimit="10" stroke-width=".5" d="M619 309c2-5 0-10-1-14l-1-2c-2-6 4-13 4-13m17-49 9-13m2 36c-2-5-9-6-9-6m-36 3c-5 1-16 8-16 8m25-8c-7-1-19 12-19 12m3-34c-19-2-32 8-32 9m51-9-6-11m16 16 1 4m26 43c-3-7-11-15-11-15m-19-35c-1 0-1 0 0 0m13 56c-1-1-5-4-5-8l-3-12-1-1 2-8v-4l1-2m-11 123 1-6c1-2 0-8-1-11-1-6 5-13 6-13l1-6v-7l1-9 1-2c2-5 3-9 3-18l-4-8c-1-2-3-1-5-10v-16l3-18m15 138-2-6v-1c-3-3-2-5-1-9 0-3-3-5-4-6v4c0 3-2 11 1 22l2 3 2 18v-3l-3-14-1-3v-1c-3-5-5-9-5-17v-1c1-9 1-12-4-21v-9m18-1c1-7-1-10-3-12s-2-5-2-11-3-8-4-9l-1 7v1c-2 4-3 7-2 12l-2 11v3c-1 2 0 7 2 8l1 6 1 1v1l1 4v1m-7-101v18l2 6c2 3 5 6 5 10v12m46-88c-7-1-14 3-14 3h2l-17 3m32 1c-4-2-9-4-15-4m-45 22 3-1 1-5-1-1c-2-2-4-6-3-11m5 12v4m63-3c-20-17-34-12-34-12m-28 10v1m-2-13"/>
    <path id="aphid_2_" d="m656 182 1-1 3-5 1-1 2 1h2v-3l-3-1v-1l1-3 1-2v2l-1 3 1 1 2 1v-2h2s0 1 0 0h1l1 2 2-1 1-1-1-3 1-2c0 1 0 0 0 0v1l-1 1 2 3-1 1-2 1-1 1v1h5v1l3 4 1 1h1-1v1-1h-1l-2-2-1-3h-4l1 2v1l3 1h1l-1 3-1 3v1h1-1v-2l1-4-2-1h-1v2l-1 2 1-3v-3l-2-3v-1h-1 1-1l1-1h-1v-1 3a13 13 0 0 0 1 7l2 4-2-3-1-4a16 16 0 0 1 0-5v-2h-2l1 5-1 4-3 5h-1c-1 0 0 0 0 0l2-2-1-1-1-1v-2l-2 1v2l1 3v1l-1 1s0-1 0 0l1-1v-1l-1-2-1-3 3-2 1-2h-3l-2 2-1 2-1 1h-1zm10-8-1 1h1-1l-1 2a7 7 0 0 0 0 6l1 1 2-9-1-3v1l-1 1h1v1zm-4 12-1-3v-1l-1-1 1-1 2-1-3 1v2l2 4c0-1-1-1 0 0zm9-10h4l3 5v-1a28 28 0 0 0-3-4h-4zm4 5v-1l-3-1 1 1 2 1s0-1 0 0l-1 4 1-4c0-1 0 0 0 0zm-13-9 1-1 1-3-1 2v2l3 1h-1l-1-1h-2s1 0 0 0zm3 11 2-7v-4h-1 1v7l-2 5s0-1 0 0zm-4-7h-1l-3 4v1l2-3 2-2zm9-3 3-1c1 0 1 0 0 0h-1l-1 1h-1zm-1 0v8l2 3c-2-3-3-7-2-11 0-1-1-1 0 0zm-6 3h1c1 0 0 0 0 0h-3 2zm11-4-2-4 1 3 1 1c-1-1-1 0 0 0zm-5 0c-1 0 0 0 0 0zm-5 13-1 1 1-1zm1-1v2l1 1v-1l-1-1v-1 1l1 1v1h-1v-3zm1 3zm4-3v3h-1v-1l1-1v-2 2l-1 2h1v-3zm0 3h-1 1zm-4-2 1 1h1c0 1 0 1 0 0h1v-1h1l-2 1h-1c1 0 1 0 0 0l-1-1z"/>
    <path id="aphid_3_" d="m571 182 1-1 3-5 1-1 2 1h2v-3l-3-1v-1l1-3 1-2v2l-1 3 1 1 2 1v-2h2s0 1 0 0h1l1 2 2-1 1-1-1-3 1-2c0 1 0 0 0 0v1l-1 1 2 3-1 1-2 1-1 1v1h5v1l3 4 1 1h1-1v1-1h-1l-2-2-1-3h-4l1 2v1l3 1h1l-1 3-1 3v1h1-1v-2l1-4-2-1h-1v2l-1 2 1-3v-3l-2-3v-1h-1 1-1l1-1h-1v-1 3a13 13 0 0 0 1 7l2 4-2-3-1-4a16 16 0 0 1 0-5v-2h-2l1 5-1 4-3 5h-1c-1 0 0 0 0 0l2-2-1-1-1-1v-2l-2 1v2l1 3v1l-1 1s0-1 0 0l1-1v-1l-1-2-1-3 3-2 1-2h-3l-2 2-1 2-1 1h-1zm10-8-1 1h1-1l-1 2a7 7 0 0 0 0 6l1 1 2-9-1-3v1l-1 1h1v1zm-4 12-1-3v-1l-1-1 1-1 2-1-3 1v2l2 4c0-1-1-1 0 0zm9-10h4l3 5v-1a28 28 0 0 0-3-4h-4zm4 5v-1l-3-1 1 1 2 1s0-1 0 0l-1 4 1-4c0-1 0 0 0 0zm-13-9 1-1 1-3-1 2v2l3 1h-1l-1-1h-2s1 0 0 0zm3 11 2-7v-4h-1 1v7l-2 5s0-1 0 0zm-4-7h-1l-3 4v1l2-3 2-2zm9-3 3-1c1 0 1 0 0 0h-1l-1 1h-1zm-1 0v8l2 3c-2-3-3-7-2-11 0-1-1-1 0 0zm-6 3h1c1 0 0 0 0 0h-3 2zm11-4-2-4 1 3 1 1c-1-1-1 0 0 0zm-5 0c-1 0 0 0 0 0zm-5 13-1 1 1-1zm1-1v2l1 1v-1l-1-1v-1 1l1 1v1h-1v-3zm1 3zm4-3v3h-1v-1l1-1v-2 2l-1 2h1v-3zm0 3h-1 1zm-4-2 1 1h1c0 1 0 1 0 0h1v-1h1l-2 1h-1c1 0 1 0 0 0l-1-1z"/>
  </g>
</svg>