<svg xmlns="http://www.w3.org/2000/svg" xml:space="preserve" id="BioticStressElicitors_svg" x="0" y="0" version="1.1" viewBox="25 20 454.9 542.3" author="Provart Lab - Bio Analytic Resource, University of Toronto">
  <g id="Botrytis_cinerea" transform="translate(-6 -17)">
    <g id="Labels">
      <text id="text2" font-family="HelveticaNeue-Italic" font-size="18" transform="translate(33 97)">Elicitors</text>
      <text id="text4" font-family="HelveticaNeue-Thin" font-size="12" transform="translate(226 77)">Infiltrated with Water</text>
      <text id="text6" font-family="HelveticaNeue-Thin" font-size="12" transform="translate(242 134)">Infiltrated with</text>
      <text id="text8" font-family="HelveticaNeue-Thin" font-size="12" transform="translate(215 149)">Bacterial-Derived Elicitor</text>
      <text id="text10" font-family="HelveticaNeue-Thin" font-size="10" transform="translate(250 161)">(1 uM flg22)</text>
      <text id="text12" font-family="HelveticaNeue-Thin" font-size="12" transform="translate(242 209)">Infiltrated with</text>
      <text id="text14" font-family="HelveticaNeue-Thin" font-size="12" transform="translate(215 224)">Bacterial-Derived Elicitor</text>
      <text id="text16" font-family="HelveticaNeue-Thin" font-size="10" transform="translate(248 236)">(10 uM HrpZ)</text>
      <text id="text18" font-family="HelveticaNeue-Thin" font-size="10" transform="translate(370 575)">1 hour</text>
      <text id="text20" font-family="HelveticaNeue-Thin" font-size="10" transform="translate(449 576)">4 hours</text>
      <text id="text22" font-family="HelveticaNeue" font-size="8" transform="translate(105 162)">24hr</text>
      <text id="text24" font-family="HelveticaNeue-Thin" font-size="12" transform="translate(242 280)">Infiltrated with</text>
      <text id="text26" font-family="HelveticaNeue-Thin" font-size="12" transform="translate(238 295)">1mM CaCl2 + </text>
      <text id="text28" font-family="HelveticaNeue-Thin" font-size="12" transform="translate(239 309)">2.5mM MgCl2</text>
      <text id="text30" font-family="HelveticaNeue-Thin" font-size="12" transform="translate(242 355)">Infiltrated with</text>
      <text id="text32" font-family="HelveticaNeue-Thin" font-size="12" transform="translate(215 369)">Bacterial-Derived Elicitor</text>
      <text id="text34" font-family="HelveticaNeue-Thin" font-size="10" transform="translate(241 382)">(100 ug/ml LPS)</text>
      <text id="text36" font-family="HelveticaNeue-Thin" font-size="12" transform="translate(216 441)">Infiltrated with 1uM GST</text>
      <text id="text38" font-family="HelveticaNeue-Thin" font-size="12" transform="translate(242 504)">Infiltrated with</text>
      <text id="text40" font-family="HelveticaNeue-Thin" font-size="12" transform="translate(211 518)">Oomycete-Derived Elicitor</text>
      <text id="text42" font-family="HelveticaNeue-Thin" font-size="10" transform="translate(238 531)">(1 uM GST-NPP1)</text>
    </g>
    <g id="infoButton_Botrytis_cinerea">
      <circle id="circle45" cx="121.2" cy="91.2" r="9.2" fill="#039388"/>
      <text id="text47" fill="#fff" font-family="HelveticaNeue-Bold" font-size="12" transform="translate(119 96)">i</text>
    </g>
    <g id="treatmentInfographic" fill="none" stroke="#000" stroke-miterlimit="10" stroke-width=".5">
      <g id="root">
        <path id="path50" d="M110 296v-6c-1-3 1-6 1-6"/>
        <path id="path52" d="m118 263 4-6"/>
        <path id="path54" d="M123 272c-1-2-4-2-4-2"/>
        <path id="path56" d="m104 271-7 4"/>
        <path id="path58" d="M108 271c-3 0-8 5-9 5"/>
        <path id="path60" d="M101 262c-8-1-14 4-14 4"/>
        <path id="path62" d="m109 262-3-5"/>
        <path id="path64" d="M113 264v2"/>
        <path id="path66" d="M125 284c-1-3-5-6-5-6"/>
        <path id="path70" d="m117 287-1-4-2-5s0-1 0 0v-4l1-1v-1"/>
        <path id="path72" d="m110 325 1-3-1-5c0-2 2-5 3-5v-6l1-4v-1l1-7-1-4c-1 0-2 0-2-4v-7l1-7"/>
        <path id="path74" d="m120 331-1-3h-1v-4c0-2-1-3-2-3v2c0 1-1 4 1 9l1 2 1 7-1-1-1-6v-2l-2-7c0-4 0-6-2-10v-3"/>
        <path id="path76" d="M121 311c0-3-1-4-2-5v-5c0-2-2-3-2-3l-1 3-1 5v5l-1 1 1 4 1 2v1l1 2"/>
        <path id="path78" d="m114 278-1 4 1 4 1 2 2 4v6"/>
        <path id="path80" d="m136 260-6 1h1l-7 1"/>
        <path id="path82" d="m138 263-7-2"/>
        <path id="path84" d="M112 270h1l1-2-1-1-1-4"/>
        <path id="path86" d="M114 268v2"/>
        <path id="path88" d="m127 263 14 5c-8-7-15-5-15-5z"/>
        <path id="line90" d="m115 267-1 1"/>
      </g>
      <path id="rosette" d="m81 270 2-4 7-7c2-2 4-3 9-1l3 2 3 3 7 4-6-5c-2-1-3-2-3-6l1-4 6 6 1 3 1 2v-2l2 2 1 3-1 2 3-5 1-6 4-3c1 0 3-1 3 2l-2 5-4 4-1 1 6-4s4-5 9-5c3-1 8 1 9 2l-2 1-2 3 5 4 6 4s-6 3-9 2l-8-5c-2-2-4-3-8-3-3 1-7 2-8 4h-1c1 0 9-1 10 1l2 3c0 1-4 4-8 0-1-1-2-3-4-3l6 6c2 1 8 2 9 6l1 6c-1 1-5 3-11-4l-3-8-2-4h-2c-1 0-4 0-5 2l-8 6c-2 1-4 2-8-2v-5c2-2 4-5 7-5l13 3c-1-1-4-6-12-6l-6 2c-2 1-6 4-10 3h-3z"/>
    </g>
    <g id="all_samples_4_hours" fill="#fff" stroke="#000" stroke-linecap="round" stroke-linejoin="round" stroke-miterlimit="10" stroke-width=".5">
      <path id="NPP_at_4_Hours" d="M453 508c0-8 4-15 8-21l3 3c8 9 10 19 5 29-3 8-4 16-4 24v5m-1-1-1-10-2-7-4-9c-1-4-4-8-4-13m10-3-1 9v10"/>
      <path id="GST_at_4_Hours" d="M453 434c0-8 4-15 8-22l3 3c8 9 10 19 5 30-3 8-4 16-4 24v4m-1-1-1-9-2-7-4-9c-1-4-4-9-4-13m10-3-1 9v9"/>
      <path id="LPS_at_4_Hours" d="M453 359c0-8 4-15 8-21l3 3c8 9 10 19 5 29-3 8-4 16-4 24v5m-1-1-1-10-2-7-4-9c-1-4-4-8-4-13m10-3-1 9v10"/>
      <path id="CaMg_at_4_Hours" d="M453 285c0-8 4-15 8-22l3 3c8 9 10 19 5 30-3 8-4 16-4 24v4m-1-1-1-9-2-8-4-8c-1-4-4-9-4-13m10-3-1 9v9"/>
      <path id="HrpZ_at_4_Hours" d="M453 210c0-8 4-15 8-21l3 3c8 8 10 18 5 29-3 8-4 16-4 24v5m-1-1-1-10-2-7-4-9c-1-4-4-8-4-13m10-3-1 9v9"/>
      <path id="FLG22_at_4_Hours" d="M453 136c0-8 4-15 8-22l3 3c8 9 10 19 5 30-3 7-4 15-4 24v4m-1-1-1-10-2-7-4-9c-1-4-4-8-4-12m10-3-1 8v10"/>
      <path id="H2O_at_4_Hours" d="M453 61c0-8 4-15 8-21l3 3c8 8 10 18 5 29-3 8-4 16-4 24v5m-1-1-1-10-2-7-4-9c-1-4-4-9-4-13m10-3-1 9v9"/>
    </g>
    <g id="all_samples_1_hour" fill="#fff" stroke="#000" stroke-linecap="round" stroke-linejoin="round" stroke-miterlimit="10" stroke-width=".5">
      <path id="NPP_at_1_Hour" d="M378 508c0-8 4-15 8-21l3 3c8 9 10 19 5 29-3 8-4 16-4 24v5m-1-1-1-10-2-7-4-9c-1-4-4-8-4-13m10-3-1 9v10"/>
      <path id="GST_at_1_Hour" d="M378 434c0-8 4-15 8-22l3 3c8 9 10 19 5 30-3 8-4 16-4 24v4m-1-1-1-9-2-7-4-9c-1-4-4-9-4-13m10-3-1 9v9"/>
      <path id="LPS_at_1_Hour" d="M378 359c0-8 4-15 8-21l3 3c8 9 10 19 5 29-3 8-4 16-4 24v5m-1-1-1-10-2-7-4-9c-1-4-4-8-4-13m10-3-1 9v10"/>
      <path id="CaMg_at_1_Hour" d="M378 285c0-8 4-15 8-22l3 3c8 9 10 19 5 30-3 8-4 16-4 24v4m-1-1-1-9-2-8-4-8c-1-4-4-9-4-13m10-3-1 9v9"/>
      <path id="HrpZ_at_1_Hour" d="M378 210c0-8 4-15 8-21l3 3c8 8 10 18 5 29-3 8-4 16-4 24v5m-1-1-1-10-2-7-4-9c-1-4-4-8-4-13m10-3-1 9v9"/>
      <path id="FLG22_at_1_Hour" d="M378 136c0-8 4-15 8-22l3 3c8 9 10 19 5 30-3 7-4 15-4 24v4m-1-1-1-10-2-7-4-9c-1-4-4-8-4-12m10-3-1 8v10"/>
      <path id="H2O_at_1_Hour" d="M378 61c0-8 4-15 8-21l3 3c8 8 10 18 5 29-3 8-4 16-4 24v5m-1-1-1-10-2-7-4-9c-1-4-4-9-4-13m10-3-1 9v9"/>
    </g>
    <g id="TimeSampleChart">
      <g id="ligtCycle">
        <path id="path115" fill="none" stroke="#fff69f" stroke-miterlimit="10" stroke-width="10" d="M102 148a16 16 0 0 1 28 7"/>
      </g>
      <g id="darkCycle">
        <path id="path118" fill="none" stroke="#555" stroke-miterlimit="10" stroke-width="10" d="M130 155c1 5 0 11-4 16a16 16 0 0 1-24-23"/>
      </g>
      <g id="labels">
        <path id="line121" fill="none" stroke="#000" stroke-miterlimit="10" d="M114 133v14"/>
        <text id="text123" font-family="HelveticaNeue-Thin" font-size="8" transform="translate(138 148)">4 hour sample</text>
        <path id="line125" fill="none" stroke="#000" stroke-miterlimit="10" d="m125 153 8-4"/>
        <text id="text127" font-family="HelveticaNeue-Thin" font-size="8" transform="translate(123 139)">1 hour sample</text>
        <path id="line129" fill="none" stroke="#000" stroke-miterlimit="10" d="m118 148 4-8"/>
        <text id="text131" font-family="HelveticaNeue-Thin" font-size="8" transform="translate(93 128)">INJECTION</text>
      </g>
    </g>
  </g>
  <g id="syringe" transform="translate(-6 -17)">
    <path id="path136" d="m145 243-2-1-3 1-5 5h-1v-1l6-6v-1c-1-2 0-4 2-6l8-8v-2h1l7 7v1h-2l-10 10-1 1z"/>
    <path id="path138" fill="#030303" d="m162 226-1 1h-2l-1 1-1 1v-1l2-2-1-2-2-1-1 2h-1v-1l1-1v-2h1c0-1 0 0 0 0l3 3 2 2h1z"/>
    <path id="path140" fill="#fff" d="m150 231-1 1-2-2h1l2 1z"/>
    <path id="path142" fill="#fff" d="m144 233 2 2h-1l-1-1v-1z"/>
    <path id="path144" fill="#fff" d="m143 235 1 2v1l-2-2 1-1z"/>
    <path id="path146" fill="#fff" d="M148 233v1l-2-2h1l1 1z"/>
    <path id="path148" fill="#fff" d="m150 228 2 2h-1l-1-1v-1z"/>
  </g>
</svg>