<svg version="1.1" xmlns="http://www.w3.org/2000/svg" x="0" y="0" viewBox="65 10 775 600" xml:space="preserve" id="Chemical_svg"><g fill="none" id="Outlines"><path d="M253.007 131.765c-7.302-1.159-11.221.357-13.269 1.069-2.048.446-3.383-.534-4.809-1.247-11.577-3.116-15.051 2.226-15.051 2.226-1.425 3.116 0 3.651 1.868 4.542 3.295 1.248 8.55-1.513 10.687-2.582 1.514-.89 3.474-1.069 4.631-.712h.003c.446.983.266 13.181.357 17.099-2.851 5.523-5.434 7.57-7.571 9.53-2.583 2.227-2.673 7.214-2.761 10.42.179-1.157 2.583-7.035 3.385-8.639.623-.803 4.008-3.919 6.145-6.145 3.117-3.474 2.672-4.543 2.849-6.948.268-5.789.179-13.535 0-15.496 3.295-.445 5.521 1.247 8.103 2.85 5.966 3.294 8.282 1.692 9.262.444 1.426-3.739-2.492-5.609-3.829-6.411zm0-46.353c-7.302-1.158-11.221.357-13.269 1.068-2.048.447-3.383-.534-4.809-1.246-11.577-3.117-15.051 2.226-15.051 2.226-1.425 3.117 0 3.653 1.868 4.541 3.295 1.248 8.55-1.513 10.687-2.582 1.514-.89 3.474-1.07 4.631-.712h.005-.003c.446.979.266 13.181.357 17.102-2.851 5.521-5.434 7.569-7.571 9.529-2.583 2.227-2.673 7.215-2.761 10.421.179-1.158 2.583-7.036 3.385-8.639.623-.803 4.008-3.919 6.145-6.146 3.117-3.474 2.672-4.543 2.849-6.948.268-5.79.179-13.537 0-15.497h-.001c3.296-.445 5.522 1.247 8.104 2.85 5.966 3.294 8.282 1.692 9.262.445 1.427-3.74-2.491-5.61-3.828-6.412zm193.553 46.353c-7.301-1.159-11.218.357-13.269 1.069-2.047.446-3.383-.534-4.809-1.247-11.577-3.116-15.051 2.226-15.051 2.226-1.425 3.116 0 3.651 1.867 4.542 3.295 1.248 8.549-1.513 10.688-2.582 1.513-.89 3.474-1.069 4.631-.712h.002c.446.983.268 13.181.36 17.099-2.85 5.523-5.433 7.57-7.571 9.53-2.583 2.227-2.673 7.214-2.761 10.42.178-1.157 2.583-7.035 3.385-8.639.624-.803 4.008-3.919 6.145-6.145 3.114-3.474 2.67-4.543 2.85-6.948.264-5.789.178-13.535 0-15.496 3.294-.445 5.52 1.247 8.103 2.85 5.967 3.294 8.282 1.692 9.262.444 1.423-3.739-2.495-5.609-3.832-6.411zm0-46.353c-7.301-1.158-11.218.357-13.269 1.068-2.047.447-3.383-.534-4.809-1.246-11.577-3.117-15.051 2.226-15.051 2.226-1.425 3.117 0 3.653 1.867 4.541 3.295 1.248 8.549-1.513 10.688-2.582 1.513-.89 3.474-1.07 4.631-.712h.004-.002c.446.979.268 13.181.36 17.102-2.85 5.521-5.433 7.569-7.571 9.529-2.583 2.227-2.673 7.215-2.761 10.421.178-1.158 2.583-7.036 3.385-8.639.624-.803 4.008-3.919 6.145-6.146 3.114-3.474 2.67-4.543 2.85-6.948.264-5.79.178-13.537 0-15.497h-.001c3.295-.445 5.521 1.247 8.104 2.85 5.967 3.294 8.282 1.692 9.262.445 1.423-3.74-2.495-5.61-3.832-6.412zm-272.093 52.943c3.296 1.248 8.55-1.513 10.688-2.582 1.514-.89 3.474-1.069 4.632-.712h.001c.446.983.267 13.181.357 17.099-2.851 5.523-5.433 7.57-7.571 9.53-2.583 2.227-2.673 7.214-2.761 10.42.179-1.157 2.583-7.035 3.385-8.639.623-.803 4.008-3.919 6.145-6.145 3.117-3.474 2.672-4.543 2.849-6.948.268-5.789.179-13.535 0-15.496 3.296-.445 5.522 1.247 8.104 2.85 5.966 3.294 8.282 1.692 9.262.444 1.425-3.74-2.494-5.61-3.83-6.412-7.302-1.159-11.221.357-13.269 1.069-2.048.446-3.383-.534-4.809-1.247-11.577-3.116-15.051 2.226-15.051 2.226-1.425 3.117 0 3.653 1.868 4.543zm0-46.353c3.296 1.248 8.55-1.513 10.688-2.582 1.514-.89 3.474-1.07 4.632-.712h.002-.001c.446.979.268 13.181.358 17.102-2.851 5.521-5.433 7.569-7.571 9.529-2.583 2.227-2.673 7.215-2.761 10.421.179-1.158 2.583-7.036 3.385-8.639.623-.803 4.008-3.919 6.145-6.146 3.117-3.474 2.672-4.543 2.849-6.948.268-5.79.179-13.537 0-15.497 3.296-.445 5.522 1.247 8.105 2.85 5.966 3.294 8.282 1.692 9.262.445 1.425-3.741-2.494-5.61-3.83-6.412-7.302-1.158-11.221.357-13.269 1.068-2.048.447-3.383-.534-4.809-1.246-11.577-3.117-15.051 2.226-15.051 2.226-1.427 3.117-.002 3.652 1.866 4.541zm194.481 46.353c3.296 1.248 8.55-1.513 10.688-2.582 1.513-.89 3.474-1.069 4.631-.712.446.984.267 13.181.356 17.099-2.85 5.523-5.433 7.57-7.571 9.53-2.582 2.227-2.673 7.214-2.761 10.42.18-1.157 2.584-7.035 3.386-8.639.623-.803 4.008-3.919 6.144-6.145 3.118-3.474 2.672-4.543 2.85-6.948.268-5.788.178-13.535 0-15.495 3.296-.446 5.522 1.246 8.105 2.85 5.966 3.294 8.282 1.692 9.262.444 1.425-3.74-2.494-5.61-3.83-6.412-7.302-1.159-11.222.357-13.269 1.069-2.048.446-3.383-.534-4.809-1.247-11.577-3.116-15.051 2.226-15.051 2.226-1.426 3.116.001 3.652 1.869 4.542zm0-46.353c3.296 1.248 8.55-1.513 10.688-2.582 1.513-.89 3.474-1.07 4.631-.712.446.979.267 13.181.357 17.102-2.85 5.521-5.433 7.569-7.571 9.529-2.582 2.227-2.673 7.215-2.761 10.421.18-1.158 2.584-7.036 3.386-8.639.623-.803 4.008-3.919 6.144-6.146 3.118-3.474 2.672-4.543 2.85-6.948.268-5.79.178-13.537 0-15.497 3.296-.445 5.522 1.247 8.105 2.85 5.966 3.294 8.282 1.692 9.262.445 1.425-3.741-2.494-5.61-3.83-6.412-7.302-1.158-11.222.357-13.269 1.068-2.048.447-3.383-.534-4.809-1.246-11.577-3.117-15.051 2.226-15.051 2.226-1.427 3.117 0 3.652 1.868 4.541zm39.645 65.795h.01l-.003.103.003.052h-.005l-.013.387-.058 1.777 2.702-2.164-2.781-2.317z" stroke-width=".5" stroke="#000"/><path stroke-width=".5" stroke="#000" d="M408.593 157.797h-7.406l7.411.155.002-.052zm0-46.351h-7.406l7.411.155.002-.053z"/><path stroke-width=".5" stroke="#000" d="M408.593 111.446h.01l-.003.102.003.053h-.005l-.013.386-.058 1.776 2.702-2.162-2.781-2.319zm-195.407 46.351h-7.406l7.41.155.002-.053z"/><path stroke-width=".5" stroke="#000" d="M213.186 157.797h.01l-.004.102.004.053h-.006l-.013.387-.059 1.777 2.704-2.164-2.781-2.317zm0-46.351h.01l-.004.101.004.054h-.006l-.013.386-.059 1.776 2.704-2.162-2.781-2.319z"/><path stroke-width=".5" stroke="#000" d="M213.186 111.446h-7.406l7.41.155.002-.054zm428.779 214.997c-7.303-1.158-11.218.356-13.27 1.069-2.044.446-3.383-.536-4.806-1.247-11.577-3.118-15.051 2.225-15.051 2.225-1.425 3.118 0 3.652 1.862 4.547 3.298 1.248 8.553-1.513 10.691-2.583 1.514-.891 3.474-1.07 4.632-.713h.005c.445.998.266 13.181.361 17.099-2.85 5.525-5.433 7.571-7.571 9.533-2.584 2.224-2.672 7.211-2.761 10.417.177-1.159 2.583-7.034 3.384-8.64.626-.801 4.007-3.92 6.145-6.145 3.112-3.474 2.669-4.542 2.849-6.946.263-5.791.178-13.531 0-15.495 3.293-.446 5.519 1.246 8.1 2.848 5.968 3.293 8.283 1.694 9.263.445 1.422-3.742-2.498-5.612-3.833-6.414zm0-46.352c-7.303-1.158-11.218.356-13.27 1.068-2.044.446-3.383-.534-4.806-1.246-11.577-3.119-15.051 2.225-15.051 2.225-1.425 3.117 0 3.651 1.862 4.544 3.298 1.248 8.553-1.514 10.691-2.583 1.514-.891 3.474-1.07 4.632-.713h.004c.446.981.267 13.18.362 17.105-2.85 5.523-5.433 7.569-7.571 9.529-2.584 2.225-2.672 7.211-2.761 10.418.177-1.161 2.583-7.035 3.384-8.639.626-.801 4.007-3.923 6.145-6.148 3.112-3.474 2.669-4.541 2.849-6.946.263-5.789.178-13.538 0-15.496h-.002c3.294-.446 5.52 1.247 8.102 2.85 5.968 3.294 8.283 1.691 9.263.445 1.422-3.741-2.498-5.611-3.833-6.413zm153.557 44.502c-7.306-1.158-11.221.356-13.27 1.067-2.047.444-3.383-.537-4.809-1.249-11.578-3.118-15.052 2.227-15.052 2.227-1.425 3.117 0 3.651 1.866 4.547 3.299 1.251 8.553-1.512 10.688-2.582 1.514-.891 3.476-1.068 4.635-.711h.002c.444 1.018.266 13.181.36 17.098-2.851 5.523-5.436 7.57-7.571 9.529-2.585 2.226-2.675 7.213-2.765 10.42.178-1.159 2.583-7.037 3.384-8.639.628-.801 4.011-3.923 6.145-6.146 3.116-3.476 2.669-4.544 2.849-6.949.267-5.786.178-13.528 0-15.493 3.299-.446 5.526 1.244 8.104 2.849 5.968 3.294 8.282 1.692 9.263.445 1.426-3.741-2.495-5.612-3.829-6.413zm-5.432-38.534c5.968 3.294 8.282 1.691 9.263.445 1.424-3.742-2.497-5.611-3.831-6.413-7.306-1.158-11.221.356-13.27 1.068-2.047.446-3.383-.534-4.809-1.246-11.578-3.119-15.052 2.225-15.052 2.225-1.425 3.117 0 3.651 1.866 4.544 3.299 1.248 8.553-1.514 10.688-2.583 1.514-.891 3.476-1.07 4.635-.713.447.983.268 13.18.362 17.104-2.851 5.523-5.436 7.569-7.571 9.529-2.585 2.225-2.675 7.211-2.765 10.418.178-1.161 2.583-7.035 3.384-8.639.628-.801 4.011-3.923 6.145-6.148 3.116-3.474 2.669-4.541 2.849-6.946.267-5.789.178-13.538 0-15.496 3.3-.445 5.527 1.248 8.106 2.851zm-615.623.624c3.295 1.248 8.549-1.514 10.688-2.583 1.514-.891 3.473-1.07 4.632-.713h.001c.446.982.267 13.18.358 17.105-2.851 5.523-5.434 7.569-7.571 9.529-2.583 2.225-2.672 7.211-2.761 10.418.051-.332.287-1.055.613-1.948l-.081 1.74c.099 1.181.276 2.382.449 3.551l-.368-5.292c.216-.594.472-1.26.744-1.947.076.471.361 2.251.431 2.476.062.198.154.393.252.6.156.329.315.671.362 1.05l-1.039-4.141c.748-1.888 1.603-3.891 2.023-4.73.222-.285.796-.866 1.536-1.594.037 1.141.573 2.132 1.265 3.241l-1.264-3.242c1.34-1.317 3.231-3.12 4.609-4.554 3.116-3.474 2.671-4.541 2.849-6.946.267-5.789.179-13.538 0-15.496 3.295-.447 5.522 1.246 8.104 2.85 5.967 3.294 8.283 1.691 9.263.445 1.425-3.742-2.497-5.611-3.831-6.413-7.302-1.158-11.22.356-13.269 1.068-2.048.446-3.383-.534-4.81-1.246-11.577-3.119-15.051 2.225-15.051 2.225-1.427 3.12-.003 3.654 1.866 4.547z"/><path d="m178.519 312.899 4.645-3.42c-1.978.15-4.334 2.936-4.645 3.42zm4.679-1.098.887 5.489c-.175-1.682-.605-4.122-.887-5.489zm-3.968 4.648c-.108.224-.393.954-.621 1.539l1.606-2.89c-.289.348-.792.954-.985 1.351zm-4.763 16.588c3.295 1.248 8.549-1.513 10.688-2.583 1.514-.891 3.473-1.07 4.632-.713h.002c.445.999.266 13.181.357 17.099-2.851 5.525-5.434 7.571-7.571 9.533-2.583 2.224-2.672 7.211-2.761 10.417.179-1.159 2.583-7.034 3.385-8.64.623-.801 4.007-3.92 6.145-6.145 3.116-3.474 2.671-4.542 2.849-6.946.267-5.79.179-13.531 0-15.495 3.295-.448 5.522 1.246 8.103 2.848 5.967 3.293 8.283 1.694 9.263.445 1.425-3.742-2.497-5.612-3.831-6.414-7.302-1.158-11.22.356-13.269 1.069-2.048.446-3.383-.536-4.81-1.247-11.577-3.118-15.051 2.225-15.051 2.225-1.424 3.118 0 3.652 1.869 4.547zm78.539-52.946c-7.302-1.158-11.22.356-13.269 1.068-2.048.446-3.383-.534-4.809-1.246-11.577-3.119-15.051 2.225-15.051 2.225-1.424 3.117 0 3.651 1.869 4.544 3.294 1.248 8.549-1.514 10.687-2.583 1.513-.891 3.473-1.07 4.632-.713h.002c.446.982.266 13.18.358 17.105-2.851 5.523-5.434 7.569-7.571 9.529-2.584 2.225-2.672 7.211-2.761 10.418.179-1.161 2.583-7.035 3.385-8.639.623-.801 4.007-3.923 6.145-6.148 3.116-3.474 2.671-4.541 2.849-6.946.267-5.789.179-13.538 0-15.496h-.001c3.295-.446 5.522 1.247 8.103 2.85 5.967 3.294 8.283 1.691 9.263.445 1.425-3.741-2.496-5.611-3.831-6.413zm147.202 0c-7.302-1.158-11.221.356-13.269 1.068-2.048.446-3.383-.534-4.81-1.246-11.577-3.119-15.051 2.225-15.051 2.225-1.425 3.117 0 3.651 1.87 4.544 3.295 1.248 8.55-1.514 10.688-2.583 1.513-.891 3.473-1.07 4.631-.713.446.983.267 13.18.357 17.104-2.85 5.523-5.433 7.569-7.571 9.529-2.582 2.225-2.672 7.211-2.761 10.418.179-1.161 2.583-7.035 3.385-8.639.624-.801 4.008-3.923 6.145-6.148 3.116-3.474 2.671-4.541 2.849-6.946.267-5.789.178-13.538 0-15.496 3.295-.447 5.522 1.246 8.104 2.85 5.967 3.294 8.283 1.691 9.263.445 1.426-3.74-2.496-5.61-3.83-6.412zm0 46.352c-7.302-1.158-11.221.356-13.269 1.069-2.048.446-3.383-.536-4.81-1.247-11.577-3.118-15.051 2.225-15.051 2.225-1.425 3.118 0 3.652 1.87 4.547 3.295 1.248 8.55-1.513 10.688-2.583 1.513-.891 3.473-1.07 4.631-.713h.001c.445 1 .266 13.181.356 17.098-2.85 5.525-5.433 7.571-7.571 9.533-2.582 2.224-2.672 7.211-2.761 10.417.179-1.159 2.583-7.034 3.385-8.64.624-.801 4.008-3.92 6.145-6.145 3.116-3.474 2.671-4.542 2.849-6.946.267-5.79.178-13.531 0-15.495 3.295-.448 5.521 1.245 8.104 2.848 5.967 3.293 8.283 1.694 9.263.445 1.426-3.741-2.496-5.611-3.83-6.413zm241.757-241.03c-7.303-1.158-11.218.356-13.27 1.068-2.044.447-3.383-.534-4.806-1.245-11.577-3.119-15.051 2.225-15.051 2.225-1.425 3.117 0 3.652 1.862 4.545 3.298 1.247 8.553-1.514 10.691-2.583 1.514-.89 3.474-1.071 4.632-.713h.004c.446.982.267 13.18.362 17.103-2.85 5.52-5.433 7.569-7.571 9.528-2.584 2.226-2.672 7.214-2.761 10.42.177-1.159 2.583-7.036 3.384-8.639.626-.802 4.007-3.92 6.145-6.146 3.112-3.474 2.669-4.543 2.849-6.947.263-5.789.178-13.536 0-15.497 3.293-.444 5.519 1.248 8.1 2.85 5.968 3.293 8.283 1.691 9.263.445 1.422-3.741-2.498-5.612-3.833-6.414zm132.053 4.009c1.513-.89 3.473-1.071 4.631-.713h.004c.446.982.267 13.18.362 17.103-2.85 5.52-5.432 7.569-7.571 9.528-2.584 2.226-2.672 7.214-2.761 10.42.177-1.159 2.583-7.036 3.384-8.639.628-.802 4.011-3.92 6.145-6.146 3.112-3.474 2.669-4.543 2.849-6.947.263-5.789.178-13.536 0-15.497 3.293-.444 5.52 1.248 8.101 2.85 5.967 3.293 8.282 1.691 9.262.445 1.422-3.741-2.497-5.611-3.832-6.413-7.304-1.158-11.22.356-13.272 1.068-2.043.447-3.383-.534-4.805-1.245-11.578-3.119-15.052 2.225-15.052 2.225-1.425 3.117 0 3.652 1.866 4.545 3.298 1.247 8.551-1.515 10.689-2.584zm-132.053 42.344c-7.303-1.159-11.218.356-13.27 1.068-2.044.446-3.383-.534-4.806-1.246-11.577-3.119-15.051 2.226-15.051 2.226-1.425 3.116 0 3.651 1.862 4.544 3.298 1.248 8.553-1.514 10.691-2.583 1.514-.89 3.474-1.07 4.632-.713h.004c.446.987.267 13.18.362 17.1-2.85 5.522-5.433 7.57-7.571 9.53-2.584 2.226-2.672 7.213-2.761 10.419.177-1.158 2.583-7.035 3.384-8.639.626-.802 4.007-3.92 6.145-6.145 3.112-3.474 2.669-4.542 2.849-6.947.263-5.788.178-13.534 0-15.495 3.293-.445 5.519 1.247 8.1 2.85 5.968 3.293 8.283 1.691 9.263.444 1.422-3.741-2.498-5.611-3.833-6.413zM399.28 476.627c-7.301-1.158-11.22.356-13.269 1.068-2.047.443-3.383-.538-4.809-1.25-11.577-3.118-15.051 2.226-15.051 2.226-1.425 3.117 0 3.651 1.869 4.548 3.294 1.251 8.548-1.514 10.688-2.58 1.514-.892 3.473-1.069 4.631-.712h.004c.443 1.023.266 13.181.356 17.094-2.85 5.521-5.433 7.569-7.571 9.529-2.584 2.226-2.672 7.213-2.761 10.42.178-1.159 2.583-7.037 3.385-8.64.623-.801 4.007-3.924 6.145-6.144 3.115-3.478 2.671-4.546 2.849-6.951.266-5.782.178-13.519.001-15.488 3.294-.446 5.521 1.243 8.102 2.849 5.967 3.292 8.283 1.691 9.263.445 1.424-3.742-2.497-5.612-3.832-6.414z" stroke-width=".5" stroke="#000"/><path d="M174.467 483.219c3.295 1.251 8.549-1.514 10.688-2.58 1.514-.892 3.473-1.069 4.632-.712h.004c.443 1.023.265 13.181.356 17.094-2.851 5.521-5.434 7.569-7.571 9.529-2.583 2.226-2.672 7.213-2.761 10.42.179-1.159 2.583-7.037 3.385-8.64.623-.801 4.007-3.924 6.145-6.144 3.116-3.478 2.671-4.546 2.849-6.951.267-5.782.179-13.519.001-15.488 3.295-.446 5.522 1.243 8.103 2.849 5.967 3.292 8.283 1.691 9.263.445 1.425-3.742-2.497-5.611-3.831-6.413-7.302-1.158-11.22.356-13.269 1.068-2.048.443-3.383-.538-4.81-1.25-11.577-3.118-15.051 2.226-15.051 2.226-1.426 3.116-.002 3.65 1.867 4.547z"/><path d="M205.727 522.979c-7.302-1.161-11.22.353-13.269 1.064-2.048.447-3.383-.534-4.81-1.246-11.577-3.118-15.051 2.226-15.051 2.226-1.424 3.117 0 3.651 1.869 4.547 3.295 1.247 8.549-1.514 10.688-2.583 1.514-.891 3.473-1.07 4.632-.713h.002c.445.999.266 13.181.357 17.102-2.851 5.521-5.434 7.569-7.571 9.529-2.583 2.226-2.672 7.213-2.761 10.42.179-1.162 2.583-7.037 3.385-8.64.623-.805 4.007-3.924 6.145-6.149 3.116-3.474 2.671-4.542 2.849-6.946.267-5.786.179-13.532 0-15.494 3.295-.445 5.522 1.245 8.103 2.847 5.967 3.296 8.283 1.694 9.263.449 1.425-3.741-2.496-5.611-3.831-6.413zm7.459-20.324h-7.406l7.411.155.001-.053z" stroke-width=".5" stroke="#000"/><path stroke-width=".5" stroke="#000" d="M213.186 502.655h.01l-.004.102.004.053h-.005l-.014.387-.059 1.775 2.704-2.162-2.781-2.318zm39.82-26.028c-7.302-1.158-11.22.356-13.269 1.068-2.048.443-3.383-.538-4.809-1.25-11.577-3.118-15.051 2.226-15.051 2.226-1.424 3.117 0 3.651 1.869 4.548 3.294 1.251 8.549-1.514 10.687-2.58 1.513-.892 3.473-1.069 4.632-.712h.005c.443 1.023.264 13.181.356 17.094-2.851 5.521-5.434 7.569-7.571 9.529-2.584 2.226-2.672 7.213-2.761 10.42.179-1.159 2.583-7.037 3.385-8.64.623-.801 4.007-3.924 6.145-6.144 3.116-3.478 2.671-4.546 2.849-6.951.267-5.782.179-13.519.001-15.488 3.294-.446 5.521 1.243 8.102 2.849 5.967 3.292 8.283 1.691 9.263.445 1.423-3.742-2.498-5.612-3.833-6.414zm388.959 0c-7.303-1.158-11.218.356-13.27 1.068-2.044.443-3.383-.538-4.806-1.25-11.577-3.118-15.051 2.226-15.051 2.226-1.425 3.117 0 3.651 1.862 4.548 3.298 1.251 8.553-1.514 10.691-2.58 1.514-.892 3.474-1.069 4.632-.712h.006c.443 1.022.265 13.181.36 17.094-2.85 5.521-5.433 7.569-7.571 9.529-2.584 2.226-2.672 7.213-2.761 10.42.177-1.159 2.583-7.037 3.384-8.64.626-.801 4.007-3.924 6.145-6.144 3.112-3.478 2.669-4.546 2.849-6.951.263-5.782.179-13.519.001-15.488 3.293-.445 5.518 1.244 8.099 2.849 5.968 3.292 8.283 1.691 9.263.445 1.422-3.742-2.498-5.612-3.833-6.414z"/></g><g id="Shapes"><g id="Control_at_12_Hours" fill="#E6E7E8" stroke-width=".5" stroke="#000"><path d="M231.764 52.344c1.806.682 4.682-.828 5.852-1.414.828-.488 1.902-.586 2.535-.391l1.317-.097c1.804-.244 3.023.682 4.437 1.56 3.267 1.804 4.535.926 5.071.244.781-2.048-1.365-3.071-2.096-3.51-3.999-.635-6.145.195-7.266.584-1.12.246-1.853-.291-2.633-.681-6.34-1.707-8.241 1.219-8.241 1.219-.78 1.706 0 1.999 1.024 2.486zm17.116 191.391c-3.999-.635-6.145.195-7.266.584-1.12.246-1.853-.291-2.633-.681-6.34-1.707-8.241 1.219-8.241 1.219-.78 1.707 0 2 1.024 2.487 1.806.682 4.682-.828 5.852-1.414.828-.488 1.902-.586 2.535-.391l1.317-.097c1.804-.244 3.023.682 4.437 1.56 3.267 1.804 4.535.926 5.071.244.781-2.048-1.365-3.072-2.096-3.511zm0 196c-3.999-.635-6.145.195-7.266.584-1.12.246-1.853-.291-2.633-.681-6.34-1.707-8.241 1.219-8.241 1.219-.78 1.707 0 2 1.024 2.487 1.806.682 4.682-.828 5.852-1.414.828-.488 1.902-.586 2.535-.391l1.317-.097c1.804-.244 3.023.682 4.437 1.56 3.267 1.804 4.535.926 5.071.244.781-2.048-1.365-3.072-2.096-3.511z" id="leafs"/><path d="M239.906 62.73c1.707-1.903 1.463-2.487 1.56-3.804.146-3.169.097-7.411 0-8.484-.342-.049-1.317.097-1.317.097.244.535.147 7.216.195 9.363-1.56 3.022-2.974 4.144-4.145 5.217-1.414 1.219-1.462 3.949-1.511 5.705.097-.635 1.415-3.852 1.853-4.73.342-.438 2.195-2.145 3.365-3.364zm.244 182.81c.244.535.147 7.216.195 9.363-1.56 3.022-2.974 4.144-4.145 5.217-1.414 1.219-1.462 3.949-1.511 5.705.097-.635 1.415-3.852 1.853-4.73.341-.439 2.195-2.146 3.365-3.365 1.707-1.903 1.463-2.487 1.56-3.804.146-3.169.097-7.411 0-8.484-.342-.048-1.317.098-1.317.098zm0 196c.244.535.147 7.216.195 9.363-1.56 3.022-2.974 4.144-4.145 5.217-1.414 1.219-1.462 3.949-1.511 5.705.097-.635 1.415-3.852 1.853-4.73.341-.439 2.195-2.146 3.365-3.365 1.707-1.903 1.463-2.487 1.56-3.804.146-3.169.097-7.411 0-8.484-.342-.048-1.317.098-1.317.098z" id="root"/></g><g id="Control_at_3_Hours" fill="#E6E7E8" stroke-width=".5" stroke="#000"><path d="M201.601 48.735c-3.999-.635-6.144.195-7.266.584-1.12.246-1.853-.291-2.633-.681-6.34-1.707-8.241 1.219-8.241 1.219-.78 1.707 0 2 1.024 2.487 1.806.682 4.682-.828 5.852-1.414.828-.488 1.902-.586 2.535-.391l1.317-.097c1.805-.244 3.023.682 4.437 1.56 3.267 1.804 4.535.926 5.071.244.781-2.048-1.365-3.072-2.096-3.511zm0 195c-3.999-.635-6.144.195-7.266.584-1.12.246-1.853-.291-2.633-.681-6.34-1.707-8.241 1.219-8.241 1.219-.78 1.707 0 2 1.024 2.487 1.806.682 4.682-.828 5.852-1.414.828-.488 1.902-.586 2.535-.391l1.317-.097c1.805-.244 3.023.682 4.437 1.56 3.267 1.804 4.535.926 5.071.244.781-2.048-1.365-3.072-2.096-3.511zm0 196c-3.999-.635-6.144.195-7.266.584-1.12.246-1.853-.291-2.633-.681-6.34-1.707-8.241 1.219-8.241 1.219-.78 1.707 0 2 1.024 2.487 1.806.682 4.682-.828 5.852-1.414.828-.488 1.902-.586 2.535-.391l1.317-.097c1.805-.244 3.023.682 4.437 1.56 3.267 1.804 4.535.926 5.071.244.781-2.048-1.365-3.072-2.096-3.511zm194-391c-3.999-.635-6.144.195-7.266.584-1.12.246-1.852-.291-2.633-.681-6.34-1.707-8.241 1.219-8.241 1.219-.78 1.707 0 2 1.024 2.487 1.806.682 4.682-.828 5.852-1.414.828-.488 1.902-.586 2.535-.391l1.317-.097c1.805-.244 3.023.682 4.437 1.56 3.267 1.804 4.535.926 5.071.244.781-2.048-1.365-3.072-2.096-3.511zm0 195c-3.999-.635-6.144.195-7.266.584-1.12.246-1.852-.291-2.633-.681-6.34-1.707-8.241 1.219-8.241 1.219-.78 1.707 0 2 1.024 2.487 1.806.682 4.682-.828 5.852-1.414.828-.488 1.902-.586 2.535-.391l1.317-.097c1.805-.244 3.023.682 4.437 1.56 3.267 1.804 4.535.926 5.071.244.781-2.048-1.365-3.072-2.096-3.511zm0 196c-3.999-.635-6.144.195-7.266.584-1.12.246-1.852-.291-2.633-.681-6.34-1.707-8.241 1.219-8.241 1.219-.78 1.707 0 2 1.024 2.487 1.806.682 4.682-.828 5.852-1.414.828-.488 1.902-.586 2.535-.391l1.317-.097c1.805-.244 3.023.682 4.437 1.56 3.267 1.804 4.535.926 5.071.244.781-2.048-1.365-3.072-2.096-3.511zm240-391c-3.999-.635-6.144.195-7.266.584-1.12.246-1.852-.291-2.633-.681-6.34-1.707-8.241 1.219-8.241 1.219-.78 1.707 0 2 1.024 2.487 1.806.682 4.682-.828 5.852-1.414.828-.488 1.902-.586 2.535-.391l1.317-.097c1.805-.244 3.023.682 4.437 1.56 3.267 1.804 4.535.926 5.071.244.781-2.048-1.365-3.072-2.096-3.511zm0 195c-3.999-.635-6.144.195-7.266.584-1.12.246-1.852-.291-2.633-.681-6.34-1.707-8.241 1.219-8.241 1.219-.78 1.707 0 2 1.024 2.487 1.806.682 4.682-.828 5.852-1.414.828-.488 1.902-.586 2.535-.391l1.317-.097c1.805-.244 3.023.682 4.437 1.56 3.267 1.804 4.535.926 5.071.244.781-2.048-1.365-3.072-2.096-3.511zm0 196c-3.999-.635-6.144.195-7.266.584-1.12.246-1.852-.291-2.633-.681-6.34-1.707-8.241 1.219-8.241 1.219-.78 1.707 0 2 1.024 2.487 1.806.682 4.682-.828 5.852-1.414.828-.488 1.902-.586 2.535-.391l1.317-.097c1.805-.244 3.023.682 4.437 1.56 3.267 1.804 4.535.926 5.071.244.781-2.048-1.365-3.072-2.096-3.511zM771.485 52.344c1.806.682 4.682-.828 5.852-1.414.828-.488 1.902-.586 2.535-.391l1.317-.097c1.805-.244 3.023.682 4.437 1.56 3.267 1.804 4.535.926 5.071.244.781-2.048-1.365-3.071-2.096-3.51-3.999-.635-6.144.195-7.266.584-1.12.246-1.852-.291-2.633-.681-6.34-1.707-8.241 1.219-8.241 1.219-.78 1.706 0 1.999 1.024 2.486zm17.116 191.391c-3.999-.635-6.144.195-7.266.584-1.12.246-1.852-.291-2.633-.681-6.34-1.707-8.241 1.219-8.241 1.219-.78 1.707 0 2 1.024 2.487 1.806.682 4.682-.828 5.852-1.414.828-.488 1.902-.586 2.535-.391l1.317-.097c1.805-.244 3.023.682 4.437 1.56 3.267 1.804 4.535.926 5.071.244.781-2.048-1.365-3.072-2.096-3.511z" id="leafs"/><path d="M192.871 50.54c.244.535.147 7.216.195 9.363-1.56 3.022-2.974 4.144-4.145 5.217-1.414 1.219-1.462 3.949-1.511 5.705.098-.635 1.415-3.852 1.853-4.73.341-.439 2.195-2.146 3.365-3.365 1.706-1.903 1.463-2.487 1.56-3.804.147-3.169.098-7.411 0-8.484-.342-.048-1.317.098-1.317.098zm0 195c.244.535.147 7.216.195 9.363-1.56 3.022-2.974 4.144-4.145 5.217-1.414 1.219-1.462 3.949-1.511 5.705.098-.635 1.415-3.852 1.853-4.73.341-.439 2.195-2.146 3.365-3.365 1.706-1.903 1.463-2.487 1.56-3.804.147-3.169.098-7.411 0-8.484-.342-.048-1.317.098-1.317.098zm0 196c.244.535.147 7.216.195 9.363-1.56 3.022-2.974 4.144-4.145 5.217-1.414 1.219-1.462 3.949-1.511 5.705.098-.635 1.415-3.852 1.853-4.73.341-.439 2.195-2.146 3.365-3.365 1.706-1.903 1.463-2.487 1.56-3.804.147-3.169.098-7.411 0-8.484-.342-.048-1.317.098-1.317.098zm194-391c.244.535.147 7.216.195 9.363-1.56 3.022-2.974 4.144-4.145 5.217-1.414 1.219-1.462 3.949-1.511 5.705.098-.635 1.415-3.852 1.853-4.73.341-.439 2.195-2.146 3.365-3.365 1.706-1.903 1.463-2.487 1.56-3.804.147-3.169.098-7.411 0-8.484-.342-.048-1.317.098-1.317.098zm0 195c.244.535.147 7.216.195 9.363-1.56 3.022-2.974 4.144-4.145 5.217-1.414 1.219-1.462 3.949-1.511 5.705.098-.635 1.415-3.852 1.853-4.73.341-.439 2.195-2.146 3.365-3.365 1.706-1.903 1.463-2.487 1.56-3.804.147-3.169.098-7.411 0-8.484-.342-.048-1.317.098-1.317.098zm0 196c.244.535.147 7.216.195 9.363-1.56 3.022-2.974 4.144-4.145 5.217-1.414 1.219-1.462 3.949-1.511 5.705.098-.635 1.415-3.852 1.853-4.73.341-.439 2.195-2.146 3.365-3.365 1.706-1.903 1.463-2.487 1.56-3.804.147-3.169.098-7.411 0-8.484-.342-.048-1.317.098-1.317.098zm240-391c.244.535.147 7.216.195 9.363-1.56 3.022-2.974 4.144-4.145 5.217-1.414 1.219-1.462 3.949-1.511 5.705.098-.635 1.415-3.852 1.853-4.73.341-.439 2.195-2.146 3.365-3.365 1.706-1.903 1.463-2.487 1.56-3.804.147-3.169.098-7.411 0-8.484-.342-.048-1.317.098-1.317.098zm0 195c.244.535.147 7.216.195 9.363-1.56 3.022-2.974 4.144-4.145 5.217-1.414 1.219-1.462 3.949-1.511 5.705.098-.635 1.415-3.852 1.853-4.73.341-.439 2.195-2.146 3.365-3.365 1.706-1.903 1.463-2.487 1.56-3.804.147-3.169.098-7.411 0-8.484-.342-.048-1.317.098-1.317.098zm0 196c.244.535.147 7.216.195 9.363-1.56 3.022-2.974 4.144-4.145 5.217-1.414 1.219-1.462 3.949-1.511 5.705.098-.635 1.415-3.852 1.853-4.73.341-.439 2.195-2.146 3.365-3.365 1.706-1.903 1.463-2.487 1.56-3.804.147-3.169.098-7.411 0-8.484-.342-.048-1.317.098-1.317.098zM779.627 62.73c1.706-1.903 1.463-2.487 1.56-3.804.147-3.169.098-7.411 0-8.484-.341-.049-1.316.097-1.316.097.244.535.147 7.216.195 9.363-1.56 3.022-2.974 4.144-4.145 5.217-1.414 1.219-1.462 3.949-1.511 5.705.098-.635 1.415-3.852 1.853-4.73.341-.438 2.194-2.145 3.364-3.364zm.244 182.81c.244.535.147 7.216.195 9.363-1.56 3.022-2.974 4.144-4.145 5.217-1.414 1.219-1.462 3.949-1.511 5.705.098-.635 1.415-3.852 1.853-4.73.341-.439 2.195-2.146 3.365-3.365 1.706-1.903 1.463-2.487 1.56-3.804.147-3.169.098-7.411 0-8.484-.342-.048-1.317.098-1.317.098z" id="root"/></g><g id="Gibberellic_Acid_Inhibitors_at_12_Hours" fill="#E6E7E8" stroke-width=".5" stroke="#000"><g id="Uniconazole_Treated_at_12_Hours"><path id="leafs_70_" d="M219.878 133.813s3.474-5.343 15.051-2.226c1.426.713 2.762 1.693 4.809 1.247 2.048-.712 5.968-2.227 13.269-1.069 1.336.802 5.255 2.672 3.829 6.412-.98 1.248-3.296 2.85-9.262-.444-2.583-1.603-4.809-3.295-8.105-2.85l-2.405.178c-1.158-.358-3.117-.178-4.631.712-2.137 1.069-7.392 3.83-10.687 2.582-1.868-.89-3.293-1.426-1.868-4.542z"/><path id="root_70_" d="M237.066 135.06s1.781-.268 2.405-.178c.179 1.959.268 9.707 0 15.496-.178 2.405.268 3.474-2.85 6.948-2.137 2.226-5.522 5.342-6.145 6.145-.802 1.603-3.206 7.481-3.385 8.639.089-3.206.179-8.193 2.761-10.42 2.138-1.96 4.72-4.007 7.571-9.53-.09-3.919.09-16.121-.357-17.1z"/></g><g id="Propiconazole_Treated_at_12_Hours"><path id="leafs_104_" d="M219.878 87.46s3.474-5.343 15.051-2.226c1.426.713 2.762 1.693 4.809 1.246 2.048-.712 5.968-2.226 13.269-1.068 1.336.802 5.255 2.672 3.829 6.412-.98 1.247-3.296 2.85-9.262-.445-2.583-1.603-4.809-3.295-8.105-2.85l-2.405.178c-1.158-.358-3.117-.178-4.631.712-2.137 1.068-7.392 3.829-10.687 2.582-1.868-.888-3.293-1.423-1.868-4.541z"/><path id="root_104_" d="M237.066 88.708s1.781-.267 2.405-.178c.179 1.96.268 9.708 0 15.497-.178 2.404.268 3.474-2.85 6.948-2.137 2.226-5.522 5.343-6.145 6.146-.802 1.603-3.206 7.481-3.385 8.639.089-3.206.179-8.193 2.761-10.421 2.138-1.96 4.72-4.008 7.571-9.529-.09-3.921.09-16.123-.357-17.102z"/></g><g id="Prohexadione_Treated_at_12_Hours"><path id="leafs_67_" d="M413.431 133.813s3.474-5.343 15.051-2.226c1.426.713 2.761 1.693 4.809 1.247 2.051-.712 5.968-2.227 13.269-1.069 1.337.802 5.255 2.672 3.833 6.412-.98 1.248-3.295 2.85-9.262-.444-2.583-1.603-4.81-3.295-8.105-2.85l-2.409.178c-1.158-.358-3.118-.178-4.631.712-2.139 1.069-7.393 3.83-10.688 2.582-1.867-.89-3.292-1.426-1.867-4.542z"/><path id="root_67_" d="M430.619 135.06s1.781-.268 2.408-.178c.178 1.959.264 9.707 0 15.496-.18 2.405.264 3.474-2.85 6.948-2.137 2.226-5.522 5.342-6.145 6.145-.802 1.603-3.207 7.481-3.385 8.639.089-3.206.178-8.193 2.761-10.42 2.138-1.96 4.721-4.007 7.571-9.53-.092-3.919.087-16.121-.36-17.1z"/></g><g id="Paclobutrazol_Treated_at_12_Hours"><path id="leafs_102_" d="M413.431 87.46s3.474-5.343 15.051-2.226c1.426.713 2.761 1.693 4.809 1.246 2.051-.712 5.968-2.226 13.269-1.068 1.337.802 5.255 2.672 3.833 6.412-.98 1.247-3.295 2.85-9.262-.445-2.583-1.603-4.81-3.295-8.105-2.85l-2.409.178c-1.158-.358-3.118-.178-4.631.712-2.139 1.068-7.393 3.829-10.688 2.582-1.867-.888-3.292-1.423-1.867-4.541z"/><path id="root_102_" d="M430.619 88.708s1.781-.267 2.408-.178c.178 1.96.264 9.708 0 15.497-.18 2.404.264 3.474-2.85 6.948-2.137 2.226-5.522 5.343-6.145 6.146-.802 1.603-3.207 7.481-3.385 8.639.089-3.206.178-8.193 2.761-10.421 2.138-1.96 4.721-4.008 7.571-9.529-.092-3.921.087-16.123-.36-17.102z"/></g></g><g id="Gibberellic_Acid_Inhibitors_at_3_Hours" fill="#E6E7E8" stroke-width=".5" stroke="#000"><g id="Uniconazole_Treated_at_3_Hours"><path id="leafs_60_" d="M172.599 133.813s3.474-5.343 15.051-2.226c1.426.713 2.762 1.693 4.809 1.247 2.048-.712 5.968-2.227 13.269-1.069 1.336.802 5.255 2.672 3.83 6.412-.98 1.248-3.296 2.85-9.262-.444-2.583-1.603-4.809-3.295-8.105-2.85l-2.405.178c-1.158-.358-3.117-.178-4.632.712-2.138 1.069-7.392 3.83-10.688 2.582-1.867-.89-3.292-1.426-1.867-4.542z"/><path id="root_60_" d="M189.788 135.06s1.781-.268 2.405-.178c.179 1.959.268 9.707 0 15.496-.178 2.405.268 3.474-2.85 6.948-2.137 2.226-5.522 5.342-6.145 6.145-.802 1.603-3.206 7.481-3.385 8.639.089-3.206.178-8.193 2.761-10.42 2.138-1.96 4.72-4.007 7.571-9.53-.09-3.919.089-16.121-.357-17.1z"/></g><g id="Propiconazole_Treated_at_3_Hours"><path id="leafs_97_" d="M172.599 87.46s3.474-5.343 15.051-2.226c1.426.713 2.762 1.693 4.809 1.246 2.048-.712 5.968-2.226 13.269-1.068 1.336.802 5.255 2.672 3.83 6.412-.98 1.247-3.296 2.85-9.262-.445-2.583-1.603-4.809-3.295-8.105-2.85l-2.405.178c-1.158-.358-3.117-.178-4.632.712-2.138 1.068-7.392 3.829-10.688 2.582-1.867-.888-3.292-1.423-1.867-4.541z"/><path id="root_97_" d="M189.788 88.708s1.781-.267 2.405-.178c.179 1.96.268 9.708 0 15.497-.178 2.404.268 3.474-2.85 6.948-2.137 2.226-5.522 5.343-6.145 6.146-.802 1.603-3.206 7.481-3.385 8.639.089-3.206.178-8.193 2.761-10.421 2.138-1.96 4.72-4.008 7.571-9.529-.09-3.921.089-16.123-.357-17.102z"/></g><g id="Prohexadione_Treated_at_3_Hours"><path id="leafs_52_" d="M367.08 133.813s3.474-5.343 15.051-2.226c1.426.713 2.761 1.693 4.809 1.247 2.047-.712 5.967-2.227 13.269-1.069 1.336.802 5.255 2.672 3.83 6.412-.98 1.248-3.296 2.85-9.262-.444-2.583-1.603-4.809-3.295-8.105-2.85l-2.405.178c-1.158-.358-3.118-.178-4.631.712-2.138 1.069-7.392 3.83-10.688 2.582-1.868-.89-3.295-1.426-1.868-4.542z"/><path id="root_52_" d="M384.267 135.06s1.781-.268 2.405-.178c.178 1.959.268 9.707 0 15.496-.178 2.405.268 3.474-2.85 6.948-2.137 2.226-5.522 5.342-6.144 6.145-.802 1.603-3.206 7.481-3.386 8.639.089-3.206.179-8.193 2.761-10.42 2.138-1.96 4.721-4.007 7.571-9.53-.09-3.919.09-16.121-.357-17.1z"/></g><g id="Paclobutrazol_Treated_at_3_Hours"><path id="leafs_92_" d="M367.08 87.46s3.474-5.343 15.051-2.226c1.426.713 2.761 1.693 4.809 1.246 2.047-.712 5.967-2.226 13.269-1.068 1.336.802 5.255 2.672 3.83 6.412-.98 1.247-3.296 2.85-9.262-.445-2.583-1.603-4.809-3.295-8.105-2.85l-2.405.178c-1.158-.358-3.118-.178-4.631.712-2.138 1.068-7.392 3.829-10.688 2.582-1.868-.888-3.295-1.423-1.868-4.541z"/><path id="root_92_" d="M384.267 88.708s1.781-.267 2.405-.178c.178 1.96.268 9.708 0 15.497-.178 2.404.268 3.474-2.85 6.948-2.137 2.226-5.522 5.343-6.144 6.146-.802 1.603-3.206 7.481-3.386 8.639.089-3.206.179-8.193 2.761-10.421 2.138-1.96 4.721-4.008 7.571-9.529-.09-3.921.09-16.123-.357-17.102z"/></g><g id="arrows"><path id="arrow4" d="M401.187 157.797h7.416l-.018.542-.058 1.777 2.702-2.164-2.781-2.317.155 2.317"/><path id="arrow3" d="M401.187 111.446h7.416l-.018.541-.058 1.776 2.702-2.162-2.781-2.319.155 2.319"/><path id="arrow2" d="M205.78 157.797h7.416l-.019.542-.059 1.777 2.704-2.164-2.781-2.317.155 2.317"/><path id="arrow1" d="M205.78 111.446h7.416l-.019.541-.059 1.776 2.704-2.162-2.781-2.319.155 2.319"/></g></g><g id="Auxin_Inhibitors" fill="#E6E7E8" stroke-width=".5" stroke="#000"><g id="PCIB_Treated"><path id="leafs_90_" d="M608.838 328.49s3.474-5.343 15.051-2.225c1.423.711 2.761 1.693 4.806 1.247 2.052-.713 5.967-2.226 13.27-1.069 1.335.802 5.255 2.673 3.834 6.414-.98 1.249-3.295 2.848-9.263-.445-2.582-1.603-4.809-3.296-8.104-2.848l-2.409.177c-1.158-.357-3.118-.177-4.632.713-2.138 1.07-7.393 3.831-10.691 2.583-1.862-.895-3.287-1.429-1.862-4.547z"/><path id="root_90_" d="M626.027 329.737s1.78-.267 2.409-.177c.178 1.958.263 9.705 0 15.498-.18 2.405.263 3.473-2.849 6.946-2.139 2.225-5.519 5.344-6.145 6.145-.801 1.606-3.207 7.48-3.384 8.64.09-3.207.177-8.194 2.761-10.417 2.138-1.962 4.721-4.009 7.571-9.533-.096-3.921.083-16.122-.363-17.102z"/></g><g id="2_4_6-T_Treated"><path id="leafs_47_" d="M608.838 282.139s3.474-5.344 15.051-2.225c1.423.712 2.761 1.692 4.806 1.246 2.052-.712 5.967-2.225 13.27-1.068 1.335.802 5.255 2.672 3.834 6.413-.98 1.246-3.295 2.849-9.263-.445-2.582-1.603-4.809-3.296-8.104-2.85l-2.409.178c-1.158-.358-3.118-.178-4.632.713-2.138 1.069-7.393 3.831-10.691 2.583-1.862-.894-3.287-1.428-1.862-4.545z"/><path id="root_47_" d="M626.027 283.387s1.78-.267 2.409-.177c.178 1.958.263 9.707 0 15.496-.18 2.405.263 3.473-2.849 6.946-2.139 2.225-5.519 5.347-6.145 6.148-.801 1.604-3.207 7.478-3.384 8.639.09-3.207.177-8.193 2.761-10.418 2.138-1.96 4.721-4.007 7.571-9.529-.096-3.926.083-16.127-.363-17.105z"/></g><g id="NPA_Treated"><path id="leafs_87_" d="M762.391 326.637s3.474-5.344 15.052-2.227c1.425.712 2.761 1.693 4.809 1.249 2.049-.711 5.964-2.225 13.27-1.067 1.334.802 5.256 2.673 3.831 6.413-.981 1.246-3.295 2.848-9.263-.445-2.578-1.606-4.806-3.295-8.105-2.849l-2.405.179c-1.159-.357-3.121-.179-4.635.711-2.135 1.07-7.389 3.833-10.688 2.582-1.866-.895-3.29-1.429-1.866-4.546z"/><path id="root_87_" d="M779.58 327.883s1.777-.263 2.405-.176c.178 1.958.267 9.708 0 15.497-.18 2.405.267 3.473-2.849 6.949-2.134 2.224-5.517 5.345-6.145 6.146-.801 1.602-3.206 7.479-3.384 8.639.09-3.207.18-8.193 2.765-10.42 2.135-1.959 4.72-4.007 7.571-9.529-.095-3.925.084-16.126-.363-17.106z"/></g><g id="TIBA_Treated"><path id="leafs_43_" d="M762.391 282.139s3.474-5.344 15.052-2.225c1.425.712 2.761 1.692 4.809 1.246 2.049-.712 5.964-2.225 13.27-1.068 1.334.802 5.256 2.672 3.831 6.413-.981 1.246-3.295 2.849-9.263-.445-2.578-1.603-4.806-3.296-8.105-2.85l-2.405.178c-1.159-.358-3.121-.178-4.635.713-2.135 1.069-7.389 3.831-10.688 2.583-1.866-.894-3.29-1.428-1.866-4.545z"/><path id="root_43_" d="M779.58 283.387s1.777-.267 2.405-.177c.178 1.958.267 9.707 0 15.496-.18 2.405.267 3.473-2.849 6.946-2.134 2.225-5.517 5.347-6.145 6.148-.801 1.604-3.206 7.478-3.384 8.639.09-3.207.18-8.193 2.765-10.418 2.135-1.96 4.72-4.007 7.571-9.529-.095-3.926.084-16.127-.363-17.105z"/></g></g><g id="Brassinosteroid_Inhibitors_at_3_Hours" fill="#E6E7E8" stroke-width=".5" stroke="#000"><g id="10uM_Brz220_Treated_at_3_Hours"><path id="leafs_36_" d="M172.598 282.139s3.474-5.344 15.051-2.225c1.426.712 2.762 1.692 4.81 1.246 2.049-.712 5.967-2.225 13.269-1.068 1.334.802 5.256 2.672 3.831 6.413-.98 1.246-3.296 2.849-9.263-.445-2.582-1.603-4.809-3.296-8.104-2.85l-2.405.178c-1.159-.358-3.117-.178-4.632.713-2.139 1.069-7.393 3.831-10.688 2.583-1.869-.894-3.293-1.428-1.869-4.545z"/><path id="root_36_" d="M189.788 283.387s1.781-.267 2.405-.177c.179 1.958.267 9.707 0 15.496-.178 2.405.267 3.473-2.849 6.946-2.138 2.225-5.522 5.347-6.145 6.148-.802 1.604-3.206 7.478-3.385 8.639.09-3.207.178-8.193 2.761-10.418 2.138-1.96 4.72-4.007 7.571-9.529-.091-3.926.088-16.127-.358-17.105z"/></g><g id="3uM_Brz220_Treated_at_3_Hours"><path id="leafs_73_" d="M172.598 328.49s3.474-5.343 15.051-2.225c1.426.711 2.762 1.693 4.81 1.247 2.049-.713 5.967-2.226 13.269-1.069 1.334.802 5.256 2.673 3.831 6.414-.98 1.249-3.296 2.848-9.263-.445-2.582-1.603-4.809-3.296-8.104-2.848l-2.405.177c-1.159-.357-3.117-.177-4.632.713-2.139 1.07-7.393 3.831-10.688 2.583-1.869-.895-3.293-1.429-1.869-4.547z"/><path id="root_73_" d="M189.788 329.737s1.781-.267 2.405-.177c.179 1.958.267 9.705 0 15.498-.178 2.405.267 3.473-2.849 6.946-2.138 2.225-5.522 5.344-6.145 6.145-.802 1.606-3.206 7.48-3.385 8.64.09-3.207.178-8.194 2.761-10.417 2.138-1.962 4.72-4.009 7.571-9.533-.091-3.921.088-16.122-.358-17.102z"/></g></g><g id="Brassinosteroid_Inhibitors_at_12_Hours"><g id="10uM_Brz91_Treated_at_12_Hours" fill="#E6E7E8" stroke-width=".5" stroke="#000"><path id="leafs_63_" d="M219.877 282.139s3.474-5.344 15.051-2.225c1.426.712 2.762 1.692 4.809 1.246 2.049-.712 5.968-2.225 13.269-1.068 1.334.802 5.256 2.672 3.83 6.413-.98 1.246-3.296 2.849-9.263-.445-2.582-1.603-4.809-3.296-8.104-2.85l-2.405.178c-1.159-.358-3.118-.178-4.632.713-2.138 1.069-7.393 3.831-10.687 2.583-1.868-.894-3.292-1.428-1.868-4.545z"/><path id="root_63_" d="M237.066 283.387s1.781-.267 2.405-.177c.179 1.958.267 9.707 0 15.496-.178 2.405.267 3.473-2.849 6.946-2.138 2.225-5.522 5.347-6.145 6.148-.802 1.604-3.206 7.478-3.385 8.639.09-3.207.178-8.193 2.761-10.418 2.138-1.96 4.72-4.007 7.571-9.529-.091-3.926.089-16.127-.358-17.105z"/></g></g><g id="Ethylene_Inhibitors" fill="#E6E7E8" stroke-width=".5" stroke="#000"><g id="10uM_AgNO3_Treated"><path id="leafs_57_" d="M367.079 282.139s3.474-5.344 15.051-2.225c1.426.712 2.761 1.692 4.81 1.246 2.048-.712 5.967-2.225 13.269-1.068 1.334.802 5.256 2.672 3.831 6.413-.98 1.246-3.296 2.849-9.263-.445-2.582-1.603-4.809-3.296-8.104-2.85l-2.405.178c-1.158-.358-3.118-.178-4.631.713-2.138 1.069-7.393 3.831-10.688 2.583-1.87-.894-3.296-1.428-1.87-4.545z"/><path id="root_57_" d="M384.267 283.387s1.781-.267 2.405-.177c.178 1.958.267 9.707 0 15.496-.178 2.405.267 3.473-2.849 6.946-2.138 2.225-5.522 5.347-6.145 6.148-.802 1.604-3.206 7.478-3.385 8.639.09-3.207.179-8.193 2.761-10.418 2.138-1.96 4.721-4.007 7.571-9.529-.091-3.926.089-16.127-.358-17.105z"/></g><g id="10uM_AVG_Treated"><path id="leafs_22_" d="M367.079 328.49s3.474-5.343 15.051-2.225c1.426.711 2.761 1.693 4.81 1.247 2.048-.713 5.967-2.226 13.269-1.069 1.334.802 5.256 2.673 3.831 6.414-.98 1.249-3.296 2.848-9.263-.445-2.582-1.603-4.809-3.296-8.104-2.848l-2.405.177c-1.158-.357-3.118-.177-4.631.713-2.138 1.07-7.393 3.831-10.688 2.583-1.87-.895-3.296-1.429-1.87-4.547z"/><path id="root_22_" d="M384.267 329.737s1.781-.267 2.405-.177c.178 1.958.267 9.705 0 15.498-.178 2.405.267 3.473-2.849 6.946-2.138 2.225-5.522 5.344-6.145 6.145-.802 1.606-3.206 7.48-3.385 8.64.09-3.207.179-8.194 2.761-10.417 2.138-1.962 4.721-4.009 7.571-9.533-.091-3.921.089-16.122-.358-17.102z"/></g></g><g id="Ibuprofen_Salycylic_Acid_and_Daminozide" fill="#E6E7E8" stroke-width=".5" stroke="#000"><g id="Ibuprofen_Treated"><path id="leafs_51_" d="M608.838 87.46s3.474-5.344 15.051-2.225c1.423.712 2.761 1.692 4.806 1.245 2.052-.712 5.967-2.226 13.27-1.067 1.335.802 5.255 2.673 3.834 6.413-.98 1.246-3.295 2.849-9.263-.445-2.582-1.603-4.809-3.296-8.104-2.85l-2.409.177c-1.158-.358-3.118-.177-4.632.713-2.138 1.069-7.393 3.83-10.691 2.583-1.862-.892-3.287-1.426-1.862-4.544z"/><path id="root_51_" d="M626.027 88.708s1.78-.267 2.409-.177c.178 1.959.263 9.708 0 15.497-.18 2.404.263 3.473-2.849 6.947-2.139 2.225-5.519 5.344-6.145 6.146-.801 1.603-3.207 7.48-3.384 8.639.09-3.206.177-8.193 2.761-10.42 2.138-1.959 4.721-4.008 7.571-9.528-.096-3.924.083-16.125-.363-17.104z"/></g><g id="Daminozide_Treated"><path id="leafs_16_" d="M761.464 87.46s3.474-5.344 15.052-2.225c1.422.712 2.761 1.692 4.805 1.245 2.052-.712 5.968-2.226 13.272-1.067 1.335.802 5.254 2.673 3.832 6.413-.98 1.246-3.295 2.849-9.262-.445-2.582-1.603-4.809-3.296-8.105-2.85l-2.408.177c-1.159-.358-3.118-.177-4.631.713-2.139 1.069-7.392 3.83-10.688 2.583-1.867-.892-3.291-1.426-1.867-4.544z"/><path id="root_16_" d="M778.653 88.708s1.781-.267 2.408-.177c.178 1.959.263 9.708 0 15.497-.18 2.404.263 3.473-2.849 6.947-2.134 2.225-5.517 5.344-6.145 6.146-.801 1.603-3.207 7.48-3.384 8.639.09-3.206.177-8.193 2.761-10.42 2.139-1.959 4.721-4.008 7.571-9.528-.095-3.924.084-16.125-.362-17.104z"/></g><g id="Salicylic_Acid_Treated"><path id="leafs_45_" d="M608.838 133.813s3.474-5.344 15.051-2.225c1.423.712 2.761 1.692 4.806 1.246 2.052-.712 5.967-2.226 13.27-1.068 1.335.802 5.255 2.673 3.834 6.413-.98 1.247-3.295 2.849-9.263-.444-2.582-1.603-4.809-3.296-8.104-2.85l-2.409.177c-1.158-.358-3.118-.177-4.632.713-2.138 1.069-7.393 3.831-10.691 2.583-1.862-.894-3.287-1.429-1.862-4.545z"/><path id="root_45_" d="M626.027 135.06s1.78-.267 2.409-.177c.178 1.959.263 9.707 0 15.496-.18 2.405.263 3.473-2.849 6.947-2.139 2.225-5.519 5.343-6.145 6.145-.801 1.603-3.207 7.48-3.384 8.639.09-3.206.177-8.193 2.761-10.419 2.138-1.96 4.721-4.008 7.571-9.53-.096-3.921.083-16.122-.363-17.101z"/></g></g><g id="Proteasome_Inhibitor_MG13"><g id="10uM_MG132_Treated" fill="#E6E7E8" stroke-width=".5" stroke="#000"><path id="leafs_40_" d="M366.152 478.671s3.474-5.343 15.051-2.225c1.425.712 2.761 1.693 4.809 1.25 2.049-.712 5.968-2.226 13.269-1.068 1.335.802 5.256 2.672 3.832 6.413-.98 1.245-3.296 2.847-9.263-.445-2.582-1.607-4.81-3.296-8.104-2.849l-2.406.18c-1.158-.357-3.117-.18-4.631.712-2.14 1.066-7.393 3.831-10.688 2.58-1.869-.897-3.294-1.431-1.869-4.548z"/><path id="root_40_" d="M383.34 479.918s1.781-.267 2.406-.18c.178 1.958.266 9.708 0 15.496-.178 2.405.266 3.473-2.849 6.951-2.139 2.221-5.523 5.344-6.145 6.144-.802 1.603-3.207 7.481-3.385 8.64.09-3.207.177-8.193 2.761-10.42 2.138-1.96 4.721-4.009 7.571-9.529-.091-3.921.088-16.123-.359-17.102z"/></g></g><g id="Photosynthesis_Inhibitor_PN08_at_3_Hours" fill="#E6E7E8" stroke-width=".5" stroke="#000"><g id="1uM_PNO8_Treated_at_3_Hours"><path id="leafs_10_" d="M172.598 478.671s3.474-5.343 15.051-2.225c1.426.712 2.762 1.693 4.81 1.25 2.049-.712 5.967-2.226 13.269-1.068 1.334.802 5.256 2.672 3.831 6.413-.98 1.245-3.296 2.847-9.263-.445-2.582-1.607-4.809-3.296-8.104-2.849l-2.405.18c-1.159-.357-3.117-.18-4.632.712-2.139 1.066-7.393 3.831-10.688 2.58-1.869-.897-3.293-1.431-1.869-4.548z"/><path id="root_10_" d="M189.788 479.918s1.781-.267 2.405-.18c.179 1.958.267 9.708 0 15.496-.178 2.405.267 3.473-2.849 6.951-2.138 2.221-5.522 5.344-6.145 6.144-.802 1.603-3.206 7.481-3.385 8.64.09-3.207.178-8.193 2.761-10.42 2.138-1.96 4.72-4.009 7.571-9.529-.091-3.921.088-16.123-.358-17.102z"/></g><g id="10uM_PNO8_Treated_at_3_Hours"><path id="leafs_35_" d="M172.598 525.023s3.474-5.344 15.051-2.226c1.426.712 2.762 1.693 4.81 1.246 2.049-.711 5.967-2.225 13.269-1.064 1.334.802 5.256 2.672 3.831 6.413-.98 1.245-3.296 2.847-9.263-.449-2.582-1.603-4.809-3.292-8.104-2.847l-2.405.177c-1.159-.357-3.117-.177-4.632.713-2.139 1.069-7.393 3.83-10.688 2.583-1.869-.895-3.293-1.429-1.869-4.546z"/><path id="root_35_" d="M189.788 526.27s1.781-.263 2.405-.176c.179 1.958.267 9.708 0 15.496-.178 2.405.267 3.473-2.849 6.946-2.138 2.226-5.522 5.344-6.145 6.149-.802 1.603-3.206 7.477-3.385 8.64.09-3.207.178-8.194 2.761-10.42 2.138-1.96 4.72-4.008 7.571-9.529-.091-3.925.088-16.127-.358-17.106z"/></g><path id="arrow5" d="M205.78 502.655h7.416l-.019.542-.059 1.775 2.704-2.162-2.781-2.318.155 2.318"/></g><g id="Photosynthesis_Inhibitor_PN08_at_12_Hours"><g id="1uM_PNO8_Treated_at_12_Hours" fill="#E6E7E8" stroke-width=".5" stroke="#000"><path id="leafs_5_" d="M219.877 478.671s3.474-5.343 15.051-2.225c1.426.712 2.762 1.693 4.809 1.25 2.049-.712 5.968-2.226 13.269-1.068 1.334.802 5.256 2.672 3.83 6.413-.98 1.245-3.296 2.847-9.263-.445-2.582-1.607-4.809-3.296-8.104-2.849l-2.405.18c-1.159-.357-3.118-.18-4.632.712-2.138 1.066-7.393 3.831-10.687 2.58-1.868-.897-3.292-1.431-1.868-4.548z"/><path id="root_5_" d="M237.066 479.918s1.781-.267 2.405-.18c.179 1.958.267 9.708 0 15.496-.178 2.405.267 3.473-2.849 6.951-2.138 2.221-5.522 5.344-6.145 6.144-.802 1.603-3.206 7.481-3.385 8.64.09-3.207.178-8.193 2.761-10.42 2.138-1.96 4.72-4.009 7.571-9.529-.091-3.921.089-16.123-.358-17.102z"/></g></g><g id="Cycloheximide"><g id="10uM_CHX_Treated" fill="#E6E7E8" stroke-width=".5" stroke="#000"><path id="leafs_30_" d="M608.838 478.671s3.474-5.343 15.051-2.225c1.423.712 2.761 1.693 4.806 1.25 2.052-.712 5.967-2.226 13.27-1.068 1.335.802 5.255 2.672 3.834 6.413-.98 1.245-3.295 2.847-9.263-.445-2.582-1.607-4.809-3.296-8.104-2.849l-2.409.18c-1.158-.357-3.118-.18-4.632.712-2.138 1.066-7.393 3.831-10.691 2.58-1.862-.897-3.287-1.431-1.862-4.548z"/><path id="root_30_" d="M626.027 479.918s1.78-.267 2.409-.18c.178 1.958.263 9.708 0 15.496-.18 2.405.263 3.473-2.849 6.951-2.139 2.221-5.519 5.344-6.145 6.144-.801 1.603-3.207 7.481-3.384 8.64.09-3.207.177-8.193 2.761-10.42 2.138-1.96 4.721-4.009 7.571-9.529-.096-3.921.083-16.123-.363-17.102z"/></g></g></g><g id="Labels" font-family="'Helvetica'"><text transform="translate(91.335 36.522)" font-size="13.711">Gibberellic Acid Inhibitors</text><text transform="translate(91.335 231.199)" font-size="13.711">Brassinosteroid Inhibitors</text><text transform="translate(91.335 427.73)" font-size="13.711">Photosynthesis Inhibitor</text><text transform="translate(297.635 231.199)" font-size="13.711">Ethylene Inhibitor</text><text transform="translate(529.605 36.577)" font-size="13.711">Ibuprofen, Salycilic Acid, and Daminozide</text><text transform="translate(529.428 231.199)" font-size="13.711">Auxin Inhibitors</text><text transform="translate(529.428 427.73)" font-size="13.711">Cycloheximide</text><text transform="translate(294.767 427.73)" font-size="13.711">Proteasome Inhibitor</text><text transform="translate(91.334 57.832)" font-size="7.416">Mock Treatment</text><text transform="translate(91.334 254.832)" font-size="7.416">Mock Treatment</text><text transform="translate(297.334 254.832)" font-size="7.416">Mock Treatment</text><text transform="translate(530.334 254.832)" font-size="7.416">Mock Treatment</text><text transform="translate(91.334 452.832)" font-size="7.416">Mock Treatment</text><text transform="translate(297.334 452.832)" font-size="7.416">Mock Treatment</text><text transform="translate(530.334 452.832)" font-size="7.416">Mock Treatment</text><text transform="translate(297.334 57.832)" font-size="7.416">Mock Treatment</text><text transform="translate(529.334 57.832)" font-size="7.416">Mock Treatment</text><text transform="translate(687.334 254.832)" font-size="7.416">Mock Treatment</text><text transform="translate(686.334 57.832)" font-size="7.416">Mock Treatment</text><text transform="translate(175.497 191.866)" font-size="7.416">3 hours</text><text transform="translate(175.497 391.179)" font-size="7.416">3 hours</text><text transform="translate(175.497 583.32)" font-size="7.416">3 hours</text><text transform="translate(217.213 191.866)" font-size="7.416">12 hours</text><text transform="translate(217.213 391.179)" font-size="7.416">12 hours</text><text transform="translate(217.213 583.075)" font-size="7.416">12 hours</text><text transform="translate(412.62 191.866)" font-size="7.416">12 hours</text><text transform="translate(369.977 191.866)" font-size="7.416">3 hours</text><text transform="translate(369.977 583.075)" font-size="7.416">3 hours</text><text transform="translate(369.977 391.179)" font-size="7.416">3 hours</text><text transform="translate(611.737 391.179)" font-size="7.416">3 hours</text><text transform="translate(611.737 191.866)" font-size="7.416">3 hours</text><text transform="translate(767.144 191.866)" font-size="7.416">3 hours</text><text transform="translate(611.737 583.075)" font-size="7.416">3 hours</text><text transform="translate(766.217 391.179)" font-size="7.416">3 hours</text><text transform="translate(91.334 86.88)" font-size="7.416">10um propiconzazole</text><text transform="translate(91.334 95.78)" font-size="7.416">(GA biosynthesis</text><text transform="translate(91.334 104.677)" font-size="7.416">inhibitor)</text><text transform="translate(91.643 133.849)" font-size="7.416">10uM uniconazole</text><text transform="translate(91.643 142.748)" font-size="7.416">(GA biosynthesis</text><text transform="translate(91.643 151.649)" font-size="7.416">inhibitor)</text><text transform="translate(203.449 298.382)" font-size="7.416">(Brz91)</text><text transform="translate(91.643 289.3)" font-size="7.416">10 uM brassinazole</text><text transform="translate(91.643 298.2)" font-size="7.416">(Brz220)</text><text transform="translate(91.643 307.1)" font-size="7.416">BS biosynthesis</text><text transform="translate(91.643 316)" font-size="7.416">inhibitor</text><text transform="translate(91.643 479.53)" font-size="7.416">1uM PN08</text><text transform="translate(91.643 488.429)" font-size="7.416">(N-octyl-3-nitro- </text><text transform="translate(91.643 497.33)" font-size="7.416">2,4,6-trihydroxy </text><text transform="translate(91.643 506.229)" font-size="7.416">benzamide) </text><text transform="translate(91.643 515.128)" font-size="7.416">PII inhibitor</text><text transform="translate(91.643 533.54)" font-size="7.416">10uM PN08</text><text transform="translate(91.643 542.438)" font-size="7.416">(N-octyl-3-nitro- </text><text transform="translate(91.643 551.339)" font-size="7.416">2,4,6-trihydroxy </text><text transform="translate(91.643 560.237)" font-size="7.416">benzamide) </text><text transform="translate(91.643 569.138)" font-size="7.416">PII inhibitor</text><text transform="translate(293.305 480.008)" font-size="7.416">10uM MG132</text><text transform="translate(293.305 488.906)" font-size="7.416">(carbobenzoxyl-</text><text transform="translate(293.305 497.807)" font-size="7.416">leucinyl-leucinyl-</text><text transform="translate(293.305 506.706)" font-size="7.416">leucinal)</text><text transform="translate(296.173 289.3)" font-size="7.416">10uM AgNO3</text><text transform="translate(296.173 298.2)" font-size="7.416">(EI)</text><text transform="translate(528.902 290.257)" font-size="7.416">10uM 2,4,6-T</text><text transform="translate(528.902 299.156)" font-size="7.416">(2,4,6-trihydro-</text><text transform="translate(528.902 308.057)" font-size="7.416">xybenzamide)</text><text transform="translate(688.138 290.257)" font-size="7.416">10uM TIBA</text><text transform="translate(688.138 299.156)" font-size="7.416">(2,3,5-triiodo</text><text transform="translate(688.138 308.057)" font-size="7.416">benzoic acid)</text><text transform="translate(688.138 316.955)" font-size="7.416">(A transport I)</text><text transform="translate(688.138 338.531)" font-size="7.416">10uM NPA</text><text transform="translate(688.138 347.43)" font-size="7.416">(naphthylphthalmic</text><text transform="translate(688.138 356.33)" font-size="7.416">acid)</text><text transform="translate(528.902 341.877)" font-size="7.416">10uM PCIB</text><text transform="translate(528.902 350.776)" font-size="7.416">(p-chloropheno</text><text transform="translate(528.902 359.676)" font-size="7.416">xyisobutric acid)</text><text transform="translate(530.814 477.14)" font-size="7.416">10uM CHX</text><text transform="translate(530.814 486.04)" font-size="7.416">(cycloheximide) </text><text transform="translate(295.217 341.399)" font-size="7.416">10uM AVG</text><text transform="translate(295.217 350.298)" font-size="7.416">(EI)</text><text transform="translate(91.643 341.877)" font-size="7.416">3 uM brassinazole</text><text transform="translate(91.643 350.776)" font-size="7.416">(Brz220)</text><text transform="translate(91.643 359.676)" font-size="7.416">BS biosynthesis</text><text transform="translate(91.643 368.575)" font-size="7.416">inhibitor</text><text transform="translate(299.18 87.497)" font-size="7.416">10 uM pacio-</text><text transform="translate(528.262 87.497)" font-size="7.416">10 uM ibuprofen</text><text transform="translate(685.887 87.497)" font-size="7.416">10 uM daminozide</text><text transform="translate(528.262 136.727)" font-size="7.416">10 uM salicylic acid</text><text transform="translate(299.18 96.396)" font-size="7.416">butrazol</text><text transform="translate(299.18 105.296)" font-size="7.416">(GA biosynthesis</text><text transform="translate(299.18 114.195)" font-size="7.416">inhibitor)</text><text transform="translate(298.562 133.849)" font-size="7.416">10UM pro-</text><text transform="translate(298.562 142.748)" font-size="7.416">hexadione</text><text transform="translate(298.562 151.649)" font-size="7.416">(GA biosynthesis</text><text transform="translate(298.562 160.547)" font-size="7.416">inhibitor)</text></g></svg>