<svg xmlns="http://www.w3.org/2000/svg" xml:space="preserve" id="Chemical_svg" x="0" y="0" version="1.1" viewBox="65 10 715.2 562.4" author="Provart Lab - Bio Analytic Resource, University of Toronto">
  &gt;
  <g id="Outlines" transform="translate(-23 -14)">
    <g id="g78" fill="none">
      <path id="path2" stroke="#000" stroke-width=".5" d="M253 132c-7-1-11 0-13 1l-5-1c-12-4-15 2-15 2-2 3 0 3 2 4 3 2 8-1 10-2l5-1v17c-2 6-5 8-7 10-3 2-3 7-3 10l3-9 7-6c3-3 2-4 2-7v-15c4-1 6 1 9 3 6 3 8 1 9 0 1-4-3-5-4-6z"/>
      <path id="path4" stroke="#000" stroke-width=".5" d="M253 85c-7-1-11 1-13 1-2 1-4 0-5-1-12-3-15 2-15 2-2 4 0 4 2 5 3 1 8-2 10-3h5v17c-2 5-5 7-7 9-3 3-3 8-3 11l3-9 7-6c3-3 2-5 2-7V89c4-1 6 1 9 2 6 4 8 2 9 1 1-4-3-6-4-7z"/>
      <path id="path6" stroke="#000" stroke-width=".5" d="M447 132c-8-1-12 0-14 1l-5-1c-11-4-15 2-15 2-1 3 0 3 2 4 4 2 9-1 11-2l5-1v17c-3 6-5 8-8 10-2 2-2 7-2 10l3-9 6-6c3-3 3-4 3-7v-15c3-1 6 1 8 3 6 3 8 1 9 0 2-4-2-5-3-6z"/>
      <path id="path8" stroke="#000" stroke-width=".5" d="M447 85c-8-1-12 1-14 1-2 1-3 0-5-1-11-3-15 2-15 2-1 4 0 4 2 5 4 1 9-2 11-3h5v17c-3 5-5 7-8 9-2 3-2 8-2 11l3-9 6-6c3-3 3-5 3-7V89c3-1 6 1 8 2 6 4 8 2 9 1 2-4-2-6-3-7z"/>
      <path id="path10" stroke="#000" stroke-width=".5" d="M174 138c4 2 9-1 11-2l5-1v17l-7 10c-3 2-3 7-3 10l3-9 6-6c3-3 3-4 3-7v-15c3-1 6 1 8 3 6 3 9 1 10 0 1-4-3-5-4-6-8-1-11 0-14 1l-4-1c-12-4-15 2-15 2-2 3 0 3 1 4z"/>
      <path id="path12" stroke="#000" stroke-width=".5" d="M174 92c4 1 9-2 11-3h5v17l-7 9c-3 3-3 8-3 11l3-9 6-6c3-3 3-5 3-7V89c3-1 6 1 8 2 6 4 9 2 10 1 1-4-3-6-4-7-8-1-11 1-14 1-2 1-3 0-4-1-12-3-15 2-15 2-2 4 0 4 1 5z"/>
      <path id="path14" stroke="#000" stroke-width=".5" d="M369 138c3 2 8-1 11-2l4-1 1 17c-3 6-6 8-8 10-3 2-3 7-3 10l4-9 6-6c3-3 2-4 3-7v-15c3-1 5 1 8 3 6 3 8 1 9 0 1-4-2-5-4-6-7-1-11 0-13 1l-5-1c-11-4-15 2-15 2-1 3 0 3 2 4z"/>
      <path id="path16" stroke="#000" stroke-width=".5" d="M369 92c3 1 8-2 11-3h4l1 17c-3 5-6 7-8 9-3 3-3 8-3 11l4-9 6-6c3-3 2-5 3-7V89c3-1 5 1 8 2 6 4 8 2 9 1 1-4-2-6-4-7-7-1-11 1-13 1-2 1-3 0-5-1-11-3-15 2-15 2-1 4 0 4 2 5z"/>
      <path id="polygon18" stroke="#000" stroke-width=".5" d="M409 158v2l2-2-3-2 1 2z"/>
      <path id="polygon20" stroke="#000" stroke-width=".5" d="M401 158h8z"/>
      <path id="polygon22" stroke="#000" stroke-width=".5" d="m401 111 8 1v-1z"/>
      <path id="polygon24" stroke="#000" stroke-width=".5" d="M409 112v2l2-2-3-3 1 2v1z"/>
      <path id="polygon26" stroke="#000" stroke-width=".5" d="M206 158h7z"/>
      <path id="polygon28" stroke="#000" stroke-width=".5" d="M213 158v2l3-2-3-2v2z"/>
      <path id="polygon30" stroke="#000" stroke-width=".5" d="M213 112v2l3-2-3-3v3z"/>
      <path id="polygon32" stroke="#000" stroke-width=".5" d="m206 111 7 1v-1z"/>
      <path id="path34" stroke="#000" stroke-width=".5" d="M642 326c-7-1-11 1-13 2l-5-2c-12-3-15 2-15 2-2 4 0 4 2 5 3 1 8-1 10-3h5v17c-2 5-5 7-7 9-3 3-3 8-3 11l3-9 7-6c3-3 2-5 2-7v-15c4-1 6 1 9 2 6 4 8 2 9 1 1-4-3-6-4-7z"/>
      <path id="path36" stroke="#000" stroke-width=".5" d="M642 280c-7-1-11 0-13 1s-4 0-5-1c-12-3-15 2-15 2-2 3 0 4 2 5 3 1 8-2 10-3l5-1v17c-2 6-5 8-7 10-3 2-3 7-3 10l3-8 7-6c3-4 2-5 2-7v-16c4 0 6 1 9 3 6 3 8 2 9 1 1-4-3-6-4-7z"/>
      <path id="path38" stroke="#000" stroke-width=".5" d="M796 325c-8-2-12 0-14 1l-5-2c-11-3-15 3-15 3-1 3 0 3 2 4 4 1 9-1 11-2l5-1v17c-3 6-5 8-8 10-2 2-2 7-2 10l3-9 6-6c3-3 3-4 3-7v-15c3-1 6 1 8 3 6 3 8 1 9 0 2-4-2-6-3-6z"/>
      <path id="path40" stroke="#000" stroke-width=".5" d="M790 286c6 3 8 2 9 1 2-4-2-6-3-7-8-1-12 0-14 1s-3 0-5-1c-11-3-15 2-15 2-1 3 0 4 2 5 4 1 9-2 11-3l5-1v17c-3 6-5 8-8 10-2 2-2 7-2 10l3-8 6-6c3-4 3-5 3-7v-16c3 0 6 1 8 3z"/>
      <path id="path42" stroke="#000" stroke-width=".5" d="M174 287c4 1 9-2 11-3l5-1v17l-7 10c-3 2-3 7-3 10v-2 2l1 4-1-6 1-1 1 2v2l-1-4 2-5 2-2 1 3-1-3 4-4c3-4 3-5 3-7v-16c3 0 6 1 8 3 6 3 9 2 10 1 1-4-3-6-4-7-8-1-11 0-14 1-2 1-3 0-4-1-12-3-15 2-15 2-2 3 0 4 1 5z"/>
      <path id="path44" stroke="#000" stroke-width=".5" d="m179 313 4-4-4 4z"/>
      <path id="path46" stroke="#000" stroke-width=".5" d="m183 312 1 5-1-5z"/>
      <path id="path48" stroke="#000" stroke-width=".5" d="M179 316v2l1-3-1 1z"/>
      <path id="path50" stroke="#000" stroke-width=".5" d="M174 333c4 1 9-1 11-3h5v17l-7 9c-3 3-3 8-3 11l3-9 6-6c3-3 3-5 3-7v-15c3-1 6 1 8 2 6 4 9 2 10 1 1-4-3-6-4-7-8-1-11 1-14 2l-4-2c-12-3-15 2-15 2-2 4 0 4 1 5z"/>
      <path id="path52" stroke="#000" stroke-width=".5" d="M253 280c-7-1-11 0-13 1s-4 0-5-1c-12-3-15 2-15 2-2 3 0 4 2 5 3 1 8-2 10-3l5-1v17c-2 6-5 8-7 10-3 2-3 7-3 10l3-8 7-6c3-4 2-5 2-7v-16c4 0 6 1 9 3 6 3 8 2 9 1 1-4-3-6-4-7z"/>
      <path id="path54" stroke="#000" stroke-width=".5" d="M400 280c-7-1-11 0-13 1s-3 0-5-1c-11-3-15 2-15 2-1 3 0 4 2 5 3 1 8-2 11-3l4-1 1 17c-3 6-6 8-8 10-3 2-3 7-3 10l4-8 6-6c3-4 2-5 3-7v-16c3 0 5 1 8 3 6 3 8 2 9 1 1-4-2-6-4-7z"/>
      <path id="path56" stroke="#000" stroke-width=".5" d="M400 326c-7-1-11 1-13 2l-5-2c-11-3-15 2-15 2-1 4 0 4 2 5 3 1 8-1 11-3h4l1 17c-3 5-6 7-8 9-3 3-3 8-3 11l4-9 6-6c3-3 2-5 3-7v-15c3-1 5 1 8 2 6 4 8 2 9 1 1-4-2-6-4-7z"/>
      <path id="path58" stroke="#000" stroke-width=".5" d="M642 85c-7-1-11 1-13 1-2 1-4 0-5-1-12-3-15 2-15 2-2 4 0 4 2 5 3 1 8-2 10-3h5v17c-2 5-5 7-7 9-3 3-3 8-3 11l3-9 7-6c3-3 2-5 2-7V89c4-1 6 1 9 2 6 4 8 2 9 1 1-4-3-6-4-7z"/>
      <path id="path60" stroke="#000" stroke-width=".5" d="M774 89h5v17c-3 5-5 7-8 9-2 3-2 8-2 11l3-9 6-6c3-3 3-5 3-7V89c3-1 6 1 8 2 6 4 8 2 9 1 2-4-2-6-3-7-8-1-12 1-14 1-2 1-3 0-4-1-12-3-16 2-16 2-1 4 0 4 2 5 4 1 9-2 11-3z"/>
      <path id="path62" stroke="#000" stroke-width=".5" d="M642 132c-7-1-11 0-13 1l-5-1c-12-4-15 2-15 2-2 3 0 3 2 4 3 2 8-1 10-2l5-1v17c-2 6-5 8-7 10-3 2-3 7-3 10l3-9 7-6c3-3 2-4 2-7v-15c4-1 6 1 9 3 6 3 8 1 9 0 1-4-3-5-4-6z"/>
      <path id="path64" stroke="#000" stroke-width=".5" d="M399 477c-7-2-11 0-13 1l-5-2c-11-3-15 3-15 3-1 3 0 3 2 4 3 1 9-1 11-2l4-1 1 17c-3 6-6 8-8 10s-3 7-3 10l4-9 6-6c3-3 3-4 3-7v-15c3-1 5 1 8 3 6 3 8 1 9 0 2-4-2-6-4-6z"/>
      <path id="path66" d="M174 483c4 1 9-1 11-2l5-1v17l-7 10c-3 2-3 7-3 10l3-9 6-6c3-3 3-4 3-7v-15c3-1 6 1 8 3 6 3 9 1 10 0 1-4-3-6-4-6-8-2-11 0-14 1l-4-2c-12-3-15 3-15 3-2 3 0 3 1 4z"/>
      <path id="path68" stroke="#000" stroke-width=".5" d="M206 523c-8-1-11 0-14 1l-4-1c-12-3-15 2-15 2-2 3 0 4 1 5 4 1 9-2 11-3l5-1v17l-7 10c-3 2-3 7-3 10l3-8 6-6c3-4 3-5 3-7v-16c3 0 6 1 8 3 6 3 9 2 10 0 1-3-3-5-4-6z"/>
      <path id="polygon70" stroke="#000" stroke-width=".5" d="M206 503h7z"/>
      <path id="polygon72" stroke="#000" stroke-width=".5" d="M213 503v2l3-2-3-3v3z"/>
      <path id="path74" stroke="#000" stroke-width=".5" d="M253 477c-7-2-11 0-13 1l-5-2c-12-3-15 3-15 3-2 3 0 3 2 4 3 1 8-1 10-2l5-1v17c-2 6-5 8-7 10-3 2-3 7-3 10l3-9 7-6c3-3 2-4 2-7v-15c4-1 6 1 9 3 6 3 8 1 9 0 1-4-3-6-4-6z"/>
      <path id="path76" stroke="#000" stroke-width=".5" d="M642 477c-7-2-11 0-13 1l-5-2c-12-3-15 3-15 3-2 3 0 3 2 4 3 1 8-1 10-2l5-1v17c-2 6-5 8-7 10-3 2-3 7-3 10l3-9 7-6c3-3 2-4 2-7v-15c4-1 6 1 9 3 6 3 8 1 9 0 1-4-3-6-4-6z"/>
    </g>
  </g>
  <g id="Shapes" transform="translate(-23 -14)">
    <g id="Control_at_12_Hours" fill="#e6e7e8" stroke="#000" stroke-width=".5">
      <g id="leafs">
        <path id="path81" d="M232 52c2 1 4 0 6-1h2l1-1 5 2c3 2 4 1 5 0 1-2-1-3-2-3h-10c-6-2-8 1-8 1-1 2 0 2 1 2z"/>
        <path id="path83" d="M249 244h-10c-6-2-8 1-8 1-1 2 0 2 1 2 2 1 4 0 6-1h2l1-1 5 2c3 2 4 1 5 0 1-2-1-3-2-3z"/>
        <path id="path85" d="M249 440h-10c-6-2-8 1-8 1-1 2 0 2 1 2 2 1 4 0 6-1h2l1-1 5 2c3 2 4 1 5 0 1-2-1-3-2-3z"/>
      </g>
      <g id="root">
        <path id="path88" d="M240 63c2-2 1-3 1-4v-9l-1 1v9c-1 3-3 4-4 5l-1 6 2-5 3-3z"/>
        <path id="path90" d="M240 246v9c-1 3-3 4-4 5l-1 6 2-5 3-3c2-2 1-3 1-4v-9l-1 1z"/>
        <path id="path92" d="M240 442v9c-1 3-3 4-4 5l-1 6 2-5 3-3c2-2 1-3 1-4v-9l-1 1z"/>
      </g>
    </g>
    <g id="Control_at_3_Hours" fill="#e6e7e8" stroke="#000" stroke-width=".5">
      <g id="g118">
        <path id="path96" d="M202 49h-10c-7-2-9 1-9 1l1 2c2 1 5 0 6-1h3l1-1 5 2c3 2 4 1 5 0 0-2-2-3-2-3z"/>
        <path id="path98" d="M202 244h-10c-7-2-9 1-9 1l1 2c2 1 5 0 6-1h3l1-1 5 2c3 2 4 1 5 0 0-2-2-3-2-3z"/>
        <path id="path100" d="M202 440h-10c-7-2-9 1-9 1l1 2c2 1 5 0 6-1h3l1-1 5 2c3 2 4 1 5 0 0-2-2-3-2-3z"/>
        <path id="path102" d="M396 49h-10c-7-2-9 1-9 1l1 2c2 1 5 0 6-1h3l1-1 5 2c3 2 4 1 5 0 0-2-2-3-2-3z"/>
        <path id="path104" d="M396 244h-10c-7-2-9 1-9 1l1 2c2 1 5 0 6-1h3l1-1 5 2c3 2 4 1 5 0 0-2-2-3-2-3z"/>
        <path id="path106" d="M396 440h-10c-7-2-9 1-9 1l1 2c2 1 5 0 6-1h3l1-1 5 2c3 2 4 1 5 0 0-2-2-3-2-3z"/>
        <path id="path108" d="M636 49h-10c-7-2-9 1-9 1l1 2c2 1 5 0 6-1h3l1-1 5 2c3 2 4 1 5 0 0-2-2-3-2-3z"/>
        <path id="path110" d="M636 244h-10c-7-2-9 1-9 1l1 2c2 1 5 0 6-1h3l1-1 5 2c3 2 4 1 5 0 0-2-2-3-2-3z"/>
        <path id="path112" d="M636 440h-10c-7-2-9 1-9 1l1 2c2 1 5 0 6-1h3l1-1 5 2c3 2 4 1 5 0 0-2-2-3-2-3z"/>
        <path id="path114" d="M771 52c2 1 5 0 6-1h3l1-1 5 2c3 2 4 1 5 0 0-2-2-3-2-3h-10c-7-2-9 1-9 1l1 2z"/>
        <path id="path116" d="M789 244h-10c-7-2-9 1-9 1l1 2c2 1 5 0 6-1h3l1-1 5 2c3 2 4 1 5 0 0-2-2-3-2-3z"/>
      </g>
      <g id="g142">
        <path id="path120" d="M193 51v9c-1 3-3 4-4 5l-2 6 2-5 4-3 1-4v-9l-1 1z"/>
        <path id="path122" d="M193 246v9c-1 3-3 4-4 5l-2 6 2-5 4-3 1-4v-9l-1 1z"/>
        <path id="path124" d="M193 442v9c-1 3-3 4-4 5l-2 6 2-5 4-3 1-4v-9l-1 1z"/>
        <path id="path126" d="M387 51v9c-1 3-3 4-4 5l-2 6 2-5 4-3 1-4v-9l-1 1z"/>
        <path id="path128" d="M387 246v9c-1 3-3 4-4 5l-2 6 2-5 4-3 1-4v-9l-1 1z"/>
        <path id="path130" d="M387 442v9c-1 3-3 4-4 5l-2 6 2-5 4-3 1-4v-9l-1 1z"/>
        <path id="path132" d="M627 51v9c-1 3-3 4-4 5l-2 6 2-5 4-3 1-4v-9l-1 1z"/>
        <path id="path134" d="M627 246v9c-1 3-3 4-4 5l-2 6 2-5 4-3 1-4v-9l-1 1z"/>
        <path id="path136" d="M627 442v9c-1 3-3 4-4 5l-2 6 2-5 4-3 1-4v-9l-1 1z"/>
        <path id="path138" d="m780 63 1-4v-9l-1 1v9c-1 3-3 4-4 5l-2 6 2-5 4-3z"/>
        <path id="path140" d="M780 246v9c-1 3-3 4-4 5l-2 6 2-5 4-3 1-4v-9l-1 1z"/>
      </g>
    </g>
    <g id="Gibberellic_Acid_Inhibitors_at_12_Hours" fill="#e6e7e8" stroke="#000" stroke-width=".5">
      <g id="Uniconazole_Treated_at_12_Hours">
        <path id="leafs_70_" d="M220 134s3-6 15-2l5 1c2-1 6-2 13-1 1 1 5 2 4 6-1 1-3 3-9 0-3-2-5-4-9-3h-2l-5 1c-2 1-7 4-10 2-2-1-4-1-2-4z"/>
        <path id="root_70_" d="M237 135h2v15c0 3 1 4-2 7l-7 6-3 9c0-3 0-8 3-10 2-2 5-4 7-10v-17z"/>
      </g>
      <g id="Propiconazole_Treated_at_12_Hours">
        <path id="leafs_104_" d="M220 87s3-5 15-2c1 1 3 2 5 1 2 0 6-2 13-1 1 1 5 3 4 7-1 1-3 3-9-1-3-1-5-3-9-2h-7c-2 1-7 4-10 3-2-1-4-1-2-5z"/>
        <path id="root_104_" d="M237 89h2v15c0 2 1 4-2 7l-7 6-3 9c0-3 0-8 3-11 2-2 5-4 7-9V89z"/>
      </g>
      <g id="Prohexadione_Treated_at_12_Hours">
        <path id="leafs_67_" d="M413 134s4-6 15-2l5 1c2-1 6-2 14-1 1 1 5 2 3 6-1 1-3 3-9 0-2-2-5-4-8-3h-2l-5 1c-2 1-7 4-11 2-2-1-3-1-2-4z"/>
        <path id="root_67_" d="M431 135h2v15c0 3 0 4-3 7l-6 6-3 9c0-3 0-8 2-10 3-2 5-4 8-10v-17z"/>
      </g>
      <g id="Paclobutrazol_Treated_at_12_Hours">
        <path id="leafs_102_" d="M413 87s4-5 15-2c2 1 3 2 5 1 2 0 6-2 14-1 1 1 5 3 3 7-1 1-3 3-9-1-2-1-5-3-8-2h-7c-2 1-7 4-11 3-2-1-3-1-2-5z"/>
        <path id="root_102_" d="M431 89h2v15c0 2 0 4-3 7l-6 6-3 9c0-3 0-8 2-11 3-2 5-4 8-9V89z"/>
      </g>
    </g>
    <g id="Gibberellic_Acid_Inhibitors_at_3_Hours" fill="#e6e7e8" stroke="#000" stroke-width=".5">
      <g id="Uniconazole_Treated_at_3_Hours">
        <path id="leafs_60_" d="M173 134s3-6 15-2l4 1c3-1 6-2 14-1 1 1 5 2 4 6-1 1-4 3-10 0-2-2-5-4-8-3h-2l-5 1c-2 1-7 4-11 2-1-1-3-1-1-4z"/>
        <path id="root_60_" d="M190 135h2v15c0 3 0 4-3 7l-6 6-3 9c0-3 0-8 3-10l7-10v-17z"/>
      </g>
      <g id="Propiconazole_Treated_at_3_Hours">
        <path id="leafs_97_" d="M173 87s3-5 15-2c1 1 2 2 4 1 3 0 6-2 14-1 1 1 5 3 4 7-1 1-4 3-10-1-2-1-5-3-8-2h-7c-2 1-7 4-11 3-1-1-3-1-1-5z"/>
        <path id="root_97_" d="M190 89h2v15c0 2 0 4-3 7l-6 6-3 9c0-3 0-8 3-11l7-9V89z"/>
      </g>
      <g id="Prohexadione_Treated_at_3_Hours">
        <path id="leafs_52_" d="M367 134s4-6 15-2l5 1c2-1 6-2 13-1 2 1 5 2 4 6-1 1-3 3-9 0-3-2-5-4-8-3h-3l-4 1c-3 1-8 4-11 2-2-1-3-1-2-4z"/>
        <path id="root_52_" d="M384 135h3v15c-1 3 0 4-3 7l-6 6-4 9c0-3 0-8 3-10 2-2 5-4 8-10l-1-17z"/>
      </g>
      <g id="Paclobutrazol_Treated_at_3_Hours">
        <path id="leafs_92_" d="M367 87s4-5 15-2c2 1 3 2 5 1 2 0 6-2 13-1 2 1 5 3 4 7-1 1-3 3-9-1-3-1-5-3-8-2h-7c-3 1-8 4-11 3-2-1-3-1-2-5z"/>
        <path id="root_92_" d="M384 89h3v15c-1 2 0 4-3 7l-6 6-4 9c0-3 0-8 3-11 2-2 5-4 8-9l-1-17z"/>
      </g>
      <g id="arrows">
        <path id="arrow4" d="M401 158h8v2l2-2-3-2 1 2"/>
        <path id="arrow3" d="M401 111h8v3l2-2-3-3 1 3"/>
        <path id="arrow2" d="M206 158h7v2l3-2-3-2v2"/>
        <path id="arrow1" d="M206 111h7v3l3-2-3-3v3"/>
      </g>
    </g>
    <g id="Auxin_Inhibitors" fill="#e6e7e8" stroke="#000" stroke-width=".5">
      <g id="PCIB_Treated">
        <path id="leafs_90_" d="M609 328s3-5 15-2l5 2c2-1 6-3 13-2 1 1 5 3 4 7-1 1-3 3-9-1-3-1-5-3-9-2h-7c-2 2-7 4-10 3-2-1-4-1-2-5z"/>
        <path id="root_90_" d="M626 330h2v15c0 2 1 4-2 7l-7 6-3 9c0-3 0-8 3-11 2-2 5-4 7-9v-17z"/>
      </g>
      <g id="2_4_6-T_Treated">
        <path id="leafs_47_" d="M609 282s3-5 15-2c1 1 3 2 5 1s6-2 13-1c1 1 5 3 4 7-1 1-3 2-9-1-3-2-5-3-9-3h-2l-5 1c-2 1-7 4-10 3-2-1-4-2-2-5z"/>
        <path id="root_47_" d="M626 283h2v16c0 2 1 3-2 7l-7 6-3 8c0-3 0-8 3-10 2-2 5-4 7-10v-17z"/>
      </g>
      <g id="NPA_Treated">
        <path id="leafs_87_" d="M762 327s4-6 15-3l5 2c2-1 6-3 14-1 1 0 5 2 3 6-1 1-3 3-9 0-2-2-5-4-8-3h-2l-5 1c-2 1-7 3-11 2-2-1-3-1-2-4z"/>
        <path id="root_87_" d="M780 328h2v15c0 3 0 4-3 7l-6 6-3 9c0-3 0-8 2-10 3-2 5-4 8-10v-17z"/>
      </g>
      <g id="TIBA_Treated">
        <path id="leafs_43_" d="M762 282s4-5 15-2c2 1 3 2 5 1s6-2 14-1c1 1 5 3 3 7-1 1-3 2-9-1-2-2-5-3-8-3h-2l-5 1c-2 1-7 4-11 3-2-1-3-2-2-5z"/>
        <path id="root_43_" d="M780 283h2v16c0 2 0 3-3 7l-6 6-3 8c0-3 0-8 2-10 3-2 5-4 8-10v-17z"/>
      </g>
    </g>
    <g id="Brassinosteroid_Inhibitors_at_3_Hours" fill="#e6e7e8" stroke="#000" stroke-width=".5">
      <g id="10uM_Brz220_Treated_at_3_Hours">
        <path id="leafs_36_" d="M173 282s3-5 15-2c1 1 2 2 4 1 3-1 6-2 14-1 1 1 5 3 4 7-1 1-4 2-10-1-2-2-5-3-8-3h-2l-5 1c-2 1-7 4-11 3-1-1-3-2-1-5z"/>
        <path id="root_36_" d="M190 283h2v16c0 2 0 3-3 7l-6 6-3 8c0-3 0-8 3-10l7-10v-17z"/>
      </g>
      <g id="3uM_Brz220_Treated_at_3_Hours">
        <path id="leafs_73_" d="M173 328s3-5 15-2l4 2c3-1 6-3 14-2 1 1 5 3 4 7-1 1-4 3-10-1-2-1-5-3-8-2h-7c-2 2-7 4-11 3-1-1-3-1-1-5z"/>
        <path id="root_73_" d="M190 330h2v15c0 2 0 4-3 7l-6 6-3 9c0-3 0-8 3-11l7-9v-17z"/>
      </g>
    </g>
    <g id="Brassinosteroid_Inhibitors_at_12_Hours">
      <g id="10uM_Brz91_Treated_at_12_Hours" fill="#e6e7e8" stroke="#000" stroke-width=".5">
        <path id="leafs_63_" d="M220 282s3-5 15-2c1 1 3 2 5 1s6-2 13-1c1 1 5 3 4 7-1 1-3 2-9-1-3-2-5-3-9-3h-2l-5 1c-2 1-7 4-10 3-2-1-4-2-2-5z"/>
        <path id="root_63_" d="M237 283h2v16c0 2 1 3-2 7l-7 6-3 8c0-3 0-8 3-10 2-2 5-4 7-10v-17z"/>
      </g>
    </g>
    <g id="Ethylene_Inhibitors" fill="#e6e7e8" stroke="#000" stroke-width=".5">
      <g id="10uM_AgNO3_Treated">
        <path id="leafs_57_" d="M367 282s4-5 15-2c2 1 3 2 5 1s6-2 13-1c2 1 5 3 4 7-1 1-3 2-9-1-3-2-5-3-8-3h-3l-4 1c-3 1-8 4-11 3-2-1-3-2-2-5z"/>
        <path id="root_57_" d="M384 283h3v16c-1 2 0 3-3 7l-6 6-4 8c0-3 0-8 3-10 2-2 5-4 8-10l-1-17z"/>
      </g>
      <g id="10uM_AVG_Treated">
        <path id="leafs_22_" d="M367 328s4-5 15-2l5 2c2-1 6-3 13-2 2 1 5 3 4 7-1 1-3 3-9-1-3-1-5-3-8-2h-7c-3 2-8 4-11 3-2-1-3-1-2-5z"/>
        <path id="root_22_" d="M384 330h3v15c-1 2 0 4-3 7l-6 6-4 9c0-3 0-8 3-11 2-2 5-4 8-9l-1-17z"/>
      </g>
    </g>
    <g id="Ibuprofen_Salycylic_Acid_and_Daminozide" fill="#e6e7e8" stroke="#000" stroke-width=".5">
      <g id="Ibuprofen_Treated">
        <path id="leafs_51_" d="M609 87s3-5 15-2c1 1 3 2 5 1 2 0 6-2 13-1 1 1 5 3 4 7-1 1-3 3-9-1-3-1-5-3-9-2h-7c-2 1-7 4-10 3-2-1-4-1-2-5z"/>
        <path id="root_51_" d="M626 89h2v15c0 2 1 4-2 7l-7 6-3 9c0-3 0-8 3-11 2-2 5-4 7-9V89z"/>
      </g>
      <g id="Daminozide_Treated">
        <path id="leafs_16_" d="M761 87s4-5 16-2c1 1 2 2 4 1 2 0 6-2 14-1 1 1 5 3 3 7-1 1-3 3-9-1-2-1-5-3-8-2h-7c-2 1-7 4-11 3-2-1-3-1-2-5z"/>
        <path id="root_16_" d="M779 89h2v15c0 2 0 4-3 7l-6 6-3 9c0-3 0-8 2-11 3-2 5-4 8-9V89z"/>
      </g>
      <g id="Salicylic_Acid_Treated">
        <path id="leafs_45_" d="M609 134s3-6 15-2l5 1c2-1 6-2 13-1 1 1 5 2 4 6-1 1-3 3-9 0-3-2-5-4-9-3h-2l-5 1c-2 1-7 4-10 2-2-1-4-1-2-4z"/>
        <path id="root_45_" d="M626 135h2v15c0 3 1 4-2 7l-7 6-3 9c0-3 0-8 3-10 2-2 5-4 7-10v-17z"/>
      </g>
    </g>
    <g id="Proteasome_Inhibitor_MG13">
      <g id="10uM_MG132_Treated" fill="#e6e7e8" stroke="#000" stroke-width=".5">
        <path id="leafs_40_" d="M366 479s4-6 15-3l5 2c2-1 6-3 13-1 2 0 6 2 4 6-1 1-3 3-9 0-3-2-5-4-8-3h-3l-4 1c-2 1-8 3-11 2-2-1-3-1-2-4z"/>
        <path id="root_40_" d="M383 480h3v15c0 3 0 4-3 7l-6 6-4 9c0-3 1-8 3-10s5-4 8-10l-1-17z"/>
      </g>
    </g>
    <g id="Photosynthesis_Inhibitor_PN08_at_3_Hours" fill="#e6e7e8" stroke="#000" stroke-width=".5">
      <g id="1uM_PNO8_Treated_at_3_Hours">
        <path id="leafs_10_" d="M173 479s3-6 15-3l4 2c3-1 6-3 14-1 1 0 5 2 4 6-1 1-4 3-10 0-2-2-5-4-8-3h-2l-5 1c-2 1-7 3-11 2-1-1-3-1-1-4z"/>
        <path id="root_10_" d="M190 480h2v15c0 3 0 4-3 7l-6 6-3 9c0-3 0-8 3-10l7-10v-17z"/>
      </g>
      <g id="10uM_PNO8_Treated_at_3_Hours">
        <path id="leafs_35_" d="M173 525s3-5 15-2l4 1c3-1 6-2 14-1 1 1 5 3 4 6-1 2-4 3-10 0-2-2-5-3-8-3h-2l-5 1c-2 1-7 4-11 3-1-1-3-2-1-5z"/>
        <path id="root_35_" d="M190 526h2v16c0 2 0 3-3 7l-6 6-3 8c0-3 0-8 3-10l7-10v-17z"/>
      </g>
      <path id="arrow5" d="M206 503h7v2l3-2-3-3v3"/>
    </g>
    <g id="Photosynthesis_Inhibitor_PN08_at_12_Hours">
      <g id="1uM_PNO8_Treated_at_12_Hours" fill="#e6e7e8" stroke="#000" stroke-width=".5">
        <path id="leafs_5_" d="M220 479s3-6 15-3l5 2c2-1 6-3 13-1 1 0 5 2 4 6-1 1-3 3-9 0-3-2-5-4-9-3h-2l-5 1c-2 1-7 3-10 2-2-1-4-1-2-4z"/>
        <path id="root_5_" d="M237 480h2v15c0 3 1 4-2 7l-7 6-3 9c0-3 0-8 3-10 2-2 5-4 7-10v-17z"/>
      </g>
    </g>
    <g id="Cycloheximide">
      <g id="10uM_CHX_Treated" fill="#e6e7e8" stroke="#000" stroke-width=".5">
        <path id="leafs_30_" d="M609 479s3-6 15-3l5 2c2-1 6-3 13-1 1 0 5 2 4 6-1 1-3 3-9 0-3-2-5-4-9-3h-2l-5 1c-2 1-7 3-10 2-2-1-4-1-2-4z"/>
        <path id="root_30_" d="M626 480h2v15c0 3 1 4-2 7l-7 6-3 9c0-3 0-8 3-10 2-2 5-4 7-10v-17z"/>
      </g>
    </g>
  </g>
  <g id="Labels" font-family="Helvetica" transform="translate(-23 -14)">
    <text id="text238" font-size="13.7" transform="translate(91 37)">Gibberellic Acid Inhibitors</text>
    <text id="text240" font-size="13.7" transform="translate(91 231)">Brassinosteroid Inhibitors</text>
    <text id="text242" font-size="13.7" transform="translate(91 428)">Photosynthesis Inhibitor</text>
    <text id="text244" font-size="13.7" transform="translate(298 231)">Ethylene Inhibitor</text>
    <text id="text246" font-size="13.7" transform="translate(530 37)">Ibuprofen, Salycilic Acid, and Daminozide</text>
    <text id="text248" font-size="13.7" transform="translate(529 231)">Auxin Inhibitors</text>
    <text id="text250" font-size="13.7" transform="translate(529 428)">Cycloheximide</text>
    <text id="text252" font-size="13.7" transform="translate(295 428)">Proteasome Inhibitor</text>
    <text id="text254" font-size="7.4" transform="translate(91 58)">Mock Treatment</text>
    <text id="text256" font-size="7.4" transform="translate(91 255)">Mock Treatment</text>
    <text id="text258" font-size="7.4" transform="translate(297 255)">Mock Treatment</text>
    <text id="text260" font-size="7.4" transform="translate(530 255)">Mock Treatment</text>
    <text id="text262" font-size="7.4" transform="translate(91 453)">Mock Treatment</text>
    <text id="text264" font-size="7.4" transform="translate(297 453)">Mock Treatment</text>
    <text id="text266" font-size="7.4" transform="translate(530 453)">Mock Treatment</text>
    <text id="text268" font-size="7.4" transform="translate(297 58)">Mock Treatment</text>
    <text id="text270" font-size="7.4" transform="translate(529 58)">Mock Treatment</text>
    <text id="text272" font-size="7.4" transform="translate(687 255)">Mock Treatment</text>
    <text id="text274" font-size="7.4" transform="translate(686 58)">Mock Treatment</text>
    <text id="text276" font-size="7.4" transform="translate(175 192)">3 hours</text>
    <text id="text278" font-size="7.4" transform="translate(175 391)">3 hours</text>
    <text id="text280" font-size="7.4" transform="translate(175 583)">3 hours</text>
    <text id="text282" font-size="7.4" transform="translate(217 192)">12 hours</text>
    <text id="text284" font-size="7.4" transform="translate(217 391)">12 hours</text>
    <text id="text286" font-size="7.4" transform="translate(217 583)">12 hours</text>
    <text id="text288" font-size="7.4" transform="translate(413 192)">12 hours</text>
    <text id="text290" font-size="7.4" transform="translate(370 192)">3 hours</text>
    <text id="text292" font-size="7.4" transform="translate(370 583)">3 hours</text>
    <text id="text294" font-size="7.4" transform="translate(370 391)">3 hours</text>
    <text id="text296" font-size="7.4" transform="translate(612 391)">3 hours</text>
    <text id="text298" font-size="7.4" transform="translate(612 192)">3 hours</text>
    <text id="text300" font-size="7.4" transform="translate(767 192)">3 hours</text>
    <text id="text302" font-size="7.4" transform="translate(612 583)">3 hours</text>
    <text id="text304" font-size="7.4" transform="translate(766 391)">3 hours</text>
    <text id="text306" font-size="7.4" transform="translate(91 87)">10um propiconzazole</text>
    <text id="text308" font-size="7.4" transform="translate(91 96)">(GA biosynthesis</text>
    <text id="text310" font-size="7.4" transform="translate(91 105)">inhibitor)</text>
    <text id="text312" font-size="7.4" transform="translate(92 134)">10uM uniconazole</text>
    <text id="text314" font-size="7.4" transform="translate(92 143)">(GA biosynthesis</text>
    <text id="text316" font-size="7.4" transform="translate(92 152)">inhibitor)</text>
    <text id="text318" font-size="7.4" transform="translate(203 298)">(Brz91)</text>
    <text id="text320" font-size="7.4" transform="translate(92 289)">10 uM brassinazole</text>
    <text id="text322" font-size="7.4" transform="translate(92 298)">(Brz220)</text>
    <text id="text324" font-size="7.4" transform="translate(92 307)">BS biosynthesis</text>
    <text id="text326" font-size="7.4" transform="translate(92 316)">inhibitor</text>
    <text id="text328" font-size="7.4" transform="translate(92 480)">1uM PN08</text>
    <text id="text330" font-size="7.4" transform="translate(92 488)">(N-octyl-3-nitro- </text>
    <text id="text332" font-size="7.4" transform="translate(92 497)">2,4,6-trihydroxy </text>
    <text id="text334" font-size="7.4" transform="translate(92 506)">benzamide) </text>
    <text id="text336" font-size="7.4" transform="translate(92 515)">PII inhibitor</text>
    <text id="text338" font-size="7.4" transform="translate(92 534)">10uM PN08</text>
    <text id="text340" font-size="7.4" transform="translate(92 542)">(N-octyl-3-nitro- </text>
    <text id="text342" font-size="7.4" transform="translate(92 551)">2,4,6-trihydroxy </text>
    <text id="text344" font-size="7.4" transform="translate(92 560)">benzamide) </text>
    <text id="text346" font-size="7.4" transform="translate(92 569)">PII inhibitor</text>
    <text id="text348" font-size="7.4" transform="translate(293 480)">10uM MG132</text>
    <text id="text350" font-size="7.4" transform="translate(293 489)">(carbobenzoxyl-</text>
    <text id="text352" font-size="7.4" transform="translate(293 498)">leucinyl-leucinyl-</text>
    <text id="text354" font-size="7.4" transform="translate(293 507)">leucinal)</text>
    <text id="text356" font-size="7.4" transform="translate(296 289)">10uM AgNO3</text>
    <text id="text358" font-size="7.4" transform="translate(296 298)">(EI)</text>
    <text id="text360" font-size="7.4" transform="translate(529 290)">10uM 2,4,6-T</text>
    <text id="text362" font-size="7.4" transform="translate(529 299)">(2,4,6-trihydro-</text>
    <text id="text364" font-size="7.4" transform="translate(529 308)">xybenzamide)</text>
    <text id="text366" font-size="7.4" transform="translate(688 290)">10uM TIBA</text>
    <text id="text368" font-size="7.4" transform="translate(688 299)">(2,3,5-triiodo</text>
    <text id="text370" font-size="7.4" transform="translate(688 308)">benzoic acid)</text>
    <text id="text372" font-size="7.4" transform="translate(688 317)">(A transport I)</text>
    <text id="text374" font-size="7.4" transform="translate(688 339)">10uM NPA</text>
    <text id="text376" font-size="7.4" transform="translate(688 347)">(naphthylphthalmic</text>
    <text id="text378" font-size="7.4" transform="translate(688 356)">acid)</text>
    <text id="text380" font-size="7.4" transform="translate(529 342)">10uM PCIB</text>
    <text id="text382" font-size="7.4" transform="translate(529 351)">(p-chloropheno</text>
    <text id="text384" font-size="7.4" transform="translate(529 360)">xyisobutric acid)</text>
    <text id="text386" font-size="7.4" transform="translate(531 477)">10uM CHX</text>
    <text id="text388" font-size="7.4" transform="translate(531 486)">(cycloheximide) </text>
    <text id="text390" font-size="7.4" transform="translate(295 341)">10uM AVG</text>
    <text id="text392" font-size="7.4" transform="translate(295 350)">(EI)</text>
    <text id="text394" font-size="7.4" transform="translate(92 342)">3 uM brassinazole</text>
    <text id="text396" font-size="7.4" transform="translate(92 351)">(Brz220)</text>
    <text id="text398" font-size="7.4" transform="translate(92 360)">BS biosynthesis</text>
    <text id="text400" font-size="7.4" transform="translate(92 369)">inhibitor</text>
    <text id="text402" font-size="7.4" transform="translate(299 87)">10 uM pacio-</text>
    <text id="text404" font-size="7.4" transform="translate(528 87)">10 uM ibuprofen</text>
    <text id="text406" font-size="7.4" transform="translate(686 87)">10 uM daminozide</text>
    <text id="text408" font-size="7.4" transform="translate(528 137)">10 uM salicylic acid</text>
    <text id="text410" font-size="7.4" transform="translate(299 96)">butrazol</text>
    <text id="text412" font-size="7.4" transform="translate(299 105)">(GA biosynthesis</text>
    <text id="text414" font-size="7.4" transform="translate(299 114)">inhibitor)</text>
    <text id="text416" font-size="7.4" transform="translate(299 134)">10UM pro-</text>
    <text id="text418" font-size="7.4" transform="translate(299 143)">hexadione</text>
    <text id="text420" font-size="7.4" transform="translate(299 152)">(GA biosynthesis</text>
    <text id="text422" font-size="7.4" transform="translate(299 161)">inhibitor)</text>
  </g>
</svg>