<svg xmlns="http://www.w3.org/2000/svg" viewBox="0 0 608.537 137.205" version="1.1" id="svg1573" xmlns:xlink="http://www.w3.org/1999/xlink"><defs><path d="m-10 0-4 4L0 0l-14-4Z" id="path5224" fill="#000" fill-opacity="1" fill-rule="evenodd" stroke="#000" stroke-width="1.066" stroke-opacity="1"/><path d="M4.045 160.954s3.063-4.713 13.274-1.964c1.257.629 2.435 1.493 4.242 1.1 1.806-.628 5.262-1.964 11.703-.943 1.178.707 4.634 2.357 3.377 5.655-.864 1.1-2.906 2.514-8.168-.392-2.278-1.414-4.242-2.906-7.148-2.513l-2.12.157c-1.022-.315-2.75-.157-4.085.628-1.885.942-6.52 3.377-9.426 2.277-1.65-.785-2.906-1.256-1.65-4.005z" id="path450"/><path d="M19.204 162.054s1.57-.236 2.12-.157c.157 1.728.236 8.561 0 13.666-.156 2.121.236 3.064-2.513 6.127-1.885 1.964-4.87 4.713-5.42 5.42-.706 1.413-2.827 6.597-2.984 7.619.079-2.828.157-7.226 2.435-9.19 1.885-1.728 4.163-3.535 6.677-8.404-.08-3.457.078-14.218-.315-15.081z" id="path453"/><path d="M14.746 185.705c.032 1.01.505 1.885 1.116 2.863m-1.687 3.385c-.155-1.484-.534-3.637-.783-4.843m-.867 7.825c-.042-.337-.182-.636-.32-.925-.085-.182-.166-.354-.22-.53-.067-.214-.356-2.038-.396-2.274m-.317 6.474c-.151-1.027-.307-2.089-.396-3.129l.071-1.541M8.99 203.397c.301-2.495.762-6.439 1.425-8.944m-2.681 6.767c-.1-.822 1.288-2.827 2.05-3.686m.623-4.347c-.775.564-1.608 2.18-2.128 2.893a17.29 17.29 0 0 1-.805 1.046.39.39 0 0 0-.064.079m1.936-4.635c.201-.517.453-1.16.548-1.358.17-.351.613-.884.869-1.192m2.6-4.954c-1.744.133-3.823 2.589-4.097 3.017" id="path656"/><path d="M33.725 163.474c-.28-.877-1.592-1.417-2.377-1.74l-.148-.061c-.992-.413-2.068-.627-3-.794" id="path658"/><path d="M13.863 159.462c-1.194-.007-2.584.064-3.79.568-.95.397-2.54 1.061-3.018 1.995" id="path662"/></defs><defs id="defs1567"><marker id="marker5226" refX="0" refY="0" orient="auto" overflow="visible"><use fill-rule="evenodd" stroke-width="1.066" xlink:href="#path5224"/></marker><marker id="marker5186" refX="0" refY="0" orient="auto" overflow="visible"><use id="path5184" fill-opacity="1" fill-rule="evenodd" stroke-width="1.066" stroke-opacity="1" xlink:href="#path5224"/></marker><marker id="marker5152" refX="0" refY="0" orient="auto" overflow="visible"><use id="path5150" fill-opacity="1" fill-rule="evenodd" stroke-width="1.066" stroke-opacity="1" xlink:href="#path5224"/></marker><marker id="marker5124" refX="0" refY="0" orient="auto" overflow="visible"><use id="path5122" fill-opacity="1" fill-rule="evenodd" stroke-width="1.066" stroke-opacity="1" xlink:href="#path5224"/></marker><marker id="marker5102" refX="0" refY="0" orient="auto" overflow="visible"><use id="path5100" fill-opacity="1" fill-rule="evenodd" stroke-width="1.066" stroke-opacity="1" xlink:href="#path5224"/></marker><marker orient="auto" refY="0" refX="0" id="Arrow1Lend" overflow="visible"><use id="path4821" fill-opacity="1" fill-rule="evenodd" stroke-width="1.066" stroke-opacity="1" xlink:href="#path5224"/></marker></defs><g id="layer1" transform="translate(201.85 -152.006)"><g id="g4548" transform="translate(0 1.134)" fill="none" stroke-miterlimit="10" stroke="#000" stroke-width=".236"><use xlink:href="#path450"/><use xlink:href="#path453"/><use xlink:href="#path656"/><use xlink:href="#path658"/><use xlink:href="#path662"/></g><g transform="translate(61.61 1.134)" id="Y_Col-0_20min" fill="none" stroke-miterlimit="10" stroke="#000" stroke-width=".236"><use id="path4550" xlink:href="#path450"/><use id="path4552" xlink:href="#path453"/><use id="path4554" xlink:href="#path656"/><use id="path4556" xlink:href="#path658"/><use id="path4560" xlink:href="#path662"/></g><g id="Y_Col-0_90min" transform="translate(123.22 1.134)" fill="none" stroke-miterlimit="10" stroke="#000" stroke-width=".236"><use id="path4578" xlink:href="#path450"/><use id="path4580" xlink:href="#path453"/><use id="path4582" xlink:href="#path656"/><use id="path4584" xlink:href="#path658"/><use id="path4588" xlink:href="#path662"/></g><g id="Y_Col-0_3hr" transform="translate(184.83 1.134)" fill="none" stroke-miterlimit="10" stroke="#000" stroke-width=".236"><use id="path4606" xlink:href="#path450"/><use id="path4608" xlink:href="#path453"/><use id="path4610" xlink:href="#path656"/><use id="path4612" xlink:href="#path658"/><use id="path4616" xlink:href="#path662"/></g><g transform="translate(246.44 1.134)" id="Y_Col-0_6hr" fill="none" stroke-miterlimit="10" stroke="#000" stroke-width=".236"><use id="path4620" xlink:href="#path450"/><use id="path4622" xlink:href="#path453"/><use id="path4624" xlink:href="#path656"/><use id="path4626" xlink:href="#path658"/><use id="path4630" xlink:href="#path662"/></g><g id="Y_Col-0_12hr" transform="translate(308.05 1.134)" fill="none" stroke-miterlimit="10" stroke="#000" stroke-width=".236"><use id="path4648" xlink:href="#path450"/><use id="path4650" xlink:href="#path453"/><use id="path4652" xlink:href="#path656"/><use id="path4654" xlink:href="#path658"/><use id="path4658" xlink:href="#path662"/></g><g transform="translate(369.66 1.134)" id="Y_Col-0_24hr" fill="none" stroke-miterlimit="10" stroke="#000" stroke-width=".236"><use id="path4662" xlink:href="#path450"/><use id="path4664" xlink:href="#path453"/><use id="path4666" xlink:href="#path656"/><use id="path4668" xlink:href="#path658"/><use id="path4672" xlink:href="#path662"/></g><g transform="translate(0 85.8)" id="g4688" fill="none" stroke-miterlimit="10" stroke="#000" stroke-width=".236"><use id="path4676" xlink:href="#path450"/><use id="path4678" xlink:href="#path453"/><use id="path4680" xlink:href="#path656"/><use id="path4682" xlink:href="#path658"/><use id="path4686" xlink:href="#path662"/></g><g id="Y_sog1-1_20min" transform="translate(61.61 85.8)" fill="none" stroke-miterlimit="10" stroke="#000" stroke-width=".236"><use id="path4690" xlink:href="#path450"/><use id="path4692" xlink:href="#path453"/><use id="path4694" xlink:href="#path656"/><use id="path4696" xlink:href="#path658"/><use id="path4700" xlink:href="#path662"/></g><g transform="translate(123.22 85.8)" id="Y_sog1-1_90min" fill="none" stroke-miterlimit="10" stroke="#000" stroke-width=".236"><use id="path4704" xlink:href="#path450"/><use id="path4706" xlink:href="#path453"/><use id="path4708" xlink:href="#path656"/><use id="path4710" xlink:href="#path658"/><use id="path4714" xlink:href="#path662"/></g><g transform="translate(184.83 85.8)" id="Y_sog1-1_3hr" fill="none" stroke-miterlimit="10" stroke="#000" stroke-width=".236"><use id="path4718" xlink:href="#path450"/><use id="path4720" xlink:href="#path453"/><use id="path4722" xlink:href="#path656"/><use id="path4724" xlink:href="#path658"/><use id="path4728" xlink:href="#path662"/></g><g id="Y_sog1-1_6hr" transform="translate(246.44 85.8)" fill="none" stroke-miterlimit="10" stroke="#000" stroke-width=".236"><use id="path4732" xlink:href="#path450"/><use id="path4734" xlink:href="#path453"/><use id="path4736" xlink:href="#path656"/><use id="path4738" xlink:href="#path658"/><use id="path4742" xlink:href="#path662"/></g><g transform="translate(308.05 85.8)" id="Y_sog1-1_12hr" fill="none" stroke-miterlimit="10" stroke="#000" stroke-width=".236"><use id="path4746" xlink:href="#path450"/><use id="path4748" xlink:href="#path453"/><use id="path4750" xlink:href="#path656"/><use id="path4752" xlink:href="#path658"/><use id="path4756" xlink:href="#path662"/></g><g id="Y_sog1-1_24hr" transform="translate(369.66 85.8)" fill="none" stroke-miterlimit="10" stroke="#000" stroke-width=".236"><use id="path4760" xlink:href="#path450"/><use id="path4762" xlink:href="#path453"/><use id="path4764" xlink:href="#path656"/><use id="path4766" xlink:href="#path658"/><use id="path4770" xlink:href="#path662"/></g><text xml:space="preserve" style="line-height:1.25;-inkscape-font-specification:Arial;text-align:start" x="16.631" y="222.917" id="text4776" font-style="normal" font-variant="normal" font-weight="400" font-stretch="normal" font-size="21.167" font-family="Arial" letter-spacing="0" word-spacing="0" text-anchor="start" fill="#000" fill-opacity="1" stroke="none" stroke-width=".265"><tspan id="tspan4774" x="16.631" y="222.917" font-size="21.167" stroke-width=".265">0</tspan></text><text id="text4780" y="222.917" x="70.682" style="line-height:1.25;-inkscape-font-specification:Arial;text-align:start" xml:space="preserve" font-style="normal" font-variant="normal" font-weight="400" font-stretch="normal" font-size="21.167" font-family="Arial" letter-spacing="0" word-spacing="0" text-anchor="start" fill="#000" fill-opacity="1" stroke="none" stroke-width=".265"><tspan y="222.917" x="70.682" id="tspan4778" font-size="21.167" stroke-width=".265">20&apos;</tspan></text><text xml:space="preserve" style="line-height:1.25;-inkscape-font-specification:Arial;text-align:start" x="127" y="222.917" id="text4784" font-style="normal" font-variant="normal" font-weight="400" font-stretch="normal" font-size="21.167" font-family="Arial" letter-spacing="0" word-spacing="0" text-anchor="start" fill="#000" fill-opacity="1" stroke="none" stroke-width=".265"><tspan id="tspan4782" x="127" y="222.917" font-size="21.167" stroke-width=".265">1h30&apos;</tspan></text><text id="text4788" y="222.917" x="190.122" style="line-height:1.25;-inkscape-font-specification:Arial;text-align:start" xml:space="preserve" font-style="normal" font-variant="normal" font-weight="400" font-stretch="normal" font-size="21.167" font-family="Arial" letter-spacing="0" word-spacing="0" text-anchor="start" fill="#000" fill-opacity="1" stroke="none" stroke-width=".265"><tspan y="222.917" x="190.122" id="tspan4786" font-size="21.167" stroke-width=".265">3h</tspan></text><text xml:space="preserve" style="line-height:1.25;-inkscape-font-specification:Arial;text-align:start" x="248.708" y="222.917" id="text4792" font-style="normal" font-variant="normal" font-weight="400" font-stretch="normal" font-size="21.167" font-family="Arial" letter-spacing="0" word-spacing="0" text-anchor="start" fill="#000" fill-opacity="1" stroke="none" stroke-width=".265"><tspan id="tspan4790" x="248.708" y="222.917" font-size="21.167" stroke-width=".265">6h</tspan></text><text id="text4796" y="222.917" x="312.586" style="line-height:1.25;-inkscape-font-specification:Arial;text-align:start" xml:space="preserve" font-style="normal" font-variant="normal" font-weight="400" font-stretch="normal" font-size="21.167" font-family="Arial" letter-spacing="0" word-spacing="0" text-anchor="start" fill="#000" fill-opacity="1" stroke="none" stroke-width=".265"><tspan y="222.917" x="312.586" id="tspan4794" font-size="21.167" stroke-width=".265">12h&apos;</tspan></text><text xml:space="preserve" style="line-height:1.25;-inkscape-font-specification:Arial;text-align:start" x="368.905" y="222.917" id="text4800" font-style="normal" font-variant="normal" font-weight="400" font-stretch="normal" font-size="21.167" font-family="Arial" letter-spacing="0" word-spacing="0" text-anchor="start" fill="#000" fill-opacity="1" stroke="none" stroke-width=".265"><tspan id="tspan4798" x="368.905" y="222.917" font-size="21.167" stroke-width=".265">24h</tspan></text><path d="M-27.214 173.024h22.678" id="path4802" fill="none" stroke="#000" stroke-width=".265" stroke-linecap="butt" stroke-linejoin="miter" stroke-miterlimit="4" stroke-dasharray="none" stroke-opacity="1" marker-end="url(#marker5186)"/><path id="path4808" d="M-27.214 257.313h22.678" fill="none" stroke="#000" stroke-width=".265" stroke-linecap="butt" stroke-linejoin="miter" stroke-miterlimit="4" stroke-dasharray="none" stroke-opacity="1" marker-end="url(#marker5152)"/><path d="M-88.824 202.884v-21.545" id="path4810" fill="none" stroke="#000" stroke-width=".265" stroke-linecap="butt" stroke-linejoin="miter" stroke-miterlimit="4" stroke-dasharray="none" stroke-opacity="1" marker-end="url(#marker5124)"/><path id="path4812" d="M-88.824 229.72v21.545" fill="none" stroke="#000" stroke-width=".265" stroke-linecap="butt" stroke-linejoin="miter" stroke-miterlimit="4" stroke-dasharray="none" stroke-opacity="1" marker-end="url(#marker5102)"/><path d="M-130.024 216.113h21.923" id="path4814" fill="none" stroke="#000" stroke-width=".265" stroke-linecap="butt" stroke-linejoin="miter" stroke-miterlimit="4" stroke-dasharray="none" stroke-opacity="1" marker-end="url(#Arrow1Lend)"/><path d="m-181.429 235.768 16.442-16.442" id="path4816" fill="none" stroke="#000" stroke-width=".265" stroke-linecap="butt" stroke-linejoin="miter" stroke-miterlimit="4" stroke-dasharray="none" stroke-opacity="1" marker-end="url(#marker5226)"/><text xml:space="preserve" style="line-height:1.25;-inkscape-font-specification:Arial;text-align:start" x="-202.056" y="251.03" id="text5290" font-style="normal" font-variant="normal" font-weight="400" font-stretch="normal" font-size="16.933" font-family="Arial" letter-spacing="0" word-spacing="0" text-anchor="start" fill="#f9b233" fill-opacity="1" stroke="none" stroke-width=".265"><tspan id="tspan5288" x="-202.056" y="251.03" font-size="16.933" fill="#f9b233" fill-opacity="1" stroke-width=".265">γ-IR</tspan></text><text xml:space="preserve" style="line-height:1.25;-inkscape-font-specification:Arial;text-align:start" x="-169.449" y="212.543" id="text5294" font-style="normal" font-variant="normal" font-weight="400" font-stretch="normal" font-size="11.289" font-family="Arial" letter-spacing="0" word-spacing="0" text-anchor="start" fill="#f9b233" fill-opacity="1" stroke="none" stroke-width=".265"><tspan id="tspan5292" x="-169.449" y="212.543" font-size="11.289" fill="#f9b233" fill-opacity="1" stroke-width=".265">DSB</tspan></text><path d="M-158.135 216.652s3.675 9.99 8.419 0c0 0 3.675-9.99 8.419 0" id="path5338" fill="none" stroke="#000" stroke-width=".265" stroke-linecap="butt" stroke-linejoin="miter" stroke-opacity="1"/><path id="path5340" d="M-156.104 216.652s3.675 9.99 8.42 0c0 0 3.674-9.99 8.418 0" fill="none" stroke="#000" stroke-width=".265" stroke-linecap="butt" stroke-linejoin="miter" stroke-opacity="1"/><path d="M-67.486 164.167a20.847 9.354 0 0 1-20.847 9.354 20.847 9.354 0 0 1-20.847-9.354 20.847 9.354 0 0 1 20.847-9.354 20.847 9.354 0 0 1 20.847 9.354z" id="path5344" opacity="1" vector-effect="none" fill="#9c59a0" fill-opacity="1" fill-rule="evenodd" stroke="none" stroke-width=".265" stroke-linecap="butt" stroke-linejoin="miter" stroke-miterlimit="4" stroke-dasharray="none" stroke-dashoffset="0" stroke-opacity="1"/><text xml:space="preserve" style="line-height:1.25;-inkscape-font-specification:Arial;text-align:start" x="-100.761" y="166.84" id="text5348" font-style="normal" font-variant="normal" font-weight="400" font-stretch="normal" font-size="8.467" font-family="Arial" letter-spacing="0" word-spacing="0" text-anchor="start" fill="#000" fill-opacity="1" stroke="none" stroke-width=".265"><tspan id="tspan5346" x="-100.761" y="166.84" stroke-width=".265">SOG1</tspan></text><path d="M-94.079 154.813a2.272 2.272 0 0 1-2.272 2.271 2.272 2.272 0 0 1-2.271-2.271 2.272 2.272 0 0 1 2.271-2.272 2.272 2.272 0 0 1 2.272 2.272z" id="path5354" opacity="1" vector-effect="none" fill="#3b3b7d" fill-opacity="1" fill-rule="evenodd" stroke="none" stroke-width=".265" stroke-linecap="butt" stroke-linejoin="miter" stroke-miterlimit="4" stroke-dasharray="none" stroke-dashoffset="0" stroke-opacity="1"/><path d="M-89.402 156.55a2.272 2.272 0 0 1-2.271 2.272 2.272 2.272 0 0 1-2.272-2.272 2.272 2.272 0 0 1 2.272-2.272 2.272 2.272 0 0 1 2.271 2.272z" id="circle5356" opacity="1" vector-effect="none" fill="#3b3b7d" fill-opacity="1" fill-rule="evenodd" stroke="none" stroke-width=".265" stroke-linecap="butt" stroke-linejoin="miter" stroke-miterlimit="4" stroke-dasharray="none" stroke-dashoffset="0" stroke-opacity="1"/><path d="M-81.25 154.278a2.272 2.272 0 0 1-2.272 2.272 2.272 2.272 0 0 1-2.272-2.272 2.272 2.272 0 0 1 2.272-2.272 2.272 2.272 0 0 1 2.272 2.272z" id="circle5358" opacity="1" vector-effect="none" fill="#3b3b7d" fill-opacity="1" fill-rule="evenodd" stroke="none" stroke-width=".265" stroke-linecap="butt" stroke-linejoin="miter" stroke-miterlimit="4" stroke-dasharray="none" stroke-dashoffset="0" stroke-opacity="1"/><path id="path5314" d="M-104.436 174.791s3.675-9.99 8.42 0c0 0 3.674 9.99 8.418 0 0 0 3.675-9.99 8.42 0 0 0 3.674 9.99 8.418 0 0 0 3.675-9.99 8.42 0 0 0 3.674 9.99 8.418 0 0 0 3.675-9.99 8.42 0h2.031c-4.744-9.99-8.419 0-8.419 0-4.744 9.99-8.419 0-8.419 0-4.744-9.99-8.419 0-8.419 0-4.744 9.99-8.419 0-8.419 0-4.744-9.99-8.419 0-8.419 0-4.744 9.99-8.419 0-8.419 0-4.744-9.99-8.419 0-8.419 0-4.744 9.99-8.419 0-8.419 0-4.744-9.99-8.419 0-8.419 0-4.744 9.99-8.419 0-8.419 0h-2.032s3.675 9.99 8.42 0c0 0 3.674-9.99 8.418 0 0 0 3.675 9.99 8.42 0z" fill="none" stroke="#000" stroke-width=".265" stroke-linecap="butt" stroke-linejoin="miter" stroke-opacity="1"/><path d="M-99.144 174.791s3.675-9.99 8.42 0c0 0 3.674 9.99 8.418 0 0 0 3.675-9.99 8.42 0 0 0 3.674 9.99 8.418 0 0 0 3.675-9.99 8.419 0 0 0 3.675 9.99 8.419 0 0 0 3.675-9.99 8.419 0h2.032c-4.744-9.99-8.42 0-8.42 0-4.743 9.99-8.418 0-8.418 0-4.744-9.99-8.42 0-8.42 0-4.743 9.99-8.418 0-8.418 0-4.744-9.99-8.42 0-8.42 0-4.743 9.99-8.418 0-8.418 0-4.744-9.99-8.42 0-8.42 0-4.743 9.99-8.418 0-8.418 0-4.744-9.99-8.42 0-8.42 0-4.743 9.99-8.418 0-8.418 0h-2.032s3.675 9.99 8.42 0c0 0 3.674-9.99 8.418 0 0 0 3.675 9.99 8.42 0z" id="path5334" fill="none" stroke="#000" stroke-width=".265" stroke-linecap="butt" stroke-linejoin="miter" stroke-opacity="1"/><path id="path5372" d="M-67.486 263.859a20.847 9.354 0 0 1-20.847 9.354 20.847 9.354 0 0 1-20.847-9.354 20.847 9.354 0 0 1 20.847-9.355 20.847 9.354 0 0 1 20.847 9.355z" opacity="1" vector-effect="none" fill="#9c59a0" fill-opacity="1" fill-rule="evenodd" stroke="none" stroke-width=".265" stroke-linecap="butt" stroke-linejoin="miter" stroke-miterlimit="4" stroke-dasharray="none" stroke-dashoffset="0" stroke-opacity="1"/><text id="text5376" y="266.531" x="-100.761" style="line-height:1.25;-inkscape-font-specification:Arial;text-align:start" xml:space="preserve" font-style="normal" font-variant="normal" font-weight="400" font-stretch="normal" font-size="8.467" font-family="Arial" letter-spacing="0" word-spacing="0" text-anchor="start" fill="#000" fill-opacity="1" stroke="none" stroke-width=".265"><tspan y="266.531" x="-100.761" id="tspan5374" stroke-width=".265">SOG1</tspan></text><path id="path5378" d="M-94.079 254.504a2.272 2.272 0 0 1-2.272 2.272 2.272 2.272 0 0 1-2.271-2.272 2.272 2.272 0 0 1 2.271-2.272 2.272 2.272 0 0 1 2.272 2.272z" opacity="1" vector-effect="none" fill="#3b3b7d" fill-opacity="1" fill-rule="evenodd" stroke="none" stroke-width=".265" stroke-linecap="butt" stroke-linejoin="miter" stroke-miterlimit="4" stroke-dasharray="none" stroke-dashoffset="0" stroke-opacity="1"/><path id="path5380" d="M-89.402 256.241a2.272 2.272 0 0 1-2.271 2.272 2.272 2.272 0 0 1-2.272-2.272 2.272 2.272 0 0 1 2.272-2.271 2.272 2.272 0 0 1 2.271 2.271z" opacity="1" vector-effect="none" fill="#3b3b7d" fill-opacity="1" fill-rule="evenodd" stroke="none" stroke-width=".265" stroke-linecap="butt" stroke-linejoin="miter" stroke-miterlimit="4" stroke-dasharray="none" stroke-dashoffset="0" stroke-opacity="1"/><path id="path5382" d="M-81.25 253.97a2.272 2.272 0 0 1-2.272 2.271 2.272 2.272 0 0 1-2.272-2.271 2.272 2.272 0 0 1 2.272-2.272 2.272 2.272 0 0 1 2.272 2.272z" opacity="1" vector-effect="none" fill="#3b3b7d" fill-opacity="1" fill-rule="evenodd" stroke="none" stroke-width=".265" stroke-linecap="butt" stroke-linejoin="miter" stroke-miterlimit="4" stroke-dasharray="none" stroke-dashoffset="0" stroke-opacity="1"/><path d="M-104.436 274.483s3.675-9.99 8.42 0c0 0 3.674 9.989 8.418 0 0 0 3.675-9.99 8.42 0 0 0 3.674 9.989 8.418 0 0 0 3.675-9.99 8.42 0 0 0 3.674 9.989 8.418 0 0 0 3.675-9.99 8.42 0h2.031c-4.744-9.99-8.419 0-8.419 0-4.744 9.989-8.419 0-8.419 0-4.744-9.99-8.419 0-8.419 0-4.744 9.989-8.419 0-8.419 0-4.744-9.99-8.419 0-8.419 0-4.744 9.989-8.419 0-8.419 0-4.744-9.99-8.419 0-8.419 0-4.744 9.989-8.419 0-8.419 0-4.744-9.99-8.419 0-8.419 0-4.744 9.989-8.419 0-8.419 0h-2.032s3.675 9.989 8.42 0c0 0 3.674-9.99 8.418 0 0 0 3.675 9.989 8.42 0z" id="path5384" fill="none" stroke="#000" stroke-width=".265" stroke-linecap="butt" stroke-linejoin="miter" stroke-opacity="1"/><path id="path5386" d="M-99.144 274.483s3.675-9.99 8.42 0c0 0 3.674 9.989 8.418 0 0 0 3.675-9.99 8.42 0 0 0 3.674 9.989 8.418 0 0 0 3.675-9.99 8.419 0 0 0 3.675 9.989 8.419 0 0 0 3.675-9.99 8.419 0h2.032c-4.744-9.99-8.42 0-8.42 0-4.743 9.989-8.418 0-8.418 0-4.744-9.99-8.42 0-8.42 0-4.743 9.989-8.418 0-8.418 0-4.744-9.99-8.42 0-8.42 0-4.743 9.989-8.418 0-8.418 0-4.744-9.99-8.42 0-8.42 0-4.743 9.989-8.418 0-8.418 0-4.744-9.99-8.42 0-8.42 0-4.743 9.989-8.418 0-8.418 0h-2.032s3.675 9.989 8.42 0c0 0 3.674-9.99 8.418 0 0 0 3.675 9.989 8.42 0z" fill="none" stroke="#000" stroke-width=".265" stroke-linecap="butt" stroke-linejoin="miter" stroke-opacity="1"/><path d="m-104.77 247.02 31.538 31.538-2.673 2.673-31.537-31.538z" id="path5366" fill="#be1522" fill-opacity="1" stroke="none" stroke-width=".265" stroke-linecap="butt" stroke-linejoin="miter" stroke-opacity="1"/><path id="path5370" d="m-75.905 247.02-31.537 31.538 2.672 2.673 31.538-31.538z" fill="#be1522" fill-opacity="1" stroke="none" stroke-width=".265" stroke-linecap="butt" stroke-linejoin="miter" stroke-opacity="1"/><path id="path5392" d="M-189.79 214.479s3.674 9.989 8.418 0c0 0 3.675-9.99 8.42 0" fill="none" stroke="#000" stroke-width=".265" stroke-linecap="butt" stroke-linejoin="miter" stroke-opacity="1"/><path d="M-187.76 214.479s3.676 9.989 8.42 0c0 0 3.675-9.99 8.419 0" id="path5394" fill="none" stroke="#000" stroke-width=".265" stroke-linecap="butt" stroke-linejoin="miter" stroke-opacity="1"/><path d="m-169.428 217.72-1.96-.993-1.927 1.052.338-2.17-1.596-1.51 2.169-.348.942-1.984 1.001 1.954 2.178.283-1.549 1.557z" id="path5390" opacity="1" vector-effect="none" fill="#f9b233" fill-opacity="1" fill-rule="evenodd" stroke="none" stroke-width=".265" stroke-linecap="butt" stroke-linejoin="miter" stroke-miterlimit="4" stroke-dasharray="none" stroke-dashoffset="0" stroke-opacity="1"/><path id="path5397" d="m-155.632 219.137-1.959-.992-1.928 1.05.338-2.17-1.596-1.508 2.169-.349.942-1.984 1.002 1.955 2.177.282-1.549 1.557z" opacity="1" vector-effect="none" fill="#f9b233" fill-opacity="1" fill-rule="evenodd" stroke="none" stroke-width=".265" stroke-linecap="butt" stroke-linejoin="miter" stroke-miterlimit="4" stroke-dasharray="none" stroke-dashoffset="0" stroke-opacity="1"/><ellipse id="path5399" cx="-89.108" cy="216.302" rx="15.322" ry="11.528" opacity="1" vector-effect="none" fill="#a04330" fill-opacity="1" fill-rule="evenodd" stroke="none" stroke-width=".265" stroke-linecap="butt" stroke-linejoin="miter" stroke-miterlimit="4" stroke-dasharray="none" stroke-dashoffset="0" stroke-opacity="1"/><text xml:space="preserve" style="line-height:1.25;-inkscape-font-specification:Arial;text-align:start" x="-100.542" y="219.704" id="text5403" font-style="normal" font-variant="normal" font-weight="400" font-stretch="normal" font-size="11.289" font-family="Arial" letter-spacing="0" word-spacing="0" text-anchor="start" fill="#fff" fill-opacity="1" stroke="none" stroke-width=".265"><tspan id="tspan5401" x="-100.542" y="219.704" font-size="11.289" fill="#fff" stroke-width=".265">ATM</tspan></text></g></svg>