<?xml version="1.0" encoding="UTF-8" standalone="no"?>
<!-- Created with Inkscape (http://www.inkscape.org/) -->

<svg
   xmlns:dc="http://purl.org/dc/elements/1.1/"
   xmlns:cc="http://creativecommons.org/ns#"
   xmlns:rdf="http://www.w3.org/1999/02/22-rdf-syntax-ns#"
   xmlns:svg="http://www.w3.org/2000/svg"
   xmlns="http://www.w3.org/2000/svg"
   xmlns:sodipodi="http://sodipodi.sourceforge.net/DTD/sodipodi-0.dtd"
   xmlns:inkscape="http://www.inkscape.org/namespaces/inkscape"
   width="608.53723mm"
   height="137.20505mm"
   viewBox="0 0 608.53723 137.20505"
   version="1.1"
   id="svg1573"
   author="Provart Lab - Bio Analytic Resource, University of Toronto" 
   inkscape:version="0.92.2 (5c3e80d, 2017-08-06)"
   sodipodi:docname="DnaDamage.svg">
  <defs
     id="defs1567">
    <marker
       inkscape:isstock="true"
       style="overflow:visible"
       id="marker5226"
       refX="0"
       refY="0"
       orient="auto"
       inkscape:stockid="Arrow1Lend">
      <path
         transform="matrix(-0.8,0,0,-0.8,-10,0)"
         style="fill:#000000;fill-opacity:1;fill-rule:evenodd;stroke:#000000;stroke-width:1.00000003pt;stroke-opacity:1"
         d="M 0,0 5,-5 -12.5,0 5,5 Z"
         id="path5224"
         inkscape:connector-curvature="0" />
    </marker>
    <marker
       inkscape:isstock="true"
       style="overflow:visible"
       id="marker5186"
       refX="0"
       refY="0"
       orient="auto"
       inkscape:stockid="Arrow1Lend">
      <path
         transform="matrix(-0.8,0,0,-0.8,-10,0)"
         style="fill:#000000;fill-opacity:1;fill-rule:evenodd;stroke:#000000;stroke-width:1.00000003pt;stroke-opacity:1"
         d="M 0,0 5,-5 -12.5,0 5,5 Z"
         id="path5184"
         inkscape:connector-curvature="0" />
    </marker>
    <marker
       inkscape:isstock="true"
       style="overflow:visible"
       id="marker5152"
       refX="0"
       refY="0"
       orient="auto"
       inkscape:stockid="Arrow1Lend">
      <path
         transform="matrix(-0.8,0,0,-0.8,-10,0)"
         style="fill:#000000;fill-opacity:1;fill-rule:evenodd;stroke:#000000;stroke-width:1.00000003pt;stroke-opacity:1"
         d="M 0,0 5,-5 -12.5,0 5,5 Z"
         id="path5150"
         inkscape:connector-curvature="0" />
    </marker>
    <marker
       inkscape:isstock="true"
       style="overflow:visible"
       id="marker5124"
       refX="0"
       refY="0"
       orient="auto"
       inkscape:stockid="Arrow1Lend">
      <path
         transform="matrix(-0.8,0,0,-0.8,-10,0)"
         style="fill:#000000;fill-opacity:1;fill-rule:evenodd;stroke:#000000;stroke-width:1.00000003pt;stroke-opacity:1"
         d="M 0,0 5,-5 -12.5,0 5,5 Z"
         id="path5122"
         inkscape:connector-curvature="0" />
    </marker>
    <marker
       inkscape:isstock="true"
       style="overflow:visible"
       id="marker5102"
       refX="0"
       refY="0"
       orient="auto"
       inkscape:stockid="Arrow1Lend">
      <path
         transform="matrix(-0.8,0,0,-0.8,-10,0)"
         style="fill:#000000;fill-opacity:1;fill-rule:evenodd;stroke:#000000;stroke-width:1.00000003pt;stroke-opacity:1"
         d="M 0,0 5,-5 -12.5,0 5,5 Z"
         id="path5100"
         inkscape:connector-curvature="0" />
    </marker>
    <marker
       inkscape:stockid="Arrow1Lend"
       orient="auto"
       refY="0"
       refX="0"
       id="Arrow1Lend"
       style="overflow:visible"
       inkscape:isstock="true"
       inkscape:collect="always">
      <path
         id="path4821"
         d="M 0,0 5,-5 -12.5,0 5,5 Z"
         style="fill:#000000;fill-opacity:1;fill-rule:evenodd;stroke:#000000;stroke-width:1.00000003pt;stroke-opacity:1"
         transform="matrix(-0.8,0,0,-0.8,-10,0)"
         inkscape:connector-curvature="0" />
    </marker>
  </defs>
  <sodipodi:namedview
     id="base"
     pagecolor="#ffffff"
     bordercolor="#666666"
     borderopacity="1.0"
     inkscape:pageopacity="0.0"
     inkscape:pageshadow="2"
     inkscape:zoom="0.7"
     inkscape:cx="954.00001"
     inkscape:cy="252.62193"
     inkscape:document-units="mm"
     inkscape:current-layer="layer1"
     showgrid="false"
     inkscape:window-width="1920"
     inkscape:window-height="1000"
     inkscape:window-x="-11"
     inkscape:window-y="-11"
     inkscape:window-maximized="1"
     inkscape:snap-global="false"
     fit-margin-top="0"
     fit-margin-left="0"
     fit-margin-right="0"
     fit-margin-bottom="0" />
  <metadata
     id="metadata1570">
    <rdf:RDF>
      <cc:Work
         rdf:about="">
        <dc:format>image/svg+xml</dc:format>
        <dc:type
           rdf:resource="http://purl.org/dc/dcmitype/StillImage" />
        <dc:title></dc:title>
      </cc:Work>
    </rdf:RDF>
  </metadata>
  <g
     inkscape:label="Layer 1"
     inkscape:groupmode="layer"
     id="layer1"
     transform="translate(201.84905,-152.00629)">
    <g
       id="g4548"
       transform="translate(0,1.1339287)"
       style="fill:none">
      <path
         style="fill:none;stroke:#000000;stroke-width:0.23563482;stroke-miterlimit:10"
         inkscape:connector-curvature="0"
         stroke-miterlimit="10" stroke="#000" stroke-width=".236"
         d="m 4.044903,160.95411 c 0,0 3.0632527,-4.71269 13.274252,-1.96378 1.256876,0.6282 2.43505,1.49251 4.241427,1.09947 1.806376,-0.6282 5.262197,-1.96378 11.703039,-0.94253 1.178174,0.7069 4.634465,2.35634 3.377589,5.65523 -0.863837,1.09947 -2.90632,2.51328 -8.168516,-0.39257 -2.277647,-1.41381 -4.241427,-2.90585 -7.147747,-2.51328 -2.120713,0.15694 -2.120713,0.15694 -2.120713,0.15694 -1.021242,-0.31434 -2.749388,-0.15694 -4.084494,0.6282 -1.885079,0.94254 -6.5190733,3.37759 -9.4253932,2.27764 -1.6494438,-0.78513 -2.9063199,-1.2564 -1.6494438,-4.00532 z"
         id="path450" />
      <path
         style="fill:none;stroke:#000000;stroke-width:0.23563482;stroke-miterlimit:10"
         inkscape:connector-curvature="0"
         stroke-miterlimit="10" stroke="#000" stroke-width=".236"
         d="m 19.203762,162.05359 c 0,0 1.570742,-0.23564 2.120714,-0.15694 0.156932,1.72815 0.235634,8.56156 0,13.66682 -0.156933,2.12072 0.235634,3.06325 -2.513281,6.12651 -1.885079,1.96378 -4.86963,4.71269 -5.419601,5.4196 -0.706905,1.41381 -2.827618,6.59777 -2.984551,7.61901 0.0787,-2.82761 0.156933,-7.22597 2.43505,-9.18975 1.885079,-1.72815 4.162725,-3.53453 6.676477,-8.40416 -0.07917,-3.45629 0.07823,-14.21726 -0.314808,-15.08109 z"
         id="path453" />
      <path
         stroke-miterlimit="10" stroke="#000" stroke-width=".236"
         d="m 14.7465,185.70473 c 0.0311,1.01039 0.504259,1.88507 1.115967,2.86296 m -1.687617,3.3856 c -0.154571,-1.48404 -0.533949,-3.63774 -0.783249,-4.84372 m -0.866665,7.82496 c -0.04147,-0.33648 -0.182383,-0.63526 -0.31905,-0.92462 -0.08577,-0.18239 -0.166825,-0.3544 -0.221497,-0.53019 -0.06646,-0.21395 -0.355338,-2.03729 -0.395397,-2.2734 m -0.316692,6.47383 c -0.151276,-1.0269 -0.307737,-2.08866 -0.395867,-3.12876 l 0.07069,-1.54152 m 0.167306,7.00684 m -2.1240105,3.37994 c 0.3006702,-2.49443 0.7620429,-6.43848 1.4241775,-8.94328 m -2.681054,6.76696 c -0.098962,-0.82283 1.2879799,-2.82762 2.0504943,-3.68674 m 0.6230177,-4.34699 c -0.7747673,0.56411 -1.6084413,2.18104 -2.127781,2.89359 -0.2540152,0.34827 -0.5165126,0.70785 -0.8049298,1.04575 -0.022136,0.0207 -0.044298,0.0466 -0.064569,0.0791 m 1.9359773,-4.63541 c 0.2017024,-0.51651 0.4528888,-1.15932 0.5485581,-1.35726 0.1696574,-0.35156 0.6131224,-0.88409 0.8685494,-1.19277 m 2.599523,-4.95352 c -1.743697,0.13243 -3.8219959,2.58868 -4.0967464,3.01659"
         id="path656"
         inkscape:connector-curvature="0"
         fill="none" />
      <path
         stroke-miterlimit="10" stroke="#000" stroke-width=".236"
         d="m 33.724528,163.47446 c -0.278991,-0.87703 -1.591948,-1.41758 -2.376612,-1.74087 l -0.14798,-0.0608 c -0.99155,-0.41283 -2.068402,-0.62631 -2.999629,-0.79361"
         id="path658"
         inkscape:connector-curvature="0"
         fill="none" />
      <path
         stroke-miterlimit="10" stroke="#000" stroke-width=".236"
         d="M 31.018971,162.10778"
         id="path660"
         inkscape:connector-curvature="0"
         fill="none" />
      <path
         stroke-miterlimit="10" stroke="#000" stroke-width=".236"
         d="m 13.863342,159.4616 c -1.1942,-0.007 -2.583973,0.0641 -3.790422,0.56882 -0.9500799,0.39634 -2.539673,1.06083 -3.0175395,1.99442"
         id="path662"
         inkscape:connector-curvature="0"
         fill="none" />
    </g>
    <g
       transform="translate(61.610119,1.1339287)"
       id="Y_Col-0_20min"
       style="fill:none">
      <path
         id="path4550"
         d="m 4.044903,160.95411 c 0,0 3.0632527,-4.71269 13.274252,-1.96378 1.256876,0.6282 2.43505,1.49251 4.241427,1.09947 1.806376,-0.6282 5.262197,-1.96378 11.703039,-0.94253 1.178174,0.7069 4.634465,2.35634 3.377589,5.65523 -0.863837,1.09947 -2.90632,2.51328 -8.168516,-0.39257 -2.277647,-1.41381 -4.241427,-2.90585 -7.147747,-2.51328 -2.120713,0.15694 -2.120713,0.15694 -2.120713,0.15694 -1.021242,-0.31434 -2.749388,-0.15694 -4.084494,0.6282 -1.885079,0.94254 -6.5190733,3.37759 -9.4253932,2.27764 -1.6494438,-0.78513 -2.9063199,-1.2564 -1.6494438,-4.00532 z"
         stroke-miterlimit="10" stroke="#000" stroke-width=".236"
         inkscape:connector-curvature="0"
         style="fill:none;stroke:#000000;stroke-width:0.23563482;stroke-miterlimit:10" />
      <path
         id="path4552"
         d="m 19.203762,162.05359 c 0,0 1.570742,-0.23564 2.120714,-0.15694 0.156932,1.72815 0.235634,8.56156 0,13.66682 -0.156933,2.12072 0.235634,3.06325 -2.513281,6.12651 -1.885079,1.96378 -4.86963,4.71269 -5.419601,5.4196 -0.706905,1.41381 -2.827618,6.59777 -2.984551,7.61901 0.0787,-2.82761 0.156933,-7.22597 2.43505,-9.18975 1.885079,-1.72815 4.162725,-3.53453 6.676477,-8.40416 -0.07917,-3.45629 0.07823,-14.21726 -0.314808,-15.08109 z"
         stroke-miterlimit="10" stroke="#000" stroke-width=".236"
         inkscape:connector-curvature="0"
         style="fill:none;stroke:#000000;stroke-width:0.23563482;stroke-miterlimit:10" />
      <path
         fill="none"
         inkscape:connector-curvature="0"
         id="path4554"
         d="m 14.7465,185.70473 c 0.0311,1.01039 0.504259,1.88507 1.115967,2.86296 m -1.687617,3.3856 c -0.154571,-1.48404 -0.533949,-3.63774 -0.783249,-4.84372 m -0.866665,7.82496 c -0.04147,-0.33648 -0.182383,-0.63526 -0.31905,-0.92462 -0.08577,-0.18239 -0.166825,-0.3544 -0.221497,-0.53019 -0.06646,-0.21395 -0.355338,-2.03729 -0.395397,-2.2734 m -0.316692,6.47383 c -0.151276,-1.0269 -0.307737,-2.08866 -0.395867,-3.12876 l 0.07069,-1.54152 m 0.167306,7.00684 m -2.1240105,3.37994 c 0.3006702,-2.49443 0.7620429,-6.43848 1.4241775,-8.94328 m -2.681054,6.76696 c -0.098962,-0.82283 1.2879799,-2.82762 2.0504943,-3.68674 m 0.6230177,-4.34699 c -0.7747673,0.56411 -1.6084413,2.18104 -2.127781,2.89359 -0.2540152,0.34827 -0.5165126,0.70785 -0.8049298,1.04575 -0.022136,0.0207 -0.044298,0.0466 -0.064569,0.0791 m 1.9359773,-4.63541 c 0.2017024,-0.51651 0.4528888,-1.15932 0.5485581,-1.35726 0.1696574,-0.35156 0.6131224,-0.88409 0.8685494,-1.19277 m 2.599523,-4.95352 c -1.743697,0.13243 -3.8219959,2.58868 -4.0967464,3.01659"
         stroke-miterlimit="10" stroke="#000" stroke-width=".236" />
      <path
         fill="none"
         inkscape:connector-curvature="0"
         id="path4556"
         d="m 33.724528,163.47446 c -0.278991,-0.87703 -1.591948,-1.41758 -2.376612,-1.74087 l -0.14798,-0.0608 c -0.99155,-0.41283 -2.068402,-0.62631 -2.999629,-0.79361"
         stroke-miterlimit="10" stroke="#000" stroke-width=".236" />
      <path
         fill="none"
         inkscape:connector-curvature="0"
         id="path4558"
         d="M 31.018971,162.10778"
         stroke-miterlimit="10" stroke="#000" stroke-width=".236" />
      <path
         fill="none"
         inkscape:connector-curvature="0"
         id="path4560"
         d="m 13.863342,159.4616 c -1.1942,-0.007 -2.583973,0.0641 -3.790422,0.56882 -0.9500799,0.39634 -2.539673,1.06083 -3.0175395,1.99442"
         stroke-miterlimit="10" stroke="#000" stroke-width=".236" />
    </g>
    <g
       id="Y_Col-0_90min"
       transform="translate(123.22024,1.1339287)"
       style="fill:none">
      <path
         style="fill:none;stroke:#000000;stroke-width:0.23563482;stroke-miterlimit:10"
         inkscape:connector-curvature="0"
         stroke-miterlimit="10" stroke="#000" stroke-width=".236"
         d="m 4.044903,160.95411 c 0,0 3.0632527,-4.71269 13.274252,-1.96378 1.256876,0.6282 2.43505,1.49251 4.241427,1.09947 1.806376,-0.6282 5.262197,-1.96378 11.703039,-0.94253 1.178174,0.7069 4.634465,2.35634 3.377589,5.65523 -0.863837,1.09947 -2.90632,2.51328 -8.168516,-0.39257 -2.277647,-1.41381 -4.241427,-2.90585 -7.147747,-2.51328 -2.120713,0.15694 -2.120713,0.15694 -2.120713,0.15694 -1.021242,-0.31434 -2.749388,-0.15694 -4.084494,0.6282 -1.885079,0.94254 -6.5190733,3.37759 -9.4253932,2.27764 -1.6494438,-0.78513 -2.9063199,-1.2564 -1.6494438,-4.00532 z"
         id="path4578" />
      <path
         style="fill:none;stroke:#000000;stroke-width:0.23563482;stroke-miterlimit:10"
         inkscape:connector-curvature="0"
         stroke-miterlimit="10" stroke="#000" stroke-width=".236"
         d="m 19.203762,162.05359 c 0,0 1.570742,-0.23564 2.120714,-0.15694 0.156932,1.72815 0.235634,8.56156 0,13.66682 -0.156933,2.12072 0.235634,3.06325 -2.513281,6.12651 -1.885079,1.96378 -4.86963,4.71269 -5.419601,5.4196 -0.706905,1.41381 -2.827618,6.59777 -2.984551,7.61901 0.0787,-2.82761 0.156933,-7.22597 2.43505,-9.18975 1.885079,-1.72815 4.162725,-3.53453 6.676477,-8.40416 -0.07917,-3.45629 0.07823,-14.21726 -0.314808,-15.08109 z"
         id="path4580" />
      <path
         stroke-miterlimit="10" stroke="#000" stroke-width=".236"
         d="m 14.7465,185.70473 c 0.0311,1.01039 0.504259,1.88507 1.115967,2.86296 m -1.687617,3.3856 c -0.154571,-1.48404 -0.533949,-3.63774 -0.783249,-4.84372 m -0.866665,7.82496 c -0.04147,-0.33648 -0.182383,-0.63526 -0.31905,-0.92462 -0.08577,-0.18239 -0.166825,-0.3544 -0.221497,-0.53019 -0.06646,-0.21395 -0.355338,-2.03729 -0.395397,-2.2734 m -0.316692,6.47383 c -0.151276,-1.0269 -0.307737,-2.08866 -0.395867,-3.12876 l 0.07069,-1.54152 m 0.167306,7.00684 m -2.1240105,3.37994 c 0.3006702,-2.49443 0.7620429,-6.43848 1.4241775,-8.94328 m -2.681054,6.76696 c -0.098962,-0.82283 1.2879799,-2.82762 2.0504943,-3.68674 m 0.6230177,-4.34699 c -0.7747673,0.56411 -1.6084413,2.18104 -2.127781,2.89359 -0.2540152,0.34827 -0.5165126,0.70785 -0.8049298,1.04575 -0.022136,0.0207 -0.044298,0.0466 -0.064569,0.0791 m 1.9359773,-4.63541 c 0.2017024,-0.51651 0.4528888,-1.15932 0.5485581,-1.35726 0.1696574,-0.35156 0.6131224,-0.88409 0.8685494,-1.19277 m 2.599523,-4.95352 c -1.743697,0.13243 -3.8219959,2.58868 -4.0967464,3.01659"
         id="path4582"
         inkscape:connector-curvature="0"
         fill="none" />
      <path
         stroke-miterlimit="10" stroke="#000" stroke-width=".236"
         d="m 33.724528,163.47446 c -0.278991,-0.87703 -1.591948,-1.41758 -2.376612,-1.74087 l -0.14798,-0.0608 c -0.99155,-0.41283 -2.068402,-0.62631 -2.999629,-0.79361"
         id="path4584"
         inkscape:connector-curvature="0"
         fill="none" />
      <path
         stroke-miterlimit="10" stroke="#000" stroke-width=".236"
         d="M 31.018971,162.10778"
         id="path4586"
         inkscape:connector-curvature="0"
         fill="none" />
      <path
         stroke-miterlimit="10" stroke="#000" stroke-width=".236"
         d="m 13.863342,159.4616 c -1.1942,-0.007 -2.583973,0.0641 -3.790422,0.56882 -0.9500799,0.39634 -2.539673,1.06083 -3.0175395,1.99442"
         id="path4588"
         inkscape:connector-curvature="0"
         fill="none" />
    </g>
    <g
       id="Y_Col-0_3hr"
       transform="translate(184.83036,1.1339287)"
       style="fill:none">
      <path
         style="fill:none;stroke:#000000;stroke-width:0.23563482;stroke-miterlimit:10"
         inkscape:connector-curvature="0"
         stroke-miterlimit="10" stroke="#000" stroke-width=".236"
         d="m 4.044903,160.95411 c 0,0 3.0632527,-4.71269 13.274252,-1.96378 1.256876,0.6282 2.43505,1.49251 4.241427,1.09947 1.806376,-0.6282 5.262197,-1.96378 11.703039,-0.94253 1.178174,0.7069 4.634465,2.35634 3.377589,5.65523 -0.863837,1.09947 -2.90632,2.51328 -8.168516,-0.39257 -2.277647,-1.41381 -4.241427,-2.90585 -7.147747,-2.51328 -2.120713,0.15694 -2.120713,0.15694 -2.120713,0.15694 -1.021242,-0.31434 -2.749388,-0.15694 -4.084494,0.6282 -1.885079,0.94254 -6.5190733,3.37759 -9.4253932,2.27764 -1.6494438,-0.78513 -2.9063199,-1.2564 -1.6494438,-4.00532 z"
         id="path4606" />
      <path
         style="fill:none;stroke:#000000;stroke-width:0.23563482;stroke-miterlimit:10"
         inkscape:connector-curvature="0"
         stroke-miterlimit="10" stroke="#000" stroke-width=".236"
         d="m 19.203762,162.05359 c 0,0 1.570742,-0.23564 2.120714,-0.15694 0.156932,1.72815 0.235634,8.56156 0,13.66682 -0.156933,2.12072 0.235634,3.06325 -2.513281,6.12651 -1.885079,1.96378 -4.86963,4.71269 -5.419601,5.4196 -0.706905,1.41381 -2.827618,6.59777 -2.984551,7.61901 0.0787,-2.82761 0.156933,-7.22597 2.43505,-9.18975 1.885079,-1.72815 4.162725,-3.53453 6.676477,-8.40416 -0.07917,-3.45629 0.07823,-14.21726 -0.314808,-15.08109 z"
         id="path4608" />
      <path
         stroke-miterlimit="10" stroke="#000" stroke-width=".236"
         d="m 14.7465,185.70473 c 0.0311,1.01039 0.504259,1.88507 1.115967,2.86296 m -1.687617,3.3856 c -0.154571,-1.48404 -0.533949,-3.63774 -0.783249,-4.84372 m -0.866665,7.82496 c -0.04147,-0.33648 -0.182383,-0.63526 -0.31905,-0.92462 -0.08577,-0.18239 -0.166825,-0.3544 -0.221497,-0.53019 -0.06646,-0.21395 -0.355338,-2.03729 -0.395397,-2.2734 m -0.316692,6.47383 c -0.151276,-1.0269 -0.307737,-2.08866 -0.395867,-3.12876 l 0.07069,-1.54152 m 0.167306,7.00684 m -2.1240105,3.37994 c 0.3006702,-2.49443 0.7620429,-6.43848 1.4241775,-8.94328 m -2.681054,6.76696 c -0.098962,-0.82283 1.2879799,-2.82762 2.0504943,-3.68674 m 0.6230177,-4.34699 c -0.7747673,0.56411 -1.6084413,2.18104 -2.127781,2.89359 -0.2540152,0.34827 -0.5165126,0.70785 -0.8049298,1.04575 -0.022136,0.0207 -0.044298,0.0466 -0.064569,0.0791 m 1.9359773,-4.63541 c 0.2017024,-0.51651 0.4528888,-1.15932 0.5485581,-1.35726 0.1696574,-0.35156 0.6131224,-0.88409 0.8685494,-1.19277 m 2.599523,-4.95352 c -1.743697,0.13243 -3.8219959,2.58868 -4.0967464,3.01659"
         id="path4610"
         inkscape:connector-curvature="0"
         fill="none" />
      <path
         stroke-miterlimit="10" stroke="#000" stroke-width=".236"
         d="m 33.724528,163.47446 c -0.278991,-0.87703 -1.591948,-1.41758 -2.376612,-1.74087 l -0.14798,-0.0608 c -0.99155,-0.41283 -2.068402,-0.62631 -2.999629,-0.79361"
         id="path4612"
         inkscape:connector-curvature="0"
         fill="none" />
      <path
         stroke-miterlimit="10" stroke="#000" stroke-width=".236"
         d="M 31.018971,162.10778"
         id="path4614"
         inkscape:connector-curvature="0"
         fill="none" />
      <path
         stroke-miterlimit="10" stroke="#000" stroke-width=".236"
         d="m 13.863342,159.4616 c -1.1942,-0.007 -2.583973,0.0641 -3.790422,0.56882 -0.9500799,0.39634 -2.539673,1.06083 -3.0175395,1.99442"
         id="path4616"
         inkscape:connector-curvature="0"
         fill="none" />
    </g>
    <g
       transform="translate(246.44048,1.1339287)"
       id="Y_Col-0_6hr"
       style="fill:none">
      <path
         id="path4620"
         d="m 4.044903,160.95411 c 0,0 3.0632527,-4.71269 13.274252,-1.96378 1.256876,0.6282 2.43505,1.49251 4.241427,1.09947 1.806376,-0.6282 5.262197,-1.96378 11.703039,-0.94253 1.178174,0.7069 4.634465,2.35634 3.377589,5.65523 -0.863837,1.09947 -2.90632,2.51328 -8.168516,-0.39257 -2.277647,-1.41381 -4.241427,-2.90585 -7.147747,-2.51328 -2.120713,0.15694 -2.120713,0.15694 -2.120713,0.15694 -1.021242,-0.31434 -2.749388,-0.15694 -4.084494,0.6282 -1.885079,0.94254 -6.5190733,3.37759 -9.4253932,2.27764 -1.6494438,-0.78513 -2.9063199,-1.2564 -1.6494438,-4.00532 z"
         stroke-miterlimit="10" stroke="#000" stroke-width=".236"
         inkscape:connector-curvature="0"
         style="fill:none;stroke:#000000;stroke-width:0.23563482;stroke-miterlimit:10" />
      <path
         id="path4622"
         d="m 19.203762,162.05359 c 0,0 1.570742,-0.23564 2.120714,-0.15694 0.156932,1.72815 0.235634,8.56156 0,13.66682 -0.156933,2.12072 0.235634,3.06325 -2.513281,6.12651 -1.885079,1.96378 -4.86963,4.71269 -5.419601,5.4196 -0.706905,1.41381 -2.827618,6.59777 -2.984551,7.61901 0.0787,-2.82761 0.156933,-7.22597 2.43505,-9.18975 1.885079,-1.72815 4.162725,-3.53453 6.676477,-8.40416 -0.07917,-3.45629 0.07823,-14.21726 -0.314808,-15.08109 z"
         stroke-miterlimit="10" stroke="#000" stroke-width=".236"
         inkscape:connector-curvature="0"
         style="fill:none;stroke:#000000;stroke-width:0.23563482;stroke-miterlimit:10" />
      <path
         fill="none"
         inkscape:connector-curvature="0"
         id="path4624"
         d="m 14.7465,185.70473 c 0.0311,1.01039 0.504259,1.88507 1.115967,2.86296 m -1.687617,3.3856 c -0.154571,-1.48404 -0.533949,-3.63774 -0.783249,-4.84372 m -0.866665,7.82496 c -0.04147,-0.33648 -0.182383,-0.63526 -0.31905,-0.92462 -0.08577,-0.18239 -0.166825,-0.3544 -0.221497,-0.53019 -0.06646,-0.21395 -0.355338,-2.03729 -0.395397,-2.2734 m -0.316692,6.47383 c -0.151276,-1.0269 -0.307737,-2.08866 -0.395867,-3.12876 l 0.07069,-1.54152 m 0.167306,7.00684 m -2.1240105,3.37994 c 0.3006702,-2.49443 0.7620429,-6.43848 1.4241775,-8.94328 m -2.681054,6.76696 c -0.098962,-0.82283 1.2879799,-2.82762 2.0504943,-3.68674 m 0.6230177,-4.34699 c -0.7747673,0.56411 -1.6084413,2.18104 -2.127781,2.89359 -0.2540152,0.34827 -0.5165126,0.70785 -0.8049298,1.04575 -0.022136,0.0207 -0.044298,0.0466 -0.064569,0.0791 m 1.9359773,-4.63541 c 0.2017024,-0.51651 0.4528888,-1.15932 0.5485581,-1.35726 0.1696574,-0.35156 0.6131224,-0.88409 0.8685494,-1.19277 m 2.599523,-4.95352 c -1.743697,0.13243 -3.8219959,2.58868 -4.0967464,3.01659"
         stroke-miterlimit="10" stroke="#000" stroke-width=".236" />
      <path
         fill="none"
         inkscape:connector-curvature="0"
         id="path4626"
         d="m 33.724528,163.47446 c -0.278991,-0.87703 -1.591948,-1.41758 -2.376612,-1.74087 l -0.14798,-0.0608 c -0.99155,-0.41283 -2.068402,-0.62631 -2.999629,-0.79361"
         stroke-miterlimit="10" stroke="#000" stroke-width=".236" />
      <path
         fill="none"
         inkscape:connector-curvature="0"
         id="path4628"
         d="M 31.018971,162.10778"
         stroke-miterlimit="10" stroke="#000" stroke-width=".236" />
      <path
         fill="none"
         inkscape:connector-curvature="0"
         id="path4630"
         d="m 13.863342,159.4616 c -1.1942,-0.007 -2.583973,0.0641 -3.790422,0.56882 -0.9500799,0.39634 -2.539673,1.06083 -3.0175395,1.99442"
         stroke-miterlimit="10" stroke="#000" stroke-width=".236" />
    </g>
    <g
       id="Y_Col-0_12hr"
       transform="translate(308.0506,1.1339287)"
       style="fill:none">
      <path
         style="fill:none;stroke:#000000;stroke-width:0.23563482;stroke-miterlimit:10"
         inkscape:connector-curvature="0"
         stroke-miterlimit="10" stroke="#000" stroke-width=".236"
         d="m 4.044903,160.95411 c 0,0 3.0632527,-4.71269 13.274252,-1.96378 1.256876,0.6282 2.43505,1.49251 4.241427,1.09947 1.806376,-0.6282 5.262197,-1.96378 11.703039,-0.94253 1.178174,0.7069 4.634465,2.35634 3.377589,5.65523 -0.863837,1.09947 -2.90632,2.51328 -8.168516,-0.39257 -2.277647,-1.41381 -4.241427,-2.90585 -7.147747,-2.51328 -2.120713,0.15694 -2.120713,0.15694 -2.120713,0.15694 -1.021242,-0.31434 -2.749388,-0.15694 -4.084494,0.6282 -1.885079,0.94254 -6.5190733,3.37759 -9.4253932,2.27764 -1.6494438,-0.78513 -2.9063199,-1.2564 -1.6494438,-4.00532 z"
         id="path4648" />
      <path
         style="fill:none;stroke:#000000;stroke-width:0.23563482;stroke-miterlimit:10"
         inkscape:connector-curvature="0"
         stroke-miterlimit="10" stroke="#000" stroke-width=".236"
         d="m 19.203762,162.05359 c 0,0 1.570742,-0.23564 2.120714,-0.15694 0.156932,1.72815 0.235634,8.56156 0,13.66682 -0.156933,2.12072 0.235634,3.06325 -2.513281,6.12651 -1.885079,1.96378 -4.86963,4.71269 -5.419601,5.4196 -0.706905,1.41381 -2.827618,6.59777 -2.984551,7.61901 0.0787,-2.82761 0.156933,-7.22597 2.43505,-9.18975 1.885079,-1.72815 4.162725,-3.53453 6.676477,-8.40416 -0.07917,-3.45629 0.07823,-14.21726 -0.314808,-15.08109 z"
         id="path4650" />
      <path
         stroke-miterlimit="10" stroke="#000" stroke-width=".236"
         d="m 14.7465,185.70473 c 0.0311,1.01039 0.504259,1.88507 1.115967,2.86296 m -1.687617,3.3856 c -0.154571,-1.48404 -0.533949,-3.63774 -0.783249,-4.84372 m -0.866665,7.82496 c -0.04147,-0.33648 -0.182383,-0.63526 -0.31905,-0.92462 -0.08577,-0.18239 -0.166825,-0.3544 -0.221497,-0.53019 -0.06646,-0.21395 -0.355338,-2.03729 -0.395397,-2.2734 m -0.316692,6.47383 c -0.151276,-1.0269 -0.307737,-2.08866 -0.395867,-3.12876 l 0.07069,-1.54152 m 0.167306,7.00684 m -2.1240105,3.37994 c 0.3006702,-2.49443 0.7620429,-6.43848 1.4241775,-8.94328 m -2.681054,6.76696 c -0.098962,-0.82283 1.2879799,-2.82762 2.0504943,-3.68674 m 0.6230177,-4.34699 c -0.7747673,0.56411 -1.6084413,2.18104 -2.127781,2.89359 -0.2540152,0.34827 -0.5165126,0.70785 -0.8049298,1.04575 -0.022136,0.0207 -0.044298,0.0466 -0.064569,0.0791 m 1.9359773,-4.63541 c 0.2017024,-0.51651 0.4528888,-1.15932 0.5485581,-1.35726 0.1696574,-0.35156 0.6131224,-0.88409 0.8685494,-1.19277 m 2.599523,-4.95352 c -1.743697,0.13243 -3.8219959,2.58868 -4.0967464,3.01659"
         id="path4652"
         inkscape:connector-curvature="0"
         fill="none" />
      <path
         stroke-miterlimit="10" stroke="#000" stroke-width=".236"
         d="m 33.724528,163.47446 c -0.278991,-0.87703 -1.591948,-1.41758 -2.376612,-1.74087 l -0.14798,-0.0608 c -0.99155,-0.41283 -2.068402,-0.62631 -2.999629,-0.79361"
         id="path4654"
         inkscape:connector-curvature="0"
         fill="none" />
      <path
         stroke-miterlimit="10" stroke="#000" stroke-width=".236"
         d="M 31.018971,162.10778"
         id="path4656"
         inkscape:connector-curvature="0"
         fill="none" />
      <path
         stroke-miterlimit="10" stroke="#000" stroke-width=".236"
         d="m 13.863342,159.4616 c -1.1942,-0.007 -2.583973,0.0641 -3.790422,0.56882 -0.9500799,0.39634 -2.539673,1.06083 -3.0175395,1.99442"
         id="path4658"
         inkscape:connector-curvature="0"
         fill="none" />
    </g>
    <g
       transform="translate(369.66072,1.1339287)"
       id="Y_Col-0_24hr"
       style="fill:none">
      <path
         id="path4662"
         d="m 4.044903,160.95411 c 0,0 3.0632527,-4.71269 13.274252,-1.96378 1.256876,0.6282 2.43505,1.49251 4.241427,1.09947 1.806376,-0.6282 5.262197,-1.96378 11.703039,-0.94253 1.178174,0.7069 4.634465,2.35634 3.377589,5.65523 -0.863837,1.09947 -2.90632,2.51328 -8.168516,-0.39257 -2.277647,-1.41381 -4.241427,-2.90585 -7.147747,-2.51328 -2.120713,0.15694 -2.120713,0.15694 -2.120713,0.15694 -1.021242,-0.31434 -2.749388,-0.15694 -4.084494,0.6282 -1.885079,0.94254 -6.5190733,3.37759 -9.4253932,2.27764 -1.6494438,-0.78513 -2.9063199,-1.2564 -1.6494438,-4.00532 z"
         stroke-miterlimit="10" stroke="#000" stroke-width=".236"
         inkscape:connector-curvature="0"
         style="fill:none;stroke:#000000;stroke-width:0.23563482;stroke-miterlimit:10" />
      <path
         id="path4664"
         d="m 19.203762,162.05359 c 0,0 1.570742,-0.23564 2.120714,-0.15694 0.156932,1.72815 0.235634,8.56156 0,13.66682 -0.156933,2.12072 0.235634,3.06325 -2.513281,6.12651 -1.885079,1.96378 -4.86963,4.71269 -5.419601,5.4196 -0.706905,1.41381 -2.827618,6.59777 -2.984551,7.61901 0.0787,-2.82761 0.156933,-7.22597 2.43505,-9.18975 1.885079,-1.72815 4.162725,-3.53453 6.676477,-8.40416 -0.07917,-3.45629 0.07823,-14.21726 -0.314808,-15.08109 z"
         stroke-miterlimit="10" stroke="#000" stroke-width=".236"
         inkscape:connector-curvature="0"
         style="fill:none;stroke:#000000;stroke-width:0.23563482;stroke-miterlimit:10" />
      <path
         fill="none"
         inkscape:connector-curvature="0"
         id="path4666"
         d="m 14.7465,185.70473 c 0.0311,1.01039 0.504259,1.88507 1.115967,2.86296 m -1.687617,3.3856 c -0.154571,-1.48404 -0.533949,-3.63774 -0.783249,-4.84372 m -0.866665,7.82496 c -0.04147,-0.33648 -0.182383,-0.63526 -0.31905,-0.92462 -0.08577,-0.18239 -0.166825,-0.3544 -0.221497,-0.53019 -0.06646,-0.21395 -0.355338,-2.03729 -0.395397,-2.2734 m -0.316692,6.47383 c -0.151276,-1.0269 -0.307737,-2.08866 -0.395867,-3.12876 l 0.07069,-1.54152 m 0.167306,7.00684 m -2.1240105,3.37994 c 0.3006702,-2.49443 0.7620429,-6.43848 1.4241775,-8.94328 m -2.681054,6.76696 c -0.098962,-0.82283 1.2879799,-2.82762 2.0504943,-3.68674 m 0.6230177,-4.34699 c -0.7747673,0.56411 -1.6084413,2.18104 -2.127781,2.89359 -0.2540152,0.34827 -0.5165126,0.70785 -0.8049298,1.04575 -0.022136,0.0207 -0.044298,0.0466 -0.064569,0.0791 m 1.9359773,-4.63541 c 0.2017024,-0.51651 0.4528888,-1.15932 0.5485581,-1.35726 0.1696574,-0.35156 0.6131224,-0.88409 0.8685494,-1.19277 m 2.599523,-4.95352 c -1.743697,0.13243 -3.8219959,2.58868 -4.0967464,3.01659"
         stroke-miterlimit="10" stroke="#000" stroke-width=".236" />
      <path
         fill="none"
         inkscape:connector-curvature="0"
         id="path4668"
         d="m 33.724528,163.47446 c -0.278991,-0.87703 -1.591948,-1.41758 -2.376612,-1.74087 l -0.14798,-0.0608 c -0.99155,-0.41283 -2.068402,-0.62631 -2.999629,-0.79361"
         stroke-miterlimit="10" stroke="#000" stroke-width=".236" />
      <path
         fill="none"
         inkscape:connector-curvature="0"
         id="path4670"
         d="M 31.018971,162.10778"
         stroke-miterlimit="10" stroke="#000" stroke-width=".236" />
      <path
         fill="none"
         inkscape:connector-curvature="0"
         id="path4672"
         d="m 13.863342,159.4616 c -1.1942,-0.007 -2.583973,0.0641 -3.790422,0.56882 -0.9500799,0.39634 -2.539673,1.06083 -3.0175395,1.99442"
         stroke-miterlimit="10" stroke="#000" stroke-width=".236" />
    </g>
    <g
       transform="translate(0,85.800595)"
       id="g4688"
       style="fill:none">
      <path
         id="path4676"
         d="m 4.044903,160.95411 c 0,0 3.0632527,-4.71269 13.274252,-1.96378 1.256876,0.6282 2.43505,1.49251 4.241427,1.09947 1.806376,-0.6282 5.262197,-1.96378 11.703039,-0.94253 1.178174,0.7069 4.634465,2.35634 3.377589,5.65523 -0.863837,1.09947 -2.90632,2.51328 -8.168516,-0.39257 -2.277647,-1.41381 -4.241427,-2.90585 -7.147747,-2.51328 -2.120713,0.15694 -2.120713,0.15694 -2.120713,0.15694 -1.021242,-0.31434 -2.749388,-0.15694 -4.084494,0.6282 -1.885079,0.94254 -6.5190733,3.37759 -9.4253932,2.27764 -1.6494438,-0.78513 -2.9063199,-1.2564 -1.6494438,-4.00532 z"
         stroke-miterlimit="10" stroke="#000" stroke-width=".236"
         inkscape:connector-curvature="0"
         style="fill:none;stroke:#000000;stroke-width:0.23563482;stroke-miterlimit:10" />
      <path
         id="path4678"
         d="m 19.203762,162.05359 c 0,0 1.570742,-0.23564 2.120714,-0.15694 0.156932,1.72815 0.235634,8.56156 0,13.66682 -0.156933,2.12072 0.235634,3.06325 -2.513281,6.12651 -1.885079,1.96378 -4.86963,4.71269 -5.419601,5.4196 -0.706905,1.41381 -2.827618,6.59777 -2.984551,7.61901 0.0787,-2.82761 0.156933,-7.22597 2.43505,-9.18975 1.885079,-1.72815 4.162725,-3.53453 6.676477,-8.40416 -0.07917,-3.45629 0.07823,-14.21726 -0.314808,-15.08109 z"
         stroke-miterlimit="10" stroke="#000" stroke-width=".236"
         inkscape:connector-curvature="0"
         style="fill:none;stroke:#000000;stroke-width:0.23563482;stroke-miterlimit:10" />
      <path
         fill="none"
         inkscape:connector-curvature="0"
         id="path4680"
         d="m 14.7465,185.70473 c 0.0311,1.01039 0.504259,1.88507 1.115967,2.86296 m -1.687617,3.3856 c -0.154571,-1.48404 -0.533949,-3.63774 -0.783249,-4.84372 m -0.866665,7.82496 c -0.04147,-0.33648 -0.182383,-0.63526 -0.31905,-0.92462 -0.08577,-0.18239 -0.166825,-0.3544 -0.221497,-0.53019 -0.06646,-0.21395 -0.355338,-2.03729 -0.395397,-2.2734 m -0.316692,6.47383 c -0.151276,-1.0269 -0.307737,-2.08866 -0.395867,-3.12876 l 0.07069,-1.54152 m 0.167306,7.00684 m -2.1240105,3.37994 c 0.3006702,-2.49443 0.7620429,-6.43848 1.4241775,-8.94328 m -2.681054,6.76696 c -0.098962,-0.82283 1.2879799,-2.82762 2.0504943,-3.68674 m 0.6230177,-4.34699 c -0.7747673,0.56411 -1.6084413,2.18104 -2.127781,2.89359 -0.2540152,0.34827 -0.5165126,0.70785 -0.8049298,1.04575 -0.022136,0.0207 -0.044298,0.0466 -0.064569,0.0791 m 1.9359773,-4.63541 c 0.2017024,-0.51651 0.4528888,-1.15932 0.5485581,-1.35726 0.1696574,-0.35156 0.6131224,-0.88409 0.8685494,-1.19277 m 2.599523,-4.95352 c -1.743697,0.13243 -3.8219959,2.58868 -4.0967464,3.01659"
         stroke-miterlimit="10" stroke="#000" stroke-width=".236" />
      <path
         fill="none"
         inkscape:connector-curvature="0"
         id="path4682"
         d="m 33.724528,163.47446 c -0.278991,-0.87703 -1.591948,-1.41758 -2.376612,-1.74087 l -0.14798,-0.0608 c -0.99155,-0.41283 -2.068402,-0.62631 -2.999629,-0.79361"
         stroke-miterlimit="10" stroke="#000" stroke-width=".236" />
      <path
         fill="none"
         inkscape:connector-curvature="0"
         id="path4684"
         d="M 31.018971,162.10778"
         stroke-miterlimit="10" stroke="#000" stroke-width=".236" />
      <path
         fill="none"
         inkscape:connector-curvature="0"
         id="path4686"
         d="m 13.863342,159.4616 c -1.1942,-0.007 -2.583973,0.0641 -3.790422,0.56882 -0.9500799,0.39634 -2.539673,1.06083 -3.0175395,1.99442"
         stroke-miterlimit="10" stroke="#000" stroke-width=".236" />
    </g>
    <g
       id="Y_sog1-1_20min"
       transform="translate(61.610119,85.800595)"
       style="fill:none">
      <path
         style="fill:none;stroke:#000000;stroke-width:0.23563482;stroke-miterlimit:10"
         inkscape:connector-curvature="0"
         stroke-miterlimit="10" stroke="#000" stroke-width=".236"
         d="m 4.044903,160.95411 c 0,0 3.0632527,-4.71269 13.274252,-1.96378 1.256876,0.6282 2.43505,1.49251 4.241427,1.09947 1.806376,-0.6282 5.262197,-1.96378 11.703039,-0.94253 1.178174,0.7069 4.634465,2.35634 3.377589,5.65523 -0.863837,1.09947 -2.90632,2.51328 -8.168516,-0.39257 -2.277647,-1.41381 -4.241427,-2.90585 -7.147747,-2.51328 -2.120713,0.15694 -2.120713,0.15694 -2.120713,0.15694 -1.021242,-0.31434 -2.749388,-0.15694 -4.084494,0.6282 -1.885079,0.94254 -6.5190733,3.37759 -9.4253932,2.27764 -1.6494438,-0.78513 -2.9063199,-1.2564 -1.6494438,-4.00532 z"
         id="path4690" />
      <path
         style="fill:none;stroke:#000000;stroke-width:0.23563482;stroke-miterlimit:10"
         inkscape:connector-curvature="0"
         stroke-miterlimit="10" stroke="#000" stroke-width=".236"
         d="m 19.203762,162.05359 c 0,0 1.570742,-0.23564 2.120714,-0.15694 0.156932,1.72815 0.235634,8.56156 0,13.66682 -0.156933,2.12072 0.235634,3.06325 -2.513281,6.12651 -1.885079,1.96378 -4.86963,4.71269 -5.419601,5.4196 -0.706905,1.41381 -2.827618,6.59777 -2.984551,7.61901 0.0787,-2.82761 0.156933,-7.22597 2.43505,-9.18975 1.885079,-1.72815 4.162725,-3.53453 6.676477,-8.40416 -0.07917,-3.45629 0.07823,-14.21726 -0.314808,-15.08109 z"
         id="path4692" />
      <path
         stroke-miterlimit="10" stroke="#000" stroke-width=".236"
         d="m 14.7465,185.70473 c 0.0311,1.01039 0.504259,1.88507 1.115967,2.86296 m -1.687617,3.3856 c -0.154571,-1.48404 -0.533949,-3.63774 -0.783249,-4.84372 m -0.866665,7.82496 c -0.04147,-0.33648 -0.182383,-0.63526 -0.31905,-0.92462 -0.08577,-0.18239 -0.166825,-0.3544 -0.221497,-0.53019 -0.06646,-0.21395 -0.355338,-2.03729 -0.395397,-2.2734 m -0.316692,6.47383 c -0.151276,-1.0269 -0.307737,-2.08866 -0.395867,-3.12876 l 0.07069,-1.54152 m 0.167306,7.00684 m -2.1240105,3.37994 c 0.3006702,-2.49443 0.7620429,-6.43848 1.4241775,-8.94328 m -2.681054,6.76696 c -0.098962,-0.82283 1.2879799,-2.82762 2.0504943,-3.68674 m 0.6230177,-4.34699 c -0.7747673,0.56411 -1.6084413,2.18104 -2.127781,2.89359 -0.2540152,0.34827 -0.5165126,0.70785 -0.8049298,1.04575 -0.022136,0.0207 -0.044298,0.0466 -0.064569,0.0791 m 1.9359773,-4.63541 c 0.2017024,-0.51651 0.4528888,-1.15932 0.5485581,-1.35726 0.1696574,-0.35156 0.6131224,-0.88409 0.8685494,-1.19277 m 2.599523,-4.95352 c -1.743697,0.13243 -3.8219959,2.58868 -4.0967464,3.01659"
         id="path4694"
         inkscape:connector-curvature="0"
         fill="none" />
      <path
         stroke-miterlimit="10" stroke="#000" stroke-width=".236"
         d="m 33.724528,163.47446 c -0.278991,-0.87703 -1.591948,-1.41758 -2.376612,-1.74087 l -0.14798,-0.0608 c -0.99155,-0.41283 -2.068402,-0.62631 -2.999629,-0.79361"
         id="path4696"
         inkscape:connector-curvature="0"
         fill="none" />
      <path
         stroke-miterlimit="10" stroke="#000" stroke-width=".236"
         d="M 31.018971,162.10778"
         id="path4698"
         inkscape:connector-curvature="0"
         fill="none" />
      <path
         stroke-miterlimit="10" stroke="#000" stroke-width=".236"
         d="m 13.863342,159.4616 c -1.1942,-0.007 -2.583973,0.0641 -3.790422,0.56882 -0.9500799,0.39634 -2.539673,1.06083 -3.0175395,1.99442"
         id="path4700"
         inkscape:connector-curvature="0"
         fill="none" />
    </g>
    <g
       transform="translate(123.22024,85.800595)"
       id="Y_sog1-1_90min"
       style="fill:none">
      <path
         id="path4704"
         d="m 4.044903,160.95411 c 0,0 3.0632527,-4.71269 13.274252,-1.96378 1.256876,0.6282 2.43505,1.49251 4.241427,1.09947 1.806376,-0.6282 5.262197,-1.96378 11.703039,-0.94253 1.178174,0.7069 4.634465,2.35634 3.377589,5.65523 -0.863837,1.09947 -2.90632,2.51328 -8.168516,-0.39257 -2.277647,-1.41381 -4.241427,-2.90585 -7.147747,-2.51328 -2.120713,0.15694 -2.120713,0.15694 -2.120713,0.15694 -1.021242,-0.31434 -2.749388,-0.15694 -4.084494,0.6282 -1.885079,0.94254 -6.5190733,3.37759 -9.4253932,2.27764 -1.6494438,-0.78513 -2.9063199,-1.2564 -1.6494438,-4.00532 z"
         stroke-miterlimit="10" stroke="#000" stroke-width=".236"
         inkscape:connector-curvature="0"
         style="fill:none;stroke:#000000;stroke-width:0.23563482;stroke-miterlimit:10" />
      <path
         id="path4706"
         d="m 19.203762,162.05359 c 0,0 1.570742,-0.23564 2.120714,-0.15694 0.156932,1.72815 0.235634,8.56156 0,13.66682 -0.156933,2.12072 0.235634,3.06325 -2.513281,6.12651 -1.885079,1.96378 -4.86963,4.71269 -5.419601,5.4196 -0.706905,1.41381 -2.827618,6.59777 -2.984551,7.61901 0.0787,-2.82761 0.156933,-7.22597 2.43505,-9.18975 1.885079,-1.72815 4.162725,-3.53453 6.676477,-8.40416 -0.07917,-3.45629 0.07823,-14.21726 -0.314808,-15.08109 z"
         stroke-miterlimit="10" stroke="#000" stroke-width=".236"
         inkscape:connector-curvature="0"
         style="fill:none;stroke:#000000;stroke-width:0.23563482;stroke-miterlimit:10" />
      <path
         fill="none"
         inkscape:connector-curvature="0"
         id="path4708"
         d="m 14.7465,185.70473 c 0.0311,1.01039 0.504259,1.88507 1.115967,2.86296 m -1.687617,3.3856 c -0.154571,-1.48404 -0.533949,-3.63774 -0.783249,-4.84372 m -0.866665,7.82496 c -0.04147,-0.33648 -0.182383,-0.63526 -0.31905,-0.92462 -0.08577,-0.18239 -0.166825,-0.3544 -0.221497,-0.53019 -0.06646,-0.21395 -0.355338,-2.03729 -0.395397,-2.2734 m -0.316692,6.47383 c -0.151276,-1.0269 -0.307737,-2.08866 -0.395867,-3.12876 l 0.07069,-1.54152 m 0.167306,7.00684 m -2.1240105,3.37994 c 0.3006702,-2.49443 0.7620429,-6.43848 1.4241775,-8.94328 m -2.681054,6.76696 c -0.098962,-0.82283 1.2879799,-2.82762 2.0504943,-3.68674 m 0.6230177,-4.34699 c -0.7747673,0.56411 -1.6084413,2.18104 -2.127781,2.89359 -0.2540152,0.34827 -0.5165126,0.70785 -0.8049298,1.04575 -0.022136,0.0207 -0.044298,0.0466 -0.064569,0.0791 m 1.9359773,-4.63541 c 0.2017024,-0.51651 0.4528888,-1.15932 0.5485581,-1.35726 0.1696574,-0.35156 0.6131224,-0.88409 0.8685494,-1.19277 m 2.599523,-4.95352 c -1.743697,0.13243 -3.8219959,2.58868 -4.0967464,3.01659"
         stroke-miterlimit="10" stroke="#000" stroke-width=".236" />
      <path
         fill="none"
         inkscape:connector-curvature="0"
         id="path4710"
         d="m 33.724528,163.47446 c -0.278991,-0.87703 -1.591948,-1.41758 -2.376612,-1.74087 l -0.14798,-0.0608 c -0.99155,-0.41283 -2.068402,-0.62631 -2.999629,-0.79361"
         stroke-miterlimit="10" stroke="#000" stroke-width=".236" />
      <path
         fill="none"
         inkscape:connector-curvature="0"
         id="path4712"
         d="M 31.018971,162.10778"
         stroke-miterlimit="10" stroke="#000" stroke-width=".236" />
      <path
         fill="none"
         inkscape:connector-curvature="0"
         id="path4714"
         d="m 13.863342,159.4616 c -1.1942,-0.007 -2.583973,0.0641 -3.790422,0.56882 -0.9500799,0.39634 -2.539673,1.06083 -3.0175395,1.99442"
         stroke-miterlimit="10" stroke="#000" stroke-width=".236" />
    </g>
    <g
       transform="translate(184.83036,85.800595)"
       id="Y_sog1-1_3hr"
       style="fill:none">
      <path
         id="path4718"
         d="m 4.044903,160.95411 c 0,0 3.0632527,-4.71269 13.274252,-1.96378 1.256876,0.6282 2.43505,1.49251 4.241427,1.09947 1.806376,-0.6282 5.262197,-1.96378 11.703039,-0.94253 1.178174,0.7069 4.634465,2.35634 3.377589,5.65523 -0.863837,1.09947 -2.90632,2.51328 -8.168516,-0.39257 -2.277647,-1.41381 -4.241427,-2.90585 -7.147747,-2.51328 -2.120713,0.15694 -2.120713,0.15694 -2.120713,0.15694 -1.021242,-0.31434 -2.749388,-0.15694 -4.084494,0.6282 -1.885079,0.94254 -6.5190733,3.37759 -9.4253932,2.27764 -1.6494438,-0.78513 -2.9063199,-1.2564 -1.6494438,-4.00532 z"
         stroke-miterlimit="10" stroke="#000" stroke-width=".236"
         inkscape:connector-curvature="0"
         style="fill:none;stroke:#000000;stroke-width:0.23563482;stroke-miterlimit:10" />
      <path
         id="path4720"
         d="m 19.203762,162.05359 c 0,0 1.570742,-0.23564 2.120714,-0.15694 0.156932,1.72815 0.235634,8.56156 0,13.66682 -0.156933,2.12072 0.235634,3.06325 -2.513281,6.12651 -1.885079,1.96378 -4.86963,4.71269 -5.419601,5.4196 -0.706905,1.41381 -2.827618,6.59777 -2.984551,7.61901 0.0787,-2.82761 0.156933,-7.22597 2.43505,-9.18975 1.885079,-1.72815 4.162725,-3.53453 6.676477,-8.40416 -0.07917,-3.45629 0.07823,-14.21726 -0.314808,-15.08109 z"
         stroke-miterlimit="10" stroke="#000" stroke-width=".236"
         inkscape:connector-curvature="0"
         style="fill:none;stroke:#000000;stroke-width:0.23563482;stroke-miterlimit:10" />
      <path
         fill="none"
         inkscape:connector-curvature="0"
         id="path4722"
         d="m 14.7465,185.70473 c 0.0311,1.01039 0.504259,1.88507 1.115967,2.86296 m -1.687617,3.3856 c -0.154571,-1.48404 -0.533949,-3.63774 -0.783249,-4.84372 m -0.866665,7.82496 c -0.04147,-0.33648 -0.182383,-0.63526 -0.31905,-0.92462 -0.08577,-0.18239 -0.166825,-0.3544 -0.221497,-0.53019 -0.06646,-0.21395 -0.355338,-2.03729 -0.395397,-2.2734 m -0.316692,6.47383 c -0.151276,-1.0269 -0.307737,-2.08866 -0.395867,-3.12876 l 0.07069,-1.54152 m 0.167306,7.00684 m -2.1240105,3.37994 c 0.3006702,-2.49443 0.7620429,-6.43848 1.4241775,-8.94328 m -2.681054,6.76696 c -0.098962,-0.82283 1.2879799,-2.82762 2.0504943,-3.68674 m 0.6230177,-4.34699 c -0.7747673,0.56411 -1.6084413,2.18104 -2.127781,2.89359 -0.2540152,0.34827 -0.5165126,0.70785 -0.8049298,1.04575 -0.022136,0.0207 -0.044298,0.0466 -0.064569,0.0791 m 1.9359773,-4.63541 c 0.2017024,-0.51651 0.4528888,-1.15932 0.5485581,-1.35726 0.1696574,-0.35156 0.6131224,-0.88409 0.8685494,-1.19277 m 2.599523,-4.95352 c -1.743697,0.13243 -3.8219959,2.58868 -4.0967464,3.01659"
         stroke-miterlimit="10" stroke="#000" stroke-width=".236" />
      <path
         fill="none"
         inkscape:connector-curvature="0"
         id="path4724"
         d="m 33.724528,163.47446 c -0.278991,-0.87703 -1.591948,-1.41758 -2.376612,-1.74087 l -0.14798,-0.0608 c -0.99155,-0.41283 -2.068402,-0.62631 -2.999629,-0.79361"
         stroke-miterlimit="10" stroke="#000" stroke-width=".236" />
      <path
         fill="none"
         inkscape:connector-curvature="0"
         id="path4726"
         d="M 31.018971,162.10778"
         stroke-miterlimit="10" stroke="#000" stroke-width=".236" />
      <path
         fill="none"
         inkscape:connector-curvature="0"
         id="path4728"
         d="m 13.863342,159.4616 c -1.1942,-0.007 -2.583973,0.0641 -3.790422,0.56882 -0.9500799,0.39634 -2.539673,1.06083 -3.0175395,1.99442"
         stroke-miterlimit="10" stroke="#000" stroke-width=".236" />
    </g>
    <g
       id="Y_sog1-1_6hr"
       transform="translate(246.44048,85.800595)"
       style="fill:none">
      <path
         style="fill:none;stroke:#000000;stroke-width:0.23563482;stroke-miterlimit:10"
         inkscape:connector-curvature="0"
         stroke-miterlimit="10" stroke="#000" stroke-width=".236"
         d="m 4.044903,160.95411 c 0,0 3.0632527,-4.71269 13.274252,-1.96378 1.256876,0.6282 2.43505,1.49251 4.241427,1.09947 1.806376,-0.6282 5.262197,-1.96378 11.703039,-0.94253 1.178174,0.7069 4.634465,2.35634 3.377589,5.65523 -0.863837,1.09947 -2.90632,2.51328 -8.168516,-0.39257 -2.277647,-1.41381 -4.241427,-2.90585 -7.147747,-2.51328 -2.120713,0.15694 -2.120713,0.15694 -2.120713,0.15694 -1.021242,-0.31434 -2.749388,-0.15694 -4.084494,0.6282 -1.885079,0.94254 -6.5190733,3.37759 -9.4253932,2.27764 -1.6494438,-0.78513 -2.9063199,-1.2564 -1.6494438,-4.00532 z"
         id="path4732" />
      <path
         style="fill:none;stroke:#000000;stroke-width:0.23563482;stroke-miterlimit:10"
         inkscape:connector-curvature="0"
         stroke-miterlimit="10" stroke="#000" stroke-width=".236"
         d="m 19.203762,162.05359 c 0,0 1.570742,-0.23564 2.120714,-0.15694 0.156932,1.72815 0.235634,8.56156 0,13.66682 -0.156933,2.12072 0.235634,3.06325 -2.513281,6.12651 -1.885079,1.96378 -4.86963,4.71269 -5.419601,5.4196 -0.706905,1.41381 -2.827618,6.59777 -2.984551,7.61901 0.0787,-2.82761 0.156933,-7.22597 2.43505,-9.18975 1.885079,-1.72815 4.162725,-3.53453 6.676477,-8.40416 -0.07917,-3.45629 0.07823,-14.21726 -0.314808,-15.08109 z"
         id="path4734" />
      <path
         stroke-miterlimit="10" stroke="#000" stroke-width=".236"
         d="m 14.7465,185.70473 c 0.0311,1.01039 0.504259,1.88507 1.115967,2.86296 m -1.687617,3.3856 c -0.154571,-1.48404 -0.533949,-3.63774 -0.783249,-4.84372 m -0.866665,7.82496 c -0.04147,-0.33648 -0.182383,-0.63526 -0.31905,-0.92462 -0.08577,-0.18239 -0.166825,-0.3544 -0.221497,-0.53019 -0.06646,-0.21395 -0.355338,-2.03729 -0.395397,-2.2734 m -0.316692,6.47383 c -0.151276,-1.0269 -0.307737,-2.08866 -0.395867,-3.12876 l 0.07069,-1.54152 m 0.167306,7.00684 m -2.1240105,3.37994 c 0.3006702,-2.49443 0.7620429,-6.43848 1.4241775,-8.94328 m -2.681054,6.76696 c -0.098962,-0.82283 1.2879799,-2.82762 2.0504943,-3.68674 m 0.6230177,-4.34699 c -0.7747673,0.56411 -1.6084413,2.18104 -2.127781,2.89359 -0.2540152,0.34827 -0.5165126,0.70785 -0.8049298,1.04575 -0.022136,0.0207 -0.044298,0.0466 -0.064569,0.0791 m 1.9359773,-4.63541 c 0.2017024,-0.51651 0.4528888,-1.15932 0.5485581,-1.35726 0.1696574,-0.35156 0.6131224,-0.88409 0.8685494,-1.19277 m 2.599523,-4.95352 c -1.743697,0.13243 -3.8219959,2.58868 -4.0967464,3.01659"
         id="path4736"
         inkscape:connector-curvature="0"
         fill="none" />
      <path
         stroke-miterlimit="10" stroke="#000" stroke-width=".236"
         d="m 33.724528,163.47446 c -0.278991,-0.87703 -1.591948,-1.41758 -2.376612,-1.74087 l -0.14798,-0.0608 c -0.99155,-0.41283 -2.068402,-0.62631 -2.999629,-0.79361"
         id="path4738"
         inkscape:connector-curvature="0"
         fill="none" />
      <path
         stroke-miterlimit="10" stroke="#000" stroke-width=".236"
         d="M 31.018971,162.10778"
         id="path4740"
         inkscape:connector-curvature="0"
         fill="none" />
      <path
         stroke-miterlimit="10" stroke="#000" stroke-width=".236"
         d="m 13.863342,159.4616 c -1.1942,-0.007 -2.583973,0.0641 -3.790422,0.56882 -0.9500799,0.39634 -2.539673,1.06083 -3.0175395,1.99442"
         id="path4742"
         inkscape:connector-curvature="0"
         fill="none" />
    </g>
    <g
       transform="translate(308.0506,85.800595)"
       id="Y_sog1-1_12hr"
       style="fill:none">
      <path
         id="path4746"
         d="m 4.044903,160.95411 c 0,0 3.0632527,-4.71269 13.274252,-1.96378 1.256876,0.6282 2.43505,1.49251 4.241427,1.09947 1.806376,-0.6282 5.262197,-1.96378 11.703039,-0.94253 1.178174,0.7069 4.634465,2.35634 3.377589,5.65523 -0.863837,1.09947 -2.90632,2.51328 -8.168516,-0.39257 -2.277647,-1.41381 -4.241427,-2.90585 -7.147747,-2.51328 -2.120713,0.15694 -2.120713,0.15694 -2.120713,0.15694 -1.021242,-0.31434 -2.749388,-0.15694 -4.084494,0.6282 -1.885079,0.94254 -6.5190733,3.37759 -9.4253932,2.27764 -1.6494438,-0.78513 -2.9063199,-1.2564 -1.6494438,-4.00532 z"
         stroke-miterlimit="10" stroke="#000" stroke-width=".236"
         inkscape:connector-curvature="0"
         style="fill:none;stroke:#000000;stroke-width:0.23563482;stroke-miterlimit:10" />
      <path
         id="path4748"
         d="m 19.203762,162.05359 c 0,0 1.570742,-0.23564 2.120714,-0.15694 0.156932,1.72815 0.235634,8.56156 0,13.66682 -0.156933,2.12072 0.235634,3.06325 -2.513281,6.12651 -1.885079,1.96378 -4.86963,4.71269 -5.419601,5.4196 -0.706905,1.41381 -2.827618,6.59777 -2.984551,7.61901 0.0787,-2.82761 0.156933,-7.22597 2.43505,-9.18975 1.885079,-1.72815 4.162725,-3.53453 6.676477,-8.40416 -0.07917,-3.45629 0.07823,-14.21726 -0.314808,-15.08109 z"
         stroke-miterlimit="10" stroke="#000" stroke-width=".236"
         inkscape:connector-curvature="0"
         style="fill:none;stroke:#000000;stroke-width:0.23563482;stroke-miterlimit:10" />
      <path
         fill="none"
         inkscape:connector-curvature="0"
         id="path4750"
         d="m 14.7465,185.70473 c 0.0311,1.01039 0.504259,1.88507 1.115967,2.86296 m -1.687617,3.3856 c -0.154571,-1.48404 -0.533949,-3.63774 -0.783249,-4.84372 m -0.866665,7.82496 c -0.04147,-0.33648 -0.182383,-0.63526 -0.31905,-0.92462 -0.08577,-0.18239 -0.166825,-0.3544 -0.221497,-0.53019 -0.06646,-0.21395 -0.355338,-2.03729 -0.395397,-2.2734 m -0.316692,6.47383 c -0.151276,-1.0269 -0.307737,-2.08866 -0.395867,-3.12876 l 0.07069,-1.54152 m 0.167306,7.00684 m -2.1240105,3.37994 c 0.3006702,-2.49443 0.7620429,-6.43848 1.4241775,-8.94328 m -2.681054,6.76696 c -0.098962,-0.82283 1.2879799,-2.82762 2.0504943,-3.68674 m 0.6230177,-4.34699 c -0.7747673,0.56411 -1.6084413,2.18104 -2.127781,2.89359 -0.2540152,0.34827 -0.5165126,0.70785 -0.8049298,1.04575 -0.022136,0.0207 -0.044298,0.0466 -0.064569,0.0791 m 1.9359773,-4.63541 c 0.2017024,-0.51651 0.4528888,-1.15932 0.5485581,-1.35726 0.1696574,-0.35156 0.6131224,-0.88409 0.8685494,-1.19277 m 2.599523,-4.95352 c -1.743697,0.13243 -3.8219959,2.58868 -4.0967464,3.01659"
         stroke-miterlimit="10" stroke="#000" stroke-width=".236" />
      <path
         fill="none"
         inkscape:connector-curvature="0"
         id="path4752"
         d="m 33.724528,163.47446 c -0.278991,-0.87703 -1.591948,-1.41758 -2.376612,-1.74087 l -0.14798,-0.0608 c -0.99155,-0.41283 -2.068402,-0.62631 -2.999629,-0.79361"
         stroke-miterlimit="10" stroke="#000" stroke-width=".236" />
      <path
         fill="none"
         inkscape:connector-curvature="0"
         id="path4754"
         d="M 31.018971,162.10778"
         stroke-miterlimit="10" stroke="#000" stroke-width=".236" />
      <path
         fill="none"
         inkscape:connector-curvature="0"
         id="path4756"
         d="m 13.863342,159.4616 c -1.1942,-0.007 -2.583973,0.0641 -3.790422,0.56882 -0.9500799,0.39634 -2.539673,1.06083 -3.0175395,1.99442"
         stroke-miterlimit="10" stroke="#000" stroke-width=".236" />
    </g>
    <g
       id="Y_sog1-1_24hr"
       transform="translate(369.66072,85.800595)"
       style="fill:none">
      <path
         style="fill:none;stroke:#000000;stroke-width:0.23563482;stroke-miterlimit:10"
         inkscape:connector-curvature="0"
         stroke-miterlimit="10" stroke="#000" stroke-width=".236"
         d="m 4.044903,160.95411 c 0,0 3.0632527,-4.71269 13.274252,-1.96378 1.256876,0.6282 2.43505,1.49251 4.241427,1.09947 1.806376,-0.6282 5.262197,-1.96378 11.703039,-0.94253 1.178174,0.7069 4.634465,2.35634 3.377589,5.65523 -0.863837,1.09947 -2.90632,2.51328 -8.168516,-0.39257 -2.277647,-1.41381 -4.241427,-2.90585 -7.147747,-2.51328 -2.120713,0.15694 -2.120713,0.15694 -2.120713,0.15694 -1.021242,-0.31434 -2.749388,-0.15694 -4.084494,0.6282 -1.885079,0.94254 -6.5190733,3.37759 -9.4253932,2.27764 -1.6494438,-0.78513 -2.9063199,-1.2564 -1.6494438,-4.00532 z"
         id="path4760" />
      <path
         style="fill:none;stroke:#000000;stroke-width:0.23563482;stroke-miterlimit:10"
         inkscape:connector-curvature="0"
         stroke-miterlimit="10" stroke="#000" stroke-width=".236"
         d="m 19.203762,162.05359 c 0,0 1.570742,-0.23564 2.120714,-0.15694 0.156932,1.72815 0.235634,8.56156 0,13.66682 -0.156933,2.12072 0.235634,3.06325 -2.513281,6.12651 -1.885079,1.96378 -4.86963,4.71269 -5.419601,5.4196 -0.706905,1.41381 -2.827618,6.59777 -2.984551,7.61901 0.0787,-2.82761 0.156933,-7.22597 2.43505,-9.18975 1.885079,-1.72815 4.162725,-3.53453 6.676477,-8.40416 -0.07917,-3.45629 0.07823,-14.21726 -0.314808,-15.08109 z"
         id="path4762" />
      <path
         stroke-miterlimit="10" stroke="#000" stroke-width=".236"
         d="m 14.7465,185.70473 c 0.0311,1.01039 0.504259,1.88507 1.115967,2.86296 m -1.687617,3.3856 c -0.154571,-1.48404 -0.533949,-3.63774 -0.783249,-4.84372 m -0.866665,7.82496 c -0.04147,-0.33648 -0.182383,-0.63526 -0.31905,-0.92462 -0.08577,-0.18239 -0.166825,-0.3544 -0.221497,-0.53019 -0.06646,-0.21395 -0.355338,-2.03729 -0.395397,-2.2734 m -0.316692,6.47383 c -0.151276,-1.0269 -0.307737,-2.08866 -0.395867,-3.12876 l 0.07069,-1.54152 m 0.167306,7.00684 m -2.1240105,3.37994 c 0.3006702,-2.49443 0.7620429,-6.43848 1.4241775,-8.94328 m -2.681054,6.76696 c -0.098962,-0.82283 1.2879799,-2.82762 2.0504943,-3.68674 m 0.6230177,-4.34699 c -0.7747673,0.56411 -1.6084413,2.18104 -2.127781,2.89359 -0.2540152,0.34827 -0.5165126,0.70785 -0.8049298,1.04575 -0.022136,0.0207 -0.044298,0.0466 -0.064569,0.0791 m 1.9359773,-4.63541 c 0.2017024,-0.51651 0.4528888,-1.15932 0.5485581,-1.35726 0.1696574,-0.35156 0.6131224,-0.88409 0.8685494,-1.19277 m 2.599523,-4.95352 c -1.743697,0.13243 -3.8219959,2.58868 -4.0967464,3.01659"
         id="path4764"
         inkscape:connector-curvature="0"
         fill="none" />
      <path
         stroke-miterlimit="10" stroke="#000" stroke-width=".236"
         d="m 33.724528,163.47446 c -0.278991,-0.87703 -1.591948,-1.41758 -2.376612,-1.74087 l -0.14798,-0.0608 c -0.99155,-0.41283 -2.068402,-0.62631 -2.999629,-0.79361"
         id="path4766"
         inkscape:connector-curvature="0"
         fill="none" />
      <path
         stroke-miterlimit="10" stroke="#000" stroke-width=".236"
         d="M 31.018971,162.10778"
         id="path4768"
         inkscape:connector-curvature="0"
         fill="none" />
      <path
         stroke-miterlimit="10" stroke="#000" stroke-width=".236"
         d="m 13.863342,159.4616 c -1.1942,-0.007 -2.583973,0.0641 -3.790422,0.56882 -0.9500799,0.39634 -2.539673,1.06083 -3.0175395,1.99442"
         id="path4770"
         inkscape:connector-curvature="0"
         fill="none" />
    </g>
    <text
       xml:space="preserve"
       style="font-style:normal;font-variant:normal;font-weight:normal;font-stretch:normal;font-size:21.16666603px;line-height:1.25;font-family:Arial;-inkscape-font-specification:Arial;text-align:start;letter-spacing:0px;word-spacing:0px;text-anchor:start;fill:#000000;fill-opacity:1;stroke:none;stroke-width:0.26458332"
       x="16.630951"
       y="222.91667"
       id="text4776"><tspan
         sodipodi:role="line"
         id="tspan4774"
         x="16.630951"
         y="222.91667"
         style="font-size:21.16666603px;stroke-width:0.26458332">0</tspan></text>
    <text
       id="text4780"
       y="222.91667"
       x="70.681541"
       style="font-style:normal;font-variant:normal;font-weight:normal;font-stretch:normal;font-size:21.16666603px;line-height:1.25;font-family:Arial;-inkscape-font-specification:Arial;text-align:start;letter-spacing:0px;word-spacing:0px;text-anchor:start;fill:#000000;fill-opacity:1;stroke:none;stroke-width:0.26458332"
       xml:space="preserve"><tspan
         style="font-size:21.16666603px;stroke-width:0.26458332"
         y="222.91667"
         x="70.681541"
         id="tspan4778"
         sodipodi:role="line">20'</tspan></text>
    <text
       xml:space="preserve"
       style="font-style:normal;font-variant:normal;font-weight:normal;font-stretch:normal;font-size:21.16666603px;line-height:1.25;font-family:Arial;-inkscape-font-specification:Arial;text-align:start;letter-spacing:0px;word-spacing:0px;text-anchor:start;fill:#000000;fill-opacity:1;stroke:none;stroke-width:0.26458332"
       x="126.99999"
       y="222.91667"
       id="text4784"><tspan
         sodipodi:role="line"
         id="tspan4782"
         x="126.99999"
         y="222.91667"
         style="font-size:21.16666603px;stroke-width:0.26458332">1h30'</tspan></text>
    <text
       id="text4788"
       y="222.91667"
       x="190.12201"
       style="font-style:normal;font-variant:normal;font-weight:normal;font-stretch:normal;font-size:21.16666603px;line-height:1.25;font-family:Arial;-inkscape-font-specification:Arial;text-align:start;letter-spacing:0px;word-spacing:0px;text-anchor:start;fill:#000000;fill-opacity:1;stroke:none;stroke-width:0.26458332"
       xml:space="preserve"><tspan
         style="font-size:21.16666603px;stroke-width:0.26458332"
         y="222.91667"
         x="190.12201"
         id="tspan4786"
         sodipodi:role="line">3h</tspan></text>
    <text
       xml:space="preserve"
       style="font-style:normal;font-variant:normal;font-weight:normal;font-stretch:normal;font-size:21.16666603px;line-height:1.25;font-family:Arial;-inkscape-font-specification:Arial;text-align:start;letter-spacing:0px;word-spacing:0px;text-anchor:start;fill:#000000;fill-opacity:1;stroke:none;stroke-width:0.26458332"
       x="248.70831"
       y="222.91667"
       id="text4792"><tspan
         sodipodi:role="line"
         id="tspan4790"
         x="248.70831"
         y="222.91667"
         style="font-size:21.16666603px;stroke-width:0.26458332">6h</tspan></text>
    <text
       id="text4796"
       y="222.91667"
       x="312.5863"
       style="font-style:normal;font-variant:normal;font-weight:normal;font-stretch:normal;font-size:21.16666603px;line-height:1.25;font-family:Arial;-inkscape-font-specification:Arial;text-align:start;letter-spacing:0px;word-spacing:0px;text-anchor:start;fill:#000000;fill-opacity:1;stroke:none;stroke-width:0.26458332"
       xml:space="preserve"><tspan
         style="font-size:21.16666603px;stroke-width:0.26458332"
         y="222.91667"
         x="312.5863"
         id="tspan4794"
         sodipodi:role="line">12h'</tspan></text>
    <text
       xml:space="preserve"
       style="font-style:normal;font-variant:normal;font-weight:normal;font-stretch:normal;font-size:21.16666603px;line-height:1.25;font-family:Arial;-inkscape-font-specification:Arial;text-align:start;letter-spacing:0px;word-spacing:0px;text-anchor:start;fill:#000000;fill-opacity:1;stroke:none;stroke-width:0.26458332"
       x="368.90475"
       y="222.91667"
       id="text4800"><tspan
         sodipodi:role="line"
         id="tspan4798"
         x="368.90475"
         y="222.91667"
         style="font-size:21.16666603px;stroke-width:0.26458332">24h</tspan></text>
    <path
       style="fill:none;stroke:#000000;stroke-width:0.26499999;stroke-linecap:butt;stroke-linejoin:miter;stroke-miterlimit:4;stroke-dasharray:none;stroke-opacity:1;marker-end:url(#marker5186)"
       d="M -27.214285,173.02381 H -4.5357142"
       id="path4802"
       inkscape:connector-curvature="0" />
    <path
       inkscape:connector-curvature="0"
       id="path4808"
       d="M -27.214285,257.3125 H -4.5357142"
       style="fill:none;stroke:#000000;stroke-width:0.26499999;stroke-linecap:butt;stroke-linejoin:miter;stroke-miterlimit:4;stroke-dasharray:none;stroke-opacity:1;marker-end:url(#marker5152)" />
    <path
       style="fill:none;stroke:#000000;stroke-width:0.26499999;stroke-linecap:butt;stroke-linejoin:miter;stroke-miterlimit:4;stroke-dasharray:none;stroke-opacity:1;marker-end:url(#marker5124)"
       d="M -88.824405,202.88393 V 181.33928"
       id="path4810"
       inkscape:connector-curvature="0" />
    <path
       inkscape:connector-curvature="0"
       id="path4812"
       d="m -88.824405,229.72023 v 21.54465"
       style="fill:none;stroke:#000000;stroke-width:0.26499999;stroke-linecap:butt;stroke-linejoin:miter;stroke-miterlimit:4;stroke-dasharray:none;stroke-opacity:1;marker-end:url(#marker5102)" />
    <path
       style="fill:none;stroke:#000000;stroke-width:0.26499999;stroke-linecap:butt;stroke-linejoin:miter;stroke-miterlimit:4;stroke-dasharray:none;stroke-opacity:1;marker-end:url(#Arrow1Lend)"
       d="m -130.02381,216.11309 h 21.92262"
       id="path4814"
       inkscape:connector-curvature="0" />
    <path
       style="fill:none;stroke:#000000;stroke-width:0.26499999;stroke-linecap:butt;stroke-linejoin:miter;stroke-miterlimit:4;stroke-dasharray:none;stroke-opacity:1;marker-end:url(#marker5226)"
       d="m -181.42857,235.76785 16.44196,-16.44196"
       id="path4816"
       inkscape:connector-curvature="0" />
    <text
       xml:space="preserve"
       style="font-style:normal;font-variant:normal;font-weight:normal;font-stretch:normal;font-size:16.93333244px;line-height:1.25;font-family:Arial;-inkscape-font-specification:Arial;text-align:start;letter-spacing:0px;word-spacing:0px;text-anchor:start;fill:#f9b233;fill-opacity:1;stroke:none;stroke-width:0.26458332"
       x="-202.05576"
       y="251.02966"
       id="text5290"><tspan
         sodipodi:role="line"
         id="tspan5288"
         x="-202.05576"
         y="251.02966"
         style="font-size:16.93333244px;fill:#f9b233;fill-opacity:1;stroke-width:0.26458332">-IR</tspan></text>
    <text
       xml:space="preserve"
       style="font-style:normal;font-variant:normal;font-weight:normal;font-stretch:normal;font-size:11.28888893px;line-height:1.25;font-family:Arial;-inkscape-font-specification:Arial;text-align:start;letter-spacing:0px;word-spacing:0px;text-anchor:start;fill:#f9b233;fill-opacity:1;stroke:none;stroke-width:0.26458332"
       x="-169.44888"
       y="212.54282"
       id="text5294"><tspan
         sodipodi:role="line"
         id="tspan5292"
         x="-169.44888"
         y="212.54282"
         style="font-size:11.28888893px;fill:#f9b233;fill-opacity:1;stroke-width:0.26458332">DSB</tspan></text>
    <path
       style="fill:none;stroke:#000000;stroke-width:0.26458332px;stroke-linecap:butt;stroke-linejoin:miter;stroke-opacity:1"
       d="m -158.13525,216.65187 c 0,0 3.67495,9.9892 8.41899,0 0,0 3.67495,-9.9892 8.41899,0"
       id="path5338"
       inkscape:connector-curvature="0"
       sodipodi:nodetypes="ccc" />
    <path
       sodipodi:nodetypes="ccc"
       inkscape:connector-curvature="0"
       id="path5340"
       d="m -156.10363,216.65187 c 0,0 3.67495,9.9892 8.41899,0 0,0 3.67495,-9.9892 8.41899,0"
       style="fill:none;stroke:#000000;stroke-width:0.26458332px;stroke-linecap:butt;stroke-linejoin:miter;stroke-opacity:1" />
    <path
       style="opacity:1;vector-effect:none;fill:#9c59a0;fill-opacity:1;fill-rule:evenodd;stroke:none;stroke-width:0.26499999;stroke-linecap:butt;stroke-linejoin:miter;stroke-miterlimit:4;stroke-dasharray:none;stroke-dashoffset:0;stroke-opacity:1"
       d="m -67.485565,164.16704 a 20.847023,9.354434 0 0 1 -20.847023,9.35443 20.847023,9.354434 0 0 1 -20.847022,-9.35443 20.847023,9.354434 0 0 1 20.847022,-9.35444 20.847023,9.354434 0 0 1 20.847023,9.35444 z"
       id="path5344"
       inkscape:connector-curvature="0" />
    <text
       xml:space="preserve"
       style="font-style:normal;font-variant:normal;font-weight:normal;font-stretch:normal;font-size:8.46666622px;line-height:1.25;font-family:Arial;-inkscape-font-specification:Arial;text-align:start;letter-spacing:0px;word-spacing:0px;text-anchor:start;fill:#000000;fill-opacity:1;stroke:none;stroke-width:0.26458332"
       x="-100.76061"
       y="166.83974"
       id="text5348"><tspan
         sodipodi:role="line"
         id="tspan5346"
         x="-100.76061"
         y="166.83974"
         style="stroke-width:0.26458332">SOG1</tspan></text>
    <path
       style="opacity:1;vector-effect:none;fill:#3b3b7d;fill-opacity:1;fill-rule:evenodd;stroke:none;stroke-width:0.26499999;stroke-linecap:butt;stroke-linejoin:miter;stroke-miterlimit:4;stroke-dasharray:none;stroke-dashoffset:0;stroke-opacity:1"
       d="m -94.078879,154.81261 a 2.271791,2.271791 0 0 1 -2.271791,2.27179 2.271791,2.271791 0 0 1 -2.271791,-2.27179 2.271791,2.271791 0 0 1 2.271791,-2.27179 2.271791,2.271791 0 0 1 2.271791,2.27179 z"
       id="path5354"
       inkscape:connector-curvature="0" />
    <path
       style="opacity:1;vector-effect:none;fill:#3b3b7d;fill-opacity:1;fill-rule:evenodd;stroke:none;stroke-width:0.26499999;stroke-linecap:butt;stroke-linejoin:miter;stroke-miterlimit:4;stroke-dasharray:none;stroke-dashoffset:0;stroke-opacity:1"
       d="m -89.401663,156.54987 a 2.271791,2.271791 0 0 1 -2.271791,2.27179 2.271791,2.271791 0 0 1 -2.271791,-2.27179 2.271791,2.271791 0 0 1 2.271791,-2.2718 2.271791,2.271791 0 0 1 2.271791,2.2718 z"
       id="circle5356"
       inkscape:connector-curvature="0" />
    <path
       style="opacity:1;vector-effect:none;fill:#3b3b7d;fill-opacity:1;fill-rule:evenodd;stroke:none;stroke-width:0.26499999;stroke-linecap:butt;stroke-linejoin:miter;stroke-miterlimit:4;stroke-dasharray:none;stroke-dashoffset:0;stroke-opacity:1"
       d="m -81.249945,154.27808 a 2.271791,2.271791 0 0 1 -2.271791,2.27179 2.271791,2.271791 0 0 1 -2.271791,-2.27179 2.271791,2.271791 0 0 1 2.271791,-2.27179 2.271791,2.271791 0 0 1 2.271791,2.27179 z"
       id="circle5358"
       inkscape:connector-curvature="0" />
    <path
       sodipodi:nodetypes="ccccccccccccccccccccccc"
       inkscape:connector-curvature="0"
       id="path5314"
       d="m -104.43557,174.79101 c 0,0 3.67495,-9.9892 8.418989,0 0,0 3.67495,9.9892 8.41899,0 0,0 3.67495,-9.9892 8.41899,0 0,0 3.67495,9.9892 8.41899,0 0,0 3.67495,-9.9892 8.41899,0 0,0 3.67495,9.9892 8.41899,0 0,0 3.67495,-9.9892 8.41899,0 h 2.03162 c -4.74404,-9.9892 -8.41899,0 -8.41899,0 -4.74404,9.9892 -8.41899,0 -8.41899,0 -4.74404,-9.9892 -8.41899,0 -8.41899,0 -4.74404,9.9892 -8.41899,0 -8.41899,0 -4.74404,-9.9892 -8.41899,0 -8.41899,0 -4.74404,9.9892 -8.41899,0 -8.41899,0 -4.74404,-9.9892 -8.418989,0 -8.418989,0 -4.74404,9.9892 -8.41899,0 -8.41899,0 -4.74404,-9.9892 -8.41899,0 -8.41899,0 -4.74404,9.9892 -8.41899,0 -8.41899,0 h -2.03162 c 0,0 3.67495,9.9892 8.41899,0 0,0 3.67495,-9.9892 8.41899,0 0,0 3.67495,9.9892 8.41899,0 z"
       style="fill:none;stroke:#000000;stroke-width:0.26458332px;stroke-linecap:butt;stroke-linejoin:miter;stroke-opacity:1" />
    <path
       style="fill:none;stroke:#000000;stroke-width:0.26458332px;stroke-linecap:butt;stroke-linejoin:miter;stroke-opacity:1"
       d="m -99.143903,174.79101 c 0,0 3.67495,-9.9892 8.418989,0 0,0 3.67495,9.9892 8.41899,0 0,0 3.67495,-9.9892 8.41899,0 0,0 3.67495,9.9892 8.41899,0 0,0 3.67495,-9.9892 8.41899,0 0,0 3.67495,9.9892 8.41899,0 0,0 3.67495,-9.9892 8.41899,0 h 2.03162 c -4.74404,-9.9892 -8.41899,0 -8.41899,0 -4.74404,9.9892 -8.41899,0 -8.41899,0 -4.74404,-9.9892 -8.41899,0 -8.41899,0 -4.74404,9.9892 -8.41899,0 -8.41899,0 -4.74404,-9.9892 -8.41899,0 -8.41899,0 -4.74404,9.9892 -8.41899,0 -8.41899,0 -4.74404,-9.9892 -8.418989,0 -8.418989,0 -4.744037,9.9892 -8.418987,0 -8.418987,0 -4.74404,-9.9892 -8.41899,0 -8.41899,0 -4.74404,9.9892 -8.41899,0 -8.41899,0 h -2.03162 c 0,0 3.67495,9.9892 8.41899,0 0,0 3.67495,-9.9892 8.41899,0 0,0 3.67495,9.9892 8.418987,0 z"
       id="path5334"
       inkscape:connector-curvature="0"
       sodipodi:nodetypes="ccccccccccccccccccccccc" />
    <path
       id="path5372"
       d="m -67.485565,263.85857 a 20.847023,9.354434 0 0 1 -20.847023,9.35443 20.847023,9.354434 0 0 1 -20.847022,-9.35443 20.847023,9.354434 0 0 1 20.847022,-9.35444 20.847023,9.354434 0 0 1 20.847023,9.35444 z"
       style="opacity:1;vector-effect:none;fill:#9c59a0;fill-opacity:1;fill-rule:evenodd;stroke:none;stroke-width:0.26499999;stroke-linecap:butt;stroke-linejoin:miter;stroke-miterlimit:4;stroke-dasharray:none;stroke-dashoffset:0;stroke-opacity:1"
       inkscape:connector-curvature="0" />
    <text
       id="text5376"
       y="266.53128"
       x="-100.76061"
       style="font-style:normal;font-variant:normal;font-weight:normal;font-stretch:normal;font-size:8.46666622px;line-height:1.25;font-family:Arial;-inkscape-font-specification:Arial;text-align:start;letter-spacing:0px;word-spacing:0px;text-anchor:start;fill:#000000;fill-opacity:1;stroke:none;stroke-width:0.26458332"
       xml:space="preserve"><tspan
         style="stroke-width:0.26458332"
         y="266.53128"
         x="-100.76061"
         id="tspan5374"
         sodipodi:role="line">SOG1</tspan></text>
    <path
       id="path5378"
       d="m -94.078879,254.50414 a 2.271791,2.271791 0 0 1 -2.271791,2.27179 2.271791,2.271791 0 0 1 -2.271791,-2.27179 2.271791,2.271791 0 0 1 2.271791,-2.27179 2.271791,2.271791 0 0 1 2.271791,2.27179 z"
       style="opacity:1;vector-effect:none;fill:#3b3b7d;fill-opacity:1;fill-rule:evenodd;stroke:none;stroke-width:0.26499999;stroke-linecap:butt;stroke-linejoin:miter;stroke-miterlimit:4;stroke-dasharray:none;stroke-dashoffset:0;stroke-opacity:1"
       inkscape:connector-curvature="0" />
    <path
       id="path5380"
       d="m -89.401663,256.2414 a 2.271791,2.271791 0 0 1 -2.271791,2.27179 2.271791,2.271791 0 0 1 -2.271791,-2.27179 2.271791,2.271791 0 0 1 2.271791,-2.2718 2.271791,2.271791 0 0 1 2.271791,2.2718 z"
       style="opacity:1;vector-effect:none;fill:#3b3b7d;fill-opacity:1;fill-rule:evenodd;stroke:none;stroke-width:0.26499999;stroke-linecap:butt;stroke-linejoin:miter;stroke-miterlimit:4;stroke-dasharray:none;stroke-dashoffset:0;stroke-opacity:1"
       inkscape:connector-curvature="0" />
    <path
       id="path5382"
       d="m -81.249945,253.96961 a 2.271791,2.271791 0 0 1 -2.271791,2.27179 2.271791,2.271791 0 0 1 -2.271791,-2.27179 2.271791,2.271791 0 0 1 2.271791,-2.27179 2.271791,2.271791 0 0 1 2.271791,2.27179 z"
       style="opacity:1;vector-effect:none;fill:#3b3b7d;fill-opacity:1;fill-rule:evenodd;stroke:none;stroke-width:0.26499999;stroke-linecap:butt;stroke-linejoin:miter;stroke-miterlimit:4;stroke-dasharray:none;stroke-dashoffset:0;stroke-opacity:1"
       inkscape:connector-curvature="0" />
    <path
       style="fill:none;stroke:#000000;stroke-width:0.26458332px;stroke-linecap:butt;stroke-linejoin:miter;stroke-opacity:1"
       d="m -104.43557,274.48254 c 0,0 3.67495,-9.9892 8.418989,0 0,0 3.67495,9.9892 8.41899,0 0,0 3.67495,-9.9892 8.41899,0 0,0 3.67495,9.9892 8.41899,0 0,0 3.67495,-9.9892 8.41899,0 0,0 3.67495,9.9892 8.41899,0 0,0 3.67495,-9.9892 8.41899,0 h 2.03162 c -4.74404,-9.9892 -8.41899,0 -8.41899,0 -4.74404,9.9892 -8.41899,0 -8.41899,0 -4.74404,-9.9892 -8.41899,0 -8.41899,0 -4.74404,9.9892 -8.41899,0 -8.41899,0 -4.74404,-9.9892 -8.41899,0 -8.41899,0 -4.74404,9.9892 -8.41899,0 -8.41899,0 -4.74404,-9.9892 -8.418989,0 -8.418989,0 -4.74404,9.9892 -8.41899,0 -8.41899,0 -4.74404,-9.9892 -8.41899,0 -8.41899,0 -4.74404,9.9892 -8.41899,0 -8.41899,0 h -2.03162 c 0,0 3.67495,9.9892 8.41899,0 0,0 3.67495,-9.9892 8.41899,0 0,0 3.67495,9.9892 8.41899,0 z"
       id="path5384"
       inkscape:connector-curvature="0"
       sodipodi:nodetypes="ccccccccccccccccccccccc" />
    <path
       sodipodi:nodetypes="ccccccccccccccccccccccc"
       inkscape:connector-curvature="0"
       id="path5386"
       d="m -99.143903,274.48254 c 0,0 3.67495,-9.9892 8.418989,0 0,0 3.67495,9.9892 8.41899,0 0,0 3.67495,-9.9892 8.41899,0 0,0 3.67495,9.9892 8.41899,0 0,0 3.67495,-9.9892 8.41899,0 0,0 3.67495,9.9892 8.41899,0 0,0 3.67495,-9.9892 8.41899,0 h 2.03162 c -4.74404,-9.9892 -8.41899,0 -8.41899,0 -4.74404,9.9892 -8.41899,0 -8.41899,0 -4.74404,-9.9892 -8.41899,0 -8.41899,0 -4.74404,9.9892 -8.41899,0 -8.41899,0 -4.74404,-9.9892 -8.41899,0 -8.41899,0 -4.74404,9.9892 -8.41899,0 -8.41899,0 -4.74404,-9.9892 -8.418989,0 -8.418989,0 -4.744037,9.9892 -8.418987,0 -8.418987,0 -4.74404,-9.9892 -8.41899,0 -8.41899,0 -4.74404,9.9892 -8.41899,0 -8.41899,0 h -2.03162 c 0,0 3.67495,9.9892 8.41899,0 0,0 3.67495,-9.9892 8.41899,0 0,0 3.67495,9.9892 8.418987,0 z"
       style="fill:none;stroke:#000000;stroke-width:0.26458332px;stroke-linecap:butt;stroke-linejoin:miter;stroke-opacity:1" />
    <path
       style="fill:#be1522;fill-opacity:1;stroke:none;stroke-width:0.26458332px;stroke-linecap:butt;stroke-linejoin:miter;stroke-opacity:1"
       d="m -104.76965,247.0206 31.5378,31.53781 -2.6727,2.67269 -31.5378,-31.53781 z"
       id="path5366"
       inkscape:connector-curvature="0"
       sodipodi:nodetypes="ccccc" />
    <path
       sodipodi:nodetypes="ccccc"
       inkscape:connector-curvature="0"
       id="path5370"
       d="m -75.90455,247.0206 -31.5378,31.53781 2.6727,2.67269 31.5378,-31.53781 z"
       style="fill:#be1522;fill-opacity:1;stroke:none;stroke-width:0.26458332px;stroke-linecap:butt;stroke-linejoin:miter;stroke-opacity:1" />
    <path
       sodipodi:nodetypes="ccc"
       inkscape:connector-curvature="0"
       id="path5392"
       d="m -189.79076,214.47851 c 0,0 3.67495,9.9892 8.41899,0 0,0 3.67495,-9.9892 8.41899,0"
       style="fill:none;stroke:#000000;stroke-width:0.26458332px;stroke-linecap:butt;stroke-linejoin:miter;stroke-opacity:1" />
    <path
       style="fill:none;stroke:#000000;stroke-width:0.26458332px;stroke-linecap:butt;stroke-linejoin:miter;stroke-opacity:1"
       d="m -187.75914,214.47851 c 0,0 3.67495,9.9892 8.41899,0 0,0 3.67495,-9.9892 8.41899,0"
       id="path5394"
       inkscape:connector-curvature="0"
       sodipodi:nodetypes="ccc" />
    <path
       style="opacity:1;vector-effect:none;fill:#f9b233;fill-opacity:1;fill-rule:evenodd;stroke:none;stroke-width:0.26499999;stroke-linecap:butt;stroke-linejoin:miter;stroke-miterlimit:4;stroke-dasharray:none;stroke-dashoffset:0;stroke-opacity:1"
       inkscape:transform-center-x="0.015513981"
       inkscape:transform-center-y="-0.30102783"
       d="m -169.42781,217.71949 -1.95927,-0.99238 -1.92824,1.0514 0.33836,-2.17003 -1.5958,-1.50896 2.16839,-0.34878 0.94197,-1.984 1.00178,1.95448 2.17798,0.28279 -1.54926,1.55671 z"
       id="path5390"
       inkscape:connector-curvature="0" />
    <path
       id="path5397"
       d="m -155.63168,219.1369 -1.95927,-0.99238 -1.92824,1.0514 0.33836,-2.17003 -1.5958,-1.50896 2.16839,-0.34878 0.94197,-1.984 1.00178,1.95448 2.17798,0.28279 -1.54926,1.55671 z"
       inkscape:transform-center-y="-0.30102783"
       inkscape:transform-center-x="0.015513981"
       style="opacity:1;vector-effect:none;fill:#f9b233;fill-opacity:1;fill-rule:evenodd;stroke:none;stroke-width:0.26499999;stroke-linecap:butt;stroke-linejoin:miter;stroke-miterlimit:4;stroke-dasharray:none;stroke-dashoffset:0;stroke-opacity:1"
       inkscape:connector-curvature="0" />
    <ellipse
       style="opacity:1;vector-effect:none;fill:#a04330;fill-opacity:1;fill-rule:evenodd;stroke:none;stroke-width:0.26499999;stroke-linecap:butt;stroke-linejoin:miter;stroke-miterlimit:4;stroke-dasharray:none;stroke-dashoffset:0;stroke-opacity:1"
       id="path5399"
       cx="-89.107887"
       cy="216.30208"
       rx="15.322296"
       ry="11.528274" />
    <text
       xml:space="preserve"
       style="font-style:normal;font-variant:normal;font-weight:normal;font-stretch:normal;font-size:11.28888893px;line-height:1.25;font-family:Arial;-inkscape-font-specification:Arial;text-align:start;letter-spacing:0px;word-spacing:0px;text-anchor:start;fill:#ffffff;fill-opacity:1;stroke:none;stroke-width:0.26458332"
       x="-100.54167"
       y="219.70386"
       id="text5403"><tspan
         sodipodi:role="line"
         id="tspan5401"
         x="-100.54167"
         y="219.70386"
         style="font-size:11.28888893px;fill:#ffffff;stroke-width:0.26458332">ATM</tspan></text>
  </g>
</svg>
