<svg xmlns="http://www.w3.org/2000/svg" id="svg1573" version="1.1" viewBox="0 0 612.485 138.577" author="Provart Lab - Bio Analytic Resource, University of Toronto">>
  <defs id="defs1567">
    <marker id="marker5226" orient="auto" overflow="visible" refX="0" refY="0">
      <path id="path5224" fill="#000" fill-opacity="1" fill-rule="evenodd" stroke="#000" stroke-opacity="1" stroke-width=".8pt" d="m-10 0-4 4L0 0l-14-4Z"/>
    </marker>
    <marker id="marker5186" orient="auto" overflow="visible" refX="0" refY="0">
      <path id="path5184" fill="#000" fill-opacity="1" fill-rule="evenodd" stroke="#000" stroke-opacity="1" stroke-width=".8pt" d="m-10 0-4 4L0 0l-14-4Z"/>
    </marker>
    <marker id="marker5152" orient="auto" overflow="visible" refX="0" refY="0">
      <path id="path5150" fill="#000" fill-opacity="1" fill-rule="evenodd" stroke="#000" stroke-opacity="1" stroke-width=".8pt" d="m-10 0-4 4L0 0l-14-4Z"/>
    </marker>
    <marker id="marker5124" orient="auto" overflow="visible" refX="0" refY="0">
      <path id="path5122" fill="#000" fill-opacity="1" fill-rule="evenodd" stroke="#000" stroke-opacity="1" stroke-width=".8pt" d="m-10 0-4 4L0 0l-14-4Z"/>
    </marker>
    <marker id="marker5102" orient="auto" overflow="visible" refX="0" refY="0">
      <path id="path5100" fill="#000" fill-opacity="1" fill-rule="evenodd" stroke="#000" stroke-opacity="1" stroke-width=".8pt" d="m-10 0-4 4L0 0l-14-4Z"/>
    </marker>
    <marker id="Arrow1Lend" orient="auto" overflow="visible" refX="0" refY="0">
      <path id="path4821" fill="#000" fill-opacity="1" fill-rule="evenodd" stroke="#000" stroke-opacity="1" stroke-width=".8pt" d="m-10 0-4 4L0 0l-14-4Z"/>
    </marker>
  </defs>
  <g id="layer1" transform="translate(201.85 -152.006)">
    <g id="g4548" fill="none" stroke="#000" stroke-miterlimit="10" stroke-width=".236" transform="translate(.915 1.82)">
      <path id="path450" d="M4.045 160.954s3.063-4.713 13.274-1.964c1.257.629 2.435 1.493 4.242 1.1 1.806-.628 5.262-1.964 11.703-.943 1.178.707 4.634 2.357 3.377 5.655-.864 1.1-2.906 2.514-8.168-.392-2.278-1.414-4.242-2.906-7.148-2.513l-2.12.157c-1.022-.315-2.75-.157-4.085.628-1.885.942-6.52 3.377-9.426 2.277-1.65-.785-2.906-1.256-1.65-4.005z"/>
      <path id="path453" d="M19.204 162.054s1.57-.236 2.12-.157c.157 1.728.236 8.561 0 13.666-.156 2.121.236 3.064-2.513 6.127-1.885 1.964-4.87 4.713-5.42 5.42-.706 1.413-2.827 6.597-2.984 7.619.079-2.828.157-7.226 2.435-9.19 1.885-1.728 4.163-3.535 6.677-8.404-.08-3.457.078-14.218-.315-15.081z"/>
      <path id="path656" d="M14.746 185.705c.032 1.01.505 1.885 1.116 2.863m-1.687 3.385c-.155-1.484-.534-3.637-.783-4.843m-.867 7.825c-.042-.337-.182-.636-.32-.925-.085-.182-.166-.354-.22-.53-.067-.214-.356-2.038-.396-2.274m-.317 6.474c-.151-1.027-.307-2.089-.396-3.129l.071-1.541M8.99 203.397c.301-2.495.762-6.439 1.425-8.944m-2.681 6.767c-.1-.822 1.288-2.827 2.05-3.686m.623-4.347c-.775.564-1.608 2.18-2.128 2.893a17.29 17.29 0 0 1-.805 1.046.39.39 0 0 0-.064.079m1.936-4.635c.201-.517.453-1.16.548-1.358.17-.351.613-.884.869-1.192m2.6-4.954c-1.744.133-3.823 2.589-4.097 3.017"/>
      <path id="path658" d="M33.725 163.474c-.28-.877-1.592-1.417-2.377-1.74l-.148-.061c-.992-.413-2.068-.627-3-.794"/>
      <path id="path662" d="M13.863 159.462c-1.194-.007-2.584.064-3.79.568-.95.397-2.54 1.061-3.018 1.995"/>
    </g>
    <g id="Y_Col-0_20min" fill="none" stroke="#000" stroke-miterlimit="10" stroke-width=".236" transform="translate(62.526 1.82)">
      <path id="path4550" d="M4.045 160.954s3.063-4.713 13.274-1.964c1.257.629 2.435 1.493 4.242 1.1 1.806-.628 5.262-1.964 11.703-.943 1.178.707 4.634 2.357 3.377 5.655-.864 1.1-2.906 2.514-8.168-.392-2.278-1.414-4.242-2.906-7.148-2.513l-2.12.157c-1.022-.315-2.75-.157-4.085.628-1.885.942-6.52 3.377-9.426 2.277-1.65-.785-2.906-1.256-1.65-4.005z"/>
      <path id="path4552" d="M19.204 162.054s1.57-.236 2.12-.157c.157 1.728.236 8.561 0 13.666-.156 2.121.236 3.064-2.513 6.127-1.885 1.964-4.87 4.713-5.42 5.42-.706 1.413-2.827 6.597-2.984 7.619.079-2.828.157-7.226 2.435-9.19 1.885-1.728 4.163-3.535 6.677-8.404-.08-3.457.078-14.218-.315-15.081z"/>
      <path id="path4554" d="M14.746 185.705c.032 1.01.505 1.885 1.116 2.863m-1.687 3.385c-.155-1.484-.534-3.637-.783-4.843m-.867 7.825c-.042-.337-.182-.636-.32-.925-.085-.182-.166-.354-.22-.53-.067-.214-.356-2.038-.396-2.274m-.317 6.474c-.151-1.027-.307-2.089-.396-3.129l.071-1.541M8.99 203.397c.301-2.495.762-6.439 1.425-8.944m-2.681 6.767c-.1-.822 1.288-2.827 2.05-3.686m.623-4.347c-.775.564-1.608 2.18-2.128 2.893a17.29 17.29 0 0 1-.805 1.046.39.39 0 0 0-.064.079m1.936-4.635c.201-.517.453-1.16.548-1.358.17-.351.613-.884.869-1.192m2.6-4.954c-1.744.133-3.823 2.589-4.097 3.017"/>
      <path id="path4556" d="M33.725 163.474c-.28-.877-1.592-1.417-2.377-1.74l-.148-.061c-.992-.413-2.068-.627-3-.794"/>
      <path id="path4560" d="M13.863 159.462c-1.194-.007-2.584.064-3.79.568-.95.397-2.54 1.061-3.018 1.995"/>
    </g>
    <g id="Y_Col-0_90min" fill="none" stroke="#000" stroke-miterlimit="10" stroke-width=".236" transform="translate(124.136 1.82)">
      <path id="path4578" d="M4.045 160.954s3.063-4.713 13.274-1.964c1.257.629 2.435 1.493 4.242 1.1 1.806-.628 5.262-1.964 11.703-.943 1.178.707 4.634 2.357 3.377 5.655-.864 1.1-2.906 2.514-8.168-.392-2.278-1.414-4.242-2.906-7.148-2.513l-2.12.157c-1.022-.315-2.75-.157-4.085.628-1.885.942-6.52 3.377-9.426 2.277-1.65-.785-2.906-1.256-1.65-4.005z"/>
      <path id="path4580" d="M19.204 162.054s1.57-.236 2.12-.157c.157 1.728.236 8.561 0 13.666-.156 2.121.236 3.064-2.513 6.127-1.885 1.964-4.87 4.713-5.42 5.42-.706 1.413-2.827 6.597-2.984 7.619.079-2.828.157-7.226 2.435-9.19 1.885-1.728 4.163-3.535 6.677-8.404-.08-3.457.078-14.218-.315-15.081z"/>
      <path id="path4582" d="M14.746 185.705c.032 1.01.505 1.885 1.116 2.863m-1.687 3.385c-.155-1.484-.534-3.637-.783-4.843m-.867 7.825c-.042-.337-.182-.636-.32-.925-.085-.182-.166-.354-.22-.53-.067-.214-.356-2.038-.396-2.274m-.317 6.474c-.151-1.027-.307-2.089-.396-3.129l.071-1.541M8.99 203.397c.301-2.495.762-6.439 1.425-8.944m-2.681 6.767c-.1-.822 1.288-2.827 2.05-3.686m.623-4.347c-.775.564-1.608 2.18-2.128 2.893a17.29 17.29 0 0 1-.805 1.046.39.39 0 0 0-.064.079m1.936-4.635c.201-.517.453-1.16.548-1.358.17-.351.613-.884.869-1.192m2.6-4.954c-1.744.133-3.823 2.589-4.097 3.017"/>
      <path id="path4584" d="M33.725 163.474c-.28-.877-1.592-1.417-2.377-1.74l-.148-.061c-.992-.413-2.068-.627-3-.794"/>
      <path id="path4588" d="M13.863 159.462c-1.194-.007-2.584.064-3.79.568-.95.397-2.54 1.061-3.018 1.995"/>
    </g>
    <g id="Y_Col-0_3hr" fill="none" stroke="#000" stroke-miterlimit="10" stroke-width=".236" transform="translate(185.746 1.82)">
      <path id="path4606" d="M4.045 160.954s3.063-4.713 13.274-1.964c1.257.629 2.435 1.493 4.242 1.1 1.806-.628 5.262-1.964 11.703-.943 1.178.707 4.634 2.357 3.377 5.655-.864 1.1-2.906 2.514-8.168-.392-2.278-1.414-4.242-2.906-7.148-2.513l-2.12.157c-1.022-.315-2.75-.157-4.085.628-1.885.942-6.52 3.377-9.426 2.277-1.65-.785-2.906-1.256-1.65-4.005z"/>
      <path id="path4608" d="M19.204 162.054s1.57-.236 2.12-.157c.157 1.728.236 8.561 0 13.666-.156 2.121.236 3.064-2.513 6.127-1.885 1.964-4.87 4.713-5.42 5.42-.706 1.413-2.827 6.597-2.984 7.619.079-2.828.157-7.226 2.435-9.19 1.885-1.728 4.163-3.535 6.677-8.404-.08-3.457.078-14.218-.315-15.081z"/>
      <path id="path4610" d="M14.746 185.705c.032 1.01.505 1.885 1.116 2.863m-1.687 3.385c-.155-1.484-.534-3.637-.783-4.843m-.867 7.825c-.042-.337-.182-.636-.32-.925-.085-.182-.166-.354-.22-.53-.067-.214-.356-2.038-.396-2.274m-.317 6.474c-.151-1.027-.307-2.089-.396-3.129l.071-1.541M8.99 203.397c.301-2.495.762-6.439 1.425-8.944m-2.681 6.767c-.1-.822 1.288-2.827 2.05-3.686m.623-4.347c-.775.564-1.608 2.18-2.128 2.893a17.29 17.29 0 0 1-.805 1.046.39.39 0 0 0-.064.079m1.936-4.635c.201-.517.453-1.16.548-1.358.17-.351.613-.884.869-1.192m2.6-4.954c-1.744.133-3.823 2.589-4.097 3.017"/>
      <path id="path4612" d="M33.725 163.474c-.28-.877-1.592-1.417-2.377-1.74l-.148-.061c-.992-.413-2.068-.627-3-.794"/>
      <path id="path4616" d="M13.863 159.462c-1.194-.007-2.584.064-3.79.568-.95.397-2.54 1.061-3.018 1.995"/>
    </g>
    <g id="Y_Col-0_6hr" fill="none" stroke="#000" stroke-miterlimit="10" stroke-width=".236" transform="translate(247.356 1.82)">
      <path id="path4620" d="M4.045 160.954s3.063-4.713 13.274-1.964c1.257.629 2.435 1.493 4.242 1.1 1.806-.628 5.262-1.964 11.703-.943 1.178.707 4.634 2.357 3.377 5.655-.864 1.1-2.906 2.514-8.168-.392-2.278-1.414-4.242-2.906-7.148-2.513l-2.12.157c-1.022-.315-2.75-.157-4.085.628-1.885.942-6.52 3.377-9.426 2.277-1.65-.785-2.906-1.256-1.65-4.005z"/>
      <path id="path4622" d="M19.204 162.054s1.57-.236 2.12-.157c.157 1.728.236 8.561 0 13.666-.156 2.121.236 3.064-2.513 6.127-1.885 1.964-4.87 4.713-5.42 5.42-.706 1.413-2.827 6.597-2.984 7.619.079-2.828.157-7.226 2.435-9.19 1.885-1.728 4.163-3.535 6.677-8.404-.08-3.457.078-14.218-.315-15.081z"/>
      <path id="path4624" d="M14.746 185.705c.032 1.01.505 1.885 1.116 2.863m-1.687 3.385c-.155-1.484-.534-3.637-.783-4.843m-.867 7.825c-.042-.337-.182-.636-.32-.925-.085-.182-.166-.354-.22-.53-.067-.214-.356-2.038-.396-2.274m-.317 6.474c-.151-1.027-.307-2.089-.396-3.129l.071-1.541M8.99 203.397c.301-2.495.762-6.439 1.425-8.944m-2.681 6.767c-.1-.822 1.288-2.827 2.05-3.686m.623-4.347c-.775.564-1.608 2.18-2.128 2.893a17.29 17.29 0 0 1-.805 1.046.39.39 0 0 0-.064.079m1.936-4.635c.201-.517.453-1.16.548-1.358.17-.351.613-.884.869-1.192m2.6-4.954c-1.744.133-3.823 2.589-4.097 3.017"/>
      <path id="path4626" d="M33.725 163.474c-.28-.877-1.592-1.417-2.377-1.74l-.148-.061c-.992-.413-2.068-.627-3-.794"/>
      <path id="path4630" d="M13.863 159.462c-1.194-.007-2.584.064-3.79.568-.95.397-2.54 1.061-3.018 1.995"/>
    </g>
    <g id="Y_Col-0_12hr" fill="none" stroke="#000" stroke-miterlimit="10" stroke-width=".236" transform="translate(308.966 1.82)">
      <path id="path4648" d="M4.045 160.954s3.063-4.713 13.274-1.964c1.257.629 2.435 1.493 4.242 1.1 1.806-.628 5.262-1.964 11.703-.943 1.178.707 4.634 2.357 3.377 5.655-.864 1.1-2.906 2.514-8.168-.392-2.278-1.414-4.242-2.906-7.148-2.513l-2.12.157c-1.022-.315-2.75-.157-4.085.628-1.885.942-6.52 3.377-9.426 2.277-1.65-.785-2.906-1.256-1.65-4.005z"/>
      <path id="path4650" d="M19.204 162.054s1.57-.236 2.12-.157c.157 1.728.236 8.561 0 13.666-.156 2.121.236 3.064-2.513 6.127-1.885 1.964-4.87 4.713-5.42 5.42-.706 1.413-2.827 6.597-2.984 7.619.079-2.828.157-7.226 2.435-9.19 1.885-1.728 4.163-3.535 6.677-8.404-.08-3.457.078-14.218-.315-15.081z"/>
      <path id="path4652" d="M14.746 185.705c.032 1.01.505 1.885 1.116 2.863m-1.687 3.385c-.155-1.484-.534-3.637-.783-4.843m-.867 7.825c-.042-.337-.182-.636-.32-.925-.085-.182-.166-.354-.22-.53-.067-.214-.356-2.038-.396-2.274m-.317 6.474c-.151-1.027-.307-2.089-.396-3.129l.071-1.541M8.99 203.397c.301-2.495.762-6.439 1.425-8.944m-2.681 6.767c-.1-.822 1.288-2.827 2.05-3.686m.623-4.347c-.775.564-1.608 2.18-2.128 2.893a17.29 17.29 0 0 1-.805 1.046.39.39 0 0 0-.064.079m1.936-4.635c.201-.517.453-1.16.548-1.358.17-.351.613-.884.869-1.192m2.6-4.954c-1.744.133-3.823 2.589-4.097 3.017"/>
      <path id="path4654" d="M33.725 163.474c-.28-.877-1.592-1.417-2.377-1.74l-.148-.061c-.992-.413-2.068-.627-3-.794"/>
      <path id="path4658" d="M13.863 159.462c-1.194-.007-2.584.064-3.79.568-.95.397-2.54 1.061-3.018 1.995"/>
    </g>
    <g id="Y_Col-0_24hr" fill="none" stroke="#000" stroke-miterlimit="10" stroke-width=".236" transform="translate(370.576 1.82)">
      <path id="path4662" d="M4.045 160.954s3.063-4.713 13.274-1.964c1.257.629 2.435 1.493 4.242 1.1 1.806-.628 5.262-1.964 11.703-.943 1.178.707 4.634 2.357 3.377 5.655-.864 1.1-2.906 2.514-8.168-.392-2.278-1.414-4.242-2.906-7.148-2.513l-2.12.157c-1.022-.315-2.75-.157-4.085.628-1.885.942-6.52 3.377-9.426 2.277-1.65-.785-2.906-1.256-1.65-4.005z"/>
      <path id="path4664" d="M19.204 162.054s1.57-.236 2.12-.157c.157 1.728.236 8.561 0 13.666-.156 2.121.236 3.064-2.513 6.127-1.885 1.964-4.87 4.713-5.42 5.42-.706 1.413-2.827 6.597-2.984 7.619.079-2.828.157-7.226 2.435-9.19 1.885-1.728 4.163-3.535 6.677-8.404-.08-3.457.078-14.218-.315-15.081z"/>
      <path id="path4666" d="M14.746 185.705c.032 1.01.505 1.885 1.116 2.863m-1.687 3.385c-.155-1.484-.534-3.637-.783-4.843m-.867 7.825c-.042-.337-.182-.636-.32-.925-.085-.182-.166-.354-.22-.53-.067-.214-.356-2.038-.396-2.274m-.317 6.474c-.151-1.027-.307-2.089-.396-3.129l.071-1.541M8.99 203.397c.301-2.495.762-6.439 1.425-8.944m-2.681 6.767c-.1-.822 1.288-2.827 2.05-3.686m.623-4.347c-.775.564-1.608 2.18-2.128 2.893a17.29 17.29 0 0 1-.805 1.046.39.39 0 0 0-.064.079m1.936-4.635c.201-.517.453-1.16.548-1.358.17-.351.613-.884.869-1.192m2.6-4.954c-1.744.133-3.823 2.589-4.097 3.017"/>
      <path id="path4668" d="M33.725 163.474c-.28-.877-1.592-1.417-2.377-1.74l-.148-.061c-.992-.413-2.068-.627-3-.794"/>
      <path id="path4672" d="M13.863 159.462c-1.194-.007-2.584.064-3.79.568-.95.397-2.54 1.061-3.018 1.995"/>
    </g>
    <g id="g4688" fill="none" stroke="#000" stroke-miterlimit="10" stroke-width=".236" transform="translate(.915 86.487)">
      <path id="path4676" d="M4.045 160.954s3.063-4.713 13.274-1.964c1.257.629 2.435 1.493 4.242 1.1 1.806-.628 5.262-1.964 11.703-.943 1.178.707 4.634 2.357 3.377 5.655-.864 1.1-2.906 2.514-8.168-.392-2.278-1.414-4.242-2.906-7.148-2.513l-2.12.157c-1.022-.315-2.75-.157-4.085.628-1.885.942-6.52 3.377-9.426 2.277-1.65-.785-2.906-1.256-1.65-4.005z"/>
      <path id="path4678" d="M19.204 162.054s1.57-.236 2.12-.157c.157 1.728.236 8.561 0 13.666-.156 2.121.236 3.064-2.513 6.127-1.885 1.964-4.87 4.713-5.42 5.42-.706 1.413-2.827 6.597-2.984 7.619.079-2.828.157-7.226 2.435-9.19 1.885-1.728 4.163-3.535 6.677-8.404-.08-3.457.078-14.218-.315-15.081z"/>
      <path id="path4680" d="M14.746 185.705c.032 1.01.505 1.885 1.116 2.863m-1.687 3.385c-.155-1.484-.534-3.637-.783-4.843m-.867 7.825c-.042-.337-.182-.636-.32-.925-.085-.182-.166-.354-.22-.53-.067-.214-.356-2.038-.396-2.274m-.317 6.474c-.151-1.027-.307-2.089-.396-3.129l.071-1.541M8.99 203.397c.301-2.495.762-6.439 1.425-8.944m-2.681 6.767c-.1-.822 1.288-2.827 2.05-3.686m.623-4.347c-.775.564-1.608 2.18-2.128 2.893a17.29 17.29 0 0 1-.805 1.046.39.39 0 0 0-.064.079m1.936-4.635c.201-.517.453-1.16.548-1.358.17-.351.613-.884.869-1.192m2.6-4.954c-1.744.133-3.823 2.589-4.097 3.017"/>
      <path id="path4682" d="M33.725 163.474c-.28-.877-1.592-1.417-2.377-1.74l-.148-.061c-.992-.413-2.068-.627-3-.794"/>
      <path id="path4686" d="M13.863 159.462c-1.194-.007-2.584.064-3.79.568-.95.397-2.54 1.061-3.018 1.995"/>
    </g>
    <g id="Y_sog1-1_20min" fill="none" stroke="#000" stroke-miterlimit="10" stroke-width=".236" transform="translate(62.526 86.487)">
      <path id="path4690" d="M4.045 160.954s3.063-4.713 13.274-1.964c1.257.629 2.435 1.493 4.242 1.1 1.806-.628 5.262-1.964 11.703-.943 1.178.707 4.634 2.357 3.377 5.655-.864 1.1-2.906 2.514-8.168-.392-2.278-1.414-4.242-2.906-7.148-2.513l-2.12.157c-1.022-.315-2.75-.157-4.085.628-1.885.942-6.52 3.377-9.426 2.277-1.65-.785-2.906-1.256-1.65-4.005z"/>
      <path id="path4692" d="M19.204 162.054s1.57-.236 2.12-.157c.157 1.728.236 8.561 0 13.666-.156 2.121.236 3.064-2.513 6.127-1.885 1.964-4.87 4.713-5.42 5.42-.706 1.413-2.827 6.597-2.984 7.619.079-2.828.157-7.226 2.435-9.19 1.885-1.728 4.163-3.535 6.677-8.404-.08-3.457.078-14.218-.315-15.081z"/>
      <path id="path4694" d="M14.746 185.705c.032 1.01.505 1.885 1.116 2.863m-1.687 3.385c-.155-1.484-.534-3.637-.783-4.843m-.867 7.825c-.042-.337-.182-.636-.32-.925-.085-.182-.166-.354-.22-.53-.067-.214-.356-2.038-.396-2.274m-.317 6.474c-.151-1.027-.307-2.089-.396-3.129l.071-1.541M8.99 203.397c.301-2.495.762-6.439 1.425-8.944m-2.681 6.767c-.1-.822 1.288-2.827 2.05-3.686m.623-4.347c-.775.564-1.608 2.18-2.128 2.893a17.29 17.29 0 0 1-.805 1.046.39.39 0 0 0-.064.079m1.936-4.635c.201-.517.453-1.16.548-1.358.17-.351.613-.884.869-1.192m2.6-4.954c-1.744.133-3.823 2.589-4.097 3.017"/>
      <path id="path4696" d="M33.725 163.474c-.28-.877-1.592-1.417-2.377-1.74l-.148-.061c-.992-.413-2.068-.627-3-.794"/>
      <path id="path4700" d="M13.863 159.462c-1.194-.007-2.584.064-3.79.568-.95.397-2.54 1.061-3.018 1.995"/>
    </g>
    <g id="Y_sog1-1_90min" fill="none" stroke="#000" stroke-miterlimit="10" stroke-width=".236" transform="translate(124.136 86.487)">
      <path id="path4704" d="M4.045 160.954s3.063-4.713 13.274-1.964c1.257.629 2.435 1.493 4.242 1.1 1.806-.628 5.262-1.964 11.703-.943 1.178.707 4.634 2.357 3.377 5.655-.864 1.1-2.906 2.514-8.168-.392-2.278-1.414-4.242-2.906-7.148-2.513l-2.12.157c-1.022-.315-2.75-.157-4.085.628-1.885.942-6.52 3.377-9.426 2.277-1.65-.785-2.906-1.256-1.65-4.005z"/>
      <path id="path4706" d="M19.204 162.054s1.57-.236 2.12-.157c.157 1.728.236 8.561 0 13.666-.156 2.121.236 3.064-2.513 6.127-1.885 1.964-4.87 4.713-5.42 5.42-.706 1.413-2.827 6.597-2.984 7.619.079-2.828.157-7.226 2.435-9.19 1.885-1.728 4.163-3.535 6.677-8.404-.08-3.457.078-14.218-.315-15.081z"/>
      <path id="path4708" d="M14.746 185.705c.032 1.01.505 1.885 1.116 2.863m-1.687 3.385c-.155-1.484-.534-3.637-.783-4.843m-.867 7.825c-.042-.337-.182-.636-.32-.925-.085-.182-.166-.354-.22-.53-.067-.214-.356-2.038-.396-2.274m-.317 6.474c-.151-1.027-.307-2.089-.396-3.129l.071-1.541M8.99 203.397c.301-2.495.762-6.439 1.425-8.944m-2.681 6.767c-.1-.822 1.288-2.827 2.05-3.686m.623-4.347c-.775.564-1.608 2.18-2.128 2.893a17.29 17.29 0 0 1-.805 1.046.39.39 0 0 0-.064.079m1.936-4.635c.201-.517.453-1.16.548-1.358.17-.351.613-.884.869-1.192m2.6-4.954c-1.744.133-3.823 2.589-4.097 3.017"/>
      <path id="path4710" d="M33.725 163.474c-.28-.877-1.592-1.417-2.377-1.74l-.148-.061c-.992-.413-2.068-.627-3-.794"/>
      <path id="path4714" d="M13.863 159.462c-1.194-.007-2.584.064-3.79.568-.95.397-2.54 1.061-3.018 1.995"/>
    </g>
    <g id="Y_sog1-1_3hr" fill="none" stroke="#000" stroke-miterlimit="10" stroke-width=".236" transform="translate(185.746 86.487)">
      <path id="path4718" d="M4.045 160.954s3.063-4.713 13.274-1.964c1.257.629 2.435 1.493 4.242 1.1 1.806-.628 5.262-1.964 11.703-.943 1.178.707 4.634 2.357 3.377 5.655-.864 1.1-2.906 2.514-8.168-.392-2.278-1.414-4.242-2.906-7.148-2.513l-2.12.157c-1.022-.315-2.75-.157-4.085.628-1.885.942-6.52 3.377-9.426 2.277-1.65-.785-2.906-1.256-1.65-4.005z"/>
      <path id="path4720" d="M19.204 162.054s1.57-.236 2.12-.157c.157 1.728.236 8.561 0 13.666-.156 2.121.236 3.064-2.513 6.127-1.885 1.964-4.87 4.713-5.42 5.42-.706 1.413-2.827 6.597-2.984 7.619.079-2.828.157-7.226 2.435-9.19 1.885-1.728 4.163-3.535 6.677-8.404-.08-3.457.078-14.218-.315-15.081z"/>
      <path id="path4722" d="M14.746 185.705c.032 1.01.505 1.885 1.116 2.863m-1.687 3.385c-.155-1.484-.534-3.637-.783-4.843m-.867 7.825c-.042-.337-.182-.636-.32-.925-.085-.182-.166-.354-.22-.53-.067-.214-.356-2.038-.396-2.274m-.317 6.474c-.151-1.027-.307-2.089-.396-3.129l.071-1.541M8.99 203.397c.301-2.495.762-6.439 1.425-8.944m-2.681 6.767c-.1-.822 1.288-2.827 2.05-3.686m.623-4.347c-.775.564-1.608 2.18-2.128 2.893a17.29 17.29 0 0 1-.805 1.046.39.39 0 0 0-.064.079m1.936-4.635c.201-.517.453-1.16.548-1.358.17-.351.613-.884.869-1.192m2.6-4.954c-1.744.133-3.823 2.589-4.097 3.017"/>
      <path id="path4724" d="M33.725 163.474c-.28-.877-1.592-1.417-2.377-1.74l-.148-.061c-.992-.413-2.068-.627-3-.794"/>
      <path id="path4728" d="M13.863 159.462c-1.194-.007-2.584.064-3.79.568-.95.397-2.54 1.061-3.018 1.995"/>
    </g>
    <g id="Y_sog1-1_6hr" fill="none" stroke="#000" stroke-miterlimit="10" stroke-width=".236" transform="translate(247.356 86.487)">
      <path id="path4732" d="M4.045 160.954s3.063-4.713 13.274-1.964c1.257.629 2.435 1.493 4.242 1.1 1.806-.628 5.262-1.964 11.703-.943 1.178.707 4.634 2.357 3.377 5.655-.864 1.1-2.906 2.514-8.168-.392-2.278-1.414-4.242-2.906-7.148-2.513l-2.12.157c-1.022-.315-2.75-.157-4.085.628-1.885.942-6.52 3.377-9.426 2.277-1.65-.785-2.906-1.256-1.65-4.005z"/>
      <path id="path4734" d="M19.204 162.054s1.57-.236 2.12-.157c.157 1.728.236 8.561 0 13.666-.156 2.121.236 3.064-2.513 6.127-1.885 1.964-4.87 4.713-5.42 5.42-.706 1.413-2.827 6.597-2.984 7.619.079-2.828.157-7.226 2.435-9.19 1.885-1.728 4.163-3.535 6.677-8.404-.08-3.457.078-14.218-.315-15.081z"/>
      <path id="path4736" d="M14.746 185.705c.032 1.01.505 1.885 1.116 2.863m-1.687 3.385c-.155-1.484-.534-3.637-.783-4.843m-.867 7.825c-.042-.337-.182-.636-.32-.925-.085-.182-.166-.354-.22-.53-.067-.214-.356-2.038-.396-2.274m-.317 6.474c-.151-1.027-.307-2.089-.396-3.129l.071-1.541M8.99 203.397c.301-2.495.762-6.439 1.425-8.944m-2.681 6.767c-.1-.822 1.288-2.827 2.05-3.686m.623-4.347c-.775.564-1.608 2.18-2.128 2.893a17.29 17.29 0 0 1-.805 1.046.39.39 0 0 0-.064.079m1.936-4.635c.201-.517.453-1.16.548-1.358.17-.351.613-.884.869-1.192m2.6-4.954c-1.744.133-3.823 2.589-4.097 3.017"/>
      <path id="path4738" d="M33.725 163.474c-.28-.877-1.592-1.417-2.377-1.74l-.148-.061c-.992-.413-2.068-.627-3-.794"/>
      <path id="path4742" d="M13.863 159.462c-1.194-.007-2.584.064-3.79.568-.95.397-2.54 1.061-3.018 1.995"/>
    </g>
    <g id="Y_sog1-1_12hr" fill="none" stroke="#000" stroke-miterlimit="10" stroke-width=".236" transform="translate(308.966 86.487)">
      <path id="path4746" d="M4.045 160.954s3.063-4.713 13.274-1.964c1.257.629 2.435 1.493 4.242 1.1 1.806-.628 5.262-1.964 11.703-.943 1.178.707 4.634 2.357 3.377 5.655-.864 1.1-2.906 2.514-8.168-.392-2.278-1.414-4.242-2.906-7.148-2.513l-2.12.157c-1.022-.315-2.75-.157-4.085.628-1.885.942-6.52 3.377-9.426 2.277-1.65-.785-2.906-1.256-1.65-4.005z"/>
      <path id="path4748" d="M19.204 162.054s1.57-.236 2.12-.157c.157 1.728.236 8.561 0 13.666-.156 2.121.236 3.064-2.513 6.127-1.885 1.964-4.87 4.713-5.42 5.42-.706 1.413-2.827 6.597-2.984 7.619.079-2.828.157-7.226 2.435-9.19 1.885-1.728 4.163-3.535 6.677-8.404-.08-3.457.078-14.218-.315-15.081z"/>
      <path id="path4750" d="M14.746 185.705c.032 1.01.505 1.885 1.116 2.863m-1.687 3.385c-.155-1.484-.534-3.637-.783-4.843m-.867 7.825c-.042-.337-.182-.636-.32-.925-.085-.182-.166-.354-.22-.53-.067-.214-.356-2.038-.396-2.274m-.317 6.474c-.151-1.027-.307-2.089-.396-3.129l.071-1.541M8.99 203.397c.301-2.495.762-6.439 1.425-8.944m-2.681 6.767c-.1-.822 1.288-2.827 2.05-3.686m.623-4.347c-.775.564-1.608 2.18-2.128 2.893a17.29 17.29 0 0 1-.805 1.046.39.39 0 0 0-.064.079m1.936-4.635c.201-.517.453-1.16.548-1.358.17-.351.613-.884.869-1.192m2.6-4.954c-1.744.133-3.823 2.589-4.097 3.017"/>
      <path id="path4752" d="M33.725 163.474c-.28-.877-1.592-1.417-2.377-1.74l-.148-.061c-.992-.413-2.068-.627-3-.794"/>
      <path id="path4756" d="M13.863 159.462c-1.194-.007-2.584.064-3.79.568-.95.397-2.54 1.061-3.018 1.995"/>
    </g>
    <g id="Y_sog1-1_24hr" fill="none" stroke="#000" stroke-miterlimit="10" stroke-width=".236" transform="translate(370.576 86.487)">
      <path id="path4760" d="M4.045 160.954s3.063-4.713 13.274-1.964c1.257.629 2.435 1.493 4.242 1.1 1.806-.628 5.262-1.964 11.703-.943 1.178.707 4.634 2.357 3.377 5.655-.864 1.1-2.906 2.514-8.168-.392-2.278-1.414-4.242-2.906-7.148-2.513l-2.12.157c-1.022-.315-2.75-.157-4.085.628-1.885.942-6.52 3.377-9.426 2.277-1.65-.785-2.906-1.256-1.65-4.005z"/>
      <path id="path4762" d="M19.204 162.054s1.57-.236 2.12-.157c.157 1.728.236 8.561 0 13.666-.156 2.121.236 3.064-2.513 6.127-1.885 1.964-4.87 4.713-5.42 5.42-.706 1.413-2.827 6.597-2.984 7.619.079-2.828.157-7.226 2.435-9.19 1.885-1.728 4.163-3.535 6.677-8.404-.08-3.457.078-14.218-.315-15.081z"/>
      <path id="path4764" d="M14.746 185.705c.032 1.01.505 1.885 1.116 2.863m-1.687 3.385c-.155-1.484-.534-3.637-.783-4.843m-.867 7.825c-.042-.337-.182-.636-.32-.925-.085-.182-.166-.354-.22-.53-.067-.214-.356-2.038-.396-2.274m-.317 6.474c-.151-1.027-.307-2.089-.396-3.129l.071-1.541M8.99 203.397c.301-2.495.762-6.439 1.425-8.944m-2.681 6.767c-.1-.822 1.288-2.827 2.05-3.686m.623-4.347c-.775.564-1.608 2.18-2.128 2.893a17.29 17.29 0 0 1-.805 1.046.39.39 0 0 0-.064.079m1.936-4.635c.201-.517.453-1.16.548-1.358.17-.351.613-.884.869-1.192m2.6-4.954c-1.744.133-3.823 2.589-4.097 3.017"/>
      <path id="path4766" d="M33.725 163.474c-.28-.877-1.592-1.417-2.377-1.74l-.148-.061c-.992-.413-2.068-.627-3-.794"/>
      <path id="path4770" d="M13.863 159.462c-1.194-.007-2.584.064-3.79.568-.95.397-2.54 1.061-3.018 1.995"/>
    </g>
    <text xml:space="preserve" id="text4776" x="17.546" y="223.603" fill="#000" fill-opacity="1" stroke="none" stroke-width=".265" font-family="Arial" font-size="21.167" font-stretch="normal" font-style="normal" font-variant="normal" font-weight="400" letter-spacing="0" style="line-height:1.25;-inkscape-font-specification:Arial;text-align:start" text-anchor="start" word-spacing="0"><tspan id="tspan4774" x="17.546" y="223.603" stroke-width=".265" font-size="21.167">0</tspan></text>
    <text xml:space="preserve" id="text4780" x="71.597" y="223.603" fill="#000" fill-opacity="1" stroke="none" stroke-width=".265" font-family="Arial" font-size="21.167" font-stretch="normal" font-style="normal" font-variant="normal" font-weight="400" letter-spacing="0" style="line-height:1.25;-inkscape-font-specification:Arial;text-align:start" text-anchor="start" word-spacing="0"><tspan id="tspan4778" x="71.597" y="223.603" stroke-width=".265" font-size="21.167">20&apos;</tspan></text>
    <text xml:space="preserve" id="text4784" x="127.915" y="223.603" fill="#000" fill-opacity="1" stroke="none" stroke-width=".265" font-family="Arial" font-size="21.167" font-stretch="normal" font-style="normal" font-variant="normal" font-weight="400" letter-spacing="0" style="line-height:1.25;-inkscape-font-specification:Arial;text-align:start" text-anchor="start" word-spacing="0"><tspan id="tspan4782" x="127.915" y="223.603" stroke-width=".265" font-size="21.167">1h30&apos;</tspan></text>
    <text xml:space="preserve" id="text4788" x="191.037" y="223.603" fill="#000" fill-opacity="1" stroke="none" stroke-width=".265" font-family="Arial" font-size="21.167" font-stretch="normal" font-style="normal" font-variant="normal" font-weight="400" letter-spacing="0" style="line-height:1.25;-inkscape-font-specification:Arial;text-align:start" text-anchor="start" word-spacing="0"><tspan id="tspan4786" x="191.037" y="223.603" stroke-width=".265" font-size="21.167">3h</tspan></text>
    <text xml:space="preserve" id="text4792" x="249.624" y="223.603" fill="#000" fill-opacity="1" stroke="none" stroke-width=".265" font-family="Arial" font-size="21.167" font-stretch="normal" font-style="normal" font-variant="normal" font-weight="400" letter-spacing="0" style="line-height:1.25;-inkscape-font-specification:Arial;text-align:start" text-anchor="start" word-spacing="0"><tspan id="tspan4790" x="249.624" y="223.603" stroke-width=".265" font-size="21.167">6h</tspan></text>
    <text xml:space="preserve" id="text4796" x="313.502" y="223.603" fill="#000" fill-opacity="1" stroke="none" stroke-width=".265" font-family="Arial" font-size="21.167" font-stretch="normal" font-style="normal" font-variant="normal" font-weight="400" letter-spacing="0" style="line-height:1.25;-inkscape-font-specification:Arial;text-align:start" text-anchor="start" word-spacing="0"><tspan id="tspan4794" x="313.502" y="223.603" stroke-width=".265" font-size="21.167">12h&apos;</tspan></text>
    <text xml:space="preserve" id="text4800" x="369.82" y="223.603" fill="#000" fill-opacity="1" stroke="none" stroke-width=".265" font-family="Arial" font-size="21.167" font-stretch="normal" font-style="normal" font-variant="normal" font-weight="400" letter-spacing="0" style="line-height:1.25;-inkscape-font-specification:Arial;text-align:start" text-anchor="start" word-spacing="0"><tspan id="tspan4798" x="369.82" y="223.603" stroke-width=".265" font-size="21.167">24h</tspan></text>
    <path id="path4802" fill="none" stroke="#000" stroke-dasharray="none" stroke-linecap="butt" stroke-linejoin="miter" stroke-miterlimit="4" stroke-opacity="1" stroke-width=".265" marker-end="url(#marker5186)" d="M-26.299 173.71H-3.62"/>
    <path id="path4808" fill="none" stroke="#000" stroke-dasharray="none" stroke-linecap="butt" stroke-linejoin="miter" stroke-miterlimit="4" stroke-opacity="1" stroke-width=".265" marker-end="url(#marker5152)" d="M-26.299 257.998H-3.62"/>
    <path id="path4810" fill="none" stroke="#000" stroke-dasharray="none" stroke-linecap="butt" stroke-linejoin="miter" stroke-miterlimit="4" stroke-opacity="1" stroke-width=".265" marker-end="url(#marker5124)" d="M-87.91 203.57v-21.545"/>
    <path id="path4812" fill="none" stroke="#000" stroke-dasharray="none" stroke-linecap="butt" stroke-linejoin="miter" stroke-miterlimit="4" stroke-opacity="1" stroke-width=".265" marker-end="url(#marker5102)" d="M-87.91 230.406v21.545"/>
    <path id="path4814" fill="none" stroke="#000" stroke-dasharray="none" stroke-linecap="butt" stroke-linejoin="miter" stroke-miterlimit="4" stroke-opacity="1" stroke-width=".265" marker-end="url(#Arrow1Lend)" d="M-129.109 216.799h21.923"/>
    <path id="path4816" fill="none" stroke="#000" stroke-dasharray="none" stroke-linecap="butt" stroke-linejoin="miter" stroke-miterlimit="4" stroke-opacity="1" stroke-width=".265" marker-end="url(#marker5226)" d="m-180.513 236.454 16.442-16.442"/>
    <text xml:space="preserve" id="text5290" x="-199.024" y="251.716" fill="#f9b233" fill-opacity="1" stroke="none" stroke-width=".265" font-family="Arial" font-size="16.933" font-stretch="normal" font-style="normal" font-variant="normal" font-weight="400" letter-spacing="0" style="line-height:1.25;-inkscape-font-specification:Arial;text-align:start" text-anchor="start" word-spacing="0"><tspan id="tspan5288" x="-199.024" y="251.716" fill="#f9b233" fill-opacity="1" stroke-width=".265" font-size="16.933">γ-IR</tspan></text>
    <text xml:space="preserve" id="text5294" x="-168.534" y="213.229" fill="#f9b233" fill-opacity="1" stroke="none" stroke-width=".265" font-family="Arial" font-size="11.289" font-stretch="normal" font-style="normal" font-variant="normal" font-weight="400" letter-spacing="0" style="line-height:1.25;-inkscape-font-specification:Arial;text-align:start" text-anchor="start" word-spacing="0"><tspan id="tspan5292" x="-168.534" y="213.229" fill="#f9b233" fill-opacity="1" stroke-width=".265" font-size="11.289">DSB</tspan></text>
    <path id="path5338" fill="none" stroke="#000" stroke-linecap="butt" stroke-linejoin="miter" stroke-opacity="1" stroke-width=".265" d="M-157.22 217.338s3.675 9.989 8.419 0c0 0 3.675-9.99 8.419 0"/>
    <path id="path5340" fill="none" stroke="#000" stroke-linecap="butt" stroke-linejoin="miter" stroke-opacity="1" stroke-width=".265" d="M-155.188 217.338s3.675 9.989 8.419 0c0 0 3.674-9.99 8.419 0"/>
    <path id="path5344" fill="#9c59a0" fill-opacity="1" fill-rule="evenodd" stroke="none" stroke-dasharray="none" stroke-dashoffset="0" stroke-linecap="butt" stroke-linejoin="miter" stroke-miterlimit="4" stroke-opacity="1" stroke-width=".265" d="M-66.57 164.853a20.847 9.354 0 0 1-20.847 9.354 20.847 9.354 0 0 1-20.847-9.354 20.847 9.354 0 0 1 20.847-9.354 20.847 9.354 0 0 1 20.847 9.354z" opacity="1" vector-effect="none"/>
    <text xml:space="preserve" id="text5348" x="-99.845" y="167.526" fill="#000" fill-opacity="1" stroke="none" stroke-width=".265" font-family="Arial" font-size="8.467" font-stretch="normal" font-style="normal" font-variant="normal" font-weight="400" letter-spacing="0" style="line-height:1.25;-inkscape-font-specification:Arial;text-align:start" text-anchor="start" word-spacing="0"><tspan id="tspan5346" x="-99.845" y="167.526" stroke-width=".265">SOG1</tspan></text>
    <path id="path5354" fill="#3b3b7d" fill-opacity="1" fill-rule="evenodd" stroke="none" stroke-dasharray="none" stroke-dashoffset="0" stroke-linecap="butt" stroke-linejoin="miter" stroke-miterlimit="4" stroke-opacity="1" stroke-width=".265" d="M-93.164 155.499a2.272 2.272 0 0 1-2.271 2.271 2.272 2.272 0 0 1-2.272-2.271 2.272 2.272 0 0 1 2.272-2.272 2.272 2.272 0 0 1 2.271 2.272z" opacity="1" vector-effect="none"/>
    <path id="circle5356" fill="#3b3b7d" fill-opacity="1" fill-rule="evenodd" stroke="none" stroke-dasharray="none" stroke-dashoffset="0" stroke-linecap="butt" stroke-linejoin="miter" stroke-miterlimit="4" stroke-opacity="1" stroke-width=".265" d="M-88.486 157.236a2.272 2.272 0 0 1-2.272 2.272 2.272 2.272 0 0 1-2.272-2.272 2.272 2.272 0 0 1 2.272-2.272 2.272 2.272 0 0 1 2.272 2.272z" opacity="1" vector-effect="none"/>
    <path id="circle5358" fill="#3b3b7d" fill-opacity="1" fill-rule="evenodd" stroke="none" stroke-dasharray="none" stroke-dashoffset="0" stroke-linecap="butt" stroke-linejoin="miter" stroke-miterlimit="4" stroke-opacity="1" stroke-width=".265" d="M-80.335 154.964a2.272 2.272 0 0 1-2.271 2.272 2.272 2.272 0 0 1-2.272-2.272 2.272 2.272 0 0 1 2.272-2.272 2.272 2.272 0 0 1 2.271 2.272z" opacity="1" vector-effect="none"/>
    <path id="path5314" fill="none" stroke="#000" stroke-linecap="butt" stroke-linejoin="miter" stroke-opacity="1" stroke-width=".265" d="M-103.52 175.477s3.675-9.99 8.419 0c0 0 3.675 9.99 8.419 0 0 0 3.675-9.99 8.419 0 0 0 3.675 9.99 8.419 0 0 0 3.675-9.99 8.419 0 0 0 3.675 9.99 8.419 0 0 0 3.675-9.99 8.419 0h2.031c-4.744-9.99-8.419 0-8.419 0-4.744 9.99-8.419 0-8.419 0-4.744-9.99-8.419 0-8.419 0-4.744 9.99-8.419 0-8.419 0-4.744-9.99-8.419 0-8.419 0-4.744 9.99-8.419 0-8.419 0-4.744-9.99-8.419 0-8.419 0-4.744 9.99-8.419 0-8.419 0-4.744-9.99-8.419 0-8.419 0-4.744 9.99-8.419 0-8.419 0h-2.031s3.675 9.99 8.419 0c0 0 3.675-9.99 8.419 0 0 0 3.675 9.99 8.419 0z"/>
    <path id="path5334" fill="none" stroke="#000" stroke-linecap="butt" stroke-linejoin="miter" stroke-opacity="1" stroke-width=".265" d="M-98.229 175.477s3.675-9.99 8.42 0c0 0 3.674 9.99 8.418 0 0 0 3.675-9.99 8.42 0 0 0 3.674 9.99 8.418 0 0 0 3.675-9.99 8.42 0 0 0 3.674 9.99 8.418 0 0 0 3.675-9.99 8.42 0h2.03c-4.743-9.99-8.418 0-8.418 0-4.744 9.99-8.42 0-8.42 0-4.743-9.99-8.418 0-8.418 0-4.744 9.99-8.42 0-8.42 0-4.743-9.99-8.418 0-8.418 0-4.744 9.99-8.42 0-8.42 0-4.743-9.99-8.418 0-8.418 0-4.744 9.99-8.419 0-8.419 0-4.744-9.99-8.419 0-8.419 0-4.744 9.99-8.419 0-8.419 0h-2.032s3.675 9.99 8.42 0c0 0 3.674-9.99 8.418 0 0 0 3.675 9.99 8.42 0z"/>
    <path id="path5372" fill="#9c59a0" fill-opacity="1" fill-rule="evenodd" stroke="none" stroke-dasharray="none" stroke-dashoffset="0" stroke-linecap="butt" stroke-linejoin="miter" stroke-miterlimit="4" stroke-opacity="1" stroke-width=".265" d="M-66.57 264.544a20.847 9.354 0 0 1-20.847 9.355 20.847 9.354 0 0 1-20.847-9.355 20.847 9.354 0 0 1 20.847-9.354 20.847 9.354 0 0 1 20.847 9.354z" opacity="1" vector-effect="none"/>
    <text xml:space="preserve" id="text5376" x="-99.845" y="267.217" fill="#000" fill-opacity="1" stroke="none" stroke-width=".265" font-family="Arial" font-size="8.467" font-stretch="normal" font-style="normal" font-variant="normal" font-weight="400" letter-spacing="0" style="line-height:1.25;-inkscape-font-specification:Arial;text-align:start" text-anchor="start" word-spacing="0"><tspan id="tspan5374" x="-99.845" y="267.217" stroke-width=".265">SOG1</tspan></text>
    <path id="path5378" fill="#3b3b7d" fill-opacity="1" fill-rule="evenodd" stroke="none" stroke-dasharray="none" stroke-dashoffset="0" stroke-linecap="butt" stroke-linejoin="miter" stroke-miterlimit="4" stroke-opacity="1" stroke-width=".265" d="M-93.164 255.19a2.272 2.272 0 0 1-2.271 2.272 2.272 2.272 0 0 1-2.272-2.272 2.272 2.272 0 0 1 2.272-2.272 2.272 2.272 0 0 1 2.271 2.272z" opacity="1" vector-effect="none"/>
    <path id="path5380" fill="#3b3b7d" fill-opacity="1" fill-rule="evenodd" stroke="none" stroke-dasharray="none" stroke-dashoffset="0" stroke-linecap="butt" stroke-linejoin="miter" stroke-miterlimit="4" stroke-opacity="1" stroke-width=".265" d="M-88.486 256.927a2.272 2.272 0 0 1-2.272 2.272 2.272 2.272 0 0 1-2.272-2.272 2.272 2.272 0 0 1 2.272-2.272 2.272 2.272 0 0 1 2.272 2.272z" opacity="1" vector-effect="none"/>
    <path id="path5382" fill="#3b3b7d" fill-opacity="1" fill-rule="evenodd" stroke="none" stroke-dasharray="none" stroke-dashoffset="0" stroke-linecap="butt" stroke-linejoin="miter" stroke-miterlimit="4" stroke-opacity="1" stroke-width=".265" d="M-80.335 254.655a2.272 2.272 0 0 1-2.271 2.272 2.272 2.272 0 0 1-2.272-2.272 2.272 2.272 0 0 1 2.272-2.271 2.272 2.272 0 0 1 2.271 2.271z" opacity="1" vector-effect="none"/>
    <path id="path5384" fill="none" stroke="#000" stroke-linecap="butt" stroke-linejoin="miter" stroke-opacity="1" stroke-width=".265" d="M-103.52 275.168s3.675-9.989 8.419 0c0 0 3.675 9.99 8.419 0 0 0 3.675-9.989 8.419 0 0 0 3.675 9.99 8.419 0 0 0 3.675-9.989 8.419 0 0 0 3.675 9.99 8.419 0 0 0 3.675-9.989 8.419 0h2.031c-4.744-9.989-8.419 0-8.419 0-4.744 9.99-8.419 0-8.419 0-4.744-9.989-8.419 0-8.419 0-4.744 9.99-8.419 0-8.419 0-4.744-9.989-8.419 0-8.419 0-4.744 9.99-8.419 0-8.419 0-4.744-9.989-8.419 0-8.419 0-4.744 9.99-8.419 0-8.419 0-4.744-9.989-8.419 0-8.419 0-4.744 9.99-8.419 0-8.419 0h-2.031s3.675 9.99 8.419 0c0 0 3.675-9.989 8.419 0 0 0 3.675 9.99 8.419 0z"/>
    <path id="path5386" fill="none" stroke="#000" stroke-linecap="butt" stroke-linejoin="miter" stroke-opacity="1" stroke-width=".265" d="M-98.229 275.168s3.675-9.989 8.42 0c0 0 3.674 9.99 8.418 0 0 0 3.675-9.989 8.42 0 0 0 3.674 9.99 8.418 0 0 0 3.675-9.989 8.42 0 0 0 3.674 9.99 8.418 0 0 0 3.675-9.989 8.42 0h2.03c-4.743-9.989-8.418 0-8.418 0-4.744 9.99-8.42 0-8.42 0-4.743-9.989-8.418 0-8.418 0-4.744 9.99-8.42 0-8.42 0-4.743-9.989-8.418 0-8.418 0-4.744 9.99-8.42 0-8.42 0-4.743-9.989-8.418 0-8.418 0-4.744 9.99-8.419 0-8.419 0-4.744-9.989-8.419 0-8.419 0-4.744 9.99-8.419 0-8.419 0h-2.032s3.675 9.99 8.42 0c0 0 3.674-9.989 8.418 0 0 0 3.675 9.99 8.42 0z"/>
    <path id="path5366" fill="#be1522" fill-opacity="1" stroke="none" stroke-linecap="butt" stroke-linejoin="miter" stroke-opacity="1" stroke-width=".265" d="m-103.854 247.707 31.537 31.537-2.672 2.673-31.538-31.538z"/>
    <path id="path5370" fill="#be1522" fill-opacity="1" stroke="none" stroke-linecap="butt" stroke-linejoin="miter" stroke-opacity="1" stroke-width=".265" d="m-74.99 247.707-31.537 31.537 2.673 2.673 31.537-31.538z"/>
    <path id="path5392" fill="none" stroke="#000" stroke-linecap="butt" stroke-linejoin="miter" stroke-opacity="1" stroke-width=".265" d="M-188.876 215.164s3.675 9.99 8.42 0c0 0 3.674-9.989 8.418 0"/>
    <path id="path5394" fill="none" stroke="#000" stroke-linecap="butt" stroke-linejoin="miter" stroke-opacity="1" stroke-width=".265" d="M-186.844 215.164s3.675 9.99 8.419 0c0 0 3.675-9.989 8.419 0"/>
    <path id="path5390" fill="#f9b233" fill-opacity="1" fill-rule="evenodd" stroke="none" stroke-dasharray="none" stroke-dashoffset="0" stroke-linecap="butt" stroke-linejoin="miter" stroke-miterlimit="4" stroke-opacity="1" stroke-width=".265" d="m-168.513 218.405-1.959-.992-1.928 1.051.338-2.17-1.596-1.509 2.169-.348.942-1.984 1.002 1.954 2.178.283-1.55 1.557z" opacity="1" vector-effect="none"/>
    <path id="path5397" fill="#f9b233" fill-opacity="1" fill-rule="evenodd" stroke="none" stroke-dasharray="none" stroke-dashoffset="0" stroke-linecap="butt" stroke-linejoin="miter" stroke-miterlimit="4" stroke-opacity="1" stroke-width=".265" d="m-154.716 219.823-1.96-.993-1.928 1.052.338-2.17-1.595-1.51 2.168-.348.942-1.984 1.002 1.955 2.178.282-1.55 1.557z" opacity="1" vector-effect="none"/>
    <ellipse id="path5399" cx="-88.193" cy="216.988" fill="#a04330" fill-opacity="1" fill-rule="evenodd" stroke="none" stroke-dasharray="none" stroke-dashoffset="0" stroke-linecap="butt" stroke-linejoin="miter" stroke-miterlimit="4" stroke-opacity="1" stroke-width=".265" opacity="1" rx="15.322" ry="11.528" vector-effect="none"/>
    <text xml:space="preserve" id="text5403" x="-99.626" y="220.39" fill="#fff" fill-opacity="1" stroke="none" stroke-width=".265" font-family="Arial" font-size="11.289" font-stretch="normal" font-style="normal" font-variant="normal" font-weight="400" letter-spacing="0" style="line-height:1.25;-inkscape-font-specification:Arial;text-align:start" text-anchor="start" word-spacing="0"><tspan id="tspan5401" x="-99.626" y="220.39" fill="#fff" stroke-width=".265" font-size="11.289">ATM</tspan></text>
  </g>
</svg>