<svg xmlns="http://www.w3.org/2000/svg" id="svg1573" version="1.1" viewBox="0 0 612.5 138.6" author="Provart Lab - Bio Analytic Resource, University of Toronto">
  &gt;
  <defs id="defs1567">
    <marker id="marker5226" orient="auto" overflow="visible" refX="0" refY="0">
      <path id="path5224" fill="#000" fill-opacity="1" fill-rule="evenodd" stroke="#000" stroke-opacity="1" stroke-width="1.1" d="m-10 0-4 4L0 0l-14-4Z"/>
    </marker>
    <marker id="marker5186" orient="auto" overflow="visible" refX="0" refY="0">
      <path id="path5184" fill="#000" fill-opacity="1" fill-rule="evenodd" stroke="#000" stroke-opacity="1" stroke-width="1.1" d="m-10 0-4 4L0 0l-14-4Z"/>
    </marker>
    <marker id="marker5152" orient="auto" overflow="visible" refX="0" refY="0">
      <path id="path5150" fill="#000" fill-opacity="1" fill-rule="evenodd" stroke="#000" stroke-opacity="1" stroke-width="1.1" d="m-10 0-4 4L0 0l-14-4Z"/>
    </marker>
    <marker id="marker5124" orient="auto" overflow="visible" refX="0" refY="0">
      <path id="path5122" fill="#000" fill-opacity="1" fill-rule="evenodd" stroke="#000" stroke-opacity="1" stroke-width="1.1" d="m-10 0-4 4L0 0l-14-4Z"/>
    </marker>
    <marker id="marker5102" orient="auto" overflow="visible" refX="0" refY="0">
      <path id="path5100" fill="#000" fill-opacity="1" fill-rule="evenodd" stroke="#000" stroke-opacity="1" stroke-width="1.1" d="m-10 0-4 4L0 0l-14-4Z"/>
    </marker>
    <marker id="Arrow1Lend" orient="auto" overflow="visible" refX="0" refY="0">
      <path id="path4821" fill="#000" fill-opacity="1" fill-rule="evenodd" stroke="#000" stroke-opacity="1" stroke-width="1.1" d="m-10 0-4 4L0 0l-14-4Z"/>
    </marker>
  </defs>
  <g id="layer1" transform="translate(202 -152)">
    <g id="g4548" fill="none" stroke="#000" stroke-miterlimit="10" stroke-width=".2" transform="translate(1 2)">
      <path id="path450" d="M4 161s3-5 13-2l5 1c1-1 5-2 11-1 1 1 5 3 4 6-1 1-3 2-9-1l-7-2h-2l-4 1c-2 1-6 3-9 2-2-1-3-1-2-4z"/>
      <path id="path453" d="M19 162h2v14c0 2 1 3-2 6l-6 5-3 8c0-3 1-7 3-9l7-9-1-15z"/>
      <path id="path656" d="m15 186 1 3m-2 3-1-5m0 8-1-1v-3m-1 7v-5m-2 10 1-9m-2 7 2-3m0-5-2 3a17 17 0 0 1-1 1m2-4 1-2 1-1m2-5-4 3"/>
      <path id="path658" d="m34 163-3-1-3-1"/>
      <path id="path662" d="m14 159-4 1-3 2"/>
    </g>
    <g id="Y_Col-0_20min" fill="none" stroke="#000" stroke-miterlimit="10" stroke-width=".2" transform="translate(63 2)">
      <path id="path4550" d="M4 161s3-5 13-2l5 1c1-1 5-2 11-1 1 1 5 3 4 6-1 1-3 2-9-1l-7-2h-2l-4 1c-2 1-6 3-9 2-2-1-3-1-2-4z"/>
      <path id="path4552" d="M19 162h2v14c0 2 1 3-2 6l-6 5-3 8c0-3 1-7 3-9l7-9-1-15z"/>
      <path id="path4554" d="m15 186 1 3m-2 3-1-5m0 8-1-1v-3m-1 7v-5m-2 10 1-9m-2 7 2-3m0-5-2 3a17 17 0 0 1-1 1m2-4 1-2 1-1m2-5-4 3"/>
      <path id="path4556" d="m34 163-3-1-3-1"/>
      <path id="path4560" d="m14 159-4 1-3 2"/>
    </g>
    <g id="Y_Col-0_90min" fill="none" stroke="#000" stroke-miterlimit="10" stroke-width=".2" transform="translate(124 2)">
      <path id="path4578" d="M4 161s3-5 13-2l5 1c1-1 5-2 11-1 1 1 5 3 4 6-1 1-3 2-9-1l-7-2h-2l-4 1c-2 1-6 3-9 2-2-1-3-1-2-4z"/>
      <path id="path4580" d="M19 162h2v14c0 2 1 3-2 6l-6 5-3 8c0-3 1-7 3-9l7-9-1-15z"/>
      <path id="path4582" d="m15 186 1 3m-2 3-1-5m0 8-1-1v-3m-1 7v-5m-2 10 1-9m-2 7 2-3m0-5-2 3a17 17 0 0 1-1 1m2-4 1-2 1-1m2-5-4 3"/>
      <path id="path4584" d="m34 163-3-1-3-1"/>
      <path id="path4588" d="m14 159-4 1-3 2"/>
    </g>
    <g id="Y_Col-0_3hr" fill="none" stroke="#000" stroke-miterlimit="10" stroke-width=".2" transform="translate(186 2)">
      <path id="path4606" d="M4 161s3-5 13-2l5 1c1-1 5-2 11-1 1 1 5 3 4 6-1 1-3 2-9-1l-7-2h-2l-4 1c-2 1-6 3-9 2-2-1-3-1-2-4z"/>
      <path id="path4608" d="M19 162h2v14c0 2 1 3-2 6l-6 5-3 8c0-3 1-7 3-9l7-9-1-15z"/>
      <path id="path4610" d="m15 186 1 3m-2 3-1-5m0 8-1-1v-3m-1 7v-5m-2 10 1-9m-2 7 2-3m0-5-2 3a17 17 0 0 1-1 1m2-4 1-2 1-1m2-5-4 3"/>
      <path id="path4612" d="m34 163-3-1-3-1"/>
      <path id="path4616" d="m14 159-4 1-3 2"/>
    </g>
    <g id="Y_Col-0_6hr" fill="none" stroke="#000" stroke-miterlimit="10" stroke-width=".2" transform="translate(247 2)">
      <path id="path4620" d="M4 161s3-5 13-2l5 1c1-1 5-2 11-1 1 1 5 3 4 6-1 1-3 2-9-1l-7-2h-2l-4 1c-2 1-6 3-9 2-2-1-3-1-2-4z"/>
      <path id="path4622" d="M19 162h2v14c0 2 1 3-2 6l-6 5-3 8c0-3 1-7 3-9l7-9-1-15z"/>
      <path id="path4624" d="m15 186 1 3m-2 3-1-5m0 8-1-1v-3m-1 7v-5m-2 10 1-9m-2 7 2-3m0-5-2 3a17 17 0 0 1-1 1m2-4 1-2 1-1m2-5-4 3"/>
      <path id="path4626" d="m34 163-3-1-3-1"/>
      <path id="path4630" d="m14 159-4 1-3 2"/>
    </g>
    <g id="Y_Col-0_12hr" fill="none" stroke="#000" stroke-miterlimit="10" stroke-width=".2" transform="translate(309 2)">
      <path id="path4648" d="M4 161s3-5 13-2l5 1c1-1 5-2 11-1 1 1 5 3 4 6-1 1-3 2-9-1l-7-2h-2l-4 1c-2 1-6 3-9 2-2-1-3-1-2-4z"/>
      <path id="path4650" d="M19 162h2v14c0 2 1 3-2 6l-6 5-3 8c0-3 1-7 3-9l7-9-1-15z"/>
      <path id="path4652" d="m15 186 1 3m-2 3-1-5m0 8-1-1v-3m-1 7v-5m-2 10 1-9m-2 7 2-3m0-5-2 3a17 17 0 0 1-1 1m2-4 1-2 1-1m2-5-4 3"/>
      <path id="path4654" d="m34 163-3-1-3-1"/>
      <path id="path4658" d="m14 159-4 1-3 2"/>
    </g>
    <g id="Y_Col-0_24hr" fill="none" stroke="#000" stroke-miterlimit="10" stroke-width=".2" transform="translate(371 2)">
      <path id="path4662" d="M4 161s3-5 13-2l5 1c1-1 5-2 11-1 1 1 5 3 4 6-1 1-3 2-9-1l-7-2h-2l-4 1c-2 1-6 3-9 2-2-1-3-1-2-4z"/>
      <path id="path4664" d="M19 162h2v14c0 2 1 3-2 6l-6 5-3 8c0-3 1-7 3-9l7-9-1-15z"/>
      <path id="path4666" d="m15 186 1 3m-2 3-1-5m0 8-1-1v-3m-1 7v-5m-2 10 1-9m-2 7 2-3m0-5-2 3a17 17 0 0 1-1 1m2-4 1-2 1-1m2-5-4 3"/>
      <path id="path4668" d="m34 163-3-1-3-1"/>
      <path id="path4672" d="m14 159-4 1-3 2"/>
    </g>
    <g id="g4688" fill="none" stroke="#000" stroke-miterlimit="10" stroke-width=".2" transform="translate(1 86)">
      <path id="path4676" d="M4 161s3-5 13-2l5 1c1-1 5-2 11-1 1 1 5 3 4 6-1 1-3 2-9-1l-7-2h-2l-4 1c-2 1-6 3-9 2-2-1-3-1-2-4z"/>
      <path id="path4678" d="M19 162h2v14c0 2 1 3-2 6l-6 5-3 8c0-3 1-7 3-9l7-9-1-15z"/>
      <path id="path4680" d="m15 186 1 3m-2 3-1-5m0 8-1-1v-3m-1 7v-5m-2 10 1-9m-2 7 2-3m0-5-2 3a17 17 0 0 1-1 1m2-4 1-2 1-1m2-5-4 3"/>
      <path id="path4682" d="m34 163-3-1-3-1"/>
      <path id="path4686" d="m14 159-4 1-3 2"/>
    </g>
    <g id="Y_sog1-1_20min" fill="none" stroke="#000" stroke-miterlimit="10" stroke-width=".2" transform="translate(63 86)">
      <path id="path4690" d="M4 161s3-5 13-2l5 1c1-1 5-2 11-1 1 1 5 3 4 6-1 1-3 2-9-1l-7-2h-2l-4 1c-2 1-6 3-9 2-2-1-3-1-2-4z"/>
      <path id="path4692" d="M19 162h2v14c0 2 1 3-2 6l-6 5-3 8c0-3 1-7 3-9l7-9-1-15z"/>
      <path id="path4694" d="m15 186 1 3m-2 3-1-5m0 8-1-1v-3m-1 7v-5m-2 10 1-9m-2 7 2-3m0-5-2 3a17 17 0 0 1-1 1m2-4 1-2 1-1m2-5-4 3"/>
      <path id="path4696" d="m34 163-3-1-3-1"/>
      <path id="path4700" d="m14 159-4 1-3 2"/>
    </g>
    <g id="Y_sog1-1_90min" fill="none" stroke="#000" stroke-miterlimit="10" stroke-width=".2" transform="translate(124 86)">
      <path id="path4704" d="M4 161s3-5 13-2l5 1c1-1 5-2 11-1 1 1 5 3 4 6-1 1-3 2-9-1l-7-2h-2l-4 1c-2 1-6 3-9 2-2-1-3-1-2-4z"/>
      <path id="path4706" d="M19 162h2v14c0 2 1 3-2 6l-6 5-3 8c0-3 1-7 3-9l7-9-1-15z"/>
      <path id="path4708" d="m15 186 1 3m-2 3-1-5m0 8-1-1v-3m-1 7v-5m-2 10 1-9m-2 7 2-3m0-5-2 3a17 17 0 0 1-1 1m2-4 1-2 1-1m2-5-4 3"/>
      <path id="path4710" d="m34 163-3-1-3-1"/>
      <path id="path4714" d="m14 159-4 1-3 2"/>
    </g>
    <g id="Y_sog1-1_3hr" fill="none" stroke="#000" stroke-miterlimit="10" stroke-width=".2" transform="translate(186 86)">
      <path id="path4718" d="M4 161s3-5 13-2l5 1c1-1 5-2 11-1 1 1 5 3 4 6-1 1-3 2-9-1l-7-2h-2l-4 1c-2 1-6 3-9 2-2-1-3-1-2-4z"/>
      <path id="path4720" d="M19 162h2v14c0 2 1 3-2 6l-6 5-3 8c0-3 1-7 3-9l7-9-1-15z"/>
      <path id="path4722" d="m15 186 1 3m-2 3-1-5m0 8-1-1v-3m-1 7v-5m-2 10 1-9m-2 7 2-3m0-5-2 3a17 17 0 0 1-1 1m2-4 1-2 1-1m2-5-4 3"/>
      <path id="path4724" d="m34 163-3-1-3-1"/>
      <path id="path4728" d="m14 159-4 1-3 2"/>
    </g>
    <g id="Y_sog1-1_6hr" fill="none" stroke="#000" stroke-miterlimit="10" stroke-width=".2" transform="translate(247 86)">
      <path id="path4732" d="M4 161s3-5 13-2l5 1c1-1 5-2 11-1 1 1 5 3 4 6-1 1-3 2-9-1l-7-2h-2l-4 1c-2 1-6 3-9 2-2-1-3-1-2-4z"/>
      <path id="path4734" d="M19 162h2v14c0 2 1 3-2 6l-6 5-3 8c0-3 1-7 3-9l7-9-1-15z"/>
      <path id="path4736" d="m15 186 1 3m-2 3-1-5m0 8-1-1v-3m-1 7v-5m-2 10 1-9m-2 7 2-3m0-5-2 3a17 17 0 0 1-1 1m2-4 1-2 1-1m2-5-4 3"/>
      <path id="path4738" d="m34 163-3-1-3-1"/>
      <path id="path4742" d="m14 159-4 1-3 2"/>
    </g>
    <g id="Y_sog1-1_12hr" fill="none" stroke="#000" stroke-miterlimit="10" stroke-width=".2" transform="translate(309 86)">
      <path id="path4746" d="M4 161s3-5 13-2l5 1c1-1 5-2 11-1 1 1 5 3 4 6-1 1-3 2-9-1l-7-2h-2l-4 1c-2 1-6 3-9 2-2-1-3-1-2-4z"/>
      <path id="path4748" d="M19 162h2v14c0 2 1 3-2 6l-6 5-3 8c0-3 1-7 3-9l7-9-1-15z"/>
      <path id="path4750" d="m15 186 1 3m-2 3-1-5m0 8-1-1v-3m-1 7v-5m-2 10 1-9m-2 7 2-3m0-5-2 3a17 17 0 0 1-1 1m2-4 1-2 1-1m2-5-4 3"/>
      <path id="path4752" d="m34 163-3-1-3-1"/>
      <path id="path4756" d="m14 159-4 1-3 2"/>
    </g>
    <g id="Y_sog1-1_24hr" fill="none" stroke="#000" stroke-miterlimit="10" stroke-width=".2" transform="translate(371 86)">
      <path id="path4760" d="M4 161s3-5 13-2l5 1c1-1 5-2 11-1 1 1 5 3 4 6-1 1-3 2-9-1l-7-2h-2l-4 1c-2 1-6 3-9 2-2-1-3-1-2-4z"/>
      <path id="path4762" d="M19 162h2v14c0 2 1 3-2 6l-6 5-3 8c0-3 1-7 3-9l7-9-1-15z"/>
      <path id="path4764" d="m15 186 1 3m-2 3-1-5m0 8-1-1v-3m-1 7v-5m-2 10 1-9m-2 7 2-3m0-5-2 3a17 17 0 0 1-1 1m2-4 1-2 1-1m2-5-4 3"/>
      <path id="path4766" d="m34 163-3-1-3-1"/>
      <path id="path4770" d="m14 159-4 1-3 2"/>
    </g>
    <text xml:space="preserve" id="text4776" x="17.5" y="223.6" fill="#000" fill-opacity="1" stroke="none" stroke-width=".3" font-family="Arial" font-size="21.2" font-stretch="normal" font-style="normal" font-variant="normal" font-weight="400" letter-spacing="0" style="line-height:1.25;-inkscape-font-specification:Arial;text-align:start" text-anchor="start" word-spacing="0"><tspan id="tspan4774" x="17.5" y="223.6" stroke-width=".3" font-size="21.2">0</tspan></text>
    <text xml:space="preserve" id="text4780" x="71.6" y="223.6" fill="#000" fill-opacity="1" stroke="none" stroke-width=".3" font-family="Arial" font-size="21.2" font-stretch="normal" font-style="normal" font-variant="normal" font-weight="400" letter-spacing="0" style="line-height:1.25;-inkscape-font-specification:Arial;text-align:start" text-anchor="start" word-spacing="0"><tspan id="tspan4778" x="71.6" y="223.6" stroke-width=".3" font-size="21.2">20&apos;</tspan></text>
    <text xml:space="preserve" id="text4784" x="127.9" y="223.6" fill="#000" fill-opacity="1" stroke="none" stroke-width=".3" font-family="Arial" font-size="21.2" font-stretch="normal" font-style="normal" font-variant="normal" font-weight="400" letter-spacing="0" style="line-height:1.25;-inkscape-font-specification:Arial;text-align:start" text-anchor="start" word-spacing="0"><tspan id="tspan4782" x="127.9" y="223.6" stroke-width=".3" font-size="21.2">1h30&apos;</tspan></text>
    <text xml:space="preserve" id="text4788" x="191" y="223.6" fill="#000" fill-opacity="1" stroke="none" stroke-width=".3" font-family="Arial" font-size="21.2" font-stretch="normal" font-style="normal" font-variant="normal" font-weight="400" letter-spacing="0" style="line-height:1.25;-inkscape-font-specification:Arial;text-align:start" text-anchor="start" word-spacing="0"><tspan id="tspan4786" x="191" y="223.6" stroke-width=".3" font-size="21.2">3h</tspan></text>
    <text xml:space="preserve" id="text4792" x="249.6" y="223.6" fill="#000" fill-opacity="1" stroke="none" stroke-width=".3" font-family="Arial" font-size="21.2" font-stretch="normal" font-style="normal" font-variant="normal" font-weight="400" letter-spacing="0" style="line-height:1.25;-inkscape-font-specification:Arial;text-align:start" text-anchor="start" word-spacing="0"><tspan id="tspan4790" x="249.6" y="223.6" stroke-width=".3" font-size="21.2">6h</tspan></text>
    <text xml:space="preserve" id="text4796" x="313.5" y="223.6" fill="#000" fill-opacity="1" stroke="none" stroke-width=".3" font-family="Arial" font-size="21.2" font-stretch="normal" font-style="normal" font-variant="normal" font-weight="400" letter-spacing="0" style="line-height:1.25;-inkscape-font-specification:Arial;text-align:start" text-anchor="start" word-spacing="0"><tspan id="tspan4794" x="313.5" y="223.6" stroke-width=".3" font-size="21.2">12h&apos;</tspan></text>
    <text xml:space="preserve" id="text4800" x="369.8" y="223.6" fill="#000" fill-opacity="1" stroke="none" stroke-width=".3" font-family="Arial" font-size="21.2" font-stretch="normal" font-style="normal" font-variant="normal" font-weight="400" letter-spacing="0" style="line-height:1.25;-inkscape-font-specification:Arial;text-align:start" text-anchor="start" word-spacing="0"><tspan id="tspan4798" x="369.8" y="223.6" stroke-width=".3" font-size="21.2">24h</tspan></text>
    <path id="path4802" fill="none" stroke="#000" stroke-dasharray="none" stroke-linecap="butt" stroke-linejoin="miter" stroke-miterlimit="4" stroke-opacity="1" stroke-width=".3" marker-end="url(#marker5186)" d="M-26 174h22"/>
    <path id="path4808" fill="none" stroke="#000" stroke-dasharray="none" stroke-linecap="butt" stroke-linejoin="miter" stroke-miterlimit="4" stroke-opacity="1" stroke-width=".3" marker-end="url(#marker5152)" d="M-26 258h22"/>
    <path id="path4810" fill="none" stroke="#000" stroke-dasharray="none" stroke-linecap="butt" stroke-linejoin="miter" stroke-miterlimit="4" stroke-opacity="1" stroke-width=".3" marker-end="url(#marker5124)" d="M-88 204v-22"/>
    <path id="path4812" fill="none" stroke="#000" stroke-dasharray="none" stroke-linecap="butt" stroke-linejoin="miter" stroke-miterlimit="4" stroke-opacity="1" stroke-width=".3" marker-end="url(#marker5102)" d="M-88 230v22"/>
    <path id="path4814" fill="none" stroke="#000" stroke-dasharray="none" stroke-linecap="butt" stroke-linejoin="miter" stroke-miterlimit="4" stroke-opacity="1" stroke-width=".3" marker-end="url(#Arrow1Lend)" d="M-129 217h22"/>
    <path id="path4816" fill="none" stroke="#000" stroke-dasharray="none" stroke-linecap="butt" stroke-linejoin="miter" stroke-miterlimit="4" stroke-opacity="1" stroke-width=".3" marker-end="url(#marker5226)" d="m-181 236 17-16"/>
    <text xml:space="preserve" id="text5290" x="-199" y="251.7" fill="#f9b233" fill-opacity="1" stroke="none" stroke-width=".3" font-family="Arial" font-size="16.9" font-stretch="normal" font-style="normal" font-variant="normal" font-weight="400" letter-spacing="0" style="line-height:1.25;-inkscape-font-specification:Arial;text-align:start" text-anchor="start" word-spacing="0"><tspan id="tspan5288" x="-199" y="251.7" fill="#f9b233" fill-opacity="1" stroke-width=".3" font-size="16.9">γ-IR</tspan></text>
    <text xml:space="preserve" id="text5294" x="-168.5" y="213.2" fill="#f9b233" fill-opacity="1" stroke="none" stroke-width=".3" font-family="Arial" font-size="11.3" font-stretch="normal" font-style="normal" font-variant="normal" font-weight="400" letter-spacing="0" style="line-height:1.25;-inkscape-font-specification:Arial;text-align:start" text-anchor="start" word-spacing="0"><tspan id="tspan5292" x="-168.5" y="213.2" fill="#f9b233" fill-opacity="1" stroke-width=".3" font-size="11.3">DSB</tspan></text>
    <path id="path5338" fill="none" stroke="#000" stroke-linecap="butt" stroke-linejoin="miter" stroke-opacity="1" stroke-width=".3" d="M-157 217s3 10 8 0c0 0 4-10 9 0"/>
    <path id="path5340" fill="none" stroke="#000" stroke-linecap="butt" stroke-linejoin="miter" stroke-opacity="1" stroke-width=".3" d="M-155 217s3 10 8 0c0 0 4-10 9 0"/>
    <path id="path5344" fill="#9c59a0" fill-opacity="1" fill-rule="evenodd" stroke="none" stroke-dasharray="none" stroke-dashoffset="0" stroke-linecap="butt" stroke-linejoin="miter" stroke-miterlimit="4" stroke-opacity="1" stroke-width=".3" d="M-67 165a21 9 0 0 1-20 9 21 9 0 0 1-21-9 21 9 0 0 1 21-10 21 9 0 0 1 20 10z" opacity="1" vector-effect="none"/>
    <text xml:space="preserve" id="text5348" x="-99.8" y="167.5" fill="#000" fill-opacity="1" stroke="none" stroke-width=".3" font-family="Arial" font-size="8.5" font-stretch="normal" font-style="normal" font-variant="normal" font-weight="400" letter-spacing="0" style="line-height:1.25;-inkscape-font-specification:Arial;text-align:start" text-anchor="start" word-spacing="0"><tspan id="tspan5346" x="-99.8" y="167.5" stroke-width=".3">SOG1</tspan></text>
    <path id="path5354" fill="#3b3b7d" fill-opacity="1" fill-rule="evenodd" stroke="none" stroke-dasharray="none" stroke-dashoffset="0" stroke-linecap="butt" stroke-linejoin="miter" stroke-miterlimit="4" stroke-opacity="1" stroke-width=".3" d="M-93 155a2 2 0 0 1-2 3 2 2 0 0 1-3-3 2 2 0 0 1 3-2 2 2 0 0 1 2 2z" opacity="1" vector-effect="none"/>
    <path id="circle5356" fill="#3b3b7d" fill-opacity="1" fill-rule="evenodd" stroke="none" stroke-dasharray="none" stroke-dashoffset="0" stroke-linecap="butt" stroke-linejoin="miter" stroke-miterlimit="4" stroke-opacity="1" stroke-width=".3" d="M-88 157a2 2 0 0 1-3 3 2 2 0 0 1-2-3 2 2 0 0 1 2-2 2 2 0 0 1 3 2z" opacity="1" vector-effect="none"/>
    <path id="circle5358" fill="#3b3b7d" fill-opacity="1" fill-rule="evenodd" stroke="none" stroke-dasharray="none" stroke-dashoffset="0" stroke-linecap="butt" stroke-linejoin="miter" stroke-miterlimit="4" stroke-opacity="1" stroke-width=".3" d="M-80 155a2 2 0 0 1-3 2 2 2 0 0 1-2-2 2 2 0 0 1 2-2 2 2 0 0 1 3 2z" opacity="1" vector-effect="none"/>
    <path id="path5314" fill="none" stroke="#000" stroke-linecap="butt" stroke-linejoin="miter" stroke-opacity="1" stroke-width=".3" d="M-104 175s4-10 9 0c0 0 4 10 8 0 0 0 4-10 9 0 0 0 3 10 8 0 0 0 4-10 9 0 0 0 3 10 8 0 0 0 4-10 8 0h2c-4-10-8 0-8 0-5 10-8 0-8 0-5-10-9 0-9 0-5 10-8 0-8 0-5-10-9 0-9 0-4 10-8 0-8 0-5-10-8 0-8 0-5 10-9 0-9 0-5-10-8 0-8 0-5 10-9 0-9 0h-2s4 10 9 0c0 0 3-10 8 0 0 0 4 10 8 0z"/>
    <path id="path5334" fill="none" stroke="#000" stroke-linecap="butt" stroke-linejoin="miter" stroke-opacity="1" stroke-width=".3" d="M-98 175s3-10 8 0c0 0 4 10 9 0 0 0 3-10 8 0 0 0 4 10 8 0 0 0 4-10 9 0 0 0 4 10 8 0 0 0 4-10 9 0h2c-5-10-9 0-9 0-4 10-8 0-8 0-5-10-9 0-9 0-4 10-8 0-8 0-5-10-8 0-8 0-5 10-9 0-9 0-5-10-8 0-8 0-5 10-9 0-9 0-4-10-8 0-8 0-5 10-8 0-8 0h-2s3 10 8 0c0 0 4-10 8 0 0 0 4 10 9 0z"/>
    <path id="path5372" fill="#9c59a0" fill-opacity="1" fill-rule="evenodd" stroke="none" stroke-dasharray="none" stroke-dashoffset="0" stroke-linecap="butt" stroke-linejoin="miter" stroke-miterlimit="4" stroke-opacity="1" stroke-width=".3" d="M-67 265a21 9 0 0 1-20 9 21 9 0 0 1-21-9 21 9 0 0 1 21-10 21 9 0 0 1 20 10z" opacity="1" vector-effect="none"/>
    <text xml:space="preserve" id="text5376" x="-99.8" y="267.2" fill="#000" fill-opacity="1" stroke="none" stroke-width=".3" font-family="Arial" font-size="8.5" font-stretch="normal" font-style="normal" font-variant="normal" font-weight="400" letter-spacing="0" style="line-height:1.25;-inkscape-font-specification:Arial;text-align:start" text-anchor="start" word-spacing="0"><tspan id="tspan5374" x="-99.8" y="267.2" stroke-width=".3">SOG1</tspan></text>
    <path id="path5378" fill="#3b3b7d" fill-opacity="1" fill-rule="evenodd" stroke="none" stroke-dasharray="none" stroke-dashoffset="0" stroke-linecap="butt" stroke-linejoin="miter" stroke-miterlimit="4" stroke-opacity="1" stroke-width=".3" d="M-93 255a2 2 0 0 1-2 2 2 2 0 0 1-3-2 2 2 0 0 1 3-2 2 2 0 0 1 2 2z" opacity="1" vector-effect="none"/>
    <path id="path5380" fill="#3b3b7d" fill-opacity="1" fill-rule="evenodd" stroke="none" stroke-dasharray="none" stroke-dashoffset="0" stroke-linecap="butt" stroke-linejoin="miter" stroke-miterlimit="4" stroke-opacity="1" stroke-width=".3" d="M-88 257a2 2 0 0 1-3 2 2 2 0 0 1-2-2 2 2 0 0 1 2-2 2 2 0 0 1 3 2z" opacity="1" vector-effect="none"/>
    <path id="path5382" fill="#3b3b7d" fill-opacity="1" fill-rule="evenodd" stroke="none" stroke-dasharray="none" stroke-dashoffset="0" stroke-linecap="butt" stroke-linejoin="miter" stroke-miterlimit="4" stroke-opacity="1" stroke-width=".3" d="M-80 255a2 2 0 0 1-3 2 2 2 0 0 1-2-2 2 2 0 0 1 2-3 2 2 0 0 1 3 3z" opacity="1" vector-effect="none"/>
    <path id="path5384" fill="none" stroke="#000" stroke-linecap="butt" stroke-linejoin="miter" stroke-opacity="1" stroke-width=".3" d="M-104 275s4-10 9 0c0 0 4 10 8 0 0 0 4-10 9 0 0 0 3 10 8 0 0 0 4-10 9 0 0 0 3 10 8 0 0 0 4-10 8 0h2c-4-10-8 0-8 0-5 10-8 0-8 0-5-10-9 0-9 0-5 10-8 0-8 0-5-10-9 0-9 0-4 10-8 0-8 0-5-10-8 0-8 0-5 10-9 0-9 0-5-10-8 0-8 0-5 10-9 0-9 0h-2s4 10 9 0c0 0 3-10 8 0 0 0 4 10 8 0z"/>
    <path id="path5386" fill="none" stroke="#000" stroke-linecap="butt" stroke-linejoin="miter" stroke-opacity="1" stroke-width=".3" d="M-98 275s3-10 8 0c0 0 4 10 9 0 0 0 3-10 8 0 0 0 4 10 8 0 0 0 4-10 9 0 0 0 4 10 8 0 0 0 4-10 9 0h2c-5-10-9 0-9 0-4 10-8 0-8 0-5-10-9 0-9 0-4 10-8 0-8 0-5-10-8 0-8 0-5 10-9 0-9 0-5-10-8 0-8 0-5 10-9 0-9 0-4-10-8 0-8 0-5 10-8 0-8 0h-2s3 10 8 0c0 0 4-10 8 0 0 0 4 10 9 0z"/>
    <path id="path5366" fill="#be1522" fill-opacity="1" stroke="none" stroke-linecap="butt" stroke-linejoin="miter" stroke-opacity="1" stroke-width=".3" d="m-104 248 32 31-3 3-32-32z"/>
    <path id="path5370" fill="#be1522" fill-opacity="1" stroke="none" stroke-linecap="butt" stroke-linejoin="miter" stroke-opacity="1" stroke-width=".3" d="m-75 248-32 31 3 3 32-32z"/>
    <path id="path5392" fill="none" stroke="#000" stroke-linecap="butt" stroke-linejoin="miter" stroke-opacity="1" stroke-width=".3" d="M-189 215s4 10 9 0c0 0 3-10 8 0"/>
    <path id="path5394" fill="none" stroke="#000" stroke-linecap="butt" stroke-linejoin="miter" stroke-opacity="1" stroke-width=".3" d="M-187 215s4 10 9 0c0 0 3-10 8 0"/>
    <path id="path5390" fill="#f9b233" fill-opacity="1" fill-rule="evenodd" stroke="none" stroke-dasharray="none" stroke-dashoffset="0" stroke-linecap="butt" stroke-linejoin="miter" stroke-miterlimit="4" stroke-opacity="1" stroke-width=".3" d="m-169 218-1-1-2 1v-2l-2-1 3-1v-2l1 2 3 1-2 1z" opacity="1" vector-effect="none"/>
    <path id="path5397" fill="#f9b233" fill-opacity="1" fill-rule="evenodd" stroke="none" stroke-dasharray="none" stroke-dashoffset="0" stroke-linecap="butt" stroke-linejoin="miter" stroke-miterlimit="4" stroke-opacity="1" stroke-width=".3" d="m-155 220-2-1-2 1 1-2-2-2h2l1-2 1 2h2l-1 2z" opacity="1" vector-effect="none"/>
    <ellipse id="path5399" cx="-88.2" cy="217" fill="#a04330" fill-opacity="1" fill-rule="evenodd" stroke="none" stroke-dasharray="none" stroke-dashoffset="0" stroke-linecap="butt" stroke-linejoin="miter" stroke-miterlimit="4" stroke-opacity="1" stroke-width=".3" opacity="1" rx="15.3" ry="11.5" vector-effect="none"/>
    <text xml:space="preserve" id="text5403" x="-99.6" y="220.4" fill="#fff" fill-opacity="1" stroke="none" stroke-width=".3" font-family="Arial" font-size="11.3" font-stretch="normal" font-style="normal" font-variant="normal" font-weight="400" letter-spacing="0" style="line-height:1.25;-inkscape-font-specification:Arial;text-align:start" text-anchor="start" word-spacing="0"><tspan id="tspan5401" x="-99.6" y="220.4" fill="#fff" stroke-width=".3" font-size="11.3">ATM</tspan></text>
  </g>
</svg>