<svg xmlns="http://www.w3.org/2000/svg" id="Germination_svg" viewBox="0 -1 655 120"><g id="germinationFourtyEightHoursOutlineSL"><path d="M620.83 0c-.41264.059179-2.929.53262-5.3086 1.0039-.0476-.68337-.23111-.62584-.75781.1543-.4215.084591-.79561.16379-1.1758.24219-.002-.077646-.009-.11158-.01-.19922-.003-.29988-.57533-.5479-3.125-.75391l-3.24 2.0527c1.2141.18342.74827 1.1913-2.1523 6.9512-1.9388 3.85-4.0811 6.9878-4.7617 6.9727-.68059-.01514-2.3633-1.5557-3.7383-3.4219-2.9707-4.0319-6.0869-5.9855-11.256-6.8789l-20.852 1.1992c-2.6053.60002-4.919 1.3069-6.4824 2.0859-4.62 2.3022-9.2817 6.5749-10.41 9.543-.54984 1.4462-1 5.5253-1 9.0645 0 6.0182-.14572 6.4331-2.25 6.3965-1.2375-.02153-3.825-.72288-5.75-1.5586s-5.525-1.3961-8-1.2441l-4.1973.25781-4.3633 8.4355 4.5801 5.3047c.2877-.14003.64833-.15625 1.1094-.15625 1.2179 0 2.9247.6172 3.793 1.3711.86831.75389 4.71 2.3963 8.5371 3.6504 2.66.87164 4.2357 1.4525 5.0195 1.8945l15.812 5.125-3.1074 3.7734.23242 1.998c.27163.30095.46154.48999.44336.51172l8.8203 9.8828 4.0898-.42578 2.1621-.69141c.4139-.18986.80141-.3291 1.168-.43164l1.6602-.61328.81641.85156.002.002.004.0039 1.0508 1.0977 3.0117 4.6406 2.2422 6.4492 5.7695 8.7891c1.0828 2.0765 3.4074 2.9566 6.1113 3.2324l-.93554.1543 2.2383-.0625c1.0654.03562 2.161-.0027 3.2539-.08984l9.6426-.26758c3.0726-.43013 4.4222-3.1241 6.6074-13.188 1.5859-7.3031 1.5905-8.246.0645-13.734-2.091-7.5208-2.0662-10.24.11133-12.148.9625-.84364 7.0924-4.0578 13.621-7.1426 7.6247-3.6027 13.079-6.8896 15.25-9.1914l3.0234-3.207 1.8594-4.1855c-.081-.94399.0548-3.4042.19336-5.7773.15079-.42768.24888-.8602.23242-1.2227-.0166-.36566-.061-.58094-.13085-.67188.1105-1.9527.19035-3.6094.0684-3.6094-.0778 0-.15597.07298-.23437.17383.0155-.21889.035-.44505.0293-.62891-.007-.22872-.0603-.24043-.12696-.17383l-1.6406-2.2305-2.459-.93359c-3.5678-1.3565-7.9229-1.2172-11.717.375-1.7698.74278-5.1899 3.3303-7.5996 5.75-2.588 2.5987-4.0685 3.5818-3.6172 2.4004 1.2745-3.3361 1.7878-17.794.76367-21.512l-.93-3.4213z" fill="#000000" id="germinationFourtyEightHoursOutlineSL" stroke="#000000" stroke-miterlimit="10" stroke-width=".5"/></g><g id="germinationFourtyEightHoursFillSL"><path d="M615.52 1.0039c2.382.22852 4.9073.56174 5.1816 1.2832 2.3288 6.1253 2.2042 18.613-.18555 18.613-.55294 0-.75174-.9653-.44336-2.1445.31643-1.21.18485-1.7546-.30078-1.25-1.4389 1.495-1.6432 4.9177-.27734 4.6445 1.7779-.35558 1.5798 1.0756-1.2656 9.1289-2.3047 6.5229-2.3451 6.9111-.48633 4.6211 1.6593-2.0443 1.909-2.1354 1.375-.5-.35917 1.1.86497.07463 2.7207-2.2773 1.8558-2.352 5.0694-5.4494 7.1406-6.8848 2.0712-1.4353 3.7656-3.084 3.7656-3.6621s-1.4606.27132-3.2461 1.8867l-3.2461 2.9375 2.4961-2.8789c1.373-1.5834 3.945-3.4959 5.7148-4.25 4.3472-1.8523 10.714-1.7584 12.324.18164 1.8695 2.2526 1.4948 9.7259-.67383 13.42-2.3828 4.0588-11.659 10.155-21.738 14.289-8.9276 3.6617-12.631 6.5892-12.631 9.9805 0 1.2857.675 4.9283 1.5 8.0957s1.501 6.7503 1.502 7.9609c.006 4.64-3.3897 16.306-5.3984 18.547l-6.4141 1.0508c-4.07-.20613-8.7492-.88012-10.43-2.7402-3.5341-3.9118-9.8172-15.22-9.6894-17.438.0386-.67105.4216-.31875.85156.78125.75042 1.9198.81185 1.906 1.5215-.32617.95159-2.9932-.0184-3.9194-2.4883-2.377-1.596.99675-1.9551.95868-1.9551-.20508 0-.78383-.5625-1.6523-1.25-1.9297-.74674-.30132-.54544-.53682.5-.58398.9625-.04342 1.7462-.41562 1.7422-.82812-.0128-1.2354-4.9376-3.1485-5.5508-2.1562-.30783.49808-1.2336.90625-2.0586.90625-.87918 0-1.2053-.47761-.78711-1.1543.44563-.72104.27419-.88356-.45703-.43164-.644.39798-.94331 1.0931-.66406 1.5449.27925.45184-.57127 1.53-1.8906 2.3945-3.2135 2.1056-4.2742-.23491-1.4707-3.2441 1.9634-2.1075 1.9617-2.1094-.51563-2.1094-1.364 0-2.7577.45-3.0976 1-.33992.55-1.0914 1-1.6699 1-.57847 0 .0102-.8851 1.3086-1.9668s1.888-1.9817 1.3106-2c-.5775-.0183-1.5007.41864-2.0527.9707-.67166.67166-1.6488.5276-2.9512-.43359-1.6574-1.2233-1.7387-1.6321-.54883-2.7539 1.1676-1.1009 1.3045-1.0475.82617.32031-.43651 1.2483-.10064 1.5124 1.418 1.1152 1.3299-.34778 1.6593-.85242.99024-1.5215-.66907-.66907-.52165-1.4823.44336-2.4473 1.9144-1.9144 1.1406-2.9257-2.8125-3.6758-1.7936-.34032-4.3867-1.1965-5.7617-1.9023-1.375-.70581-6.55-2.5868-11.5-4.1816s-9.675-3.4562-10.5-4.1348c-.825-.67857-2.722-1.5376-4.2148-1.9102-1.4928-.37253-2.976-1.5047-3.2969-2.5156-1.2704-4.0028 4.7577-8.6646 7.8672-6.084.73096.60664 1.6481.78354 2.0391.39258.39097-.39096.44408-.01395.11719.83789-.44352 1.1558.49472 1.8715 3.6973 2.8223 2.3603.7007 4.9275 1.7912 5.7051 2.4219 1.1796.95684 1.238.8153.34961-.85352-.92069-1.7295-.74239-2.0202 1.3281-2.1445 1.3597-.08166 2.13.28538 1.7812.84961-.33774.54646.4117.44473 1.666-.22656 2.0246-1.0835 2.0946-1.3238.62109-2.1484-.91294-.51091-1.6544-1.6957-1.6484-2.6309.008-1.203.76005-.74863 2.5723 1.5508 1.4731 1.8691 3.486 3.2568 4.7383 3.2656 1.7425.01225 1.8821.20199.69727.95117-.96515.61029.49343.73127 4.1914.34961 3.93-.40562 7.2092-.08311 10.67 1.0488 2.7475.89868 5.6613 1.6348 6.4746 1.6348.81333 0 1.6272.44632 1.8105.99219.45511 1.3551 10.756 3.9412 11.42 2.8672 1.0465-1.6933 2.4141-.81658 2.4141 1.5469 0 1.9949.38072 2.3064 2.2246 1.8242 1.2233-.3199 1.6733-.7658 1-.99024-.67332-.22444-1.2246-.84619-1.2246-1.3828 0-.53663.3375-.76666.75-.51172s.78843-.50643.83593-1.6914.42047-2.9078.82813-3.8281c1.0049-2.2686-3.059-4.6308-4.7715-2.7734-.87729.95156-.81666 1.0546.26172.43945.91103-.51971 1.1667-.41799.72852.29102-.37155.60118.12163 1.5579 1.0957 2.125.97407.56708 1.2936 1.0438.70899 1.0605-.5846.01673-2.3315-1.293-3.8809-2.9102-3.0831-3.2181-2.906-6.0586.37695-6.0586 2.0813 0 4.5025-3.2319 3.3125-4.4219-.37639-.37639.0275-.4104.89844-.07617 1.8555.71203 11.02-3.4295 11.613-5.248.22343-.68486-.88268-2.5331-2.457-4.1074l-2.8613-2.8613 3.418-6.2305c2.4755-4.5113 3.6603-5.8607 4.2988-4.8926.70303 1.0659 1.1823.9444 2.3633-.60352.54698-.71693 1.0042-1.6515 1.2559-2.4551z" fill="#ffffff" id="germinationFourthEightHoursFillSL" stroke="#000000" stroke-miterlimit="10" stroke-width=".5"/></g><g id="germinationFourtyEightHoursFillTopSL"><path d="M578.39 6.6743c6.83.037039 12.123 1.8654 14 5.166.87127 1.5321 1.9476 2.7895 2.3926 2.793.44497.0035.48814.52518.0957 1.1602-.42587.68907-.27477.88475.37305.48438 1.9619-1.2125 2.3357 1.2431.67773 4.4492-.89481 1.7304-1.419 3.9431-1.1641 4.918.73343 2.8047-.9509 4.4941-4.4824 4.4941-1.3172 0-2.2075.15109-2.9102.5957l1.1035 2.7695c.18227-.25847.36864-.42964.5332-.46875.10159-.02414.19451-.000794.27149.07617.25625.25625.0693.85567-.38867 1.4414l2.0859 5.2383c.3847.17456.77041.48248.9961.84766.23892.38658.0945.72048-.30664.88672l.36132.90625-4.6973-.61719c-.0159.39168-.0749.77583-.19531 1.0742-.27073.67093-.48945.13737-.5-1.166l-.79493-.10352-8.4883-3.209c-.0383.07566-.0806.12286-.1289.09766-2.1241-1.1097-9.9118-2.5748-12-2.2578-1.5782.23957-2.75-.05005-2.75-.67773 0-.68091-1.0705-.85845-2.8359-.4707-1.9628.43111-3.5144.07143-5.041-1.1699-2.202-1.7905-2.2025-1.7961-.19921-3.5039 1.1036-.9408 2.2625-1.2973 2.5742-.79297.31166.50428 1.2258.66334 2.0332.35352.80738-.30982 1.4688-.06588 1.4688.54297 0 .60884.7875 1.1146 1.75 1.123 1.3402.01173 1.4375.21186.41601.85938-1.0739.68077-1.0252.96378.25 1.4531 1.0938.41972 1.584.0348 1.584-1.2441 0-1.0186-.90164-2.0868-2.0039-2.375-1.4512-.37951-1.8179-1.033-1.3301-2.3672.65149-1.7818.60558-1.7827-1.3965-.02734-1.1959 1.0485-2.3251 1.4048-2.6719.84375-.70589-1.1422-4.5976-.33214-4.5976.95703 0 .48585-.59641.88477-1.3262.88477-.89884 0-1.2187-1.0483-.99219-3.25.27211-2.6447.15919-2.8775-.60352-1.25-.77502 1.6537-.94971 1.3381-1.0078-1.8184-.0611-3.3205.17922-3.7379 1.8457-3.209 1.0537.33444 2.2029.1442 2.5527-.42188.38727-.62662-.069-.80138-1.166-.44726-1.2875.41559-1.089-.04008.69727-1.5977 1.375-1.1989 1.9678-1.9079 1.3184-1.5762-.6495.3317-1.5063.07559-1.9043-.56836-.44171-.7147-.2912-.90336.38672-.48438.61619.38083 1.8529-.44648 2.7773-1.8574 1.9384-2.9583 5.7958-4.8197 13.248-6.3945 3.5633-.75299 6.9853-1.1067 10.09-1.0898z" fill="#ffffff" id="germinationFourtyEightHoursFillTopSL" stroke="#000000" stroke-miterlimit="10" stroke-width=".5"/></g><g id="germinationFourtyEightHoursFillTopSmallBitSL"><path d="M600.35 17.576c2.6638 0 6.3333 3.2816 5.3848 4.8164-.32075.51899-1.602 1.1656-2.8477 1.4355-1.2456.26994-3.0531.82199-4.0156 1.2266-1.7746.74593-2.5324-.87822-.88477-1.8965.47622-.29433.65013-1.6705.38477-3.0586-.41016-2.1456-.11417-2.5234 1.9785-2.5234z" fill="#ffffff" id="germinationFourtyEightHoursFillTopSmallBitSL" stroke="#000000" stroke-miterlimit="10" stroke-width=".5"/></g><g id="germinationTwentyFourHoursOutlineSL"><path d="M462.75 19.834c-.51637-.02349-1.0729.047-1.7363.17969-1.6901.33802-3.6433 1.3931-4.3398 2.3457-2.0853 2.8519-2.7973 13.493-1.1641 17.402.77966 1.866 1.7482 5.5978 2.1524 8.293 1.2003 8.0043 5.6143 12.663 12.562 13.262 1.925.16577 5.3.72697 7.5 1.2461s7.4279.82198 11.617.67383c8.9368-.31606 14.473-2.9839 20.283-9.7715 4.0159-4.6916 5.1433-8.8603 4.2188-15.605-.84465-6.1624-2.6033-8.5685-8.2637-11.309-7.5981-3.6782-14.626-3.6842-29.723-.02539-3.6978.89621-4.0389.76013-7.8184-3.0957-2.5598-2.6115-3.74-3.5252-5.2891-3.5957z" fill="#000000" id="germinationTwentyFourHoursOutlineSL" stroke="#000000" stroke-miterlimit="10" stroke-width=".5"/></g><g id="germinationSixHoursOutlineSL"><path d="M353.43 26.185c-.16429 0-1.9101.31455-3.8555.70508.0911-.02594.1716-.06237.26563-.08398.61875-.14222.464-.22152-.28516-.23438s-2.0923.04135-3.8477.16406c-12.171.85083-19.118 7.1538-19.115 17.346.002 8.4161 2.2143 11.945 9.998 15.941 6.3368 3.2536 6.7511 3.3266 16.5 2.916 6.711-.28264 10.987-.96196 13-2.0645 13.781-7.5465 15.445-21.372 3.5957-29.869-.49584-.35557-1.0683-.67544-1.6641-.97461l-.002-.002c-.0624-.21212-1.0993-.59232-2.5176-1.0254-.23216-.07488-.45169-.14018-.67774-.20312-3.9976-1.1628-10.445-2.6152-11.395-2.6152z" fill="#000000" id="germinationSixHoursOutlineSL" stroke="#000000" stroke-miterlimit="10" stroke-width=".5"/></g><g id="germinationTwelveHourOutlineSL"><path d="M416.19 26.424c-9.071-.20318-18.749 3.1135-23.732 8.752-3.0271 3.4247-3.3003 4.2829-3.2715 10.238.021 4.3436.61234 7.4952 1.7852 9.5 2.327 3.9776 9.6727 8.4176 15.721 9.5039 11.692 2.1001 25.584-1.086 31.033-7.1191 8.3098-9.2005 1.5559-24.666-12.863-29.455-2.6928-.8944-5.6482-1.3522-8.6719-1.4199z" fill="#000000" id="germinationTwelveHourOutlineSL" stroke="#000000" stroke-miterlimit="10" stroke-width=".5"/></g><g id="germinationFourtyEightHourOutlineS"><path d="M242.91 28.726l-10.062.0957c-11.609.11194-17.331 1.8153-21.799 6.4902-3.772 3.9471-6.0583 9.3445-4.9394 11.658.46669.96511 1.7096 3.5184 2.7617 5.6738 2.1865 4.4795 5.3209 7.0772 10.971 9.0898 7.4084 2.6391 23.414 1.3731 23.457-1.8555.01-.73786.31604-.67586.85352.17188.67603 1.0663 1.4433.95516 3.9453-.56641 5.1924-3.1577 7.9078-7.5137 8.7578-14.057.61737-4.7521-1.5908-8.1935-8.1641-12.721z" fill="#000000" id="germinationFourtyEightHourOutlineS" stroke="#000000" stroke-miterlimit="10" stroke-width=".5"/></g><g id="germinationTwentyFourHourFillSL"><path d="M460.25 23.913c.72471-.02393 1.6874.84485 3.1777 2.7988 1.7484 2.2923 3.5672 3.5859 5.0469 3.5859 1.4421 0 2.5562.75874 2.9551 2.0156.88546 2.7898 7.3042 5.8415 13.67 6.498 9.8545 1.0164 14.824 1.1167 14.824.29883 0-.44711-1.2375-.88528-2.75-.97461-8.6699-.51203-10.576-.69858-13.037-1.2734-4.2316-.98833-9.2129-3.8822-9.2129-5.3516 0-.73239.45-1.0528 1-.71289.55.33992 1 .20346 1-.30273s1.125-.70621 2.5-.44336c1.9412.37108 2.5037.06067 2.5156-1.3887.0111-1.3532.23927-1.5105.83203-.57617.61627.97134 1.4916 1.0329 3.5508.25 4.0745-1.5491 7.0886-1.2649 9.0039.85156 1.5953 1.7628 5.5977 1.8777 5.5977.16016 0-1.2647 3.6719-.49618 6.5098 1.3633 1.6883 1.1062 2.2258 1.7012 1.8691 2.2422l.84961 1.8867.51758 3.1133-.19531 3.5117c.26442.161.44922.4188.44922.72461 0 .30282-.20606.60008-.50782.86133l-.0332 1.3555-.8457 1.0332c.29755.21709-.0331.75888-1.0274 2.1074-.91231 1.2375-1.9252 3.056-2.25 4.041-.3248.98499-1.0954 1.6162-1.7129 1.4023-.61748-.21384-2.1355.69008-3.373 2.0098-1.9616 2.0919-2.2572 2.1683-2.3125.59766-.0496-1.4087-.26641-1.296-.99219.51367-.51048 1.2728-1.4017 2.0217-1.9805 1.6641-.57874-.35768-1.7246-.09254-2.5469.58984-1.6602 1.3778-15.418 2.4044-15.418 1.1504 0-.43605-.97862-.867-2.1738-.95703s-3.1077-1.1489-4.25-2.3516-1.544-1.8909-.89453-1.5312c.6495.35966 1.4631.19569 1.8086-.36328.34546-.55897 1.3315-1.0156 2.1914-1.0156 1.232 0 1.3148.29902.39258 1.4102-.95084 1.1457-.64436 1.506 1.6289 1.9258 3.8505.71103 6.3095.49303 5.6934-.50391-.28346-.45833-1.4638-.83203-2.623-.83203s-1.8288-.27866-1.4883-.61914c.34048-.34048-.042-1.2822-.85156-2.0918-1.1569-1.1569-2.1158-1.2462-4.4805-.42187-3.7574 1.3098-5.8429.55026-7.0234-2.5547-.50566-1.33-2.2676-2.8836-3.9238-3.4609-2.3409-.81604-3.0059-1.6455-3.0059-3.75 0-1.4862-.38562-3.1298-.85743-3.6523-1.1303-1.2523.11697-13.109 1.5274-14.52.19972-.19972.41468-.30648.65625-.31445z" fill="#ffffff" id="germinationTwentyFourHourFillSL" stroke="#000000" stroke-miterlimit="10" stroke-width=".5"/></g><g id="germinationHOutline"><path d="M27.019 35.833c-11.364 0-26.157 9.4518-24.617 15.73.86838 3.5414 1.8532 4.4544 8.5469 7.9102 12.193 6.2947 32.701 2.9924 35.107-5.6523.02712-.09745.05339-.11724.08008-.16797l1.0352-5.3047-.81836-1.793c-.10674.16903-.22871.10055-.36328-.22266-2.389-5.7379-10.993-10.5-18.971-10.5z" fill="#000000" id="germinationHOutline" stroke="#000000" stroke-miterlimit="10" stroke-width=".5"/></g><g id="germinationZeroHOutlineS"><path d="M75.824 34.52c-10.146.01976-14.075 1.1115-18.75 5.2109-.05875.05151-.10136.07195-.15625.11719l-2.9707 8.7461 2.2754 8.1465 5.1387 2.5488c5.2704 2.6123 7.1444 2.9987 14.75 3.043 7.1711.04171 9.5705-.36642 13.561-2.3008 11.174-5.4173 11.757-16.931 1.1523-22.775-4.5288-2.4961-5.9423-2.754-15-2.7363z" fill="#000000" id="germinationZeroHOutlineS" stroke="#000000" stroke-miterlimit="10" stroke-width=".5"/></g><g id="germinationOneHourS"><path d="M123.02 34.173c-9.3826.16256-15.639 3.2461-18.633 9.1836-3.6697 7.2772-3.1501 9.4018 3.3144 13.537 3.0607 1.9579 7.2232 3.951 9.25 4.4297 6.1508 1.4528 19.434 1.2064 24.299-.45117 8.4772-2.8885 13.149-15.21 7.6367-20.141-4.241-3.7933-15.832-6.7325-25.867-6.5586z" fill="#000000" id="germinationOneHourS" stroke="#000000" stroke-miterlimit="10" stroke-width=".5"/></g><g id="germinationTwelveHourSL"><path d="M416.19 26.424c2.6123.0226 4.8255.36005 4.4336.99414-.33992.55-.14106 1 .4414 1s1.0662-.5625 1.0742-1.25c.0102-.83333.33813-.75.98438.25.53316.825.97637 1.1512.98437.72461.0299-1.515 5.578 2.1797 9.6777 6.4453 5.0357 5.2394 6.8982 10.844 4.8926 14.723-2.13 4.1189-10.029 9.2786-14.477 9.4551-2.484.09858-3.6636.56529-3.3691 1.334.32284.84278-1.3204 1.1301-5.7207 1-3.396-.10044-6.3528-.46821-6.5703-.81836s-2.0094-.93881-3.9805-1.3086-5.0123-1.5439-6.7598-2.6094c-3.1241-1.9049-3.136-1.9396-.67773-2.0449 1.9879-.08515 1.7369-.31095-1.2227-1.0977-3.1806-.84544-3.8165-1.4957-4.375-4.4727-.36565-1.9491-.1571-4.571.47266-5.9531 1.4461-3.1738 1.4341-4.6857-.0293-3.7812-.72104.44563-.88356.2742-.43164-.45703.39798-.64395 1.0524-.96838 1.4531-.7207.40076.24768 1.381.03654 2.1797-.46875 1.2519-.79191 1.2545-.92039.0156-.93359-2.7548-.02935 3.9498-5.7041 8.2363-6.9707 2.3104-.68268 4.9824-1.6462 5.9375-2.1426 1.2064-.62705 4.2178-.91909 6.8301-.89648z" fill="#ffffff" id="germinationTwelveHourSL" stroke="#000000" stroke-miterlimit="10" stroke-width=".5"/></g><g id="germinationTwelveHourOutlineS"><path d="M183.83 31.829l-14.232.04297c-4.7591 2.1254-13.404 6.189-14.598 12.561-1.265 6.7551 4.9365 14.85 14.441 18.85 11.189 4.7079 25.673 1.916 30.607-5.9004 3.0441-4.8221 3.9656-10.506 2.2324-13.762-2.8712-5.393-7.3904-9.9234-10.865-10.889-1.4568-.40468-4.0733-.67285-6.8652-.83008-.23429-.02525-.48471-.04728-.72071-.07227z" fill="#000000" id="germinationTwelveHourOutlineS" stroke="#000000" stroke-miterlimit="10" stroke-width=".5"/></g><g id="germinationFourtyEightHoursFillS"><path d="M230.17 29.741c.38667.01554.9611.12518 1.7383.32617 1.5942.4123 4.7868.88301 7.0957 1.0449 4.907.3441 12.876 5.2552 12.666 7.8066-.0754.91732.2621 1.4207.75 1.1191.48791-.30154.9373-.18324 1 .26172.68405 4.8536.54784 6.3442-.67774 7.3613-.78916.65494-1.4355 1.7814-1.4355 2.502 0 .72059-.98468 1.6221-2.1875 2.0039-2.1115.67017-2.1219.74245-.3086 2.0684 1.0329.7553 1.3204 1.373.63867 1.373-.68168 0-3.0374.86821-5.2344 1.9297-4.9815 2.4068-9.9082 3.5401-9.9082 2.2793 0-.52222 2.0362-1.5199 4.5254-2.2168 2.4892-.69693 4.813-1.7308 5.1641-2.2988.41201-.66665-.0399-.75464-1.2754-.24609-2.2024.90655-5.0351 1.3377-11.498 1.748-5.0535.32083-6.6033 2.8047-1.75 2.8047 1.5583 0 2.834.45 2.834 1s-.1125.92786-.25.83984-1.7104-.3408-3.4961-.5625c-2.4376-.30262-3.4002-1.0122-3.8594-2.8418-.42718-1.702-1.3077-2.4355-2.9199-2.4355-1.2696 0-2.5084-.5625-2.7539-1.25-.24554-.6875-.78735-.93514-1.2031-.54883-.98035.91091 2.0152 3.9163 3.5547 3.5664.64821-.14732 1.3846.29492 1.6367.98242.78891 2.1516-3.0127 1.3186-7.2031-1.5781-2.1972-1.5189-4.1633-3.6415-4.3672-4.7168s-.69828-2.1801-1.0996-2.4551c-1.1035-.75616-2.085-8.1461-.99219-7.4707.51112.31589.67863-.08139.3711-.88281-.30976-.80721.70825-2.876 2.2832-4.6387 2.0918-2.3412 3.8294-3.2483 6.5742-3.4316 2.0518-.13707 4.0295-.54708 4.3945-.91211.36503-.36503 2.1908-.66406 4.0566-.66406 2.2933 0 3.162-.37049 2.6836-1.1445-.31622-.51165-.19133-.74855.45313-.72266z" fill="#ffffff" id="germinationFourtyEightHoursFillS" stroke="#000000" stroke-miterlimit="10" stroke-width=".5"/></g><g id="germinationSixHourSLFill"><path d="M355.04 29.224c.3984-.01757.84699.24083 1.123.6875.19541.31618 3.3894.62885 6.4355.81055.33456.08014.68493.13867 1.041.13867 2.3404 0 5.4422 2.7626 6.6445 5.3672l.95508.85156.88476 1.8105c-.0314-.11977-.0725-.23755-.13671-.34961-.37215-.6495-.30721-.84494.14453-.43555.45174.4094.92085 1.9844 1.041 3.5.12017 1.5156.54533 4.3756.94532 6.3555.65305 3.2338.38632 3.9203-2.6289 6.748-4.9322 4.6256-9.3502 6.3642-17.281 6.8027-10.531.58225-19.292-3.2171-23.641-10.254-1.5968-2.5836-2.2835-6.2212-1.7188-7.709l.0899-1.6289.32422-.79297c.0402-.428.33579-1.2354.88671-2.3008 1.2998-2.5135 1.8899-2.9388 2.584-1.8613.71912 1.1163 1.0084.99624 1.4512-.60352.31349-1.1326 2.4819-2.8566 5-3.9746 1.9781-.87822 3.6514-1.9215 4.2305-2.5898.3034.05871.74415.09309 1.2539.11523.67257 1.0261.93639 1.0723.94726.14062.00054-.04832.019-.07848.0234-.12305 3.3762.02631 8.7123-.39708 9.0273-.5918.11359-.0702.24025-.10742.37305-.11328z" fill="#ffffff" id="germinationSixHourSLFill" stroke="#000000" stroke-miterlimit="10" stroke-width=".5"/></g><g id="germinationZeroHourFillS"><path d="M77.657 36.582c.08975.0091.13956.26421.16992.76758.04342.71998.50095 1.0478 1.0176.72852 1.3274-.82038 9.0605.53648 9.0605 1.5898 0 .04854-.02058.09551-.04492.14258l1.9102 1.2148c.73254.04794 1.5072.36286 2.375.9707 1.4766 1.0342 1.8987 1.3758 1.377 1.5293l.44336 1.7129c.38073.34997.71268.90382 1.084 1.7188 1.0398 2.2821.91227 2.8809-.97656 4.6406-1.1929 1.1113-2.168 2.6788-2.168 3.4824 0 .80358-.5625 1.5295-1.25 1.6133-2.3644.28811-3.2568.5377-6.1797 1.7344-4.2638 1.7457-10.837 2.3592-12.57 1.1719-1.2384-.84848-1.2536-1.0303-.08398-1.043.77917-.0084 1.1791-.25453.88867-.54492-.29039-.29039-1.7822-.05012-3.3164.5332-2.3359.88811-3.1414.7294-4.9531-.97266-1.19-1.1179-2.9555-2.0312-3.9219-2.0312-1.9504 0-2.4844-1.0523-2.4844-2.7129 0-.58929-1.4198-2.2871-.55273-2.2871 1.2199 0 1.5119-.90186 1.2891-3.9883-.3247-4.4971.23928-5.2737 4.9961-6.8633 2.975-.99416 3.215-.94713 2.0918.40625-.90182 1.0866-.95791 1.839-.19727 2.5996 1.6563 1.6563 3.4784-.08713 2.8223-2.7012-.44906-1.7892-.17912-2.3128 1.168-2.2578.96444.0394 2.6152-.29052 3.668-.73242 1.3537-.56823 1.7028-.46023 1.1914.36719-.42729.69137-.12009 1.1699.75195 1.1699.81163 0 1.7031-.5625 1.9805-1.25.19396-.48067.32431-.71807.41406-.70898z" fill="#ffffff" id="germinationZeroHourFillS" stroke="#000000" stroke-miterlimit="10" stroke-width=".5"/></g><g id="germinationHFill"><path d="M25.323 38.735c7.8786-.27367 17.805 6.4591 17.805 12.533 0 3.3412-2.0102 5.1903-8.0684 7.4219-7.0101 2.5822-13.219 2.9493-14.746.87109-.69292-.94306-.99202-1.1523-.66406-.46484 1.0235 2.1455-1.3645 1.3769-5.7793-1.8594l-4.2422-3.1094 3.25.68945c4.1376.87663 8.916-.15041 8.916-1.916.000002-1.0507-.51584-1.1252-2.2695-.32617-1.2483.56874-2.9879.75732-3.8672.41992-1.4503-.55653-1.4402-.85657.11523-3.2305.94299-1.4392 2.6465-2.9923 3.7852-3.4531 1.6598-.67177 1.7294-.85152.35156-.90234-1.2008-.04429-1.5287-.58978-1.0879-1.8125.40301-1.1179-.30305-.7666-1.957.97266-1.424 1.4974-2.7363 3.7124-2.9141 4.9219-.17773 1.2095-.89358 2.3872-1.5918 2.6172-1.0082.3321-1.0266-.11558-.08789-2.1758 1.4503-3.1831.71108-4.1131-2.084-2.6172-1.2517.66989-1.8209 1.6195-1.3945 2.3301.4193.69877.002.61813-.99805-.19336-1.6095-1.306-1.611-1.5087-.03516-3.25 2.2848-2.5247 10.951-6.483 16.02-7.3164.50348-.08278 1.0197-.13214 1.5449-.15039z" fill="#ffffff" id="germinationHFill" stroke="#000000" stroke-miterlimit="10" stroke-width=".5"/></g><g id="germinationTwelveHourFillS"><path d="M175.47 33.969c.74085.07039 1.6661.12871 2.6035.19336.14443.81832.49788 1.4004.91407 1.4004.8098 0 1.0886-.45006.85156-1.2871.94233.05626 1.7418.11448 2.7031.16211.13578.07326.28321.125.44532.125.20663 0 .38897-.03412.54883-.08203 3.5423.16438 6.7782.2693 7.0391.23047.59886-.08914 1.9074.73999 2.9062 1.8438 1.9975 2.2072 1.4197 2.5676-1.5606.97266-1.356-.72571-1.9336-.71431-1.9336.04101 0 2.0604 2.41 3.6378 4.9473 3.2383 2.0219-.31834 2.2407-.17977 1.0527.66211-1.246.88298-1.1261 1.0654.71093 1.0781 1.7335.012 2.448.89035 3.3027 4.0645 1.1131 4.1338.59487 7.9512-1.0801 7.9512-.51293 0-.93359.60399-.93359 1.3438 0 1.2396-4.0272 5.6479-4.3555 4.7676-.0798-.21388-2.3477.61485-5.041 1.8418-3.4023 1.5499-5.8441 2.0372-8 1.5977-1.7067-.34798-3.891-.7112-4.8535-.80664s-1.75-.55298-1.75-1.0176c0-.4646-.43709-.57589-.97071-.24609-1.5738.97268-10.961-3.4952-10.402-4.9512.29022-.7563-.52951-1.5396-1.998-1.9082-2.7828-.69844-3.8168-4.0175-2.1582-6.9277.79144-1.3887.63438-2.0286-.67969-2.7754-.94547-.53734-1.4555-1.6298-1.1426-2.4453.79534-2.0726 2.1033-1.8302 2.8516.52734.96869 3.0521 2.7462 2.4118 2.082-.75-.31772-1.5125-.22952-3.2896.19726-3.9492 1.3746-2.1247 9.4824-5.2321 11.223-4.3008.98735.52842 1.7402.35852 2.4805-.59375z" fill="#ffffff" id="germinationTwelveHourFillS" stroke="#000000" stroke-miterlimit="10" stroke-width=".5"/></g><g id="germinationOneHourSFill"><path d="M122.13 36.778c4.2374-.01879 9.3214.59206 14.197 1.8379 8.122 2.0752 9.0903 2.5825 10.811 5.6738 2.1733 3.9055 1.4598 6.8007-2.8125 11.408-2.9098 3.138-3.6063 3.381-2.7188.94727.55654-1.5261.34822-1.4967-1.623.23633-1.8982 1.6688-3.969 2.0336-12.92 2.2773-10.688.29105-14.158-.49843-14.158-3.2246 0-.749-.7875-1.2358-1.75-1.0801-.96249.1557-2.225-.08967-2.8047-.54688-1.4485-1.1425-.54436-7.9121 1.0566-7.9121.70598 0 1.5676-.73978 1.914-1.6426.47095-1.2273.30913-1.3863-.64258-.63477-.70008.55282-2.0359.99131-2.9687.97461-1.3512-.02419-1.4913-.41434-.68554-1.9199.55627-1.0394 1.7707-2.1588 2.6973-2.4863.92652-.32753 2.4061-1.2121 3.2891-1.9668 1.4906-1.2741 4.8818-1.9226 9.1191-1.9414z" fill="#ffffff" id="germinationOneHourSFill" stroke="#000000" stroke-miterlimit="10" stroke-width=".5"/></g><g id="germinationOneHourOutlineSL"><path d="M301.04 28.532l-10.062.0957c-11.609.11194-17.331 1.8153-21.799 6.4902-3.772 3.9471-6.0583 9.3445-4.9394 11.658.46669.96511 1.7096 3.5184 2.7617 5.6738 2.1865 4.4795 5.3209 7.0772 10.971 9.0898 7.4084 2.6391 23.414 1.3731 23.457-1.8555.01-.73786.31604-.67586.85352.17188.67603 1.0663 1.4433.95516 3.9453-.56641 5.1924-3.1577 7.9078-7.5137 8.7578-14.057.61737-4.7521-1.5908-8.1935-8.1641-12.721z" fill="#000000" id="germinationOneHourOutlineSL" stroke="#000000" stroke-miterlimit="10" stroke-width=".5"/></g><g id="germinationOneHourFillSL"><path d="M290.81 30.041c.37646-.01695.80035.2323 1.0612.66316.18465.30499 3.2027.60658 6.0811.78184.31613.0773.64721.13376.98369.13376 2.2115 0 5.1424 2.6648 6.2786 5.1771l.90248.82141.83603 1.7464c-.0297-.11553-.0685-.22914-.12918-.33723-.35165-.6265-.29029-.81502.13657-.42012s.87014 1.9141.98368 3.3761c.11355 1.4619.5153 4.2206.89326 6.1304.61709 3.1193.36505 3.7815-2.4841 6.5091-4.6606 4.4618-8.8353 6.1389-16.33 6.5618-9.9514.56163-18.229-3.1032-22.339-9.8908-1.5088-2.4921-2.1577-6.0009-1.6241-7.436l.0849-1.5712.30636-.76489c.038-.41284.3173-1.1916.83788-2.2193 1.2282-2.4245 1.7858-2.8347 2.4417-1.7954.67951 1.0768.95286.96096 1.3712-.58214.29622-1.0925 2.3452-2.7555 4.7246-3.8339 1.8691-.84712 3.4503-1.8535 3.9975-2.4981.28669.05663.70317.08979 1.1849.11115.63553.98973.88482 1.0344.89509.13564.00051-.04661.018-.0757.0221-.11869 3.1903.02538 8.2325-.38301 8.5302-.57084.10734-.06771.22702-.10362.35251-.10927z" fill="#ffffff" id="germinationOneHourFillSL" stroke="#000000" stroke-miterlimit="10" stroke-width=".95471"/></g><g id="outlines"><path id="rect3751" stroke-width=".96413" d="M48.161 99.589h604.11v18.785H48.161z"/><path id="rect3755" stroke-width="1.0409" fill="#fff" d="M261.12 101.39h388.22v14.58H261.12z"/><path id="rect3761" d="M48.161.34277h1.3188v118.03H48.161z"/><path id="rect3761-0" d="M259.54-.48078h1.3188v118.03H259.54z"/><text id="text3780" style="font-variant-numeric:normal;font-variant-ligatures:normal;font-feature-settings:normal;font-variant-caps:normal;line-height:1.25" x="51.578945" y="94.02697" word-spacing="0" font-size="16" font-family="sans-serif" letter-spacing="0"><tspan id="tspan3778" x="51.578945" y="94.02697">Stratification</tspan></text><text id="text3780-9" style="font-variant-numeric:normal;font-variant-ligatures:normal;font-feature-settings:normal;font-variant-caps:normal;line-height:1.25" x="263.54544" y="92.65464" word-spacing="0" font-size="16" font-family="sans-serif" letter-spacing="0"><tspan id="tspan3778-9" x="263.54544" y="92.65464">Light</tspan></text><text id="text3810" style="font-variant-numeric:normal;font-variant-ligatures:normal;font-feature-settings:normal;font-variant-caps:normal;line-height:1.25" x="61.578945" y="114.02698" word-spacing="0" font-size="12" font-family="sans-serif" fill="#fff" letter-spacing="0"><tspan id="tspan3808" x="61.578945" y="114.02698">0h </tspan></text><text id="text3810-2" style="font-variant-numeric:normal;font-variant-ligatures:normal;font-feature-settings:normal;font-variant-caps:normal;line-height:1.25" x="118.82355" y="113.7579" word-spacing="0" font-size="12" font-family="sans-serif" fill="#fff" letter-spacing="0"><tspan id="tspan3808-5" x="118.82355" y="113.7579">1h </tspan></text><text id="text3810-7" style="font-variant-numeric:normal;font-variant-ligatures:normal;font-feature-settings:normal;font-variant-caps:normal;line-height:1.25" x="167.24461" y="112.70528" word-spacing="0" font-size="12" font-family="sans-serif" fill="#fff" letter-spacing="0"><tspan id="tspan3808-6" x="167.24461" y="112.70528">12h </tspan></text><text id="text3810-1" style="font-variant-numeric:normal;font-variant-ligatures:normal;font-feature-settings:normal;font-variant-caps:normal;line-height:1.25" x="220.4025" y="113.2316" word-spacing="0" font-size="12" font-family="sans-serif" fill="#fff" letter-spacing="0"><tspan id="tspan3808-1" x="220.4025" y="113.2316">48h </tspan></text><text id="text3810-9" style="font-variant-numeric:normal;font-variant-ligatures:normal;font-feature-settings:normal;font-variant-caps:normal;line-height:1.25" x="14.613024" y="112.17896" word-spacing="0" font-size="12" font-family="sans-serif" letter-spacing="0"><tspan id="tspan3808-11" x="14.613024" y="112.17896">H </tspan></text><text id="text3810-9-3" style="font-variant-numeric:normal;font-variant-ligatures:normal;font-feature-settings:normal;font-variant-caps:normal;line-height:1.25" transform="matrix(1.1221 -.05053 0 .89115 0 0)" x="243.57957" y="140.19893" word-spacing="0" font-size="13.466" font-family="sans-serif" letter-spacing="0"><tspan id="tspan3808-11-2" x="243.57957" y="140.19893" stroke-width="1.1221">1h </tspan></text><text id="text3810-9-3-9" style="font-variant-numeric:normal;font-variant-ligatures:normal;font-feature-settings:normal;font-variant-caps:normal;line-height:1.25" transform="matrix(1.1221 -.05053 0 .89115 0 0)" x="303.84763" y="143.12367" word-spacing="0" font-size="13.466" font-family="sans-serif" letter-spacing="0"><tspan id="tspan3808-11-2-6" x="303.84763" y="143.12367" stroke-width="1.1221">6h </tspan></text><text id="text3810-9-3-9-9" style="font-variant-numeric:normal;font-variant-ligatures:normal;font-feature-settings:normal;font-variant-caps:normal;line-height:1.25" transform="matrix(1.1221 -.05053 0 .89115 0 0)" x="358.24915" y="147.26115" word-spacing="0" font-size="13.466" font-family="sans-serif" letter-spacing="0"><tspan id="tspan3808-11-2-6-9" x="358.24915" y="147.26115" stroke-width="1.1221">12h </tspan></text><text id="text3810-9-3-9-9-1" style="font-variant-numeric:normal;font-variant-ligatures:normal;font-feature-settings:normal;font-variant-caps:normal;line-height:1.25" transform="matrix(1.1221 -.05053 0 .89115 0 0)" x="421.97641" y="151.24564" word-spacing="0" font-size="13.466" font-family="sans-serif" letter-spacing="0"><tspan id="tspan3808-11-2-6-9-8" x="421.97641" y="151.24564" stroke-width="1.1221">24h </tspan></text><text id="text3810-9-3-9-9-9" style="font-variant-numeric:normal;font-variant-ligatures:normal;font-feature-settings:normal;font-variant-caps:normal;line-height:1.25" transform="matrix(1.1221 -.05053 0 .89115 0 0)" x="514.84351" y="156.51105" word-spacing="0" font-size="13.466" font-family="sans-serif" letter-spacing="0"><tspan id="tspan3808-11-2-6-9-0" x="514.84351" y="156.51105" stroke-width="1.1221">48h </tspan></text></g></svg>