<svg xmlns="http://www.w3.org/2000/svg" id="Germination_svg" version="1.1" viewBox="0 -1 655 120" author="Provart Lab - Bio Analytic Resource, University of Toronto">
  &gt;
  <g id="germinationFourtyEightHoursOutlineSL">
    <path id="germinationFourtyEightHoursOutlineSL" fill="#000" stroke="#000" stroke-miterlimit="10" stroke-width=".5" d="M621 0a234 234 0 0 0-6 1h-1l-4-1-3 3c1 0 1 1-2 6l-5 7-3-3c-3-4-7-6-12-7l-21 1-6 2c-5 3-9 7-10 10l-1 9c0 6-1 6-3 6l-5-1c-1-1-6-2-8-1h-5l-4 8 5 6 1-1 3 2 9 3 5 2 16 5-3 4v3l9 10 4-1h2l2-1 1-1 1 1 1 1 3 5 2 7 6 8c1 2 4 3 6 4h-1 3a29 29 0 0 0 3 0l10-1c3 0 4-3 6-13 2-7 2-8 0-14-2-7-2-10 0-12l14-7 15-9 3-3 2-5a62 62 0 0 1 0-7v-4l-2-3-2-1c-4-1-8-1-12 1l-7 6-4 2c1-3 2-18 1-22l-1-3z"/>
  </g>
  <g id="germinationFourtyEightHoursFillSL">
    <path id="germinationFourthEightHoursFillSL" fill="#fff" stroke="#000" stroke-miterlimit="10" stroke-width=".5" d="m616 1 5 1c2 6 2 19 0 19l-1-2v-1c-2 1-2 4-1 4 2 0 2 1-1 9-2 7-2 7 0 5l1-1 3-2 7-7 4-3-4 1-3 3 3-2 5-5c5-2 11-1 13 0 2 3 1 10-1 14s-12 10-22 14c-9 4-12 7-12 10l1 8 2 8c0 5-4 17-6 19l-6 1c-4 0-9-1-10-3-4-4-10-15-10-17h1c0 2 0 2 1 0 1-3 0-4-2-2-2 1-2 1-2-1l-2-1 1-1 2-1c0-1-5-3-6-2l-2 1-1-1v-1l-1 2-2 2c-3 2-4 0-1-3 2-2 2-2-1-2l-3 1-1 1 1-2 1-2-2 1c-1 1-2 0-3-1s-2-1 0-2c1-1 1-1 0 0 0 1 0 2 2 1l1-1v-3c2-2 1-3-2-3l-6-2-12-5-10-4-4-2-4-2c-1-4 5-9 8-6h2v1l4 3 6 2v-1c-1-1-1-2 1-2l2 1h2c2-1 2-1 0-2l-1-3c0-1 1-1 2 2l5 3c2 0 2 0 1 1h4l11 1 6 2 2 1 11 3c1-2 3-1 3 1s0 3 2 2l1-1-1-1v-1l1-1 1-4c1-3-3-5-5-3h1v1l1 2 1 1-4-3c-3-3-3-6 1-6 2 0 4-3 3-5h1c2 1 11-3 12-5l-3-4-3-3 4-6c2-5 3-6 4-5s1 1 2-1l2-2z"/>
  </g>
  <g id="germinationFourtyEightHoursFillTopSL">
    <path id="germinationFourtyEightHoursFillTopSL" fill="#fff" stroke="#000" stroke-miterlimit="10" stroke-width=".5" d="M578 7c7 0 13 2 14 5l3 3v1c-1 0 0 1 0 0 2-1 3 2 1 5l-1 5c0 2-1 4-5 4l-3 1 1 3 1-1v2l2 5 1 1v1h-5v1-1h-1l-9-4v1c-2-2-10-3-12-3h-3l-2-1c-2 1-4 0-5-1-3-2-3-2-1-4h5l1 1 2 1c2 0 2 0 1 1v1l1-1c0-1 0-2-2-3l-1-2c1-2 1-2-1 0l-3 1c-1-1-5-1-5 1l-1 1-1-4v-1c-1 2-1 1-1-2-1-3 0-3 1-3h3l-1-1c-2 1-1 0 0-1l2-2-2-1c-1 0 0 0 0 0 1 0 2 0 3-2 2-3 6-5 13-6l10-1z"/>
  </g>
  <g id="germinationFourtyEightHoursFillTopSmallBitSL">
    <path id="germinationFourtyEightHoursFillTopSmallBitSL" fill="#fff" stroke="#000" stroke-miterlimit="10" stroke-width=".5" d="M600 18c3 0 7 3 6 4l-3 2-4 1c-2 1-3-1-1-2v-3c0-2 0-2 2-2z"/>
  </g>
  <g id="germinationTwentyFourHoursOutlineSL">
    <path id="germinationTwentyFourHoursOutlineSL" fill="#000" stroke="#000" stroke-miterlimit="10" stroke-width=".5" d="M463 20h-2l-4 2c-2 3-3 14-1 18l2 8c1 8 5 13 12 13l8 2h11c9 0 15-3 21-10 4-4 5-8 4-15-1-6-3-9-8-11-8-4-15-4-30 0-4 0-4 0-8-4l-5-3z"/>
  </g>
  <g id="germinationSixHoursOutlineSL">
    <path id="germinationSixHoursOutlineSL" fill="#000" stroke="#000" stroke-miterlimit="10" stroke-width=".5" d="m353 26-3 1h-4c-12 1-19 7-19 17 0 8 2 12 10 16 6 3 6 3 16 3 7 0 11-1 13-2 14-8 16-21 4-30a13 13 0 0 0-2-1l-2-1h-1l-12-3z"/>
  </g>
  <g id="germinationTwelveHourOutlineSL">
    <path id="germinationTwelveHourOutlineSL" fill="#000" stroke="#000" stroke-miterlimit="10" stroke-width=".5" d="M416 26c-9 0-19 4-24 9-3 4-3 4-3 10l2 10c2 4 10 8 16 9 11 3 25-1 31-7 8-9 1-24-13-29l-9-2z"/>
  </g>
  <g id="germinationFourtyEightHourOutlineS">
    <path id="germinationFourtyEightHourOutlineS" fill="#000" stroke="#000" stroke-miterlimit="10" stroke-width=".5" d="M243 29h-10c-12 0-17 2-22 6-4 4-6 10-5 12l3 6c2 4 5 7 11 9 7 2 23 1 23-2h1c1 1 2 1 4-1 5-3 8-7 9-14 0-4-2-8-8-12z"/>
  </g>
  <g id="germinationTwentyFourHourFillSL">
    <path id="germinationTwentyFourHourFillSL" fill="#fff" stroke="#000" stroke-miterlimit="10" stroke-width=".5" d="m460 24 3 3 5 3c2 0 3 1 3 2 1 3 8 6 14 7h15l-3-1-13-1c-4-1-9-4-9-5s0-2 1-1l1-1h2l3-1c0-2 0-2 1-1h3c4-1 7-1 9 1s6 2 6 0c0-1 4 0 6 2 2 1 3 1 2 2l1 2 1 3-1 3 1 1-1 1v2l-1 3-3 4-1 1-4 2-2 1c0-2 0-2-1 0l-2 2h-3c-1 2-15 3-15 2l-2-1-4-3-1-1 1-1 3-1v2c-1 1-1 1 2 2 3 0 6 0 5-1l-2-1h-2c1-1 0-2-1-2-1-2-2-2-4-1-4 1-6 1-7-2l-4-4c-2-1-3-1-3-4l-1-3c-1-2 0-13 2-15z"/>
  </g>
  <g id="germinationHOutline">
    <path id="germinationHOutline" fill="#000" stroke="#000" stroke-miterlimit="10" stroke-width=".5" d="M27 36C16 36 1 45 2 52c1 3 2 4 9 7 12 7 33 3 35-5l1-6-1-1v-1c-2-5-11-10-19-10z"/>
  </g>
  <g id="germinationZeroHOutlineS">
    <path id="germinationZeroHOutlineS" fill="#000" stroke="#000" stroke-miterlimit="10" stroke-width=".5" d="M76 35c-10 0-14 1-19 5l-3 9 2 8 5 2c6 3 8 3 15 3s10 0 14-2c11-5 11-17 1-23-5-2-6-2-15-2z"/>
  </g>
  <g id="germinationOneHourS">
    <path id="germinationOneHourS" fill="#000" stroke="#000" stroke-miterlimit="10" stroke-width=".5" d="M123 34c-9 0-16 3-19 9-3 8-3 10 4 14l9 4c6 2 19 2 24 0 9-3 13-15 8-20-4-4-16-7-26-7z"/>
  </g>
  <g id="germinationTwelveHourSL">
    <path id="germinationTwelveHourSL" fill="#fff" stroke="#000" stroke-miterlimit="10" stroke-width=".5" d="m416 26 5 1v1l1-1h1l1 1c0-1 6 2 10 7 5 5 7 10 5 14s-10 10-15 10l-3 1-6 1-6-1-4-1-7-3c-3-2-3-2-1-2s2 0-1-1-4-1-4-4V39c-1 0-1 0 0 0l1-1 2-1v-1c-3 0 4-5 8-7l6-2 7-1z"/>
  </g>
  <g id="germinationTwelveHourOutlineS">
    <path id="germinationTwelveHourOutlineS" fill="#000" stroke="#000" stroke-miterlimit="10" stroke-width=".5" d="M184 32h-14c-5 2-14 6-15 12-1 7 5 15 14 19 12 5 26 2 31-6 3-4 4-10 2-13-3-6-7-10-11-11l-6-1h-1z"/>
  </g>
  <g id="germinationFourtyEightHoursFillS">
    <path id="germinationFourtyEightHoursFillS" fill="#fff" stroke="#000" stroke-miterlimit="10" stroke-width=".5" d="M230 30h2l7 1c5 0 13 5 13 8v1h1v8l-2 2-2 2c-2 1-2 1 0 2v2s-3 0-5 2l-10 2c0-1 2-2 5-2l5-3h-1l-12 2c-5 0-6 3-2 3l3 1c0 1 0 1 0 0h-3c-3 0-4-1-4-3-1-2-2-2-3-2l-3-2h-1c-1 1 2 4 3 3l2 1c1 3-3 2-7-1l-5-5-1-2-1-8 1-1c-1-1 0-3 2-4 2-3 4-4 7-4l4-1h4c2 0 3-1 3-2-1 0 0 0 0 0z"/>
  </g>
  <g id="germinationSixHourSLFill">
    <path id="germinationSixHourSLFill" fill="#fff" stroke="#000" stroke-miterlimit="10" stroke-width=".5" d="m355 29 1 1 7 1h1c2 0 5 3 6 5l1 1 1 2v-1l1 4 1 6c1 3 1 4-3 7-4 4-9 6-17 7-10 0-19-4-23-11-2-2-3-6-2-7v-3l1-2c1-3 2-3 3-2 0 1 1 1 1-1l5-4 4-2h3l9-1z"/>
  </g>
  <g id="germinationZeroHourFillS">
    <path id="germinationZeroHourFillS" fill="#fff" stroke="#000" stroke-miterlimit="10" stroke-width=".5" d="m78 37 1 1c1-1 9 1 9 2l2 1 2 1 2 2v1l1 2c1 2 1 3-1 5l-2 3-1 2-7 1c-4 2-10 3-12 2v-1l1-1-4 1-5-1c-1-2-3-2-3-2-2 0-3-2-3-3l-1-2c2 0 2-1 2-4-1-5 0-6 5-7h2v3c1 1 3 0 2-3 0-2 0-2 2-2l3-1h2v2l2-2h1z"/>
  </g>
  <g id="germinationHFill">
    <path id="germinationHFill" fill="#fff" stroke="#000" stroke-miterlimit="10" stroke-width=".5" d="M25 39c8-1 18 6 18 12 0 4-2 5-8 8-7 2-13 3-15 1v-1c1 2-2 1-6-2l-4-3 3 1c4 1 9 0 9-2h-6c-2-1-2-1 0-3l4-4v-1c-1 0-2 0-1-1 0-2 0-1-2 1l-3 4c0 2-1 3-2 3v-2c2-3 1-4-2-3-1 1-2 2-1 3l-1-1c-2-1-2-1 0-3s11-6 16-7a12 12 0 0 1 1 0z"/>
  </g>
  <g id="germinationTwelveHourFillS">
    <path id="germinationTwelveHourFillS" fill="#fff" stroke="#000" stroke-miterlimit="10" stroke-width=".5" d="M175 34h3l1 2 1-2h3a1 1 0 0 0 0 1l1-1 7 1 2 2c2 2 2 2-1 1h-2c0 2 2 3 5 3h1c-1 1-1 2 1 2 1 0 2 0 3 4s1 8-1 8l-1 1-4 5c0-1-3 0-5 2-4 1-6 2-8 1l-5-1-2-1h-1c-2 1-11-3-10-5l-2-2c-3-1-4-4-3-7v-3c-1 0-2-1-1-2 0-2 2-2 2 1 1 3 3 2 3-1v-4c1-2 9-5 11-4l2-1z"/>
  </g>
  <g id="germinationOneHourSFill">
    <path id="germinationOneHourSFill" fill="#fff" stroke="#000" stroke-miterlimit="10" stroke-width=".5" d="M122 37c4 0 9 0 14 2 8 2 9 2 11 5 2 4 2 7-3 12-3 3-3 3-2 1 0-2 0-2-2 0s-4 2-13 2c-11 0-14 0-14-3l-2-1-3-1c-1-1 0-8 1-8l2-1v-1l-3 1c-2 0-2 0-1-2l3-2 3-2c2-2 5-2 9-2z"/>
  </g>
  <g id="germinationOneHourOutlineSL">
    <path id="germinationOneHourOutlineSL" fill="#000" stroke="#000" stroke-miterlimit="10" stroke-width=".5" d="M301 29h-10c-12 0-17 1-22 6-4 4-6 9-5 12l3 5c2 5 5 8 11 10 7 2 23 1 23-2h1c1 1 2 1 4-1 5-3 8-7 9-14 1-5-2-8-8-12z"/>
  </g>
  <g id="germinationOneHourFillSL">
    <path id="germinationOneHourFillSL" fill="#fff" stroke="#000" stroke-miterlimit="10" stroke-width="1" d="m291 30 1 1h6l1 1c2 0 5 2 6 5l1 1 1 1c-1-1 0-1 0 0l1 3 1 6c0 3 0 4-3 7-4 4-8 6-16 6-10 1-18-3-22-10-2-2-2-6-2-7v-2l1-3c2-2 2-3 3-1l1-1c0-1 2-3 5-4l4-2h2l8-1a1 1 0 0 1 1 0z"/>
  </g>
  <g id="outlines">
    <path id="rect3751" fill="#000" stroke-width="1" d="M48 100h604v18H48z"/>
    <path id="rect3755" fill="#fff" stroke-width="1" d="M261 101h388v15H261z"/>
    <path id="rect3761" fill="#000" d="M48 0h1v118h-1z"/>
    <path id="rect3761-0" fill="#000" d="M260 0h1v118h-1z"/>
    <text xml:space="preserve" id="text3780" x="51.6" y="94" fill="#000" font-family="sans-serif" font-size="16" letter-spacing="0" style="font-variant-numeric:normal;font-variant-ligatures:normal;font-feature-settings:normal;font-variant-caps:normal;line-height:1.25" word-spacing="0">
            <tspan id="tspan3778" x="51.6" y="94">Stratification</tspan>
        </text>
    <text xml:space="preserve" id="text3780-9" x="263.5" y="92.7" fill="#000" font-family="sans-serif" font-size="16" letter-spacing="0" style="font-variant-numeric:normal;font-variant-ligatures:normal;font-feature-settings:normal;font-variant-caps:normal;line-height:1.25" word-spacing="0">
            <tspan id="tspan3778-9" x="263.5" y="92.7">Light</tspan>
        </text>
    <text xml:space="preserve" id="text3810" x="61.6" y="114" fill="#fff" font-family="sans-serif" font-size="12" letter-spacing="0" style="font-variant-numeric:normal;font-variant-ligatures:normal;font-feature-settings:normal;font-variant-caps:normal;line-height:1.25" word-spacing="0">
            <tspan id="tspan3808" x="61.6" y="114">0h </tspan>
        </text>
    <text xml:space="preserve" id="text3810-2" x="118.8" y="113.8" fill="#fff" font-family="sans-serif" font-size="12" letter-spacing="0" style="font-variant-numeric:normal;font-variant-ligatures:normal;font-feature-settings:normal;font-variant-caps:normal;line-height:1.25" word-spacing="0">
            <tspan id="tspan3808-5" x="118.8" y="113.8">1h </tspan>
        </text>
    <text xml:space="preserve" id="text3810-7" x="167.2" y="112.7" fill="#fff" font-family="sans-serif" font-size="12" letter-spacing="0" style="font-variant-numeric:normal;font-variant-ligatures:normal;font-feature-settings:normal;font-variant-caps:normal;line-height:1.25" word-spacing="0">
            <tspan id="tspan3808-6" x="167.2" y="112.7">12h </tspan>
        </text>
    <text xml:space="preserve" id="text3810-1" x="220.4" y="113.2" fill="#fff" font-family="sans-serif" font-size="12" letter-spacing="0" style="font-variant-numeric:normal;font-variant-ligatures:normal;font-feature-settings:normal;font-variant-caps:normal;line-height:1.25" word-spacing="0">
            <tspan id="tspan3808-1" x="220.4" y="113.2">48h </tspan>
        </text>
    <text xml:space="preserve" id="text3810-9" x="14.6" y="112.2" fill="#000" font-family="sans-serif" font-size="12" letter-spacing="0" style="font-variant-numeric:normal;font-variant-ligatures:normal;font-feature-settings:normal;font-variant-caps:normal;line-height:1.25" word-spacing="0">
            <tspan id="tspan3808-11" x="14.6" y="112.2">H </tspan>
        </text>
    <text xml:space="preserve" id="text3810-9-3" x="243.6" y="140.2" fill="#000" font-family="sans-serif" font-size="13.5" letter-spacing="0" style="font-variant-numeric:normal;font-variant-ligatures:normal;font-feature-settings:normal;font-variant-caps:normal;line-height:1.25" transform="skewY(-3) scale(1.1221 .89115)" word-spacing="0">
            <tspan id="tspan3808-11-2" x="243.6" y="140.2" stroke-width="1.1">1h </tspan>
        </text>
    <text xml:space="preserve" id="text3810-9-3-9" x="303.8" y="143.1" fill="#000" font-family="sans-serif" font-size="13.5" letter-spacing="0" style="font-variant-numeric:normal;font-variant-ligatures:normal;font-feature-settings:normal;font-variant-caps:normal;line-height:1.25" transform="skewY(-3) scale(1.1221 .89115)" word-spacing="0">
            <tspan id="tspan3808-11-2-6" x="303.8" y="143.1" stroke-width="1.1">6h </tspan>
        </text>
    <text xml:space="preserve" id="text3810-9-3-9-9" x="358.2" y="147.3" fill="#000" font-family="sans-serif" font-size="13.5" letter-spacing="0" style="font-variant-numeric:normal;font-variant-ligatures:normal;font-feature-settings:normal;font-variant-caps:normal;line-height:1.25" transform="skewY(-3) scale(1.1221 .89115)" word-spacing="0">
            <tspan id="tspan3808-11-2-6-9" x="358.2" y="147.3" stroke-width="1.1">12h </tspan>
        </text>
    <text xml:space="preserve" id="text3810-9-3-9-9-1" x="422" y="151.2" fill="#000" font-family="sans-serif" font-size="13.5" letter-spacing="0" style="font-variant-numeric:normal;font-variant-ligatures:normal;font-feature-settings:normal;font-variant-caps:normal;line-height:1.25" transform="skewY(-3) scale(1.1221 .89115)" word-spacing="0">
            <tspan id="tspan3808-11-2-6-9-8" x="422" y="151.2" stroke-width="1.1">24h </tspan>
        </text>
    <text xml:space="preserve" id="text3810-9-3-9-9-9" x="514.8" y="156.5" fill="#000" font-family="sans-serif" font-size="13.5" letter-spacing="0" style="font-variant-numeric:normal;font-variant-ligatures:normal;font-feature-settings:normal;font-variant-caps:normal;line-height:1.25" transform="skewY(-3) scale(1.1221 .89115)" word-spacing="0">
            <tspan id="tspan3808-11-2-6-9-0" x="514.8" y="156.5" stroke-width="1.1">48h </tspan>
        </text>
  </g>
</svg>