<svg xmlns="http://www.w3.org/2000/svg" id="Germination_svg" version="1.1" viewBox="0 -1 655 120"><g id="germinationFourtyEightHoursOutlineSL"><path d="M620.83 0c-.413.06-2.929.533-5.309 1.004-.047-.683-.23-.626-.757.154-.422.085-.796.164-1.176.242-.002-.077-.01-.111-.01-.199-.003-.3-.576-.548-3.125-.754l-3.24 2.053c1.214.183.748 1.191-2.153 6.951-1.938 3.85-4.08 6.988-4.761 6.973-.68-.015-2.364-1.556-3.739-3.422-2.97-4.032-6.086-5.986-11.256-6.879l-20.852 1.2c-2.605.6-4.919 1.306-6.482 2.085-4.62 2.302-9.282 6.575-10.41 9.543-.55 1.446-1 5.525-1 9.065 0 6.018-.146 6.433-2.25 6.396-1.237-.021-3.825-.723-5.75-1.558s-5.525-1.397-8-1.245l-4.197.258-4.364 8.436 4.58 5.304c.288-.14.649-.156 1.11-.156 1.218 0 2.925.617 3.793 1.371.868.754 4.71 2.397 8.537 3.65 2.66.872 4.236 1.453 5.02 1.895l15.812 5.125-3.108 3.774.233 1.998c.271.3.461.49.443.511l8.82 9.883 4.09-.426 2.162-.691c.414-.19.802-.33 1.168-.432l1.66-.613.817.852.002.002.004.003 1.05 1.098 3.012 4.64 2.242 6.45 5.77 8.79c1.083 2.076 3.407 2.956 6.111 3.231l-.935.155 2.238-.063a28.983 28.983 0 0 0 3.254-.09l9.643-.267c3.072-.43 4.422-3.124 6.607-13.188 1.586-7.303 1.59-8.246.064-13.734-2.09-7.52-2.066-10.24.112-12.148.962-.844 7.092-4.058 13.62-7.143 7.625-3.602 13.08-6.89 15.25-9.191l3.024-3.207 1.86-4.186c-.081-.944.054-3.404.193-5.777.15-.428.249-.86.232-1.223-.016-.365-.06-.58-.13-.672.11-1.952.19-3.609.068-3.609-.078 0-.156.073-.234.174.015-.219.035-.445.029-.629-.007-.229-.06-.24-.127-.174l-1.64-2.23-2.46-.934c-3.568-1.356-7.923-1.217-11.717.375-1.77.743-5.19 3.33-7.6 5.75-2.587 2.599-4.068 3.582-3.617 2.4 1.275-3.336 1.788-17.794.764-21.512l-.93-3.42z" fill="#000" id="germinationFourtyEightHoursOutlineSL" stroke="#000" stroke-miterlimit="10" stroke-width=".5"/></g><g id="germinationFourtyEightHoursFillSL"><path d="M615.52 1.004c2.382.228 4.907.562 5.182 1.283 2.328 6.125 2.204 18.613-.186 18.613-.553 0-.752-.965-.443-2.144.316-1.21.185-1.755-.301-1.25-1.439 1.495-1.643 4.917-.277 4.644 1.777-.355 1.58 1.076-1.266 9.129-2.305 6.523-2.345 6.911-.486 4.621 1.659-2.044 1.909-2.135 1.375-.5-.36 1.1.865.075 2.72-2.277 1.856-2.352 5.07-5.45 7.14-6.885 2.072-1.435 3.767-3.084 3.767-3.662s-1.461.271-3.247 1.887l-3.246 2.937 2.496-2.879c1.373-1.583 3.945-3.496 5.715-4.25 4.347-1.852 10.714-1.758 12.324.182 1.87 2.252 1.495 9.726-.674 13.42-2.382 4.059-11.659 10.155-21.738 14.289-8.927 3.662-12.63 6.589-12.63 9.98 0 1.286.674 4.929 1.5 8.096s1.5 6.75 1.501 7.96c.006 4.64-3.39 16.307-5.398 18.548l-6.414 1.05c-4.07-.205-8.75-.88-10.43-2.74-3.534-3.911-9.817-15.22-9.69-17.437.04-.672.422-.32.852.78.75 1.92.812 1.907 1.522-.325.951-2.994-.019-3.92-2.489-2.377-1.596.996-1.955.958-1.955-.205 0-.784-.562-1.653-1.25-1.93-.747-.301-.545-.537.5-.584.963-.044 1.746-.416 1.742-.828-.012-1.236-4.937-3.149-5.55-2.156-.308.498-1.234.906-2.059.906-.88 0-1.205-.478-.787-1.155.445-.72.274-.883-.457-.431-.644.398-.943 1.093-.664 1.545.279.452-.572 1.53-1.89 2.394-3.214 2.106-4.275-.235-1.472-3.244 1.964-2.107 1.962-2.11-.515-2.11-1.364 0-2.758.45-3.098 1-.34.55-1.091 1-1.67 1-.578 0 .01-.884 1.309-1.966s1.888-1.982 1.31-2c-.577-.018-1.5.419-2.052.97-.672.672-1.649.528-2.951-.433-1.658-1.223-1.74-1.632-.55-2.754 1.168-1.1 1.305-1.047.827.32-.437 1.249-.1 1.513 1.418 1.116 1.33-.348 1.66-.853.99-1.522-.669-.669-.521-1.482.444-2.447 1.914-1.915 1.14-2.926-2.813-3.676-1.794-.34-4.387-1.196-5.762-1.902s-6.55-2.587-11.5-4.182-9.675-3.456-10.5-4.135c-.825-.678-2.722-1.537-4.214-1.91-1.493-.372-2.976-1.505-3.297-2.515-1.27-4.003 4.757-8.665 7.867-6.084.73.606 1.648.783 2.039.392.391-.39.444-.014.117.838-.443 1.156.495 1.872 3.697 2.822 2.36.701 4.928 1.792 5.706 2.422 1.18.957 1.238.816.35-.853-.922-1.73-.743-2.02 1.327-2.145 1.36-.081 2.13.286 1.781.85-.337.546.412.445 1.666-.227 2.025-1.083 2.095-1.324.622-2.148-.913-.511-1.655-1.696-1.649-2.631.008-1.203.76-.749 2.572 1.55 1.474 1.87 3.486 3.258 4.739 3.266 1.742.013 1.882.202.697.952-.965.61.493.73 4.191.35 3.93-.406 7.21-.084 10.67 1.048 2.748.899 5.662 1.635 6.475 1.635.813 0 1.627.446 1.81.992.456 1.355 10.757 3.941 11.42 2.867 1.047-1.693 2.415-.816 2.415 1.547 0 1.995.38 2.306 2.224 1.824 1.224-.32 1.674-.766 1-.99-.673-.224-1.224-.846-1.224-1.383 0-.536.337-.766.75-.512s.788-.506.836-1.69.42-2.909.828-3.829c1.005-2.269-3.06-4.63-4.772-2.773-.877.951-.816 1.054.262.439.911-.52 1.167-.418.728.291-.371.601.122 1.558 1.096 2.125.974.567 1.294 1.044.71 1.06-.585.017-2.332-1.292-3.882-2.91-3.083-3.218-2.906-6.058.377-6.058 2.081 0 4.503-3.232 3.313-4.422-.377-.377.027-.41.898-.076 1.856.712 11.02-3.43 11.613-5.248.224-.685-.883-2.533-2.457-4.108l-2.861-2.861 3.418-6.23c2.475-4.512 3.66-5.861 4.299-4.893.703 1.066 1.182.944 2.363-.604.547-.717 1.004-1.651 1.256-2.455z" fill="#fff" id="germinationFourthEightHoursFillSL" stroke="#000" stroke-miterlimit="10" stroke-width=".5"/></g><g id="germinationFourtyEightHoursFillTopSL"><path d="M578.39 6.674c6.83.037 12.123 1.866 14 5.166.871 1.532 1.948 2.79 2.393 2.793.445.004.488.525.095 1.16-.426.69-.274.885.373.485 1.962-1.213 2.336 1.243.678 4.45-.895 1.73-1.419 3.942-1.164 4.917.733 2.805-.95 4.494-4.482 4.494-1.318 0-2.208.151-2.91.596l1.103 2.77c.182-.26.369-.43.533-.47a.274.274 0 0 1 .272.077c.256.256.069.855-.39 1.441l2.087 5.238c.385.175.77.483.996.848.239.387.094.72-.307.887l.362.906-4.698-.617c-.016.392-.075.776-.195 1.074-.27.671-.49.138-.5-1.166l-.795-.103-8.488-3.21c-.039.076-.08.123-.13.098-2.123-1.11-9.911-2.575-12-2.258-1.577.24-2.75-.05-2.75-.677 0-.681-1.07-.859-2.835-.471-1.963.431-3.514.071-5.041-1.17-2.202-1.79-2.203-1.796-.2-3.504 1.104-.94 2.263-1.297 2.575-.793.312.505 1.226.664 2.033.354.808-.31 1.469-.066 1.469.543s.787 1.114 1.75 1.123c1.34.011 1.437.212.416.86-1.074.68-1.025.963.25 1.452 1.094.42 1.584.035 1.584-1.244 0-1.018-.902-2.087-2.004-2.375-1.451-.38-1.818-1.033-1.33-2.367.651-1.782.606-1.783-1.397-.027-1.195 1.048-2.325 1.404-2.671.843-.706-1.142-4.598-.332-4.598.957 0 .486-.596.885-1.326.885-.9 0-1.219-1.048-.992-3.25.272-2.645.159-2.877-.604-1.25-.775 1.654-.95 1.338-1.008-1.818-.06-3.32.18-3.738 1.846-3.21 1.054.335 2.203.145 2.553-.421.387-.627-.07-.802-1.166-.447-1.288.415-1.09-.04.697-1.598 1.375-1.199 1.968-1.908 1.318-1.576-.65.331-1.506.075-1.904-.569-.442-.714-.291-.903.387-.484.616.38 1.853-.447 2.777-1.857 1.938-2.959 5.796-4.82 13.248-6.395 3.563-.753 6.985-1.107 10.09-1.09z" fill="#fff" id="germinationFourtyEightHoursFillTopSL" stroke="#000" stroke-miterlimit="10" stroke-width=".5"/></g><g id="germinationFourtyEightHoursFillTopSmallBitSL"><path d="M600.35 17.576c2.664 0 6.333 3.282 5.385 4.816-.32.52-1.602 1.166-2.848 1.436-1.245.27-3.053.822-4.015 1.227-1.775.745-2.533-.879-.885-1.897.476-.294.65-1.67.385-3.059-.41-2.145-.115-2.523 1.978-2.523z" fill="#fff" id="germinationFourtyEightHoursFillTopSmallBitSL" stroke="#000" stroke-miterlimit="10" stroke-width=".5"/></g><g id="germinationTwentyFourHoursOutlineSL"><path d="M462.75 19.834c-.516-.023-1.073.047-1.736.18-1.69.338-3.644 1.393-4.34 2.345-2.085 2.852-2.797 13.493-1.164 17.402.78 1.866 1.748 5.598 2.152 8.293 1.2 8.005 5.614 12.663 12.562 13.262 1.925.166 5.3.727 7.5 1.246s7.428.822 11.617.674c8.937-.316 14.473-2.984 20.283-9.771 4.016-4.692 5.143-8.86 4.219-15.605-.845-6.163-2.603-8.569-8.264-11.31-7.598-3.677-14.626-3.683-29.723-.025-3.698.897-4.039.76-7.818-3.095-2.56-2.612-3.74-3.525-5.29-3.596z" fill="#000" id="germinationTwentyFourHoursOutlineSL" stroke="#000" stroke-miterlimit="10" stroke-width=".5"/></g><g id="germinationSixHoursOutlineSL"><path d="M353.43 26.185c-.164 0-1.91.315-3.856.705.092-.026.172-.062.266-.084.619-.142.464-.221-.285-.234s-2.092.041-3.848.164c-12.17.85-19.118 7.154-19.115 17.346.002 8.416 2.215 11.945 9.998 15.94 6.337 3.254 6.751 3.327 16.5 2.917 6.711-.283 10.987-.962 13-2.065 13.781-7.546 15.445-21.372 3.596-29.869a12.549 12.549 0 0 0-1.664-.974l-.002-.002c-.063-.212-1.1-.593-2.518-1.026-.232-.075-.451-.14-.677-.203-3.998-1.163-10.445-2.615-11.395-2.615z" fill="#000" id="germinationSixHoursOutlineSL" stroke="#000" stroke-miterlimit="10" stroke-width=".5"/></g><g id="germinationTwelveHourOutlineSL"><path d="M416.19 26.424c-9.071-.203-18.749 3.114-23.732 8.752-3.027 3.425-3.3 4.283-3.272 10.238.021 4.344.613 7.495 1.786 9.5 2.327 3.978 9.672 8.418 15.72 9.504 11.693 2.1 25.585-1.086 31.034-7.12 8.31-9.2 1.556-24.665-12.863-29.454-2.693-.895-5.649-1.352-8.672-1.42z" fill="#000" id="germinationTwelveHourOutlineSL" stroke="#000" stroke-miterlimit="10" stroke-width=".5"/></g><g id="germinationFourtyEightHourOutlineS"><path d="m242.91 28.726-10.062.096c-11.609.112-17.331 1.815-21.799 6.49-3.772 3.947-6.058 9.344-4.94 11.658.467.965 1.71 3.518 2.762 5.674 2.187 4.48 5.321 7.077 10.971 9.09 7.409 2.639 23.414 1.373 23.457-1.856.01-.738.316-.676.854.172.676 1.066 1.443.955 3.945-.567 5.193-3.157 7.908-7.513 8.758-14.057.617-4.752-1.59-8.193-8.164-12.72z" fill="#000" id="germinationFourtyEightHourOutlineS" stroke="#000" stroke-miterlimit="10" stroke-width=".5"/></g><g id="germinationTwentyFourHourFillSL"><path d="M460.25 23.913c.725-.024 1.687.845 3.178 2.799 1.748 2.292 3.567 3.586 5.047 3.586 1.442 0 2.556.758 2.955 2.015.885 2.79 7.304 5.842 13.67 6.498 9.854 1.017 14.824 1.117 14.824.3 0-.448-1.238-.886-2.75-.975-8.67-.513-10.576-.7-13.037-1.274-4.232-.988-9.213-3.882-9.213-5.351 0-.733.45-1.053 1-.713.55.34 1 .203 1-.303s1.125-.706 2.5-.443c1.941.37 2.504.06 2.515-1.39.012-1.352.24-1.51.832-.575.617.971 1.492 1.033 3.551.25 4.075-1.55 7.089-1.265 9.004.851 1.595 1.763 5.598 1.878 5.598.16 0-1.264 3.672-.496 6.51 1.364 1.688 1.106 2.225 1.7 1.869 2.242l.85 1.887.517 3.113-.195 3.512c.264.16.449.418.449.724 0 .303-.206.6-.508.862l-.033 1.355-.846 1.033c.298.217-.033.76-1.027 2.108-.913 1.237-1.925 3.056-2.25 4.04-.325.986-1.096 1.617-1.713 1.403-.618-.214-2.136.69-3.373 2.01-1.962 2.092-2.257 2.168-2.313.597-.05-1.408-.266-1.296-.992.514-.51 1.273-1.402 2.022-1.98 1.664-.58-.358-1.725-.092-2.547.59-1.66 1.378-15.418 2.404-15.418 1.15 0-.436-.979-.867-2.174-.957s-3.108-1.149-4.25-2.351-1.544-1.891-.895-1.531c.65.36 1.463.195 1.809-.364.345-.559 1.331-1.015 2.191-1.015 1.232 0 1.315.299.393 1.41-.95 1.146-.644 1.506 1.629 1.926 3.85.71 6.31.493 5.693-.504-.283-.459-1.464-.832-2.623-.832s-1.829-.279-1.488-.62c.34-.34-.042-1.282-.852-2.091-1.156-1.157-2.115-1.246-4.48-.422-3.757 1.31-5.843.55-7.023-2.555-.506-1.33-2.268-2.883-3.924-3.46-2.341-.817-3.006-1.646-3.006-3.75 0-1.487-.386-3.13-.858-3.653-1.13-1.252.117-13.109 1.528-14.52.2-.2.414-.306.656-.314z" fill="#fff" id="germinationTwentyFourHourFillSL" stroke="#000" stroke-miterlimit="10" stroke-width=".5"/></g><g id="germinationHOutline"><path d="M27.019 35.833c-11.364 0-26.157 9.452-24.617 15.73.868 3.541 1.853 4.454 8.547 7.91 12.193 6.295 32.7 2.993 35.107-5.652.027-.098.053-.117.08-.168l1.035-5.305-.818-1.793c-.107.17-.229.1-.363-.222-2.39-5.738-10.993-10.5-18.971-10.5z" fill="#000" id="germinationHOutline" stroke="#000" stroke-miterlimit="10" stroke-width=".5"/></g><g id="germinationZeroHOutlineS"><path d="M75.824 34.52c-10.146.02-14.075 1.111-18.75 5.21-.059.052-.101.073-.156.118l-2.971 8.746 2.275 8.147 5.14 2.548c5.27 2.613 7.144 3 14.75 3.043 7.17.042 9.57-.366 13.56-2.3 11.174-5.418 11.757-16.931 1.152-22.775-4.528-2.496-5.942-2.754-15-2.737z" fill="#000" id="germinationZeroHOutlineS" stroke="#000" stroke-miterlimit="10" stroke-width=".5"/></g><g id="germinationOneHourS"><path d="M123.02 34.173c-9.383.163-15.639 3.246-18.633 9.184-3.67 7.277-3.15 9.401 3.314 13.537 3.061 1.958 7.224 3.95 9.25 4.43 6.151 1.452 19.434 1.206 24.3-.452 8.477-2.888 13.148-15.21 7.636-20.14-4.24-3.794-15.832-6.733-25.867-6.56z" fill="#000" id="germinationOneHourS" stroke="#000" stroke-miterlimit="10" stroke-width=".5"/></g><g id="germinationTwelveHourSL"><path d="M416.19 26.424c2.612.023 4.825.36 4.434.994-.34.55-.141 1 .441 1s1.066-.562 1.074-1.25c.01-.833.338-.75.985.25.533.825.976 1.151.984.725.03-1.515 5.578 2.18 9.678 6.445 5.035 5.24 6.898 10.844 4.892 14.723-2.13 4.119-10.029 9.279-14.477 9.455-2.484.099-3.663.565-3.369 1.334.323.843-1.32 1.13-5.72 1-3.397-.1-6.353-.468-6.57-.818s-2.01-.939-3.981-1.309-5.013-1.544-6.76-2.61c-3.124-1.904-3.136-1.939-.678-2.044 1.988-.085 1.737-.311-1.223-1.098-3.18-.845-3.816-1.496-4.375-4.473-.365-1.949-.157-4.57.473-5.953 1.446-3.173 1.434-4.685-.03-3.78-.72.445-.883.273-.43-.458.397-.644 1.052-.968 1.452-.72.401.247 1.381.036 2.18-.47 1.252-.791 1.254-.92.016-.933-2.755-.03 3.95-5.704 8.236-6.97 2.31-.683 4.982-1.647 5.937-2.143 1.207-.627 4.218-.92 6.83-.897z" fill="#fff" id="germinationTwelveHourSL" stroke="#000" stroke-miterlimit="10" stroke-width=".5"/></g><g id="germinationTwelveHourOutlineS"><path d="m183.83 31.829-14.232.043c-4.76 2.125-13.404 6.189-14.598 12.561-1.265 6.755 4.936 14.85 14.441 18.85 11.189 4.708 25.673 1.916 30.607-5.9 3.044-4.823 3.966-10.506 2.232-13.762-2.87-5.393-7.39-9.924-10.865-10.89-1.456-.404-4.073-.672-6.865-.83-.234-.025-.485-.047-.72-.072z" fill="#000" id="germinationTwelveHourOutlineS" stroke="#000" stroke-miterlimit="10" stroke-width=".5"/></g><g id="germinationFourtyEightHoursFillS"><path d="M230.17 29.741c.387.016.961.125 1.738.326 1.595.412 4.787.883 7.096 1.045 4.907.344 12.876 5.255 12.666 7.807-.075.917.262 1.42.75 1.119.488-.302.937-.183 1 .261.684 4.854.548 6.345-.678 7.362-.789.655-1.435 1.781-1.435 2.502 0 .72-.985 1.622-2.188 2.004-2.111.67-2.122.742-.308 2.068 1.033.755 1.32 1.373.638 1.373-.681 0-3.037.868-5.234 1.93-4.982 2.407-9.908 3.54-9.908 2.28 0-.523 2.036-1.52 4.525-2.218 2.49-.697 4.813-1.73 5.164-2.299.412-.666-.04-.754-1.275-.246-2.203.907-5.035 1.338-11.498 1.748-5.054.321-6.603 2.805-1.75 2.805 1.558 0 2.834.45 2.834 1s-.113.928-.25.84-1.71-.34-3.496-.563c-2.438-.302-3.4-1.012-3.86-2.841-.427-1.702-1.307-2.436-2.92-2.436-1.27 0-2.508-.562-2.753-1.25-.246-.687-.788-.935-1.204-.549-.98.911 2.016 3.917 3.555 3.567.648-.148 1.385.295 1.637.982.789 2.152-3.013 1.319-7.203-1.578-2.197-1.519-4.164-3.641-4.367-4.717s-.699-2.18-1.1-2.455c-1.104-.756-2.085-8.146-.992-7.47.51.315.678-.082.37-.883-.309-.808.71-2.876 2.284-4.64 2.092-2.34 3.83-3.247 6.574-3.43 2.052-.138 4.03-.548 4.395-.913.365-.365 2.19-.664 4.056-.664 2.294 0 3.162-.37 2.684-1.144-.316-.512-.191-.749.453-.723z" fill="#fff" id="germinationFourtyEightHoursFillS" stroke="#000" stroke-miterlimit="10" stroke-width=".5"/></g><g id="germinationSixHourSLFill"><path d="M355.04 29.224c.398-.018.847.24 1.123.688.195.316 3.39.628 6.436.81.334.08.684.139 1.04.139 2.34 0 5.443 2.762 6.645 5.367l.955.851.885 1.811a1.414 1.414 0 0 0-.137-.35c-.372-.65-.307-.845.145-.435.451.41.92 1.984 1.04 3.5.12 1.515.546 4.375.946 6.355.653 3.234.386 3.92-2.629 6.748-4.932 4.626-9.35 6.365-17.28 6.803-10.532.582-19.293-3.217-23.642-10.254-1.597-2.584-2.283-6.221-1.719-7.709l.09-1.629.324-.793c.04-.428.336-1.235.887-2.3 1.3-2.514 1.89-2.94 2.584-1.862.72 1.116 1.009.996 1.451-.603.314-1.133 2.482-2.857 5-3.975 1.978-.878 3.652-1.922 4.23-2.59.304.059.745.093 1.255.115.672 1.026.936 1.073.947.141 0-.048.019-.079.023-.123 3.377.026 8.713-.397 9.028-.592a.767.767 0 0 1 .373-.113z" fill="#fff" id="germinationSixHourSLFill" stroke="#000" stroke-miterlimit="10" stroke-width=".5"/></g><g id="germinationZeroHourFillS"><path d="M77.657 36.582c.09.01.14.264.17.768.043.72.5 1.047 1.018.728 1.327-.82 9.06.537 9.06 1.59a.31.31 0 0 1-.045.142l1.91 1.215c.733.048 1.508.363 2.375.971 1.477 1.034 1.899 1.376 1.377 1.53l.444 1.712c.38.35.712.904 1.084 1.719 1.04 2.282.912 2.88-.977 4.64-1.193 1.112-2.168 2.68-2.168 3.483 0 .804-.562 1.53-1.25 1.613-2.364.288-3.257.538-6.18 1.735-4.263 1.745-10.837 2.359-12.57 1.172-1.238-.849-1.253-1.03-.084-1.043.78-.009 1.18-.255.89-.545-.291-.29-1.783-.05-3.317.533-2.336.888-3.142.73-4.953-.973-1.19-1.118-2.956-2.031-3.922-2.031-1.95 0-2.485-1.052-2.485-2.713 0-.59-1.42-2.287-.552-2.287 1.22 0 1.511-.902 1.289-3.988-.325-4.497.239-5.274 4.996-6.864 2.975-.994 3.215-.947 2.092.407-.902 1.086-.958 1.839-.198 2.6 1.657 1.656 3.479-.088 2.823-2.702-.45-1.79-.18-2.313 1.168-2.258.964.04 2.615-.29 3.668-.732 1.353-.568 1.702-.46 1.191.367-.427.691-.12 1.17.752 1.17.812 0 1.703-.563 1.98-1.25.194-.48.325-.718.414-.71z" fill="#fff" id="germinationZeroHourFillS" stroke="#000" stroke-miterlimit="10" stroke-width=".5"/></g><g id="germinationHFill"><path d="M25.323 38.735c7.879-.274 17.805 6.46 17.805 12.533 0 3.341-2.01 5.19-8.068 7.422-7.01 2.582-13.22 2.95-14.746.871-.693-.943-.992-1.152-.664-.465 1.023 2.146-1.365 1.377-5.78-1.86l-4.242-3.109 3.25.69c4.138.876 8.916-.15 8.916-1.916 0-1.05-.516-1.125-2.27-.326-1.248.568-2.987.757-3.867.42-1.45-.557-1.44-.857.116-3.23.943-1.44 2.646-2.993 3.785-3.454 1.66-.672 1.73-.852.351-.902-1.2-.045-1.528-.59-1.088-1.813.403-1.118-.303-.766-1.957.973-1.424 1.497-2.736 3.712-2.914 4.922-.177 1.21-.893 2.387-1.591 2.617-1.009.332-1.027-.116-.088-2.176 1.45-3.183.71-4.113-2.084-2.617-1.252.67-1.821 1.62-1.395 2.33.42.699.002.618-.998-.193-1.61-1.306-1.61-1.51-.035-3.25 2.285-2.525 10.95-6.483 16.02-7.317a12.12 12.12 0 0 1 1.545-.15z" fill="#fff" id="germinationHFill" stroke="#000" stroke-miterlimit="10" stroke-width=".5"/></g><g id="germinationTwelveHourFillS"><path d="M175.47 33.969c.74.07 1.666.129 2.603.193.145.819.498 1.4.915 1.4.81 0 1.088-.45.851-1.286.942.056 1.742.114 2.703.162a.933.933 0 0 0 .446.125c.206 0 .389-.034.548-.082 3.543.164 6.779.269 7.04.23.598-.089 1.907.74 2.906 1.844 1.997 2.207 1.42 2.568-1.56.973-1.357-.726-1.935-.715-1.935.04 0 2.061 2.41 3.638 4.948 3.239 2.022-.318 2.24-.18 1.052.662-1.246.883-1.126 1.065.711 1.078 1.734.012 2.448.89 3.303 4.065 1.113 4.133.595 7.95-1.08 7.95-.513 0-.934.605-.934 1.345 0 1.24-4.027 5.648-4.355 4.767-.08-.214-2.348.615-5.041 1.842-3.402 1.55-5.844 2.037-8 1.598-1.707-.348-3.891-.711-4.854-.807s-1.75-.553-1.75-1.017c0-.465-.437-.576-.97-.247-1.574.973-10.961-3.495-10.402-4.95.29-.757-.53-1.54-1.998-1.909-2.783-.698-3.817-4.017-2.158-6.928.791-1.388.634-2.028-.68-2.775-.946-.537-1.456-1.63-1.143-2.445.796-2.073 2.104-1.83 2.852.527.969 3.052 2.746 2.412 2.082-.75-.318-1.513-.23-3.29.197-3.95 1.375-2.124 9.482-5.231 11.223-4.3.987.528 1.74.359 2.48-.594z" fill="#fff" id="germinationTwelveHourFillS" stroke="#000" stroke-miterlimit="10" stroke-width=".5"/></g><g id="germinationOneHourSFill"><path d="M122.13 36.778c4.237-.019 9.321.592 14.197 1.838 8.122 2.075 9.09 2.582 10.811 5.674 2.173 3.905 1.46 6.8-2.813 11.408-2.91 3.138-3.606 3.38-2.718.947.556-1.526.348-1.497-1.623.236-1.898 1.67-3.97 2.034-12.92 2.278-10.688.29-14.158-.499-14.158-3.225 0-.749-.788-1.236-1.75-1.08-.963.156-2.225-.09-2.805-.547-1.448-1.142-.544-7.912 1.057-7.912.706 0 1.567-.74 1.914-1.643.47-1.227.309-1.386-.643-.634-.7.552-2.036.99-2.969.974-1.35-.024-1.491-.414-.685-1.92.556-1.04 1.77-2.159 2.697-2.486.927-.328 2.406-1.212 3.29-1.967 1.49-1.274 4.881-1.922 9.118-1.941z" fill="#fff" id="germinationOneHourSFill" stroke="#000" stroke-miterlimit="10" stroke-width=".5"/></g><g id="germinationOneHourOutlineSL"><path d="m301.04 28.532-10.062.096c-11.609.112-17.331 1.815-21.799 6.49-3.772 3.947-6.058 9.344-4.94 11.658.467.965 1.71 3.518 2.762 5.674 2.187 4.48 5.321 7.077 10.971 9.09 7.409 2.639 23.414 1.373 23.457-1.856.01-.738.316-.676.854.172.676 1.066 1.443.955 3.945-.567 5.193-3.157 7.908-7.513 8.758-14.057.617-4.752-1.59-8.193-8.164-12.72z" fill="#000" id="germinationOneHourOutlineSL" stroke="#000" stroke-miterlimit="10" stroke-width=".5"/></g><g id="germinationOneHourFillSL"><path d="M290.81 30.041c.376-.017.8.232 1.061.663.185.305 3.203.607 6.081.782.316.077.648.134.984.134 2.211 0 5.142 2.665 6.279 5.177l.902.821.836 1.747a1.382 1.382 0 0 0-.13-.338c-.35-.626-.29-.815.137-.42s.87 1.914.984 3.376c.114 1.462.515 4.221.893 6.13.618 3.12.365 3.782-2.484 6.51-4.66 4.462-8.835 6.139-16.33 6.562-9.951.561-18.229-3.103-22.339-9.891-1.508-2.492-2.157-6.001-1.624-7.436l.085-1.571.306-.765c.038-.413.318-1.192.838-2.22 1.229-2.424 1.786-2.834 2.442-1.795.68 1.077.953.961 1.371-.582.296-1.093 2.345-2.756 4.725-3.834 1.869-.847 3.45-1.853 3.997-2.498.287.057.704.09 1.185.111.636.99.885 1.035.895.136 0-.047.018-.076.022-.119 3.19.025 8.233-.383 8.53-.57a.714.714 0 0 1 .353-.11z" fill="#fff" id="germinationOneHourFillSL" stroke="#000" stroke-miterlimit="10" stroke-width=".955"/></g><g id="outlines"><path id="rect3751" stroke-width=".964" fill="#000" d="M48.161 99.589h604.11v18.785H48.161z"/><path id="rect3755" stroke-width="1.041" fill="#fff" d="M261.12 101.39h388.22v14.58H261.12z"/><path id="rect3761" fill="#000" d="M48.161.343h1.319v118.03h-1.319z"/><path id="rect3761-0" fill="#000" d="M259.54-.481h1.319v118.03h-1.319z"/><text id="text3780" style="font-variant-numeric:normal;font-variant-ligatures:normal;font-feature-settings:normal;font-variant-caps:normal;line-height:1.25" x="51.579" y="94.027" xml:space="preserve" word-spacing="0" font-size="16" font-family="sans-serif" fill="#000" letter-spacing="0">
            <tspan id="tspan3778" x="51.579" y="94.027">Stratification</tspan>
        </text><text id="text3780-9" style="font-variant-numeric:normal;font-variant-ligatures:normal;font-feature-settings:normal;font-variant-caps:normal;line-height:1.25" x="263.545" y="92.655" xml:space="preserve" word-spacing="0" font-size="16" font-family="sans-serif" fill="#000" letter-spacing="0">
            <tspan id="tspan3778-9" x="263.545" y="92.655">Light</tspan>
        </text><text id="text3810" style="font-variant-numeric:normal;font-variant-ligatures:normal;font-feature-settings:normal;font-variant-caps:normal;line-height:1.25" x="61.579" y="114.027" xml:space="preserve" word-spacing="0" font-size="12" font-family="sans-serif" fill="#fff" letter-spacing="0">
            <tspan id="tspan3808" x="61.579" y="114.027">0h </tspan>
        </text><text id="text3810-2" style="font-variant-numeric:normal;font-variant-ligatures:normal;font-feature-settings:normal;font-variant-caps:normal;line-height:1.25" x="118.824" y="113.758" xml:space="preserve" word-spacing="0" font-size="12" font-family="sans-serif" fill="#fff" letter-spacing="0">
            <tspan id="tspan3808-5" x="118.824" y="113.758">1h </tspan>
        </text><text id="text3810-7" style="font-variant-numeric:normal;font-variant-ligatures:normal;font-feature-settings:normal;font-variant-caps:normal;line-height:1.25" x="167.245" y="112.705" xml:space="preserve" word-spacing="0" font-size="12" font-family="sans-serif" fill="#fff" letter-spacing="0">
            <tspan id="tspan3808-6" x="167.245" y="112.705">12h </tspan>
        </text><text id="text3810-1" style="font-variant-numeric:normal;font-variant-ligatures:normal;font-feature-settings:normal;font-variant-caps:normal;line-height:1.25" x="220.403" y="113.232" xml:space="preserve" word-spacing="0" font-size="12" font-family="sans-serif" fill="#fff" letter-spacing="0">
            <tspan id="tspan3808-1" x="220.403" y="113.232">48h </tspan>
        </text><text id="text3810-9" style="font-variant-numeric:normal;font-variant-ligatures:normal;font-feature-settings:normal;font-variant-caps:normal;line-height:1.25" x="14.613" y="112.179" xml:space="preserve" word-spacing="0" font-size="12" font-family="sans-serif" fill="#000" letter-spacing="0">
            <tspan id="tspan3808-11" x="14.613" y="112.179">H </tspan>
        </text><text id="text3810-9-3" style="font-variant-numeric:normal;font-variant-ligatures:normal;font-feature-settings:normal;font-variant-caps:normal;line-height:1.25" transform="skewY(-2.578) scale(1.1221 .89115)" x="243.58" y="140.199" xml:space="preserve" word-spacing="0" font-size="13.466" font-family="sans-serif" fill="#000" letter-spacing="0">
            <tspan id="tspan3808-11-2" x="243.58" y="140.199" stroke-width="1.122">1h </tspan>
        </text><text id="text3810-9-3-9" style="font-variant-numeric:normal;font-variant-ligatures:normal;font-feature-settings:normal;font-variant-caps:normal;line-height:1.25" transform="skewY(-2.578) scale(1.1221 .89115)" x="303.848" y="143.124" xml:space="preserve" word-spacing="0" font-size="13.466" font-family="sans-serif" fill="#000" letter-spacing="0">
            <tspan id="tspan3808-11-2-6" x="303.848" y="143.124" stroke-width="1.122">6h </tspan>
        </text><text id="text3810-9-3-9-9" style="font-variant-numeric:normal;font-variant-ligatures:normal;font-feature-settings:normal;font-variant-caps:normal;line-height:1.25" transform="skewY(-2.578) scale(1.1221 .89115)" x="358.249" y="147.261" xml:space="preserve" word-spacing="0" font-size="13.466" font-family="sans-serif" fill="#000" letter-spacing="0">
            <tspan id="tspan3808-11-2-6-9" x="358.249" y="147.261" stroke-width="1.122">12h </tspan>
        </text><text id="text3810-9-3-9-9-1" style="font-variant-numeric:normal;font-variant-ligatures:normal;font-feature-settings:normal;font-variant-caps:normal;line-height:1.25" transform="skewY(-2.578) scale(1.1221 .89115)" x="421.976" y="151.246" xml:space="preserve" word-spacing="0" font-size="13.466" font-family="sans-serif" fill="#000" letter-spacing="0">
            <tspan id="tspan3808-11-2-6-9-8" x="421.976" y="151.246" stroke-width="1.122">24h </tspan>
        </text><text id="text3810-9-3-9-9-9" style="font-variant-numeric:normal;font-variant-ligatures:normal;font-feature-settings:normal;font-variant-caps:normal;line-height:1.25" transform="skewY(-2.578) scale(1.1221 .89115)" x="514.844" y="156.511" xml:space="preserve" word-spacing="0" font-size="13.466" font-family="sans-serif" fill="#000" letter-spacing="0">
            <tspan id="tspan3808-11-2-6-9-0" x="514.844" y="156.511" stroke-width="1.122">48h </tspan>
        </text></g></svg>