<svg version="1.1" id="GuardCellSuspensionCellABAResponseWithROSScavenger_svg" xmlns="http://www.w3.org/2000/svg" x="0" y="0" viewBox="125 175 650 250" xml:space="preserve"><g id="Samples_2_" fill="none"><path d="M242.053 331.191c-.027-.284-.046-.57-.053-.858a7.27 7.27 0 0 0-1.194-3.833c-1.186-6.286-3.785-12.38-5.293-18.727a8.946 8.946 0 0 0-1.235-2.888 21.497 21.497 0 0 0-.219-1.272l-.045-.34a9.004 9.004 0 0 0-1.254-2.662c-.025-.113-.061-.221-.079-.338-.102-.648-.361-1.289-.708-1.899a9.989 9.989 0 0 0-.6-2.495c-.139-1.551-.672-3.094-1.528-4.514-.4-3.114-1.51-6.088-2.206-9.16a4.748 4.748 0 0 0-.73-1.645c-.223-1.371-.972-2.688-2.465-3.644-6.074-3.889-13.407-4.65-20.442-5.084a5.94 5.94 0 0 0-1.318.062 5.277 5.277 0 0 0-1.999-.216 5.34 5.34 0 0 0-1.35-.179c-1.399 0-2.739.144-4.129.363-.064.01-.128.033-.192.048a31.242 31.242 0 0 1-1.55-.381 5.5 5.5 0 0 0-2.788-.01c-.833-.224-1.771-.248-2.803.01-5.473 1.366-10.952 1.432-16.04 3.472-1.186.009-2.277.492-3.149 1.252-.138.018-.275.023-.413.057-2.179.502-4.07 1.762-5.956 2.902-1.653 1.002-2.374 3.039-1.734 4.814-.04.268-.08.533-.08.806 0 .244.024.485.058.728-.087.078-.176.155-.26.237-1.321 1.284-1.706 3.188-1.24 4.88-.158.359-.3.725-.403 1.098a9.286 9.286 0 0 0-.311 1.799c-.284.843-.489 1.738-.677 2.646a6.887 6.887 0 0 0-1.5 4.281c0 .158.004.319.007.481-.137.33-.277.662-.411.994a.024.024 0 0 1-.013-.005c-.011.034-.018.07-.028.104-2.109 5.226-3.699 10.549-4.972 16.062-.023.103-.034.199-.054.3a8.301 8.301 0 0 0-.613 1.367c-.604 1.771-.664 3.729-.855 5.581a4.267 4.267 0 0 1-.019.165c-.033.192-.07.385-.111.575-1.074 1.082-1.565 2.567-1.592 4.097l-.051.076c-1.93 3.296-.774 7.649 2.511 9.577.385.226.777.437 1.167.647.551.803 1.275 1.459 2.167 1.853.231.103.46.208.69.312 1.123 1.373 2.836 2.304 5.148 2.312.775.351 1.549.702 2.328 1.045 1.446.638 2.978.921 4.425.79.691.598 1.544 1.087 2.581 1.416 5.772 1.836 11.517 1.708 17.381 1.614a7.763 7.763 0 0 0 2.146.469c7.879.584 15.694.577 23.52-.64 3.084-.479 6.091-1.024 9.209-1.193 2.514-.136 7.167-2.35 8.271-2.333 2.462.037 4.247-.979 5.365-2.478 1.992-.465 3.872-1.523 5.139-3.08.273-.201.537-.418.779-.659 1.384-1.386 1.911-3.044 2.05-4.95.093-1.271-.089-2.546-.28-3.809z" id="Suspension_cell_culture_control"/><path d="M416.053 331.191c-.026-.284-.046-.57-.053-.858a7.27 7.27 0 0 0-1.194-3.833c-1.186-6.286-3.784-12.38-5.293-18.727a8.945 8.945 0 0 0-1.234-2.888 21.52 21.52 0 0 0-.22-1.272c-.015-.112-.029-.227-.045-.34a8.954 8.954 0 0 0-1.254-2.662c-.024-.113-.061-.221-.079-.338-.102-.648-.36-1.289-.708-1.899a9.989 9.989 0 0 0-.6-2.495c-.139-1.551-.672-3.094-1.528-4.514-.399-3.114-1.51-6.088-2.206-9.16a4.765 4.765 0 0 0-.729-1.645c-.224-1.371-.972-2.688-2.465-3.644-6.074-3.889-13.407-4.65-20.442-5.084a5.94 5.94 0 0 0-1.318.062 5.275 5.275 0 0 0-1.999-.216 5.34 5.34 0 0 0-1.35-.179c-1.399 0-2.739.144-4.129.363-.064.01-.128.033-.192.048a31.518 31.518 0 0 1-1.55-.381 5.5 5.5 0 0 0-2.788-.01c-.833-.224-1.771-.248-2.803.01-5.473 1.366-10.952 1.432-16.04 3.472-1.186.009-2.277.492-3.149 1.252-.138.018-.274.023-.412.057-2.18.502-4.07 1.762-5.956 2.902-1.653 1.002-2.374 3.039-1.734 4.814-.04.268-.08.533-.08.806 0 .244.024.485.058.728-.087.078-.176.155-.26.237-1.32 1.284-1.706 3.188-1.24 4.88-.157.359-.3.725-.402 1.098a9.29 9.29 0 0 0-.312 1.799c-.284.843-.488 1.738-.677 2.646a6.887 6.887 0 0 0-1.5 4.281c0 .158.004.319.007.481-.137.33-.276.662-.411.994a.024.024 0 0 1-.013-.005c-.011.034-.018.07-.028.104-2.108 5.226-3.698 10.549-4.972 16.062-.023.103-.034.199-.054.3a8.301 8.301 0 0 0-.613 1.367c-.604 1.771-.664 3.729-.855 5.581a4.267 4.267 0 0 1-.019.165c-.033.192-.07.385-.111.575-1.073 1.082-1.564 2.567-1.592 4.097l-.051.076c-1.93 3.296-.774 7.649 2.511 9.577.385.226.777.437 1.167.647.551.803 1.275 1.459 2.167 1.853.231.103.46.208.69.312 1.123 1.373 2.836 2.304 5.147 2.312.775.351 1.549.702 2.328 1.045 1.446.638 2.979.921 4.425.79.691.598 1.544 1.087 2.581 1.416 5.772 1.836 11.518 1.708 17.381 1.614a7.763 7.763 0 0 0 2.146.469c7.879.584 15.694.577 23.52-.64 3.084-.479 6.092-1.024 9.209-1.193 2.515-.136 7.167-2.35 8.271-2.333 2.462.037 4.247-.979 5.365-2.478 1.992-.465 3.872-1.523 5.139-3.08.273-.201.537-.418.779-.659 1.384-1.386 1.911-3.044 2.05-4.95.092-1.271-.09-2.546-.281-3.809z" id="Suspension_cell_culture_plus_50_uM_ABA"/><path d="M587.053 331.191c-.026-.284-.047-.57-.053-.858a7.27 7.27 0 0 0-1.194-3.833c-1.186-6.286-3.784-12.38-5.294-18.727a8.944 8.944 0 0 0-1.233-2.888 23.323 23.323 0 0 0-.221-1.272c-.015-.112-.029-.227-.046-.34a8.93 8.93 0 0 0-1.254-2.662c-.024-.113-.061-.221-.079-.338-.102-.648-.36-1.289-.708-1.899a10.033 10.033 0 0 0-.6-2.495c-.14-1.551-.672-3.094-1.528-4.514-.398-3.114-1.511-6.088-2.206-9.16a4.765 4.765 0 0 0-.729-1.645c-.224-1.371-.973-2.688-2.465-3.644-6.074-3.889-13.407-4.65-20.442-5.084a5.94 5.94 0 0 0-1.318.062 5.27 5.27 0 0 0-1.998-.216 5.346 5.346 0 0 0-1.35-.179c-1.4 0-2.739.144-4.129.363-.064.01-.129.033-.193.048a31.8 31.8 0 0 1-1.55-.381 5.5 5.5 0 0 0-2.788-.01c-.833-.224-1.771-.248-2.803.01-5.473 1.366-10.951 1.432-16.039 3.472-1.186.009-2.277.492-3.148 1.252-.139.018-.274.023-.413.057-2.18.502-4.07 1.762-5.955 2.902-1.653 1.002-2.373 3.039-1.734 4.814-.039.268-.08.533-.08.806 0 .244.023.485.059.728-.088.078-.176.155-.261.237-1.321 1.284-1.706 3.188-1.24 4.88-.157.359-.3.725-.402 1.098a9.366 9.366 0 0 0-.312 1.799c-.283.843-.488 1.738-.678 2.646-.936 1.19-1.504 2.679-1.5 4.281.001.158.005.319.008.481-.137.33-.276.662-.411.994a.021.021 0 0 1-.013-.005c-.011.034-.018.07-.028.104-2.108 5.226-3.698 10.549-4.972 16.062-.023.103-.034.199-.054.3a8.297 8.297 0 0 0-.612 1.367c-.604 1.771-.664 3.729-.854 5.581l-.021.165c-.033.192-.07.385-.111.575-1.073 1.082-1.563 2.567-1.592 4.097l-.051.076c-1.93 3.296-.773 7.649 2.512 9.577.385.226.777.437 1.167.647.552.803 1.274 1.459 2.167 1.853.23.103.459.208.689.312 1.123 1.373 2.837 2.304 5.147 2.312.775.351 1.551.702 2.328 1.045 1.446.638 2.979.921 4.427.79.69.598 1.544 1.087 2.58 1.416 5.771 1.836 11.517 1.708 17.381 1.614.647.243 1.36.409 2.146.469 7.879.584 15.694.577 23.521-.64 3.084-.479 6.092-1.024 9.209-1.193 2.514-.136 7.168-2.35 8.271-2.333 2.462.037 4.246-.979 5.365-2.478 1.992-.465 3.871-1.523 5.139-3.08.273-.201.537-.418.779-.659 1.385-1.386 1.911-3.044 2.051-4.95.089-1.271-.093-2.546-.284-3.809z" id="Suspension_cell_culture_plus_5_mM_DMTU"/><path d="M757.053 331.191c-.026-.284-.047-.57-.053-.858a7.27 7.27 0 0 0-1.194-3.833c-1.186-6.286-3.784-12.38-5.294-18.727a8.944 8.944 0 0 0-1.233-2.888 23.323 23.323 0 0 0-.221-1.272c-.015-.112-.029-.227-.046-.34-.271-.973.299-1.854-.254-2.662-.024-.113-.061-.221-.079-.338-.102-.648-.36-1.289-.708-1.899-.094-.856-1.294-1.697-1.6-2.495-.14-1.551.269-2.382-.588-3.802-.403-3.146-2.372-6.449-3.146-9.872a4.765 4.765 0 0 0-.729-1.645c-.224-1.371-.973-2.688-2.465-3.644-6.074-3.889-13.407-4.65-20.442-5.084a5.94 5.94 0 0 0-1.318.062 5.27 5.27 0 0 0-1.998-.216 5.346 5.346 0 0 0-1.35-.179c-1.4 0-2.739.144-4.129.363-.064.01-.129.033-.193.048a31.8 31.8 0 0 1-1.55-.381 5.5 5.5 0 0 0-2.788-.01c-.833-.224-1.771-.248-2.803.01-5.473 1.366-10.951 1.432-16.039 3.472-1.186.009-2.277.492-3.148 1.252-.139.018-.274.023-.413.057-2.18.502-4.07 1.762-5.955 2.902.536-.325-1.896 4.366-1.734 4.814-.039.268-.08.533-.08.806 0 .244.023.485.059.728-.088.078-.176.155-.261.237.783-.761-1.143 5.233-1.24 4.88-.157.359-.3.725-.402 1.098a9.366 9.366 0 0 0-.312 1.799c-.283.843-.488 1.738-.678 2.646-.936 1.19-1.504 2.679-1.5 4.281.001.158.005.319.008.481-.137.33-.276.662-.411.994a.021.021 0 0 1-.013-.005c-.011.034-.018.07-.028.104-1.882 7.259-3.383 12.121-4.972 16.062-.039.097-.034.199-.054.3a8.297 8.297 0 0 0-.612 1.367c-.604 1.771-.664 3.729-.854 5.581l-.021.165c-.033.192-.07.385-.111.575-1.073 1.082-1.563 2.567-1.592 4.097l-.051.076c-1.93 3.296-.773 7.649 2.512 9.577.385.226.777.437 1.167.647.552.803 1.274 1.459 2.167 1.853.23.103.459.208.689.312 1.123 1.373 2.837 2.304 5.147 2.312.775.351 1.551.702 2.328 1.045 1.446.638 2.979.921 4.427.79.69.598 1.544 1.087 2.579 1.416 5.772 1.836 11.518 1.708 17.382 1.614.647.243 1.36.409 2.146.469 7.879.584 15.694.577 23.521-.64 3.084-.479 6.092-1.024 9.209-1.193 2.514-.136 7.168-2.35 8.271-2.333 2.462.037 4.246-.979 5.365-2.478 1.992-.465 3.871-1.523 5.139-3.08.273-.201.537-.418.779-.659 1.385-1.386 1.911-3.044 2.051-4.95.089-1.271-.093-2.546-.284-3.809z" id="Suspension_cell_culture_plus_50_uM_ABA_and_5_mM_DMTU"/></g><g fill="none" stroke="#000" stroke-width=".75" stroke-linecap="round" stroke-linejoin="round" stroke-miterlimit="10" id="Outlines"><path d="M173.35 215.645c0 .669-.054 1.344.008 2.009 1.595 17.269-2.332 33.554-7.91 49.774-5.613 16.323-8.923 33.361-14.452 49.766-1.281 3.802-2.292 7.943-3.264 11.972m199.413-113.521c0 .669-.053 1.344.009 2.009 1.595 17.269-2.332 33.554-7.91 49.774-5.613 16.323-8.923 33.361-14.452 49.766-1.281 3.802-2.292 7.943-3.264 11.972m197.404-113.521c0 .669-.054 1.344.009 2.009 1.595 17.269-2.332 33.554-7.909 49.774-5.613 16.323-8.923 33.361-14.452 49.766-1.281 3.802-2.292 7.943-3.264 11.972m195.393-113.521c0 .669-.054 1.344.008 2.009 1.595 17.269-2.332 33.554-7.909 49.774-5.611 16.323-8.924 33.361-14.452 49.766-1.28 3.802-2.293 7.943-3.264 11.972m86.897-25.116c1.749 8.927 5.339 17.329 7.479 26.134 1.623 6.67.229 8.834-6.453 13.082-4.65 2.959-9.949 3.668-15.092 4.987-10.734 2.753-21.73 3.063-32.638 2.331-7.036-.473-14.346.062-21.108-2.834m-101.965-43.7c1.749 8.927 5.339 17.329 7.48 26.134 1.622 6.67.228 8.834-6.453 13.082-4.651 2.959-9.95 3.668-15.093 4.987-10.734 2.753-21.729 3.063-32.637 2.331-7.036-.473-14.347.062-21.107-2.834m-103.976-43.7c1.748 8.927 5.338 17.329 7.48 26.134 1.623 6.67.228 8.834-6.453 13.082-4.652 2.959-9.951 3.668-15.092 4.987-10.735 2.753-21.731 3.063-32.638 2.331-7.036-.473-14.347.062-21.108-2.834m-105.985-43.7c1.749 8.927 5.339 17.329 7.481 26.134 1.623 6.67.228 8.834-6.453 13.082-4.652 2.959-9.95 3.668-15.092 4.987-10.736 2.753-21.731 3.063-32.637 2.331-7.036-.473-14.347.062-21.109-2.834"/><path d="M730.4 211.626c.997 4.659.723 9.407.417 14.059-.82 12.516 1.372 24.401 5.499 36.209 4.506 12.89 8.082 26.102 12.239 39.118.589 1.846-.039 3.372-.073 5.047m-187.859-94.433c.997 4.659.723 9.407.418 14.059-.821 12.516 1.371 24.401 5.498 36.209 4.506 12.89 8.082 26.102 12.24 39.118.589 1.846-.039 3.372-.074 5.047m-189.869-94.433c.998 4.659.723 9.407.418 14.059-.821 12.516 1.372 24.401 5.499 36.209 4.505 12.89 8.083 26.102 12.24 39.118.589 1.846-.039 3.372-.074 5.047m-191.878-94.433c.998 4.659.723 9.407.418 14.059-.821 12.516 1.372 24.401 5.499 36.209 4.506 12.89 8.083 26.102 12.24 39.118.589 1.846-.038 3.372-.074 5.047m-8.54-29.133c-12.085-5.213-24.846-5.566-37.669-4.96-6.196.293-12.399 1.134-18.072 3.981-1.727.867-3.951 1.688-3.95 3.992.001 2.369 1.792 3.703 3.93 4.537 1.042.405 2.016.987 3.021 1.489m226.536-9.039c-12.086-5.213-24.846-5.566-37.669-4.96-6.196.293-12.4 1.134-18.073 3.981-1.727.867-3.95 1.688-3.95 3.992.002 2.369 1.793 3.703 3.931 4.537 1.042.405 2.016.987 3.02 1.489m224.527-9.039c-12.085-5.213-24.846-5.566-37.669-4.96-6.196.293-12.399 1.134-18.073 3.981-1.727.867-3.95 1.688-3.949 3.992.001 2.369 1.792 3.703 3.931 4.537 1.042.405 2.016.987 3.021 1.489m222.516-9.039c-12.085-5.213-24.847-5.566-37.669-4.96-6.196.293-12.399 1.134-18.072 3.981-1.728.867-3.952 1.688-3.951 3.992.001 2.369 1.793 3.703 3.931 4.537 1.043.405 2.017.987 3.021 1.489M217.05 347.75c-5.904-1.365-11.729.305-17.582.386-8.533.118-17.077-.554-25.616-.889m216.993.503c-5.903-1.365-11.729.305-17.582.386-8.532.118-17.077-.554-25.615-.889m214.984.503c-5.903-1.365-11.729.305-17.582.386-8.532.118-17.077-.554-25.616-.889m212.975.503c-5.904-1.365-11.729.305-17.583.386-8.532.118-17.076-.554-25.615-.889m-464.627-65.299c-6.569 6.065-15.007 6.303-23.115 6.901-6.482.479-13.05-.205-19.58-.371m216.491-6.53c-6.569 6.065-15.008 6.303-23.116 6.901-6.481.479-13.05-.205-19.58-.371m214.482-6.53c-6.568 6.065-15.008 6.303-23.115 6.901-6.481.479-13.05-.205-19.58-.371m212.472-6.53c-6.569 6.065-15.009 6.303-23.115 6.901-6.482.479-13.05-.205-19.58-.371m-486.226 32.65c-1.467-1.37-3.292-.993-5.023-.997-7.367-.018-14.735-.094-22.101.026-4.028.065-7.963 1.532-12.056.971m212.976 0c-1.468-1.37-3.292-.993-5.023-.997-7.367-.018-14.736-.094-22.101.026-4.027.065-7.962 1.532-12.057.971m210.967 0c-1.468-1.37-3.293-.993-5.022-.997-7.367-.018-14.735-.094-22.101.026-4.027.065-7.964 1.532-12.057.971m208.958 0c-1.468-1.37-3.293-.993-5.022-.997-7.366-.018-14.735-.094-22.102.026-4.026.065-7.963 1.532-12.056.971M203.99 208.613c2.548-.317 5.158.625 7.654-1.357 1.078-.856 3.672-.56 4.739 2.205-3.831 3.06-7.805 4.754-12.894 4.809-6.536.07-13.057.606-19.593-.11-2.665-.292-5.355-.356-8.035-.523m201.925-5.024c2.548-.317 5.158.625 7.654-1.357 1.077-.856 3.672-.56 4.738 2.205-3.831 3.06-7.805 4.754-12.894 4.809-6.536.07-13.057.606-19.594-.11-2.665-.292-5.355-.356-8.034-.523m199.916-5.024c2.549-.317 5.158.625 7.652-1.357 1.078-.856 3.674-.56 4.739 2.205-3.831 3.06-7.806 4.754-12.894 4.809-6.536.07-13.058.606-19.594-.11-2.665-.292-5.355-.356-8.034-.523m197.909-5.024c2.55-.317 5.158.625 7.653-1.357 1.078-.856 3.673-.56 4.739 2.205-3.831 3.06-7.807 4.754-12.896 4.809-6.534.07-13.056.606-19.593-.11-2.665-.292-5.354-.356-8.034-.523"/><path d="M211.022 207.608c-3.339-3.028-7.414-1.472-11.045-1.349-5.044.171-10.043.081-15.077.008-4.574-.066-9.326.55-13.54 2.557-.156 2.427.745 4.186 1.991 5.816.974 1.274.936-.538 1.505-.501m209.962-6.531c-3.34-3.028-7.415-1.472-11.045-1.349-5.045.171-10.043.081-15.077.008-4.574-.066-9.327.55-13.54 2.557-.157 2.427.745 4.186 1.99 5.816.975 1.274.937-.538 1.507-.501m207.951-6.531c-3.34-3.028-7.414-1.472-11.046-1.349-5.044.171-10.043.081-15.075.008-4.574-.066-9.326.55-13.54 2.557-.157 2.427.745 4.186 1.99 5.816.975 1.274.937-.538 1.506-.501m205.943-6.531c-3.34-3.028-7.414-1.472-11.046-1.349-5.044.171-10.043.081-15.076.008-4.572-.066-9.327.55-13.54 2.557-.155 2.427.745 4.186 1.99 5.816.975 1.274.937-.538 1.506-.501m-496.272 81.875c-6.359-.402-12.759.76-19.108-.926-3.286-.871-5.579.29-5.05 4.447.273 2.142.048 4.348.048 6.523m197.906-10.044c-6.359-.402-12.76.76-19.109-.926-3.285-.871-5.579.29-5.05 4.447.272 2.142.048 4.348.048 6.523m195.897-10.044c-6.359-.402-12.761.76-19.108-.926-3.286-.871-5.579.29-5.051 4.447.272 2.142.049 4.348.049 6.523m193.888-10.044c-6.358-.402-12.759.76-19.108-.926-3.284-.871-5.578.29-5.051 4.447.273 2.142.05 4.348.05 6.523m6.026-89.409c0 6.195-.03 12.39.012 18.585.025 3.888.085 7.769-1.017 11.553m-168.773-30.138c0 6.195-.031 12.39.011 18.585.026 3.888.085 7.769-1.017 11.553m-170.78-30.138c0 6.195-.031 12.39.011 18.585.026 3.888.084 7.769-1.016 11.553m-172.791-30.138c0 6.195-.031 12.39.012 18.585.026 3.888.084 7.769-1.016 11.553m29.635 81.875c-6.53-.852-13.097-.985-19.575.091-3.388.562-6.717.151-10.061.412m203.432-.503c-6.53-.852-13.096-.985-19.574.091-3.389.562-6.717.151-10.061.412m201.421-.503c-6.529-.852-13.098-.985-19.574.091-3.389.562-6.718.151-10.062.412m199.414-.503c-6.529-.852-13.097-.985-19.574.091-3.39.562-6.717.151-10.062.412m-477.185-113.52v27.124m173.796-27.124v27.124m171.786-27.124v27.124m169.778-27.124v27.124m-65.801 87.4c-1.717 3.238-1.432 5.745 1.401 8.644 4.838 4.945 10.509 7.552 17.184 8.436m-188.363-17.08c-1.717 3.238-1.434 5.745 1.4 8.644 4.837 4.945 10.509 7.552 17.185 8.436m-190.372-17.08c-1.717 3.238-1.433 5.745 1.401 8.644 4.837 4.945 10.509 7.552 17.185 8.436m-192.381-17.08c-1.716 3.238-1.432 5.745 1.401 8.644 4.837 4.945 10.51 7.552 17.184 8.436m28.129-39.181c-5.413 2.197-11.081.908-16.565.715-1.618-.057-3.705-.322-5.536-.715m195.897 0c-5.413 2.197-11.081.908-16.566.715-1.617-.057-3.704-.322-5.536-.715m193.888 0c-5.413 2.197-11.081.908-16.565.715-1.618-.057-3.705-.322-5.536-.715m191.879 0c-5.413 2.197-11.081.908-16.565.715-1.617-.057-3.703-.322-5.535-.715m-473.168 3.516-10.046 1.005m183.842-1.005-10.046 1.005m181.832-1.005-10.046 1.005m179.824-1.005-10.047 1.005m8.54-15.069c-3.084 1.269-6.33.978-9.544 1.006m-160.234-1.006c-3.084 1.269-6.33.978-9.544 1.006m-162.242-1.006c-3.083 1.269-6.331.978-9.544 1.006m-164.252-1.006c-3.083 1.269-6.33.978-9.543 1.006"/></g><g id="Labels"><text transform="translate(174.5 390.5)" font-family="'Helvetica'" font-size="10">Control</text><text transform="translate(347.5 390.5)" font-family="'Helvetica'" font-size="10">50um ABA</text><text transform="translate(513.5 390.5)" font-family="'Helvetica'" font-size="10">5 mM DMTU</text><text transform="translate(686.82 390.5)"><tspan x="0" y="0" font-family="'Helvetica'" font-size="10">50 uM ABA </tspan><tspan x="-1.65" y="12" font-family="'Helvetica'" font-size="10">5 mM DMTU</tspan></text></g></svg>