<svg version="1.1" id="GuardCellSuspensionCellABAResponseWithROSScavenger_svg" x="0" y="0" width="856.8" height="275.8" viewBox="125 175 618.8 114.9" xml:space="preserve" xmlns="http://www.w3.org/2000/svg" author="Provart Lab - Bio Analytic Resource, University of Toronto">
  <g id="Samples_2_" transform="translate(-18 -72)">
    <g id="Suspension_cell_culture_control">
      <path fill="none" d="M242 331v-1l-1-4-5-18-2-3v-2l-1-2v-1l-1-2-1-2-1-5-2-9-1-1c0-2-1-3-3-4a42 42 0 0 0-21-5h-2l-2-1-4 1h-7c-6 1-11 1-16 3l-3 1h-1l-6 3c-1 1-2 3-1 5v2h-1l-1 5a8 8 0 0 0-1 3v2l-2 5v1l-5 16-1 2-1 5a4 4 0 0 1 0 1l-1 4h-1c-1 4 0 8 3 10l1 1 2 1 1 1 5 2 2 1 5 1 2 1c6 2 12 2 18 2h26l9-1 8-3 5-2 6-3v-1c2-1 2-3 2-5v-4z" id="path2"/>
    </g>
    <g id="Suspension_cell_culture_plus_50_uM_ABA">
      <path fill="none" d="M416 331v-1l-1-4-5-18-2-3v-2l-1-2v-1l-1-2-1-2-1-5-2-9-1-1c0-2-1-3-3-4a42 42 0 0 0-21-5h-2l-2-1-4 1h-7c-6 1-11 1-16 3l-3 1h-1l-6 3c-1 1-2 3-1 5v2h-1l-1 5a8 8 0 0 0-1 3v2l-2 5v1l-5 16-1 2-1 5a4 4 0 0 1 0 1l-1 4h-1c-1 4 0 8 3 10l1 1 2 1 1 1 5 2 2 1 5 1 2 1c6 2 12 2 18 2h26l9-1 8-3 5-2 6-3v-1c2-1 2-3 2-5v-4z" id="path5"/>
    </g>
    <g id="Suspension_cell_culture_plus_5_mM_DMTU">
      <path fill="none" d="M587 331v-1l-1-4-5-18-2-3v-2l-1-2v-1l-1-2-1-2-1-5-2-9-1-1c0-2-1-3-3-4a42 42 0 0 0-21-5h-2l-2-1-4 1h-7c-6 1-11 1-16 3l-3 1h-1l-6 3c-1 1-2 3-1 5v2h-1l-1 5a8 8 0 0 0-1 3v2l-2 5v1l-5 16-1 2-1 5v1l-1 4h-1c-1 4 0 8 3 10l1 1 2 1 1 1 5 2a267 267 0 0 0 9 3c6 2 12 2 18 2h26l9-1 8-3 5-2 6-3v-1c2-1 2-3 2-5v-4z" id="path8"/>
    </g>
    <g id="Suspension_cell_culture_plus_50_uM_ABA_and_5_mM_DMTU">
      <path fill="none" d="M757 331v-1l-1-4-5-18-2-3v-5l-1-2-2-2v-4c-1-3-3-6-3-10l-1-1c0-2-1-3-3-4a42 42 0 0 0-21-5h-2l-2-1-4 1h-7c-6 1-11 1-16 3l-3 1h-1l-6 3-1 5v2h-1l-1 5a8 8 0 0 0-1 3v2l-2 5v1l-5 16-1 2-1 5v1l-1 4h-1c-1 4 0 8 3 10l1 1 2 1 1 1 5 2a267 267 0 0 0 9 3c6 2 12 2 18 2h26l9-1 8-3 5-2 6-3v-1c2-1 2-3 2-5v-4z" id="path11"/>
    </g>
  </g>
  <g id="Outlines" transform="translate(-18 -72)">
    <g id="g151" fill="none" stroke="#000" stroke-width=".8" stroke-linecap="round" stroke-linejoin="round" stroke-miterlimit="10">
      <path d="M173 216v2c2 17-2 33-8 49-5 17-8 34-14 50l-3 12" id="path15"/>
      <path d="M347 216v2c2 17-2 33-8 49l-14 50-3 12" id="path17"/>
      <path d="M519 216v2c2 17-2 33-8 49-6 17-9 34-14 50l-4 12" id="path19"/>
      <path d="M689 216v2c1 17-3 33-8 49-6 17-9 34-15 50l-3 12" id="path21"/>
      <path d="m750 304 7 26c2 7 1 9-6 13-5 3-10 4-15 5-11 3-22 3-33 3-7-1-14 0-21-3" id="path23"/>
      <path d="m580 304 8 26c1 7 0 9-7 13-4 3-10 4-15 5-11 3-22 3-32 3-8-1-15 0-22-3" id="path25"/>
      <path d="m408 304 8 26c2 7 0 9-7 13-4 3-9 4-15 5-10 3-21 3-32 3-7-1-15 0-21-3" id="path27"/>
      <path d="M235 304c1 9 5 17 7 26 2 7 0 9-6 13-5 3-10 4-15 5-11 3-22 3-33 3-7-1-14 0-21-3" id="path29"/>
      <path d="m730 212 1 14c-1 12 1 24 5 36l13 39-1 5" id="path31"/>
      <path d="M561 212v14c-1 12 1 24 6 36l12 39v5" id="path33"/>
      <path d="M389 212v14c-1 12 2 24 6 36l12 39v5" id="path35"/>
      <path d="M215 212v14c0 12 2 24 6 36l12 39v5" id="path37"/>
      <path d="M225 277a83 83 0 0 0-56-1c-2 1-4 2-4 4s2 4 4 4l3 2" id="path39"/>
      <path d="M398 277a83 83 0 0 0-55-1c-2 1-4 2-4 4s1 4 4 4l3 2" id="path41"/>
      <path d="M570 277a83 83 0 0 0-56-1c-1 1-4 2-4 4s2 4 4 4l3 2" id="path43"/>
      <path d="M740 277a83 83 0 0 0-56-1c-2 1-4 2-4 4s2 4 4 4l3 2" id="path45"/>
      <path d="M217 348c-6-2-12 0-18 0l-25-1" id="path47"/>
      <path d="M391 348c-6-2-12 0-18 0l-25-1" id="path49"/>
      <path d="M563 348c-6-2-12 0-18 0l-26-1" id="path51"/>
      <path d="M732 348c-5-2-11 0-17 0l-26-1" id="path53"/>
      <path d="M225 282c-7 6-15 6-24 7l-19-1" id="path55"/>
      <path d="M398 282c-6 6-15 6-23 7l-19-1" id="path57"/>
      <path d="M570 282c-6 6-15 6-23 7l-20-1" id="path59"/>
      <path d="M740 282c-7 6-15 6-23 7l-20-1" id="path61"/>
      <path d="m211 321-5-1h-22c-4 0-8 2-12 1" id="path63"/>
      <path d="m385 321-5-1h-22c-4 0-8 2-12 1" id="path65"/>
      <path d="m557 321-5-1h-23c-4 0-7 2-12 1" id="path67"/>
      <path d="m726 321-5-1h-22c-4 0-8 2-12 1" id="path69"/>
      <path d="M204 209c3-1 5 0 8-2 1-1 3 0 4 2-3 4-7 5-13 5h-27" id="path71"/>
      <path d="M378 209c2-1 5 0 7-2 2-1 4 0 5 2-4 4-8 5-13 5h-27" id="path73"/>
      <path d="M550 209c2-1 5 0 7-2 1-1 4 0 5 2-4 4-8 5-13 5h-28" id="path75"/>
      <path d="M719 209c3-1 6 0 8-2 1-1 4 0 5 2-4 4-8 5-13 5h-28" id="path77"/>
      <path d="M211 208c-3-3-7-2-11-2h-15c-5 0-9 1-14 3l2 6c1 1 1-1 2-1" id="path79"/>
      <path d="M385 208c-4-3-8-2-11-2h-15c-5 0-10 1-14 3l2 6c1 1 1-1 2-1" id="path81"/>
      <path d="M557 208c-4-3-8-2-11-2h-16c-4 0-9 1-13 3l2 6c1 1 1-1 1-1" id="path83"/>
      <path d="M726 208c-3-3-7-2-11-2h-15c-4 0-9 1-13 3 0 2 0 4 2 6 1 1 1-1 1-1" id="path85"/>
      <path d="M194 296c-6 0-13 1-19-1-3-1-6 0-5 5v6" id="path87"/>
      <path d="M368 296c-7 0-13 1-19-1-4-1-6 0-5 5v6" id="path89"/>
      <path d="M540 296c-7 0-13 1-20-1-3-1-5 0-5 5v6" id="path91"/>
      <path d="M709 296c-6 0-12 1-19-1-3-1-5 0-5 5v6" id="path93"/>
      <path d="M691 217v18l-1 12" id="path95"/>
      <path d="M521 217v18c0 4 1 8-1 12" id="path97"/>
      <path d="M350 217v18l-1 12" id="path99"/>
      <path d="M176 217v18l-1 12" id="path101"/>
      <path d="M204 329h-29" id="path103"/>
      <path d="M378 329h-29" id="path105"/>
      <path d="M550 329h-30" id="path107"/>
      <path d="M720 329h-30" id="path109"/>
      <path d="M213 216v27" id="path111"/>
      <path d="M387 216v27" id="path113"/>
      <path d="M559 216v27" id="path115"/>
      <path d="M728 216v27" id="path117"/>
      <path d="M663 330c-2 3-2 6 1 9 5 5 10 7 17 8" id="path119"/>
      <path d="M493 330c-2 3-2 6 1 9 5 5 11 7 17 8" id="path121"/>
      <path d="M321 330c-2 3-1 6 1 9 5 5 11 7 18 8" id="path123"/>
      <path d="M147 330c-1 3-1 6 2 9 4 5 10 7 17 8" id="path125"/>
      <path d="M194 308c-5 2-11 1-17 1l-5-1" id="path127"/>
      <path d="M368 308c-6 2-11 1-17 1l-5-1" id="path129"/>
      <path d="M540 308c-6 2-12 1-17 1l-6-1" id="path131"/>
      <path d="M709 308c-5 2-11 1-16 1l-6-1" id="path133"/>
      <path d="m214 312-10 1" id="path135"/>
      <path d="m388 312-10 1" id="path137"/>
      <path d="m560 312-10 1" id="path139"/>
      <path d="m729 312-10 1" id="path141"/>
      <path d="m728 298-10 1" id="path143"/>
      <path d="m558 298-9 1" id="path145"/>
      <path d="m386 298-9 1" id="path147"/>
      <path d="m213 298-10 1" id="path149"/>
    </g>
  </g>
  <g id="Labels" transform="translate(-18 -72)">
    <text transform="translate(175 391)" font-family="Helvetica" font-size="10" id="text154">Control</text>
    <text transform="translate(348 391)" font-family="Helvetica" font-size="10" id="text156">50um ABA</text>
    <text transform="translate(514 391)" font-family="Helvetica" font-size="10" id="text158">5 mM DMTU</text>
    <text transform="translate(687 391)" id="text164"><tspan x="0" y="0" font-family="Helvetica" font-size="10" id="tspan160">50 uM ABA </tspan><tspan x="-1.6" y="12" font-family="Helvetica" font-size="10" id="tspan162">5 mM DMTU</tspan></text>
  </g>
</svg>