<svg xmlns="http://www.w3.org/2000/svg" width="1480.773" height="1584.185" viewBox="0 0 391.788 419.149"><g stroke="#000" stroke-width=".265"><g fill="none"><path d="M125.822 299.783s1.818 5.558 4.157 9.768l2.338 3.007 1.938 1.202.334.134 2.339.267 1.792-.204 1.063-1.252.378-.449s1.536-2.244 1.536-2.953l.354-.142s1.158-2.055.969-3.07l.756-3 .449-1.867s.755-2.292.496-3.071l.661-.59M132.153 316.508l.164-3.95M129.277 311.555s-.3-.935.702-2.004M134.59 313.894s1.229 3.46.965 5.071M138.72 313.957l-.236 4.016M140.161 312.256l.922 3.213M142.051 309.161s.98-.31.969.591M144.225 301.224l1.122-.126"/><path d="M118.219 264.449l.988 7.789 1.417 6.844.669 2.973s.668 5.079 2.305 10.925l2.224 6.803s-1.465-.236 3.354 11.386c0 0 1.276 3.213 2.977 5.34 0 0 1.7 2.929 3.402 2.456 0 0 2.22-.425 2.929-.992 0 0 1.748-.945 2.599-2.504 0 0 2.173-3.402 1.937-5.717 0 0 1.18-3.071 2.268-8.646 0 0 .708-2.835.094-3.544l.992-7.654.614-6.52s.048-10.016-.188-12.993c0 0-.615-9.969-.898-11.434 0 0-1.087-3.968-.898-6.945.614-4.725-.992-9.355-.992-9.355"/><g><path d="M122.763 287.367l-.535.2M123.564 292.846l.702-.467M126.538 299.595l-.716.188M129.244 304.874l-1.17.935M129.01 307.98l1.403-1.703"/></g><g><path d="M142.173 305.442l.847.648M142.674 302.368s.558.557 1.03.439M144.106 297.917l.615.236M145.48 289.64l.894.008M146.256 283.223l.732.165"/></g><g><path d="M121.293 282.055l.534 1.07s.535 3.274.969 4.51l1.47 4.744s2.539 5.312 2.272 7.216l2.171 3.742s.669 1.069.535 1.537l.668.434s.735.568.501.969l1.504 1.202s1.904.301 2.438.936c0 0 1.37.468 2.139-.267l.2.334s2.172-.334 2.907-1.07l.1-.367.835-.468.434-.601 1.203-.534v-1.738s-.167-1.37.501-1.336c0 0 .535-1.57.602-2.973 0 0 .145-.959.83-1.478l.138-2.097s.401-1.136.401-1.971c0 0 .301-1.236 0-1.738l.835-2.472.067-1.27.435-2.438.267-2.673.22-5.658-.473-6.07.827-1.536M121.827 283.124l.995.075M121.293 282.055l1.009-.273M122.892 287.877l.875-.85M124.266 292.379l.918-.297M126.672 296.027l-.897-.095M128.444 299.665s-1.063.354-1.181 1.134M130.112 302.735s-.652.615-1.337.568M130.914 303.704l-1.002 1.604"/><g><path d="M145.996 271.53l-.516-.232M146.469 277.6l-.688-.021M145.58 283.191l.676.032M145.213 285.63l.769.3M144.846 287.969l.701.4M143.81 292.045l.835.066M142.808 294.45s1.077-.559 1.837-.601M143.075 295.82h1.17M140.837 302.953s.796.184 1.336.751M142.474 299.311l.802.084"/></g></g><g><path d="M128.444 299.665s.833 1.266 1.535 1.8c0 0-.034.736.133 1.27l.802.97 1.17.4s1.403.835 2.004.802c0 0 1.971-.134 2.239-.334 0 0 1.67.267 2.171-.034l.167-.334 1.236-.701.936-.551.45-1.203s.519-1.888 1.187-2.439l-.368-.819"/><path d="M131.683 311.856s-.301-2.071.234-4.377c.92-.855.167-3.374.167-3.374l-.167-1.102s-.301-1.103-.735-1.437l-.034-.568-.434-.568.668-.601 1.403-.067.1-.668.468-.2.401-.268.468-.067.935.067.568-.2.668-.134.301.167.702.1.601.435v.668l1.069-.067.601.802.368.133.167.468s.067.769-.3 1.036l-.024 1.481s.803.355.732 1.3c-.283.685.36 1.161.36 1.161l-.434.601s1.09 1.521 1.16 2.726"/><path d="M134.355 308.415s-.3 1.002.167 2.806c.468 1.804.067 2.673.067 2.673M136.694 308.482s.635 2.071.234 5.68M139.6 307.413s.443 1.748.183 5.34M134.279 304.886l.076 3.529M136.327 304.573l.167 3.575M138.665 304.205s-.075.553.48 1.696c.556 1.144.456 1.512.456 1.512M131.917 303.003s1.299-.314 2.244.11l2.173-.07h1.961l1.606-1.01M131.148 300.998s2.54.131 3.037.415l1.795-.142 1.984-.283 1.703-.591M132.785 299.762l1.21.423 1.536-.45 2.466-.073"/><g><path d="M135.157 298.626l.374 1.11.496 1.535.284 1.796.016 1.506M133.996 300.185l.189 1.228-.024 1.7.118 1.773M137.997 299.662l-.033 1.326s.544 1.134.331 2.055c0 0 .032.34.37 1.162"/></g><g><path d="M129.979 301.466l1.203.1M130.714 300.43l-1.16-1.356M131.382 299.829l-1.024-1.25M132.885 299.094s-1.63-.374-2.386-2.618M132.484 297.491l.87 1.402M133.754 298.626s.312-.804-.869-1.205M140.202 300.998l1.086.752M141.137 298.593l-1.102 1.937M139.066 299.595s.457-.143.717-.993M137.997 298.994s.676-.416 1.03-.841M137.396 298.56l.568-1.437M137.429 296.889l-.735 1.57"/></g><g><path d="M133.877 296.523s.571.411.345 2.036M135.366 295.956s.648 1.798.36 2.47M136.854 296.665s-.425.916-.46 1.627"/><path d="M132.956 296.83l.921-.307.638-.26.85-.307.694-.136.795.845.575.224"/></g></g><path d="M145.902 258.962l-.923-.46"/><g><path d="M127.774 110.502l-2.141-.463M126.412 127l-1.044-.061M124.567 144.913l.835-.134M125.019 187.76l-1.321.05M124.8 202.576l-1.102-.267M125.268 220.984l-1.17-.033M124.867 230.54l-.835.3M123.412 238.504l1.322-.381M124.968 242.466l-1.178.1M124.12 247.102l1.081-.026M124.782 251.874l.987-.053M126.003 256.197l-1.032.638M125.255 260.143l1.082-.405M126.72 263.615l-.993.45M125.822 266.521l1.417-.024M126.058 270.065l1.488-.024M127.688 272.616l-1.252.189M126.578 274.222l1.37-.023M126.814 275.829l1.37-.331M127.003 277.033l1.347.142M128.727 278.64l-1.254.275M128.751 280.317l-1.311.101M127.908 281.855l1.032-.168M127.974 283.325l1.226-.102M128.075 284.795l1.432-.131M129.956 287.05l-1.013.217M129.478 289.84l.969-.368M129.845 292.212l1.198-.32M130.594 294.397l.827-.19M125.703 159.58l-1.938-.235M125.535 174.847h-1.703"/><g><path d="M138.862 100.778l1.843-.047M136.093 132.886l1.54.493M139.193 116.842l-1.441-.141M134.556 164.323l1.33-.139M133.62 182.464l1.179-.232M134.422 200.705l1.558.001M135.324 218.245l.94-.483M135.39 227.59l1.098.141M135.224 234.147l.803.34M135.792 240.16l.755.044M135.692 244.905l1.186.024M135.692 249.281l1.57-.334M135.926 254.994l1.436.368M136.828 258.67l1.035.233M137.229 262.779l1.279.482M137.496 266.186l1.437.288M137.897 269.46l1.296.085M138.059 272.758l1.228-.071M138.398 275.273l1.267.13M138.799 277.712l1.244-.182M138.732 280.134l1.642-.006M139.2 281.989l1.387.029M138.899 283.793l1.57.162M139.133 285.897l1.123-.005M138.799 288.604l1.457-.208M139.1 290.107l1.18-.08M139 291.777l1.02-.097M139.1 293.548l1.014-.285M138.632 295.152l1.199.048M134.89 145.848l.9-.138"/></g><g><path d="M127.097 226.054l.095 5.977M127.192 232.03l.33 1.702s.379 2.22 0 4.016c-.566 2.126-.216 3.382-.216 3.382l.334.2s.946 2.276-.235 3.812c0 0 .543.118.637 2.48l-.141 1.323s.614.425.708 1.654l-.33 1.04s.661.755.378 2.03M128.657 253.67l.283 1.748.33 3.213.237 3.732.473 3.544.52 1.748v1.134l.236 3.118.141 1.607.095 1.322.283 1.701.047 1.04.426 2.173-.095.473.236 2.41.378 2.409.048 1.087.52 1.464v2.504M133.877 296.523l-.094-2.22.07-.591-.637-1.181-.142-1.82-.26-.614M127.664 254.308l.444 1.188.468 3.107-.167.902.531 3.07-.07 1.04.448 2.41.024 1.252.17 1.482.032 1.47.368 1.87-.192 1.769.283.803.41 2.774-.055.533.33 1.961s-.023 2.126.567 2.811v.85l.284 2.08.449 2.362.354 1.96M127.617 233.826l-1.512-.33M127.306 241.13l-.681-.004M127.9 248.945l-.944.59M128.279 251.638l-.973.049M128.657 253.67l-.993.638M128.943 255.395l-.835.1M128.576 258.603l.668-.034M129.507 262.363l-.567.213M129.318 266.025l.662-.118M130.5 268.789l-.989-.03M129.912 272.1l.823.067M130.003 274.671l.969.166M131.302 277.577l-.889-.132M130.688 279.94l.945.283M131.255 282.75l.638-.047M131.586 286.2l.709-.071"/><g><path d="M128.409 259.505l-.461-.26M128.87 263.615l-.639.118M128.798 267.395l.544-.118M129.011 270.3l.534-.071M129.176 273.726l.544.142M130.358 277.978l-.52-.023M130.027 280.105l.661-.166M130.358 284.097l.897-.496M130.854 285.916l.614-.307M131.302 288.16l.591-.33"/></g><g><path d="M131.539 290.097l.803-.094.472.094M131.822 292.767l1.394-.236M132.53 294.562l1.253-.26"/></g><g><path d="M129.035 120.622l2.614-.833M127.974 146.049s1.537-.936 2.072.066M127.617 166.688l2.295-.26M126.932 186.225l1.71-1.155M127.546 213.486l2.166-.687M127.381 224.235l1.796-.344M127.192 232.03l1.083.113 1.37-.769"/><g><path d="M128.275 232.143s.4 3.508.2 4.744c-.534 1.503-.133 2.572-.133 2.572l-.11 1.785s.66.709.944 5.055l-.3 1.312s.501.635.501 2.873l.435.635.534 5.112.2 4.209.235.334.267 3.14.042 3.623.425.425.378 3.284.024 2.338.307 1.158-.26 2.008.543 2.22-.023.733.496 4.087-.071 1.323.709 2.598.307 1.134-.26 1.725.614 2.646v.708l.236 2.339M128.231 241.244l-.925-.114M128.042 247.622l.834-.011M128.61 250.599l.767-.115M129.46 260.568l1.087-.128M130.5 267.655l.59-.118M131.917 273.584l-.945.071M131.255 276.537l.709.213M132.484 279.703l-.756.047M132.247 285.042l.662.07M132.814 287.593l.874.19M133.854 293.712l.425.212M133.665 290.57l-.59.141"/><g><path d="M128.342 239.46l1.023.083M129.176 246.3l1.087-.237M129.812 251.119l1.136.1M130.447 256.264l1.233.005M130.78 260.774l1.562-.159M131.048 263.914l1.388.245M131.515 267.962s.992-.567 1.441-.402M131.893 271.246l1.536.094M132.224 274.742l1.44.33M132.507 278.97l1.394-.306M132.98 283.79l1.205-.024M134.279 293.216l.709-.331M133.925 288.845l.921.118"/></g></g></g><g><path d="M129.645 231.374l.2 2.339s.535 3.274.2 4.544l-.68 1.286s1.229 2.362.898 6.52c0 0 .567 1.465.425 2.693-.141 1.229.284 2.315.284 2.315l.472 1.229s-.236 1.323.047 2.22c.284.898.19 1.748.19 1.748l.283.945s-.378 2.08.378 3.402l.378 2.032-.284 1.512.52 3.401.473.898v2.882l.33 1.087-.094 2.646.472 1.795-.236 1.796.236 1.039.567 2.315-.52 1.748.473.803.189 2.457v1.937l.378 1.418-.236 2.504.283.709.095 2.362M132.05 231.909l-.2 6.28s1.136 3.542.133 8.019l.406 1.036v4.914l.425 3.638-.062 1.136.835 4.544-.1 1.303.735 4.777.534 1.77.034 2.673v.902l.534 2.038-.4 1.905.367.701.033 1.938.435 2.172-.268.5.034 2.306.3 1.203-.033 1.336.033 1.27.067 2.271.434 1.103-.3 1.937.033 2.239M131.85 100.145s1.202 12.629-.2 19.644l-1.337 25.992-.401 20.647s-2.004 13.297-1.27 18.642l.134 8.486s.936 1.87.668 13.764l1.47.267s.535-10.022-.334-14.365l.014-2.485s-1.216-15.422.32-20.166l.936-21.85-.134-12.36s1.403-5.814 1.403-13.431l.602-14.232s1.136-6.08.601-8.352M129.444 207.32s.936 4.811-.2 9.02c-.668 2.34-.134 4.21-.134 4.21l.067 3.34s-.334 2.54.267 3.81c.668 1.737.2 3.674.2 3.674M130.914 207.587l.535 6.214-.267 6.482s.4.935.133 2.004c-.267 1.07-.133 2.138-.133 2.138s-.535 2.072.267 3.876c.802 1.804.334 2.94.334 2.94l.267.668"/><g><path d="M129.11 220.55s1.242-.77 2.072-.267M129.645 231.374l2.138-.133M131.444 252.3l.945-.142M130.263 246.063l1.72.145M131.964 257.213l.788-.28M132.72 262.647l.767.132M133.429 268.458l.793-.902M134.988 292.885l1.038.696M134.79 272.901l-1.03-.474M134.137 276.868l.786-.024M134.09 279.514l1.234-.031M134.704 282.018l.787.138M135.525 284.46l-.868.11M134.846 287.026l.898.071M135.224 290.38l.668.161M130.046 238.257l1.804-.067"/></g></g><g><path d="M136.783 108.102l-3.062.596M132.909 122.796l1.952-.123M131.783 148.588l1.031-.42M130.914 170.57l1.286-.291M131.586 190.879l-.992-.142M131.449 213.801s1.13.512 1.838-.386M131.182 224.425l2.058-.048M132.05 231.909s.67.169.575.76l.804-.024"/><g><path d="M132.625 232.669s-.047 3.59.378 5.386c.827 2.22.307 4.157.307 4.157l.26.686-.354 4.323.236 1.44.307 3.639.19 1.582-.142 1.867.378 1.653.52 3.97.283 1.63s-.355 1.37-.024 1.889c.473.756.307 1.56.307 1.56s.378.07.331 1.44l.047 1.536.284.921-.118 1.536.307 1.11.094 1.984.236.85-.141 1.536.425.614-.118 1.063.07 1.134-.047 1.134v1.158l-.212 3.024.354.354.142 1.512-.024.898-.023.732-.118 2.386.354.496-.26 2.292.354.33-.354 2.174M136.854 294.16l-.828-.579M132.384 242.199l.926.013M132.39 247.244l.826-.023M132.814 255.796l.993-.047M133.587 261.476l1.102-.301M134.222 267.556l1.05-1.106M134.756 269.327l.893.1M134.728 272.167l1.087-.283M135.324 274.94l.892.038M135.29 277.545l1.02-.18M135.759 281.655l.906-.228M136.429 285.49l-.604.174M135.838 288.302l1.016-.071M136.327 291.644l.432-.271"/><g><path d="M137.185 283.884l1.08.143M137.185 282.585l.118 2.906M137.93 294.617l-.722-.126M136.783 285.845l.52-.354.828.039M136.925 287.357l1.139.344M136.901 289.081l1.296.09M137.114 291.87l.983.008"/><g><path d="M133.754 252.355l.856-.197M133.948 253.882l.975-.057M134.185 257.402l.992.048M134.988 263.001l1.086-.07M135.602 267.891l1.04-.094M135.933 270.348l1.18-.236M136.122 272.994l.992-.142M136.452 275.829l.944-.355M136.736 277.978l.86-.099M136.618 279.041l1.279-.093M136.689 280.175l1.174-.024M136.665 281.427l1.265-.34M136.641 282.467l.544.118.945-.472M133.57 242.898l.615.047M133.452 248.662l1.087-.024"/></g></g></g></g></g></g><g><path d="M119.207 272.238l.969-.425M120.672 279.041l.638-.118"/></g></g><g fill="#b3ff80"><path d="M136.736 100.023s-.898 5.197.047 8.079c.662 3.213-.472 5.953-.472 5.953s-2.268 2.457-1.323 9.78c.756 3.922-.615 6.567-.615 6.567s-.614 2.457-.661 3.827c0 0 .33 3.213-.283 6.237-.71 3.827-.378 8.93-.378 8.93s-.331 2.362.141 3.543c.85 2.22 0 5.48 0 5.48l.095 6.143s-.662.709-.992 5.528l-.142 5.953s-.85 5.433.094 11.15c0 0-.472-.047-.33 1.512.141 1.56-.331 2.174-.331 2.174l.945 4.535s-.614.803-.047 2.41c.567 1.606.283 4.394.283 4.394s-.283 4.252.756 8.315c0 0 .425 1.843-.236 2.882 0 0 .803 3.166-.047 10.962l.33 1.086s-.283 1.134-.047 1.985c.614 1.795 0 3.402 0 3.402l-.095 1.795.237.992s.189 3.638.52 5.292l.047 3.827v.614s-.048 1.937.472 4.82c0 0-.472 1.417-.047 2.929l-.047 1.039.33 1.748.19.992.047 2.552.566 1.559s.52 2.93.331 3.921c0 0 .52 3.166.567 4.867l.284 1.086.189 1.229-.048 1.323.048 1.417s.283.756.283 1.56l-.002 1.062.401 1.069-.2 1.336s.534.468.3 1.07l.1.835-.133.367.067.936.267 1.002.267.868s.134.702-.2 1.07l-.134 1.503v.601l-.067 1.57.167.802-.033.668.067 1.37-.167 1.337.033 2.305-.2.434s.167 1.27-.501 2.272l.534.234.668-1.971-.033-1.036.501-.568s-.4-1.203-.1-1.77l-.134-1.27.234-.401-.3-1.503-.134-2.473.467-.234-.066-1.97-.067-.803.2-1.135-.5-.97.033-1.002.066-2.305-.4-1.136s-.134-.935 0-1.303l-.268-.768s-.1-.869-.1-1.637v-.768l-.033-.802-.1-1.838-.368-.835-.034-2.439-.434-2.84.167-.567s.067-1.07-.367-1.838c-.435-.768-.368-1.704-.368-1.704l.334-.568s-1.069-.902-.768-1.57c.534-1.17.2-1.704.2-1.704l-.334-.4s-.467-2.506-.367-3.542l.133-2.172-.1-1.169s-.501-2.84.1-3.207c0 0 .2-1.103-.367-1.336 0 0-.287-3.452.468-3.408l-.802-1.07.133-3.34s-.701-1.036.1-1.604l-.033-4.71s-.84-1.517.199-1.848c0 0-.543-.992-.59-1.795 0 0 .659-1.77.19-4.041-.6-2.305.335-3.508.335-3.508s-1.37-1.27-.601-3.174c.835-2.572-.268-4.21-.268-4.21s-1.17-7.216-.033-10.156c0 0-.869-3.675-.969-5.044 0 0-.568-6.515-.234-8.32 0 0-.1-4.576.401-4.877 0 0-.969-4.51-.668-6.28 0 0 .167-8.253 1.303-11.427l.3-.434s.568-4.042.067-7.15c-1.069-2.572-.234-4.91-.234-4.91l-.066-2.907s-.268-2.572.568-3.508c0 0-1.103-7.584 0-11.626 0 0 .367-1.437 1.202-1.336 0 0-.735-5.279.501-7.785 1.303-2.74.535-7.15.535-7.15s.009-1.132.623-1.25c0 0-.685-1.796-.307-2.504 0 0 1.843-5.67 1.418-13.419l-.473-.614M138.598 294.116l-.467.067M138.866 290.508l-.602.033M138.799 288.604l-.568-.1M138.665 286.131l-.534-.601M139 283.124l-.535-.167M138.699 281.02l-.769.067M137.997 279.784l.768-.067M137.796 276.543l.602.033M137.329 274.472l.802.033M137.067 271.435l.963-.204M136.925 268.883l.604-.258M137.061 263.347l-.987-.417M136.494 259.237l-.75-.228M135.13 254.898l.796.096M135.491 251.453l-.834-.335M134.704 248.19l.888-.078M134.222 243.602l1.102-.033M134.99 239.092l-.805-.163M133.665 233.637l1.559-.07M134.799 225.794l-1.229-.33M134.456 210.862l-.957-.092M133.429 195.438l-.898-.024M132.247 187.193l.972.149M132.153 176.043l.8.14M133.287 164.562l1.269-.239M133.05 149.396l1.272-.04M133.712 134.23l1.228-.166M136.31 114.055l1.135.142"/><g><path d="M128.308 100.145s-.801 6.348-.066 8.62l-.468 1.737s.601 2.138-.267 3.942c0 0 .668 6.481-.067 10.357 0 0-.106 1.656-1.028 2.2 0 0 1.3 0-.07 3.685 0 0-1.134 1.512-.048 4.819 1.087 3.307.048 6.473.048 6.473l-.94 2.801s1.403.267.835 4.844c0 0-1.804 1.003-.835 4.711.969 3.708.3 5.245.3 5.245s1.738-.802.802 3.642c0 0-1.136 6.748-.601 9.555 0 0 .668 1.77-.367 2.07 0 0 1.035 1.003.2 2.64-.635 1.604-.134 2.506-.134 2.506s-.158 2.24.173 4.036c0 0 .564 3.683-.756 3.732 0 0 1.018 3.157.55 6.33 0 0-.668 4.51-.267 8.018l-.501.468s.835 1.704 1.069 4.01c0 0 1.035 7.215-.167 11.759 0 0-.401.568-.234 1.503.167.936-.2 1.136-.2 1.136s.367 2.038-.201 3.642c-.401.935-.267 1.77-.267 1.77s-.268 1.437.033 2.406c.468 1.17.033 1.737.033 1.737s.668 0 .401 4.143c0 0-.802 1.236-.534 3.441 0 0 .668.134.534 1.804 0 0 .1 2.238-.3 2.54 0 0 .6.868.367 1.436 0 0 .768 1.436.134 2.572l-.268.602s.635-.067.401 2.104c0 0 .334 1.504.167 2.64l.501 1.135.034 2.306-.3.935.567 1.036s-.4.935-.234 2.505c0 0 .301 1.404.802 2.072 0 0-.018 1.073-.42 1.805 0 0 .45.048.402.402 0 0-.165 1.087.354 1.89l-.236.59s-.047 1.087.425 1.418c0 0-.472.709-.023 1.866l-.095.26s.071 1.346.615 1.913l-.473.662.567 1.063-.307.52.496.897s-.307.024-.26.402l.59.921s-.472.142-.424.756l.425.355-.048 1.11.26.26v1.086l-.236.331.33 1.205-.14.165.377.922-.118.614.472.803-.165.638.543 1.11s-.236.638-.094 1.276l.425.756.213 1.748s.141 1.512.472 1.866l-.023.473s.496.992.378 2.315c0 0 .283.26.212.685l.85 2.598.402-.07.071-.591s-.638-1.205-.638-1.866l.213-.402s-.78-.874-.709-1.795l-.142-1.205-.141-1.465-.237-.307v-1.63l-.283-.449-.165-1.795-.166-.236-.33-1.583-.213-1.63-.165-.945.047-1.417-.355-1.205.166-.945-.307-.567-.118-1.063-.307-1.158.07-1.44-.141-2.032s.07-1.938-.307-1.89l-.024-2.15.094-.26s0-1.96-.33-1.937l-.236-1.725s.212-2.386-.26-2.173l-.024-2.197s0-2.173-.307-2.268l-.284-1.748.308-1.04s-.024-1.44-.284-1.606l.024-.874s.118-1.748-.19-2.031l-.26-.26-.14-2.717.07-1.654-.26-4.04-.425-.802s.992-3.922-.213-5.528l-.047-8.032s.496-.898 1.158-.709c0 0 .496-.473.283-1.82 0 0 .33-1.086-.094-2.621-.426-1.536-.071-2.693-.071-2.693s.827-.733.094-1.276c0 0 .331-3.496.236-4.158 0 0 .686-6.52-.637-6.945 0 0-1.016-5.032-.331-7.394.685-2.363.402-3.544.402-3.544s.165-1.346-.567-1.606c0 0 .826-3.45.52-7.772 0 0-.26-1.914-.072-2.717.71-1.937-.33-3.496-.33-3.496l.472-3.591s.945-3.307.236-7.418c-.141-1.984.378-2.315.378-2.315l-.094-3.354s.85-3.308-.095-7.04c-.945-3.733-.047-6.426-.047-6.426l.756-3.638s.614-3.874-.142-4.394c0 0 .945-2.882-.141-6.52-.52-5.103.85-10.442.85-10.442s-.142-4.11.567-6.803c0 0-.094-6.71.567-8.41 0 0 .236-.709-.236-.709 0 0 1.275-8.032.52-8.835M128.242 108.765l1.36.187M127.44 124.8l1.264.074M126.436 142.025l1.56-.189M127.381 149.868l-1.144-.245M123.832 174.847h1.704M125.602 179.992l.929.02M127.523 163.334l-1.134-.142M126.412 193.997l-1.015.094M126.908 206.54l-1.18.214M125.703 218.345s1.11.369 1.607-.701M125.94 226.763l-1.14-.366M125.268 234.682l.72.113M125.268 239.927l.932.396M126.885 245.165s-.514-1.93-1.55-1.262M125.469 246.475l1.345.344M125.602 249.181l1.354.355M126.27 252.956l1.111-.255M126.304 255.262l1.053.085M126.571 257.233l1.07-.138M127.14 261.81l.832-.25M127.14 264.249l1.091-.516M127.475 265.907l.993-.449M127.664 267.915l1.04-.26M128.728 269.805l-1.087-.024M128.16 271.954l.875-.26M128.255 273.679l.921.047M128.444 275.096l.661.071M128.775 276.42l.638-.095M128.775 277.53l.756-.142M128.727 278.64l.945.26M128.987 279.986l1.04.119M129.082 281.522h.898M129.318 282.609l.761-.186M129.672 284.026l.686.07M130.05 285.774l.804.142M130.381 287.806l.638-.095M131.302 289.79l-.855-.318M131.066 291.42l.59.118M131.633 294.893l.685.07"/></g></g><g fill="#0a0"><path d="M145.414 100.011s-.067 3.876-1.003 5.814c0 0-1.202 7.684-1.202 9.42 0 0-1.27.469-1.003 2.674 0 0 .814 6.388-.037 10.074-1.512 1.984-.661 3.118-.661 3.118s-1.89.662-1.134 4.158c0 0-2.079 15.402.189 19.56l-.85.567s1.133 3.118-.379 6.142c-1.511 3.024-.378 5.292-.378 5.292s-1.511 11.906 0 13.701c0 0-1.228 6.143-.283 12.38 0 0-.473 9.449 1.795 15.402 0 0-.661.378-.189 2.457.473 2.078-.189 3.307-.189 3.307s-1.134 5.67 0 11.245c1.04 1.606.473 2.456.473 2.456l.189 1.323s-1.04.85-.378 3.591c.661 2.74.189 3.685.189 3.685l.283.945-.283 5.009v1.606s-.756.661-.19 2.93l.379 4.063-1.04 1.133 1.701 3.686-.661 1.134.945 3.638-.567.661.614 1.654v1.795l-.094 2.315.377.52s-.377.52-.33 1.37l.567.473s-.331.283-.331.945l.283.803s-.425.189-.425.708c0 0 1.181 1.087 1.134 1.512 0 0-.614.71-.567.993 0 0-.283.283.19 1.039.566 1.087-.095 1.606-.095 1.606s.897.71.567 1.465l-.804.756s.567.661.567 1.323c0 0-.047 1.087-.425 1.181l.662 1.276-.615 1.134.284.85-.19 1.56-.283.188v1.276l.095 1.37-.473.284-.566 1.464.236 1.229-.378.992v1.512l.047 1.559-.472.378-.426 1.512.858.369.97-.1s.5-.97.5-1.938l.468-.735-.267-1.37 1.002-2.405s.367-1.637.2-2.54l.836-1.536-.234-1.77.601-.569-.033-1.036s-.134-1.135.4-1.403l-.467-.367-.067-2.573s.468-.701.334-2.271l.401-.401s-.4.3-.735-4.644c0 0-.134-.835.434-1.637l-.233-1.904s.701-1.17.167-2.038c0 0 .267-2.172-.435-2.072l.167-2.405-.234-2.339.067-2.038-.802-2.606s.134-2.84-.233-4.443l-.2-7.383s.667-1.27.2-6.014c0 0 1.532-10.278.21-10.278 0 0 .472-4.44-.85-8.504 0 0 .377-8.126-.851-10.489 0 0 .378-8.315.094-12 0 0 1.701-8.789-.85-16.16 0 0 1.795-6.52 1.323-10.015 0 0 1.89-12.568 1.04-15.025 0 0 .685-12.276.017-17.889 0 0 .401-1.87 1.738-.467 1.47 1.47 2.94-.2 2.94-.2s-.802-2.874-2.673-3.876l-1.203-1.804s.668-3.007.134-6.682c0 0-.334-4.944.467-7.483 0 0 2.005-4.544 1.203-8.887 0 0-1.403-4.01 3.274-1.804l18.375 6.681s6.348 1.604.735-2.004l-18.642-6.749s-2.606-1.202-2.673-4.21M143.209 115.246s1.472-.556 2.271 1.938M141.508 131.111s1.834-.597 3.371.238M140.563 154.83s1.808-.6 3.496.755M138.956 180.531s1.276-1.275 2.74.095M140.468 208.313s.804-.709 1.985.472M140.563 227.778h3.59M140.846 237.322s2.415-.61 3.098.734M143.743 244.07s-1.249-1.368-3.18-.133M140.752 250.93s3.259-.279 3.192.523M141.413 255.749l2.765.147M141.697 260.52l3.216.02M141.744 262.836l3.402.043M141.705 265.017l3.274.267M145.414 267.356l-3.386.11M142.264 269.309l2.983.084M142.217 271.057l3.263.24M142.925 273.277l2.121-.342M143.02 278.38l2.36-.4M142.774 280.485l2.272-.234M143.02 282.916l2.093-.092M142.689 284.9l2.49-.306M142.5 286.46l2.112-.262M144.01 289.506l-1.699-.212M143.81 292.045l-2.302.226M142.808 294.45l-1.704.501M141.177 296.334l1.43.22"/><g><path d="M122.42 100.023s.756 14.174-.661 22.584c0 0 1.039.661.094 1.323 0 0-1.228 1.606-.661 6.142.567 4.535-1.134 10.677-1.134 10.677s.85 13.986.472 22.868l-.189 13.04s-1.323 4.63-.945 17.104l.095 5.764s-.378 4.724.378 13.607c0 0 0 2.457.472 5.48 0 0 .756 4.442 0 5.67-.756 1.229.378 6.048.378 6.048s0 4.913-.661 5.008c0 0 .756.567.472 3.874 0 0 .473 3.78-.756 4.725 0 0 1.418 1.417.85 3.024l.379 4.441.189.756v4.347s.283 2.834.472 3.496l-.189 1.795s.85.567.945 1.418c0 0-.378 3.402.284 3.402 0 0 0 3.118.661 3.401 0 0 .189 1.323-.661 1.701 0 0 1.039.85 1.039 1.323 0 0 .567 1.607-.189 2.362l.945 2.552.283.283v1.985l.284.85.378 1.796.567.566.189 1.04-.567 1.134 1.04.85v.756s.377 1.985.85 2.174l-.19.78.355.354s.024 1.346.567 1.724c0 0 .449.33.213 1.63l.212.33.095.828s.661.708.543 1.44l.213.095-.024.614s1.063.804.85 1.394l-.85.142.047.354s-.708.213-1.11.59c0 0-.827-2.22-.827-2.834l-.945-.803.213-.59-.449-1.371-.638-1.7-.614-.284s.189-2.93-1.347-4.442c0 0 0-3.33-1.015-4.44 0 0 .189-.804-.52-1.418l.094-1.3-1.086-1.559.307-.637s-.567-1.205-.662-2.245c0 0-.85-.047-.637-3.756 0 0-.763-1.555-.629-3.96 0 0-.334-2.072-.267-4.21 0 0-.735-.267-1.203.334 0 0-.735-2.74-1.002-6.28l-.2-6.081s-.736-6.415-.535-8.085c0 0 .735-3.34.133-5.48-.668-1.202-.066-2.004-.066-2.004s-.869-2.071-.2-8.485c0 0-.402-2.54.333-6.816.735-4.276.2-6.815.2-6.815s-.267-.468.602-.668c0 0-2.873-7.818-1.136-19.31 0 0 0-3.742.267-12.028.268-8.285-.066-11.425-.066-11.425s.066-3.14 1.002-6.148c0 0 1.136-5.813 0-9.688l.267-6.548s-.735-4.277-.267-8.018c0 0-.468-7.083.802-9.221 0 0-3.341-1.67-14.5 4.477 0 0-7.617 1.336-1.069-2.874 0 0 12.83-3.474 15.435-5.545 0 0 0-4.344 1.27-5.145 0 0 1.135-19.845.6-22.117M119.489 122.262s.9-.742 2.27.345M117.55 140.57l2.508.18M120.53 163.286s-2.51.289-2.98 1.538M119.396 193.95l-3.048.474M117.484 213.735l2.385-.603M120.357 228.134s-2.572-1.002-4.009-.1M120.058 235.338s-2.407-.021-3.51 1.181M119.774 243.937s-3.058-.903-3.292.066M117.016 252.088s2.293-2.408 3.987-.686M121.192 257.2s-2.572 2.004-3.975.901M121.475 261.796s-1.72.682-2.053 2.319M122.704 266.616s-2.414.84-3.015 1.708M122.704 271.718l-2.386.567M120.955 276.041s1.586.094 2.599-.638M121.617 278.286l2.882-.331M122.396 280.483l2.386-.26M122.822 283.2l2.622-.331M123.564 285.697l2.069-.088M123.837 287.64l2.968.295M124.968 290.007l2.366.161M128.175 292.312s-2.014-.629-2.377.053M126.304 293.882l2.164-.005M128.775 295.035s-1.008.552-1.89.401M127.617 296.83s1.402.63 1.89 1.89M128.576 297.423l.931-.239"/></g></g><g fill="#80ff80"><path d="M145.414 100.011s-.067 3.876-1.003 5.814c0 0-1.202 7.684-1.202 9.42 0 0-1.27.469-1.003 2.674 0 0 .814 6.388-.037 10.074-1.512 1.984-.661 3.118-.661 3.118s-1.89.662-1.134 4.158c0 0-2.079 15.402.189 19.56l-.85.567s1.133 3.118-.379 6.142c-1.511 3.024-.378 5.292-.378 5.292s-1.511 11.906 0 13.701c0 0-1.228 6.143-.283 12.38 0 0-.473 9.449 1.795 15.402 0 0-.661.378-.189 2.457.473 2.078-.189 3.307-.189 3.307s-1.134 5.67 0 11.245c1.04 1.606.473 2.456.473 2.456l.189 1.323s-1.04.85-.378 3.591c.661 2.74.189 3.685.189 3.685l.283.945-.283 5.009v1.606s-.756.661-.19 2.93l.379 4.063-1.04 1.133 1.701 3.686-.661 1.134.945 3.638-.567.661.614 1.654v1.795l-.094 2.315.377.52s-.377.52-.33 1.37l.567.473s-.331.283-.331.945l.283.803s-.425.189-.425.708c0 0 1.181 1.087 1.134 1.512 0 0-.614.71-.567.993 0 0-.283.283.19 1.039.566 1.087-.095 1.606-.095 1.606s.897.71.567 1.465l-.804.756s.567.661.567 1.323c0 0-.047 1.087-.425 1.181l.662 1.276-.615 1.134.284.85-.19 1.56-.283.188v1.276l.095 1.37-.473.284-.566 1.464.236 1.229-.378.992v1.512l.047 1.559-.472.378-.426 1.512v0l-.496.378-.756-.45s.402-.353.402-.779c0-.425.401-.661.401-.661V295.2s.048-.378.284-.33l-.071-1.253.07-.354-.094-1.583.378-.378-.118-1.276.095-.543-.118-1.087s.07-.425.307-.425l.118-1.181-.425-.898.708-1.559-.496-.378.118-1.937.119-.307s.094-.685-.166-.992c-.26-.307-.165-.59-.165-.59l.567-1.206-.898-1.393s.402-.142.354-.71c0 0-.165-.779-.732-1.417 0 0 .756-.26.709-.78 0 0-.567-.14-.662-.92-.094-.78-.425-1.016-.425-1.016l.614-.827s.024-.402-.165-.662-.024-.78-.024-.78l-.52-.873.473-.59s-.047-.568-.283-1.158c-.237-.59-.071-.874-.071-.874l-.378-.45s.07-1.133.449-1.464l-.874-1.748s-.024-1.654.401-2.173c0 0 .257-.548-.277-1.116-.535-.568-.769-1.069-.769-1.069l.401-1.804-.902-1.737.334-3.374s.067-2.64-.434-3.04l-.006-2.46s-.19-1.512-.378-1.559l.094-3.26-.425-1.465s-.236-.52.142-.992.378-1.134.378-1.134l-.047-1.7-.993-1.89s2.032-2.93 1.182-5.245c-.2-1.01-.483-1.214-.72-1.512 0 0 2.043-1.984-.225-9.969 0 0 1.393-.094.85-3.969 0 0-.803-.756-.472-8.93 0 0 .472-.495-.26-1.606-.756-1.44-.402-2.551-.402-2.551s-.945-7.04-.212-7.536c0 0 .26-2.599-.402-5.882-.661-3.284-.614-4.654-.614-4.654s-.284-13.111 1.323-16.23l-.19-2.22.379-9.402s-.898-6.662-.473-9.072c0 0-1.086-7.134 1.796-10.063l.047-2.268s1.653-10.725 1.086-14.552l.473-.85v-1.135s3.402-15.497 1.512-16.11l.33-.615M142.075 118.118s-1.319-.852-2.882-.142M137.586 135.647s1.49-1.27 2.788-.378M139.712 155.396s-1.507-.901-3.449-.614M136.074 166.405s1.637-.51 2.882.425M135.767 193.17s.874-.496 2.906-.26M140.09 214.077s-1.559-.614-2.976-.284M140.752 229.101s-1.701-1.937-3.544.142M140.563 236.377s-1.56-1.653-3.544 0M136.972 241.67s3.15-1.407 3.59 2.267M140.374 246.866s-2.123-.866-3.118-.378M139.712 252.063l-2.016-.075M138.264 257.1l2.488-.217M141.13 261.182l-2.22-.094M139.382 265.01l2.323.007M139.31 266.923l2.34.023M141.697 268.836l-2.032.118M141.933 270.254s-1.7 1.039-2.22.165M141.791 271.765l-1.89.095M142.358 274.27l-1.984.354M142.453 276.915l-2.055-.094M142.217 279.136l-1.276-.213M142.358 281.64l-1.653.071M142.406 284.05l-1.442.283M140.681 286.79l1.536-.142M142.217 287.924l-1.654.047M140.374 289.483l1.937-.189M141.272 291.042l-.874.26M140.114 293.263h1.016M140.114 294.87l.99.081M140.705 296.712h-.874"/><g><path d="M122.42 100.023s.756 14.174-.661 22.584c0 0 1.039.661.094 1.323 0 0-1.228 1.606-.661 6.142.567 4.535-1.134 10.677-1.134 10.677s.85 13.986.472 22.868l-.189 13.04s-1.323 4.63-.945 17.104l.095 5.764s-.378 4.724.378 13.607c0 0 0 2.457.472 5.48 0 0 .756 4.442 0 5.67-.756 1.229.378 6.048.378 6.048s0 4.913-.661 5.008c0 0 .756.567.472 3.874 0 0 .473 3.78-.756 4.725 0 0 1.418 1.417.85 3.024l.379 4.441.189.756v4.347s.283 2.834.472 3.496l-.189 1.795s.85.567.945 1.418c0 0-.378 3.402.284 3.402 0 0 0 3.118.661 3.401 0 0 .189 1.323-.661 1.701 0 0 1.039.85 1.039 1.323 0 0 .567 1.607-.189 2.362l.945 2.552.283.283v1.985l.284.85.378 1.796.567.566.189 1.04-.567 1.134 1.04.85v.756s.377 1.985.85 2.174l-.19.78.355.354s.024 1.346.567 1.724c0 0 .449.33.213 1.63l.212.33.095.828s.661.708.543 1.44l.213.095.968-.094s-.094-1.465.095-2.08l-.378-.33-.37-1.854-.235-.2-.334-1.304.2-.868-.634-.769-.267-1.336.367-.468-.935-1.503.067-.97-.167-.333.066-1.136-.066-1.47-.735-1.27.267-.167.033-1.503-.635-.768s.301-.167.167-.97l-.191-1.348-.472-.142s-.237-.756.236-1.465c0 0-.331-.897-.142-1.417l-.378-.284s-.614-1.18 0-2.456l-.567-.615s-.142-2.173.33-2.929l-.472-.236s-.378-2.22.378-2.22c0 0-.945-.899-.945-1.418-.425-2.126.473-2.504.473-2.504l-.662-.756s-.236-1.985.378-2.552c-.803-.378-.85-1.37-.85-1.37s-.898-2.551.661-3.59l-.425-.379s-2.315-3.212-.236-4.393l-.567-.567s.472-1.087-.047-1.843c-.615-1.229.283-2.126.283-2.126s.236-.945-.047-1.37c-.709-.993-.52-1.749-.52-1.749l.19-.944s-.568-3.213-.143-7.04l.762-.624s-1.804-4.811-.267-8.686l.334-1.203-.401-1.27s-.4-2.605.067-3.608c.468-2.004-.468-4.276-.468-4.276s.468-5.011-.134-6.214c-.6-1.203.535-3.274.535-3.274s-.134-1.537-1.27-2.54c0 0 1.404-2.405.87-6.28-.602-3.274.4-5.68.4-5.68l.2-8.619s.268-1.67-.534-1.804c0 0 .869-.802.468-2.54l.133-6.08s.936-4.677-.067-7.416l-.133-2.005s1.203-4.81.133-5.011l.669-9.421-.401-5.88s-.936-3.742.2-6.882c1.136-3.14 1.002-5.212 1.002-5.212s.735-8.553.2-8.62l.402-7.884.133-10.156M122.184 118.024s2.234-1.251 3.385.295M120.53 138.67s2.83-.834 3.636.363M123.898 154.334s-2.14-.97-3.32.023M123.364 177.386s-.991-1.201-3.023-.729M119.49 199.525s1.53-1.022 2.938.245M120.341 218.943s1.787-.565 3.357.738M123.27 231.464s-.418-1.544-2.55-1.134M120.53 239.212l2.633.147M123.79 242.567l1.178-.1M123.554 246.536s-1.927-.693-2.93.425M121.192 252.158s1.252-2.122 3.165-.662M124.12 255.465s-2.395.01-2.928 1.04M124.593 259.387s-1.655 1.31-2.929.614M122.42 263.214s1.576-.833 2.362-.567M125.35 266.285s-1.37-.41-2.646.33M125.491 269.45l-2.126.567M123.743 273.041s.065-.9 2.315-.52M123.865 276.175s2.004-.63 2.477-.488M124.782 278.238l2.056-.091M125.066 281.073s1.338-.888 2.107-.488M126.01 283.435s1.13-.945 1.964-.11M127.908 284.46l-1.708.015M126.672 286.46l1.336-.696M126.672 287.215l1.904.52M127.523 289.389l1.32-.318M127.688 290.523l1.59.185M128.175 292.312l1.67-.1M128.68 294.208l1.536-.142"/></g></g></g><g fill="none" stroke="#000" stroke-width=".265"><path d="M185.957 299.783s1.819 5.558 4.158 9.768l2.338 3.007 1.938 1.202.334.134 2.339.267 1.792-.204 1.063-1.252.378-.449s1.535-2.244 1.535-2.953l.355-.142s1.157-2.055.968-3.07l.756-3 .45-1.867s.755-2.292.495-3.071l.662-.59M192.289 316.508l.164-3.95M189.413 311.555s-.3-.935.701-2.004M194.725 313.894s1.23 3.46.965 5.071M198.856 313.957l-.236 4.016M200.297 312.256l.921 3.213M202.187 309.161s.98-.31.968.591M204.36 301.224l1.122-.126"/><path d="M178.355 264.449l.988 7.789 1.417 6.844.668 2.973s.668 5.079 2.305 10.925l2.224 6.803s-1.464-.236 3.355 11.386c0 0 1.276 3.213 2.977 5.34 0 0 1.7 2.929 3.401 2.456 0 0 2.221-.425 2.93-.992 0 0 1.748-.945 2.598-2.504 0 0 2.174-3.402 1.937-5.717 0 0 1.182-3.071 2.268-8.646 0 0 .709-2.835.095-3.544l.992-7.654.614-6.52s.047-10.016-.189-12.993c0 0-.614-9.969-.898-11.433 0 0-1.086-3.97-.897-6.946.614-4.725-.992-9.355-.992-9.355"/><g><path d="M182.898 287.367l-.534.2M183.7 292.846l.702-.467M186.673 299.595l-.716.188M189.38 304.874l-1.17.935M189.146 307.98l1.403-1.703"/></g><g><path d="M202.309 305.442l.846.648M202.81 302.368s.558.557 1.03.439M204.242 297.917l.614.236M205.616 289.64l.894.008M206.392 283.223l.732.165"/></g><g><path d="M181.428 282.055l.535 1.07s.534 3.274.969 4.51l1.47 4.744s2.539 5.312 2.271 7.216l2.172 3.742s.668 1.069.535 1.537l.668.434s.735.568.5.969l1.504 1.202s1.905.301 2.439.936c0 0 1.37.468 2.138-.267l.2.334s2.172-.334 2.907-1.07l.1-.367.836-.468.434-.601 1.203-.534v-1.738s-.167-1.37.5-1.336c0 0 .535-1.57.602-2.973 0 0 .146-.959.831-1.478l.138-2.097s.4-1.136.4-1.971c0 0 .302-1.236 0-1.738l.836-2.472.067-1.27.434-2.438.268-2.673.22-5.658-.473-6.07.827-1.536M181.963 283.124l.994.075M181.428 282.055l1.01-.273M183.028 287.877l.874-.85M184.402 292.379l.918-.297M186.808 296.027l-.898-.095M188.58 299.665s-1.063.354-1.182 1.134M190.248 302.735s-.653.615-1.338.568M191.05 303.704l-1.002 1.604"/><g><path d="M206.132 271.53l-.516-.232M206.604 277.6l-.687-.021M205.716 283.191l.676.032M205.349 285.63l.768.3M204.981 287.969l.702.4M203.946 292.045l.835.066M202.943 294.45s1.077-.559 1.838-.601M203.21 295.82h1.17M200.972 302.953s.797.184 1.337.751M202.61 299.311l.801.084"/></g></g><g><path d="M188.58 299.665s.833 1.266 1.535 1.8c0 0-.034.736.133 1.27l.802.97 1.17.4s1.402.835 2.004.802c0 0 1.97-.134 2.238-.334 0 0 1.67.267 2.172-.034l.167-.334 1.236-.701.935-.551.451-1.203s.518-1.888 1.186-2.439l-.367-.819"/><path d="M191.818 311.856s-.3-2.071.234-4.377c.921-.855.167-3.374.167-3.374l-.167-1.102s-.3-1.103-.735-1.437l-.033-.568-.435-.568.669-.601 1.403-.067.1-.668.468-.2.4-.268.468-.067.936.067.568-.2.668-.134.3.167.702.1.602.435v.668l1.069-.067.601.802.368.133.167.468s.066.769-.301 1.036l-.024 1.481s.804.355.733 1.3c-.284.685.36 1.161.36 1.161l-.434.601s1.09 1.521 1.16 2.726"/><path d="M194.491 308.415s-.3 1.002.167 2.806c.468 1.804.067 2.673.067 2.673M196.83 308.482s.634 2.071.234 5.68M199.736 307.413s.443 1.748.183 5.34M194.415 304.886l.076 3.529M196.462 304.573l.167 3.575M198.8 304.205s-.074.553.481 1.696c.555 1.144.455 1.512.455 1.512M192.052 303.003s1.3-.314 2.245.11l2.173-.07h1.96l1.607-1.01M191.284 300.998s2.54.131 3.036.415l1.796-.142 1.984-.283 1.703-.591M192.92 299.762l1.211.423 1.536-.45 2.466-.073"/><g><path d="M195.293 298.626l.374 1.11.496 1.535.283 1.796.016 1.506M194.131 300.185l.19 1.228-.024 1.7.118 1.773M198.133 299.662l-.033 1.326s.543 1.134.33 2.055c0 0 .032.34.37 1.162"/></g><g><path d="M190.115 301.466l1.202.1M190.85 300.43l-1.16-1.356M191.518 299.829l-1.025-1.25M193.021 299.094s-1.63-.374-2.386-2.618M192.62 297.491l.869 1.402M193.89 298.626s.312-.804-.87-1.205M200.338 300.998l1.085.752M201.273 298.593l-1.102 1.937M199.202 299.595s.457-.143.717-.993M198.133 298.994s.676-.416 1.03-.841M197.531 298.56l.568-1.437M197.565 296.889l-.735 1.57"/></g><g><path d="M194.013 296.523s.57.411.344 2.036M195.501 295.956s.648 1.798.36 2.47M196.99 296.665s-.426.916-.461 1.627"/><path d="M193.092 296.83l.921-.307.638-.26.85-.307.694-.136.795.845.575.224"/></g></g><path d="M206.037 258.962l-.922-.46"/><g><path d="M187.91 110.502l-2.142-.463M186.548 127l-1.044-.061M184.702 144.913l.836-.134M185.154 187.76l-1.32.05M184.936 202.576l-1.102-.267M185.404 220.984l-1.17-.033M185.003 230.54l-.835.3M183.548 238.504l1.321-.381M185.103 242.466l-1.177.1M184.257 247.103l1.08-.026M184.918 251.874l.987-.053M186.139 256.197l-1.032.638M185.39 260.143l1.083-.405M186.855 263.615l-.992.45M185.957 266.521l1.418-.024M186.194 270.065l1.488-.024M187.824 272.616l-1.252.189M186.713 274.222l1.37-.023M186.95 275.829l1.37-.331M187.139 277.033l1.346.142M188.863 278.64l-1.254.275M188.887 280.317l-1.312.101M188.043 281.855l1.033-.168M188.11 283.325l1.226-.102M188.21 284.795l1.433-.131M190.092 287.05l-1.013.217M189.613 289.84l.97-.368M189.98 292.212l1.198-.32M190.73 294.397l.826-.19M185.838 159.58l-1.938-.235M185.671 174.847h-1.704"/><g><path d="M198.998 100.778l1.842-.047M196.228 132.886l1.541.493M199.328 116.842l-1.44-.141M194.691 164.323l1.33-.139M193.756 182.464l1.178-.232M194.558 200.705l1.558.001M195.46 218.245l.94-.483M195.525 227.59l1.098.141M195.36 234.147l.803.34M195.928 240.16l.755.044M195.827 244.905l1.186.024M195.827 249.281l1.57-.334M196.061 254.994l1.437.368M196.963 258.67l1.036.233M197.364 262.779l1.28.482M197.631 266.186l1.438.288M198.032 269.46l1.296.085M198.194 272.758l1.229-.071M198.533 275.273l1.268.13M198.934 277.712l1.245-.182M198.868 280.134l1.642-.006M199.335 281.989l1.387.029M199.035 283.793l1.569.162M199.268 285.897l1.123-.005M198.934 288.604l1.457-.208M199.235 290.107l1.18-.08M199.135 291.777l1.02-.097M199.235 293.548l1.015-.285M198.767 295.152l1.2.048M195.026 145.848l.9-.138"/></g><g><path d="M187.233 226.054l.095 5.977M187.328 232.03l.33 1.702s.378 2.22 0 4.016c-.567 2.126-.216 3.382-.216 3.382l.334.2s.945 2.276-.236 3.812c0 0 .544.118.638 2.48l-.142 1.323s.615.425.709 1.654l-.33 1.04s.66.755.377 2.03M188.792 253.67l.284 1.748.33 3.213.237 3.732.472 3.544.52 1.748v1.134l.236 3.118.142 1.607.094 1.323.284 1.7.047 1.04.425 2.173-.094.473.236 2.41.378 2.409.047 1.087.52 1.464v2.504M194.013 296.523l-.094-2.22.07-.591-.637-1.181-.142-1.82-.26-.614M187.8 254.308l.444 1.188.467 3.107-.167.902.532 3.07-.071 1.04.449 2.41.023 1.252.17 1.482.033 1.47.368 1.87-.193 1.769.284.803.41 2.774-.056.533.33 1.961s-.023 2.126.568 2.811v.85l.283 2.08.45 2.362.354 1.96M187.753 233.826l-1.512-.33M187.442 241.13l-.681-.004M188.036 248.945l-.945.59M188.414 251.638l-.972.049M188.792 253.67l-.992.638M189.079 255.395l-.835.1M188.711 258.603l.669-.034M189.643 262.363l-.567.213M189.454 266.025l.661-.118M190.635 268.789l-.988-.03M190.048 272.1l.823.067M190.139 274.671l.968.166M191.438 277.577l-.89-.132M190.824 279.94l.945.283M191.39 282.75l.639-.047M191.722 286.2l.708-.071"/><g><path d="M188.544 259.505l-.46-.26M189.005 263.615l-.638.118M188.934 267.395l.543-.118M189.147 270.3l.533-.071M189.312 273.726l.543.142M190.493 277.978l-.52-.023M190.162 280.105l.662-.166M190.493 284.097l.898-.496M190.99 285.916l.613-.307M191.438 288.16l.59-.33"/></g><g><path d="M191.674 290.097l.804-.094.472.094M191.958 292.767l1.394-.236M192.667 294.562l1.252-.26"/></g><g><path d="M189.17 120.622l2.615-.833M188.11 146.049s1.537-.936 2.071.066M187.753 166.688l2.295-.26M187.068 186.225l1.71-1.155M187.682 213.486l2.165-.687M187.517 224.235l1.796-.344M187.328 232.03l1.083.113 1.37-.769"/><g><path d="M188.41 232.143s.402 3.508.201 4.744c-.534 1.503-.134 2.572-.134 2.572l-.11 1.785s.662.709.945 5.055l-.3 1.312s.501.635.501 2.873l.434.635.535 5.112.2 4.209.234.334.268 3.14.042 3.623.425.425.378 3.284.023 2.338.307 1.158-.26 2.008.544 2.22-.024.733.496 4.087-.07 1.323.708 2.598.307 1.134-.26 1.725.615 2.646v.708l.236 2.339M188.367 241.244l-.925-.114M188.178 247.622l.834-.011M188.745 250.599l.768-.115M189.595 260.568l1.087-.128M190.635 267.655l.59-.118M192.052 273.584l-.945.071M191.39 276.537l.71.213M192.62 279.703l-.757.047M192.383 285.042l.662.07M192.95 287.593l.874.19M193.99 293.712l.425.212M193.8 290.57l-.59.142"/><g><path d="M188.477 239.46l1.024.083M189.312 246.3l1.087-.237M189.947 251.119l1.136.1M190.582 256.264l1.234.005M190.916 260.774l1.562-.159M191.184 263.915l1.388.244M191.65 267.962s.993-.567 1.442-.402M192.029 271.246l1.535.094M192.36 274.742l1.44.33M192.643 278.97l1.394-.306M193.115 283.79l1.205-.024M194.415 293.216l.708-.331M194.06 288.845l.922.118"/></g></g></g><g><path d="M189.78 231.374l.2 2.339s.535 3.274.201 4.544l-.68 1.286s1.228 2.362.898 6.52c0 0 .567 1.465.425 2.693-.142 1.229.283 2.315.283 2.315l.473 1.229s-.236 1.323.047 2.22c.284.898.19 1.748.19 1.748l.283.945s-.378 2.08.378 3.402l.378 2.032-.284 1.512.52 3.401.472.898v2.882l.331 1.087-.095 2.646.473 1.795-.236 1.796.236 1.039.567 2.315-.52 1.748.473.803.189 2.457v1.937l.378 1.418-.237 2.504.284.709.094 2.362M192.186 231.909l-.2 6.28s1.135 3.542.133 8.019l.406 1.036v4.914l.425 3.638-.063 1.136.836 4.544-.1 1.303.734 4.777.535 1.77.033 2.673v.902l.535 2.038-.401 1.905.367.701.034 1.938.434 2.172-.267.5.033 2.306.301 1.203-.033 1.336.033 1.27.067 2.271.434 1.103-.3 1.937.033 2.239M191.985 100.145s1.203 12.629-.2 19.644l-1.336 25.992-.401 20.647s-2.005 13.297-1.27 18.642l.134 8.486s.935 1.87.668 13.764l1.47.267s.534-10.022-.334-14.365l.013-2.485s-1.216-15.422.32-20.166l.936-21.85-.133-12.36s1.403-5.814 1.403-13.431l.601-14.232s1.136-6.08.602-8.352M189.58 207.32s.935 4.811-.2 9.02c-.669 2.34-.134 4.21-.134 4.21l.067 3.34s-.334 2.54.267 3.81c.668 1.737.2 3.674.2 3.674M191.05 207.587l.534 6.214-.267 6.482s.401.935.134 2.004c-.267 1.07-.134 2.138-.134 2.138s-.534 2.072.267 3.876c.802 1.804.335 2.94.335 2.94l.267.668"/><g><path d="M189.246 220.55s1.242-.77 2.071-.267M189.78 231.374l2.139-.133M191.58 252.3l.945-.142M190.399 246.063l1.72.145M192.1 257.213l.787-.28M192.856 262.647l.766.132M193.564 268.458l.793-.902M195.123 292.885l1.038.696M194.925 272.901l-1.03-.474M194.273 276.868l.786-.024M194.226 279.514l1.234-.031M194.84 282.018l.787.138M195.66 284.46l-.867.11M194.982 287.026l.897.071M195.36 290.38l.668.161M190.181 238.257l1.804-.067"/></g></g><g><path d="M196.919 108.102l-3.063.596M193.045 122.796l1.951-.123M191.919 148.588l1.031-.42M191.05 170.57l1.286-.291M191.722 190.879l-.993-.142M191.584 213.801s1.13.512 1.838-.386M191.317 224.425l2.058-.048M192.186 231.909s.67.169.575.76l.803-.024"/><g><path d="M192.761 232.669s-.047 3.59.378 5.386c.827 2.22.307 4.157.307 4.157l.26.686-.354 4.323.236 1.44.307 3.639.189 1.582-.142 1.867.378 1.653.52 3.97.283 1.63s-.354 1.37-.023 1.889c.472.756.307 1.56.307 1.56s.378.07.33 1.44l.048 1.536.283.921-.118 1.536.307 1.11.095 1.984.236.85-.142 1.536.426.614-.119 1.063.071 1.134-.047 1.134v1.158l-.213 3.024.355.354.142 1.512-.024.898-.024.732-.118 2.386.354.496-.26 2.292.355.33-.354 2.174M196.99 294.16l-.829-.579M192.52 242.199l.926.013M192.525 247.244l.827-.023M192.95 255.796l.992-.047M193.723 261.476l1.102-.301M194.357 267.556l1.05-1.106M194.892 269.327l.893.1M194.864 272.167l1.086-.283M195.46 274.94l.892.038M195.426 277.545l1.02-.18M195.894 281.655l.907-.228M196.564 285.49l-.603.174M195.974 288.302l1.016-.071M196.462 291.644l.433-.271"/><g><path d="M197.32 283.884l1.08.143M197.32 282.585l.118 2.906M198.066 294.617l-.722-.126M196.919 285.845l.52-.354.827.039M197.06 287.357l1.14.344M197.037 289.081l1.296.09M197.25 291.87l.983.008"/><g><path d="M193.89 252.355l.855-.197M194.084 253.882l.975-.057M194.32 257.402l.992.048M195.123 263.001l1.087-.07M195.738 267.891l1.039-.094M196.068 270.348l1.182-.236M196.257 272.994l.993-.142M196.588 275.829l.943-.355M196.872 277.978l.86-.099M196.753 279.041l1.28-.093M196.824 280.175l1.175-.024M196.8 281.427l1.266-.34M196.777 282.467l.543.118.945-.472M193.706 242.898l.614.047M193.588 248.662l1.087-.024"/></g></g></g></g></g></g><g><path d="M179.343 272.238l.968-.425M180.808 279.041l.637-.118"/></g></g><g fill="#b3ff80" stroke="#000" stroke-width=".265"><path d="M196.872 100.023s-.898 5.197.047 8.079c.661 3.213-.473 5.953-.473 5.953s-2.268 2.457-1.323 9.78c.756 3.922-.614 6.567-.614 6.567s-.614 2.457-.661 3.827c0 0 .33 3.213-.284 6.237-.708 3.827-.378 8.93-.378 8.93s-.33 2.362.142 3.543c.85 2.22 0 5.48 0 5.48l.094 6.143s-.661.709-.992 5.528l-.141 5.953s-.85 5.433.094 11.15c0 0-.472-.047-.33 1.512.141 1.56-.331 2.174-.331 2.174l.945 4.535s-.615.803-.048 2.41c.567 1.606.284 4.394.284 4.394s-.284 4.252.756 8.315c0 0 .425 1.843-.237 2.882 0 0 .804 3.166-.047 10.962l.331 1.086s-.284 1.134-.047 1.985c.614 1.795 0 3.402 0 3.402l-.095 1.795.236.992s.19 3.638.52 5.292l.047 3.827v.614s-.047 1.937.473 4.82c0 0-.473 1.417-.047 2.929l-.048 1.039.331 1.748.19.992.046 2.552.567 1.559s.52 2.93.331 3.921c0 0 .52 3.166.567 4.867l.284 1.086.189 1.229-.048 1.323.048 1.417s.283.756.283 1.56l-.002 1.062.401 1.069-.2 1.336s.534.468.3 1.07l.1.835-.133.367.067.936.267 1.002.267.868s.134.702-.2 1.07l-.134 1.503v.601l-.067 1.57.167.802-.033.668.067 1.37-.167 1.337.033 2.305-.2.434s.167 1.27-.501 2.272l.534.234.668-1.971-.033-1.036.501-.568s-.4-1.203-.1-1.77l-.134-1.27.234-.401-.3-1.503-.134-2.473.467-.234-.066-1.97-.067-.803.2-1.135-.5-.97.033-1.002.066-2.305-.4-1.136s-.134-.935 0-1.303l-.268-.768s-.1-.869-.1-1.637v-.768l-.033-.802-.1-1.838-.368-.835-.034-2.439-.434-2.84.167-.567s.067-1.07-.367-1.838c-.435-.768-.368-1.704-.368-1.704l.334-.568s-1.069-.902-.768-1.57c.534-1.17.2-1.704.2-1.704l-.334-.4s-.467-2.506-.367-3.542l.133-2.172-.1-1.169s-.501-2.84.1-3.207c0 0 .2-1.103-.367-1.336 0 0-.287-3.452.468-3.408l-.802-1.07.133-3.34s-.701-1.036.1-1.604l-.033-4.71s-.84-1.517.199-1.848c0 0-.543-.992-.59-1.795 0 0 .659-1.77.19-4.041-.6-2.305.335-3.508.335-3.508s-1.37-1.27-.601-3.174c.835-2.572-.268-4.21-.268-4.21s-1.169-7.216-.033-10.156c0 0-.869-3.675-.969-5.044 0 0-.568-6.515-.234-8.32 0 0-.1-4.576.401-4.877 0 0-.969-4.51-.668-6.28 0 0 .167-8.253 1.303-11.426l.3-.435s.568-4.042.067-7.15c-1.069-2.572-.234-4.91-.234-4.91l-.066-2.907s-.268-2.572.568-3.508c0 0-1.103-7.584 0-11.626 0 0 .367-1.437 1.202-1.336 0 0-.735-5.279.501-7.785 1.303-2.74.535-7.15.535-7.15s.01-1.132.623-1.25c0 0-.685-1.796-.307-2.504 0 0 1.843-5.67 1.418-13.419l-.473-.614M198.734 294.116l-.468.067M199.001 290.508l-.601.033M198.934 288.604l-.568-.1M198.8 286.131l-.534-.601M199.135 283.124l-.535-.167M198.834 281.02l-.768.067M198.133 279.784l.768-.067M197.932 276.543l.601.033M197.464 274.472l.802.033M197.202 271.435l.964-.204M197.06 268.883l.605-.258M197.197 263.347l-.987-.417M196.63 259.237l-.75-.228M195.265 254.898l.796.096M195.627 251.453l-.834-.334M194.84 248.19l.887-.078M194.357 243.602l1.103-.033M195.126 239.092l-.806-.163M193.8 233.637l1.56-.07M194.934 225.794l-1.228-.33M194.591 210.862l-.956-.092M193.564 195.438l-.897-.024M192.383 187.193l.972.149M192.289 176.043l.799.14M193.422 164.562l1.27-.239M193.186 149.396l1.272-.04M193.848 134.23l1.228-.166M196.446 114.055l1.134.142"/><g><path d="M188.444 100.145s-.802 6.348-.067 8.62l-.467 1.737s.6 2.138-.268 3.942c0 0 .668 6.481-.067 10.357 0 0-.106 1.656-1.027 2.2 0 0 1.3 0-.07 3.685 0 0-1.135 1.512-.048 4.819s.047 6.473.047 6.473l-.94 2.801s1.404.267.836 4.844c0 0-1.804 1.003-.835 4.711.968 3.708.3 5.245.3 5.245s1.737-.802.802 3.642c0 0-1.136 6.748-.601 9.555 0 0 .668 1.77-.368 2.07 0 0 1.036 1.003.2 2.64-.634 1.604-.133 2.506-.133 2.506s-.159 2.24.172 4.036c0 0 .565 3.683-.756 3.732 0 0 1.018 3.157.55 6.33 0 0-.668 4.51-.267 8.018l-.5.468s.834 1.704 1.068 4.01c0 0 1.036 7.215-.167 11.759 0 0-.4.568-.234 1.503.167.936-.2 1.136-.2 1.136s.367 2.038-.2 3.642c-.401.935-.268 1.77-.268 1.77s-.267 1.437.034 2.406c.467 1.17.033 1.737.033 1.737s.668 0 .4 4.143c0 0-.8 1.236-.534 3.441 0 0 .669.134.535 1.804 0 0 .1 2.238-.3 2.54 0 0 .6.868.367 1.436 0 0 .768 1.436.133 2.572l-.267.602s.635-.067.401 2.104c0 0 .334 1.504.167 2.64l.501 1.135.034 2.306-.301.935.568 1.036s-.401.935-.234 2.505c0 0 .3 1.404.802 2.072 0 0-.018 1.073-.42 1.805 0 0 .449.048.402.402 0 0-.166 1.087.354 1.89l-.236.59s-.047 1.087.425 1.418c0 0-.472.709-.024 1.866l-.094.26s.07 1.346.614 1.913l-.472.662.567 1.063-.307.52.496.897s-.307.024-.26.402l.59.921s-.472.142-.425.756l.425.355-.047 1.11.26.26v1.086l-.236.331.33 1.205-.141.165.378.922-.118.614.472.803-.165.638.543 1.11s-.236.638-.094 1.276l.425.756.212 1.748s.142 1.512.473 1.866l-.024.473s.496.992.378 2.315c0 0 .284.26.213.685l.85 2.598.402-.07.07-.591s-.637-1.205-.637-1.866l.213-.402s-.78-.874-.71-1.795l-.14-1.205-.143-1.465-.236-.307v-1.63l-.283-.449-.166-1.795-.165-.236-.33-1.583-.213-1.63-.166-.945.047-1.417-.354-1.205.165-.945-.307-.567-.118-1.063-.307-1.158.071-1.44-.142-2.032s.071-1.938-.307-1.89l-.023-2.15.094-.26s0-1.96-.33-1.937l-.237-1.725s.213-2.386-.26-2.173l-.023-2.197s0-2.173-.308-2.268l-.283-1.748.307-1.04s-.024-1.44-.283-1.606l.023-.874s.118-1.748-.189-2.031l-.26-.26-.141-2.717.07-1.654-.26-4.04-.425-.802s.993-3.922-.212-5.528l-.047-8.032s.496-.898 1.157-.709c0 0 .496-.473.284-1.82 0 0 .33-1.086-.095-2.621-.425-1.536-.07-2.693-.07-2.693s.826-.733.094-1.276c0 0 .33-3.496.236-4.158 0 0 .685-6.52-.638-6.945 0 0-1.016-5.032-.33-7.394.684-2.363.401-3.544.401-3.544s.165-1.346-.567-1.606c0 0 .827-3.45.52-7.772 0 0-.26-1.914-.071-2.717.709-1.937-.33-3.496-.33-3.496l.472-3.591s.945-3.307.236-7.418c-.142-1.984.378-2.315.378-2.315l-.095-3.354s.85-3.308-.094-7.04c-.945-3.733-.047-6.426-.047-6.426l.756-3.638s.614-3.874-.142-4.394c0 0 .945-2.882-.142-6.52-.52-5.103.85-10.442.85-10.442s-.141-4.11.567-6.803c0 0-.094-6.71.567-8.41 0 0 .237-.709-.236-.709 0 0 1.276-8.032.52-8.835M188.377 108.765l1.36.187M187.575 124.8l1.265.074M186.572 142.025l1.559-.189M187.517 149.868l-1.144-.245M183.967 174.847h1.704M185.738 179.992l.928.02M187.658 163.334l-1.134-.142M186.548 193.997l-1.016.094M187.044 206.54l-1.181.214M185.838 218.345s1.11.369 1.608-.701M186.076 226.763l-1.14-.366M185.404 234.682l.719.113M185.404 239.927l.931.396M187.02 245.165s-.514-1.93-1.55-1.262M185.604 246.475l1.346.344M185.738 249.181l1.353.355M186.406 252.956l1.11-.255M186.44 255.262l1.053.085M186.707 257.233l1.07-.138M187.275 261.81l.832-.25M187.275 264.249l1.092-.516M187.611 265.907l.992-.449M187.8 267.915l1.04-.26M188.863 269.805l-1.087-.024M188.296 271.954l.874-.26M188.39 273.679l.922.047M188.58 275.096l.661.071M188.91 276.42l.638-.095M188.91 277.53l.756-.142M188.863 278.64l.945.26M189.123 279.986l1.04.119M189.218 281.522h.897M189.454 282.609l.76-.186M189.808 284.026l.685.071M190.186 285.774l.803.142M190.517 287.806l.638-.095M191.438 289.79l-.856-.318M191.202 291.42l.59.118M191.769 294.893l.685.07"/></g></g><g fill="#0a0" stroke="#000" stroke-width=".265"><path d="M205.55 100.011s-.068 3.876-1.003 5.814c0 0-1.203 7.684-1.203 9.42 0 0-1.27.469-1.002 2.674 0 0 .813 6.388-.037 10.074-1.512 1.984-.662 3.118-.662 3.118s-1.89.662-1.133 4.158c0 0-2.08 15.402.189 19.56l-.85.567s1.133 3.118-.379 6.142c-1.512 3.024-.378 5.292-.378 5.292s-1.512 11.906 0 13.701c0 0-1.228 6.143-.283 12.38 0 0-.473 9.449 1.795 15.402 0 0-.661.378-.189 2.457.473 2.078-.189 3.307-.189 3.307s-1.134 5.67 0 11.245c1.04 1.606.473 2.456.473 2.456l.189 1.323s-1.04.85-.378 3.591c.661 2.74.189 3.685.189 3.685l.283.945-.283 5.009v1.606s-.756.661-.19 2.93l.379 4.063-1.04 1.133 1.701 3.686-.661 1.134.944 3.638-.567.661.615 1.654v1.795l-.095 2.315.378.52s-.378.52-.33 1.37l.566.473s-.33.283-.33.945l.283.803s-.425.189-.425.708c0 0 1.181 1.087 1.134 1.512 0 0-.614.71-.567.993 0 0-.284.283.189 1.039.567 1.087-.095 1.606-.095 1.606s.898.71.567 1.465l-.803.756s.567.661.567 1.323c0 0-.047 1.087-.425 1.181l.661 1.276-.614 1.134.284.85-.19 1.56-.283.188v1.276l.095 1.37-.473.284-.567 1.464.236 1.229-.378.992v1.512l.048 1.559-.473.378-.425 1.512.858.369.969-.1s.501-.97.501-1.938l.468-.735-.268-1.37 1.003-2.405s.367-1.637.2-2.54l.835-1.536-.233-1.77.6-.569-.033-1.036s-.133-1.135.401-1.403l-.467-.367-.067-2.573s.468-.701.334-2.271l.4-.401s-.4.3-.734-4.644c0 0-.134-.835.434-1.637l-.234-1.904s.702-1.17.167-2.038c0 0 .268-2.172-.434-2.072l.167-2.405-.234-2.339.067-2.038-.802-2.606s.134-2.84-.234-4.443l-.2-7.383s.668-1.27.2-6.014c0 0 1.533-10.278.21-10.278 0 0 .473-4.44-.85-8.504 0 0 .378-8.126-.85-10.489 0 0 .377-8.315.094-12 0 0 1.7-8.789-.85-16.16 0 0 1.795-6.52 1.322-10.015 0 0 1.89-12.568 1.04-15.025 0 0 .686-12.276.018-17.889 0 0 .4-1.87 1.737-.467 1.47 1.47 2.94-.2 2.94-.2s-.802-2.874-2.673-3.876l-1.202-1.804s.668-3.007.133-6.682c0 0-.334-4.944.468-7.483 0 0 2.005-4.544 1.203-8.887 0 0-1.403-4.01 3.274-1.804l18.375 6.681s6.347 1.604.735-2.004l-18.642-6.749s-2.606-1.202-2.673-4.21M203.344 115.246s1.473-.556 2.272 1.938M201.643 131.111s1.835-.597 3.372.238M200.699 154.83s1.807-.6 3.496.755M199.092 180.531s1.276-1.275 2.74.095M200.604 208.313s.803-.709 1.984.472M200.699 227.778h3.59M200.982 237.322s2.415-.61 3.097.734M203.879 244.07s-1.25-1.368-3.18-.133M200.888 250.93s3.258-.279 3.191.523M201.549 255.749l2.764.147M201.832 260.52l3.216.02M201.88 262.836l3.402.043M201.841 265.017l3.274.267M205.55 267.356l-3.387.11M202.4 269.309l2.982.085M202.352 271.057l3.264.24M203.06 273.277l2.122-.342M203.155 278.38l2.36-.4M202.91 280.485l2.272-.234M203.155 282.916l2.094-.092M202.825 284.9l2.49-.306M202.636 286.46l2.112-.262M204.146 289.506l-1.7-.212M203.946 292.045l-2.303.226M202.943 294.45l-1.703.501M201.313 296.334l1.43.22"/><g><path d="M182.556 100.023s.756 14.174-.662 22.584c0 0 1.04.661.095 1.323 0 0-1.229 1.606-.662 6.142.567 4.535-1.134 10.677-1.134 10.677s.85 13.986.473 22.868l-.19 13.04s-1.322 4.63-.944 17.104l.094 5.764s-.378 4.724.378 13.607c0 0 0 2.457.473 5.48 0 0 .756 4.442 0 5.67-.756 1.229.378 6.048.378 6.048s0 4.914-.662 5.008c0 0 .756.567.473 3.874 0 0 .472 3.78-.756 4.725 0 0 1.417 1.417.85 3.024l.378 4.441.19.756v4.347s.283 2.834.472 3.496l-.19 1.795s.851.567.946 1.418c0 0-.378 3.402.283 3.402 0 0 0 3.118.662 3.401 0 0 .189 1.323-.662 1.701 0 0 1.04.85 1.04 1.323 0 0 .567 1.607-.19 2.362l.946 2.552.283.283v1.985l.284.85.377 1.796.567.566.19 1.04-.568 1.134 1.04.85v.756s.378 1.985.85 2.174l-.189.78.355.354s.023 1.346.567 1.724c0 0 .449.33.212 1.63l.213.33.094.828s.662.708.544 1.44l.212.095-.023.614s1.063.804.85 1.394l-.85.142.047.354s-.709.213-1.11.59c0 0-.827-2.22-.827-2.834l-.945-.803.213-.59-.45-1.371-.637-1.7-.614-.284s.189-2.93-1.347-4.442c0 0 0-3.33-1.016-4.44 0 0 .19-.804-.52-1.418l.095-1.3-1.087-1.559.307-.637s-.566-1.205-.661-2.245c0 0-.85-.047-.638-3.756 0 0-.762-1.555-.628-3.96 0 0-.334-2.072-.268-4.21 0 0-.735-.267-1.202.334 0 0-.735-2.74-1.003-6.28l-.2-6.081s-.735-6.415-.535-8.085c0 0 .735-3.34.134-5.48-.668-1.202-.067-2.004-.067-2.004s-.868-2.071-.2-8.485c0 0-.401-2.54.334-6.816.735-4.276.2-6.815.2-6.815s-.267-.468.602-.668c0 0-2.873-7.818-1.136-19.31 0 0 0-3.742.267-12.028.267-8.285-.067-11.425-.067-11.425s.067-3.14 1.002-6.148c0 0 1.136-5.813 0-9.688l.268-6.548s-.735-4.277-.268-8.018c0 0-.467-7.083.802-9.221 0 0-3.34-1.67-14.5 4.477 0 0-7.616 1.336-1.068-2.874 0 0 12.829-3.474 15.435-5.545 0 0 0-4.344 1.27-5.145 0 0 1.135-19.845.6-22.117M179.624 122.262s.9-.742 2.27.345M177.686 140.57l2.507.18M180.666 163.286s-2.51.289-2.98 1.538M179.532 193.95l-3.048.474M177.62 213.735l2.384-.603M180.493 228.134s-2.573-1.002-4.01-.1M180.193 235.338s-2.406-.021-3.509 1.181M179.91 243.937s-3.059-.903-3.293.066M177.152 252.088s2.293-2.408 3.986-.686M181.328 257.2s-2.572 2.004-3.976.901M181.61 261.796s-1.719.682-2.053 2.319M182.84 266.616s-2.414.84-3.015 1.708M182.84 271.718l-2.387.567M181.091 276.041s1.586.094 2.599-.638M181.752 278.286l2.883-.331M182.532 280.483l2.386-.26M182.957 283.2l2.622-.331M183.7 285.697l2.068-.088M183.973 287.64l2.968.295M185.103 290.007l2.366.161M188.31 292.312s-2.013-.629-2.376.053M186.44 293.882l2.163-.005M188.91 295.035s-1.008.552-1.89.401M187.753 296.83s1.401.63 1.89 1.89M188.711 297.423l.932-.239"/></g></g><g fill="#80ff80" stroke="#000" stroke-width=".265"><path d="M205.55 100.011s-.068 3.876-1.003 5.814c0 0-1.203 7.684-1.203 9.42 0 0-1.27.469-1.002 2.674 0 0 .813 6.388-.037 10.074-1.512 1.984-.662 3.118-.662 3.118s-1.89.662-1.133 4.158c0 0-2.08 15.402.189 19.56l-.85.567s1.133 3.118-.379 6.142c-1.512 3.024-.378 5.292-.378 5.292s-1.512 11.906 0 13.701c0 0-1.228 6.143-.283 12.38 0 0-.473 9.449 1.795 15.402 0 0-.661.378-.189 2.457.473 2.078-.189 3.307-.189 3.307s-1.134 5.67 0 11.245c1.04 1.606.473 2.456.473 2.456l.189 1.323s-1.04.85-.378 3.591c.661 2.74.189 3.685.189 3.685l.283.945-.283 5.009v1.606s-.756.661-.19 2.93l.379 4.063-1.04 1.133 1.701 3.686-.661 1.134.944 3.638-.567.661.615 1.654v1.795l-.095 2.315.378.52s-.378.52-.33 1.37l.566.473s-.33.283-.33.945l.283.803s-.425.189-.425.708c0 0 1.181 1.087 1.134 1.512 0 0-.614.71-.567.993 0 0-.284.283.189 1.039.567 1.087-.095 1.606-.095 1.606s.898.71.567 1.465l-.803.756s.567.661.567 1.323c0 0-.047 1.087-.425 1.181l.661 1.276-.614 1.134.284.85-.19 1.56-.283.188v1.276l.095 1.37-.473.284-.567 1.464.236 1.229-.378.992v1.512l.048 1.559-.473.378-.425 1.512h0l-.496.378-.756-.45s.402-.353.402-.779c0-.425.401-.661.401-.661V295.2s.047-.378.284-.33l-.071-1.253.07-.354-.094-1.583.378-.378-.118-1.276.095-.543-.119-1.087s.071-.425.308-.425l.118-1.181-.426-.898.71-1.559-.497-.378.118-1.937.118-.307s.095-.685-.165-.992c-.26-.307-.165-.59-.165-.59l.567-1.206-.898-1.393s.401-.142.354-.71c0 0-.165-.779-.732-1.417 0 0 .756-.26.709-.78 0 0-.567-.14-.662-.92-.094-.78-.425-1.016-.425-1.016l.614-.827s.024-.402-.165-.662c-.19-.26-.024-.78-.024-.78l-.52-.873.473-.59s-.047-.568-.284-1.158c-.236-.59-.07-.874-.07-.874l-.378-.45s.07-1.133.448-1.464l-.874-1.748s-.023-1.654.402-2.173c0 0 .257-.548-.278-1.116-.534-.568-.768-1.069-.768-1.069l.4-1.804-.901-1.737.334-3.374s.067-2.64-.434-3.04l-.007-2.46s-.189-1.512-.378-1.559l.095-3.26-.425-1.465s-.237-.52.141-.992.378-1.134.378-1.134l-.047-1.7-.992-1.89s2.031-2.93 1.181-5.245c-.2-1.01-.483-1.214-.72-1.512 0 0 2.043-1.984-.225-9.969 0 0 1.394-.094.85-3.969 0 0-.803-.756-.472-8.93 0 0 .473-.495-.26-1.606-.756-1.44-.401-2.551-.401-2.551s-.945-7.04-.213-7.536c0 0 .26-2.599-.402-5.882-.661-3.284-.614-4.654-.614-4.654s-.283-13.111 1.323-16.23l-.189-2.22.378-9.402s-.898-6.662-.472-9.072c0 0-1.087-7.134 1.795-10.063l.047-2.268s1.654-10.725 1.087-14.552l.472-.85v-1.135s3.402-15.497 1.512-16.11l.331-.615M202.21 118.118s-1.318-.852-2.882-.142M197.722 135.647s1.49-1.27 2.788-.378M199.848 155.396s-1.508-.901-3.449-.614M196.21 166.405s1.637-.51 2.882.425M195.903 193.17s.874-.496 2.906-.26M200.226 214.077s-1.56-.614-2.976-.284M200.888 229.101s-1.701-1.937-3.544.142M200.699 236.377s-1.56-1.653-3.544 0M197.108 241.67s3.15-1.407 3.59 2.267M200.51 246.866s-2.123-.866-3.119-.378M199.848 252.063l-2.016-.075M198.4 257.1l2.488-.217M201.265 261.182l-2.22-.094M199.517 265.01l2.324.007M199.446 266.923l2.34.023M201.832 268.836l-2.031.118M202.069 270.254s-1.701 1.039-2.22.165M201.927 271.765l-1.89.095M202.494 274.27l-1.984.354M202.588 276.915l-2.055-.094M202.352 279.136l-1.275-.213M202.494 281.64l-1.654.071M202.541 284.05l-1.44.283M200.817 286.79l1.535-.142M202.352 287.924l-1.653.047M200.51 289.483l1.937-.189M201.407 291.042l-.874.26M200.25 293.263h1.015M200.25 294.87l.99.081M200.84 296.712h-.874"/><g><path d="M182.556 100.023s.756 14.174-.662 22.584c0 0 1.04.661.095 1.323 0 0-1.229 1.606-.662 6.142.567 4.535-1.134 10.677-1.134 10.677s.85 13.986.473 22.868l-.19 13.04s-1.322 4.63-.944 17.104l.094 5.764s-.378 4.724.378 13.607c0 0 0 2.457.473 5.48 0 0 .756 4.442 0 5.67-.756 1.229.378 6.048.378 6.048s0 4.914-.662 5.008c0 0 .756.567.473 3.874 0 0 .472 3.78-.756 4.725 0 0 1.417 1.417.85 3.024l.378 4.441.19.756v4.347s.283 2.834.472 3.496l-.19 1.795s.851.567.946 1.418c0 0-.378 3.402.283 3.402 0 0 0 3.118.662 3.401 0 0 .189 1.323-.662 1.701 0 0 1.04.85 1.04 1.323 0 0 .567 1.607-.19 2.362l.946 2.552.283.283v1.985l.284.85.377 1.796.567.566.19 1.04-.568 1.134 1.04.85v.756s.378 1.985.85 2.174l-.189.78.355.354s.023 1.346.567 1.724c0 0 .449.33.212 1.63l.213.33.094.828s.662.708.544 1.44l.212.095.969-.094s-.095-1.465.094-2.08l-.378-.33-.37-1.854-.234-.2-.334-1.304.2-.868-.634-.769-.268-1.336.368-.468-.936-1.503.067-.97-.167-.333.067-1.136-.067-1.47-.735-1.27.267-.167.034-1.503-.635-.768s.3-.167.167-.97l-.191-1.348-.473-.142s-.236-.756.236-1.465c0 0-.33-.897-.141-1.417l-.378-.284s-.615-1.18 0-2.456l-.567-.615s-.142-2.173.33-2.929l-.472-.236s-.378-2.22.378-2.22c0 0-.945-.899-.945-1.418-.425-2.126.472-2.504.472-2.504l-.661-.756s-.236-1.985.378-2.552c-.803-.378-.85-1.37-.85-1.37s-.898-2.551.661-3.59l-.425-.379s-2.315-3.212-.236-4.393l-.567-.567s.472-1.087-.048-1.843c-.614-1.229.284-2.126.284-2.126s.236-.945-.047-1.37c-.71-.993-.52-1.749-.52-1.749l.189-.944s-.567-3.213-.142-7.04l.762-.624s-1.804-4.811-.268-8.686l.335-1.203-.401-1.27s-.401-2.605.066-3.608c.468-2.004-.467-4.276-.467-4.276s.467-5.011-.134-6.214c-.601-1.203.535-3.274.535-3.274s-.134-1.537-1.27-2.54c0 0 1.403-2.405.869-6.28-.602-3.274.4-5.68.4-5.68l.201-8.619s.267-1.67-.534-1.804c0 0 .868-.802.467-2.54l.134-6.08s.935-4.677-.067-7.416l-.134-2.005s1.203-4.81.134-5.011l.668-9.421-.4-5.88s-.936-3.742.2-6.882c1.136-3.14 1.002-5.212 1.002-5.212s.735-8.553.2-8.62l.401-7.884.134-10.156M182.32 118.024s2.234-1.251 3.385.295M180.666 138.67s2.83-.834 3.635.363M184.034 154.334s-2.14-.97-3.321.023M183.5 177.386s-.992-1.201-3.023-.729M179.626 199.525s1.53-1.022 2.938.245M180.477 218.943s1.786-.565 3.357.738M183.406 231.464s-.419-1.544-2.551-1.134M180.666 239.212l2.633.147M183.926 242.567l1.177-.1M183.69 246.536s-1.927-.693-2.93.425M181.327 252.158s1.252-2.122 3.166-.662M184.257 255.465s-2.396.01-2.93 1.04M184.729 259.387s-1.656 1.31-2.93.614M182.556 263.214s1.576-.833 2.362-.567M185.485 266.285s-1.369-.41-2.646.33M185.627 269.45l-2.126.567M183.879 273.041s.064-.9 2.315-.52M184 276.175s2.005-.63 2.477-.488M184.918 278.238l2.056-.091M185.202 281.073s1.338-.888 2.106-.488M186.146 283.435s1.129-.945 1.964-.11M188.043 284.46l-1.708.015M186.808 286.46l1.335-.696M186.808 287.215l1.903.52M187.658 289.389l1.32-.318M187.824 290.523l1.589.185M188.31 292.312l1.67-.1M188.816 294.208l1.535-.142"/></g></g><g stroke="#000" stroke-width=".265"><g fill="none"><path d="M246.093 299.783s1.819 5.558 4.157 9.768l2.339 3.007 1.937 1.202.335.134 2.338.267 1.793-.204 1.063-1.252.378-.449s1.535-2.244 1.535-2.953l.354-.142s1.158-2.055.969-3.07l.756-3 .449-1.867s.756-2.292.496-3.071l.661-.59M252.424 316.508l.165-3.95M249.549 311.555s-.301-.935.701-2.004M254.86 313.894s1.23 3.46.966 5.071M258.992 313.957l-.237 4.016M260.433 312.256l.92 3.213M262.322 309.161s.98-.31.969.591M264.496 301.224l1.122-.126"/><path d="M238.49 264.449l.989 7.789 1.417 6.844.668 2.973s.668 5.079 2.305 10.925l2.224 6.803s-1.465-.236 3.355 11.386c0 0 1.275 3.213 2.976 5.34 0 0 1.701 2.929 3.402 2.456 0 0 2.22-.425 2.93-.992 0 0 1.747-.945 2.598-2.504 0 0 2.173-3.402 1.937-5.717 0 0 1.181-3.071 2.268-8.646 0 0 .709-2.835.094-3.544l.993-7.654.614-6.52s.047-10.016-.19-12.993c0 0-.613-9.969-.897-11.434 0 0-1.087-3.968-.898-6.945.615-4.725-.992-9.355-.992-9.355M243.034 287.367l-.535.2M243.836 292.846l.701-.467M246.809 299.595l-.716.188M249.515 304.874l-1.17.935M249.281 307.98l1.403-1.703M262.444 305.442l.847.648M262.945 302.368s.559.557 1.031.439M264.378 297.917l.614.236M265.752 289.64l.894.008M266.527 283.223l.733.165"/><path d="M241.564 282.055l.534 1.07s.535 3.274.97 4.51l1.47 4.744s2.538 5.312 2.271 7.216l2.172 3.742s.668 1.069.534 1.537l.668.434s.735.568.501.969l1.504 1.202s1.904.301 2.439.936c0 0 1.37.468 2.138-.267l.2.334s2.172-.334 2.907-1.07l.1-.367.835-.468.435-.601 1.202-.534v-1.738s-.167-1.37.501-1.336c0 0 .535-1.57.602-2.973 0 0 .146-.959.83-1.478l.139-2.097s.4-1.136.4-1.971c0 0 .301-1.236 0-1.738l.836-2.472.067-1.27.434-2.438.267-2.673.22-5.658-.472-6.07.826-1.536M242.098 283.124l.995.075M241.564 282.055l1.01-.273M243.164 287.877l.874-.85M244.537 292.379l.918-.297M246.944 296.027l-.898-.095M248.715 299.665s-1.063.354-1.18 1.134M250.384 302.735s-.653.615-1.338.568M251.186 303.704l-1.003 1.604M266.268 271.53l-.516-.232M266.74 277.6l-.688-.021M265.852 283.191l.675.032M265.484 285.63l.769.3M265.117 287.969l.702.4M264.081 292.045l.836.066M263.08 294.45s1.076-.559 1.837-.601M263.346 295.82h1.17M261.108 302.953s.797.184 1.336.751M262.745 299.311l.802.084"/><path d="M248.715 299.665s.834 1.266 1.535 1.8c0 0-.033.736.134 1.27l.802.97 1.169.4s1.403.835 2.004.802c0 0 1.972-.134 2.239-.334 0 0 1.67.267 2.171-.034l.167-.334 1.237-.701.935-.551.451-1.203s.518-1.888 1.186-2.439l-.368-.819"/><path d="M251.954 311.856s-.3-2.071.234-4.377c.921-.855.167-3.374.167-3.374l-.167-1.102s-.3-1.103-.735-1.437l-.034-.568-.434-.568.668-.601 1.403-.067.1-.668.468-.2.401-.268.468-.067.935.067.568-.2.669-.134.3.167.702.1.601.435v.668l1.07-.067.6.802.368.133.167.468s.067.769-.3 1.036l-.024 1.481s.803.355.732 1.3c-.283.685.36 1.161.36 1.161l-.434.601s1.09 1.521 1.161 2.726"/><path d="M254.627 308.415s-.301 1.002.167 2.806c.467 1.804.067 2.673.067 2.673M256.965 308.482s.635 2.071.234 5.68M259.872 307.413s.442 1.748.183 5.34M254.55 304.886l.077 3.529M256.598 304.573l.167 3.575M258.936 304.205s-.075.553.48 1.696c.556 1.144.456 1.512.456 1.512M252.188 303.003s1.3-.314 2.244.11l2.174-.07h1.96l1.607-1.01M251.42 300.998s2.54.131 3.036.415l1.795-.142 1.985-.283 1.703-.591M253.056 299.762l1.21.423 1.536-.45 2.466-.073"/><path d="M255.428 298.626l.374 1.11.496 1.535.284 1.796.016 1.506M254.267 300.185l.189 1.228-.024 1.7.118 1.773M258.268 299.662l-.032 1.326s.543 1.134.33 2.055c0 0 .032.34.37 1.162M250.25 301.466l1.203.1M250.985 300.43l-1.16-1.356M251.653 299.829l-1.024-1.25M253.157 299.094s-1.63-.374-2.386-2.618M252.755 297.491l.87 1.402M254.025 298.626s.313-.804-.868-1.205M260.473 300.998l1.086.752M261.409 298.593l-1.103 1.937M259.337 299.595s.458-.143.718-.993M258.268 298.994s.676-.416 1.03-.841M257.667 298.56l.568-1.437M257.7 296.889l-.735 1.57M254.149 296.523s.57.411.344 2.036M255.637 295.956s.648 1.798.36 2.47M257.125 296.665s-.425.916-.46 1.627"/><path d="M253.227 296.83l.922-.307.638-.26.85-.307.694-.136.794.845.575.224M266.173 258.962l-.922-.46M248.045 110.502l-2.14-.463M246.684 127l-1.044-.061M244.838 144.913l.835-.134M245.29 187.76l-1.32.05M245.072 202.576l-1.103-.267M245.54 220.984l-1.17-.033M245.139 230.54l-.836.3M243.683 238.504l1.322-.381M245.239 242.466l-1.178.1M244.392 247.102l1.08-.026M245.054 251.874l.987-.053M246.274 256.197l-1.031.638M245.526 260.143l1.083-.405M246.99 263.615l-.991.45M246.093 266.521l1.418-.024M246.33 270.065l1.488-.024M247.96 272.616l-1.253.189M246.849 274.222l1.37-.023M247.085 275.829l1.37-.331M247.274 277.033l1.347.142M248.999 278.64l-1.255.275M249.022 280.317l-1.31.101M248.179 281.855l1.032-.168M248.246 283.325l1.225-.102M248.346 284.795l1.432-.131M250.227 287.05l-1.013.217M249.749 289.84l.969-.368M250.116 292.212l1.198-.32M250.865 294.397l.827-.19M245.974 159.58l-1.938-.235M245.807 174.847h-1.704M259.133 100.778l1.843-.047M256.364 132.886l1.54.493M259.464 116.842l-1.441-.141M254.827 164.323l1.33-.139M253.892 182.464l1.178-.232M254.693 200.705l1.558.001M255.596 218.245l.939-.483M255.66 227.59l1.1.141M255.495 234.147l.803.34M256.063 240.16l.755.044M255.963 244.905l1.186.024M255.963 249.281l1.57-.334M256.197 254.994l1.436.368M257.099 258.67l1.036.233M257.5 262.779l1.279.482M257.767 266.186l1.437.288M258.168 269.46l1.296.085M258.33 272.758l1.228-.071M258.67 275.273l1.266.13M259.07 277.712l1.244-.182M259.003 280.134l1.642-.006M259.47 281.989l1.388.029M259.17 283.793l1.57.162M259.404 285.897l1.123-.005M259.07 288.604l1.457-.208M259.37 290.107l1.18-.08M259.27 291.777l1.02-.097M259.37 293.548l1.015-.285M258.903 295.152l1.199.048M255.161 145.848l.901-.138M247.369 226.054l.094 5.977M247.463 232.03l.331 1.702s.378 2.22 0 4.016c-.567 2.126-.217 3.382-.217 3.382l.335.2s.945 2.276-.236 3.812c0 0 .543.118.638 2.48l-.142 1.323s.614.425.709 1.654l-.331 1.04s.661.755.378 2.03M248.928 253.67l.283 1.748.331 3.213.236 3.732.473 3.544.52 1.748v1.134l.236 3.118.142 1.607.094 1.322.284 1.701.047 1.04.425 2.173-.095.473.237 2.41.378 2.409.047 1.087.52 1.464v2.504"/><path d="M254.149 296.523l-.095-2.22.071-.591-.638-1.181-.141-1.82-.26-.614M247.936 254.308l.443 1.188.468 3.107-.167.902.531 3.07-.07 1.04.448 2.41.024 1.252.17 1.482.033 1.47.367 1.87-.192 1.769.283.803.41 2.774-.055.533.33 1.961s-.023 2.126.567 2.811v.85l.284 2.08.449 2.362.354 1.96M247.888 233.826l-1.511-.33M247.577 241.13l-.68-.004M248.172 248.945l-.945.59M248.55 251.638l-.973.049M248.928 253.67l-.992.638M249.214 255.395l-.835.1M248.847 258.603l.668-.034M249.778 262.363l-.567.213M249.59 266.025l.66-.118M250.77 268.789l-.988-.03M250.183 272.1l.824.067M250.274 274.671l.969.166M251.574 277.577l-.89-.132M250.96 279.94l.944.283M251.526 282.75l.638-.047M251.857 286.2l.709-.071M248.68 259.505l-.46-.26M249.14 263.615l-.637.118M249.07 267.395l.543-.118M249.282 270.3l.534-.071M249.448 273.726l.543.142M250.629 277.978l-.52-.023M250.298 280.105l.662-.166M250.629 284.097l.897-.496M251.125 285.916l.614-.307M251.574 288.16l.59-.33M251.81 290.097l.803-.094.473.094M252.093 292.767l1.394-.236M252.802 294.562l1.252-.26M249.306 120.622l2.615-.833M248.246 146.049s1.536-.936 2.07.066M247.888 166.688l2.295-.26M247.203 186.225l1.71-1.155M247.818 213.486l2.165-.687M247.652 224.235l1.796-.344M247.463 232.03l1.083.113 1.37-.769M248.546 232.143s.401 3.508.2 4.744c-.534 1.503-.133 2.572-.133 2.572l-.11 1.785s.661.709.945 5.055l-.3 1.312s.5.635.5 2.873l.435.635.535 5.112.2 4.209.234.334.267 3.14.042 3.623.425.425.378 3.284.024 2.338.307 1.158-.26 2.008.543 2.22-.023.733.496 4.087-.07 1.323.708 2.598.307 1.134-.26 1.725.614 2.646v.708l.236 2.339M248.503 241.244l-.926-.114M248.314 247.622l.834-.011M248.88 250.599l.769-.115M249.731 260.568l1.087-.128M250.77 267.655l.591-.118M252.188 273.584l-.945.071M251.526 276.537l.71.213M252.755 279.703l-.756.047M252.519 285.042l.661.07M253.086 287.593l.874.19M254.125 293.712l.425.212M253.936 290.57l-.59.141M248.613 239.46l1.024.083M249.448 246.3l1.086-.237M250.083 251.119l1.136.1M250.718 256.264l1.234.005M251.052 260.774l1.561-.159M251.32 263.914l1.388.245M251.786 267.962s.993-.567 1.441-.402M252.164 271.246l1.536.094M252.495 274.742l1.441.33M252.779 278.97l1.393-.306M253.251 283.79l1.205-.024M254.55 293.216l.709-.331M254.196 288.845l.921.118"/><path d="M249.916 231.374l.2 2.339s.535 3.274.2 4.544l-.68 1.286s1.229 2.362.898 6.52c0 0 .567 1.465.426 2.693-.142 1.229.283 2.315.283 2.315l.472 1.229s-.236 1.323.048 2.22c.283.898.189 1.748.189 1.748l.283.945s-.378 2.08.378 3.402l.378 2.032-.283 1.512.52 3.401.472.898v2.882l.33 1.087-.094 2.646.473 1.795-.237 1.796.237 1.039.567 2.315-.52 1.748.472.803.19 2.457v1.937l.377 1.418-.236 2.504.284.709.094 2.362M252.321 231.909l-.2 6.28s1.136 3.542.134 8.019l.405 1.036v4.914l.426 3.638-.063 1.136.835 4.544-.1 1.303.735 4.777.535 1.77.033 2.673v.902l.535 2.038-.401 1.905.367.701.033 1.938.435 2.172-.267.5.033 2.306.3 1.203-.033 1.336.034 1.27.066 2.271.435 1.103-.3 1.937.032 2.239M252.121 100.145s1.203 12.629-.2 19.644l-1.337 25.992-.4 20.647s-2.005 13.297-1.27 18.642l.133 8.486s.936 1.87.669 13.764l1.47.267s.534-10.022-.335-14.365l.014-2.485s-1.216-15.422.32-20.166l.936-21.85-.134-12.36s1.403-5.814 1.403-13.431l.602-14.232s1.136-6.08.601-8.352M249.716 207.32s.935 4.811-.2 9.02c-.669 2.34-.134 4.21-.134 4.21l.066 3.34s-.334 2.54.268 3.81c.668 1.737.2 3.674.2 3.674M251.186 207.587l.534 6.214-.267 6.482s.4.935.133 2.004c-.267 1.07-.133 2.138-.133 2.138s-.535 2.072.267 3.876c.802 1.804.334 2.94.334 2.94l.267.668M249.381 220.55s1.242-.77 2.072-.267M249.916 231.374l2.138-.133M251.715 252.3l.945-.142M250.534 246.063l1.72.145M252.235 257.213l.788-.28M252.991 262.647l.767.132M253.7 268.458l.793-.902M255.259 292.885l1.038.696M255.061 272.901l-1.03-.474M254.409 276.868l.786-.024M254.361 279.514l1.235-.031M254.976 282.018l.787.138M255.796 284.46l-.868.11M255.117 287.026l.898.071M255.495 290.38l.668.161M250.317 238.257l1.804-.067M257.054 108.102l-3.062.596M253.18 122.796l1.952-.123M252.054 148.588l1.032-.42M251.186 170.57l1.285-.291M251.857 190.879l-.992-.142M251.72 213.801s1.13.512 1.838-.386M251.453 224.425l2.058-.048M252.321 231.909s.67.169.576.76l.803-.024"/><path d="M252.897 232.669s-.048 3.59.378 5.386c.826 2.22.307 4.157.307 4.157l.26.686-.355 4.323.236 1.44.308 3.639.189 1.582-.142 1.867.378 1.653.52 3.97.283 1.63s-.354 1.37-.024 1.889c.473.756.308 1.56.308 1.56s.377.07.33 1.44l.047 1.536.284.921-.118 1.536.307 1.11.094 1.984.237.85-.142 1.536.425.614-.118 1.063.07 1.134-.046 1.134v1.158l-.213 3.024.354.354.142 1.512-.023.898-.024.732-.118 2.386.354.496-.26 2.292.355.33-.355 2.174M257.125 294.16l-.828-.579M252.656 242.199l.926.013M252.66 247.244l.827-.023M253.086 255.796l.992-.047M253.858 261.476l1.103-.301M254.493 267.556l1.05-1.106M255.028 269.327l.892.1M255 272.167l1.086-.283M255.596 274.94l.891.038M255.562 277.545l1.02-.18M256.03 281.655l.906-.228M256.7 285.49l-.603.174M256.11 288.302l1.015-.071M256.598 291.644l.433-.271M257.456 283.884l1.08.143M257.456 282.585l.118 2.906M258.201 294.617l-.721-.126"/><path d="M257.054 285.845l.52-.354.828.039M257.196 287.357l1.139.344M257.173 289.081l1.296.09M257.385 291.87l.983.008M254.025 252.355l.856-.197M254.22 253.882l.975-.057M254.456 257.402l.992.048M255.259 263.001l1.087-.07M255.873 267.891l1.04-.094M256.204 270.348l1.181-.236M256.393 272.994l.992-.142M256.724 275.829l.943-.355M257.007 277.978l.86-.099M256.889 279.041l1.279-.093M256.96 280.175l1.175-.024M256.936 281.427l1.265-.34M256.913 282.467l.543.118.945-.472M253.842 242.898l.614.047M253.723 248.662l1.087-.024M239.479 272.238l.968-.425M240.943 279.041l.638-.118"/></g><g fill="#b3ff80"><path d="M257.007 100.023s-.898 5.197.047 8.079c.662 3.213-.472 5.953-.472 5.953s-2.268 2.457-1.323 9.78c.756 3.922-.614 6.567-.614 6.567s-.614 2.457-.662 3.827c0 0 .331 3.213-.283 6.237-.709 3.827-.378 8.93-.378 8.93s-.33 2.362.142 3.543c.85 2.22 0 5.48 0 5.48l.094 6.143s-.661.709-.992 5.528l-.142 5.953s-.85 5.433.095 11.15c0 0-.473-.047-.331 1.512.142 1.56-.33 2.174-.33 2.174l.944 4.535s-.614.803-.047 2.41c.567 1.606.283 4.394.283 4.394s-.283 4.252.756 8.315c0 0 .426 1.843-.236 2.882 0 0 .803 3.166-.047 10.962l.33 1.086s-.283 1.134-.047 1.985c.615 1.795 0 3.402 0 3.402l-.094 1.795.236.992s.19 3.638.52 5.292l.047 3.827v.614s-.047 1.937.473 4.82c0 0-.473 1.417-.048 2.929l-.047 1.039.331 1.748.189.992.047 2.552.567 1.559s.52 2.93.331 3.921c0 0 .52 3.166.567 4.867l.283 1.086.19 1.229-.048 1.323.047 1.417s.284.756.284 1.56l-.002 1.062.4 1.069-.2 1.336s.535.468.301 1.07l.1.835-.133.367.066.936.268 1.002.267.868s.134.702-.2 1.07l-.134 1.503v.601l-.067 1.57.167.802-.033.668.067 1.37-.167 1.337.033 2.305-.2.434s.167 1.27-.502 2.272l.535.234.668-1.971-.033-1.036.5-.568s-.4-1.203-.1-1.77l-.133-1.27.234-.401-.3-1.503-.135-2.473.468-.234-.067-1.97-.066-.803.2-1.135-.501-.97.033-1.002.067-2.305-.4-1.136s-.134-.935 0-1.303l-.268-.768s-.1-.869-.1-1.637v-.768l-.034-.802-.1-1.838-.367-.835-.034-2.439-.434-2.84.167-.567s.067-1.07-.368-1.838c-.434-.768-.367-1.704-.367-1.704l.334-.568s-1.069-.902-.768-1.57c.534-1.17.2-1.704.2-1.704l-.334-.4s-.468-2.506-.367-3.542l.133-2.172-.1-1.169s-.501-2.84.1-3.207c0 0 .2-1.103-.367-1.336 0 0-.288-3.452.467-3.408l-.801-1.07.133-3.34s-.701-1.036.1-1.604l-.033-4.71s-.84-1.517.199-1.848c0 0-.544-.992-.59-1.795 0 0 .658-1.77.19-4.041-.6-2.305.335-3.508.335-3.508s-1.37-1.27-.602-3.174c.836-2.572-.267-4.21-.267-4.21s-1.17-7.216-.033-10.156c0 0-.869-3.675-.97-5.044 0 0-.567-6.515-.233-8.32 0 0-.1-4.576.4-4.877 0 0-.968-4.51-.667-6.28 0 0 .167-8.253 1.303-11.427l.3-.434s.568-4.042.067-7.15c-1.069-2.572-.234-4.91-.234-4.91l-.067-2.907s-.267-2.572.568-3.508c0 0-1.102-7.584 0-11.626 0 0 .368-1.437 1.203-1.336 0 0-.735-5.279.501-7.785 1.303-2.74.535-7.15.535-7.15s.009-1.132.623-1.25c0 0-.685-1.796-.307-2.504 0 0 1.843-5.67 1.417-13.419l-.472-.614M258.87 294.116l-.468.067M259.137 290.508l-.602.033M259.07 288.604l-.568-.1M258.936 286.131l-.534-.601M259.27 283.124l-.534-.167M258.97 281.02l-.769.067M258.268 279.784l.769-.067M258.068 276.543l.601.033M257.6 274.472l.802.033M257.338 271.435l.964-.204M257.196 268.883l.604-.258M257.333 263.347l-.987-.417M256.765 259.237l-.75-.228M255.4 254.898l.797.096M255.763 251.453l-.835-.335M254.976 248.19l.887-.078M254.493 243.602l1.103-.033M255.261 239.092l-.805-.163M253.936 233.637l1.56-.07M255.07 225.794l-1.228-.33M254.727 210.862l-.956-.092M253.7 195.438l-.898-.024M252.519 187.193l.972.149M252.424 176.043l.8.14M253.558 164.562l1.27-.239M253.322 149.396l1.271-.04M253.983 134.23l1.229-.166M256.582 114.055l1.134.142"/><g><path d="M248.58 100.145s-.802 6.348-.067 8.62l-.468 1.737s.602 2.138-.267 3.942c0 0 .668 6.481-.067 10.357 0 0-.106 1.656-1.027 2.2 0 0 1.299 0-.071 3.685 0 0-1.134 1.512-.047 4.819 1.086 3.307.047 6.473.047 6.473l-.94 2.801s1.403.267.835 4.844c0 0-1.804 1.003-.835 4.711.969 3.708.3 5.245.3 5.245s1.738-.802.803 3.642c0 0-1.136 6.748-.602 9.555 0 0 .668 1.77-.367 2.07 0 0 1.035 1.003.2 2.64-.635 1.604-.133 2.506-.133 2.506s-.159 2.24.172 4.036c0 0 .564 3.683-.756 3.732 0 0 1.018 3.157.55 6.33 0 0-.668 4.51-.267 8.018l-.501.468s.835 1.704 1.069 4.01c0 0 1.036 7.215-.167 11.759 0 0-.401.568-.234 1.503.167.936-.2 1.136-.2 1.136s.367 2.038-.2 3.642c-.402.935-.268 1.77-.268 1.77s-.267 1.437.033 2.406c.468 1.17.034 1.737.034 1.737s.668 0 .4 4.143c0 0-.801 1.236-.534 3.441 0 0 .668.134.535 1.804 0 0 .1 2.238-.301 2.54 0 0 .601.868.367 1.436 0 0 .769 1.436.134 2.572l-.267.602s.634-.067.4 2.104c0 0 .335 1.504.168 2.64l.5 1.135.034 2.306-.3.935.567 1.036s-.4.935-.233 2.505c0 0 .3 1.404.801 2.072 0 0-.018 1.073-.42 1.805 0 0 .45.048.402.402 0 0-.165 1.087.355 1.89l-.237.59s-.047 1.087.426 1.418c0 0-.473.709-.024 1.866l-.094.26s.07 1.346.614 1.913l-.473.662.567 1.063-.307.52.496.897s-.307.024-.26.402l.591.921s-.472.142-.425.756l.425.355-.047 1.11.26.26v1.086l-.237.331.331 1.205-.142.165.378.922-.118.614.473.803-.166.638.544 1.11s-.236.638-.095 1.276l.425.756.213 1.748s.142 1.512.473 1.866l-.024.473s.496.992.378 2.315c0 0 .283.26.213.685l.85 2.598.402-.07.07-.591s-.637-1.205-.637-1.866l.212-.402s-.78-.874-.708-1.795l-.142-1.205-.142-1.465-.236-.307v-1.63l-.284-.449-.165-1.795-.165-.236-.331-1.583-.213-1.63-.165-.945.047-1.417-.354-1.205.165-.945-.307-.567-.118-1.063-.307-1.158.07-1.44-.141-2.032s.07-1.938-.307-1.89l-.024-2.15.095-.26s0-1.96-.331-1.937l-.236-1.725s.212-2.386-.26-2.173l-.024-2.197s0-2.173-.307-2.268l-.283-1.748.307-1.04s-.024-1.44-.284-1.606l.024-.874s.118-1.748-.189-2.031l-.26-.26-.142-2.717.071-1.654-.26-4.04-.425-.802s.992-3.922-.212-5.528l-.048-8.032s.496-.898 1.158-.709c0 0 .496-.473.283-1.82 0 0 .331-1.086-.094-2.621-.425-1.536-.071-2.693-.071-2.693s.827-.733.094-1.276c0 0 .331-3.496.237-4.158 0 0 .685-6.52-.638-6.945 0 0-1.016-5.032-.33-7.394.684-2.363.4-3.544.4-3.544s.166-1.346-.566-1.606c0 0 .827-3.45.52-7.772 0 0-.26-1.914-.071-2.717.708-1.937-.331-3.496-.331-3.496l.472-3.591s.945-3.307.237-7.418c-.142-1.984.378-2.315.378-2.315l-.095-3.354s.85-3.308-.094-7.04c-.945-3.733-.048-6.426-.048-6.426l.756-3.638s.614-3.874-.141-4.394c0 0 .944-2.882-.142-6.52-.52-5.103.85-10.442.85-10.442s-.142-4.11.567-6.803c0 0-.094-6.71.567-8.41 0 0 .236-.709-.236-.709 0 0 1.276-8.032.52-8.835M248.513 108.765l1.36.187M247.711 124.8l1.264.074M246.707 142.025l1.56-.189M247.652 149.868l-1.144-.245M244.103 174.847h1.704M245.874 179.992l.928.02M247.794 163.334l-1.134-.142M246.684 193.997l-1.016.094M247.18 206.54l-1.181.214M245.974 218.345s1.11.369 1.607-.701M246.211 226.763l-1.14-.366M245.54 234.682l.718.113M245.54 239.927l.931.396M247.156 245.165s-.514-1.93-1.55-1.262M245.74 246.475l1.345.344M245.874 249.181l1.353.355M246.542 252.956l1.11-.255M246.575 255.262l1.054.085M246.842 257.233l1.07-.138M247.41 261.81l.833-.25M247.41 264.249l1.093-.516M247.747 265.907l.992-.449M247.936 267.915l1.04-.26M248.999 269.805l-1.087-.024M248.432 271.954l.874-.26M248.526 273.679l.922.047M248.715 275.096l.662.071M249.046 276.42l.638-.095M249.046 277.53l.756-.142M248.999 278.64l.945.26M249.259 279.986l1.04.119M249.353 281.522h.898M249.59 282.609l.76-.186M249.944 284.026l.685.07M250.322 285.774l.803.142M250.652 287.806l.638-.095M251.574 289.79l-.856-.318M251.338 291.42l.59.118M251.904 294.893l.686.07"/></g></g><g fill="#0a0"><path d="M265.685 100.011s-.067 3.876-1.002 5.814c0 0-1.203 7.684-1.203 9.42 0 0-1.27.469-1.002 2.674 0 0 .813 6.388-.037 10.074-1.512 1.984-.662 3.118-.662 3.118s-1.89.662-1.134 4.158c0 0-2.079 15.402.19 19.56l-.851.567s1.134 3.118-.378 6.142c-1.512 3.024-.378 5.292-.378 5.292s-1.512 11.906 0 13.701c0 0-1.229 6.143-.284 12.38 0 0-.472 9.449 1.796 15.402 0 0-.662.378-.19 2.457.473 2.078-.188 3.307-.188 3.307s-1.134 5.67 0 11.245c1.04 1.606.472 2.456.472 2.456l.19 1.323s-1.04.85-.379 3.591c.662 2.74.19 3.685.19 3.685l.283.945-.284 5.009v1.606s-.756.661-.189 2.93l.378 4.063-1.04 1.133 1.702 3.686-.662 1.134.945 3.638-.567.661.614 1.654v1.795l-.094 2.315.378.52s-.378.52-.33 1.37l.566.473s-.33.283-.33.945l.283.803s-.425.189-.425.708c0 0 1.18 1.087 1.134 1.512 0 0-.615.71-.567.993 0 0-.284.283.189 1.039.567 1.087-.095 1.606-.095 1.606s.898.71.567 1.465l-.803.756s.567.661.567 1.323c0 0-.048 1.087-.425 1.181l.661 1.276-.614 1.134.283.85-.189 1.56-.283.188v1.276l.094 1.37-.472.284-.567 1.464.236 1.229-.378.992v1.512l.047 1.559-.472.378-.425 1.512.858.369.969-.1s.5-.97.5-1.938l.468-.735-.267-1.37 1.002-2.405s.368-1.637.2-2.54l.836-1.536-.234-1.77.602-.569-.034-1.036s-.133-1.135.401-1.403l-.468-.367-.066-2.573s.467-.701.334-2.271l.4-.401s-.4.3-.734-4.644c0 0-.134-.835.434-1.637l-.234-1.904s.702-1.17.167-2.038c0 0 .267-2.172-.434-2.072l.167-2.405-.234-2.339.067-2.038-.802-2.606s.134-2.84-.234-4.443l-.2-7.383s.668-1.27.2-6.014c0 0 1.533-10.278.21-10.278 0 0 .473-4.44-.85-8.504 0 0 .378-8.126-.85-10.489 0 0 .377-8.315.094-12 0 0 1.7-8.789-.85-16.16 0 0 1.795-6.52 1.322-10.015 0 0 1.89-12.568 1.04-15.025 0 0 .686-12.276.018-17.889 0 0 .4-1.87 1.737-.467 1.47 1.47 2.94-.2 2.94-.2s-.802-2.874-2.673-3.876l-1.202-1.804s.668-3.007.133-6.682c0 0-.334-4.944.468-7.483 0 0 2.004-4.544 1.203-8.887 0 0-1.404-4.01 3.274-1.804l18.374 6.681s6.348 1.604.735-2.004l-18.642-6.749s-2.605-1.202-2.672-4.21M263.48 115.246s1.472-.556 2.272 1.938M261.78 131.111s1.834-.597 3.37.238M260.834 154.83s1.808-.6 3.496.755M259.228 180.531s1.275-1.275 2.74.095M260.74 208.313s.803-.709 1.984.472M260.834 227.778h3.59M261.118 237.322s2.415-.61 3.097.734M264.015 244.07s-1.25-1.368-3.18-.133M261.023 250.93s3.259-.279 3.192.523M261.685 255.749l2.764.147M261.968 260.52l3.216.02M262.015 262.836l3.403.043M261.977 265.017l3.274.267M265.685 267.356l-3.386.11M262.535 269.309l2.983.084M262.488 271.057l3.264.24M263.197 273.277l2.12-.342M263.291 278.38l2.36-.4M263.046 280.485l2.271-.234M263.291 282.916l2.093-.092M262.96 284.9l2.491-.306M262.771 286.46l2.112-.262M264.282 289.506l-1.7-.212M264.081 292.045l-2.302.226M263.08 294.45l-1.705.501M261.448 296.334l1.43.22"/><g><path d="M242.691 100.023s.756 14.174-.661 22.584c0 0 1.04.661.094 1.323 0 0-1.228 1.606-.661 6.142.567 4.535-1.134 10.677-1.134 10.677s.85 13.986.472 22.868l-.189 13.04s-1.322 4.63-.944 17.104l.094 5.764s-.378 4.724.378 13.607c0 0 0 2.457.472 5.48 0 0 .756 4.442 0 5.67-.755 1.229.378 6.048.378 6.048s0 4.913-.661 5.008c0 0 .756.567.472 3.874 0 0 .473 3.78-.756 4.725 0 0 1.418 1.417.85 3.024l.379 4.441.189.756v4.347s.283 2.834.472 3.496l-.189 1.795s.85.567.945 1.418c0 0-.378 3.402.284 3.402 0 0 0 3.118.661 3.401 0 0 .19 1.323-.661 1.701 0 0 1.04.85 1.04 1.323 0 0 .566 1.607-.19 2.362l.945 2.552.284.283v1.985l.283.85.378 1.796.567.566.19 1.04-.568 1.134 1.04.85v.756s.378 1.985.85 2.174l-.189.78.354.354s.024 1.346.567 1.724c0 0 .45.33.213 1.63l.213.33.094.828s.662.708.543 1.44l.213.095-.024.614s1.063.804.85 1.394l-.85.142.048.354s-.709.213-1.11.59c0 0-.827-2.22-.827-2.834l-.945-.803.212-.59-.449-1.371-.637-1.7-.615-.284s.19-2.93-1.346-4.442c0 0 0-3.33-1.016-4.44 0 0 .189-.804-.52-1.418l.095-1.3-1.087-1.559.307-.637s-.567-1.205-.661-2.245c0 0-.85-.047-.638-3.756 0 0-.762-1.555-.629-3.96 0 0-.334-2.072-.267-4.21 0 0-.735-.267-1.203.334 0 0-.735-2.74-1.002-6.28l-.2-6.081s-.735-6.415-.535-8.085c0 0 .735-3.34.134-5.48-.668-1.202-.067-2.004-.067-2.004s-.869-2.071-.2-8.485c0 0-.401-2.54.334-6.816.735-4.276.2-6.815.2-6.815s-.267-.468.601-.668c0 0-2.873-7.818-1.135-19.31 0 0 0-3.742.267-12.028.267-8.285-.067-11.425-.067-11.425s.067-3.14 1.002-6.148c0 0 1.136-5.813 0-9.688l.268-6.548s-.735-4.277-.268-8.018c0 0-.467-7.083.802-9.221 0 0-3.34-1.67-14.5 4.477 0 0-7.616 1.336-1.068-2.874 0 0 12.829-3.474 15.434-5.545 0 0 0-4.344 1.27-5.145 0 0 1.136-19.845.601-22.117M239.76 122.262s.9-.742 2.27.345M237.822 140.57l2.507.18M240.801 163.286s-2.51.289-2.979 1.538M239.667 193.95l-3.048.474M237.755 213.735l2.385-.603M240.628 228.134s-2.572-1.002-4.009-.1M240.329 235.338s-2.407-.021-3.51 1.181M240.045 243.937s-3.058-.903-3.292.066M237.288 252.088s2.293-2.408 3.986-.686M241.464 257.2s-2.573 2.004-3.976.901M241.746 261.796s-1.719.682-2.053 2.319M242.975 266.616s-2.413.84-3.015 1.708M242.975 271.718l-2.386.567M241.227 276.041s1.586.094 2.598-.638M241.888 278.286l2.882-.331M242.668 280.483l2.386-.26M243.093 283.2l2.622-.331M243.836 285.697l2.068-.088M244.109 287.64l2.967.295M245.239 290.007l2.366.161M248.446 292.312s-2.014-.629-2.377.053M246.575 293.882l2.164-.005M249.046 295.035s-1.008.552-1.89.401M247.888 296.83s1.402.63 1.89 1.89M248.847 297.423l.931-.239"/></g></g><g fill="#80ff80"><path d="M265.685 100.011s-.067 3.876-1.002 5.814c0 0-1.203 7.684-1.203 9.42 0 0-1.27.469-1.002 2.674 0 0 .813 6.388-.037 10.074-1.512 1.984-.662 3.118-.662 3.118s-1.89.662-1.134 4.158c0 0-2.079 15.402.19 19.56l-.851.567s1.134 3.118-.378 6.142c-1.512 3.024-.378 5.292-.378 5.292s-1.512 11.906 0 13.701c0 0-1.229 6.143-.284 12.38 0 0-.472 9.449 1.796 15.402 0 0-.662.378-.19 2.457.473 2.078-.188 3.307-.188 3.307s-1.134 5.67 0 11.245c1.04 1.606.472 2.456.472 2.456l.19 1.323s-1.04.85-.379 3.591c.662 2.74.19 3.685.19 3.685l.283.945-.284 5.009v1.606s-.756.661-.189 2.93l.378 4.063-1.04 1.133 1.702 3.686-.662 1.134.945 3.638-.567.661.614 1.654v1.795l-.094 2.315.378.52s-.378.52-.33 1.37l.566.473s-.33.283-.33.945l.283.803s-.425.189-.425.708c0 0 1.18 1.087 1.134 1.512 0 0-.615.71-.567.993 0 0-.284.283.189 1.039.567 1.087-.095 1.606-.095 1.606s.898.71.567 1.465l-.803.756s.567.661.567 1.323c0 0-.048 1.087-.425 1.181l.661 1.276-.614 1.134.283.85-.189 1.56-.283.188v1.276l.094 1.37-.472.284-.567 1.464.236 1.229-.378.992v1.512l.047 1.559-.472.378-.425 1.512v0l-.496.378-.756-.45s.401-.353.401-.779c0-.425.402-.661.402-.661V295.2s.047-.378.283-.33l-.07-1.253.07-.354-.094-1.583.378-.378-.118-1.276.094-.543-.118-1.087s.071-.425.307-.425l.118-1.181-.425-.898.709-1.559-.496-.378.118-1.937.118-.307s.094-.685-.165-.992c-.26-.307-.166-.59-.166-.59l.567-1.206-.897-1.393s.401-.142.354-.71c0 0-.165-.779-.732-1.417 0 0 .756-.26.708-.78 0 0-.567-.14-.661-.92-.095-.78-.425-1.016-.425-1.016l.614-.827s.023-.402-.166-.662-.023-.78-.023-.78l-.52-.873.473-.59s-.048-.568-.284-1.158-.07-.874-.07-.874l-.379-.45s.071-1.133.45-1.464l-.875-1.748s-.024-1.654.402-2.173c0 0 .257-.548-.278-1.116-.534-.568-.768-1.069-.768-1.069l.4-1.804-.901-1.737.334-3.374s.066-2.64-.435-3.04l-.006-2.46s-.189-1.512-.378-1.559l.095-3.26-.425-1.465s-.237-.52.141-.992.378-1.134.378-1.134l-.047-1.7-.992-1.89s2.032-2.93 1.181-5.245c-.2-1.01-.483-1.214-.72-1.512 0 0 2.043-1.984-.225-9.969 0 0 1.394-.094.85-3.969 0 0-.803-.756-.472-8.93 0 0 .473-.495-.26-1.606-.756-1.44-.401-2.551-.401-2.551s-.945-7.04-.213-7.536c0 0 .26-2.599-.402-5.882-.661-3.284-.614-4.654-.614-4.654s-.283-13.111 1.323-16.23l-.189-2.22.378-9.402s-.898-6.662-.472-9.072c0 0-1.087-7.134 1.795-10.063l.047-2.268s1.654-10.725 1.087-14.552l.473-.85v-1.135s3.401-15.497 1.511-16.11l.331-.615M262.346 118.118s-1.319-.852-2.882-.142M257.858 135.647s1.49-1.27 2.787-.378M259.984 155.396s-1.508-.901-3.45-.614M256.346 166.405s1.636-.51 2.882.425M256.039 193.17s.874-.496 2.905-.26M260.362 214.077s-1.56-.614-2.977-.284M261.023 229.101s-1.7-1.937-3.543.142M260.834 236.377s-1.559-1.653-3.543 0M257.243 241.67s3.15-1.407 3.591 2.267M260.645 246.866s-2.122-.866-3.118-.378M259.984 252.063l-2.016-.075M258.535 257.1l2.488-.217M261.401 261.182l-2.22-.094M259.653 265.01l2.324.007M259.582 266.923l2.339.023M261.968 268.836l-2.032.118M262.204 270.254s-1.7 1.039-2.22.165M262.063 271.765l-1.89.095M262.63 274.27l-1.985.354M262.724 276.915l-2.055-.094M262.488 279.136l-1.276-.213M262.63 281.64l-1.654.071M262.677 284.05l-1.441.283M260.952 286.79l1.536-.142M262.488 287.924l-1.654.047M260.645 289.483l1.937-.189M261.543 291.042l-.874.26M260.385 293.263h1.016M260.385 294.87l.99.081M260.976 296.712h-.874"/><g><path d="M242.691 100.023s.756 14.174-.661 22.584c0 0 1.04.661.094 1.323 0 0-1.228 1.606-.661 6.142.567 4.535-1.134 10.677-1.134 10.677s.85 13.986.472 22.868l-.189 13.04s-1.322 4.63-.944 17.104l.094 5.764s-.378 4.724.378 13.607c0 0 0 2.457.472 5.48 0 0 .756 4.442 0 5.67-.755 1.229.378 6.048.378 6.048s0 4.913-.661 5.008c0 0 .756.567.472 3.874 0 0 .473 3.78-.756 4.725 0 0 1.418 1.417.85 3.024l.379 4.441.189.756v4.347s.283 2.834.472 3.496l-.189 1.795s.85.567.945 1.418c0 0-.378 3.402.284 3.402 0 0 0 3.118.661 3.401 0 0 .19 1.323-.661 1.701 0 0 1.04.85 1.04 1.323 0 0 .566 1.607-.19 2.362l.945 2.552.284.283v1.985l.283.85.378 1.796.567.566.19 1.04-.568 1.134 1.04.85v.756s.378 1.985.85 2.174l-.189.78.354.354s.024 1.346.567 1.724c0 0 .45.33.213 1.63l.213.33.094.828s.662.708.543 1.44l.213.095.969-.094s-.095-1.465.094-2.08l-.378-.33-.37-1.854-.234-.2-.334-1.304.2-.868-.635-.769-.267-1.336.368-.468-.936-1.503.067-.97-.167-.333.067-1.136-.067-1.47-.735-1.27.267-.167.033-1.503-.634-.768s.3-.167.167-.97l-.192-1.348-.472-.142s-.236-.756.236-1.465c0 0-.33-.897-.142-1.417l-.378-.284s-.614-1.18 0-2.456l-.567-.615s-.141-2.173.331-2.929l-.472-.236s-.378-2.22.378-2.22c0 0-.945-.899-.945-1.418-.426-2.126.472-2.504.472-2.504l-.661-.756s-.237-1.985.378-2.552c-.804-.378-.85-1.37-.85-1.37s-.898-2.551.66-3.59l-.425-.379s-2.315-3.212-.236-4.393l-.567-.567s.473-1.087-.047-1.843c-.614-1.229.284-2.126.284-2.126s.236-.945-.048-1.37c-.708-.993-.52-1.749-.52-1.749l.19-.944s-.567-3.213-.142-7.04l.761-.624s-1.804-4.811-.267-8.686l.334-1.203-.4-1.27s-.402-2.605.066-3.608c.468-2.004-.468-4.276-.468-4.276s.468-5.011-.133-6.214c-.602-1.203.534-3.274.534-3.274s-.133-1.537-1.27-2.54c0 0 1.404-2.405.87-6.28-.602-3.274.4-5.68.4-5.68l.2-8.619s.268-1.67-.534-1.804c0 0 .869-.802.468-2.54l.134-6.08s.935-4.677-.067-7.416l-.134-2.005s1.203-4.81.134-5.011l.668-9.421-.401-5.88s-.935-3.742.2-6.882c1.136-3.14 1.003-5.212 1.003-5.212s.735-8.553.2-8.62l.401-7.884.134-10.156M242.455 118.024s2.235-1.251 3.385.295M240.801 138.67s2.83-.834 3.636.363M244.17 154.334s-2.14-.97-3.321.023M243.635 177.386s-.99-1.201-3.023-.729M239.762 199.525s1.529-1.022 2.938.245M240.612 218.943s1.787-.565 3.357.738M243.542 231.464s-.419-1.544-2.552-1.134M240.801 239.212l2.634.147M244.061 242.567l1.178-.1M243.825 246.536s-1.927-.693-2.93.425M241.463 252.158s1.252-2.122 3.165-.662M244.392 255.465s-2.395.01-2.93 1.04M244.865 259.387s-1.656 1.31-2.93.614M242.691 263.214s1.576-.833 2.363-.567M245.62 266.285s-1.368-.41-2.645.33M245.762 269.45l-2.126.567M244.014 273.041s.065-.9 2.315-.52M244.136 276.175s2.004-.63 2.477-.488M245.054 278.238l2.056-.091M245.337 281.073s1.338-.888 2.107-.488M246.282 283.435s1.128-.945 1.964-.11M248.179 284.46l-1.708.015M246.944 286.46l1.335-.696M246.944 287.215l1.903.52M247.794 289.389l1.32-.318M247.96 290.523l1.589.185M248.446 292.312l1.67-.1M248.952 294.208l1.535-.142"/></g></g></g><g font-weight="400" font-size="4.233" font-family="Arial" letter-spacing="0" word-spacing="0" text-anchor="middle" stroke-width=".265"><text style="line-height:1.25;-inkscape-font-specification:Arial;text-align:center" x="134.334" y="91.518"><tspan x="134.334" y="91.518" font-size="7.056">Mock</tspan></text><text style="line-height:1.25;-inkscape-font-specification:Arial;text-align:center" x="194.47" y="91.518"><tspan x="194.47" y="91.518" font-size="7.056">flg22</tspan></text><text style="line-height:1.25;-inkscape-font-specification:Arial;text-align:center" x="254.605" y="91.518"><tspan x="254.605" y="91.518" font-size="7.056">Pep1</tspan></text><g><text style="line-height:1.25;-inkscape-font-specification:Arial;text-align:center" x="105.897" y="150.786"><tspan x="105.897" y="150.786" style="text-align:end" font-size="6.35" text-anchor="end">Epidermis</tspan></text><text y="170.596" x="105.897" style="line-height:1.25;-inkscape-font-specification:Arial;text-align:center"><tspan style="text-align:end" y="170.596" x="105.897" font-size="6.35" text-anchor="end">Cortex</tspan></text><text style="line-height:1.25;-inkscape-font-specification:Arial;text-align:center" x="105.897" y="192.174"><tspan x="105.897" y="192.174" style="text-align:end" font-size="6.35" text-anchor="end">Pericycle</tspan></text></g></g><g fill="none" stroke="#000" stroke-width=".265"><path d="M119.04 150.481l-12.472-.926M106.24 169.319l15.234-1.938M106.507 190.834l19.547-1.07"/></g></svg>