<svg xmlns="http://www.w3.org/2000/svg" id="Regeneration_svg" version="1.1" viewBox="0 0 1006.2 947.6" author="Provart Lab - Bio Analytic Resource, University of Toronto">
  <path id="path814" fill="none" stroke="#000" stroke-linecap="butt" stroke-linejoin="miter" stroke-opacity="1" stroke-width="1" d="M39 136h8v-33s-21 3-33-18c-1-8 9-7 9-7s22 1 31 19h5c8-18 31-19 31-19s10-1 8 7c-11 21-32 18-32 18v33h7"/>
  <g id="WT, 0 hours 2iP" fill="none" stroke="#000" stroke-linecap="butt" stroke-linejoin="miter" stroke-opacity="1" transform="translate(4 -225)" stroke-width="1">
    <path id="path818" d="M58 391v69l-5 6-6-6v-95l-4-4h19l-4 4v19s7 1 10 7c0 0-6 4-10 0z"/>
    <path id="path826" d="M51 373v-1s-3 1-3-2v-2c0-2 3-2 3-2v-1"/>
    <path id="path842" d="M51 382v-1s-3 1-3-2v-2c0-2 3-2 3-2v-1"/>
    <path id="path846" d="M51 391v-1s-3 1-3-1v-3c0-2 3-2 3-2v-1"/>
    <path id="path848" d="M51 391v-1s-3 1-3-1v-3c0-2 3-2 3-2v-1"/>
    <path id="path850" d="M51 400v-1s-3 1-3-1v-3c0-2 3-1 3-1v-2"/>
    <path id="path852" d="M51 410v-2s-3 1-3-1v-3c0-2 3-1 3-1v-2"/>
    <path id="path866" d="M51 419v-2s-3 1-3-1v-3c0-2 3-1 3-1v-2"/>
    <path id="path868" d="M51 428v-2s-3 1-3-1v-3c0-2 3-1 3-1v-2"/>
    <path id="path870" d="M51 428v-2s-3 1-3-1v-3c0-2 3-1 3-1v-2"/>
    <path id="path872" d="M51 437v-2s-3 1-3-1v-3c0-2 3-1 3-1v-2"/>
    <path id="path874" d="M51 446v-2s-3 1-3-1v-3c0-2 3-1 3-1v-1"/>
    <path id="path878" d="M51 455v-1s-3 0-3-2v-2c0-3 3-2 3-2v-1"/>
    <path id="path880" d="M51 365v90"/>
    <path id="path882" d="M54 373v-1s3 1 3-2v-2c0-2-3-2-3-2v-1"/>
    <path id="path890" d="M54 400v-1s3 1 3-1v-3c0-2-3-1-3-1v-2"/>
    <path id="path892" d="M54 410v-2s3 1 3-1v-3c0-2-3-1-3-1v-2"/>
    <path id="path894" d="M54 419v-2s3 1 3-1v-3c0-2-3-1-3-1v-2"/>
    <path id="path896" d="M54 428v-2s3 1 3-1v-3c0-2-3-1-3-1v-2"/>
    <path id="path898" d="M54 428v-2s3 1 3-1v-3c0-2-3-1-3-1v-2"/>
    <path id="path900" d="M54 437v-2s3 1 3-1v-3c0-2-3-1-3-1v-2"/>
    <path id="path902" d="M54 446v-2s3 1 3-1v-3c0-2-3-1-3-1v-1"/>
    <path id="path904" d="M54 455v-1s3 0 3-2v-2c0-3-3-2-3-2v-1"/>
    <path id="path884" d="M54 382v-1s3 1 3-2v-2c0-2-3-2-3-2v-1"/>
    <path id="path906" d="M54 365v17m0 11v62"/>
  </g>
  <path id="path935" fill="none" stroke="#000" stroke-linecap="butt" stroke-linejoin="miter" stroke-opacity="1" stroke-width="1" d="M126 136h8v-33s-21 3-33-18c-1-8 9-7 9-7s22 1 31 19h5c8-18 31-19 31-19s10-1 9 7c-12 21-33 18-33 18v33h7"/>
  <g id="WT, 19 hours 2iP" fill="none" stroke="#000" stroke-linecap="butt" stroke-linejoin="miter" stroke-opacity="1" transform="translate(91 -225)" stroke-width="1">
    <path id="path937" d="M58 391v69l-5 6-6-6v-95l-4-4h19l-4 4v19s7 1 10 7c0 0-6 4-10 0z"/>
    <path id="path939" d="M51 373v-1s-3 1-3-2v-2c0-2 3-2 3-2v-1"/>
    <path id="path941" d="M51 382v-1s-3 1-3-2v-2c0-2 3-2 3-2v-1"/>
    <path id="path943" d="M51 391v-1s-3 1-3-1v-3c0-2 3-2 3-2v-1"/>
    <path id="path945" d="M51 391v-1s-3 1-3-1v-3c0-2 3-2 3-2v-1"/>
    <path id="path947" d="M51 400v-1s-3 1-3-1v-3c0-2 3-1 3-1v-2"/>
    <path id="path949" d="M51 410v-2s-3 1-3-1v-3c0-2 3-1 3-1v-2"/>
    <path id="path951" d="M51 419v-2s-3 1-3-1v-3c0-2 3-1 3-1v-2"/>
    <path id="path953" d="M51 428v-2s-3 1-3-1v-3c0-2 3-1 3-1v-2"/>
    <path id="path955" d="M51 428v-2s-3 1-3-1v-3c0-2 3-1 3-1v-2"/>
    <path id="path957" d="M51 437v-2s-3 1-3-1v-3c0-2 3-1 3-1v-2"/>
    <path id="path959" d="M51 446v-2s-3 1-3-1v-3c0-2 3-1 3-1v-1"/>
    <path id="path961" d="M51 455v-1s-3 0-3-2v-2c0-3 3-2 3-2v-1"/>
    <path id="path963" d="M51 365v90"/>
    <path id="path965" d="M54 373v-1s3 1 3-2v-2c0-2-3-2-3-2v-1"/>
    <path id="path967" d="M54 400v-1s3 1 3-1v-3c0-2-3-1-3-1v-2"/>
    <path id="path969" d="M54 410v-2s3 1 3-1v-3c0-2-3-1-3-1v-2"/>
    <path id="path971" d="M54 419v-2s3 1 3-1v-3c0-2-3-1-3-1v-2"/>
    <path id="path973" d="M54 428v-2s3 1 3-1v-3c0-2-3-1-3-1v-2"/>
    <path id="path975" d="M54 428v-2s3 1 3-1v-3c0-2-3-1-3-1v-2"/>
    <path id="path977" d="M54 437v-2s3 1 3-1v-3c0-2-3-1-3-1v-2"/>
    <path id="path979" d="M54 446v-2s3 1 3-1v-3c0-2-3-1-3-1v-1"/>
    <path id="path981" d="M54 455v-1s3 0 3-2v-2c0-3-3-2-3-2v-1"/>
    <path id="path983" d="M54 382v-1s3 1 3-2v-2c0-2-3-2-3-2v-1"/>
    <path id="path985" d="M54 365v17m0 11v62"/>
  </g>
  <path id="path989" fill="none" stroke="#000" stroke-linecap="butt" stroke-linejoin="miter" stroke-opacity="1" stroke-width="1" d="M213 136h8v-33s-21 3-33-18c-1-8 9-7 9-7s23 1 31 19h5c8-18 31-19 31-19s10-1 9 7c-12 21-33 18-33 18v33h7"/>
  <g id="WT, 30 hours 2iP" fill="none" stroke="#000" stroke-linecap="butt" stroke-linejoin="miter" stroke-opacity="1" transform="translate(178 -225)" stroke-width="1">
    <path id="path991" d="M58 391v69l-5 6-6-6v-95l-4-4h19l-4 4v19s7 1 10 7c0 0-6 4-10 0z"/>
    <path id="path993" d="M51 373v-1s-3 1-3-2v-2c0-2 3-2 3-2v-1"/>
    <path id="path995" d="M51 382v-1s-3 1-3-2v-2c0-2 3-2 3-2v-1"/>
    <path id="path997" d="M51 391v-1s-3 1-3-1v-3c0-2 3-2 3-2v-1"/>
    <path id="path999" d="M51 391v-1s-3 1-3-1v-3c0-2 3-2 3-2v-1"/>
    <path id="path1001" d="M51 400v-1s-3 1-3-1v-3c0-2 3-1 3-1v-2"/>
    <path id="path1003" d="M51 410v-2s-3 1-3-1v-3c0-2 3-1 3-1v-2"/>
    <path id="path1005" d="M51 419v-2s-3 1-3-1v-3c0-2 3-1 3-1v-2"/>
    <path id="path1007" d="M51 428v-2s-3 1-3-1v-3c0-2 3-1 3-1v-2"/>
    <path id="path1009" d="M51 428v-2s-3 1-3-1v-3c0-2 3-1 3-1v-2"/>
    <path id="path1011" d="M51 437v-2s-3 1-3-1v-3c0-2 3-1 3-1v-2"/>
    <path id="path1013" d="M51 446v-2s-3 1-3-1v-3c0-2 3-1 3-1v-1"/>
    <path id="path1015" d="M51 455v-1s-3 0-3-2v-2c0-3 3-2 3-2v-1"/>
    <path id="path1017" d="M51 365v90"/>
    <path id="path1019" d="M54 373v-1s3 1 3-2v-2c0-2-3-2-3-2v-1"/>
    <path id="path1021" d="M54 400v-1s3 1 3-1v-3c0-2-3-1-3-1v-2"/>
    <path id="path1023" d="M54 410v-2s3 1 3-1v-3c0-2-3-1-3-1v-2"/>
    <path id="path1025" d="M54 419v-2s3 1 3-1v-3c0-2-3-1-3-1v-2"/>
    <path id="path1027" d="M54 428v-2s3 1 3-1v-3c0-2-3-1-3-1v-2"/>
    <path id="path1029" d="M54 428v-2s3 1 3-1v-3c0-2-3-1-3-1v-2"/>
    <path id="path1031" d="M54 437v-2s3 1 3-1v-3c0-2-3-1-3-1v-2"/>
    <path id="path1033" d="M54 446v-2s3 1 3-1v-3c0-2-3-1-3-1v-1"/>
    <path id="path1035" d="M54 455v-1s3 0 3-2v-2c0-3-3-2-3-2v-1"/>
    <path id="path1037" d="M54 382v-1s3 1 3-2v-2c0-2-3-2-3-2v-1"/>
    <path id="path1039" d="M54 365v17m0 11v62"/>
  </g>
  <path id="path1043" fill="none" stroke="#000" stroke-linecap="butt" stroke-linejoin="miter" stroke-opacity="1" stroke-width="1" d="M300 136h8v-33s-21 3-33-18c-1-8 9-7 9-7s23 1 31 19h5c8-18 31-19 31-19s10-1 9 7c-12 21-33 18-33 18v33h7"/>
  <g id="WT, 48 hours 2iP95" fill="none" stroke="#000" stroke-linecap="butt" stroke-linejoin="miter" stroke-opacity="1" transform="translate(265 -225)" stroke-width="1">
    <path id="path1045" d="M58 391v69l-5 6-6-6v-95l-4-4h19l-4 4v19s7 1 10 7c0 0-6 4-10 0z"/>
    <path id="path1047" d="M51 373v-1s-3 1-3-2v-2c0-2 3-2 3-2v-1"/>
    <path id="path1049" d="M51 382v-1s-3 1-3-2v-2c0-2 3-2 3-2v-1"/>
    <path id="path1051" d="M51 391v-1s-3 1-3-1v-3c0-2 3-2 3-2v-1"/>
    <path id="path1053" d="M51 391v-1s-3 1-3-1v-3c0-2 3-2 3-2v-1"/>
    <path id="path1055" d="M51 400v-1s-3 1-3-1v-3c0-2 3-1 3-1v-2"/>
    <path id="path1057" d="M51 410v-2s-3 1-3-1v-3c0-2 3-1 3-1v-2"/>
    <path id="path1059" d="M51 419v-2s-3 1-3-1v-3c0-2 3-1 3-1v-2"/>
    <path id="path1061" d="M51 428v-2s-3 1-3-1v-3c0-2 3-1 3-1v-2"/>
    <path id="path1063" d="M51 428v-2s-3 1-3-1v-3c0-2 3-1 3-1v-2"/>
    <path id="path1065" d="M51 437v-2s-3 1-3-1v-3c0-2 3-1 3-1v-2"/>
    <path id="path1067" d="M51 446v-2s-3 1-3-1v-3c0-2 3-1 3-1v-1"/>
    <path id="path1069" d="M51 455v-1s-3 0-3-2v-2c0-3 3-2 3-2v-1"/>
    <path id="path1071" d="M51 365v90"/>
    <path id="path1073" d="M54 373v-1s3 1 3-2v-2c0-2-3-2-3-2v-1"/>
    <path id="path1075" d="M54 400v-1s3 1 3-1v-3c0-2-3-1-3-1v-2"/>
    <path id="path1077" d="M54 410v-2s3 1 3-1v-3c0-2-3-1-3-1v-2"/>
    <path id="path1079" d="M54 419v-2s3 1 3-1v-3c0-2-3-1-3-1v-2"/>
    <path id="path1081" d="M54 428v-2s3 1 3-1v-3c0-2-3-1-3-1v-2"/>
    <path id="path1083" d="M54 428v-2s3 1 3-1v-3c0-2-3-1-3-1v-2"/>
    <path id="path1085" d="M54 437v-2s3 1 3-1v-3c0-2-3-1-3-1v-2"/>
    <path id="path1087" d="M54 446v-2s3 1 3-1v-3c0-2-3-1-3-1v-1"/>
    <path id="path1089" d="M54 455v-1s3 0 3-2v-2c0-3-3-2-3-2v-1"/>
    <path id="path1091" d="M54 382v-1s3 1 3-2v-2c0-2-3-2-3-2v-1"/>
    <path id="path1093" d="M54 365v17m0 11v62"/>
  </g>
  <path id="path1097" fill="none" stroke="#000" stroke-linecap="butt" stroke-linejoin="miter" stroke-opacity="1" stroke-width="1" d="M39 308h8v-32s-21 2-33-19c-1-8 9-7 9-7s22 1 31 19h5c8-18 31-19 31-19s10-1 8 7c-11 21-32 19-32 19v32h7"/>
  <g id="wus, 0 hours 2iP" fill="none" stroke="#000" stroke-linecap="butt" stroke-linejoin="miter" stroke-opacity="1" transform="translate(4 -53)" stroke-width="1">
    <path id="path1099" d="M58 391v69l-5 6-6-6v-95l-4-4h19l-4 4v19s7 1 10 7c0 0-6 4-10 0z"/>
    <path id="path1101" d="M51 373v-1s-3 1-3-2v-2c0-2 3-2 3-2v-1"/>
    <path id="path1103" d="M51 382v-1s-3 1-3-2v-2c0-2 3-2 3-2v-1"/>
    <path id="path1105" d="M51 391v-1s-3 1-3-1v-3c0-2 3-2 3-2v-1"/>
    <path id="path1107" d="M51 391v-1s-3 1-3-1v-3c0-2 3-2 3-2v-1"/>
    <path id="path1109" d="M51 400v-1s-3 1-3-1v-3c0-2 3-1 3-1v-2"/>
    <path id="path1111" d="M51 410v-2s-3 1-3-1v-3c0-2 3-1 3-1v-2"/>
    <path id="path1113" d="M51 419v-2s-3 1-3-1v-3c0-2 3-1 3-1v-2"/>
    <path id="path1115" d="M51 428v-2s-3 1-3-1v-3c0-2 3-1 3-1v-2"/>
    <path id="path1117" d="M51 428v-2s-3 1-3-1v-3c0-2 3-1 3-1v-2"/>
    <path id="path1119" d="M51 437v-2s-3 1-3-1v-3c0-2 3-1 3-1v-2"/>
    <path id="path1121" d="M51 446v-2s-3 1-3-1v-3c0-2 3-1 3-1v-1"/>
    <path id="path1123" d="M51 455v-1s-3 0-3-2v-2c0-3 3-2 3-2v-1"/>
    <path id="path1125" d="M51 365v90"/>
    <path id="path1127" d="M54 373v-1s3 1 3-2v-2c0-2-3-2-3-2v-1"/>
    <path id="path1129" d="M54 400v-1s3 1 3-1v-3c0-2-3-1-3-1v-2"/>
    <path id="path1131" d="M54 410v-2s3 1 3-1v-3c0-2-3-1-3-1v-2"/>
    <path id="path1133" d="M54 419v-2s3 1 3-1v-3c0-2-3-1-3-1v-2"/>
    <path id="path1135" d="M54 428v-2s3 1 3-1v-3c0-2-3-1-3-1v-2"/>
    <path id="path1137" d="M54 428v-2s3 1 3-1v-3c0-2-3-1-3-1v-2"/>
    <path id="path1139" d="M54 437v-2s3 1 3-1v-3c0-2-3-1-3-1v-2"/>
    <path id="path1141" d="M54 446v-2s3 1 3-1v-3c0-2-3-1-3-1v-1"/>
    <path id="path1143" d="M54 455v-1s3 0 3-2v-2c0-3-3-2-3-2v-1"/>
    <path id="path1145" d="M54 382v-1s3 1 3-2v-2c0-2-3-2-3-2v-1"/>
    <path id="path1147" d="M54 365v17m0 11v62"/>
  </g>
  <path id="path1151" fill="none" stroke="#000" stroke-linecap="butt" stroke-linejoin="miter" stroke-opacity="1" stroke-width="1" d="M126 308h8v-32s-21 2-33-19c-1-8 9-7 9-7s22 1 31 19h5c8-18 31-19 31-19s10-1 9 7c-12 21-33 19-33 19v32h7"/>
  <g id="wus, 19 hours 2iP" fill="none" stroke="#000" stroke-linecap="butt" stroke-linejoin="miter" stroke-opacity="1" transform="translate(91 -53)" stroke-width="1">
    <path id="path1153" d="M58 391v69l-5 6-6-6v-95l-4-4h19l-4 4v19s7 1 10 7c0 0-6 4-10 0z"/>
    <path id="path1155" d="M51 373v-1s-3 1-3-2v-2c0-2 3-2 3-2v-1"/>
    <path id="path1157" d="M51 382v-1s-3 1-3-2v-2c0-2 3-2 3-2v-1"/>
    <path id="path1159" d="M51 391v-1s-3 1-3-1v-3c0-2 3-2 3-2v-1"/>
    <path id="path1161" d="M51 391v-1s-3 1-3-1v-3c0-2 3-2 3-2v-1"/>
    <path id="path1163" d="M51 400v-1s-3 1-3-1v-3c0-2 3-1 3-1v-2"/>
    <path id="path1165" d="M51 410v-2s-3 1-3-1v-3c0-2 3-1 3-1v-2"/>
    <path id="path1167" d="M51 419v-2s-3 1-3-1v-3c0-2 3-1 3-1v-2"/>
    <path id="path1169" d="M51 428v-2s-3 1-3-1v-3c0-2 3-1 3-1v-2"/>
    <path id="path1171" d="M51 428v-2s-3 1-3-1v-3c0-2 3-1 3-1v-2"/>
    <path id="path1173" d="M51 437v-2s-3 1-3-1v-3c0-2 3-1 3-1v-2"/>
    <path id="path1175" d="M51 446v-2s-3 1-3-1v-3c0-2 3-1 3-1v-1"/>
    <path id="path1177" d="M51 455v-1s-3 0-3-2v-2c0-3 3-2 3-2v-1"/>
    <path id="path1179" d="M51 365v90"/>
    <path id="path1181" d="M54 373v-1s3 1 3-2v-2c0-2-3-2-3-2v-1"/>
    <path id="path1183" d="M54 400v-1s3 1 3-1v-3c0-2-3-1-3-1v-2"/>
    <path id="path1185" d="M54 410v-2s3 1 3-1v-3c0-2-3-1-3-1v-2"/>
    <path id="path1187" d="M54 419v-2s3 1 3-1v-3c0-2-3-1-3-1v-2"/>
    <path id="path1189" d="M54 428v-2s3 1 3-1v-3c0-2-3-1-3-1v-2"/>
    <path id="path1191" d="M54 428v-2s3 1 3-1v-3c0-2-3-1-3-1v-2"/>
    <path id="path1193" d="M54 437v-2s3 1 3-1v-3c0-2-3-1-3-1v-2"/>
    <path id="path1195" d="M54 446v-2s3 1 3-1v-3c0-2-3-1-3-1v-1"/>
    <path id="path1197" d="M54 455v-1s3 0 3-2v-2c0-3-3-2-3-2v-1"/>
    <path id="path1199" d="M54 382v-1s3 1 3-2v-2c0-2-3-2-3-2v-1"/>
    <path id="path1201" d="M54 365v17m0 11v62"/>
  </g>
  <path id="path1205" fill="none" stroke="#000" stroke-linecap="butt" stroke-linejoin="miter" stroke-opacity="1" stroke-width="1" d="M213 308h8v-32s-21 2-33-19c-1-8 9-7 9-7s23 1 31 19h5c8-18 31-19 31-19s10-1 9 7c-12 21-33 19-33 19v32h7"/>
  <g id="wus, 30 hours 2iP" fill="none" stroke="#000" stroke-linecap="butt" stroke-linejoin="miter" stroke-opacity="1" transform="translate(178 -53)" stroke-width="1">
    <path id="path1207" d="M58 391v69l-5 6-6-6v-95l-4-4h19l-4 4v19s7 1 10 7c0 0-6 4-10 0z"/>
    <path id="path1209" d="M51 373v-1s-3 1-3-2v-2c0-2 3-2 3-2v-1"/>
    <path id="path1211" d="M51 382v-1s-3 1-3-2v-2c0-2 3-2 3-2v-1"/>
    <path id="path1213" d="M51 391v-1s-3 1-3-1v-3c0-2 3-2 3-2v-1"/>
    <path id="path1215" d="M51 391v-1s-3 1-3-1v-3c0-2 3-2 3-2v-1"/>
    <path id="path1217" d="M51 400v-1s-3 1-3-1v-3c0-2 3-1 3-1v-2"/>
    <path id="path1219" d="M51 410v-2s-3 1-3-1v-3c0-2 3-1 3-1v-2"/>
    <path id="path1221" d="M51 419v-2s-3 1-3-1v-3c0-2 3-1 3-1v-2"/>
    <path id="path1223" d="M51 428v-2s-3 1-3-1v-3c0-2 3-1 3-1v-2"/>
    <path id="path1225" d="M51 428v-2s-3 1-3-1v-3c0-2 3-1 3-1v-2"/>
    <path id="path1227" d="M51 437v-2s-3 1-3-1v-3c0-2 3-1 3-1v-2"/>
    <path id="path1229" d="M51 446v-2s-3 1-3-1v-3c0-2 3-1 3-1v-1"/>
    <path id="path1231" d="M51 455v-1s-3 0-3-2v-2c0-3 3-2 3-2v-1"/>
    <path id="path1233" d="M51 365v90"/>
    <path id="path1235" d="M54 373v-1s3 1 3-2v-2c0-2-3-2-3-2v-1"/>
    <path id="path1237" d="M54 400v-1s3 1 3-1v-3c0-2-3-1-3-1v-2"/>
    <path id="path1239" d="M54 410v-2s3 1 3-1v-3c0-2-3-1-3-1v-2"/>
    <path id="path1241" d="M54 419v-2s3 1 3-1v-3c0-2-3-1-3-1v-2"/>
    <path id="path1243" d="M54 428v-2s3 1 3-1v-3c0-2-3-1-3-1v-2"/>
    <path id="path1245" d="M54 428v-2s3 1 3-1v-3c0-2-3-1-3-1v-2"/>
    <path id="path1247" d="M54 437v-2s3 1 3-1v-3c0-2-3-1-3-1v-2"/>
    <path id="path1249" d="M54 446v-2s3 1 3-1v-3c0-2-3-1-3-1v-1"/>
    <path id="path1251" d="M54 455v-1s3 0 3-2v-2c0-3-3-2-3-2v-1"/>
    <path id="path1253" d="M54 382v-1s3 1 3-2v-2c0-2-3-2-3-2v-1"/>
    <path id="path1255" d="M54 365v17m0 11v62"/>
  </g>
  <path id="path1259" fill="none" stroke="#000" stroke-linecap="butt" stroke-linejoin="miter" stroke-opacity="1" stroke-width="1" d="M300 308h8v-32s-21 2-33-19c-1-8 9-7 9-7s23 1 31 19h5c8-18 31-19 31-19s10-1 9 7c-12 21-33 19-33 19v32h7"/>
  <g id="wus, 48 hours 2iP" fill="none" stroke="#000" stroke-linecap="butt" stroke-linejoin="miter" stroke-opacity="1" transform="translate(265 -53)" stroke-width="1">
    <path id="path1261" d="M58 391v69l-5 6-6-6v-95l-4-4h19l-4 4v19s7 1 10 7c0 0-6 4-10 0z"/>
    <path id="path1263" d="M51 373v-1s-3 1-3-2v-2c0-2 3-2 3-2v-1"/>
    <path id="path1265" d="M51 382v-1s-3 1-3-2v-2c0-2 3-2 3-2v-1"/>
    <path id="path1267" d="M51 391v-1s-3 1-3-1v-3c0-2 3-2 3-2v-1"/>
    <path id="path1269" d="M51 391v-1s-3 1-3-1v-3c0-2 3-2 3-2v-1"/>
    <path id="path1271" d="M51 400v-1s-3 1-3-1v-3c0-2 3-1 3-1v-2"/>
    <path id="path1273" d="M51 410v-2s-3 1-3-1v-3c0-2 3-1 3-1v-2"/>
    <path id="path1275" d="M51 419v-2s-3 1-3-1v-3c0-2 3-1 3-1v-2"/>
    <path id="path1277" d="M51 428v-2s-3 1-3-1v-3c0-2 3-1 3-1v-2"/>
    <path id="path1279" d="M51 428v-2s-3 1-3-1v-3c0-2 3-1 3-1v-2"/>
    <path id="path1281" d="M51 437v-2s-3 1-3-1v-3c0-2 3-1 3-1v-2"/>
    <path id="path1283" d="M51 446v-2s-3 1-3-1v-3c0-2 3-1 3-1v-1"/>
    <path id="path1285" d="M51 455v-1s-3 0-3-2v-2c0-3 3-2 3-2v-1"/>
    <path id="path1287" d="M51 365v90"/>
    <path id="path1289" d="M54 373v-1s3 1 3-2v-2c0-2-3-2-3-2v-1"/>
    <path id="path1291" d="M54 400v-1s3 1 3-1v-3c0-2-3-1-3-1v-2"/>
    <path id="path1293" d="M54 410v-2s3 1 3-1v-3c0-2-3-1-3-1v-2"/>
    <path id="path1295" d="M54 419v-2s3 1 3-1v-3c0-2-3-1-3-1v-2"/>
    <path id="path1297" d="M54 428v-2s3 1 3-1v-3c0-2-3-1-3-1v-2"/>
    <path id="path1299" d="M54 428v-2s3 1 3-1v-3c0-2-3-1-3-1v-2"/>
    <path id="path1301" d="M54 437v-2s3 1 3-1v-3c0-2-3-1-3-1v-2"/>
    <path id="path1303" d="M54 446v-2s3 1 3-1v-3c0-2-3-1-3-1v-1"/>
    <path id="path1305" d="M54 455v-1s3 0 3-2v-2c0-3-3-2-3-2v-1"/>
    <path id="path1307" d="M54 382v-1s3 1 3-2v-2c0-2-3-2-3-2v-1"/>
    <path id="path1309" d="M54 365v17m0 11v62"/>
  </g>
  <path id="path1313" fill="none" stroke="#000" stroke-dasharray="none" stroke-linecap="butt" stroke-linejoin="miter" stroke-miterlimit="4" stroke-opacity="1" stroke-width="2" d="M640 168v121l-12 9-12-9V123l-10-8h43l-9 8v33s15 1 21 12c0 0-13 6-21 0z"/>
  <path id="path1315" fill="none" stroke="#000" stroke-linecap="butt" stroke-linejoin="miter" stroke-opacity="1" stroke-width="1.9" d="M624 137v-2s-6 1-6-3v-4c0-4 6-3 6-3v-2"/>
  <path id="path1317" fill="none" stroke="#000" stroke-linecap="butt" stroke-linejoin="miter" stroke-opacity="1" stroke-width="1.9" d="M624 153v-2s-6 1-6-3v-4c0-4 6-3 6-3v-2"/>
  <path id="path1319" fill="none" stroke="#000" stroke-linecap="butt" stroke-linejoin="miter" stroke-opacity="1" stroke-width="1.9" d="M624 169v-3s-6 2-6-2v-5c0-4 6-2 6-2v-3"/>
  <path id="path1321" fill="none" stroke="#000" stroke-linecap="butt" stroke-linejoin="miter" stroke-opacity="1" stroke-width="1.9" d="M624 169v-3s-6 2-6-2v-5c0-4 6-2 6-2v-3"/>
  <path id="path1323" fill="none" stroke="#000" stroke-linecap="butt" stroke-linejoin="miter" stroke-opacity="1" stroke-width="1.9" d="M624 185v-3s-6 1-6-2v-5c0-4 6-3 6-3v-2"/>
  <path id="path1325" fill="none" stroke="#000" stroke-linecap="butt" stroke-linejoin="miter" stroke-opacity="1" stroke-width="1.9" d="M624 200v-2s-6 1-6-3v-4c0-4 6-3 6-3v-2"/>
  <path id="path1327" fill="none" stroke="#000" stroke-linecap="butt" stroke-linejoin="miter" stroke-opacity="1" stroke-width="1.9" d="M624 216v-2s-6 1-6-3v-4c0-4 6-3 6-3v-2"/>
  <path id="path1329" fill="none" stroke="#000" stroke-linecap="butt" stroke-linejoin="miter" stroke-opacity="1" stroke-width="1.9" d="M624 232v-3s-6 2-6-2v-5c0-3 6-2 6-2v-3"/>
  <path id="path1331" fill="none" stroke="#000" stroke-linecap="butt" stroke-linejoin="miter" stroke-opacity="1" stroke-width="1.9" d="M624 232v-3s-6 2-6-2v-5c0-3 6-2 6-2v-3"/>
  <path id="path1333" fill="none" stroke="#000" stroke-linecap="butt" stroke-linejoin="miter" stroke-opacity="1" stroke-width="1.9" d="M624 248v-3s-6 2-6-2v-5c0-4 6-2 6-2v-3"/>
  <path id="path1335" fill="none" stroke="#000" stroke-linecap="butt" stroke-linejoin="miter" stroke-opacity="1" stroke-width="1.9" d="M624 263v-2s-6 1-6-3v-4c0-4 6-3 6-3v-2"/>
  <path id="path1337" fill="none" stroke="#000" stroke-linecap="butt" stroke-linejoin="miter" stroke-opacity="1" stroke-width="1.9" d="M624 279v-2s-6 1-6-3v-4c0-4 6-3 6-3v-2"/>
  <path id="path1339" fill="none" stroke="#000" stroke-linecap="butt" stroke-linejoin="miter" stroke-opacity="1" stroke-width="2" d="M624 123v156"/>
  <path id="path1341" fill="none" stroke="#000" stroke-linecap="butt" stroke-linejoin="miter" stroke-opacity="1" stroke-width="1.9" d="M630 137v-2s6 1 6-3v-4c0-4-6-3-6-3v-2"/>
  <path id="path1343" fill="none" stroke="#000" stroke-linecap="butt" stroke-linejoin="miter" stroke-opacity="1" stroke-width="1.9" d="M630 185v-3s6 1 6-2v-5c0-4-6-3-6-3v-2"/>
  <path id="path1345" fill="none" stroke="#000" stroke-linecap="butt" stroke-linejoin="miter" stroke-opacity="1" stroke-width="1.9" d="M630 200v-2s6 1 6-3v-4c0-4-6-3-6-3v-2"/>
  <path id="path1347" fill="none" stroke="#000" stroke-linecap="butt" stroke-linejoin="miter" stroke-opacity="1" stroke-width="1.9" d="M630 216v-2s6 1 6-3v-4c0-4-6-3-6-3v-2"/>
  <path id="path1349" fill="none" stroke="#000" stroke-linecap="butt" stroke-linejoin="miter" stroke-opacity="1" stroke-width="1.9" d="M630 232v-3s6 2 6-2v-5c0-3-6-2-6-2v-3"/>
  <path id="path1351" fill="none" stroke="#000" stroke-linecap="butt" stroke-linejoin="miter" stroke-opacity="1" stroke-width="1.9" d="M630 232v-3s6 2 6-2v-5c0-3-6-2-6-2v-3"/>
  <path id="path1353" fill="none" stroke="#000" stroke-linecap="butt" stroke-linejoin="miter" stroke-opacity="1" stroke-width="1.9" d="M630 248v-3s6 2 6-2v-5c0-4-6-2-6-2v-3"/>
  <path id="path1355" fill="none" stroke="#000" stroke-linecap="butt" stroke-linejoin="miter" stroke-opacity="1" stroke-width="1.9" d="M630 263v-2s6 1 6-3v-4c0-4-6-3-6-3v-2"/>
  <path id="path1357" fill="none" stroke="#000" stroke-linecap="butt" stroke-linejoin="miter" stroke-opacity="1" stroke-width="1.9" d="M630 279v-2s6 1 6-3v-4c0-4-6-3-6-3v-2"/>
  <path id="path1359" fill="none" stroke="#000" stroke-linecap="butt" stroke-linejoin="miter" stroke-opacity="1" stroke-width="1.9" d="M630 153v-2s6 1 6-3v-4c0-4-6-3-6-3v-2"/>
  <path id="path1361" fill="none" stroke="#000" stroke-linecap="butt" stroke-linejoin="miter" stroke-opacity="1" stroke-width="2" d="M630 123v30m0 18v108"/>
  <path id="path1390" fill="none" stroke="#000" stroke-dasharray="3 1" stroke-dashoffset="0" stroke-linecap="butt" stroke-linejoin="miter" stroke-miterlimit="4" stroke-opacity="1" stroke-width="1" d="M649 115h28"/>
  <path id="path1392" fill="none" stroke="#000" stroke-dasharray="3 1" stroke-dashoffset="0" stroke-linecap="butt" stroke-linejoin="miter" stroke-miterlimit="4" stroke-opacity="1" stroke-width="1" d="M606 115h-19"/>
  <path id="path1394" fill="none" stroke="#000" stroke-linecap="butt" stroke-linejoin="miter" stroke-opacity="1" stroke-width="1" d="M649 115v-8"/>
  <path id="path1396" fill="none" stroke="#000" stroke-linecap="butt" stroke-linejoin="miter" stroke-opacity="1" stroke-width="1" d="M606 115v-7"/>
  <g id="WUSp cells, 30 hours 2iP" fill="none" fill-opacity="1" fill-rule="evenodd" stroke="#000" stroke-dasharray="none" stroke-dashoffset="0" stroke-linecap="butt" stroke-linejoin="miter" stroke-miterlimit="4" stroke-opacity="1" stroke-width="1" transform="translate(4 -225)">
    <path id="path1402" d="M620 356a3 3 0 0 1-3 2 3 3 0 0 1-3-2 3 3 0 0 1 3-3 3 3 0 0 1 3 3z" opacity="1" vector-effect="none"/>
    <path id="path1405" d="M620 371a3 3 0 0 1-3 3 3 3 0 0 1-3-3 3 3 0 0 1 3-2 3 3 0 0 1 3 2z" opacity="1" vector-effect="none"/>
    <path id="path1409" d="M620 387a3 3 0 0 1-3 2 3 3 0 0 1-3-2 3 3 0 0 1 3-3 3 3 0 0 1 3 3z" opacity="1" vector-effect="none"/>
    <path id="path1413" d="M620 402a3 3 0 0 1-3 3 3 3 0 0 1-3-3 3 3 0 0 1 3-2 3 3 0 0 1 3 2z" opacity="1" vector-effect="none"/>
    <path id="path1415" d="M620 418a3 3 0 0 1-3 3 3 3 0 0 1-3-3 3 3 0 0 1 3-3 3 3 0 0 1 3 3z" opacity="1" vector-effect="none"/>
    <path id="path1419" d="M620 434a3 3 0 0 1-3 2 3 3 0 0 1-3-2 3 3 0 0 1 3-3 3 3 0 0 1 3 3z" opacity="1" vector-effect="none"/>
    <path id="path1421" d="M620 449a3 3 0 0 1-3 3 3 3 0 0 1-3-3 3 3 0 0 1 3-2 3 3 0 0 1 3 2z" opacity="1" vector-effect="none"/>
    <path id="path1423" d="M620 465a3 3 0 0 1-3 3 3 3 0 0 1-3-3 3 3 0 0 1 3-3 3 3 0 0 1 3 3z" opacity="1" vector-effect="none"/>
    <path id="path1425" d="M620 481a3 3 0 0 1-3 2 3 3 0 0 1-3-2 3 3 0 0 1 3-3 3 3 0 0 1 3 3z" opacity="1" vector-effect="none"/>
    <path id="path1429" d="M620 496a3 3 0 0 1-3 3 3 3 0 0 1-3-3 3 3 0 0 1 3-2 3 3 0 0 1 3 2z" opacity="1" vector-effect="none"/>
    <path id="path1449" d="M632 356a3 3 0 0 1-2 2 3 3 0 0 1-3-2 3 3 0 0 1 3-3 3 3 0 0 1 2 3z" opacity="1" vector-effect="none"/>
    <path id="path1451" d="M632 371a3 3 0 0 1-2 3 3 3 0 0 1-3-3 3 3 0 0 1 3-2 3 3 0 0 1 2 2z" opacity="1" vector-effect="none"/>
    <path id="path1455" d="M632 402a3 3 0 0 1-2 3 3 3 0 0 1-3-3 3 3 0 0 1 3-2 3 3 0 0 1 2 2z" opacity="1" vector-effect="none"/>
    <path id="path1457" d="M632 418a3 3 0 0 1-2 3 3 3 0 0 1-3-3 3 3 0 0 1 3-3 3 3 0 0 1 2 3z" opacity="1" vector-effect="none"/>
    <path id="path1459" d="M632 434a3 3 0 0 1-2 2 3 3 0 0 1-3-2 3 3 0 0 1 3-3 3 3 0 0 1 2 3z" opacity="1" vector-effect="none"/>
    <path id="path1461" d="M632 449a3 3 0 0 1-2 3 3 3 0 0 1-3-3 3 3 0 0 1 3-2 3 3 0 0 1 2 2z" opacity="1" vector-effect="none"/>
    <path id="path1463" d="M632 465a3 3 0 0 1-2 3 3 3 0 0 1-3-3 3 3 0 0 1 3-3 3 3 0 0 1 2 3z" opacity="1" vector-effect="none"/>
    <path id="path1465" d="M632 481a3 3 0 0 1-2 2 3 3 0 0 1-3-2 3 3 0 0 1 3-3 3 3 0 0 1 2 3z" opacity="1" vector-effect="none"/>
    <path id="path1467" d="M632 496a3 3 0 0 1-2 3 3 3 0 0 1-3-3 3 3 0 0 1 3-2 3 3 0 0 1 2 2z" opacity="1" vector-effect="none"/>
  </g>
  <g id="Sena et al., regenerating stump of root tip after 22hrs" transform="translate(55 -157) scale(.7535)">
    <path id="path3350" fill="#ff0" stroke-width="1.3" d="M450 1022c-4-2-7-9-7-14 0-2-1-3-3-4-6-2-11-13-14-27a722 722 0 0 0-17-72 7199 7199 0 0 0-6-45c-1-7-1-8 2-9l3-4c-1-1 8-2 53-2h54v11c0 8-1 12-2 13l-2 8a966 966 0 0 1-25 137l-3 6h-10c-7 0-10 1-10 2-1 3-7 3-13 0z"/>
  </g>
  <g id="Sena et al., 130 mm of root tip (uncut control)" transform="translate(55 -157) scale(.7535)">
    <path id="path3348" fill="#ff0" stroke-width="1.3" d="M-18 1015c-8-3-15-15-20-34-4-17-4-16-6-13-5 5-11 0-7-7 2-4 2-16-1-19-1-2-2-6-2-15 0-15-1-22-4-29-3-8-4-17-1-17l4 4 4 9 2 5v-12c-1-14 1-34 2-39l1-3h44c41 0 44 1 44 3 1 1 0 8-1 16a648 648 0 0 0-1 33c5 0 12 4 11 7-1 1 0 1 1 1 3 0 2 4-1 7-2 2-2 4-2 6 1 4-1 5-4 2-1-1-2 0-4 2-5 8-8 14-8 18l-2 7v3c2 1 1 4-1 14-2 9-11 10-11 2l-5 11a191 191 0 0 1-9 25c0 3-9 10-13 12-5 2-5 2-10 1z"/>
  </g>
  <g id="Sena et al., regenerating stump of root tip after 13hrs" transform="translate(55 -157) scale(.7535)">
    <path id="path3344" fill="#ff0" stroke-width="1.3" d="M335 974c-10-2-27-11-30-15l-2-8c0-9-1-11-5-11-3 0-3 0-2-4 0-4-1-6-4-11-4-6-4-8-5-18l-1-11-1-2c0-2-1-3-3-4-1 0-2-2-1-14 1-16 2-21 5-26l2-5h101v4c1 3 1 6-5 32l-5 24c-1 13-7 32-13 41l-5 10c0 3-8 15-10 17-3 2-8 3-16 1z"/>
  </g>
  <g id="Sena et al., regenerating stump of root tip after 5hrs" transform="translate(55 -157) scale(.7535)">
    <path id="path3342" fill="#ff0" stroke-width="1.3" d="m211 951-11-3-6-3c-1 0-7-5-11-10l-9-7-2-3-2-2c-1 1-1 0-1-1l-4-6-3-5-3-7c-3-8-2-15 2-17 2 0 2-1 1-2-2 0-2-1 0-3l3-18 3-17c0-1 12-2 49-2h49v9l3 42c1 2 0 4-1 6-1 1-2 3-1 4 1 3-1 11-3 14l-11 7-8 5c0 3-11 12-18 16l-10 4-6-1z"/>
  </g>
  <g id="Sena et al., regenerating stump of root tip at 0hrs" transform="translate(55 -157) scale(.7535)">
    <path id="path3340" fill="#ff0" stroke-width="1.3" d="m94 927-13-1c-8-1-11-1-13-3-5-4-7-11-7-22a702 702 0 0 0-1-53c1-3 1-3 48-3 26 0 47 1 48 2a396 396 0 0 1-8 71l-4 2-2 1-4 4-23 3-21-1z"/>
  </g>
  <path id="path3336" fill="#ff0" stroke-width="1" d="m5 510 1-1a1 1 0 0 1 0 2 1 1 0 0 1-1-1z"/>
  <path id="path1491" fill="#000" stroke-width="1" d="m393 611-2-3c0-5-3-9-6-10-4-3-7-8-8-19l-6-22c-5-15-8-28-11-57-2-16-2-16 1-17 1 0 2-1 1-2 0-1 0-2 4-2 5 0 5 1 6 3 0 1 1 2 3 2 3 1 3 0 2-2l1-3 1 1 2 1h2l2-1c3 0 3 0 3 6-1 5 0 7 1 6l2-7v-3c1 3 4 3 4 0v-2l1 10c0 7 0 9 2 9l1-10c0-6 0-9 1-8 0 3 0 3 1 1v-3l1 8c1 9 1 14 3 14l1-1-1-8c-1-9-1-13 1-13v2c-1 3 0 16 1 16 1 1 3-15 2-17l1-1a714 714 0 0 0-1 53c1-1 4-21 3-27a121 121 0 0 1 2-21l1 4c1 0 2-1 2-4v-5h6c6 0 7 1 7 3s0 2 3 2c1-1 3-1 3-3l4-2c3 0 3 1 2 3v8l-1 7a252 252 0 0 1-4 21 699 699 0 0 0-7 43l-3 15-2 11-2 8-3 11-2 5h-7l-8 1c-1 1-6 1-10-1zm9-2c1-4 0-9-2-9l-3-1c-2-4-4 4-2 8l1 4 3 1c2 0 3-1 3-3zm18-15c0-5-1-5-2-3-4 4-5 8-3 12 1 2 1 2 3-1l2-8zm-30-7-2-8c0-2-1-3-2-3-2 0-1 4 2 14 1 5 2 6 3 4l-1-7zm12 3c-1-6-1-7-2-5-3 5-2 11 1 11 2 0 2-1 1-6zm-17 2-2-4-3-3 1 3 3 6 1-2zm24-5c0-4-1-5-2-5l-3 3c-2 2-2 3 0 5 3 4 5 3 5-3zm8-3c4-7 5-13 3-13l-5 3c-3 3-3 4-4 9v7c1 1 1 1 3-1l3-5zm-21 4c2-2 1-5-1-7-3-4-4-1-2 5 1 3 2 4 3 2zm5-6c2-2 2-2 0-4-1-3-2-3-3-1v7l3-2zm7-5c2-2 2-3-3-5-3 0-4 2-3 5 2 4 3 4 6 0zm-11-1c0-2-5-7-6-7v4c0 3 0 4 2 4 3 2 4 1 4-1zm3-9c-1-6-4-7-5-2-2 4-2 5 1 7 3 3 4 1 4-5zm17-2c0-4 0-5-2-5-1 0-2 1-3 6l-1 7c1 1 1 1 3-1s3-4 3-7zm-31 2c-2-4-3-5-4-3s2 8 4 8c2 1 2-1 0-5zm20 2-1-4c0-2-1-3-2-3-2 0-2 1-2 4 0 4 0 5 3 5 2 0 3-1 2-2zm5-3c1-5 1-6-1-6-4 0-4 1-3 6s2 5 4 0zm-20 1-1-3c-1-2-3 0-2 2s3 2 3 1zm3-5h-4l1 3 2 2 1-2v-3zm28 1 1-5c-1 0-3 2-4 6s0 4 3-1zm-34-4c-1-3-4-8-5-7s1 8 3 10c1 2 3-1 2-3zm-7-3c-1-1-1 0-1 3l1 2v-5zm19 2v-4l-2-1c-2 0-2 0-2 4 0 3 0 4 2 4 1 0 2-1 2-3zm5 0-2-2c-2 0-2 1-2 2 0 2 0 3 2 3s2-1 2-3zm-10-2c0-3-1-3-2-3s-2 1-2 4c0 2 0 3 2 3 1 0 2-1 2-4zm17 1c1-2-1-4-4-5-2 0-2 0-2 3v4c1 1 6-1 6-2zm8-2 1-5h-2l-4 8c1 2 4 1 5-3zm-30-1c0-2-2-4-3-4v3c1 2 3 3 3 1zm14 0c0-2-2-1-2 0l1 1 1-1zm13-4c0-2-3-1-4 1-1 3 1 5 2 2l2-3zm9 0-1-2-1 2c0 2 0 3 1 2l1-2zm-32 1-2-1-2 1 2 1 2-1zm5 0-2-1-1 1 1 1 2-1zm13-2c1-2 0-2-3-2s-3 0-3 2c0 3 6 4 6 0zm-29 1-1-2-1 1 1 2 1-1zm21-1-2-1-1 1 1 2 2-2zm-17-1-2-1c-2 0-3 1-2 2s4 0 4-1zm8-1-2-1-1 1a2 2 0 0 0 3 0zm5 0-2-1-2 1c0 1 0 2 2 2l2-2zm24-4 2-8c0-3-3 0-5 6a344 344 0 0 1-1 8l4-6zm-33 4-1-1-1 1 1 1 1-1zm27-1v-3c-2-1-4 2-4 3 0 3 3 2 4 0zm-13 0-2-1-1 1 1 1 2-1zm8-2v-3c-2 0-5 2-5 4s4 1 5-1zm-28-1-2-1c-2 0-3 1-2 2s4 1 4-1zm2-3c-2-2-3-1-1 2l1 1v-3zm5 3-1-1-1-2v-2c-2-1-3 1-1 3 1 3 3 4 3 2zm3-1-1-2-1 2 1 2 1-2zm3 1c0-2-2-3-2-1l1 2 1-1zm7 0-1-1-1 1 1 1 1-1zm5-3 1-3h-3l-1 3c-1 4 1 3 3 0zm11-2c2-5 1-5-3-1-3 3-3 5 0 5l3-4zm-45 1c0-1 0-1 0 0v1-1zm7 0c0-1-3-3-4-2v2c1 2 4 2 4 0zm18-1-1-2-1 2c0 2 0 3 1 2l1-2zm2 0-1-2-1 2 1 3 1-3zm3 0 1-3c-2-1-3 1-3 4s1 2 2-1zm10 0v-3c-2 0-4 3-4 4 0 3 3 2 4-1zm-22-1-3-1c-2 1-1 3 2 3s3 0 1-2zm-9-1-1-1-1 1 1 1 1-1zm14-3-1-1-1 2c0 3 0 3 1 2l1-3zm14 1c0-2-2-2-3 0-1 1 1 3 2 2l1-2zm-34-3c0-3-1-3-2-2-2 1-1 5 1 6s3-1 1-4zm17 3-2-2c-2 0-2 1 0 3 1 1 2 1 2-1zm-5 0-1-3c-1-2-1-2-1 1l1 3 1-1zm11 0-1-1a1 1 0 0 0 0 2l1-1zm-18-2-1-2-1 2 1 2 1-2zm3-1-2-2v3c1 3 2 2 2-1zm18-1-1-3-1 3c0 2 0 4 1 3l1-3zm3-1-1-4-2 4 1 5c1 0 2-2 2-5zm12 2c1-3 1-4-1-4-1 0-3 1-4 4-1 4 3 4 5 0zm-29-4c-1-1-1 0-1 3l1 2v-5zm10-1-1-4v9c2 1 2-2 1-5zm14 4-1-2-2 2c-1 1-1 2 1 2l2-2zm12-1c0-2-1-2-3-2-1 0-2 0-3 2 0 3 0 3 3 2 1 0 2 0 3-2zm-32-2-1-4-1 4 1 4 1-4zm3-3c1-4 0-5-1-5l-1 6c0 5 0 6 1 5l1-6zm33-4c-1-2-2 3-2 7 0 3 0 2 1-1l1-6zm-54 7c1-3 1-4-2-4-2 0-3 2-1 4 1 2 2 2 3 0zm5-1h-2c-1 1 0 3 2 2v-2zm4 0v-2c-2-2-4 0-3 2s3 2 3 0zm28-4v-4c-1-1-2 4-2 7s1 1 2-3zm6 2c2-1 2-4 0-4-4 0-5 1-5 4 0 2 0 3 2 2l3-2zm-32-5c-2-3-2 0-1 4 1 3 1 3 1 0v-4zm4 1c0-5-1-6-2-7-1 0-2 0-1 4l1 7 1 2 1-6zm13-2-1-7-1 3-1 8c-1 3 0 4 1 4s2-2 2-8zm23 6c1-4 1-5-2-5-2 0-3 1-3 5 0 2 3 2 5 0zm-46-2-2-1-1 1 1 2a2 2 0 0 0 2-2zm26-1-1-3-1 3 1 3 1-3zm-31-1h-2l-3 1c0 1 1 2 3 1l2-2zm8-1c0-3-2-4-3-2-1 1 0 5 2 5l1-3zm10-4-1-6-1 6 1 7 1-7zm7 4-1-1-1 1 1 1 1-1zm-21-1-2-1c-2 0-2 3 0 3l2-2zm-6-2c1-1 0-1-2-1s-3 1-2 3c1 1 4 0 4-2zm48 0c0-3 0-4-3-3l-4 3c0 2 0 3 3 3s4-1 4-3zm-25 1 1-9c1-7 1-7-1-7s-2 0-2 8 0 10 2 8zm31 0 1-5c1-3 1-4-2-3-2 0-3 1-3 4 0 4 0 5 2 5l2-1zm-50-4-2-1c-2 0-2 0 0 3 1 2 3 1 2-2zm9 2c0-2-2-4-3-3s1 5 2 5l1-2zm21-4-2-1c-1 0-2 5-1 6s2-2 3-5zm6 1c0-5-1-4-2 1l1 4 1-5zm-13 0-1-3-1 3 1 4 1-4zm32-2c0-3-2-1-3 3 0 3 0 3 1 1l2-4zm-51 3c0-2-2-2-2 0l1 2c1 0 2-1 1-2zm-9-1h-4c-1 1 0 2 2 1l2-1zm18-3c0-3-1-4-2-3-3 0-3 5-1 6h2l1-3zm30 3c1 0 2-1 2-3 0-3 0-3-3-3-4 0-4 0-5 3 0 3 0 4 2 3h4zm-43-3-1-2c-2-1-4 1-3 2 1 2 4 2 4 0zm3 1c2-1 1-2-1-2l-1 1c0 2 0 2 2 1zm5-3-1-3-1 3 1 4 1-4zm-14 1c0-2 0-2-2-2s-3 1-2 3c2 1 4 1 4-1zm33-3-1-3-1 4 1 3 1-4zm3-1-1-5-1 5 1 5 1-5zm-14-3c0-5-1-7-2-6l-1 1v7c1 7 3 6 3-2zm7-5-1-11v11l1 12v-12zm14 8c0-2-1-3-2-3s-2 5-1 6c2 1 3-1 3-3zm16-1c0-3 0-3-3-3h-2l-1 5c-1 3 0 3 2 2 3 0 3 0 4-4zm3 3-1-1-1 1 1 2 1-2zm-52-1-2-1-1 1c0 2 2 2 3 0zm-4-1-2-1-2 1c0 1 0 2 2 2l2-2zm12 0c1-2-1-10-2-10l-1 5 1 6 2-1zm34-1 1-4c0-1-1-2-5-1-4 0-4 0-4 3s0 4 4 4l4-2zm-53-2c0-3 0-3-2-3-3 0-4 1-3 4 0 1 1 2 3 2s2-1 2-3zm11-1h-2c-2 0-2 1-1 2s3 0 3-2zm4-2c0-3-1-4-2-4l-1 4 1 5c1 0 2-2 2-5zm-9 1c0-3-1-4-4-3v4c1 3 4 2 4-1zm38-1c1-3 1-3-1-3s-2 0-2 2c0 3 1 3 3 1zm-34-4c1-2 0-3-1-3s-3 5-2 7 3 0 3-4zm51 3c2-4 1-5-2-5-3 1-3 1-3 4 0 2 0 3 2 3l3-2zm-62-4c0-2-1-3-2-3-3-1-4 1-3 4 0 2 1 3 3 3s3-1 2-4zm55 1c0-2-1-2-4-2-4-1-4 0-4 2s0 3 4 2c3 0 4 0 4-2zm-48-4c0-4-1-5-3-5-3 0-3 1-3 4 1 4 2 5 4 6 1 0 2-2 2-5zm17-1c0-5-3-4-3 1l1 4c1-1 2-2 2-5zm22 3c0-2-1-3-2-3l-1 3 1 2 2-2zm-31-5c0-8-2-9-2-1v6c2 2 3 0 2-5zm46 4c3-1 4-5 2-6s-5 1-5 4 0 3 3 2zm-4-2c0-1-1-2-5-2s-5 1-5 2 1 2 5 2 5-1 5-2zm-46-3c1-2 0-3-1-3-2 0-2 1-2 3 0 4 3 5 3 0zm-12-2c0-3 0-4-3-4s-4 1-3 2v4c0 2 1 2 3 2 3 0 3 0 3-4zm69 2-1-1-1 1a1 1 0 0 0 2 0zm-13 0 3-3c0-2-1-3-6-3s-5 1-5 3v3h8zM36 603c-4-5-7-10-11-26l-3-11-1 1c1 1 0 6-2 6-3 0-4-3-2-6v-15c-2-1-2-5-2-14-1-11-1-14-4-19-2-5-3-10-2-12 2-1 4 2 5 6l3 6c1 2 1 1 2-16 0-21 0-24 3-24s3 1 3 3c-1 2 0 3 2 3 1 1 2 0 2-3l2-2 3 1c2 0 3 0 2-1l1-1 1 1c0 2 5 2 5 0v11c1 0 2-2 2-6l2-5v4l-1 4c0 3 0 4 2 4s2-1 2-6v-6h1c0 2 3 2 3 0l1 3v5l1-5 1-3c0 2 4 2 4 0l1 2-1 2-2-2c-2 0-2 2-2 11l-1 13c-1 1 0 2 3 3 4 2 5 1 5-1l-1-1-2-1h-1c-2 0-2 0-2-2s0-2 1-1c0 2 2 2 2 0l1 1c0 3 2 2 2-1l1-2 4 2c2 0 3-1 3-3 0-1 0-2-3-1h-4l1-4 1-8c0-3 0-3 3-2 5 1 5 1 5-3l1-3v3c0 3 0 3 2 3s4-3 2-5l2-1h4v6l-3 17c-2 18-2 17 2 17l5 1c3 2 3 5 1 5-1 0-2 0-1 1h1c2-2 3-2 3 1l-2 3-1 4c0 3 0 3-2 2h-3l-2 2-2 5c-2 2-3 6-3 8l-1 4v5c0 3 0 6-2 9-3 7-6 6-6-2 0-3-1-1-4 9a180 180 0 0 1-9 22c0 2-4 6-8 8l-6 1c-2 0-4-1-7-4zm8 1a573 573 0 0 1-2-15c-1 1-2 2-2 5a250 250 0 0 1-2 6l2 4c2 2 5 2 4 0zm8-7c0-4-2-8-4-8-3 0-3 5-1 14v2l3-2 2-6zm-14-3c1-5 1-6-1-8-2-1-3-1-4 4 0 4 1 10 3 10l2-6zm19 0 2-4v-2l2-5 1-4 1-2 2-6v-4c-1 0-4 6-4 9l-1 1-2 2v4c-2 0-2 0-2 5v3l-1-2c0-2-1-3-3-2v5l2 5 3-3zm-25-13-3-4c-2 0-1 1 1 8 1 5 1 5 2 3v-7zm12 5 1-4c0-4-3-4-4 0-2 4 2 8 3 4zm6 1 4-5c3-4 4-6 1-6-2-1-3 0-3 2h-1c-3-2-5-1-5 5 0 5 2 7 4 4zm-11-5c1-3 1-4-1-6s-2-2-4 3c0 1 2 6 4 6l1-3zm-5-10c0-2-3-3-3-1l1 5c1 2 1 2 2 0v-4zm12 4c0-3-1-7-3-7-1 0-2 6-1 7h4zm-5-5c0-5-2-6-4-3s-2 3 0 5c3 4 4 3 4-2zm10 4c1-2-2-7-4-7v6c0 2 3 3 4 1zm9-3c3-8 2-10-2-3-2 3-3 4-2 6 2 2 2 1 4-3zm-31 2-1-1-1 1 1 1 1-1zm26-3c1-2 0-5-3-5-2 0-2 1-1 4 2 3 3 4 4 1zm-27-1-1-1-1 2c1 1 2 1 2-1zm8-3c1-2-1-6-2-6v7c1 1 2 1 2-1zm-4-2c0-3-2-5-3-3l2 6 1-3zm18 0c3 0 3-1 2-3-2-2-4-2-4 1h-1c-1-4-3-2-3 1 0 4 0 4 2 3l4-2zm9-1-3-1-1-1 1-1 6-10-2 2-3 4-2 2-2 2v1l2 3 1 2c1 1 2 1 2-1l1-2zm-32 2-1-1-1 1 1 1 1-1zm16-2c0-3-1-4-3-4s-3 4 0 6c2 2 3 1 3-2zm-17-2-1-1-1 1 2 1v-1zm35-1 1-3c-1-1-5 3-4 4 0 1 1 1 3-1zm5-3c3-8 2-9-2-1l-2 6c1 0 3-2 4-5zm-28-1-3 1v3c1 1 1 1 3-1v-3zm-7 2h1l2-1v-2h-3c-1 1-1 1-1-1l1-2 1-1-1-1-1 1-2 3v3c0 2 1 2 3 1zm21 0c0-2-2-3-6-3-5 0-7 1-5 3h11zm-26-3-1-1v3c1 1 2 0 1-2zm14-1-2-2-1-2-1-2v4c2 4 4 5 4 2zm13 0h-1l1 2v-2zm4 0c2-2 1-3-1-3l-2 3c0 2 2 2 3 0zm7-1v-3l-3 5c0 2 2 0 3-2zm-29-1-2-2v2l1 2c2 0 2-1 1-2zm8 1-1-1-1 1 1 1 1-1zm5-2c0-2 0-2-1-1v4l1-3zm3-1c0 3 2 2 2-1 1-3 0-5-1-2l-2 1-1 3v3l1-3 1-1zm-26 0c0-2-2-3-2-1s2 4 3 3l-1-2zm21 0-1-3-1 2 1 3 1-2zm-17-1c0-2-1-4-2-3s0 5 1 5l1-2zm14-1c0-4 0-4-1 0v3l1-3zm14-1c1-2 0-2-1-2l-1 1-1 3 1 2 2-4zm-17 0c1 1 1 0 1-1l-2-1c-2 1-4-1-4-7 0-2-3-2-3 1l1 2v3c0 1 0 2 2 3 2 0 3 1 3 2h1l1-2zm20 1v-2l-2 2c0 2 2 2 2 0zm6-1c2-3 1-4-1-4s-4 3-2 5c1 1 2 1 3-1zm3-2c0-2 0-2-1 0v3l1-3zm-21-1c-1-1-1 0-1 1 0 2 0 3 1 2v-3zm-16 1-1-2v-3c0-2 0-2-2-2l-1 3 2 5c0 1 2 1 2-1zm19-1-1-3-1 3 1 3 1-3zm-5 1-1-1-1 1 1 1 1-1zm-18-1c0-2-2-3-3-2v2h3zm27-2-1-2-2 2c0 3 2 3 3 0zm8 0c1-6-2-6-4 0l1 3 3-3zm-23-3c-1-1-1 0-1 2l1 1v-3zm5 4 1-11 1-13-1-2c-2 0-4 11-3 18v3c-2 0-2 0-2 3 0 2 0 3 2 2h2zm14-3-1 1c-1 1-1 1-1-1l-1-1 1 3c0 2 0 2 1 1l1-3zm-21-2c-2-1-2 0-1 3v2l1-2v-3zm13-1v-3l-1 3c-1 1-1 2-1 0 0-3-2-1-2 2s0 3 2 2l2-4zm17 3v-3c-1-1-1-1 1-1 3 0 3-4-1-4-1 0-2 0-2 2l-1 5c-1 2-1 3 1 3l2-2zm-12-3h2l1 1 1-2-1-1-1-3-1-3-1-2c-1-2-2-2-2 2-1 3-1 4 1 4l1 1h-2l-2 2c0 3 2 4 4 1zm-26-2a2 2 0 0 0-2-1c-1 0-2 1 0 2 1 1 2 1 2-1zm8 0 1-3-1-1c-2 0-2 1-2 3l1 3 1-2zm2-2-1 2c0 1 0 2 1 1v-3zm3 3-1-2c-1-2-1-1-1 0l1 3 1-1zm21-1-1-1a2 2 0 0 0-2 1l2 2 1-2zm-29-2c0-2-2-3-4-1-1 1 1 4 2 4s2-1 2-3zm14-1v-4l-1-2-1 4c0 5 2 7 2 2zm4-5c0-4-2-3-2 1-1 4 0 7 1 4l1-5zm9-3c0-5 0-7-1-6l-1 9v6l2-9zm21 6c6-4 6-5 3-6l-3-3c-1-3-4-1-5 3l-2 8c0 2 0 2 7-2zm-53 1-2-1-2 1 2 2 2-2zm36 1-1-2v-2c3-1 3-4 0-4l-2 1-1 5c-1 2-1 3 1 3l3-1zm-24-2-1-2-1 2 1 2 1-2zm29-1c-1-1-4-2-4 0l2 2 2-2zm-36-1-2-1-2 1 2 2 2-2zm4-1c0-2-1-3-2-3l-1 3 1 3c1 0 2-1 2-3zm-9-2c0-3 0-3-2-3-3 0-3 1-3 4l3 3c2 0 2-1 2-4zm29-3-1-1-1 3c0 3 0 4 1 2l1-4zm14 0-3-1-2-1-2-1c-2 0-3 0-3 2 0 1 1 2 3 2l2 1 2 3c1 0 2 0 2-2l1-3zm-31 1c1-5 1-6-1-5v9l1-4zm-7 1c0-2-1-2-2-2s-2 0-2 2l2 2 2-2zm15-1 1-3-1-1c-2 0-3 2-3 4l1 2 2-2zm6-2v-3l-1 1-1 2c-1 1-1 0-1-1v-2h-1l-1 4c0 2 0 2 1 1l2 1 1 1 1-4zm-17 0 1-6c0-4 0-4-2-4s-2 0-2 6c0 4 1 6 2 6a1 1 0 0 0 1-2zm-10-2-2-2c-2 0-2 0-2 2 0 1 0 2 2 1l2-1zm6 1-2-1-2 1 2 1 2-1zm39-3c-1 0-1-1 1-2v-3c-1-2-4-2-4 0v4c-1 4 1 5 3 3v-2zm-14-2c0-3 0-3 1-1 0 4 2 3 2 0s0-3-2-4c-2 0-3-1-3-2h-1c-2 0-2 1-2 4 0 5 1 6 2 3 1-1 1 0 1 1 0 5 2 4 2-1zm-25 1-3-1c-2 0-3 1-1 2 1 1 4 1 4-1zm16-3c0-9 0-10 2-9s3-3 3-11c0-7-1-7-2 0 0 7-1 10-3 10s-2 0-2 3l-1 7 1 5c2 0 2-1 2-5zm18 3c0-2-1-2-2-2-2 0-3 0-3 2 0 1 1 2 3 2l2-2zm-26-2h1c0 2 3 2 3-1 1-4 1-5-1-4l-2-1h-2l-1 4c0 5 2 7 2 2zm11-3-1-5-1 5 1 6 1-6zm-25 0c0-4-1-4-3-4l-2 1 1 2v3c0 2 0 3 2 3s2-1 2-5zm6-1 1-3-3-1c-3 0-3 0-3 3 1 5 1 5 3 5 1 0 2-1 2-4zm35 1c0-2 0-2-3-2l-3 2c0 1 1 2 3 2s3-1 3-2zm6-3c0-1-3-3-4-2-2 2-1 3 1 4 2 0 3 0 3-2zm-36-1c-1-3-3-3-3 0 0 2 0 3 2 3l1-3zm8-4v-5l1 1c0 3 2 3 3 1 2-3 1-7 0-7l-2 1c-1 2-1 2-1 0s-1-2-3-3h-4v16l2-2h1c0 2 1 3 2 3l1-5zm23 2c0-2 0-2-3-2-2 0-3 0-3 2s0 3 3 2c2 0 3-1 3-2zm-49-3-1-4c-1-2-1-1-1 3l1 4 1-3zm7 2c0-3-3-4-4-3-2 2-1 5 2 5l2-2zm7 0h2c2 1 3-1 3-4 0-2-1-2-6-2h-5v3l1 4c3 1 5 1 5-1zm41-1c0-3 0-3-2-3-1 0-2 0-2 2-1 3 0 4 2 4s2-1 2-3zm-48-7c0-3 0-3-3-3-2 0-2 0-2 3s0 4 2 4 3-1 3-4zm49 0v-3c-2-1-4 0-4 3 0 4 4 3 4 0zm-4-5c0-5 0-5-2-6-3-1-5 1-5 4v5c-1 2-1 2 2 3h4l1-6zm-33 2c0-3 0-4-3-3l-5-1c-3-1-3-1-3 3v4h11zm-19-1c-1-1-1-1-1 1l1 2v-3zm7-4c0-2-1-3-2-3-2 0-3 2-3 5l2 2c3 0 3-1 3-4zm25-2-1-5c-2 0-2 2-2 6 0 6 2 6 3-1zm25 4c1-3 0-5-2-4-3 1-2 6 0 6l2-2zm-37-4c1-4 1-4-6-4-6 0-6 0-6 2 0 4 1 4 8 4 3 0 4 0 4-2zm264 89c-7-2-19-8-21-11l-1-8c-1-6-1-8-4-7-2 1-2 1-2-3 0-2 0-4-2-6-4-5-4-8-5-17-1-7-1-9-3-11-2-3-3-9-1-18l2-10 3-4v-1c-1 0-1-1 1-1l2 2 2 3c2 1 2 1 2-2l1-3 1 1c-1 1 0 1 1 1l2-1 1-1 1 3c0 4 3 5 3 1 1-2 1 0 1 3 0 9 3 7 3-3 1-3 1-3 1 1 0 7 2 7 2 1l2-5c1-1 1 0 1 1l-2 5c0 3 1 3 2 3 2 0 3-2 3-6-1-3 0-5 2-2 0 1 0 1 0 0s1-2 3-2 2 1 2 5c0 7 0 7 1 6l2-6 1-2c0 4 2 5 2 1v-3c0-1 2-1 3 1l1-1c1-1 1-1 1 1l2 1 2-1 2-2 2 1 4 1 3-1 1-1 1 1v2c1 2 5 1 4-1l1-2 1 1 1 1 2-1v-1c2 0 1 12-3 29l-4 17a96 96 0 0 1-9 29l-5 11-5 8c-3 4-5 5-14 3zm10-2c2-1 5-8 5-10s-2-1-5 3l-3 5c-2 2 0 4 3 2zm-13-4c0-2-1-4-3-4-3 0-4 1-1 4 2 2 4 2 4 0zm13-9c2-4 2-4 1-6-2-3-4-3-6 1s-2 6-1 8c2 1 3 1 6-3zm-19-2c0-3-1-4-2-1-1 2 0 4 1 4l1-3zm7 0c0-2 1-3 2-3l1-2c0-2 0-2-4 1s-4 7 0 7c1-1 2-2 1-3zm22-5 5-10h-1c-1 0-7 9-7 11 0 1 2 1 3-1zm-4-2a689 689 0 0 1 2-5v-4c-2 0-7 7-6 9l2 1 2-1zm-21-3c1-4-1-5-5-3-2 2-2 3 1 5 4 1 4 1 4-2zm8 0c1-2-4-5-5-2-1 1 1 4 3 4l2-2zm4-2c-1-2-3 0-2 2 0 2 0 2 2 0v-2zm-24 1-1-1v1l1 2v-2zm6-7c-2-2-4-2-4 0l2 3h3c1-1 1-1-1-3zm25-1c-1-1-5 3-5 5l3-1 2-4zm-11 4c-2-2-5-2-5 0l3 1c3 0 3-1 2-1zm-6-1c0-1-2-2-5-2l1 1c2 2 4 2 4 1zm15-6c-1-1-6 3-6 5s1 1 3-1l3-4zm-11 4-1-1-1 1 1 1 1-1zm-24-3c-1-1-2 1-1 2h1v-2zm15 1c0-1-5-5-6-4l4 5 2-1zm28-1-1-1-1 2h1l1-1zm-21 0-2-1v1l1 1 1-1zm4 0-1-1-1 1 1 1 1-1zm4 0-1-1v1l1 1v-1zm-23-2-2-1c-2 0-2 0-1 1l2 2 1-2zm34 0c0-2-2-1-3 1h2l1-1zm-17-1c1-2-2-4-3-3-1 2 0 4 1 4l2-1zm8 0-1-1-1 1 1 1 1-1zm6-1-2-1c-2 0-2 1-1 2s3 0 3-1zm-19-3-1-4c-1-1-2 4-1 6 1 3 2 2 2-2zm9 3-1-1-1 1 1 1 1-1zm-24-3h-2l1 2c2 1 3 0 1-2zm38 0c0-1-1-1-2 1l1 1 1-2zm-49-2v-5l-1-2c-1 0-2 4-1 7 0 3 3 3 2 0zm40 1v-1l-1 1v2l1-2zm-6-1-1-3-1 1-1 2v-1l-1-2c-2 0-2 3-1 4 2 1 4 1 5-1zm3 0-1-1-1 1 1 1 1-1zm9 1-2-1-1 1 2 1 1-1zm-28-1-1-1-1 1 1 1 1-1zm4-3-1-2c-1 0-2 1-2 3 0 1 0 2 1 1l2-2zm29 1a1 1 0 0 0-2-1 1 1 0 0 0 0 2 1 1 0 0 0 1 0 1 1 0 0 0 1-1zm-5-2-1 1 1 1v-2zm-7 0-1-1-1 1 1 1 1-1zm-22-3c0-2 0-2-1-1v5l1-4zm11 1-1-1c-2 0-3 1-2 3 1 1 3 0 3-2zm-21 1-1-2-1 1c0 2 1 2 2 1zm28 0-1-1-1 1 1 1 1-1zm20-2v-3c-1-1-4 2-4 4s3 2 4-1zm-23 1-1-1-1 1 1 1 1-1zm-23-3c-1-1-2 0-1 2h1v-2zm6-2h-1c-2 0-2 3-1 4l2-4zm23 2-1-2h-1v2c-1 1 0 2 1 2l1-2zm4 0c0-1-1-3-2-2v4l2-2zm3-1-1-1-1 2 1 1 1-2zm4 0-1-2-2 2c0 2 1 3 2 3l1-3zm-44 1-3-4v3c2 2 3 2 3 1zm14-3c-1-1-2 0-1 2l2 1-1-3zm4 2-1-1-1 1 1 2 1-2zm6 0-2-1c-2 0-2 1-1 2s3 1 3-1zm5 1-1-1-1 1 1 1 1-1zm-25-9-2-4-1-1-1 1 1 4c0 1 1 2 2 1l2 4c1 4 1 4 1 1l-2-6zm-1 5-1-1-1 1 1 2 1-2zm25 0c0-3-2-3-3 0l2 2 1-2zm22 0c0-3-3-3-4 0l2 2c2 0 2-1 2-2zm-31-1c1-3 0-6-1-6s-2 1-2 4c0 4 1 5 3 2zm5-1-1-1c-1 0-2 2-1 3s2 0 2-2zm10 1-2-1v-2l1-7-1-4c-2 0-2 1-2 6l1 8c2 2 4 1 3 0zm3 0-1-1-1 1 1 2 1-2zm22-6c-1-1-2 0-2 4l-1 4 2-4 1-4zm-49 6c0-2-2-4-2-3-1 1 0 4 1 4l1-1zm5-2-2-1c-1 0-2 0-2 2s3 2 4-1zm26 0-1-1-1 2 1 1 1-2zm-41-2-1-4c-1-2-4 2-3 5 0 4 4 3 4-1zm35-1-1-1-1 2 1 1 1-2zm3 0-1-1-1 2 1 1 1-2zm7 1-1-1-1 2 1 1 1-2zm7 0c-1-2-4-2-4 0l2 2c2 0 2-1 2-2zm-26-1-1-1-3 1c0 2 3 2 4 0zm3 0-1-1-1 1 1 2 1-2zm-20 0v-10c-1 0-2 0-2 2l-1 5 1 4 2-1zm6-1c-1-2-4-2-4 0l2 2 2-2zm27 0-1-3-1 2 1 3 1-2zm-37-7-1-1v7c1 1 2-4 1-6zm41 6-1-1-1 1 1 1 1-1zm7-1c-1-2-5-2-5 0 0 1 1 2 3 2s2-1 2-2zm-35-3-1-2c-1 0-2 1-2 3 0 4 2 3 3-1zm8 2-1-1c-3 0-3 3-1 3l2-2zm3-1-1 1c0 1 0 2 1 1v-2zm9-1c0-3 0-3-1-1-2 3-2 5 0 5l1-4zm-24-1-1-3-2 3c0 3 0 4 2 4l1-4zm-16 0c0-1 0-2-1-1l-2 2c0 1 0 2 1 1l2-2zm23 0-1-3-1 3 1 3 1-3zm21 0-1-1c-2 0-2 1-1 2s2 1 2-1zm4 0-1-1-1 1 1 2 1-2zm8 1-3-1-3 1 3 1 3-1zm6-1c1-2-1-3-2-1v3l2-2zm-34-1-1-2c-1 0-2 0-2 2l2 2 1-2zm3-2-1 1c0 1 0 2 1 1v-2zm8-3c-1-4-3-3-3 2 0 4 0 4 2 2l1-4zm17 3-3-1-3 1c0 1 1 2 3 2s3-1 3-2zm-56-2c-1-3-4-3-4-1 0 3 1 4 3 4l1-3zm20 0-1-3c-1 0-2 2-1 4 0 3 2 2 2-1zm24-2c0-5 0-5-2-5-2 1-3 1-2 3v4c0 2 1 3 2 3s2-1 2-5zm4 4-1-1-1 1 1 1 1-1zm-44-4-1-4v7c1 1 1 1 1-3zm5 1-1-1-2 1c0 2 2 2 3 0zm3-1h-1l-1 1 1 1 1-2zm4-1-1-4-1 3v2c-1 1-1 3 1 3l1-4zm8 1-1-3h-1v3c-1 2-1 3 1 3l1-3zm4-1 1-9-1-6c-1 0-2 2-2 6v9c-1 3-1 4 1 4l1-4zm3 3-1-1v1l1 1v-1zm4-1-1-2c-1 0-2 0-2 2l2 2 1-2zm12-2-1 1 1 1v-2zm9 2-3-1-3 1 3 1 3-1zm5-3c2-7 2-10-2-8l-2 4c0 8 2 10 4 4zm-61-3c0-3-1-6-3-6-1 0-2 4-1 7 1 4 3 3 4-1zm13 3-1-1-1 1 1 1 1-1zm18-1-1-1-1 1 1 2 1-2zm24-1c0-2 0-2-2-3-3 0-4 1-3 4 0 1 1 2 3 2s2-1 2-3zm-45-2c0-3 0-4-1-3h-2l-1 4c0 2 1 3 2 3 2 0 2-1 2-4zm11 2-1-1-2 1c-1 1 0 2 1 2l2-2zm14 0-1-1-1 1c-1 1 0 2 1 2l1-2zm13-3c-1-1-3 1-2 3s1 2 2 0v-3zm-10 3-1-1-1 1a1 1 0 0 0 2 0zm-13-5c0-6 0-6-1 0v5l1-5zm19 2 1-3c0-2 0-3-2-3s-3 2-3 5c0 2 1 2 2 2l2-1zm-9-1-1-1-1 2h1l1-1zm4 0-1-1-1 1 1 1 1-1zm-34-3-1-3-1 4 1 2 1-3zm50 3c2-1 2-6 0-6l-3 1c-3 1-3 4-1 5h4zm-7-4-1-4-1 4 1 3 1-3zm-8 0-1-1-2 1 1 1 2-1zm26-1-1-1-1 1 1 1 1-1zm-128 76-3-1c-1 1-5-1-9-2-5-3-9-5-14-11l-8-7-1-2-2-3c-2-1-2-3-2-3l-2-7c-2-4-2-7-1-11 1-3 3 1 2 3 0 2 0 2 1 0v-4l2-29 3-1c2 0 2 0 0-1h4l2 1c2 0 2 1 2 2l1-1c0-4 1-3 1 2 0 6 2 7 4 6 2 0 3-1 3-5v-6l1 4c0 4 0 4 2 4 1 0 2 0 2-4v-4l1 6 1 6 1-6v-6l1 6 1 7 1-7v-6l1 7c-1 10 0 13 1 13l1-10v-10l1 10c0 6 1 9 2 9v-19l1 2c1 2 1 2 2 0l2-1 1 1 2-1 1-1 1 6c0 9 2 9 2 1l1-7 1 1c-1 1 0 1 2 1 1 0 2 0 1-1l1-1 1 3c0 3 3 4 5 2v-3l1-2 1 5c0 4 1 4 4 4 4 1 5 0 5-5l1-4a409 409 0 0 0 2 43v5c2 4-2 9-10 13l-10 8c-6 7-16 12-18 11zm-3-16-1-1-1 1 1 1 1-1zm13-1-1-1-1 1 1 1 1-1zm-18-1-1-1-1 1 1 1 1-1zm-10-2a1 1 0 0 0-1-1 1 1 0 0 0-1 2 1 1 0 0 0 2 0 1 1 0 0 0 0-1zm20-1c0-3 0-3-2-1-1 2-1 4 1 4l1-3zm5 0-2-1-1 2c0 2 2 2 3-1zm7-1c-1-1-1-1-1 1s0 2 1 1v-2zm7 1c0-1-2-3-3-2s0 4 1 4l2-2zm-24-2c-1-1-2 1-1 2h2l-1-2zm-7-3-1-1c-2 0-2 3-2 4 1 2 1 2 2 0l1-3zm3 4-1-1-1 1 1 1 1-1zm19-3c0-4-2-4-3 0-2 4-2 4 1 4l2-4zm12-2c-1-3-3-4-5-1l1 3c3 2 4 2 4-2zm-39 0-1-2-1 2c0 2 0 3 1 2l1-2zm22 0-2-4-1 4c0 2 0 3 2 3s2-1 1-3zm9 0-1-2-1 3c0 1 0 2 1 1l1-2zm-15-2v3-3zm-11-2c1-1 0-3-1-3l-1 2c0 3 1 4 2 1zm-5-3c-1-1-2 1-1 2 1 2 1 2 1 0v-2zm28 0c1-5 1-6-1-5-1 1-2 9 0 9l1-4zm17 3v-1l-1 1v1l1-1zm-13-9c-1-1-2 1-2 5v4l1-4 1-5zm6 7c1-2 1-2-2-2-2 0-3 1-3 2 0 2 4 2 5 0zm8-2c2-2 2-5-1-5-2-1-4 2-4 5 0 2 3 2 5 0zm-50-1c0-2-2-1-3 0l1 2 2-2zm26-2h-1l-1 2c0 2 0 2 1 1l1-3zm3 2-1-1-1 1 1 2 1-2zm-36-1-2-2c-1 0-2 2-1 3 2 1 3 1 3-1zm17-1c0-3-2-3-3-1-1 3 0 4 1 4s2-1 2-3zm12-2c0-2-2-1-2 2s0 3 1 1c1 0 2-2 1-3zm21 2c2-2 1-3-2-3-2 0-4 1-3 3s3 2 5 0zm-37-2c0-3-1-3-3-1-1 1-1 4 1 4 1 0 2-1 2-3zm13 2-1-1-1 1 1 1 1-1zm-19-2c1-1 0-1-1-1l-1 1 1 1 1-1zm29-1-1-1-1 1 1 2 1-2zm-10-5c0-4-1-4-1-3v9l1-6zm13 5 1-5v-3c-2 0-3 3-3 7 0 2 1 2 2 1zm-36-2c1-2 0-3-1-4-5-4-8-2-5 3 2 3 4 3 6 1zm14-6-1-8c-2 1-1 16 0 16l1-8zm3 3-1-4c-1 0-2 3-1 6 1 4 2 3 2-2zm3 0-1-4c-1 0-2 7-1 8 2 1 2 1 2-4zm35 2c2-2 2-8 1-9l-6 2v9c1 1 4 1 5-2zm-28-2-1-3-1 3 1 4 1-4zm20 1-2-2c-2-1-5 2-4 4 1 1 5 0 6-2zm-41-1-2-2c-1 0-2 3-1 4 2 1 3 1 3-2zm5 1c0-2-1-2-2-2-2 0-2 0-2 2 0 1 0 2 2 2l2-2zm19-2-1-3-1 3 1 3 1-3zm3 1c1-3 1-4-1-4l-1 3c0 3 1 4 2 1zm8-2-1-1-1 2 1 1 1-2zm-30-3c0-3-1-3-2-3-2 0-2 0-2 3s0 3 2 3c1 0 2-1 2-3zm36-1c0-2 0-3-2-3-1 0-2 1-2 3 0 3 0 4 2 3 2 0 2-1 2-3zm-42 2v-3h-3c-2 2-2 2-2-2 0-2 0-3-2-3-1 0-2 0-3 2-1 3 0 5 3 5l2 1h5zm21-8c-1-2-1 1-1 4l1 4 1-4-1-4zm13 5c0-3-3-3-3 0l1 3c1 0 2-1 2-3zm-19-1c0-3 0-6-1-5-2 1-2 8 0 8l1-3zm4 1-1-2c-1-1-3 1-2 3 1 1 3 1 3-1zm11-1c0-2 0-2-2-1l-2 2 2 2c1 0 2-1 2-3zm-6-4c-1-1-1 1-1 3l1 3 1-3-1-3zm-12 2-1-2c-1 0-2 3-1 4 2 1 2 1 2-2zm25 0-1-2v4l1-2zm14 1c2-1 2-2 2-7 0-6 0-7-3-7-4-1-6 0-6 4v7c1 3 1 4 3 4l4-1zm-50-2-2-1-2 1 2 2 2-2zm5 0c1-3 1-4-1-4h-2l-1 3 1 3c2 0 3-1 3-2zm13 0c0-2-1-2-2-2-1 1-1 3 1 3l1-1zm16-1-2-1-2 1 2 2 2-2zm8-1c-1-2-1-3-3-3-2-1-2 0-2 2 0 3 0 4 2 4 3 0 3-1 3-3zm-13-1c0-2-1-3-2-3l-1 3 1 3c1 0 2-1 2-3zm-29-3c0-3-1-4-2-4-2 0-5 3-4 4l1 3 2 1c2 0 3-1 3-4zm7-4v8l1-4-1-4zm18 4c1-3 0-5-2-4-1 1-2 6-1 7 2 1 3 0 3-3zm-32 0-1-4c-2 0-2-1 0-1v-2c-1-1-4 2-4 5 0 4 0 5 3 5 2 0 2-1 2-3zm18 0-1-3-1 3 1 2 1-2zm10 0-1-3-1 3 1 3 1-3zm11 2c1-1 0-1-1-1l-1 1 1 1 1-1zm7-3c3 1 3 1 3-4 0-4 0-5-3-5s-3 1-3 5 0 4-3 2l-2 1 1 1c1 0 2 0 2 2l1 2 1-2c0-2 0-3 3-2zm-34-3c0-3-1-4-2-3-2 0-2 5 0 7 2 1 2 0 2-4zm30-5-1-5c-3 0-4 2-4 6 0 3 0 4 4 4l1-5zm-11 4c1 0 2-1 2-4s-2-5-3-4l-1 4-1 3v-3c0-5-2-4-2 1 0 3 0 4 1 3h4zm-96 50-11-1c-10 0-13-2-15-9a254 254 0 0 1 0-51c-1 1 0 1 2 1l3-1 1-1 1 2h8c1-3 2-1 1 4l1 6c2 0 2-2 3-7 0-4 0-5 2-5 3 0 3 1 3 4l1 5 1-3 1-5 1 5c-1 5-1 6 1 5 2 0 2-1 2-5 0-7 1-7 2 0 0 7 2 6 2-1l1-4c0 2 3 2 3 0l3-1c3 0 3 0 2 7-1 4 0 6 1 5 1 0 3-7 2-10l1-2v3c0 2 1 3 4 2 3 0 4 0 4-2 1-3 2-3 2-1l1 2c2 1 3 0 3-2 0-1 0-2 2-1 2 0 2 0 0 0v1l1 5v5c1 0 3-9 2-11v-1l2 4-4 44c-1 4-3 8-5 8l-1 1-12 5h-22zm-19-18c0-3 0-3-2-3-1 0-2 0-2 3 0 6 4 6 4 0zm1-6c1-2-1-6-3-7s-4 1-4 4c0 4 6 6 7 3zm52 0-3-1c-2 0-1 0-1 1l2 1 2-1zm-42-2-1-2-1 2 1 2 1-2zm24 1-1-1-1 1 1 1 1-1zm19-3-3-1c-2 0-3 1-2 2s5 1 5-1zm-45-4c0-3 0-3-4-3s-5 1-2 5c0 1 2 2 3 1 2 0 3-1 3-3zm23 2-1-1-1 1c1 2 2 1 2 0zm3 1-1-2-1 1 1 2 1-1zm3-1-1-1-1 1 1 2 1-2zm-24 0c1-2-1-5-2-5s-2 1-2 3c0 3 2 4 4 2zm14-1 1-3-1-2c-2 0-3 2-2 4 0 2 2 2 2 1zm18-3c1-2-1-3-5-3v6c2 2 5 0 5-3zm7-1c1-4 0-7-3-7-1 0-2 0-2 5s1 6 3 5c1 0 2-1 2-3zm-54-1c0-3-1-4-2-4-2 0-2 1-3 2 0 4 1 6 3 6s2-1 2-4zm34-1-1-3c-1 0-2 1-2 4 0 5 3 5 3-1zm3-5 1-14c1-4 0-5-1-5s-2 2-2 15l1 14 1-10zm-19 5-2-1c-2 0-2 0-1 3 2 2 4 1 3-2zm22 1-1-2-1 2 1 3 1-3zm-30-3c0-3-1-3-4-3-4-1-4 0-4 3s0 3 4 2c3 0 4 0 4-2zm3 0-1-3-1 3 1 3 1-3zm8-1h-1c-2 0-2 1-1 2s2 0 2-2zm9-3-1-6c-1 0-2 1-2 6 0 4 1 6 2 6l1-6zm18 2-1-4-3-1c-3-1-3-1-2 3s2 6 5 6l1-4zm-30-9-1-10c-2-2-3 3-3 11 0 9 1 10 2 9 1 0 2-1 2-10zm23 7c-1-6-3-7-3-1 0 3 1 5 2 5l1-4zm-41 0c0-4-1-6-3-6s-3 0-3 3l1 5c1 1 5-1 5-2zm21-4c0-3 0-5-1-4-1 0-2 6-1 8 1 3 2 0 2-4zm5 1c0-3 0-3-2-3-1 0-2 0-2 4 0 3 1 4 2 3 1 0 2-1 2-4zm8 1-1-4c-1 0-2 1-2 4l2 4 1-4zm27-1-1-3c-1-1-1 1-1 4 0 4 1 3 2-1zm-52-4v-8h-4c-4 0-5 2-4 8s1 7 5 7h3zm4 3-1-3c-2 1-2 5-1 6s2 0 2-3zm42-1 1-6c0-2-4-1-5 1l1 3c2 0 1 0 0 1-4 1-3 6 0 5l3-4zm-6-2c2-6 2-6-2-6s-4 1-5 5c-1 3 0 3 1 4 5 1 5 1 6-3zm-50-5c0-2-1-3-3-3-2-1-3 2-2 5 1 2 2 2 3 2 2-1 2-1 2-4zm35 0-1-4-2 4c0 3 1 5 2 5l1-5zm-81 15c-2-1-2-2-2-5l1-8v2l1 5c2 0 2-1 2-4l1-6-1 14-2 2zm1-3c1-1 0-2-1-2l-1 2c0 2 2 2 2 0zm3-17 1-2v2c0 2-1 2-1 0zm3 1 1-2v1c0 2-1 2-1 1z"/>
  <path id="path3378" fill="#000" stroke-width="1" d="M964 375c-2-6-11-19-14-21l-7-5c-5-5-15-10-19-11-4 0-6-5-6-11 0-5 0-5-3-6-2 0-2 0-2 3 0 2-1 2-2 2s-2-1-2-3 0-2-3-2c-2-1-2 0-2 1 0 3-3 3-4 0s-4-2-4 1c0 6-3 7-3 2 0-4 0-4-5-2-5 1-5 1-3 7l3 4h2c0 2-4 4-6 4-6 0-35 26-39 36l-2 5-4-3c-4-4-5-5-7-2-1 2-3 1-2-2s1-4-3-6c-3-2-3-2-4 1l-1 3-2 1-1-2c0-2-1-3-3-4-2-2-2-2-3 0-2 2-4 2-4 0 0-3 7-18 13-27a429 429 0 0 0 13-18l8-8 10-8 8-5 14-8c11-4 11-4 28-5h20l20 8 16 8 10 11c14 16 13 16 21 29 11 20 11 21 11 23 0 3-3 1-4-3-2-5-3-5-7-3-2 2-2 2-1 6l1 5c0 2-2 1-3 0-1-2-1-2-4 0s-4 3-3 6l-1 3-3-3-1-4c-1-1-7 6-6 7l-1 2-4-6zm7-4c3-2 3-3 2-5-2-3-2-3-5-1s-3 2-2 6c1 3 1 3 5 0zm-127-1c1-2 0-3-2-6-4-4-4-4-6 2 0 3 0 3 3 5s3 2 5-1zm138-3c2-2 2-3 1-6-1-5-2-5-6-1-3 3-3 3-1 6 2 4 3 4 6 1zm-148-3-3-4c-3-3-3-3-5-1-1 1 0 2 2 4 4 2 6 3 6 1zm135-4c1-1-4-7-5-6l-3 3v6l2 2 2-2 4-3zm-120 2c2-1 2-2 0-6-2-3-3-5-4-4l-2 3c-2 3-2 3 1 6 3 4 3 4 5 1zm-27-2c2-4 2-4-1-6s-4-2-5 2c-2 4-2 4 1 5 3 3 3 3 5-1zm16-4 2-3-3-3c-4-4-4-4-7 0-1 3-1 4 2 6 3 4 4 4 6 0zm138 0 3-3-2-4-2-4-3 4c-3 4-3 4-1 7l2 3 3-3zm13 1c3-2 3-4 0-8l-1-4-3 4-4 3 3 3 2 3 3-1zm-132-2 2-3-3-3-2-5c0-1-1-1-4 1-2 2-2 3-1 6 2 4 4 6 5 6l3-2zm103-1c3-3 3-5 0-8l-2-2-3 4c-2 4-2 4 0 7l2 2 3-3zm-130-10c0-1-3-4-5-4l-6 8 3 3 3 2 3-4 2-5zm13 5c1-1-4-10-5-10l-2 2c-1 1 0 3 2 5 3 4 4 5 5 3zm22-9-3-5-6 7 2 5 3 3 3-2 3-3zm89 5c1-3 0-5-4-7-1 0-2 0-3 4-2 4-2 5 0 6 2 3 5 1 7-3zm18-2-2-4-2-3-3 4-3 4 3 3 2 3 3-3 2-4zm11 2 2-3-3-8-4 3-2 3 2 4 2 3 3-2zm-134-3 3-3-2-5-3-5-4 4-3 3 2 4 3 4c0 2 1 1 4-2zm95-2v-6c-3-3-4-2-6 2s-2 4 1 6c4 2 4 2 5-2zm-109-2 2-4-2-3-2-3-3 3-3 5c0 1 4 5 6 5l2-3zm38 2 1-4-2-6-2-2-3 2-2 2 2 5c2 5 3 5 6 3zm89-2 3-4-3-5-4-3-2 5-2 6 2 2 3 2 3-3zm-26-4c1-3 0-4-1-6-2-2-3-1-3 2l-2 4c-1 2-1 2 1 3 3 1 3 1 5-3zm-79-5-2-6c0-2 0-2-3 0-3 3-3 5 0 10l2 5 2-3 3-2zm23 7c3-1 4-4 1-9-1-2-1-2-4-1-2 0-3 1-3 2l3 9 3-1zm97-2c2-3 2-3-1-8l-3-4-3 3-3 4c0 2 5 8 7 8l3-3zm-49-4c2-5 1-7-2-7h-3c-1-1-1 0-1 3l-1 5c-1 2 0 3 3 3 2 0 3-1 4-4zm25-1 2-5-2-2-3-2-2 6c-2 6-2 6 0 7 3 2 3 1 5-4zm-107-5-2-3-3-3-3 4-4 3 3 4 2 4 4-4 3-5zm19 5c3-3 3-7 0-11-2-2-2-2-5-1l-2 4c0 3 3 10 4 10l3-2zm81-5 1-6-2-2c-4-3-5-3-5-1l-1 6c-1 4-1 5 1 6 3 3 4 3 6-3zm22-1 2-3-3-4-3-4-3 5-3 5 3 2 3 2 4-3zm-94 0c2-1 1-3-1-11l-1-3-2 3-3 2 2 5c1 6 2 6 5 4zm63-6c1-4 1-5-1-6-3-3-4-2-6 4-1 5-1 5 2 7 2 2 3 1 5-5zm-86 3c1-2-2-8-4-8l-2 2c-1 2-1 2 1 5s4 4 5 1zm30-6c0-5 0-6-2-6-3-1-4 1-2 6 2 7 2 8 3 7l1-7zm8 5c2-1 1-14-1-14-2-1-4 1-4 3l1 7c1 4 2 5 4 4zm38-5c2-6 1-7-3-8-2-1-2-1-3 6v7h3c2 0 2 0 3-5zm31-7c-3-3-4-4-5-2l-3 11 2 2c3 1 3 1 6-3l3-5zm-40 9 1-6c0-5-2-7-6-6-2 1-2 2-2 7 0 6 0 6 2 7 4 1 4 0 5-2zm-20-2c0-5-2-11-4-10-1 1-2 4-1 10 1 2 1 3 3 3 1 0 2 0 2-3zm9-2c1-6 0-7-5-8-2 0-3 1-2 4l1 6c0 3 0 4 3 3 3 0 3 0 3-5zm-49 3 2-2-2-3c-2-3-3-3-5-2-3 1-3 2 0 6 2 3 2 3 5 1zm91-8c2-5 2-5-4-8l-3-1-3 10c1 2 7 5 8 5l2-6zm-83 3v-5c-1-4-2-4-5-2-2 2-2 2-1 5 2 4 4 4 6 2zm8-5c2-1 2-2 1-5-1-5-1-5-5-3-4 1-4 1-2 6 2 4 3 4 6 2zm63-4 2-5-3-1-4-1-4 8 7 4 2-5zm-53 2v-6c0-6 0-6-3-4a136 136 0 0 1-3 1v5c1 5 2 6 6 4zm9-2c1-1 2-3 1-6 0-5 0-5-3-5-4 0-4 0-4 4 1 7 3 9 6 7zm12-2v-6c0-3 0-3-4-3l-3-1v6c0 5 0 5 2 6 4 1 5 0 5-2zm8-2 1-6c2-2 1-2-1-2-4 0-5 0-5 7 0 5 0 6 2 5 2 0 2-1 3-4zm13 0 1-5-4-3c-5-1-6 0-6 6-1 5 0 5 2 6 5 1 5 0 7-4z"/>
  <g id="Yadav et al., WUSp SAM cells" transform="translate(4 -225)">
    <path id="path3380" fill="#ff0" fill-opacity="1" fill-rule="evenodd" stroke="none" stroke-dasharray="none" stroke-dashoffset="0" stroke-linecap="butt" stroke-linejoin="miter" stroke-miterlimit="4" stroke-opacity="1" stroke-width="1.1" d="M922 576a21 27 0 0 1-21 26 21 27 0 0 1-21-26 21 27 0 0 1 21-27 21 27 0 0 1 21 27z" opacity="1" vector-effect="none"/>
  </g>
  <g id="Sugimoto et al., cotyledon tissue prior to callus induction" transform="translate(4 -225)">
    <path id="path3397" fill="none" stroke="#000" stroke-width="1" d="M785 830c0-5-3-8-11-13l-10-7a864 864 0 0 0-7-9l-4-6c0-3 1-3 14-3h32c8 1 10 1 13-1 2-2 5-2 6-2h4l-4 5-11 14c-9 9-15 16-15 20 0 3-2 5-5 5-1 0-2-1-2-3zm-36-57c0-8 0-9 3-12a304 304 0 0 0 5-6l3-3h18l22-1c2-1 7-2 11-1h8l1 4 2 7c2 4 2 7 0 9-7 6-8 6-19 7l-12 2-11 1h-20l-11 1zm7-37-5-3-3-1c-5 0 4-10 16-18l6-4h10c9 1 10 1 13 3l8 5c5 2 16 15 14 16l-7 2h-30c-4-1-8 0-16 2l-6-2z"/>
  </g>
  <g id="Sugimoto et al., root tissue prior to callus-induction treatment" transform="translate(4 -225)">
    <path id="path3410" fill="none" stroke="#000" stroke-width="1" d="m788 960-1-12c-2-3-2-4-1-7 2-5 2-10 0-11-1-1 0-2 2-5 5-6 10-14 10-18l-4-8c-2-3-3-5-3-12 0-8 0-8-3-13l-7-8-7-9c-5-5-7-8-5-8l11 12 6 8 7 8v10c1 8 1 10 4 13 4 6 3 12-5 23-4 5-5 6-4 8 2 2 2 6 0 9-1 3-1 4 1 7l1 11c-1 10-3 12-2 2zm7-23-6-9 5 5 5 4 2 1c0 2-3 1-6-1zm-13-12c-2-2-2-6 0-6 1 0 3-5 3-8l-1-6v-10c3-15 3-14-4-22-4-3-7-7-7-8 0-2 3-4 4-3l-1 1c-2 2 0 6 6 10 6 6 7 9 5 18-2 5-2 9-1 13 1 8 1 12-2 15-2 3-2 4-1 4l1 3c0 1-1 1-2-1zm28-14v-11l-3-3c-4-4-4-5-4-9l-1-5-1-4c0-4-5-9-9-9l-6-2c-1-1 1-1 3-1 6 0 14 7 14 12l1 3 1 5c0 4 0 6 3 10 4 3 4 5 4 9l-1 11c-2 5-2 5-1-6zm-29 2c1-2 4-2 4-2 1 1-4 4-5 4l1-2zm7-8-2-7c0-2 0 0 2 2s3 6 1 7l-1-2zm-14-22 3-3 1-3c1-2 3-3 3-1s-3 7-5 8c-3 2-3 1-2-1z"/>
  </g>
  <g id="Sugimoto et al., petal tissue prior to callus induction" fill="none" stroke="#000" transform="translate(4 -225)" stroke-width="1">
    <path id="path3423" d="m777 1130-1-3-1-6c0-7-4-20-6-23l-3-4-2-3-1-2-1-2-1-2-1-5a227 227 0 0 1-5-20 123 123 0 0 1 0-47v-2l1-2 1-2 1-2 1-2 1-2 1-1 1-2 2-4 6-7c8-6 17-7 28-2 6 3 8 4 11 9 6 7 7 11 7 22l1 12c1 3 0 6-1 10l-3 14c-2 11-5 17-10 26l-6 13a7692 7692 0 0 1-3 11c-1 4-2 10-1 18v12h-8c-8 0-8 0-8-2z"/>
    <path id="path3425" stroke-linecap="butt" stroke-linejoin="miter" stroke-opacity="1" d="m786 1132-2-26 9-24s7-9 7-19c0-9 7-21 6-20 0 1 4-6 2-12s4-9 4-16c0-6-2-12-7-10"/>
    <path id="path3427" stroke-linecap="butt" stroke-linejoin="miter" stroke-opacity="1" d="M793 1082s-1-6 1-10c1-4 0-3-2-13s-3-6 2-8c6-2 1-5 0-11s3-7 3-10c1-4-1-11 1-15s8-11 1-22"/>
    <path id="path3429" stroke-linecap="butt" stroke-linejoin="miter" stroke-opacity="1" d="m786 1132-4-3v-19l-6-28-9-33c0-3 3-5-1-11s-3-14-3-14-1-3 3-7c4-3 4-5 0-9-3-5 2-9 2-9"/>
    <path id="path3431" stroke-linecap="butt" stroke-linejoin="miter" stroke-opacity="1" d="m784 1106-1-15s-4-20-1-30c4-10 1-17 1-17l2-23c1-6 0-14-2-16s1-6 1-6 5-5 2-10"/>
    <path id="path3433" stroke-linecap="butt" stroke-linejoin="miter" stroke-opacity="1" d="M784 999s-7-3-8-8"/>
  </g>
  <g id="Sugimoto et al., cotyledon derived callus" fill="#ccc" transform="translate(120 -225)">
    <path id="path3449" fill="#ccc" stroke="#000" stroke-width="1" d="M785 830c0-5-3-8-11-13l-10-7a864 864 0 0 0-7-9l-4-6c0-3 1-3 14-3h32c8 1 10 1 13-1 2-2 5-2 6-2h4l-4 5-11 14c-9 9-15 16-15 20 0 3-2 5-5 5-1 0-2-1-2-3zm-36-57c0-8 0-9 3-12a304 304 0 0 0 5-6l3-3h18l22-1c2-1 7-2 11-1h8l1 4 2 7c2 4 2 7 0 9-7 6-8 6-19 7l-12 2-11 1h-20l-11 1zm7-37-5-3-3-1c-5 0 4-10 16-18l6-4h10c9 1 10 1 13 3l8 5c5 2 16 15 14 16l-7 2h-30c-4-1-8 0-16 2l-6-2z"/>
  </g>
  <g id="Sugimoto et al., root derived callus" fill="#ccc" transform="translate(120 -225)">
    <path id="path3453" fill="#ccc" stroke="#000" stroke-width="1" d="m788 960-1-12c-2-3-2-4-1-7 2-5 2-10 0-11-1-1 0-2 2-5 5-6 10-14 10-18l-4-8c-2-3-3-5-3-12 0-8 0-8-3-13l-7-8-7-9c-5-5-7-8-5-8l11 12 6 8 7 8v10c1 8 1 10 4 13 4 6 3 12-5 23-4 5-5 6-4 8 2 2 2 6 0 9-1 3-1 4 1 7l1 11c-1 10-3 12-2 2zm7-23-6-9 5 5 5 4 2 1c0 2-3 1-6-1zm-13-12c-2-2-2-6 0-6 1 0 3-5 3-8l-1-6v-10c3-15 3-14-4-22-4-3-7-7-7-8 0-2 3-4 4-3l-1 1c-2 2 0 6 6 10 6 6 7 9 5 18-2 5-2 9-1 13 1 8 1 12-2 15-2 3-2 4-1 4l1 3c0 1-1 1-2-1zm28-14v-11l-3-3c-4-4-4-5-4-9l-1-5-1-4c0-4-5-9-9-9l-6-2c-1-1 1-1 3-1 6 0 14 7 14 12l1 3 1 5c0 4 0 6 3 10 4 3 4 5 4 9l-1 11c-2 5-2 5-1-6zm-29 2c1-2 4-2 4-2 1 1-4 4-5 4l1-2zm7-8-2-7c0-2 0 0 2 2s3 6 1 7l-1-2zm-14-22 3-3 1-3c1-2 3-3 3-1s-3 7-5 8c-3 2-3 1-2-1z"/>
  </g>
  <g id="Sugimoto et al., petal derived callus" fill="#ccc" stroke="#000" transform="translate(120 -225)" stroke-width="1">
    <path id="path3457" d="m777 1130-1-3-1-6c0-7-4-20-6-23l-3-4-2-3-1-2-1-2-1-2-1-5a227 227 0 0 1-5-20 123 123 0 0 1 0-47v-2l1-2 1-2 1-2 1-2 1-2 1-1 1-2 2-4 6-7c8-6 17-7 28-2 6 3 8 4 11 9 6 7 7 11 7 22l1 12c1 3 0 6-1 10l-3 14c-2 11-5 17-10 26l-6 13a7692 7692 0 0 1-3 11c-1 4-2 10-1 18v12h-8c-8 0-8 0-8-2z"/>
    <path id="path3459" stroke-linecap="butt" stroke-linejoin="miter" stroke-opacity="1" d="m786 1132-2-26 9-24s7-9 7-19c0-9 7-21 6-20 0 1 4-6 2-12s4-9 4-16c0-6-2-12-7-10"/>
    <path id="path3461" stroke-linecap="butt" stroke-linejoin="miter" stroke-opacity="1" d="M793 1082s-1-6 1-10c1-4 0-3-2-13s-3-6 2-8c6-2 1-5 0-11s3-7 3-10c1-4-1-11 1-15s8-11 1-22"/>
    <path id="path3463" stroke-linecap="butt" stroke-linejoin="miter" stroke-opacity="1" d="m786 1132-4-3v-19l-6-28-9-33c0-3 3-5-1-11s-3-14-3-14-1-3 3-7c4-3 4-5 0-9-3-5 2-9 2-9"/>
    <path id="path3465" stroke-linecap="butt" stroke-linejoin="miter" stroke-opacity="1" d="m784 1106-1-15s-4-20-1-30c4-10 1-17 1-17l2-23c1-6 0-14-2-16s1-6 1-6 5-5 2-10"/>
    <path id="path3467" stroke-linecap="butt" stroke-linejoin="miter" stroke-opacity="1" d="M784 999s-7-3-8-8"/>
  </g>
  <path id="path3506" fill="none" stroke="#000" stroke-width="1" d="M895 614c-6-4-9-11-5-12 3-1 6-5 6-6l-5-1c-4 0-4 0-5-3l2-6c3-4 3-9-1-13l-3-4c-1-2-7 0-7 2v2h-2c-2 0-2-4-1-6l1-4c0-2 1-3 3-2l4 2c1 2 3 3 5 3s4 1 7 5c4 5 5 4 8-1 1-3 2-3 9-1 6 2 7 2 7 5 1 3-2 7-5 7s-3 2 1 4c4 3 6 3 11-2 6-8 7-13 1-14-3-1-3-3 0-7s2-10-3-13c-5-4-6-6-6-12-1-10 3-18 9-18s7 2 11 15c2 5 2 6 0 10l-3 7c-3 3-3 6 2 10 4 3 7 10 5 12l-1 4-3 6-3 5-6 5-7 6-4 3-3 4-4 4-3 2-7 4-5-2zm-18-56-2-3c-1-2-4-2-10 0-3 1-7-3-6-6 0-2 1-3 3-3l5 1c4 4 6-1 4-7-1-2-1-3 4-8 8-9 15-11 18-5 1 3 1 7-1 15v6c2 3 1 7-1 9-3 2-10 2-14 1zm26 0c-3-1-4-6-3-12v-6l-2-8c-1-6-1-7 1-8 3-1 8 0 10 2l1 7 2 8c3 6 2 12-1 15s-5 3-8 2zm-28-46c-1-3-1-3 1-8l5-8c3-2 4-2 5-1v6l-1 7c0 5-1 7-5 7-2 0-3-1-5-3zm21-3c-2-3-2-7 0-10 3-3 2-5-1-5-5 0-5-2 0-5 4-1 6-2 8 0l6 2c8 3 11 6 8 9-2 3-4 2-7-1-5-5-8-4-6 2v7c-2 5-5 5-8 1zm19-2c-1-2 1-3 4-3l2 2c0 3-5 4-6 1z"/>
  <path id="path3508" fill="none" stroke="#000" stroke-width="1" d="M907 750c-2-1-1-4 2-4 2 0 3 2 1 3l-1 2-2-1zm-1-9 1-2 1 1-1 2-1-1zm-1-16c-2-3-2-6 2-6 3 1 4 4 2 6h-4zm4-13-1-4c1-2 3-3 5 0l2 4c-2 3-4 3-6 0zm-8-12c-3-4-3-8-2-9l5 4c3 3 3 4 2 6-1 3-2 3-5-1zm10 1c-1-1-2-2-1-4 1-3 1-3 4 0 5 3 1 7-3 4zm17-10c0-2 1-6 3-6l1 4c0 4-3 6-4 2zm-15-2c-2-2-2-4 0-5 1-1 2-1 4 1l1 4c0 2-3 2-5 0zm-13-5c-2-2-1-6 1-6s5 3 4 5c0 3-3 3-5 1zm32 0c-2-1-1-4 1-4s3 2 2 4h-3zm-29-7c-2-2-2-2 0-3s5 0 4 2c0 3-2 3-4 1zm10 0-4-6c-2-4-3-5-2-7 2-2 2-3-1-6l-2-5c0-2-1-3-6-4-6-1-5-4 3-9v-4l-2-2c-1 0-7-5-7-7h2l4-2c5-3 14 1 14 7 0 4 1 6 6 6 2 0 3 1 4 3 0 2 0 2-4 2-3-1-3-1-5 2l-2 7c0 4 1 5 2 6 2 2 4 2 5 2l3 1c0 2-3 2-5 1h-4c-1 1 2 11 4 13l1 3c-1 1-4 1-4-1zm13-1 2-1 2 1-3 1c-1 1-1 0-1-1zm-21-4c-3-1-6-4-5-6 0-3 4-2 6 1 2 4 2 5-1 5zm13-13c0-1 0-2 2-3 1-2 1-2 2 0 1 3 1 3-2 3h-2z"/>
  <path id="path3504" fill="none" stroke="#000" stroke-width="1" d="m929 907-7-3h-12l-5 2c-4 0-4 0-8-4-4-5-5-6-2-8 2-2 2-8 0-12-1-2-2-5-1-7 0-3 0-3-2-5-3-1-2-2 1-3 4-2 5-7 2-10l-1-3c2-1 1-5-1-8-3-2-4-2-7 0l-2 3-4-5c-5-5-6-7-4-9 1-1 0-2-9-13-2-2-2-4-2-6 1-4 7-10 10-10s10-4 10-6c0-1-1-2-3-2-3-2-2-4 2-3l4-1c3-2 4 0 1 5-1 2-2 4-1 7 1 5 7 4 6-2 0-3 0-3 3-3 2-1 3-2 6-8l7-11c3-2 4-2 7 0l3 2 2 5 3 4-7 15c-2 0-2 3 0 3 1 1 3-1 7-4l8-6c2 0 2 1 4 4v10l-4 13c-2 8-2 8 1 12 2 4 2 7-3 12-3 4-3 5-3 9 1 3 1 4-2 7-4 4-13 19-12 21l5 5c3 3 6 4 11 5 7 1 9 2 9 5 0 2-3 5-5 5l-5-2z"/>
  <path id="Che et al., 7 days SIM" fill="none" stroke="#000" stroke-linecap="butt" stroke-linejoin="miter" stroke-opacity="1" stroke-width="1" d="M348 725s2 2 1 5m0 0s8 1 17-5c8-5 8-1 15 0s20-3 20-3c1-5-6-5-6-5-7 4-13 1-13 1-7-3-16 2-16 2-6 5-18 5-18 5s-5-2-5 2c1 5 1 5 6 3z"/>
  <g id="Che et al., 4 days CIM" fill="none" stroke="#000" stroke-linecap="butt" stroke-linejoin="miter" stroke-opacity="1" transform="translate(4 -225)">
    <path id="path3521" stroke-width=".9" d="M263 1023v5m0 0s8 0 16-5c7-5 7-1 14 0 6 1 18-3 18-3 1-4-6-5-6-5-6 4-12 2-12 2-6-3-14 1-14 1-5 5-16 5-16 5s-5-2-5 2c1 4 1 5 5 3z"/>
    <path id="path3523" stroke-width="1" d="M267 1038s1-2-1-6m0 0s8-3 18 0c9 2 8-1 14-5 6-3 20-3 20-3 3 4-4 7-4 7-8-2-13 3-13 3-5 4-15 3-15 3-7-3-19 1-19 1s-4 3-5-1c-1-5-2-5 4-5z"/>
    <path id="path3525" stroke-width=".9" d="M315 1024s-2 2-1 5m0 0s-8 0-16-5-7-1-14 0c-6 1-18-3-18-3-2-5 5-5 5-5 7 4 12 1 12 1 6-2 15 2 15 2 6 5 17 5 17 5s4-2 4 2c0 5 0 5-5 3z"/>
  </g>
  <g id="Che et al. expt, 2 days CIM" fill="none" stroke="#000" stroke-linecap="butt" stroke-linejoin="miter" stroke-opacity="1" transform="translate(-74 -225)">
    <path id="path3532" stroke-width=".9" d="M263 1023v5m0 0s8 0 16-5c7-5 7-1 14 0 6 1 18-3 18-3 1-4-6-5-6-5-6 4-12 2-12 2-6-3-14 1-14 1-5 5-16 5-16 5s-5-2-5 2c1 4 1 5 5 3z"/>
    <path id="path3534" stroke-width="1" d="M267 1038s1-2-1-6m0 0s8-3 18 0c9 2 8-1 14-5 6-3 20-3 20-3 3 4-4 7-4 7-8-2-13 3-13 3-5 4-15 3-15 3-7-3-19 1-19 1s-4 3-5-1c-1-5-2-5 4-5z"/>
    <path id="path3536" stroke-width=".9" d="M315 1024s-2 2-1 5m0 0s-8 0-16-5-7-1-14 0c-6 1-18-3-18-3-2-5 5-5 5-5 7 4 12 1 12 1 6-2 15 2 15 2 6 5 17 5 17 5s4-2 4 2c0 5 0 5-5 3z"/>
  </g>
  <g id="Che et al., 0 day root explants" fill="none" stroke="#000" stroke-linecap="butt" stroke-linejoin="miter" stroke-opacity="1" transform="translate(-153 -225)">
    <path id="path3540" stroke-width=".9" d="M263 1023v5m0 0s8 0 16-5c7-5 7-1 14 0 6 1 18-3 18-3 1-4-6-5-6-5-6 4-12 2-12 2-6-3-14 1-14 1-5 5-16 5-16 5s-5-2-5 2c1 4 1 5 5 3z"/>
    <path id="path3542" stroke-width="1" d="M267 1038s1-2-1-6m0 0s8-3 18 0c9 2 8-1 14-5 6-3 20-3 20-3 3 4-4 7-4 7-8-2-13 3-13 3-5 4-15 3-15 3-7-3-19 1-19 1s-4 3-5-1c-1-5-2-5 4-5z"/>
    <path id="path3544" stroke-width=".9" d="M315 1024s-2 2-1 5m0 0s-8 0-16-5-7-1-14 0c-6 1-18-3-18-3-2-5 5-5 5-5 7 4 12 1 12 1 6-2 15 2 15 2 6 5 17 5 17 5s4-2 4 2c0 5 0 5-5 3z"/>
  </g>
  <path id="Che et al., 7 days CIM" fill="none" stroke="#000" stroke-linecap="butt" stroke-linejoin="miter" stroke-opacity="1" stroke-width="1" d="M348 800s2 2 1 5m0 0s8 1 17-5c8-5 8-1 15 0 7 2 20-3 20-3 1-5-6-5-6-5-7 4-13 1-13 1-7-3-16 2-16 2-6 5-18 5-18 5s-5-2-5 3c1 4 1 4 6 2z"/>
  <path id="Che et al., 7 days RIM" fill="none" stroke="#000" stroke-linecap="butt" stroke-linejoin="miter" stroke-opacity="1" stroke-width="1" d="M348 872s2 2 1 5m0 0s8 1 17-5c8-5 8-1 15 0s20-3 20-3c1-5-6-5-6-5-7 4-13 1-13 1-7-3-16 2-16 2-6 5-18 5-18 5s-5-2-5 3c1 4 1 4 6 2z"/>
  <g id="Che et al., 10 days SIM" fill="none" stroke="#000" stroke-linecap="butt" stroke-linejoin="miter" stroke-opacity="1" stroke-width="1" transform="translate(4 -225)">
    <path id="path3555" d="M434 950s2 2 1 5m0 0s8 1 17-5c8-5 8-2 15 0 7 1 20-3 20-3 1-5-7-6-7-6-6 5-12 2-12 2-7-3-16 2-16 2-6 5-18 5-18 5s-5-2-5 2c1 5 1 5 6 3z"/>
    <path id="path3574" fill-opacity="1" fill-rule="evenodd" stroke-dasharray="none" stroke-dashoffset="0" stroke-miterlimit="4" d="M445 955a3 3 0 0 1-3 3 3 3 0 0 1-3-3 3 3 0 0 1 3-3 3 3 0 0 1 3 3z" opacity="1" vector-effect="none"/>
    <path id="path3576" fill-opacity="1" fill-rule="evenodd" stroke-dasharray="none" stroke-dashoffset="0" stroke-miterlimit="4" d="M450 946a2 2 0 0 1-2 3 2 2 0 0 1-3-3 2 2 0 0 1 3-2 2 2 0 0 1 2 2z" opacity="1" vector-effect="none"/>
    <path id="path3578" fill-opacity="1" fill-rule="evenodd" stroke-dasharray="none" stroke-dashoffset="0" stroke-miterlimit="4" d="M471 950a2 2 0 0 1-3 2 2 2 0 0 1-2-2 2 2 0 0 1 2-2 2 2 0 0 1 3 2z" opacity="1" vector-effect="none"/>
    <path id="path3580" fill-opacity="1" fill-rule="evenodd" stroke-dasharray="none" stroke-dashoffset="0" stroke-miterlimit="4" d="M488 945a3 3 0 0 1-4 3 3 3 0 0 1-3-3 3 3 0 0 1 3-3 3 3 0 0 1 4 3z" opacity="1" vector-effect="none"/>
  </g>
  <g id="Che el al., 10 days CIM" fill="none" stroke="#000" stroke-linecap="butt" stroke-linejoin="miter" stroke-opacity="1" stroke-width="1" transform="translate(4 -225)">
    <path id="path3561" d="M434 1028s2 2 1 5m0 0s8 1 17-5c8-5 8-1 15 0 7 2 20-3 20-3 1-5-7-5-7-5-6 4-12 1-12 1-7-3-16 2-16 2-6 5-18 5-18 5s-5-2-5 3c1 4 1 5 6 2z"/>
    <path id="path3584" fill-opacity="1" fill-rule="evenodd" stroke-dasharray="none" stroke-dashoffset="0" stroke-miterlimit="4" d="M440 1031a2 4 74 0 1-3 3 2 4 74 0 1-5-1 2 4 74 0 1 4-3 2 4 74 0 1 4 1z" opacity="1" vector-effect="none"/>
    <path id="path3586" fill-opacity="1" fill-rule="evenodd" stroke-dasharray="none" stroke-dashoffset="0" stroke-miterlimit="4" d="M449 1024a3 4 68 0 1-3 4 3 4 68 0 1-5-1 3 4 68 0 1 3-4 3 4 68 0 1 5 1z" opacity="1" vector-effect="none"/>
    <path id="path3588" fill-opacity="1" fill-rule="evenodd" stroke-dasharray="none" stroke-dashoffset="0" stroke-miterlimit="4" d="M458 1028a3 3 0 0 1-4 4 3 3 0 0 1-3-4 3 3 0 0 1 3-3 3 3 0 0 1 4 3z" opacity="1" vector-effect="none"/>
    <path id="path3590" fill-opacity="1" fill-rule="evenodd" stroke-dasharray="none" stroke-dashoffset="0" stroke-miterlimit="4" d="M467 1018a3 4 61 0 1-3 4 3 4 61 0 1-5 0 3 4 61 0 1 3-5 3 4 61 0 1 5 1z" opacity="1" vector-effect="none"/>
    <path id="path3592" fill-opacity="1" fill-rule="evenodd" stroke-dasharray="none" stroke-dashoffset="0" stroke-miterlimit="4" d="M488 1025a5 3 25 0 1-7 0 5 3 25 0 1-3-5 5 3 25 0 1 6-1 5 3 25 0 1 4 6z" opacity="1" vector-effect="none"/>
  </g>
  <g id="Che et al., 10 days RIM" fill="none" stroke="#000" stroke-linecap="butt" stroke-linejoin="miter" stroke-opacity="1" stroke-width="1" transform="translate(4 -225)">
    <path id="path3563" d="M434 1104s2 2 1 6m0 0s8 0 17-5c8-5 8-2 15 0 7 1 20-3 20-3 1-5-7-6-7-6-6 4-12 2-12 2-7-3-16 2-16 2-6 4-18 4-18 4s-5-1-5 3c1 5 1 5 6 3z"/>
    <path id="path3599" d="m440 1104-8-8s-2-3 2-2c4 2 10 9 10 9"/>
    <path id="path3601" d="m450 1106 13 14s3 0 2-3c0 0-10-7-12-13"/>
    <path id="path3603" d="m470 1098 10-8s1-5-3-3l-11 10"/>
  </g>
  <g id="g3676" fill="none" stroke="#000" stroke-linecap="butt" stroke-linejoin="miter" stroke-opacity="1" stroke-width="1" transform="translate(4 -225)">
    <path id="path3565" d="M536 950s2 2 1 5m0 0s8 1 17-5c8-5 8-2 15 0 7 1 20-3 20-3 1-5-7-6-7-6-6 5-12 2-12 2-7-3-16 2-16 2-6 5-18 5-18 5s-5-2-5 2c1 5 1 5 6 3z"/>
    <path id="path3626" fill-opacity="1" fill-rule="evenodd" stroke-dasharray="none" stroke-dashoffset="0" stroke-miterlimit="4" d="M589 945a4 4 0 0 1-5 4 4 4 0 0 1-4-4 4 4 0 0 1 4-4 4 4 0 0 1 5 4z" opacity="1" vector-effect="none"/>
    <path id="path3628" fill-opacity="1" fill-rule="evenodd" stroke-dasharray="none" stroke-dashoffset="0" stroke-miterlimit="4" d="M575 950a3 3 0 0 1-3 3 3 3 0 0 1-4-3 3 3 0 0 1 4-3 3 3 0 0 1 3 3z" opacity="1" vector-effect="none"/>
    <ellipse id="path3630" cx="211.4" cy="1076.7" fill-opacity="1" fill-rule="evenodd" stroke-dasharray="none" stroke-dashoffset="0" stroke-miterlimit="4" opacity="1" rx="5.2" ry="2.7" transform="rotate(-19)" vector-effect="none"/>
    <path id="path3632" fill-opacity="1" fill-rule="evenodd" stroke-dasharray="none" stroke-dashoffset="0" stroke-miterlimit="4" d="M542 955a2 2 0 0 1-3 3 2 2 0 0 1-2-3 2 2 0 0 1 2-2 2 2 0 0 1 3 2z" opacity="1" vector-effect="none"/>
    <path id="path3641" d="M582 944s-3-16 8-17c10-1 8 6 8 6s-11 7-11 11"/>
    <path id="path3643" d="M550 947s7-11 15-9c7 6 2 8 2 8s-11 0-14 2"/>
    <path id="path3645" d="M549 948s-8-13-15-8c-6 4 0 6 0 6s9-1 12 4"/>
    <path id="path3647" d="M538 957s-4 3-2 4c2 2 4-1 4-4"/>
    <path id="path3649" d="M542 955s7 0 7 5c-1 4-5 1-5 1l-4-4"/>
  </g>
  <g id="g3684" fill="none" stroke="#000" stroke-linecap="butt" stroke-linejoin="miter" stroke-opacity="1" stroke-width="1" transform="translate(4 -225)">
    <path id="path3567" d="M538 1028s2 2 1 5m0 0s8 1 16-5c9-5 9-1 16 0 7 2 20-3 20-3 1-5-7-5-7-5-6 4-12 1-12 1-7-3-16 2-16 2-6 5-18 5-18 5s-5-2-5 3c1 4 0 5 6 2z"/>
    <path id="path3651" fill-opacity="1" fill-rule="evenodd" stroke-dasharray="none" stroke-dashoffset="0" stroke-miterlimit="4" d="M592 1021c0 6-3 5-7 5-3-1-5-2-5-5 0-2 1-3 3-4l3-2c2 0 4 1 5 3l1 3z" opacity="1" vector-effect="none"/>
    <path id="path3653" fill-opacity="1" fill-rule="evenodd" stroke-dasharray="none" stroke-dashoffset="0" stroke-miterlimit="4" d="M566 1013c2 1 4 4 3 7l-4 3c-7 0-11 3-12 2-2-2 2-7 4-10 4-4 8-4 9-2z" opacity="1" vector-effect="none"/>
    <path id="path3655" fill-opacity="1" fill-rule="evenodd" stroke-dasharray="none" stroke-dashoffset="0" stroke-miterlimit="4" d="M558 1030v2l-3 2a3 3 0 0 1-3-3c0-2 1-3 3-3h5l-2 2z" opacity="1" vector-effect="none"/>
    <path id="path3657" fill-opacity="1" fill-rule="evenodd" stroke-dasharray="none" stroke-dashoffset="0" stroke-miterlimit="4" d="M548 1024c0 2-1 3-3 4-3 0-4 1-5-1l3-4c3-1 5 0 5 1z" opacity="1" vector-effect="none"/>
    <path id="path3659" fill-opacity="1" fill-rule="evenodd" stroke-dasharray="none" stroke-dashoffset="0" stroke-miterlimit="4" d="M539 1035c-1 3-4 4-7 2l-4-1-2-4c0-1 2-4 4-4l3 1 11 4-5 2z" opacity="1" vector-effect="none"/>
  </g>
  <path id="path3686" fill="none" stroke="#000" stroke-linecap="butt" stroke-linejoin="miter" stroke-opacity="1" stroke-width="1" d="M79 753s-9 53-5 72-6 67-6 67 17-22 11-66c0 0-1-57 4-69l3-5 2-30s1-3 6-2 30 4 37-6c6-10-7-17-7-17s-19-7-29 6l-9 14s-2-1-4 1c0 0-15-25-32-23 0 0-29 9-10 23 0 0 17 7 41 2l-2 27z"/>
  <path id="path3688" fill="none" stroke="#000" stroke-linecap="butt" stroke-linejoin="miter" stroke-opacity="1" stroke-width="1" d="m86 752 7 3"/>
  <path id="path3690" fill="none" stroke="#000" stroke-linecap="butt" stroke-linejoin="miter" stroke-opacity="1" stroke-width="1" d="m86 754 6 5"/>
  <path id="path3692" fill="none" stroke="#000" stroke-linecap="butt" stroke-linejoin="miter" stroke-opacity="1" stroke-width="1" d="m83 757 6 7"/>
  <path id="path3694" fill="none" stroke="#000" stroke-linecap="butt" stroke-linejoin="miter" stroke-opacity="1" stroke-width="1" d="m83 760 2 2"/>
  <path id="path3696" fill="none" stroke="#000" stroke-linecap="butt" stroke-linejoin="miter" stroke-opacity="1" stroke-width="1" d="m79 751-7-4"/>
  <path id="path3698" fill="none" stroke="#000" stroke-linecap="butt" stroke-linejoin="miter" stroke-opacity="1" stroke-width="1" d="m71 752 8-1-8 5"/>
  <path id="path3700" fill="none" stroke="#000" stroke-linecap="butt" stroke-linejoin="miter" stroke-opacity="1" stroke-width="1" d="m79 755-7 4"/>
  <text xml:space="preserve" id="text3704" x="5.2" y="148.3" fill="#000" fill-opacity="1" stroke="none" font-family="Arial" font-size="10.7" font-stretch="normal" font-style="normal" font-variant="normal" font-weight="400" letter-spacing="0" style="line-height:1.25;-inkscape-font-specification:Arial;text-align:start" text-anchor="start" word-spacing="0"><tspan id="tspan3702" x="5.2" y="148.3"><tspan id="tspan3706" font-family="Arial" font-size="10.7" font-stretch="normal" font-style="italic" font-variant="normal" font-weight="400" style="-inkscape-font-specification:'Arial Italic'">WUS</tspan> +/+ </tspan></text>
  <text xml:space="preserve" id="text3712" x="92" y="148.3" fill="#000" fill-opacity="1" stroke="none" font-family="Arial" font-size="10.7" font-stretch="normal" font-style="normal" font-variant="normal" font-weight="400" letter-spacing="0" style="line-height:1.25;-inkscape-font-specification:Arial;text-align:start" text-anchor="start" word-spacing="0"><tspan id="tspan3708" font-family="Arial" font-size="10.7" font-stretch="normal" font-style="italic" font-variant="normal" font-weight="400" style="-inkscape-font-specification:'Arial Italic'">WUS</tspan> +/+</text>
  <text xml:space="preserve" id="text3718" x="177.9" y="148.3" fill="#000" fill-opacity="1" stroke="none" font-family="Arial" font-size="10.7" font-stretch="normal" font-style="normal" font-variant="normal" font-weight="400" letter-spacing="0" style="line-height:1.25;-inkscape-font-specification:Arial;text-align:start" text-anchor="start" word-spacing="0"><tspan id="tspan3716" x="177.9" y="148.3"><tspan id="tspan3714" font-family="Arial" font-size="10.7" font-stretch="normal" font-style="italic" font-variant="normal" font-weight="400" style="-inkscape-font-specification:'Arial Italic'">WUS</tspan> +/+ </tspan></text>
  <text xml:space="preserve" id="text3724" x="264.7" y="148.3" fill="#000" fill-opacity="1" stroke="none" font-family="Arial" font-size="10.7" font-stretch="normal" font-style="normal" font-variant="normal" font-weight="400" letter-spacing="0" style="line-height:1.25;-inkscape-font-specification:Arial;text-align:start" text-anchor="start" word-spacing="0"><tspan id="tspan3720" font-family="Arial" font-size="10.7" font-stretch="normal" font-style="italic" font-variant="normal" font-weight="400" style="-inkscape-font-specification:'Arial Italic'">WUS</tspan> +/+</text>
  <text xml:space="preserve" id="text3728" x="9.7" y="321.5" fill="#000" fill-opacity="1" stroke="none" font-family="Arial" font-size="10.7" font-stretch="normal" font-style="normal" font-variant="normal" font-weight="400" letter-spacing="0" style="line-height:1.25;-inkscape-font-specification:Arial;text-align:start" text-anchor="start" word-spacing="0"><tspan id="tspan3730" font-family="Arial" font-size="10.7" font-stretch="normal" font-style="italic" font-variant="normal" font-weight="400" style="-inkscape-font-specification:'Arial Italic'">wus</tspan> -/-</text>
  <text xml:space="preserve" id="text3736" x="98" y="321.5" fill="#000" fill-opacity="1" stroke="none" font-family="Arial" font-size="10.7" font-stretch="normal" font-style="normal" font-variant="normal" font-weight="400" letter-spacing="0" style="line-height:1.25;-inkscape-font-specification:Arial;text-align:start" text-anchor="start" word-spacing="0"><tspan id="tspan3732" font-family="Arial" font-size="10.7" font-stretch="normal" font-style="italic" font-variant="normal" font-weight="400" style="-inkscape-font-specification:'Arial Italic'">wus</tspan> -/-</text>
  <text xml:space="preserve" id="text3742" x="185.3" y="321.5" fill="#000" fill-opacity="1" stroke="none" font-family="Arial" font-size="10.7" font-stretch="normal" font-style="normal" font-variant="normal" font-weight="400" letter-spacing="0" style="line-height:1.25;-inkscape-font-specification:Arial;text-align:start" text-anchor="start" word-spacing="0"><tspan id="tspan3738" font-family="Arial" font-size="10.7" font-stretch="normal" font-style="italic" font-variant="normal" font-weight="400" style="-inkscape-font-specification:'Arial Italic'">wus</tspan> -/-</text>
  <text xml:space="preserve" id="text3748" x="273.7" y="321.5" fill="#000" fill-opacity="1" stroke="none" font-family="Arial" font-size="10.7" font-stretch="normal" font-style="normal" font-variant="normal" font-weight="400" letter-spacing="0" style="line-height:1.25;-inkscape-font-specification:Arial;text-align:start" text-anchor="start" word-spacing="0"><tspan id="tspan3744" font-family="Arial" font-size="10.7" font-stretch="normal" font-style="italic" font-variant="normal" font-weight="400" style="-inkscape-font-specification:'Arial Italic'">wus</tspan> -/-</text>
  <text xml:space="preserve" id="text3752" x="30.5" y="424" fill="#000" fill-opacity="1" stroke="none" font-family="Arial" font-size="10.7" font-stretch="normal" font-style="normal" font-variant="normal" font-weight="400" letter-spacing="0" style="line-height:1.25;-inkscape-font-specification:Arial;text-align:start" text-anchor="start" word-spacing="0"><tspan id="tspan3750" x="30.5" y="424">0 hours 2iP</tspan></text>
  <text xml:space="preserve" id="text3756" x="117.6" y="424" fill="#000" fill-opacity="1" stroke="none" font-family="Arial" font-size="10.7" font-stretch="normal" font-style="normal" font-variant="normal" font-weight="400" letter-spacing="0" style="line-height:1.25;-inkscape-font-specification:Arial;text-align:start" text-anchor="start" word-spacing="0"><tspan id="tspan3754" x="117.6" y="424">19 hours 2iP</tspan></text>
  <text xml:space="preserve" id="text3760" x="204.7" y="424" fill="#000" fill-opacity="1" stroke="none" font-family="Arial" font-size="10.7" font-stretch="normal" font-style="normal" font-variant="normal" font-weight="400" letter-spacing="0" style="line-height:1.25;-inkscape-font-specification:Arial;text-align:start" text-anchor="start" word-spacing="0"><tspan id="tspan3758" x="204.7" y="424">20 hours 2iP</tspan></text>
  <text xml:space="preserve" id="text3764" x="291.8" y="424" fill="#000" fill-opacity="1" stroke="none" font-family="Arial" font-size="10.7" font-stretch="normal" font-style="normal" font-variant="normal" font-weight="400" letter-spacing="0" style="line-height:1.25;-inkscape-font-specification:Arial;text-align:start" text-anchor="start" word-spacing="0"><tspan id="tspan3762" x="291.8" y="424">48 hours 2iP</tspan></text>
  <text xml:space="preserve" id="text3768" x="210.8" y="17.3" fill="#000" fill-opacity="1" stroke="none" font-family="Arial" font-size="16" font-stretch="normal" font-style="normal" font-variant="normal" font-weight="400" letter-spacing="0" style="line-height:1.25;-inkscape-font-specification:Arial;text-align:start" text-anchor="start" word-spacing="0"><tspan id="tspan2999" x="210.8" y="17.3" style="text-align:center" text-anchor="middle">Cytokinin-induced transdifferentiation of lateral</tspan><tspan id="tspan3001" x="210.8" y="37.3" style="text-align:center" text-anchor="middle">root primordia to shoot meristems</tspan></text>
  <text xml:space="preserve" id="text3774" x="586.3" y="16.3" fill="#000" fill-opacity="1" stroke="none" font-family="Arial" font-size="16" font-stretch="normal" font-style="normal" font-variant="normal" font-weight="400" letter-spacing="0" style="line-height:1.25;-inkscape-font-specification:Arial;text-align:start" text-anchor="start" word-spacing="0"><tspan id="tspan3782" font-family="Arial" font-stretch="normal" font-style="italic" font-variant="normal" font-weight="400" style="-inkscape-font-specification:'Arial Italic'">WUSCHEL</tspan> transcriptional domain in former lateral root<tspan id="tspan7897" x="586.3" y="36.3">primordia transdifferentiating into shoot meristems vs. the</tspan><tspan id="tspan8398" x="586.3" y="56.4"><tspan id="tspan8400" font-family="Arial" font-stretch="normal" font-style="italic" font-variant="normal" font-weight="400" style="-inkscape-font-specification:'Arial Italic'">WUS</tspan> domain of SAM</tspan> </text>
  <text xml:space="preserve" id="text3786" x="6.7" y="467.9" fill="#000" fill-opacity="1" stroke="none" font-family="Arial" font-size="16" font-stretch="normal" font-style="normal" font-variant="normal" font-weight="400" letter-spacing="0" style="line-height:1.25;-inkscape-font-specification:Arial;text-align:start" text-anchor="start" word-spacing="0"><tspan id="tspan3784" x="6.7" y="467.9">Root meristem regeneration after removal of the stem cell niche</tspan></text>
  <text xml:space="preserve" id="text3790" x="695.5" y="471.9" fill="#000" fill-opacity="1" stroke="none" font-family="Arial" font-size="16" font-stretch="normal" font-style="normal" font-variant="normal" font-weight="400" letter-spacing="0" style="line-height:1.25;-inkscape-font-specification:Arial;text-align:start" text-anchor="start" word-spacing="0">       <tspan id="tspan3788" x="695.5" y="471.9">Callus derived from different organs</tspan>   </text>
  <text xml:space="preserve" id="text3794" x="15.6" y="627.7" fill="#000" fill-opacity="1" stroke="none" font-family="Arial" font-size="10.7" font-stretch="normal" font-style="normal" font-variant="normal" font-weight="400" letter-spacing="0" style="line-height:1.25;-inkscape-font-specification:Arial;text-align:start" text-anchor="start" word-spacing="0"><tspan id="tspan3792" x="15.6" y="627.7">0 hours (uncut)</tspan></text>
  <text xml:space="preserve" id="text3798" x="139.6" y="627.7" fill="#000" fill-opacity="1" stroke="none" font-family="Arial" font-size="10.7" font-stretch="normal" font-style="normal" font-variant="normal" font-weight="400" letter-spacing="0" style="line-height:1.25;-inkscape-font-specification:Arial;text-align:start" text-anchor="start" word-spacing="0"><tspan id="tspan3796" x="139.6" y="627.7" style="text-align:center" text-anchor="middle">70mm 0 hours</tspan><tspan id="tspan3809" x="139.6" y="641" style="text-align:center" text-anchor="middle">post-cut</tspan></text>
  <text xml:space="preserve" id="text3815" x="220.2" y="627.7" fill="#000" fill-opacity="1" stroke="none" font-family="Arial" font-size="10.7" font-stretch="normal" font-style="normal" font-variant="normal" font-weight="400" letter-spacing="0" style="line-height:1.25;-inkscape-font-specification:Arial;text-align:start" text-anchor="start" word-spacing="0"><tspan id="tspan3811" x="220.2" y="627.7" style="text-align:center" text-anchor="middle">70mm 5 hours </tspan><tspan id="tspan3813" x="220.2" y="641" style="text-align:center" text-anchor="middle">post-cut</tspan></text>
  <text xml:space="preserve" id="text3821" x="308.2" y="627.2" fill="#000" fill-opacity="1" stroke="none" font-family="Arial" font-size="10.7" font-stretch="normal" font-style="normal" font-variant="normal" font-weight="400" letter-spacing="0" style="line-height:1.25;-inkscape-font-specification:Arial;text-align:start" text-anchor="start" word-spacing="0"><tspan id="tspan3817" x="308.2" y="627.2" style="text-align:center" text-anchor="middle">70mm 13 hours </tspan><tspan id="tspan3819" x="308.2" y="640.5" style="text-align:center" text-anchor="middle">post-cut</tspan></text>
  <text xml:space="preserve" id="text3827" x="407.7" y="627.7" fill="#000" fill-opacity="1" stroke="none" font-family="Arial" font-size="10.7" font-stretch="normal" font-style="normal" font-variant="normal" font-weight="400" letter-spacing="0" style="line-height:1.25;-inkscape-font-specification:Arial;text-align:start" text-anchor="start" word-spacing="0"><tspan id="tspan3823" x="407.7" y="627.7" style="text-align:center" text-anchor="middle">70mm 22 hours </tspan><tspan id="tspan3825" x="407.7" y="641" style="text-align:center" text-anchor="middle">post-cut</tspan></text>
  <text xml:space="preserve" id="text3831" x="679.5" y="547.1" fill="#000" fill-opacity="1" stroke="none" font-family="Arial" font-size="10.7" font-stretch="normal" font-style="normal" font-variant="normal" font-weight="400" letter-spacing="0" style="line-height:1.25;-inkscape-font-specification:Arial;text-align:start" text-anchor="start" word-spacing="0">       <tspan id="tspan3829" x="679.5" y="547.1">Cotyledon</tspan>   </text>
  <text xml:space="preserve" id="text3835" x="680.2" y="674.2" fill="#000" fill-opacity="1" stroke="none" font-family="Arial" font-size="10.7" font-stretch="normal" font-style="normal" font-variant="normal" font-weight="400" letter-spacing="0" style="line-height:1.25;-inkscape-font-specification:Arial;text-align:start" text-anchor="start" word-spacing="0">       <tspan id="tspan3833" x="680.2" y="674.2">Root</tspan>   </text>
  <text xml:space="preserve" id="text3839" x="680.9" y="812.4" fill="#000" fill-opacity="1" stroke="none" font-family="Arial" font-size="10.7" font-stretch="normal" font-style="normal" font-variant="normal" font-weight="400" letter-spacing="0" style="line-height:1.25;-inkscape-font-specification:Arial;text-align:start" text-anchor="start" word-spacing="0">       <tspan id="tspan3837" x="680.9" y="812.4">Petal</tspan>   </text>
  <path id="rect3847" fill="#999" fill-opacity="1" fill-rule="evenodd" stroke="none" stroke-dasharray="none" stroke-dashoffset="0" stroke-linecap="butt" stroke-linejoin="miter" stroke-miterlimit="4" stroke-opacity="1" stroke-width="1" d="M680 881h39v30h-39z" opacity="1" vector-effect="none"/>
  <text xml:space="preserve" id="text3843" x="683.7" y="892.4" fill="#fff" fill-opacity="1" stroke="none" font-family="Arial" font-size="10.7" font-stretch="normal" font-style="normal" font-variant="normal" font-weight="400" letter-spacing="0" style="line-height:1.25;-inkscape-font-specification:Arial;text-align:start" text-anchor="start" word-spacing="0"><tspan id="tspan3841" x="683.7" y="892.4">Array-</tspan><tspan id="tspan3845" x="683.7" y="905.7">alert!</tspan>   </text>
  <text xml:space="preserve" id="text3851" x="67.4" y="903.6" fill="#000" fill-opacity="1" stroke="none" font-family="Arial" font-size="10.7" font-stretch="normal" font-style="normal" font-variant="normal" font-weight="400" letter-spacing="0" style="line-height:1.25;-inkscape-font-specification:Arial;text-align:start" text-anchor="start" word-spacing="0"><tspan id="tspan3849" x="67.4" y="903.6" style="text-align:center" text-anchor="middle">Arabidopsis </tspan><tspan id="tspan3853" x="67.4" y="917" style="text-align:center" text-anchor="middle">seedlings</tspan></text>
  <text xml:space="preserve" id="text3857" x="140" y="827.1" fill="#000" fill-opacity="1" stroke="none" font-family="Arial" font-size="10.7" font-stretch="normal" font-style="normal" font-variant="normal" font-weight="400" letter-spacing="0" style="line-height:1.25;-inkscape-font-specification:Arial;text-align:start" text-anchor="start" word-spacing="0"><tspan id="tspan3855" x="140" y="827.1" style="text-align:center" text-anchor="middle">Root </tspan><tspan id="tspan3859" x="140" y="840.5" style="text-align:center" text-anchor="middle">Explants</tspan></text>
  <text xml:space="preserve" id="text3863" x="151.1" y="782.2" fill="#000" fill-opacity="1" stroke="none" font-family="Arial" font-size="10.7" font-stretch="normal" font-style="normal" font-variant="normal" font-weight="400" letter-spacing="0" style="line-height:1.25;-inkscape-font-specification:Arial;text-align:start" text-anchor="start" word-spacing="0"><tspan id="tspan3861" x="151.1" y="782.2">Callus Induction Medium</tspan></text>
  <text xml:space="preserve" id="text3867" x="311.1" y="711.3" fill="#000" fill-opacity="1" stroke="none" font-family="Arial" font-size="10.7" font-stretch="normal" font-style="normal" font-variant="normal" font-weight="400" letter-spacing="0" style="line-height:1.25;-inkscape-font-specification:Arial;text-align:start" text-anchor="start" word-spacing="0">       <tspan id="tspan3865" x="311.1" y="711.3">Shoot Induction Medium</tspan>   </text>
  <text xml:space="preserve" id="text3871" x="302.7" y="786.4" fill="#000" fill-opacity="1" stroke="none" font-family="Arial" font-size="10.7" font-stretch="normal" font-style="normal" font-variant="normal" font-weight="400" letter-spacing="0" style="line-height:1.25;-inkscape-font-specification:Arial;text-align:start" text-anchor="start" word-spacing="0">       <tspan id="tspan3869" x="302.7" y="786.4">Callus Induction Medium</tspan>   </text>
  <text xml:space="preserve" id="text3875" x="309" y="860.1" fill="#000" fill-opacity="1" stroke="none" font-family="Arial" font-size="10.7" font-stretch="normal" font-style="normal" font-variant="normal" font-weight="400" letter-spacing="0" style="line-height:1.25;-inkscape-font-specification:Arial;text-align:start" text-anchor="start" word-spacing="0">       <tspan id="tspan3873" x="309" y="860.1">Root induction Medium</tspan>   </text>
  <text xml:space="preserve" id="text3879" x="553.9" y="752.8" fill="#000" fill-opacity="1" stroke="none" font-family="Arial" font-size="10.7" font-stretch="normal" font-style="normal" font-variant="normal" font-weight="400" letter-spacing="0" style="line-height:1.25;-inkscape-font-specification:Arial;text-align:start" text-anchor="start" word-spacing="0">       <tspan id="tspan3877" x="553.9" y="752.8">Shoots</tspan>   </text>
  <text xml:space="preserve" id="text3883" x="554.6" y="822.2" fill="#000" fill-opacity="1" stroke="none" font-family="Arial" font-size="10.7" font-stretch="normal" font-style="normal" font-variant="normal" font-weight="400" letter-spacing="0" style="line-height:1.25;-inkscape-font-specification:Arial;text-align:start" text-anchor="start" word-spacing="0">       <tspan id="tspan3881" x="554.6" y="822.2">Calli</tspan>   </text>
  <text xml:space="preserve" id="text3887" x="500.6" y="871.4" fill="#000" fill-opacity="1" stroke="#000" font-family="Arial" font-size="10.7" font-stretch="normal" font-style="normal" font-variant="normal" font-weight="400" letter-spacing="0" style="line-height:1.25;-inkscape-font-specification:Arial;text-align:start" text-anchor="start" word-spacing="0">       <tspan id="tspan3885" x="500.6" y="871.4">Roots</tspan>   </text>
  <path id="path3889" fill="none" stroke="#000" stroke-linecap="butt" stroke-linejoin="miter" stroke-opacity="1" stroke-width="1" marker-end="url(#Arrow1Lend)" d="M141 906v-29"/>
  <path id="path4211" fill="none" stroke="#000" stroke-linecap="butt" stroke-linejoin="miter" stroke-opacity="1" stroke-width="1" marker-end="url(#marker4215)" d="M211 906v-29"/>
  <path id="path4307" fill="none" stroke="#000" stroke-linecap="butt" stroke-linejoin="miter" stroke-opacity="1" stroke-width="1" marker-end="url(#marker4311)" d="M277 906v-29"/>
  <path id="path4391" fill="none" stroke="#000" stroke-linecap="butt" stroke-linejoin="miter" stroke-opacity="1" stroke-width="1" marker-end="url(#marker4395)" d="M371 927v-29"/>
  <path id="path4493" fill="none" stroke="#000" stroke-linecap="butt" stroke-linejoin="miter" stroke-opacity="1" stroke-width="1" marker-end="url(#marker4497)" d="M442 927v-29"/>
  <path id="path4583" fill="none" stroke="#000" stroke-linecap="butt" stroke-linejoin="miter" stroke-opacity="1" stroke-width="1" marker-end="url(#marker5041)" d="M83 802h19"/>
  <path id="path4649" fill="none" stroke="#000" stroke-linecap="butt" stroke-linejoin="miter" stroke-opacity="1" stroke-width="1" marker-end="url(#marker4887)" d="M169 803h13"/>
  <path id="path4721" fill="none" stroke="#000" stroke-linecap="butt" stroke-linejoin="miter" stroke-opacity="1" stroke-width="1" marker-end="url(#Arrow2Lend)" d="M248 802h10"/>
  <path id="path5193" fill="none" stroke="#000" stroke-linecap="butt" stroke-linejoin="miter" stroke-opacity="1" stroke-width="1" marker-end="url(#marker5197)" d="M325 802h16"/>
  <path id="path5277" fill="none" stroke="#000" stroke-linecap="butt" stroke-linejoin="miter" stroke-opacity="1" stroke-width="1" marker-end="url(#marker5287)" d="m284 786 25-57h32"/>
  <path id="path5373" fill="none" stroke="#000" stroke-linecap="butt" stroke-linejoin="miter" stroke-opacity="1" stroke-width="1" marker-end="url(#marker5383)" d="m283 816 27 61h26"/>
  <path id="path5475" fill="none" stroke="#000" stroke-linecap="butt" stroke-linejoin="miter" stroke-opacity="1" stroke-width="1" marker-end="url(#marker5485)" d="M406 729h20"/>
  <path id="path5583" fill="none" stroke="#000" stroke-linecap="butt" stroke-linejoin="miter" stroke-opacity="1" stroke-width="1" marker-end="url(#marker5593)" d="M494 730h35"/>
  <path id="path5697" fill="none" stroke="#000" stroke-linecap="butt" stroke-linejoin="miter" stroke-opacity="1" stroke-width="1" marker-end="url(#marker5701)" d="M494 807h35"/>
  <path id="path5901" fill="none" stroke="#000" stroke-linecap="butt" stroke-linejoin="miter" stroke-opacity="1" stroke-width="1" marker-end="url(#marker5905)" d="M406 803h20"/>
  <path id="path6081" fill="none" stroke="#000" stroke-linecap="butt" stroke-linejoin="miter" stroke-opacity="1" stroke-width="1" marker-end="url(#marker6085)" d="M406 877h20"/>
  <text xml:space="preserve" id="text6299" x="-939.8" y="143.6" fill="#000" fill-opacity="1" stroke="none" font-family="Arial" font-size="10.7" font-stretch="normal" font-style="normal" font-variant="normal" font-weight="400" letter-spacing="0" style="line-height:1.25;-inkscape-font-specification:Arial;text-align:start" text-anchor="start" transform="rotate(-90)" word-spacing="0"><tspan id="tspan6297" x="-939.8" y="143.6">0 days</tspan></text>
  <text xml:space="preserve" id="text6303" x="-939.8" y="213.7" fill="#000" fill-opacity="1" stroke="none" font-family="Arial" font-size="10.7" font-stretch="normal" font-style="normal" font-variant="normal" font-weight="400" letter-spacing="0" style="line-height:1.25;-inkscape-font-specification:Arial;text-align:start" text-anchor="start" transform="rotate(-90)" word-spacing="0"><tspan id="tspan6301" x="-939.8" y="213.7">2 days</tspan></text>
  <text xml:space="preserve" id="text6307" x="-939.8" y="281.1" fill="#000" fill-opacity="1" stroke="none" font-family="Arial" font-size="10.7" font-stretch="normal" font-style="normal" font-variant="normal" font-weight="400" letter-spacing="0" style="line-height:1.25;-inkscape-font-specification:Arial;text-align:start" text-anchor="start" transform="rotate(-90)" word-spacing="0"><tspan id="tspan6305" x="-939.8" y="281.1">4 days</tspan></text>
  <text xml:space="preserve" id="text6311" x="-939.8" y="360.8" fill="#000" fill-opacity="1" stroke="none" font-family="Arial" font-size="10.7" font-stretch="normal" font-style="normal" font-variant="normal" font-weight="400" letter-spacing="0" style="line-height:1.25;-inkscape-font-specification:Arial;text-align:start" text-anchor="start" transform="rotate(-90)" word-spacing="0"><tspan id="tspan6309" x="-939.8" y="360.8">7 days</tspan></text>
  <text xml:space="preserve" id="text6315" x="-944" y="432.3" fill="#000" fill-opacity="1" stroke="none" font-family="Arial" font-size="10.7" font-stretch="normal" font-style="normal" font-variant="normal" font-weight="400" letter-spacing="0" style="line-height:1.25;-inkscape-font-specification:Arial;text-align:start" text-anchor="start" transform="rotate(-90)" word-spacing="0"><tspan id="tspan6313" x="-944" y="432.3">10 days</tspan></text>
  <text xml:space="preserve" id="text6319" x="766.2" y="923.3" fill="#000" fill-opacity="1" stroke="none" font-family="Arial" font-size="10.7" font-stretch="normal" font-style="normal" font-variant="normal" font-weight="400" letter-spacing="0" style="line-height:1.25;-inkscape-font-specification:Arial;text-align:start" text-anchor="start" word-spacing="0"><tspan id="tspan6317" x="766.2" y="923.3">0d CIM</tspan></text>
  <text xml:space="preserve" id="text6323" x="885.2" y="923.3" fill="#000" fill-opacity="1" stroke="none" font-family="Arial" font-size="10.7" font-stretch="normal" font-style="normal" font-variant="normal" font-weight="400" letter-spacing="0" style="line-height:1.25;-inkscape-font-specification:Arial;text-align:start" text-anchor="start" word-spacing="0"><tspan id="tspan6321" x="885.2" y="923.3">10d CIM</tspan></text>
  <path id="rect6325" fill="#999" fill-opacity="1" fill-rule="evenodd" stroke="none" stroke-dasharray="none" stroke-dashoffset="0" stroke-linecap="butt" stroke-linejoin="miter" stroke-miterlimit="4" stroke-opacity="1" stroke-width="1" d="M752 278h39v29h-39z" opacity="1" vector-effect="none"/>
  <text xml:space="preserve" id="text6331" x="756.2" y="289" fill="#fff" fill-opacity="1" stroke="none" font-family="Arial" font-size="10.7" font-stretch="normal" font-style="normal" font-variant="normal" font-weight="400" letter-spacing="0" style="line-height:1.25;-inkscape-font-specification:Arial;text-align:start" text-anchor="start" word-spacing="0"><tspan id="tspan6327" x="756.2" y="289">Proto-</tspan><tspan id="tspan6329" x="756.2" y="302.3">alert!</tspan>   </text>
</svg>