<svg xmlns="http://www.w3.org/2000/svg" id="RootEpidermis_svg" version="1.1" viewBox="0 0 884.4 297.2" author="Provart Lab - Bio Analytic Resource, University of Toronto">
  <g id="g11762" fill="none" stroke="#000" stroke-miterlimit="10" stroke-width="1.3" transform="translate(-14 -17)">
    <path id="path9856" d="M87 221c5-5 3-7 3-7l-4-3-1-4-3-2v-3l-2-3 5-4 1-5 2-4 1-5 1-4 1-2v-1l1-2v-3l1-4v-6l1-2-2-1 2-2v-2l-1-3 2-2v-2l2-1v-7l-1-4 1-4-1-4 2-3-1-2v-4l2-2-2-4 2-2-1-2v-5l1-1-2-13 1-3-2-11 1-2-5-31-6-1v4l-2 1-1 9-4 1V42l-4 1 1 2h-3v-4h-2l-2 11 2-31h-8v14l-3 1 1 8-3-1v2h-4v12l-1-4-2-1V41h-5v3h-8v26l1 15v14l1 7-1 1 2 5-1 3 1 3v5l2 6-2 4 2 3-1 4 1 1-1 4 3 2v3l1 1 1 2v3l-1 2 2 2-1 2 2 3v5l1 1v3l2 2-1 1 2 4 2 4 1 2 1 3v2l2 5 3 3v6h-1l-1 5-3 6 2 1 1 2-3 10v3l6 4s-7-1-5 11c0 0 5 7 8 3 0 0 14 9 14 2 0 0 4 1 7-2l-1-15 3-1 4-9-6-5"/>
    <path id="path9912" d="m63 237 5 4 9-2 3 1 6-4"/>
    <path id="path9914" d="m60 220 8 3 8 1h5l1-4 5 1"/>
    <path id="path9916" d="m60 211 3 2 3 1 3 1 6-2h4l7-2"/>
    <path id="path9938" d="M62 206s3-1 4 1l6-1h5l5-1"/>
    <path id="path9946" d="m46 44 1 27v29l1 5 1 6v2l2 4-1 1v4l-1 1 1 3-1 3 2 4-1 3 2 5v4l1 1v3l1 3v2l-1 2 1 3v3l1 1-1 3 1 2v1l-1 2 1 2v3l2 3 1 2 1 3v2l1 2-1 2 2 3v2l3 2 2 3h9l4-1 2-5 2-4 1-4 1-5v-4l1-4v-14l-1-2 2-1v-4l-1-1 1-2v-4l-1-2 1-2 1-4-1-3v-5l1-5-2-2 2-2-1-3 1-6-1-3 1-2-1-3v-1l1-2-2-9 3-5V66h-3V43"/>
    <path id="path9969" d="m51 52 1 18 1 14-1 2v19l1 7 1 2v18l2 6-1 3v5h1v8l2 2v12l1 4v1l1 4v2l1 4 1 3v3l1 3 1 1 1 3 3-1 5 1 1-1h3l2-1 1-2 1-2 1-4v-3l1-2v-5l-1-5 1-1v-4l-1-5 1-4v-6l-1-3 1-5v-6l1-1-1-4 1-3-1-4 2-3-2-3 2-2-2-2 1-4V84l-1-14 1-2-1-15"/>
    <path id="path9971" d="m79 54 1 15v16l-1 2 1 14v2l-1 8 1 4v3l1 2v5l-1 4 1 3-1 4-1 4 2 2-1 3v12l1 4v10l-1 5v6l-1 4v4l-1 2-3 1-1 1-1-1h-3l-2 1-1-2-1-3-1-1v-3l-2-2 1-3-2-2 1-3-1-2v-6l-2-2 1-3-1-6v-5l-1-5-1-8v-6l-1-5 1-2-1-7v-10l-1-23-1-20-1-8"/>
    <path id="path9973" d="M76 45v28l1 14-1 3 1 12v8l-1 4 1 4-1 7 1 4-1 4v6l1 1-2 3 1 3-1 5v8l1 6-1 2 1 4-1 3v3l-1 1v4l-2 3v3l-4 1-1-1-1-4v-4l-1-1v-4l-1-2v-8l-1-3 1-5-2-2 1-4h-1l-1-6 1-4-1-3 1-3-2-2 1-8-1-8v-2l-1-1V87l-1-1 1-14-1-1V45"/>
    <path id="path9983" d="M73 45v19l1 3-1 18 1 8v21l-1 8 1 3-1 7v6l1 1v3l-1 10v21l-2 3v4l-1 1-3-1v-4l-1-1v-18l-1-5-1-1v-16l-1-9v-11l-1-9V80l-1-9V44"/>
    <path id="path9985" d="m69 52 1 10 1 2v22l-1 1-1 18 1 9v41l1 5-1 6v6l-2-5v-6l-1-4v-11l-1-6 1-1-1-4 1-2v-8h-2l1-6v-4h-1v-9l-1-1 1-18V36l-2-1"/>
    <path id="path11451" d="M70 62h-5"/>
    <path id="path11453" d="M70 87h-5"/>
    <path id="path11455" d="m69 105-4 1"/>
    <path id="path11457" d="M70 119h-4"/>
    <path id="path11459" d="m69 132-2 1"/>
    <path id="path11461" d="m70 139-4 1"/>
    <path id="path11463" d="M70 146h-3"/>
    <path id="path11465" d="m70 155-3 2"/>
    <path id="path11467" d="m71 160-3 1"/>
  </g>
  <g id="g9880" fill="none" stroke="#000" stroke-miterlimit="10" stroke-width="1.3" transform="translate(-14 -17)">
    <path id="path9872" d="M83 265s-7-2-6 6c0 0 8 8 9-2 0 0 8-5 1-14 0 0-5 3-4 10"/>
    <path id="path9874" d="M83 265s3 2 3 4"/>
  </g>
  <g id="g9884" fill="none" stroke="#000" stroke-miterlimit="10" stroke-width="1.3" transform="translate(-14 -17)">
    <path id="path9870" d="M57 262s2-10 10-7c0 0 2 3 1 6 0 0 6-9 9 0 0 0 0 12-6 8l-2-4s-6 11-12-3"/>
    <path id="path9876" d="m68 261 1 4"/>
  </g>
  <g id="g9958" fill="none" stroke="#000" stroke-miterlimit="10" stroke-width="1.3" transform="translate(-14 -17)">
    <path id="path9918" d="m59 218 5-5"/>
    <path id="path9920" d="m64 221 3-7"/>
    <path id="path9922" d="m69 215-1 8"/>
    <path id="path9924" d="m75 213 1 11"/>
    <path id="path9926" d="m82 220-3-7"/>
  </g>
  <g id="g9963" fill="none" stroke="#000" stroke-miterlimit="10" stroke-width="1.3" transform="translate(-14 -17)">
    <path id="path9928" d="m68 223-5 14"/>
    <path id="path9930" d="M76 224s-1 8 1 15"/>
    <path id="path9932" d="M81 224s1 6 5 12"/>
  </g>
  <g id="g9967" fill="none" stroke="#000" stroke-miterlimit="10" stroke-width="1.3" transform="translate(-14 -17)">
    <path id="path9934" d="m68 241-2 10"/>
    <path id="path9936" d="M80 240v13"/>
  </g>
  <g id="g9951" fill="none" stroke="#000" stroke-miterlimit="10" stroke-width="1.3" transform="translate(-14 -17)">
    <path id="path9940" d="m66 207 1 7"/>
    <path id="path9942" d="m73 206 2 7"/>
    <path id="path9944" d="m77 206 2 7"/>
  </g>
  <g id="g10592" fill="none" stroke="#000" stroke-miterlimit="10" stroke-width="1.3" transform="translate(-14 -17)">
    <path id="path10425" d="M38 71h9"/>
    <path id="path10427" d="m38 85 9 1"/>
    <path id="path10429" d="M39 100h8"/>
    <path id="path10431" d="m40 106 8-1"/>
    <path id="path10433" d="m41 112 8 1"/>
    <path id="path10435" d="M41 118h9"/>
    <path id="path10437" d="M41 123h8"/>
    <path id="path10439" d="M49 129h-6"/>
    <path id="path10441" d="M43 136h7"/>
    <path id="path10443" d="M52 141h-9"/>
    <path id="path10445" d="m45 147 7-2"/>
    <path id="path10447" d="m53 149-8 1"/>
    <path id="path10449" d="M47 153h7"/>
    <path id="path10451" d="M53 156h-6"/>
    <path id="path10453" d="m48 160 6-1"/>
    <path id="path10455" d="M54 162h-7"/>
    <path id="path10457" d="m49 165 5 1"/>
    <path id="path10459" d="M55 168h-6"/>
    <path id="path10461" d="M50 171h4"/>
    <path id="path10463" d="M55 176h-3"/>
    <path id="path10465" d="M53 181h5"/>
    <path id="path10467" d="m55 185 4-1"/>
    <path id="path10469" d="M59 190h-2"/>
    <path id="path10471" d="m60 197 1-2"/>
  </g>
  <g id="g10599" fill="none" stroke="#000" stroke-miterlimit="10" stroke-width="1.3" transform="translate(-14 -17)">
    <path id="path10473" d="m64 197-2 3"/>
    <path id="path10475" d="M66 201v6"/>
    <path id="path10477" d="M71 200v6"/>
    <path id="path10479" d="m77 206-2-6"/>
    <path id="path10481" d="M79 199h1"/>
  </g>
  <g id="g10566" fill="none" stroke="#000" stroke-miterlimit="10" stroke-width="1.3" transform="translate(-14 -17)">
    <path id="path10483" d="M85 194h-4"/>
    <path id="path10485" d="M83 190h3"/>
    <path id="path10487" d="M88 186h-4"/>
    <path id="path10489" d="M85 181h4"/>
    <path id="path10491" d="M90 177h-5"/>
    <path id="path10493" d="m86 173 5 1"/>
    <path id="path10495" d="M92 169h-6"/>
    <path id="path10497" d="M86 165h7"/>
    <path id="path10499" d="m93 161-7 1"/>
    <path id="path10501" d="M86 159h7"/>
    <path id="path10503" d="M92 156h-5"/>
    <path id="path10505" d="M87 152h7"/>
    <path id="path10507" d="M93 149h-6"/>
    <path id="path10509" d="M87 145h8"/>
    <path id="path10511" d="M97 141H87"/>
    <path id="path10513" d="M88 137h9"/>
    <path id="path10515" d="m96 133-9 1"/>
    <path id="path10517" d="M88 129h9"/>
    <path id="path10519" d="m96 125-8-1"/>
    <path id="path10521" d="M88 120h9"/>
    <path id="path10525" d="M97 116H87"/>
    <path id="path10527" d="m88 111 9-1"/>
    <path id="path10529" d="M98 106H88"/>
    <path id="path10531" d="M87 102h10"/>
    <path id="path10533" d="M99 100H88"/>
    <path id="path10535" d="m89 86 8 1"/>
    <path id="path10537" d="M89 73h7"/>
  </g>
  <g id="g10783" fill="none" stroke="#000" stroke-miterlimit="10" stroke-width="1.3" transform="translate(-14 -17)">
    <path id="path10662" d="m47 71 5-1"/>
    <path id="path10664" d="M47 86h5"/>
    <path id="path10666" d="m47 100 5 1"/>
    <path id="path10668" d="M48 105h4"/>
    <path id="path10670" d="M48 112h5"/>
    <path id="path10672" d="M51 117h2"/>
    <path id="path10676" d="M50 122h4"/>
    <path id="path10678" d="M50 126h4"/>
    <path id="path10680" d="m51 133 3-1"/>
    <path id="path10682" d="M52 141h3"/>
    <path id="path10684" d="M53 146h2"/>
    <path id="path10686" d="M54 154h2"/>
    <path id="path10688" d="M54 159h4"/>
    <path id="path10690" d="M55 163h3"/>
    <path id="path10692" d="M55 168h3"/>
    <path id="path10694" d="m55 173 4-1"/>
    <path id="path10696" d="M57 179h3"/>
    <path id="path10698" d="m59 184 2-1"/>
    <path id="path10700" d="m60 188 2-1"/>
    <path id="path10702" d="m61 193 2-1"/>
    <path id="path10704" d="m64 197 1-1"/>
  </g>
  <g id="g10760" fill="none" stroke="#000" stroke-miterlimit="10" stroke-width="1.3" transform="translate(-14 -17)">
    <path id="path10706" d="m84 69 2-3"/>
    <path id="path10708" d="M84 91h2"/>
    <path id="path10710" d="m84 105 3-2"/>
    <path id="path10712" d="m84 111 3-3"/>
    <path id="path10714" d="M85 117h2"/>
    <path id="path10716" d="M85 122h1"/>
    <path id="path10718" d="M84 129h4"/>
    <path id="path10720" d="M84 136h4"/>
    <path id="path10722" d="m83 142 3 1"/>
    <path id="path10724" d="M83 151h3"/>
    <path id="path10726" d="M82 157h3"/>
    <path id="path10728" d="m83 166 3-1"/>
    <path id="path10730" d="m83 170 3 1"/>
    <path id="path10732" d="m83 176 2 1"/>
    <path id="path10734" d="M83 181h2"/>
    <path id="path10736" d="M82 186h2"/>
    <path id="path10738" d="M81 190h2"/>
    <path id="path10740" d="M79 194h2"/>
  </g>
  <g id="g10797" fill="none" stroke="#000" stroke-miterlimit="10" stroke-width="1.3" transform="translate(-14 -17)">
    <path id="path10785" d="m77 195-1 2 3 2"/>
    <path id="path10787" d="m76 197-4 1-8-1"/>
    <path id="path10789" d="M72 198v3"/>
    <path id="path10791" d="m73 196-1 2"/>
  </g>
  <g id="g11065" fill="none" stroke="#000" stroke-miterlimit="10" stroke-width="1.3" transform="translate(-14 -17)">
    <path id="path10960" d="M53 84h3"/>
    <path id="path10962" d="M54 114h2"/>
    <path id="path10964" d="M54 127h3"/>
    <path id="path10966" d="M56 138h2"/>
    <path id="path10968" d="M56 146h3"/>
    <path id="path10970" d="M58 156h2"/>
    <path id="path10972" d="m58 166 2-1"/>
    <path id="path10974" d="M59 173h3"/>
    <path id="path10976" d="m60 177 2 1"/>
    <path id="path10978" d="M61 183h2"/>
    <path id="path10980" d="m62 187 3-2"/>
    <path id="path10982" d="m62 190 3-2"/>
    <path id="path10984" d="m64 193 3-1"/>
    <path id="path10986" d="M68 194v1"/>
    <path id="path10988" d="M74 194v1"/>
    <path id="path10990" d="M77 193v2"/>
    <path id="path10992" d="M79 190h2"/>
    <path id="path10994" d="M79 186h3"/>
    <path id="path10996" d="m80 182 2 1"/>
    <path id="path10998" d="m80 176 3 1"/>
    <path id="path11000" d="m80 180 3 1"/>
    <path id="path11002" d="M81 171h1"/>
    <path id="path11004" d="M81 165h1"/>
    <path id="path11006" d="M81 161h1"/>
    <path id="path11008" d="m82 155-2-1"/>
    <path id="path11010" d="M80 148h2"/>
    <path id="path11012" d="M81 142h2"/>
    <path id="path11014" d="m80 136 3 1"/>
    <path id="path11016" d="M83 132h-2"/>
    <path id="path11018" d="M81 125h2"/>
    <path id="path11020" d="m83 119-2 1"/>
    <path id="path11022" d="M80 115h3"/>
    <path id="path11024" d="m84 100-4 1"/>
    <path id="path11026" d="m80 85 4-1"/>
    <path id="path11028" d="M84 69h-4"/>
  </g>
  <g id="g11257" transform="translate(-14 -17)">
    <path id="path9977" fill="none" stroke="#000" stroke-miterlimit="10" stroke-width="1.3" d="M78 146v12l1 7-1 6v5l-1 3v4l1 3-1 4h-2l-3 1"/>
  </g>
  <g id="g11124" fill="none" stroke="#000" stroke-miterlimit="10" stroke-width="1.3" transform="translate(-14 -17)">
    <path id="path11067" d="M55 65h2"/>
    <path id="path11069" d="m56 85 2 1"/>
    <path id="path11071" d="M57 108h2"/>
    <path id="path11073" d="M56 114h3"/>
    <path id="path11075" d="m57 118 3-1"/>
    <path id="path11077" d="M58 125h3"/>
    <path id="path11079" d="M58 133h2"/>
    <path id="path11081" d="M58 138h3"/>
    <path id="path11083" d="m59 146 2-1"/>
    <path id="path11085" d="M60 151h2"/>
    <path id="path11087" d="m60 156 2-1"/>
    <path id="path11089" d="m61 160 2 2"/>
    <path id="path11091" d="M62 167h2"/>
    <path id="path11093" d="m63 175 1-2"/>
    <path id="path11095" d="m64 180 1-1"/>
    <path id="path11097" d="m65 185 1-1"/>
    <path id="path11099" d="m66 189 1-1"/>
    <path id="path11101" d="m68 189 2 4"/>
    <path id="path11103" d="m72 188 1 5"/>
  </g>
  <g id="g11153" fill="none" stroke="#000" stroke-miterlimit="10" stroke-width="1.3" transform="translate(-14 -17)">
    <path id="path11126" d="m80 76-4-5"/>
    <path id="path11128" d="M79 87h-2"/>
    <path id="path11130" d="m77 102 3 1"/>
    <path id="path11132" d="m77 110 2 1"/>
    <path id="path11134" d="M77 118h3"/>
    <path id="path11136" d="M76 125h5"/>
    <path id="path11138" d="M77 129h3"/>
    <path id="path11140" d="M77 140h2"/>
    <path id="path11142" d="M76 146h2l2-1"/>
  </g>
  <g id="g11185" fill="none" stroke="#000" stroke-miterlimit="10" stroke-width="1.3" transform="translate(-14 -17)">
    <path id="path11157" d="m75 153 3-1"/>
    <path id="path11161" d="m75 159 3-1"/>
    <path id="path11165" d="M76 165h3"/>
    <path id="path11169" d="M76 171h2"/>
    <path id="path11173" d="m75 177 2 2"/>
    <path id="path11175" d="m74 182 2 1h1"/>
  </g>
  <g id="g11205" fill="none" stroke="#000" stroke-miterlimit="10" stroke-width="1.3" transform="translate(-14 -17)">
    <path id="path9981" d="m76 183-1 4h-2l-1 1"/>
    <path id="path11177" d="m75 187 2 3"/>
  </g>
  <g id="g11201" fill="none" stroke="#000" stroke-miterlimit="10" stroke-width="1.3" transform="translate(-14 -17)">
    <path id="path11155" d="m78 152 2-1"/>
    <path id="path11159" d="m78 158 2-1"/>
    <path id="path11163" d="M79 165h2"/>
    <path id="path11167" d="M78 171h3"/>
    <path id="path11171" d="M78 176h2"/>
    <path id="path11187" d="M78 186h1"/>
    <path id="path11189" d="m77 190 1 2"/>
    <path id="path11191" d="M75 193v-3"/>
  </g>
  <g id="g11306" fill="none" stroke="#000" stroke-miterlimit="10" stroke-width="1.3" transform="translate(-14 -17)">
    <path id="path11259" d="M59 72h2"/>
    <path id="path11261" d="M58 86h4"/>
    <path id="path11263" d="m59 106 3-1"/>
    <path id="path11265" d="M60 115h2"/>
    <path id="path11267" d="m61 125 2 1"/>
    <path id="path11269" d="M61 135h3"/>
    <path id="path11271" d="M62 141h2"/>
    <path id="path11273" d="M63 151h1"/>
    <path id="path11275" d="m64 157 2-1"/>
    <path id="path11277" d="m64 165 1-2"/>
    <path id="path11279" d="M65 175h1"/>
    <path id="path11281" d="M66 180h1"/>
  </g>
  <g id="g11292" fill="none" stroke="#000" stroke-miterlimit="10" stroke-width="1.3" transform="translate(-14 -17)">
    <path id="path11283" d="M66 185h6"/>
    <path id="path11285" d="M70 181v4"/>
    <path id="path11287" d="m68 189 2-4"/>
  </g>
  <g id="g11350" fill="none" stroke="#000" stroke-miterlimit="10" stroke-width="1.3" transform="translate(-14 -17)">
    <path id="path11308" d="M71 180h3"/>
    <path id="path11310" d="m74 178-3-2"/>
    <path id="path11312" d="m75 174-2-1"/>
    <path id="path11314" d="M75 167h-2"/>
    <path id="path11316" d="M75 159h-2"/>
    <path id="path11318" d="m75 153-2-1"/>
    <path id="path11320" d="M75 143h-2"/>
    <path id="path11322" d="M76 139h-2"/>
    <path id="path11324" d="M76 133h-3"/>
    <path id="path11326" d="M76 125h-2"/>
    <path id="path11328" d="M76 114h-2"/>
    <path id="path11330" d="M77 104h-3"/>
    <path id="path11332" d="m76 90-2 3"/>
    <path id="path11334" d="M76 67h-2"/>
  </g>
  <g id="g11449" fill="none" stroke="#000" stroke-miterlimit="10" stroke-width="1.3" transform="translate(-14 -17)">
    <path id="path11386" d="M61 58h4"/>
    <path id="path11388" d="m62 80 3 1"/>
    <path id="path11390" d="m62 105 3 1"/>
    <path id="path11392" d="M62 115h3"/>
    <path id="path11394" d="m63 126 2-1"/>
    <path id="path11396" d="M64 135h2"/>
    <path id="path11398" d="m64 141 2-1"/>
    <path id="path11400" d="M64 146h3"/>
    <path id="path11402" d="m66 156 1 1"/>
    <path id="path11404" d="m66 166 2 1"/>
    <path id="path11406" d="M66 172h4"/>
    <path id="path11408" d="M67 176h4"/>
    <path id="path11410" d="m70 172 1 4"/>
    <path id="path11412" d="m70 166 3-1"/>
    <path id="path11414" d="m71 160 2-1"/>
    <path id="path11416" d="M70 155h3"/>
    <path id="path11418" d="m70 139 3-1"/>
    <path id="path11420" d="M70 122h3"/>
    <path id="path11422" d="M70 114h4"/>
    <path id="path11424" d="m71 86 2-1"/>
    <path id="path11426" d="M71 64h2"/>
  </g>
  <g id="g10854" transform="translate(-14 -17)">
    <path id="path9860" fill="#0cf180" stroke="#000" stroke-miterlimit="10" stroke-width="1.3" d="M47 231s9-1 11 5c0 0-2 6-4 6 0 0-3 0-3-4-1-4-3-4-3-4l-1-3"/>
  </g>
  <g id="g9910" transform="translate(-14 -17)">
    <path id="path9866" fill="#0cf180" stroke="#000" stroke-miterlimit="10" stroke-width="1.3" d="M98 256s2-8 12-9c0 0 16-6-3-4 0 0-7 1-13 4v-7s2 0 2-3c-1-3 1-3 1-3v-3s11 0 15-12h-5l-10 7s-2 2 0 3c0 0-6 2-4 9l-4-3-3 1 1 15s3 3 6-2c0 0-6 14 5 7"/>
  </g>
  <g id="g9903" fill="#0cf180" stroke="#000" stroke-miterlimit="10" stroke-width="1.3" transform="translate(-14 -17)">
    <path id="path9894" d="m93 249 1-2"/>
    <path id="path9896" d="m93 238 1 2"/>
    <path id="path9898" d="M97 231v-2"/>
  </g>
  <g id="g10197" transform="translate(-14 -17)">
    <path id="path9864" fill="#0cf180" stroke="#000" stroke-miterlimit="10" stroke-width="1.3" d="m92 40 5 31-1 2 2 11-1 3 2 13-1 1v5l1 2-2 2 2 4-2 2v4l1 2-2 3 1 4-1 4 1 4v7l-2 1v2l-2 2 1 3v2l-2 2 2 1-1 2v6l-1 4v3l-1 2v1l-1 2-1 4-1 5-2 4-1 5-5 4 2 3v3l3 2 1 4 4 3s2 2-3 7l6 5 4-13s3-4 3-11v-6l2-4 1-5v-5l5-11-5-2 1-3s2 4 6 0c0 0 6-12 10-13 0 0 4-7-3-3 0 0-11 6-11 12l1-10s2-3 2-8l-1-7 1-8v-6s4-5-1-9V85s2-17-2-14l-4-52H92v21"/>
  </g>
  <g id="g10152" fill="#0cf180" stroke="#000" stroke-miterlimit="10" stroke-width="1.3" transform="translate(-14 -17)">
    <path id="path9987" d="m90 214 2-2 1-6 3-6-2-3 2-2 2-5-1-3 2-1v-4l2-8 2-5"/>
    <path id="path9989" d="m85 207 3-2 3-8-1-2 1-3v-5l3-1-1-4 2-1v-5l3-2v-1l1-5 1-3 1-3 2-4-2-4 1-3 5 1"/>
    <path id="path10045" d="m104 166 2-4"/>
  </g>
  <g id="g10109" fill="#0cf180" stroke="#000" stroke-miterlimit="10" stroke-width="1.3" transform="translate(-14 -17)">
    <path id="path9999" d="M97 71h9"/>
    <path id="path10001" d="m98 84 10 1"/>
    <path id="path10003" d="M99 100h9"/>
    <path id="path10005" d="M99 108h9"/>
    <path id="path10007" d="M99 114h9"/>
    <path id="path10009" d="m98 122 11 1"/>
    <path id="path10011" d="M97 129h12"/>
    <path id="path10013" d="M97 137h11"/>
    <path id="path10015" d="M97 144s7 1 11-2"/>
    <path id="path10017" d="M104 143s1 6-9 4"/>
  </g>
  <g id="g10097" fill="#0cf180" stroke="#000" stroke-miterlimit="10" stroke-width="1.3" transform="translate(-14 -17)">
    <path id="path9991" d="M82 202h3l2-6 3-1"/>
    <path id="path10021" d="M94 154h7"/>
    <path id="path10023" d="m94 157 9 1"/>
    <path id="path10025" d="m93 161 8 1"/>
    <path id="path10027" d="M93 165h7"/>
    <path id="path10029" d="m92 169 7-1"/>
    <path id="path10031" d="m92 172 6 1"/>
    <path id="path10033" d="m95 176-4-1"/>
    <path id="path10035" d="m93 182-4-1"/>
    <path id="path10037" d="m91 187-3-1"/>
    <path id="path10039" d="m90 193-4-3"/>
    <path id="path10041" d="m87 196-2-1"/>
  </g>
  <g id="g10083" fill="#0cf180" stroke="#000" stroke-miterlimit="10" stroke-width="1.3" transform="translate(-14 -17)">
    <path id="path10043" d="M101 162h5"/>
    <path id="path10047" d="M98 174h3"/>
    <path id="path10049" d="m95 181 4 1"/>
    <path id="path10051" d="m94 186 3 1"/>
    <path id="path10053" d="M94 197h-3"/>
    <path id="path10055" d="m88 205 5 1"/>
  </g>
  <g id="g10075" fill="#0cf180" stroke="#000" stroke-miterlimit="10" stroke-width="1.3" transform="translate(-14 -17)">
    <path id="path10057" d="M99 182h4"/>
    <path id="path10059" d="m99 186 4 1"/>
    <path id="path10061" d="m98 190 4 2"/>
    <path id="path10063" d="m96 195 4 1"/>
    <path id="path10065" d="M96 200h4"/>
    <path id="path10067" d="m92 212 5 1"/>
  </g>
  <g id="g10423" transform="translate(-14 -17)">
    <path id="path9858" fill="#0cf180" stroke="#000" stroke-miterlimit="10" stroke-width="1.3" d="M38 44v26l1 15v14l1 7-1 1 2 5-1 3 1 3v5l2 6-2 4 2 3-1 4 1 1-1 4 3 2v3l1 1 1 2v3l-1 2 2 2-1 2 2 3v5l1 1v3l2 2-1 1 2 4 2 4 1 2 1 3v2l2 5 3 3v6h-1l-1 5-3 6 2 1 1 2-3 10s-7-3-6-11c0 0-6-3-5-10 0 0-3-4-2-10 0 0-5-3-4-11 0 0-4-5-4-13 0 0-4-3-4-8 0 0 0-6-2-10l-3-9s1-2-1-4l-1-9-2-20 3-3-1-8-4 10-2-5 4-7h2s1-3 3-2l1-15s-3-5 0-14l-2-43 10 2 1 14"/>
  </g>
  <g id="g10372" fill="#0cf180" stroke="#000" stroke-miterlimit="10" stroke-width="1.3" transform="translate(-14 -17)">
    <path id="path9993" d="M57 217h-3l-2-8-2-1-1-7-3-3 1-1-2-5-3-4 2-5-3-5v-3l-1-1-2-5-4-4 1-6s-4-4-3-11c0 0-4-5-3-13l-1-2-1-13-1-8"/>
    <path id="path9995" d="m60 211-4-3-1-8h-2l-3-5v-2l-2-2v-5l-1-4-1-1-1-3-1-4-2-4-1-2v-1l-2-4v-6l-2-4-3-5 1-2-2-5-1-8v-9l-3-4 1-4-1-3 1-6-1-4-1-3"/>
    <path id="path9997" d="m61 206-6-6-1-7-1-1-1-7"/>
    <path id="path10205" d="M25 104v-2"/>
    <path id="path10259" d="m50 193 3-1"/>
    <path id="path10261" d="m54 193 3-1"/>
  </g>
  <g id="g10323" fill="#0cf180" stroke="#000" stroke-miterlimit="10" stroke-width="1.3" transform="translate(-14 -17)">
    <path id="path10199" d="M29 71h9"/>
    <path id="path10201" d="M29 85h9"/>
    <path id="path10203" d="M28 100h11"/>
    <path id="path10209" d="M30 107h9"/>
    <path id="path10211" d="m30 116 10-1"/>
    <path id="path10217" d="m32 124 9-1"/>
    <path id="path10219" d="M32 133h9"/>
    <path id="path10225" d="m33 141 9-1"/>
    <path id="path10227" d="m35 146 7-1"/>
    <path id="path10229" d="m37 153 9-2"/>
    <path id="path10231" d="m39 157 7 1"/>
    <path id="path10235" d="m39 163 8-1"/>
    <path id="path10237" d="M41 167h8"/>
    <path id="path10243" d="M42 170h7"/>
    <path id="path10245" d="M44 174h6"/>
    <path id="path10251" d="m45 178 6-1"/>
    <path id="path10253" d="M46 181h7"/>
    <path id="path10257" d="m48 186 4-1h3"/>
  </g>
  <g id="g10286" fill="#0cf180" stroke="#000" stroke-miterlimit="10" stroke-width="1.3" transform="translate(-14 -17)">
    <path id="path10223" d="m25 135 3-2"/>
    <path id="path10239" d="m32 167 2-2"/>
    <path id="path10249" d="M36 175h5"/>
    <path id="path10271" d="m46 209 4-1"/>
    <path id="path10273" d="m44 199 2-1"/>
    <path id="path10275" d="M40 188h2"/>
    <path id="path10277" d="m51 219 3-2"/>
  </g>
  <g id="g10303" fill="#0cf180" stroke="#000" stroke-miterlimit="10" stroke-width="1.3" transform="translate(-14 -17)">
    <path id="path10207" d="m26 105 2-2"/>
    <path id="path10213" d="m29 113-2 1"/>
    <path id="path10215" d="m29 120-2-1"/>
    <path id="path10221" d="M28 133h4"/>
    <path id="path10233" d="m35 159 4-2"/>
    <path id="path10241" d="m38 169 3-2"/>
    <path id="path10247" d="m41 175 3-1"/>
    <path id="path10255" d="m44 183 2-2"/>
    <path id="path10263" d="m45 192 3-1"/>
    <path id="path10265" d="m47 197 3-2"/>
    <path id="path10267" d="m49 201 4-1"/>
    <path id="path10269" d="m52 209 4-1"/>
    <path id="path10288" d="M32 148h2"/>
  </g>
  <g id="WT" transform="translate(-14 -17)">
    <path id="path9852" fill="none" stroke="#000" stroke-miterlimit="10" stroke-width="1.3" d="M157 64c4 16-4 45-4 45-19 49-8 0-8 0 8-19 6-38 5-47l3 1s3 16 0 27l-7 27 8-26s4-16 1-28l2 1"/>
  </g>
  <g id="cpc-try" transform="translate(-14 -17)">
    <path id="path11866" fill="none" stroke="#000" stroke-miterlimit="10" stroke-width="1.3" d="M182 64c4 16-4 45-4 45-19 49-8 0-8 0 8-19 6-38 5-47l3 1s3 16 0 27l-7 27 8-26s4-16 0-28l3 1"/>
  </g>
  <g id="gl3-egl3" transform="translate(-14 -17)">
    <path id="path11876" fill="none" stroke="#000" stroke-miterlimit="10" stroke-width="1.3" d="M208 64c4 16-4 45-4 45-19 49-8 0-8 0 8-19 6-38 5-47l3 1s3 16 0 27l-7 27 8-26s4-16 0-28l3 1"/>
  </g>
  <g id="ttg" transform="translate(-14 -17)">
    <path id="path11886" fill="none" stroke="#000" stroke-miterlimit="10" stroke-width="1.3" d="M233 64c4 16-4 45-4 45-19 49-8 0-8 0 8-19 6-38 5-47l3 1s3 16 0 27l-7 27 8-26s4-16 0-28l3 1"/>
  </g>
  <g id="wer-myb23" transform="translate(-14 -17)">
    <path id="path11924" fill="none" stroke="#000" stroke-miterlimit="10" stroke-width="1.3" d="M262 64c3 16-5 45-5 45-19 49-8 0-8 0 8-19 6-38 5-47l3 1s3 16 0 27l-7 27 8-26s4-16 1-28l3 1"/>
  </g>
  <g id="cow1" transform="translate(-14 -17)">
    <path id="path11934" fill="none" stroke="#000" stroke-miterlimit="10" stroke-width="1.3" d="M286 64c4 16-4 45-4 45-19 49-8 0-8 0 8-19 6-38 5-47l3 1s3 16 0 27l-7 27 8-26s4-16 1-28l2 1"/>
  </g>
  <g id="mrh1" transform="translate(-14 -17)">
    <path id="path11944" fill="none" stroke="#000" stroke-miterlimit="10" stroke-width="1.3" d="M312 64c4 16-4 45-4 45-19 49-8 0-8 0 8-19 6-38 5-47l3 1s3 16 0 27l-7 27 8-26s4-16 0-28l3 1"/>
  </g>
  <g id="mrh2" transform="translate(-14 -17)">
    <path id="path11954" fill="none" stroke="#000" stroke-miterlimit="10" stroke-width="1.3" d="M337 64c4 16-4 45-4 45-19 49-8 0-8 0 8-19 6-38 5-47l3 1s3 16 0 27l-7 27 8-26s4-16 0-28l3 1"/>
  </g>
  <g id="mrh3" transform="translate(-14 -17)">
    <path id="path11964" fill="none" stroke="#000" stroke-miterlimit="10" stroke-width="1.3" d="M367 64c4 16-4 45-4 45-19 49-8 0-8 0 8-19 6-38 5-47l3 1s3 16 0 27l-7 27 8-26s4-16 0-28l3 1"/>
  </g>
  <g id="ire" transform="translate(-14 -17)">
    <path id="path11974" fill="none" stroke="#000" stroke-miterlimit="10" stroke-width="1.3" d="M392 64c4 16-4 45-4 45-19 49-8 0-8 0 8-19 6-38 5-47l3 1s3 16 0 27l-7 27 8-26s4-16 0-28l3 1"/>
  </g>
  <g id="bhlh66" transform="translate(-14 -17)">
    <path id="path11984" fill="none" stroke="#000" stroke-miterlimit="10" stroke-width="1.3" d="M418 64c4 16-4 45-4 45-19 49-8 0-8 0 8-19 6-38 5-47l3 1s3 16 0 27l-7 27 8-26s4-16 0-28l3 1"/>
  </g>
  <g id="myc1" transform="translate(-14 -17)">
    <path id="path11994" fill="none" stroke="#000" stroke-miterlimit="10" stroke-width="1.3" d="M443 64c4 16-4 45-4 45-19 49-8 0-8 0 8-19 6-38 5-47l3 1s3 16 0 27l-7 27 8-26s4-16 0-28l3 1"/>
  </g>
  <g id="cobl9" transform="translate(-14 -17)">
    <path id="path12004" fill="none" stroke="#000" stroke-miterlimit="10" stroke-width="1.3" d="M471 64c4 16-4 45-4 45-19 49-8 0-8 0 8-19 6-38 5-47l3 1s3 16 0 27l-7 27 8-26s4-16 1-28l2 1"/>
  </g>
  <g id="gl3" transform="translate(-14 -17)">
    <path id="path12014" fill="none" stroke="#000" stroke-miterlimit="10" stroke-width="1.3" d="M496 64c4 16-4 45-4 45-19 49-8 0-8 0 8-19 6-38 5-47l3 1s3 16 0 27l-7 27 8-26s4-16 0-28l3 1"/>
  </g>
  <g id="lrx1" transform="translate(-14 -17)">
    <path id="path12024" fill="none" stroke="#000" stroke-miterlimit="10" stroke-width="1.3" d="M522 64c4 16-4 45-4 45-19 49-8 0-8 0 8-19 6-38 5-47l3 1s3 16 0 27l-7 27 8-26s4-16 0-28l3 1"/>
  </g>
  <g id="csld3" transform="translate(-14 -17)">
    <path id="path12034" fill="none" stroke="#000" stroke-miterlimit="10" stroke-width="1.3" d="M547 64c4 16-4 45-4 45-19 49-8 0-8 0 8-19 6-38 5-47l3 1s3 16 0 27l-7 27 8-26s4-16 0-28l3 1"/>
  </g>
  <g id="gl2" transform="translate(-14 -17)">
    <path id="path12044" fill="none" stroke="#000" stroke-miterlimit="10" stroke-width="1.3" d="M578 64c4 16-4 45-4 45-19 49-8 0-8 0 8-19 6-38 5-47l3 1s3 16 0 27l-7 27 8-26s4-16 0-28l3 1"/>
  </g>
  <g id="rhd2" transform="translate(-14 -17)">
    <path id="path12054" fill="none" stroke="#000" stroke-miterlimit="10" stroke-width="1.3" d="M607 64c3 16-5 45-5 45-19 49-8 0-8 0 8-19 6-38 5-47l3 1s3 16 0 27l-7 27 8-26s4-16 1-28l3 1"/>
  </g>
  <g id="rhd6" transform="translate(-14 -17)">
    <path id="path12064" fill="none" stroke="#000" stroke-miterlimit="10" stroke-width="1.3" d="M631 64c4 16-4 45-4 45-19 49-8 0-8 0 8-19 6-38 5-47l3 1s3 16 0 27l-7 27 8-26s4-16 1-28l2 1"/>
  </g>
  <g id="cpc" transform="translate(-14 -17)">
    <path id="path12074" fill="none" stroke="#000" stroke-miterlimit="10" stroke-width="1.3" d="M657 64c4 16-4 45-4 45-19 49-8 0-8 0 8-19 6-38 5-47l3 1s3 16 0 27l-7 27 8-26s4-16 0-28l3 1"/>
  </g>
  <g id="egl3" transform="translate(-14 -17)">
    <path id="path12084" fill="none" stroke="#000" stroke-miterlimit="10" stroke-width="1.3" d="M682 64c4 16-4 45-4 45-19 49-8 0-8 0 8-19 6-38 5-47l3 1s3 16 0 27l-7 27 8-26s4-16 0-28l3 1"/>
  </g>
  <g id="myb23" transform="translate(-14 -17)">
    <path id="path12094" fill="none" stroke="#000" stroke-miterlimit="10" stroke-width="1.3" d="M712 64c4 16-4 45-4 45-19 49-8 0-8 0 8-19 6-38 5-47l3 1s3 16 0 27l-7 27 8-26s4-16 1-28l2 1"/>
  </g>
  <g id="try" transform="translate(-14 -17)">
    <path id="path12104" fill="none" stroke="#000" stroke-miterlimit="10" stroke-width="1.3" d="M737 64c4 16-4 45-4 45-19 49-8 0-8 0 8-19 6-38 5-47l3 1s3 16 0 27l-7 27 8-26s4-16 0-28l3 1"/>
  </g>
  <g id="wer" transform="translate(-14 -17)">
    <path id="path12114" fill="none" stroke="#000" stroke-miterlimit="10" stroke-width="1.3" d="M763 64c4 16-4 45-4 45-19 49-8 0-8 0 8-19 6-38 5-47l3 1s3 16 0 27l-7 27 8-26s4-16 0-28l3 1"/>
  </g>
  <g id="ttg2" transform="translate(-14 -17)">
    <path id="path12124" fill="none" stroke="#000" stroke-miterlimit="10" stroke-width="1.3" d="M788 64c4 16-4 45-4 45-19 49-8 0-8 0 8-19 6-38 5-47l3 1s3 16 0 27l-7 27 8-26s4-16 0-28l3 1"/>
  </g>
  <g id="ttg2-cpc" transform="translate(-14 -17)">
    <path id="path12134" fill="none" stroke="#000" stroke-miterlimit="10" stroke-width="1.3" d="M816 64c4 16-4 45-4 45-19 49-8 0-8 0 8-19 6-38 5-47l3 1s3 16 0 27l-7 27 8-26s4-16 1-28l2 1"/>
  </g>
  <g id="rhd6-MS" transform="translate(-14 -17)">
    <path id="path12144" fill="none" stroke="#000" stroke-miterlimit="10" stroke-width="1.3" d="M841 64c4 16-4 45-4 45-19 49-8 0-8 0 8-19 6-38 5-47l3 1s3 16 0 27l-7 27 8-26s4-16 0-28l3 1"/>
  </g>
  <g id="rhd6-IAA" transform="translate(-14 -17)">
    <path id="path12154" fill="none" stroke="#000" stroke-miterlimit="10" stroke-width="1.3" d="M867 64c4 16-4 45-4 45-19 49-8 0-8 0 8-19 6-38 5-47l3 1s3 16 0 27l-7 27 8-26s4-16 0-28l3 1"/>
  </g>
  <g id="rhd6-ACC" transform="translate(-14 -17)">
    <path id="path12164" fill="none" stroke="#000" stroke-miterlimit="10" stroke-width="1.3" d="M892 64c4 16-4 45-4 45-19 49-8 0-8 0 8-19 6-38 5-47l3 1s3 16 0 27l-7 27 8-26s4-16 0-28l3 1"/>
  </g>
  <g id="g2856" fill-rule="evenodd" stroke="#000" stroke-miterlimit="10" stroke-width=".5" transform="translate(-14 -17)">
    <path id="path2199-3" fill="#fff" d="M194 283a30 30 0 1 1-59 0 30 30 0 0 1 30-30c16 0 29 13 29 30"/>
    <path id="circle2201-4" fill="#fff594" d="M194 283a30 30 0 1 1-59 0 30 30 0 0 1 30-30c16 0 29 13 29 30"/>
    <path id="circle2203-2" fill="#fff" d="M186 283c0 11-10 21-21 21a21 21 0 0 1-15-36 21 21 0 0 1 15-6c11 0 21 9 21 21"/>
  </g>
</svg>