<svg xmlns="http://www.w3.org/2000/svg" id="RootCellsTypes" version="1.1" viewBox="0 0 262.9 538.4" author="Provart Lab - Bio Analytic Resource, University of Toronto">
  <g id="Root Stage III Lateral Root Cap" fill="none" stroke="#000" stroke-linecap="butt" stroke-linejoin="miter" stroke-opacity="1" stroke-width="1" transform="translate(-8 -62)">
    <path id="path876" d="m86 350-3-43 1-19-3-25-6-26-3-32-7-31-7-25-9-30h10l6 28 2 7 4 18 3 8 4 22 4 25v7l5 24v3l4 21-1 4 3 20v8l2 36z"/>
    <path id="path898" d="M156 119h-7l3 21 3 4 4 25 4 7 3 29 3 20 3 6 1 18 5 16-1 12 5 11 1 22 3 13 3 27h7l-3-28-5-36-4-23-5-31-5-29-6-29-8-33z"/>
    <path id="path1049" d="m58 150 7-3"/>
    <path id="path1063" d="m155 144 6-3"/>
    <path id="path1065" d="m169 174-6 2"/>
    <path id="path1077" d="m71 172-7 1"/>
    <path id="path1085" d="m72 205 6-3"/>
    <path id="path1099" d="m166 204 8-1"/>
    <path id="path1101" d="m172 231 5-1"/>
    <path id="path1115" d="m82 234-7 3"/>
    <path id="path1117" d="m81 263 6-2"/>
    <path id="path1131" d="m178 265 6-2"/>
    <path id="path1135" d="m182 288 5-3"/>
    <path id="path1139" d="M186 323h7"/>
    <path id="path1153" d="m90 286-6 2"/>
    <path id="path1155" d="m83 307 10-1"/>
  </g>
  <g id="Root Stage III Epidermal Artrichoblasts" fill="none" stroke="#000" stroke-linecap="butt" stroke-linejoin="miter" stroke-opacity="1" stroke-width="1" transform="translate(-8 -62)">
    <path id="path858" d="m105 319-2-8-1-19-1-13v-14l-4-13-2-21-3-8-6-23v-6l-3-16v-4l-5-23v-6l-7-26H59l6 28 2 7 4 18 3 8 4 22 4 25v7l5 24v3l4 21-1 4 3 20v8l2 36h11z"/>
    <path id="path900" d="m186 323-3-13-1-22-5-11 1-12-5-16-1-18-3-6-3-20-3-29-4-7-4-25-3-4-3-21h-11l6 24 3 19 3 11 3 25 3 11 1 13 1 5 7 25v11l4 15 1 18 3 15-1 13 5 26h12z"/>
    <path id="path1051" d="m67 154 11-3"/>
    <path id="path1061" d="m144 143 8-3"/>
    <path id="path1067" d="m159 169-9 4"/>
    <path id="path1079" d="m83 178-9 2"/>
    <path id="path1087" d="m86 200-8 2"/>
    <path id="path1097" d="m156 209 10-2"/>
    <path id="path1103" d="m158 227 11-2"/>
    <path id="path1113" d="m92 223-10 4"/>
    <path id="path1119" d="m87 258 10-6"/>
    <path id="path1129" d="m165 252 8-3"/>
    <path id="path1133" d="m169 278 8-1"/>
    <path id="path1141" d="m173 311 10-1"/>
    <path id="path1151" d="m101 279-10 3"/>
    <path id="path1157" d="m93 314 10-3"/>
  </g>
  <g id="Root Stage III Endodermis + Cortex" fill="none" stroke="#000" stroke-linecap="butt" stroke-linejoin="miter" stroke-opacity="1" stroke-width="1" transform="translate(-8 -62)">
    <path id="path862" d="M119 324v-7l-4-27-4-27-2-4-2-20-1-10-4-23-2-12-4-20v-3l-5-21-1-6-5-25H71l7 26v6l5 23v4l3 16v6l6 23 3 8 2 21 4 13v14l2 13v19l2 8 1 31h14z"/>
    <path id="path896" d="m172 324 1-13-3-15-1-18-4-15v-11l-7-25-1-5-1-13-3-11-3-25-3-11-3-19-6-24h-11l5 29 4 16 1 12 5 23v8l3 16v8l8 34-1 7 6 26v16l2 11v25h17z"/>
    <path id="path1055" d="m78 145 11-3"/>
    <path id="path1069" d="m147 162-11 2"/>
    <path id="path1075" d="m96 171-13 3"/>
    <path id="path1089" d="m100 193-14 1"/>
    <path id="path1095" d="m142 199 11-1"/>
    <path id="path1105" d="m145 223 12-1"/>
    <path id="path1111" d="m106 229-11 2"/>
    <path id="path1121" d="m101 265 10-2"/>
    <path id="path1127" d="m153 265 12-2"/>
    <path id="path1137" d="M157 296h13"/>
    <path id="path1143" d="m160 325 12-1"/>
    <path id="path1149" d="m102 290 13 1"/>
    <path id="path1159" d="m105 319 14-2"/>
  </g>
  <g id="Root Stage II Endodermis + Cortex" fill="none" stroke="#000" stroke-linecap="butt" stroke-linejoin="miter" stroke-opacity="1" stroke-width="1" transform="translate(-8 -62)">
    <path id="path842" d="m180 473-1-5 2-7-1-7v-10l1-4v-10l-1-3v-7l-1-7v-11l1-3v-14l-1-7 1-5-2-8v-4l-1-11h-17l2 11 1 3-1 10 1 6-1 5 3 7-1 3v15l1 6-1 10 1 2v14l1 3v5l-1 4 2 7-1 2v9l-1 5h12z"/>
    <path id="path942" d="M123 363v7l1 4 1 14 2 3-1 9v9l4 11-1 4v5l1 9v6l1 6-1 6v1l1 7-1 1-1 12h-11v-10l-1-3v-7l-2-4v-5l-1-5-1-3v-18l-2-8v-5l-1-5v-15l-3-5 1-12-2-4v-18h14z"/>
    <path id="path1332" d="m163 364 15 1"/>
    <path id="path1334" d="m179 378-16 2"/>
    <path id="path1336" d="m165 392 14-2"/>
    <path id="path1338" d="m179 402-15 2"/>
    <path id="path1340" d="m165 416 14-1"/>
    <path id="path1342" d="m180 427-15 1"/>
    <path id="path1344" d="m166 445 14-1"/>
    <path id="path1346" d="M180 450h-14"/>
    <path id="path1348" d="M167 461h14"/>
    <path id="path1350" d="m123 370-15 2"/>
    <path id="path1352" d="m110 389 15-1"/>
    <path id="path1354" d="M126 400h-16"/>
    <path id="path1356" d="M111 409h15"/>
    <path id="path1358" d="m129 424-16 3"/>
    <path id="path1360" d="m113 440 17-2"/>
    <path id="path1362" d="m131 450-16-2"/>
    <path id="path1364" d="M117 457h13"/>
    <path id="path1366" d="m130 465-12 2"/>
  </g>
  <g id="Root Stage II Epidermal Artrichoblasts" fill="none" stroke="#000" stroke-linecap="butt" stroke-linejoin="miter" stroke-opacity="1" stroke-width="1" transform="translate(-8 -62)">
    <path id="path928" d="m191 477 1-5v-11l-1-5v-7l1-3-1-4 2-5-1-6v-11l1-5-2-7 2-5-2-5 2-7-1-6 1-8-2-5 1-8-2-3-1-11h-12l1 11v4l2 8-1 5 1 7v14l-1 3v11l1 7v7l1 3v10l-1 4v10l1 7-2 7 1 5-3 4z"/>
    <path id="path934" d="m106 477 1-6v-4l-2-4-1-4 1-4-2-3v-7l-3-6 2-4-2-6v-14l-1-5v-5l-1-6v-7l-1-5-1-9v-8l-1-4v-16h11v18l2 4-1 12 3 5v15l1 5v5l2 8v18l1 3 1 5v5l2 4v7l1 3v10z"/>
    <path id="path945" d="m106 368-10 2"/>
    <path id="path947" d="m97 387 10-3"/>
    <path id="path953" d="m110 396-6-1"/>
    <path id="path955" d="m99 405 11-1"/>
    <path id="path959" d="m100 415 11-1"/>
    <path id="path963" d="m100 424 13-2"/>
    <path id="path967" d="m102 435 11-2"/>
    <path id="path979" d="m105 455 10-2"/>
    <path id="path983" d="m107 467 10-3"/>
    <path id="path989" d="M190 361h-12"/>
    <path id="path991" d="m180 373 11-1"/>
    <path id="path995" d="M192 385h-12"/>
    <path id="path999" d="m191 398-11 1"/>
    <path id="path1003" d="M191 408h-13"/>
    <path id="path1007" d="M192 420h-12"/>
    <path id="path1011" d="m192 431-11-1"/>
    <path id="path1015" d="m191 442-10-2"/>
    <path id="path1019" d="m180 450 11-1"/>
    <path id="path1021" d="m181 455 10-1"/>
    <path id="path1025" d="m191 462-8-1"/>
    <path id="path1027" d="m179 468 13-2"/>
    <path id="path1031" d="m180 473 12-1"/>
    <path id="path973" d="m114 444-11 1"/>
  </g>
  <g id="Root Stage II Lateral Root Cap" fill="none" stroke="#000" stroke-linecap="butt" stroke-linejoin="miter" stroke-opacity="1" stroke-width="1" transform="translate(-8 -62)">
    <path id="path932" d="M107 471v-4l-2-4-1-4 1-4-2-3v-7l-3-6 2-4-2-6v-14l-1-5v-5l-1-6v-7l-1-5-1-9v-8l-1-4v-16h-9l1 16v13l2 13 1 10 2 8v8l1 10 1 11 2 14v24h10z"/>
    <path id="path952" d="M192 472v-11l-1-5v-7l1-3-1-4 2-5-1-6v-11l1-5-2-7 2-5-2-5 2-7-1-6 1-8-2-5 1-8-2-3-1-11h7l1 13 2 14v13l2 12-1 12v13l-1 9v30l-1 6 1 5h-8z"/>
    <path id="path943" d="m88 367 7-2"/>
    <path id="path949" d="m88 391 10 1"/>
    <path id="path951" d="m90 401 8-2"/>
    <path id="path957" d="M99 410h-7"/>
    <path id="path961" d="M100 419h-9"/>
    <path id="path965" d="m100 429-7-1"/>
    <path id="path969" d="M100 439h-6"/>
    <path id="path975" d="m103 452-7 1"/>
    <path id="path977" d="M96 459h8"/>
    <path id="path981" d="m96 464 9-1"/>
    <path id="path985" d="m107 471-11-2"/>
    <path id="path987" d="m192 364 5-1"/>
    <path id="path993" d="M193 377h6"/>
    <path id="path997" d="m193 391 6-1"/>
    <path id="path1001" d="m193 403 8-1"/>
    <path id="path1005" d="M193 415h7"/>
    <path id="path1009" d="M192 428h8"/>
    <path id="path1013" d="m193 437 7 1"/>
    <path id="path1017" d="M192 446h8"/>
    <path id="path1023" d="m192 458 8 1"/>
    <path id="path1029" d="M199 466h-9"/>
    <path id="path1033" d="m199 474-7-2"/>
    <path id="path1273" d="m87 379 5-1"/>
  </g>
  <g id="Root Stage I Endodermis + Cortex" fill="none" stroke="#000" stroke-linecap="butt" stroke-linejoin="miter" stroke-opacity="1" stroke-width="1" transform="translate(-8 -62)">
    <path id="path908" d="M165 477v11l1 1v4l1 2-1 2 1 3v2l-1 3v10l1 3-1 2 1 3-1 3 1 2-1 2 2 3-1 2v14l-2 3-1 4-6 8-5 3 3 4h2l2-1 1-1 3-3 3-5 2-3 2-5v-3l2-6v-5l1-4-1-1 2-2-1-3 2-3-1-2 1-2-1-1 2-5v-11l-1-2 1-3v-14l1-3-1-6z"/>
    <path id="path966" d="m144 568-4-3-3-5-2-5-1-3 1-2-1-3v-2l-1-3v-14l-1-1v-11l-1-3 1-2-1-3 1-4-1-2v-13l-1-3 1-2-2-2v-5h-11v8l1 6-1 4v3l2 4v10l1 6 1 4-1 1 2 5-1 3 2 2-1 2 1 2v1l2 4v4l2 3v3l1 2-1 2 3 3 1 3 1 1 1 1 2 4 1 1 1 4z"/>
    <path id="path1180" d="m129 482-11-2"/>
    <path id="path1521" d="M119 486h11m1 6-12-1"/>
    <path id="path1523" d="m119 495 12 2"/>
    <path id="path1525" d="M120 503h11"/>
    <path id="path1527" d="M131 507h-11"/>
    <path id="path1529" d="m120 511 11 2"/>
    <path id="path1531" d="M132 518h-11"/>
    <path id="path1533" d="M121 521h11"/>
    <path id="path1535" d="m132 526-10 1"/>
    <path id="path1537" d="m124 532 8 1"/>
    <path id="path1539" d="m133 536-8 1"/>
    <path id="path1541" d="m126 543 8-1"/>
    <path id="path1543" d="m133 547-5 2"/>
    <path id="path1545" d="m129 554 5-2"/>
    <path id="path1547" d="m135 555-5 4"/>
    <path id="path1549" d="m132 562 4-2"/>
    <path id="path1551" d="m138 563-3 1"/>
    <path id="path1553" d="m136 568 5-2"/>
    <path id="path1555" d="m159 570-3-4"/>
    <path id="path1557" d="m160 563 4 3"/>
    <path id="path1559" d="m170 553-3-5"/>
    <path id="path1561" d="m168 539 5 1"/>
    <path id="path1563" d="m173 535-5-3"/>
    <path id="path1565" d="m167 528 7 1"/>
    <path id="path1567" d="m174 524-7-1"/>
    <path id="path1569" d="m167 517 8 4"/>
    <path id="path1571" d="m176 514-9-3"/>
    <path id="path1573" d="m167 505 9 2"/>
    <path id="path1575" d="m176 503-9-2"/>
    <path id="path1577" d="m168 495 9 1"/>
    <path id="path1579" d="m176 491-10-2"/>
    <path id="path1581" d="m166 484 10 2"/>
  </g>
  <g id="Root Stage I Epidermal Artrichoblasts" fill="none" stroke="#000" stroke-linecap="butt" stroke-linejoin="miter" stroke-opacity="1" stroke-width="1" transform="translate(-8 -62)">
    <path id="path980" d="M118 480v5l1 6-1 4v3l2 4v10l1 6 1 4-1 1 2 5-1 3 2 2-1 2 1 2v1l2 4v4l2 3v3l1 2-1 2 3 3 1 3 1 1 1 1 2 4 1 1 1 4-3 8-5-4v-2l-3-4-3-3-1-4-3-5-2-5-1-4-1-5-2-5-1-4-1-4v-7l-2-5v-2l-1-4v-12l-1-3v-4l-1-5 1-4-1-1 1-3-2-5h12z"/>
    <path id="path906" d="m177 477 1 6-1 3v14l-1 3 1 2v11l-2 5 1 1-1 2 1 2-2 3 1 3-2 2 1 1-1 4v5l-2 6v3l-2 5-2 3-3 5-3 3-1 1-2 1h-2l1 11 5-2 1-1 3-4 5-2v-2l2-4 4-5-1-1 2-3 1-4 2-8 1-2 1-7 2-5v-10l2-4v-12l2-3v-2l-1-1 2-3v-13l1-7z"/>
    <path id="path1178" d="m108 482 10-2"/>
    <path id="path1693" d="m107 485 11-1"/>
    <path id="path1695" d="m118 489-10 1"/>
    <path id="path1697" d="m109 495 9-1"/>
    <path id="path1699" d="m118 499-9-1"/>
    <path id="path1701" d="m109 501 10 1"/>
    <path id="path1703" d="M120 507h-10"/>
    <path id="path1705" d="m110 514 10-2"/>
    <path id="path1707" d="m120 517-10 2"/>
    <path id="path1709" d="m112 525 9-2"/>
    <path id="path1711" d="m123 531-10 1"/>
    <path id="path1713" d="M113 535h10"/>
    <path id="path1715" d="m114 540 11-2"/>
    <path id="path1717" d="m116 545 9-3"/>
    <path id="path1719" d="m117 549 10-3"/>
    <path id="path1721" d="m118 555 10-4"/>
    <path id="path1723" d="m121 559 8-4"/>
    <path id="path1725" d="m123 565 8-6"/>
    <path id="path1727" d="m126 570 6-6"/>
    <path id="path1729" d="m130 576 6-7"/>
    <path id="path1731" d="m162 580-5-9"/>
    <path id="path1733" d="m167 575-7-5"/>
    <path id="path1735" d="m170 572-6-6"/>
    <path id="path1737" d="m174 566-7-3"/>
    <path id="path1739" d="m175 562-6-4"/>
    <path id="path1741" d="m177 557-6-3"/>
    <path id="path1743" d="m179 552-8-2"/>
    <path id="path1745" d="m181 547-8-2"/>
    <path id="path1747" d="m182 542-8-2"/>
    <path id="path1749" d="m183 537-9-2"/>
    <path id="path1751" d="M185 532h-9"/>
    <path id="path1753" d="M184 527h-8"/>
    <path id="path1755" d="M184 522h-7"/>
    <path id="path1757" d="m186 515-9 2"/>
    <path id="path1759" d="m188 509-11 2"/>
    <path id="path1761" d="m186 505-8 1"/>
    <path id="path1763" d="M188 500h-11"/>
    <path id="path1765" d="m189 493-11 2"/>
    <path id="path1767" d="m190 488-13 2"/>
    <path id="path1769" d="m190 483-12 1"/>
  </g>
  <g id="Root Stage I Lateral Root Cap" fill="none" stroke="#000" stroke-linecap="butt" stroke-linejoin="miter" stroke-opacity="1" stroke-width="1" transform="translate(-8 -62)">
    <path id="path976" d="M130 577v-2l-3-4-3-3-1-4-3-5-2-5-1-4-1-5-2-5-1-4-1-4v-7l-2-5v-2l-1-4v-12l-1-3v-4l-1-5 1-4-1-1 1-3-2-5H96l1 5v7l2 9v7l1 8 1 8 2 11 3 22 4 15 8 13 6 8 11 6v-15z"/>
    <path id="path1000" d="M199 477h-8l-1 7v13l-2 3 1 1v2l-2 3v12l-2 4v10l-2 5-1 7-1 2-2 8-1 4-2 3 1 1-4 5-2 4v2l-5 2-3 4-1 1-5 2 1 13 10-3 9-9 7-11 3-10 4-15 1-11 3-9v-7l1-8 1-7v-10l1-7z"/>
    <path id="path1176" d="m97 483 10 2"/>
    <path id="path1817" d="m97 490 11-1"/>
    <path id="path1819" d="m99 498 9-2"/>
    <path id="path1821" d="m99 506 10-1"/>
    <path id="path1823" d="m101 514 8-2"/>
    <path id="path1825" d="m101 521 8-1"/>
    <path id="path1827" d="m103 532 9-2"/>
    <path id="path1829" d="m105 550 10-6"/>
    <path id="path1831" d="m110 570 8-17"/>
    <path id="path1833" d="m117 582 7-15"/>
    <path id="path1835" d="m126 590 5-14"/>
    <path id="path1837" d="m168 590-5-12"/>
    <path id="path1839" d="m177 583-7-10"/>
    <path id="path1841" d="m184 572-9-10"/>
    <path id="path1843" d="m186 561-6-8"/>
    <path id="path1845" d="m190 549-7-5"/>
    <path id="path1847" d="m192 535-7-4"/>
    <path id="path1849" d="m194 526-8-3"/>
    <path id="path1851" d="m193 519-6-2"/>
    <path id="path1853" d="m196 511-8 1"/>
    <path id="path1855" d="M197 503h-8"/>
    <path id="path1857" d="M197 497h-7"/>
    <path id="path1859" d="m197 487-7-1"/>
  </g>
  <g id="g1919" fill="none" stroke="#000" stroke-linecap="butt" stroke-linejoin="miter" stroke-opacity="1" stroke-width="1" transform="translate(-8 -62)">
    <path id="path1890" d="M135 596s8 3 23-1"/>
    <path id="path1892" d="m135 590 8-2 1 2 7-2 2-2 5 3"/>
    <path id="path1894" d="m151 588 1 9"/>
    <path id="path1896" d="m144 590 2 7"/>
    <path id="path1898" d="m143 588 1-10h6l3-11-3 1-2-5"/>
    <path id="path1900" d="m150 568-3 1-4-1"/>
    <path id="path1902" d="m135 581 9-3"/>
    <path id="path1906" d="m144 578 3-9"/>
    <path id="path1908" d="m150 578 3 8"/>
  </g>
  <g id="Root Quiescent Center" fill="none" stroke="#000" stroke-linecap="butt" stroke-linejoin="miter" stroke-opacity="1" stroke-width="1.4" transform="translate(-8 -62)">
    <path id="path3721" d="m61 528 4 7-7 4-5 1-4 2-4-2 3-8 4 2z"/>
    <path id="path2225" d="m53 540-1-6"/>
  </g>
  <g id="g3976" fill="none" stroke="#000" stroke-linecap="butt" stroke-linejoin="miter" stroke-opacity="1" stroke-width="1.4" transform="translate(-8 -62)">
    <path id="path3853" d="m52 534-4-2"/>
    <path id="path3851" d="m48 532-3 8"/>
    <path id="path3849" d="m45 540-5-5"/>
    <path id="path3847" d="m40 535-5-6"/>
    <path id="path3845" d="m35 529-1-7"/>
    <path id="path3843" d="m34 522-2-4"/>
    <path id="path3725" d="m74 523-9 12"/>
    <path id="path1921" d="m65 535-4-7"/>
    <path id="path3713" d="m45 540-5-5"/>
    <path id="path3711" d="m40 535-5-6"/>
    <path id="path3709" d="m35 529-1-7"/>
    <path id="path3707" d="m34 522-2-4"/>
    <path id="path1923" d="m74 523-9 12"/>
    <path id="path1925" d="m42 519 6 13"/>
    <path id="path1927" d="m63 519-2 9"/>
    <path id="path1963" d="m43 519-5 1"/>
    <path id="path1965" d="m44 524-9 5"/>
    <path id="path1967" d="m45 530-5 5"/>
    <path id="path1969" d="m63 518 11 5"/>
    <path id="path3517" d="m74 523-9 12"/>
    <path id="path3513" d="m58 539 4 5"/>
    <path id="path3511" d="M62 544h3"/>
    <path id="path3509" d="m65 544 2-2"/>
    <path id="path3507" d="m67 542 2-1"/>
    <path id="path3505" d="m69 541 4-4"/>
    <path id="path3503" d="m73 537 5-6"/>
    <path id="path3445" d="m45 540-5-5"/>
    <path id="path3443" d="m40 535-5-6"/>
    <path id="path3441" d="m35 529-1-7"/>
    <path id="path3439" d="m34 522-2-4"/>
    <path id="path3333" d="m24 523 3 4"/>
    <path id="path3331" d="m27 527 1 4"/>
    <path id="path3329" d="m28 531 2 2"/>
    <path id="path3327" d="m30 533 2 1"/>
    <path id="path3325" d="m32 534 2 5"/>
    <path id="path3323" d="m34 539 2 2"/>
    <path id="path3321" d="m36 541 1 6"/>
    <path id="path2011" d="m37 547 8-7"/>
    <path id="path2041" d="m33 522-6 5"/>
    <path id="path2043" d="m29 532 6-4"/>
    <path id="path2045" d="m38 532-6 3"/>
    <path id="path2047" d="m35 540 6-3"/>
    <path id="path2049" d="m67 542-4-4"/>
    <path id="path2051" d="m68 533 6 4"/>
    <path id="path3257" d="m24 523 3 4"/>
    <path id="path3255" d="m27 527 1 4"/>
    <path id="path3253" d="m28 531 2 2"/>
    <path id="path3251" d="m30 533 2 1"/>
    <path id="path3249" d="m32 534 2 5"/>
    <path id="path3247" d="m34 539 2 2"/>
    <path id="path3245" d="m36 541 1 6"/>
    <path id="path3243" d="m37 547-4 10"/>
    <path id="path3241" d="m33 557-6-5"/>
    <path id="path3239" d="m27 552-1-3"/>
    <path id="path3237" d="m26 549-5-5"/>
    <path id="path3127" d="m78 531-5 6"/>
    <path id="path3125" d="m73 537-4 4"/>
    <path id="path3123" d="m69 541-2 1"/>
    <path id="path3121" d="m67 542-2 2"/>
    <path id="path3119" d="M65 544h-3"/>
    <path id="path3117" d="m62 544 2 15"/>
    <path id="path3115" d="m64 559 6-3"/>
    <path id="path3113" d="M70 556h2"/>
    <path id="path3111" d="m72 556 4-6"/>
    <path id="path3109" d="m76 550 7-4"/>
    <path id="path3107" d="M83 546v-3"/>
    <path id="path3105" d="m83 543 2-5"/>
    <path id="path3103" d="m85 538 6-6"/>
    <path id="path2117" d="m17 536 11-9"/>
    <path id="path2119" d="m20 543 10-8"/>
    <path id="path2121" d="m27 552 7-11"/>
    <path id="path2123" d="m70 556-7-12"/>
    <path id="path2125" d="m77 549-9-7"/>
    <path id="path2127" d="m82 545-8-8"/>
    <path id="path2129" d="m87 537-10-4"/>
    <path id="path3029" d="m27 552-1-3"/>
    <path id="path3027" d="m26 549-5-5"/>
    <path id="path2951" d="m18 570 15 9"/>
    <path id="path2949" d="M33 579v-22"/>
    <path id="path2165" d="m33 557-6-5"/>
    <path id="path2897" d="m91 532-6 6"/>
    <path id="path2895" d="m85 538-2 5"/>
    <path id="path2893" d="M83 543v3"/>
    <path id="path2891" d="m83 546-7 4"/>
    <path id="path2889" d="m76 550-4 6"/>
    <path id="path2887" d="M72 556h-2"/>
    <path id="path2885" d="m70 556-6 3"/>
    <path id="path2883" d="m64 559 1 19"/>
    <path id="path2881" d="m65 578 13-6"/>
    <path id="path2879" d="m78 572 13-12"/>
    <path id="path2189" d="m21 571 6-19"/>
    <path id="path2191" d="m79 571-7-17"/>
    <path id="path2193" d="m91 560-9-14"/>
    <path id="path2217" d="M33 579s11 4 32-1"/>
    <path id="path2839" d="m33 570 11-2"/>
    <path id="path2837" d="m44 568 2 3"/>
    <path id="path2835" d="m46 571 9-3"/>
    <path id="path2833" d="m55 568 3-3"/>
    <path id="path2219" d="m58 565 6 4"/>
    <path id="path2221" d="m55 568 2 12"/>
    <path id="path2223" d="m46 570 2 11"/>
    <path id="path2825" d="m44 568 1-15"/>
    <path id="path2823" d="m45 553 8 1"/>
    <path id="path2821" d="m53 554 5-15"/>
    <path id="path2229" d="m33 557 12-4"/>
    <path id="path2231" d="m45 553 4-11"/>
    <path id="path2233" d="m53 554 5 11"/>
  </g>
  <text xml:space="preserve" id="text3980" x="87.9" y="8.5" fill="#000" fill-opacity="1" stroke="none" stroke-width="1" font-family="Arial" font-size="8" font-stretch="normal" font-style="normal" font-variant="normal" font-weight="400" letter-spacing="0" style="line-height:1.4;-inkscape-font-specification:Arial;text-align:start" text-anchor="start" word-spacing="0"><tspan id="tspan3978" x="87.9" y="8.5" stroke-width="1">Lateral Root Cap (I,II) and Epidermis (II,III) </tspan><tspan id="tspan3982" x="87.9" y="19.7" stroke-width="1">Epidermal Artichoblasts </tspan><tspan id="tspan3984" x="87.9" y="30.9" stroke-width="1">Endodermis + Cortex </tspan><tspan id="tspan3986" x="87.9" y="42.1" stroke-width="1">Endodermis </tspan><tspan id="tspan3988" x="87.9" y="53.3" stroke-width="1">Stele</tspan></text>
  <g id="Root Stage III Endodermis" fill="none" stroke="#000" stroke-linecap="butt" stroke-linejoin="miter" stroke-opacity="1" stroke-width="1" transform="translate(77 -46)">
    <path id="path4064" d="m1 104 4 25 1 6 5 21 1 3 3 19 2 12 4 23 2 10 1 21 2 4 4 27 4 27v6l2 27h10l-3-28-4-34-6-30-3-21-6-34-5-29-5-25-6-31z"/>
    <path id="path4008" d="M6 134h8"/>
    <path id="path4010" d="m40 133 7-1"/>
    <path id="path4012" d="m52 161-7-1"/>
    <path id="path4014" d="M19 159h-7"/>
    <path id="path4018" d="m65 297-5-41-7-38-3-26-5-32-5-27-6-29h8l5 28 4 16 1 13 5 23v7l4 17v7l8 34-2 8 6 26v15l2 11v26h-7z"/>
    <path id="path4020" d="m24 189-7 1"/>
    <path id="path4022" d="m50 192 7-1"/>
    <path id="path4024" d="m53 218 8-3"/>
    <path id="path4026" d="m31 222-8 1"/>
    <path id="path4028" d="m24 244 8-3"/>
    <path id="path4030" d="m60 256 7 1"/>
    <path id="path4032" d="m65 297 8 1"/>
    <path id="path4034" d="M30 273h9"/>
    <path id="path4036" d="m34 308 9-2"/>
  </g>
  <g id="Root Stage III Stele" transform="translate(77 -46)">
    <path id="path4070" fill="none" stroke="#000" stroke-linecap="butt" stroke-linejoin="miter" stroke-opacity="1" stroke-width="1" d="m65 297-5-41-7-38-3-26-5-32-5-27-6-29-26-1 6 31 5 25 5 29 6 34 3 21 6 30 4 34 3 28h22z"/>
  </g>
  <g id="Root Stage I Stele" transform="translate(101 -4)">
    <path id="path4358" fill="none" stroke="#000" stroke-linecap="butt" stroke-linejoin="miter" stroke-opacity="1" stroke-width="1" d="M50 420s2 65-3 82l-7 4-3-1c-10-9-7-85-7-85z"/>
  </g>
  <g id="Root Stage I Endodermis" fill="none" stroke="#000" stroke-linecap="butt" stroke-linejoin="miter" stroke-opacity="1" stroke-width="1" transform="translate(101 -4)">
    <path id="path4364" d="m50 506-3-5"/>
    <path id="path4360" d="m35 510-3-3-4-5-1-5-1-3v-2l-1-3v-7l-1-3v-9l-1-1 1-3v-2l-1-4v-2l-1-3 1-2-1-3 1-3-1-3v-5l1-2-1-3v-8l-2-2v-5l11 1s-4 76 6 85z"/>
    <path id="path4098" d="M47 501c5-17 3-82 3-82h6v8l1 3v5l2 3-1 1v5l-1 3v5l1 5v8l-1 3 1 2v2l1 3-1 2v14l-1 3-1 4-6 8"/>
    <path id="path4100" d="m30 425-10-1"/>
    <path id="path4102" d="m30 428-8-2"/>
    <path id="path4104" d="m30 432-8-1"/>
    <path id="path4106" d="M23 437Z"/>
    <path id="path4108" d="M30 437h-7"/>
    <path id="path4110" d="M30 442h-8"/>
    <path id="path4112" d="M30 447h-7"/>
    <path id="path4114" d="m30 452-7 1"/>
    <path id="path4116" d="m30 456-7 2"/>
    <path id="path4118" d="m30 462-6 1"/>
    <path id="path4120" d="m30 465-6 1"/>
    <path id="path4122" d="m30 471-6-1"/>
    <path id="path4124" d="m30 474-6-1"/>
    <path id="path4126" d="m30 477-6-1"/>
    <path id="path4128" d="M30 482h-5"/>
    <path id="path4130" d="M32 487h-7"/>
    <path id="path4132" d="m33 491-7 1"/>
    <path id="path4134" d="m33 495-3 1"/>
    <path id="path4136" d="m34 498-6 4"/>
    <path id="path4138" d="m35 503-3 4"/>
    <path id="path4140" d="m48 494 8 4"/>
    <path id="path4142" d="m49 490 8 4"/>
    <path id="path4144" d="m58 489-9-1"/>
    <path id="path4146" d="m58 486-8-1"/>
    <path id="path4148" d="m58 482-8-1"/>
    <path id="path4150" d="m58 477-8 1"/>
    <path id="path4152" d="M58 472h-7"/>
    <path id="path4154" d="M57 468h-7"/>
    <path id="path4156" d="m58 465-7 1"/>
    <path id="path4158" d="M58 462h-8"/>
    <path id="path4160" d="M58 457h-7"/>
    <path id="path4162" d="m57 452-6-1"/>
    <path id="path4164" d="m57 449-6-2"/>
    <path id="path4166" d="M57 444h-6"/>
    <path id="path4168" d="M58 439h-7"/>
    <path id="path4170" d="m57 435-7 1"/>
    <path id="path4172" d="m57 430-7 1"/>
    <path id="path4174" d="m56 427-6 1"/>
    <path id="path4176" d="m56 422-6 1"/>
  </g>
  <g id="Root Stage II Endodermis" fill="none" stroke="#000" stroke-linecap="butt" stroke-linejoin="miter" stroke-opacity="1" stroke-width="1" transform="translate(152 -3)">
    <path id="path4234" d="M-20 419h-11l1-12 1-2-1-6 1-2v-6l-1-5v-6l-1-10v-4l1-4-3-11v-19l-2-2-1-14-1-4v-8l-2-12h10"/>
    <path id="path4230" d="M-7 292h7l2 11 1 3-1 10 2 6-2 5 3 6-1 4v14l1 6v12l1 15 1 2-1 6-1 3 2 8-1 2v8l-1 6h-6"/>
    <path id="path4182" d="m-29 292 1 11 1 11 1 18 1 8v12l2 10 1 8-1 14 1 11v11l1 12"/>
    <path id="path4184" d="m-6 292 1 10v11l1 13-1 10 1 15v12l1 7 2 14v35"/>
    <path id="path4186" d="M-37 304h8"/>
    <path id="path4188" d="m-36 316 9-2"/>
    <path id="path4190" d="M-33 332h7"/>
    <path id="path4192" d="m-33 341 8-1"/>
    <path id="path4194" d="m-33 351 8 1"/>
    <path id="path4196" d="M-30 362h8"/>
    <path id="path4198" d="M-31 370h9"/>
    <path id="path4200" d="m-30 386 7-2"/>
    <path id="path4202" d="m-29 397 7-2"/>
    <path id="path4204" d="m-29 405 7 1"/>
    <path id="path4206" d="M-1 413h7"/>
    <path id="path4208" d="m-1 406 7-1"/>
    <path id="path4210" d="m-2 394 7 1"/>
    <path id="path4212" d="M-1 384h7"/>
    <path id="path4214" d="M-3 369h8"/>
    <path id="path4216" d="M-4 351h8"/>
    <path id="path4218" d="m-5 336 9 1"/>
    <path id="path4220" d="m-4 326 6 1"/>
    <path id="path4222" d="m-5 313 7 3"/>
    <path id="path4224" d="m-5 302 7 1"/>
  </g>
  <g id="Root Stage II Stele" transform="translate(152 -3)">
    <path id="path4268" fill="none" stroke="#000" stroke-linecap="butt" stroke-linejoin="miter" stroke-opacity="1" stroke-width="1" d="M-22 406v-11l-1-11 1-14-1-8-2-10v-12l-1-8-1-18-1-11-1-11h22l2 10v11l1 13-1 10 1 15v12l1 7 2 14v35l-20-1z"/>
  </g>
  <path id="path4507" fill="none" stroke="#000" stroke-linecap="butt" stroke-linejoin="miter" stroke-opacity="1" stroke-width="1" d="M85 5H45v49"/>
  <path id="path4509" fill="none" stroke="#000" stroke-linecap="butt" stroke-linejoin="miter" stroke-opacity="1" stroke-width="1" d="M85 17H59v38"/>
  <path id="path4511" fill="none" stroke="#000" stroke-linecap="butt" stroke-linejoin="miter" stroke-opacity="1" stroke-width="1" d="M86 27H70v28"/>
  <path id="path4513" fill="none" stroke="#000" stroke-linecap="butt" stroke-linejoin="miter" stroke-opacity="1" stroke-width="1" d="M86 39h-5v15"/>
  <text xml:space="preserve" id="text4517" x="182.8" y="147.1" fill="#000" fill-opacity="1" stroke="none" stroke-width="1" font-family="Arial" font-size="16" font-stretch="normal" font-style="normal" font-variant="normal" font-weight="400" letter-spacing="0" style="line-height:1.25;-inkscape-font-specification:Arial;text-align:start" text-anchor="start" word-spacing="0"><tspan id="tspan4515" x="182.8" y="147.1" stroke-width="1">Stage III</tspan></text>
  <text xml:space="preserve" id="text4521" x="207.8" y="351.1" fill="#000" fill-opacity="1" stroke="none" stroke-width="1" font-family="Arial" font-size="16" font-stretch="normal" font-style="normal" font-variant="normal" font-weight="400" letter-spacing="0" style="line-height:1.25;-inkscape-font-specification:Arial;text-align:start" text-anchor="start" word-spacing="0"><tspan id="tspan4519" x="207.8" y="351.1" stroke-width="1">Stage II</tspan></text>
  <text xml:space="preserve" id="text4525" x="201.8" y="471.1" fill="#000" fill-opacity="1" stroke="none" stroke-width="1" font-family="Arial" font-size="16" font-stretch="normal" font-style="normal" font-variant="normal" font-weight="400" letter-spacing="0" style="line-height:1.25;-inkscape-font-specification:Arial;text-align:start" text-anchor="start" word-spacing="0"><tspan id="tspan4523" x="201.8" y="471.1" stroke-width="1">Stage I</tspan></text>
  <path id="rect4527" fill="gray" fill-opacity="1" fill-rule="evenodd" stroke="none" stroke-dasharray="none" stroke-dashoffset="0" stroke-linecap="butt" stroke-linejoin="miter" stroke-miterlimit="4" stroke-opacity="1" stroke-width="1" d="M14 338h40v30H14z" opacity="1" vector-effect="none"/>
  <text xml:space="preserve" id="text4532" x="16.3" y="348.6" fill="#fff" fill-opacity="1" stroke="none" stroke-width="1" font-family="Arial" font-size="12" font-stretch="normal" font-style="normal" font-variant="normal" font-weight="400" letter-spacing="0" style="line-height:1.25;-inkscape-font-specification:Arial;text-align:start" text-anchor="start" word-spacing="0"><tspan id="tspan4530" x="16.3" y="348.6" stroke-width="1">Proto-</tspan><tspan id="tspan4534" x="16.3" y="363.6" stroke-width="1">alert!</tspan>   </text>
  <text xml:space="preserve" id="text4538" x=".8" y="446.1" fill="#000" fill-opacity="1" stroke="none" stroke-width="1" font-family="Arial" font-size="10.7" font-stretch="normal" font-style="normal" font-variant="normal" font-weight="400" letter-spacing="0" style="line-height:1.25;-inkscape-font-specification:Arial;text-align:start" text-anchor="start" word-spacing="0"><tspan id="tspan4536" x=".8" y="446.1" stroke-width="1">Quiescent center</tspan></text>
</svg>