<svg xmlns="http://www.w3.org/2000/svg" version="1.1" id="RootCellsTypes" width="260.268" height="533.085"><g id="Root Stage III Lateral Root Cap" transform="translate(-9.06 -64.56)" fill="none" stroke="#000" stroke-width="1" stroke-linecap="butt" stroke-linejoin="miter" stroke-opacity="1"><path d="M86.35 350.016l-2.966-42.846.989-18.786-3.296-25.048-5.603-26.696-3.296-31.97-6.92-30.65-7.252-25.05-9.063-29.826h9.887l5.768 28.179 2.637 6.921 3.625 17.468 2.966 8.24 4.285 22.411 4.284 25.048v6.262l4.615 24.06.33 2.966 3.625 21.752-.66 3.296 2.967 20.105v8.24l1.318 35.924z" id="path876"/><path id="path898" d="M155.892 119.144h-6.756L151.5 140l3.5 3.75 3.5 25.25 4 7.25 3.75 28.5 2.75 20.5 3 5.25 1.25 18.5 4.25 16-.25 12 4.5 10.5 1 22 3.25 13.25 2.52 27.266h7.581L192.5 322.25l-5-36.5-4-23-4.5-30.5-5.25-29.25-6.25-28.75-7.25-33.5z"/><path id="path1049" d="M58.25 150l6.348-2.677"/><path id="path1063" d="M155 143.75l5.5-2.75"/><path id="path1065" d="M168.5 174l-6 2.25"/><path id="path1077" d="M70.86 171.712l-6.36 1.538"/><path id="path1085" d="M72.178 204.67L77.75 202"/><path id="path1099" d="M166 204l7.75-1.5"/><path id="path1101" d="M172 230.5l5.25-.25"/><path id="path1115" d="M82.395 233.673l-6.92 2.967"/><path id="path1117" d="M81.077 263.336l5.673-2.586"/><path id="path1131" d="M177.5 265l6.75-2.25"/><path id="path1135" d="M181.75 287.5l4.75-2.75"/><path id="path1139" d="M186 322.75h6.5"/><path id="path1153" d="M90.305 285.747l-5.932 2.637"/><path id="path1155" d="M83.384 307.17l9.888-1.318"/></g><g id="Root Stage III Epidermal Artrichoblasts" transform="translate(-9.06 -64.56)" fill="none" stroke="#000" stroke-width="1" stroke-linecap="butt" stroke-linejoin="miter" stroke-opacity="1"><path id="path858" d="M105.466 319.365l-1.977-7.91-.99-19.775-1.317-12.195-.66-14.831-3.295-12.195-2.637-21.422-2.966-7.58-5.274-23.73v-5.274l-3.625-16.809v-3.954l-4.944-22.742v-6.262l-7.086-25.542H58.83l5.768 28.179 2.637 6.921 3.625 17.468 2.966 8.24 4.285 22.411 4.284 25.048v6.262l4.615 24.06.33 2.966 3.625 21.752-.66 3.296 2.967 20.105v8.24l1.318 35.924h11.535z"/><path d="M186 322.75l-3.25-13.25-1-22-4.5-10.5.25-12-4.25-16-1.25-18.5-3-5.25-2.75-20.5-3.75-28.5-4-7.25-3.5-25.25-3.5-3.75-2.364-20.856H137.6l6.15 24.106 3 18.5 2.75 11 3.75 24.75 2.5 11.5.75 12.75 1.5 5.5 7 24.25.25 11.75 3.75 14.5.5 18.25 3.75 14.75-1 13.25 4.406 26.016h11.865z" id="path900"/><path id="path1051" d="M67.235 154.244l10.546-3.296"/><path id="path1061" d="M143.75 143.25l7.75-3.25"/><path id="path1067" d="M158.5 169l-9 3.75"/><path id="path1079" d="M82.725 177.644l-8.899 2.308"/><path id="path1087" d="M86.35 199.726L77.75 202"/><path id="path1097" d="M155.75 209l10.5-2"/><path id="path1103" d="M158 227l11-1.75"/><path id="path1113" d="M91.624 223.456l-9.229 3.955"/><path id="path1119" d="M87.01 257.733l10.217-5.274"/><path id="path1129" d="M165 251.5l8.25-2.5"/><path id="path1133" d="M169 277.75l8.25-.75"/><path id="path1141" d="M173.25 310.75l9.5-1.25"/><path id="path1151" d="M101.182 279.485l-10.217 2.966"/><path id="path1157" d="M92.75 313.75l10.739-2.295"/></g><g id="Root Stage III Endodermis + Cortex" transform="translate(-9.06 -64.56)" fill="none" stroke="#000" stroke-width="1" stroke-linecap="butt" stroke-linejoin="miter" stroke-opacity="1"><path id="path862" d="M118.979 323.979l-.33-6.922-3.955-26.696-3.955-27.025-1.648-4.285-1.647-20.104-1.648-10.217-3.955-23.071-1.978-11.865-3.625-19.775-.33-2.966-4.943-20.764-1.319-5.932-4.45-25.213h-14.5l7.085 25.542v6.262l4.944 22.742v3.954l3.625 16.81v5.272l5.274 23.73 2.966 7.58 2.637 21.423 3.295 12.195.66 14.831 1.318 12.195.989 19.775 1.977 7.91.66 30.65h14.171z"/><path d="M172.25 324l1-13.25L169.5 296l-.5-18.25-3.75-14.5-.25-11.75-7-24.25-1.5-5.5-.75-12.75-2.5-11.5-3.75-24.75-2.75-11-3-18.5-6.15-24.106h-11.04l4.94 28.356 4.5 16.25.75 12.5 5 22.75.25 7.75 3.25 16.5v7.25l8 34-1.25 7.75 5.5 26v15.5l2.25 10.75-.233 25.516h17.139z" id="path896"/><path id="path1055" d="M77.781 144.686L89.25 141.5"/><path id="path1069" d="M146.75 161.75l-10.75 2"/><path id="path1075" d="M95.908 171.053l-13.183 2.637"/><path id="path1089" d="M99.75 193l-13.4 1.453"/><path id="path1095" d="M141.75 199l11.5-1.5"/><path id="path1105" d="M145.25 223.25l11.25-1.5"/><path id="path1111" d="M105.5 229.25l-10.91 1.787"/><path id="path1121" d="M100.522 264.654l10.217-1.318"/><path id="path1127" d="M153.25 264.5l12-1.25"/><path id="path1137" d="M157.25 295.75l12.25.25"/><path id="path1143" d="M159.75 324.5l12.5-.5"/><path id="path1149" d="M102 290.25l12.75.5"/><path id="path1159" d="M105.466 319.365l13.183-2.308"/></g><g id="Root Stage II Endodermis + Cortex" transform="translate(-9.06 -64.56)" fill="none" stroke="#000" stroke-width="1" stroke-linecap="butt" stroke-linejoin="miter" stroke-opacity="1"><path id="path842" d="M179.5 473l-.25-5.5 1.25-6.25-.25-7.25-.25-3.75.25-6.25.5-3.75V429.5l-.5-2.25V420l-1.25-7.5-.5-2.75.25-7.75.75-3.5V385l-1-7 1.5-5.25-2.25-8.25v-4l-1.094-10.484h-17.139L161.5 361l1 3.25-.75 10 1.5 6L162 385l3 6.75-1.25 3.25.25 9.25v5.25l1 6.25-.75 10 .25 2 .75 14.5 1 2.25-.5 5.75-.75 3.25 1.5 7.75-.5 2-.5 8.5-.75 5.5h12z"/><path d="M123 362.5l-.25 7.75 1 3.75 1 14.25 2.25 2.25-.75 9v9.75l3.25 11-1 4v4.5l1.25 9.25v6l.75 5.5-.25 6-.25 1.75 1 6.5-1.25 1.25-1.25 12.25h-10.75L117.5 467l-.75-3.5.25-6.5-1.75-4v-4.75l-1.5-5.25-1-3 .25-6.25.25-9-.75-2.5-1.75-8.75v-4.75l-.75-5.25.25-4-.75-4v-6.75l-2.25-4.5.75-12.75-1.75-3.75-.125-17.734h14.172z" id="path942"/><path id="path1332" d="M162.5 364.25l15.25.25"/><path id="path1334" d="M178.5 378l-15.25 2.25"/><path id="path1336" d="M165 391.75l13.898-1.266"/><path id="path1338" d="M178.75 402l-14.878 2.45"/><path id="path1340" d="M165 415.75l14.428-1.225"/><path id="path1342" d="M180.25 427.25l-15.75.5"/><path id="path1344" d="M166.25 444.5l14-.5"/><path id="path1346" d="M180 450.25h-14.25"/><path id="path1348" d="M166.5 461.25h14"/><path id="path1350" d="M122.75 370.25L108 371.5"/><path id="path1352" d="M109.5 388.75l15.25-.5"/><path id="path1354" d="M126.25 399.5h-16"/><path id="path1356" d="M110.75 408.75l15.5.5"/><path id="path1358" d="M128.5 424.25l-15.186 2.473"/><path id="path1360" d="M112.75 440l17-2"/><path id="path1362" d="M130.5 449.5l-15.25-1.25"/><path id="path1364" d="M117 457l13 .25"/><path id="path1366" d="M129.75 465l-12.25 2"/></g><g id="Root Stage II Epidermal Artrichoblasts" transform="translate(-9.06 -64.56)" fill="none" stroke="#000" stroke-width="1" stroke-linecap="butt" stroke-linejoin="miter" stroke-opacity="1"><path d="M190.75 477.25l.75-5.75v-10.25l-.25-5-.5-2 .25-5.5.5-2.75-.25-4 1.25-5.5-1-5.25.75-3.75-.25-7.5 1-5.25-2.25-6.5 2-5.75-1.5-4.5 1.5-6.75-.5-6.25.5-8.25-2-5.25 1.25-7.25-1.75-3.5-1.73-10.734h-11.864l1.094 10.484v4l2.25 8.25-1.5 5.25 1 7v13.5l-.75 3.5-.25 7.75.5 2.75 1.25 7.5v7.25l.5 2.25v10.75l-.5 3.75-.25 6.25.25 3.75.25 7.25-1.25 6.25.25 5.5-2.75 4.25z" id="path928"/><path d="M106.25 477.25l.25-6.75v-3.75l-1.75-3.75-.5-4 .5-4-2.25-3.5.75-6.25-3-6.25 1.5-4.25-2-6.25.25-4.25-.5-5.75.5-3.5-1-5.25v-5L97.5 399l.25-3.75V392l-1.25-5-.25-9.25-.5-8.25-1-4-.16-15.484h11.535l.125 17.734 1.75 3.75-.75 12.75 2.25 4.5v6.75l.75 4-.25 4 .75 5.25v4.75l1.75 8.75.75 2.5-.25 9-.25 6.25 1 3 1.5 5.25V453l1.75 4-.25 6.5.75 3.5.25 10.25z" id="path934"/><path id="path945" d="M106.25 367.75l-10.5 1.75"/><path id="path947" d="M96.5 387l10.75-2.75"/><path id="path953" d="M109.5 395.5l-5.909-.95"/><path id="path955" d="M99 404.75l11-1.25"/><path id="path959" d="M100 415l10.75-1.5"/><path id="path963" d="M100 424.25l12.5-2"/><path id="path967" d="M101.75 434.75l11.74-1.31"/><path id="path979" d="M104.75 455l10.5-2"/><path id="path983" d="M106.5 466.75l10.25-3.25"/><path id="path989" d="M190.25 360.75l-12.5-.25"/><path id="path991" d="M180 372.75l10.75-1.25"/><path id="path995" d="M192.25 385H179.5"/><path id="path999" d="M191.25 398l-11.75.5"/><path id="path1003" d="M190.75 408.25l-12.56-.265"/><path id="path1007" d="M192 420h-11.75"/><path id="path1011" d="M191.5 431.25l-10.75-1.75"/><path id="path1015" d="M191.25 442l-10.5-1.75"/><path id="path1019" d="M180 450.25l11-1.5"/><path id="path1021" d="M180.75 454.5l10-.25"/><path id="path1025" d="M191 461.5l-8.5-.625"/><path id="path1027" d="M179.25 467.5l12.25-1.125"/><path id="path1031" d="M179.5 473l12-1.5"/><path id="path973" d="M113.844 444.047l-10.594 1.203"/></g><g id="Root Stage II Lateral Root Cap" transform="translate(-9.06 -64.56)" fill="none" stroke="#000" stroke-width="1" stroke-linecap="butt" stroke-linejoin="miter" stroke-opacity="1"><path id="path932" d="M106.5 470.5v-3.75l-1.75-3.75-.5-4 .5-4-2.25-3.5.75-6.25-3-6.25 1.5-4.25-2-6.25.25-4.25-.5-5.75.5-3.5-1-5.25v-5L97.5 399l.25-3.75V392l-1.25-5-.25-9.25-.5-8.25-1-4-.16-15.484h-8.24l.4 15.734L87 379l1.5 12.75 1.5 10 1.5 8 .25 8.25.75 9.75 1 11.25 2.5 13.75-.5 5.75.5 5.75-.25 4.5.25 8.5h10.25z"/><path id="path952" d="M191.5 471.5v-10.25l-.25-5-.5-2 .25-5.5.5-2.75-.25-4 1.25-5.5-1-5.25.75-3.75-.25-7.5 1-5.25-2.25-6.5 2-5.75-1.5-4.5 1.5-6.75-.5-6.25.5-8.25-2-5.25 1.25-7.25-1.75-3.5-1.73-10.734h7.581L197 363l2.25 14-.75 12.5 2 12.75-.25 11.75-.5 13-.5 9.25v21L199 466l-1 6 .75 5.25h-8z"/><path id="path943" d="M87.75 366.5l7.156-1.917"/><path id="path949" d="M88.388 391.368l9.362.632"/><path id="path951" d="M89.803 401.09L97.5 399"/><path id="path957" d="M99 409.75h-7.5"/><path id="path961" d="M99.5 418.5l-8.283.268"/><path id="path965" d="M99.75 428.5l-6.412-.54"/><path id="path969" d="M100.25 439H93.5"/><path id="path975" d="M102.5 451.5l-6.5 1.25"/><path id="path977" d="M95.5 458.5l8.75.5"/><path id="path981" d="M96 464.25l8.75-1.25"/><path id="path985" d="M106.5 470.5l-10.75-1.75"/><path id="path987" d="M192 364.25l5-1.25"/><path id="path993" d="M192.75 376.75l6.5.25"/><path id="path997" d="M192.75 391.25l5.75-1.75"/><path id="path1001" d="M192.75 402.5l7.75-.25"/><path id="path1005" d="M193 414.75l7.288.129"/><path id="path1009" d="M192.25 427.5l8.038.99"/><path id="path1013" d="M192.5 436.5l7.08 1.537"/><path id="path1017" d="M191.5 446l8.788.168"/><path id="path1023" d="M192.125 457.5l7.375 1.75"/><path id="path1029" d="M199 466h-8.875"/><path id="path1033" d="M198.5 473.625l-7-2.125"/><path id="path1273" d="M87 379l5.25-.75"/></g><g id="Root Stage I Endodermis + Cortex" transform="translate(-9.06 -64.56)" fill="none" stroke="#000" stroke-width="1" stroke-linecap="butt" stroke-linejoin="miter" stroke-opacity="1"><path id="path908" d="M164.75 477.25l-.125 2.75.5 3.125v1.5l.25 3.25.75 1.125-.375 4.125 1.5 2.25-.875 1.625.5 3.375v1.125l-1 3.5v1.875l.25 3.125.125 4.75.75 3.375-.625 1.875.25 3.25-.75 3 1.125 1.625-.75 2.375 1.375 2.625-.875 1.875.125 4.375-.125 4.125-.25 3.5.25 1.875-1.5 3-.875 4.375-6.125 8.25L153 567l2.75 4.25 2-.125 1.75-1.5 1.75-.625 2.875-2.875 3-4.875 1.75-3.75 1.875-4.25.25-3.75 2-5.25.375-4.875.875-4-1-1.75 2-1.875-1-2.375 1.375-3.5-.875-2.25 1-1.5-.375-.875 1.125-5.125v-9.5l.25-1.375-.875-2.625 1.375-2.75-.75-3.5.5-1.875v-4l.25-1.375L177 486l.625-2.875-.875-5.875z"/><path id="path966" d="M143.5 567.75l-3.25-3.125-3.75-4.875-1.125-4.625-1.125-2.875.25-2.125-1-3.125.5-2-.75-2.875.125-2.125-.75-2.75.125-3.125.375-3.25-.375-2.75-1-1.375.625-2.625V522l-.875-4.625.25-1.875-.875-2.625.75-2.375-.625-2.875.625-3.25-1-2.25.125-2.75-.125-2.875.625-2-.75-3 .375-2.375-.625-3.25.25-2-1.5-2.375-.5-4.25h-10.75l-.125 2.25.5 5.125.5 6.125-.25 3.875v3l1.25 4.125V512l1 5.625.875 4.5-.375 1 1.625 4.625-.375 3.125 1.375 2.25-.625 2 .875 1.625v1.625l1.5 3.125.375 4.625 1.625 2.625v2.75l1.125 2.75-.5 1.75 2.375 2.5 1.125 3 1 1.625 1.25.875 1.75 3.625 1.375 1 .75 4.625z"/><path id="path1180" d="M129 481.5l-11.375-2"/><path id="path1521" d="M118.617 486.474l11.633-.599m.25 5.625l-11.875-.75"/><path id="path1523" d="M118.75 495.375l12 1.125"/><path id="path1525" d="M119.875 502.5h10.75"/><path id="path1527" d="M131.125 507.375l-11.25-.625"/><path id="path1529" d="M119.5 511.25l11.5 1.5"/><path id="path1531" d="M131.875 517.75l-11.125-.25"/><path id="path1533" d="M121.375 521.125l10.625.25"/><path id="path1535" d="M132.125 526.25l-9.875.625"/><path id="path1537" d="M123.875 532.375l8.5.875"/><path id="path1539" d="M132.625 536l-7.625.5"/><path id="path1541" d="M125.5 542.625l8.125-1"/><path id="path1543" d="M133.375 547.375l-5.5 1.125"/><path id="path1545" d="M128.625 553.625l5.5-1.875"/><path id="path1547" d="M135 555.25l-4.625 3.375"/><path id="path1549" d="M132 562.25l4.125-2.75"/><path id="path1551" d="M138.375 562.5l-3.875 1.625"/><path id="path1553" d="M136 568.375l4.5-2.75"/><path id="path1555" d="M159.25 569.625l-2.875-3.375"/><path id="path1557" d="M160.375 562.875L164.25 566"/><path id="path1559" d="M170 552.75l-3.125-4.375"/><path id="path1561" d="M168.25 538.875l4.875.75"/><path id="path1563" d="M173.25 534.625l-5.625-2.375"/><path id="path1565" d="M167.25 527.625l6.5 1.625"/><path id="path1567" d="M174.25 523.75l-7-.75"/><path id="path1569" d="M167.125 517.125l8 3.625"/><path id="path1571" d="M176 513.875l-9.375-3.375"/><path id="path1573" d="M167 504.5l8.875 2.25"/><path id="path1575" d="M175.625 503l-8.875-2.25"/><path id="path1577" d="M168.125 494.625l8.375 1.75"/><path id="path1579" d="M176.25 491.125l-10.375-1.75"/><path id="path1581" d="M165.5 483.625l10.875 2"/></g><g id="Root Stage I Epidermal Artrichoblasts" transform="translate(-9.06 -64.56)" fill="none" stroke="#000" stroke-width="1" stroke-linecap="butt" stroke-linejoin="miter" stroke-opacity="1"><path d="M117.625 479.5l.5 5.125.5 6.125-.25 3.875v3l1.25 4.125V512l1 5.625.875 4.5-.375 1 1.625 4.625-.375 3.125 1.375 2.25-.625 2 .875 1.625v1.625l1.5 3.125.375 4.625 1.625 2.625v2.75l1.125 2.75-.5 1.75 2.375 2.5 1.125 3 1 1.625 1.25.875 1.75 3.625 1.375 1 .75 4.625-2.5 7.25-5-3.75-.5-2-3.25-3.5-2.625-3.25-1.375-3.875-2.5-5.625-1.875-4.5-1.25-4.25-.875-4.375-1.75-5-1.5-4.75-.5-3.75-.25-6.75-1.625-5.25v-1.625l-1-4.625v-6l-.25-2.5-.25-2.875-.5-3.125v-4l-1-4.75.25-4.375-.375-1.375.375-3-1.375-4.375h11.5z" id="path980"/><path id="path906" d="M176.75 477.25l.875 5.875L177 486l.25 3.125-.25 1.375v4l-.5 1.875.75 3.5-1.375 2.75.875 2.625-.25 1.375v9.5l-1.125 5.125.375.875-1 1.5.875 2.25-1.375 3.5 1 2.375-2 1.875 1 1.75-.875 4-.375 4.875-2 5.25-.25 3.75-1.875 4.25-1.75 3.75-3 4.875L161.25 569l-1.75.625-1.75 1.5-2 .125 1.25 10.5 4.5-2.125 1.5-.375 3-4.25 4.875-2.375V570.5l1.875-4 3.75-4.375-.375-.75 1.5-3.875 1.75-3.75 1.875-7.625 1-2.5 1.125-6.25 1.875-5.25-.5-5.375.625-4.875L187 517.5l-.25-2 .375-3.25-.625-3 .375-3.625 1.875-2.375-.25-2.625-.5-1 2.375-2.875-.625-2.875.125-4.5.375-2.75-.5-2.75 1-6.625z"/><path id="path1178" d="M107.625 481.625l10-2.125"/><path id="path1693" d="M107.48 484.883l10.43-.708"/><path id="path1695" d="M117.91 489.302l-10.076 1.06"/><path id="path1697" d="M108.54 494.959l9.9-.884"/><path id="path1699" d="M118.264 498.671l-9.723-.177"/><path id="path1701" d="M109.248 501.323l9.723.53"/><path id="path1703" d="M119.855 507.333h-10.077"/><path id="path1705" d="M110.309 513.697l9.722-1.59"/><path id="path1707" d="M120.031 517.233l-9.9 1.767"/><path id="path1709" d="M112.076 525.01l9.193-1.767"/><path id="path1711" d="M123.037 531.198l-10.253.354"/><path id="path1713" d="M113.137 535.44l10.253-.706"/><path id="path1715" d="M114.198 539.86l10.783-1.414"/><path id="path1717" d="M116.32 544.987l8.838-2.652"/><path id="path1719" d="M116.85 549.053l9.722-3.182"/><path id="path1721" d="M118.44 554.533l9.723-3.182"/><path id="path1723" d="M120.738 558.775l8.486-3.359"/><path id="path1725" d="M123.037 564.786l8.308-6.01"/><path id="path1727" d="M125.688 570.443l6.718-6.364"/><path id="path1729" d="M130.461 576.453l5.303-7.778"/><path id="path1731" d="M161.927 579.812l-5.126-8.84"/><path id="path1733" d="M166.877 574.685l-6.54-4.95"/><path id="path1735" d="M170.06 571.68l-5.658-5.657"/><path id="path1737" d="M173.948 566.2l-7.424-3.536"/><path id="path1739" d="M175.186 561.957l-6.541-3.535"/><path id="path1741" d="M177.13 556.83l-6.54-3.005"/><path id="path1743" d="M179.428 552.058l-8.131-2.475"/><path id="path1745" d="M181.373 547.108l-8.132-2.475"/><path id="path1747" d="M182.08 542.335l-8.132-2.121"/><path id="path1749" d="M182.787 536.678l-8.485-1.237"/><path id="path1751" d="M185.085 531.552l-9.192.176"/><path id="path1753" d="M184.025 526.602l-8.132.353"/><path id="path1755" d="M184.201 521.829l-7.424.177"/><path id="path1757" d="M185.97 514.581l-9.017 2.298"/><path id="path1759" d="M187.737 508.924l-10.96 1.591"/><path id="path1761" d="M185.97 505.212l-8.31.53"/><path id="path1763" d="M187.737 500.085l-10.607.177"/><path id="path1765" d="M189.328 493.014l-11.49 1.768"/><path id="path1767" d="M189.681 488.241l-12.55 2.122"/><path id="path1769" d="M190.212 483.292l-12.551.53"/></g><g id="Root Stage I Lateral Root Cap" transform="translate(-9.06 -64.56)" fill="none" stroke="#000" stroke-width="1" stroke-linecap="butt" stroke-linejoin="miter" stroke-opacity="1"><path d="M130.25 576.75l-.5-2-3.25-3.5-2.625-3.25-1.375-3.875-2.5-5.625-1.875-4.5-1.25-4.25-.875-4.375-1.75-5-1.5-4.75-.5-3.75-.25-6.75-1.625-5.25v-1.625l-1-4.625v-6l-.25-2.5-.25-2.875-.5-3.125v-4l-1-4.75.25-4.375-.375-1.375.375-3-1.375-4.375H96l.5 4.5.5 6.75 1.75 9v7.25l1.5 8.25.5 8 2.25 10.75 3 21.75 4.25 15.75 7.25 12.25 6.5 8 10.75 6.5.5-15.5z" id="path976"/><path id="path1000" d="M198.75 477.25h-8l-1 6.625.5 2.75-.375 2.75-.125 4.5.625 2.875-2.375 2.875.5 1 .25 2.625-1.875 2.375-.375 3.625.625 3-.375 3.25.25 2-1.625 4.375-.625 4.875.5 5.375-1.875 5.25-1.125 6.25-1 2.5-1.875 7.625-1.75 3.75-1.5 3.875.375.75-3.75 4.375-1.875 4v2.125L166 575l-3 4.25-1.5.375-4.5 2.125 1.25 13.5 9.5-3.75 9.375-8.75 7-10.75 2.75-10 3.875-14.75 1.5-11.125L194.5 527v-6.875l1.375-8 .75-7.5.5-9.875.375-6.625z"/><path id="path1176" d="M97.05 482.584l10.2 2.041"/><path id="path1817" d="M97.227 489.832l10.607-1.237"/><path id="path1819" d="M98.818 497.787l9.37-1.59"/><path id="path1821" d="M98.995 506.096l9.723-1.238"/><path id="path1823" d="M101.116 513.874l8.132-2.298"/><path id="path1825" d="M101.47 521.299l7.955-1.768"/><path id="path1827" d="M102.707 532.436l9.546-2.122"/><path id="path1829" d="M104.829 549.583l9.9-5.657"/><path id="path1831" d="M110.485 569.735l7.248-17.147"/><path id="path1833" d="M117.38 582.287l6.364-15.026"/><path id="path1835" d="M126.219 590.418l4.419-13.965"/><path id="path1837" d="M168.291 590.241l-4.95-11.844"/><path id="path1839" d="M176.6 582.817l-6.54-10.253"/><path id="path1841" d="M184.378 571.503l-9.016-9.192"/><path id="path1843" d="M186.323 560.543l-6.364-7.955"/><path id="path1845" d="M189.858 548.522l-6.364-4.596"/><path id="path1847" d="M191.98 535.44l-6.718-4.065"/><path id="path1849" d="M193.57 526.425l-7.6-3.182"/><path id="path1851" d="M193.04 518.824l-5.657-2.122"/><path id="path1853" d="M195.692 511.046l-8.132.53"/><path id="path1855" d="M196.752 502.914l-7.954.353"/><path id="path1857" d="M196.93 496.55h-7.072"/><path id="path1859" d="M197.46 487.357l-7.248-.883"/></g><g id="g1919" transform="translate(-9.06 -64.56)" fill="none" stroke="#000" stroke-width="1" stroke-linecap="butt" stroke-linejoin="miter" stroke-opacity="1"><path id="path1890" d="M134.75 596s7.979 3.021 23.5-.75"/><path id="path1892" d="M135.057 589.711l7.779-1.59 1.414 2.12 6.364-1.767 2.298-2.475 4.596 2.828"/><path id="path1894" d="M150.967 587.943l1.061 9.37"/><path id="path1896" d="M144.25 589.888l1.59 7.601"/><path id="path1898" d="M142.836 588.12l.883-10.43 5.834.177L153 567l-3.447.79-1.053-4.29"/><path id="path1900" d="M149.553 567.79l-2.828 1.592-3.225-1.632"/><path id="path1902" d="M135.25 580.5l8.47-2.81"/><path id="path1906" d="M143.72 577.69l3.005-8.308"/><path id="path1908" d="M149.553 577.867l3.359 8.132"/></g><g id="Root Quiescent Center" transform="translate(-9.06 -64.56)" fill="none" stroke="#000" stroke-width="1.383" stroke-linecap="butt" stroke-linejoin="miter" stroke-opacity="1"><path id="path3721" d="M61.472 527.865l3.802 6.913-7.259 3.803-4.766 1.093-3.91 2.2-4.46-2.256 3.111-7.26 3.803 1.383z"/><path id="path2225" d="M53.249 539.674l-1.456-5.933"/></g><g id="g3976" transform="translate(-9.06 -64.56)" fill="none" stroke="#000" stroke-width="1.383" stroke-linecap="butt" stroke-linejoin="miter" stroke-opacity="1"><path id="path3853" d="M51.793 533.741l-3.803-1.382"/><path id="path3851" d="M47.99 532.359l-3.11 7.259"/><path id="path3849" d="M44.88 539.618l-4.494-4.321"/><path id="path3847" d="M40.386 535.297l-5.185-6.74"/><path id="path3845" d="M35.2 528.556l-1.555-6.395"/><path id="path3843" d="M33.645 522.161l-1.555-3.975"/><path id="path3725" d="M73.743 523.371l-8.469 11.407"/><path id="path1921" d="M65.274 534.778l-3.802-6.913"/><path id="path3713" d="M44.88 539.618l-4.494-4.321"/><path id="path3711" d="M40.386 535.297l-5.185-6.74"/><path id="path3709" d="M35.2 528.556l-1.555-6.395"/><path id="path3707" d="M33.645 522.161l-1.555-3.975"/><path id="path1923" d="M73.743 523.371l-8.469 11.407"/><path id="path1925" d="M42.387 518.935c1.401 6.54 3.23 11.347 5.603 13.424"/><path id="path1927" d="M63.451 518.742c-.56 3.624-1.215 6.72-1.98 9.123"/><path id="path1963" d="M42.633 518.532l-4.149 1.728"/><path id="path1965" d="M43.67 523.717l-8.47 4.84"/><path id="path1967" d="M45.398 529.766l-5.012 5.53"/><path id="path1969" d="M63.2 518.186l10.543 5.185"/><path id="path3517" d="M73.743 523.371l-8.469 11.407"/><path id="path3513" d="M58.015 538.58l3.802 5.877"/><path id="path3511" d="M61.817 544.457l2.766-.173"/><path id="path3509" d="M64.583 544.284l2.42-2.074"/><path id="path3507" d="M67.002 542.21l2.42-.864"/><path id="path3505" d="M69.422 541.346l3.975-3.975"/><path id="path3503" d="M73.397 537.37l4.149-6.74"/><path id="path3445" d="M44.88 539.618l-4.494-4.321"/><path id="path3443" d="M40.386 535.297l-5.185-6.74"/><path id="path3441" d="M35.2 528.556l-1.555-6.395"/><path id="path3439" d="M33.645 522.161l-1.555-3.975"/><path id="path3333" d="M23.62 523.371l3.284 3.457"/><path id="path3331" d="M26.904 526.828l1.556 4.148"/><path id="path3329" d="M28.46 530.976l1.383 2.247"/><path id="path3327" d="M29.843 533.223l1.728 1.21"/><path id="path3325" d="M31.571 534.433l2.42 5.012"/><path id="path3323" d="M33.99 539.445l1.902 1.383"/><path id="path3321" d="M35.892 540.828l1.037 6.395"/><path id="path2011" d="M36.929 547.223l7.95-7.605"/><path id="path2041" d="M33.127 522.334l-6.395 4.667"/><path id="path2043" d="M28.978 532.013l5.704-3.802"/><path id="path2045" d="M37.793 532.359l-5.358 2.246"/><path id="path2047" d="M34.51 540.482l6.221-3.802"/><path id="path2049" d="M66.657 542.21l-3.975-4.666"/><path id="path2051" d="M68.212 532.877l5.358 4.321"/><path id="path3257" d="M23.62 523.371l3.284 3.457"/><path id="path3255" d="M26.904 526.828l1.556 4.148"/><path id="path3253" d="M28.46 530.976l1.383 2.247"/><path id="path3251" d="M29.843 533.223l1.728 1.21"/><path id="path3249" d="M31.571 534.433l2.42 5.012"/><path id="path3247" d="M33.99 539.445l1.902 1.383"/><path id="path3245" d="M35.892 540.828l1.037 6.395"/><path id="path3243" d="M36.929 547.223l-3.457 10.024"/><path id="path3241" d="M33.472 557.247l-6.913-5.185"/><path id="path3239" d="M26.559 552.062l-.692-2.765"/><path id="path3237" d="M25.867 549.297l-4.493-4.84"/><path id="path3127" d="M77.546 530.63l-4.149 6.74"/><path id="path3125" d="M73.397 537.37l-3.975 3.976"/><path id="path3123" d="M69.422 541.346l-2.42.864"/><path id="path3121" d="M67.002 542.21l-2.42 2.074"/><path id="path3119" d="M64.583 544.284l-2.766.173"/><path id="path3117" d="M61.817 544.457l1.729 14.518"/><path id="path3115" d="M63.546 558.975l6.222-2.938"/><path id="path3113" d="M69.768 556.037l2.074-.518"/><path id="path3111" d="M71.842 555.519l4.148-5.877"/><path id="path3109" d="M75.99 549.642l6.74-3.284"/><path id="path3107" d="M82.73 546.358v-2.938"/><path id="path3105" d="M82.73 543.42l2.593-5.53"/><path id="path3103" d="M85.323 537.89l5.185-6.05"/><path id="path2117" d="M16.585 535.519l11.488-8.31"/><path id="path2119" d="M20.251 543.34l9.288-8.799"/><path id="path2121" d="M26.85 551.651l7.334-10.755"/><path id="path2123" d="M70.359 556.295l-7.089-12.221"/><path id="path2125" d="M77.203 549.207l-9.044-6.844"/><path id="path2127" d="M81.603 545.052l-7.822-7.822"/><path id="path2129" d="M86.98 537.474l-10.266-4.888"/><path id="path3029" d="M26.559 552.062l-.692-2.765"/><path id="path3027" d="M25.867 549.297l-4.493-4.84"/><path id="path2951" d="M17.917 569.691l14.864 8.988"/><path id="path2949" d="M32.78 578.679l.692-21.432"/><path id="path2165" d="M33.472 557.247l-6.913-5.185"/><path id="path2897" d="M90.508 531.84l-5.185 6.05"/><path id="path2895" d="M85.323 537.89l-2.592 5.53"/><path id="path2893" d="M82.73 543.42v2.938"/><path id="path2891" d="M82.73 546.358l-6.74 3.284"/><path id="path2889" d="M75.99 549.642l-4.148 5.877"/><path id="path2887" d="M71.842 555.519l-2.074.518"/><path id="path2885" d="M69.768 556.037l-6.222 2.938"/><path id="path2883" d="M63.546 558.975l1.728 18.667"/><path id="path2881" d="M65.274 577.642l13.136-5.185"/><path id="path2879" d="M78.41 572.457l12.962-12.099"/><path id="path2189" d="M20.984 570.961l6.111-19.31"/><path id="path2191" d="M79.158 570.717l-6.844-16.377"/><path id="path2193" d="M90.646 560.45l-9.043-14.176"/><path id="path2217" d="M32.78 578.679s11.033 4.177 32.494-1.037"/><path id="path2839" d="M33.206 569.983l10.755-2.2"/><path id="path2837" d="M43.96 567.783l1.956 2.934"/><path id="path2835" d="M45.916 570.717l8.8-2.445"/><path id="path2833" d="M54.716 568.272l3.177-3.422"/><path id="path2219" d="M57.893 564.85l6.355 3.911"/><path id="path2221" d="M55.204 567.539l1.467 12.955"/><path id="path2223" d="M45.916 570.228l2.2 10.51"/><path id="path2825" d="M43.96 567.783l1.223-14.42"/><path id="path2823" d="M45.183 553.362l8.066.245"/><path id="path2821" d="M53.249 553.607l4.766-15.026"/><path id="path2229" d="M33.472 557.247l11.71-3.885"/><path id="path2231" d="M45.183 553.362l4.155-11.488"/><path id="path2233" d="M53.249 553.607l4.644 11.243"/></g><text xml:space="preserve" style="line-height:1.39999998;-inkscape-font-specification:Arial;text-align:start" x="86.555" y="5.824" id="text3980" font-style="normal" font-variant="normal" font-weight="400" font-stretch="normal" font-size="8" font-family="Arial" letter-spacing="0" word-spacing="0" text-anchor="start" fill="#000" fill-opacity="1" stroke="none"><tspan id="tspan3978" x="86.555" y="5.824">Lateral Root Cap (I,II) and Epidermis (II,III)</tspan> <tspan x="86.555" y="17.024" id="tspan3982">Epidermal Artichoblasts</tspan> <tspan x="86.555" y="28.224" id="tspan3984">Endodermis + Cortex</tspan> <tspan x="86.555" y="39.424" id="tspan3986">Endodermis</tspan> <tspan x="86.555" y="50.624" id="tspan3988">Stele</tspan></text><g id="Root Stage III Endodermis" transform="translate(75.542 -49.06)" fill="none" stroke="#000" stroke-width="1" stroke-linecap="butt" stroke-linejoin="miter" stroke-opacity="1"><path id="path4064" d="M.596 103.644l4.45 25.213 1.318 5.932 4.943 20.764.33 2.966 3.625 19.775 1.978 11.865 3.955 23.07 1.648 10.218 1.648 20.104 1.648 4.285 3.955 27.025 3.954 26.696.33 6.922 1.318 26.037 10.254.242-3.05-27.508L38.65 273l-5.25-30.25-3-21.25-6.25-34-5.5-28.5-4.75-25.25-5.45-30.303z"/><path d="M6.4 134l7.5-.25" id="path4008"/><path d="M40.15 133.25L46.9 132" id="path4010"/><path d="M52.15 160.75l-7.25-1" id="path4012"/><path d="M18.65 159l-7.013-.48" id="path4014"/><path d="M64.9 297.25L60.4 256l-7.75-37.75-2.5-26.75-5.25-31.75-4.75-26.5-6.2-29.053 8.008-.553L46.9 132l4.5 16.25.75 12.5 5 22.75.25 7.75 3.25 16.5V215l8 34-1.25 7.75 5.5 26v15.5L75.15 309l-.232 25.516-6.467.242z" id="path4018"/><path d="M24.4 188.5l-7.25 1.75" id="path4020"/><path d="M50.15 191.5l7.25-.25" id="path4022"/><path d="M52.65 218.25l8-3.25" id="path4024"/><path d="M30.65 221.5l-7.807 1.947" id="path4026"/><path d="M24.49 243.551l7.91-2.301" id="path4028"/><path d="M60.4 256l7 .75" id="path4030"/><path d="M65.15 296.5l7.75 1.75" id="path4032"/><path d="M29.9 272.5h9.25" id="path4034"/><path d="M34.378 308.479l8.271-1.979" id="path4036"/></g><g id="Root Stage III Stele" transform="translate(75.542 -49.06)"><path id="path4070" d="M64.9 297.25L60.4 256l-7.75-37.75-2.5-26.75-5.25-31.75-4.75-26.5-6.2-29.053-25.5-.75 5.45 30.303L18.65 159l5.5 28.5 6.25 34 3 21.25L38.65 273l4.25 34.25 3.05 27.508h22.5z" fill="none" stroke="#000" stroke-width="1" stroke-linecap="butt" stroke-linejoin="miter" stroke-opacity="1"/></g><g id="Root Stage I Stele" transform="translate(99.629 -6.71)"><path id="path4358" d="M50.06 419.643s2.024 65.1-3.393 82.125l-7 4.25-2.75-1c-10-8.75-6.482-84.88-6.482-84.88z" fill="none" stroke="#000" stroke-width="1" stroke-linecap="butt" stroke-linejoin="miter" stroke-opacity="1"/></g><g id="Root Stage I Endodermis" transform="translate(99.629 -6.71)" fill="none" stroke="#000" stroke-width="1" stroke-linecap="butt" stroke-linejoin="miter" stroke-opacity="1"><path id="path4364" d="M49.562 506.4l-2.75-5"/><path id="path4360" d="M34.812 509.9l-3.25-3.126-3.75-4.875-1.125-4.625-1.125-2.875.25-2.125-1-3.125.5-2-.75-2.875.125-2.125-.75-2.75.125-3.125.375-3.25-.375-2.75-1-1.375.625-2.625v-2.125l-.875-4.625.25-1.875-.875-2.625.75-2.375-.625-2.875.625-3.25-1-2.25.125-2.75-.125-2.875.625-2-.75-3 .375-2.375-.625-3.25.25-2-1.5-2.375-.5-4.25v0l10.768.37s-3.518 76.13 6.482 84.88z"/><path d="M46.812 501.4c5.417-17.027 3.393-82.126 3.393-82.126l5.857.125-.125 2.75.5 3.125v1.5l.25 3.25.75 1.125-.375 4.125 1.5 2.25-.875 1.625.5 3.375v1.125l-1 3.5v1.875l.25 3.125.125 4.75.75 3.375-.625 1.875.25 3.25-.75 3 1.125 1.625-.75 2.375 1.375 2.625-.875 1.875.125 4.375-.125 4.125-.25 3.5.25 1.875-1.5 3-.875 4.375-6.125 8.25" id="path4098"/><path d="M29.937 424.65l-9.625-1" id="path4100"/><path d="M29.937 427.65l-8.125-1.626" id="path4102"/><path d="M30.312 431.774l-8.125-.5" id="path4104"/><path d="M29.937 436.524l-7.375.125" id="path4108"/><path d="M29.937 441.524h-7.875" id="path4110"/><path d="M29.937 447.15l-7-.626" id="path4112"/><path d="M30.062 452.274l-7.125.375" id="path4114"/><path d="M29.937 456.15l-6.875 1.5" id="path4116"/><path d="M30.437 461.524l-6 1.375" id="path4118"/><path d="M29.812 465.4l-6.125.874" id="path4120"/><path d="M29.812 470.524l-5.75-.25" id="path4122"/><path d="M30.187 473.774l-5.75-.75" id="path4124"/><path d="M30.437 476.9l-6.375-.626" id="path4126"/><path d="M30.062 482.274l-5.375-.125" id="path4128"/><path d="M31.687 486.774l-6.375.375" id="path4130"/><path d="M32.687 491.024l-6.875 1.25" id="path4132"/><path d="M33.187 494.65l-3 1.25" id="path4134"/><path d="M33.937 498.4l-6.125 3.5" id="path4136"/><path d="M35.187 502.774l-3.625 4" id="path4138"/><path d="M48.062 494.4l7.625 3.75" id="path4140"/><path d="M48.937 490.4l7.625 3.374" id="path4142"/><path d="M57.812 488.9l-8.75-1.376" id="path4144"/><path d="M58.187 486.15l-8.375-1.5" id="path4146"/><path d="M58.312 481.9l-8.5-1.25" id="path4148"/><path d="M58.062 476.9l-8.25.624" id="path4150"/><path d="M57.562 472.4l-6.75-.626" id="path4152"/><path d="M57.187 468.4l-6.75-.376" id="path4154"/><path d="M57.937 465.4l-6.875.25" id="path4156"/><path d="M57.687 462.15l-7.25-.5" id="path4158"/><path d="M57.562 456.9h-6.625" id="path4160"/><path d="M57.187 452.4l-6.375-1" id="path4162"/><path d="M57.187 449.024l-6.5-1.625" id="path4164"/><path d="M57.062 444.274l-6-.625" id="path4166"/><path d="M57.687 439.15l-6.75-.126" id="path4168"/><path d="M57.062 435.274l-6.625.25" id="path4170"/><path d="M56.687 430.024l-6.25 1.125" id="path4172"/><path d="M56.437 426.774l-6.5 1.25" id="path4174"/><path d="M55.937 422.15l-5.75.624" id="path4176"/></g><g id="Root Stage II Endodermis" transform="translate(150.542 -6.06)" fill="none" stroke="#000" stroke-width="1" stroke-linecap="butt" stroke-linejoin="miter" stroke-opacity="1"><path d="M-20.25 418.75H-31.1l1.25-12.25 1.25-1.25-1-6.5.25-1.75.25-6-.75-5.5v-6l-1.25-9.25v-4.5l1-4-3.25-11V341l.75-9-2.25-2.25-1-14.25-1-3.75.25-7.75-2.704-12.484h10.554" id="path4234"/><path d="M-6.75 291.516h6.667L1.899 302.5l1 3.25-.75 10 1.5 6-1.25 4.75 3 6.75-1.25 3.25.25 9.25V351l1 6.25-.75 10 .25 2 .75 14.5 1 2.25-.5 5.75L5.4 395l1.5 7.75-.5 2-.5 8.5-.75 5.5H-1" id="path4230"/><path d="M-29.1 292l.75 11 1 11.25L-25.6 332l.75 7.75.25 11.75 1.5 10.25.75 7.75-1 14.5 1.5 10.5-.25 11.25 1.25 11.75" id="path4182"/><path d="M-6.35 292l1.75 10.25-.5 10.5 1 13-.5 10.5 1 14.75-.25 11.5.75 7.25 1.75 14.5v21.25l.5 7.25v5.75" id="path4184"/><path d="M-36.6 304l7.46-.3" id="path4186"/><path d="M-35.85 315.5l8.478-1.37" id="path4188"/><path d="M-32.6 332l6.996-.37" id="path4190"/><path d="M-33.35 341l8.5-1.25" id="path4192"/><path d="M-33.35 350.75l8.75.75" id="path4194"/><path d="M-30.1 361.75l7.678.11" id="path4196"/><path d="M-31.1 370.25l8.75-.75" id="path4198"/><path d="M-29.85 385.5l6.5-1.5" id="path4200"/><path d="M-29.35 397l7.5-2.5" id="path4202"/><path d="M-28.6 405.25l6.5.5" id="path4204"/><path d="M-.85 412.75l6.75.5" id="path4206"/><path d="M-1.35 405.5l7.75-.75" id="path4208"/><path d="M-1.563 394.386L5.4 395" id="path4210"/><path d="M-1.35 384.25l7-.5" id="path4212"/><path d="M-3.154 369.107l8.053.143" id="path4214"/><path d="M-3.6 351h8" id="path4216"/><path d="M-4.6 336.25l8.75.25" id="path4218"/><path d="M-4.1 325.75l6.5.75" id="path4220"/><path d="M-5.1 312.75l7.25 3" id="path4222"/><path d="M-4.6 302.25l6.5.25" id="path4224"/></g><g id="Root Stage II Stele" transform="translate(150.542 -6.06)"><path id="path4268" d="M-22.1 405.75l.25-11.25-1.5-10.5 1-14.5-.75-7.75-1.5-10.25-.25-11.75-.75-7.75-1.75-17.75-1-11.25-.575-11.242H-6.55l1.95 10.492-.5 10.5 1 13-.5 10.5 1 14.75-.25 11.5.75 7.25 1.75 14.5v21.25l.5 7.25-.075 5.875-19.625-.5z" fill="none" stroke="#000" stroke-width="1" stroke-linecap="butt" stroke-linejoin="miter" stroke-opacity="1"/></g><path d="M84.042 2.44h-40v48.5" id="path4507" fill="none" stroke="#000" stroke-width="1" stroke-linecap="butt" stroke-linejoin="miter" stroke-opacity="1"/><path d="M84.042 13.94h-26.5v38" id="path4509" fill="none" stroke="#000" stroke-width="1" stroke-linecap="butt" stroke-linejoin="miter" stroke-opacity="1"/><path d="M84.542 23.94h-15.5v28.5" id="path4511" fill="none" stroke="#000" stroke-width="1" stroke-linecap="butt" stroke-linejoin="miter" stroke-opacity="1"/><path d="M84.542 35.94h-4.5v15.5" id="path4513" fill="none" stroke="#000" stroke-width="1" stroke-linecap="butt" stroke-linejoin="miter" stroke-opacity="1"/><text xml:space="preserve" style="line-height:1.25;-inkscape-font-specification:Arial;text-align:start" x="181.542" y="144.439" id="text4517" font-style="normal" font-variant="normal" font-weight="400" font-stretch="normal" font-size="16" font-family="Arial" letter-spacing="0" word-spacing="0" text-anchor="start" fill="#000" fill-opacity="1" stroke="none"><tspan id="tspan4515" x="181.542" y="144.439">Stage III</tspan></text><text xml:space="preserve" style="line-height:1.25;-inkscape-font-specification:Arial;text-align:start" x="206.542" y="348.439" id="text4521" font-style="normal" font-variant="normal" font-weight="400" font-stretch="normal" font-size="16" font-family="Arial" letter-spacing="0" word-spacing="0" text-anchor="start" fill="#000" fill-opacity="1" stroke="none"><tspan id="tspan4519" x="206.542" y="348.439">Stage II</tspan></text><text xml:space="preserve" style="line-height:1.25;-inkscape-font-specification:Arial;text-align:start" x="200.542" y="468.439" id="text4525" font-style="normal" font-variant="normal" font-weight="400" font-stretch="normal" font-size="16" font-family="Arial" letter-spacing="0" word-spacing="0" text-anchor="start" fill="#000" fill-opacity="1" stroke="none"><tspan id="tspan4523" x="200.542" y="468.439">Stage I</tspan></text><path d="M13.042 334.94h39.5v30.5h-39.5z" id="rect4527" opacity="1" vector-effect="none" fill="gray" fill-opacity="1" fill-rule="evenodd" stroke="none" stroke-width="1" stroke-linecap="butt" stroke-linejoin="miter" stroke-miterlimit="4" stroke-dasharray="none" stroke-dashoffset="0" stroke-opacity="1"/><text xml:space="preserve" style="line-height:1.25;-inkscape-font-specification:Arial;text-align:start" x="15.042" y="345.939" id="text4532" font-style="normal" font-variant="normal" font-weight="400" font-stretch="normal" font-size="12" font-family="Arial" letter-spacing="0" word-spacing="0" text-anchor="start" fill="#fff" fill-opacity="1" stroke="none"><tspan id="tspan4530" x="15.042" y="345.939">Proto-</tspan> <tspan x="15.042" y="360.939" id="tspan4534">alert!</tspan></text><text xml:space="preserve" style="line-height:1.25;-inkscape-font-specification:Arial;text-align:start" x="-.458" y="443.439" id="text4538" font-style="normal" font-variant="normal" font-weight="400" font-stretch="normal" font-size="10.667" font-family="Arial" letter-spacing="0" word-spacing="0" text-anchor="start" fill="#000" fill-opacity="1" stroke="none"><tspan id="tspan4536" x="-.458" y="443.439">Quiescent center</tspan></text></svg>