<svg xmlns="http://www.w3.org/2000/svg" id="RootEpidermis_svg" version="1.1" viewBox="0 0 910 325"><g id="g11762" fill="none" stroke="#000" stroke-miterlimit="10" stroke-width="1.273"><path d="M87.263 220.71c4.413-4.753 2.716-6.45 2.716-6.45l-4.074-3.395-.453-3.508-3.734-2.15.227-3.055-1.471-3.055 4.3-3.96 1.357-4.64 2.037-4.187 1.019-5.205.452-3.62 1.471-2.264-.34-1.697 1.245-1.924v-3.055l.906-3.282.34-3.734.225-2.49.34-1.923-1.471-1.358 1.245-1.81.113-2.376-.227-2.943 1.471-1.923v-1.245l2.15-1.697.114-2.603-.34-4.64-.905-3.507 1.018-4.187-.792-4.073 2.037-3.056-1.697-1.81.226-3.508 2.716-2.829-2.263-3.281 1.358-2.716-.906-1.697v-5.207l.906-.792-1.81-13.352.791-2.036-1.244-11.768 1.131-1.585-5.205-31.57-6.68-.1v4.001l-1.6.96-.64 8.962-4.001.16-.16-11.042-3.681.16.8 2.24-2.88.48v-4.64l-2.4.16-1.601 10.721 1.12-30.565h-7.201v14.402l-3.2.48.48 7.842-2.721-.32v1.76l-3.68-.32-.48 12.322-.64-4.64-1.761-.48-.32-11.363-4.96-.16-.161 3.68-7.722-.062.227 26.026.226 14.71.679 14.031.453 6.563-.453 1.585 2.037 4.752-1.132 2.716.404 3.772v5.12l2.08 5.602-1.76 3.84 1.6 3.36-.96 3.681 1.76 1.44-1.12 3.841 2.4 1.28.641 3.201.48 1.76.96 1.76.16 2.881-.64 2.24 1.44 1.44-.16 1.761 1.6 3.84.16 2.401v1.92l.96 1.28v2.721l1.424 1.85-.34 1.924 1.585 3.508 1.923 4.3 1.019 1.244.792 3.848.113 1.584 2.037 4.64 3.394 3.28.34 5.885-1.018.453-1.81 5.205-3.056 5.544 2.716 1.019 1.018 1.923-3.168 10.297.233 2.386 6.081 4.16s-7.681-.48-5.28 11.523c0 0 4.48 6.4 7.68 2.4 0 0 14.403 9.762 14.243 2.24 0 0 3.645.705 6.463-1.888l-1.019-14.71 3.735-1.018 3.281-8.94-5.318-5.657" id="path9856"/><path d="m63.478 236.76 4.775 4.204 8.26-1.471 3.169.792 5.884-3.96" id="path9912"/><path d="m60.332 219.91 7.582 3.395 7.694.452 5.092.227 1.358-3.621 5.205.34" id="path9914"/><path d="m59.653 211.43 3.847 1.471 2.83.905 3.054 1.132 5.319-1.471 4.3-.792 6.902-1.81" id="path9916"/><path d="M62.482 205.77s2.716-.34 3.734 1.358l5.319-.679 5.205-.679 4.979-.566" id="path9938"/><path d="m45.875 44.246 1.218 26.982-.114 13.579.453 15.276.792 4.979.34 6.224v2.15l2.15 3.281-1.019 1.584-.113 3.848-.113 1.131.679 3.169-1.132 2.828 2.263 3.735-1.018 3.281 1.697 4.753-.113 3.847 1.018 1.358-.226 2.829 1.019 2.942.792 2.037-1.924 2.15 1.471 3.168-.453 2.263 1.471 1.358-1.358 2.603 1.245 2.037-.34 1.131-.112 1.924 1.018 1.81v3.282l1.81 2.715.566 2.603 1.132 2.942-.113 2.263 1.131 1.245-1.244 2.376 2.489 2.83.226 2.489 2.49 2.15s1.923 3.168 2.376 3.055c.453-.113 4.3 0 4.3 0L75.38 200l3.735-1.018 2.036-5.319 1.585-3.62 1.244-4.074.906-4.64v-4.413l1.131-3.847-.226-2.15v-1.584l-.113-3.96.34-3.282-.227-3.169-.453-1.81 1.584-1.358v-3.62l-.905-.793.905-2.037-.113-4.073-.565-2.15.905-2.037.566-3.96-.227-3.395v-4.414l.113-5.431-1.244-2.263 1.47-1.471-.339-3.055.566-6.337-.905-2.263.679-2.377-1.019-2.602.68-1.81.226-1.585-1.358-8.6 2.489-5.77.226-13.014-.565-6.902-2.037.452-.91-22.803" id="path9946"/><path d="m51.316 52.087.53 18.122 1.357 13.466-.792 2.037-.113 15.389v4.073l.453 6.79 1.697 2.15s-.792 2.037-.792 2.716v8.826l.792 1.47-.113 5.093 1.47 5.545-.565 3.055v4.752l1.131.34v7.92l1.471 2.038-.339 3.394v3.395l.792 3.62-.566 1.925.792 3.62.793 1.472.452 4.186-.113 1.81 1.245 3.735.792 2.603v1.47l.679 1.811.34 3.055 1.13 1.358.34.113 1.019 2.15 3.168-.34 4.187.906 1.358-.679 2.942-.113 2.263-.905.679-2.83 1.245-1.81.679-3.734.339-3.055.679-2.037-.226-4.073.226-1.358-.792-4.187.905-1.019v-4.3l-.453-5.544.114-3.282.113-2.602v-3.508l-.227-3.168.453-4.64-.34-1.584.114-4.753.905-1.358-.566-3.847 1.019-2.602-.566-4.3 1.47-2.603-1.696-3.055 1.697-2.376-1.697-1.924.565-4.3-.113-5.432v-4.639s.34-8.6.34-9.505v-7.016l-.566-13.692.113-2.49-.208-14.465" id="path9969"/><path d="m79.321 53.527.7 15.89-.226 6.79.453 8.486-1.019 2.037 1.132 14.258-.226 2.49-.906 7.807.792 3.282-.452 3.847 1.131 1.584v4.979l-.452 4.413.452 2.15-.226 4.866-1.245 3.281 1.358 2.263-.679 3.169.566 2.942-.226 2.942.226 3.168-.566 3.169.68 3.734.226 3.62-.114 6.564-.339 5.205v3.621l-.226 2.263-.792 3.282-.34 4.752-1.47 1.924-2.717.792-1.018 1.132-1.245-1.245-2.376-.34-1.924.906-1.47-1.584-1.02-2.942-1.244-.566v-3.848l-1.358-1.244.68-2.942-1.359-2.263.227-3.395-1.132-1.697.453-5.771-2.037-2.264.905-3.507-.905-5.432.453-1.131v-3.961l-1.471-5.205-.566-7.921-.68-5.771-.904-5.318.678-1.924-.792-6.676v-9.845l-.679-22.858-1.47-20.142-.845-8.135" id="path9971"/><path d="m76.28 44.886-.106 21.816.226 5.997.453 13.918-.68 3.621.68 11.316-.227 2.603-.113 6.223-.905 3.961 1.81 3.395-1.018 7.355.113 3.62-.679 4.188v5.884l1.019 1.358-1.585 3.168.906 2.376-.68 5.319-.452 1.923.453 5.771.565 6.337-.9 2.032.48 4.161-.32 2.48v3.041l-1.44 1.12.08 4.481-1.84 2.88-.4 3.041-3.281.96-1.6-1.6-.88-3.6.32-3.921-1.681-.64.26-4.138-1.245-1.923.113-5.998.566-2.49-1.018-3.28.34-4.753-1.359-1.698.453-3.847-.905-.566-.566-6.11.566-3.847-.792-2.83s.679-2.602.792-3.054c.113-.453-1.81-2.263-1.81-2.263l.565-7.808-.679-7.469.113-2.036-.905-1.358.113-4.98V86.506l-.792-.905 1.018-13.58-1.697-1.131v-5.545l.148-20.138" id="path9973"/><path d="m73.4 45.366-.16 18.483.8 2.8-1.12 18.484.72 7.92v8.882l.64 2.24-.4 9.762-.72 8.162.4 2.88-.48 6.961-.16 6.161 1.04.64-.32 3.601-.48 9.682-.64 2.56.48 4.72-.4 6.162.48 1.28-.48 5.921-1.44 3.12-.32 4.401-1.2.48-2.161-.64-.48-3.92-1.2-1.6v-8.722l-.08-8.561-.24-5.201-1.2-1.44-.32-9.442.16-6.241-1.12-8.642-.48-11.362-.16-8.641-.48-20.083v-5.761l-.401-9.122-.96-13.122.08-14.402" id="path9983"/><path d="m69.399 51.607.16 10.802 1.36 2v21.524l-1.28 1.28-.4 18.244.8 8.08-.48 5.602.24 2.56-.08 9.042.48 8.481-.4 6.721.24 9.202.48 5.04-.56 6.162-.16 6.08-1.52-5.76v-6.081l-.96-3.92-.48-4.402-.16-5.84-.32-6.002.48-1.04-.48-4.48.72-1.84-.56-8.002-1.44-.56.64-5.121-.08-4.241-1.04-.16v-8.642l-.32-1.44.56-17.923-.24-6.4.56-18.724-.48-3.44-.08-22.484-1.281-.48" id="path9985"/><path d="m69.559 62.409-4.4-.56" id="path11451"/><path d="m69.639 87.213-4.8-.24" id="path11453"/><path d="m69.239 105.46-4.64.88" id="path11455"/><path d="m69.559 119.14-3.84.24" id="path11457"/><path d="m69.158 131.88-2.08 1.181" id="path11459"/><path d="m70.199 139.22-3.84 1.2" id="path11461"/><path d="m69.799 145.94-3.244.081" id="path11463"/><path d="m70.039 155.14-2.72 1.52" id="path11465"/><path d="m70.519 160.19-2.24.4" id="path11467"/></g><g id="g9880" fill="none" stroke="#000" stroke-miterlimit="10" stroke-width="1.273"><path d="M82.624 264.84s-6.224-2.263-5.205 5.884c0 0 7.808 8.147 8.26-1.245 0 0 8.26-5.657.905-14.144 0 0-4.752 2.377-3.96 9.505" id="path9872"/><path d="M82.624 264.84s3.168 1.697 3.055 4.64" id="path9874"/></g><g id="g9884" fill="none" stroke="#000" stroke-miterlimit="10" stroke-width="1.273"><path d="M57.39 261.67s1.697-9.845 9.279-7.129c0 0 2.263 3.395 1.358 6.224 0 0 6.11-8.487 8.6-.227 0 0 .113 12.447-5.432 8.374 0 0-2.263-1.924-2.376-3.508 0 0-5.432 10.863-11.43-3.734" id="path9870"/><path d="m68.026 260.76.792 4.64" id="path9876"/></g><g id="g9958" fill="none" stroke="#000" stroke-miterlimit="10" stroke-width="1.273"><path d="m59.313 217.99 4.413-5.092" id="path9918"/><path d="m64.066 221.39 2.49-7.468" id="path9920"/><path d="m69.384 214.94-1.471 8.374" id="path9922"/><path d="m74.703 213.46.905 10.297" id="path9924"/><path d="m82.058 220.37-3.055-7.695" id="path9926"/></g><g id="g9963" fill="none" stroke="#000" stroke-miterlimit="10" stroke-width="1.273"><path d="m67.913 223.31-4.435 13.449" id="path9928"/><path d="M75.608 223.76s-.905 8.6.905 15.729" id="path9930"/><path d="M80.7 223.99s.905 6.337 4.866 12.334" id="path9932"/></g><g id="g9967" fill="none" stroke="#000" stroke-miterlimit="10" stroke-width="1.273"><path d="m68.253 240.96-2.374 9.719" id="path9934"/><path d="m79.681 240.28.44 12.638" id="path9936"/></g><g id="g9951" fill="none" stroke="#000" stroke-miterlimit="10" stroke-width="1.273"><path d="m66.216 207.13.34 6.79" id="path9940"/><path d="m72.553 206.34 2.15 7.129" id="path9942"/><path d="m76.626 206 2.376 6.676" id="path9944"/></g><g id="g10592" fill="none" stroke="#000" stroke-miterlimit="10" stroke-width="1.273"><path d="m38.153 71.001 8.713-.453" id="path10425"/><path d="m38.153 85.372 8.374.226" id="path10427"/><path d="m38.945 99.856 8.487.226" id="path10429"/><path d="m39.737 105.51 8.487-.453" id="path10431"/><path d="m41.321 111.85 7.242 1.584" id="path10433"/><path d="m40.594 118.34 9.101-.038" id="path10435"/><path d="m40.594 123.46 8.875-.18" id="path10437"/><path d="m49.016 129.28-6.342-.217" id="path10439"/><path d="m42.514 136.26 7.747.031" id="path10441"/><path d="m51.958 141.04-8.644.337" id="path10443"/><path d="m44.595 146.5 7.25-1.61" id="path10445"/><path d="m52.637 149.08-7.402.624" id="path10447"/><path d="m46.675 153.22 7.66-.524" id="path10449"/><path d="m52.524 156.21-5.689-.103" id="path10451"/><path d="m47.635 159.79 6.36-.409" id="path10453"/><path d="m53.542 161.64-6.067-.094" id="path10455"/><path d="m49.075 165.39 4.58.214" id="path10457"/><path d="m54.9 167.64-5.665.15" id="path10459"/><path d="m50.196 170.99 4.252-.295" id="path10461"/><path d="m55.466 175.78-3.847-.226" id="path10463"/><path d="m52.75 181.22 5.092-.113" id="path10465"/><path d="m54.787 185.29 4.187-1.245" id="path10467"/><path d="m58.748 189.93-2.15.453" id="path10469"/><path d="m59.879 197.28 1.584-2.037" id="path10471"/></g><g id="g10599" fill="none" stroke="#000" stroke-miterlimit="10" stroke-width="1.273"><path d="m63.953 197.4-1.81 2.49" id="path10473"/><path d="m66.329 200.79-.113 6.337" id="path10475"/><path d="m70.629 200.45.792 5.431" id="path10477"/><path d="m76.626 206-1.245-5.997" id="path10479"/><path d="m79.116 198.98 1.358.113" id="path10481"/></g><g id="g10566" fill="none" stroke="#000" stroke-miterlimit="10" stroke-width="1.273"><path d="M84.66 193.55h-3.281" id="path10483"/><path d="m82.737 190.04 3.395.453" id="path10485"/><path d="m88.168 186.31-4.187-.34" id="path10487"/><path d="m84.887 181.33 4.3-.226" id="path10489"/><path d="m89.639 177.48-4.753-.566" id="path10491"/><path d="m86.018 173.07 4.753.453" id="path10493"/><path d="m92.015 168.54-6.45.226" id="path10495"/><path d="m85.679 165.37 7.242-.113" id="path10497"/><path d="m93.034 161.19-7.016.905" id="path10499"/><path d="m85.792 158.92 7.695.113" id="path10501"/><path d="M92.355 155.76h-5.431" id="path10503"/><path d="m86.923 152.13 6.79-.566" id="path10505"/><path d="m93.487 148.63-6.563.679" id="path10507"/><path d="m86.81 145.23 8.147.226" id="path10509"/><path d="m97.221 141.16-10.071-.113" id="path10511"/><path d="m87.716 137.08 9.166-.566" id="path10513"/><path d="m95.976 133.01-8.487.679" id="path10515"/><path d="m87.829 129.05 9.166-.226" id="path10517"/><path d="m96.202 124.75-8.6-.905" id="path10519"/><path d="m87.829 120.11 8.713-.226" id="path10521"/><path d="m96.768 116.38-9.279-.679" id="path10525"/><path d="m88.055 110.72 9.166-.453" id="path10527"/><path d="m97.673 105.85-9.845.226" id="path10529"/><path d="m87.489 101.67 9.845.566" id="path10531"/><path d="m98.579 99.856-10.863.226" id="path10533"/><path d="m88.847 85.712 7.92.792" id="path10535"/><path d="M89.073 72.699h7.242" id="path10537"/></g><g id="g10783" fill="none" stroke="#000" stroke-miterlimit="10" stroke-width="1.273"><path d="m46.866 70.549 4.979-.34" id="path10662"/><path d="m46.527 85.598 5.884.113" id="path10664"/><path d="m47.432 100.08 4.526 1.132" id="path10666"/><path d="m48.224 105.06 4.074.113" id="path10668"/><path d="m48.224 111.51 4.526.453" id="path10670"/><path d="m50.713 116.72 2.49.113" id="path10672"/><path d="M49.582 122.15h4.074" id="path10676"/><path d="m50.148 126.45 3.508-.792" id="path10678"/><path d="m51.279 133.01 3.055-.792" id="path10680"/><path d="m51.958 141.04 3.281-.226" id="path10682"/><path d="m52.863 146.25 2.376-.679" id="path10684"/><path d="m54.448 154.06 1.924-.226" id="path10686"/><path d="m53.995 159.38 3.508-.113" id="path10688"/><path d="m55.013 163 2.49-.34" id="path10690"/><path d="m54.9 167.64 2.829.566" id="path10692"/><path d="m55.466 172.5 3.055-.679" id="path10694"/><path d="m57.277 178.5 2.376.792" id="path10696"/><path d="m58.974 184.04 2.037-1.018" id="path10698"/><path d="m59.992 187.55 1.697-.453" id="path10700"/><path d="m61.237 192.76 1.471-.792" id="path10702"/><path d="m63.953 197.4 1.245-1.81" id="path10704"/></g><g id="g10760" fill="none" stroke="#000" stroke-miterlimit="10" stroke-width="1.273"><path d="m83.642 69.191 2.829-2.942" id="path10706"/><path d="m83.981 91.03 2.376.453" id="path10708"/><path d="m83.868 104.83 2.942-1.358" id="path10710"/><path d="m83.755 110.61 3.395-2.15" id="path10712"/><path d="m84.887 116.83 2.603.226" id="path10714"/><path d="m84.887 122.26 1.471-.679" id="path10716"/><path d="m83.981 129.16 3.847-.113" id="path10718"/><path d="m83.529 135.61 4.074.113" id="path10720"/><path d="m82.51 141.72 3.734 1.358" id="path10722"/><path d="m82.624 151.12 3.395.226" id="path10724"/><path d="M82.397 157.11h2.942" id="path10726"/><path d="m82.85 166.05 2.829-.679" id="path10728"/><path d="m82.85 170.35 2.942.566" id="path10730"/><path d="m82.737 175.56 2.15 1.358" id="path10732"/><path d="m82.737 180.99 2.15.34" id="path10734"/><path d="m81.718 186.08 2.263-.113" id="path10736"/><path d="m81.039 189.82 1.697.226" id="path10738"/><path d="m79.116 194.45 2.263-.905" id="path10740"/></g><g id="g10797" fill="none" stroke="#000" stroke-miterlimit="10" stroke-width="1.273"><path d="m76.853 195.36-.679 2.037 2.942 1.584" id="path10785"/><path d="m76.174 197.4-4.187.34-8.034-.34" id="path10787"/><path d="m71.987 197.74.34 2.829" id="path10789"/><path d="m72.553 196.15-.566 1.584" id="path10791"/></g><g id="g11065" fill="none" stroke="#000" stroke-miterlimit="10" stroke-width="1.273"><path d="m53.203 83.675 2.603-.113" id="path10960"/><path d="m54.448 114.11 1.81-.34" id="path10962"/><path d="m54.448 127.13 2.376-.34" id="path10964"/><path d="m55.805 137.76 2.376.226" id="path10966"/><path d="m56.371 145.91 2.603-.113" id="path10968"/><path d="m57.842 155.87 2.15.226" id="path10970"/><path d="m58.295 166.28 1.697-1.245" id="path10972"/><path d="m59.313 173.29 2.263-.226" id="path10974"/><path d="m59.766 177.48 2.716.679" id="path10976"/><path d="m61.011 183.03 2.15.34" id="path10978"/><path d="m61.69 187.1 2.829-2.49" id="path10980"/><path d="m62.255 190.04 2.263-1.584" id="path10982"/><path d="m64.179 193.44 2.603-1.471" id="path10984"/><path d="m68.253 193.55.113 1.697" id="path10986"/><path d="m73.797 194.23.113 1.245" id="path10988"/><path d="m76.513 192.87.34 2.49" id="path10990"/><path d="m79.003 190.38 2.037-.566" id="path10992"/><path d="m79.342 185.63 2.376.453" id="path10994"/><path d="m80.134 182.35 1.924.679" id="path10996"/><path d="m80.36 176.46 2.15.453" id="path10998"/><path d="m80.36 180.08 2.376.905" id="path11000"/><path d="m80.7 171.26 1.245.113" id="path11002"/><path d="M80.813 164.69h1.471" id="path11004"/><path d="m80.587 161.07 1.81-.566" id="path11006"/><path d="m82.397 154.85-1.924-.679" id="path11008"/><path d="m80.474 148.06 1.924-.113" id="path11010"/><path d="m80.587 141.95 1.924-.226" id="path11012"/><path d="m80.474 136.41 2.15.566" id="path11014"/><path d="m82.963 131.77-2.263-.226" id="path11016"/><path d="m80.7 124.98 2.716-.113" id="path11018"/><path d="m83.189 119.21-2.49.792" id="path11020"/><path d="m80.021 114.57 3.168.34" id="path11022"/><path d="m83.529 100.2-3.168.792" id="path11024"/><path d="m80.247 84.693 3.734-1.132" id="path11026"/><path d="m83.642 69.191-3.621.226" id="path11028"/></g><g id="g11257"><path d="m78.12 145.94-.48 6.081.08 5.521.8 7.441-.48 6.321-.32 5.121-.32 2.08-.08 4.721.48 2.96-.64 4.081-2.24-.16-2.707.498" fill="none" id="path9977" stroke="#000" stroke-miterlimit="10" stroke-width="1.273"/></g><g id="g11124" fill="none" stroke="#000" stroke-miterlimit="10" stroke-width="1.273"><path d="m54.561 64.891 2.716.34" id="path11067"/><path d="m56.145 84.693 2.263.905" id="path11069"/><path d="m56.598 108.34 2.603-.679" id="path11071"/><path d="m56.258 113.77 2.829.226" id="path11073"/><path d="m56.711 118.19 3.168-.792" id="path11075"/><path d="M57.503 124.86h3.055" id="path11077"/><path d="m57.955 133.35 2.037-.679" id="path11079"/><path d="M58.182 137.99h2.829" id="path11081"/><path d="m58.974 145.8 2.263-1.132" id="path11083"/><path d="m60.445 151 1.358-.226" id="path11085"/><path d="m59.992 156.09 2.263-.905" id="path11087"/><path d="m60.671 160.17 2.603 1.471" id="path11089"/><path d="m62.029 167.3 1.697.113" id="path11091"/><path d="m62.708 174.77.905-1.358" id="path11093"/><path d="m63.84 180.42.758-.955" id="path11095"/><path d="m64.519 184.61 1.44-.58" id="path11097"/><path d="m65.763 189.02 1.075-1.393" id="path11099"/><path d="m68.439 189.23 1.738 3.414" id="path11101"/><path d="m71.719 188.27.833 4.714" id="path11103"/></g><g id="g11153" fill="none" stroke="#000" stroke-miterlimit="10" stroke-width="1.273"><path d="m79.795 76.206-3.734-4.753" id="path11126"/><path d="m79.229 86.73-2.376-.113" id="path11128"/><path d="m76.853 101.55 3.055 1.358" id="path11130"/><path d="m76.513 110.38 2.716.905" id="path11132"/><path d="m77.418 117.73 2.15.679" id="path11134"/><path d="m76.4 125.09 4.3-.113" id="path11136"/><path d="m76.513 128.71 3.734.679" id="path11138"/><path d="m76.853 140.14 2.376-.453" id="path11140"/><path d="m76.174 145.68 1.947.258 1.787-.824" id="path11142"/></g><g id="g11185" fill="none" stroke="#000" stroke-miterlimit="10" stroke-width="1.273"><path d="m75.042 152.93 2.598-.903" id="path11157"/><path d="m75.495 159.15 2.226-1.605" id="path11161"/><path d="m76.06 165.03 2.46-.048" id="path11165"/><path d="m75.64 171.23 2.231-.648" id="path11169"/><path d="m75.32 176.75 2.08 1.76" id="path11173"/><path d="m73.96 182.35 1.76.4 1.6.48" id="path11175"/></g><g id="g11205" fill="none" stroke="#000" stroke-miterlimit="10" stroke-width="1.273"><path d="m75.72 182.75-.96 4.24-1.76.08-1.28 1.201" id="path9981"/><path d="m74.76 186.99 2.4 3.28" id="path11177"/></g><g id="g11201" fill="none" stroke="#000" stroke-miterlimit="10" stroke-width="1.273"><path d="m77.64 152.02 2.607-1.021" id="path11155"/><path d="m77.72 157.54 2.188-.205" id="path11159"/><path d="m78.52 164.99 2.293-.291" id="path11163"/><path d="m77.871 170.58 2.829.679" id="path11167"/><path d="m77.72 176.43 2.64.035" id="path11171"/><path d="m77.8 186.19 1.542-.561" id="path11187"/><path d="m77.16 190.27.371 2.034" id="path11189"/><path d="m74.816 193.1.104-2.986" id="path11191"/></g><g id="g11306" fill="none" stroke="#000" stroke-miterlimit="10" stroke-width="1.273"><path d="m59.426 72.02 1.924-.453" id="path11259"/><path d="M58.408 85.598h3.168" id="path11261"/><path d="m59.2 106.19 2.942-.792" id="path11263"/><path d="m59.992 115.36 2.376-.453" id="path11265"/><path d="m60.558 124.86 2.44 1.396" id="path11267"/><path d="m61.463 134.82 2.655.08" id="path11269"/><path d="M61.803 140.82h1.81" id="path11271"/><path d="m62.708 151.34 1.57-.759" id="path11273"/><path d="m63.613 156.89 2.263-.679" id="path11275"/><path d="m64.292 164.92.905-2.263" id="path11277"/><path d="m64.858 175.33.94-.824" id="path11279"/><path d="m66.278 180.11 1.2-.08" id="path11281"/></g><g id="g11292" fill="none" stroke="#000" stroke-miterlimit="10" stroke-width="1.273"><path d="m66.442 185.06 5.677.167" id="path11283"/><path d="m69.639 180.67-.028 4.507" id="path11285"/><path d="m68.439 189.23 1.172-4.054" id="path11287"/></g><g id="g11350" fill="none" stroke="#000" stroke-miterlimit="10" stroke-width="1.273"><path d="m70.839 180.19 2.732.01" id="path11308"/><path d="m73.88 177.87-2.72-2.08" id="path11310"/><path d="m75.32 173.71-2.72-1.04" id="path11312"/><path d="m75.16 167.07-2.08-.32" id="path11314"/><path d="m75.495 159.15-2.495.155" id="path11316"/><path d="m75.042 152.93-1.883-.903" id="path11318"/><path d="m75.268 143.31-1.924-.226" id="path11320"/><path d="m75.834 138.78-1.875-.04" id="path11322"/><path d="m75.834 132.9-3.168-.226" id="path11324"/><path d="m76.4 125.09-2.84-.11" id="path11326"/><path d="m75.608 114.34-2.037-.226" id="path11328"/><path d="m76.626 104.16-2.347.02" id="path11330"/><path d="m76.174 90.238-2.534 2.816" id="path11332"/><path d="m75.834 67.267-1.794-.618" id="path11334"/></g><g id="g11449" fill="none" stroke="#000" stroke-miterlimit="10" stroke-width="1.273"><path d="m60.517 58.168 4.16.24" id="path11386"/><path d="m62.029 79.941 2.569.631" id="path11388"/><path d="m62.142 105.4 2.456.935" id="path11390"/><path d="m62.369 114.91 2.23.072" id="path11392"/><path d="m62.998 126.26 2.08-1.76" id="path11394"/><path d="M64.118 134.9h2.24" id="path11396"/><path d="m63.613 140.82 2.745-.397" id="path11398"/><path d="m63.953 145.8 2.603.226" id="path11400"/><path d="m65.876 156.21 1.442.457" id="path11402"/><path d="m65.876 165.71 2.402.953" id="path11404"/><path d="m66.103 172.16 3.696.264" id="path11406"/><path d="m66.998 176.11 4.16-.32" id="path11408"/><path d="m69.799 172.43 1.36 3.36" id="path11410"/><path d="m69.959 166.35 2.64-.88" id="path11412"/><path d="m70.519 160.19 2.48-.88" id="path11414"/><path d="m70.039 155.14 2.48-.56" id="path11416"/><path d="m70.199 139.22 2.72-1.12" id="path11418"/><path d="m69.799 121.7 3.36.4" id="path11420"/><path d="m70.039 113.54 3.532.576" id="path11422"/><path d="m70.919 85.933 2-.8" id="path11424"/><path d="m70.919 64.409 2.32-.56" id="path11426"/></g><g id="g10854"><path d="M47.206 230.78s8.374-.34 10.524 5.318c0 0-1.245 6.224-3.281 6.224 0 0-3.056-.566-3.848-4.526-.792-3.96-2.602-3.621-2.602-3.621s-1.471-.906-.792-3.395" fill="#0cf180" id="path9860" stroke="#000" stroke-miterlimit="10" stroke-width="1.273"/></g><g id="g9910"><path d="M97.673 256.35s2.603-8.6 12.56-9.279c0 0 15.389-5.884-3.395-4.526 0 0-6.902 1.358-12.9 4.187l-.34-7.016s2.038 0 1.925-2.716c-.114-2.715 1.584-3.168 1.584-3.168s1.358-.905.34-2.716c0 0 10.636-.226 14.37-11.994l-5.092-.226-9.618 7.242s-2.376 1.81-.566 3.281c0 0-5.997 2.037-3.281 8.148l-3.96-2.264-3.735 1.019 1.018 14.71s3.848 2.49 5.998-2.15c0 0-5.998 14.484 5.092 7.468" fill="#0cf180" id="path9866" stroke="#000" stroke-miterlimit="10" stroke-width="1.273"/></g><g id="g9903" fill="#0cf180" stroke="#000" stroke-miterlimit="10" stroke-width="1.273"><path d="m92.581 248.88 1.358-2.15" id="path9894"/><path d="m93.26 237.57.34 2.15" id="path9896"/><path d="m97.447 231.12-.905-1.697" id="path9898"/></g><g id="g10197"><path d="m92.242 39.544 5.205 31.571-1.131 1.584 1.244 11.768-.792 2.037 1.81 13.352-.905.792v5.205l.906 1.698-1.358 2.715 2.263 3.282-2.716 2.829-.226 3.508 1.697 1.81-2.037 3.055.792 4.074-1.018 4.187.905 3.507.34 4.64-.113 2.602-2.15 1.698v1.244l-1.471 1.924.226 2.942-.113 2.376-1.245 1.811 1.471 1.358-.34 1.923-.226 2.49-.34 3.734-.905 3.282v3.055l-1.244 1.923.34 1.698-1.472 2.263-.452 3.621-1.019 5.205-2.037 4.187-1.357 4.64-4.3 3.96 1.47 3.055-.226 3.055 3.735 2.15.452 3.508 4.074 3.395s1.697 1.697-2.716 6.45l5.318 5.657 3.96-13.126s3.622-4.413 3.509-11.542l.226-5.544 1.697-4.526.792-4.414.566-5.657 4.413-10.75-4.3-1.698 1.019-3.394s1.697 4.413 5.205.679c0 0 6.45-12.674 10.637-13.58 0 0 4.187-6.902-3.395-2.489 0 0-11.316 5.432-11.202 11.655l.906-9.618s2.036-3.621 1.923-8.713l-.679-6.563.905-8.034v-6.11s4.527-4.98-.339-8.94v-5.545l-.113-8.034-.113-14.937s1.358-17.879-2.263-14.258l-3.848-52.278-10.41-.226.566 20.821" fill="#0cf180" id="path9864" stroke="#000" stroke-miterlimit="10" stroke-width="1.273"/></g><g id="g10152" fill="#0cf180" stroke="#000" stroke-miterlimit="10" stroke-width="1.273"><path d="m89.979 214.26 2.49-2.376.226-6.224 2.829-5.318-1.585-3.395 1.698-2.15 1.923-4.413-.565-3.281 1.697-1.132.113-4.187 2.037-7.468 2.602-5.205" id="path9987"/><path d="m85.452 207.35 2.829-2.037 2.829-8.26-1.019-2.037.453-2.942.792-4.866 2.263-1.584-.679-3.282 2.037-1.357.226-4.753 2.49-2.376v-1.132l1.244-4.3.793-3.281.905-3.621 1.923-3.96-1.131-3.395.679-2.943 4.526 1.132" id="path9989"/><path d="m104.46 165.71 1.245-3.734" id="path10045"/></g><g id="g10109" fill="#0cf180" stroke="#000" stroke-miterlimit="10" stroke-width="1.273"><path d="m97.447 71.114 8.487.113" id="path9999"/><path d="m97.56 84.467 10.637 1.018" id="path10001"/><path d="m98.579 99.856 9.392-.226" id="path10003"/><path d="m98.579 107.55 9.845.34" id="path10005"/><path d="m99.484 113.55 8.94.453" id="path10007"/><path d="m98.239 121.7 10.524 1.245" id="path10009"/><path d="m96.994 128.82 11.768.226" id="path10011"/><path d="m96.881 136.52 10.976.566" id="path10013"/><path d="M97.108 143.76s7.129.792 10.637-1.924" id="path10015"/><path d="M103.67 143.31s.905 5.431-8.713 3.395" id="path10017"/></g><g id="g10097" fill="#0cf180" stroke="#000" stroke-miterlimit="10" stroke-width="1.273"><path d="m81.945 202.15 3.168-.34 1.924-5.884 3.055-.905" id="path9991"/><path d="m93.6 153.94 7.808.226" id="path10021"/><path d="m93.826 157.11 8.713.453" id="path10023"/><path d="m93.034 161.19 7.582.34" id="path10025"/><path d="m92.921 165.26 6.676-.226" id="path10027"/><path d="m92.015 168.54 6.563-.453" id="path10029"/><path d="m92.015 171.6 5.658 1.131" id="path10031"/><path d="m95.184 176.24-4.074-1.018" id="path10033"/><path d="m92.921 182.35-3.734-1.245" id="path10035"/><path d="m91.337 187.21-3.168-.905" id="path10037"/><path d="m90.205 192.53-4.074-2.037" id="path10039"/><path d="m87.037 195.93-2.263-.792" id="path10041"/></g><g id="g10083" fill="#0cf180" stroke="#000" stroke-miterlimit="10" stroke-width="1.273"><path d="m100.62 161.53 5.092.453" id="path10043"/><path d="m97.673 173.86 3.168.453" id="path10047"/><path d="m94.958 180.99 3.847.792" id="path10049"/><path d="m93.6 185.63 3.395 1.471" id="path10051"/><path d="m93.939 196.94-2.829.113" id="path10053"/><path d="m88.281 205.32 4.413.34" id="path10055"/></g><g id="g10075" fill="#0cf180" stroke="#000" stroke-miterlimit="10" stroke-width="1.273"><path d="m98.805 181.78 4.526-.226" id="path10057"/><path d="m98.692 185.97 4.074 1.245" id="path10059"/><path d="m97.56 190.38 4.413 1.245" id="path10061"/><path d="m95.636 194.79 4.64 1.358" id="path10063"/><path d="M95.523 200.34h4.187" id="path10065"/><path d="m92.468 211.88 4.074 1.358" id="path10067"/></g><g id="g10423"><path d="m38.153 44.183.226 26.026.227 14.71.679 14.031.452 6.563-.452 1.584 2.036 4.753-1.131 2.716.404 3.771v5.121l2.08 5.601-1.76 3.84 1.6 3.362-.96 3.68 1.76 1.44-1.12 3.84 2.4 1.281.64 3.2.48 1.761.96 1.76.16 2.88-.64 2.241 1.441 1.44-.16 1.76 1.6 3.841.16 2.4v1.921l.96 1.28v2.72l1.424 1.85-.34 1.925 1.584 3.507 1.924 4.3 1.018 1.245.792 3.847.114 1.585 2.036 4.639 3.395 3.281.34 5.885-1.019.452-1.81 5.205-3.055 5.545 2.715 1.018 1.019 1.924-3.169 10.297s-6.902-3.508-5.997-10.976c0 0-5.771-3.508-4.979-10.07 0 0-2.716-4.188-2.602-9.732 0 0-4.866-3.621-3.621-11.542 0 0-4.187-4.866-4.187-13.24 0 0-3.508-2.376-3.96-8.033 0 0 .452-5.658-1.811-9.28-2.263-3.62-3.055-9.052-3.055-9.052s.678-2.376-.453-4.073c-1.132-1.698-1.471-8.94-1.471-8.94l-1.81-20.368 3.168-2.942-1.019-7.807-4.073 10.07-2.49-4.752 3.96-7.129s1.472-.792 2.038-.113c0 0 1.358-2.829 3.168-2.716l1.471-14.258s-3.281-5.545-.226-14.145L26.61 28.227l10.184 2.263 1.358 13.692" fill="#0cf180" id="path9858" stroke="#000" stroke-miterlimit="10" stroke-width="1.273"/></g><g id="g10372" fill="#0cf180" stroke="#000" stroke-miterlimit="10" stroke-width="1.273"><path d="m56.598 216.97-2.376-.34-2.49-7.694-2.15-1.245-.113-6.337-3.734-2.942.792-1.81-1.471-5.092-2.603-3.96 1.132-4.98-2.942-4.073-.113-3.282-.227-1.47-2.715-5.093-3.282-3.508.906-6.45s-4.64-3.734-3.508-11.088c0 0-3.848-4.3-3.055-12.674l-.227-2.264-1.018-13.126-1.019-7.581" id="path9993"/><path d="m59.653 211.43-4.074-3.847-.792-7.242-2.15-.566-2.715-4.3-.114-2.263-1.697-1.81v-5.432l-1.358-3.621-1.131-1.358-.227-3.055-1.584-3.734-1.471-3.735-1.358-2.15v-1.244l-1.81-4.413-.453-5.206-1.81-4.526-2.716-5.205 1.244-1.924-2.15-4.752-.905-7.695-.679-9.165-2.49-4.3.793-3.621-1.018-3.282.565-5.658-.905-4.186-.679-3.621" id="path9995"/><path d="m61.463 206.22-6.676-5.884-.792-7.242-1.358-1.584-.792-6.224" id="path9997"/><path d="m25.366 104.16-.566-1.924" id="path10205"/><path d="m49.808 193.21 2.829-1.697" id="path10259"/><path d="m53.995 193.1 2.716-1.131" id="path10261"/></g><g id="g10323" fill="#0cf180" stroke="#000" stroke-miterlimit="10" stroke-width="1.273"><path d="m29.214 71.114 8.94-.113" id="path10199"/><path d="m29.44 85.259 8.713.113" id="path10201"/><path d="m27.969 99.517 10.976.34" id="path10203"/><path d="m29.553 107.32 9.731-.226" id="path10209"/><path d="m30.006 116.26 10.184-1.697" id="path10211"/><path d="m31.703 124.18 8.89-.726" id="path10217"/><path d="m32.495 132.56 8.419.342" id="path10219"/><path d="m33.287 141.04 8.267-1.103" id="path10225"/><path d="m35.437 145.8 6.757-.575" id="path10227"/><path d="m36.908 152.93 8.806-1.463" id="path10229"/><path d="m38.719 157.45 7.476.892" id="path10231"/><path d="m39.172 162.66 8.304-1.112" id="path10235"/><path d="m40.982 167.07 7.808-.34" id="path10237"/><path d="m42.34 170.47 6.896-.759" id="path10243"/><path d="m43.924 173.86 6.271-.153" id="path10245"/><path d="m45.395 177.93 5.884-.453" id="path10251"/><path d="m45.621 180.99 7.129.226" id="path10253"/><path d="m48.111 185.97 3.734-.679h2.942" id="path10257"/></g><g id="g10286" fill="#0cf180" stroke="#000" stroke-miterlimit="10" stroke-width="1.273"><path d="m25.14 135.16 3.055-1.924" id="path10223"/><path d="m31.816 166.62 2.49-1.471" id="path10239"/><path d="m35.777 174.65 4.753.566" id="path10249"/><path d="m46.187 209.16 3.395-1.471" id="path10271"/><path d="m43.585 199.43 2.15-1.018" id="path10273"/><path d="m39.964 187.89 2.49-.34" id="path10275"/><path d="m51.166 219.24 3.055-2.603" id="path10277"/></g><g id="g10303" fill="#0cf180" stroke="#000" stroke-miterlimit="10" stroke-width="1.273"><path d="m25.819 105.29 2.376-2.15" id="path10207"/><path d="m28.987 112.98-2.376.566" id="path10213"/><path d="m29.214 119.88-2.037-.566" id="path10215"/><path d="m28.195 133.24 4.3-.679" id="path10221"/><path d="m35.211 158.7 3.508-1.245" id="path10233"/><path d="m37.587 168.66 3.395-1.584" id="path10241"/><path d="m40.529 175.22 3.395-1.358" id="path10247"/><path d="m43.585 182.57 2.037-1.584" id="path10255"/><path d="m45.056 191.51 3.055-.113" id="path10263"/><path d="m46.527 196.6 3.395-1.132" id="path10265"/><path d="m49.469 201.36 3.168-1.584" id="path10267"/><path d="m51.732 208.94 3.847-1.358" id="path10269"/><path d="m31.703 147.61 2.49.113" id="path10288"/></g><g id="WT"><path d="M157.49 63.914c3.25 16.257-4.716 44.983-4.716 44.983-18.883 49.288-7.322-.32-7.322-.32 7.642-18.563 6.011-37.755 4.238-46.432l3.244.504s2.88 16.323.16 27.365c0 0-3.821 12.046-6.881 26.725 0 0 5.198-12.915 7.841-25.924 0 0 4.16-15.523.48-27.365l2.956.465" fill="none" id="path9852" stroke="#000" stroke-miterlimit="10" stroke-width="1.273"/></g><g id="cpc-try"><path d="M182.45 63.914c3.25 16.257-4.716 44.983-4.716 44.983-18.883 49.288-7.322-.32-7.322-.32 7.642-18.563 6.011-37.755 4.238-46.432l3.244.504s2.88 16.323.16 27.365c0 0-3.821 12.046-6.881 26.725 0 0 5.198-12.915 7.841-25.924 0 0 4.16-15.523.48-27.365l2.956.465" fill="none" id="path11866" stroke="#000" stroke-miterlimit="10" stroke-width="1.273"/></g><g id="gl3-egl3"><path d="M208.38 63.914c3.25 16.257-4.716 44.983-4.716 44.983-18.883 49.288-7.322-.32-7.322-.32 7.642-18.563 6.011-37.755 4.238-46.432l3.244.504s2.88 16.323.16 27.365c0 0-3.821 12.046-6.881 26.725 0 0 5.198-12.915 7.841-25.924 0 0 4.16-15.523.48-27.365l2.956.465" fill="none" id="path11876" stroke="#000" stroke-miterlimit="10" stroke-width="1.273"/></g><g id="ttg"><path d="M233.34 63.914c3.25 16.257-4.716 44.983-4.716 44.983-18.883 49.288-7.322-.32-7.322-.32 7.642-18.563 6.011-37.755 4.238-46.432l3.244.504s2.88 16.323.16 27.365c0 0-3.821 12.046-6.881 26.725 0 0 5.198-12.915 7.841-25.924 0 0 4.16-15.523.48-27.365l2.956.465" fill="none" id="path11886" stroke="#000" stroke-miterlimit="10" stroke-width="1.273"/></g><g id="wer-myb23"><path d="M261.51 63.914c3.25 16.257-4.716 44.983-4.716 44.983-18.883 49.288-7.322-.32-7.322-.32 7.642-18.563 6.011-37.755 4.238-46.432l3.244.504s2.88 16.323.16 27.365c0 0-3.821 12.046-6.881 26.725 0 0 5.198-12.915 7.841-25.924 0 0 4.16-15.523.48-27.365l2.956.465" fill="none" id="path11924" stroke="#000" stroke-miterlimit="10" stroke-width="1.273"/></g><g id="cow1"><path d="M286.47 63.914c3.25 16.257-4.716 44.983-4.716 44.983-18.883 49.288-7.322-.32-7.322-.32 7.642-18.563 6.011-37.755 4.238-46.432l3.244.504s2.88 16.323.16 27.365c0 0-3.821 12.046-6.881 26.725 0 0 5.198-12.915 7.841-25.924 0 0 4.16-15.523.48-27.365l2.956.465" fill="none" id="path11934" stroke="#000" stroke-miterlimit="10" stroke-width="1.273"/></g><g id="mrh1"><path d="M312.39 63.914c3.25 16.257-4.716 44.983-4.716 44.983-18.883 49.288-7.322-.32-7.322-.32 7.642-18.563 6.011-37.755 4.238-46.432l3.244.504s2.88 16.323.16 27.365c0 0-3.821 12.046-6.881 26.725 0 0 5.198-12.915 7.841-25.924 0 0 4.16-15.523.48-27.365l2.956.465" fill="none" id="path11944" stroke="#000" stroke-miterlimit="10" stroke-width="1.273"/></g><g id="mrh2"><path d="M337.36 63.914c3.25 16.257-4.716 44.983-4.716 44.983-18.883 49.288-7.322-.32-7.322-.32 7.642-18.563 6.011-37.755 4.238-46.432l3.244.504s2.88 16.323.16 27.365c0 0-3.821 12.046-6.881 26.725 0 0 5.198-12.915 7.841-25.924 0 0 4.16-15.523.48-27.365l2.956.465" fill="none" id="path11954" stroke="#000" stroke-miterlimit="10" stroke-width="1.273"/></g><g id="mrh3"><path d="M367.44 63.914c3.25 16.257-4.716 44.983-4.716 44.983-18.883 49.288-7.322-.32-7.322-.32 7.642-18.563 6.011-37.755 4.238-46.432l3.244.504s2.88 16.323.16 27.365c0 0-3.821 12.046-6.881 26.725 0 0 5.198-12.915 7.841-25.924 0 0 4.16-15.523.48-27.365l2.956.465" fill="none" id="path11964" stroke="#000" stroke-miterlimit="10" stroke-width="1.273"/></g><g id="ire"><path d="M392.41 63.914c3.25 16.257-4.716 44.983-4.716 44.983-18.883 49.288-7.322-.32-7.322-.32 7.642-18.563 6.011-37.755 4.238-46.432l3.244.504s2.88 16.323.16 27.365c0 0-3.821 12.046-6.881 26.725 0 0 5.198-12.915 7.841-25.924 0 0 4.16-15.523.48-27.365l2.956.465" fill="none" id="path11974" stroke="#000" stroke-miterlimit="10" stroke-width="1.273"/></g><g id="bhlh66"><path d="M418.33 63.914c3.25 16.257-4.716 44.983-4.716 44.983-18.883 49.288-7.322-.32-7.322-.32 7.642-18.563 6.011-37.755 4.238-46.432l3.244.504s2.88 16.323.16 27.365c0 0-3.821 12.046-6.881 26.725 0 0 5.198-12.915 7.841-25.924 0 0 4.16-15.523.48-27.365l2.956.465" fill="none" id="path11984" stroke="#000" stroke-miterlimit="10" stroke-width="1.273"/></g><g id="myc1"><path d="M443.3 63.914c3.25 16.257-4.716 44.983-4.716 44.983-18.883 49.288-7.322-.32-7.322-.32 7.642-18.563 6.011-37.755 4.238-46.432l3.244.504s2.88 16.323.16 27.365c0 0-3.821 12.046-6.881 26.725 0 0 5.198-12.915 7.841-25.924 0 0 4.16-15.523.48-27.365l2.956.465" fill="none" id="path11994" stroke="#000" stroke-miterlimit="10" stroke-width="1.273"/></g><g id="cobl9"><path d="M471.46 63.914c3.25 16.257-4.716 44.983-4.716 44.983-18.883 49.288-7.322-.32-7.322-.32 7.642-18.563 6.011-37.755 4.238-46.432l3.244.504s2.88 16.323.16 27.365c0 0-3.821 12.046-6.881 26.725 0 0 5.198-12.915 7.841-25.924 0 0 4.16-15.523.48-27.365l2.956.465" fill="none" id="path12004" stroke="#000" stroke-miterlimit="10" stroke-width="1.273"/></g><g id="gl3"><path d="M496.43 63.914c3.25 16.257-4.716 44.983-4.716 44.983-18.883 49.288-7.322-.32-7.322-.32 7.642-18.563 6.011-37.755 4.238-46.432l3.244.504s2.88 16.323.16 27.365c0 0-3.821 12.046-6.881 26.725 0 0 5.198-12.915 7.841-25.924 0 0 4.16-15.523.48-27.365l2.956.465" fill="none" id="path12014" stroke="#000" stroke-miterlimit="10" stroke-width="1.273"/></g><g id="lrx1"><path d="M522.35 63.914c3.25 16.257-4.716 44.983-4.716 44.983-18.883 49.288-7.322-.32-7.322-.32 7.642-18.563 6.011-37.755 4.238-46.432l3.244.504s2.88 16.323.16 27.365c0 0-3.821 12.046-6.881 26.725 0 0 5.198-12.915 7.841-25.924 0 0 4.16-15.523.48-27.365l2.956.465" fill="none" id="path12024" stroke="#000" stroke-miterlimit="10" stroke-width="1.273"/></g><g id="csld3"><path d="M547.31 63.914c3.25 16.257-4.716 44.983-4.716 44.983-18.883 49.288-7.322-.32-7.322-.32 7.642-18.563 6.011-37.755 4.238-46.432l3.244.504s2.88 16.323.16 27.365c0 0-3.821 12.046-6.881 26.725 0 0 5.198-12.915 7.841-25.924 0 0 4.16-15.523.48-27.365l2.956.465" fill="none" id="path12034" stroke="#000" stroke-miterlimit="10" stroke-width="1.273"/></g><g id="gl2"><path d="M578.36 63.914c3.25 16.257-4.716 44.983-4.716 44.983-18.883 49.288-7.322-.32-7.322-.32 7.642-18.563 6.011-37.755 4.238-46.432l3.244.504s2.88 16.323.16 27.365c0 0-3.821 12.046-6.881 26.725 0 0 5.198-12.915 7.841-25.924 0 0 4.16-15.523.48-27.365l2.956.465" fill="none" id="path12044" stroke="#000" stroke-miterlimit="10" stroke-width="1.273"/></g><g id="rhd2"><path d="M606.52 63.914c3.25 16.257-4.716 44.983-4.716 44.983-18.883 49.288-7.322-.32-7.322-.32 7.642-18.563 6.011-37.755 4.238-46.432l3.244.504s2.88 16.323.16 27.365c0 0-3.821 12.046-6.881 26.725 0 0 5.198-12.915 7.841-25.924 0 0 4.16-15.523.48-27.365l2.956.465" fill="none" id="path12054" stroke="#000" stroke-miterlimit="10" stroke-width="1.273"/></g><g id="rhd6"><path d="M631.49 63.914c3.25 16.257-4.716 44.983-4.716 44.983-18.883 49.288-7.322-.32-7.322-.32 7.642-18.563 6.011-37.755 4.238-46.432l3.244.504s2.88 16.323.16 27.365c0 0-3.821 12.046-6.881 26.725 0 0 5.198-12.915 7.841-25.924 0 0 4.16-15.523.48-27.365l2.956.465" fill="none" id="path12064" stroke="#000" stroke-miterlimit="10" stroke-width="1.273"/></g><g id="cpc"><path d="M657.41 63.914c3.25 16.257-4.716 44.983-4.716 44.983-18.883 49.288-7.322-.32-7.322-.32 7.642-18.563 6.011-37.755 4.238-46.432l3.244.504s2.88 16.323.16 27.365c0 0-3.821 12.046-6.881 26.725 0 0 5.198-12.915 7.841-25.924 0 0 4.16-15.523.48-27.365l2.956.465" fill="none" id="path12074" stroke="#000" stroke-miterlimit="10" stroke-width="1.273"/></g><g id="egl3"><path d="M682.38 63.914c3.25 16.257-4.716 44.983-4.716 44.983-18.883 49.288-7.322-.32-7.322-.32 7.642-18.563 6.011-37.755 4.238-46.432l3.244.504s2.88 16.323.16 27.365c0 0-3.821 12.046-6.881 26.725 0 0 5.198-12.915 7.841-25.924 0 0 4.16-15.523.48-27.365l2.956.465" fill="none" id="path12084" stroke="#000" stroke-miterlimit="10" stroke-width="1.273"/></g><g id="myb23"><path d="M712.46 63.914c3.25 16.257-4.716 44.983-4.716 44.983-18.883 49.288-7.322-.32-7.322-.32 7.642-18.563 6.011-37.755 4.238-46.432l3.244.504s2.88 16.323.16 27.365c0 0-3.821 12.046-6.881 26.725 0 0 5.198-12.915 7.841-25.924 0 0 4.16-15.523.48-27.365l2.956.465" fill="none" id="path12094" stroke="#000" stroke-miterlimit="10" stroke-width="1.273"/></g><g id="try"><path d="M737.43 63.914c3.25 16.257-4.716 44.983-4.716 44.983-18.883 49.288-7.322-.32-7.322-.32 7.642-18.563 6.011-37.755 4.238-46.432l3.244.504s2.88 16.323.16 27.365c0 0-3.821 12.046-6.881 26.725 0 0 5.198-12.915 7.841-25.924 0 0 4.16-15.523.48-27.365l2.956.465" fill="none" id="path12104" stroke="#000" stroke-miterlimit="10" stroke-width="1.273"/></g><g id="wer"><path d="M763.35 63.914c3.25 16.257-4.716 44.983-4.716 44.983-18.883 49.288-7.322-.32-7.322-.32 7.642-18.563 6.011-37.755 4.238-46.432l3.244.504s2.88 16.323.16 27.365c0 0-3.821 12.046-6.881 26.725 0 0 5.198-12.915 7.841-25.924 0 0 4.16-15.523.48-27.365l2.956.465" fill="none" id="path12114" stroke="#000" stroke-miterlimit="10" stroke-width="1.273"/></g><g id="ttg2"><path d="M788.32 63.914c3.25 16.257-4.716 44.983-4.716 44.983-18.883 49.288-7.322-.32-7.322-.32 7.642-18.563 6.011-37.755 4.238-46.432l3.244.504s2.88 16.323.16 27.365c0 0-3.821 12.046-6.881 26.725 0 0 5.198-12.915 7.841-25.924 0 0 4.16-15.523.48-27.365l2.956.465" fill="none" id="path12124" stroke="#000" stroke-miterlimit="10" stroke-width="1.273"/></g><g id="ttg2-cpc"><path d="M816.48 63.914c3.25 16.257-4.716 44.983-4.716 44.983-18.883 49.288-7.322-.32-7.322-.32 7.642-18.563 6.011-37.755 4.238-46.432l3.244.504s2.88 16.323.16 27.365c0 0-3.821 12.046-6.881 26.725 0 0 5.198-12.915 7.841-25.924 0 0 4.16-15.523.48-27.365l2.956.465" fill="none" id="path12134" stroke="#000" stroke-miterlimit="10" stroke-width="1.273"/></g><g id="rhd6-MS"><path d="M841.44 63.914c3.25 16.257-4.716 44.983-4.716 44.983-18.883 49.288-7.322-.32-7.322-.32 7.642-18.563 6.011-37.755 4.238-46.432l3.244.504s2.88 16.323.16 27.365c0 0-3.821 12.046-6.881 26.725 0 0 5.198-12.915 7.841-25.924 0 0 4.16-15.523.48-27.365l2.956.465" fill="none" id="path12144" stroke="#000" stroke-miterlimit="10" stroke-width="1.273"/></g><g id="rhd6-IAA"><path d="M867.37 63.914c3.25 16.257-4.716 44.983-4.716 44.983-18.883 49.288-7.322-.32-7.322-.32 7.642-18.563 6.011-37.755 4.238-46.432l3.244.504s2.88 16.323.16 27.365c0 0-3.821 12.046-6.881 26.725 0 0 5.198-12.915 7.841-25.924 0 0 4.16-15.523.48-27.365l2.956.465" fill="none" id="path12154" stroke="#000" stroke-miterlimit="10" stroke-width="1.273"/></g><g id="rhd6-ACC"><path d="M892.33 63.914c3.25 16.257-4.716 44.983-4.716 44.983-18.883 49.288-7.322-.32-7.322-.32 7.642-18.563 6.011-37.755 4.238-46.432l3.244.504s2.88 16.323.16 27.365c0 0-3.821 12.046-6.881 26.725 0 0 5.198-12.915 7.841-25.924 0 0 4.16-15.523.48-27.365l2.956.465" fill="none" id="path12164" stroke="#000" stroke-miterlimit="10" stroke-width="1.273"/></g><g id="g2856" fill-rule="evenodd" stroke="#000" stroke-miterlimit="10" stroke-width=".5"><path d="M194.11 282.54c0 16.323-13.232 29.555-29.555 29.555S135 298.863 135 282.54a29.556 29.556 0 0 1 29.555-29.555c16.323 0 29.555 13.232 29.555 29.555" fill="#fff" id="path2199-3"/><path d="M194.11 282.54c0 16.323-13.232 29.555-29.555 29.555S135 298.863 135 282.54a29.556 29.556 0 0 1 29.555-29.555c16.323 0 29.555 13.232 29.555 29.555" fill="#fff594" id="circle2201-4"/><path d="M185.57 282.54c0 11.605-9.407 21.012-21.012 21.012a21.014 21.014 0 0 1-14.858-35.87 21.012 21.012 0 0 1 14.858-6.155c11.605 0 21.012 9.408 21.012 21.012" fill="#fff" id="circle2203-2"/></g></svg>