<svg xmlns="http://www.w3.org/2000/svg" id="RootEpidermis_svg" viewBox="0 0 910 325"><g id="g11762"><path d="M87.263 220.71c4.4131-4.7526 2.7157-6.4499 2.7157-6.4499l-4.0736-3.3947-.45262-3.5079-3.7342-2.1499.22631-3.0553-1.471-3.0552 4.2999-3.9604 1.3579-4.6394 2.0368-4.1868 1.0184-5.2052.45262-3.621 1.471-2.2631-.33947-1.6974 1.2447-1.9236v-3.0553l.90525-3.2815.33947-3.7341.22631-2.4895.33947-1.9236-1.471-1.3579 1.2447-1.8105.11316-2.3763-.22631-2.9421 1.471-1.9236v-1.2447l2.15-1.6973.11316-2.6026-.33947-4.6394-.90525-3.5078 1.0184-4.1868-.79209-4.0736 2.0368-3.0552-1.6973-1.8105.22631-3.5078 2.7158-2.8289-2.2631-3.2815 1.3579-2.7158-.90525-1.6973v-5.2052l.90525-.79209-1.8105-13.352.79209-2.0368-1.2447-11.768 1.1316-1.5842-5.2052-31.571-6.6802-.099v4.0007l-1.6003.96016-.64011 8.9615-4.0007.16003-.16003-11.042-3.6806.16003.80014 2.2404-2.8805.48008v-4.6408l-2.4004.16002-1.6003 10.722 1.1202-30.565h-7.2012v14.402l-3.2005.48008.48008 7.8413-2.7205-.32005v1.7603l-3.6806-.32005-.48008 12.322-.64011-4.6408-1.7603-.48008-.32005-11.362-4.9608-.16003-.16003 3.6806-7.7217-.0624.22631 26.026.22631 14.71.67894 14.031.45262 6.5631-.45262 1.5842 2.0368 4.7526-1.1316 2.7158.40404 3.7717v5.1209l2.0804 5.601-1.7603 3.8406 1.6003 3.3606-.96016 3.6806 1.7603 1.4402-1.1202 3.8406 2.4004 1.2802.64011 3.2006.48008 1.7603.96016 1.7603.16003 2.8804-.64011 2.2404 1.4402 1.4403-.16003 1.7603 1.6003 3.8406.16003 2.4004v1.9203l.96016 1.2803v2.7204l1.4231 1.8501-.33947 1.9237 1.5842 3.5078 1.9237 4.3 1.0184 1.2447.79209 3.8473.11316 1.5842 2.0368 4.6394 3.3947 3.2815.33947 5.8841-1.0184.4527-1.8105 5.2052-3.0552 5.5446 2.7158 1.0184 1.0184 1.9237-3.1684 10.297.23345 2.3854 6.081 4.1607s-7.6813-.4801-5.2809 11.522c0 0 4.4808 6.4011 7.6813 2.4004 0 0 14.402 9.7617 14.242 2.2404 0 0 3.6451.7046 6.4633-1.8881l-1.0184-14.71 3.7342-1.0184 3.2815-8.9393-5.3183-5.6578" fill="none" id="path9856" stroke="#000000" stroke-miterlimit="10" stroke-width="1.2728"/><path d="M63.478 236.76l4.7748 4.2037 8.2604-1.471 3.1684.7921 5.8841-3.9605" fill="none" id="path9912" stroke="#000000" stroke-miterlimit="10" stroke-width="1.2728"/><path d="M60.332 219.91l7.5815 3.3947 7.6946.4526 5.092.2263 1.3579-3.621 5.2052.3395" fill="none" id="path9914" stroke="#000000" stroke-miterlimit="10" stroke-width="1.2728"/><path d="M59.653 211.43l3.8473 1.471 2.8289.9052 3.0552 1.1316 5.3183-1.471 4.2999-.7921 6.9025-1.8105" fill="none" id="path9916" stroke="#000000" stroke-miterlimit="10" stroke-width="1.2728"/><path d="M62.482 205.77s2.7157-.3394 3.7342 1.3579l5.3183-.6789 5.2052-.679 4.9789-.5657" fill="none" id="path9938" stroke="#000000" stroke-miterlimit="10" stroke-width="1.2728"/><path d="M45.875 44.246l1.2176 26.982-.11316 13.579.45263 15.276.79209 4.9789.33947 6.2236v2.15l2.15 3.2815-1.0184 1.5842-.11316 3.8473-.11316 1.1316.67894 3.1684-1.1316 2.8289 2.2631 3.7342-1.0184 3.2815 1.6973 4.7526-.11316 3.8473 1.0184 1.3579-.22631 2.8289 1.0184 2.9421.79209 2.0368-1.9237 2.15 1.471 3.1684-.45263 2.2631 1.471 1.3579-1.3579 2.6026 1.2447 2.0368-.33947 1.1316-.11316 1.9236 1.0184 1.8105v3.2815l1.8105 2.7158.56578 2.6026 1.1316 2.942-.11316 2.2632 1.1316 1.2447-1.2447 2.3763 2.4894 2.8289.22631 2.4894 2.4894 2.15s1.9237 3.1684 2.3763 3.0552c.45263-.1132 4.2999 0 4.2999 0l4.7526-.4526 3.7342-1.0184 2.0368-5.3184 1.5842-3.621 1.2447-4.0736.90525-4.6394v-4.4131l1.1316-3.8473-.22631-2.15v-1.5842l-.11316-3.9604.33947-3.2816-.22631-3.1683-.45262-1.8105 1.5842-1.3579v-3.621l-.90525-.7921.90525-2.0368-.11316-4.0736-.56578-2.15.90525-2.0368.56578-3.9605-.22631-3.3947v-4.4131l.11316-5.4315-1.2447-2.2631 1.471-1.471-.33947-3.0552.56578-6.3368-.90525-2.2631.67894-2.3763-1.0184-2.6026.67894-1.8105.22631-1.5842-1.3579-8.5999 2.4894-5.771.22631-13.013-.56578-6.9025-2.0368.45262-.90925-22.803" fill="none" id="path9946" stroke="#000000" stroke-miterlimit="10" stroke-width="1.2728"/><path d="M51.316 52.087l.52924 18.122 1.3579 13.466-.79209 2.0368-.11316 15.389v4.0736l.45263 6.7894 1.6973 2.15s-.79209 2.0368-.79209 2.7158v8.8262l.79209 1.471-.11316 5.092 1.471 5.5447-.56578 3.0552v4.7526l1.1316.33947v7.9209l1.471 2.0369-.33947 3.3946v3.3947l.79209 3.621-.56578 1.9237.79209 3.621.7921 1.471.45262 4.1868-.11316 1.8105 1.2447 3.7341.79209 2.6026v1.4711l.67894 1.8105.33947 3.0552 1.1316 1.3579.33947.1131 1.0184 2.15 3.1684-.3395 4.1868.9053 1.3579-.679 2.9421-.1131 2.2631-.9053.67894-2.8289 1.2447-1.8105.67894-3.7341.33947-3.0553.67894-2.0368-.22631-4.0736.22631-1.3579-.79209-4.1867.90525-1.0185v-4.2999l-.45262-5.5446.11316-3.2816.11316-2.6026v-3.5078l-.22631-3.1684.45262-4.6394-.33947-1.5842.11316-4.7526.90525-1.3579-.56578-3.8473 1.0184-2.6026-.56578-4.2999 1.471-2.6026-1.6973-3.0552 1.6973-2.3763-1.6973-1.9237.56578-4.2999-.11316-5.4315v-4.6394s.33947-8.5999.33947-9.5051v-7.0157l-.56578-13.692.11316-2.4894-.20757-14.466" fill="none" id="path9969" stroke="#000000" stroke-miterlimit="10" stroke-width="1.2728"/><path d="M79.321 53.527l.7004 15.89-.22631 6.7894.45262 8.4867-1.0184 2.0368 1.1316 14.258-.22631 2.4894-.90525 7.8078.79209 3.2815-.45262 3.8473 1.1316 1.5842v4.9789l-.45262 4.4131.45262 2.15-.22631 4.8657-1.2447 3.2815 1.3579 2.2631-.67894 3.1684.56578 2.9421-.22631 2.9421.22631 3.1684-.56578 3.1684.67894 3.7341.22631 3.621-.11316 6.5631-.33947 5.2052v3.621l-.22631 2.2631-.79209 3.2815-.33947 4.7526-1.471 1.9237-2.7157.792-1.0184 1.1316-1.2447-1.2447-2.3763-.3395-1.9237.9053-1.471-1.5842-1.0184-2.9421-1.2447-.5658v-3.8473l-1.3579-1.2447.67894-2.9421-1.3579-2.2631.22631-3.3947-1.1316-1.6973.45262-5.771-2.0368-2.2631.90525-3.5078-.90525-5.4315.45262-1.1316v-3.9605l-1.471-5.2052-.56578-7.9209-.67894-5.771-.90525-5.3183.67894-1.9237-.7921-6.6762v-9.8446l-.67894-22.858-1.471-20.142-.84458-8.1356" fill="none" id="path9971" stroke="#000000" stroke-miterlimit="10" stroke-width="1.2728"/><path d="M76.28 44.886l-.1064 21.816.22631 5.9973.45262 13.918-.67894 3.621.67894 11.316-.22631 2.6026-.11316 6.2236-.90525 3.9605 1.8105 3.3947-1.0184 7.3552.11316 3.621-.67894 4.1868v5.8841l1.0184 1.3579-1.5842 3.1684.90525 2.3763-.67894 5.3183-.45262 1.9237.45262 5.771.56578 6.3367-.90064 2.0323.48008 4.1607-.32005 2.4804v3.0405l-1.4402 1.1202.08001 4.4808-1.8403 2.8805-.40007 3.0405-3.2806.9601-1.6003-1.6002-.88015-3.6006.32005-3.9207-1.6803-.6401.25996-4.1372-1.2447-1.9236.11316-5.9973.56578-2.4895-1.0184-3.2815.33947-4.7525-1.3579-1.6974.45262-3.8473-.90525-.56578-.56578-6.1104.56578-3.8473-.79209-2.8289s.67894-2.6026.79209-3.0552c.11316-.45262-1.8105-2.2631-1.8105-2.2631l.56578-7.8078-.67894-7.4683.11316-2.0368-.90525-1.3579.11316-4.9789v-22.518l-.79209-.90524 1.0184-13.579-1.6973-1.1316v-5.5447l.14775-20.138" fill="none" id="path9973" stroke="#000000" stroke-miterlimit="10" stroke-width="1.2728"/><path d="M73.4 45.366l-.16003 18.483.80014 2.8005-1.1202 18.483.72012 7.9213v8.8815l.64011 2.2404-.40007 9.7616-.72012 8.1614.40007 2.8805-.48008 6.9612-.16003 6.161 1.0402.64011-.32005 3.6006-.48008 9.6816-.64011 2.5604.48008 4.7208-.40007 6.161.48008 1.2802-.48008 5.921-1.4402 3.1206-.32005 4.4007-1.2002.4801-2.1604-.6401-.48008-3.9207-1.2002-1.6003v-8.7214l-.08001-8.5615-.24004-5.2008-1.2002-1.4402-.32005-9.4416.16003-6.2411-1.1202-8.6415-.48008-11.362-.16003-8.6415-.48008-20.083v-5.761l-.40007-9.1215-.96016-13.122.08001-14.402" fill="none" id="path9983" stroke="#000000" stroke-miterlimit="10" stroke-width="1.2728"/><path d="M69.399 51.607l.16003 10.802 1.3602 2.0003v21.524l-1.2802 1.2802-.40007 18.243.80014 8.0814-.48008 5.601.24004 2.5604-.08001 9.0415.48008 8.4814-.40007 6.7211.24004 9.2016.48008 5.0408-.5601 6.1611-.16003 6.081-1.5203-5.761v-6.081l-.96016-3.9207-.48008-4.4007-.16003-5.841-.32006-6.001.48008-1.0402-.48008-4.4808.72012-1.8403-.56009-8.0014-1.4402-.56009.64011-5.1209-.08001-4.2407-1.0402-.16002v-8.6415l-.32005-1.4402.5601-17.923-.24004-6.4011.5601-18.723-.48008-3.4406-.08001-22.484-1.2802-.48004" fill="none" id="path9985" stroke="#000000" stroke-miterlimit="10" stroke-width="1.2728"/><path d="M69.559 62.409l-4.4007-.56009" fill="none" id="path11451" stroke="#000000" stroke-miterlimit="10" stroke-width="1.2728"/><path d="M69.639 87.213l-4.8008-.24004" fill="none" id="path11453" stroke="#000000" stroke-miterlimit="10" stroke-width="1.2728"/><path d="M69.239 105.46l-4.6408.88015" fill="none" id="path11455" stroke="#000000" stroke-miterlimit="10" stroke-width="1.2728"/><path d="M69.559 119.14l-3.8406.24004" fill="none" id="path11457" stroke="#000000" stroke-miterlimit="10" stroke-width="1.2728"/><path d="M69.158 131.88l-2.0795 1.1813" fill="none" id="path11459" stroke="#000000" stroke-miterlimit="10" stroke-width="1.2728"/><path d="M70.199 139.22l-3.8407 1.2002" fill="none" id="path11461" stroke="#000000" stroke-miterlimit="10" stroke-width="1.2728"/><path d="M69.799 145.94l-3.2436.081" fill="none" id="path11463" stroke="#000000" stroke-miterlimit="10" stroke-width="1.2728"/><path d="M70.039 155.14l-2.7205 1.5202" fill="none" id="path11465" stroke="#000000" stroke-miterlimit="10" stroke-width="1.2728"/><path d="M70.519 160.19l-2.2404.4001" fill="none" id="path11467" stroke="#000000" stroke-miterlimit="10" stroke-width="1.2728"/></g><g id="g9880"><path d="M82.624 264.84s-6.2236-2.2631-5.2052 5.8841c0 0 7.8078 8.1473 8.2604-1.2447 0 0 8.2604-5.6578.90525-14.144 0 0-4.7526 2.3763-3.9605 9.5051" fill="none" id="path9872" stroke="#000000" stroke-miterlimit="10" stroke-width="1.2728"/><path d="M82.624 264.84s3.1684 1.6974 3.0552 4.6394" fill="none" id="path9874" stroke="#000000" stroke-miterlimit="10" stroke-width="1.2728"/></g><g id="g9884"><path d="M57.39 261.67s1.6973-9.8446 9.2788-7.1288c0 0 2.2631 3.3947 1.3579 6.2236 0 0 6.1104-8.4868 8.5999-.2264 0 0 .11316 12.447-5.4315 8.3736 0 0-2.2631-1.9236-2.3763-3.5078 0 0-5.4315 10.863-11.429-3.7342" fill="none" id="path9870" stroke="#000000" stroke-miterlimit="10" stroke-width="1.2728"/><path d="M68.026 260.76l.7921 4.6394" fill="none" id="path9876" stroke="#000000" stroke-miterlimit="10" stroke-width="1.2728"/></g><g id="g9958"><path d="M59.313 217.99l4.4131-5.092" fill="none" id="path9918" stroke="#000000" stroke-miterlimit="10" stroke-width="1.2728"/><path d="M64.066 221.39l2.4894-7.4683" fill="none" id="path9920" stroke="#000000" stroke-miterlimit="10" stroke-width="1.2728"/><path d="M69.384 214.94l-1.471 8.3736" fill="none" id="path9922" stroke="#000000" stroke-miterlimit="10" stroke-width="1.2728"/><path d="M74.703 213.46l.90525 10.297" fill="none" id="path9924" stroke="#000000" stroke-miterlimit="10" stroke-width="1.2728"/><path d="M82.058 220.37l-3.0552-7.6946" fill="none" id="path9926" stroke="#000000" stroke-miterlimit="10" stroke-width="1.2728"/></g><g id="g9963"><path d="M67.913 223.31l-4.4354 13.449" fill="none" id="path9928" stroke="#000000" stroke-miterlimit="10" stroke-width="1.2728"/><path d="M75.608 223.76s-.90525 8.5999.90525 15.729" fill="none" id="path9930" stroke="#000000" stroke-miterlimit="10" stroke-width="1.2728"/><path d="M80.7 223.99s.90525 6.3367 4.8657 12.334" fill="none" id="path9932" stroke="#000000" stroke-miterlimit="10" stroke-width="1.2728"/></g><g id="g9967"><path d="M68.253 240.96l-2.3744 9.7186" fill="none" id="path9934" stroke="#000000" stroke-miterlimit="10" stroke-width="1.2728"/><path d="M79.681 240.28l.4392 12.638" fill="none" id="path9936" stroke="#000000" stroke-miterlimit="10" stroke-width="1.2728"/></g><g id="g9951"><path d="M66.216 207.13l.33947 6.7894" fill="none" id="path9940" stroke="#000000" stroke-miterlimit="10" stroke-width="1.2728"/><path d="M72.553 206.34l2.15 7.1289" fill="none" id="path9942" stroke="#000000" stroke-miterlimit="10" stroke-width="1.2728"/><path d="M76.626 206l2.3763 6.6762" fill="none" id="path9944" stroke="#000000" stroke-miterlimit="10" stroke-width="1.2728"/></g><g id="g10592"><path d="M38.153 71.001l8.713-.45262" fill="none" id="path10425" stroke="#000000" stroke-miterlimit="10" stroke-width="1.2728"/><path d="M38.153 85.372l8.3736.22632" fill="none" id="path10427" stroke="#000000" stroke-miterlimit="10" stroke-width="1.2728"/><path d="M38.945 99.856l8.4867.22631" fill="none" id="path10429" stroke="#000000" stroke-miterlimit="10" stroke-width="1.2728"/><path d="M39.737 105.51l8.4867-.45263" fill="none" id="path10431" stroke="#000000" stroke-miterlimit="10" stroke-width="1.2728"/><path d="M41.321 111.85l7.242 1.5842" fill="none" id="path10433" stroke="#000000" stroke-miterlimit="10" stroke-width="1.2728"/><path d="M40.594 118.34l9.1011-.0376" fill="none" id="path10435" stroke="#000000" stroke-miterlimit="10" stroke-width="1.2728"/><path d="M40.594 123.46l8.8748-.17956" fill="none" id="path10437" stroke="#000000" stroke-miterlimit="10" stroke-width="1.2728"/><path d="M49.016 129.28l-6.3418-.21677" fill="none" id="path10439" stroke="#000000" stroke-miterlimit="10" stroke-width="1.2728"/><path d="M42.514 136.26l7.7465.0312" fill="none" id="path10441" stroke="#000000" stroke-miterlimit="10" stroke-width="1.2728"/><path d="M51.958 141.04l-8.6437.33706" fill="none" id="path10443" stroke="#000000" stroke-miterlimit="10" stroke-width="1.2728"/><path d="M44.595 146.5l7.2504-1.6106" fill="none" id="path10445" stroke="#000000" stroke-miterlimit="10" stroke-width="1.2728"/><path d="M52.637 149.08l-7.4024.62438" fill="none" id="path10447" stroke="#000000" stroke-miterlimit="10" stroke-width="1.2728"/><path d="M46.675 153.22l7.6595-.52397" fill="none" id="path10449" stroke="#000000" stroke-miterlimit="10" stroke-width="1.2728"/><path d="M52.524 156.21l-5.6889-.1034" fill="none" id="path10451" stroke="#000000" stroke-miterlimit="10" stroke-width="1.2728"/><path d="M47.635 159.79l6.3598-.4089" fill="none" id="path10453" stroke="#000000" stroke-miterlimit="10" stroke-width="1.2728"/><path d="M53.542 161.64l-6.0672-.094" fill="none" id="path10455" stroke="#000000" stroke-miterlimit="10" stroke-width="1.2728"/><path d="M49.075 165.39l4.5801.2138" fill="none" id="path10457" stroke="#000000" stroke-miterlimit="10" stroke-width="1.2728"/><path d="M54.9 167.64l-5.6648.1498" fill="none" id="path10459" stroke="#000000" stroke-miterlimit="10" stroke-width="1.2728"/><path d="M50.196 170.99l4.252-.2952" fill="none" id="path10461" stroke="#000000" stroke-miterlimit="10" stroke-width="1.2728"/><path d="M55.466 175.78l-3.8473-.2263" fill="none" id="path10463" stroke="#000000" stroke-miterlimit="10" stroke-width="1.2728"/><path d="M52.75 181.22l5.092-.1131" fill="none" id="path10465" stroke="#000000" stroke-miterlimit="10" stroke-width="1.2728"/><path d="M54.787 185.29l4.1868-1.2448" fill="none" id="path10467" stroke="#000000" stroke-miterlimit="10" stroke-width="1.2728"/><path d="M58.748 189.93l-2.15.4526" fill="none" id="path10469" stroke="#000000" stroke-miterlimit="10" stroke-width="1.2728"/><path d="M59.879 197.28l1.5842-2.0368" fill="none" id="path10471" stroke="#000000" stroke-miterlimit="10" stroke-width="1.2728"/></g><g id="g10599"><path d="M63.953 197.4l-1.8105 2.4894" fill="none" id="path10473" stroke="#000000" stroke-miterlimit="10" stroke-width="1.2728"/><path d="M66.329 200.79l-.11316 6.3367" fill="none" id="path10475" stroke="#000000" stroke-miterlimit="10" stroke-width="1.2728"/><path d="M70.629 200.45l.79209 5.4315" fill="none" id="path10477" stroke="#000000" stroke-miterlimit="10" stroke-width="1.2728"/><path d="M76.626 206l-1.2447-5.9973" fill="none" id="path10479" stroke="#000000" stroke-miterlimit="10" stroke-width="1.2728"/><path d="M79.116 198.98l1.3579.1131" fill="none" id="path10481" stroke="#000000" stroke-miterlimit="10" stroke-width="1.2728"/></g><g id="g10566"><path d="M84.66 193.55h-3.2815" fill="none" id="path10483" stroke="#000000" stroke-miterlimit="10" stroke-width="1.2728"/><path d="M82.737 190.04l3.3947.4527" fill="none" id="path10485" stroke="#000000" stroke-miterlimit="10" stroke-width="1.2728"/><path d="M88.168 186.31l-4.1868-.3395" fill="none" id="path10487" stroke="#000000" stroke-miterlimit="10" stroke-width="1.2728"/><path d="M84.887 181.33l4.2999-.2263" fill="none" id="path10489" stroke="#000000" stroke-miterlimit="10" stroke-width="1.2728"/><path d="M89.639 177.48l-4.7526-.5658" fill="none" id="path10491" stroke="#000000" stroke-miterlimit="10" stroke-width="1.2728"/><path d="M86.018 173.07l4.7526.4526" fill="none" id="path10493" stroke="#000000" stroke-miterlimit="10" stroke-width="1.2728"/><path d="M92.015 168.54l-6.4499.2264" fill="none" id="path10495" stroke="#000000" stroke-miterlimit="10" stroke-width="1.2728"/><path d="M85.679 165.37l7.242-.1132" fill="none" id="path10497" stroke="#000000" stroke-miterlimit="10" stroke-width="1.2728"/><path d="M93.034 161.19l-7.0157.9052" fill="none" id="path10499" stroke="#000000" stroke-miterlimit="10" stroke-width="1.2728"/><path d="M85.792 158.92l7.6946.1131" fill="none" id="path10501" stroke="#000000" stroke-miterlimit="10" stroke-width="1.2728"/><path d="M92.355 155.76h-5.4315" fill="none" id="path10503" stroke="#000000" stroke-miterlimit="10" stroke-width="1.2728"/><path d="M86.923 152.13l6.7894-.56578" fill="none" id="path10505" stroke="#000000" stroke-miterlimit="10" stroke-width="1.2728"/><path d="M93.487 148.63l-6.5631.67894" fill="none" id="path10507" stroke="#000000" stroke-miterlimit="10" stroke-width="1.2728"/><path d="M86.81 145.23l8.1472.2263" fill="none" id="path10509" stroke="#000000" stroke-miterlimit="10" stroke-width="1.2728"/><path d="M97.221 141.16l-10.071-.11314" fill="none" id="path10511" stroke="#000000" stroke-miterlimit="10" stroke-width="1.2728"/><path d="M87.716 137.08l9.1657-.56578" fill="none" id="path10513" stroke="#000000" stroke-miterlimit="10" stroke-width="1.2728"/><path d="M95.976 133.01l-8.4867.67894" fill="none" id="path10515" stroke="#000000" stroke-miterlimit="10" stroke-width="1.2728"/><path d="M87.829 129.05l9.1657-.22631" fill="none" id="path10517" stroke="#000000" stroke-miterlimit="10" stroke-width="1.2728"/><path d="M96.202 124.75l-8.5999-.90524" fill="none" id="path10519" stroke="#000000" stroke-miterlimit="10" stroke-width="1.2728"/><path d="M87.829 120.11l8.713-.22632" fill="none" id="path10521" stroke="#000000" stroke-miterlimit="10" stroke-width="1.2728"/><path d="M96.768 116.38l-9.2788-.67893" fill="none" id="path10525" stroke="#000000" stroke-miterlimit="10" stroke-width="1.2728"/><path d="M88.055 110.72l9.1657-.45262" fill="none" id="path10527" stroke="#000000" stroke-miterlimit="10" stroke-width="1.2728"/><path d="M97.673 105.85l-9.8446.22631" fill="none" id="path10529" stroke="#000000" stroke-miterlimit="10" stroke-width="1.2728"/><path d="M87.489 101.67l9.8446.56578" fill="none" id="path10531" stroke="#000000" stroke-miterlimit="10" stroke-width="1.2728"/><path d="M98.579 99.856l-10.863.22631" fill="none" id="path10533" stroke="#000000" stroke-miterlimit="10" stroke-width="1.2728"/><path d="M88.847 85.712l7.9209.79208" fill="none" id="path10535" stroke="#000000" stroke-miterlimit="10" stroke-width="1.2728"/><path d="M89.073 72.699l7.242-.00001" fill="none" id="path10537" stroke="#000000" stroke-miterlimit="10" stroke-width="1.2728"/></g><g id="g10783"><path d="M46.866 70.549l4.9789-.33947" fill="none" id="path10662" stroke="#000000" stroke-miterlimit="10" stroke-width="1.2728"/><path d="M46.527 85.598l5.8841.11315" fill="none" id="path10664" stroke="#000000" stroke-miterlimit="10" stroke-width="1.2728"/><path d="M47.432 100.08l4.5262 1.1316" fill="none" id="path10666" stroke="#000000" stroke-miterlimit="10" stroke-width="1.2728"/><path d="M48.224 105.06l4.0736.11316" fill="none" id="path10668" stroke="#000000" stroke-miterlimit="10" stroke-width="1.2728"/><path d="M48.224 111.51l4.5262.45262" fill="none" id="path10670" stroke="#000000" stroke-miterlimit="10" stroke-width="1.2728"/><path d="M50.713 116.72l2.4894.11316" fill="none" id="path10672" stroke="#000000" stroke-miterlimit="10" stroke-width="1.2728"/><path d="M49.582 122.15h4.0736" fill="none" id="path10676" stroke="#000000" stroke-miterlimit="10" stroke-width="1.2728"/><path d="M50.148 126.45l3.5078-.7921" fill="none" id="path10678" stroke="#000000" stroke-miterlimit="10" stroke-width="1.2728"/><path d="M51.279 133.01l3.0552-.7921" fill="none" id="path10680" stroke="#000000" stroke-miterlimit="10" stroke-width="1.2728"/><path d="M51.958 141.04l3.2815-.22631" fill="none" id="path10682" stroke="#000000" stroke-miterlimit="10" stroke-width="1.2728"/><path d="M52.863 146.25l2.3763-.67893" fill="none" id="path10684" stroke="#000000" stroke-miterlimit="10" stroke-width="1.2728"/><path d="M54.448 154.06l1.9237-.22631" fill="none" id="path10686" stroke="#000000" stroke-miterlimit="10" stroke-width="1.2728"/><path d="M53.995 159.38l3.5078-.1132" fill="none" id="path10688" stroke="#000000" stroke-miterlimit="10" stroke-width="1.2728"/><path d="M55.013 163l2.4894-.3395" fill="none" id="path10690" stroke="#000000" stroke-miterlimit="10" stroke-width="1.2728"/><path d="M54.9 167.64l2.8289.5658" fill="none" id="path10692" stroke="#000000" stroke-miterlimit="10" stroke-width="1.2728"/><path d="M55.466 172.5l3.0552-.6789" fill="none" id="path10694" stroke="#000000" stroke-miterlimit="10" stroke-width="1.2728"/><path d="M57.277 178.5l2.3763.7921" fill="none" id="path10696" stroke="#000000" stroke-miterlimit="10" stroke-width="1.2728"/><path d="M58.974 184.04l2.0368-1.0184" fill="none" id="path10698" stroke="#000000" stroke-miterlimit="10" stroke-width="1.2728"/><path d="M59.992 187.55l1.6973-.4526" fill="none" id="path10700" stroke="#000000" stroke-miterlimit="10" stroke-width="1.2728"/><path d="M61.237 192.76l1.471-.7921" fill="none" id="path10702" stroke="#000000" stroke-miterlimit="10" stroke-width="1.2728"/><path d="M63.953 197.4l1.2447-1.8105" fill="none" id="path10704" stroke="#000000" stroke-miterlimit="10" stroke-width="1.2728"/></g><g id="g10760"><path d="M83.642 69.191l2.8289-2.9421" fill="none" id="path10706" stroke="#000000" stroke-miterlimit="10" stroke-width="1.2728"/><path d="M83.981 91.03l2.3763.45263" fill="none" id="path10708" stroke="#000000" stroke-miterlimit="10" stroke-width="1.2728"/><path d="M83.868 104.83l2.9421-1.3579" fill="none" id="path10710" stroke="#000000" stroke-miterlimit="10" stroke-width="1.2728"/><path d="M83.755 110.61l3.3947-2.15" fill="none" id="path10712" stroke="#000000" stroke-miterlimit="10" stroke-width="1.2728"/><path d="M84.887 116.83l2.6026.22631" fill="none" id="path10714" stroke="#000000" stroke-miterlimit="10" stroke-width="1.2728"/><path d="M84.887 122.26l1.471-.67894" fill="none" id="path10716" stroke="#000000" stroke-miterlimit="10" stroke-width="1.2728"/><path d="M83.981 129.16l3.8473-.11316" fill="none" id="path10718" stroke="#000000" stroke-miterlimit="10" stroke-width="1.2728"/><path d="M83.529 135.61l4.0736.11316" fill="none" id="path10720" stroke="#000000" stroke-miterlimit="10" stroke-width="1.2728"/><path d="M82.51 141.72l3.7342 1.3579" fill="none" id="path10722" stroke="#000000" stroke-miterlimit="10" stroke-width="1.2728"/><path d="M82.624 151.12l3.3947.22631" fill="none" id="path10724" stroke="#000000" stroke-miterlimit="10" stroke-width="1.2728"/><path d="M82.397 157.11h2.9421" fill="none" id="path10726" stroke="#000000" stroke-miterlimit="10" stroke-width="1.2728"/><path d="M82.85 166.05l2.8289-.6789" fill="none" id="path10728" stroke="#000000" stroke-miterlimit="10" stroke-width="1.2728"/><path d="M82.85 170.35l2.9421.5658" fill="none" id="path10730" stroke="#000000" stroke-miterlimit="10" stroke-width="1.2728"/><path d="M82.737 175.56l2.15 1.3579" fill="none" id="path10732" stroke="#000000" stroke-miterlimit="10" stroke-width="1.2728"/><path d="M82.737 180.99l2.15.3395" fill="none" id="path10734" stroke="#000000" stroke-miterlimit="10" stroke-width="1.2728"/><path d="M81.718 186.08l2.2631-.1132" fill="none" id="path10736" stroke="#000000" stroke-miterlimit="10" stroke-width="1.2728"/><path d="M81.039 189.82l1.6973.2263" fill="none" id="path10738" stroke="#000000" stroke-miterlimit="10" stroke-width="1.2728"/><path d="M79.116 194.45l2.2631-.9052" fill="none" id="path10740" stroke="#000000" stroke-miterlimit="10" stroke-width="1.2728"/></g><g id="g10797"><path d="M76.853 195.36l-.67894 2.0368 2.9421 1.5842" fill="none" id="path10785" stroke="#000000" stroke-miterlimit="10" stroke-width="1.2728"/><path d="M76.174 197.4l-4.1868.3394-8.0341-.3394" fill="none" id="path10787" stroke="#000000" stroke-miterlimit="10" stroke-width="1.2728"/><path d="M71.987 197.74l.33947 2.829" fill="none" id="path10789" stroke="#000000" stroke-miterlimit="10" stroke-width="1.2728"/><path d="M72.553 196.15l-.56578 1.5841" fill="none" id="path10791" stroke="#000000" stroke-miterlimit="10" stroke-width="1.2728"/></g><g id="g11065"><path d="M53.203 83.675l2.6026-.11316" fill="none" id="path10960" stroke="#000000" stroke-miterlimit="10" stroke-width="1.2728"/><path d="M54.448 114.11l1.8105-.33947" fill="none" id="path10962" stroke="#000000" stroke-miterlimit="10" stroke-width="1.2728"/><path d="M54.448 127.13l2.3763-.33946" fill="none" id="path10964" stroke="#000000" stroke-miterlimit="10" stroke-width="1.2728"/><path d="M55.805 137.76l2.3763.22631" fill="none" id="path10966" stroke="#000000" stroke-miterlimit="10" stroke-width="1.2728"/><path d="M56.371 145.91l2.6026-.11316" fill="none" id="path10968" stroke="#000000" stroke-miterlimit="10" stroke-width="1.2728"/><path d="M57.842 155.87l2.15.2263" fill="none" id="path10970" stroke="#000000" stroke-miterlimit="10" stroke-width="1.2728"/><path d="M58.295 166.28l1.6973-1.2447" fill="none" id="path10972" stroke="#000000" stroke-miterlimit="10" stroke-width="1.2728"/><path d="M59.313 173.29l2.2631-.2263" fill="none" id="path10974" stroke="#000000" stroke-miterlimit="10" stroke-width="1.2728"/><path d="M59.766 177.48l2.7158.6789" fill="none" id="path10976" stroke="#000000" stroke-miterlimit="10" stroke-width="1.2728"/><path d="M61.011 183.03l2.15.3395" fill="none" id="path10978" stroke="#000000" stroke-miterlimit="10" stroke-width="1.2728"/><path d="M61.69 187.1l2.8289-2.4895" fill="none" id="path10980" stroke="#000000" stroke-miterlimit="10" stroke-width="1.2728"/><path d="M62.255 190.04l2.2631-1.5842" fill="none" id="path10982" stroke="#000000" stroke-miterlimit="10" stroke-width="1.2728"/><path d="M64.179 193.44l2.6026-1.471" fill="none" id="path10984" stroke="#000000" stroke-miterlimit="10" stroke-width="1.2728"/><path d="M68.253 193.55l.11316 1.6973" fill="none" id="path10986" stroke="#000000" stroke-miterlimit="10" stroke-width="1.2728"/><path d="M73.797 194.23l.11316 1.2447" fill="none" id="path10988" stroke="#000000" stroke-miterlimit="10" stroke-width="1.2728"/><path d="M76.513 192.87l.33947 2.4895" fill="none" id="path10990" stroke="#000000" stroke-miterlimit="10" stroke-width="1.2728"/><path d="M79.003 190.38l2.0368-.5658" fill="none" id="path10992" stroke="#000000" stroke-miterlimit="10" stroke-width="1.2728"/><path d="M79.342 185.63l2.3763.4527" fill="none" id="path10994" stroke="#000000" stroke-miterlimit="10" stroke-width="1.2728"/><path d="M80.134 182.35l1.9237.6789" fill="none" id="path10996" stroke="#000000" stroke-miterlimit="10" stroke-width="1.2728"/><path d="M80.36 176.46l2.15.4526" fill="none" id="path10998" stroke="#000000" stroke-miterlimit="10" stroke-width="1.2728"/><path d="M80.36 180.08l2.3763.9052" fill="none" id="path11000" stroke="#000000" stroke-miterlimit="10" stroke-width="1.2728"/><path d="M80.7 171.26l1.2447.1132" fill="none" id="path11002" stroke="#000000" stroke-miterlimit="10" stroke-width="1.2728"/><path d="M80.813 164.69h1.471" fill="none" id="path11004" stroke="#000000" stroke-miterlimit="10" stroke-width="1.2728"/><path d="M80.587 161.07l1.8105-.5657" fill="none" id="path11006" stroke="#000000" stroke-miterlimit="10" stroke-width="1.2728"/><path d="M82.397 154.85l-1.9237-.67894" fill="none" id="path11008" stroke="#000000" stroke-miterlimit="10" stroke-width="1.2728"/><path d="M80.474 148.06l1.9237-.11315" fill="none" id="path11010" stroke="#000000" stroke-miterlimit="10" stroke-width="1.2728"/><path d="M80.587 141.95l1.9237-.22631" fill="none" id="path11012" stroke="#000000" stroke-miterlimit="10" stroke-width="1.2728"/><path d="M80.474 136.41l2.15.56578" fill="none" id="path11014" stroke="#000000" stroke-miterlimit="10" stroke-width="1.2728"/><path d="M82.963 131.77l-2.2631-.22631" fill="none" id="path11016" stroke="#000000" stroke-miterlimit="10" stroke-width="1.2728"/><path d="M80.7 124.98l2.7157-.11316" fill="none" id="path11018" stroke="#000000" stroke-miterlimit="10" stroke-width="1.2728"/><path d="M83.189 119.21l-2.4894.79209" fill="none" id="path11020" stroke="#000000" stroke-miterlimit="10" stroke-width="1.2728"/><path d="M80.021 114.57l3.1684.33947" fill="none" id="path11022" stroke="#000000" stroke-miterlimit="10" stroke-width="1.2728"/><path d="M83.529 100.2l-3.1684.79209" fill="none" id="path11024" stroke="#000000" stroke-miterlimit="10" stroke-width="1.2728"/><path d="M80.247 84.693l3.7342-1.1316" fill="none" id="path11026" stroke="#000000" stroke-miterlimit="10" stroke-width="1.2728"/><path d="M83.642 69.191l-3.621.22632" fill="none" id="path11028" stroke="#000000" stroke-miterlimit="10" stroke-width="1.2728"/></g><g id="g11257"><path d="M78.12 145.94l-.48008 6.081.08001 5.521.80014 7.4412-.48008 6.3211-.32005 5.1209-.32005 2.0803-.08001 4.7208.48008 2.9605-.64011 4.0807-2.2404-.16-2.7066.4971" fill="none" id="path9977" stroke="#000000" stroke-miterlimit="10" stroke-width="1.2728"/></g><g id="g11124"><path d="M54.561 64.891l2.7157.33947" fill="none" id="path11067" stroke="#000000" stroke-miterlimit="10" stroke-width="1.2728"/><path d="M56.145 84.693l2.2631.90525" fill="none" id="path11069" stroke="#000000" stroke-miterlimit="10" stroke-width="1.2728"/><path d="M56.598 108.34l2.6026-.67893" fill="none" id="path11071" stroke="#000000" stroke-miterlimit="10" stroke-width="1.2728"/><path d="M56.258 113.77l2.8289.22631" fill="none" id="path11073" stroke="#000000" stroke-miterlimit="10" stroke-width="1.2728"/><path d="M56.711 118.19l3.1684-.79209" fill="none" id="path11075" stroke="#000000" stroke-miterlimit="10" stroke-width="1.2728"/><path d="M57.503 124.86h3.0552" fill="none" id="path11077" stroke="#000000" stroke-miterlimit="10" stroke-width="1.2728"/><path d="M57.955 133.35l2.0368-.67894" fill="none" id="path11079" stroke="#000000" stroke-miterlimit="10" stroke-width="1.2728"/><path d="M58.182 137.99h2.8289" fill="none" id="path11081" stroke="#000000" stroke-miterlimit="10" stroke-width="1.2728"/><path d="M58.974 145.8l2.2631-1.1316" fill="none" id="path11083" stroke="#000000" stroke-miterlimit="10" stroke-width="1.2728"/><path d="M60.445 151l1.3579-.22631" fill="none" id="path11085" stroke="#000000" stroke-miterlimit="10" stroke-width="1.2728"/><path d="M59.992 156.09l2.2631-.90529" fill="none" id="path11087" stroke="#000000" stroke-miterlimit="10" stroke-width="1.2728"/><path d="M60.671 160.17l2.6026 1.471" fill="none" id="path11089" stroke="#000000" stroke-miterlimit="10" stroke-width="1.2728"/><path d="M62.029 167.3l1.6973.1132" fill="none" id="path11091" stroke="#000000" stroke-miterlimit="10" stroke-width="1.2728"/><path d="M62.708 174.77l.90525-1.3578" fill="none" id="path11093" stroke="#000000" stroke-miterlimit="10" stroke-width="1.2728"/><path d="M63.84 180.42l.75845-.9548" fill="none" id="path11095" stroke="#000000" stroke-miterlimit="10" stroke-width="1.2728"/><path d="M64.519 184.61l1.4397-.5808" fill="none" id="path11097" stroke="#000000" stroke-miterlimit="10" stroke-width="1.2728"/><path d="M65.763 189.02l1.0752-1.3933" fill="none" id="path11099" stroke="#000000" stroke-miterlimit="10" stroke-width="1.2728"/><path d="M68.439 189.23l1.7376 3.4141" fill="none" id="path11101" stroke="#000000" stroke-miterlimit="10" stroke-width="1.2728"/><path d="M71.719 188.27l.83338 4.7137" fill="none" id="path11103" stroke="#000000" stroke-miterlimit="10" stroke-width="1.2728"/></g><g id="g11153"><path d="M79.795 76.206l-3.7342-4.7526" fill="none" id="path11126" stroke="#000000" stroke-miterlimit="10" stroke-width="1.2728"/><path d="M79.229 86.73l-2.3763-.11316" fill="none" id="path11128" stroke="#000000" stroke-miterlimit="10" stroke-width="1.2728"/><path d="M76.853 101.55l3.0552 1.3579" fill="none" id="path11130" stroke="#000000" stroke-miterlimit="10" stroke-width="1.2728"/><path d="M76.513 110.38l2.7157.90524" fill="none" id="path11132" stroke="#000000" stroke-miterlimit="10" stroke-width="1.2728"/><path d="M77.418 117.73l2.15.67894" fill="none" id="path11134" stroke="#000000" stroke-miterlimit="10" stroke-width="1.2728"/><path d="M76.4 125.09l4.2999-.11315" fill="none" id="path11136" stroke="#000000" stroke-miterlimit="10" stroke-width="1.2728"/><path d="M76.513 128.71l3.7342.67894" fill="none" id="path11138" stroke="#000000" stroke-miterlimit="10" stroke-width="1.2728"/><path d="M76.853 140.14l2.3763-.45263" fill="none" id="path11140" stroke="#000000" stroke-miterlimit="10" stroke-width="1.2728"/><path d="M76.174 145.68l1.9467.25843 1.7874-.82421" fill="none" id="path11142" stroke="#000000" stroke-miterlimit="10" stroke-width="1.2728"/></g><g id="g11185"><path d="M75.042 152.93l2.5982-.90254" fill="none" id="path11157" stroke="#000000" stroke-miterlimit="10" stroke-width="1.2728"/><path d="M75.495 159.15l2.2256-1.6052" fill="none" id="path11161" stroke="#000000" stroke-miterlimit="10" stroke-width="1.2728"/><path d="M76.06 165.03l2.4599-.048" fill="none" id="path11165" stroke="#000000" stroke-miterlimit="10" stroke-width="1.2728"/><path d="M75.64 171.23l2.2311-.6483" fill="none" id="path11169" stroke="#000000" stroke-miterlimit="10" stroke-width="1.2728"/><path d="M75.32 176.75l2.0803 1.7603" fill="none" id="path11173" stroke="#000000" stroke-miterlimit="10" stroke-width="1.2728"/><path d="M73.96 182.35l1.7603.4 1.6003.4801" fill="none" id="path11175" stroke="#000000" stroke-miterlimit="10" stroke-width="1.2728"/></g><g id="g11205"><path d="M75.72 182.75l-.96016 4.2408-1.7603.08-1.2802 1.2002" fill="none" id="path9981" stroke="#000000" stroke-miterlimit="10" stroke-width="1.2728"/><path d="M74.76 186.99l2.4004 3.2805" fill="none" id="path11177" stroke="#000000" stroke-miterlimit="10" stroke-width="1.2728"/></g><g id="g11201"><path d="M77.64 152.02l2.607-1.0211" fill="none" id="path11155" stroke="#000000" stroke-miterlimit="10" stroke-width="1.2728"/><path d="M77.72 157.54l2.1875-.2053" fill="none" id="path11159" stroke="#000000" stroke-miterlimit="10" stroke-width="1.2728"/><path d="M78.52 164.99l2.2926-.2914" fill="none" id="path11163" stroke="#000000" stroke-miterlimit="10" stroke-width="1.2728"/><path d="M77.871 170.58l2.8289.6789" fill="none" id="path11167" stroke="#000000" stroke-miterlimit="10" stroke-width="1.2728"/><path d="M77.72 176.43l2.6401.035" fill="none" id="path11171" stroke="#000000" stroke-miterlimit="10" stroke-width="1.2728"/><path d="M77.8 186.19l1.5417-.5611" fill="none" id="path11187" stroke="#000000" stroke-miterlimit="10" stroke-width="1.2728"/><path d="M77.16 190.27l.37133 2.0345" fill="none" id="path11189" stroke="#000000" stroke-miterlimit="10" stroke-width="1.2728"/><path d="M74.816 193.1l.10404-2.9865" fill="none" id="path11191" stroke="#000000" stroke-miterlimit="10" stroke-width="1.2728"/></g><g id="g11306"><path d="M59.426 72.02l1.9237-.45262" fill="none" id="path11259" stroke="#000000" stroke-miterlimit="10" stroke-width="1.2728"/><path d="M58.408 85.598h3.1684" fill="none" id="path11261" stroke="#000000" stroke-miterlimit="10" stroke-width="1.2728"/><path d="M59.2 106.19l2.9421-.7921" fill="none" id="path11263" stroke="#000000" stroke-miterlimit="10" stroke-width="1.2728"/><path d="M59.992 115.36l2.3763-.45263" fill="none" id="path11265" stroke="#000000" stroke-miterlimit="10" stroke-width="1.2728"/><path d="M60.558 124.86l2.4397 1.3958" fill="none" id="path11267" stroke="#000000" stroke-miterlimit="10" stroke-width="1.2728"/><path d="M61.463 134.82l2.6547.0796" fill="none" id="path11269" stroke="#000000" stroke-miterlimit="10" stroke-width="1.2728"/><path d="M61.803 140.82h1.8105" fill="none" id="path11271" stroke="#000000" stroke-miterlimit="10" stroke-width="1.2728"/><path d="M62.708 151.34l1.57-.7586" fill="none" id="path11273" stroke="#000000" stroke-miterlimit="10" stroke-width="1.2728"/><path d="M63.613 156.89l2.2631-.679" fill="none" id="path11275" stroke="#000000" stroke-miterlimit="10" stroke-width="1.2728"/><path d="M64.292 164.92l.90525-2.2631" fill="none" id="path11277" stroke="#000000" stroke-miterlimit="10" stroke-width="1.2728"/><path d="M64.858 175.33l.94025-.8237" fill="none" id="path11279" stroke="#000000" stroke-miterlimit="10" stroke-width="1.2728"/><path d="M66.278 180.11l1.2002-.08" fill="none" id="path11281" stroke="#000000" stroke-miterlimit="10" stroke-width="1.2728"/></g><g id="g11292"><path d="M66.442 185.06l5.6771.1667" fill="none" id="path11283" stroke="#000000" stroke-miterlimit="10" stroke-width="1.2728"/><path d="M69.639 180.67l-.02833 4.5072" fill="none" id="path11285" stroke="#000000" stroke-miterlimit="10" stroke-width="1.2728"/><path d="M68.439 189.23l1.1719-4.0542" fill="none" id="path11287" stroke="#000000" stroke-miterlimit="10" stroke-width="1.2728"/></g><g id="g11350"><path d="M70.839 180.19l2.7319.01" fill="none" id="path11308" stroke="#000000" stroke-miterlimit="10" stroke-width="1.2728"/><path d="M73.88 177.87l-2.7205-2.0803" fill="none" id="path11310" stroke="#000000" stroke-miterlimit="10" stroke-width="1.2728"/><path d="M75.32 173.71l-2.7205-1.0402" fill="none" id="path11312" stroke="#000000" stroke-miterlimit="10" stroke-width="1.2728"/><path d="M75.16 167.07l-2.0804-.3201" fill="none" id="path11314" stroke="#000000" stroke-miterlimit="10" stroke-width="1.2728"/><path d="M75.495 159.15l-2.4952.1551" fill="none" id="path11316" stroke="#000000" stroke-miterlimit="10" stroke-width="1.2728"/><path d="M75.042 152.93l-1.8826-.90254" fill="none" id="path11318" stroke="#000000" stroke-miterlimit="10" stroke-width="1.2728"/><path d="M75.268 143.31l-1.9237-.22631" fill="none" id="path11320" stroke="#000000" stroke-miterlimit="10" stroke-width="1.2728"/><path d="M75.834 138.78l-1.8745-.0403" fill="none" id="path11322" stroke="#000000" stroke-miterlimit="10" stroke-width="1.2728"/><path d="M75.834 132.9l-3.1684-.22631" fill="none" id="path11324" stroke="#000000" stroke-miterlimit="10" stroke-width="1.2728"/><path d="M76.4 125.09l-2.8404-.11068" fill="none" id="path11326" stroke="#000000" stroke-miterlimit="10" stroke-width="1.2728"/><path d="M75.608 114.34l-2.0368-.22631" fill="none" id="path11328" stroke="#000000" stroke-miterlimit="10" stroke-width="1.2728"/><path d="M76.626 104.16l-2.3466.0197" fill="none" id="path11330" stroke="#000000" stroke-miterlimit="10" stroke-width="1.2728"/><path d="M76.174 90.238l-2.5341 2.816" fill="none" id="path11332" stroke="#000000" stroke-miterlimit="10" stroke-width="1.2728"/><path d="M75.834 67.267l-1.7945-.61772" fill="none" id="path11334" stroke="#000000" stroke-miterlimit="10" stroke-width="1.2728"/></g><g id="g11449"><path d="M60.517 58.168l4.1607.24004" fill="none" id="path11386" stroke="#000000" stroke-miterlimit="10" stroke-width="1.2728"/><path d="M62.029 79.941l2.569.63114" fill="none" id="path11388" stroke="#000000" stroke-miterlimit="10" stroke-width="1.2728"/><path d="M62.142 105.4l2.4558.93535" fill="none" id="path11390" stroke="#000000" stroke-miterlimit="10" stroke-width="1.2728"/><path d="M62.369 114.91l2.2295.0717" fill="none" id="path11392" stroke="#000000" stroke-miterlimit="10" stroke-width="1.2728"/><path d="M62.998 126.26l2.0804-1.7603" fill="none" id="path11394" stroke="#000000" stroke-miterlimit="10" stroke-width="1.2728"/><path d="M64.118 134.9h2.2404" fill="none" id="path11396" stroke="#000000" stroke-miterlimit="10" stroke-width="1.2728"/><path d="M63.613 140.82l2.7451-.39679" fill="none" id="path11398" stroke="#000000" stroke-miterlimit="10" stroke-width="1.2728"/><path d="M63.953 145.8l2.6026.22631" fill="none" id="path11400" stroke="#000000" stroke-miterlimit="10" stroke-width="1.2728"/><path d="M65.876 156.21l1.4421.4567" fill="none" id="path11402" stroke="#000000" stroke-miterlimit="10" stroke-width="1.2728"/><path d="M65.876 165.71l2.4023.9533" fill="none" id="path11404" stroke="#000000" stroke-miterlimit="10" stroke-width="1.2728"/><path d="M66.103 172.16l3.6962.2644" fill="none" id="path11406" stroke="#000000" stroke-miterlimit="10" stroke-width="1.2728"/><path d="M66.998 176.11l4.1607-.32" fill="none" id="path11408" stroke="#000000" stroke-miterlimit="10" stroke-width="1.2728"/><path d="M69.799 172.43l1.3602 3.3606" fill="none" id="path11410" stroke="#000000" stroke-miterlimit="10" stroke-width="1.2728"/><path d="M69.959 166.35l2.6404-.8802" fill="none" id="path11412" stroke="#000000" stroke-miterlimit="10" stroke-width="1.2728"/><path d="M70.519 160.19l2.4804-.8801" fill="none" id="path11414" stroke="#000000" stroke-miterlimit="10" stroke-width="1.2728"/><path d="M70.039 155.14l2.4804-.56009" fill="none" id="path11416" stroke="#000000" stroke-miterlimit="10" stroke-width="1.2728"/><path d="M70.199 139.22l2.7205-1.1202" fill="none" id="path11418" stroke="#000000" stroke-miterlimit="10" stroke-width="1.2728"/><path d="M69.799 121.7l3.3606.40007" fill="none" id="path11420" stroke="#000000" stroke-miterlimit="10" stroke-width="1.2728"/><path d="M70.039 113.54l3.5321.57647" fill="none" id="path11422" stroke="#000000" stroke-miterlimit="10" stroke-width="1.2728"/><path d="M70.919 85.933l2.0003-.80014" fill="none" id="path11424" stroke="#000000" stroke-miterlimit="10" stroke-width="1.2728"/><path d="M70.919 64.409l2.3204-.5601" fill="none" id="path11426" stroke="#000000" stroke-miterlimit="10" stroke-width="1.2728"/></g><g id="g10854"><path d="M47.206 230.78s8.3736-.3395 10.524 5.3183c0 0-1.2447 6.2236-3.2815 6.2236 0 0-3.0552-.5658-3.8473-4.5263-.79209-3.9604-2.6026-3.621-2.6026-3.621s-1.471-.9051-.7921-3.3946" fill="#0cf180" id="path9860" stroke="#000000" stroke-miterlimit="10" stroke-width="1.2728"/></g><g id="g9910"><path d="M97.673 256.35s2.6026-8.5999 12.56-9.2788c0 0 15.389-5.8842-3.3947-4.5263 0 0-6.9025 1.3579-12.9 4.1868l-.33947-7.0157s2.0368 0 1.9237-2.7157c-.11316-2.7158 1.5842-3.1684 1.5842-3.1684s1.3579-.9053.33947-2.7158c0 0 10.637-.2263 14.371-11.994l-5.092-.2263-9.6183 7.242s-2.3763 1.8105-.56578 3.2815c0 0-5.9973 2.0368-3.2815 8.1472l-3.9605-2.2631-3.7342 1.0184 1.0184 14.71s3.8473 2.4895 5.9973-2.1499c0 0-5.9973 14.484 5.092 7.4683" fill="#0cf180" id="path9866" stroke="#000000" stroke-miterlimit="10" stroke-width="1.2728"/></g><g id="g9903"><path d="M92.581 248.88l1.3579-2.15" fill="#0cf180" id="path9894" stroke="#000000" stroke-miterlimit="10" stroke-width="1.2728"/><path d="M93.26 237.57l.33947 2.15" fill="#0cf180" id="path9896" stroke="#000000" stroke-miterlimit="10" stroke-width="1.2728"/><path d="M97.447 231.12l-.90525-1.6973" fill="#0cf180" id="path9898" stroke="#000000" stroke-miterlimit="10" stroke-width="1.2728"/></g><g id="g10197"><path d="M92.242 39.544l5.2052 31.571-1.1316 1.5842 1.2447 11.768-.79209 2.0368 1.8105 13.352-.90525.79209v5.2052l.90525 1.6973-1.3579 2.7158 2.2631 3.2815-2.7158 2.8289-.22631 3.5078 1.6973 1.8105-2.0368 3.0552.79209 4.0736-1.0184 4.1868.90525 3.5078.33947 4.6394-.11316 2.6026-2.15 1.6973v1.2447l-1.471 1.9236.22631 2.9421-.11316 2.3763-1.2447 1.8105 1.471 1.3579-.33947 1.9236-.22631 2.4895-.33947 3.7341-.90525 3.2815v3.0553l-1.2447 1.9236.33947 1.6974-1.471 2.2631-.45262 3.621-1.0184 5.2052-2.0368 4.1868-1.3579 4.6394-4.2999 3.9604 1.471 3.0552-.22631 3.0553 3.7342 2.1499.45262 3.5079 4.0736 3.3947s1.6973 1.6973-2.7157 6.4499l5.3183 5.6578 3.9605-13.126s3.621-4.4131 3.5078-11.542l.22631-5.5446 1.6973-4.5263.7921-4.4131.56578-5.6578 4.4131-10.75-4.2999-1.6974 1.0184-3.3947s1.6973 4.4131 5.2052.679c0 0 6.4499-12.674 10.637-13.579 0 0 4.1868-6.9025-3.3947-2.4894 0 0-11.316 5.4315-11.202 11.655l.90525-9.6183s2.0368-3.621 1.9236-8.713l-.67893-6.5631.90525-8.0341v-6.1104s4.5262-4.9789-.33947-8.9393v-5.5446l-.11316-8.0341-.11315-14.937s1.3579-17.879-2.2631-14.258l-3.8473-52.278-10.41-.22632.56578 20.821" fill="#0cf180" id="path9864" stroke="#000000" stroke-miterlimit="10" stroke-width="1.2728"/></g><g id="g10152"><path d="M89.979 214.26l2.4894-2.3763.22631-6.2236 2.8289-5.3184-1.5842-3.3946 1.6973-2.15 1.9237-4.4131-.56578-3.2815 1.6973-1.1316.11316-4.1868 2.0368-7.4683 2.6026-5.2052" fill="#0cf180" id="path9987" stroke="#000000" stroke-miterlimit="10" stroke-width="1.2728"/><path d="M85.452 207.35l2.8289-2.0368 2.8289-8.2604-1.0184-2.0368.45262-2.9421.79209-4.8657 2.2631-1.5842-.67894-3.2815 2.0368-1.3579.22631-4.7525 2.4894-2.3763v-1.1316l1.2447-4.2999.79209-3.2815.90525-3.621 1.9236-3.9605-1.1316-3.3947.67894-2.9421 4.5262 1.1316" fill="#0cf180" id="path9989" stroke="#000000" stroke-miterlimit="10" stroke-width="1.2728"/><path d="M104.46 165.71l1.2447-3.7341" fill="#0cf180" id="path10045" stroke="#000000" stroke-miterlimit="10" stroke-width="1.2728"/></g><g id="g10109"><path d="M97.447 71.114l8.4867.11317" fill="#0cf180" id="path9999" stroke="#000000" stroke-miterlimit="10" stroke-width="1.2728"/><path d="M97.56 84.467l10.637 1.0184" fill="#0cf180" id="path10001" stroke="#000000" stroke-miterlimit="10" stroke-width="1.2728"/><path d="M98.579 99.856l9.392-.22631" fill="#0cf180" id="path10003" stroke="#000000" stroke-miterlimit="10" stroke-width="1.2728"/><path d="M98.579 107.55l9.8446.33948" fill="#0cf180" id="path10005" stroke="#000000" stroke-miterlimit="10" stroke-width="1.2728"/><path d="M99.484 113.55l8.9393.45263" fill="#0cf180" id="path10007" stroke="#000000" stroke-miterlimit="10" stroke-width="1.2728"/><path d="M98.239 121.7l10.524 1.2447" fill="#0cf180" id="path10009" stroke="#000000" stroke-miterlimit="10" stroke-width="1.2728"/><path d="M96.994 128.82l11.768.22632" fill="#0cf180" id="path10011" stroke="#000000" stroke-miterlimit="10" stroke-width="1.2728"/><path d="M96.881 136.52l10.976.56579" fill="#0cf180" id="path10013" stroke="#000000" stroke-miterlimit="10" stroke-width="1.2728"/><path d="M97.108 143.76s7.1288.79209 10.637-1.9237" fill="#0cf180" id="path10015" stroke="#000000" stroke-miterlimit="10" stroke-width="1.2728"/><path d="M103.67 143.31s.90525 5.4315-8.713 3.3947" fill="#0cf180" id="path10017" stroke="#000000" stroke-miterlimit="10" stroke-width="1.2728"/></g><g id="g10097"><path d="M81.945 202.15l3.1684-.3394 1.9237-5.8841 3.0552-.9053" fill="#0cf180" id="path9991" stroke="#000000" stroke-miterlimit="10" stroke-width="1.2728"/><path d="M93.6 153.94l7.8078.22632" fill="#0cf180" id="path10021" stroke="#000000" stroke-miterlimit="10" stroke-width="1.2728"/><path d="M93.826 157.11l8.713.4526" fill="#0cf180" id="path10023" stroke="#000000" stroke-miterlimit="10" stroke-width="1.2728"/><path d="M93.034 161.19l7.5815.3395" fill="#0cf180" id="path10025" stroke="#000000" stroke-miterlimit="10" stroke-width="1.2728"/><path d="M92.921 165.26l6.6762-.2263" fill="#0cf180" id="path10027" stroke="#000000" stroke-miterlimit="10" stroke-width="1.2728"/><path d="M92.015 168.54l6.5631-.4526" fill="#0cf180" id="path10029" stroke="#000000" stroke-miterlimit="10" stroke-width="1.2728"/><path d="M92.015 171.6l5.6578 1.1315" fill="#0cf180" id="path10031" stroke="#000000" stroke-miterlimit="10" stroke-width="1.2728"/><path d="M95.184 176.24l-4.0736-1.0184" fill="#0cf180" id="path10033" stroke="#000000" stroke-miterlimit="10" stroke-width="1.2728"/><path d="M92.921 182.35l-3.7342-1.2447" fill="#0cf180" id="path10035" stroke="#000000" stroke-miterlimit="10" stroke-width="1.2728"/><path d="M91.337 187.21l-3.1684-.9052" fill="#0cf180" id="path10037" stroke="#000000" stroke-miterlimit="10" stroke-width="1.2728"/><path d="M90.205 192.53l-4.0736-2.0368" fill="#0cf180" id="path10039" stroke="#000000" stroke-miterlimit="10" stroke-width="1.2728"/><path d="M87.037 195.93l-2.2631-.7921" fill="#0cf180" id="path10041" stroke="#000000" stroke-miterlimit="10" stroke-width="1.2728"/></g><g id="g10083"><path d="M100.62 161.53l5.092.4526" fill="#0cf180" id="path10043" stroke="#000000" stroke-miterlimit="10" stroke-width="1.2728"/><path d="M97.673 173.86l3.1684.4526" fill="#0cf180" id="path10047" stroke="#000000" stroke-miterlimit="10" stroke-width="1.2728"/><path d="M94.958 180.99l3.8473.7921" fill="#0cf180" id="path10049" stroke="#000000" stroke-miterlimit="10" stroke-width="1.2728"/><path d="M93.6 185.63l3.3947 1.4711" fill="#0cf180" id="path10051" stroke="#000000" stroke-miterlimit="10" stroke-width="1.2728"/><path d="M93.939 196.94l-2.8289.1131" fill="#0cf180" id="path10053" stroke="#000000" stroke-miterlimit="10" stroke-width="1.2728"/><path d="M88.281 205.32l4.4131.3395" fill="#0cf180" id="path10055" stroke="#000000" stroke-miterlimit="10" stroke-width="1.2728"/></g><g id="g10075"><path d="M98.805 181.78l4.5262-.2263" fill="#0cf180" id="path10057" stroke="#000000" stroke-miterlimit="10" stroke-width="1.2728"/><path d="M98.692 185.97l4.0736 1.2447" fill="#0cf180" id="path10059" stroke="#000000" stroke-miterlimit="10" stroke-width="1.2728"/><path d="M97.56 190.38l4.4131 1.2447" fill="#0cf180" id="path10061" stroke="#000000" stroke-miterlimit="10" stroke-width="1.2728"/><path d="M95.636 194.79l4.6394 1.3579" fill="#0cf180" id="path10063" stroke="#000000" stroke-miterlimit="10" stroke-width="1.2728"/><path d="M95.523 200.34h4.1868" fill="#0cf180" id="path10065" stroke="#000000" stroke-miterlimit="10" stroke-width="1.2728"/><path d="M92.468 211.88l4.0736 1.3579" fill="#0cf180" id="path10067" stroke="#000000" stroke-miterlimit="10" stroke-width="1.2728"/></g><g id="g10423"><path d="M38.153 44.183l.22631 26.026.22631 14.71.67894 14.031.45262 6.5631-.45262 1.5842 2.0368 4.7526-1.1316 2.7158.40404 3.7717v5.1209l2.0804 5.601-1.7603 3.8406 1.6003 3.3606-.96016 3.6806 1.7603 1.4402-1.1202 3.8406 2.4004 1.2802.64011 3.2006.48008 1.7603.96016 1.7603.16003 2.8804-.64011 2.2404 1.4402 1.4403-.16003 1.7603 1.6003 3.8406.16003 2.4004v1.9203l.96016 1.2803v2.7204l1.4231 1.8501-.33947 1.9237 1.5842 3.5078 1.9237 4.3 1.0184 1.2447.79209 3.8473.11316 1.5842 2.0368 4.6394 3.3947 3.2815.33947 5.8841-1.0184.4527-1.8105 5.2052-3.0552 5.5446 2.7158 1.0184 1.0184 1.9237-3.1684 10.297s-6.9025-3.5079-5.9973-10.976c0 0-5.771-3.5078-4.9789-10.071 0 0-2.7158-4.1868-2.6026-9.7314 0 0-4.8657-3.621-3.621-11.542 0 0-4.1868-4.8658-4.1868-13.239 0 0-3.5078-2.3763-3.9605-8.0341 0 0 .45262-5.6578-1.8105-9.2788-2.2631-3.621-3.0552-9.0525-3.0552-9.0525s.67894-2.3763-.45262-4.0736c-1.1316-1.6973-1.471-8.9393-1.471-8.9393l-1.8105-20.368 3.1684-2.9421-1.0184-7.8078-4.0736 10.071-2.4894-4.7526 3.9605-7.1288s1.471-.79209 2.0368-.11315c0 0 1.3579-2.8289 3.1684-2.7158l1.471-14.258s-3.2815-5.5447-.22631-14.145l-2.6026-42.886 10.184 2.2631 1.3579 13.692" fill="#0cf180" id="path9858" stroke="#000000" stroke-miterlimit="10" stroke-width="1.2728"/></g><g id="g10372"><path d="M56.598 216.97l-2.3763-.3395-2.4894-7.6946-2.15-1.2447-.11316-6.3368-3.7342-2.942.79209-1.8105-1.471-5.092-2.6026-3.9605 1.1316-4.9789-2.9421-4.0736-.11316-3.2815-.22631-1.4711-2.7157-5.092-3.2815-3.5078.90525-6.4499s-4.6394-3.7342-3.5078-11.089c0 0-3.8473-4.2999-3.0552-12.674l-.22631-2.2631-1.0184-13.126-1.0184-7.5815" fill="#0cf180" id="path9993" stroke="#000000" stroke-miterlimit="10" stroke-width="1.2728"/><path d="M59.653 211.43l-4.0736-3.8474-.79209-7.242-2.15-.5657-2.7158-4.3-.11316-2.2631-1.6973-1.8105v-5.4315l-1.3579-3.621-1.1316-1.3579-.22631-3.0552-1.5842-3.7341-1.471-3.7342-1.3579-2.15v-1.2447l-1.8105-4.4131-.45262-5.2052-1.8105-4.5262-2.7158-5.2052 1.2447-1.9236-2.15-4.7526-.90525-7.6946-.67894-9.1657-2.4894-4.2999.79209-3.621-1.0184-3.2815.56578-5.6578-.90525-4.1868-.67894-3.621" fill="#0cf180" id="path9995" stroke="#000000" stroke-miterlimit="10" stroke-width="1.2728"/><path d="M61.463 206.22l-6.6762-5.8842-.79209-7.242-1.3579-1.5841-.79209-6.2236" fill="#0cf180" id="path9997" stroke="#000000" stroke-miterlimit="10" stroke-width="1.2728"/><path d="M25.366 104.16l-.56578-1.9236" fill="#0cf180" id="path10205" stroke="#000000" stroke-miterlimit="10" stroke-width="1.2728"/><path d="M49.808 193.21l2.8289-1.6973" fill="#0cf180" id="path10259" stroke="#000000" stroke-miterlimit="10" stroke-width="1.2728"/><path d="M53.995 193.1l2.7157-1.1315" fill="#0cf180" id="path10261" stroke="#000000" stroke-miterlimit="10" stroke-width="1.2728"/></g><g id="g10323"><path d="M29.214 71.114l8.9393-.11316" fill="#0cf180" id="path10199" stroke="#000000" stroke-miterlimit="10" stroke-width="1.2728"/><path d="M29.44 85.259l8.713.11315" fill="#0cf180" id="path10201" stroke="#000000" stroke-miterlimit="10" stroke-width="1.2728"/><path d="M27.969 99.517l10.976.33947" fill="#0cf180" id="path10203" stroke="#000000" stroke-miterlimit="10" stroke-width="1.2728"/><path d="M29.553 107.32l9.7314-.22631" fill="#0cf180" id="path10209" stroke="#000000" stroke-miterlimit="10" stroke-width="1.2728"/><path d="M30.006 116.26l10.184-1.6973" fill="#0cf180" id="path10211" stroke="#000000" stroke-miterlimit="10" stroke-width="1.2728"/><path d="M31.703 124.18l8.8908-.72569" fill="#0cf180" id="path10217" stroke="#000000" stroke-miterlimit="10" stroke-width="1.2728"/><path d="M32.495 132.56l8.4187.34235" fill="#0cf180" id="path10219" stroke="#000000" stroke-miterlimit="10" stroke-width="1.2728"/><path d="M33.287 141.04l8.2667-1.1032" fill="#0cf180" id="path10225" stroke="#000000" stroke-miterlimit="10" stroke-width="1.2728"/><path d="M35.437 145.8l6.7569-.57485" fill="#0cf180" id="path10227" stroke="#000000" stroke-miterlimit="10" stroke-width="1.2728"/><path d="M36.908 152.93l8.8064-1.4626" fill="#0cf180" id="path10229" stroke="#000000" stroke-miterlimit="10" stroke-width="1.2728"/><path d="M38.719 157.45l7.476.8923" fill="#0cf180" id="path10231" stroke="#000000" stroke-miterlimit="10" stroke-width="1.2728"/><path d="M39.172 162.66l8.3036-1.1123" fill="#0cf180" id="path10235" stroke="#000000" stroke-miterlimit="10" stroke-width="1.2728"/><path d="M40.982 167.07l7.8078-.3395" fill="#0cf180" id="path10237" stroke="#000000" stroke-miterlimit="10" stroke-width="1.2728"/><path d="M42.34 170.47l6.8955-.7588" fill="#0cf180" id="path10243" stroke="#000000" stroke-miterlimit="10" stroke-width="1.2728"/><path d="M43.924 173.86l6.2715-.1528" fill="#0cf180" id="path10245" stroke="#000000" stroke-miterlimit="10" stroke-width="1.2728"/><path d="M45.395 177.93l5.8841-.4526" fill="#0cf180" id="path10251" stroke="#000000" stroke-miterlimit="10" stroke-width="1.2728"/><path d="M45.621 180.99l7.1288.2263" fill="#0cf180" id="path10253" stroke="#000000" stroke-miterlimit="10" stroke-width="1.2728"/><path d="M48.111 185.97l3.7342-.6789h2.9421" fill="#0cf180" id="path10257" stroke="#000000" stroke-miterlimit="10" stroke-width="1.2728"/></g><g id="g10286"><path d="M25.14 135.16l3.0552-1.9237" fill="#0cf180" id="path10223" stroke="#000000" stroke-miterlimit="10" stroke-width="1.2728"/><path d="M31.816 166.62l2.4894-1.471" fill="#0cf180" id="path10239" stroke="#000000" stroke-miterlimit="10" stroke-width="1.2728"/><path d="M35.777 174.65l4.7526.5658" fill="#0cf180" id="path10249" stroke="#000000" stroke-miterlimit="10" stroke-width="1.2728"/><path d="M46.187 209.16l3.3947-1.471" fill="#0cf180" id="path10271" stroke="#000000" stroke-miterlimit="10" stroke-width="1.2728"/><path d="M43.585 199.43l2.15-1.0184" fill="#0cf180" id="path10273" stroke="#000000" stroke-miterlimit="10" stroke-width="1.2728"/><path d="M39.964 187.89l2.4894-.3395" fill="#0cf180" id="path10275" stroke="#000000" stroke-miterlimit="10" stroke-width="1.2728"/><path d="M51.166 219.24l3.0552-2.6026" fill="#0cf180" id="path10277" stroke="#000000" stroke-miterlimit="10" stroke-width="1.2728"/></g><g id="g10303"><path d="M25.819 105.29l2.3763-2.15" fill="#0cf180" id="path10207" stroke="#000000" stroke-miterlimit="10" stroke-width="1.2728"/><path d="M28.987 112.98l-2.3763.56578" fill="#0cf180" id="path10213" stroke="#000000" stroke-miterlimit="10" stroke-width="1.2728"/><path d="M29.214 119.88l-2.0368-.56578" fill="#0cf180" id="path10215" stroke="#000000" stroke-miterlimit="10" stroke-width="1.2728"/><path d="M28.195 133.24l4.2999-.67894" fill="#0cf180" id="path10221" stroke="#000000" stroke-miterlimit="10" stroke-width="1.2728"/><path d="M35.211 158.7l3.5078-1.2448" fill="#0cf180" id="path10233" stroke="#000000" stroke-miterlimit="10" stroke-width="1.2728"/><path d="M37.587 168.66l3.3947-1.5842" fill="#0cf180" id="path10241" stroke="#000000" stroke-miterlimit="10" stroke-width="1.2728"/><path d="M40.529 175.22l3.3947-1.3579" fill="#0cf180" id="path10247" stroke="#000000" stroke-miterlimit="10" stroke-width="1.2728"/><path d="M43.585 182.57l2.0368-1.5842" fill="#0cf180" id="path10255" stroke="#000000" stroke-miterlimit="10" stroke-width="1.2728"/><path d="M45.056 191.51l3.0552-.1132" fill="#0cf180" id="path10263" stroke="#000000" stroke-miterlimit="10" stroke-width="1.2728"/><path d="M46.527 196.6l3.3947-1.1316" fill="#0cf180" id="path10265" stroke="#000000" stroke-miterlimit="10" stroke-width="1.2728"/><path d="M49.469 201.36l3.1684-1.5841" fill="#0cf180" id="path10267" stroke="#000000" stroke-miterlimit="10" stroke-width="1.2728"/><path d="M51.732 208.94l3.8473-1.3579" fill="#0cf180" id="path10269" stroke="#000000" stroke-miterlimit="10" stroke-width="1.2728"/><path d="M31.703 147.61l2.4894.11315" fill="#0cf180" id="path10288" stroke="#000000" stroke-miterlimit="10" stroke-width="1.2728"/></g><g id="WT"><path d="M157.49 63.914c3.25 16.257-4.7159 44.983-4.7159 44.983-18.883 49.288-7.3224-.32006-7.3224-.32006 7.6425-18.563 6.0116-37.755 4.2386-46.432l3.2438.50393s2.8805 16.323.16003 27.365c0 0-3.8212 12.046-6.8812 26.725 0 0 5.1985-12.915 7.8413-25.924 0 0 4.1607-15.523.48008-27.365l2.9556.46507" fill="none" id="path9852" stroke="#000000" stroke-miterlimit="10" stroke-width="1.2728"/></g><g id="cpc-try"><path d="M182.45 63.914c3.25 16.257-4.7159 44.983-4.7159 44.983-18.883 49.288-7.3224-.32006-7.3224-.32006 7.6425-18.563 6.0116-37.755 4.2386-46.432l3.2438.50393s2.8805 16.323.16003 27.365c0 0-3.8212 12.046-6.8812 26.725 0 0 5.1985-12.915 7.8413-25.924 0 0 4.1607-15.523.48008-27.365l2.9556.46507" fill="none" id="path11866" stroke="#000000" stroke-miterlimit="10" stroke-width="1.2728"/></g><g id="gl3-egl3"><path d="M208.38 63.914c3.25 16.257-4.7159 44.983-4.7159 44.983-18.883 49.288-7.3224-.32006-7.3224-.32006 7.6425-18.563 6.0116-37.755 4.2386-46.432l3.2438.50393s2.8805 16.323.16003 27.365c0 0-3.8212 12.046-6.8812 26.725 0 0 5.1985-12.915 7.8413-25.924 0 0 4.1607-15.523.48008-27.365l2.9556.46507" fill="none" id="path11876" stroke="#000000" stroke-miterlimit="10" stroke-width="1.2728"/></g><g id="ttg"><path d="M233.34 63.914c3.25 16.257-4.7159 44.983-4.7159 44.983-18.883 49.288-7.3224-.32006-7.3224-.32006 7.6425-18.563 6.0116-37.755 4.2386-46.432l3.2438.50393s2.8805 16.323.16003 27.365c0 0-3.8212 12.046-6.8812 26.725 0 0 5.1985-12.915 7.8413-25.924 0 0 4.1607-15.523.48008-27.365l2.9556.46507" fill="none" id="path11886" stroke="#000000" stroke-miterlimit="10" stroke-width="1.2728"/></g><g id="wer-myb23"><path d="M261.51 63.914c3.25 16.257-4.7159 44.983-4.7159 44.983-18.883 49.288-7.3224-.32006-7.3224-.32006 7.6425-18.563 6.0116-37.755 4.2386-46.432l3.2438.50393s2.8805 16.323.16003 27.365c0 0-3.8212 12.046-6.8812 26.725 0 0 5.1985-12.915 7.8413-25.924 0 0 4.1607-15.523.48008-27.365l2.9556.46507" fill="none" id="path11924" stroke="#000000" stroke-miterlimit="10" stroke-width="1.2728"/></g><g id="cow1"><path d="M286.47 63.914c3.25 16.257-4.7159 44.983-4.7159 44.983-18.883 49.288-7.3224-.32006-7.3224-.32006 7.6425-18.563 6.0116-37.755 4.2386-46.432l3.2438.50393s2.8805 16.323.16003 27.365c0 0-3.8212 12.046-6.8812 26.725 0 0 5.1985-12.915 7.8413-25.924 0 0 4.1607-15.523.48008-27.365l2.9556.46507" fill="none" id="path11934" stroke="#000000" stroke-miterlimit="10" stroke-width="1.2728"/></g><g id="mrh1"><path d="M312.39 63.914c3.25 16.257-4.7159 44.983-4.7159 44.983-18.883 49.288-7.3224-.32006-7.3224-.32006 7.6425-18.563 6.0116-37.755 4.2386-46.432l3.2438.50393s2.8805 16.323.16003 27.365c0 0-3.8212 12.046-6.8812 26.725 0 0 5.1985-12.915 7.8413-25.924 0 0 4.1607-15.523.48008-27.365l2.9556.46507" fill="none" id="path11944" stroke="#000000" stroke-miterlimit="10" stroke-width="1.2728"/></g><g id="mrh2"><path d="M337.36 63.914c3.25 16.257-4.7159 44.983-4.7159 44.983-18.883 49.288-7.3224-.32006-7.3224-.32006 7.6425-18.563 6.0116-37.755 4.2386-46.432l3.2438.50393s2.8805 16.323.16003 27.365c0 0-3.8212 12.046-6.8812 26.725 0 0 5.1985-12.915 7.8413-25.924 0 0 4.1607-15.523.48008-27.365l2.9556.46507" fill="none" id="path11954" stroke="#000000" stroke-miterlimit="10" stroke-width="1.2728"/></g><g id="mrh3"><path d="M367.44 63.914c3.25 16.257-4.7159 44.983-4.7159 44.983-18.883 49.288-7.3224-.32006-7.3224-.32006 7.6425-18.563 6.0116-37.755 4.2386-46.432l3.2438.50393s2.8805 16.323.16003 27.365c0 0-3.8212 12.046-6.8812 26.725 0 0 5.1985-12.915 7.8413-25.924 0 0 4.1607-15.523.48008-27.365l2.9556.46507" fill="none" id="path11964" stroke="#000000" stroke-miterlimit="10" stroke-width="1.2728"/></g><g id="ire"><path d="M392.41 63.914c3.25 16.257-4.7159 44.983-4.7159 44.983-18.883 49.288-7.3224-.32006-7.3224-.32006 7.6425-18.563 6.0116-37.755 4.2386-46.432l3.2438.50393s2.8805 16.323.16003 27.365c0 0-3.8212 12.046-6.8812 26.725 0 0 5.1985-12.915 7.8413-25.924 0 0 4.1607-15.523.48008-27.365l2.9556.46507" fill="none" id="path11974" stroke="#000000" stroke-miterlimit="10" stroke-width="1.2728"/></g><g id="bhlh66"><path d="M418.33 63.914c3.25 16.257-4.7159 44.983-4.7159 44.983-18.883 49.288-7.3224-.32006-7.3224-.32006 7.6425-18.563 6.0116-37.755 4.2386-46.432l3.2438.50393s2.8805 16.323.16003 27.365c0 0-3.8212 12.046-6.8812 26.725 0 0 5.1985-12.915 7.8413-25.924 0 0 4.1607-15.523.48008-27.365l2.9556.46507" fill="none" id="path11984" stroke="#000000" stroke-miterlimit="10" stroke-width="1.2728"/></g><g id="myc1"><path d="M443.3 63.914c3.25 16.257-4.7159 44.983-4.7159 44.983-18.883 49.288-7.3224-.32006-7.3224-.32006 7.6425-18.563 6.0116-37.755 4.2386-46.432l3.2438.50393s2.8805 16.323.16003 27.365c0 0-3.8212 12.046-6.8812 26.725 0 0 5.1985-12.915 7.8413-25.924 0 0 4.1607-15.523.48008-27.365l2.9556.46507" fill="none" id="path11994" stroke="#000000" stroke-miterlimit="10" stroke-width="1.2728"/></g><g id="cobl9"><path d="M471.46 63.914c3.25 16.257-4.7159 44.983-4.7159 44.983-18.883 49.288-7.3224-.32006-7.3224-.32006 7.6425-18.563 6.0116-37.755 4.2386-46.432l3.2438.50393s2.8805 16.323.16003 27.365c0 0-3.8212 12.046-6.8812 26.725 0 0 5.1985-12.915 7.8413-25.924 0 0 4.1607-15.523.48008-27.365l2.9556.46507" fill="none" id="path12004" stroke="#000000" stroke-miterlimit="10" stroke-width="1.2728"/></g><g id="gl3"><path d="M496.43 63.914c3.25 16.257-4.7159 44.983-4.7159 44.983-18.883 49.288-7.3224-.32006-7.3224-.32006 7.6425-18.563 6.0116-37.755 4.2386-46.432l3.2438.50393s2.8805 16.323.16003 27.365c0 0-3.8212 12.046-6.8812 26.725 0 0 5.1985-12.915 7.8413-25.924 0 0 4.1607-15.523.48008-27.365l2.9556.46507" fill="none" id="path12014" stroke="#000000" stroke-miterlimit="10" stroke-width="1.2728"/></g><g id="lrx1"><path d="M522.35 63.914c3.25 16.257-4.7159 44.983-4.7159 44.983-18.883 49.288-7.3224-.32006-7.3224-.32006 7.6425-18.563 6.0116-37.755 4.2386-46.432l3.2438.50393s2.8805 16.323.16003 27.365c0 0-3.8212 12.046-6.8812 26.725 0 0 5.1985-12.915 7.8413-25.924 0 0 4.1607-15.523.48008-27.365l2.9556.46507" fill="none" id="path12024" stroke="#000000" stroke-miterlimit="10" stroke-width="1.2728"/></g><g id="csld3"><path d="M547.31 63.914c3.25 16.257-4.7159 44.983-4.7159 44.983-18.883 49.288-7.3224-.32006-7.3224-.32006 7.6425-18.563 6.0116-37.755 4.2386-46.432l3.2438.50393s2.8805 16.323.16003 27.365c0 0-3.8212 12.046-6.8812 26.725 0 0 5.1985-12.915 7.8413-25.924 0 0 4.1607-15.523.48008-27.365l2.9556.46507" fill="none" id="path12034" stroke="#000000" stroke-miterlimit="10" stroke-width="1.2728"/></g><g id="gl2"><path d="M578.36 63.914c3.25 16.257-4.7159 44.983-4.7159 44.983-18.883 49.288-7.3224-.32006-7.3224-.32006 7.6425-18.563 6.0116-37.755 4.2386-46.432l3.2438.50393s2.8805 16.323.16003 27.365c0 0-3.8212 12.046-6.8812 26.725 0 0 5.1985-12.915 7.8413-25.924 0 0 4.1607-15.523.48008-27.365l2.9556.46507" fill="none" id="path12044" stroke="#000000" stroke-miterlimit="10" stroke-width="1.2728"/></g><g id="rhd2"><path d="M606.52 63.914c3.25 16.257-4.7159 44.983-4.7159 44.983-18.883 49.288-7.3224-.32006-7.3224-.32006 7.6425-18.563 6.0116-37.755 4.2386-46.432l3.2438.50393s2.8805 16.323.16003 27.365c0 0-3.8212 12.046-6.8812 26.725 0 0 5.1985-12.915 7.8413-25.924 0 0 4.1607-15.523.48008-27.365l2.9556.46507" fill="none" id="path12054" stroke="#000000" stroke-miterlimit="10" stroke-width="1.2728"/></g><g id="rhd6"><path d="M631.49 63.914c3.25 16.257-4.7159 44.983-4.7159 44.983-18.883 49.288-7.3224-.32006-7.3224-.32006 7.6425-18.563 6.0116-37.755 4.2386-46.432l3.2438.50393s2.8805 16.323.16003 27.365c0 0-3.8212 12.046-6.8812 26.725 0 0 5.1985-12.915 7.8413-25.924 0 0 4.1607-15.523.48008-27.365l2.9556.46507" fill="none" id="path12064" stroke="#000000" stroke-miterlimit="10" stroke-width="1.2728"/></g><g id="cpc"><path d="M657.41 63.914c3.25 16.257-4.7159 44.983-4.7159 44.983-18.883 49.288-7.3224-.32006-7.3224-.32006 7.6425-18.563 6.0116-37.755 4.2386-46.432l3.2438.50393s2.8805 16.323.16003 27.365c0 0-3.8212 12.046-6.8812 26.725 0 0 5.1985-12.915 7.8413-25.924 0 0 4.1607-15.523.48008-27.365l2.9556.46507" fill="none" id="path12074" stroke="#000000" stroke-miterlimit="10" stroke-width="1.2728"/></g><g id="egl3"><path d="M682.38 63.914c3.25 16.257-4.7159 44.983-4.7159 44.983-18.883 49.288-7.3224-.32006-7.3224-.32006 7.6425-18.563 6.0116-37.755 4.2386-46.432l3.2438.50393s2.8805 16.323.16003 27.365c0 0-3.8212 12.046-6.8812 26.725 0 0 5.1985-12.915 7.8413-25.924 0 0 4.1607-15.523.48008-27.365l2.9556.46507" fill="none" id="path12084" stroke="#000000" stroke-miterlimit="10" stroke-width="1.2728"/></g><g id="myb23"><path d="M712.46 63.914c3.25 16.257-4.7159 44.983-4.7159 44.983-18.883 49.288-7.3224-.32006-7.3224-.32006 7.6425-18.563 6.0116-37.755 4.2386-46.432l3.2438.50393s2.8805 16.323.16003 27.365c0 0-3.8212 12.046-6.8812 26.725 0 0 5.1985-12.915 7.8413-25.924 0 0 4.1607-15.523.48008-27.365l2.9556.46507" fill="none" id="path12094" stroke="#000000" stroke-miterlimit="10" stroke-width="1.2728"/></g><g id="try"><path d="M737.43 63.914c3.25 16.257-4.7159 44.983-4.7159 44.983-18.883 49.288-7.3224-.32006-7.3224-.32006 7.6425-18.563 6.0116-37.755 4.2386-46.432l3.2438.50393s2.8805 16.323.16003 27.365c0 0-3.8212 12.046-6.8812 26.725 0 0 5.1985-12.915 7.8413-25.924 0 0 4.1607-15.523.48008-27.365l2.9556.46507" fill="none" id="path12104" stroke="#000000" stroke-miterlimit="10" stroke-width="1.2728"/></g><g id="wer"><path d="M763.35 63.914c3.25 16.257-4.7159 44.983-4.7159 44.983-18.883 49.288-7.3224-.32006-7.3224-.32006 7.6425-18.563 6.0116-37.755 4.2386-46.432l3.2438.50393s2.8805 16.323.16003 27.365c0 0-3.8212 12.046-6.8812 26.725 0 0 5.1985-12.915 7.8413-25.924 0 0 4.1607-15.523.48008-27.365l2.9556.46507" fill="none" id="path12114" stroke="#000000" stroke-miterlimit="10" stroke-width="1.2728"/></g><g id="ttg2"><path d="M788.32 63.914c3.25 16.257-4.7159 44.983-4.7159 44.983-18.883 49.288-7.3224-.32006-7.3224-.32006 7.6425-18.563 6.0116-37.755 4.2386-46.432l3.2438.50393s2.8805 16.323.16003 27.365c0 0-3.8212 12.046-6.8812 26.725 0 0 5.1985-12.915 7.8413-25.924 0 0 4.1607-15.523.48008-27.365l2.9556.46507" fill="none" id="path12124" stroke="#000000" stroke-miterlimit="10" stroke-width="1.2728"/></g><g id="ttg2-cpc"><path d="M816.48 63.914c3.25 16.257-4.7159 44.983-4.7159 44.983-18.883 49.288-7.3224-.32006-7.3224-.32006 7.6425-18.563 6.0116-37.755 4.2386-46.432l3.2438.50393s2.8805 16.323.16003 27.365c0 0-3.8212 12.046-6.8812 26.725 0 0 5.1985-12.915 7.8413-25.924 0 0 4.1607-15.523.48008-27.365l2.9556.46507" fill="none" id="path12134" stroke="#000000" stroke-miterlimit="10" stroke-width="1.2728"/></g><g id="rhd6-MS"><path d="M841.44 63.914c3.25 16.257-4.7159 44.983-4.7159 44.983-18.883 49.288-7.3224-.32006-7.3224-.32006 7.6425-18.563 6.0116-37.755 4.2386-46.432l3.2438.50393s2.8805 16.323.16003 27.365c0 0-3.8212 12.046-6.8812 26.725 0 0 5.1985-12.915 7.8413-25.924 0 0 4.1607-15.523.48008-27.365l2.9556.46507" fill="none" id="path12144" stroke="#000000" stroke-miterlimit="10" stroke-width="1.2728"/></g><g id="rhd6-IAA"><path d="M867.37 63.914c3.25 16.257-4.7159 44.983-4.7159 44.983-18.883 49.288-7.3224-.32006-7.3224-.32006 7.6425-18.563 6.0116-37.755 4.2386-46.432l3.2438.50393s2.8805 16.323.16003 27.365c0 0-3.8212 12.046-6.8812 26.725 0 0 5.1985-12.915 7.8413-25.924 0 0 4.1607-15.523.48008-27.365l2.9556.46507" fill="none" id="path12154" stroke="#000000" stroke-miterlimit="10" stroke-width="1.2728"/></g><g id="rhd6-ACC"><path d="M892.33 63.914c3.25 16.257-4.7159 44.983-4.7159 44.983-18.883 49.288-7.3224-.32006-7.3224-.32006 7.6425-18.563 6.0116-37.755 4.2386-46.432l3.2438.50393s2.8805 16.323.16003 27.365c0 0-3.8212 12.046-6.8812 26.725 0 0 5.1985-12.915 7.8413-25.924 0 0 4.1607-15.523.48008-27.365l2.9556.46507" fill="none" id="path12164" stroke="#000000" stroke-miterlimit="10" stroke-width="1.2728"/></g><g id="g2856"><path d="M194.11 282.54c-.00000332 16.323-13.232 29.555-29.555 29.555-16.323.0000022-29.555-13.232-29.555-29.555-.00000107-7.8385 3.1138-15.356 8.6565-20.899s13.06-8.6565 20.899-8.6565c16.323.00000331 29.555 13.232 29.555 29.555v1e-8" fill="#ffffff" fill-rule="evenodd" id="path2199-3" stroke="#000000" stroke-miterlimit="10" stroke-width=".5"/><path d="M194.11 282.54c-.00000332 16.323-13.232 29.555-29.555 29.555-16.323.0000022-29.555-13.232-29.555-29.555-.00000107-7.8385 3.1138-15.356 8.6565-20.899s13.06-8.6565 20.899-8.6565c16.323.00000331 29.555 13.232 29.555 29.555v1e-8" fill="#fff594" fill-rule="evenodd" id="circle2201-4" stroke="#000000" stroke-miterlimit="10" stroke-width=".5"/><path d="M185.57 282.54c-.00000276 11.605-9.4074 21.012-21.012 21.012-5.5727.00000133-10.917-2.2138-14.858-6.1543-3.9405-3.9405-6.1543-9.285-6.1543-14.858-.00000133-5.5727 2.2138-10.917 6.1543-14.858 3.9405-3.9405 9.285-6.1543 14.858-6.1543 11.605.00000276 21.012 9.4074 21.012 21.012" fill="#ffffff" fill-rule="evenodd" id="circle2203-2" stroke="#000000" stroke-miterlimit="10" stroke-width=".5"/></g></svg>