<svg xmlns="http://www.w3.org/2000/svg" version="1.1" id="svg107" width="762.298" height="360.3129"><defs id="defs111"><marker orient="auto" refY="0" refX="0" id="Arrow1Send" overflow="visible"><path id="path4845" d="M-1.2 0l-1 1 3.5-1-3.5-1 1 1" stroke-opacity="1" fill-rule="evenodd" fill-opacity="1" stroke="#000" stroke-width=".5333" fill="#000"/></marker></defs><g id="ATML1" fill="#662d91" stroke-linejoin="miter" stroke-opacity="1" fill-opacity="1" stroke="#000" stroke-linecap="butt" stroke-width="4.4282"><path id="path270" d="M183.5282 230.9635s14.5566-9.28 26.202-10.3717c0 0 19.2875-4.003 33.8442-1.6376 0 0 15.4664 2.7294 28.5674 12.3732 0 0 30.0231 23.2906 44.5798 46.7632l1.6376 3.4572 2.0015 3.8211h4.0031s3.8211-8.9159 5.0948-14.5566c0 0 13.465-21.1071-23.2906-56.589 0 0-21.6971-21.2537-43.0553-35.1494 0 0-39.3712-29.3353-63.8173-71.7944 0 0-2.8306-36.7978 15.4397-48.3776 0 0 12.609-21.6155 55.3254-21.1009 0 0 66.9052-7.2051 117.8561 70.5078 0 0 31.9087 33.9673 52.4949 91.094 0 0 28.8207 67.4199 26.762 85.4328 0 0 .2095 5.4462-3.7937 8.7215 0 0-1.0917 6.1865 6.5505 1.0917 0 0 6.5505-14.1927 0-26.5659 0 0-15.6484-60.0462-47.673-120.4563 0 0-46.2174-71.3276-74.6029-91.7069 0 0-62.2297-46.5813-126.6428-10.9175 0 0-46.9452 40.7586-18.5598 79.3338 0 0 39.303 47.3091 57.8627 58.5905 20.0154 13.101 28.0216 23.6546 28.0216 23.6546l28.0215 26.9298s16.0124 25.4741 6.1866 43.67c0 0-42.2143-68.0524-93.8904-64.7772 0 0-54.2235-3.2752-83.3368 59.6823l-6.1866 6.5505 37.8473-82.2451s17.468-59.6823-46.9452-61.5019c0 0-71.3276 5.8227-98.2574 155.0284 0 0 4.003 1.4557 6.5505-1.4557 0 0 32.7524-185.5973 124.0954-137.5603 0 0 8.0062 9.8257 9.8258 22.5628 1.8196 12.737-2.5474 22.9267-2.5474 22.9267l-36.3917 82.791-2.5474 6.7324 3.0933 3.4572 5.4587-3.8211s10.3717-9.8257 14.0108-16.1943c0 0 11.8273-26.5659 30.205-38.3931 0 0 0 0 0 0"/><path d="M474.6612 155.9967s9.8258-29.4772 46.2174-5.0948c1.8196 0 49.4926 65.8688 134.2852 19.6514 0 0 24.0184-26.9298 48.0369-33.1163 0 0 21.471.3639 20.3793 37.1194 0 0-9.4618 17.468-37.8473 46.9452 0 0-14.5566 7.2784-25.838 30.933-11.2814 23.6545-34.936 33.8441-34.936 33.8441s-40.3947 12.7371-77.878-14.1927l-27.2938-44.0339s-14.5567-16.0123-27.6577-27.2937c0 0-26.5658-23.6546-17.468-44.7617 0 0 0 0 0 0m188.1448 15.2845s-67.6884 53.1318-134.649-5.4588c0 0-35.3-33.8442-45.4896-11.6453 0 0-13.4649 17.468 20.3793 48.037 0 0 24.7463 21.1071 33.4803 40.7586 0 0 16.0123 36.7555 48.4009 38.2112 0 0 49.1287 14.9206 69.872-33.1164 0 0 24.0184-34.2081 37.8472-43.67 0 0 37.8473-29.4772 21.835-48.0369-1.4557-33.4803-51.676 14.9206-51.676 14.9206s0 0 0 0" id="path294" fill-rule="evenodd"/></g><g id="FIL" stroke-linejoin="miter" stroke-opacity="1" fill-opacity="1" stroke="#000" stroke-linecap="butt" stroke-width="4.4282" fill="#83af9b"><path id="path173-5" d="M321.0885 170.5533S244.4863 81.1717 214.7351 58.902c0 0 12.609-21.6155 55.3254-21.1009 0 0 66.9052-7.2051 117.8561 70.5078 0 0 31.9087 33.9673 52.4949 91.094 0 0 28.8207 67.4199 26.762 85.4328 0 0-.1545 18.5472-62.3842 4.3545l-56.771-15.2845s-6.1865.3639-4.7308-8.734c0 0 34.936-25.4742-22.199-94.6183 0 0 0 0 0 0"/><path d="M513.6003 186.2018c-23.6546-15.2845-30.9329-32.0247-30.9329-32.0247s-13.4649 17.468 20.3793 48.037c0 0 24.7463 21.1071 33.4803 40.7586 0 0 16.0123 36.7555 48.4009 38.2112 0 0 49.1287 14.9206 69.872-33.1164 0 0 24.0184-34.2081 37.8472-43.67 0 0 37.8473-29.4772 21.835-48.0369 0 0-13.8288 30.205-35.2999 33.4803l-5.4587-6.5505c-76.4225 71.3276-155.7562-2.1835-155.7562-2.1835l-4.367 5.0949" id="path330"/><path id="path125" d="M172.2468 173.4647c-1.8196-12.737-9.8258-22.5628-9.8258-22.5628-91.343-48.037-124.0954 137.5603-124.0954 137.5603s30.569-14.9205 81.1533-9.0979c0 0 14.5567-38.939 39.303-87.7038 0 0 4.367-19.6515 13.4649-18.1958 0 0 0 0 0 0"/></g><g id="PTL" stroke-linejoin="miter" stroke-opacity="1" fill-opacity="1" stroke="#000" stroke-linecap="butt" stroke-width="4.4282" fill="#123555"><path id="path298" d="M482.6674 154.1771s7.2783 16.7402 30.933 32.0247l4.3669-5.0949 10.1897-15.2845s-35.3-33.8442-45.4896-11.6453c0 0 0 0 0 0"/><path d="M662.806 171.2812s50.2204-48.4009 51.6761-14.9206c0 0-13.8288 30.205-35.2999 33.4803l-5.4587-6.5505-10.9175-12.0092" id="path324"/></g><g id="AS2" stroke-linejoin="miter" stroke-opacity="1" fill-opacity="1" stroke="#000" stroke-linecap="butt" stroke-width="4.4282" fill="#f9cdad"><path id="path125-6" d="M119.4789 279.3643s14.5567-38.939 39.303-87.7038c0 0 4.367-19.6515 13.4649-18.1958 1.8196 12.737-2.5474 22.9267-2.5474 22.9267l-36.3917 82.791c-6.1866 5.6407-13.8288.182-13.8288.182s0 0 0 0"/><path id="path173" d="M214.735 58.902c-18.2702 11.5797-15.4396 48.3775-15.4396 48.3775 24.4461 42.459 63.8173 71.7944 63.8173 71.7944 21.3582 13.8957 43.0553 35.1494 43.0553 35.1494 36.7555 35.4819 23.2906 56.589 23.2906 56.589s.364 10.3716 13.8289-5.6407c0 0 34.936-25.4741-22.199-94.6183 0 0-76.6022-89.3816-106.3534-111.6514 0 0 0 0 0 0"/><path id="path316" d="M673.7235 183.2904l-10.9175-12.0092s-67.6884 53.1318-134.649-5.4588l-10.1897 15.2845s79.3337 73.5111 155.7562 2.1835c0 0 0 0 0 0"/></g><g id="WUS"><path id="path292" d="M215.1889 244.6103l23.8365-2.0015s5.6407 2.0015 6.3685 4.185l1.8196 12.1912s-.3639 6.3685-4.9128 7.8242l-19.8335 1.6376s-7.2783-.5458-9.6438-4.7309c0 0-3.821-13.101 2.3655-19.1056 0 0 0 0 0 0" stroke-linejoin="miter" stroke-opacity="1" fill-opacity="1" stroke="#000" stroke-linecap="butt" stroke-width="4.4282" fill="#c8c8a9"/></g><g id="CLV3"><path id="path290" d="M209.7302 220.5918s19.8334-5.2767 35.8457-1.0917c0 0 2.3655 1.8196 1.6376 7.2783l-.3639 8.734s-1.8196 6.1866-7.8242 7.0964l-23.8365 2.0015s-5.8227-1.0917-7.6422-6.1866c0 0-3.2753-14.9205 2.1835-17.8319 0 0 0 0 0 0" stroke-linejoin="miter" stroke-opacity="1" fill-opacity="1" stroke="#000" stroke-linecap="butt" stroke-width="4.4282" fill="#fc9d9a"/></g><g id="UFO"><path id="path254" d="M272.1418 231.3274s30.0231 23.2906 44.5798 46.7632c0 0-16.2964 24.5007-65.1887 29.9045l-47.6056-1.2866s-15.697 3.8599-56.0974-24.9608l5.4932-12.3911s11.8273-26.5659 30.205-38.3931c0 0 10.9176 1.4556 16.0124 21.471 0 0 8.552 19.2876 18.9236 23.2907l26.02-.182s12.1913-1.4557 15.1026-23.1087l.5459-17.65s-2.3655-11.2813 12.0092-3.4571c0 0 0 0 0 0" stroke-linejoin="miter" stroke-opacity="1" fill-opacity="1" stroke="#000" stroke-linecap="butt" stroke-width="4.4282" fill="#fe4365"/></g><g id="LAS" stroke-linejoin="miter" stroke-opacity="1" fill-opacity="1" stroke="#000" stroke-linecap="butt" stroke-width="4.4282" fill="#e69b03"><path id="path250" d="M130.7603 285.9148s-5.4587-4.7309-6.1866 10.9175c0 0 9.8258 4.367 15.6484-1.0917 0 0 1.8196-6.1866-.9098-10.1897l-5.4587 3.8211-3.0933-3.4572"/><path id="path252" d="M321.8164 290.2818l-1.4557-4.9129s-1.2793-4.1358-1.7939-4.0072c-.5147.1287-12.0944 9.6498-2.4446 17.7556 0 0 10.8078 9.2638 16.083-4.1172 0 0 2.9592-6.8192-3.088-13.2524 0 0-2.173.6806-4.7534 3.6212l-2.5474 4.913"/></g><g id="lines" stroke-linejoin="miter" stroke-opacity="1" stroke-dashoffset="0" stroke="#000" stroke-linecap="butt" stroke-miterlimit="4" stroke-dasharray="4.42818094,2.21409046" stroke-width="4.4282" fill="none"><path id="path332" d="M175.364 124.7778h258.8716"/><path id="path4828" d="M474.8934 113.4554s58.156-32.938 53.0095 24.1888" marker-end="url(#Arrow1Send)"/></g><g id="labels" transform="translate(10.52 10.4567)" font-style="normal" font-variant="normal" font-weight="400" font-stretch="normal" font-family="Arial" letter-spacing="0" word-spacing="0" text-anchor="middle" fill="#000" fill-opacity="1" stroke="none"><text id="text5234" y="316.489" x="209.8458" style="line-height:1.25;-inkscape-font-specification:Arial;text-align:center" xml:space="preserve" font-size="16"><tspan y="316.489" x="209.8458" id="tspan5232" font-size="16">Longitudinal section of vegetative shoot apex</tspan></text><text id="text5238" y="314.5099" x="589.2" style="line-height:1.25;-inkscape-font-specification:Arial;text-align:center" xml:space="preserve" font-size="8"><tspan y="314.5099" x="589.2" id="tspan5236" font-size="16">Transverse section of leaf primordium</tspan></text></g></svg>