<svg xmlns="http://www.w3.org/2000/svg" width="762.298" height="360.313"><defs><marker orient="auto" refY="0" refX="0" id="a" overflow="visible"><path d="M-1.2 0l-1 1 3.5-1-3.5-1 1 1" fill-rule="evenodd" stroke="#000" stroke-width=".533"/></marker></defs><g stroke="#000" stroke-width="4.428" fill="#662d91"><path d="M183.528 230.963s14.557-9.28 26.202-10.371c0 0 19.288-4.003 33.844-1.638 0 0 15.467 2.73 28.568 12.373 0 0 30.023 23.291 44.58 46.764l1.637 3.457 2.002 3.82h4.003s3.82-8.915 5.095-14.556c0 0 13.465-21.107-23.291-56.589 0 0-21.697-21.253-43.055-35.15 0 0-39.371-29.334-63.818-71.793 0 0-2.83-36.798 15.44-48.378 0 0 12.61-21.616 55.326-21.101 0 0 66.905-7.205 117.856 70.508 0 0 31.908 33.967 52.494 91.094 0 0 28.821 67.42 26.763 85.433 0 0 .209 5.446-3.794 8.721 0 0-1.092 6.187 6.55 1.092 0 0 6.55-14.193 0-26.566 0 0-15.648-60.046-47.673-120.456 0 0-46.217-71.328-74.603-91.707 0 0-62.23-46.582-126.642-10.918 0 0-46.946 40.759-18.56 79.334 0 0 39.303 47.31 57.863 58.59 20.015 13.101 28.021 23.655 28.021 23.655l28.022 26.93s16.012 25.474 6.186 43.67c0 0-42.214-68.053-93.89-64.777 0 0-54.224-3.276-83.337 59.682l-6.187 6.55 37.848-82.245s17.468-59.682-46.946-61.501c0 0-71.327 5.822-98.257 155.028 0 0 4.003 1.456 6.55-1.456 0 0 32.753-185.597 124.096-137.56 0 0 8.006 9.826 9.826 22.563 1.82 12.737-2.548 22.926-2.548 22.926l-36.391 82.791-2.548 6.733 3.094 3.457 5.458-3.821s10.372-9.826 14.011-16.194c0 0 11.827-26.566 30.205-38.394 0 0 0 0 0 0"/><path d="M474.661 155.997s9.826-29.478 46.218-5.095c1.82 0 49.492 65.869 134.285 19.651 0 0 24.018-26.93 48.037-33.116 0 0 21.47.364 20.379 37.12 0 0-9.462 17.467-37.847 46.945 0 0-14.557 7.278-25.838 30.933-11.282 23.654-34.936 33.844-34.936 33.844s-40.395 12.737-77.878-14.193l-27.294-44.034s-14.557-16.012-27.658-27.294c0 0-26.566-23.654-17.468-44.761 0 0 0 0 0 0m188.145 15.284s-67.688 53.132-134.649-5.459c0 0-35.3-33.844-45.49-11.645 0 0-13.464 17.468 20.38 48.037 0 0 24.746 21.107 33.48 40.759 0 0 16.012 36.755 48.4 38.21 0 0 49.13 14.921 69.873-33.115 0 0 24.018-34.209 37.847-43.67 0 0 37.847-29.478 21.835-48.037-1.456-33.48-51.676 14.92-51.676 14.92s0 0 0 0" fill-rule="evenodd"/></g><g stroke="#000" stroke-width="4.428" fill="#83af9b"><path d="M321.089 170.553S244.486 81.172 214.735 58.902c0 0 12.61-21.616 55.326-21.101 0 0 66.905-7.205 117.856 70.508 0 0 31.908 33.967 52.494 91.094 0 0 28.821 67.42 26.763 85.433 0 0-.155 18.547-62.385 4.354l-56.77-15.284s-6.187.363-4.732-8.734c0 0 34.936-25.475-22.198-94.619 0 0 0 0 0 0M513.6 186.202c-23.654-15.285-30.933-32.025-30.933-32.025s-13.464 17.468 20.38 48.037c0 0 24.746 21.107 33.48 40.759 0 0 16.012 36.755 48.4 38.21 0 0 49.13 14.921 69.873-33.115 0 0 24.018-34.209 37.847-43.67 0 0 37.847-29.478 21.835-48.037 0 0-13.829 30.205-35.3 33.48l-5.459-6.55c-76.422 71.327-155.756-2.184-155.756-2.184l-4.367 5.095M172.247 173.465c-1.82-12.737-9.826-22.563-9.826-22.563-91.343-48.037-124.095 137.56-124.095 137.56s30.569-14.92 81.153-9.098c0 0 14.557-38.939 39.303-87.704 0 0 4.367-19.651 13.465-18.195 0 0 0 0 0 0"/></g><g stroke="#000" stroke-width="4.428" fill="#123555"><path d="M482.667 154.177s7.279 16.74 30.933 32.025l4.367-5.095 10.19-15.285s-35.3-33.844-45.49-11.645c0 0 0 0 0 0M662.806 171.281s50.22-48.4 51.676-14.92c0 0-13.829 30.205-35.3 33.48l-5.459-6.55-10.917-12.01"/></g><g stroke="#000" stroke-width="4.428" fill="#f9cdad"><path d="M119.479 279.364s14.557-38.939 39.303-87.704c0 0 4.367-19.651 13.465-18.195 1.82 12.737-2.548 22.926-2.548 22.926l-36.391 82.791c-6.187 5.641-13.83.182-13.83.182s0 0 0 0M214.735 58.902c-18.27 11.58-15.44 48.378-15.44 48.378 24.447 42.459 63.818 71.794 63.818 71.794 21.358 13.896 43.055 35.15 43.055 35.15 36.756 35.481 23.29 56.588 23.29 56.588s.365 10.372 13.83-5.64c0 0 34.935-25.475-22.2-94.619 0 0-76.602-89.381-106.353-111.651 0 0 0 0 0 0M673.723 183.29l-10.917-12.009s-67.688 53.132-134.649-5.459l-10.19 15.285s79.334 73.511 155.756 2.183c0 0 0 0 0 0"/></g><path d="M215.189 244.61l23.836-2.001s5.641 2.001 6.369 4.185l1.82 12.191s-.364 6.369-4.913 7.824l-19.834 1.638s-7.278-.546-9.644-4.731c0 0-3.82-13.101 2.366-19.106 0 0 0 0 0 0" stroke="#000" stroke-width="4.428" fill="#c8c8a9"/><path d="M209.73 220.592s19.834-5.277 35.846-1.092c0 0 2.365 1.82 1.638 7.278l-.364 8.734s-1.82 6.187-7.825 7.097l-23.836 2.001s-5.823-1.091-7.642-6.186c0 0-3.276-14.92 2.183-17.832 0 0 0 0 0 0" stroke="#000" stroke-width="4.428" fill="#fc9d9a"/><path d="M272.142 231.327s30.023 23.291 44.58 46.764c0 0-16.297 24.5-65.19 29.904l-47.605-1.287s-15.697 3.86-56.097-24.96l5.493-12.391s11.827-26.566 30.205-38.394c0 0 10.918 1.456 16.013 21.472 0 0 8.552 19.287 18.923 23.29l26.02-.182s12.191-1.456 15.103-23.109l.546-17.65s-2.366-11.28 12.009-3.457c0 0 0 0 0 0" stroke="#000" stroke-width="4.428" fill="#fe4365"/><g stroke="#000" stroke-width="4.428" fill="#e69b03"><path d="M130.76 285.915s-5.458-4.731-6.186 10.917c0 0 9.825 4.367 15.648-1.091 0 0 1.82-6.187-.91-10.19l-5.458 3.821-3.094-3.457M321.816 290.282l-1.455-4.913s-1.28-4.136-1.794-4.007c-.515.128-12.095 9.65-2.445 17.755 0 0 10.808 9.264 16.083-4.117 0 0 2.96-6.82-3.088-13.252 0 0-2.173.68-4.753 3.62l-2.548 4.914"/></g><g stroke="#000" stroke-dasharray="4.42818094,2.21409046" stroke-width="4.428" fill="none"><path d="M175.364 124.778h258.872"/><path d="M474.893 113.455s58.156-32.938 53.01 24.19" marker-end="url(#a)"/></g><g font-weight="400" font-family="Arial" letter-spacing="0" word-spacing="0" text-anchor="middle"><text y="316.489" x="209.846" style="line-height:1.25;-inkscape-font-specification:Arial;text-align:center" font-size="16" transform="translate(10.52 10.457)"><tspan y="316.489" x="209.846">Longitudinal section of vegetative shoot apex</tspan></text><text y="314.51" x="589.2" style="line-height:1.25;-inkscape-font-specification:Arial;text-align:center" font-size="8" transform="translate(10.52 10.457)"><tspan y="314.51" x="589.2" font-size="16">Transverse section of leaf primordium</tspan></text></g></svg>