<svg xmlns="http://www.w3.org/2000/svg" id="ShootApex_svg" version="1.1" viewBox="0 0 710 304" author="Provart Lab - Bio Analytic Resource, University of Toronto">
  <g id="ATML1" fill="#662d91" fill-opacity="1" stroke="#000" stroke-linecap="butt" stroke-linejoin="miter" stroke-opacity="1" stroke-width="4.4" transform="translate(-26 -28)">
    <path id="path270" d="M184 231s14-9 26-10c0 0 19-4 34-2 0 0 15 3 28 12 0 0 30 24 45 47l1 4 2 3h4l5-14s14-21-23-57c0 0-22-21-43-35 0 0-39-29-64-72 0 0-3-37 16-48 0 0 12-22 55-21 0 0 67-7 118 70 0 0 32 34 52 91 0 0 29 68 27 86 0 0 0 5-4 9 0 0-1 6 7 1 0 0 6-15 0-27 0 0-16-60-48-120 0 0-46-72-74-92 0 0-63-47-127-11 0 0-47 41-19 79a413 413 0 0 0 86 83l28 27s16 25 7 43c0 0-43-68-94-65 0 0-55-3-84 60l-6 7 38-83s17-59-47-61c0 0-71 6-98 155 0 0 4 1 6-2 0 0 33-185 124-137 0 0 8 10 10 22 2 13-2 23-2 23l-37 83-2 7 3 3 5-3s11-10 14-17c0 0 12-26 31-38"/>
    <path id="path294" fill-rule="evenodd" d="M475 156s9-29 46-5c2 0 49 66 134 20 0 0 24-27 48-34 0 0 22 1 21 38 0 0-10 17-38 47 0 0-15 7-26 30-11 24-35 34-35 34s-40 13-78-14l-27-44s-15-16-28-27c0 0-26-24-17-45m188 15s-68 53-135-5c0 0-35-34-45-12 0 0-14 18 20 48 0 0 25 21 34 41 0 0 16 37 48 38 0 0 49 15 70-33 0 0 24-34 38-44 0 0 37-29 21-48-1-33-51 15-51 15"/>
  </g>
  <g id="FIL" fill="#83af9b" fill-opacity="1" stroke="#000" stroke-linecap="butt" stroke-linejoin="miter" stroke-opacity="1" stroke-width="4.4" transform="translate(-26 -28)">
    <path id="path173-5" d="M321 171S244 81 215 59c0 0 12-22 55-21 0 0 67-7 118 70 0 0 32 34 52 91 0 0 29 68 27 86 0 0 0 18-62 4l-57-15s-6 0-5-9c0 0 35-25-22-94"/>
    <path id="path330" d="M514 186c-24-15-31-32-31-32s-14 18 20 48c0 0 25 21 34 41 0 0 16 37 48 38 0 0 49 15 70-33 0 0 24-34 38-44 0 0 37-29 21-48 0 0-13 31-35 34l-5-7c-77 72-156-2-156-2l-4 5"/>
    <path id="path125" d="M172 173c-2-12-10-22-10-22C71 103 38 288 38 288s31-14 81-9c0 0 15-39 40-87 0 0 4-20 13-19"/>
  </g>
  <g id="PTL" fill="#123555" fill-opacity="1" stroke="#000" stroke-linecap="butt" stroke-linejoin="miter" stroke-opacity="1" stroke-width="4.4" transform="translate(-26 -28)">
    <path id="path298" d="M483 154s7 17 31 32l4-5 10-15s-35-34-45-12"/>
    <path id="path324" d="M663 171s50-48 51-15c0 0-13 31-35 34l-5-7-11-12"/>
  </g>
  <g id="AS2" fill="#f9cdad" fill-opacity="1" stroke="#000" stroke-linecap="butt" stroke-linejoin="miter" stroke-opacity="1" stroke-width="4.4" transform="translate(-26 -28)">
    <path id="path125-6" d="M119 279s15-39 40-87c0 0 4-20 13-19 2 13-2 23-2 23l-37 83c-6 6-14 0-14 0"/>
    <path id="path173" d="M215 59c-19 11-16 48-16 48 25 43 64 72 64 72 21 14 43 35 43 35 37 36 23 57 23 57s1 10 14-6c0 0 35-25-22-94 0 0-77-90-106-112"/>
    <path id="path316" d="m674 183-11-12s-68 53-135-5l-10 15s79 74 156 2"/>
  </g>
  <g id="WUS" transform="translate(-26 -28)">
    <path id="path292" fill="#c8c8a9" fill-opacity="1" stroke="#000" stroke-linecap="butt" stroke-linejoin="miter" stroke-opacity="1" stroke-width="4.4" d="m215 245 24-2s6 2 6 4l2 12s0 6-5 8l-20 1s-7 0-9-4c0 0-4-13 2-19"/>
  </g>
  <g id="CLV3" transform="translate(-26 -28)">
    <path id="path290" fill="#fc9d9a" fill-opacity="1" stroke="#000" stroke-linecap="butt" stroke-linejoin="miter" stroke-opacity="1" stroke-width="4.4" d="M210 221s20-6 36-1c0 0 2 1 1 7v9s-2 6-8 7l-24 2s-6-1-7-7c0 0-4-14 2-17"/>
  </g>
  <g id="UFO" transform="translate(-26 -28)">
    <path id="path254" fill="#fe4365" fill-opacity="1" stroke="#000" stroke-linecap="butt" stroke-linejoin="miter" stroke-opacity="1" stroke-width="4.4" d="M272 231s30 24 45 47c0 0-17 25-65 30l-48-1s-16 4-56-25l5-13s12-26 31-38c0 0 10 1 16 21 0 0 8 20 18 24h26s13-2 16-24v-17s-2-11 12-4"/>
  </g>
  <g id="LAS" fill="#e69b03" fill-opacity="1" stroke="#000" stroke-linecap="butt" stroke-linejoin="miter" stroke-opacity="1" stroke-width="4.4" transform="translate(-26 -28)">
    <path id="path250" d="M131 286s-6-5-6 11c0 0 9 4 15-1 0 0 2-6-1-10l-5 3-3-3"/>
    <path id="path252" d="m322 290-2-5-1-4c-1 0-13 10-3 18 0 0 11 9 16-4 0 0 3-7-3-13 0 0-2 0-5 3l-2 5"/>
  </g>
  <g id="lines" fill="none" stroke="#000" stroke-dasharray="4.428 2.214" stroke-dashoffset="0" stroke-linecap="butt" stroke-linejoin="miter" stroke-miterlimit="4" stroke-opacity="1" stroke-width="4.4" transform="translate(-26 -28)">
    <path id="path332" d="M175 125h259"/>
    <path id="path4828" marker-end="url(#Arrow1Send)" d="M475 113s58-32 53 25"/>
  </g>
  <g id="labels" fill="#000" fill-opacity="1" stroke="none" font-family="Arial" font-stretch="normal" font-style="normal" font-variant="normal" font-weight="400" letter-spacing="0" text-anchor="middle" word-spacing="0">
    <text xml:space="preserve" id="text5234" x="194.6" y="299.1" font-size="16" style="line-height:1.25;-inkscape-font-specification:Arial;text-align:center"><tspan id="tspan5232" x="194.6" y="299.1" font-size="16">Longitudinal section of vegetative shoot apex</tspan></text>
    <text xml:space="preserve" id="text5238" x="574" y="297.1" font-size="8" style="line-height:1.25;-inkscape-font-specification:Arial;text-align:center"><tspan id="tspan5236" x="574" y="297.1" font-size="16">Transverse section of leaf primordium</tspan></text>
  </g>
</svg>