<svg xmlns="http://www.w3.org/2000/svg" version="1.1" id="SiliqueDevelopment_svg" viewBox="0 0 3590.0315 1761.1426"><g id="DAPneg1"><path d="M249.9365 1600.443c19.2655-70.8473 3.1073-35.4236 19.2655-70.8473 0 0 29.209-36.6667 32.3164-122.4294 0 0 25.4803-51.582-8.7005-59.661 0 0 13.6723-78.9266-9.322-77.0622 0 0-14.9153-10.565-24.8588 1.243 0 0-32.9379-1.243-41.6385 78.305 0 0-15.5367 13.0509-7.4576 51.582 0 0-6.2147 104.4068 22.3729 127.401 0 0 12.4294 17.4012 3.1073 64.6329l14.9153 6.836" id="path4514" stroke-linejoin="miter" stroke-opacity="1" stroke="#000" stroke-linecap="butt" stroke-width="1.4142" fill="none"/></g><g id="DAP0"><path d="M476.7727 1604.7934l11.1864-55.9322s38.531 6.2147 37.2881-83.2768l-3.1073-67.7401s-16.7797-47.8531 87.6271-125.5368c0 0-14.2938-20.5084-68.983 25.4803 0 0 8.7005-50.9605-32.9379-64.6328l-6.8361-3.7288s-17.4012 8.079-20.5085 50.339c0 0-13.6723-22.373-23.6159-4.3503 0 0-51.5819-89.4915-88.87-27.3446 0 0 18.644 19.2655 0 19.2655 0 0-17.4011 9.322-5.5932 20.5085 0 0 31.6949 1.2429 61.5254 68.983 0 0-17.4011 141.0735 1.8644 172.7684 0 0-3.7288 23.6158 26.1017 21.1299l3.7288 51.5819 21.13 2.4859" id="path4516" stroke-linejoin="miter" stroke-opacity="1" stroke="#000" stroke-linecap="butt" stroke-width="1.4142" fill="none"/></g><g id="DAP1"><path d="M702.3659 1606.6578h21.13l6.2146-75.8192s36.0452-34.1808 36.0452-108.1356c0 0 14.2938-64.6327-22.3729-74.5762 0 0 9.322-109.3786-31.0734-108.1356l-6.2147-16.1582s4.3503-18.6441-18.0226-16.1582c0 0-19.2655 3.1073-17.4011 16.1582 0 0 14.9152 4.9717.6214 13.0508 0 0-39.1525 42.8814-.6214 126.7797 0 0-20.5085 16.1582-4.9718 52.2034l21.13 85.7627s-1.243 21.1299 14.9152 24.2373l.6215 80.7909" id="path4520" stroke-linejoin="miter" stroke-opacity="1" stroke="#000" stroke-linecap="butt" stroke-width="1.4142" fill="none"/></g><g id="DAP2"><path d="M916.7727 1603.5505l23.6158 2.4859 4.9717-59.6611s49.7175-54.6892 36.0452-196.3841c0 0-8.7005-12.4294 6.2147-24.8588 17.4012-26.1017 1.243-43.5028 1.243-43.5028l-33.5594 8.7005-12.4293-27.3446s1.2429-44.7457-29.8306-134.2373c-7.4576-37.2881-9.9435-50.9604-9.9435-50.9604s-21.1299-12.4294-33.5593 0l37.2882 181.4689s-39.774 29.8305-39.774 44.7458c0 13.6723 21.1299 22.3728 21.1299 22.3728s12.4294 32.3164 2.4859 54.6893c0 0-8.7006 4.9718 4.9717 48.4746 0 0-2.4859 106.8926 23.6158 109.3785l-2.4858 64.6328" id="path4522" stroke-linejoin="miter" stroke-opacity="1" stroke="#000" stroke-linecap="butt" stroke-width="1.4142" fill="none"/></g><g id="DAP3"><path d="M1114.3998 1608.5222l23.6158 1.243s1.7205-51.284 10.5094-64.4672c6.5917-10.1073 1.7578-14.9412 1.7578-14.9412s10.5467-4.8338 2.1972-10.9861c7.4706-8.3494 3.076-21.5328 3.076-21.5328s87.4497-316.8397-35.595-831.8692c0 0 3.7608-9.5369-3.6968-23.2092 0 0 6.8361-9.9435-8.7006-9.322l-11.1864.6215-7.4576 5.5932 1.2429 26.7231s-10.565 39.774-1.8644 60.904c0 0 61.5452 302.5498 33.4207 587.31l-15.82 189.8403 6.0151 11.4938s-9.9435 3.1073-4.3503 11.1864c0 0-.6214 13.6723 3.7288 28.5876 4.3503 14.9152 3.1074 52.8248 3.1074 52.8248s0 0 0 0" id="path4524" stroke-linejoin="miter" stroke-opacity="1" stroke="#000" stroke-linecap="butt" stroke-width="1.4142" fill="none"/></g><g id="DAP4"><path d="M1257.0679 1645.052l26.3667 1.7577 38.671-110.7401s10.5468-12.3044 0-17.5778c0 0 9.8083-9.4046 8.5654-21.834 0 0 83.2768-164.0678 65.8757-835.2542l-23.4654-422.5753s-3.5155-52.7334-24.609-68.5534v-22.8511l-28.1243-7.0312s-14.9412 17.5778-7.9101 18.4567c0 0-4.3944 12.3045 3.5156 17.5778 0 0-15.82-.8789-4.3944 166.989 0 0 26.3666 387.5905 14.0622 784.8487 0 0-7.0311 128.3179-52.7334 370.8915 0 0-8.0926 3.7162 4.9582 6.202 13.0509 3.7289.6215 10.565.6215 10.565s-9.9435-6.2146-3.1074 4.3503c0 0-5.5932 2.4859 2.4859 16.1582 0 0 2.5679 25.2065-20.7782 108.6202 0 0 0 0 0 0" id="path4526" stroke-linejoin="miter" stroke-opacity="1" stroke="#000" stroke-linecap="butt" stroke-width="1.4142" fill="none"/></g><g id="DAP5"><path d="M1480.3059 1623.0797h24.6089s34.2767-84.3734 29.8823-101.0723c0 0 25.4878 3.5156 24.6089-94.9201 0 0 35.1556-131.8335 21.0933-701.354 0 0-23.6136-551.5614-74.5741-587.6065 0 0-1.243-34.8023-37.2881-18.6441l6.2147 27.3446s2.4858 13.6723-4.9718 31.0735c-7.4576 17.401 0 63.3898 0 63.3898s32.3164 228.7006 27.3446 396.4972c0 0 30.5413 302.3946.659 544.968l-19.3355 316.4005s-5.2733 18.4566 11.4256 22.851c0 0-7.91 10.5468-2.6367 28.1246 4.3945 35.1556-7.0311 72.9478-7.0311 72.9478s0 0 0 0" id="path4528" stroke-linejoin="miter" stroke-opacity="1" stroke="#000" stroke-linecap="butt" stroke-width="1.4142" fill="none"/></g><g id="DAP6"><path d="M1714.9695 1612.533l29.8822.8789s0-107.2245-10.5467-106.3456c0 0 47.5524-346.0017 7.7784-833.2333l-24.8588-432.5424s0-136.7232-32.3163-151.6384c0 0 9.9435-13.6723 0-26.1017 0 0-26.1017 0-26.1017 6.2147 0 0-13.6723 13.6723-2.486 23.6158 0 0-22.3728 32.3164-22.3728 78.305l13.6723 348.0227s27.3447 290.8474 19.887 459.887c-7.4576 169.0395 17.4012 531.9774 17.4012 531.9774l9.8467.7665s2.6367 23.73 7.031 34.2767c4.3946 10.5467 13.1835 65.9167 13.1835 65.9167s0 0 0 0" id="path4530" stroke-linejoin="miter" stroke-opacity="1" stroke="#000" stroke-linecap="butt" stroke-width="1.4142" fill="none"/></g><g id="DAP7"><path d="M1891.6263 1501.7929s-10.5467-2.6366-7.0311 18.4567c7.91 65.9167-6.1522 104.5879-6.1522 104.5879l34.2767-3.5156s4.3944-39.55 20.2144-83.4945c6.1523-7.0311 5.2734-16.699 5.2734-16.699s3.5155-7.91 2.6366-13.1832c0 0 59.7704-180.327 39.8834-520.892C2030.445 465.0195 1931.01 99.5958 1931.01 99.5958s1.2429-14.9153-22.373-29.8305c0 0 3.7289-13.6723-7.4576-22.373 0 0 1.243-14.9152-13.6723-12.4293 0 0-16.1582-1.243-17.4011 14.9153 0 0-3.7288 16.1582 4.9718 27.3446 0 0-23.616 31.0734 1.2429 233.6723 0 0 42.2599 462.3729 2.4859 845.1978l-6.2147 259.774s-4.1911 99.7616 19.0344 85.926c0 0 0 0 0 0" id="path4532" stroke-linejoin="miter" stroke-opacity="1" stroke="#000" stroke-linecap="butt" stroke-width="1.4142" fill="none"/></g><g id="DAP8"><path d="M2151.7777 1631.8686h35.1556l14.941-114.2557s18.4568-17.5778 3.5157-20.2144c6.842 5.1316 45.7422-128.5586 13.9815-420.8537l-59.661-927.2316s-17.4011-78.3051-49.7175-84.5198c0 0 13.6723-31.0734-9.9435-22.3729 0 0-17.4011 7.4577-9.9435 26.1017 0 0-12.4294 11.1865-4.9717 29.8305 0 0-23.616 41.017-8.7006 147.9096 0 0-1.243 181.469 26.1017 531.9774 22.3729 166.5537 7.4576 335.5933 7.4576 335.5933s12.4294 377.853 39.774 392.7683c0 0-7.6571 7.496 1.1318 16.285 0 0-2.6367 15.82 4.3944 23.73l-3.5155 85.2523" id="path4534" stroke-linejoin="miter" stroke-opacity="1" stroke="#000" stroke-linecap="butt" stroke-width="1.4142" fill="none"/></g><g id="DAP9"><path d="M2334.5868 1516.734s-3.955 11.4256 0 17.5779c0 0 6.1522 35.1555 2.1972 80.4184l34.2767.8789s4.3944-41.7473 14.5017-67.2351l.4394-15.3806s3.5156-9.2283 1.3184-15.82c0 0 13.6227 2.1972 16.6989-16.699 0 0 41.567-528.3364-.6928-960.8788 0 0-13.6723-420.113-53.4463-443.7288 0 0 5.5932-9.9435-1.8644-17.4012 0 0 4.9718-16.1582-1.243-18.0226 0 0-19.2655-8.079-32.9378 4.9718 0 0-5.5932 20.5085 0 31.0734 0 0-22.373 27.9661-17.4011 129.887 0 0 37.288 502.147 17.401 1036.6102 0 0-10.6993 268.853 20.752 253.7486 0 0 0 0 0 0" id="path4536" stroke-linejoin="miter" stroke-opacity="1" stroke="#000" stroke-linecap="butt" stroke-width="1.4142" fill="none"/></g><g id="DAP10"><path d="M2572.7659 1517.6129s-7.0311 7.0312-1.7578 13.1834c0 0-6.1522 1.7578.8789 22.851 7.91 35.1557 3.5156 69.4324 3.5156 69.4324h36.0344s.8789-45.7022 9.6678-65.0378c6.1523-14.9412-2.6366-21.0934-2.6366-21.0934s6.1522-7.91.8789-14.0622c0 0 19.3355 4.3944 20.2144-22.8512 0 0 47.1547-709.366-77.1391-1420.3264 0 0-5.5932-17.4012-14.2938-18.6441 0 0 1.2429-17.4011-4.9717-24.8588 0 0-13.051-12.4293-28.5876-.6214 0 0-9.3221 8.079-3.7288 26.1017 0 0-22.373 27.966-10.565 133.6158 0 0 47.2316 408.9265 47.2316 851.4124 0 0-14.2912 482.324 25.2588 470.8986 0 0 0 0 0 0" id="path4538" stroke-linejoin="miter" stroke-opacity="1" stroke="#000" stroke-linecap="butt" stroke-width="1.4142" fill="none"/></g><g id="DAP11"><path d="M2752.5919 1614.7369l41.0169 1.243s36.0452-78.3051 26.1017-109.3786c0 0 44.7458 22.3729 38.531-370.3954 0 0-19.172-688.2018-98.2721-985.2666 0 0-4.8916-51.3436-28.5075-60.0442 0 0 12.4294-16.1582-2.4858-34.8022 0 0-17.4012-34.8023-33.5594-2.486 0 0-17.4011 22.373-3.7288 36.0453 0 0-28.3964 56.0138-9.0608 177.3006 0 0 73.6936 662.9254 58.7783 1097.9536 0 0-3.7288 144.1808 23.6159 142.9379 0 0-9.3221 6.836-5.5933 16.1582 0 0-5.5932 19.887-3.1073 31.6949 2.4859 11.8079-3.7288 59.0395-3.7288 59.0395s0 0 0 0" id="path4540" stroke-linejoin="miter" stroke-opacity="1" stroke="#000" stroke-linecap="butt" stroke-width="1.4142" fill="none"/></g><g id="DAP12"><path d="M2988.1286 1622.1946l40.3955 4.3502s36.6667-112.4858 17.401-123.0508c0 0 39.774-8.7006 31.695-83.2768 0 0-10.565-1300.7345-92.5988-1323.1074l-7.4577.6215 1.243-39.1526s-1.243-10.565-11.808-8.7005l-10.565 1.8644s-9.9434 1.8644-9.9434 13.0508c0 0-.6215 14.2938 9.322 27.9661l1.243 7.4576s-16.7797-4.3502-14.2938 7.4577l.6214 24.2373s-28.7288 103.4006-5.8776 460.2299c0 0 21.0933 293.5492 14.0622 624.0117 0 0-3.5156 290.0337 43.9445 284.7603 0 0-20.2145 23.73-8.789 50.0968 9.6679 34.2767 1.4057 71.1838 1.4057 71.1838s0 0 0 0" id="path4542" stroke-linejoin="miter" stroke-opacity="1" stroke="#000" stroke-linecap="butt" stroke-width="1.4142" fill="none"/></g><g id="DAP13"><path d="M3197.6565 1605.5019h39.55s23.73-98.4356 2.6367-103.709c0 0 33.3979 18.4567 38.6712-155.5635 0 0 58.0067-458.7804 3.5156-829.672 0 0-52.7334-451.7493-84.3735-437.687 0 0 12.958-25.8849 3.0145-31.4781 0 0-11.808-16.7797-24.8588-8.0791 0 0-16.7796 19.2655-9.9435 27.966 0 0-24.8587 36.6668-19.2655 108.1357 0 0 12.4294 182.7119 28.5875 371.6384 38.531 239.887 9.9436 464.8588 9.9436 464.8588s-21.13 220-14.9153 459.887c0 0 9.322 28.5875 20.5085 28.5875 0 0-6.2147 6.8362-1.8644 13.6724 4.9717 9.322-1.8644 14.2937-1.8644 14.2937s-6.8362 3.1074 1.2429 16.7797c10.565 27.3446 9.4149 60.3695 9.4149 60.3695s0 0 0 0" id="path4544" stroke-linejoin="miter" stroke-opacity="1" stroke="#000" stroke-linecap="butt" stroke-width="1.4142" fill="none"/></g><g id="DAP14"><path d="M3473.6279 1514.9763l-2.6366 21.0933s-14.9412 19.3356-6.1523 26.3667c11.4256 19.3356 5.2734 74.7057 5.2734 74.7057h44.8233s3.5156-36.0345 14.0623-58.8857c12.3044-37.7922-4.3945-65.0378-4.3945-65.0378s35.1556 4.3944 31.64-65.9167c0 0 15.4444-176.8587-20.6008-502.5084 0 0-33.8903-697.1762-144.6304-858.892 0 0 11.4256-20.2144 4.3944-31.64 0 0-18.4566-13.1833-30.7611 11.4256 0 0-2.6367 16.699 5.2733 25.4878 0 0 41.3079 150.2902 46.5812 279.487 0 0-9.6678-41.3078-16.699-60.6434-7.031-19.3356-19.3355-129.1968-19.3355-129.1968s-8.789-49.2179-28.1245-87.0101c0 0-18.4566-25.4878-18.4566 47.46 0 0-1.7578 135.349 20.2144 216.207 21.0934 90.5256 7.91 156.4423 7.91 156.4423s7.91 62.4012 18.4567 89.6468c14.941 48.3389 7.91 114.2556 7.91 114.2556s4.3945 61.5223 12.3045 93.1624c0 0 29.8822 182.809 21.0933 281.2447 0 0-4.3944 220.6013 12.3045 341.0092 0 0-.879 90.5257 39.55 81.7368 0 0 0 0 0 0" id="path4546" stroke-linejoin="miter" stroke-opacity="1" stroke="#000" stroke-linecap="butt" stroke-width="1.4142" fill="none"/></g><text id="text4598" y="1730.3301" x="200.8405" style="line-height:1.25;-inkscape-font-specification:Arial;text-align:start" xml:space="preserve" font-style="normal" font-variant="normal" font-weight="400" font-stretch="normal" font-size="8" font-family="Arial" letter-spacing="0" word-spacing="0" text-anchor="start" fill="#000" fill-opacity="1" stroke="none"><tspan y="1730.3301" x="200.8405" id="tspan4596" font-size="64">-1</tspan></text><text xml:space="preserve" style="line-height:1.25;-inkscape-font-specification:Arial;text-align:start" x="446.9421" y="1730.3301" id="text4612" font-style="normal" font-variant="normal" font-weight="400" font-stretch="normal" font-size="8" font-family="Arial" letter-spacing="0" word-spacing="0" text-anchor="start" fill="#000" fill-opacity="1" stroke="none"><tspan id="tspan4610" x="446.9421" y="1730.3301" font-size="64">0</tspan></text><text id="text4616" y="1730.3301" x="688.0721" style="line-height:1.25;-inkscape-font-specification:Arial;text-align:start" xml:space="preserve" font-style="normal" font-variant="normal" font-weight="400" font-stretch="normal" font-size="8" font-family="Arial" letter-spacing="0" word-spacing="0" text-anchor="start" fill="#000" fill-opacity="1" stroke="none"><tspan y="1730.3301" x="688.0721" id="tspan4614" font-size="64">1</tspan></text><text xml:space="preserve" style="line-height:1.25;-inkscape-font-specification:Arial;text-align:start" x="904.3433" y="1730.3301" id="text4620" font-style="normal" font-variant="normal" font-weight="400" font-stretch="normal" font-size="8" font-family="Arial" letter-spacing="0" word-spacing="0" text-anchor="start" fill="#000" fill-opacity="1" stroke="none"><tspan id="tspan4618" x="904.3433" y="1730.3301" font-size="64">2</tspan></text><text id="text4624" y="1730.3301" x="1105.6992" style="line-height:1.25;-inkscape-font-specification:Arial;text-align:start" xml:space="preserve" font-style="normal" font-variant="normal" font-weight="400" font-stretch="normal" font-size="8" font-family="Arial" letter-spacing="0" word-spacing="0" text-anchor="start" fill="#000" fill-opacity="1" stroke="none"><tspan y="1730.3301" x="1105.6992" id="tspan4622" font-size="64">3</tspan></text><text xml:space="preserve" style="line-height:1.25;-inkscape-font-specification:Arial;text-align:start" x="1267.2811" y="1730.3301" id="text4628" font-style="normal" font-variant="normal" font-weight="400" font-stretch="normal" font-size="8" font-family="Arial" letter-spacing="0" word-spacing="0" text-anchor="start" fill="#000" fill-opacity="1" stroke="none"><tspan id="tspan4626" x="1267.2811" y="1730.3301" font-size="64">4</tspan></text><text id="text4632" y="1730.3301" x="1481.0664" style="line-height:1.25;-inkscape-font-specification:Arial;text-align:start" xml:space="preserve" font-style="normal" font-variant="normal" font-weight="400" font-stretch="normal" font-size="8" font-family="Arial" letter-spacing="0" word-spacing="0" text-anchor="start" fill="#000" fill-opacity="1" stroke="none"><tspan y="1730.3301" x="1481.0664" id="tspan4630" font-size="64">5</tspan></text><text xml:space="preserve" style="line-height:1.25;-inkscape-font-specification:Arial;text-align:start" x="1704.7952" y="1730.3301" id="text4636" font-style="normal" font-variant="normal" font-weight="400" font-stretch="normal" font-size="8" font-family="Arial" letter-spacing="0" word-spacing="0" text-anchor="start" fill="#000" fill-opacity="1" stroke="none"><tspan id="tspan4634" x="1704.7952" y="1730.3301" font-size="64">6</tspan></text><text id="text4640" y="1730.3301" x="1881.2924" style="line-height:1.25;-inkscape-font-specification:Arial;text-align:start" xml:space="preserve" font-style="normal" font-variant="normal" font-weight="400" font-stretch="normal" font-size="8" font-family="Arial" letter-spacing="0" word-spacing="0" text-anchor="start" fill="#000" fill-opacity="1" stroke="none"><tspan y="1730.3301" x="1881.2924" id="tspan4638" font-size="64">7</tspan></text><text xml:space="preserve" style="line-height:1.25;-inkscape-font-specification:Arial;text-align:start" x="2147.281" y="1730.3301" id="text4644" font-style="normal" font-variant="normal" font-weight="400" font-stretch="normal" font-size="8" font-family="Arial" letter-spacing="0" word-spacing="0" text-anchor="start" fill="#000" fill-opacity="1" stroke="none"><tspan id="tspan4642" x="2147.281" y="1730.3301" font-size="64">8</tspan></text><text id="text4648" y="1730.3301" x="2341.1792" style="line-height:1.25;-inkscape-font-specification:Arial;text-align:start" xml:space="preserve" font-style="normal" font-variant="normal" font-weight="400" font-stretch="normal" font-size="8" font-family="Arial" letter-spacing="0" word-spacing="0" text-anchor="start" fill="#000" fill-opacity="1" stroke="none"><tspan y="1730.3301" x="2341.1792" id="tspan4646" font-size="64">9</tspan></text><text xml:space="preserve" style="line-height:1.25;-inkscape-font-specification:Arial;text-align:start" x="2554.9646" y="1730.3301" id="text4652" font-style="normal" font-variant="normal" font-weight="400" font-stretch="normal" font-size="8" font-family="Arial" letter-spacing="0" word-spacing="0" text-anchor="start" fill="#000" fill-opacity="1" stroke="none"><tspan id="tspan4650" x="2554.9646" y="1730.3301" font-size="64">10</tspan></text><text id="text4656" y="1722.8724" x="2733.9478" style="line-height:1.25;-inkscape-font-specification:Arial;text-align:start" xml:space="preserve" font-style="normal" font-variant="normal" font-weight="400" font-stretch="normal" font-size="8" font-family="Arial" letter-spacing="0" word-spacing="0" text-anchor="start" fill="#000" fill-opacity="1" stroke="none"><tspan y="1722.8724" x="2733.9478" id="tspan4654" font-size="64">11</tspan></text><text xml:space="preserve" style="line-height:1.25;-inkscape-font-specification:Arial;text-align:start" x="2963.678" y="1722.8724" id="text4660" font-style="normal" font-variant="normal" font-weight="400" font-stretch="normal" font-size="8" font-family="Arial" letter-spacing="0" word-spacing="0" text-anchor="start" fill="#000" fill-opacity="1" stroke="none"><tspan id="tspan4658" x="2963.678" y="1722.8724" font-size="64">12</tspan></text><text id="text4664" y="1722.8724" x="3174.6116" style="line-height:1.25;-inkscape-font-specification:Arial;text-align:start" xml:space="preserve" font-style="normal" font-variant="normal" font-weight="400" font-stretch="normal" font-size="8" font-family="Arial" letter-spacing="0" word-spacing="0" text-anchor="start" fill="#000" fill-opacity="1" stroke="none"><tspan y="1722.8724" x="3174.6116" id="tspan4662" font-size="64">13</tspan></text><text xml:space="preserve" style="line-height:1.25;-inkscape-font-specification:Arial;text-align:start" x="3455.8564" y="1722.8724" id="text4668" font-style="normal" font-variant="normal" font-weight="400" font-stretch="normal" font-size="8" font-family="Arial" letter-spacing="0" word-spacing="0" text-anchor="start" fill="#000" fill-opacity="1" stroke="none"><tspan id="tspan4666" x="3455.8564" y="1722.8724" font-size="64">14</tspan></text><text xml:space="preserve" style="line-height:1.25;-inkscape-font-specification:Arial;text-align:start" x="25.0625" y="1730.3301" id="text4672" font-style="normal" font-variant="normal" font-weight="400" font-stretch="normal" font-size="8" font-family="Arial" letter-spacing="0" word-spacing="0" text-anchor="start" fill="#000" fill-opacity="1" stroke="none"><tspan id="tspan4670" x="25.0625" y="1730.3301" font-size="64">DPA</tspan></text></svg>