<svg xmlns="http://www.w3.org/2000/svg" width="3590.032" height="1761.143"><path d="M249.936 1600.443c19.266-70.847 3.108-35.424 19.266-70.847 0 0 29.21-36.667 32.316-122.43 0 0 25.48-51.582-8.7-59.66 0 0 13.672-78.927-9.322-77.063 0 0-14.915-10.565-24.859 1.243 0 0-32.938-1.243-41.638 78.305 0 0-15.537 13.051-7.458 51.582 0 0-6.215 104.407 22.373 127.401 0 0 12.43 17.401 3.107 64.633l14.916 6.836M476.773 1604.793l11.186-55.932s38.531 6.215 37.288-83.277l-3.107-67.74s-16.78-47.853 87.627-125.537c0 0-14.294-20.508-68.983 25.48 0 0 8.7-50.96-32.938-64.632l-6.836-3.729s-17.401 8.08-20.509 50.34c0 0-13.672-22.374-23.615-4.351 0 0-51.582-89.492-88.87-27.345 0 0 18.644 19.266 0 19.266 0 0-17.402 9.322-5.594 20.508 0 0 31.695 1.243 61.526 68.983 0 0-17.401 141.074 1.864 172.769 0 0-3.729 23.615 26.102 21.13l3.729 51.581 21.13 2.486M702.366 1606.658h21.13l6.215-75.82s36.045-34.18 36.045-108.135c0 0 14.293-64.633-22.373-74.576 0 0 9.322-109.379-31.074-108.136l-6.214-16.158s4.35-18.644-18.023-16.158c0 0-19.265 3.107-17.401 16.158 0 0 14.915 4.972.621 13.05 0 0-39.152 42.882-.621 126.78 0 0-20.509 16.159-4.972 52.204l21.13 85.763s-1.243 21.13 14.915 24.237l.622 80.79M916.773 1603.55l23.615 2.486 4.972-59.66s49.718-54.69 36.045-196.385c0 0-8.7-12.43 6.215-24.859 17.401-26.101 1.243-43.502 1.243-43.502l-33.56 8.7-12.429-27.345s1.243-44.745-29.83-134.237c-7.458-37.288-9.944-50.96-9.944-50.96s-21.13-12.43-33.559 0l37.288 181.469s-39.774 29.83-39.774 44.745c0 13.673 21.13 22.373 21.13 22.373s12.43 32.317 2.486 54.69c0 0-8.7 4.971 4.972 48.474 0 0-2.486 106.893 23.616 109.379l-2.486 64.632M1114.4 1608.522l23.616 1.243s1.72-51.284 10.509-64.467c6.592-10.107 1.758-14.941 1.758-14.941s10.546-4.834 2.197-10.986c7.47-8.35 3.076-21.533 3.076-21.533s87.45-316.84-35.595-831.87c0 0 3.76-9.536-3.697-23.208 0 0 6.836-9.944-8.7-9.323l-11.187.622-7.457 5.593 1.242 26.723s-10.564 39.774-1.864 60.904c0 0 61.545 302.55 33.42 587.31l-15.82 189.84 6.016 11.494s-9.944 3.108-4.35 11.187c0 0-.622 13.672 3.728 28.587 4.35 14.916 3.108 52.825 3.108 52.825s0 0 0 0M1257.068 1645.052l26.367 1.758 38.67-110.74s10.547-12.305 0-17.578c0 0 9.809-9.405 8.566-21.834 0 0 83.277-164.068 65.876-835.254l-23.466-422.576s-3.515-52.733-24.609-68.553v-22.851l-28.124-7.031s-14.941 17.577-7.91 18.456c0 0-4.395 12.305 3.515 17.578 0 0-15.82-.879-4.394 166.99 0 0 26.367 387.59 14.062 784.848 0 0-7.03 128.318-52.733 370.891 0 0-8.093 3.716 4.958 6.202 13.051 3.73.622 10.565.622 10.565s-9.944-6.214-3.108 4.35c0 0-5.593 2.486 2.486 16.159 0 0 2.568 25.206-20.778 108.62 0 0 0 0 0 0M1480.306 1623.08h24.609s34.276-84.374 29.882-101.073c0 0 25.488 3.516 24.609-94.92 0 0 35.156-131.833 21.093-701.354 0 0-23.613-551.561-74.574-587.606 0 0-1.243-34.803-37.288-18.644l6.215 27.344s2.486 13.673-4.972 31.074c-7.458 17.4 0 63.39 0 63.39s32.316 228.7 27.345 396.497c0 0 30.54 302.394.659 544.968l-19.336 316.4s-5.273 18.457 11.426 22.851c0 0-7.91 10.547-2.637 28.125 4.394 35.155-7.031 72.948-7.031 72.948s0 0 0 0M1714.97 1612.533l29.882.879s0-107.225-10.547-106.346c0 0 47.552-346.001 7.778-833.233l-24.858-432.542s0-136.724-32.317-151.639c0 0 9.944-13.672 0-26.102 0 0-26.101 0-26.101 6.215 0 0-13.673 13.672-2.486 23.616 0 0-22.373 32.316-22.373 78.305l13.672 348.023s27.345 290.847 19.887 459.887c-7.458 169.04 17.401 531.977 17.401 531.977l9.847.767s2.637 23.73 7.031 34.276c4.395 10.547 13.183 65.917 13.183 65.917s0 0 0 0M1891.626 1501.793s-10.546-2.637-7.03 18.457c7.91 65.916-6.153 104.587-6.153 104.587l34.277-3.515s4.394-39.55 20.214-83.495c6.152-7.03 5.273-16.699 5.273-16.699s3.516-7.91 2.637-13.183c0 0 59.77-180.327 39.883-520.892 49.718-522.034-49.717-887.457-49.717-887.457s1.243-14.916-22.373-29.83c0 0 3.729-13.673-7.458-22.374 0 0 1.243-14.915-13.672-12.43 0 0-16.158-1.242-17.401 14.916 0 0-3.729 16.158 4.972 27.345 0 0-23.616 31.073 1.243 233.672 0 0 42.26 462.373 2.486 845.198l-6.215 259.774s-4.191 99.761 19.034 85.926c0 0 0 0 0 0M2151.778 1631.869h35.155l14.941-114.256s18.457-17.578 3.516-20.215c6.842 5.132 45.742-128.558 13.981-420.853l-59.66-927.232s-17.402-78.305-49.718-84.52c0 0 13.672-31.073-9.944-22.372 0 0-17.4 7.457-9.943 26.101 0 0-12.43 11.187-4.972 29.83 0 0-23.616 41.018-8.7 147.91 0 0-1.243 181.47 26.101 531.978 22.373 166.553 7.458 335.593 7.458 335.593s12.43 377.853 39.774 392.768c0 0-7.657 7.496 1.132 16.285 0 0-2.637 15.82 4.394 23.73l-3.515 85.253M2334.587 1516.734s-3.955 11.426 0 17.578c0 0 6.152 35.155 2.197 80.418l34.277.88s4.394-41.748 14.501-67.236l.44-15.38s3.515-9.229 1.318-15.82c0 0 13.623 2.197 16.7-16.7 0 0 41.566-528.336-.694-960.878 0 0-13.672-420.113-53.446-443.73 0 0 5.593-9.943-1.864-17.4 0 0 4.971-16.158-1.243-18.023 0 0-19.266-8.079-32.938 4.972 0 0-5.593 20.508 0 31.073 0 0-22.373 27.966-17.401 129.887 0 0 37.288 502.147 17.4 1036.61 0 0-10.699 268.854 20.753 253.75 0 0 0 0 0 0M2572.766 1517.613s-7.031 7.031-1.758 13.183c0 0-6.152 1.758.879 22.851 7.91 35.156 3.516 69.433 3.516 69.433h36.034s.879-45.703 9.668-65.038c6.152-14.941-2.637-21.094-2.637-21.094s6.152-7.91.88-14.062c0 0 19.335 4.395 20.213-22.85 0 0 47.155-709.367-77.139-1420.327 0 0-5.593-17.401-14.293-18.644 0 0 1.242-17.402-4.972-24.86 0 0-13.051-12.429-28.588-.62 0 0-9.322 8.078-3.729 26.101 0 0-22.372 27.966-10.565 133.616 0 0 47.232 408.926 47.232 851.412 0 0-14.291 482.324 25.259 470.899 0 0 0 0 0 0M2752.592 1614.737l41.017 1.243s36.045-78.305 26.101-109.379c0 0 44.746 22.373 38.532-370.395 0 0-19.173-688.202-98.273-985.267 0 0-4.891-51.343-28.507-60.044 0 0 12.43-16.158-2.486-34.802 0 0-17.401-34.802-33.56-2.486 0 0-17.4 22.373-3.728 36.045 0 0-28.397 56.014-9.06 177.3 0 0 73.693 662.926 58.777 1097.954 0 0-3.728 144.181 23.616 142.938 0 0-9.322 6.836-5.593 16.158 0 0-5.593 19.887-3.107 31.695 2.486 11.808-3.73 59.04-3.73 59.04s0 0 0 0M2988.129 1622.195l40.395 4.35s36.667-112.486 17.401-123.051c0 0 39.774-8.7 31.695-83.277 0 0-10.565-1300.734-92.599-1323.107l-7.457.621 1.243-39.152s-1.243-10.565-11.808-8.7l-10.565 1.864s-9.944 1.864-9.944 13.05c0 0-.621 14.294 9.322 27.967l1.243 7.457s-16.78-4.35-14.294 7.458l.622 24.237s-28.729 103.4-5.878 460.23c0 0 21.093 293.55 14.062 624.012 0 0-3.515 290.033 43.945 284.76 0 0-20.215 23.73-8.789 50.097 9.668 34.276 1.406 71.184 1.406 71.184s0 0 0 0M3197.656 1605.502h39.55s23.73-98.436 2.637-103.71c0 0 33.398 18.458 38.671-155.563 0 0 58.007-458.78 3.516-829.672 0 0-52.733-451.749-84.374-437.687 0 0 12.958-25.884 3.015-31.478 0 0-11.808-16.78-24.859-8.079 0 0-16.78 19.266-9.943 27.966 0 0-24.859 36.667-19.266 108.136 0 0 12.43 182.712 28.588 371.638 38.53 239.887 9.943 464.86 9.943 464.86s-21.13 220-14.915 459.886c0 0 9.322 28.588 20.508 28.588 0 0-6.214 6.836-1.864 13.672 4.972 9.322-1.864 14.294-1.864 14.294s-6.837 3.107 1.243 16.78c10.565 27.344 9.414 60.369 9.414 60.369s0 0 0 0M3473.628 1514.976l-2.637 21.094s-14.94 19.335-6.152 26.366c11.426 19.336 5.273 74.706 5.273 74.706h44.824s3.515-36.035 14.062-58.886c12.304-37.792-4.395-65.038-4.395-65.038s35.156 4.395 31.64-65.916c0 0 15.445-176.859-20.6-502.509 0 0-33.89-697.176-144.63-858.892 0 0 11.425-20.214 4.394-31.64 0 0-18.457-13.183-30.761 11.426 0 0-2.637 16.699 5.273 25.488 0 0 41.308 150.29 46.581 279.487 0 0-9.668-41.308-16.699-60.644-7.03-19.335-19.335-129.196-19.335-129.196s-8.79-49.218-28.125-87.01c0 0-18.457-25.488-18.457 47.46 0 0-1.757 135.349 20.215 216.206 21.093 90.526 7.91 156.443 7.91 156.443s7.91 62.401 18.457 89.647c14.94 48.339 7.91 114.255 7.91 114.255s4.394 61.523 12.304 93.163c0 0 29.882 182.809 21.093 281.244 0 0-4.394 220.602 12.305 341.01 0 0-.88 90.525 39.55 81.736 0 0 0 0 0 0" stroke="#000" stroke-width="1.414" fill="none"/><text y="1730.33" x="200.84" style="line-height:1.25;-inkscape-font-specification:Arial;text-align:start" font-weight="400" font-size="8" font-family="Arial" letter-spacing="0" word-spacing="0"><tspan y="1730.33" x="200.84" font-size="64">-1</tspan></text><text style="line-height:1.25;-inkscape-font-specification:Arial;text-align:start" x="446.942" y="1730.33" font-weight="400" font-size="8" font-family="Arial" letter-spacing="0" word-spacing="0"><tspan x="446.942" y="1730.33" font-size="64">0</tspan></text><text y="1730.33" x="688.072" style="line-height:1.25;-inkscape-font-specification:Arial;text-align:start" font-weight="400" font-size="8" font-family="Arial" letter-spacing="0" word-spacing="0"><tspan y="1730.33" x="688.072" font-size="64">1</tspan></text><text style="line-height:1.25;-inkscape-font-specification:Arial;text-align:start" x="904.343" y="1730.33" font-weight="400" font-size="8" font-family="Arial" letter-spacing="0" word-spacing="0"><tspan x="904.343" y="1730.33" font-size="64">2</tspan></text><text y="1730.33" x="1105.699" style="line-height:1.25;-inkscape-font-specification:Arial;text-align:start" font-weight="400" font-size="8" font-family="Arial" letter-spacing="0" word-spacing="0"><tspan y="1730.33" x="1105.699" font-size="64">3</tspan></text><text style="line-height:1.25;-inkscape-font-specification:Arial;text-align:start" x="1267.281" y="1730.33" font-weight="400" font-size="8" font-family="Arial" letter-spacing="0" word-spacing="0"><tspan x="1267.281" y="1730.33" font-size="64">4</tspan></text><text y="1730.33" x="1481.066" style="line-height:1.25;-inkscape-font-specification:Arial;text-align:start" font-weight="400" font-size="8" font-family="Arial" letter-spacing="0" word-spacing="0"><tspan y="1730.33" x="1481.066" font-size="64">5</tspan></text><text style="line-height:1.25;-inkscape-font-specification:Arial;text-align:start" x="1704.795" y="1730.33" font-weight="400" font-size="8" font-family="Arial" letter-spacing="0" word-spacing="0"><tspan x="1704.795" y="1730.33" font-size="64">6</tspan></text><text y="1730.33" x="1881.292" style="line-height:1.25;-inkscape-font-specification:Arial;text-align:start" font-weight="400" font-size="8" font-family="Arial" letter-spacing="0" word-spacing="0"><tspan y="1730.33" x="1881.292" font-size="64">7</tspan></text><text style="line-height:1.25;-inkscape-font-specification:Arial;text-align:start" x="2147.281" y="1730.33" font-weight="400" font-size="8" font-family="Arial" letter-spacing="0" word-spacing="0"><tspan x="2147.281" y="1730.33" font-size="64">8</tspan></text><text y="1730.33" x="2341.179" style="line-height:1.25;-inkscape-font-specification:Arial;text-align:start" font-weight="400" font-size="8" font-family="Arial" letter-spacing="0" word-spacing="0"><tspan y="1730.33" x="2341.179" font-size="64">9</tspan></text><text style="line-height:1.25;-inkscape-font-specification:Arial;text-align:start" x="2554.965" y="1730.33" font-weight="400" font-size="8" font-family="Arial" letter-spacing="0" word-spacing="0"><tspan x="2554.965" y="1730.33" font-size="64">10</tspan></text><text y="1722.872" x="2733.948" style="line-height:1.25;-inkscape-font-specification:Arial;text-align:start" font-weight="400" font-size="8" font-family="Arial" letter-spacing="0" word-spacing="0"><tspan y="1722.872" x="2733.948" font-size="64">11</tspan></text><text style="line-height:1.25;-inkscape-font-specification:Arial;text-align:start" x="2963.678" y="1722.872" font-weight="400" font-size="8" font-family="Arial" letter-spacing="0" word-spacing="0"><tspan x="2963.678" y="1722.872" font-size="64">12</tspan></text><text y="1722.872" x="3174.612" style="line-height:1.25;-inkscape-font-specification:Arial;text-align:start" font-weight="400" font-size="8" font-family="Arial" letter-spacing="0" word-spacing="0"><tspan y="1722.872" x="3174.612" font-size="64">13</tspan></text><text style="line-height:1.25;-inkscape-font-specification:Arial;text-align:start" x="3455.856" y="1722.872" font-weight="400" font-size="8" font-family="Arial" letter-spacing="0" word-spacing="0"><tspan x="3455.856" y="1722.872" font-size="64">14</tspan></text><text style="line-height:1.25;-inkscape-font-specification:Arial;text-align:start" x="25.063" y="1730.33" font-weight="400" font-size="8" font-family="Arial" letter-spacing="0" word-spacing="0"><tspan x="25.063" y="1730.33" font-size="64">DPA</tspan></text></svg>