<svg xmlns="http://www.w3.org/2000/svg" id="SiliqueDevelopment_svg" version="1.1" viewBox="0 0 3570.5 1718.4" author="Provart Lab - Bio Analytic Resource, University of Toronto">
  <g id="DAPneg1" transform="translate(-7 -21)">
    <path id="path4514" fill="none" stroke="#000" stroke-linecap="butt" stroke-linejoin="miter" stroke-opacity="1" stroke-width="1.4" d="M250 1600c19-70 3-35 19-70 0 0 29-37 33-123 0 0 25-51-9-59 0 0 13-79-10-78 0 0-14-10-24 2 0 0-33-2-42 78 0 0-16 13-7 52 0 0-7 104 22 127 0 0 12 17 3 65l15 6"/>
  </g>
  <g id="DAP0" transform="translate(-7 -21)">
    <path id="path4516" fill="none" stroke="#000" stroke-linecap="butt" stroke-linejoin="miter" stroke-opacity="1" stroke-width="1.4" d="m477 1605 11-56s38 6 37-83l-3-68s-17-48 88-126c0 0-15-20-69 26 0 0 8-51-33-65l-7-4s-17 9-20 51c0 0-14-23-24-5 0 0-52-89-89-27 0 0 19 19 0 19 0 0-17 10-6 21 0 0 32 1 62 69 0 0-17 141 2 173 0 0-4 23 26 21l4 51 21 3"/>
  </g>
  <g id="DAP1" transform="translate(-7 -21)">
    <path id="path4520" fill="none" stroke="#000" stroke-linecap="butt" stroke-linejoin="miter" stroke-opacity="1" stroke-width="1.4" d="M702 1607h21l7-76s36-34 36-108c0 0 14-65-23-75 0 0 10-109-31-108l-6-16s4-19-18-16c0 0-19 3-17 16 0 0 15 5 0 13 0 0-39 43 0 127 0 0-21 16-5 52l21 86s-1 21 15 24v81"/>
  </g>
  <g id="DAP2" transform="translate(-7 -21)">
    <path id="path4522" fill="none" stroke="#000" stroke-linecap="butt" stroke-linejoin="miter" stroke-opacity="1" stroke-width="1.4" d="m917 1604 23 2 5-60s50-54 36-196c0 0-8-12 7-25 17-26 1-43 1-43l-34 8-12-27s1-45-30-134l-10-51s-21-13-33 0l37 181s-40 30-40 45c0 14 21 22 21 22s13 33 3 55c0 0-9 5 5 49 0 0-3 106 23 109l-2 65"/>
  </g>
  <g id="DAP3" transform="translate(-7 -21)">
    <path id="path4524" fill="none" stroke="#000" stroke-linecap="butt" stroke-linejoin="miter" stroke-opacity="1" stroke-width="1.4" d="m1114 1609 24 1s2-52 11-65c6-10 1-15 1-15s11-4 2-11c8-8 4-21 4-21s87-317-36-832c0 0 4-10-4-23 0 0 7-10-8-10l-12 1-7 6 1 26s-10 40-2 61c0 0 62 303 34 588l-16 189 6 12s-10 3-4 11c0 0-1 14 3 29 5 15 3 53 3 53"/>
  </g>
  <g id="DAP4" transform="translate(-7 -21)">
    <path id="path4526" fill="none" stroke="#000" stroke-linecap="butt" stroke-linejoin="miter" stroke-opacity="1" stroke-width="1.4" d="m1257 1645 26 2 39-111s11-12 0-18c0 0 10-9 9-21 0 0 83-164 66-836l-24-422s-3-53-25-69v-23l-28-7s-15 18-8 19c0 0-4 12 4 17 0 0-16 0-4 167 0 0 26 388 14 785 0 0-7 129-53 371 0 0-8 4 5 6 13 4 0 11 0 11s-9-6-3 4c0 0-5 3 3 16 0 0 2 26-21 109"/>
  </g>
  <g id="DAP5" transform="translate(-7 -21)">
    <path id="path4528" fill="none" stroke="#000" stroke-linecap="butt" stroke-linejoin="miter" stroke-opacity="1" stroke-width="1.4" d="M1480 1623h25s34-84 30-101c0 0 25 4 24-95 0 0 36-132 21-701 0 0-23-552-74-588 0 0-1-35-37-19l6 28s2 13-5 31c-8 17 0 63 0 63s32 229 27 397c0 0 31 302 1 545l-19 316s-6 19 11 23c0 0-8 11-3 28 5 35-7 73-7 73"/>
  </g>
  <g id="DAP6" transform="translate(-7 -21)">
    <path id="path4530" fill="none" stroke="#000" stroke-linecap="butt" stroke-linejoin="miter" stroke-opacity="1" stroke-width="1.4" d="M1715 1613h30s0-107-11-106c0 0 48-346 8-833l-25-433s0-136-32-151c0 0 10-14 0-26 0 0-26 0-26 6 0 0-14 13-3 23 0 0-22 33-22 79l14 348s27 291 20 460c-8 169 17 532 17 532h10s2 24 7 35c4 10 13 66 13 66"/>
  </g>
  <g id="DAP7" transform="translate(-7 -21)">
    <path id="path4532" fill="none" stroke="#000" stroke-linecap="butt" stroke-linejoin="miter" stroke-opacity="1" stroke-width="1.4" d="M1892 1502s-11-3-7 18c8 66-7 105-7 105l35-4s4-39 20-83c6-7 5-17 5-17s4-8 3-13c0 0 60-180 40-521 49-522-50-887-50-887s1-15-22-30c0 0 3-14-8-23 0 0 1-15-13-12 0 0-17-1-18 15 0 0-4 16 5 27 0 0-24 31 1 234 0 0 43 462 3 845l-6 260s-5 100 19 86"/>
  </g>
  <g id="DAP8" transform="translate(-7 -21)">
    <path id="path4534" fill="none" stroke="#000" stroke-linecap="butt" stroke-linejoin="miter" stroke-opacity="1" stroke-width="1.4" d="M2152 1632h35l15-114s18-18 3-21c7 6 46-128 14-420l-59-928s-18-78-50-84c0 0 14-31-10-23 0 0-17 8-10 27 0 0-12 11-5 29 0 0-23 41-9 148 0 0-1 182 27 532 22 167 7 336 7 336s12 378 40 393c0 0-8 7 1 16 0 0-3 16 4 24l-3 85"/>
  </g>
  <g id="DAP9" transform="translate(-7 -21)">
    <path id="path4536" fill="none" stroke="#000" stroke-linecap="butt" stroke-linejoin="miter" stroke-opacity="1" stroke-width="1.4" d="M2335 1517s-4 11 0 17c0 0 6 35 2 81l34 1s4-42 15-68v-15s4-9 1-16c0 0 14 2 17-17 0 0 42-528-1-960 0 0-13-421-53-444 0 0 5-10-2-18 0 0 5-16-1-18 0 0-19-8-33 5 0 0-6 21 0 31 0 0-23 28-18 130 0 0 38 503 18 1037 0 0-11 269 21 254"/>
  </g>
  <g id="DAP10" transform="translate(-7 -21)">
    <path id="path4538" fill="none" stroke="#000" stroke-linecap="butt" stroke-linejoin="miter" stroke-opacity="1" stroke-width="1.4" d="M2573 1518s-7 7-2 13c0 0-6 2 1 23 8 35 3 69 3 69h36s1-46 10-65c6-15-3-21-3-21s7-8 1-14c0 0 20 4 21-23 0 0 47-709-78-1420 0 0-5-18-14-19 0 0 1-17-5-25 0 0-13-12-28 0 0 0-10 8-4 26 0 0-23 28-11 133 0 0 48 409 48 852 0 0-15 482 25 471"/>
  </g>
  <g id="DAP11" transform="translate(-7 -21)">
    <path id="path4540" fill="none" stroke="#000" stroke-linecap="butt" stroke-linejoin="miter" stroke-opacity="1" stroke-width="1.4" d="m2753 1615 41 1s36-78 26-109c0 0 44 22 38-371 0 0-19-688-98-985 0 0-5-51-29-60 0 0 13-16-2-35 0 0-17-35-34-2 0 0-17 22-3 36 0 0-29 56-9 177 0 0 73 663 58 1098 0 0-3 144 24 143 0 0-9 7-6 16 0 0-5 20-3 32 3 12-3 59-3 59"/>
  </g>
  <g id="DAP12" transform="translate(-7 -21)">
    <path id="path4542" fill="none" stroke="#000" stroke-linecap="butt" stroke-linejoin="miter" stroke-opacity="1" stroke-width="1.4" d="m2988 1622 41 5s36-113 17-124c0 0 40-8 32-83 0 0-11-1301-93-1323l-7 1 1-39s-1-11-12-9l-11 2s-10 2-10 13c0 0 0 14 10 28l1 7s-17-4-14 8v24s-28 103-5 460c0 0 21 294 14 624 0 0-4 290 44 285 0 0-21 24-9 50 9 34 1 71 1 71"/>
  </g>
  <g id="DAP13" transform="translate(-7 -21)">
    <path id="path4544" fill="none" stroke="#000" stroke-linecap="butt" stroke-linejoin="miter" stroke-opacity="1" stroke-width="1.4" d="M3198 1606h39s24-99 3-104c0 0 33 18 39-156 0 0 58-459 3-829 0 0-53-452-84-438 0 0 13-26 3-32 0 0-12-16-25-8 0 0-17 20-10 28 0 0-25 37-19 108 0 0 12 183 28 372 39 240 10 465 10 465s-21 220-15 460c0 0 10 28 21 28 0 0-6 7-2 14 5 9-2 14-2 14s-7 3 1 17c11 27 10 61 10 61"/>
  </g>
  <g id="DAP14" transform="translate(-7 -21)">
    <path id="path4546" fill="none" stroke="#000" stroke-linecap="butt" stroke-linejoin="miter" stroke-opacity="1" stroke-width="1.4" d="m3474 1515-3 21s-15 19-6 26c11 20 5 75 5 75h45s3-36 14-59c12-38-4-65-4-65s35 5 31-66c0 0 16-177-20-502 0 0-34-697-145-859 0 0 11-20 4-32 0 0-18-13-30 12 0 0-3 16 5 25 0 0 41 150 46 280 1 0-9-42-16-61s-20-129-20-129-8-49-28-87c0 0-18-26-18 47 0 0-2 136 20 216 21 91 8 157 8 157s8 62 18 90c15 48 8 114 8 114s5 61 13 93c0 0 30 183 21 281 0 0-5 221 12 341 0 0-1 91 40 82"/>
  </g>
  <text xml:space="preserve" id="text4598" x="193.5" y="1709" fill="#000" fill-opacity="1" stroke="none" font-family="Arial" font-size="8" font-stretch="normal" font-style="normal" font-variant="normal" font-weight="400" letter-spacing="0" style="line-height:1.25;-inkscape-font-specification:Arial;text-align:start" text-anchor="start" word-spacing="0">       <tspan id="tspan4596" x="193.5" y="1709" font-size="64">-1</tspan>   </text>
  <text xml:space="preserve" id="text4612" x="439.6" y="1709" fill="#000" fill-opacity="1" stroke="none" font-family="Arial" font-size="8" font-stretch="normal" font-style="normal" font-variant="normal" font-weight="400" letter-spacing="0" style="line-height:1.25;-inkscape-font-specification:Arial;text-align:start" text-anchor="start" word-spacing="0">       <tspan id="tspan4610" x="439.6" y="1709" font-size="64">0</tspan>   </text>
  <text xml:space="preserve" id="text4616" x="680.7" y="1709" fill="#000" fill-opacity="1" stroke="none" font-family="Arial" font-size="8" font-stretch="normal" font-style="normal" font-variant="normal" font-weight="400" letter-spacing="0" style="line-height:1.25;-inkscape-font-specification:Arial;text-align:start" text-anchor="start" word-spacing="0">       <tspan id="tspan4614" x="680.7" y="1709" font-size="64">1</tspan>   </text>
  <text xml:space="preserve" id="text4620" x="897" y="1709" fill="#000" fill-opacity="1" stroke="none" font-family="Arial" font-size="8" font-stretch="normal" font-style="normal" font-variant="normal" font-weight="400" letter-spacing="0" style="line-height:1.25;-inkscape-font-specification:Arial;text-align:start" text-anchor="start" word-spacing="0">       <tspan id="tspan4618" x="897" y="1709" font-size="64">2</tspan>   </text>
  <text xml:space="preserve" id="text4624" x="1098.3" y="1709" fill="#000" fill-opacity="1" stroke="none" font-family="Arial" font-size="8" font-stretch="normal" font-style="normal" font-variant="normal" font-weight="400" letter-spacing="0" style="line-height:1.25;-inkscape-font-specification:Arial;text-align:start" text-anchor="start" word-spacing="0">       <tspan id="tspan4622" x="1098.3" y="1709" font-size="64">3</tspan>   </text>
  <text xml:space="preserve" id="text4628" x="1259.9" y="1709" fill="#000" fill-opacity="1" stroke="none" font-family="Arial" font-size="8" font-stretch="normal" font-style="normal" font-variant="normal" font-weight="400" letter-spacing="0" style="line-height:1.25;-inkscape-font-specification:Arial;text-align:start" text-anchor="start" word-spacing="0">       <tspan id="tspan4626" x="1259.9" y="1709" font-size="64">4</tspan>   </text>
  <text xml:space="preserve" id="text4632" x="1473.7" y="1709" fill="#000" fill-opacity="1" stroke="none" font-family="Arial" font-size="8" font-stretch="normal" font-style="normal" font-variant="normal" font-weight="400" letter-spacing="0" style="line-height:1.25;-inkscape-font-specification:Arial;text-align:start" text-anchor="start" word-spacing="0">       <tspan id="tspan4630" x="1473.7" y="1709" font-size="64">5</tspan>   </text>
  <text xml:space="preserve" id="text4636" x="1697.4" y="1709" fill="#000" fill-opacity="1" stroke="none" font-family="Arial" font-size="8" font-stretch="normal" font-style="normal" font-variant="normal" font-weight="400" letter-spacing="0" style="line-height:1.25;-inkscape-font-specification:Arial;text-align:start" text-anchor="start" word-spacing="0">       <tspan id="tspan4634" x="1697.4" y="1709" font-size="64">6</tspan>   </text>
  <text xml:space="preserve" id="text4640" x="1873.9" y="1709" fill="#000" fill-opacity="1" stroke="none" font-family="Arial" font-size="8" font-stretch="normal" font-style="normal" font-variant="normal" font-weight="400" letter-spacing="0" style="line-height:1.25;-inkscape-font-specification:Arial;text-align:start" text-anchor="start" word-spacing="0">       <tspan id="tspan4638" x="1873.9" y="1709" font-size="64">7</tspan>   </text>
  <text xml:space="preserve" id="text4644" x="2139.9" y="1709" fill="#000" fill-opacity="1" stroke="none" font-family="Arial" font-size="8" font-stretch="normal" font-style="normal" font-variant="normal" font-weight="400" letter-spacing="0" style="line-height:1.25;-inkscape-font-specification:Arial;text-align:start" text-anchor="start" word-spacing="0">       <tspan id="tspan4642" x="2139.9" y="1709" font-size="64">8</tspan>   </text>
  <text xml:space="preserve" id="text4648" x="2333.8" y="1709" fill="#000" fill-opacity="1" stroke="none" font-family="Arial" font-size="8" font-stretch="normal" font-style="normal" font-variant="normal" font-weight="400" letter-spacing="0" style="line-height:1.25;-inkscape-font-specification:Arial;text-align:start" text-anchor="start" word-spacing="0">       <tspan id="tspan4646" x="2333.8" y="1709" font-size="64">9</tspan>   </text>
  <text xml:space="preserve" id="text4652" x="2547.6" y="1709" fill="#000" fill-opacity="1" stroke="none" font-family="Arial" font-size="8" font-stretch="normal" font-style="normal" font-variant="normal" font-weight="400" letter-spacing="0" style="line-height:1.25;-inkscape-font-specification:Arial;text-align:start" text-anchor="start" word-spacing="0">       <tspan id="tspan4650" x="2547.6" y="1709" font-size="64">10</tspan>   </text>
  <text xml:space="preserve" id="text4656" x="2726.6" y="1701.6" fill="#000" fill-opacity="1" stroke="none" font-family="Arial" font-size="8" font-stretch="normal" font-style="normal" font-variant="normal" font-weight="400" letter-spacing="0" style="line-height:1.25;-inkscape-font-specification:Arial;text-align:start" text-anchor="start" word-spacing="0">       <tspan id="tspan4654" x="2726.6" y="1701.6" font-size="64">11</tspan>   </text>
  <text xml:space="preserve" id="text4660" x="2956.3" y="1701.6" fill="#000" fill-opacity="1" stroke="none" font-family="Arial" font-size="8" font-stretch="normal" font-style="normal" font-variant="normal" font-weight="400" letter-spacing="0" style="line-height:1.25;-inkscape-font-specification:Arial;text-align:start" text-anchor="start" word-spacing="0">       <tspan id="tspan4658" x="2956.3" y="1701.6" font-size="64">12</tspan>   </text>
  <text xml:space="preserve" id="text4664" x="3167.2" y="1701.6" fill="#000" fill-opacity="1" stroke="none" font-family="Arial" font-size="8" font-stretch="normal" font-style="normal" font-variant="normal" font-weight="400" letter-spacing="0" style="line-height:1.25;-inkscape-font-specification:Arial;text-align:start" text-anchor="start" word-spacing="0">       <tspan id="tspan4662" x="3167.2" y="1701.6" font-size="64">13</tspan>   </text>
  <text xml:space="preserve" id="text4668" x="3448.5" y="1701.6" fill="#000" fill-opacity="1" stroke="none" font-family="Arial" font-size="8" font-stretch="normal" font-style="normal" font-variant="normal" font-weight="400" letter-spacing="0" style="line-height:1.25;-inkscape-font-specification:Arial;text-align:start" text-anchor="start" word-spacing="0">       <tspan id="tspan4666" x="3448.5" y="1701.6" font-size="64">14</tspan>   </text>
  <text xml:space="preserve" id="text4672" x="17.7" y="1709" fill="#000" fill-opacity="1" stroke="none" font-family="Arial" font-size="8" font-stretch="normal" font-style="normal" font-variant="normal" font-weight="400" letter-spacing="0" style="line-height:1.25;-inkscape-font-specification:Arial;text-align:start" text-anchor="start" word-spacing="0">       <tspan id="tspan4670" x="17.7" y="1709" font-size="64">DPA</tspan>   </text>
</svg>