<?xml version="1.0" encoding="UTF-8"?>
<!-- Created with Inkscape (http://www.inkscape.org/) -->

<svg xmlns:dc="http://purl.org/dc/elements/1.1/" xmlns:cc="http://creativecommons.org/ns#" xmlns:rdf="http://www.w3.org/1999/02/22-rdf-syntax-ns#" xmlns:svg="http://www.w3.org/2000/svg" xmlns="http://www.w3.org/2000/svg" xmlns:sodipodi="http://sodipodi.sourceforge.net/DTD/sodipodi-0.dtd" xmlns:inkscape="http://www.inkscape.org/namespaces/inkscape" version="1.1" id="SiliqueDevelopment_svg" author="Provart Lab - Bio Analytic Resource, University of Toronto" viewBox="0 0 3590.0315 1761.1426">
   <g id="DAPneg1">
      <path
         style="stroke-linejoin:miter;stroke-opacity:1;stroke:#000000;stroke-linecap:butt;stroke-width:1.41421356237;fill:none"
         d="M249.9365 1600.443093C269.20204 1529.595693 253.04385 1565.019393 269.20204 1529.595693C269.20204 1529.595693 298.41108 1492.928993 301.51842 1407.166293C301.51842 1407.166293 326.99865 1355.584393 292.81786 1347.505293C292.81786 1347.505293 306.49017 1268.578693 283.49582 1270.443093C283.49582 1270.443093 268.58057 1259.878193 258.63707 1271.686093C258.63707 1271.686093 225.699213 1270.443093 216.998648 1349.991193C216.998648 1349.991193 201.461925 1363.041993 209.541021 1401.573093C209.541021 1401.573093 203.326331 1505.979893 231.913902 1528.974193C231.913902 1528.974193 244.34328 1546.375293 235.021247 1593.606993C235.021247 1593.606993 249.9365 1600.443093 249.9365 1600.443093"
         id="path4514" />
   </g>
   <g id="DAP0">
      <path
         style="stroke-linejoin:miter;stroke-opacity:1;stroke:#000000;stroke-linecap:butt;stroke-width:1.41421356237;fill:none"
         d="M476.77266 1604.793393C476.77266 1604.793393 487.9591 1548.861193 487.9591 1548.861193C487.9591 1548.861193 526.49017 1555.075893 525.24724 1465.584393C525.24724 1465.584393 522.13989 1397.844293 522.13989 1397.844293C522.13989 1397.844293 505.36023 1349.991193 609.76701 1272.307493C609.76701 1272.307493 595.47322 1251.799093 540.78396 1297.787793C540.78396 1297.787793 549.48452 1246.827293 507.84611 1233.154993C507.84611 1233.154993 501.00995 1229.426193 501.00995 1229.426193C501.00995 1229.426193 483.60882 1237.505293 480.50147 1279.765193C480.50147 1279.765193 466.82916 1257.392293 456.88565 1275.414893C456.88565 1275.414893 405.30373 1185.923393 368.0156 1248.070293C368.0156 1248.070293 386.65966 1267.335793 368.0156 1267.335793C368.0156 1267.335793 350.61447 1276.657793 362.42238 1287.844293C362.42238 1287.844293 394.11729 1289.087193 423.9478 1356.827293C423.9478 1356.827293 406.54667 1497.900793 425.81221 1529.595693C425.81221 1529.595693 422.08339 1553.211493 451.9139 1550.725593C451.9139 1550.725593 455.64272 1602.307493 455.64272 1602.307493C455.64272 1602.307493 476.77266 1604.793393 476.77266 1604.793393"
         id="path4516" />
   </g>
   <g id="DAP1">
      <path
         style="stroke-linejoin:miter;stroke-opacity:1;stroke:#000000;stroke-linecap:butt;stroke-width:1.41421356237;fill:none"
         d="M702.36588 1606.657793C702.36588 1606.657793 723.49582 1606.657793 723.49582 1606.657793C723.49582 1606.657793 729.71051 1530.838593 729.71051 1530.838593C729.71051 1530.838593 765.75571 1496.657793 765.75571 1422.702993C765.75571 1422.702993 780.0495 1358.070293 743.38283 1348.126793C743.38283 1348.126793 752.70486 1238.748193 712.30938 1239.991193C712.30938 1239.991193 706.09469 1223.832993 706.09469 1223.832993C706.09469 1223.832993 710.44498 1205.188893 688.07209 1207.674793C688.07209 1207.674793 668.80656 1210.782093 670.67096 1223.832993C670.67096 1223.832993 685.58622 1228.804693 671.29243 1236.883793C671.29243 1236.883793 632.13989 1279.765193 670.67096 1363.663493C670.67096 1363.663493 650.16249 1379.821693 665.69921 1415.866893C665.69921 1415.866893 686.82916 1501.629593 686.82916 1501.629593C686.82916 1501.629593 685.58622 1522.759493 701.74441 1525.866893C701.74441 1525.866893 702.36588 1606.657793 702.36588 1606.657793"
         id="path4520" />
   </g>
   <g id="DAP2">
      <path
         style="stroke-linejoin:miter;stroke-opacity:1;stroke:#000000;stroke-linecap:butt;stroke-width:1.41421356237;fill:none"
         d="M916.77266 1603.550493C916.77266 1603.550493 940.38848 1606.036393 940.38848 1606.036393C940.38848 1606.036393 945.36023 1546.375293 945.36023 1546.375293C945.36023 1546.375293 995.07774 1491.686093 981.40543 1349.991193C981.40543 1349.991193 972.70486 1337.561793 987.62012 1325.132393C1005.02125 1299.030693 988.86305 1281.629593 988.86305 1281.629593C988.86305 1281.629593 955.30373 1290.330093 955.30373 1290.330093C955.30373 1290.330093 942.87435 1262.985493 942.87435 1262.985493C942.87435 1262.985493 944.11729 1218.239793 913.04385 1128.748193C905.58622 1091.460093 903.10034 1077.787793 903.10034 1077.787793C903.10034 1077.787793 881.9704 1065.358393 869.54102 1077.787793C869.54102 1077.787793 906.82916 1259.256693 906.82916 1259.256693C906.82916 1259.256693 867.05515 1289.087193 867.05515 1304.002493C867.05515 1317.674793 888.18509 1326.375293 888.18509 1326.375293C888.18509 1326.375293 900.61447 1358.691693 890.67096 1381.064593C890.67096 1381.064593 881.9704 1386.036393 895.64272 1429.539193C895.64272 1429.539193 893.15684 1536.431793 919.25854 1538.917693C919.25854 1538.917693 916.77266 1603.550493 916.77266 1603.550493"
         id="path4522" />
   </g>
   <g id="DAP3">
      <path
         style="stroke-linejoin:miter;stroke-opacity:1;stroke:#000000;stroke-linecap:butt;stroke-width:1.41421356237;fill:none"
         d="M1114.39978 1608.522193C1114.39978 1608.522193 1138.0156 1609.765193 1138.0156 1609.765193C1138.0156 1609.765193 1139.73609 1558.481293 1148.52499 1545.297993C1155.11669 1535.190693 1150.28279 1530.356793 1150.28279 1530.356793C1150.28279 1530.356793 1160.82949 1525.522993 1152.47999 1519.370693C1159.95059 1511.021293 1155.55609 1497.837893 1155.55609 1497.837893C1155.55609 1497.837893 1243.00569 1180.998193 1119.96107 665.968733C1119.96107 665.968733 1123.72181 656.431833 1116.26419 642.759513C1116.26419 642.759513 1123.10034 632.816013 1107.56362 633.437483C1107.56362 633.437483 1096.37718 634.058953 1096.37718 634.058953C1096.37718 634.058953 1088.91955 639.652173 1088.91955 639.652173C1088.91955 639.652173 1090.16249 666.375333 1090.16249 666.375333C1090.16249 666.375333 1079.59752 706.149343 1088.29808 727.279293C1088.29808 727.279293 1149.84329 1029.829093 1121.71885 1314.589393C1121.71885 1314.589393 1105.89883 1504.429593 1105.89883 1504.429593C1105.89883 1504.429593 1111.9139 1515.923393 1111.9139 1515.923393C1111.9139 1515.923393 1101.9704 1519.030693 1107.56362 1527.109793C1107.56362 1527.109793 1106.94215 1540.782093 1111.29243 1555.697393C1115.64272 1570.612593 1114.39978 1608.522193 1114.39978 1608.522193C1114.39978 1608.522193 1114.39978 1608.522193 1114.39978 1608.522193"
         id="path4524" />
   </g>
   <g id="DAP4">
      <path
         style="stroke-linejoin:miter;stroke-opacity:1;stroke:#000000;stroke-linecap:butt;stroke-width:1.41421356237;fill:none"
         d="M1257.06789 1645.051993C1257.06789 1645.051993 1283.43459 1646.809693 1283.43459 1646.809693C1283.43459 1646.809693 1322.10569 1536.069593 1322.10569 1536.069593C1322.10569 1536.069593 1332.65239 1523.765193 1322.10569 1518.491793C1322.10569 1518.491793 1331.91389 1509.087193 1330.67099 1496.657793C1330.67099 1496.657793 1413.94779 1332.589993 1396.54669 661.403583C1396.54669 661.403583 1373.08129 238.828303 1373.08129 238.828303C1373.08129 238.828303 1369.56579 186.094913 1348.47239 170.274903C1348.47239 170.274903 1348.47239 147.423763 1348.47239 147.423763C1348.47239 147.423763 1320.34799 140.392643 1320.34799 140.392643C1320.34799 140.392643 1305.40679 157.970443 1312.43789 158.849333C1312.43789 158.849333 1308.04349 171.153783 1315.95349 176.427123C1315.95349 176.427123 1300.13349 175.548233 1311.55909 343.416183C1311.55909 343.416183 1337.92569 731.006583 1325.62129 1128.264793C1325.62129 1128.264793 1318.59019 1256.582693 1272.88789 1499.156293C1272.88789 1499.156293 1264.79529 1502.872493 1277.84609 1505.358393C1290.89699 1509.087193 1278.46759 1515.923393 1278.46759 1515.923393C1278.46759 1515.923393 1268.52409 1509.708693 1275.36019 1520.273593C1275.36019 1520.273593 1269.76699 1522.759493 1277.84609 1536.431793C1277.84609 1536.431793 1280.41399 1561.638293 1257.06789 1645.051993C1257.06789 1645.051993 1257.06789 1645.051993 1257.06789 1645.051993"
         id="path4526" />
   </g>
   <g id="DAP5">
      <path
         style="stroke-linejoin:miter;stroke-opacity:1;stroke:#000000;stroke-linecap:butt;stroke-width:1.41421356237;fill:none"
         d="M1480.30589 1623.079693C1480.30589 1623.079693 1504.91479 1623.079693 1504.91479 1623.079693C1504.91479 1623.079693 1539.19149 1538.706293 1534.79709 1522.007393C1534.79709 1522.007393 1560.28489 1525.522993 1559.40599 1427.087293C1559.40599 1427.087293 1594.56159 1295.253793 1580.49929 725.733243C1580.49929 725.733243 1556.88569 174.171943 1505.92519 138.126753C1505.92519 138.126753 1504.68229 103.324493 1468.63709 119.482683C1468.63709 119.482683 1474.85179 146.827313 1474.85179 146.827313C1474.85179 146.827313 1477.33759 160.499633 1469.87999 177.900763C1462.42239 195.301893 1469.87999 241.290593 1469.87999 241.290593C1469.87999 241.290593 1502.19639 469.991153 1497.22459 637.787763C1497.22459 637.787763 1527.76589 940.182393 1497.88369 1182.755893C1497.88369 1182.755893 1478.54809 1499.156293 1478.54809 1499.156293C1478.54809 1499.156293 1473.27479 1517.612893 1489.97369 1522.007393C1489.97369 1522.007393 1482.06369 1532.554093 1487.33699 1550.131893C1491.73149 1585.287493 1480.30589 1623.079693 1480.30589 1623.079693C1480.30589 1623.079693 1480.30589 1623.079693 1480.30589 1623.079693"
         id="path4528" />
   </g>
   <g id="DAP6">
      <path
         style="stroke-linejoin:miter;stroke-opacity:1;stroke:#000000;stroke-linecap:butt;stroke-width:1.41421356237;fill:none"
         d="M1714.96949 1612.532993C1714.96949 1612.532993 1744.85169 1613.411893 1744.85169 1613.411893C1744.85169 1613.411893 1744.85169 1506.187393 1734.30499 1507.066293C1734.30499 1507.066293 1781.85739 1161.064593 1742.08339 673.832963C1742.08339 673.832963 1717.22459 241.290593 1717.22459 241.290593C1717.22459 241.290593 1717.22459 104.567423 1684.90829 89.652173C1684.90829 89.652173 1694.85179 75.979853 1684.90829 63.550473C1684.90829 63.550473 1658.80659 63.550473 1658.80659 69.765163C1658.80659 69.765163 1645.13429 83.437483 1656.32069 93.380983C1656.32069 93.380983 1633.94779 125.697373 1633.94779 171.686073C1633.94779 171.686073 1647.62009 519.708673 1647.62009 519.708673C1647.62009 519.708673 1674.96479 810.556123 1667.50709 979.595693C1660.04949 1148.635193 1684.90829 1511.573093 1684.90829 1511.573093C1684.90829 1511.573093 1694.75499 1512.339593 1694.75499 1512.339593C1694.75499 1512.339593 1697.39169 1536.069593 1701.78609 1546.616293C1706.18059 1557.162993 1714.96949 1612.532993 1714.96949 1612.532993C1714.96949 1612.532993 1714.96949 1612.532993 1714.96949 1612.532993"
         id="path4530" />
   </g>
   <g id="DAP7">
      <path
         style="stroke-linejoin:miter;stroke-opacity:1;stroke:#000000;stroke-linecap:butt;stroke-width:1.41421356237;fill:none"
         d="M1891.62629 1501.792893C1891.62629 1501.792893 1881.07959 1499.156293 1884.59519 1520.249593C1892.50519 1586.166293 1878.44299 1624.837493 1878.44299 1624.837493C1878.44299 1624.837493 1912.71969 1621.321893 1912.71969 1621.321893C1912.71969 1621.321893 1917.11409 1581.771893 1932.93409 1537.827393C1939.08639 1530.796293 1938.20749 1521.128493 1938.20749 1521.128493C1938.20749 1521.128493 1941.72299 1513.218493 1940.84409 1507.945193C1940.84409 1507.945193 2000.61449 1327.618293 1980.72749 987.053293C2030.44499 465.019403 1931.00999 99.595673 1931.00999 99.595673C1931.00999 99.595673 1932.25289 84.680423 1908.63709 69.765163C1908.63709 69.765163 1912.36589 56.092853 1901.17939 47.392283C1901.17939 47.392283 1902.42239 32.477033 1887.50709 34.962903C1887.50709 34.962903 1871.34889 33.719973 1870.10599 49.878163C1870.10599 49.878163 1866.37719 66.036353 1875.07779 77.222793C1875.07779 77.222793 1851.46189 108.296243 1876.32069 310.895113C1876.32069 310.895113 1918.58059 773.267993 1878.80659 1156.092893C1878.80659 1156.092893 1872.59189 1415.866893 1872.59189 1415.866893C1872.59189 1415.866893 1868.40079 1515.628493 1891.62629 1501.792893C1891.62629 1501.792893 1891.62629 1501.792893 1891.62629 1501.792893"
         id="path4532" />
   </g>
   <g id="DAP8">
      <path
         style="stroke-linejoin:miter;stroke-opacity:1;stroke:#000000;stroke-linecap:butt;stroke-width:1.41421356237;fill:none"
         d="M2151.77769 1631.868593C2151.77769 1631.868593 2186.93329 1631.868593 2186.93329 1631.868593C2186.93329 1631.868593 2201.87439 1517.612893 2201.87439 1517.612893C2201.87439 1517.612893 2220.33109 1500.035093 2205.38999 1497.398493C2212.23209 1502.530093 2251.13219 1368.839893 2219.37149 1076.544793C2219.37149 1076.544793 2159.71049 149.313193 2159.71049 149.313193C2159.71049 149.313193 2142.30939 71.008103 2109.99299 64.793413C2109.99299 64.793413 2123.66529 33.719973 2100.04949 42.420533C2100.04949 42.420533 2082.64839 49.878163 2090.10599 68.522233C2090.10599 68.522233 2077.67659 79.708673 2085.13429 98.352733C2085.13429 98.352733 2061.51839 139.369683 2076.43369 246.262343C2076.43369 246.262343 2075.19069 427.731273 2102.53539 778.239743C2124.90829 944.793393 2109.99299 1113.832993 2109.99299 1113.832993C2109.99299 1113.832993 2122.42239 1491.686093 2149.76699 1506.601293C2149.76699 1506.601293 2142.10989 1514.097393 2150.89879 1522.886293C2150.89879 1522.886293 2148.26209 1538.706293 2155.29319 1546.616293C2155.29319 1546.616293 2151.77769 1631.868593 2151.77769 1631.868593"
         id="path4534" />
   </g>
   <g id="DAP9">
      <path
         style="stroke-linejoin:miter;stroke-opacity:1;stroke:#000000;stroke-linecap:butt;stroke-width:1.41421356237;fill:none"
         d="M2334.58679 1516.734093C2334.58679 1516.734093 2330.63179 1528.159593 2334.58679 1534.311893C2334.58679 1534.311893 2340.73899 1569.467393 2336.78399 1614.730293C2336.78399 1614.730293 2371.06069 1615.609193 2371.06069 1615.609193C2371.06069 1615.609193 2375.45509 1573.861893 2385.56239 1548.374093C2385.56239 1548.374093 2386.00179 1532.993493 2386.00179 1532.993493C2386.00179 1532.993493 2389.51739 1523.765193 2387.32019 1517.173493C2387.32019 1517.173493 2400.94289 1519.370693 2404.01909 1500.474593C2404.01909 1500.474593 2445.58619 972.138093 2403.32629 539.595673C2403.32629 539.595673 2389.65399 119.482683 2349.87999 95.866863C2349.87999 95.866863 2355.47319 85.923353 2348.01559 78.465733C2348.01559 78.465733 2352.98739 62.307543 2346.77269 60.443133C2346.77269 60.443133 2327.50709 52.364033 2313.83479 65.414883C2313.83479 65.414883 2308.24159 85.923353 2313.83479 96.488333C2313.83479 96.488333 2291.46189 124.454433 2296.43369 226.375333C2296.43369 226.375333 2333.72179 728.522233 2313.83479 1262.985493C2313.83479 1262.985493 2303.13539 1531.838593 2334.58679 1516.734093C2334.58679 1516.734093 2334.58679 1516.734093 2334.58679 1516.734093"
         id="path4536" />
   </g>
   <g id="DAP10">
      <path
         style="stroke-linejoin:miter;stroke-opacity:1;stroke:#000000;stroke-linecap:butt;stroke-width:1.41421356237;fill:none"
         d="M2572.76589 1517.612893C2572.76589 1517.612893 2565.73479 1524.644093 2571.00809 1530.796293C2571.00809 1530.796293 2564.85589 1532.554093 2571.88699 1553.647393C2579.79699 1588.802993 2575.40259 1623.079693 2575.40259 1623.079693C2575.40259 1623.079693 2611.43699 1623.079693 2611.43699 1623.079693C2611.43699 1623.079693 2612.31589 1577.377493 2621.10479 1558.041893C2627.25709 1543.100693 2618.46819 1536.948493 2618.46819 1536.948493C2618.46819 1536.948493 2624.62039 1529.038493 2619.34709 1522.886293C2619.34709 1522.886293 2638.68259 1527.280693 2639.56149 1500.035093C2639.56149 1500.035093 2686.71619 790.669123 2562.42239 79.708673C2562.42239 79.708673 2556.82919 62.307543 2548.12859 61.064603C2548.12859 61.064603 2549.37149 43.663473 2543.15689 36.205843C2543.15689 36.205843 2530.10599 23.776463 2514.56929 35.584373C2514.56929 35.584373 2505.24719 43.663473 2510.84049 61.686073C2510.84049 61.686073 2488.46759 89.652173 2500.27549 195.301893C2500.27549 195.301893 2547.50709 604.228443 2547.50709 1046.714293C2547.50709 1046.714293 2533.21589 1529.038393 2572.76589 1517.612893C2572.76589 1517.612893 2572.76589 1517.612893 2572.76589 1517.612893"
         id="path4538" />
   </g>
   <g id="DAP11">
      <path
         style="stroke-linejoin:miter;stroke-opacity:1;stroke:#000000;stroke-linecap:butt;stroke-width:1.41421356237;fill:none"
         d="M2752.59189 1614.736893C2752.59189 1614.736893 2793.60879 1615.979893 2793.60879 1615.979893C2793.60879 1615.979893 2829.65399 1537.674793 2819.71049 1506.601293C2819.71049 1506.601293 2864.45629 1528.974193 2858.24159 1136.205893C2858.24159 1136.205893 2839.06949 448.004073 2759.96939 150.939323C2759.96939 150.939323 2755.07779 99.595673 2731.46189 90.895113C2731.46189 90.895113 2743.89129 74.736913 2728.97609 56.092853C2728.97609 56.092853 2711.57489 21.290593 2695.41669 53.606973C2695.41669 53.606973 2678.01559 75.979853 2691.68789 89.652173C2691.68789 89.652173 2663.29149 145.665983 2682.62709 266.952773C2682.62709 266.952773 2756.32069 929.878193 2741.40539 1364.906393C2741.40539 1364.906393 2737.67659 1509.087193 2765.02129 1507.844293C2765.02129 1507.844293 2755.69919 1514.680393 2759.42799 1524.002493C2759.42799 1524.002493 2753.83479 1543.889493 2756.32069 1555.697393C2758.80659 1567.505293 2752.59189 1614.736893 2752.59189 1614.736893C2752.59189 1614.736893 2752.59189 1614.736893 2752.59189 1614.736893"
         id="path4540" />
   </g>
   <g id="DAP12">
      <path
         style="stroke-linejoin:miter;stroke-opacity:1;stroke:#000000;stroke-linecap:butt;stroke-width:1.41421356237;fill:none"
         d="M2988.12859 1622.194593C2988.12859 1622.194593 3028.52409 1626.544793 3028.52409 1626.544793C3028.52409 1626.544793 3065.19079 1514.058993 3045.92519 1503.493993C3045.92519 1503.493993 3085.69919 1494.793393 3077.62009 1420.217193C3077.62009 1420.217193 3067.05519 119.482683 2985.02129 97.109803C2985.02129 97.109803 2977.56359 97.731263 2977.56359 97.731263C2977.56359 97.731263 2978.80659 58.578723 2978.80659 58.578723C2978.80659 58.578723 2977.56359 48.013753 2966.99869 49.878163C2966.99869 49.878163 2956.43369 51.742563 2956.43369 51.742563C2956.43369 51.742563 2946.49019 53.606973 2946.49019 64.793413C2946.49019 64.793413 2945.86869 79.087203 2955.81219 92.759513C2955.81219 92.759513 2957.05519 100.217143 2957.05519 100.217143C2957.05519 100.217143 2940.27549 95.866863 2942.76139 107.674773C2942.76139 107.674773 2943.38279 131.912053 2943.38279 131.912053C2943.38279 131.912053 2914.65399 235.312743 2937.50519 592.141993C2937.50519 592.141993 2958.59849 885.691183 2951.56739 1216.153693C2951.56739 1216.153693 2948.05179 1506.187393 2995.51189 1500.913993C2995.51189 1500.913993 2975.29739 1524.644093 2986.72299 1551.010793C2996.39079 1585.287493 2988.12859 1622.194593 2988.12859 1622.194593C2988.12859 1622.194593 2988.12859 1622.194593 2988.12859 1622.194593"
         id="path4542" />
   </g>
   <g id="DAP13">
      <path
         style="stroke-linejoin:miter;stroke-opacity:1;stroke:#000000;stroke-linecap:butt;stroke-width:1.41421356237;fill:none"
         d="M3197.65649 1605.501893C3197.65649 1605.501893 3237.20659 1605.501893 3237.20659 1605.501893C3237.20659 1605.501893 3260.93659 1507.066293 3239.84319 1501.792893C3239.84319 1501.792893 3273.24109 1520.249593 3278.51439 1346.229393C3278.51439 1346.229393 3336.52109 887.448963 3282.02999 516.557473C3282.02999 516.557473 3229.29659 64.808123 3197.65649 78.870363C3197.65649 78.870363 3210.61449 52.985503 3200.67099 47.392283C3200.67099 47.392283 3188.86309 30.612623 3175.81219 39.313183C3175.81219 39.313183 3159.03259 58.578723 3165.86869 67.279293C3165.86869 67.279293 3141.00999 103.945953 3146.60319 175.414883C3146.60319 175.414883 3159.03259 358.126753 3175.19069 547.053303C3213.72179 786.940303 3185.13429 1011.912093 3185.13429 1011.912093C3185.13429 1011.912093 3164.00429 1231.912093 3170.21899 1471.799093C3170.21899 1471.799093 3179.54099 1500.386593 3190.72749 1500.386593C3190.72749 1500.386593 3184.51279 1507.222793 3188.86309 1514.058993C3193.83479 1523.380993 3186.99869 1528.352693 3186.99869 1528.352693C3186.99869 1528.352693 3180.16249 1531.460093 3188.24159 1545.132393C3198.80659 1572.476993 3197.65649 1605.501893 3197.65649 1605.501893C3197.65649 1605.501893 3197.65649 1605.501893 3197.65649 1605.501893"
         id="path4544" />
   </g>
   <g id="DAP14">
      <path
         style="stroke-linejoin:miter;stroke-opacity:1;stroke:#000000;stroke-linecap:butt;stroke-width:1.41421356237;fill:none"
         d="M3473.62789 1514.976293C3473.62789 1514.976293 3470.99129 1536.069593 3470.99129 1536.069593C3470.99129 1536.069593 3456.05009 1555.405193 3464.83899 1562.436293C3476.26459 1581.771893 3470.11239 1637.141993 3470.11239 1637.141993C3470.11239 1637.141993 3514.93569 1637.141993 3514.93569 1637.141993C3514.93569 1637.141993 3518.45129 1601.107493 3528.99799 1578.256293C3541.30239 1540.464093 3524.60349 1513.218493 3524.60349 1513.218493C3524.60349 1513.218493 3559.75909 1517.612893 3556.24359 1447.301793C3556.24359 1447.301793 3571.68789 1270.443093 3535.64269 944.793393C3535.64269 944.793393 3501.75239 247.617203 3391.01229 85.901483C3391.01229 85.901483 3402.43789 65.687013 3395.40669 54.261443C3395.40669 54.261443 3376.95009 41.078103 3364.64559 65.687013C3364.64559 65.687013 3362.00889 82.385923 3369.91889 91.174813C3369.91889 91.174813 3411.22679 241.464973 3416.50009 370.661773C3416.50009 370.661773 3406.83229 329.353953 3399.80119 310.018373C3392.77009 290.682803 3380.46559 180.821573 3380.46559 180.821573C3380.46559 180.821573 3371.67669 131.603743 3352.34109 93.811483C3352.34109 93.811483 3333.88449 68.323683 3333.88449 141.271533C3333.88449 141.271533 3332.12669 276.620563 3354.09889 357.478423C3375.19229 448.004073 3362.00889 513.920803 3362.00889 513.920803C3362.00889 513.920803 3369.91889 576.321983 3380.46559 603.567563C3395.40669 651.906503 3388.37559 717.823233 3388.37559 717.823233C3388.37559 717.823233 3392.77009 779.345523 3400.68009 810.985553C3400.68009 810.985553 3430.56229 993.794593 3421.77339 1092.230293C3421.77339 1092.230293 3417.37899 1312.831593 3434.07789 1433.239493C3434.07789 1433.239493 3433.19889 1523.765193 3473.62789 1514.976293C3473.62789 1514.976293 3473.62789 1514.976293 3473.62789 1514.976293"
         id="path4546" />
   </g>
   <text transform="matrix(1.000000,0.000000,0.000000,1.000000,0.000000,0.000000)" id="text4598" y="1730.3301"
      x="200.84045"
      style="font-style:normal;font-variant:normal;font-weight:normal;font-stretch:normal;font-size:8px;line-height:1.25;font-family:Arial;-inkscape-font-specification:Arial;text-align:start;letter-spacing:0px;word-spacing:0px;text-anchor:start;fill:#000000;fill-opacity:1;stroke:none"
      xml:space="preserve">
      <tspan style="font-size:64px" y="1730.3301" x="200.84045" id="tspan4596" sodipodi:role="line">-1</tspan>
   </text>
   <text transform="matrix(1.000000,0.000000,0.000000,1.000000,0.000000,0.000000)" xml:space="preserve"
      style="font-style:normal;font-variant:normal;font-weight:normal;font-stretch:normal;font-size:8px;line-height:1.25;font-family:Arial;-inkscape-font-specification:Arial;text-align:start;letter-spacing:0px;word-spacing:0px;text-anchor:start;fill:#000000;fill-opacity:1;stroke:none"
      x="446.94214" y="1730.3301" id="text4612">
      <tspan sodipodi:role="line" id="tspan4610" x="446.94214" y="1730.3301" style="font-size:64px">0</tspan>
   </text>
   <text transform="matrix(1.000000,0.000000,0.000000,1.000000,0.000000,0.000000)" id="text4616" y="1730.3301"
      x="688.07208"
      style="font-style:normal;font-variant:normal;font-weight:normal;font-stretch:normal;font-size:8px;line-height:1.25;font-family:Arial;-inkscape-font-specification:Arial;text-align:start;letter-spacing:0px;word-spacing:0px;text-anchor:start;fill:#000000;fill-opacity:1;stroke:none"
      xml:space="preserve">
      <tspan style="font-size:64px" y="1730.3301" x="688.07208" id="tspan4614" sodipodi:role="line">1</tspan>
   </text>
   <text transform="matrix(1.000000,0.000000,0.000000,1.000000,0.000000,0.000000)" xml:space="preserve"
      style="font-style:normal;font-variant:normal;font-weight:normal;font-stretch:normal;font-size:8px;line-height:1.25;font-family:Arial;-inkscape-font-specification:Arial;text-align:start;letter-spacing:0px;word-spacing:0px;text-anchor:start;fill:#000000;fill-opacity:1;stroke:none"
      x="904.34326" y="1730.3301" id="text4620">
      <tspan sodipodi:role="line" id="tspan4618" x="904.34326" y="1730.3301" style="font-size:64px">2</tspan>
   </text>
   <text transform="matrix(1.000000,0.000000,0.000000,1.000000,0.000000,0.000000)" id="text4624" y="1730.3301"
      x="1105.6992"
      style="font-style:normal;font-variant:normal;font-weight:normal;font-stretch:normal;font-size:8px;line-height:1.25;font-family:Arial;-inkscape-font-specification:Arial;text-align:start;letter-spacing:0px;word-spacing:0px;text-anchor:start;fill:#000000;fill-opacity:1;stroke:none"
      xml:space="preserve">
      <tspan style="font-size:64px" y="1730.3301" x="1105.6992" id="tspan4622" sodipodi:role="line">3</tspan>
   </text>
   <text transform="matrix(1.000000,0.000000,0.000000,1.000000,0.000000,0.000000)" xml:space="preserve"
      style="font-style:normal;font-variant:normal;font-weight:normal;font-stretch:normal;font-size:8px;line-height:1.25;font-family:Arial;-inkscape-font-specification:Arial;text-align:start;letter-spacing:0px;word-spacing:0px;text-anchor:start;fill:#000000;fill-opacity:1;stroke:none"
      x="1267.2811" y="1730.3301" id="text4628">
      <tspan sodipodi:role="line" id="tspan4626" x="1267.2811" y="1730.3301" style="font-size:64px">4</tspan>
   </text>
   <text transform="matrix(1.000000,0.000000,0.000000,1.000000,0.000000,0.000000)" id="text4632" y="1730.3301"
      x="1481.0664"
      style="font-style:normal;font-variant:normal;font-weight:normal;font-stretch:normal;font-size:8px;line-height:1.25;font-family:Arial;-inkscape-font-specification:Arial;text-align:start;letter-spacing:0px;word-spacing:0px;text-anchor:start;fill:#000000;fill-opacity:1;stroke:none"
      xml:space="preserve">
      <tspan style="font-size:64px" y="1730.3301" x="1481.0664" id="tspan4630" sodipodi:role="line">5</tspan>
   </text>
   <text transform="matrix(1.000000,0.000000,0.000000,1.000000,0.000000,0.000000)" xml:space="preserve"
      style="font-style:normal;font-variant:normal;font-weight:normal;font-stretch:normal;font-size:8px;line-height:1.25;font-family:Arial;-inkscape-font-specification:Arial;text-align:start;letter-spacing:0px;word-spacing:0px;text-anchor:start;fill:#000000;fill-opacity:1;stroke:none"
      x="1704.7952" y="1730.3301" id="text4636">
      <tspan sodipodi:role="line" id="tspan4634" x="1704.7952" y="1730.3301" style="font-size:64px">6</tspan>
   </text>
   <text transform="matrix(1.000000,0.000000,0.000000,1.000000,0.000000,0.000000)" id="text4640" y="1730.3301"
      x="1881.2924"
      style="font-style:normal;font-variant:normal;font-weight:normal;font-stretch:normal;font-size:8px;line-height:1.25;font-family:Arial;-inkscape-font-specification:Arial;text-align:start;letter-spacing:0px;word-spacing:0px;text-anchor:start;fill:#000000;fill-opacity:1;stroke:none"
      xml:space="preserve">
      <tspan style="font-size:64px" y="1730.3301" x="1881.2924" id="tspan4638" sodipodi:role="line">7</tspan>
   </text>
   <text transform="matrix(1.000000,0.000000,0.000000,1.000000,0.000000,0.000000)" xml:space="preserve"
      style="font-style:normal;font-variant:normal;font-weight:normal;font-stretch:normal;font-size:8px;line-height:1.25;font-family:Arial;-inkscape-font-specification:Arial;text-align:start;letter-spacing:0px;word-spacing:0px;text-anchor:start;fill:#000000;fill-opacity:1;stroke:none"
      x="2147.281" y="1730.3301" id="text4644">
      <tspan sodipodi:role="line" id="tspan4642" x="2147.281" y="1730.3301" style="font-size:64px">8</tspan>
   </text>
   <text transform="matrix(1.000000,0.000000,0.000000,1.000000,0.000000,0.000000)" id="text4648" y="1730.3301"
      x="2341.1792"
      style="font-style:normal;font-variant:normal;font-weight:normal;font-stretch:normal;font-size:8px;line-height:1.25;font-family:Arial;-inkscape-font-specification:Arial;text-align:start;letter-spacing:0px;word-spacing:0px;text-anchor:start;fill:#000000;fill-opacity:1;stroke:none"
      xml:space="preserve">
      <tspan style="font-size:64px" y="1730.3301" x="2341.1792" id="tspan4646" sodipodi:role="line">9</tspan>
   </text>
   <text transform="matrix(1.000000,0.000000,0.000000,1.000000,0.000000,0.000000)" xml:space="preserve"
      style="font-style:normal;font-variant:normal;font-weight:normal;font-stretch:normal;font-size:8px;line-height:1.25;font-family:Arial;-inkscape-font-specification:Arial;text-align:start;letter-spacing:0px;word-spacing:0px;text-anchor:start;fill:#000000;fill-opacity:1;stroke:none"
      x="2554.9646" y="1730.3301" id="text4652">
      <tspan sodipodi:role="line" id="tspan4650" x="2554.9646" y="1730.3301" style="font-size:64px">10</tspan>
   </text>
   <text transform="matrix(1.000000,0.000000,0.000000,1.000000,0.000000,0.000000)" id="text4656" y="1722.8724"
      x="2733.9478"
      style="font-style:normal;font-variant:normal;font-weight:normal;font-stretch:normal;font-size:8px;line-height:1.25;font-family:Arial;-inkscape-font-specification:Arial;text-align:start;letter-spacing:0px;word-spacing:0px;text-anchor:start;fill:#000000;fill-opacity:1;stroke:none"
      xml:space="preserve">
      <tspan style="font-size:64px" y="1722.8724" x="2733.9478" id="tspan4654" sodipodi:role="line">11</tspan>
   </text>
   <text transform="matrix(1.000000,0.000000,0.000000,1.000000,0.000000,0.000000)" xml:space="preserve"
      style="font-style:normal;font-variant:normal;font-weight:normal;font-stretch:normal;font-size:8px;line-height:1.25;font-family:Arial;-inkscape-font-specification:Arial;text-align:start;letter-spacing:0px;word-spacing:0px;text-anchor:start;fill:#000000;fill-opacity:1;stroke:none"
      x="2963.678" y="1722.8724" id="text4660">
      <tspan sodipodi:role="line" id="tspan4658" x="2963.678" y="1722.8724" style="font-size:64px">12</tspan>
   </text>
   <text transform="matrix(1.000000,0.000000,0.000000,1.000000,0.000000,0.000000)" id="text4664" y="1722.8724"
      x="3174.6116"
      style="font-style:normal;font-variant:normal;font-weight:normal;font-stretch:normal;font-size:8px;line-height:1.25;font-family:Arial;-inkscape-font-specification:Arial;text-align:start;letter-spacing:0px;word-spacing:0px;text-anchor:start;fill:#000000;fill-opacity:1;stroke:none"
      xml:space="preserve">
      <tspan style="font-size:64px" y="1722.8724" x="3174.6116" id="tspan4662" sodipodi:role="line">13</tspan>
   </text>
   <text transform="matrix(1.000000,0.000000,0.000000,1.000000,0.000000,0.000000)" xml:space="preserve"
      style="font-style:normal;font-variant:normal;font-weight:normal;font-stretch:normal;font-size:8px;line-height:1.25;font-family:Arial;-inkscape-font-specification:Arial;text-align:start;letter-spacing:0px;word-spacing:0px;text-anchor:start;fill:#000000;fill-opacity:1;stroke:none"
      x="3455.8564" y="1722.8724" id="text4668">
      <tspan sodipodi:role="line" id="tspan4666" x="3455.8564" y="1722.8724" style="font-size:64px">14</tspan>
   </text>
   <text transform="matrix(1.000000,0.000000,0.000000,1.000000,0.000000,0.000000)" xml:space="preserve"
      style="font-style:normal;font-variant:normal;font-weight:normal;font-stretch:normal;font-size:8px;line-height:1.25;font-family:Arial;-inkscape-font-specification:Arial;text-align:start;letter-spacing:0px;word-spacing:0px;text-anchor:start;fill:#000000;fill-opacity:1;stroke:none"
      x="25.0625" y="1730.3301" id="text4672">
      <tspan sodipodi:role="line" id="tspan4670" x="25.0625" y="1730.3301" style="font-size:64px">DPA</tspan>
   </text>
</svg>