<svg version="1.1" id="TissueSpecificMicrogametogenesis_svg" xmlns="http://www.w3.org/2000/svg" x="0" y="0" viewBox="80 70 750 300" xml:space="preserve"><g id="Samples" fill="#FFF"><g id="Uninucleate_Microphore"><path d="M170.333 240c-1.956-.172-4.092-.625-6.5-.666a4.04 4.04 0 0 0-2.535.844c-.083-.146-.153-.305-.247-.449-1.183-1.815-3.382-2.683-5.394-1.963a4.999 4.999 0 0 0-.439-1.037c-2.497-4.427-4.8-7.929-6.046-12.922-1.109-4.445-2.575-8.874-4.167-13.167-2-5.392-10.702-3.061-8.679 2.393a141.156 141.156 0 0 1 4.597 14.888c1.269 5.084 3.982 8.846 6.524 13.354.998 1.77 2.599 2.357 4.136 2.168.241 1.527 2.911 3.499 4.594 4.034.814.958-2.469-2.266 0 0 .875.805 3.969.521 4.8-.278a4.462 4.462 0 0 0 2.896 1.139c.962.019 1.892.105 2.846.223.252.036 1.183.161 1.642.225.659.086 1.313.164 1.976.222 2.447.215 4.497-2.209 4.497-4.5.002-2.623-2.058-4.294-4.501-4.508z"/><path d="m168.353 248.778-.019-.002c.404.054.309.041.019.002zm62.295-40.6c-1.022-4.252-2.383-9.834-5.966-12.693-1.548-1.234-3.364-1.52-4.87-.918-1.47-.601-2.881-.423-4.032.193-.09-.09-.162-.194-.265-.274-1.174-.915-2.548-1.928-3.141-2.918-1.066-1.778-.666-3.927-.875-5.9a6.104 6.104 0 0 0-.309-1.341c4.667 4.289 9 3.452 7.481-4.688-.997-5.34-2.961-11.754-7.024-15.587-3.587-3.384-9.901-4.271-14.252-6.415-4.821-2.375-10.289-2.47-15.518-3.318-5.532-.897-10.811-1.093-15.983 1.297a4.525 4.525 0 0 0-1.257.842c-.762-.239-1.661-.209-2.668.204-6.631 2.722-11.675 6.707-15.271 12.975-1.609 2.806-3.074 6.145-3.264 9.407-.183 3.14 1.014 8.003-.822 10.686-1.043 1.526-.772 4.265.704 5.454a45.51 45.51 0 0 1 4.253 3.889c.432.448.8.917 1.143 1.407-.49.348-.93.806-1.266 1.418-.438.87-.938 1.704-1.5 2.5a5.05 5.05 0 0 0-.266.458c-.21-.003-.42-.007-.631-.003-.433.007-.863.001-1.294-.016-1.811-1.308-4.259-1.361-5.938.317-1.655 1.656-1.836 4.736 0 6.364 1.594 1.413 3.299 2.087 5.399 2.282.16.015.319.018.478.026.054.044.114.072.17.113-.583 6.469 1.731 13.2 4.721 18.891 3.389 6.451 10.003 8.79 16.266 7.816.918 2.434 4.464 3.872 7.026 2.246 1.2.136 2.408-.239 3.304-1.375.886-1.123 4.875-.355 6.226-.13 1.854.315 2.341 1.789 3.416 3.13.278.346.62.62 1 .848-3.226 3.896 1.66 9.325 5.48 7.014.189.031.434.077.759.152 1.035.238 2.055.563 3.075.862 1.736.503 3.542.976 5.361.939 5.424-.1 10.651-3.854 15.132-6.479 5.13-3.008 7.225-6.762 10.319-11.785 2.417-3.925 5.088-8.81 4.715-13.567a4.891 4.891 0 0 0-.445-1.653c.372-.99.719-1.982.914-2.99.619-3.184.267-6.553-.485-9.68z"/></g><path d="m386.954 216.231.07.233a3.412 3.412 0 0 0-.675-1.371c.287-1.864.636-3.727.873-5.603.598-4.728.373-9.53-.222-14.241-.389-3.077-3.513-4.291-5.75-3.619-.999-.898-2.133-1.664-3.341-2.309a3.675 3.675 0 0 0-.93-1.168l.119.069c-.053-.042-.108-.069-.162-.109a4.745 4.745 0 0 0-.942-.588 25.438 25.438 0 0 1-.214-1.207c-.184-1.177-.308-2.356-.656-3.501a3.633 3.633 0 0 0-.592-1.149c.09-.642.148-1.284.16-1.926.021 0 .037.006.058.006 4.843 0 5.139-7.048.889-7.912-1.114-8.924-9.174-14.54-16.675-18.93-1.354-1.264-2.707-2.114-4.635-2.479a5.213 5.213 0 0 0-2.261.063c-.544-.868-1.477-1.492-2.818-1.492-1.004 0-1.772.358-2.33.896-.305-.12-.589-.224-.839-.301-4.663-1.435-10.015-1.091-14.832-1.095-1.852-.001-3.169.824-3.957 1.999-6.514.493-14.157 2.598-18.252 7.476a23.127 23.127 0 0 0-1.365 1.81 3.636 3.636 0 0 0-1.449.649c-1.517 1.14-2.499 2.255-3.648 3.747 1.083-1.406-.028.013-.307.322-.069.077-.148.144-.222.217-.105.079-.222.16-.323.214-2.399 1.286-3.133 4.556-1.794 6.841 1.018 1.737 2.87 2.554 4.724 2.404.193.889-1.119.995-.793 1.864-.917.562-.279 1.889-1.191 2.461-.741.464-1.423.99-2.073 1.544-1.801.01-3.694.199-5.736.542-1.237.208-2.4.63-3.493 1.193-.502-.325-1.118-.532-1.871-.532-2.854 0-3.898 2.796-3.143 4.854-3.184 4.221-4.55 10.038-3.018 14.782.212.803.341 1.184.394 1.181.053.971.066 1.947.097 2.911.125 3.957.68 7.838 1.236 11.756.025.175.062.341.088.515-.154.427-.218.925-.155 1.501.263 2.391 1.218 4.366 2.181 6.346.408 1.12.857 2.225 1.353 3.319.15 3.32 1.707 6.203 4.102 8.466.006.579.043 1.161.151 1.746.821 4.475 3.217 8.383 6.49 11.496 2.74 2.606 5.964 4.51 8.318 7.534 1.403 1.803 3.668 2.477 5.909 2.313a16.2 16.2 0 0 0 2.17 1.523c2.686 1.573 5.388 2.235 8.034 2.199 1.435 1.396 2.196.946 4.793.946 5.605 0 9.745-2.844 9.937-7.185 1.664-1.146.646-5.174 4.579-5.174 1.767 0 2.519-1.244 3.553-2.69a13.13 13.13 0 0 0 1.904 1.088c.46.987 1.128 1.921 1.897 2.737-.034 1.775 1.088 3.578 3.379 3.578.68 0 1.244-.172 1.719-.441 1.932.553 4.002.586 5.956.052.77-.215 1.506-.52 2.207-.892.815.088 1.654-.061 2.388-.515 2.255-1.396 4.514-2.67 6.56-4.376.402-.335.688-.756.88-1.218.124-.093.25-.176.37-.282 5.161-4.682 9.086-10.33 10.951-16.8a3.222 3.222 0 0 0 .642-2.688c.022-.114.049-.226.07-.34a29.962 29.962 0 0 0 1.103-4.901c.279-.541.406-1.167.406-1.851v-.5c0-.696.034-1.348-.328-1.897.859-1.083 1.345-2.576.282-4.111zm-51.769-53.652c-2.903-2.525-1.563-2.254 0 0z" id="Bicellular_Pollen"/><path d="M571.66 222.757c.222-1.4.34-2.823.34-4.257v-.25c0-.967-.066-1.927-.164-2.881.741-1.239 1.024-2.717.468-4.081-.085-.173-.134-.358-.185-.542-.05-.741-.138-1.49-.315-2.208a4.903 4.903 0 0 0-.575-1.371c-.062-.375-.117-.75-.175-1.129-.295-2.053-2.163-3.444-4.148-3.873-.004-.012-.004-.024-.011-.036-.826-1.401-1.7-2.694-2.737-3.886a29.528 29.528 0 0 0-.451-2.657l.046-.061c.854-1.232 1.67-2.49 2.514-3.729.319-.469.652-.928.988-1.385l.208-.256c.293-.354.61-.686.93-1.016a5.581 5.581 0 0 0 .911-6.513 9.154 9.154 0 0 0-.019-1.595c-.158-1.426-.311-2.818-.817-4.158-.468-1.23-1.017-2.312-1.806-3.227-.854-4.644-2.661-9.146-5.107-13.19-8.737-14.446-26.636-22.741-43.305-20.956-.513.055-1.021.124-1.526.199a22.383 22.383 0 0 0-.938-.288c-5.143-1.414-9.934-1.204-14.206.222-5.488-.956-10.188-.724-16.053.221-5.184.834-9.479 3.322-12.771 6.773a9.502 9.502 0 0 0-3.538.965c-2.114 1.045-3.647 2.896-4.922 4.822-.521.791-.938 1.643-1.43 2.449-2.764 3.174-2.826 7.984.229 11.043a7.789 7.789 0 0 0 2.167 1.511c.099 2.1.434 4.178.998 6.188-.809.738-1.605 1.488-2.438 2.212a3.717 3.717 0 0 0-.97 1.36c-.128.086-.258.172-.383.258-.619-.349-1.354-.437-2.219-.437h-2c-3.597 0-4.959 3.329-4.098 5.958-.469 1.158-.799 2.311-.958 3.588-.118.956-.005 1.993.312 2.969-.507 1.923-.71 3.923-.507 6 .654 6.7.149 13.425.759 20.127.85 9.317 3.463 17.521 7.192 26.034 4.472 10.208 13.054 20.614 24.062 23.533 4.595 3.936 11.805 6.702 16.372 2.43 1.491-1.394 1.887-3.527 1.353-5.404a22.196 22.196 0 0 0 1.479-1.123c.058.005.106.013.161.017 2.575.198 5.146.122 7.712.09a21.9 21.9 0 0 0 4.771.946c.431.445.877.869 1.332 1.277-1.799 3.393-.299 8.439 4.553 8.061 4.01-.315 8.021.372 12.021-.073 4.364-.482 7.753-2.396 10.396-5.602a22.885 22.885 0 0 0 4.864-4.104c6.212-1.722 11.797-5.722 15.237-11.604.479-.817.872-1.676 1.284-2.524a25.366 25.366 0 0 0 5.035-9.563c1.041-3.785 1.229-8.17.396-12.267a23.559 23.559 0 0 0-.318-3.007z" id="Tricellular_Pollen"/><g id="Mature_Pollen_Grain"><path d="M698.5 162.75c-1.744.033-3.487.326-5.196.661-2.17.424-3.464 2.767-3.253 4.856-1.837 1.473-2.733 3.784-1.437 6.004 1.136 1.939 4.186 3.083 6.157 1.614 2.35-1.751 4.809-3.4 6.907-5.454 2.786-2.718.744-7.755-3.178-7.681z"/><path d="M765.182 202.214c.301-1.574.347-3.191.154-4.79.094-.473.178-.947.234-1.424.588-4.918.461-9.809.43-14.75a9.69 9.69 0 0 0-.091-1.265c.056-.322.091-.649.091-.985 0-3.271-2.729-6-6-6h-3.358c-1.103-1.779-2.052-3.398-2.514-5.487-.307-1.384-.765-3.08-1.079-4.772.476-.779.868-1.635 1.148-2.514.891-.264 1.761-.807 2.545-1.735 6.299-7.451-.609-17.836-5.021-24.468-2.507-3.772-5.392-7.294-8.271-10.783-4.971-6.022-11.021-10.501-16.959-15.484-1.91-1.603-4.096-1.896-5.951-1.322a52.46 52.46 0 0 0-6.896-2.784 77.05 77.05 0 0 1-2.116-1.332c-2.049-1.342-4.048-1.224-5.624-.304-6.239-.81-13.159-.824-18.872-1.013-10.636-.352-21.474 3.881-29.086 11.275a35.558 35.558 0 0 0-2.67 2.916c-1.813-.016-3.599.867-4.707 3.028-1.24 2.413-3.364 4.333-5 6.5-1.938 2.567-3.646 5.365-5.5 8a42.99 42.99 0 0 0-6.407 13.664c-.381.46-.757.924-1.154 1.372-1.276 1.439-1.711 3.05-1.56 4.567-.842 1.732-.796 3.83.121 5.704.543 1.11 1.03 2.237 1.75 3.25 1.193 1.687 2.888 2.835 4.846 2.959.125 1.02.263 2.042.425 3.069.232 1.479.553 2.945.911 4.403-.177.118-.345.25-.529.359 2.101-1.245-3.463 7.224-2.834 4.049a26.577 26.577 0 0 0-1.973 1.68c-.221-.021-.44-.042-.665-.048-3.271-.086-5 2.794-5 6 0 .824-.832 1.601-.532 2.306a5.89 5.89 0 0 0 .07.958 21.393 21.393 0 0 0-1.288 8.235c.123 2.891.521 5.683.928 8.544-.004.154-.01.308-.013.461-.076.287-.146.575-.225.861-.988 3.68-.291 7.606-.569 11.388-.49 6.645-.178 13.438 1.819 19.871a39.636 39.636 0 0 0 .053 4.625c.457 6.165 1.634 12.365 5.24 17.535a66.06 66.06 0 0 0 2.48 3.306c.624 2.245 8.1 13.668 8.752 14.252.688 1.647 1.449 3.258 2.376 4.772a25.346 25.346 0 0 0 12.619 10.46 12.817 12.817 0 0 0 2.978 2.397c3.003 1.762 6.661 2.233 10.018 1.312 2.784-.769 5.459-2.56 7.14-4.963.16-.09.322-.167.481-.261 1.354.272 2.749.428 4.173.438.316.002.633.012.949.017 1.55 1.376 3.203 2.393 4.952 3.252.58 1.533 1.504 2.938 2.652 4.144 1.037 2.971 3.604 4.341 7.693 4.341 1.829 0 3.347.52 4.565-.271.305-.062.605-.135.905-.219.023.007.048.02.07.023.812.223 1.591.345 2.36.399 1.457.562 3.02-.13 4.628-.13 3.711 0 7.153-.619 9.604-3.271a12.114 12.114 0 0 0 3.651-.943c2.528-1.087 5.104-2.27 6.545-4.792 1.935-.553 3.661-1.879 4.732-4.122 5.046-2.735 8.438-7.172 10.621-12.334a45.024 45.024 0 0 0 2.245-2.763c1.741-2.344 2.487-5.21 3.164-8.063a9.093 9.093 0 0 0 .849-2.256c.229-1.007.531-1.989.855-2.963 1.219-1.502 1.97-3.448 2.195-5.547.021-.218.062-.432.096-.646.628-1.719 1.18-3.463 1.531-5.276 1.748-4.278 3.607-8.647 4.319-13.814 1.299-9.434 1.581-19.037 2.554-28.51.174-1.555-.256-3.021-1.053-4.288zm-129.475 58.742c-1.48-2.569-.9-3.05 0 0z"/></g></g><g id="Outlines" stroke-miterlimit="10"><g fill="none" stroke="#000" stroke-width=".75" stroke-linecap="round" stroke-linejoin="round"><path d="M758.119 148.158c.509-2.979-2.932-6.401-4.296-8.76-2.12-3.668-4.312-7.317-6.748-10.776-2.627-3.724-5.158-7.684-8.493-10.696-4.04-3.648-8.514-7.354-13.48-9.283-4.696-1.825-9.598-3.146-14.076-5.613-.69-.38-1.771-.053-2.667-.053-8.988 0-17.983.209-26.962-.076-5.661-.18-10.626 1.48-15.137 4.511-4.652 3.13-8.814 7.025-13.585 9.95-3.702 2.272-4.511 6.277-6.909 9.29-3.322 4.173-5.998 8.873-8.834 13.42-.978 1.567-1.641 3.336-2.383 5.041-1.266 2.908-2.981 5.736-3.604 8.783-1.08 5.31 1.688 8.996 6.332 11.574 1.404 4.923 1.843 9.663-.879 11.857.177 1.592.476 3.056.479 4.521.038 12.134-.278 24.278.143 36.397.229 6.622.736 13.312 1.49 19.856.877 7.619 1.826 15.602 6.49 22.271 1.608 2.301 3.115 4.748 5.091 6.702 5.254 5.192 10.534 10.402 16.217 15.108 2.885 2.39 6.486 4.332 10.081 5.287 2.67.709 2.43 2.308 3.09 4.622-2.936 1.604-5.94 3.69-9.271 4.851-1.431.493-3.636-.739-5.308-1.562-2.347-1.147-4.61-2.516-6.746-4.021-5.284-3.726-10.35-7.513-13.297-13.729-2.126-4.479-5.48-8.381-8.295-12.533-1.227-1.806-2.352-3.694-3.732-5.372-2.376-2.87-2.442-6.479-3.307-9.807-4.913-18.896-1.885-38.187-2.771-57.287-.229-4.904 1.189-9.263 3.164-13l5.972-1.832"/><path d="M754.193 161.624c-1.736 3.578.203 6.811 1.074 10.094.368 1.386 1.554 2.053 3.303 2.143 2.106.108 4.179.981 6.55 1.597.202 3.562.494 6.492.511 9.423.061 10.673.133 21.348-.013 32.02-.113 8.346-1.49 16.542-3.657 24.609-1.535 5.71-2.857 11.479-4.442 17.173-.488 1.77-1.521 3.388-2.312 5.068-3.034 6.471-6.011 12.975-10.12 18.869-.268.385-.665.68-1.002 1.017-3.595 3.599-7.154 7.229-10.797 10.774-3.004 2.926-6.45 5.058-10.773 5.415-.344.025-.787.109-.994.342-2.7 2.98-6.24 2.753-9.792 2.7-5.056-.075-10.108-.021-15.481-.021-2.077-3.158-4.116-6.566-6.511-9.708-.672-.881-2.354-1.186-3.629-1.361-2.107-.296-4.264-.274-6.396-.39m35.384-158.076c-4.483-.045-8.396 1.202-11.498 4.685-.989 1.115-2.434 1.831-3.669 2.73"/><path d="M699.929 141.75c-2.472-1.741-9.169-4.99-11.848-6.312-1.986-.98-4.432-1.281-6.693-1.378a27.988 27.988 0 0 0-7.396.669c-2.544.586-5.176 1.371-7.382 2.708-3.501 2.123-6.755 4.409-7.271 9.341-.473 4.54 2.999 10.622 7.555 11.488 1.928.366 3.804 1.11 5.736 1.292 5.95.562 10.995-1.551 15.94-4.859 2.514-1.682 5.402-3.906 8.994-3.174 1.812.37 3.793.539 5.349 1.417 2.207 1.246 4.432 2.776 6.045 4.694 3.604 4.288 9.007 5.755 13.235 9.014.28.217.933.163 1.314.006 2.378-.967 4.961-1.665 7.028-3.097 2.562-1.775 4.979-4.462 4.635-7.651-.575-5.327-.858-10.871-4.222-15.533-2.442-3.389-5.526-5.474-9.787-5.773-.702-.049-5.397-.843-6.071-1.292M173.902 234.764c2.121 1.7 4.678 1.061 7.068 1.415 3.019.452 5.969 1.378 8.941 2.128 4.94 1.246 9.85 1.741 14.659-.518.59-.277 1.325-.532 1.658-1.023 3.099-4.576 6.604-9.125 5.33-15.125-.409-1.925-1.783-3.72-2.979-5.384-1.295-1.803-2.898-3.384-4.681-5.421-4.375 0-9.104.17-13.815-.055-3.608-.172-7.433-.203-10.734-1.438-5.542-2.073-11.087-2.917-16.896-2.471-6.24 3.164-5.002 9.009-5.072 14.412-.046 3.532 1.849 6.198 4.458 7.988 2.486 1.708 5.548 2.572 8.356 3.81 1.013.444 2.022.896 3.034 1.349m343.792 29.993c-.429 3.38.594 6.066 3.705 7.753 3.709 0 7.415-.023 11.123.006 5.613.051 10.385-1.735 14.562-5.665 2.56-2.403 5.656-4.318 8.721-6.097 7.104-4.111 11.927-10.315 15.678-17.306 1.319-2.454 1.349-5.759 1.43-8.69.188-6.96-.204-13.943.156-20.89.226-4.277-.983-7.239-4.424-9.853-4.421-3.361-4.809-5.907-3.086-10.217l6.201-6.267c-1.906-6.259-3.547-12.268-5.577-18.143-2.224-6.438-5.214-12.447-11.061-16.554-3.347-2.348-6.372-5.185-9.852-7.296-2.151-1.308-4.854-1.781-7.361-2.429-3.454-.894-6.953-1.624-10.444-2.371a15.146 15.146 0 0 0-3.03-.337c-4.493-.035-8.995-.175-13.479.021-7.084.311-14.182.657-21.228 1.408-2.98.318-5.854 1.701-8.771 2.6m-16.516 9.101c-1.123 1.91-2.404 3.748-3.305 5.759-.479 1.072-.802 2.733-.299 3.619 1.129 1.986 2.646 3.837 4.316 5.411 2.771 2.611 3.012 3.347.972 6.444-.789 1.199-1.592 2.39-1.974 2.962l-8.994 1.53c-.518 3.886-1.261 7.605-1.44 11.352-.247 5.044-.36 10.131.014 15.159.479 6.427 1.49 12.814 2.286 19.217.914 7.349 3.689 14.075 7.117 20.542 1.204 2.271 2.673 4.478 4.388 6.385 2.862 3.186 6.112 6.021 9.029 9.163 3.604 3.88 8.479 5.756 12.896 8.294 2.101 1.207 4.856 1.575 7.354 1.722 4.502.264 7.271-2.681 7.41-7.341"/><path d="M144.073 238.135c-.044-1.585-.912-3.619-2.057-5.154-1.451-1.946-2.121-4.566-2.778-6.994-.684-2.521-.44-5.391-1.505-7.689-2.356-5.09-1.61-9.656.999-14.614.909.604 1.496 1.065 2.145 1.411 2.028 1.081 5.354.366 6.399-1.338 1.393-2.273.819-4.263-1.679-6.075-1.352-.98-2.64-2.048-4.262-3.314.65-3.482 1.409-6.802 1.857-10.164.438-3.287-.78-6.736 1.663-9.818 1.669-2.104 2.63-4.755 4.129-7.014 5.75-8.667 15.071-10.21 24.259-11.729 3.171-.524 6.513.087 9.758-.125 4.297-.282 8.208 1.051 12.132 2.415 2.719.945 5.358 2.133 8.102 2.993 4.651 1.457 9.124 2.999 11.144 8.105.829 2.094 2.908 4.104 2.803 6.068-.188 3.521 4.319 10.983 1.201 12.459l-6.882-.887m515.055-62.965a345.044 345.044 0 0 0-18.478-6.098c-5.623-1.685-11.261-3.42-16.868-2.28-4.783.973-9.776.013-14.1 1.437-3.596 1.183-8.148-.504-10.935 3.37-.953 1.327-2.461 2.244-3.651 3.412-1.735 1.697-2.635 4.377-5.736 4.453-.688.017-1.502.933-2 1.623-4.293 5.941-9.839 11.15-11.156 18.855-.04.237-.237.443-.324.677-1.913 5.167-3.82 10.335-5.73 15.503M375.01 181.847l4.793-3.976c-4.036-6.342-7.306-12.202-11.292-17.524-3.366-4.493-8.267-7.14-13.707-8.889-8.585-2.759-17.33-.608-25.976-1.215-1.534-.107-3.138.827-4.713 1.268-6.318 1.768-12.715 3.239-17.236 8.726-2.674 3.245-6.45 5.641-7.414 10.837l4.764 4.032m158.191 3.371c0 14.043-.253 28.095.154 42.126.122 4.186 1.666 8.513 3.427 12.379.7 1.537-.185 4.254 2.485 4.812 2.234 8.594 9.021 13.087 15.849 17.517 4.838 3.143 9.974 5.57 15.834 6.074.224.021.525-.091.662.021.684.548 1.324 1.146 1.53 1.333 4.321 0 8.442-.901 11.882.246 3.608 1.207 7.087 1.332 10.519.979 5.961-.607 12.169-.979 16.746-5.896.828-.893 2.287-1.228 3.493-1.727 4.589-1.896 8.202-5.215 11.735-8.498 3.521-3.271 5.557-7.519 6.152-12.402.268-2.156.254-4.77 1.476-6.281 1.521-1.89 1.127-3.668 1.155-5.519.099-5.729 0-11.459.065-17.189.013-1.126.419-2.247.644-3.371"/><path d="M143.23 206.114c0 1.124.057 2.25-.009 3.37-.306 5.17.376 9.954 3.267 14.565 2.459 3.925 3.824 8.521 5.876 12.72 1.804 3.692 5.034 4.924 9.063 5.153 4.282.248 8.526 1.136 12.646 1.728 4.479-3.263 8.763-2.506 11.39 1.536l-.514 6.748c5.64 2.788 10.801 3.946 16.25 3.354 2.158-.234 4.48-.446 6.37-1.389 6.249-3.114 12.46-6.132 16.396-12.623 1.833-3.026 3.622-6.089 5.118-9.255 1.057-2.237 1.534-4.875 1.709-7.375.273-3.914.11-7.86.058-11.792-.029-2.136.474-4.65-.459-6.329-2.228-4.009-3.23-8.934-7.729-11.62h-8.133c-1.413-2.261-4.166-4.131-2.331-7.733.339-.665-1.009-2.175-1.55-3.308-.26-.545-.656-1.123-.65-1.682.09-8.842-5.336-13.666-12.508-17.174-3.595-1.759-7.414-2.897-11.451-2.683-6.41.34-13.144-.223-19.125 1.608-6.78 2.075-13.144 6.076-15.925 13.532-2.065 5.539-3.069 11.266-3.071 17.188 0 1.348-.417 2.696-.641 4.044m151.559-16.176c-.787 1.348-1.696 2.641-2.338 4.054-2.678 5.899-5.867 11.663-5.101 18.531.161 1.443.138 2.929.005 4.377-.862 9.402 2.636 17.613 6.235 26.035 2.492 5.83 5.816 10.634 10.681 14.354 4.048 3.098 8.226 6.319 12.861 8.247 2.834 1.178 6.686.299 9.996-.209 1.891-.29 3.573-1.784 5.431-2.534.659-.266 1.56.07 2.319.129.857 6.912-1.775 9.529-8.399 10.035-7.76.592-14.708-1.315-21.211-5.211-1.884-1.129-3.55-2.732-5.055-4.36-3.026-3.271-6.227-6.476-8.687-10.151-2.095-3.137-3.253-6.896-4.827-10.378m264.025-68.086c-1.896-4.495-6.39-6.238-9.84-9.022-2.839-2.291-6.187-3.974-9.396-5.765-1.086-.605-2.438-.785-3.688-1.039-2.462-.499-4.925-1.086-7.417-1.313-2.448-.225-5.271.696-7.33-.229-2.88-1.294-5.818-1.707-8.471-1.028-5.508 1.412-11.134.477-16.515 1.417-4.646.812-9.879 1.015-13.766 3.958-3.688 2.798-6.662 6.569-9.838 10.015-1.085 1.177-1.828 2.669-2.727 4.018m-95.492 77.184c-.887 1.32-4.47 1.965-5.073 2.862-5.999 1.028-11.314 1.938-17.333 2.971l4.669 6.978c1.212 0 2.575-.104 3.916.019 4.875.45 9.383-.62 13.104-3.776 3.019-2.562 5.448-5.829 8.527-8.304 3.202-2.568 4.804-6.119 6.208-9.562a39.25 39.25 0 0 0 2.901-16.125c-.26-8.531-.068-17.075-.068-26.064l-3.371-2.583-4.381 1.011-1.349-2.697m378.85-16.185c-.225 1.236-.638 2.471-.645 3.708-.055 9.55-.129 19.101.004 28.649.093 6.789-1.037 13.332-2.59 19.919-.791 3.354-.178 6.97-1.408 10.444-1.671 4.717-2.604 9.688-4.195 14.438-.836 2.493-2.398 4.742-3.638 7.104m-403.451-74.825c1.236.337 2.456.761 3.711.99 1.832.335 3.808-.612 5.478 1.292.868.991 6.284-.999 7.272-2.652 1.019-1.705 1.037-3.417-.201-5.411-2.609-4.203-6.103-6.407-10.749-8.324-5.473-2.257-10.702-1.142-15.961-1.177-2.852-.02-5.721 2.23-8.88 3.584.358 4.668 2.563 8.02 5.405 11.361h13.588"/><path d="M215.359 195.329c1.573 2.471 2.799 5.275 4.786 7.351 5.218 5.448 6.392 12.209 5.139 18.904-1.907 10.184-7.408 18.182-16.909 23.461-4.107 2.282-7.916 4.112-12.559 3.49-2.061-.277-4.05-1.078-6.074-1.637-1.234-.344-2.471-.678-3.707-1.015m191.671-56.284c-1.244-1.457-1.636-3.19-2.231-4.986-1.05-3.169-3.343-5.939-5.195-8.825-1.97-3.067-3.996-6.1-6.064-9.102-2.906-4.22-6.933-6.794-11.767-8.493-5.902-2.074-12.046-1.846-17.851-1.042-6.175.854-12.84 1.163-18.207 5.186-1.312.984-2.275 2.434-3.398 3.67m431.089 93.024c-3.306 9-7.932 17.218-14.5 24.261-3.271 3.507-7.627 4.546-12.028 6.028-3.056 1.024-6.673-.33-9.255 2.351-.379.396-1.517.055-2.303.055-4.157 0-8.315-.055-12.471.03-1.354.028-2.697.419-4.045.646M312.655 166.68c-5.615 4.122-8.412 10.634-12.328 15.167-3.29 0-5.789.23-8.226-.057-3.271-.384-4.41 1.098-5.38 4.781-.347 1.316-.242 2.781-.73 4.025-3.284 8.355-2.375 17.138-1.715 25.609.497 6.379 2.712 12.824 6.133 18.559m89.32-41.12c.225 1.124.635 2.246.644 3.371.059 7.302.052 14.605.02 21.908-.013 2.797-.394 5.391-1.379 8.193-.996 2.833-2.178 5.722-2.941 8.673-.853 3.299-2.64 5.854-5.082 8.103-.402.37-.475 1.1-.699 1.659m184.816-77.523c1.461 2.921 2.714 5.971 4.429 8.734 2.854 4.603 4.224 9.67 5.346 14.859m181.053-46.85c-5.003-8.036-10.839-16.277-19.38-21.066M174.239 243.864c0 1.123-.053 2.251.031 3.368.026.352.418.677.954 1.479-1.195.438-2.289 1.197-3.341 1.146-2.946-.148-5.896.664-8.874-1.1-1.4-.828-4.81-.512-6.832-.287m589.759-103.699c1.573 4.157 3.416 8.616 4.846 12.823.671 1.974 1.539 3.434 3.574 3.814 5.744-3.97 6.22-6.621 3.767-13.25m-614.05 89.977c1.46 1.688 3.714 4.091 5.238 5.717 1.644 1.757 4.129 4.79 6.867 4.625m324.105-104.38c-2.584 1.46-11.272 4.883-13.793 6.447-.626.389-.925 1.306-1.374 1.979M346.75 251.25c-1.348.899-6.119 3.175-7.468 4.074m157.854-99.767c-2.135.899-4.248 1.852-6.407 2.686-5.125 1.976-6.51 7.646-2.675 11.452 2.146 2.126 4.282 4.363 6.788 5.985 1.809 1.168 4.216 1.404 5.367 1.755 3.417-.399 6.307.002 8.284-1.155 2.459-1.441 4.796-1.207 7.176-1.081 1.71.09 3.616.688 5.011 1.665 2.863 2.008 5.249 4.735 8.204 6.564 2.142 1.324 4.835 1.908 7.364 2.39 1.951.372 4.03.074 6.053.074 4.568-4.021 4.968-10.727 1.031-15.521-1.58-1.924-2.708-4.264-4.458-5.994-2.475-2.447-5.05-5.129-9.042-4.754-2.832.266-5.791-.871-8.514 1.216-.795.609-2.685.117-3.946-.27-3.633-1.112-7.308-2.194-10.767-3.734-3.007-1.337-6.036-1.257-9.136-1.277"/></g><path fill="none" stroke="#000" stroke-width=".75" stroke-linecap="round" stroke-linejoin="round" d="M169.833 187.5c4.5 1 9.792 3.031 14.146 2.099s7.854-.766 10.854-2.099 4.166-6.5 4.333-8.167-4.667-5.165-5.5-6.249-4.829-3.584-9.165-2.751-8.335-.667-11.668 1.833-7.5 4.333-7 7.167 1 3.667 1.667 5.333 2.333 2.834 2.333 2.834z"/><path fill="none" stroke="#000" stroke-linecap="round" stroke-linejoin="round" d="M170.333 184.182c1-2.5.25-4.841.25-4.841l1.625-3.337 3.292-1.67V177l-.914 3.002.513 4.144 2.738-2.812 1.798-5 2.016-3.249.823 2.416-1.144 4.502s-.998 3.623-1.332 4.144-1.333 1.933-1.333 1.933l1.5 1.588 2.315-2.333 2.094-6.333 1.461-4.833 1.797-1.083L189 175.5l-.833 3.333s-2.428 1.333-2.13 2.5-.703 3.71-.703 3.71l-.758 1.456H188l1.5-2.5v-5l1-1.958V174l2 3.042V180s-.583.86-.917 1.847c-.334.987 1.292 3.487 1.292 3.487"/><g id="Layer_5" fill="none" stroke="#000" stroke-linecap="round" stroke-linejoin="round"><path stroke-width=".75" d="M343.016 198.75C338 197.5 331 194.307 328 196.778c-3 2.471-5.725 4.972-6.362 6.222-.637 1.25-3.388 8.5 2.612 12s10.916 3.75 14.833 3.5 5.938.5 8.802-1.25 5.615-6.51 6.115-8.38 3-4.87 0-7.37-10.984-2.75-10.984-2.75z"/><path d="M325.242 212.234c.75-1.984-.371-3.423-.121-4.891s.939-3.03 2.189-4.78 2.22-1.338 3.22-1.81.485.013-.015 1.513.743-.975-1.007 2.759-1.718 5.447-1.486 6.963c.232 1.516-2.77 1.014.23 1.514s2.499 2.749 2.999.499 1-4.51 1.75-5.13 1.876-2.837 2.188-3.854-2.812-4.073 0-4.295c2.812-.222 4.718-1.222 4.718-1.222s2.156 1 0 3.25-4.529 2.431-4.718 4.84L335 210s.377.75.188 3.25-2.261 2.249-1.188 3.75 4.166 1.75 5.083 0 .833-2.75 0-3.75-.583.5-.833-1-1.844-3.01-.297-3.38 1.109-.935 1.953-1.652c.844-.717 1.094-.935 1.844-2.201s-1.5-2.017 0-2.267 3.949-1.75 3.6-.75.034 3.017.034 3.017l-3.141 6.967 1.258 2.516v1.5l4.385-4.016s-1.885-2.744-1.135-3.114 1.135-2.116 1.135-2.116l1.365-1.738"/></g><g id="Layer_6" fill="none" stroke="#000" stroke-linecap="round" stroke-linejoin="round"><path d="M341 170.781c-2.25.219-5.5-2.719-7.25 0s-3 3.803-1.75 6.261 3.584 3.456 5.167 4.805c1.583 1.349 2.865.57 5.849-.513s2.734-1.75 3.734-4.292 1.5-2.123 0-3.958-5.75-2.303-5.75-2.303z"/><path d="M336.917 170.988c-.667 1.47-1.665-.465-1.854 2.2s.251 2.947.062 3.905-.377 2.252.031 2.934c.408.682 1.411 1.739 1.994-.013s-.575-1.175.008-2.967.243-3.918.79-3.753c.547.165 1.957.205 1.957.205H341s.5 2.461 0 2.48-1.56-2.396-1.405 1.062c.155 3.458-1.095 4.208.155 3.458s3.282-.297 3.266-2.023-.266-.476-.016-1.726.004-2.68 1.25-3.666l1.246-.985-4.496-1.318"/></g><g id="Layer_8" fill="none" stroke="#000"><path d="M503.54 161.624c-6.54-.874-8.04-1.624-9.79 1.126s-1.25 2.229 0 5.615.25 4.804 3.25 4.72 3.08 1.084 6.54 0 3.21-1.096 4.46-3.465 4.46-1.929 0-4.962l-4.46-3.034z"/><path d="M497.5 161.624c-1.25 2.376-1.75 1.87-2.75 4.305-1 2.435.582 1.09 0 2.436-.582 1.346.66 2.874 1.205 1.254s-.205-2.679 1.545-3.649c1.75-.97 3-1.312 3-1.312s.158-1.157.954-1.157.546-1.5.796 0 1.158 1.873-.796 3.687-1.364 1.947-2.909 3.13-.045-.505.955.464c1 .969 2.107.781 3.179 0 1.072-.781 2.071-.801 2.071-2.416 0-1.615-.75-3.708 1.25-3.708s-.5 1.216 0 2.529m25.75 0c-2.25-.687-6.75-1.257-6.75-1.257s-1.75.8-2.25 2.436 0 3.554 0 4.72.75 1.847 1.75 3.006c1 1.159 5 2.386 5 2.386l6.5 1.348s2-.121 3-1.348 2-4.928 2-4.928l-3-3.929-2.75-1.254-3.5-1.18z"/><path d="m528.5 168.19-2.521 1.521-1.479 1.07V174l2.188-.916 2.187-2.028 2.889-1.556h.736v1.5l-.736 2.084-3.264 3.007 1.75.951 2.25-2.292 2.25-5.131 2 1.82-1 2.109-3 3.494 1.125 1.435 2.625-1.435V176l2.25-3.123"/></g><g id="Layer_10" fill="none" stroke="#000"><path d="M514.287 190.273c-2.469-.869-9.457-.075-10.747-.674s.907-.803-2.941.674-7.861 4.727-7.979 7.477 2.13 10.25 3.63 12.25 11.25 2.468 15.5 1.984 11.5-.263 12.75-3.124 1.25-5.86 0-10.86-9.196-7.369-10.213-7.727z"/><path d="M512.759 191.621c-.759.879 3.13 3.109 3.188 4.244C516.001 197 520 199.5 520 199.5s1 1.75 0 4-3.447 4.09-3.447 4.09-.914-.557-.605-1.574c.306-1.017.605-4.267.605-4.267s2.053-2.5 0-3.25-4.035-1.52-3.794-2.635c.241-1.115-2.696-.635-2.478 0 .218.635 2.483 1.885 2.478 3.635s.009 6.436 0 7.718-2.489 1.643-2.489 1.643.271.325 0-1.643c-.27-1.968 1.271-8.218 0-8.718-1.27-.5-2.94-7.008-3.479-6.879s-2.958.916-3.248 2.022.96.837 1.46 2.222 2.826 3.385 1.788 4.385-1.788 3.533-1.288 5.767 4.5 1.494 2.5 2.864-6.546-.02-6.546-.02-.796-1.44 0-2.775 2.086-3.835 2.086-3.835-1.132-1.099-2.086-2.299-3.704-2.22-2.454-4.085c1.25-1.865 1.599-5.592 1.599-5.592"/></g><g id="Layer_12" fill="none" stroke="#000" stroke-linecap="round" stroke-linejoin="round"><path stroke-width=".75" d="M682.064 142.5c-2.814-1-6.564-1.25-9.064 0s-5.5 1.75-5.25 4.5-.5 4.43 1.5 6.09c2 1.66 5 1.66 6.75 1.41s5.129-1.25 6.064-2.75c.935-1.5 3.186-6.707 2.436-6.979s-2.436-2.271-2.436-2.271z"/><path stroke-width=".75" d="M679.706 144.771c.544 1.479 2.294 2.252 1.294 3.365-1 1.113 1.162 2.613-1.294 3.363s-1.956 2-2.456.75.25-3.477 0-4.113c-.25-.636.398-3.094-.176-3.365S672.5 140.75 673 142.5s-2.086 3-.043 3.25 1.543.773 1.293 2.387c-.25 1.614-1.5-.387-.25 1.613s4.398 1.821 2.193 3.34-5.039 1.05-5.222.981c-.18-.069-.272-2.321 0-3.071.275-.75-3.975-2.021-2.225-2.885 1.75-.864 2-3.343 2-3.343s-2 1.479-.25 2.479.5 3.75 1.75 4m40.504-6.48c1-.271 1.812-4.568 4.031-4.045s5.969.331 6.969.927c1 .596 2.611 2.596 2.806 4.096.195 1.5 4.444 6.49 2.694 8.87s-3 6.13-5.25 5.13-8.059-3.76-8.904-5.13c-.845-1.37-2.846-3.021-2.346-4.321.5-1.3 0-5.527 0-5.527z"/><path d="M716.93 142.037c2.058-1.013 5.852 1.463 5.852 1.463s-1.259.543-2.999 1.271c-1.742.728-4.319.479-4.665 2.229-.349 1.75-.009 3.299-.009 3.299l4.646-4.253 4.497-1.275s4.61 2.002 2.305 3.365c-2.305 1.363-3.852 0-3.852 0s-7.609 3.423-7.609 4.953c0 1.53-.283 2.546 1.688 1.103 1.969-1.443 1.719.737 3.219-1.103 1.5-1.84 3-3.991 3.75-2.791.75 1.2 2.806 0 2.806 0l.646 2.791-2.451 1.103-6.5.427 2.821 1.88H723l4.202-1.88-2.452 3.63"/></g><g id="Layer_14" fill="none" stroke="#000" stroke-linecap="round" stroke-linejoin="round"><path d="M677.75 193c1.5-1.25 3.801-7.25 6.9-7.5s17.85-1.5 19.6 0 10.416 11.901 10.708 14.451c.292 2.55 1.983 15.799.138 19.299-1.845 3.5-5.912 11.268-12.129 13.009S693.25 234 688 231s-8-8.75-10.25-11.5-3.371-8.5-2.936-11.5c.435-3-1.938-10 0-11.5 1.936-1.5 2.936-3.5 2.936-3.5z"/><path d="M679.706 196c2.544-1.5 8.544-3.258 11.794-4.379s9.184-2.129 11.467 0 5.533 4.879 5.783 6.129 1.023 6.4-1.238 4.825c-2.261-1.575-6.401-4.075-7.583-4.575-1.179-.5-4.882-3.254-7.527-1.377-2.648 1.877-11.986 3.028-12.692 3.328-.706.3-2.794 3.549 0 5.049s7.044.75 8.294 0 3.717-3.1 7.483-2.425c3.766.675 4.447-.825 7.48 1.175s10.125-.33 9.704 2.335-.421 6.665-2.921 6.915-3-3.037-4.25-3.894-4.5-3.687-6.5-3.021-5.203.415-6.604 1.415c-1.396 1-7.348.963-7.745 1.606-.4.643-4.738.894-4.944 2.644s-1.794 3.75 0 5.5 5.095 1.75 4.944 0c-.151-1.75-2.853-3.5 0-4.25 2.85-.75 11.299-4 11.571-2.75.275 1.25 5.459 1.5 6.742 2.75s7.033 2.702 7.783 3.226 1 2.024-.5 3.524-5.5 0-5.5 0-.646-.75-4.821-2.25-8.968-3.048-10.447-1.274-4.181 2.638-4.828 5.081c-.65 2.443-.9 2.443 1.1 2.693s.461-4.136 3.729-2.693c3.271 1.443 10.448 1.193 10.448 1.193s4.821.521 6.571 1.51.184 4.24-3.533 3.49-6.729-1-7.973-1.75-4.783-1.5-5.517-.25c-.729 1.25-2.479 3.25 1.521 4s6.604.5 8.929 0"/></g><path fill="#BBB" stroke="#BBB" d="m122.5 196.5 19 3m10-62 33.074 41.502M216.5 141.5l-15 22m30 81-38-18m170-92-19.25 38.584"/></g><g id="labels" font-family="'Helvetica'" font-size="10"><text transform="translate(93.5 198.5)">porex</text><text transform="translate(236.5 248.5)">vacuole</text><text transform="translate(131.5 133.5)">nucleus</text><text transform="translate(203.5 137.5)">cell wall</text><text transform="translate(335.5 130.5)">generative cell</text><text transform="translate(129.5 339.5)">Uninucleate Microphore</text><text transform="translate(299.5 340.5)">Bicellular Pollen</text><text transform="translate(471.5 340.5)">Tricellular Pollen</text><text transform="translate(655.5 340.5)">Mature Pollen Grain</text></g></svg>