<svg xmlns="http://www.w3.org/2000/svg" xml:space="preserve" id="TissueSpecificTrichomes_svg" x="0" y="0" version="1.1" viewBox="60 160 744.5 202" author="Provart Lab - Bio Analytic Resource, University of Toronto">
  <g id="labels" font-family="Helvetica" font-size="10" transform="translate(-10 -20)">
    <text id="text2" transform="translate(99 355)">Col-0</text>
    <text id="text4" transform="translate(76 367)">Processed Leaf</text>
    <text id="text6" transform="translate(73 379)">(minu trichomes)</text>
    <text id="text8" transform="translate(283 360)">Col-0</text>
    <text id="text10" transform="translate(461 360)">gl3-sst</text>
    <text id="text12" transform="translate(605 360)">gl3-sst sim</text>
    <text id="text14" transform="translate(758 360)">gl3-sst nok</text>
  </g>
  <g id="samples" fill="#fff" transform="translate(-10 -20)">
    <g id="WT_Col-0_leaves_after_trichome_removal">
      <path id="path17" d="M173 196c-2-2-5-2-6 0h-1a4 4 0 0 0-2 0h-1l-3 1c-7 2-14 2-21 5-6 3-11 9-16 13-1 2-3 3-3 5a27 27 0 0 0-1 4c-6 7-9 16-14 24l-1 4-3 4v2h-1l-5 7a1 1 0 0 0-1 1h-1l-3 3-1 3a2 2 0 0 0-1 0l-2 2 1 1v2l2-1 2-1 1-1a3 3 0 0 0 1-1 23 23 0 0 0 4-4l3-3 5-4h1l3-2 2-1c2 1 4 0 6-2l12-4h1l6-1a8 8 0 0 0 2-2 41 41 0 0 1 5-2c3 0 4-2 5-4a54 54 0 0 0 23-35h1l1-6a5 5 0 0 0 0-1c2-2 1-5 0-6z"/>
    </g>
    <g id="WT_Col-0_trichomes">
      <path id="path20" d="M365 229h-1l-2 1h-2l-3 1h-2l-4 1-33 12a4 4 0 0 0-2 0l-4 2a5 5 0 0 0 0-1l-4 1 1-1-1 1v-1a4 4 0 0 0-1-1 87 87 0 0 0 2-19l1-1v-5c2-6 4-11 4-17a3 3 0 0 0 0-1c2-4 3-7 3-11a3 3 0 0 0 0-1l1-1 1-4-1-3-2 2-2 1a2 2 0 0 0-1 1v3l-1 2a21 21 0 0 1 0 2 2 2 0 0 0-1 1 86 86 0 0 0-5 15l-4 19a4 4 0 0 0-1 1 2 2 0 0 0 0 1l-2 4-1 2v6a5 5 0 0 0-2 2 27 27 0 0 0 0 3 7 7 0 0 0-1 1l-17-5a4 4 0 0 0-1-1l-8-4-2-1h-2l-1-1c0-1-1-2-3-1a24 24 0 0 1-2 0h-1l-4-1-3 1h-7l-18 1-2 2h-4a3 3 0 0 0-1 0c-2 0-2 4 0 4l2-1 4-1 1 1 18-1h8a4 4 0 0 0 2 1h1l2 1a4 4 0 0 0 2 0 4 4 0 0 0 2 2c10 4 19 9 30 12l2 2 1 4v6a13 13 0 0 1-1 1v4c-3 8-10 13-17 15a15 15 0 0 1-3 0c-2 0-3 1-3 2l-2 1c-1 1-2 2-1 3l2 3h2a4 4 0 0 0 2 0 58 58 0 0 0 7-2h1l1 2-2 9c0 2 1 2 2 2l2-1 3-3h1a27 27 0 0 0 2-2l2 2v1a32 32 0 0 0 0 8v6c0 2 2 2 3 1h6c1 0 2-1 1-2a26 26 0 0 0 0-3v-2l2 1c5 1 8-1 10-5v-1c4 0 8 1 11-2v-2l-4-4a4 4 0 0 0 1-2l-1-3c1-3-1-6-5-5v-1h-1l-2-1a4 4 0 0 0-1-2 7 7 0 0 1-2-1l-2-7-1-3v-12a4 4 0 0 0 0-1v-2l1-2a469 469 0 0 0 5-2v-1a221 221 0 0 1 5-2c6-1 11-4 16-7a61 61 0 0 0 3-1 3 3 0 0 0 1-1 339 339 0 0 0 9-3h2c4-2 9-3 14-7v-1h1a1 1 0 0 0 0-1 1 1 0 0 0 1 0v-2z"/>
    </g>
    <g id="gl3-sst_mutant_trichomes">
      <path id="path23" d="m521 240-1-1h-3a39 39 0 0 0-6 3 2 2 0 0 0-1 0 2 2 0 0 0-1 0l-4 1a9 9 0 0 0-1-2v-1l1-4v-7a1 1 0 0 0 0-1v-1c1-1-2-2-3 0l-2 5-1 1-5 6a9 9 0 0 0-4 4l-2 3a13 13 0 0 0-4 2 53 53 0 0 1-4 0l-3-1-7-3c-4-4-10-11-11-17 0-4-6-4-6 0-1 1-2 2-1 4s1 6-1 7h-3c-3-2-5-5-7-9l-2-2c0-1-2-3-3-1l-4 7-3 4-5 2a3 3 0 0 0-1 0l-1-1c-1-1-4 0-3 2l1 1-1 1 2 5c2 5 7 8 11 11l-2 1-3 1c-3 2 0 7 4 5a17 17 0 0 1 3-1h10l12 3c6 4 10 11 14 17-1 1-2 3 0 5h1c0 2 1 3 4 3 6-1 13-2 19-5 4-1 7-1 10-3 2-1 2-5-1-5l-2-1-5-4a24 24 0 0 0 0-2 3 3 0 0 0-1-3v-2l1-2a8 8 0 0 0 2-2l5-7h1a116 116 0 0 1 13-9v-1l1-1 1-1a65 65 0 0 1 2-1c2-1 1-3 0-3z"/>
    </g>
    <g id="gl3-sst_sim_double_mutant_trichomes">
      <path id="path26" d="M687 280a8 8 0 0 0-2 0h-1a25 25 0 0 1-3-2l-5-2v-3c1-6 0-11-3-17a9 9 0 0 0-2-4c0-2-1-4-3-5h-3c1 0 0 0 0 0a29 29 0 0 1-3 2 1 1 0 0 0-1 0l-5-5a6 6 0 0 0-2-1 6 6 0 0 0-2-1l2-5 3-3v-1l1-3a1 1 0 0 0 0-1h-1a7 7 0 0 0-1 1l-3 1-3 3-2 2c-1-3-3-5-5-5l3-4 3-7v-3c2-1 2-3 2-5l4-7-1-4 3-5c0-2-3-4-4-1l-2 4-3 2a114 114 0 0 0-1 3 4 4 0 0 0-2 2l-3 5a7 7 0 0 0-3 1l-3-6-7-4-2-1v-1c-1-3-5-1-4 1l3 18-1 1v6a6 6 0 0 0-1-1l-1 1-3-6c-2-2-2-5-3-8a67 67 0 0 0-14-21l-2-3c-1-1-1-2-2-1l-1-2c-1-2-5 0-3 3l10 16 5 8v1l1 1v1c3 6 4 13 4 19l-1 1-2-3-1-1c-1-2-4-1-4 1l-1 7-2 5c-5-8-9-17-17-23-2-2-5 1-3 2v2c4 7 8 14 9 22l-1 2v1c-1-1-4-1-4 2 0 2 1 3 3 4-4 0-8 0-11 2-1 1-2 2-1 3l2 2 6 8-1 1a50 50 0 0 0-2 3 19 19 0 0 0-1 1l-6 3-3 2h-1c-4-1-8 3-8 8 0 4 4 7 8 8l8-2c6 5 12 4 20 4 4-1 3 0 6 2 4 3 8 4 13 5 9 1 16-3 24-5h11l14 1c4-1 7-3 8-7l7 1h2c10 0 11-15 1-16z"/>
    </g>
    <g id="gl3-sst_nok-1_double_mutant_trichomes">
      <path id="path29" d="m809 281-16-5a3 3 0 0 0 0-1l-4-3v-3a18 18 0 0 0 6-6l2-7 3-7a28 28 0 0 0 0-8l1-4-1-7-2-5v-1c-1-5-5-9-9-12a16 16 0 0 0-2-1c-3-3-6-5-11-5s-10 3-13 7a18 18 0 0 0-4 8 23 23 0 0 0-2 5 24 24 0 0 0 0 14v6l2 7a31 31 0 0 0 1 4 13 13 0 0 0 2 2l1 3c2 4 4 5 7 8l4 1 2 1 1 1 2 3v1l-1 1-4 4-5 5c-1 1-1 3 1 4 0 2 2 3 3 2l9-4c5-2 11 0 17-1 4 0 8 0 11-2 2-2 1-5-1-5z"/>
    </g>
  </g>
  <g id="outlines" transform="translate(-10 -20)">
    <g id="g127" fill="none" stroke="#000" stroke-linecap="round" stroke-linejoin="round" stroke-miterlimit="10" stroke-width=".8">
      <path id="path33" d="M318 181c-5 3-5 6-7 11-6 16-9 33-14 49-2 6-2 7-9 5-5-1-8-4-12-6-7-4-14-7-22-6-11 1-22-1-33 3-1 0-4 0-4 3"/>
      <path id="path35" d="M806 279c-5-1-10-1-14-4-3-2-5-4-1-8 6-6 8-14 10-22 1-7 0-15-3-22s-9-12-16-14c-8-3-14-2-18 4-4 7-9 12-8 20l2 19c2 9 8 15 16 19 6 3 6 5 1 10-3 2-6 5-7 9"/>
      <path id="path37" d="M318 182c3 3 0 6-1 8-4 15-7 30-8 45 0 3-3 7-1 10 4 2 7 0 10-1l41-14 8-1"/>
      <path id="path39" d="M246 293c4-1 9-2 14-5 2-2 5-2 8-2 5 2 10 0 15-2 3-1 6-3 7-7l4-14c0-5-2-9-8-10-8-2-15-5-22-9-6-4-13-4-19-5-12-1-16 0-28 1"/>
      <path id="path41" d="M83 283c1-1-1-4 2-5 7-2 11-7 16-12 8-7 17-9 26-11 16-5 28-14 37-27 6-9 9-19 10-29 0-3-1-5-5-4-10 2-20 3-30 8-9 4-16 10-20 18l-17 33c-2 6-6 10-11 14-2 3-5 5-5 9"/>
      <path id="path43" d="M367 229c-8 9-12 8-23 13l-31 12c-4 2-6 5-6 10v5c0 13 4 18 18 23 6 2 13 2 18 7"/>
      <path id="path45" d="M487 247c6 2 10-2 15-4 5 0 9-2 14-4 2 0 5-1 7 1-4 6-10 8-15 13-5 4-10 8-12 15-2 4-1 7 2 8 8 5 17 7 26 5"/>
      <path id="path47" d="M631 268c-1-8 2-19 7-28 5-10 4-21-1-31-2-6-9-6-13-11-3 6 1 10 1 16v15l-4 16"/>
      <path id="path49" d="M625 226c-4-3-5-7-7-11-3-8-9-15-13-23l-10-8c-2 3 0 5 1 7 6 10 14 20 17 31 2 4 1 10 1 13"/>
      <path id="path51" d="m602 253-11-4c-3 2-2 5-1 7 4 3 8 7 13 8l6 3c5 3 8 1 9-4 4-13 0-24-10-34 0 12-8 22-6 34"/>
      <path id="path53" d="M463 230c-1 2-2 3-4 0-1-2 2-5-2-6-2 0-3 3-4 4l-1 5c0 1 1 4-1 5-8-1-9-9-13-13-6 3-6 13-14 14l-4-1c-2 6 1 10 5 14 3 3 7 4 8 8"/>
      <path id="path55" d="M655 193c1 2 2 4 1 6-4 9-6 20-11 29-1 1-2 3-4 3"/>
      <path id="path57" d="M660 279c-5 0-9 0-12-4-5-7-5-12 4-18 5-4 8-9 15-11 6 6 10 14 9 23-1 7 2 12 9 14"/>
      <path id="path59" d="M431 258c-5 3-5 3-4 7 23-4 38 4 43 22"/>
      <path id="path61" d="M604 247c-5-11-12-24-18-27-3 2-2 4-1 6l6 12c1 3 3 7 1 11"/>
      <path id="path63" d="m594 276-5 4c-1 1-4 2-3 4 1 3 4 4 7 4l10-4"/>
      <path id="path65" d="M462 232v1c8 13 8 13 23 16 7-7 13-15 18-24 6 6 1 12 2 17"/>
      <path id="path67" d="M291 301c2 3 0 6 0 8 0 10 2 12 11 10-1-7 1-15-2-22"/>
      <path id="path69" d="M600 265c-3 6 1 8 5 10 6 3 10 7 11 14l2 4c4 4 2 8 0 13"/>
      <path id="path71" d="M270 288c0 2-5 3-3 6s6 3 9 2c2-1 4-2 7-1"/>
      <path id="path73" d="M592 257c-4 1-11-4-14 3l11 12c-6 7-16 7-23 12"/>
      <path id="path75" d="M665 247c3 8 4 18 5 26 0 3-4 6-1 10l8 13c3-4 6-8 11-8"/>
      <path id="path77" d="m471 289-2-2c-3 7-10 9-17 11"/>
      <path id="path79" d="M654 194c-5 6-9 14-15 19"/>
      <path id="path81" d="m644 267-6 4 2 8c1 4 3 7 8 6l3 1"/>
      <path id="path83" d="M654 289c-9 0-10 1-10 11"/>
      <path id="path85" d="m698 285-8-4c-3-2-8-3-11-2"/>
      <path id="path87" d="M148 222c-7 5-15 8-21 15l-15 14"/>
      <path id="path89" d="M583 282c0 2-3 2-4 4 0 2-3 3-1 6l5 2 22-1"/>
      <path id="path91" d="M321 292v8a7774 7774 0 0 0 5 3c-2 6-7 3-11 5"/>
      <path id="path93" d="m667 296-3-4c0-4-3-5-6-4-5 0-2 5-2 8"/>
      <path id="path95" d="M654 254c-5-3-12-2-17 0"/>
      <path id="path97" d="M307 293c3 2 2 6 4 8 3 2 4 6 3 8-3 3-6 6-11 4"/>
      <path id="path99" d="M642 283c-4 5-12 5-15 10"/>
      <path id="path101" d="M639 269c-2-3-7-2-9-1-3 1-3 3-3 6v6"/>
      <path id="path103" d="M652 242c1-5 7-8 7-14-13 8-13 9-10 15"/>
      <path id="path105" d="M618 268c3 7 9 15 13 21"/>
      <path id="path107" d="M287 290c-6 5-5 11-8 18 7-1 13-8 13-13"/>
      <path id="path109" d="M669 269c-6 3-8 10-10 16"/>
      <path id="path111" d="M633 252c6 2 8 8 11 12"/>
      <path id="path113" d="M635 288c3 3 0 9 1 12"/>
      <path id="path115" d="m598 294 4 9"/>
      <path id="path117" d="M661 249c-9-9-9-9-17-1"/>
      <path id="path119" d="M594 260v3c-3 4-2 8-1 12"/>
      <path id="path121" d="M313 293c1 3 5 3 7 6"/>
      <path id="path123" d="M655 296c4 2 6 7 11 3"/>
      <path id="path125" d="M598 276c-3-1-6 0-9-2"/>
    </g>
  </g>
</svg>