<svg xmlns="http://www.w3.org/2000/svg" xml:space="preserve" id="TissueSpecificGuardAndMesophyllCells_svg" x="0" y="0" version="1.1" viewBox="0 55 817.8 338.5" author="Provart Lab - Bio Analytic Resource, University of Toronto">
  <g id="Samples" transform="translate(-39 -30)">
    <g id="Mesophyll_cells_with_100_uM_ABA" fill="#fff">
      <path id="path2" d="M286 343v-1c0 1 0 1 0 0z"/>
      <path id="path4" d="M407 361v-3h-1c1-3 2-6 1-7-2-1 0 1-2 1h-3l-1 3-2 1c-3 3-5 4-2 7 0 3 3 3 7 3s4-2 3-5z"/>
      <path id="path6" d="M415 283c1-5 0-8-1-13l-1-4 1-1v-2l-2-2-1 1h-3c-4-2-8-2-12 0l-1-1h-2l-5-2c-4-1-5 0-9 2l-6-2h-1c-8-2-18 1-22-2l-21 4-1-1h1l-6-1h-2v1l-3 1c-1-2-3-3-5-3l-5 2h-8l-2-1h-1l-2 1-2 1-2 2h-4v1h-26c-9-1-17-3-25-2h-2c-6 0-13 1-18 4l-5-2c-9-3-18-4-26-2h-16c-4-2-7 0-9 2l-1 1h-7v1l-1 4-2 18c-1 2 1 4 2 5h1c-3 5-9 20 1 22 2 1 4 0 6-1l1 1h-1l-6 2v1c-7 4-1 15 6 12l2 7c1 2 0 3-1 6-3 5 1 11 7 10 0 2 2 3 3 5-1 0 0 0 0 0v4l2 3 2-1c3 2 5 1 8 0s5-4 9-4c5 0 8 1 12-2h7l2-3h8l2-1h1c-1 3 1 6 3 8l5 3c3 2 8 1 10-2h1c0 2 2 4 4 4 3 1 6 2 9 0l2-1 8 1c8 2 15 0 22-2l1 1 3 2 1-1h3c1 1 1 2 3 2s3-3 7-1l2-2h2c3 2 7 1 7-4v-1l1-1v-3l4-3 2-3 2 2 4 4v3c0 4 5 6 8 4l3-3 2-1c3-3 2-7-1-8l-1-5 1-2 2-5v-1l2-4c1-2-3-4-2-6h1l3-2 3-1 6 3c3 1 6 1 9-1 2-2 3-4 2-7 0-2-1-5-3-6l7-2h2l4-1c4 1 2 3 6 2h4c-3 0 5-2 1-3 5 1 9 2 12-1h3v2l1 1-2 5-1 1h-7v1c-3 1-6 4-7 7l-1 1-6-2c-2 0-4 2-4 4l-1 1-3 4-2-1-3-1-2-2-2-1v1c-2 0-4 2-5 4v7l3 9 1 4c-2 4-3 7-2 11l1 1c-6-1-12 2-14 9 0 3 2 5 5 6l13-1c6-1 8-6 6-11-1-2-2-2-3-2l1-1 2-5c3 0 5-3 4-6v-1c0-2-1-3-3-4v-3l-1-2v-1l1-1c0 1 0 0 0 0l4 1 6-2c2 2 7 1 7-3v-1l1-1v-2l10-1c2 0 3-1 3-3h6c3 0 4-3 4-5v-5l-1-13-1-3 3-5v-10l-1-3v-1l2-5zm-218 38c-2 3-1 5 0 7-3 6-5 12-5 19l-1-1-6 1-6 2v-3c1-4 1-8-2-11l-1-3-1-3 4-5c-1-2-2-7-9-9l6-9v5c0 2 3 4 6 3l6-3 4 2 1 1 4 1v3l1 2-1 1zm33 3-7 8v6h-1l-1 1-1 1h-1l-1 1h-4l-6-1h-1v-2l1-2c1-1 0-2-1-3 0-2 1-4 6-5 2 0 1-2 1-3h1c5-3 4-9 0-12l2 1c5 4 15-1 19 1v1l-1 1-2 5-3 2zm39 25-2 2-3 2-4 2-1-1-7 1-1 2c-4 0-8 1-9 5l-1-1c1-3-1-6-3-8l-5-3 1-2v-1c2-2 1-4 0-7l1-1 1-1 1-1 3-3 2-5 3-2c-1 1 8 0 7-1-3-2 4 2 7 1 0 2 0 4 2 6a7 7 0 0 0 7 1l1 2c-1 2-2 5-1 8l3 4-2 1zm43-3a10 10 0 0 0-5 7l-2 3h-1l-3 3-2-3c-2-3-5-3-8-3h-2l-5 1v-2l-5-2v-1l-2-1 9-6 1-2h1l5-2c3 0 4-2 5-5 2 2 5 2 7 1l1-1h1s2 1 0 0h1l4 1 1 4-2 4c-1 2 0 3 1 4zm41-31v-1c1-1 0-2-1-2a9 9 0 0 0-3 3h-11c-4 2-6 6-4 10l-5 10-2-1-1 1h-1l-3-2v-2l-6-2v-1c0-4-2-8-5-8-5-1-11 1-12 6h-1c0 1 0 2 1 1-1 3-3-3-4-1-1-1-3-2-5-1l-5 1c-1-4-5-7-9-9-3-1-7 0-10 1l-2 1-2-2v-1l-1-3 16-3c5-1 12-3 16-1l4 3h6l4-3h7v-1l1 1h-1v4c1 1 3 2 4 1h6l2-2c1 2 3 4 6 3l2-1h3l4-4h6l3 1c3 0 4 3 6 4h-3z"/>
      <path id="path8" d="M268 366v-1c-2-3-7 0-5 4 2 3 7 0 5-3z"/>
    </g>
    <g id="Mesophyll_cells_no_ABA" fill="#fff">
      <path id="path11" d="M285 185v-1c0 1 0 1 0 0z"/>
      <path id="path13" d="M406 203v-3h-1c1-3 2-6 1-7-2-2 0 1-2 1h-3l-1 3-2 1c-3 3-5 4-2 7 0 3 3 3 7 3s4-2 3-5z"/>
      <path id="path15" d="M414 125c1-5 0-8-1-13l-1-4h1v-3l-2-2-1 1h-3c-4-2-8-2-12 0l-1-1h-2l-5-2c-4-1-5 1-9 2l-6-2-1 1c-8-3-18 0-22-3l-21 4-1-1h1l-6-1h-2v1l-3 1c-1-2-3-3-5-2l-5 1h-8l-2-1h-1l-2 1v1h-2l-2 2h-4v1h-26c-9 0-17-3-25-2h-2c-6 0-13 1-18 4l-5-1c-9-3-18-5-26-3h-16c-4-2-7 0-9 2l-1 1h-7v2l-1 3-2 19c-1 1 1 3 2 4h1c-3 5-9 20 1 22 2 1 4 0 6-1l1 1h-1l-6 2v1c-7 4-1 15 6 12l2 7c1 2 0 3-1 6-3 5 1 11 7 10 0 2 2 3 3 5-1 0 0 0 0 0v4l2 3 2-1c3 2 5 1 8 0s5-4 9-4c5 0 8 1 12-2h7l2-3h8l2-1h1c-1 3 1 6 3 8l5 3c3 2 8 1 10-2h1c0 2 2 4 4 4 3 1 6 2 9 0l2-1 8 1c8 2 15 0 22-2l1 1 3 2 1-1h3c1 1 1 2 3 2s3-3 7-1l2-2h2c3 2 7 1 7-4v-1l1-1v-3l4-3 2-3 2 2 4 4v3c0 4 5 6 8 4l3-3 2-1c3-2 2-7-1-8l-1-5 1-2 2-5v-1l2-4c1-2-3-4-2-6h1l3-2h3c2-1 5 1 6 2 3 1 6 1 9-1 2-2 3-4 2-7l-3-6 7-2h2l4-1c4 1 2 3 6 2h4c-3 0 5-2 1-3 5 1 9 2 12-1h3v2l1 1-2 5-1 1h-7v1c-3 2-6 4-7 8h-1l-6-2c-2 1-4 2-4 4l-1 1-3 4-2-1-3-1-2-2-2-1v1c-2 0-4 2-5 4v8c1 2 3 5 3 8l1 4c-2 4-3 7-2 11l1 1c-6-1-12 2-14 9 0 3 2 5 5 6l13-1c6-1 8-6 6-11-1-2-2-2-3-2l1-1 2-5c3 0 5-3 4-6v-1c0-2-1-3-3-3v-4l-1-2v-1l1-1c0 1 0 1 0 0l4 1 6-2c2 2 7 1 7-3v-1l1-1v-2l10-1c2 0 3-1 3-3h6c3 0 4-3 4-5v-5l-1-13-1-3 3-5v-10l-1-3v-1l2-4zm-218 38c-2 3-1 5 0 7-3 6-5 12-5 19l-1-1-6 1-6 2v-3c1-4 1-8-2-11l-1-3-1-3 4-5c-1-2-2-7-9-9l6-9v5c0 3 3 4 6 3l6-3 4 2 1 1c1 1 3 2 4 1v3l1 2-1 1zm33 3-7 8v6l-1 1h-1l-1 1h-1l-1 1h-4l-6-1h-1v-2l1-2c1-1 0-2-1-3 0-2 1-3 6-5 2 0 1-2 1-3h1c5-3 4-9 0-12l2 2c5 3 15-2 19 0v1l-1 1-2 5-3 2zm39 25-2 2-3 2-4 2-1-1-7 1-1 2c-4 0-8 1-9 5l-1-1c1-3-1-6-3-8l-5-3 1-2v-1c2-2 1-4 0-7l1-1 1-1 1-1 3-3 2-5 3-2c-1 1 8 0 7-1-3-2 4 2 7 1 0 2 0 4 2 6a7 7 0 0 0 7 1l1 1c-1 3-2 6-1 9l3 4-2 1zm43-3a10 10 0 0 0-5 7l-2 3h-1l-3 3-2-3c-2-3-5-3-8-3h-2l-5 1v-2l-5-2v-1l-2-1 9-6 1-2h1l5-2c3 0 4-2 5-5 2 2 5 2 7 1l1-1h1s2 1 0 0h1l4 1 1 4-2 4c-1 2 0 3 1 4zm41-31v-1c1 0 0-2-1-1a9 9 0 0 0-3 2h-11c-4 2-6 6-4 10l-5 10-2-1-1 1h-1l-3-1v-3l-6-1v-2c0-4-2-8-5-8-5-1-11 1-12 6h-1c0 1 0 2 1 1-1 3-3-3-4-1-1-1-3-2-5-1l-5 1c-1-4-5-7-9-9-3-1-7 0-10 2v-1l-2 1-2-2v-1l-1-3 16-3c5-1 12-3 16-1l4 3h6l4-2 7-1h1-1v5c1 2 3 1 4 0h6l2-2c1 2 3 4 6 3l2-1h3l4-4 6 1 3 1c3-1 4 2 6 3h-3z"/>
      <path id="path17" d="M267 208c-2-4-7-1-5 3 2 3 7 0 5-3z"/>
    </g>
    <g id="Guard_cells_no_ABA" fill="#fff">
      <path id="path20" d="M534 148c-1-9-6-17-14-21l-3 1c-3-1-7-2-10 1v1c-2-1-4 1-5 3l-2 2c-1 0-2 1-2 3 0 5 6 16 13 21l1 1 1 1c6 4 11 4 15-3 1-1 0-2-1-3l3-1c1 0 3-1 3-3l1-3zm-13 5-3-2-4-7c-1-1-2-2-3-1l-1-7 2-1 1 1 4 2 1 1c2 1 3 2 3 4 2 2 4 6 4 10l1 2-5-2z"/>
      <path id="path22" d="M557 187c-1-2-4-3-6-4l-2-1-11 1-2 1c-5 2-6 5-6 10l1 2c2 6 6 7 11 8l3 1 6-1h3l2-2 2-3 1-8c1-2 0-3-2-4z"/>
      <path id="path24" d="m216 210-2-1c-2-1-4 1-7 1h-13c-4 0-6 5-5 8 1 4 4 6 8 5 4 0 6-6 10-4s11 6 16 3c8-5 1-16-7-12z"/>
      <path id="path26" d="M313 213c1-2 1-3 4-4h15l12 2 4 2-2 7s-2 3-4 3l-10-3-7 1-7 2-6-3z"/>
    </g>
    <g id="Guard_cells_with_100_uM_ABA" fill="#fff">
      <path id="path29" d="M534 306c-1-9-6-17-14-21l-3 1c-3-1-7-2-10 1v1c-2-1-4 1-5 3l-2 2c-1 0-2 1-2 3 0 5 6 16 13 21l1 1 1 1c6 4 11 4 15-3 1-1 0-2-1-3l3-1c1 0 3-1 3-3l1-3zm-13 5-3-2-4-7c-1-1-2-2-3-1l-1-7 2-1 1 1 4 2h1l3 4c2 3 4 7 4 10l1 2-5-1z"/>
      <path id="path31" d="M557 345c-1-2-4-3-6-4l-2-1c-4 0-8 0-11 2h-2c-5 2-6 6-6 10l1 2c2 6 6 7 11 8 1 1 2 2 3 1l6-1h3l2-2 2-3 1-8c1-2 0-3-2-4z"/>
      <path id="path33" d="m217 367-2 2-7-2h-12c-4 1-7 5-6 8 1 4 4 6 8 5s6-6 10-5c4 3 13 6 18 4 2-4-1-16-9-12z"/>
      <path id="path35" d="M314 370c1-2 1-3 4-4h15l12 2 4 2-2 7s-2 3-4 3l-10-3-7 1-7 2-6-3z"/>
    </g>
    <g id="Mesophyll_cells_no_ABA_no_cordycepin_nor_actinomycin">
      <path id="path38" fill="#fff" d="m706 266 1-2 1-4v-13c0-2-2-2-3 0h-3c-5 1-7-1-11-2-2-1-3 1-2 2h-2l-1-1h-7l-2-1-2 1c-2-1-2 2-1 3l1 1-1 1v1l1 10v1c-2 1-3 4-2 6l1 4 1 8c0 3 5 3 6 0 0 2 3 3 5 2l3-2 2 2h4v-1l1-2 1-2 3-1-1 3c-1 3 2 4 4 4l3-4v-2l1-3 1-2c0-2 0-6-2-7z"/>
    </g>
    <g id="Mesophyll_cells_no_ABA_cordycepin_and_actinomycin_added_during_protoplasting">
      <path id="path41" fill="#fff" d="m660 266 1-2 1-4v-13c0-2-2-2-3 0h-3c-5 1-7-1-11-2-2-1-3 1-2 2h-2l-1-1h-7l-2-1-2 1c-2-1-2 2-1 3l1 1-1 1v1l1 10v1c-2 1-3 4-2 6l1 4 1 8c0 3 5 3 6 0 0 2 3 3 5 2l3-2 2 2h4v-1l1-2 1-2 3-1-1 3c-1 3 2 4 4 4l3-4v-2l1-3 1-2c0-2 0-6-2-7z"/>
    </g>
    <g id="Mesophyll_cells_with_100uM_ABA_cordycepin_and_actinomycin_added_during_protoplasting">
      <path id="path44" fill="#fff" d="m660 319 1-2 1-4v-13c0-2-2-2-3 0h-3c-5 1-7-1-11-2-2-1-3 1-2 2h-2l-1-1h-7l-2-1-2 1c-2-1-2 2-1 2l1 2h-1v2l1 10v1c-2 1-3 4-2 6l1 3 1 8c0 4 5 4 6 1v-1c0 3 3 4 5 3l3-2 2 2h4v-1l1-2 1-2 3-1-1 3c-1 3 2 4 4 3 2 0 3-2 3-3v-2l1-3 1-2c0-2 0-6-2-7z"/>
    </g>
    <g id="Mesophyll_cells_with_100uM_ABA_no_cordycepin_nor_actinomycin">
      <path id="path47" fill="#fff" d="m707 319 1-2 1-4v-13c0-2-2-2-3 0h-3c-5 1-7-1-11-2-2-1-3 1-2 2h-2l-1-1h-7l-2-1-2 1c-2-1-2 2-1 2l1 2h-1v2l1 10v1c-2 1-3 4-2 6l1 3 1 8c0 4 5 4 6 1v-1c0 3 3 4 5 3l3-2 2 2h4v-1l1-2 1-2 3-1-1 3c-1 3 2 4 4 3 2 0 3-2 3-3v-2l1-3 1-2c0-2 0-6-2-7z"/>
    </g>
    <g id="Guard_cells_no_ABA_cordycepin_and_actinomycin_added_during_protoplasting">
      <path id="path50" fill="#fff" d="M650 163v-1c-1-2-2-2-4-2h-3c-4 0-7 0-9 2-1 1-2 2-1 3-2 1-4 4-2 6 3 6 12 19 19 13 2-1 3-3 2-5l3-1c3-6 0-12-5-15zm0 12v1h-4l-3-3-5-6c3-1 7 0 9 1l2 3 2 2-1 2z"/>
    </g>
    <g id="Guard_cells_no_ABA_no_cordycepin_nor_actinomycin">
      <path id="path53" fill="#fff" d="M698 163v-1c-1-2-2-2-4-2h-3c-4 0-7 0-9 2-1 1-2 2-1 3-2 1-4 4-2 6 3 6 12 19 19 13 2-1 3-3 2-5l3-1c3-6 0-12-5-15zm0 12v1h-4l-3-3-5-6c3-1 7 0 9 1l2 3 2 2-1 2z"/>
    </g>
    <g id="Guard_cells_with_100uM_ABA_cordycepin_and_actinomycin_added_during_protoplasting">
      <path id="path56" fill="#fff" d="M649 202v-1c-1-2-2-2-4-2h-3c-4 0-7 0-9 2-1 1-2 2-1 3-2 1-4 4-2 6 3 6 12 19 19 13 2-1 3-3 2-5l3-1c3-6 0-12-5-15zm0 12v1h-4l-3-3-5-6c3-1 7 0 9 1l2 3 2 2-1 2z"/>
    </g>
    <g id="Guard_cells_with_100uM_ABA_no_cordycepin_nor_actinomycin">
      <path id="path59" fill="#fff" d="M698 202v-1c-1-2-2-2-4-2h-3c-4 0-7 0-9 2-1 1-2 2-1 3-2 1-4 4-2 6 3 6 12 19 19 13 2-1 3-3 2-5l3-1c3-6 0-12-5-15zm0 12v1h-4l-3-3-5-6c3-1 7 0 9 1l2 3 2 2-1 2z"/>
    </g>
  </g>
  <g id="Outlines" fill="none" stroke="#000" stroke-linecap="round" stroke-linejoin="round" stroke-miterlimit="10" transform="translate(-39 -30)">
    <g id="g493">
      <path id="path63" d="m493 179-7-10c-8-3-11 1-14 6l-9-6c-2 1-5 2-5 4v11c0 3 2 6 1 9-3 6 0 10 2 15l4 4 5 1 5-4 16 11c11-5 11-7 23 0l7-4c3-4 0-11-5-13l-5-1"/>
      <path id="path65" d="m493 337-7-10c-8-3-11 2-14 7l-9-7-5 4v11c1 4 2 7 0 11v4c2 6 4 12 11 15l6-4 16 10c11-5 11-7 23 0l7-4c3-4 0-11-5-12l-5-2"/>
      <path id="path67" d="m578 126 2 7h-1c4 4 5 9 4 15-3 3-6 9-13 7-5-3-6-10-12-12l-1 1 2 8-2 3 3 8-3 3-7-4-1 6-7-3c-4-2-7-3-12-2-1 1-3-1-5-1"/>
      <path id="path69" d="m578 284 2 7-1 1c4 4 5 9 4 14-3 4-6 9-13 7-5-2-6-9-12-12l-1 1 2 8-2 3 3 8-3 3-7-4-1 6-7-2c-4-3-7-4-12-2l-5-2"/>
      <path id="path71" d="m180 208-19-2c-6 0-8 1-10 7l-2 7c2 2 7 5 9 3 5-4 10-2 15-2l16-1v-9l-8-4"/>
      <path id="path73" d="m497 110 3-9-6-4-4 5c-3 4-7 8-13 4-1-1-4 1-5 2l-3 4c-3 4-5 8-10 10-2 0-3 3-5 5 1 3 1 7 3 9 3 6 1 11 1 16l-1 4"/>
      <path id="path75" d="m497 268 3-9-6-4-4 5c-3 4-7 8-13 4l-5 2-3 4c-3 4-5 8-10 10l-5 5c1 3 1 7 3 10 3 5 1 10 1 15l-1 4"/>
      <path id="path77" d="M566 96c0 3 3 4 6 4 10-1 10 2 9 10l-4 4-1 2 4 6c-2 4-5 6-9 4s-6-9-12-6l1 10c-11 1-14-7-19-13-5-1-11-1-14-7-1-4 2-6 5-6 5 0 7-1 7-6 0-4-2-7-8-8-4-1-8-1-12 3l-4 3c-3-3-4-7-9-5-4 1-9 1-10 6"/>
      <path id="path79" d="M566 255c0 3 3 4 6 3 10-1 10 3 9 10l-4 4-1 2 4 6c-2 4-5 6-9 4-4-1-6-9-12-5l1 9c-8 1-13-3-16-9-2-3-3-4-7-4s-8-3-10-6c-1-5 3-6 6-7 4 0 7-1 6-6 0-4-2-7-7-8s-9 0-13 3l-4 4c-3-3-4-7-9-6-4 1-9 1-10 7"/>
      <path id="path81" d="m547 339-12 2c-2 1-5 3-5 5 0 4 0 8 2 11 4 8 17 9 24 4 2-1 3-3 3-5v-10c2-3 6-2 10-2 3 1 4 3 4 7l2 3c3 6 2 12-2 18-3 5-8 8-15 6l-15-3c-6 4-6 4-13-2-3 1-5 0-7-3"/>
      <path id="path83" d="m547 181-12 2c-2 1-5 3-5 5 0 4 0 8 2 11 4 7 17 9 24 4 2-1 3-3 3-5v-11c2-2 6-2 10-1 3 1 4 3 4 6l2 4c3 6 2 12-2 18-3 5-8 8-15 6l-15-3c-6 4-6 4-13-2-3 1-5 0-7-3"/>
      <path id="path85" d="m162 173-10-1-3-10c0-3 6-7 10-6l9 2c9-8 8-17 7-26v-23l1-18-10-1h-12c-3 0-5 2-6 6v4l-1 4c3 1 7 3 9 2 6-2 13-2 19-2"/>
      <path id="path87" d="m574 349 5 2c6-4 6-7-1-15 3-1 3-1 10 2 5-3 6-5 3-9s0-7 1-10c0-2 2-3 3-5-3-4-7-4-10-5h-3"/>
      <path id="path89" d="m574 191 5 1c6-3 6-6-1-15 3-1 3-1 10 3 5-4 6-5 3-9s0-7 1-10c0-2 2-3 3-5-3-4-7-5-10-5l-3-1"/>
      <path id="path91" d="M236 91h-3c-8 1-15 1-23-3-2-1-6 0-8 1-6 2-11 2-16 0-4-1-7-1-10 2"/>
      <path id="path93" d="m312 188-2-4 1-4-1-5h-12l-1-5c-6-5-13-4-18 2l5 8c2 2 6 2 9-1l5-4"/>
      <path id="path95" d="m496 296-4-2c-5 1-6 3-6 7 1 5-1 7-5 9s-5 5-4 10l3 6"/>
      <path id="path97" d="m496 138-4-2c-5 0-6 3-6 7 1 4-1 7-5 9s-5 5-4 10l3 5"/>
      <path id="path99" d="m289 149-7 2-6 1 2-24h-9l-3 2c0 8-5 7-10 7l-2 1v11c0 4-2 5-5 5l-10 2h-10l-9 1c-4-1-2-6-4-8l1-6 1-5-2-8"/>
      <path id="path101" d="M413 103c4-4 1-9 2-14h-28l-1 10c8 7 18 3 27 5l1 20c0 3-2 6-5 7s-6 3-9-1"/>
      <path id="path103" d="m661 319 2 4-4 13-5 1-2-22h-5"/>
      <path id="path105" d="m707 266 2 4-3 13-6 1-1-21h-6"/>
      <path id="path107" d="m661 266 2 4-4 13-5 1-1-21h-6"/>
      <path id="path109" d="m707 319 2 4-4 13-5 1-1-22h-6"/>
      <path id="path111" d="m405 209-5-2c-5-1-8 0-13 5l4 6-1 4-9 2c-4 0-7 1-11-1s-10-1-15 0c-3 0-6 2-9-2"/>
      <path id="path113" d="M192 104v16l-1 9-15 1"/>
      <path id="path115" d="m365 118-11 2c-1 4 0 8-2 11-2 4-2 8-2 12v11"/>
      <path id="path117" d="m400 159 2-3 9-1 1 12c0 5-3 6-8 5 0-4 2-10-4-12h-7l-5 5v7c3 7 1 12-6 14l-6 1-4-1"/>
      <path id="path119" d="m225 213 1 8c-5 2-8 3-13-1-4-3-9-1-13 1s-7 2-10-1"/>
      <path id="path121" d="M655 177c2-7-2-12-8-17l-5-1c-5 0-9 3-12 6l-1 6 2 5c12 10 12 10 17 9h9"/>
      <path id="path123" d="M704 177c2-7-2-12-8-17l-5-1c-5 0-9 3-12 6l-1 6 2 5c12 10 12 10 17 9h9"/>
      <path id="path125" d="M704 217c2-8-2-13-8-18l-5-1c-5 0-9 3-12 6l-1 6 2 5c12 10 12 10 17 9h8"/>
      <path id="path127" d="M655 217c2-8-2-13-8-18l-5-1c-5 0-9 3-12 6l-1 6 2 5c12 10 12 10 17 9h9"/>
      <path id="path129" d="M346 212c-5-4-25-5-31-2l-1 2"/>
      <path id="path131" d="m371 212-6-4c-14 0-13 1-17 4l-2 9c-3 2-7 2-10 0h-11c-4 2-8 2-12-1l-1-7h1l-3-3"/>
      <path id="path133" d="M341 104c-3-2-2-5 0-7 2-4 0-9-3-10h-4l-12 1"/>
      <path id="path135" d="M350 132c-5-3-10 0-10 5l-1 12c0 3-1 6-4 7-4 1-7 2-10-2"/>
      <path id="path137" d="m700 267 7-1c3-7 2-13 1-20l-9 1"/>
      <path id="path139" d="m654 267 7-1c3-7 2-13 1-20l-9 1"/>
      <path id="path141" d="m700 320 7-1c3-7 2-13 1-20h-9"/>
      <path id="path143" d="m530 186-6-7c-7 1-14 3-20 7l1 4 6 5"/>
      <path id="path145" d="m654 320 7-1c3-7 2-13 1-20h-9"/>
      <path id="path147" d="m530 344-6-7c-7 2-14 3-20 7l1 4 6 5"/>
      <path id="path149" d="m151 107-2 15-1 5c0 4 1 7 5 8 5 0 8-1 9-6l2-4"/>
      <path id="path151" d="M314 172v-8c-6-4-14-2-17 4"/>
      <path id="path153" d="M529 314c4-3 6-8 4-13-2-6-5-11-11-15-5-3-13-1-17 4l-8-13"/>
      <path id="path155" d="M529 155c4-2 6-7 4-12-2-6-5-12-11-15-5-3-13-2-17 4l-8-14"/>
      <path id="path157" d="M396 206c-2-3-1-5 1-7l9-8v29c-5 0-9 4-15 3"/>
      <path id="path159" d="M191 214c3-5 7-5 12-4h12c4-1 7 0 9 2 6 1 12-3 18 1"/>
      <path id="path161" d="M205 174c2-3 4-5 7-4 3 0 5-6 5-9-1-4-4-7-7-7l-7 1c1-4 2-7 1-10l-2-9c-11-1-11 5-12 12v5l-12 3c-4 0-1-4-3-6"/>
      <path id="path163" d="m321 100 7 1 1 4v20c-3 4-2 9-1 14l-2 15-13 2c3-9 2-18 6-25"/>
      <path id="path165" d="m645 248-7-3c-3 8-2 16-1 24 0 6-1 10-5 16-6-6-4-13-5-20l8-3"/>
      <path id="path167" d="m691 248-7-3c-3 8-2 16-1 24 0 6-1 10-5 16-6-6-4-13-5-20l9-3"/>
      <path id="path169" d="m645 301-7-3c-3 8-2 16-1 24 0 5-1 10-5 16-6-6-4-13-5-20l8-3"/>
      <path id="path171" d="m691 301-7-3c-3 8-2 16-1 24 0 5-1 10-5 16-6-6-4-13-5-20l9-3"/>
      <path id="path173" d="M316 102c-5-3-10 1-16 1l-5-9c1-4 4-5 8-5h19c-2 4 3 11-6 13-3 10-1 21 0 31"/>
      <path id="path175" d="M232 166c-6 2-9 5-10 11l2 3c8 3 12-2 17-6-2-4-3-8-8-8"/>
      <path id="path177" d="M233 181c2 4 1 8-1 11l-7 2-4 6c3 7 9 8 19 5"/>
      <path id="path179" d="M287 209c-8-2-16 0-24 2"/>
      <path id="path181" d="M283 200c-4 2-7 4-12 2h-5l-4 7"/>
      <path id="path183" d="M412 131c2 2 2 4 1 7-3 5-2 11-3 16"/>
      <path id="path185" d="M262 198c1-5 5-7 9-9l5 1 6 2c3 2 2 6 1 9 6 4 6 10 6 16 0 4-2 4-5 5l-34 2c-3 0-6-1-8-3v-9l5-2"/>
      <path id="path187" d="m509 158 6 3c5 3 9 2 14-5-1-1-3-3-5-3-8-3-13-8-15-17 8-2 17 7 16 17"/>
      <path id="path189" d="M320 194c-3 1-4 4-4 7 0 6-7 9-11 6"/>
      <path id="path191" d="m509 316 6 4c5 3 9 1 14-6l-5-3c-8-3-13-8-15-16 8-3 17 6 16 16"/>
      <path id="path193" d="M282 168c-3-9-8-11-20-8l-3 15 10 2 5-6 5 1"/>
      <path id="path195" d="M341 88c3-2 6-1 9 0 6 2 11 2 16 1 7-1 14 1 20 1"/>
      <path id="path197" d="m238 103-2-12c5-5 11-2 16-1l11 2"/>
      <path id="path199" d="m225 106 4 13c2 5 2 8-2 12l-2 2"/>
      <path id="path201" d="m387 100-7 3h-2l-1 21-9 3c-4 2-5 5-4 9l1 13"/>
      <path id="path203" d="m364 150-5 6h-4c-7 6-7 7-2 15l6 1"/>
      <path id="path205" d="m206 107-2 6 1 15"/>
      <path id="path207" d="M280 106h-25c-3-2-8-2-12-2-8-1-14 2-21 2-3-1-6 1-9 2l3 3 1 18h-12l-3 7"/>
      <path id="path209" d="M302 104v10l1 12v9l2 14 4 2 5-4"/>
      <path id="path211" d="M241 133v20l1 1"/>
      <path id="path213" d="M264 202c-4-6-12-7-17-3l-5 3"/>
      <path id="path215" d="M390 103c-3 2-3 4-2 7 3 4 5 9 2 14l1 2"/>
      <path id="path217" d="M242 105c1 5 0 10-1 15l1 6"/>
      <path id="path219" d="m259 167-20 2"/>
      <path id="path221" d="m386 139 1 10c-1 4-5 7-9 6-2-1-3-3-3-5l3-11"/>
      <path id="path223" d="m503 131-7 7c3 8 5 15 12 19"/>
      <path id="path225" d="m503 290-7 6c3 8 5 15 12 19"/>
      <path id="path227" d="m164 105-1 12v7c6 3 8 0 11-3"/>
      <path id="path229" d="m543 123-2 6c-2 5-7 6-11 7"/>
      <path id="path231" d="m338 190 2 4c2 3 1 5-2 10-2 3-5 2-8 1l-2-3c-1-3-3-4-5-6l-2-4-1-5c-7 0-12 2-15 8l-4 4"/>
      <path id="path233" d="m543 281-2 6c-2 5-6 6-11 7"/>
      <path id="path235" d="M161 134c1 7 0 14-4 21"/>
      <path id="path237" d="m367 209 8-12-5-5"/>
      <path id="path239" d="M224 194h-8c-3-1-6 1-7 5l-1 1-7-2c-3 5-7 7-13 4l-7-1-1 6"/>
      <path id="path241" d="M192 190c-1-3-2-7-1-10 4-7 10-9 17-4l-1 5 10 3"/>
      <path id="path243" d="m296 101-5 2c-2 16 2 31-1 47l6 5c4 0 7-1 9-5"/>
      <path id="path245" d="M265 136c3 5 1 11 2 17"/>
      <path id="path247" d="m387 171-6-3c-5 1-7 5-9 9"/>
      <path id="path249" d="m219 137 2-1c4-3 5-3 9 0v19"/>
      <path id="path251" d="m279 105 1-5c1-5 1-7-3-9-3-1-5-4-9-2-6 3-7 5-5 12l2 4"/>
      <path id="path253" d="M361 156c4 3 8 5 4 12l-3 2"/>
      <path id="path255" d="m493 340-2 5 6 3 6-2"/>
      <path id="path257" d="m360 190-1 12h-1l3 5"/>
      <path id="path259" d="m400 145-3 5c-3 6-5 6-10 2"/>
      <path id="path261" d="m493 182-2 4 6 3 6-1"/>
      <path id="path263" d="m363 172 7 5 2 5-2 8h-9"/>
      <path id="path265" d="m353 103 1 16"/>
      <path id="path267" d="M213 107c-9-2-18-5-28-3h-9"/>
      <path id="path269" d="m289 210 15-3c2-3-3-6-4-8-6-7-8-7-16-3"/>
      <path id="path271" d="M177 190c2-6 1-12-2-18-12-2-17 3-15 14l-3 4c1 5 5 3 9 3"/>
      <path id="path273" d="M398 126h-1l-6 2c-2 3-2 6-2 10 0 2 2 4-1 6"/>
      <path id="path275" d="M701 179c-10-4-12-5-14-13l5 1c4 3 7 5 6 11"/>
      <path id="path277" d="M652 179c-10-4-12-5-14-13l6 1c3 3 7 5 5 11"/>
      <path id="path279" d="M701 219c-10-5-12-6-14-13h5c4 3 7 6 6 11"/>
      <path id="path281" d="M387 211c-3-3-3-3-12-3l-5 6h1v8"/>
      <path id="path283" d="M652 219c-10-5-12-6-14-13h6c3 3 7 6 5 11"/>
      <path id="path285" d="M241 221c-5 2-10 5-16 1"/>
      <path id="path287" d="m264 222-1-11c-1-2-8-4-13-2-5 1-9-2-9-6"/>
      <path id="path289" d="M150 134c-2 6-2 13-3 20l5 3"/>
      <path id="path291" d="M255 107c-2 5-2 11 0 17 1 1-1 3-1 5l1 7"/>
      <path id="path293" d="M199 158c-4 5-6 9-2 15"/>
      <path id="path295" d="M313 221c-2 1-3 2-6 1-3-2-6-1-9 0-4 1-7 1-10-1"/>
      <path id="path297" d="m389 173 8 2c3 1 5 0 7-2"/>
      <path id="path299" d="M684 324h7c1 3-1 10-4 12-2 1-4 0-6-2"/>
      <path id="path301" d="M638 271h7c1 3-1 10-4 12-2 1-4 1-6-2"/>
      <path id="path303" d="M638 324h7c1 3-1 10-4 12-2 1-4 0-6-2"/>
      <path id="path305" d="M637 245h-10l-1 1 1 2c2 2 2 5 2 7v9"/>
      <path id="path307" d="M683 245h-10l-1 1 1 2c2 2 2 5 2 7v9"/>
      <path id="path309" d="m365 150 1 5 5 1 3-4"/>
      <path id="path311" d="M637 298h-10l-1 1 1 2c2 2 2 4 2 7v8"/>
      <path id="path313" d="M400 104c0 8 2 15-1 20l1 20"/>
      <path id="path315" d="M683 298h-10l-1 1 1 2c2 2 2 4 2 7v8"/>
      <path id="path317" d="M684 271h7c1 3-1 10-4 12-2 1-4 1-6-2"/>
      <path id="path319" d="M542 324c0 3 0 6 2 8v7"/>
      <path id="path321" d="m646 299-2 3 3 7-2 14"/>
      <path id="path323" d="m692 299-2 3 3 7-2 14"/>
      <path id="path325" d="M542 166c0 3 0 5 2 8v6"/>
      <path id="path327" d="m692 246-2 3 3 7-2 14"/>
      <path id="path329" d="m646 246-2 3 3 7-2 14"/>
      <path id="path331" d="m183 194 2-4 15 1v7"/>
      <path id="path333" d="M552 252c-4 2-7 1-12-2l-1 3"/>
      <path id="path335" d="M552 94c-4 2-7 1-12-2l-1 3"/>
      <path id="path337" d="m254 123-13 3c1 6-2 8-8 8"/>
      <path id="path339" d="m353 156-3-2v1l-10 3c-6 0-9 7-7 13"/>
      <path id="path341" d="m330 103 13-3-2 12-2 10c-1 4 1 7 4 9"/>
      <path id="path343" d="m223 92 1 13"/>
      <path id="path345" d="m457 159-3 5 5 7"/>
      <path id="path347" d="m182 201 1-6c-6-5-11-7-18-2l4 13"/>
      <path id="path349" d="M377 126v8c0 3 1 4 4 4l7-1"/>
      <path id="path351" d="m457 317-3 5 5 7"/>
      <path id="path353" d="M553 351c-2 3-5 3-8 2-3-2-6-2-9-1"/>
      <path id="path355" d="m175 172 2-7c1-2 1-4-2-5"/>
      <path id="path357" d="m343 178-2 5-2 7-13-5"/>
      <path id="path359" d="M553 193c-2 2-5 3-8 1h-9"/>
      <path id="path361" d="m400 145 1 6-1 5"/>
      <path id="path363" d="M362 103c6 5 4 13 4 20l1 4"/>
      <path id="path365" d="M268 177c0 4 0 8 3 11"/>
      <path id="path367" d="M232 193c3 2 7 4 8 9"/>
      <path id="path369" d="M314 122c-3 2-7 3-10 3"/>
      <path id="path371" d="m699 277-5 7-4-2"/>
      <path id="path373" d="m699 329-5 8-4-2"/>
      <path id="path375" d="m285 181-3 5-5 4"/>
      <path id="path377" d="m653 277-5 7-4-2"/>
      <path id="path379" d="m653 329-5 8-4-2"/>
      <path id="path381" d="m362 171-4 5-2 8 3 5"/>
      <path id="path383" d="m230 128 2 8-1 2"/>
      <path id="path385" d="m642 245 2-1 4 2c3 5 9 10 3 16"/>
      <path id="path387" d="m688 245 2-1 5 2c2 5 8 10 2 16"/>
      <path id="path389" d="m688 298 2-1 5 2c2 5 8 10 2 16"/>
      <path id="path391" d="m642 298 2-1 4 2c3 5 9 10 3 16"/>
      <path id="path393" d="M224 180c-7 1-9 5-9 13"/>
      <path id="path395" d="M276 151c-7 3-15 5-23 2"/>
      <path id="path397" d="M236 157c-3 2-4 5-4 9"/>
      <path id="path399" d="M190 154c4 5 8 5 13 1"/>
      <path id="path401" d="m290 122-10 2-3 4"/>
      <path id="path403" d="m302 135-9 1"/>
      <path id="path405" d="m350 167-9 6-8-2-7 6"/>
      <path id="path407" d="M295 91c-5-4-10-1-15 2"/>
      <path id="path409" d="m311 174 5-2 9 5v7l2 1-6 4"/>
      <path id="path411" d="M327 129h-11"/>
      <path id="path413" d="m338 118-8 1"/>
      <path id="path415" d="m190 129 2 8"/>
      <path id="path417" d="m207 183-7 7"/>
      <path id="path419" d="m553 251 5-3 7 5"/>
      <path id="path421" d="M395 104c-1 4 2 5 4 7"/>
      <path id="path423" d="m290 104-10 2"/>
      <path id="path425" d="m553 93 5-4 7 5"/>
      <path id="path427" d="M379 103c-4-4-8-3-12-1l-2 4"/>
      <path id="path429" d="M366 103c-4-2-9-2-13 0-3-2-6-4-9-2"/>
      <path id="path431" d="m555 184-6-2"/>
      <path id="path433" d="m372 90 1 10"/>
      <path id="path435" d="m554 341-5-1"/>
      <path id="path437" d="M677 206h-6"/>
      <path id="path439" d="M628 206h-6"/>
      <path id="path441" d="m631 156 3 5"/>
      <path id="path443" d="m680 195 2 6"/>
      <path id="path445" d="m680 156 2 5"/>
      <path id="path447" d="m628 167-6-1"/>
      <path id="path449" d="m631 195 3 6"/>
      <path id="path451" d="m677 167-6-1"/>
      <path id="path453" d="M650 299c4 1 4 2 3 6"/>
      <path id="path455" d="M696 299c4 1 4 2 3 6"/>
      <path id="path457" d="m215 150-3 4"/>
      <path id="path459" d="m339 129 1 5"/>
      <path id="path461" d="M650 246c4 1 4 2 3 6"/>
      <path id="path463" d="M696 246c4 1 4 2 3 6"/>
      <path id="path465" d="m260 155 3 4"/>
      <path id="path467" d="m347 157 3 3"/>
      <path id="path469" d="m706 204-4 1"/>
      <path id="path471" d="m657 204-4 1"/>
      <path id="path473" d="M496 270v4"/>
      <path id="path475" d="m706 164-4 2"/>
      <path id="path477" d="m657 164-4 2"/>
      <path id="path479" d="m654 178-4 6"/>
      <path id="path481" d="m703 178-4 6"/>
      <path id="path483" d="M496 112v3"/>
      <path id="path485" d="m703 218-4 5"/>
      <path id="path487" d="m654 218-4 5"/>
      <path id="path489" d="m342 174 2 3"/>
      <path id="path491" d="m171 157 3 2"/>
    </g>
    <path id="path495" d="m181 365-19-2c-6-1-8 1-10 7l-2 7c2 2 7 5 9 3 5-4 10-2 15-2l16-1v-9l-8-4"/>
    <path id="path497" d="m163 330-10-1-3-10c0-3 6-7 10-6l9 2c9-8 8-17 7-26v-23l1-18-10-1h-12c-3 0-5 2-6 6v4l-1 4c3 1 7 3 9 2 6-2 13-2 19-2"/>
    <path id="path499" d="M237 248h-3c-8 1-15 1-23-3-2-1-6 0-8 1-6 2-11 2-16 0-4-1-7-1-10 2"/>
    <path id="path501" d="m313 345-2-4 1-4-1-6h-12l-1-4c-6-5-13-4-18 2l5 8c2 2 6 2 9-1l5-4"/>
    <path id="path503" d="m290 306-7 2-6 1 2-24h-9l-3 2c0 8-5 7-10 7l-2 1v11c0 4-2 5-5 5l-10 2h-19c-4 0-2-6-4-8l1-5 1-5-2-8"/>
    <path id="path505" d="M414 260c4-4 1-9 2-14h-28l-1 10c8 8 18 3 27 5l1 20c0 3-2 6-5 7s-6 3-9-1"/>
    <path id="path507" d="m406 366-5-2c-5-1-8 0-13 5l4 6-1 4-9 2c-4 0-7 1-11-1s-10-1-15 0c-3 0-6 2-9-1"/>
    <path id="path509" d="M193 261v16l-1 9-15 1"/>
    <path id="path511" d="m366 275-11 2c-1 4 0 8-2 11-2 4-2 8-2 12v11"/>
    <path id="path513" d="m401 316 2-3 9-1 1 12c0 5-3 7-8 5 0-4 2-10-4-12h-7l-5 5v7c3 7 1 12-6 14l-6 1-4-1"/>
    <path id="path515" d="m226 370 1 8c-5 2-8 3-13-1-4-3-9-1-13 1s-7 2-10-1"/>
    <path id="path517" d="M347 369c-5-4-25-5-31-2l-1 2"/>
    <path id="path519" d="m372 369-6-4c-14 0-13 1-17 4l-2 9c-3 2-7 2-10 0h-11c-4 2-8 2-12-1l-1-7h1l-3-3"/>
    <path id="path521" d="M342 261c-3-2-2-5 0-7 2-4 0-9-3-10h-4l-12 1"/>
    <path id="path523" d="M351 289c-5-3-10 0-10 5l-1 12c0 3-1 6-4 7-4 1-7 2-10-2"/>
    <path id="path525" d="m152 264-2 15-1 5c0 4 1 7 5 8 5 0 8-1 9-6l2-4"/>
    <path id="path527" d="M315 329v-8c-6-4-14-2-17 4"/>
    <path id="path529" d="M397 363c-2-3-1-5 1-7l9-8v29c-5 0-9 4-15 3"/>
    <path id="path531" d="M192 371c2-3 11-4 12-4 4 1 8 2 12 1s7-1 9 1c6 1 12-3 18 1"/>
    <path id="path533" d="M206 331c2-3 4-5 7-4 3 0 5-6 5-9-1-4-4-7-7-7l-7 1c1-4 2-7 1-10l-2-9c-11-1-11 5-12 12v5l-12 3c-4 0-1-4-3-6"/>
    <path id="path535" d="m322 257 7 2 1 3v20c-3 4-2 9-1 14l-2 15-13 2c3-9 2-18 6-25"/>
    <path id="path537" d="M317 259c-5-3-10 1-16 1l-5-9c1-4 4-5 8-5h19c-2 4 3 11-6 13-3 10-1 20 0 31"/>
    <path id="path539" d="M233 323c-6 1-9 5-10 11l2 3c8 3 12-2 17-6-2-4-3-8-8-8"/>
    <path id="path541" d="M234 338c2 4 1 8-1 12l-7 1-4 6c3 7 9 8 19 5"/>
    <path id="path543" d="M288 366c-8-2-16 0-24 2"/>
    <path id="path545" d="M284 357c-4 2-7 4-12 2-2-1-4 0-5 1l-4 6"/>
    <path id="path547" d="M413 288c2 2 2 4 1 7-3 5-2 11-3 16"/>
    <path id="path549" d="M263 355c1-5 5-8 9-9l5 1 6 2c3 2 2 5 1 9 6 4 6 9 6 16 0 4-2 4-5 4l-34 2c-3 1-6 0-8-2v-9l5-2"/>
    <path id="path551" d="M321 351c-3 1-4 4-4 7 0 6-7 9-11 7"/>
    <path id="path553" d="M283 325c-3-9-8-11-20-8l-3 15 10 2 5-6 5 1"/>
    <path id="path555" d="M342 245c3-2 6-1 9 0 6 2 11 2 16 1l20 1"/>
    <path id="path557" d="m239 260-2-12c5-5 11-2 16-1l11 2"/>
    <path id="path559" d="m226 263 4 13c2 5 2 8-2 12l-2 2"/>
    <path id="path561" d="m388 257-7 4-2-1-1 21-9 3c-4 2-5 5-4 9l1 13"/>
    <path id="path563" d="m365 307-5 6h-4c-7 6-7 7-2 15l6 1"/>
    <path id="path565" d="m207 264-2 6 1 15"/>
    <path id="path567" d="M281 263h-25c-3-3-8-2-12-2-8-1-14 2-21 1l-9 3 3 3 1 18h-12l-3 7"/>
    <path id="path569" d="M303 261v10l1 12v9l2 14 4 2 5-4"/>
    <path id="path571" d="M242 290v20l1 1"/>
    <path id="path573" d="M265 359c-4-6-12-7-17-3l-5 3"/>
    <path id="path575" d="M391 260c-3 2-3 4-2 7 3 4 5 9 2 14l1 2"/>
    <path id="path577" d="M243 262c1 5 0 10-1 15l1 6"/>
    <path id="path579" d="m260 324-20 2"/>
    <path id="path581" d="m387 296 1 10c-1 5-5 7-9 6-2-1-3-3-3-5l3-11"/>
    <path id="path583" d="m165 262-1 12v7c6 3 8-1 11-3"/>
    <path id="path585" d="m339 347 2 4c2 3 1 5-2 10-2 3-5 2-8 1l-2-3c-1-3-3-4-5-6l-2-4-1-5c-7 0-12 2-15 8l-4 4"/>
    <path id="path587" d="M162 291c1 7 0 14-4 21"/>
    <path id="path589" d="m368 366 8-12-5-5"/>
    <path id="path591" d="M225 351h-8c-3 0-6 1-7 5l-1 1-7-2c-3 5-7 7-13 4l-7-1-1 6"/>
    <path id="path593" d="M193 347c-1-3-2-7-1-10 4-7 10-9 17-4l-1 5 10 3"/>
    <path id="path595" d="m297 258-5 2c-2 16 2 31-1 47l6 5c4 0 7-1 9-5"/>
    <path id="path597" d="M266 293c3 5 1 11 2 17"/>
    <path id="path599" d="m388 328-6-3c-5 1-7 5-9 9"/>
    <path id="path601" d="m220 294 2-1c4-3 5-3 9 1v18"/>
    <path id="path603" d="m280 262 1-5c1-5 1-7-3-9-3-1-5-5-9-2-6 3-7 5-5 12l2 3"/>
    <path id="path605" d="M362 313c4 3 8 5 4 12l-3 2"/>
    <path id="path607" d="m361 347-1 12h-1l3 5"/>
    <path id="path609" d="m401 302-3 5c-3 6-5 6-10 2"/>
    <path id="path611" d="m364 329 7 5 2 5-2 8h-9"/>
    <path id="path613" d="m354 260 1 16"/>
    <path id="path615" d="M214 264c-9-2-18-5-28-3h-9"/>
    <path id="path617" d="m290 367 15-3c2-3-3-6-4-8-6-7-8-7-16-3"/>
    <path id="path619" d="M178 347c2-6 1-12-2-18-12-3-17 3-15 14l-3 4c1 5 5 3 9 3"/>
    <path id="path621" d="M399 283h-1l-6 2c-2 3-2 6-2 10 0 2 2 4-1 6"/>
    <path id="path623" d="M388 368c-3-3-3-3-12-3l-5 6h1v8"/>
    <path id="path625" d="M242 378c-5 2-10 5-16 1"/>
    <path id="path627" d="m265 379-1-11c-1-2-8-4-13-3-5 2-9-1-9-5"/>
    <path id="path629" d="m151 291-3 20 5 3"/>
    <path id="path631" d="M256 264c-2 5-2 11 0 17 1 1-1 3-1 5l1 8"/>
    <path id="path633" d="M200 315c-4 5-6 9-2 15"/>
    <path id="path635" d="M314 378c-2 1-3 2-6 1-3-2-6-1-9 0-4 1-7 1-10-1"/>
    <path id="path637" d="m390 330 8 2c3 1 5 0 7-2"/>
    <path id="path639" d="m366 307 1 5 5 1 3-4"/>
    <path id="path641" d="M401 261c0 7 2 15-1 20l1 20"/>
    <path id="path643" d="m184 351 2-4 15 1v7"/>
    <path id="path645" d="m255 280-13 3c1 6-2 8-8 8"/>
    <path id="path647" d="m354 313-3-2v1l-10 3c-6 0-9 7-7 13"/>
    <path id="path649" d="m331 260 13-3-2 12-2 10c-1 4 1 7 4 9"/>
    <path id="path651" d="m224 249 1 13"/>
    <path id="path653" d="m183 358 1-6c-6-5-11-7-18-2l4 13"/>
    <path id="path655" d="M378 283v8c0 3 1 4 4 4l7-1"/>
    <path id="path657" d="m176 329 2-7c1-2 1-4-2-5"/>
    <path id="path659" d="m344 335-2 5-2 7-13-5"/>
    <path id="path661" d="m401 302 1 6-1 5"/>
    <path id="path663" d="M363 260c6 5 4 13 4 20l1 4"/>
    <path id="path665" d="M269 334c0 4 0 8 3 11"/>
    <path id="path667" d="M233 350c3 2 7 4 8 9"/>
    <path id="path669" d="M315 279c-3 2-7 3-10 3"/>
    <path id="path671" d="m286 338-3 5-5 4"/>
    <path id="path673" d="m363 328-4 5-2 8 3 5"/>
    <path id="path675" d="m231 285 2 8-1 1"/>
    <path id="path677" d="M225 337c-7 1-9 5-9 13"/>
    <path id="path679" d="M277 308c-7 2-15 5-23 2"/>
    <path id="path681" d="M237 314c-3 2-4 5-4 9"/>
    <path id="path683" d="M191 311c4 5 8 5 13 1"/>
    <path id="path685" d="m291 279-10 2-3 4"/>
    <path id="path687" d="m303 292-9 1"/>
    <path id="path689" d="m351 324-9 6-8-2-7 6"/>
    <path id="path691" d="M296 248c-5-4-10-1-15 2"/>
    <path id="path693" d="m312 331 5-3 9 6v7l2 1-6 4"/>
    <path id="path695" d="M328 286h-11"/>
    <path id="path697" d="m339 275-8 1"/>
    <path id="path699" d="m191 286 2 8"/>
    <path id="path701" d="m208 340-7 7"/>
    <path id="path703" d="M396 261c-1 3 2 4 4 7"/>
    <path id="path705" d="m291 261-10 2"/>
    <path id="path707" d="M380 260c-4-4-8-3-12-1l-2 4"/>
    <path id="path709" d="M367 260c-4-2-9-2-13 0-3-2-6-4-9-2"/>
    <path id="path711" d="m373 247 1 10"/>
    <path id="path713" d="m216 307-3 4"/>
    <path id="path715" d="m340 286 1 5"/>
    <path id="path717" d="m261 312 3 4"/>
    <path id="path719" d="m348 314 3 3"/>
    <path id="path721" d="m343 331 2 3"/>
    <path id="path723" d="m172 314 3 2"/>
  </g>
  <g id="labels" font-family="Helvetica" font-size="10" transform="translate(-39 -30)">
    <text id="text726" transform="translate(43 157)">Water Spray</text>
    <text id="text728" transform="translate(47 169)">for 4 hours</text>
    <text id="text730" transform="translate(42 311)">100 um ABA</text>
    <text id="text732" transform="translate(47 323)">for 4 hours</text>
    <text id="text734" transform="translate(233 422)">Cross Section of Leaf</text>
    <text id="text736" transform="translate(472 422)">Surface View of Leaf</text>
    <text id="text738" transform="translate(638 132)">with</text>
    <text id="text740" transform="translate(676 132)">without</text>
    <text id="text742" transform="translate(727 133)">Actinomycin and Cordycepin</text>
    <text id="text744" transform="translate(727 175)">GCs without ABA treatment</text>
    <text id="text746" transform="translate(727 216)">GCs with ABA treatment</text>
    <text id="text748" transform="translate(727 270)">Mesophyll cells without ABA</text>
    <text id="text750" transform="translate(727 320)">Mesophyll cells with ABA</text>
  </g>
</svg>