<svg xmlns="http://www.w3.org/2000/svg" xml:space="preserve" id="TissueSpecificGuardAndMesophyllCells_svg" x="0" y="0" version="1.1" viewBox="0 55 817.801 338.483" author="Provart Lab - Bio Analytic Resource, University of Toronto">
  <g id="Samples" transform="translate(-38.788 -29.814)">
    <g id="Mesophyll_cells_with_100_uM_ABA" fill="#fff">
      <path id="path2" d="M286.3 342.5c.1-.2.1-.3.1-.3-.2.4-.3.6-.1.3z"/>
      <path id="path4" d="M406.7 361.2c.2-.2.4-.5.3-.9-.2-.8-.3-1.6-.5-2.3 0-.1-.1-.3-.2-.4.8-2.4 1.8-5.3.4-6.8-1.3-1.3 0 .9-1.9.9-1.5 0-2.1-.2-3.3.7-.1.1-.7 2.2-.8 2.2-.8.4-1.5 1-2.1 1.6-2.8 2.6-4.6 4.3-2 6.9.1.1.2.2.3.2.5 3.1 2.9 2.7 6.9 2.7 4.6-.1 4.1-1.9 2.9-4.8z"/>
      <path id="path6" d="M414.5 282.5c1.1-4.4.4-7.5-.9-12.3 0-1.4-.1-2.9-.4-4.3.2-.1.4-.2.5-.4.4-.8.6-1.8.2-2.7-.4-.8-1.2-1.3-2.1-1.5-.7-.2-1.2.4-1.2.9-.9-.3-1.9-.4-2.8-.1-3.5-2-7.9-2.2-12.1-.1.3-.2.2-.9-.3-.9s-1 0-1.5.2c-.1 0-.3 0-.4.1-1.7-1.2-3.6-2.1-6-2.6-3.8-.8-4.9.7-8.3 2.1-1.1-1-5.2-2.2-6.6-1.8-.4.1-.7.2-1 .4-7.5-2.3-17.6.2-21.7-2.3-1-.6-14.7 2.3-21 3.5-.1-.1-.2-.3-.4-.4-.1-.1-.2-.1-.3-.2.2-.1.5-.1.8-.2-2.1-.8-4.3-1.1-6.4-.7 0-.1-.1-.2-.1-.3-.4-1.2-2.3-.7-1.9.5 0 .1.1.1.1.2-1 .4-2 .8-2.9 1.5-.7-1.9-2.6-3.4-5.2-2.6-1.4.4-2.8 1-4.2 1.5-2.9-.5-5.9-.5-8.7.2 0-.1 0-.2-.1-.3-.4-.8-1.1-1.2-2-1.1-.2-.1-.5-.1-.8.1-.6.4-1.2.9-1.8 1.4-.1 0-.1.1-.2.1s-.1.1-.2.1l-1.2.9c-1.1.2-1.9.7-2.5 1.4-.3.1-.6.2-.8.3-.2-.1-.3-.2-.6-.2-.9 0-1.6.1-2.4.4-.2.1-.4.2-.5.4-8.6-.8-17.2.4-25.8.1-8.7-.3-16.5-3.2-25.3-1.8-.4.1-.8.2-1.1.3-6.3 0-13 .8-18.1 4.1-1.7-.8-3.5-1.5-5.3-1.9-8.6-3-17.7-4.8-25.7-2.5-5.4-.5-10.7-1.3-16.1-.2-4.3-1.5-7.5-.2-9.7 2.5-.4.2-.7.4-1 .7-1.5 0-3.1 0-4.6-.2-.2 0-.4.1-.5.2h-.6c-.2 0-.4.2-.5.4-.1.4-.2.7-.3 1.1-.9.8-1.5 2-1.5 3.5-.1 6.2-1.4 12.3-2 18.5-.1 1.6 1 3.7 2.5 4.3.2.1.4.2.7.3-2.6 5.3-8.6 19.9.9 22.1 2.8.6 4.8.1 6.5-1.2.2.2.5.5.8.6-.3.1-.7.2-1 .3-2.1.3-3.9 1.4-6 1.6-.6.1-.6 1.1 0 1-7.3 4.4-1 15.6 6.5 12.3.3 2.3.7 4.5 1.5 6.7.8 2.5.3 3.6-1.3 6.3-2.9 5 1.7 11.2 6.9 10.6.8 1.5 2 2.8 3 4.1-.1.3 0 .5 0 .8v3.5c0 1.6 1.2 3 2.9 3 .7 0 1.3-.3 1.9-.7 2.2 1.5 5.1 1.3 7.6.3 3-1.3 5.4-4.3 8.8-4.2 4.9.1 8.1.8 12.7-1.8l.9-.6c.6 0 1.2 0 1.8-.1 1 1 2.6 1 3.5 0 .9-.9 1.5-2 2.1-3 2.6.4 5.2.7 7.9-.1.1 0 .3-.1.4-.1.7 0 1.4-.1 2.1-.4.3-.1.7-.3 1-.4-1 3.1.4 6.4 3.1 8.2 1.6 1.1 3.4 1.9 5 3 3 2 7.3.8 9.3-2.1.4.1.8 0 1.3-.1.2-.1.3-.1.4-.2-.3 2.1 1.5 4 3.3 4.7 3 1.1 6.1 1.5 9 0 .9-.4 1.6-.9 2.4-1.3 2.8.4 5.6.9 8.4 1.4 7.3 1.2 14.8-.3 22-1.9 0 .3.2.6.5.8.8.6 1.8 1.1 2.7 1.3.6.1 1-.2 1.2-.7 1.1.4 2.2.6 3.4.6.4.9 1.3 1.6 2.6 1.5 2.7 0 3.1-2.5 7.3-1.1 1 .3 1.6-.8 1.9-1.5.8.1 1.5 0 2.2-.3 2.7 1.7 7.1.5 7.1-3.6v-1.3c.3-.1.5-.4.5-.8 0-1.1 0-2.2.2-3.3 0-.2 0-.3-.1-.5 1.4-1 2.9-1.9 4.3-2.7 1.1-.6 1.8-1.8 2.1-3 .7.8 1.3 1.6 1.9 2.4 1.1 1.4 2.3 2.8 3.4 4.2.6 1.1 1 2.1.9 3-.5 4 4.4 5.4 7.2 3.5 1.5-.4 2.8-1.7 3.4-3.2.5-.3 1.1-.6 1.7-1 3.4-2.2 2.2-6.7-.5-8.1 0-1.6-.3-3.1-1-4.6.1 0 .2-.1.3-.1.7-.3.6-1.1.2-1.5 1.1-1.7 2.3-3.4 2.6-5.4.1-.4-.1-.7-.3-.9.7-1.5 1.4-2.9 2.1-4.4.7-1.4-2.8-3.8-1.7-5.8.2 0 .4 0 .6-.1 1.1-.6 2.2-1.2 3.3-1.9.7-.1 1.4-.3 2.2-.4 2.2-.2 5 1.5 6.8 2.4 3 1.4 6 1.2 8.5-1.1 2.1-1.9 2.8-4.2 2.5-6.4 0-2.8-1.6-4.9-3.8-6 2.3-.5 4.9-1.6 7.5-2.4.5.7 1.6.6 1.6-.5 2-.5 3.5-.7 4.5-.4 4 1 2.3 2.8 6.3 2.2l3.6-.6c-2.6.4 4.5-1.5.8-2.3 4.7 1 8.8 1.7 11.7-1.8 1.1.4 2.4.5 3.5.4-.1.7-.1 1.5-.2 2.2-.1.5.1 1.1.7 1.2-.7 1.4-1.3 2.9-1.9 4.3-.2.4-.3.7-.5 1-.1-.1-.3-.1-.4-.1-2.2 0-4.3-.1-6.4.2-.9.1-.9 1-.4 1.6-3.1 1.1-5.7 3.4-6.7 7.1-.5 0-1.1 0-1.6.1-1.5-.7-3.3-1.2-5.2-1.1-2.5 0-4 1.8-4.3 3.7-.4.3-.9.6-1.3 1-1.1.9-2.1 2.4-2.9 4.1-.5-.7-1.3-1.3-2.4-1.7-1-.3-1.9-.5-2.7-.6-.4-.8-1.1-1.3-2-1.6 0-.2-.1-.4-.2-.7-.2-.5-.7-.9-1.2-.7-.4.1-.8.6-.7 1.1-2.1.2-4.2 1.6-4.5 4.3-.1 1.2-.1 2.4 0 3.5-.9.9-1.3 2.2-.6 3.6 1.2 2.4 3.6 5.4 3.8 8.2.1 1.4-.2 3.3.2 4.7-1.3 3.4-2.4 6.2-1.3 10.3.1.4.3.8.4 1.1-6-.9-12 2.4-13.4 9-.7 3.1 1.3 5.4 4.3 5.7 4.5.5 8.9.7 13.3-.1 6-1.1 8.5-6.3 6.1-11.7-.6-1.3-1.9-2-3.2-2.1.3-.2.5-.5.7-.8 1-1.4 1.9-3 2.6-4.5 3-.4 5.3-3.7 3.7-6.3.4-.2.7-.6.6-1.1-.4-1.6-1.7-2.5-3-3.4-.1-.1-.3-.1-.4-.1.2-1 .1-2.1-.2-3.2-.2-.8-.5-1.6-.9-2.4l.4-.4c.3-.4.6-.7.9-1.1-.7.9-.2.2 0 0 .8.5 1.9.9 3.4.8 2 0 4.1-.8 6-1.9 2.4 1.7 7.1.5 7.5-3.5v-.7c.2-.1.5-.3.5-.6.2-.7.4-1.5.4-2.3v-.2c4.1-.2 8.3-.2 10.3-.9 1.3-.5 2.3-1.5 2.8-2.6 1.2.4 2.6.4 3.7-.3.2-.2.4-.3.7-.5.3.1.7.1 1.1.1 3 0 4.5-2.5 4.3-4.8.8-1.6.7-3.6-.4-5 .4-4.2-.5-8.8-.9-13.2-.1-.9-.4-1.6-.8-2.3 1.4-1.5 2.5-3.2 2.9-5 .9-3.7 1-7 .3-10.7-.2-1-.4-2-.7-3.1 0-.2-.1-.4-.1-.6 0-1.2 1.9-3.2 1.3-4.5zm-217.4 38.9c-1.6 2.5-1.3 4.9-.1 6.8-3.3 5.9-5.4 11.8-4.6 18.4-.4-.1-.8-.1-1.2-.2-2.1-.2-3.9 0-6 .3-2.2.3-4.1 1.4-5.9 2.6-.6-.9-.9-1.9-.6-2.9 1-4.4.8-8.3-2-11.6v-.3c.2-.8 0-1.5-.4-2.1-.1-1.3-.6-2.4-1.7-3.2 2-2.3 4.8-4.9 4.7-5-.9-2.4-2.4-7.2-9.4-9.5 2.7-2.6 4.2-5.7 5.6-9.1-.1 1.7-.1 3.4.2 5.2.4 2.7 3.8 4.2 6.1 3.5 2.4-.7 4.5-1.9 6.2-3.3 1.3.7 2.5 1.3 3.8 2l1.5.9s-.1.1 0 .1c.8 1 2.4 1.5 3.4 1.4v2.5c0 .8.5 1.6 1 2.1 0 .5-.3.9-.6 1.4zm32.7 2.6c-2.4 2.4-4.8 5-6.6 7.9-1.1 1.8-1.2 4-.5 5.9-.3.2-.6.4-.9.7-.2.2-.3.3-.5.4-.5.3-.9.6-1.4.8-.3.1-.6.3-.8.4-.2.1-.9.4-1.2.5-.2.1-.3.1-.5.2-.6 0-1.3.1-2 .3h-.9c-.2 0-.4-.1-.5-.1-2-.4-4-.8-6-.8-.5 0-1 0-1.5.1.3-.9.5-1.8.5-2.6.3-.4.7-.9 1-1.3.8-1.1.2-2.8-.9-3.4-.1-.1-.2-.1-.3-.2.2-1.8 1.4-3.3 6.6-4.5 1.3-.3 1-2.2 1-3.3.2-.1.3-.1.5-.2 5.3-2.6 4.1-8.8.3-11.5.1-.1.1-.2.2-.3.6.5 1.3 1.1 2 1.5 4.5 3.1 15-1.5 18.5.7.6.4-.7 1.3.1 1.2-.3.3-.7.5-1 .8-1.4 1.2-2 3-2 4.8-1.4.5-2.4 1.1-3.2 2zm39.1 25.3c-.8.2-1.5.5-2.1 1.2-.2.2-.3.5-.3.8-.9.6-1.7 1.2-2.5 1.8-1.1.9-2.3 1.4-3.6 1.8-.4-.3-1-.5-1.7-.5-2.1 0-4.3 0-6.3.6-.8.2-1.4.8-1.8 1.5-3.7.1-7.2 1.3-8.7 5.1-.1-.4-.5-.8-1-.8.9-3-.5-6.2-3.2-8-1.4-.9-2.9-1.7-4.4-2.6.5-.6.8-1.5.9-2.3 0-.4 0-.7-.2-1 1.6-1.8 1.1-4.4.1-6.5.4-.4.8-.9 1.1-1.4l.6-.9c.2-.3.8-1 1-1.3.9-1 1.8-1.9 2.8-2.9 1.3-1.3 2-3.1 2-4.8 1.1-.3 3.9-2.4 3-1.7-.5.4 8-.7 7.1-1.5-2.2-2 4.8 2.3 7.1 1.4-.3 1.9.3 3.9 1.9 5.6a6.9 6.9 0 0 0 7.8 1.4c.2.4.5.9.9 1.2-1.2 2.8-1.9 5.7-1 8.7.5 1.7 1.6 3.2 3.1 4.1-.8.3-1.7.6-2.6 1zm42.8-2.9c-2 1.1-3.5 2.9-4.4 5.5-.1.2-.2.5-.2.8-.9 1-1.8 2-2.5 3.2h-.5c-1.5.5-2.7 1.6-3.2 2.9-.7-1.1-1.5-2-2.4-2.8-1.6-3-4.4-3.4-7.6-3.4-.5 0-.8.3-.9.7h-.7c-.8 0-3 .6-5.3 1.1v-.1c.1-.5 0-1-.2-1.4.1-.3.2-.5.1-.6-1.1-1.5-3.1-2.1-4.7-2.5.1-.4-.1-.7-.5-.9l-1.5-.6c1.9-2.1 8.9-7 9.2-6.1.2-.6.7-1.7.7-2.2.3-.1.7-.1 1-.2 1.7-.6 3.3-1.1 5-1.5 2.4-.6 4.2-2.6 4.8-4.9 2.1 1.3 4.7 1.3 7.1.3.1 0 .2 0 .3-.1.2-.1.4-.1.6-.2.2 0 .6-.1.9-.1.5 0 2 .3.1-.1.5.1.9.1 1.4.1.1 1.1 2.4-.5 3.2.3 1 .9.1 4.1 1.2 4.8-.3 1.1-.8 2.2-1.3 3.3-1 1.8-.6 3.5.3 4.7zm41.1-31.6c.1-.2.2-.4.4-.6.8-.7 0-2-1-1.7a9.4 9.4 0 0 0-3.5 2c-3.6-.5-6.8-.5-10.4.6-4.7 1.5-5.9 6-4.3 9.4-2 3.4-3.5 7.2-5.2 10.4-.2-.6-.8-1.1-1.4-.6-.4.3-.8.6-1.1 1-.2-.2-.4-.3-.7-.3-.4 0-.8.1-1.1.2-.8-.6-1.6-1.2-2.5-1.7-.1-.8-.2-1.5-.3-2.3-.3-1.4-4.3-1.4-5.7-1.7-1-.2.6-1.7-.2-1.8.6-3.3-1.4-7.4-5-8.1-4.4-.8-11.3 1.5-11.6 6v.3c-.3.2-.6.3-.8.5-.6.3-.1 1.2.5.9 0 0 .1 0 .1-.1-.9 2.4-3.3-3.2-3.7-1.6-1.6-1-3.6-1.4-5.6-.9-1.6.4-3.1.9-4.7 1.4-.7-4.3-4.9-7.5-8.8-9.1-3.5-1.4-6.8-.4-9.8 1.5-.1-.1-.3-.1-.5-.1-.7 0-1.4.2-2.1.5-.3-.8-.7-1.6-1.4-2.3 0-.2.1-.4 0-.6-.4-1.1-1.1-2-1.8-2.8 5.5-1.4 10.9-3 16.6-3.6 4.6-.5 12.2-2.6 16.2-.3 1.3.7 1.9 2.1 3.3 2.9 2.2 1.2 4.3.7 6.4-.3 1.1-.5 2.4-1.4 3.5-2.4 2.3.5 4.7.4 6.9-.7.2-.1.3-.2.5-.3.2.2.3.5.5.7l-.1.1c-1.2 1.1-1.1 3.1 0 4.2s2.8 1.1 4 .2c0 0-.1 0-.1.1 0 0 .1 0 .1-.1h.1c1.4.9 3.3 1.1 5 .1.8-.5 1.7-1 2.6-1.5 1.1 2.1 3.3 3.5 5.7 2.5.8-.3 1.5-.7 2.1-1 .8.3 1.7.2 2.6-.2 1.6-.8 3.2-1.5 4.1-3.1 2 .4 4.2.4 6.4 0 .9.6 1.9 1 3 1 2.7-.1 4.3 2.1 5.6 3.5-1.1-.2-1.9-.2-2.8-.2z"/>
      <path id="path8" d="m268.3 365.9-.2-.4c-1.7-3.5-6.9-.4-5.2 3l.2.4c1.7 3.5 6.9.4 5.2-3z"/>
    </g>
    <g id="Mesophyll_cells_no_ABA" fill="#fff">
      <path id="path11" d="M285.3 184.5c.1-.2.1-.3.1-.3-.2.4-.3.6-.1.3z"/>
      <path id="path13" d="M405.7 203.2c.2-.2.4-.5.3-.9-.2-.8-.3-1.6-.5-2.3 0-.1-.1-.3-.2-.4.8-2.4 1.8-5.3.4-6.8-1.3-1.3 0 .9-1.9.9-1.5 0-2.1-.2-3.3.7-.1.1-.7 2.2-.8 2.2-.8.4-1.5 1-2.1 1.6-2.8 2.6-4.6 4.3-2 6.9.1.1.2.2.3.2.5 3.1 2.9 2.7 6.9 2.7 4.6-.1 4.1-1.9 2.9-4.8z"/>
      <path id="path15" d="M413.5 124.5c1.1-4.4.4-7.5-.9-12.3 0-1.4-.1-2.9-.4-4.3.2-.1.4-.2.5-.4.4-.8.6-1.8.2-2.7-.4-.8-1.2-1.3-2.1-1.5-.7-.2-1.2.4-1.2.9-.9-.3-1.9-.4-2.8-.1-3.5-2-7.9-2.2-12.1-.1.3-.2.2-.9-.3-.9s-1 0-1.5.2c-.1 0-.3 0-.4.1-1.7-1.2-3.6-2.1-6-2.6-3.8-.8-4.9.7-8.3 2.1-1.1-1-5.2-2.2-6.6-1.8-.4.1-.7.2-1 .4-7.5-2.3-17.6.2-21.7-2.3-1-.6-14.7 2.3-21 3.5-.1-.1-.2-.3-.4-.4-.1-.1-.2-.1-.3-.2.2-.1.5-.2.8-.2-2.1-.8-4.3-1.1-6.4-.7 0-.1-.1-.2-.1-.3-.4-1.2-2.3-.7-1.9.5 0 .1.1.1.1.2-1 .4-2 .8-2.9 1.5-.7-1.9-2.6-3.4-5.2-2.6-1.4.4-2.8 1-4.2 1.5-2.9-.5-5.9-.5-8.7.2 0-.1 0-.2-.1-.3-.4-.8-1.1-1.2-2-1.1-.2-.1-.5-.1-.8.1-.6.4-1.2.9-1.8 1.4-.1 0-.1.1-.2.1s-.1.1-.2.1l-1.2.9c-1.1.2-1.9.7-2.5 1.4-.3.1-.6.2-.8.3-.2-.1-.3-.2-.6-.2-.9 0-1.6.1-2.4.4-.2.1-.4.2-.5.4-8.6-.8-17.2.4-25.8.1-8.7-.3-16.5-3.2-25.3-1.8-.4.1-.8.2-1.1.3-6.3 0-13 .8-18.1 4.1-1.7-.8-3.5-1.5-5.3-1.9-8.6-3-17.7-4.8-25.7-2.5-5.4-.5-10.7-1.3-16.1-.2-4.3-1.5-7.5-.2-9.7 2.5-.4.2-.7.4-1 .7-1.5 0-3.1 0-4.6-.2-.2 0-.4.1-.5.2h-.6c-.2 0-.4.2-.5.4-.1.4-.2.7-.3 1.1-.9.8-1.5 2-1.5 3.5-.1 6.2-1.4 12.3-2 18.5-.1 1.6 1 3.7 2.5 4.3.2.1.4.2.7.3-2.6 5.3-8.6 19.9.9 22.1 2.8.6 4.8.1 6.5-1.2.2.2.5.5.8.6-.3.1-.7.2-1 .3-2.1.3-3.9 1.4-6 1.6-.6.1-.6 1.1 0 1-7.3 4.4-1 15.6 6.5 12.3.3 2.3.7 4.5 1.5 6.7.8 2.5.3 3.6-1.3 6.3-2.9 5 1.7 11.2 6.9 10.6.8 1.5 2 2.8 3 4.1-.1.3 0 .5 0 .8v3.5c0 1.6 1.2 3 2.9 3 .7 0 1.3-.3 1.9-.7 2.2 1.5 5.1 1.3 7.6.3 3-1.3 5.4-4.3 8.8-4.2 4.9.1 8.1.8 12.7-1.8l.9-.6c.6 0 1.2 0 1.8-.1 1 1 2.6 1 3.5 0 .9-.9 1.5-2 2.1-3 2.6.4 5.2.7 7.9-.1.1 0 .3-.1.4-.1.7 0 1.4-.1 2.1-.4.3-.1.7-.3 1-.4-1 3.1.4 6.4 3.1 8.2 1.6 1.1 3.4 1.9 5 3 3 2 7.3.8 9.3-2.1.4.1.8 0 1.3-.1.2-.1.3-.1.4-.2-.3 2.1 1.5 4 3.3 4.7 3 1.1 6.1 1.5 9 0 .9-.4 1.6-.9 2.4-1.3 2.8.4 5.6.9 8.4 1.4 7.3 1.2 14.8-.3 22-1.9 0 .3.2.6.5.8.8.6 1.8 1.1 2.7 1.3.6.1 1-.2 1.2-.7 1.1.4 2.2.6 3.4.6.4.9 1.3 1.6 2.6 1.5 2.7 0 3.1-2.5 7.3-1.1 1 .3 1.6-.8 1.9-1.5.8.1 1.5 0 2.2-.3 2.7 1.7 7.1.5 7.1-3.6v-1.3c.3-.1.5-.4.5-.8 0-1.1 0-2.2.2-3.3 0-.2 0-.3-.1-.5 1.4-1 2.9-1.9 4.3-2.7 1.1-.6 1.8-1.8 2.1-3 .7.8 1.3 1.6 1.9 2.4 1.1 1.4 2.3 2.8 3.4 4.2.6 1.1 1 2.1.9 3-.5 4 4.4 5.4 7.2 3.5 1.5-.4 2.8-1.7 3.4-3.2.5-.3 1.1-.6 1.7-1 3.4-2.2 2.2-6.7-.5-8.1 0-1.6-.3-3.1-1-4.6.1 0 .2-.1.3-.1.7-.3.6-1.1.2-1.5 1.1-1.7 2.3-3.4 2.6-5.4.1-.4-.1-.7-.3-.9.7-1.5 1.4-2.9 2.1-4.4.7-1.4-2.8-3.8-1.7-5.8.2 0 .4 0 .6-.1 1.1-.6 2.2-1.2 3.3-1.9.7-.2 1.4-.3 2.2-.4 2.2-.2 5 1.5 6.8 2.4 3 1.4 6 1.2 8.5-1.1 2.1-1.9 2.8-4.2 2.5-6.4 0-2.8-1.6-4.9-3.8-6 2.3-.5 4.9-1.6 7.5-2.4.5.7 1.6.6 1.6-.5 2-.5 3.5-.7 4.5-.4 4 1 2.3 2.8 6.3 2.2l3.6-.6c-2.6.4 4.5-1.5.8-2.3 4.7 1 8.8 1.7 11.7-1.8 1.1.4 2.4.5 3.5.4-.1.7-.1 1.5-.2 2.2-.1.5.1 1.1.7 1.2-.7 1.4-1.3 2.9-1.9 4.3-.2.4-.3.7-.5 1-.1-.1-.3-.1-.4-.1-2.2 0-4.3-.1-6.4.2-.9.1-.9 1-.4 1.6-3.1 1.1-5.7 3.4-6.7 7.1-.5 0-1.1 0-1.6.1-1.5-.7-3.3-1.2-5.2-1.1-2.5 0-4 1.8-4.3 3.7-.4.3-.9.6-1.3 1-1.1.9-2.1 2.4-2.9 4.1-.5-.7-1.3-1.3-2.4-1.7-1-.3-1.9-.5-2.7-.6-.4-.8-1.1-1.3-2-1.6 0-.2-.1-.5-.2-.7-.2-.5-.7-.9-1.2-.7-.4.1-.8.6-.7 1.1-2.1.2-4.2 1.6-4.5 4.3-.1 1.2-.1 2.4 0 3.5-.9.9-1.3 2.2-.6 3.6 1.2 2.4 3.6 5.4 3.8 8.2.1 1.4-.2 3.3.2 4.7-1.3 3.4-2.4 6.2-1.3 10.3.1.4.3.8.4 1.1-6-.9-12 2.4-13.4 9-.7 3.1 1.3 5.4 4.3 5.7 4.5.5 8.9.7 13.3-.1 6-1.1 8.5-6.3 6.1-11.7-.6-1.3-1.9-2-3.2-2.1.3-.2.5-.5.7-.8 1-1.4 1.9-3 2.6-4.5 3-.4 5.3-3.7 3.7-6.3.4-.2.7-.6.6-1.1-.4-1.6-1.7-2.5-3-3.4-.1-.1-.3-.1-.4-.1.2-1 .1-2.1-.2-3.2-.2-.8-.5-1.6-.9-2.4l.4-.4c.3-.4.6-.7.9-1.1-.7.9-.2.2 0 0 .8.5 1.9.9 3.4.8 2 0 4.1-.8 6-1.9 2.4 1.7 7.1.5 7.5-3.5v-.7c.2-.1.5-.3.5-.6.2-.7.4-1.5.4-2.3v-.2c4.1-.2 8.3-.2 10.3-.9 1.3-.5 2.3-1.5 2.8-2.6 1.2.4 2.6.4 3.7-.3.2-.2.4-.3.7-.5.3.1.7.1 1.1.1 3 0 4.5-2.5 4.3-4.8.8-1.6.7-3.6-.4-5 .4-4.2-.5-8.8-.9-13.2-.1-.9-.4-1.6-.8-2.3 1.4-1.5 2.5-3.2 2.9-5.1.9-3.7 1-7 .3-10.7-.2-1-.4-2.1-.7-3.1 0-.2-.1-.4-.1-.6 0-1.1 1.9-3.1 1.3-4.4zm-217.4 38.9c-1.6 2.5-1.3 4.9-.1 6.8-3.3 5.9-5.4 11.8-4.6 18.4-.4-.1-.8-.1-1.2-.2-2.1-.2-3.9 0-6 .3-2.2.3-4.1 1.4-5.9 2.6-.6-.9-.9-1.9-.6-2.9 1-4.4.8-8.3-2-11.6v-.3c.2-.8 0-1.5-.4-2.1-.1-1.3-.6-2.4-1.7-3.2 2-2.3 4.8-4.9 4.7-5-.9-2.4-2.4-7.2-9.4-9.5 2.7-2.6 4.2-5.7 5.6-9.1-.1 1.7-.1 3.4.2 5.2.4 2.7 3.8 4.2 6.1 3.5 2.4-.7 4.5-1.9 6.2-3.3 1.3.7 2.5 1.3 3.8 2l1.5.9s-.1.1 0 .1c.8 1 2.4 1.5 3.4 1.4v2.5c0 .8.5 1.6 1 2.1 0 .5-.3.9-.6 1.4zm32.7 2.6c-2.4 2.4-4.8 5-6.6 7.9-1.1 1.8-1.2 4-.5 5.9-.3.2-.6.4-.9.7-.2.2-.3.3-.5.4-.5.3-.9.6-1.4.8-.3.1-.6.3-.8.4-.2.1-.9.4-1.2.5-.2.1-.3.1-.5.2-.6 0-1.3.1-2 .3h-.9c-.2 0-.4-.1-.5-.1-2-.4-4-.8-6-.8-.5 0-1 0-1.5.1.3-.9.5-1.8.5-2.6.3-.4.7-.9 1-1.3.8-1.1.2-2.8-.9-3.4-.1-.1-.2-.1-.3-.2.2-1.8 1.4-3.3 6.6-4.5 1.3-.3 1-2.2 1-3.3.2-.1.3-.1.5-.2 5.3-2.6 4.1-8.8.3-11.5.1-.1.1-.2.2-.3.6.5 1.3 1.1 2 1.5 4.5 3.1 15-1.5 18.5.7.6.4-.7 1.3.1 1.2-.3.3-.7.5-1 .8-1.4 1.2-2 3-2 4.8-1.4.5-2.4 1.1-3.2 2zm39.1 25.3c-.8.2-1.5.5-2.1 1.2-.2.2-.3.5-.3.8-.9.6-1.7 1.2-2.5 1.8-1.1.9-2.3 1.4-3.6 1.8-.4-.3-1-.5-1.7-.5-2.1 0-4.3 0-6.3.6-.8.2-1.4.8-1.8 1.5-3.7.1-7.2 1.3-8.7 5.1-.1-.4-.5-.8-1-.8.9-3-.5-6.2-3.2-8-1.4-.9-2.9-1.7-4.4-2.6.5-.6.8-1.5.9-2.3 0-.4 0-.7-.2-1 1.6-1.8 1.1-4.4.1-6.5.4-.4.8-.9 1.1-1.4l.6-.9c.2-.3.8-1 1-1.3.9-1 1.8-1.9 2.8-2.9 1.3-1.3 2-3.1 2-4.8 1.1-.3 3.9-2.4 3-1.7-.5.4 8-.7 7.1-1.5-2.2-2 4.8 2.3 7.1 1.4-.3 1.9.3 3.9 1.9 5.6a6.9 6.9 0 0 0 7.8 1.4c.2.4.5.9.9 1.2-1.2 2.8-1.9 5.7-1 8.7.5 1.7 1.6 3.2 3.1 4.1-.8.3-1.7.6-2.6 1zm42.8-2.9c-2 1.1-3.5 2.9-4.4 5.5-.1.2-.2.5-.2.8-.9 1-1.8 2-2.5 3.2h-.5c-1.5.5-2.7 1.6-3.2 2.9-.7-1.1-1.5-2-2.4-2.8-1.6-3-4.4-3.4-7.6-3.4-.5 0-.8.3-.9.7h-.7c-.8 0-3 .6-5.3 1.1v-.1c.1-.5 0-1-.2-1.4.1-.3.2-.5.1-.6-1.1-1.5-3.1-2.1-4.7-2.5.1-.4-.1-.7-.5-.9l-1.5-.6c1.9-2.1 8.9-7 9.2-6.1.2-.6.7-1.7.7-2.2.3 0 .7-.1 1-.2 1.7-.6 3.3-1.1 5-1.5 2.4-.6 4.2-2.6 4.8-4.9 2.1 1.3 4.7 1.3 7.1.3.1 0 .2 0 .3-.1.2-.1.4-.1.6-.2.2 0 .6-.1.9-.1.5 0 2 .3.1-.1.5.1.9.1 1.4.1.1 1.1 2.4-.5 3.2.3 1 .9.1 4.1 1.2 4.8-.3 1.1-.8 2.2-1.3 3.3-1 1.8-.6 3.5.3 4.7zm41.1-31.6c.1-.2.2-.4.4-.6.8-.7 0-2-1-1.7a9.4 9.4 0 0 0-3.5 2c-3.6-.5-6.8-.5-10.4.6-4.7 1.5-5.9 6-4.3 9.4-2 3.4-3.5 7.2-5.2 10.4-.2-.6-.8-1.1-1.4-.6-.4.3-.8.6-1.1 1-.2-.2-.4-.3-.7-.3-.4 0-.8.1-1.1.2-.8-.6-1.6-1.2-2.5-1.7-.1-.8-.2-1.5-.3-2.3-.3-1.4-4.3-1.4-5.7-1.7-1-.2.6-1.7-.2-1.8.6-3.3-1.4-7.4-5-8.1-4.4-.8-11.3 1.5-11.6 6v.3c-.3.2-.6.3-.8.5-.6.3-.1 1.2.5.9 0 0 .1 0 .1-.1-.9 2.4-3.3-3.2-3.7-1.6-1.6-1-3.6-1.4-5.6-.9-1.6.4-3.1.9-4.7 1.4-.7-4.3-4.9-7.5-8.8-9.1-3.5-1.4-6.8-.4-9.8 1.5-.1-.1-.3-.1-.5-.1-.7 0-1.4.2-2.1.5-.3-.8-.7-1.6-1.4-2.3 0-.2.1-.4 0-.6-.4-1.1-1.1-2-1.8-2.8 5.5-1.4 10.9-3 16.6-3.6 4.6-.5 12.2-2.6 16.2-.3 1.3.7 1.9 2.1 3.3 2.9 2.2 1.2 4.3.7 6.4-.3 1.1-.5 2.4-1.4 3.5-2.4 2.3.5 4.7.4 6.9-.7.2-.1.3-.2.5-.3.2.2.3.5.5.7l-.1.1c-1.2 1.1-1.1 3.1 0 4.2s2.8 1.1 4 .2c0 0-.1 0-.1.1 0 0 .1 0 .1-.1h.1c1.4.9 3.3 1.1 5 .1.8-.5 1.7-1 2.6-1.5 1.1 2.1 3.3 3.5 5.7 2.5.8-.3 1.5-.7 2.1-1 .8.3 1.7.2 2.6-.2 1.6-.8 3.2-1.5 4.1-3.1 2 .4 4.2.4 6.4 0 .9.6 1.9 1 3 1 2.7-.1 4.3 2.1 5.6 3.5-1.1-.2-1.9-.2-2.8-.2z"/>
      <path id="path17" d="m267.3 207.9-.2-.4c-1.7-3.5-6.9-.4-5.2 3l.2.4c1.7 3.5 6.9.4 5.2-3z"/>
    </g>
    <g id="Guard_cells_no_ABA" fill="#fff">
      <path id="path20" d="M534.2 147.6c-1.1-8.2-6.1-17-13.9-20.5-1-.4-2.2-.2-3 .5-3.5-1-7-1.4-10 1.4-.2.2-.3.4-.4.6-2.4-.3-4.1 1.2-5 3.5-1.4.1-2.1 1-2.2 2.1-1.1.2-2.1.9-2.1 2.4 0 5.7 6.2 16 13.4 21.8.3.3.6.7.9 1 .5.5 1 .7 1.5.8 5.4 3.5 11 3.9 14.4-2.8.7-1.3.2-2.8-1-3.5 1.1.3 2.5-.1 3.1-1.2 1.3.1 2.8-.7 2.8-2.4v-.8c.8-.5 1.7-1.5 1.5-2.9zm-13.7 5c-.3-.9-1.1-1.6-2.3-1.6h-.3v-.2c-.8-2.8-2.8-4.6-4.3-7.1-.7-1.1-1.7-1.4-2.7-1.1-.5-2.1-.8-4.4-1.3-6.5.8-.3 1.8-.7 2.7-1 .2.3.5.6.9.8 1.5.7 2.9 1.3 4.2 2.2.3.2.7.3 1 .4 1.2 1.3 2.3 2.8 3 4 1.9 2.9 3.6 6.5 3.5 10 0 1 .4 1.7 1 2-1.7-.6-3.6-1.2-5.4-1.9z"/>
      <path id="path22" d="M557.2 186.7c-1.5-2-3.8-3.1-6.6-3.4-.4-.7-1.1-1.3-2.1-1.3-3.2 0-7.4.3-10.9 1.5-.6-.3-1.3-.3-2.1.1-4.3 2.2-5.1 5.9-5.7 10.4-.1 1.1.4 1.8 1.1 2.1 0 .1 0 .2.1.3 1.5 5.3 6.2 7 11.1 7.6.8.9 1.9 1.5 3.3 1.4 1.9-.1 3.8-.5 5.5-1.2.9.1 1.8 0 2.8-.5 1-.5 1.8-1.2 2.4-1.9 1.1-.5 1.9-1.4 2.1-2.7.4-2.6.4-5.2 1-7.8.4-2-.6-3.7-2-4.6z"/>
      <path id="path24" d="M216.2 209.8c-.6-.3-1.1-.5-1.7-.7-2.5-1-4.6 1.2-7.3 1.1-4.5-.3-9.2-1.1-13.6-.4-3.8.6-5.8 5.2-4.9 8.6 1.1 4 4.8 5.5 8.6 4.9 3.9-.6 5.5-6.4 9.3-4.6 4.6 2.2 11.8 6.1 16.3 3.4 7.8-4.7.9-16.6-6.7-12.3z"/>
      <path id="path26" d="M313 213c1-2 1-3.3 4-4 3-.7 12.7-.3 15-.3 2.3 0 10 1.3 11.7 2 1.7.7 4 2.7 4 2.7l-1.7 6.3s-2 3.3-3.7 3.3c-1.7 0-9-3.3-10.3-3.3-1.3 0-5.3.7-7.3 1.7s-4.7 1.7-6.3 1.3c-1.7-.3-6-2.7-6-2.7z"/>
    </g>
    <g id="Guard_cells_with_100_uM_ABA" fill="#fff">
      <path id="path29" d="M534.2 305.6c-1.1-8.2-6.1-17-13.9-20.5-1-.4-2.2-.2-3 .5-3.5-1-7-1.4-10 1.4-.2.2-.3.4-.4.6-2.4-.3-4.1 1.2-5 3.5-1.4.1-2.1 1-2.2 2.1-1.1.2-2.1.9-2.1 2.4 0 5.7 6.2 16 13.4 21.8.3.3.6.7.9 1 .5.5 1 .7 1.5.8 5.4 3.5 11 3.9 14.4-2.8.7-1.3.2-2.8-1-3.5 1.1.3 2.5-.1 3.1-1.1 1.3.1 2.8-.7 2.8-2.4v-.8c.8-.6 1.7-1.6 1.5-3zm-13.7 5c-.3-.9-1.1-1.6-2.3-1.6h-.3v-.2c-.8-2.8-2.8-4.6-4.3-7.1-.7-1.1-1.7-1.4-2.7-1.1-.5-2.1-.8-4.4-1.3-6.5.8-.3 1.8-.7 2.7-1 .2.3.5.6.9.8 1.5.7 2.9 1.3 4.2 2.2.3.2.7.3 1 .4 1.2 1.3 2.3 2.8 3 4 1.9 2.9 3.6 6.5 3.5 10 0 1 .4 1.7 1 2-1.7-.6-3.6-1.2-5.4-1.9z"/>
      <path id="path31" d="M557.2 344.7c-1.5-2-3.8-3.1-6.6-3.4-.4-.7-1.1-1.3-2.1-1.3-3.2 0-7.4.3-10.9 1.5-.6-.3-1.3-.3-2.1.1-4.3 2.2-5.1 5.9-5.7 10.4-.1 1.1.4 1.8 1.1 2.1 0 .1 0 .2.1.3 1.5 5.3 6.2 7 11.1 7.6.8.9 1.9 1.5 3.3 1.4 1.9-.1 3.8-.5 5.5-1.2.9.1 1.8 0 2.8-.5 1-.5 1.8-1.2 2.4-1.9 1.1-.5 1.9-1.4 2.1-2.7.4-2.6.4-5.2 1-7.8.4-2-.6-3.7-2-4.6z"/>
      <path id="path33" d="M217.2 367.4c-.6-.3-1.1 1.5-1.7 1.3-2.5-1-4.6-1.8-7.3-1.9-4.5-.3-8.2-.1-12.6.6-3.8.6-6.8 4.2-5.9 7.6 1.1 4 4.8 5.5 8.6 4.9 3.9-.6 5.5-6.4 9.3-4.6 4.6 2.2 13.8 6.1 18.3 3.4 2.1-4-1-15.6-8.7-11.3z"/>
      <path id="path35" d="M314 370c1-2 1-3.3 4-4 3-.7 12.7-.3 15-.3 2.3 0 10 1.3 11.7 2 1.7.7 4 2.7 4 2.7l-1.7 6.3s-2 3.3-3.7 3.3c-1.7 0-9-3.3-10.3-3.3-1.3 0-5.3.7-7.3 1.7s-4.7 1.7-6.3 1.3c-1.7-.3-6-2.7-6-2.7z"/>
    </g>
    <g id="Mesophyll_cells_no_ABA_no_cordycepin_nor_actinomycin">
      <path id="path38" fill="#fff" d="M706.2 266c.2-.7.4-1.4.6-2.2.8-1.5 1.4-3 1.5-4.3 0-.5-.2-.9-.5-1.2.6-3.8.6-7.7 0-11.7-.2-1.6-2.2-1.3-2.8-.1-1-.2-2.2 0-3.3.3-4.5 1.1-7.1-1.3-11.2-2.2-1.5-.3-2.5 1.4-1.5 2.5v.1l-1.6-.5c-.2-.1-.4-.1-.6-.1-.3-.3-.7-.5-1.2-.6-1-.3-2.2-.1-3.1.4-1-.1-2.1-.2-3.1-.3-.5-.7-1.3-1.2-2.4-1.2-.9 0-1.6.3-2 .8-.2 0-.3 0-.5-.1-1.8-.2-1.9 2.4-.3 2.9.1.4.3.8.5 1.2-.1.2-.3.5-.4.8-.3.3-.4.8-.3 1.3-.4 3 .6 7.6 1.4 9.9-.1.4-.1.9-.2 1.4-2 .8-2.9 3.5-2 5.6v.5c0 1.1.4 2.3.7 3.3.8 2.4.6 5.4.8 8 .3 3.8 5.5 3.8 6 .1.3.3.5.4.5-.1 0 2.2 2.6 3.8 4.5 2.6 1-.7 2.1-2.2 3.2-1.9l.1.1c.7.7 1.5 1.3 2.2 2 1 1 2.6 1 3.5 0 .4-.4.7-1 .7-1.6.6-.5.9-1.2 1-2.1.3-.5.6-.9.9-1.4.7-.4 1.7-.6 2.4-.8.1 0 .2-.1.3-.1-.3.9-.7 1.8-1 2.7-.9 2.6 1.7 4.1 3.8 3.5 2.2-.1 3.1-2.1 2.7-3.8.1-.3.2-.7.4-1 .2-.1.3-.2.4-.4.8-.8 1-1.9.7-2.9l.6-2.1c.6-2.4.7-5.9-1.4-7.3z"/>
    </g>
    <g id="Mesophyll_cells_no_ABA_cordycepin_and_actinomycin_added_during_protoplasting">
      <path id="path41" fill="#fff" d="M660.2 266c.2-.7.4-1.4.6-2.2.8-1.5 1.4-3 1.5-4.3 0-.5-.2-.9-.5-1.2.6-3.8.6-7.7 0-11.7-.2-1.6-2.2-1.3-2.8-.1-1-.2-2.2 0-3.3.3-4.5 1.1-7.1-1.3-11.2-2.2-1.5-.3-2.5 1.4-1.5 2.5v.1l-1.6-.5c-.2-.1-.4-.1-.6-.1-.3-.3-.7-.5-1.2-.6-1-.3-2.2-.1-3.1.4-1-.1-2.1-.2-3.1-.3-.5-.7-1.3-1.2-2.4-1.2-.9 0-1.6.3-2 .8-.2 0-.3 0-.5-.1-1.8-.2-1.9 2.4-.3 2.9.1.4.3.8.5 1.2-.1.2-.3.5-.4.8-.3.3-.4.8-.3 1.3-.4 3 .6 7.6 1.4 9.9-.1.4-.1.9-.2 1.4-2 .8-2.9 3.5-2 5.6v.5c0 1.1.4 2.3.7 3.3.8 2.4.6 5.4.8 8 .3 3.8 5.5 3.8 6 .1.3.3.5.4.5-.1 0 2.2 2.6 3.8 4.5 2.6 1-.7 2.1-2.2 3.2-1.9l.1.1c.7.7 1.5 1.3 2.2 2 1 1 2.6 1 3.5 0 .4-.4.7-1 .7-1.6.6-.5.9-1.2 1-2.1.3-.5.6-.9.9-1.4.7-.4 1.7-.6 2.4-.8.1 0 .2-.1.3-.1-.3.9-.7 1.8-1 2.7-.9 2.6 1.7 4.1 3.8 3.5 2.2-.1 3.1-2.1 2.7-3.8.1-.3.2-.7.4-1 .2-.1.3-.2.4-.4.8-.8 1-1.9.7-2.9l.6-2.1c.6-2.4.7-5.9-1.4-7.3z"/>
    </g>
    <g id="Mesophyll_cells_with_100uM_ABA_cordycepin_and_actinomycin_added_during_protoplasting">
      <path id="path44" fill="#fff" d="M660.2 319c.2-.7.4-1.4.6-2.2.8-1.5 1.4-3 1.5-4.3 0-.5-.2-.9-.5-1.2.6-3.8.6-7.7 0-11.7-.2-1.6-2.2-1.3-2.8-.1-1-.2-2.2 0-3.3.3-4.5 1.1-7.1-1.3-11.2-2.2-1.5-.3-2.5 1.4-1.5 2.5v.1l-1.6-.5c-.2-.1-.4-.1-.6-.1-.3-.3-.7-.5-1.2-.6-1-.3-2.2-.1-3.1.4-1-.1-2.1-.2-3.1-.3-.5-.7-1.3-1.2-2.4-1.2-.9 0-1.6.3-2 .8-.2 0-.3 0-.5-.1-1.8-.2-1.9 2.4-.3 2.9.1.4.3.8.5 1.2-.1.2-.3.5-.4.8-.3.3-.4.8-.3 1.3-.4 3 .6 7.6 1.4 9.9-.1.4-.1.9-.2 1.4-2 .8-2.9 3.5-2 5.6v.5c0 1.1.4 2.3.7 3.3.8 2.4.6 5.4.8 8 .3 3.8 5.5 3.8 6 .1.3.3.5.4.5-.1 0 2.2 2.6 3.8 4.5 2.6 1-.7 2.1-2.2 3.2-1.9l.1.1c.7.7 1.5 1.3 2.2 2 1 1 2.6 1 3.5 0 .4-.4.7-1 .7-1.6.6-.5.9-1.2 1-2.1.3-.5.6-.9.9-1.4.7-.4 1.7-.6 2.4-.8.1 0 .2-.1.3-.1-.3.9-.7 1.8-1 2.7-.9 2.6 1.7 4.1 3.8 3.5 2.2-.1 3.1-2.1 2.7-3.8.1-.3.2-.7.4-1 .2-.1.3-.2.4-.4.8-.8 1-1.9.7-2.9l.6-2.1c.6-2.4.7-5.9-1.4-7.3z"/>
    </g>
    <g id="Mesophyll_cells_with_100uM_ABA_no_cordycepin_nor_actinomycin">
      <path id="path47" fill="#fff" d="M707.2 319c.2-.7.4-1.4.6-2.2.8-1.5 1.4-3 1.5-4.3 0-.5-.2-.9-.5-1.2.6-3.8.6-7.7 0-11.7-.2-1.6-2.2-1.3-2.8-.1-1-.2-2.2 0-3.3.3-4.5 1.1-7.1-1.3-11.2-2.2-1.5-.3-2.5 1.4-1.5 2.5v.1l-1.6-.5c-.2-.1-.4-.1-.6-.1-.3-.3-.7-.5-1.2-.6-1-.3-2.2-.1-3.1.4-1-.1-2.1-.2-3.1-.3-.5-.7-1.3-1.2-2.4-1.2-.9 0-1.6.3-2 .8-.2 0-.3 0-.5-.1-1.8-.2-1.9 2.4-.3 2.9.1.4.3.8.5 1.2-.1.2-.3.5-.4.8-.3.3-.4.8-.3 1.3-.4 3 .6 7.6 1.4 9.9-.1.4-.1.9-.2 1.4-2 .8-2.9 3.5-2 5.6v.5c0 1.1.4 2.3.7 3.3.8 2.4.6 5.4.8 8 .3 3.8 5.5 3.8 6 .1.3.3.5.4.5-.1 0 2.2 2.6 3.8 4.5 2.6 1-.7 2.1-2.2 3.2-1.9l.1.1c.7.7 1.5 1.3 2.2 2 1 1 2.6 1 3.5 0 .4-.4.7-1 .7-1.6.6-.5.9-1.2 1-2.1.3-.5.6-.9.9-1.4.7-.4 1.7-.6 2.4-.8.1 0 .2-.1.3-.1-.3.9-.7 1.8-1 2.7-.9 2.6 1.7 4.1 3.8 3.5 2.2-.1 3.1-2.1 2.7-3.8.1-.3.2-.7.4-1 .2-.1.3-.2.4-.4.8-.8 1-1.9.7-2.9l.6-2.1c.6-2.4.7-5.9-1.4-7.3z"/>
    </g>
    <g id="Guard_cells_no_ABA_cordycepin_and_actinomycin_added_during_protoplasting">
      <path id="path50" fill="#fff" d="M650 162.8c0-.3 0-.6-.1-.9-.4-1.6-2.1-2.4-3.7-2.1h-.8c-.5 0-.9-.1-1.4-.1-.5 0-1 .1-1.4.4-3.2-.4-6.3.2-8.8 2-1.1.8-1.4 1.9-1.2 3-2 1.1-3.3 3.6-1.9 6.1 2.9 5.3 12.2 18.5 19.7 13.1 1.7-1.2 2.7-3.2 2-5.2 1.1.3 2.3-.1 3-1.4 3-5.9-.3-11.6-5.4-14.9zm.2 11.9c-.3.6-.4 1.2-.3 1.7-1.1-.5-2.3-.6-3.4-.2-.2-.1-.4-.2-.5-.2-.9-.6-2-1.8-2.9-2.7-1.8-2-3.5-4.2-4.8-6.5 0 0 0-.1-.1-.1 2.6-.8 6.5-.1 9.2 1.6 0 1 .6 2 1.5 2.6.1 0 .1.1.2.1 0 .1.1.2.1.2 0-.1-.1-.1-.1-.2.3.7.8 1.3 1.5 1.6.1.7-.1 1.4-.4 2.1z"/>
    </g>
    <g id="Guard_cells_no_ABA_no_cordycepin_nor_actinomycin">
      <path id="path53" fill="#fff" d="M698 162.8c0-.3 0-.6-.1-.9-.4-1.6-2.1-2.4-3.7-2.1h-.8c-.5 0-.9-.1-1.4-.1-.5 0-1 .1-1.4.4-3.2-.4-6.3.2-8.8 2-1.1.8-1.4 1.9-1.2 3-2 1.1-3.3 3.6-1.9 6.1 2.9 5.3 12.2 18.5 19.7 13.1 1.7-1.2 2.7-3.2 2-5.2 1.1.3 2.3-.1 3-1.4 3-5.9-.3-11.6-5.4-14.9zm.2 11.9c-.3.6-.4 1.2-.3 1.7-1.1-.5-2.3-.6-3.4-.2-.2-.1-.4-.2-.5-.2-.9-.6-2-1.8-2.9-2.7-1.8-2-3.5-4.2-4.8-6.5 0 0 0-.1-.1-.1 2.6-.8 6.5-.1 9.2 1.6 0 1 .6 2 1.5 2.6.1 0 .1.1.2.1 0 .1.1.2.1.2 0-.1-.1-.1-.1-.2.3.7.8 1.3 1.5 1.6.1.7-.1 1.4-.4 2.1z"/>
    </g>
    <g id="Guard_cells_with_100uM_ABA_cordycepin_and_actinomycin_added_during_protoplasting">
      <path id="path56" fill="#fff" d="M649 201.8c0-.3 0-.6-.1-.9-.4-1.6-2.1-2.4-3.7-2.1h-.8c-.5 0-.9-.1-1.4-.1-.5 0-1 .1-1.4.4-3.2-.4-6.3.2-8.8 2-1.1.8-1.4 1.9-1.2 3-2 1.1-3.3 3.6-1.9 6.1 2.9 5.3 12.2 18.5 19.7 13.1 1.7-1.2 2.7-3.2 2-5.2 1.1.3 2.3-.1 3-1.4 3-5.9-.3-11.6-5.4-14.9zm.2 11.9c-.3.6-.4 1.2-.3 1.7-1.1-.5-2.3-.6-3.4-.2-.2-.1-.4-.2-.5-.2-.9-.6-2-1.8-2.9-2.7-1.8-2-3.5-4.2-4.8-6.5 0 0 0-.1-.1-.1 2.6-.8 6.5-.1 9.2 1.6 0 1 .6 2 1.5 2.6.1 0 .1.1.2.1 0 .1.1.2.1.2 0-.1-.1-.1-.1-.2.3.7.8 1.3 1.5 1.6.1.7-.1 1.4-.4 2.1z"/>
    </g>
    <g id="Guard_cells_with_100uM_ABA_no_cordycepin_nor_actinomycin">
      <path id="path59" fill="#fff" d="M698 201.8c0-.3 0-.6-.1-.9-.4-1.6-2.1-2.4-3.7-2.1h-.8c-.5 0-.9-.1-1.4-.1-.5 0-1 .1-1.4.4-3.2-.4-6.3.2-8.8 2-1.1.8-1.4 1.9-1.2 3-2 1.1-3.3 3.6-1.9 6.1 2.9 5.3 12.2 18.5 19.7 13.1 1.7-1.2 2.7-3.2 2-5.2 1.1.3 2.3-.1 3-1.4 3-5.9-.3-11.6-5.4-14.9zm.2 11.9c-.3.6-.4 1.2-.3 1.7-1.1-.5-2.3-.6-3.4-.2-.2-.1-.4-.2-.5-.2-.9-.6-2-1.8-2.9-2.7-1.8-2-3.5-4.2-4.8-6.5 0 0 0-.1-.1-.1 2.6-.8 6.5-.1 9.2 1.6 0 1 .6 2 1.5 2.6.1 0 .1.1.2.1 0 .1.1.2.1.2 0-.1-.1-.1-.1-.2.3.7.8 1.3 1.5 1.6.1.7-.1 1.4-.4 2.1z"/>
    </g>
  </g>
  <g id="Outlines" fill="none" stroke="#000" stroke-linecap="round" stroke-linejoin="round" stroke-miterlimit="10" transform="translate(-38.788 -29.814)">
    <g id="g493">
      <path id="path63" d="M493 178.7c-2.7-3.7-5.4-7.3-7.1-9.8-8.1-3.1-11 1.5-13.8 6.6-3-2.3-5.6-4.4-8.9-6.9-1.8 1.4-4.9 2.6-5.4 4.5-.9 3.4-.4 7.3-.2 11 .2 2.9 2.2 6.4 1.1 8.5-3.2 6.1.5 10.3 2.7 15 .8 1.7 2.5 2.9 3.9 4.6 1.3.3 2.7.5 4.3.9 1.8-1.2 3.7-2.5 5.3-3.6 5.7 3.6 11.2 7.1 16.1 10.2 11.2-5 10.9-6.7 22.9.6 2.3-1.4 5.1-2.5 6.9-4.5 3.3-3.7.2-10.8-5.2-12.4-1.5-.4-2.9-1-4.3-1.4"/>
      <path id="path65" d="M493 337c-2.7-3.7-5.4-7.3-7.2-9.8-8.1-3.1-10.9 1.6-13.7 6.6-3-2.3-5.6-4.4-8.9-6.9-1.8 1.4-4.9 2.6-5.4 4.5-.9 3.4-1 7.5-.1 10.9.9 3.5 1.9 6.6.4 10.2-.6 1.4-.9 3.4-.5 4.7 2.1 6.1 4.3 12.3 11.6 14.5 1.9-1.4 3.9-2.8 5.7-4 5.8 3.7 11.2 7.1 16.1 10.2 10.7-4.7 10.7-6.8 22.9.6 2.3-1.4 5.1-2.5 6.9-4.5 3.3-3.7.2-10.8-5.2-12.4-1.5-.4-2.9-1-4.3-1.4"/>
      <path id="path67" d="M578.4 125.5c.7 2.5 1.3 4.9 2 7.4-.5.1-.9.2-1.4.4 4.2 4 4.8 9 4 14.5-3.4 3.5-6 8.9-13.2 7.2-4.8-2.6-6.1-9.7-11.8-12.1-.5.4-1 .7-1.5 1.1.9 2.5 1.8 4.9 2.8 7.8-.6 1-1.3 2.2-2 3.3 1 2.5 2 4.9 3.1 7.6-1.1 1-2.2 1.9-3.3 2.8-2.5-1.3-4.6-2.4-6.9-3.6-.6 2.2-1.1 4.1-1.6 6.1-2.6-1.1-4.7-1.7-6.7-2.8-3.6-2.1-7.3-3.1-11.6-2-1.4.4-3.2-.8-4.8-1.3"/>
      <path id="path69" d="M578.4 283.8c.7 2.5 1.3 5 2 7.5-.5.1-.9.2-1.4.3 4.2 4 4.8 9 4 14.5-3.4 3.5-6 8.9-13.2 7.2-4.8-2.6-6.1-9.7-11.8-12.1-.5.4-1 .7-1.5 1.1.9 2.5 1.8 4.9 2.8 7.8-.6 1-1.3 2.2-2 3.3 1 2.5 2 4.9 3.1 7.6-1.1 1-2.2 1.9-3.3 2.8-2.5-1.3-4.6-2.4-6.9-3.6-.6 2.2-1.1 4.1-1.6 6.1-2.6-1.1-4.7-1.7-6.7-2.8-3.6-2.1-7.3-3.1-11.6-2-1.4.4-3.2-.8-4.8-1.3"/>
      <path id="path71" d="M180.3 207.5c-6.4-.3-12.8-.2-19.2-1.1-6.2-.8-8.5.2-10.1 6.3-.6 2.4-1.6 4.8-2.4 7.2 2 2.5 7.7 4.9 9.5 3.2 4.5-4.3 9.5-2.4 14.5-2.4 5.6 0 11.2-.4 16.8-.6v-9.3c-3.6-1.4-6.1-2.4-8.6-3.4"/>
      <path id="path73" d="M496.8 109.7c1-2.7 2.1-5.4 3.4-8.8-2-1.3-3.9-2.6-5.8-3.8-1.6 2.1-2.7 3.6-3.9 4.9-3.6 4.1-7.2 8.1-13.5 4-1-.6-3.6.8-5.1 1.8-1.3 1-1.8 2.9-3 4.2-3.1 3.5-4.9 8.1-10 9.8-1.8.6-3.2 2.8-5.1 4.7.9 3.4 1.1 7.2 2.8 9.9 3.3 5.1 1.2 10.3 1.3 15.4 0 1.3-.3 2.6-.5 3.8"/>
      <path id="path75" d="M496.8 267.9c1-2.7 2.1-5.4 3.4-8.8-2-1.3-3.9-2.6-5.8-3.8-1.6 2.1-2.7 3.6-3.9 4.9-3.6 4.1-7.2 8.1-13.5 4-1-.6-3.6.8-5.1 1.8-1.3 1-1.9 2.9-3 4.2-3.1 3.6-5.2 8.1-10 10.2-1.8.8-3.1 2.6-5.1 4.3.9 3.4 1.1 7.1 2.8 9.9 3.3 5.1 1.2 10.3 1.3 15.4 0 1.3-.3 2.6-.5 3.8"/>
      <path id="path77" d="M565.9 96.3c.6 3.2 3 4.1 5.8 3.8 9.9-1 9.9 2.4 9.6 10.1-1.5 1.3-2.9 2.6-4.3 3.9-.3.3-.4.9-.8 1.7 1.1 1.9 2.2 3.9 3.4 6-1.8 4-4.4 5.8-8.9 4.1-4-1.6-5.5-9-11.8-5.5.4 3.2.7 6.1 1.1 9.3-10.6 1-14.5-6.3-18.9-12.8-5.5-.8-11.2-.9-13.9-6.5-.9-4.5 2.2-6.1 5.2-6.3 4.1-.4 7-1.4 6.6-5.9-.3-4-2.3-7.1-7.6-8.2-4.7-1-8.9-.5-12.5 2.9-1.3 1.2-2.7 2.1-4.4 3.5-2.3-3.1-3.9-7.1-8.6-5.8-4 1.2-8.8 1.4-10.1 6.7"/>
      <path id="path79" d="M565.9 254.5c.6 3.2 3 4.1 5.8 3.8 9.9-1 9.9 2.4 9.6 10.1-1.5 1.3-2.9 2.6-4.3 3.9-.3.3-.4.9-.8 1.7 1.1 1.9 2.2 3.9 3.4 6-1.8 4-4.4 5.8-8.9 4.1-4-1.6-5.5-9-11.8-5.6.4 3.2.7 6.1 1.1 9.3-8.2.9-12.7-3.2-16.1-8.9-1.6-2.6-3.4-4.4-6.7-4.4-4.5 0-7.8-2.4-9.9-5.9-.9-4.5 2.2-6.1 5.2-6.3 4.1-.4 7-1.4 6.6-5.9-.3-4.1-2.3-7.1-7.6-8.2-4.7-1-8.9-.5-12.5 2.9-1.3 1.2-2.7 2.1-4.4 3.5-2.3-3.1-3.9-7.1-8.5-5.8-4 1.2-8.8 1.4-10.1 6.7"/>
      <path id="path81" d="M546.7 338.9c-4 .8-8.1 1.2-11.9 2.6-1.9.7-4.4 2.9-4.6 4.7-.3 3.6-.3 7.9 1.4 10.9 4.3 7.5 17.7 9.3 24.7 3.9 1.4-1.1 2.6-3 2.8-4.7.4-3.1.1-6.4.1-10.6 2.2-2.7 5.9-2.1 9.6-1.3 3.5.7 4.4 2.9 4 6.2-.1 1 1.2 2.2 1.8 3.3 3.7 6.4 2.5 12.6-1.5 18.2-3.6 5-8.6 8-15.3 6.3-4.9-1.2-9.9-2.2-14.9-3.3-6.4 3.8-6.4 3.8-12.5-1.6-3.3 1-5.6-.7-7.6-3.3"/>
      <path id="path83" d="M546.7 180.7c-4 .8-8.1 1.2-11.9 2.6-1.9.7-4.4 2.9-4.6 4.7-.3 3.6-.3 7.9 1.4 10.9 4.3 7.5 17.7 9.3 24.7 3.9 1.4-1.1 2.6-3 2.8-4.7.4-3.1.1-6.4.1-10.6 2.2-2.7 5.9-2.1 9.6-1.3 3.5.7 4.4 2.9 4 6.2-.1 1 1.2 2.2 1.8 3.3 3.7 6.4 2.5 12.6-1.5 18.2-3.6 5-8.6 8-15.3 6.3-4.9-1.2-9.9-2.2-14.9-3.3-6.4 3.8-6.4 3.8-12.5-1.6-3.3 1-5.6-.7-7.6-3.3"/>
      <path id="path85" d="M162.1 173c-3-.2-6.1-.5-9.9-.8-.9-2.9-2.3-6.3-2.9-9.8-.6-3.6 5.3-7.2 9.5-6.3 3.4.8 6.9 1.2 9.7 1.7 8.5-7.8 7.9-17.2 6.8-26-1-7.7-.2-15.1.2-22.6.3-5.9.1-11.8.1-18.3-3-.3-6.1-.8-9.1-.9-4-.2-8-.1-12 0-3.9 0-5.9 1.9-6.2 5.8-.1 1.3.1 2.6-.1 3.8-.2 1.3-.7 2.5-1.4 4.9 3.2.8 6.8 3 9 2 6.3-2.8 12.8-2.5 19.3-2.6"/>
      <path id="path87" d="M573.6 349c1.7.5 3.5 1.1 5.1 1.6 6.4-3.6 6.2-6.7-.8-15 3-1 3-1 10.5 2.4 4.5-3.2 5.1-4.6 2.3-8.6s0-6.9 1.1-10.1c.6-1.8 1.8-3.4 2.8-5-2.3-4.5-6.2-4.6-10-5.1-.8-.1-1.6-.3-2.4-.5"/>
      <path id="path89" d="M573.6 190.7c1.7.5 3.5 1.1 5.1 1.6 6.4-3.6 6.2-6.7-.8-15 2.6-1.2 2.6-1.2 10.5 2.4 4.5-3.2 5.1-4.6 2.3-8.6s0-6.9 1.1-10.1c.6-1.8 1.8-3.4 2.8-5-2.3-4.5-6.2-4.6-10-5.1-.8-.1-1.6-.3-2.4-.5"/>
      <path id="path91" d="M235.5 91c-.8-.2-1.7-.6-2.4-.4-7.8 1.7-15.2 1.1-22.6-2.2-2.4-1.1-6.2-.2-9 .9-5.3 2.1-10.4 1.8-15.4-.2-3.8-1.5-7-.7-10.1 1.5"/>
      <path id="path93" d="M312.2 187.9c-.8-1.1-1.6-2.2-2.6-3.5.5-1.5 1.1-3.1 1.7-4.6-.5-1.7-.9-3.3-1.5-5.3h-11.6c-.5-1.9-.9-3.3-1.3-4.8-5.8-4.6-12.6-4-17.8 2.1 1.4 2.5 2.5 5.6 4.5 7.9 2.3 2.6 6.5 2 9-.4 1.7-1.5 3.5-2.9 5.3-4.3"/>
      <path id="path95" d="M496.3 295.8c-1.6-.7-3.2-1.3-4.8-2-4.1.8-5.8 3.4-5.3 7.3.5 4.5-.8 7.3-5.2 9.2-4.4 1.9-5.4 5.1-4.5 9.8 1.5 2.1 2.7 3.7 3.9 5.4"/>
      <path id="path97" d="M496.3 137.5c-1.6-.7-3.2-1.4-4.8-2-4.1.8-5.8 3.4-5.3 7.3.5 4.5-.8 7.3-5.2 9.2-4.4 1.9-5.4 5.1-4.5 9.8 1.5 2.1 2.7 3.7 3.9 5.4"/>
      <path id="path99" d="M289.2 149c-2.4.8-4.8 1.7-7.2 2.4-1.7.5-3.4.6-5.8.9.6-8.4 1.1-15.9 1.7-24.4-3.6 0-6.2-.2-8.7.1-1.2.2-3.2 1.5-3.2 2.3 0 7.2-5.3 6.2-9.7 6.7-.3 0-.6.3-2 1-.3 3.3-.8 7.1-.8 11 0 3.5-1.4 4.7-4.9 4.9-3.2.2-6.4 1.8-9.6 2.2-3.1.4-6.4.1-9.6-.1-3 .2-6.2 1.1-9.1.5-4.3-.9-2.1-6-4.4-8 .4-2.2.6-4 1-5.7.4-1.8.9-3.5 1.2-4.6-.9-3-1.5-5.4-2.2-7.9"/>
      <path id="path101" d="M412.9 103c4.2-3.9 1.6-8.6 1.8-13.9h-27.3c-.5 3.7-1 6.8-1.5 9.8 8.1 7.6 17.9 3 27.1 5 .3 6.8.6 13.5.7 20.2 0 3-1.2 5.6-4.3 6.7-3 1.1-6.2 2.9-9.1-.4"/>
      <path id="path103" d="M661.3 318.8c.5 1.4 1.6 3 1.3 4.3-.8 4.1-2 8.2-3.3 13-1.2.1-3.5.4-5.7.6-.4-7.1-.7-14-1.1-21.3h-5.6"/>
      <path id="path105" d="M707.4 266c.5 1.4 1.6 3 1.3 4.3-.7 4.2-1.9 8.2-3.1 13-1.3.1-3.6.4-5.8.7-.4-7.1-.7-14-1.1-21.3h-5.6"/>
      <path id="path107" d="M661.3 266c.5 1.4 1.6 3 1.3 4.3-.7 4.2-1.9 8.2-3.1 13-1.3.1-3.6.4-5.8.7-.4-7.1-.7-14-1.1-21.3H647"/>
      <path id="path109" d="M707.4 318.8c.5 1.4 1.6 3 1.3 4.3-.8 4.1-2 8.2-3.3 13-1.2.1-3.5.4-5.7.6-.4-7.1-.7-14-1.1-21.3H693"/>
      <path id="path111" d="M404.8 208.5c-1.8-.5-3.5-1-5.3-1.4-4.3-1-7.1.1-12.2 4.5 1.1 2 2.3 4 3.5 6.2-.2 1.3-.4 2.7-.5 4-3.1.7-6.3 1.6-9.5 2-3.5.4-6.5 1.2-10.6-.9s-10.2-.9-15.3-.3c-3.1.3-6.1 2.3-8.6-1.1"/>
      <path id="path113" d="M192.3 104.4c-.2 5.3-.2 10.6-.5 15.8-.2 2.6-.8 5.2-1.3 8.7-5.3.5-10.1.9-15 1.4"/>
      <path id="path115" d="M364.9 118.3c-3.4.6-6.7 1.3-11.3 2.1-.4 3.2.2 7.3-1.4 10.2-2.3 4-2.1 8.3-1.8 12.1.3 3.9.4 7.4-.8 11.1"/>
      <path id="path117" d="M399.5 159.1c1-1.1 1.8-3 2.9-3.2 2.9-.6 6.1-.6 9.1-.8.3 4.2.9 8.2.9 12.2-.1 4.6-2.9 6.2-8 4.7-.4-4.3 1.2-9.7-4.1-12.1-2.4.1-4.4.2-7.1.4-1.4 1.5-3.1 3.3-4.7 5.2-1.8 2.1-1.9 4.2-.5 6.7 3.5 6.5 1.2 11.5-5.7 13.4-1.9.5-3.8 1.3-5.8 1.9-1.6-.6-3.2-1.3-4.8-1.9"/>
      <path id="path119" d="M224.9 212.8c.3 2.7.7 5.4 1 8.2-4.7 2.1-8.3 2.8-12.7-.8-3.8-3.1-9-1.3-13.2.8-3.8 2-7 1.5-10.1-1.1"/>
      <path id="path121" d="M654.6 177.3c2.1-7.6-1.9-12.8-7.3-17.2-1.3-1.1-3.7-1-5.7-1-4.8-.2-8.4 2.7-11.4 5.8-1.1 1.2-1.2 3.8-1 5.6.2 1.8 1.5 3.4 2.1 5.2 11.8 10.1 11.8 10.1 17 9.2h8.6"/>
      <path id="path123" d="M703.5 177.3c2.1-7.6-1.9-12.8-7.3-17.2-1.3-1.1-3.7-1-5.7-1-4.8-.2-8.4 2.7-11.4 5.8-1.1 1.2-1.2 3.8-1 5.6.2 1.8 1.5 3.4 2.1 5.2 11.8 10.1 11.8 10.1 17 9.2h8.6"/>
      <path id="path125" d="M703.5 216.6c2.1-7.6-1.9-12.8-7.3-17.2-1.3-1.1-3.7-1-5.7-1-4.8-.2-8.4 2.7-11.4 5.8-1.1 1.2-1.2 3.8-1 5.6.2 1.8 1.5 3.4 2.1 5.2 11.8 10.1 11.8 10.1 17.1 9.2h8.1"/>
      <path id="path127" d="M654.6 216.6c2.1-7.6-1.9-12.8-7.3-17.2-1.3-1.1-3.7-1-5.7-1-4.8-.2-8.4 2.7-11.4 5.8-1.1 1.2-1.2 3.8-1 5.6.2 1.8 1.5 3.4 2.1 5.2 11.8 10.1 11.8 10.1 17.1 9.2h8.1"/>
      <path id="path129" d="M346.2 211.8c-5.5-3.7-25.2-5-30.7-1.9-.8.4-1.3 1.2-1.9 1.9"/>
      <path id="path131" d="M370.7 212.3c-1.7-1.3-3.4-2.6-5.6-4.3-14.1-.4-13 .6-17.2 4.3-.9 3.7-.7 7.1-2.3 8.5-2.7 2.5-6.2 1.9-10 .4-3.1-1.2-7.4-1.3-10.4 0-4.5 2-8.2 1.4-12.5-.9-.1-2.1-.2-4.5-.3-6.9.3 0 .5-.1.8-.1l-3-3.3"/>
      <path id="path133" d="M341.4 103.9c-3.1-2.2-2-4.6-.5-7.2 2-3.6.4-8.6-2.8-9.5-1.3-.4-2.9-.1-4.3 0l-12 .9"/>
      <path id="path135" d="M350.1 132.2c-4.9-2.7-9.8-.4-10.5 5.3-.4 3.6-.6 7.4-.5 11 .1 3.5-1.1 6-4.4 7.2-3.5 1.3-7.2 2.7-10.1-1.4"/>
      <path id="path137" d="M699.7 267c2.4-.3 4.8-.7 7.5-1.1 2.9-6.5 1.4-12.8 1-19.8-3.4.3-6.4.5-9.4.7"/>
      <path id="path139" d="M653.6 267c2.4-.3 4.8-.7 7.5-1.1 2.9-6.5 1.4-12.8 1-19.8-3.4.3-6.4.5-9.4.7"/>
      <path id="path141" d="M699.7 319.7c2.4-.3 4.8-.7 7.5-1.1 2.9-6.5 1.4-12.8 1-19.8-3.4.3-6.4.5-9.4.7"/>
      <path id="path143" d="M529.9 185.5c-1.8-2-3.6-4.1-6.1-6.9-6.4 1.9-13.6 3.5-19.9 7.5.6 1.8 1.1 3.2 1.2 3.7 2.4 2.1 4.3 3.7 6.1 5.2"/>
      <path id="path145" d="M653.6 319.7c2.4-.3 4.8-.7 7.5-1.1 2.9-6.5 1.4-12.8 1-19.8-3.4.3-6.4.5-9.4.7"/>
      <path id="path147" d="M529.9 343.7c-1.8-2-3.6-4.1-6.1-6.9-6.4 1.9-13.6 3.5-19.9 7.5.6 1.8 1.1 3.2 1.2 3.7 2.4 2.1 4.3 3.7 6.1 5.2"/>
      <path id="path149" d="M150.6 106.8c-.6 5.1-1.3 10.2-1.9 15.3-.2 1.8-.4 3.5-.5 5.3-.1 3.5.7 6.5 4.8 7.2 4.9.8 7.7-.9 9.1-5.2.5-1.5 1.3-2.9 1.9-4.3"/>
      <path id="path151" d="M313.6 172c.2-2.6.4-5.1.6-7.6-6.2-4.7-14.7-2.8-17.4 3.8"/>
      <path id="path153" d="M528.5 313.5c4.3-2.4 6.6-7.4 4.7-12.4-2.3-5.8-5.1-11.5-10.9-14.9-5.2-3.1-13.6-1.4-17.2 4.1-2.8-4.7-5.5-9.2-8.2-13.6"/>
      <path id="path155" d="M528.5 155.2c4.3-2.4 6.6-7.4 4.7-12.4-2.3-5.8-5.1-11.5-10.9-14.9-5.2-3.1-13.6-1.4-17.2 4.1-2.8-4.7-5.5-9.2-8.2-13.6"/>
      <path id="path157" d="M395.6 206.1c-1.2-2.7-.8-5.2 1.4-7.2 2.9-2.6 5.9-5 9.1-7.8v28.8c-4.7.2-9.1 4.4-14.9 2.6"/>
      <path id="path159" d="M190.9 213.8c3.1-4.9 7.5-4.7 12.5-3.9 3.7.6 7.7.6 11.5 0s6.9-.2 9.2 2.1c6.1 1 12.1-2.9 17.7 1.4"/>
      <path id="path161" d="M204.8 173.5c2-2.1 3.7-4.2 7.2-4 2.5.2 5.2-5.5 4.8-9-.5-3.7-3.5-6.5-6.7-6.2-2.2.2-4.4.4-7 .6.5-3.9 1.4-7.1 1.1-10.2-.3-3.2-1.7-6.2-2.3-8.4-10.5-1.8-11.1 5.1-11.9 11.7-.2 1.7 0 3.5 0 5.3-4.1 1-7.8 1.8-12.2 2.8-3.9-.2-1.3-4.3-2.7-6.2"/>
      <path id="path163" d="M321.3 100.1c2 .4 4.1.8 7.1 1.4.1.3.5 1.6.6 3 .1 4.2 0 8.3 0 12.5 0 2.6.9 5.5-.2 7.6-2.4 4.7-1.6 9.1-1 14 .5 4.7-1.1 9.6-1.8 15-4.5.8-8.3 1.5-13.1 2.4 3.1-9.1 1.6-17.8 5.6-25.5"/>
      <path id="path165" d="M644.5 247.8c-2.1-.9-4.2-1.9-6.4-2.9-2.9 8.5-2 16.3-1.6 24 .3 5.7-.8 10.6-4.8 15.9-6.1-5.8-3.9-12.9-4.7-20.1l8.4-3"/>
      <path id="path167" d="M690.6 247.8c-2.1-.9-4.2-1.9-6.4-2.9-2.9 8.5-2 16.3-1.6 24 .3 5.7-.8 10.6-4.8 15.9-6.1-5.8-3.9-12.9-4.7-20.1l8.4-3"/>
      <path id="path169" d="M644.5 300.6c-2.1-.9-4.2-1.9-6.4-2.9-2.9 8.5-2 16.3-1.6 24 .3 5.7-.8 10.6-4.8 15.9-6.1-5.8-3.9-12.9-4.7-20.1l8.4-3"/>
      <path id="path171" d="M690.6 300.6c-2.1-.9-4.2-1.9-6.4-2.9-2.9 8.5-2 16.3-1.6 24 .3 5.7-.8 10.6-4.8 15.9-6.1-5.8-3.9-12.9-4.7-20.1l8.4-3"/>
      <path id="path173" d="M315.6 101.5c-5.1-2.5-9.6 1.1-15.6 1.4-1.5-2.6-3.4-5.8-5.1-8.8 1.5-4 4.6-5.4 8.3-5.5 5.9-.2 11.8 0 18.6 0-2.2 4.8 3.3 11.5-5.8 13.6-2.8 10.1-1.3 20.3.1 30.6"/>
      <path id="path175" d="M231.6 166.3c-5.2 1.2-8.2 4.6-9.5 10.2.7 1 1.7 2.4 2.4 3.3 7.4 3.1 11.4-1.8 16.2-5.7-1.7-4-2.9-7.9-8.1-7.8"/>
      <path id="path177" d="M232.6 181.1c2.7 4 1.1 7.7-.5 11.4-2.4.5-4.8.9-7.4 1.4-1.2 2-2.4 4.1-3.4 5.8 2.4 7 8.8 8.2 18.9 5.4"/>
      <path id="path179" d="M286.8 208.5c-8.1-1.5-15.8.8-23.5 2.9"/>
      <path id="path181" d="M282.5 199.8c-3.5 2.4-7 4.1-11.6 2.1-1.5-.7-3.8.3-5.2.5-1.3 2.3-2.3 4.2-3.4 6.1"/>
      <path id="path183" d="M411.9 130.8c2.2 2 2.1 4.6.9 6.7-3.1 5.4-2.2 11.1-2.3 16.8"/>
      <path id="path185" d="M262.3 198.4c.3-5.7 4.3-7.9 9.1-9 1.5-.3 3.2 0 4.8.5 1.8.5 3.7 1.4 5.3 2.4 3.3 2.1 2.1 5.2 1.3 8.3 5.7 4 6.4 9.9 6.4 16.2 0 3.8-2.7 4.5-5.3 4.7-11.3.8-22.7 1.3-34 2-3.3.2-6.2-.4-7.7-2.8v-8.3c1.9-1.1 3.4-1.9 4.8-2.7"/>
      <path id="path187" d="M508.8 158.1c1.9 1.1 3.8 2.3 5.8 3.3 5.7 2.9 9.8 1.6 14.6-5.3-1.6-1.1-3.2-2.6-5-3.3-7.9-2.8-13-8.1-14.8-16.4 8-2.5 16.8 6.6 15.8 16.3"/>
      <path id="path189" d="M320.3 193.6c-3.7 1.3-4.4 4.1-4.4 7.7 0 5.3-6.8 8.9-11.4 6.2"/>
      <path id="path191" d="M508.8 316.4c1.9 1.1 3.8 2.3 5.8 3.3 5.7 2.9 9.8 1.6 14.6-5.3-1.6-1.1-3.2-2.6-5-3.3-7.9-2.8-13-8.1-14.8-16.4 8-2.5 16.8 6.6 15.8 16.3"/>
      <path id="path193" d="M282 167.7c-3.3-9-8.2-10.9-20.4-7.5-.9 4.5-1.9 9.2-3 14.5 3.8.8 6.9 1.5 10.3 2.3 1.5-1.8 3.1-3.6 5.2-6 1.2.1 3.1.3 5 .5"/>
      <path id="path195" d="M341.4 88.1c3.1-1.6 6.1-.7 9.1.4 5.2 1.9 10.3 1.5 15.8.8 6.6-.8 13.4.7 20.1 1.1"/>
      <path id="path197" d="M238.3 102.5c-.7-3.7-1.3-7.4-2-11.4 4.6-4.9 10.4-1.8 15.9-1 3.6.5 7 1.5 10.6 2.3"/>
      <path id="path199" d="M225.4 106.3c1.1 4.3 1.7 8.9 3.5 12.9 2.1 4.7 1.7 8.2-2 11.6-.7.6-1 1.6-1.5 2.4"/>
      <path id="path201" d="M386.5 100.1c-2.3 1.1-4.6 2.3-6.9 3.4-.5-.2-1-.4-1.4-.6-.6 7.2-1.2 14.5-1.7 21.3-3 1-5.9 1.7-8.6 2.8-3.7 1.6-4.5 5-4.3 8.6.2 4.5.6 9 .9 13.4"/>
      <path id="path203" d="M364 150c-1.6 2.1-3.1 4.2-4.7 6.2h-4.4c-6.7 6.1-6.8 6.4-1.9 14.4 2.1.5 4.2 1 6.2 1.4"/>
      <path id="path205" d="M206.2 106.8c-.6 1.9-1.8 3.8-1.8 5.8-.1 5.1.2 10.2.4 15.3"/>
      <path id="path207" d="M279.6 105.9h-25c-2.9-2.4-7.4-1.7-11.8-2.3-7.4-1-14 2.2-21.2 1.9-2.7-.1-5.5 1.5-9 2.5 1.7 1.4 2.7 2.3 3.1 2.6.4 6.5.8 12.4 1.1 18.5h-11.7c-.8 1.8-2 4.4-3.2 7"/>
      <path id="path209" d="M301.6 103.5c.2 3.5.3 7 .5 10.6.2 4 .4 8 .5 12 .1 2.9-.3 5.8.1 8.6.6 4.6 1.7 9.2 2.7 14.5.4.2 1.7.7 3.3 1.4 1.7-1.1 3.6-2.3 5.5-3.5"/>
      <path id="path211" d="M240.7 133.2c.2 6.6.3 13.1.5 19.7 0 .3.3.6.5 1"/>
      <path id="path213" d="M264.2 201.8c-3.8-5.7-12.1-7-17.3-2.9-1.6 1.3-3.5 2.3-5.3 3.4"/>
      <path id="path215" d="M389.9 102.5c-2.4 2-2.6 4.7-1.4 7.2 2.2 4.5 4.1 8.9 1.5 14-.3.5.6 1.6.9 2.4"/>
      <path id="path217" d="M242.2 104.9c1.2 5.2-.1 10.3-.9 15.4-.2 1.7.3 3.5.4 5.3"/>
      <path id="path219" d="M258.5 167.2c-6.6.5-13.1 1-19.7 1.4"/>
      <path id="path221" d="M386 138.5c.3 3.4 1.1 6.8.9 10.1-.4 4.9-4.4 7.4-8.5 6.3-2.7-.7-3.8-2.5-3.3-4.8.8-3.9 2.2-7.7 3.3-11.5"/>
      <path id="path223" d="m502.6 131.3-6.3 6.6c2.7 7.7 4.7 15 11.6 19.3"/>
      <path id="path225" d="m502.6 289.5-6.3 6.6c2.7 7.7 4.7 15 11.6 19.3"/>
      <path id="path227" d="M163.5 105.4c-.2 3.8-.4 7.7-.4 11.5 0 2.6.3 5.1.4 7.2 5.1 2.5 7.5-.6 10.1-3.4"/>
      <path id="path229" d="M543.3 122.6c-.8 2.1-1.7 4.1-2.4 6.2-1.6 5.2-6.4 5.8-10.6 7.2"/>
      <path id="path231" d="M337.6 189.8c.6 1.3 1.2 2.6 1.9 3.8 2.3 3.6 1.7 5.8-1.4 10.1-2.5 3.4-5.1 1.8-7.7.8-1.1-.4-2.7-1.5-2.8-2.3-.2-3.1-2.5-4.1-4.4-5.8-1.2-1-1.8-2.7-2.4-4.3-.6-1.6-.9-3.3-1.3-4.7-6.7-.4-11.6 1.2-14.6 7.1-.9 1.9-2.8 3.2-4.2 4.8"/>
      <path id="path233" d="M543.3 280.9c-.8 2.1-1.7 4.1-2.4 6.2-1.7 5.1-6.2 6.1-10.6 7.2"/>
      <path id="path235" d="M160.7 133.7c1.1 7.5.5 14.8-3.4 21.6"/>
      <path id="path237" d="M366.9 208.5c2.6-3.9 5.2-7.7 8.2-12-2.1-1.9-3.7-3.3-5.3-4.8"/>
      <path id="path239" d="M223.5 193.6h-7.2c-3.8-.1-6.5 1.2-7.2 5.3-.1.5-.9 1-1.4 1.4-2.2-.7-4.4-1.4-7-2.2-3.2 5-7.2 6.5-12.8 3.8-1.9-.9-4.4-.5-6.8-.6-.3 2.3-.6 4-.9 5.8"/>
      <path id="path241" d="M191.8 189.8c-1-3.3-2.2-6.5-.5-10.1 3.4-7 9.5-8.5 16.5-3.7-.4 1.7-.8 3.4-1.3 5.4 3.5.7 6.9 1.5 10.2 2.2"/>
      <path id="path243" d="M296.4 100.6c-2 1-4.1 2-5.1 2.6-1.9 16.1 1.5 31.1-1.3 47 1.6 1.4 3.8 3.5 5.8 5.2 4.1-.7 7.7-1.2 8.8-5.4"/>
      <path id="path245" d="M265.2 135.6c2.9 5.6.8 11.5 1.4 17.3"/>
      <path id="path247" d="M386.5 170.6c-2.1-.8-4.1-1.7-6-2.5-5 1.1-7 4.8-8.9 8.7"/>
      <path id="path249" d="M218.7 137c.8-.5 1.6-.9 2.4-1.4 4.4-2.9 5.1-2.7 8.6.9v18.2"/>
      <path id="path251" d="M278.6 104.9c.3-1.8.4-3.6 1-5.3 1.7-4.4 1.3-6.7-3-8.5-2.8-1.2-5.1-4.6-9.1-2.1-5.1 3.2-6.2 5.4-4.2 12.1.3 1.2.9 2.2 1.4 3.4"/>
      <path id="path253" d="M360.6 156.2c4 2.6 7.9 5.3 4.8 11.5-.8.6-2.1 1.5-3.4 2.4"/>
      <path id="path255" d="M493 339.9c-.7 1.5-1.3 3.1-2 4.7 2.2 1.2 4 2.2 5.6 3.1 2.3-.6 4.4-1.1 6.5-1.6"/>
      <path id="path257" d="M359.7 190.3c-.1 3.8-.3 7.7-.4 11.5h-1.1c1 1.7 2 3.5 3 5.2"/>
      <path id="path259" d="M399.5 145.2c-.8 1.8-1.5 3.6-2.4 5.3-2.9 5.2-5.6 5.6-10.5 1.9"/>
      <path id="path261" d="M493 181.6c-.7 1.5-1.3 3.1-2 4.7 2.2 1.2 4 2.2 5.6 3.1 2.3-.6 4.4-1.1 6.5-1.6"/>
      <path id="path263" d="M362.5 171.6c2.6 1.9 5.3 3.7 7.6 5.8 1.1 1 2 2.9 1.9 4.2-.2 2.7-1.2 5.4-2.1 8.8-2.9-.2-6.1-.4-9.3-.6"/>
      <path id="path265" d="M353 103c.2 5.4.3 10.9.5 16.3"/>
      <path id="path267" d="M212.9 107.3c-9.2-2.1-18.1-5.5-27.8-3-2.9.7-6 .1-9.1.1"/>
      <path id="path269" d="M289.2 209.9c4.6-.8 9.2-1.5 15-2.5 2.2-3.7-2.7-6.1-4.6-8.4-5.7-6.7-8-6.8-15.2-2.6"/>
      <path id="path271" d="M176.5 190.3c2.9-6.6 1.3-12.7-1.6-18.6-11.7-2.2-17.2 3-15.1 14.3-.9 1.1-2 2.5-3.1 3.8 1.5 5 5.7 2.9 8.8 3.4"/>
      <path id="path273" d="M397.6 126h-.5c-2.2.6-5.7.6-6.4 2-1.4 2.7-1.4 6.2-1.6 9.5-.1 2.3 1.6 4.8-1 6.7"/>
      <path id="path275" d="M700.6 179.2c-9.9-4.1-11.5-5.6-13.9-12.9 2.3-.6 4.6-.6 5.7.5 3.1 3 7 5.7 5.3 11"/>
      <path id="path277" d="M651.7 179.2c-9.9-4.1-11.5-5.6-13.9-12.9 2.3-.6 4.6-.6 5.7.5 3.1 3 7 5.7 5.3 11"/>
      <path id="path279" d="M700.6 218.6c-9.9-4.1-11.5-5.6-13.9-12.9 2.3-.6 4.6-.6 5.7.5 3.1 3 7 5.7 5.3 11"/>
      <path id="path281" d="M386.5 210.9c-2.6-2.9-2.6-2.9-11.1-2.9-1.5 1.7-3.3 3.6-5 5.5l.9.3c-.2 2.8-.4 5.6-.6 8.3"/>
      <path id="path283" d="M651.7 218.6c-9.9-4.1-11.5-5.6-13.9-12.9 2.3-.6 4.6-.6 5.7.5 3.1 3 7 5.7 5.3 11"/>
      <path id="path285" d="M241.2 220.5c-5.1 2.9-10.2 5.2-15.8 1.4"/>
      <path id="path287" d="M263.8 222.4c-.3-3.7-.2-7.5-1.1-11-.8-2.7-8.1-4.1-12.8-2.9-5 1.2-8.7-1.1-9.1-5.8"/>
      <path id="path289" d="M150.1 134.1c-2.4 6.4-2.2 13-2.6 19.7 1.8 1.3 3.1 2.3 4.5 3.4"/>
      <path id="path291" d="M255.1 106.8c-1.9 5.6-2.5 11.1-.1 16.8.6 1.5-.7 3.8-.8 5.7-.1 2.4.3 4.8.4 7.2"/>
      <path id="path293" d="M198.5 158.1c-3.3 4.6-5.7 9.3-1.9 14.9"/>
      <path id="path295" d="M312.7 220.5c-1.7 1.5-3.1 2.5-5.8 1.1-2.7-1.4-5.9-.9-9.1.2-3.3 1.1-6.9 1.5-10-.8"/>
      <path id="path297" d="M389.4 173c2.6.8 5.1 1.8 7.7 2.4 2.8.6 5.2-.2 6.7-2.8"/>
      <path id="path299" d="M683.9 324.1c2.3-.1 4.5-.3 6.9-.4 1.1 3.1-.7 10.1-3.6 11.9-2.2 1.5-4.2.7-5.7-1.4"/>
      <path id="path301" d="M637.8 271.3c2.3-.1 4.5-.3 6.9-.4 1.1 3.1-.7 10.1-3.6 11.9-2.2 1.4-4.2.7-5.7-1.4"/>
      <path id="path303" d="M637.8 324.1c2.3-.1 4.5-.3 6.9-.4 1.1 3.1-.7 10.1-3.6 11.9-2.2 1.5-4.2.7-5.7-1.4"/>
      <path id="path305" d="M636.9 245.4h-9.6c-.2 0-.3.3-1 .8.3.6.6 1.4 1 2 1.6 2.2 2.1 4.4 1.6 7.2-.5 2.6.2 5.4.3 8.1"/>
      <path id="path307" d="M682.9 245.4h-9.6c-.2 0-.3.3-1 .8.3.6.6 1.4 1 2 1.6 2.2 2.1 4.4 1.6 7.2-.5 2.6.2 5.4.3 8.1"/>
      <path id="path309" d="M364.9 150c.3 1.4.6 2.9 1.1 5.1 1.7.3 3.6.6 5.4.9 1.1-1.7 2.1-3.1 3.1-4.5"/>
      <path id="path311" d="M636.9 298.2h-9.6c-.2 0-.3.3-1 .8.3.6.6 1.4 1 2 1.6 2.2 2.1 4.4 1.6 7.2-.5 2.6.2 5.4.3 8.1"/>
      <path id="path313" d="M399.5 104.4c.6 7.1 2.3 14.3-.6 19.2.4 8.1.7 14.4 1.1 20.6"/>
      <path id="path315" d="M682.9 298.2h-9.6c-.2 0-.3.3-1 .8.3.6.6 1.4 1 2 1.6 2.2 2.1 4.4 1.6 7.2-.5 2.6.2 5.4.3 8.1"/>
      <path id="path317" d="M683.9 271.3c2.3-.1 4.5-.3 6.9-.4 1.1 3.1-.7 10.1-3.6 11.9-2.2 1.4-4.2.7-5.7-1.4"/>
      <path id="path319" d="M541.9 324.1c.1 2.9-.3 5.6 1.7 8.3 1 1.3.2 4 .2 6.1"/>
      <path id="path321" d="M646 298.6c-.7 1.1-1.4 2.2-2.1 3.1 1.1 2.6 2.1 5 3 6.9-.7 5.1-1.3 9.8-1.9 14.4"/>
      <path id="path323" d="M692 298.6c-.7 1.1-1.4 2.2-2.1 3.1 1.1 2.6 2.1 5 3 6.9-.7 5.1-1.3 9.8-1.9 14.4"/>
      <path id="path325" d="M541.9 165.8c.1 2.9-.3 5.6 1.7 8.3 1 1.3.2 4 .2 6.1"/>
      <path id="path327" d="M692 245.9c-.7 1.1-1.4 2.1-2.1 3.1 1.1 2.6 2.1 5 3 6.9-.7 5.1-1.3 9.7-1.9 14.4"/>
      <path id="path329" d="M646 245.9c-.7 1.1-1.4 2.1-2.1 3.1 1.1 2.6 2.1 5 3 6.9-.7 5.1-1.3 9.7-1.9 14.4"/>
      <path id="path331" d="M182.7 193.6c1-1.3 1.9-2.6 2.7-3.6 4.8.3 9.5.5 14.6.8v7.6"/>
      <path id="path333" d="M552 252.1c-3.9 1.9-7.5 1.3-12-1.9-.5 1-1 1.9-1.4 2.9"/>
      <path id="path335" d="M552 93.9c-3.9 1.9-7.5 1.3-12-1.9-.5 1-1 1.9-1.4 2.9"/>
      <path id="path337" d="M253.7 122.6c-4 1.2-7.9 2.4-12.4 3.8.6 5.4-2.5 7.9-8.2 7.7"/>
      <path id="path339" d="M353 156.2c-1.1-.7-2.1-1.4-3.2-2.1v1c-3.4.9-6.8 1.9-10.3 2.5-5.4.9-8.4 7-6.2 13"/>
      <path id="path341" d="M329.5 102.5c4.6-.8 9.1-1.7 13.1-2.4-.8 4.4-1.4 7.9-2 11.5-.5 3.3-.7 6.8-1.5 10-1.1 4.2.6 7 3.4 9.6"/>
      <path id="path343" d="M222.5 91.9c.3 4.3.6 8.6 1 12.9"/>
      <path id="path345" d="m456.5 158.6-2.5 5c1.5 2.2 3.2 4.6 4.9 7"/>
      <path id="path347" d="M182.2 200.8c.2-1.9.4-3.9.6-6.1-5.4-4.7-10.5-6.7-17.4-1.7 1.2 4.2 2.6 8.6 3.9 13.1"/>
      <path id="path349" d="M376.5 125.5c.2 2.9.5 5.8.4 8.6 0 3.1 1.5 4.2 4.4 3.8 2.4-.3 4.8-.6 7.2-1"/>
      <path id="path351" d="m456.5 316.9-2.5 5c1.5 2.2 3.2 4.6 4.9 7"/>
      <path id="path353" d="M553.4 351.4c-2.6 2.4-5.6 2.9-8.6 1.4-2.9-1.5-5.7-1.8-8.7-.4"/>
      <path id="path355" d="M175 171.6c.8-2.1 1.8-4.1 2.3-6.2.5-2.1.3-4.3-2.3-5.3"/>
      <path id="path357" d="M342.9 178.3c-.6 1.6-1.3 3.2-1.9 4.8-.7 2-1.2 4.1-2.1 6.8-5.1-1.9-9.2-3.4-13.3-4.9"/>
      <path id="path359" d="M553.4 193.1c-2.6 2.4-5.6 2.9-8.6 1.4-2.9-1.5-5.7-1.8-8.7-.4"/>
      <path id="path361" d="M400.4 145.2c.2 2.1.4 4.2.4 6.2 0 1.6-.3 3.2-.4 4.8"/>
      <path id="path363" d="M362.1 102.5c5.7 5.9 3.7 13.2 3.9 20.1 0 1.6.3 3.2.5 4.8"/>
      <path id="path365" d="M268.1 177.3c-.2 4-.1 7.9 2.9 11"/>
      <path id="path367" d="M232.1 193.1c3.4 2.3 7.3 4 8.2 8.6"/>
      <path id="path369" d="M314.1 121.7c-3.1 2.4-6.8 2.9-10.5 2.9"/>
      <path id="path371" d="M698.7 276.6c-1.6 2.4-3.1 4.7-4.8 7.3-1.6-.9-2.7-1.4-3.8-2"/>
      <path id="path373" d="M698.7 329.3c-1.6 2.4-3.1 4.7-4.8 7.3-1.6-.9-2.7-1.4-3.8-2"/>
      <path id="path375" d="M284.9 181.1c-1 1.6-1.7 3.4-2.9 4.7-1.5 1.5-3.5 2.6-5.2 3.9"/>
      <path id="path377" d="M652.7 276.6c-1.6 2.4-3.1 4.7-4.8 7.3-1.6-.9-2.7-1.4-3.8-2"/>
      <path id="path379" d="M652.7 329.3c-1.6 2.4-3.1 4.7-4.8 7.3-1.6-.9-2.7-1.4-3.8-2"/>
      <path id="path381" d="M361.6 171.1c-1.1 1.6-2.5 3.1-3.3 4.8-.9 2.2-1.2 4.6-2 7.6.6 1.3 1.8 3.5 2.9 5.8"/>
      <path id="path383" d="M230.2 128.4c.6 2.4 1.2 4.9 2 8-.1.1-.8.6-1.5 1.1"/>
      <path id="path385" d="M642.1 245.4c.6-.5 1.4-1.5 1.9-1.3 1.5.4 2.8 1.3 4.4 2.1 2.7 4.8 8.2 9.5 2.8 16"/>
      <path id="path387" d="M688.2 245.4c.6-.5 1.4-1.5 1.9-1.3 1.5.4 2.8 1.3 4.4 2.1 2.7 4.8 8.2 9.5 2.8 16"/>
      <path id="path389" d="M688.2 298.2c.6-.5 1.4-1.5 1.9-1.3 1.5.4 2.8 1.3 4.4 2.1 2.7 4.8 8.2 9.5 2.8 16"/>
      <path id="path391" d="M642.1 298.2c.6-.5 1.4-1.5 1.9-1.3 1.5.4 2.8 1.3 4.4 2.1 2.7 4.8 8.2 9.5 2.8 16"/>
      <path id="path393" d="M223.5 180.2c-6.2 1-8.2 4.4-8.6 12.9"/>
      <path id="path395" d="M276.2 151.4c-7.6 2.1-15.1 4.5-23 1.9"/>
      <path id="path397" d="M235.9 157.2c-2.8 2.2-3.9 5.2-3.8 8.6"/>
      <path id="path399" d="M189.9 153.8c4.1 4.8 8.5 5.1 13.4 1"/>
      <path id="path401" d="M289.7 121.7c-3 .7-6 1.4-9.3 2.1-1.1 1.4-2.4 3-3.7 4.6"/>
      <path id="path403" d="M301.6 134.6c-3 .5-6.1 1-9.1 1.4"/>
      <path id="path405" d="M349.6 166.8c-2.9 2-5.9 4-9.1 6.2-2.2-.6-4.9-1.3-7.8-2.1-2.4 2.2-4.7 4.3-7.1 6.5"/>
      <path id="path407" d="M295.4 91c-5.7-4.1-10.5-1.2-15.3 1.9"/>
      <path id="path409" d="M310.8 174.4c1.9-1 3.8-2 5.5-2.9 3.1 2 6 3.8 9.1 5.8v6.7c.4.3.8.6 1.2 1-1.9 1.4-3.8 2.9-5.8 4.3"/>
      <path id="path411" d="M326.6 128.9c-2.2.2-4.5.4-6.7.4-1.3 0-2.6-.3-3.8-.4"/>
      <path id="path413" d="M338.1 117.8c-2.6.5-5.1 1-7.7 1.4"/>
      <path id="path415" d="M190.4 128.9c.6 2.6 1.3 5.1 1.9 7.7"/>
      <path id="path417" d="M206.7 182.6c-2.2 2.6-4.5 5.1-6.7 7.7"/>
      <path id="path419" d="m552.9 251.2 4.9-3.5c2.3 1.6 4.6 3.3 7 4.9"/>
      <path id="path421" d="M395.2 103.9c-1 3.6 2.3 4.6 3.8 6.7"/>
      <path id="path423" d="M290.1 103.9c-3.5.6-7 1.3-10.5 1.9"/>
      <path id="path425" d="m552.9 92.9 4.9-3.5c2.3 1.6 4.6 3.3 7 4.9"/>
      <path id="path427" d="M378.9 103c-3.7-4.5-7.8-2.7-11.8-1-.7 1.5-1.4 2.9-2.1 4.3"/>
      <path id="path429" d="M365.9 102.5c-4.3-1.5-8.6-1.5-13.1 0-2.6-1.8-5.5-3.2-8.9-1.9"/>
      <path id="path431" d="M554.9 184c-2.1-.8-4.2-1.6-6.2-2.4"/>
      <path id="path433" d="M372.1 90c.3 3.2.6 6.4 1 9.6"/>
      <path id="path435" d="M554.4 340.8c-1.9-.3-3.8-.6-5.8-1"/>
      <path id="path437" d="M677.1 206.1c-1.9-.2-3.8-.3-5.8-.5"/>
      <path id="path439" d="M628.2 206.1c-1.9-.2-3.8-.3-5.8-.5"/>
      <path id="path441" d="M631.1 155.7c.8 1.9 1.6 3.8 2.4 5.8"/>
      <path id="path443" d="M680 195.1c.8 1.9 1.6 3.8 2.4 5.8"/>
      <path id="path445" d="M680 155.7c.8 1.9 1.6 3.8 2.4 5.8"/>
      <path id="path447" d="M628.2 166.8c-1.9-.2-3.8-.3-5.8-.5"/>
      <path id="path449" d="M631.1 195.1c.8 1.9 1.6 3.8 2.4 5.8"/>
      <path id="path451" d="M677.1 166.8c-1.9-.2-3.8-.3-5.8-.5"/>
      <path id="path453" d="M649.8 299.1c4.2 1 4.6 1.7 2.9 5.8"/>
      <path id="path455" d="M695.8 299.1c4.2 1 4.6 1.7 2.9 5.8"/>
      <path id="path457" d="M215.3 149.5c-1.1 1.4-2.2 2.9-3.4 4.3"/>
      <path id="path459" d="M339.1 128.9c.3 1.6.6 3.2 1 4.8"/>
      <path id="path461" d="M649.8 246.4c4.2 1 4.6 1.7 2.9 5.8"/>
      <path id="path463" d="M695.8 246.4c4.2 1 4.6 1.7 2.9 5.8"/>
      <path id="path465" d="M260.4 155.2c.8 1.4 1.6 2.9 2.4 4.3"/>
      <path id="path467" d="M346.7 156.7c1 1.3 1.9 2.6 2.9 3.8"/>
      <path id="path469" d="M705.9 203.7c-1.3.5-2.6 1-3.8 1.4"/>
      <path id="path471" d="M657 203.7c-1.3.5-2.6 1-3.8 1.4"/>
      <path id="path473" d="M495.9 269.9v3.8"/>
      <path id="path475" d="M705.9 164.4c-1.3.5-2.6 1-3.8 1.4"/>
      <path id="path477" d="M657 164.4c-1.3.5-2.6 1-3.8 1.4"/>
      <path id="path479" d="M653.6 178.3c-1.3 1.8-2.6 3.5-3.8 5.3"/>
      <path id="path481" d="M702.6 178.3c-1.3 1.8-2.6 3.5-3.8 5.3"/>
      <path id="path483" d="M495.9 111.6v3.8"/>
      <path id="path485" d="M702.6 217.6c-1.3 1.8-2.6 3.5-3.8 5.3"/>
      <path id="path487" d="M653.6 217.6c-1.3 1.8-2.6 3.5-3.8 5.3"/>
      <path id="path489" d="M341.9 173.5c.8 1.1 1.6 2.2 2.4 3.4"/>
      <path id="path491" d="M170.7 156.7c1.1.8 2.2 1.6 3.4 2.4"/>
    </g>
    <path id="path495" d="M181.3 364.5c-6.4-.3-12.8-.2-19.2-1.1-6.2-.9-8.5.2-10.1 6.3-.6 2.4-1.6 4.8-2.4 7.2 2 2.5 7.7 4.9 9.5 3.2 4.5-4.3 9.5-2.4 14.5-2.4 5.6 0 11.2-.4 16.8-.6v-9.3c-3.6-1.4-6.1-2.4-8.6-3.4"/>
    <path id="path497" d="M163.1 330c-3-.2-6.1-.5-9.9-.8-.9-2.9-2.3-6.3-2.9-9.8-.6-3.6 5.3-7.2 9.5-6.3 3.4.8 6.9 1.2 9.7 1.7 8.5-7.8 7.9-17.2 6.8-26-1-7.7-.2-15 .2-22.6.3-5.9.1-11.8.1-18.3-3-.3-6.1-.8-9.1-.9-4-.2-8-.1-12 0-3.9 0-5.9 1.9-6.2 5.8-.1 1.3.1 2.6-.1 3.8-.2 1.3-.7 2.5-1.4 4.9 3.2.8 6.8 3 9 2 6.3-2.8 12.8-2.5 19.3-2.6"/>
    <path id="path499" d="M236.5 248c-.8-.2-1.7-.6-2.4-.4-7.8 1.7-15.2 1.1-22.6-2.2-2.4-1.1-6.2-.2-9 .9-5.3 2.1-10.4 1.8-15.4-.2-3.8-1.5-7-.7-10.1 1.5"/>
    <path id="path501" d="M313.2 344.9c-.8-1.1-1.6-2.2-2.6-3.5.5-1.5 1.1-3.1 1.7-4.6-.5-1.7-.9-3.3-1.5-5.3h-11.6c-.5-1.9-.9-3.3-1.3-4.8-5.8-4.6-12.6-4-17.8 2.1 1.4 2.5 2.5 5.6 4.5 7.9 2.3 2.6 6.5 2 9-.4 1.7-1.5 3.5-2.9 5.3-4.3"/>
    <path id="path503" d="M290.2 306c-2.4.8-4.8 1.7-7.2 2.4-1.7.5-3.4.6-5.8.9.6-8.4 1.1-15.9 1.7-24.4-3.6 0-6.2-.2-8.7.1-1.2.2-3.2 1.5-3.2 2.3 0 7.2-5.3 6.2-9.7 6.7-.3 0-.6.3-2 1-.3 3.3-.8 7.1-.8 11 0 3.5-1.4 4.7-4.9 4.9-3.2.2-6.4 1.8-9.6 2.2-3.1.4-6.4.1-9.6-.1-3 .2-6.2 1.1-9.1.5-4.3-.9-2.1-6-4.4-8 .4-2.2.6-4 1-5.7.4-1.8.9-3.5 1.2-4.6-.9-3-1.5-5.4-2.2-7.9"/>
    <path id="path505" d="M413.9 260c4.2-3.9 1.6-8.6 1.8-13.9h-27.3c-.5 3.7-1 6.8-1.5 9.8 8.1 7.6 17.9 3 27.1 5 .3 6.8.6 13.5.7 20.2 0 3-1.2 5.6-4.3 6.7-3 1.1-6.2 2.9-9.1-.4"/>
    <path id="path507" d="M405.8 365.5c-1.8-.5-3.5-1-5.3-1.4-4.3-1-7.1.1-12.2 4.5 1.1 2 2.3 4 3.5 6.2-.2 1.3-.4 2.7-.5 4-3.1.7-6.3 1.6-9.5 2-3.5.4-6.5 1.2-10.6-.9s-10.2-.9-15.3-.3c-3.1.3-6.1 2.3-8.6-1.1"/>
    <path id="path509" d="M193.3 261.4c-.2 5.3-.2 10.6-.5 15.8-.2 2.6-.8 5.2-1.3 8.7-5.3.5-10.1.9-15 1.4"/>
    <path id="path511" d="M365.9 275.3c-3.4.6-6.7 1.3-11.3 2.1-.4 3.2.2 7.3-1.4 10.2-2.3 4-2.1 8.3-1.8 12.1.3 3.9.4 7.4-.8 11.1"/>
    <path id="path513" d="M400.5 316.1c1-1.1 1.8-3 2.9-3.2 2.9-.6 6.1-.6 9.1-.8.3 4.2.9 8.2.9 12.2-.1 4.6-2.9 6.2-8 4.7-.4-4.3 1.2-9.7-4.1-12.1-2.4.1-4.4.2-7.1.4-1.4 1.5-3.1 3.3-4.7 5.2-1.8 2.1-1.9 4.2-.5 6.7 3.5 6.5 1.2 11.5-5.7 13.4-1.9.5-3.8 1.3-5.8 1.9-1.6-.6-3.2-1.3-4.8-1.9"/>
    <path id="path515" d="M225.9 369.8c.3 2.7.7 5.4 1 8.2-4.7 2.1-8.3 2.8-12.7-.8-3.8-3.1-9-1.3-13.2.8-3.8 2-7 1.5-10.1-1.1"/>
    <path id="path517" d="M347.2 368.8c-5.5-3.7-25.2-5-30.7-1.9-.8.4-1.3 1.2-1.9 1.9"/>
    <path id="path519" d="M371.7 369.3c-1.7-1.3-3.4-2.6-5.6-4.3-14.1-.4-13 .6-17.2 4.3-.9 3.7-.7 7.1-2.3 8.5-2.7 2.5-6.2 1.9-10 .4-3.1-1.2-7.4-1.3-10.4 0-4.5 2-8.2 1.4-12.5-.9-.1-2.1-.2-4.5-.3-6.9.3 0 .5-.1.8-.1l-3-3.3"/>
    <path id="path521" d="M342.4 260.9c-3.1-2.2-2-4.6-.5-7.2 2-3.6.4-8.6-2.8-9.5-1.3-.4-2.9-.1-4.3 0l-12 .9"/>
    <path id="path523" d="M351.1 289.2c-4.9-2.7-9.8-.4-10.5 5.3-.4 3.6-.6 7.4-.5 11 .1 3.5-1.1 6-4.4 7.2-3.5 1.3-7.2 2.7-10.1-1.4"/>
    <path id="path525" d="M151.6 263.8c-.6 5.1-1.3 10.2-1.9 15.3-.2 1.8-.4 3.5-.5 5.3-.1 3.5.7 6.5 4.8 7.2 4.9.8 7.7-.9 9.1-5.2.5-1.5 1.3-2.9 1.9-4.3"/>
    <path id="path527" d="M314.6 329c.2-2.6.4-5.1.6-7.6-6.2-4.7-14.7-2.8-17.4 3.8"/>
    <path id="path529" d="M396.6 363.1c-1.2-2.7-.8-5.2 1.4-7.2 2.9-2.6 5.9-5 9.1-7.8v28.8c-4.7.2-9.1 4.4-14.9 2.6"/>
    <path id="path531" d="M191.9 370.8c1.8-2.8 11.4-4.1 12.5-3.9 3.7.6 7.7 1.6 11.5 1 3.8-.6 6.9-1.2 9.2 1.1 6.1 1 12.1-2.9 17.7 1.4"/>
    <path id="path533" d="M205.8 330.5c2-2.1 3.7-4.2 7.2-4 2.5.2 5.2-5.5 4.8-9-.5-3.7-3.5-6.5-6.7-6.2-2.2.2-4.4.4-7 .6.5-3.9 1.4-7.1 1.1-10.2-.3-3.2-1.7-6.2-2.3-8.4-10.5-1.8-11.1 5.1-11.9 11.7-.2 1.7 0 3.5 0 5.3-4.1 1-7.8 1.8-12.2 2.8-3.9-.2-1.3-4.3-2.7-6.2"/>
    <path id="path535" d="M322.3 257.1c2 .4 4.1.8 7.1 1.4.1.3.5 1.6.6 3 .1 4.2 0 8.3 0 12.5 0 2.6.9 5.5-.2 7.6-2.4 4.7-1.6 9.1-1 14 .5 4.7-1.1 9.6-1.8 15-4.5.8-8.3 1.5-13.1 2.4 3.1-9.1 1.6-17.9 5.6-25.5"/>
    <path id="path537" d="M316.6 258.5c-5.1-2.5-9.6 1.1-15.6 1.4-1.5-2.6-3.4-5.8-5.1-8.8 1.5-4 4.6-5.4 8.3-5.5 5.9-.2 11.8 0 18.6 0-2.2 4.8 3.3 11.5-5.8 13.6-2.8 10.1-1.3 20.3.1 30.6"/>
    <path id="path539" d="M232.6 323.3c-5.2 1.1-8.2 4.6-9.5 10.2.7 1 1.7 2.4 2.4 3.3 7.4 3.1 11.4-1.8 16.2-5.7-1.7-4-2.9-7.9-8.1-7.8"/>
    <path id="path541" d="M233.6 338.1c2.7 4 1.1 7.7-.5 11.4-2.4.5-4.8.9-7.4 1.4-1.2 2-2.4 4.1-3.4 5.8 2.4 7 8.8 8.2 18.9 5.4"/>
    <path id="path543" d="M287.8 365.5c-8.1-1.5-15.8.8-23.5 2.9"/>
    <path id="path545" d="M283.5 356.9c-3.5 2.4-7 4.1-11.6 2.1-1.5-.7-3.8.3-5.2.5-1.3 2.3-2.3 4.2-3.4 6.1"/>
    <path id="path547" d="M412.9 287.8c2.2 2 2.1 4.6.9 6.7-3.1 5.4-2.2 11.1-2.3 16.8"/>
    <path id="path549" d="M263.3 355.4c.3-5.7 4.3-7.9 9.1-9 1.5-.3 3.2 0 4.8.5 1.8.5 3.7 1.4 5.3 2.4 3.3 2.1 2.1 5.2 1.3 8.3 5.7 4 6.4 9.9 6.4 16.2 0 3.8-2.7 4.5-5.3 4.7-11.3.8-22.7 1.3-34 2-3.3.2-6.2-.4-7.7-2.8v-8.3c1.9-1.1 3.4-1.9 4.8-2.7"/>
    <path id="path551" d="M321.3 350.6c-3.7 1.3-4.4 4.1-4.4 7.7 0 5.3-6.8 8.9-11.4 6.2"/>
    <path id="path553" d="M283 324.7c-3.3-9-8.2-10.9-20.4-7.5-.9 4.5-1.9 9.2-3 14.5 3.8.8 6.9 1.5 10.3 2.3 1.5-1.8 3.1-3.6 5.2-6 1.2.1 3.1.3 5 .5"/>
    <path id="path555" d="M342.4 245.1c3.1-1.6 6.1-.7 9.1.4 5.2 1.9 10.3 1.5 15.8.8 6.6-.8 13.4.7 20.1 1.1"/>
    <path id="path557" d="M239.3 259.5c-.7-3.7-1.3-7.4-2-11.4 4.6-4.9 10.4-1.8 15.9-1 3.6.5 7 1.5 10.6 2.3"/>
    <path id="path559" d="M226.4 263.3c1.1 4.3 1.7 8.9 3.5 12.9 2.1 4.7 1.7 8.2-2 11.6-.7.6-1 1.6-1.5 2.4"/>
    <path id="path561" d="M387.5 257.1c-2.3 1.1-4.6 2.3-6.9 3.4-.5-.2-1-.4-1.4-.6-.6 7.2-1.2 14.5-1.7 21.3-3 .9-5.9 1.7-8.6 2.8-3.7 1.6-4.5 5-4.3 8.6.2 4.5.6 9 .9 13.4"/>
    <path id="path563" d="M365 307c-1.6 2.1-3.1 4.2-4.7 6.2h-4.4c-6.7 6.1-6.8 6.4-1.9 14.4 2.1.5 4.2 1 6.2 1.4"/>
    <path id="path565" d="M207.2 263.8c-.6 1.9-1.8 3.8-1.8 5.8-.1 5.1.2 10.2.4 15.3"/>
    <path id="path567" d="M280.6 262.9h-25c-2.9-2.4-7.4-1.7-11.8-2.3-7.4-1-14 2.2-21.2 1.9-2.7-.1-5.5 1.5-9 2.5 1.7 1.4 2.7 2.3 3.1 2.6.4 6.5.8 12.4 1.1 18.5h-11.7c-.8 1.8-2 4.4-3.2 7"/>
    <path id="path569" d="M302.6 260.5c.2 3.5.3 7 .5 10.5.2 4 .4 8 .5 12 .1 2.9-.3 5.8.1 8.6.6 4.6 1.7 9.2 2.7 14.5.4.2 1.7.7 3.3 1.4 1.7-1.1 3.6-2.3 5.5-3.5"/>
    <path id="path571" d="M241.7 290.2c.2 6.6.3 13.1.5 19.7 0 .3.3.6.5 1"/>
    <path id="path573" d="M265.2 358.8c-3.8-5.7-12.1-7-17.3-2.9-1.6 1.3-3.5 2.3-5.3 3.4"/>
    <path id="path575" d="M390.9 259.5c-2.4 2-2.6 4.7-1.4 7.2 2.2 4.5 4.1 8.9 1.5 14-.3.5.6 1.6.9 2.4"/>
    <path id="path577" d="M243.2 261.9c1.2 5.2-.1 10.3-.9 15.4-.2 1.7.3 3.5.4 5.3"/>
    <path id="path579" d="M259.5 324.2c-6.6.5-13.1 1-19.7 1.4"/>
    <path id="path581" d="M387 295.5c.3 3.4 1.1 6.8.9 10.1-.4 4.9-4.4 7.4-8.5 6.3-2.7-.7-3.8-2.5-3.3-4.8.8-3.9 2.2-7.7 3.3-11.5"/>
    <path id="path583" d="M164.5 262.4c-.2 3.8-.4 7.7-.4 11.5 0 2.6.3 5.1.4 7.2 5.1 2.5 7.5-.6 10.1-3.4"/>
    <path id="path585" d="M338.6 346.8c.6 1.3 1.2 2.6 1.9 3.8 2.3 3.6 1.7 5.8-1.4 10.1-2.5 3.4-5.1 1.8-7.7.8-1.1-.4-2.7-1.5-2.8-2.3-.2-3.1-2.5-4.1-4.4-5.8-1.2-1-1.8-2.7-2.4-4.3-.6-1.6-.9-3.3-1.3-4.7-6.7-.4-11.6 1.2-14.6 7.1-.9 1.9-2.8 3.2-4.2 4.8"/>
    <path id="path587" d="M161.7 290.7c1.1 7.5.5 14.8-3.4 21.6"/>
    <path id="path589" d="M367.9 365.5c2.6-3.9 5.2-7.7 8.2-12-2.1-1.9-3.7-3.3-5.3-4.8"/>
    <path id="path591" d="M224.5 350.6h-7.2c-3.8-.1-6.5 1.2-7.2 5.3-.1.5-.9 1-1.4 1.4-2.2-.7-4.4-1.4-7-2.2-3.2 5-7.2 6.5-12.8 3.8-1.9-.9-4.4-.5-6.8-.6-.3 2.3-.6 4-.9 5.8"/>
    <path id="path593" d="M192.8 346.8c-1-3.3-2.2-6.5-.5-10.1 3.4-7 9.5-8.5 16.5-3.7-.4 1.7-.8 3.4-1.3 5.4 3.5.7 6.9 1.5 10.2 2.2"/>
    <path id="path595" d="M297.4 257.6c-2 1-4.1 2-5.1 2.6-1.9 16.1 1.5 31.1-1.3 47 1.6 1.4 3.8 3.5 5.8 5.2 4.1-.7 7.7-1.2 8.8-5.4"/>
    <path id="path597" d="M266.2 292.6c2.9 5.6.8 11.5 1.4 17.3"/>
    <path id="path599" d="M387.5 327.6c-2.1-.8-4.1-1.7-6-2.5-5 1.1-7 4.8-8.9 8.7"/>
    <path id="path601" d="M219.7 294c.8-.5 1.6-.9 2.4-1.4 4.4-2.9 5.1-2.7 8.6.9v18.2"/>
    <path id="path603" d="M279.6 261.9c.3-1.8.4-3.6 1-5.3 1.7-4.4 1.3-6.7-3-8.5-2.8-1.2-5.1-4.6-9.1-2.1-5.1 3.2-6.2 5.4-4.2 12.1.3 1.2.9 2.2 1.4 3.4"/>
    <path id="path605" d="M361.6 313.2c4 2.6 7.9 5.3 4.8 11.5-.8.6-2.1 1.5-3.4 2.4"/>
    <path id="path607" d="M360.7 347.3c-.1 3.9-.3 7.7-.4 11.5h-1.1c1 1.7 2 3.5 3 5.2"/>
    <path id="path609" d="M400.5 302.2c-.8 1.8-1.5 3.6-2.4 5.3-2.9 5.2-5.6 5.6-10.5 1.9"/>
    <path id="path611" d="M363.5 328.6c2.6 1.9 5.3 3.7 7.6 5.8 1.1 1 2 2.9 1.9 4.2-.2 2.7-1.2 5.4-2.1 8.8-2.9-.2-6.1-.4-9.3-.6"/>
    <path id="path613" d="M354 260c.2 5.4.3 10.9.5 16.3"/>
    <path id="path615" d="M213.9 264.3c-9.2-2.1-18.1-5.5-27.8-3-2.9.7-6 .1-9.1.1"/>
    <path id="path617" d="M290.2 366.9c4.6-.8 9.2-1.5 15-2.5 2.2-3.7-2.7-6.1-4.6-8.4-5.7-6.7-8-6.8-15.2-2.6"/>
    <path id="path619" d="M177.5 347.3c2.9-6.6 1.3-12.7-1.6-18.6-11.7-2.2-17.2 3-15.1 14.3-.9 1.1-2 2.5-3.1 3.8 1.5 5 5.7 2.9 8.8 3.4"/>
    <path id="path621" d="M398.6 283h-.5c-2.2.6-5.7.6-6.4 2-1.4 2.7-1.4 6.2-1.6 9.5-.1 2.3 1.6 4.8-1 6.7"/>
    <path id="path623" d="M387.5 367.9c-2.6-2.9-2.6-2.9-11.1-2.9-1.5 1.7-3.3 3.6-5 5.5l.9.3-.6 8.4"/>
    <path id="path625" d="M242.2 377.5c-5.1 2.9-10.2 5.2-15.8 1.4"/>
    <path id="path627" d="M264.8 379.4c-.3-3.7-.2-7.5-1.1-11-.8-2.7-8.1-4.1-12.8-2.9-5 1.2-8.7-1.1-9.1-5.8"/>
    <path id="path629" d="M151.1 291.1c-2.4 6.4-2.2 13-2.6 19.6 1.8 1.3 3.1 2.4 4.5 3.4"/>
    <path id="path631" d="M256.1 263.8c-1.9 5.6-2.5 11.1-.1 16.8.6 1.5-.7 3.8-.8 5.7-.1 2.4.3 4.8.4 7.2"/>
    <path id="path633" d="M199.5 315.1c-3.3 4.6-5.7 9.3-1.9 14.9"/>
    <path id="path635" d="M313.7 377.5c-1.7 1.5-3.1 2.5-5.8 1.1-2.7-1.4-5.9-.9-9.1.2-3.3 1.1-6.9 1.5-10-.8"/>
    <path id="path637" d="M390.4 330c2.6.8 5.1 1.8 7.7 2.4 2.8.6 5.2-.2 6.7-2.8"/>
    <path id="path639" d="M365.9 307c.3 1.4.6 2.9 1.1 5.1 1.7.3 3.6.6 5.4.9 1.1-1.7 2.1-3.1 3.1-4.5"/>
    <path id="path641" d="M400.5 261.4c.6 7.1 2.3 14.3-.6 19.2.4 8.1.7 14.4 1.1 20.6"/>
    <path id="path643" d="M183.7 350.6c1-1.3 1.9-2.6 2.7-3.6 4.8.3 9.5.5 14.6.8v7.6"/>
    <path id="path645" d="M254.7 279.6c-4 1.2-7.9 2.4-12.4 3.8.6 5.4-2.5 7.9-8.2 7.7"/>
    <path id="path647" d="M354 313.2c-1.1-.7-2.1-1.4-3.2-2.1v1c-3.4.9-6.8 1.9-10.3 2.5-5.4.9-8.4 7-6.2 13"/>
    <path id="path649" d="M330.5 259.5c4.6-.8 9.1-1.7 13.1-2.4-.8 4.4-1.4 7.9-2 11.5-.5 3.3-.7 6.8-1.5 10-1.1 4.2.6 7 3.4 9.6"/>
    <path id="path651" d="M223.5 248.9c.3 4.3.6 8.6 1 12.9"/>
    <path id="path653" d="M183.2 357.8c.2-1.9.4-3.9.6-6.1-5.4-4.7-10.5-6.7-17.4-1.7 1.2 4.2 2.6 8.6 3.9 13.1"/>
    <path id="path655" d="M377.5 282.5c.2 2.9.5 5.8.4 8.6 0 3.1 1.5 4.2 4.4 3.8 2.4-.3 4.8-.6 7.2-1"/>
    <path id="path657" d="M176 328.6c.8-2.1 1.8-4.1 2.3-6.2.5-2.1.3-4.3-2.3-5.3"/>
    <path id="path659" d="M343.9 335.3c-.6 1.6-1.3 3.2-1.9 4.8-.7 2-1.2 4.1-2.1 6.8-5.1-1.9-9.2-3.4-13.3-4.9"/>
    <path id="path661" d="M401.4 302.2c.2 2.1.4 4.2.4 6.2 0 1.6-.3 3.2-.4 4.8"/>
    <path id="path663" d="M363.1 259.5c5.7 5.9 3.7 13.2 3.9 20.1 0 1.6.3 3.2.5 4.8"/>
    <path id="path665" d="M269.1 334.3c-.2 4-.1 7.9 2.9 11"/>
    <path id="path667" d="M233.1 350.1c3.4 2.3 7.3 4 8.2 8.6"/>
    <path id="path669" d="M315.1 278.7c-3.1 2.4-6.8 2.9-10.6 2.9"/>
    <path id="path671" d="M285.9 338.1c-1 1.6-1.7 3.4-2.9 4.7-1.5 1.5-3.5 2.6-5.2 3.9"/>
    <path id="path673" d="M362.6 328.1c-1.1 1.6-2.5 3.1-3.3 4.8-.9 2.2-1.2 4.6-2 7.6.6 1.3 1.8 3.5 2.9 5.8"/>
    <path id="path675" d="M231.2 285.4c.6 2.4 1.2 4.9 2 8-.1.1-.8.6-1.5 1.1"/>
    <path id="path677" d="M224.5 337.2c-6.2 1-8.2 4.4-8.6 12.9"/>
    <path id="path679" d="M277.2 308.4c-7.6 2.1-15.1 4.5-23 1.9"/>
    <path id="path681" d="M236.9 314.2c-2.8 2.2-3.9 5.2-3.8 8.6"/>
    <path id="path683" d="M190.9 310.8c4.1 4.8 8.5 5.1 13.4 1"/>
    <path id="path685" d="M290.7 278.7c-3 .7-6 1.4-9.3 2.1-1.1 1.4-2.4 3-3.7 4.6"/>
    <path id="path687" d="M302.6 291.6c-3 .5-6.1 1-9.1 1.4"/>
    <path id="path689" d="M350.6 323.8c-2.9 2-5.9 4-9.1 6.2-2.2-.6-4.9-1.3-7.8-2.1-2.4 2.2-4.7 4.3-7.1 6.5"/>
    <path id="path691" d="M296.4 248c-5.7-4.1-10.5-1.2-15.3 1.9"/>
    <path id="path693" d="M311.8 331.4c1.9-1 3.8-2 5.5-2.9 3.1 2 6 3.8 9.1 5.8v6.7c.4.3.8.6 1.2 1-1.9 1.4-3.8 2.9-5.8 4.3"/>
    <path id="path695" d="M327.6 285.9c-2.2.2-4.5.4-6.7.4-1.3 0-2.6-.3-3.8-.4"/>
    <path id="path697" d="M339.1 274.8c-2.6.5-5.1 1-7.7 1.4"/>
    <path id="path699" d="M191.4 285.9c.6 2.6 1.3 5.1 1.9 7.7"/>
    <path id="path701" d="M207.7 339.6c-2.2 2.6-4.5 5.1-6.7 7.7"/>
    <path id="path703" d="M396.2 260.9c-1 3.6 2.3 4.6 3.8 6.7"/>
    <path id="path705" d="M291.1 260.9c-3.5.6-7 1.3-10.5 1.9"/>
    <path id="path707" d="M379.9 260c-3.7-4.5-7.8-2.7-11.8-1-.7 1.5-1.4 2.9-2.1 4.3"/>
    <path id="path709" d="M366.9 259.5c-4.3-1.5-8.6-1.5-13.1 0-2.6-1.8-5.5-3.2-8.9-1.9"/>
    <path id="path711" d="M373.1 247c.3 3.2.6 6.4 1 9.6"/>
    <path id="path713" d="M216.3 306.5c-1.1 1.4-2.2 2.9-3.4 4.3"/>
    <path id="path715" d="M340.1 285.9c.3 1.6.6 3.2 1 4.8"/>
    <path id="path717" d="M261.4 312.2c.8 1.4 1.6 2.9 2.4 4.3"/>
    <path id="path719" d="M347.7 313.7c1 1.3 1.9 2.6 2.9 3.8"/>
    <path id="path721" d="M342.9 330.5c.8 1.1 1.6 2.2 2.4 3.4"/>
    <path id="path723" d="M171.7 313.7c1.1.8 2.2 1.6 3.4 2.4"/>
  </g>
  <g id="labels" font-family="Helvetica" font-size="10" transform="translate(-38.788 -29.814)">
    <text id="text726" transform="translate(42.714 156.5)">Water Spray</text>
    <text id="text728" transform="translate(46.599 168.5)">for 4 hours</text>
    <text id="text730" transform="translate(42.429 310.5)">100 um ABA</text>
    <text id="text732" transform="translate(46.599 322.5)">for 4 hours</text>
    <text id="text734" transform="translate(232.697 421.5)">Cross Section of Leaf</text>
    <text id="text736" transform="translate(472.362 421.5)">Surface View of Leaf</text>
    <text id="text738" transform="translate(637.608 131.5)">with</text>
    <text id="text740" transform="translate(675.658 131.5)">without</text>
    <text id="text742" transform="translate(726.5 132.5)">Actinomycin and Cordycepin</text>
    <text id="text744" transform="translate(726.5 174.5)">GCs without ABA treatment</text>
    <text id="text746" transform="translate(726.5 215.5)">GCs with ABA treatment</text>
    <text id="text748" transform="translate(726.5 269.5)">Mesophyll cells without ABA</text>
    <text id="text750" transform="translate(726.5 319.5)">Mesophyll cells with ABA</text>
  </g>
</svg>