<svg xmlns="http://www.w3.org/2000/svg" xml:space="preserve" id="TissueSpecificMicrogametogenesis_svg" x="0" y="0" version="1.1" viewBox="80 70 750 300" author="Provart Lab - Bio Analytic Resource, University of Toronto">
  <g id="Samples" fill="#FFF">
    <g id="Uninucleate_Microphore">
      <path d="m170 240-6-1a4 4 0 0 0-3 1c-1-2-3-3-5-2a5 5 0 0 0-1-1c-2-5-5-8-6-13l-4-13c-2-6-11-3-9 2a141 141 0 0 1 5 15c1 5 4 9 6 13 1 2 3 3 5 2 0 2 2 4 4 4 1 1-2-2 0 0h5a4 4 0 0 0 3 1l3 1h3c3 0 5-2 5-4 0-3-2-5-5-5z"/>
      <path d="M168 249c1 0 1 0 0 0zm63-41c-1-4-3-10-6-13h-9v-1l-4-2-1-6a6 6 0 0 0 0-2c5 5 9 4 8-4-1-6-3-12-7-16-4-3-10-4-15-6-4-3-10-3-15-4-6-1-11-1-16 2a5 5 0 0 0-1 0l-3 1c-7 2-12 6-15 13-2 2-3 6-4 9v16a46 46 0 0 1 5 4l1 1-2 2-1 2a5 5 0 0 0 0 1h-2c-2-1-5-2-6 0-2 2-2 5 0 7l5 2h1c-1 6 2 13 5 19s10 9 16 8c1 2 4 4 7 2l3-1c1-2 5-1 6-1l4 4h1c-3 4 1 10 5 7l1 1h3l5 1c6 0 11-4 16-6 5-3 7-7 10-12 2-4 5-9 5-13a5 5 0 0 0-1-2l1-3v-10z"/>
    </g>
    <path id="Bicellular_Pollen" d="M387 216a3 3 0 0 0-1-1l1-6v-14c0-3-4-4-6-3l-3-3a4 4 0 0 0-1-1 5 5 0 0 0-1 0 25 25 0 0 1 0-2l-1-3a4 4 0 0 0 0-1v-2c5 0 5-7 1-8-1-9-10-15-17-19l-5-3a5 5 0 0 0-2 0l-3-1-2 1h-1c-5-2-10-1-15-2l-4 2c-6 1-14 3-18 8a23 23 0 0 0-1 2 4 4 0 0 0-2 0l-3 4-1 1c-3 1-3 4-2 7 1 2 3 2 5 2l-1 2-1 3-2 1-6 1-4 1-2-1c-2 0-3 3-3 5a17 17 0 0 0-2 16v3l1 12v2l2 6 2 3c0 4 1 7 4 9v2c1 4 3 8 6 11l9 8 6 2a16 16 0 0 0 2 1c2 2 5 3 8 3l4 1c6 0 10-3 10-8 2-1 1-5 5-5l4-2a13 13 0 0 0 1 1l2 2c0 2 1 4 4 4h1a11 11 0 0 0 9-1l2-1 7-4v-1l1-1c5-4 9-10 11-16a3 3 0 0 0 0-3v-1a30 30 0 0 0 2-4v-9zm-52-53c-3-3-1-3 0 0z"/>
    <path id="Tricellular_Pollen" d="M572 223v-14a5 5 0 0 0-1-2v-1c0-2-2-3-4-4l-3-4a30 30 0 0 0 0-2l2-4 1-2 1-1a6 6 0 0 0 1-6 9 9 0 0 0 0-2l-1-4-1-3-5-14a46 46 0 0 0-45-20 22 22 0 0 0-1-1c-5-1-10-1-14 1h-16c-6 1-10 3-13 7a10 10 0 0 0-4 1l-5 4-1 3c-3 3-3 8 0 11a8 8 0 0 0 2 1l1 7-2 2a4 4 0 0 0-1 1h-5c-3 0-5 3-4 6l-1 4 1 3-1 6 1 20c1 9 3 17 7 26 4 10 13 20 24 23 5 4 12 7 16 3 2-2 2-4 2-6a22 22 0 0 0 1-1h8a22 22 0 0 0 5 1l1 1c-2 4 0 9 5 9l12-1c4 0 8-2 10-5a23 23 0 0 0 5-4c6-2 12-6 15-12l2-2a25 25 0 0 0 5-10v-12a24 24 0 0 0 0-3z"/>
    <g id="Mature_Pollen_Grain">
      <path d="M699 163h-6c-2 1-3 3-3 5-2 2-3 4-1 6 1 2 4 3 6 2l7-6c2-2 0-7-4-7z"/>
      <path d="M765 202v-5l1-1v-15a10 10 0 0 0 0-1v-1c0-3-3-6-6-6h-3l-3-5-1-5 1-3 3-2c6-7-1-17-5-24l-9-11c-5-6-11-10-17-15-1-2-4-2-5-2a52 52 0 0 0-7-2 77 77 0 0 1-2-2h-6l-19-1c-11 0-21 4-29 11a36 36 0 0 0-3 3c-2 0-3 1-4 3l-5 7-6 8a43 43 0 0 0-6 13l-1 2c-2 1-2 3-2 4v6l2 3c1 2 3 3 5 3a90 90 0 0 0 1 8h-1c3-1-3 7-2 4a27 27 0 0 0-2 2h-1c-3 0-5 3-5 6l-1 2a6 6 0 0 0 1 1 21 21 0 0 0-2 8l1 9v1l-1 12c0 6 0 13 2 19a40 40 0 0 0 0 5c1 6 2 12 5 18a66 66 0 0 0 3 3l9 14 2 5a25 25 0 0 0 13 10 13 13 0 0 0 3 3 13 13 0 0 0 17-4h5l5 4 3 4c1 3 4 4 8 4h12c4 0 7-1 10-3a12 12 0 0 0 4-1l6-5 5-4c5-3 8-7 10-13a45 45 0 0 0 3-2l3-8a9 9 0 0 0 1-3l1-3 2-5v-1l1-5 5-14 2-28-1-5zm-129 59c-2-3-1-3 0 0z"/>
    </g>
  </g>
  <g id="Outlines" stroke-miterlimit="10">
    <g fill="none" stroke="#000" stroke-linecap="round" stroke-linejoin="round" stroke-width=".8">
      <path d="M758 148c1-3-3-6-4-9l-7-10-8-11c-4-4-9-7-14-9l-14-6h-30c-5 0-10 1-15 4l-13 10c-4 3-5 7-7 10-4 4-6 9-9 13l-2 5-4 9c-1 5 2 9 6 11 2 5 2 10-1 12l1 5v36l2 20c0 8 1 16 6 22l5 7 16 15c3 3 7 5 10 5 3 1 3 3 3 5-2 2-5 4-9 5l-5-2-7-4c-5-3-10-7-13-13l-8-13-4-5c-3-3-3-7-3-10-5-19-2-38-3-57 0-5 1-10 3-13l6-2"/>
      <path d="M754 162c-2 3 0 6 1 10l4 2 6 1 1 10v32c0 8-2 16-4 25l-4 17-3 5-10 19-1 1-11 10c-3 3-6 5-10 6h-1c-3 3-7 3-10 3h-16l-6-10-4-1-6-1m35-158c-4 0-8 2-11 5l-4 3"/>
      <path d="m700 142-12-7-7-1a28 28 0 0 0-7 1l-7 2c-4 3-7 5-8 10 0 4 3 10 8 11l6 2c6 0 11-2 16-5 2-2 5-4 9-3l5 1 6 5c4 4 9 5 13 9h2l7-3c2-2 5-5 4-8 0-5-1-11-4-16-2-3-6-5-10-5l-6-2M174 235l7 1 9 2c5 2 10 2 15 0l1-1c3-5 7-9 6-15l-3-6-5-5h-14c-4 0-7 0-11-2-5-2-11-3-17-2-6 3-5 9-5 14 0 4 2 6 5 8l8 4 3 1m344 30c0 4 1 6 4 8h11c5 0 10-2 14-5l9-7c7-4 12-10 16-17l1-9v-20c1-5-1-8-4-10-4-4-5-6-3-11l6-6-5-18c-3-6-6-12-12-16l-9-8-8-2-10-3a15 15 0 0 0-3 0h-14l-21 1-9 3m-16 9-4 6v4l4 5c3 3 3 3 1 6 0 2-1 3-2 3l-9 2-1 11v15l2 20a60 60 0 0 0 12 27l9 9c3 4 8 5 13 8l7 2c5 0 7-3 8-8"/>
      <path d="m144 238-2-5-3-7-1-8c-3-5-2-9 1-14l2 1c2 1 5 0 6-1 2-3 1-5-1-6l-5-4 2-10c1-3-1-7 2-10l4-7c6-8 15-10 24-11h10c4-1 8 1 12 2l8 3c5 1 9 3 11 8l3 6c0 4 5 11 1 13l-6-1m515-63a345 345 0 0 0-19-6c-6-2-11-4-17-3-5 1-10 0-14 2-3 1-8-1-11 3l-3 4c-2 1-3 4-6 4l-2 2c-5 6-10 11-11 18l-1 1-5 16m-263 17 5-4-11-18c-4-4-9-7-14-9-9-2-18 0-26-1l-5 2c-6 1-13 3-17 8-3 3-7 6-8 11l5 4m158 3 1 43 3 12c1 2 0 4 2 5 3 8 10 13 16 17 5 3 10 6 16 6h1l1 2h12l11 1c6-1 12-1 17-6l3-2c5-2 8-5 12-8 3-3 5-8 6-13l1-6c2-2 1-4 2-5v-21"/>
      <path d="M143 206v3c0 6 1 10 3 15 3 4 4 9 6 13 2 3 5 5 9 5l13 2c5-4 9-3 11 1v7c6 3 11 4 16 3l7-1c6-3 12-6 16-13l5-9 2-7v-12l-1-6c-2-4-3-9-7-12h-8c-2-2-5-4-3-8l-1-3-1-2c0-9-5-13-13-17-3-2-7-3-11-3-6 1-13 0-19 2-7 2-13 6-16 13l-3 18-1 4m152-16-3 4c-2 5-5 11-5 18v4c0 10 3 18 7 27 2 5 5 10 10 14l13 8h10l6-3 2 1c1 6-2 9-8 10-8 0-15-2-22-6l-5-4-8-10c-3-3-4-7-5-11m264-68c-2-4-7-6-10-9l-9-5-4-1-8-2h-7c-3-1-6-2-8-1l-17 1c-5 1-10 1-14 4l-9 10-3 4m-96 78-5 2-17 3 5 7h3c5 1 10 0 14-3l8-9c3-2 5-6 6-9a39 39 0 0 0 3-16v-26l-3-3-5 1-1-3m379-16-1 4v28l-2 20-2 11-4 14-4 7m-403-74 4 1c2 0 3-1 5 1 1 1 6-1 7-3v-5c-2-4-6-7-11-9s-10-1-15-1c-3 0-6 2-9 4 0 5 2 8 5 11h14"/>
      <path d="m215 195 5 8c5 5 7 12 5 19-2 10-7 18-17 23-4 2-8 4-12 4l-6-2-4-1m192-56-3-5c-1-4-3-6-5-9l-6-9c-3-5-7-7-12-9s-12-2-17-1c-7 1-13 1-19 5l-3 4m431 93c-3 9-8 17-14 24-4 4-8 5-12 6s-7 0-10 3h-19M313 167c-6 4-9 10-13 15h-8c-3-1-4 1-5 5l-1 4c-3 8-2 17-2 25 1 7 3 13 6 19m90-41v3a1758 1758 0 0 1-1 30l-3 9-5 8-1 2m185-78 5 9 5 15m181-47c-5-8-11-17-19-21M174 244v3l1 2-3 1c-3 0-6 1-9-1l-7-1m590-103 5 13c0 2 1 3 3 3 6-4 7-6 4-13m-614 90 5 6c2 2 4 5 7 4m324-104-14 7-1 2m-118 98-8 4m158-99-6 2c-5 2-7 8-3 12l7 6 5 1 8-1 8-1 5 2 8 6c2 2 5 2 7 3h6c5-4 5-11 1-16l-4-6c-3-2-5-5-9-4-3 0-6-1-9 1h-4l-10-4c-3-2-6-1-10-1"/>
    </g>
    <path fill="none" stroke="#000" stroke-linecap="round" stroke-linejoin="round" stroke-width=".8" d="M170 188c4 1 10 3 14 2l11-3c3-1 4-6 4-8s-5-5-5-6-5-3-9-3-9 0-12 2-8 4-7 7l1 6c0 2 3 2 3 2z"/>
    <path fill="none" stroke="#000" stroke-linecap="round" stroke-linejoin="round" d="m170 184 1-5 1-3 3-2v10l3-3 2-5 2-3v3l-1 4-1 4-1 2 1 2 2-3 3-6 1-5 2-1 1 3-1 3-2 2-1 4v1h3l2-2v-5l1-2v-3l2 3v3l-1 2c-1 1 1 3 1 3"/>
    <g id="Layer_5" fill="none" stroke="#000" stroke-linecap="round" stroke-linejoin="round">
      <path stroke-width=".8" d="M343 199c-5-1-12-5-15-2l-6 6c-1 1-4 9 2 12s11 4 15 4 6 0 9-2 6-6 6-8 3-5 0-7-11-3-11-3z"/>
      <path d="M325 212v-5l2-4 4-2v1l-1 3-2 7c0 2-3 1 0 2s3 2 3 0l2-5 2-4c0-1-3-4 0-4l5-1s2 1 0 3-5 2-5 5v5c0 2-2 2-1 4s4 2 5 0v-4l-1-1c-1-2-2-3 0-3s1-1 2-2l2-2c1-1-2-2 0-2l3-1v3l-3 7 2 3v1l4-4-1-3 1-2 1-2"/>
    </g>
    <g id="Layer_6" fill="none" stroke="#000" stroke-linecap="round" stroke-linejoin="round">
      <path d="M341 171c-2 0-5-3-7 0s-3 4-2 6l5 5c2 1 3 0 6-1s3-1 4-4v-4c-1-2-6-2-6-2z"/>
      <path d="M337 171c-1 1-2 0-2 2v7c1 1 2 2 2 0v-3l1-4h3v3c-1 0-2-2-1 1v3c1-1 3 0 3-2v-1l1-4 1-1-4-1"/>
    </g>
    <g id="Layer_8" fill="none" stroke="#000">
      <path d="M504 162c-7-1-8-2-10 1s-1 2 0 5 0 5 3 5h7c4-1 3-1 4-3s4-2 0-5l-4-3z"/>
      <path d="m498 162-3 4v2c-1 2 0 3 1 2l1-4 4-1v-1s1-2 1 0 1 1-1 3l-2 3c-1 1 0 0 1 1h3c1-1 2-1 2-3 0-1-1-3 1-3s0 1 0 2m26 0-7-1-2 2v5l2 3 5 2 6 2 3-2 2-4-3-4-3-2-3-1z"/>
      <path d="m529 168-3 2-1 1v3l2-1 2-2 3-1h1v1l-1 2-3 3 1 1 3-2 2-5 2 1-1 3-3 3 1 1 3-1v-1l2-3"/>
    </g>
    <g id="Layer_10" fill="none" stroke="#000">
      <path d="M514 190h-13c-3 1-8 5-8 8l3 12c1 2 12 2 16 2s11 0 13-3 1-6 0-11-10-7-11-8z"/>
      <path d="M513 192c-1 1 3 3 3 4l4 4v4l-3 4-1-2 1-4s2-3 0-4l-4-2h-3l3 3v8l-3 2v-2c0-2 2-8 0-9l-3-6-3 2 1 2c0 2 3 3 2 4l-1 6c1 2 4 2 2 3h-7v-3l3-4-3-2c-1-1-3-2-2-4l2-6"/>
    </g>
    <g id="Layer_12" fill="none" stroke="#000" stroke-linecap="round" stroke-linejoin="round">
      <path stroke-width=".8" d="M682 143c-3-1-7-2-9 0s-5 1-5 4-1 4 1 6 5 2 7 2l6-3 2-7-2-3z"/>
      <path stroke-width=".8" d="M680 145c0 1 2 2 1 3s1 3-1 3-2 2-3 1v-7c-1 0-4-4-4-2s-2 3 0 3 1 1 1 2v2c1 2 4 2 2 3l-5 1v-3c0-1-4-2-2-3l2-3s-2 1-1 2l2 4m41-6c1 0 2-5 4-4l7 1 3 4c0 1 4 6 2 9s-3 6-5 5l-9-5c-1-2-3-3-2-5v-5z"/>
      <path d="M717 142c2-1 6 2 6 2l-3 1c-2 0-5 0-5 2v3l5-4 4-1s5 2 3 3h-4l-8 5c0 2 0 3 2 1 2-1 2 1 3-1 2-2 3-4 4-3h3v3l-2 1-7 1 3 1h2l4-1-2 3"/>
    </g>
    <g id="Layer_14" fill="none" stroke="#000" stroke-linecap="round" stroke-linejoin="round">
      <path d="M678 193c1-1 4-7 7-7s17-2 19 0 11 11 11 14 2 16 0 19c-2 4-6 12-12 13s-10 2-15-1-8-9-10-11-4-9-3-12c0-3-2-10 0-11l3-4z"/>
      <path d="m680 196 12-4c4-1 9-3 11 0l6 6c1 1 1 6-1 5l-8-5c-1 0-5-3-8-1l-12 3c-1 0-3 3 0 5s7 1 8 0 4-3 7-2c4 0 5-1 8 1s10-1 10 2-1 7-3 7-3-3-5-4-4-4-6-3l-7 2-7 1c-1 1-5 1-5 3s-2 4 0 5 5 2 5 0c-1-1-3-3 0-4l11-3c0 2 6 2 7 3l8 3c1 0 1 2-1 4s-5 0-5 0l-5-2c-4-1-9-4-11-2s-4 3-4 5c-1 3-1 3 1 3s0-4 3-3c4 2 11 1 11 1l6 2c1 1 1 4-3 3l-8-1c-1-1-5-2-6 0 0 1-2 3 2 4h9"/>
    </g>
    <path fill="#BBB" stroke="#BBB" d="m123 197 19 3m10-62 33 41m32-37-15 22m30 81-38-18m170-92-20 38"/>
  </g>
  <g id="labels" font-family="'Helvetica'" font-size="10">
    <text transform="translate(94 199)">porex</text>
    <text transform="translate(237 249)">vacuole</text>
    <text transform="translate(132 134)">nucleus</text>
    <text transform="translate(204 138)">cell wall</text>
    <text transform="translate(336 131)">generative cell</text>
    <text transform="translate(130 340)">Uninucleate Microphore</text>
    <text transform="translate(300 341)">Bicellular Pollen</text>
    <text transform="translate(472 341)">Tricellular Pollen</text>
    <text transform="translate(656 341)">Mature Pollen Grain</text>
  </g>
</svg>