<svg xmlns="http://www.w3.org/2000/svg" xml:space="preserve" id="TissueSpecificShootApicalMeristem_svg" x="0" y="0" version="1.1" viewBox="100 160 651.2 129.4" author="Provart Lab - Bio Analytic Resource, University of Toronto">
  <g id="Samples" fill="#fff" transform="translate(-14 -31)">
    <g id="Central_Zone">
      <path id="path2" d="M207 215v1-1z"/>
      <path id="path4" d="M233 210c0-4-2-8-4-11 0-4-3-7-8-7a9 9 0 0 0-4 1h-11a7 7 0 0 0-2 1c-5-1-10 2-11 8l-4 5c-2 4-1 9 1 13l2 2c1 3 3 5 7 5h1v1c1 8 12 8 17 4l3-1 7-5c5-4 6-10 6-16z"/>
    </g>
    <g id="Rib_Meristem">
      <path id="path7" d="M454 238a7 7 0 0 0 0-2 25 25 0 0 0-1-5 6 6 0 0 0-1-3 8 8 0 0 0-1-3c0-4-2-7-7-7h-1c-3-2-6-2-9 1l-5 8v4a14 14 0 0 1-1 1v1c-2 2-2 5-1 7a17 17 0 0 0 0 4c0 3 0 6 3 8v1l2 3c4 4 10 4 14 1 4-2 6-5 7-9l1-10z"/>
    </g>
    <g id="Peripheral_Zone">
      <path id="path10" d="M626 234v-1c-1-5-5-9-9-11a6 6 0 0 0-2-1 20 20 0 0 0-2-2c-4-3-8-1-12 0-6 4-11 11-9 19 1 3 2 6 5 9l7 4c3 2 5 5 9 5 3 0 5-1 7-3 3 0 6-3 6-7v-3c2-3 2-7 0-9z"/>
      <path id="path12" d="M743 228v-1c-2-7-7-11-14-14-4-1-8 2-9 5l-8 10c-2 3-5 7-5 11l2 6 1 2c1 6 7 10 13 5h3c5 0 7-3 7-6 5 0 7-3 7-6 5-2 6-9 3-12z"/>
    </g>
  </g>
  <g id="Outlines" transform="translate(-14 -31)">
    <g id="g338" fill="none" stroke="#000" stroke-linecap="round" stroke-linejoin="round" stroke-miterlimit="10" stroke-width=".8">
      <path id="path16" d="M464 207c0 6-1 10-9 11-4 0-6 3-3 9 4 8 1 17 0 25-1 4-10 8-15 7s-9-7-10-13c-1-10 2-19 7-27 1-2 3 0 4-2 4 1 9 0 13 4"/>
      <path id="path18" d="M225 204c2 0 3 0 5-2-1-6-4-10-14-9-7 0-13-1-19 2"/>
      <path id="path20" d="M726 238c-3-6-9-8-14-11-1 3-4 5-3 8 0 5 1 11 3 15 3 5 8 3 12 1"/>
      <path id="path22" d="M735 246c5-2 5-8 10-11 2-1-1-5-2-7-2-6-5-13-14-14-5-1-6 2-9 4"/>
      <path id="path24" d="M625 244c1 3 2 6-1 7-5 2-10 7-16 3-4-3-9-5-12-9-1-4 4-5 3-8"/>
      <path id="path26" d="M442 203c-2 2-5-1-7 1v13"/>
      <path id="path28" d="M231 227c-1-3-4-2-5-1-5 5-12 6-18 9-2-3-7-3-8-7"/>
      <path id="path30" d="m450 202 1-3c0-7 2-9 9-6l28 10c7 4 14 10 19 16 4 4 8 7 10 12a35688 35688 0 0 0-6 7"/>
      <path id="path32" d="M229 198c4-4 10-2 14-1 19 6 33 18 45 34l-6 7"/>
      <path id="path34" d="M671 203c-2 2-4-1-6 1-2 3 0 7 0 10"/>
      <path id="path36" d="M614 216c-8 1-16 2-20 10l-1 1c1 8-6 12-9 17 2 3 6 1 8 5"/>
      <path id="path38" d="M170 212c-5 2-9 4-14 1-4-2-9 2-11 4-7 9-15 17-20 27 2 3 6 1 8 5"/>
      <path id="path40" d="M402 211c-5 2-11 5-16 2-4-2-9 2-11 4-7 9-15 17-20 27 2 3 6 1 7 5"/>
      <path id="path42" d="M675 216v9c-3 0-5 1-7-1"/>
      <path id="path44" d="m244 199-4 8c-6-2-8 0-8 6l-1 5"/>
      <path id="path46" d="M629 212c-4 3-10 2-14 5-1 2 1 4 3 5 5 3 5 9 8 13 2 2 3 8-3 9l-5 3"/>
      <path id="path48" d="M694 207c-1 5-1 10-8 11"/>
      <path id="path50" d="M680 202v-3c1-7 3-9 9-6l28 10c5 2 18 7 19 11"/>
      <path id="path52" d="m415 218-1-3c-3-10-3-10-11-4"/>
      <path id="path54" d="m645 218-1-3c-3-10-3-10-11-4"/>
      <path id="path56" d="m584 246-3 5c3 3 6 2 9 4"/>
      <path id="path58" d="m675 225 7 1c6-7-1-16 4-22 5 0 8 3 13 3l5-8"/>
      <path id="path60" d="m474 199-5 8-12-3c-3 4-3 9-3 14"/>
      <path id="path62" d="m724 240 2-4c4 2 3 5 5 6 2 2 2 5 1 6-1 3-3 4-6 2l-4-1"/>
      <path id="path64" d="m643 207 5-2c8-1 8-2 10 7 1 3 3 5 3 8 0 2 0 5 3 5 2 0 3 0 3-2 1-3 2-5-1-7-1-2-3-2-5-1"/>
      <path id="path66" d="m355 246-3 5c2 3 6 2 8 4"/>
      <path id="path68" d="M125 246a8975 8975 0 0 0-3 5c3 3 6 2 9 4"/>
      <path id="path70" d="m407 221-13 8"/>
      <path id="path72" d="m178 221-14 8"/>
      <path id="path74" d="M253 214c3 0 5 2 7 4 0 4-4 6-4 10l-5-2"/>
      <path id="path76" d="M482 214c4 0 6 2 8 4-1 4-5 6-5 10l-5-2"/>
      <path id="path78" d="M193 226c-14 5-24 15-36 23"/>
      <path id="path80" d="m637 221-13 8"/>
      <path id="path82" d="M192 218c0 2-1 6 4 8 1 0 3 3 5 0"/>
      <path id="path84" d="M430 226c-8-1-16 4-22 8-8 4-14 9-21 15"/>
      <path id="path86" d="M444 205v12"/>
      <path id="path88" d="M184 198c1 5 4 9 3 15l4 5"/>
      <path id="path90" d="M382 259c1-6-4-6-7-8"/>
      <path id="path92" d="m195 202 1-6c-3-5-6-2-9-1l-21 9-13 8"/>
      <path id="path94" d="M153 259c1-6-5-6-8-8"/>
      <path id="path96" d="M736 214c3 7 24 33 26 41"/>
      <path id="path98" d="M517 231c4 7 13 16 15 24"/>
      <path id="path100" d="M288 231c3 7 13 16 14 24"/>
      <path id="path102" d="M682 192c-13 0-26-1-38 4-9 3-27 17-35 21"/>
      <path id="path104" d="M453 192c-13 0-26-1-39 4-9 3-24 12-32 16"/>
      <path id="path106" d="m420 206 2 9"/>
      <path id="path108" d="m649 206 2 9"/>
      <path id="path110" d="M165 215c2 3 1 7 4 9"/>
      <path id="path112" d="M395 215c1 3 1 7 4 9"/>
      <path id="path114" d="M624 215c2 3 1 7 5 9"/>
      <path id="path116" d="M241 208c3 3 8 2 11 6-1 4-6 8-2 14 1 2-2 4-3 6"/>
      <path id="path118" d="m652 194 1 9"/>
      <path id="path120" d="m413 207 5-2c8-1 8-2 11 7 0 2 2 4 4 5"/>
      <path id="path122" d="m684 226 24 8"/>
      <path id="path124" d="M471 208c3 3 8 2 11 6-1 4-6 8-3 14 2 2-1 4-3 6"/>
      <path id="path126" d="m244 211-4 9"/>
      <path id="path128" d="m703 211-4 9"/>
      <path id="path130" d="m473 211-4 9"/>
      <path id="path132" d="M674 205v9"/>
      <path id="path134" d="m255 203-4 9"/>
      <path id="path136" d="m484 203-4 9"/>
      <path id="path138" d="m158 220 11 19"/>
      <path id="path140" d="m714 203-4 9"/>
      <path id="path142" d="m388 220 11 19"/>
      <path id="path144" d="M700 208c3 3 8 2 11 6l-4 10"/>
      <path id="path146" d="M595 226c4 5 11 7 14 12"/>
      <path id="path148" d="M661 225c-11 2-21 5-29 12l-4 2"/>
      <path id="path150" d="M422 194c2 3 2 6 2 9"/>
      <path id="path152" d="m693 195-4 9"/>
      <path id="path154" d="m649 218 3 8"/>
      <path id="path156" d="M167 205c3 6 10 8 11 15 4 0 8 0 9-5"/>
      <path id="path158" d="M396 205c6 5 9 12 15 17 2 1 2 5 3 7"/>
      <path id="path160" d="M626 205c5 5 9 12 15 17 2 1 2 5 3 7"/>
      <path id="path162" d="m464 195-4 9"/>
      <path id="path164" d="m182 221 2 8"/>
      <path id="path166" d="M662 193c2 3-1 7 2 10"/>
      <path id="path168" d="m720 219-6 9"/>
      <path id="path170" d="m695 219-4 8"/>
      <path id="path172" d="m465 219-4 8"/>
      <path id="path174" d="M432 193c2 3-1 7 2 10"/>
      <path id="path176" d="M374 220c5 4 6 12 12 15 3 0 4-4 7-4"/>
      <path id="path178" d="M267 238c-3 1-3 5-7 6"/>
      <path id="path180" d="M187 209c-5-2-10-3-14 2"/>
      <path id="path182" d="m420 218 2 8"/>
      <path id="path184" d="M497 238c-3 1-4 5-7 6"/>
      <path id="path186" d="M144 220c6 4 6 12 12 15 3 0 4-4 7-4"/>
      <path id="path188" d="M159 215c0 6-5 8-9 10"/>
      <path id="path190" d="M582 253c-4 2-2 6-5 7"/>
      <path id="path192" d="M529 250c-3 1-6 1-8 4"/>
      <path id="path194" d="M389 215c0 6-5 8-9 10"/>
      <path id="path196" d="M352 253c-3 2-1 6-5 7"/>
      <path id="path198" d="M122 253c-3 2-1 6-4 7"/>
      <path id="path200" d="m264 209-4 8"/>
      <path id="path202" d="m494 209-5 8"/>
      <path id="path204" d="M299 250c-3 1-6 1-8 4"/>
      <path id="path206" d="M633 226c2 2 1 5 4 7"/>
      <path id="path208" d="M745 249c-3 1-5 5-9 2"/>
      <path id="path210" d="M506 251c-2 2-4 5-8 4-8-13-21-22-36-27l-9-1"/>
      <path id="path212" d="M403 226c3 2 2 5 4 7"/>
      <path id="path214" d="M173 226c3 2 2 5 5 7"/>
      <path id="path216" d="M515 249c-2 2-4 4-8 3"/>
      <path id="path218" d="M286 249c-3 2-5 4-8 3"/>
      <path id="path220" d="M498 226c-2 3-3 8-9 6l-5 6"/>
      <path id="path222" d="m414 198 2 7"/>
      <path id="path224" d="M269 226c-3 3-3 8-9 6-2 0-4 4-6 6"/>
      <path id="path226" d="m644 198 2 7"/>
      <path id="path228" d="M758 250c-3 1-6 1-7 4"/>
      <path id="path230" d="M593 254c1 1 3 0 4 2 4 3 4-1 5-3"/>
      <path id="path232" d="m293 240-6 4"/>
      <path id="path234" d="m523 240-7 4"/>
      <path id="path236" d="m753 240-7 4"/>
      <path id="path238" d="m282 240-7 6"/>
      <path id="path240" d="m511 240-7 6"/>
      <path id="path242" d="m160 241-3-5-10 9c-3 5-7-3-10 0"/>
      <path id="path244" d="M390 241a16760 16760 0 0 1-4-5l-9 9c-4 5-7-3-10 0"/>
      <path id="path246" d="m273 244-7 6"/>
      <path id="path248" d="m502 244-7 6"/>
      <path id="path250" d="m622 231-5 2c-3 2 0 4 1 5"/>
      <path id="path252" d="m702 223-4 7"/>
      <path id="path254" d="M472 223c-1 2-1 5-3 7"/>
      <path id="path256" d="M242 223c0 2-1 5-3 7"/>
      <path id="path258" d="M659 215c-6 2-13 2-19 5"/>
      <path id="path260" d="M429 215c-6 2-13 2-18 5"/>
      <path id="path262" d="M683 215c-5 1-11-2-16 0"/>
      <path id="path264" d="m634 201 3 6"/>
      <path id="path266" d="M491 218c9 7 18 15 24 26 2 4 6 8 6 14"/>
      <path id="path268" d="m275 233-5 6"/>
      <path id="path270" d="m404 201 3 6"/>
      <path id="path272" d="m130 259 2-5 9 3c2-3 5-5 3-10"/>
      <path id="path274" d="m281 224-6 7"/>
      <path id="path276" d="M718 217c-2-1-3-3-6-3"/>
      <path id="path278" d="M291 258c-4-13-11-24-21-32l-9-8"/>
      <path id="path280" d="m175 201 3 6"/>
      <path id="path282" d="M276 251c-2 2-4 5-7 4-8-13-22-22-37-27"/>
      <path id="path284" d="m511 224-6 7"/>
      <path id="path286" d="M360 259c-1-2 1-4 2-5 3 0 5 1 8 3 2-3 6-5 3-10"/>
      <path id="path288" d="m505 233-5 6"/>
      <path id="path290" d="m360 238 7 2"/>
      <path id="path292" d="m131 238 6 2"/>
      <path id="path294" d="M247 224c-6-1-11-6-17-7"/>
      <path id="path296" d="M202 202c-4 2-10 0-13 5"/>
      <path id="path298" d="M742 242c4 4 7 10 9 16"/>
      <path id="path300" d="M672 193c1 4-1 7 1 12 4-2 8-4 12-1"/>
      <path id="path302" d="M442 193c1 4-1 7 1 12 4-2 9-4 12-1"/>
      <path id="path304" d="M223 196c-2 7-7 9-13 8"/>
      <path id="path306" d="m153 239-6-4"/>
      <path id="path308" d="m382 239-5-4"/>
      <path id="path310" d="m380 243 9 7a3931 3931 0 0 1-6 4"/>
      <path id="path312" d="m151 243 8 7a3931 3931 0 0 1-6 4"/>
      <path id="path314" d="M264 235c7 4 10 11 14 17"/>
      <path id="path316" d="m378 228-4 4"/>
      <path id="path318" d="m149 228-5 4"/>
      <path id="path320" d="m368 229 5 3"/>
      <path id="path322" d="M138 229a14408 14408 0 0 0 5 3"/>
      <path id="path324" d="M494 235c7 4 10 11 13 17"/>
      <path id="path326" d="M136 246c-3 2-3 4-3 7"/>
      <path id="path328" d="M595 246c-4 3-3 9-6 13"/>
      <path id="path330" d="M365 246c-2 2-3 4-3 7"/>
      <path id="path332" d="m693 217 17 9"/>
      <path id="path334" d="M463 217c5 2 8 6 14 7"/>
    </g>
  </g>
  <g id="labels" font-family="Helvetica" font-size="10" transform="translate(-14 -31)">
    <text id="text341" transform="translate(178 306)">Central Zone</text>
    <text id="text343" transform="translate(191 318)">CLV3p</text>
    <text id="text345" transform="translate(411 306)">Rib Meristem</text>
    <text id="text347" transform="translate(426 318)">WUSp</text>
    <text id="text349" transform="translate(638 306)">Peripheral Zone</text>
    <text id="text351" transform="translate(663 318)">FILp</text>
  </g>
</svg>