<svg xmlns="http://www.w3.org/2000/svg" xml:space="preserve" id="TissueSpecificXylemAndCork_svg" x="0" y="0" version="1.1" viewBox="100 40 545.3 440.5" author="Provart Lab - Bio Analytic Resource, University of Toronto">
  <g id="Labels" font-family="Helvetica" font-size="10" transform="translate(-55 -25)">
    <text id="text2" transform="translate(158 118)">Col-0</text>
    <text id="text4" transform="translate(158 266)">MYB61</text>
    <text id="text6" transform="translate(158 278)">knockout</text>
    <text id="text8" transform="translate(158 410)">MYB50</text>
    <text id="text10" transform="translate(158 422)">knockout</text>
    <text id="text12" transform="translate(233 490)">Xylem within Cork</text>
    <text id="text14" transform="translate(251 502)">(separate)</text>
    <text id="text16" transform="translate(548 490)">Hypocotyl</text>
    <text id="text18" transform="translate(511 502)">(Xylem and Cork together)</text>
    <text id="text20" transform="translate(401 150)">Col-0</text>
    <text id="text22" transform="translate(400 266)">max4</text>
    <text id="text24" transform="translate(405 387)">Ler</text>
    <text id="text26" transform="translate(594 387)">abi1</text>
    <text id="text28" transform="translate(598 149)">aba1</text>
    <text id="text30" transform="translate(600 265)">axr1</text>
  </g>
  <g id="Samples" fill="#fff" transform="translate(-55 -25)">
    <g id="Xylem_MYB61_knockout">
      <path id="path33" d="m306 415-1-16c-2-9-10-15-18-18-20-8-43 7-42 28 0 5 2 10 6 13a15 15 0 0 0 2 3c10 15 32 20 44 6 5-3 9-10 9-16z"/>
    </g>
    <g id="Cork_MYB61_knockout">
      <path id="path36" d="M320 406v-20c-4-10-11-14-20-19-21-10-47-5-60 13a7 7 0 0 0-3 0c-5 3-8 8-8 14 0 2 1 4 3 5l-1 17v4c-1 5 2 9 6 12a42 42 0 0 0 2 4c15 21 29 22 51 17 9-3 17-6 23-13l2-5c4-1 6-6 4-12l3-8-2-9zm-16 17-3 3a31 31 0 0 1-38 8c-14-7-21-22-16-37 0-2 4-5 6-7 3-3 8-5 12-7 8-4 16-5 24-2s13 9 15 16l1 12-1 14z"/>
    </g>
    <g id="Xylem_MYB50_knockout">
      <path id="path39" d="m307 268-1-16c-2-9-10-15-18-18-20-8-43 7-42 28 0 5 2 10 6 13a15 15 0 0 0 2 3c10 15 32 20 44 6 5-3 9-10 9-16z"/>
    </g>
    <g id="Cork_MYB50_knockout">
      <path id="path42" d="M322 259v-20c-4-10-11-14-20-19-21-10-47-5-60 13a7 7 0 0 0-3 0c-5 3-8 8-8 14 0 2 1 4 3 5l-1 17v3c-1 6 2 10 6 13a42 42 0 0 0 2 4c15 21 29 22 51 17 9-3 17-6 23-13l2-5c4-1 6-6 4-12l3-8-2-9zm-16 17-3 3a31 31 0 0 1-38 8c-14-7-21-22-16-37 0-2 4-5 6-7 3-3 8-5 12-7 8-4 16-5 24-2s13 9 15 16l1 12-1 14z"/>
    </g>
    <g id="Xylem_Col-0">
      <path id="path45" d="m302 121-1-16c-2-9-10-15-18-18-20-8-43 7-42 28 0 5 2 10 6 13a15 15 0 0 0 2 3c10 15 32 20 44 6 5-3 9-10 9-16z"/>
    </g>
    <g id="Cork_Col-0">
      <path id="path48" d="M316 112V92c-4-10-11-14-20-19-21-10-47-5-60 13a7 7 0 0 0-3 0c-5 3-8 8-8 14 0 2 1 4 3 5l-1 17v4c-1 5 2 9 6 12a42 42 0 0 0 2 4c15 21 29 22 51 17 9-3 17-6 23-13l2-5c4-1 6-6 4-12l3-8-2-9zm-16 17-3 3a31 31 0 0 1-38 8c-14-7-21-22-16-37 0-2 4-5 6-7 3-3 8-5 12-7 8-4 16-5 24-2s13 9 15 16l1 12-1 14z"/>
    </g>
    <g id="Hypocotyl_axr1">
      <path id="path51" d="m679 271 3-37c0-9-5-18-14-22-10-5-20 0-22 11v1h-1c-2 6 0 12 2 17 2 6 1 13 1 19-1 15 3 30 6 45 1 4 7 8 12 6a38 38 0 0 0 7-3l2-1 5-5v-10l-1-21z"/>
    </g>
    <g id="Hypocotyl_Ler">
      <path id="path54" d="m492 388 3-37c0-9-5-18-14-22-10-5-20 0-22 11v1h-1c-2 6 0 12 2 17 2 6 1 13 1 19-1 15 3 30 6 45 1 4 7 8 12 6a38 38 0 0 0 7-3l2-1 5-5v-10l-1-21z"/>
    </g>
    <g id="Hypocotyl_abi1">
      <path id="path57" d="m680 388 3-37c0-9-5-18-14-22-10-5-20 0-22 11v1h-1c-2 6 0 12 2 17 2 6 1 13 1 19-1 15 3 30 6 45 1 4 7 8 12 6a38 38 0 0 0 7-3l2-1 5-5v-10l-1-21z"/>
    </g>
    <g id="Hypocotyl_aba1">
      <path id="path60" d="m680 156 3-37c0-9-5-18-14-22-10-5-20 0-22 11v1h-1c-2 6 0 12 2 17 2 6 1 13 1 19-1 15 3 30 6 45 1 4 7 8 12 6a38 38 0 0 0 7-3l2-1 5-5v-10l-1-21z"/>
    </g>
    <g id="Hypocotyl_max4">
      <path id="path63" d="m489 270 3-37c0-9-5-18-14-22-10-5-20 0-22 11v1h-1c-2 6 0 12 2 17 2 6 1 13 1 19-1 15 3 30 6 45 1 4 7 8 12 6a38 38 0 0 0 7-3l2-1 5-5v-10l-1-21z"/>
    </g>
    <g id="Hypocotyl_Col-0">
      <path id="path66" d="m489 154 3-37c0-9-5-18-14-22-10-5-20 0-22 11v1h-1c-2 6 0 12 2 17 2 6 1 13 1 19-1 15 3 30 6 45 1 4 7 8 12 6a38 38 0 0 0 7-3l2-1 5-5v-10l-1-21z"/>
    </g>
  </g>
  <g id="Outlines" fill="none" stroke="#000" stroke-linecap="round" stroke-linejoin="round" stroke-miterlimit="10" stroke-width=".8" transform="translate(-55 -25)">
    <g id="g178">
      <path id="path70" d="m303 109-3-9-2-4c-5-5-12-8-19-9s-14 0-21 1l-7 4-7 7c-2 2-1 6-2 9-1 6-1 12 1 18l2 2 7 8c3 4 9 4 13 8l2-1c3-2 5 0 7 0 4 0 8 1 12-1 10-5 14-15 15-26l2-6"/>
      <path id="path72" d="m308 256-3-9c1-2-1-2-2-3-5-6-11-9-19-10-7-1-14 0-21 1l-6 4-8 7c-2 2-1 6-1 9v18l2 2 7 8c3 4 9 4 13 8 1 1 2 0 3-1h7c3 0 7 1 11-1 11-5 15-15 15-26l2-6"/>
      <path id="path74" d="M307 403c-1-3-3-5-3-9 1-2-1-2-2-3-5-6-11-9-19-10-7-1-14 0-21 1l-6 4-8 8c-2 1-1 5-2 8l1 18 2 2 7 8c3 4 9 4 13 8 1 1 2 0 3-1h6c4 1 8 1 12-1 11-5 15-15 15-26l2-6"/>
      <path id="path76" d="M437 230c7 4 14 8 18 15 2 2 2 4 2 6 1 8 1 16 4 24 1 5-2 9-4 14l-6 7"/>
      <path id="path78" d="M455 114c6 4 11 7 18 7 8-1 12-5 18-9 1-1 0-9-2-11-3-3-6-6-10-7-6-1-12 0-17 3-7 4-9 9-8 16v10"/>
      <path id="path80" d="M490 229c4-9-1-14-8-17-8-4-19-2-25 5-5 6-4 12 3 17 9 5 18 4 26-2l4-3"/>
      <path id="path82" d="M683 127c-3-4-2-9-2-14 1-11-5-18-17-18-10 0-16 4-19 13-2 3 0 6 0 9s0 7-2 11c4 2 4 5 4 9l2 18c2 5 3 10 0 15v3"/>
      <path id="path84" d="M653 110c0 4 2 6 6 5h4c3 2 6 1 8-2 2-2 3-5 2-8-2-3-5-4-8-4-7 0-10 2-12 8"/>
      <path id="path86" d="M682 241c-3-3-2-7-1-11 0-13-8-20-21-18-6 1-11 3-14 8-2 3-2 6-2 9 1 4 2 8-1 12"/>
      <path id="path88" d="M682 358c-3-4-2-8-1-12 1-11-3-15-13-18-8-3-20 3-23 10l-1 7c1 4 2 9-1 12"/>
      <path id="path90" d="m659 333-3 3c-3 2-5 5-3 9 3 4 8 2 12 3 3 1 5-2 7-4 2-6-2-11-8-11h-5"/>
      <path id="path92" d="M503 234c-7 4-12 10-12 19v20c0 3 0 4 2 6 5 4 8 11 11 17 1 3 1 6 4 8"/>
      <path id="path94" d="m501 118-4 4c-5 4-6 9-6 15v14c0 5-1 9 4 14 6 5 9 12 11 20 0 1 0 3 2 3"/>
      <path id="path96" d="m681 406-1 9c1 7 1 8-6 11s-16 2-19-2c-2-2-3-4-3-7 1-4 0-7-2-10"/>
      <path id="path98" d="m681 290-1 8c1 7 1 9-6 12-7 2-13 2-19-3-2-2-3-4-3-7s1-7-2-11"/>
      <path id="path100" d="M492 289c-1 3-2 6-1 10s-2 7-5 9c-6 2-11 3-17 0-4-2-7-5-6-10l-1-8c0-2-1-3-3-2"/>
      <path id="path102" d="M682 174c-1 3-2 6 0 9 1 3-1 6-3 8-5 5-16 6-22 2-5-4-4-9-5-15 0-1 1-4-2-5"/>
      <path id="path104" d="M492 172c-1 4-2 7-1 11 1 3-2 6-5 8-6 4-17 3-22-2-3-4-1-8-2-12-1-2 0-4-2-5"/>
      <path id="path106" d="M681 114c-3 0-4 3-5 4-9 6-20 6-28-1l-2-1"/>
      <path id="path108" d="m680 231-3 1c-7 7-20 8-29 2l-2-1"/>
      <path id="path110" d="m680 347-3 1c-6 8-20 8-28 3l-3-2"/>
      <path id="path112" d="M437 114c8 3 14 8 19 15l1 7 2 19c0 3 2 6 1 10-1 6-5 10-9 15"/>
      <path id="path114" d="M692 351c-13 7-12 19-12 31v7c0 3 0 6 4 8 5 4 7 10 9 16 1 3 4 5 3 8"/>
      <path id="path116" d="m629 348 10 8c5 4 7 9 8 15l3 23c1 6-2 13-7 17-1 1-1 3-3 3"/>
      <path id="path118" d="M692 235c-12 6-12 18-12 30v6c0 4 0 7 4 10 5 4 8 10 9 16 1 3 3 5 3 8"/>
      <path id="path120" d="M629 232c5 4 12 7 16 14l1 4c1 8 1 15 3 22v15"/>
      <path id="path122" d="M691 121c-4 5-10 9-10 16v28c-2 2-2 4 0 6 4 4 5 12 12 12"/>
      <path id="path124" d="M682 165c3 1 5 4 6 7l10 19"/>
      <path id="path126" d="M628 117c5 3 10 6 13 10h2"/>
      <path id="path128" d="M659 154c2 9-3 14-10 19"/>
      <path id="path130" d="m462 157 6-1c3 2 2 5-1 7-2 2-3 6-7 6"/>
      <path id="path132" d="M661 272c-4 1 0 5-2 7l-6 6c-4 3-8 7-10 11l-3 1"/>
      <path id="path134" d="M659 388c1 4 0 8-3 11l-6 5"/>
      <path id="path136" d="M462 274c2-3 4-2 7-2 1 2 1 5-2 7l-6 7"/>
      <path id="path138" d="M503 180c-4 0-7-2-8-6 0-2-2-2-3-3-3-1-3-5-1-9"/>
      <path id="path140" d="M693 298c-4-1-7-3-8-6l-3-3c-4-2-4-5-1-9"/>
      <path id="path142" d="M693 414c-4 0-7-2-8-5l-3-4c-4-1-4-5-1-9"/>
      <path id="path144" d="M503 297c-3-1-5-2-7-5l-4-4c-2-2-5-6-1-10"/>
      <path id="path146" d="m648 173-6 10"/>
      <path id="path148" d="M485 253c-1-5-2-6-7-3"/>
      <path id="path150" d="M491 230c1 3-1 7 2 10"/>
      <path id="path152" d="M485 137c-1-6-2-6-7-3"/>
      <path id="path154" d="M491 113c2 3-2 7 1 10"/>
      <path id="path156" d="M279 113c0-1-1-2-3-2l-8-2"/>
      <path id="path158" d="M284 261c0-2-1-3-3-3l-8-2"/>
      <path id="path160" d="M283 408c0-2-1-3-3-3l-8-2"/>
      <path id="path162" d="M658 157c-2 0-4-1-5 1"/>
      <path id="path164" d="M455 231c-1 3 1 6-1 8"/>
      <path id="path166" d="m278 362-3 1c-16-1-28 9-39 18-6 4-8 11-6 18v9c-4 14 4 30 18 36 7 3 13 9 20 11 4 1 7 2 10 1l24-9c8-3 14-9 16-18s3-18 1-27v-11c0-5-1-9-4-12-10-10-21-18-36-17"/>
      <path id="path168" d="m659 217-3 2c-3 3-5 6-3 9 3 5 8 3 12 4 3 1 5-2 7-5 2-4 0-9-5-10h-8"/>
      <path id="path170" d="M469 216c-3 0-4 3-5 5-3 2-1 5 0 7 2 3 13 3 16 1 3-3 4-5 3-9-2-3-4-5-8-4h-6"/>
      <path id="path172" d="m280 215-4 1c-16-1-28 9-39 18-6 4-8 11-6 17 2 4 1 6 0 10-4 14 4 30 18 36 7 3 13 9 20 11 4 1 7 2 10 1l24-9c8-3 14-9 16-18s3-18 1-27v-11c0-5-1-9-4-13-10-9-21-17-36-16"/>
      <path id="path174" d="M469 99c-3 3-7 5-6 10l1 3c3 3 14 3 17-1 2-2 2-5 2-7-1-3-4-5-7-5h-7"/>
      <path id="path176" d="m274 68-3 1c-16-1-28 9-40 18-5 4-7 11-5 17v9c-4 15 4 31 18 37 7 3 12 9 20 11 3 1 7 2 10 1l24-9c8-3 14-9 16-18s3-18 1-27V96c0-4-1-8-4-12-10-9-21-17-36-16"/>
    </g>
    <path id="path180" d="M439 348c7 4 14 8 18 15 2 2 2 4 2 6 1 8 1 16 4 24 1 5-2 9-4 14l-6 7"/>
    <path id="path182" d="M492 347c4-9-1-14-8-17-8-4-19-2-25 5-5 6-4 12 3 17 9 5 18 4 26-2l4-3"/>
    <path id="path184" d="M505 352c-7 4-12 10-12 19v20c0 3 0 4 2 6 5 4 8 11 11 17 1 3 1 6 4 8"/>
    <path id="path186" d="M494 407c-1 3-2 6-1 10s-2 7-5 9c-6 2-11 3-17 0-4-2-7-5-6-10l-1-8c0-2-1-3-3-2"/>
    <path id="path188" d="M464 392c2-3 4-2 7-2 1 2 1 5-2 7l-6 7"/>
    <path id="path190" d="M505 415c-3-1-5-2-7-5l-4-4c-2-2-5-6-1-10"/>
    <path id="path192" d="M487 371c-1-5-2-6-7-3"/>
    <path id="path194" d="M493 348c1 3-1 7 2 10"/>
    <path id="path196" d="M457 349c-1 3 1 6-1 8"/>
    <path id="path198" d="M471 334c-3 0-4 3-5 5-3 2-1 5 0 7 2 3 13 3 16 1 3-3 4-5 3-9-2-3-4-5-8-4h-6"/>
  </g>
</svg>