<svg xmlns="http://www.w3.org/2000/svg" xml:space="preserve" id="TissueSpecificShootApicalMeristem_svg" x="0" y="0" version="1.1" viewBox="100 160 651.164 129.438" author="Provart Lab - Bio Analytic Resource, University of Toronto">
  <g id="Samples" fill="#fff" transform="translate(-14.011 -30.69)">
    <g id="Central_Zone">
      <path id="path2" d="M207 214.5c-.645 0-.645 1 0 1s.645-1 0-1z"/>
      <path id="path4" d="M232.901 209.934c-.279-3.937-1.461-7.629-3.67-10.638-.644-3.866-3.498-7.296-8.564-7.296a9.293 9.293 0 0 0-3.372.605c-3.851-.401-7.875.188-11.619.752a7.1 7.1 0 0 0-1.473.404c-5.081-.571-10.458 2.189-10.854 8.316-.05.054-.092.101-.148.159-1.388 1.494-2.639 3.062-3.835 4.716-2.638 3.646-1.154 9.101.984 12.581.564.919 1.239 1.744 1.977 2.511.726 2.957 3.061 5.455 7.008 5.455.104 0 .2-.012.301-.015.137.085.272.172.409.258 1.247 8.26 11.625 8.303 16.695 4.328 1.485-1.164 1.472-.734 3.257-1.425 2.776-1.067 5.217-2.168 7.447-4.169 4.641-4.162 5.881-10.563 5.457-16.542z"/>
    </g>
    <g id="Rib_Meristem">
      <path id="path7" d="M453.622 238.078a7.23 7.23 0 0 0 .212-1.744 24.762 24.762 0 0 0-.602-5.328 6.442 6.442 0 0 0-1.436-2.813 7.877 7.877 0 0 0-.885-2.998c.084-3.813-2.328-7.692-7.247-7.692-.197 0-.384.016-.573.028-2.871-1.657-6.562-1.183-9.062 1.168-2.452 2.303-4.099 5.188-4.862 8.462-.258 1.103-.354 2.249-.533 3.366a13.923 13.923 0 0 1-.408 1.718c.215-.844-.534.749-.701.973-1.555 2.064-1.356 4.854-.193 7.106a16.65 16.65 0 0 0 .087 3.646c-.854 2.957-.061 6.454 2.387 8.393.021.029.034.062.055.094.161.266.341.514.527.754.525.989 1.146 1.95 1.896 2.89 3.306 4.146 9.262 3.439 13.396 1.348 3.863-1.956 6.681-5.689 7.741-9.834.808-3.163.489-6.354.201-9.537z"/>
    </g>
    <g id="Peripheral_Zone">
      <path id="path10" d="M625.753 233.913c-.032-.219-.055-.438-.092-.655-.854-5.072-4.568-8.863-8.543-11.731a5.706 5.706 0 0 0-2.148-.946 19.869 19.869 0 0 0-2.108-1.747c-3.469-2.451-8.125-1.259-11.499.569-6.627 3.592-11.255 10.794-9.52 18.454.755 3.329 2.261 6.411 4.9 8.647 2.298 1.946 5.201 2.809 7.521 4.641 2.848 2.249 5.223 4.452 9.037 4.707 2.663.18 5.025-.839 7.04-2.388 2.912-.933 5.303-3.627 5.491-7.131.06-1.112.126-2.206.179-3.291 1.731-2.696 1.646-6.549-.258-9.129z"/>
      <path id="path12" d="M743.251 227.694c-.08-.322-.16-.646-.258-.96-2.125-6.89-6.972-11.105-13.666-13.302-4.572-1.498-7.838 1.312-8.854 4.892-3.342 2.751-5.951 6.524-8.376 10.061-2.128 3.104-5.171 6.771-4.745 10.857.222 2.113.326 4.347 1.459 6.226.348.625.76 1.205 1.203 1.763.505 6.111 7.31 9.727 12.623 5.073 1.083-.946 2.273-.588 3.696-.471 4.436.366 6.808-2.609 7.153-6.008 4.159-.071 6.482-2.944 6.983-6.16 4.778-1.834 5.705-8.325 2.782-11.971z"/>
    </g>
  </g>
  <g id="Outlines" transform="translate(-14.011 -30.69)">
    <g id="g338" fill="none" stroke="#000" stroke-linecap="round" stroke-linejoin="round" stroke-miterlimit="10" stroke-width=".75">
      <path id="path16" d="M464.414 207.17c-.543 5.566-1.88 9.831-8.938 10.592-4.332.47-6.655 3.18-3.707 8.835 4.187 8.024 1.485 17.016-.047 25.337-.833 4.522-10.139 7.931-14.888 6.946-4.816-.997-9.062-6.873-9.67-13.098-.956-9.821 1.903-18.539 6.719-27.001 1.177-2.068 3.144-.188 3.643-1.959 4.373 1.242 9.558-.321 13.1 3.792"/>
      <path id="path18" d="M225.166 203.723c1.547.116 3.076.112 4.467-1.23-.18-6.959-4.088-10.388-14.102-9.576-6.188.502-12.816-.998-18.634 2.535"/>
      <path id="path20" d="M725.726 237.507c-3.053-5.423-8.312-7.689-13.651-10.245-1.436 2.816-3.995 4.629-3.514 7.477.901 5.328 1.189 11.148 3.682 15.703 2.289 4.185 7.373 2.949 11.417.854"/>
      <path id="path22" d="M734.688 245.78c5.307-1.59 5.594-7.964 10.181-10.624 1.764-1.022-.468-5.075-1.4-7.225-2.788-6.42-5.506-12.596-14.221-14.257-5.336-1.017-6.615 2.646-9.729 4.182"/>
      <path id="path24" d="M625.062 244.401c.562 2.377 2.106 5.579-.757 6.729-5.185 2.082-10.196 7.158-16.452 2.884-4.18-2.854-8.641-5.427-11.5-8.654-1.062-4.116 3.793-5.215 2.511-8.541"/>
      <path id="path26" d="M441.662 203.033c-1.859 2.105-4.354-1.481-6.553 1.098-1.487 3.958 1.011 8.325.348 12.691"/>
      <path id="path28" d="M230.681 227.164c-.825-3.203-3.971-1.946-4.696-1.244-4.962 4.805-11.66 6.232-17.549 9.263-2.166-3.025-7.153-3.192-8.781-7.329"/>
      <path id="path30" d="M449.935 201.654c.23-.92.593-1.827.669-2.76.592-7.062 2.47-8.467 8.975-6.174 9.462 3.335 19.12 6.294 28.197 10.49 7.587 3.507 13.763 9.573 19.214 15.831 3.521 4.041 8.403 7.009 10.401 12.37a35687.87 35687.87 0 0 0-6.095 6.096"/>
      <path id="path32" d="M228.565 197.518c4.552-3.298 10.363-1.823 14.494-.582 19.221 5.775 33.228 18.559 44.85 34.361l-6.208 6.21"/>
      <path id="path34" d="M671.258 203.033c-1.857 2.105-4.353-1.481-6.457.984-1.545 3.15.379 6.6.252 10.047"/>
      <path id="path36" d="M614.032 216.133c-8.016.839-15.987 1.752-20.007 10.336-.131.277-.655.477-.646.694.289 7.47-6.277 11.352-9.237 16.933 2.158 2.812 6.247 1.326 7.828 4.442"/>
      <path id="path38" d="M170.008 211.996c-4.52 1.765-8.553 4.16-13.929.922-3.916-2.357-8.642 1.764-10.596 4.146-7.177 8.751-15.399 16.855-20.402 27.2 2.027 2.641 6.116 1.155 7.697 4.271"/>
      <path id="path40" d="M401.514 210.962c-4.52 1.765-10.462 5.194-15.839 1.956-3.916-2.357-8.642 1.764-10.596 4.146-7.178 8.751-15.399 16.855-20.402 27.2 2.027 2.641 6.116 1.155 7.697 4.271"/>
      <path id="path42" d="M675.395 216.133v8.562c-2.985.443-5.284.937-7.584-.289"/>
      <path id="path44" d="M244.47 198.896c-1.555 2.788-3.109 5.577-4.787 8.583-5.629-2.681-7.548-.071-7.654 5.206-.033 1.612-.43 3.22-.659 4.826"/>
      <path id="path46" d="M629.201 211.996c-4.332 3.092-10.174 1.657-14.43 4.517-.399 2.783.856 4.812 2.753 5.735 5.338 2.604 5.604 8.603 8.578 12.743 1.484 2.064 2.544 7.712-3.091 9.469-1.727.539-3.234 1.78-4.845 2.699"/>
      <path id="path48" d="M694.01 207.17c-.693 5.097-1.281 10.281-8.271 10.342"/>
      <path id="path50" d="M679.531 201.654c.229-.92.591-1.827.669-2.76.59-7.062 2.468-8.467 8.974-6.174 9.462 3.335 18.85 6.887 28.281 10.304 4.604 1.67 17.354 6.537 18.612 11.041"/>
      <path id="path52" d="M415.462 217.512c-.46-.919-1.06-1.795-1.355-2.765-2.988-9.746-2.976-9.75-11.055-3.44"/>
      <path id="path54" d="M645.059 217.512c-.46-.919-1.061-1.795-1.355-2.765-2.987-9.746-2.975-9.75-11.053-3.44"/>
      <path id="path56" d="m584.386 246.47-3.032 4.548c2.467 2.791 6.075 2.469 8.55 4.415"/>
      <path id="path58" d="M675.395 224.695c1.855.305 6.896 1.09 6.896 1.09 5.285-6.621-1.243-15.458 4.037-22.098 4.438.459 8.015 3.62 12.724 3.479 1.503-2.693 3.06-5.482 4.612-8.271"/>
      <path id="path60" d="M474.066 198.896c-1.557 2.788-3.109 5.577-4.613 8.271-4.708.142-8.285-3.021-12.912-3.5-2.481 4.281-2.103 9.137-2.469 13.844"/>
      <path id="path62" d="M723.657 240.265c.746-1.324 1.493-2.649 2.239-3.978 3.877 1.723 3.291 4.889 5.301 6.115 2.293 1.397 2.204 4.286 1.266 6.052-1.335 2.511-3.761 3.744-6.796 1.542-1.013-.734-2.699-.539-4.078-.771"/>
      <path id="path64" d="M642.99 207.17c1.252-1.521 2.976-1.777 4.814-2.118 8.366-1.546 8.309-1.598 10.379 6.938.687 2.819 3.178 4.878 2.956 8.296-.094 1.44-.605 5.126 3.223 4.807 1.333-.109 2.444-.055 2.869-2.041.583-2.733 1.647-5.486-.869-7.521-1.457-1.179-3.607-1.445-5.446-.086"/>
      <path id="path66" d="m354.79 246.47-3.033 4.548c2.466 2.791 6.075 2.469 8.548 4.415"/>
      <path id="path68" d="M125.193 246.47a8975.23 8975.23 0 0 0-3.032 4.548c2.465 2.791 6.075 2.469 8.548 4.415"/>
      <path id="path70" d="M407.188 220.959c-4.364 2.758-8.731 5.516-13.1 8.273"/>
      <path id="path72" d="m177.593 220.959-13.1 8.273"/>
      <path id="path74" d="M252.744 214.064c3.225.102 5.296 2.315 7.598 4.111-.643 3.935-4.763 5.848-4.597 9.995-2.328-.727-3.362-2.224-5.069-1.698"/>
      <path id="path76" d="M482.34 214.064c3.227.102 5.296 2.315 7.601 4.111-.646 3.935-4.766 5.848-4.6 9.995-2.329-.727-3.362-2.224-5.069-1.698"/>
      <path id="path78" d="M192.761 226.475c-13.538 4.776-24.185 14.249-35.852 22.063"/>
      <path id="path80" d="M636.785 220.959c-4.137 2.758-8.273 5.516-12.411 8.273"/>
      <path id="path82" d="M192.083 217.585c.037 2.648-.94 6.703 3.482 8.047 1.546.47 3.164 3.198 5.6.262"/>
      <path id="path84" d="M430.137 226.475c-7.701-1.269-16.184 3.432-22.176 7.031-7.466 4.488-14.332 9.979-21.456 15.032"/>
      <path id="path86" d="M444.419 205.102v11.723"/>
      <path id="path88" d="M184.487 197.518c.578 5.119 3.029 9.828 2.973 15.17-.017 1.595 2.542 3.216 3.921 4.822"/>
      <path id="path90" d="M382.368 258.88c1.101-6.157-4.499-5.613-7.584-7.584"/>
      <path id="path92" d="M194.829 202.344c-.112-2.412-.133-4.807 1.458-6.802-3.028-4.078-6.742-1.811-9.677-.647-7.061 2.8-13.86 6.265-20.728 9.539-2.132 1.018-10.9 6.413-12.969 7.562"/>
      <path id="path94" d="M152.772 258.88c1.101-6.157-4.499-5.613-7.584-7.584"/>
      <path id="path96" d="M736.067 214.064c3.331 6.633 23.904 33.059 25.51 40.679"/>
      <path id="path98" d="M517.392 231.411c3.332 6.633 12.985 15.712 14.592 23.332"/>
      <path id="path100" d="M287.909 231.297c3.332 6.633 12.872 15.826 14.476 23.446"/>
      <path id="path102" d="M682.289 192.002c-12.986.293-25.917-.693-38.704 3.872-8.795 3.14-26.626 17.354-35.047 20.949"/>
      <path id="path104" d="M452.693 192.002c-12.986.293-25.917-.693-38.704 3.872-8.795 3.14-23.818 12.528-32.239 16.123"/>
      <path id="path106" d="M419.599 205.791c1.059 3.139 2.157 6.269 2.068 9.652"/>
      <path id="path108" d="M649.195 205.791c1.057 3.139 2.155 6.269 2.066 9.652"/>
      <path id="path110" d="M165.182 214.754c1.498 3.167.889 7.236 4.137 9.652"/>
      <path id="path112" d="M394.778 214.754c1.5 3.167.889 7.236 4.137 9.652"/>
      <path id="path114" d="M624.374 214.754c1.499 3.167.89 7.236 4.138 9.652"/>
      <path id="path116" d="M241.023 207.859c2.919 3.354 8.122 2.142 11.18 5.688-1.056 4.623-5.725 8.636-2.386 14.403 1.311 2.266-1.557 4.355-3.278 6.105"/>
      <path id="path118" d="M651.953 194.07c1.435 2.837 1.432 5.897 1.379 8.963"/>
      <path id="path120" d="M413.394 207.17c1.254-1.521 2.978-1.777 4.817-2.118 8.272-1.526 8.279-1.596 10.339 6.947.568 2.354 2.161 3.737 4.149 4.823"/>
      <path id="path122" d="M683.668 225.785c8.044 2.758 16.087 5.516 24.131 8.271"/>
      <path id="path124" d="M470.619 207.859c2.919 3.354 8.122 2.142 11.18 5.688-1.056 4.623-5.725 8.636-2.386 14.403 1.311 2.266-1.558 4.355-3.278 6.105"/>
      <path id="path126" d="M243.781 210.617c-1.379 2.985-2.758 5.976-4.137 8.963"/>
      <path id="path128" d="M702.973 210.617c-1.379 2.985-2.758 5.976-4.137 8.963"/>
      <path id="path130" d="M473.377 210.617c-1.379 2.985-2.758 5.976-4.137 8.963"/>
      <path id="path132" d="M674.016 205.102v8.965"/>
      <path id="path134" d="M254.812 203.033c-1.379 2.985-2.758 5.976-4.137 8.963"/>
      <path id="path136" d="M484.408 203.033c-1.379 2.985-2.758 5.976-4.137 8.963"/>
      <path id="path138" d="m158.288 220.27 11.031 18.616"/>
      <path id="path140" d="M714.004 203.033c-1.379 2.985-2.758 5.976-4.137 8.963"/>
      <path id="path142" d="m387.884 220.27 11.031 18.616"/>
      <path id="path144" d="M700.215 207.859c2.919 3.354 8.122 2.142 11.233 5.75l-4.339 10.105"/>
      <path id="path146" d="M595.417 226.475c3.967 4.466 10.118 6.198 13.789 11.032"/>
      <path id="path148" d="M660.916 225.096c-10.479 2.21-20.666 5.054-29.008 12.354-1.009.884-2.707.978-4.086 1.438"/>
      <path id="path150" d="M422.357 194.07c1.435 2.837 1.432 5.897 1.379 8.963"/>
      <path id="path152" d="M693.32 195.449c-1.379 2.758-2.758 5.516-4.139 8.273"/>
      <path id="path154" d="m649.195 218.201 2.758 8.271"/>
      <path id="path156" d="M166.561 205.102c3.414 5.438 10.176 8.287 11.437 15.368 3.808-.812 7.672-.794 9.247-5.024"/>
      <path id="path158" d="M396.157 205.102c5.638 4.982 9.014 11.961 15.033 16.721 1.796 1.419 1.974 4.885 2.893 7.412"/>
      <path id="path160" d="M625.753 205.102c5.639 4.982 9.015 11.961 15.033 16.721 1.796 1.419 1.974 4.885 2.894 7.412"/>
      <path id="path162" d="m463.725 195.449-4.137 8.273"/>
      <path id="path164" d="m181.729 220.959 2.758 8.273"/>
      <path id="path166" d="M661.605 193.381c1.919 2.954-.899 6.923 2.066 9.652"/>
      <path id="path168" d="m719.52 218.891-5.516 8.618"/>
      <path id="path170" d="M694.699 218.891c-1.379 2.76-2.758 5.518-4.139 8.273"/>
      <path id="path172" d="M465.104 218.891c-1.379 2.76-2.758 5.518-4.137 8.273"/>
      <path id="path174" d="M432.009 193.381c1.919 2.954-.897 6.923 2.068 9.652"/>
      <path id="path176" d="M374.095 220.27c5.251 3.738 5.783 11.298 11.875 14.566 2.938-.142 3.648-4.167 6.74-4.225"/>
      <path id="path178" d="M267.223 237.507c-2.833 1.766-3.326 5.866-6.895 6.896"/>
      <path id="path180" d="M186.556 208.549c-4.863-1.438-9.614-2.346-13.1 2.758"/>
      <path id="path182" d="M419.599 218.201c.919 2.758 1.839 5.516 2.76 8.271"/>
      <path id="path184" d="M496.818 237.507c-2.832 1.766-3.326 5.866-6.896 6.896"/>
      <path id="path186" d="M144.499 220.27c5.251 3.738 5.784 11.298 11.875 14.566 2.938-.142 3.649-4.167 6.74-4.225"/>
      <path id="path188" d="M158.977 215.443c.057 6.045-4.67 7.646-8.963 9.65"/>
      <path id="path190" d="M581.628 253.364c-3.146 1.221-1.304 5.936-4.826 6.895"/>
      <path id="path192" d="M528.534 249.917c-2.73 1.008-5.839 1.322-7.585 4.137"/>
      <path id="path194" d="M388.573 215.443c.057 6.045-4.671 7.646-8.963 9.65"/>
      <path id="path196" d="M352.032 253.364c-3.147 1.221-1.303 5.936-4.826 6.895"/>
      <path id="path198" d="M122.436 253.364c-3.147 1.221-1.303 5.936-4.826 6.895"/>
      <path id="path200" d="M264.465 209.238c-1.609 2.526-3.218 5.056-4.827 7.584"/>
      <path id="path202" d="M494.061 209.238c-1.606 2.526-3.218 5.056-4.824 7.584"/>
      <path id="path204" d="M298.938 249.917c-2.73 1.008-5.839 1.322-7.584 4.137"/>
      <path id="path206" d="M632.648 225.785c2.834 1.732 1.729 5.616 4.137 7.584"/>
      <path id="path208" d="M745.03 249.228c-2.886 1.132-5.198 4.747-8.963 2.068"/>
      <path id="path210" d="M505.781 251.296c-2.038 1.979-3.753 4.422-7.465 4.135-8.189-13.539-21.274-22.101-36.68-27.525-2.605-.919-5.43-1.335-8.256-.739"/>
      <path id="path212" d="M403.052 225.785c2.834 1.732 1.732 5.616 4.139 7.584"/>
      <path id="path214" d="M173.456 225.785c2.833 1.732 1.731 5.616 4.137 7.584"/>
      <path id="path216" d="M515.434 249.228c-2.575 1.463-4.863 3.788-8.271 2.76"/>
      <path id="path218" d="M285.838 249.228c-2.577 1.463-4.866 3.788-8.273 2.76"/>
      <path id="path220" d="M498.197 225.785c-2.449 2.847-2.699 8.341-9.061 6.548-1.163-.328-3.581 3.795-5.42 5.863"/>
      <path id="path222" d="m414.083 197.518 2.069 7.583"/>
      <path id="path224" d="M268.602 225.785c-2.45 2.847-2.699 8.341-9.06 6.548-1.163-.328-3.581 3.795-5.419 5.863"/>
      <path id="path226" d="m643.68 197.518 2.068 7.583"/>
      <path id="path228" d="M758.13 249.917c-2.729 1.008-5.839 1.322-7.584 4.137"/>
      <path id="path230" d="M592.659 254.054c1.606.46 3.678.44 4.743 1.465 3.763 3.616 3.688-.559 4.907-2.152"/>
      <path id="path232" d="m293.422 240.265-6.895 4.139"/>
      <path id="path234" d="m523.018 240.265-6.895 4.139"/>
      <path id="path236" d="m752.614 240.265-6.896 4.139"/>
      <path id="path238" d="m281.701 240.265-6.895 5.518"/>
      <path id="path240" d="m511.297 240.265-6.895 5.518"/>
      <path id="path242" d="m160.356 240.954-3.847-5.129c-3.043 3.048-6.482 5.895-9.172 9.328-3.766 4.808-6.975-3.071-10.422-.062"/>
      <path id="path244" d="M389.952 240.954a16760.35 16760.35 0 0 1-3.847-5.129c-3.043 3.048-6.482 5.895-9.172 9.328-3.767 4.808-6.975-3.071-10.423-.062"/>
      <path id="path246" d="m272.738 244.401-6.895 5.516"/>
      <path id="path248" d="m502.334 244.401-6.895 5.516"/>
      <path id="path250" d="M622.306 230.611c-1.606.92-3.235 1.805-4.819 2.765-3.492 2.116-.564 3.356.685 4.82"/>
      <path id="path252" d="M701.594 223.027c-.887 2.43-1.342 5.073-3.447 6.895"/>
      <path id="path254" d="M471.998 223.027c-.887 2.43-1.342 5.073-3.447 6.895"/>
      <path id="path256" d="M242.402 223.027c-.887 2.43-1.342 5.073-3.447 6.895"/>
      <path id="path258" d="M658.848 214.754c-6.206 1.836-12.86 2.153-18.613 5.516"/>
      <path id="path260" d="M429.251 214.754c-6.206 1.836-12.862 2.153-18.616 5.516"/>
      <path id="path262" d="M682.979 215.443c-5.284.652-10.569-2.104-15.855 0"/>
      <path id="path264" d="m634.027 200.965 2.758 6.205"/>
      <path id="path266" d="M490.613 218.201c9.526 7.099 18.248 15.141 23.921 25.624 2.354 4.353 6.311 8.193 6.415 13.676"/>
      <path id="path268" d="M275.496 232.68c-1.839 2.068-3.677 4.14-5.516 6.206"/>
      <path id="path270" d="M404.431 200.965c.919 2.068 1.839 4.137 2.76 6.205"/>
      <path id="path272" d="M130.02 258.88c-.372-2.062.893-3.426 2.055-4.848 3.067.057 5.684 1.396 8.771 3.094 1.711-3.159 5.256-5.521 2.964-9.967"/>
      <path id="path274" d="M281.012 224.406c-1.839 2.066-3.677 4.137-5.516 6.205"/>
      <path id="path276" d="M718.141 216.822c-2.121-.8-3.634-2.97-6.205-2.758"/>
      <path id="path278" d="M291.354 257.501c-4.318-12.463-11.408-23.062-21.378-31.71-2.957-2.564-5.971-5.062-8.958-7.59"/>
      <path id="path280" d="m174.835 200.965 2.758 6.205"/>
      <path id="path282" d="M276.186 251.296c-2.04 1.979-3.751 4.425-7.466 4.135-8.188-13.539-21.291-22.05-36.659-27.577"/>
      <path id="path284" d="M510.607 224.406c-1.841 2.066-3.679 4.137-5.518 6.205"/>
      <path id="path286" d="M359.616 258.88c-.372-2.062.893-3.426 2.054-4.848 3.067.057 5.684 1.396 8.771 3.094 1.711-3.159 5.255-5.521 2.964-9.967"/>
      <path id="path288" d="M505.092 232.68c-1.839 2.068-3.677 4.14-5.516 6.206"/>
      <path id="path290" d="m360.305 237.507 6.205 2.758"/>
      <path id="path292" d="m130.709 237.507 6.206 2.758"/>
      <path id="path294" d="M247.228 223.717c-6.083-1.13-10.806-5.596-17.188-6.537"/>
      <path id="path296" d="M202.413 202.344c-4.508 1.861-10.508-.541-13.789 4.826"/>
      <path id="path298" d="M741.583 241.644c4.799 4.264 7.112 9.93 8.963 15.857"/>
      <path id="path300" d="M671.947 193.381c1.146 3.386-1.074 6.997.756 11.238 4.099-1.18 8.397-3.902 12.344-.207"/>
      <path id="path302" d="M442.351 193.381c1.149 3.386-1.073 6.997.757 11.238 4.099-1.18 8.398-3.902 12.345-.207"/>
      <path id="path304" d="M223.097 196.139c-1.807 6.948-6.636 8.679-13.1 7.583"/>
      <path id="path306" d="m152.772 238.886-5.516-4.138"/>
      <path id="path308" d="m382.368 238.886-5.516-4.138"/>
      <path id="path310" d="m380.3 243.022 8.355 7.453a3930.948 3930.948 0 0 1-5.597 3.576"/>
      <path id="path312" d="m150.704 243.022 8.355 7.453a3930.948 3930.948 0 0 1-5.597 3.576"/>
      <path id="path314" d="M264.465 234.748c6.664 4.001 9.485 10.92 13.1 17.237"/>
      <path id="path316" d="M378.231 227.854c-1.981.776-3.36 2.155-4.137 4.139"/>
      <path id="path318" d="M148.635 227.854c-1.981.776-3.36 2.155-4.137 4.139"/>
      <path id="path320" d="M367.89 228.543c1.608 1.149 3.217 2.299 4.826 3.447"/>
      <path id="path322" d="M138.293 228.543a14407.5 14407.5 0 0 0 4.826 3.447"/>
      <path id="path324" d="M494.061 234.748c6.664 4.001 9.485 10.92 13.102 17.237"/>
      <path id="path326" d="M135.536 245.78c-2.546 1.937-2.917 4.664-2.758 7.584"/>
      <path id="path328" d="M595.417 245.78c-4.584 3.174-3.668 8.954-6.205 13.1"/>
      <path id="path330" d="M365.131 245.78c-2.546 1.937-2.916 4.664-2.758 7.584"/>
      <path id="path332" d="M692.631 216.822c5.745 3.218 11.491 6.436 17.236 9.65"/>
      <path id="path334" d="M463.035 216.822c4.827 1.839 8.271 6.438 13.789 6.895"/>
    </g>
  </g>
  <g id="labels" font-family="Helvetica" font-size="10" transform="translate(-14.011 -30.69)">
    <text id="text341" transform="translate(177.596 305.5)">Central Zone</text>
    <text id="text343" transform="translate(191.212 317.5)">CLV3p</text>
    <text id="text345" transform="translate(411.052 305.5)">Rib Meristem</text>
    <text id="text347" transform="translate(426.054 317.5)">WUSp</text>
    <text id="text349" transform="translate(637.924 305.5)">Peripheral Zone</text>
    <text id="text351" transform="translate(663.494 317.5)">FILp</text>
  </g>
</svg>