<svg id="TissueSpecificShootApicalMeristem_svg" xmlns="http://www.w3.org/2000/svg" viewBox="100 160 700 175"><g id="Samples"><g id="Central_Zone" fill="#FFFFFF"><path d="M207 214.5c-.645 0-.645 1 0 1s.645-1 0-1z"/><path d="M232.901 209.934c-.279-3.937-1.461-7.629-3.67-10.638-.644-3.866-3.498-7.296-8.564-7.296-1.265 0-2.383.224-3.372.605-3.851-.401-7.875.188-11.619.752-.517.078-1.003.225-1.473.404-5.081-.571-10.458 2.189-10.854 8.316-.05.054-.092.101-.148.159-1.388 1.494-2.639 3.062-3.835 4.716-2.638 3.646-1.154 9.101.984 12.581.564.919 1.239 1.744 1.977 2.511.726 2.957 3.061 5.455 7.008 5.455.104 0 .2-.012.301-.015.137.085.272.172.409.258 1.247 8.26 11.625 8.303 16.695 4.328 1.485-1.164 1.472-.734 3.257-1.425 2.776-1.067 5.217-2.168 7.447-4.169 4.641-4.162 5.881-10.563 5.457-16.542z"/></g><path d="M453.622 238.078c.139-.564.213-1.148.212-1.744-.005-1.791-.211-3.578-.602-5.328-.24-1.074-.751-2.02-1.436-2.813-.093-1.073-.405-2.089-.885-2.998.084-3.813-2.328-7.692-7.247-7.692-.197 0-.384.016-.573.028-2.871-1.657-6.562-1.183-9.062 1.168-2.452 2.303-4.099 5.188-4.862 8.462-.258 1.103-.354 2.249-.533 3.366-.093.585-.242 1.149-.408 1.718.215-.844-.534.749-.701.973-1.555 2.064-1.356 4.854-.193 7.106-.1 1.216-.08 2.437.087 3.646-.854 2.957-.061 6.454 2.387 8.393.021.029.034.062.055.094.161.266.341.514.527.754.525.989 1.146 1.95 1.896 2.89 3.306 4.146 9.262 3.439 13.396 1.348 3.863-1.956 6.681-5.689 7.741-9.834.808-3.163.489-6.354.201-9.537z" id="Rib_Meristem" fill="#FFFFFF"/><g id="Peripheral_Zone" fill="#FFFFFF"><path d="M625.753 233.913c-.032-.219-.055-.438-.092-.655-.854-5.072-4.568-8.863-8.543-11.731-.661-.479-1.393-.781-2.148-.946-.655-.615-1.345-1.206-2.108-1.747-3.469-2.451-8.125-1.259-11.499.569-6.627 3.592-11.255 10.794-9.52 18.454.755 3.329 2.261 6.411 4.9 8.647 2.298 1.946 5.201 2.809 7.521 4.641 2.848 2.249 5.223 4.452 9.037 4.707 2.663.18 5.025-.839 7.04-2.388 2.912-.933 5.303-3.627 5.491-7.131.06-1.112.126-2.206.179-3.291 1.731-2.696 1.646-6.549-.258-9.129zM743.251 227.694c-.08-.322-.16-.646-.258-.96-2.125-6.89-6.972-11.105-13.666-13.302-4.572-1.498-7.838 1.312-8.854 4.892-3.342 2.751-5.951 6.524-8.376 10.061-2.128 3.104-5.171 6.771-4.745 10.857.222 2.113.326 4.347 1.459 6.226.348.625.76 1.205 1.203 1.763.505 6.111 7.31 9.727 12.623 5.073 1.083-.946 2.273-.588 3.696-.471 4.436.366 6.808-2.609 7.153-6.008 4.159-.071 6.482-2.944 6.983-6.16 4.778-1.834 5.705-8.325 2.782-11.971z"/></g></g><g id="Outlines"><path fill="none" stroke="#000000" stroke-width=".75" stroke-linecap="round" stroke-linejoin="round" stroke-miterlimit="10" d="M464.414 207.17c-.543 5.566-1.88 9.831-8.938 10.592-4.332.47-6.655 3.18-3.707 8.835 4.187 8.024 1.485 17.016-.047 25.337-.833 4.522-10.139 7.931-14.888 6.946-4.816-.997-9.062-6.873-9.67-13.098-.956-9.821 1.903-18.539 6.719-27.001 1.177-2.068 3.144-.188 3.643-1.959 4.373 1.242 9.558-.321 13.1 3.792M225.166 203.723c1.547.116 3.076.112 4.467-1.23-.18-6.959-4.088-10.388-14.102-9.576-6.188.502-12.816-.998-18.634 2.535M725.726 237.507c-3.053-5.423-8.312-7.689-13.651-10.245-1.436 2.816-3.995 4.629-3.514 7.477.901 5.328 1.189 11.148 3.682 15.703 2.289 4.185 7.373 2.949 11.417.854M734.688 245.78c5.307-1.59 5.594-7.964 10.181-10.624 1.764-1.022-.468-5.075-1.4-7.225-2.788-6.42-5.506-12.596-14.221-14.257-5.336-1.017-6.615 2.646-9.729 4.182M625.062 244.401c.562 2.377 2.106 5.579-.757 6.729-5.185 2.082-10.196 7.158-16.452 2.884-4.18-2.854-8.641-5.427-11.5-8.654-1.062-4.116 3.793-5.215 2.511-8.541M441.662 203.033c-1.859 2.105-4.354-1.481-6.553 1.098-1.487 3.958 1.011 8.325.348 12.691M230.681 227.164c-.825-3.203-3.971-1.946-4.696-1.244-4.962 4.805-11.66 6.232-17.549 9.263-2.166-3.025-7.153-3.192-8.781-7.329"/><path fill="none" stroke="#000000" stroke-width=".75" stroke-linecap="round" stroke-linejoin="round" stroke-miterlimit="10" d="M449.935 201.654c.23-.92.593-1.827.669-2.76.592-7.062 2.47-8.467 8.975-6.174 9.462 3.335 19.12 6.294 28.197 10.49 7.587 3.507 13.763 9.573 19.214 15.831 3.521 4.041 8.403 7.009 10.401 12.37-1.958 1.958-4.024 4.024-6.095 6.096M228.565 197.518c4.552-3.298 10.363-1.823 14.494-.582 19.221 5.775 33.228 18.559 44.85 34.361-2.072 2.072-4.14 4.141-6.208 6.21M671.258 203.033c-1.857 2.105-4.353-1.481-6.457.984-1.545 3.15.379 6.6.252 10.047M614.032 216.133c-8.016.839-15.987 1.752-20.007 10.336-.131.277-.655.477-.646.694.289 7.47-6.277 11.352-9.237 16.933 2.158 2.812 6.247 1.326 7.828 4.442M170.008 211.996c-4.52 1.765-8.553 4.16-13.929.922-3.916-2.357-8.642 1.764-10.596 4.146-7.177 8.751-15.399 16.855-20.402 27.2 2.027 2.641 6.116 1.155 7.697 4.271M401.514 210.962c-4.52 1.765-10.462 5.194-15.839 1.956-3.916-2.357-8.642 1.764-10.596 4.146-7.178 8.751-15.399 16.855-20.402 27.2 2.027 2.641 6.116 1.155 7.697 4.271M675.395 216.133v8.562c-2.985.443-5.284.937-7.584-.289"/><path fill="none" stroke="#000000" stroke-width=".75" stroke-linecap="round" stroke-linejoin="round" stroke-miterlimit="10" d="M244.47 198.896c-1.555 2.788-3.109 5.577-4.787 8.583-5.629-2.681-7.548-.071-7.654 5.206-.033 1.612-.43 3.22-.659 4.826M629.201 211.996c-4.332 3.092-10.174 1.657-14.43 4.517-.399 2.783.856 4.812 2.753 5.735 5.338 2.604 5.604 8.603 8.578 12.743 1.484 2.064 2.544 7.712-3.091 9.469-1.727.539-3.234 1.78-4.845 2.699M694.01 207.17c-.693 5.097-1.281 10.281-8.271 10.342M679.531 201.654c.229-.92.591-1.827.669-2.76.59-7.062 2.468-8.467 8.974-6.174 9.462 3.335 18.85 6.887 28.281 10.304 4.604 1.67 17.354 6.537 18.612 11.041M415.462 217.512c-.46-.919-1.06-1.795-1.355-2.765-2.988-9.746-2.976-9.75-11.055-3.44M645.059 217.512c-.46-.919-1.061-1.795-1.355-2.765-2.987-9.746-2.975-9.75-11.053-3.44M584.386 246.47c-1.03 1.544-2.061 3.09-3.032 4.548 2.467 2.791 6.075 2.469 8.55 4.415"/><path fill="none" stroke="#000000" stroke-width=".75" stroke-linecap="round" stroke-linejoin="round" stroke-miterlimit="10" d="M675.395 224.695c1.855.305 6.896 1.09 6.896 1.09 5.285-6.621-1.243-15.458 4.037-22.098 4.438.459 8.015 3.62 12.724 3.479 1.503-2.693 3.06-5.482 4.612-8.271M474.066 198.896c-1.557 2.788-3.109 5.577-4.613 8.271-4.708.142-8.285-3.021-12.912-3.5-2.481 4.281-2.103 9.137-2.469 13.844M723.657 240.265c.746-1.324 1.493-2.649 2.239-3.978 3.877 1.723 3.291 4.889 5.301 6.115 2.293 1.397 2.204 4.286 1.266 6.052-1.335 2.511-3.761 3.744-6.796 1.542-1.013-.734-2.699-.539-4.078-.771M642.99 207.17c1.252-1.521 2.976-1.777 4.814-2.118 8.366-1.546 8.309-1.598 10.379 6.938.687 2.819 3.178 4.878 2.956 8.296-.094 1.44-.605 5.126 3.223 4.807 1.333-.109 2.444-.055 2.869-2.041.583-2.733 1.647-5.486-.869-7.521-1.457-1.179-3.607-1.445-5.446-.086M354.79 246.47c-1.03 1.544-2.06 3.089-3.033 4.548 2.466 2.791 6.075 2.469 8.548 4.415M125.193 246.47c-1.03 1.544-2.06 3.089-3.032 4.548 2.465 2.791 6.075 2.469 8.548 4.415M407.188 220.959c-4.364 2.758-8.731 5.516-13.1 8.273M177.593 220.959c-4.367 2.758-8.733 5.516-13.1 8.273M252.744 214.064c3.225.102 5.296 2.315 7.598 4.111-.643 3.935-4.763 5.848-4.597 9.995-2.328-.727-3.362-2.224-5.069-1.698M482.34 214.064c3.227.102 5.296 2.315 7.601 4.111-.646 3.935-4.766 5.848-4.6 9.995-2.329-.727-3.362-2.224-5.069-1.698M192.761 226.475c-13.538 4.776-24.185 14.249-35.852 22.063M636.785 220.959c-4.137 2.758-8.273 5.516-12.411 8.273M192.083 217.585c.037 2.648-.94 6.703 3.482 8.047 1.546.47 3.164 3.198 5.6.262M430.137 226.475c-7.701-1.269-16.184 3.432-22.176 7.031-7.466 4.488-14.332 9.979-21.456 15.032M444.419 205.102v11.723M184.487 197.518c.578 5.119 3.029 9.828 2.973 15.17-.017 1.595 2.542 3.216 3.921 4.822M382.368 258.88c1.101-6.157-4.499-5.613-7.584-7.584"/><path fill="none" stroke="#000000" stroke-width=".75" stroke-linecap="round" stroke-linejoin="round" stroke-miterlimit="10" d="M194.829 202.344c-.112-2.412-.133-4.807 1.458-6.802-3.028-4.078-6.742-1.811-9.677-.647-7.061 2.8-13.86 6.265-20.728 9.539-2.132 1.018-10.9 6.413-12.969 7.562M152.772 258.88c1.101-6.157-4.499-5.613-7.584-7.584M736.067 214.064c3.331 6.633 23.904 33.059 25.51 40.679M517.392 231.411c3.332 6.633 12.985 15.712 14.592 23.332M287.909 231.297c3.332 6.633 12.872 15.826 14.476 23.446M682.289 192.002c-12.986.293-25.917-.693-38.704 3.872-8.795 3.14-26.626 17.354-35.047 20.949M452.693 192.002c-12.986.293-25.917-.693-38.704 3.872-8.795 3.14-23.818 12.528-32.239 16.123M419.599 205.791c1.059 3.139 2.157 6.269 2.068 9.652M649.195 205.791c1.057 3.139 2.155 6.269 2.066 9.652M165.182 214.754c1.498 3.167.889 7.236 4.137 9.652M394.778 214.754c1.5 3.167.889 7.236 4.137 9.652M624.374 214.754c1.499 3.167.89 7.236 4.138 9.652M241.023 207.859c2.919 3.354 8.122 2.142 11.18 5.688-1.056 4.623-5.725 8.636-2.386 14.403 1.311 2.266-1.557 4.355-3.278 6.105M651.953 194.07c1.435 2.837 1.432 5.897 1.379 8.963"/><path fill="none" stroke="#000000" stroke-width=".75" stroke-linecap="round" stroke-linejoin="round" stroke-miterlimit="10" d="M413.394 207.17c1.254-1.521 2.978-1.777 4.817-2.118 8.272-1.526 8.279-1.596 10.339 6.947.568 2.354 2.161 3.737 4.149 4.823M683.668 225.785c8.044 2.758 16.087 5.516 24.131 8.271M470.619 207.859c2.919 3.354 8.122 2.142 11.18 5.688-1.056 4.623-5.725 8.636-2.386 14.403 1.311 2.266-1.558 4.355-3.278 6.105M243.781 210.617c-1.379 2.985-2.758 5.976-4.137 8.963M702.973 210.617c-1.379 2.985-2.758 5.976-4.137 8.963M473.377 210.617c-1.379 2.985-2.758 5.976-4.137 8.963M674.016 205.102v8.965M254.812 203.033c-1.379 2.985-2.758 5.976-4.137 8.963M484.408 203.033c-1.379 2.985-2.758 5.976-4.137 8.963M158.288 220.27c3.677 6.205 7.354 12.41 11.031 18.616M714.004 203.033c-1.379 2.985-2.758 5.976-4.137 8.963M387.884 220.27c3.677 6.205 7.354 12.41 11.031 18.616"/><path fill="none" stroke="#000000" stroke-width=".75" stroke-linecap="round" stroke-linejoin="round" stroke-miterlimit="10" d="M700.215 207.859c2.919 3.354 8.122 2.142 11.233 5.75-1.409 3.282-2.874 6.694-4.339 10.105M595.417 226.475c3.967 4.466 10.118 6.198 13.789 11.032M660.916 225.096c-10.479 2.21-20.666 5.054-29.008 12.354-1.009.884-2.707.978-4.086 1.438M422.357 194.07c1.435 2.837 1.432 5.897 1.379 8.963M693.32 195.449c-1.379 2.758-2.758 5.516-4.139 8.273M649.195 218.201c.919 2.758 1.839 5.516 2.758 8.271M166.561 205.102c3.414 5.438 10.176 8.287 11.437 15.368 3.808-.812 7.672-.794 9.247-5.024M396.157 205.102c5.638 4.982 9.014 11.961 15.033 16.721 1.796 1.419 1.974 4.885 2.893 7.412M625.753 205.102c5.639 4.982 9.015 11.961 15.033 16.721 1.796 1.419 1.974 4.885 2.894 7.412M463.725 195.449c-1.379 2.758-2.758 5.516-4.137 8.273M181.729 220.959c.919 2.758 1.839 5.516 2.758 8.273M661.605 193.381c1.919 2.954-.899 6.923 2.066 9.652M719.52 218.891c-1.838 2.873-3.677 5.746-5.516 8.618M694.699 218.891c-1.379 2.76-2.758 5.518-4.139 8.273M465.104 218.891c-1.379 2.76-2.758 5.518-4.137 8.273M432.009 193.381c1.919 2.954-.897 6.923 2.068 9.652M374.095 220.27c5.251 3.738 5.783 11.298 11.875 14.566 2.938-.142 3.648-4.167 6.74-4.225M267.223 237.507c-2.833 1.766-3.326 5.866-6.895 6.896M186.556 208.549c-4.863-1.438-9.614-2.346-13.1 2.758M419.599 218.201c.919 2.758 1.839 5.516 2.76 8.271M496.818 237.507c-2.832 1.766-3.326 5.866-6.896 6.896M144.499 220.27c5.251 3.738 5.784 11.298 11.875 14.566 2.938-.142 3.649-4.167 6.74-4.225M158.977 215.443c.057 6.045-4.67 7.646-8.963 9.65M581.628 253.364c-3.146 1.221-1.304 5.936-4.826 6.895M528.534 249.917c-2.73 1.008-5.839 1.322-7.585 4.137M388.573 215.443c.057 6.045-4.671 7.646-8.963 9.65M352.032 253.364c-3.147 1.221-1.303 5.936-4.826 6.895M122.436 253.364c-3.147 1.221-1.303 5.936-4.826 6.895M264.465 209.238c-1.609 2.526-3.218 5.056-4.827 7.584M494.061 209.238c-1.606 2.526-3.218 5.056-4.824 7.584M298.938 249.917c-2.73 1.008-5.839 1.322-7.584 4.137M632.648 225.785c2.834 1.732 1.729 5.616 4.137 7.584M745.03 249.228c-2.886 1.132-5.198 4.747-8.963 2.068"/><path fill="none" stroke="#000000" stroke-width=".75" stroke-linecap="round" stroke-linejoin="round" stroke-miterlimit="10" d="M505.781 251.296c-2.038 1.979-3.753 4.422-7.465 4.135-8.189-13.539-21.274-22.101-36.68-27.525-2.605-.919-5.43-1.335-8.256-.739M403.052 225.785c2.834 1.732 1.732 5.616 4.139 7.584M173.456 225.785c2.833 1.732 1.731 5.616 4.137 7.584M515.434 249.228c-2.575 1.463-4.863 3.788-8.271 2.76M285.838 249.228c-2.577 1.463-4.866 3.788-8.273 2.76"/><path fill="none" stroke="#000000" stroke-width=".75" stroke-linecap="round" stroke-linejoin="round" stroke-miterlimit="10" d="M498.197 225.785c-2.449 2.847-2.699 8.341-9.061 6.548-1.163-.328-3.581 3.795-5.42 5.863M414.083 197.518c.69 2.528 1.379 5.056 2.069 7.583M268.602 225.785c-2.45 2.847-2.699 8.341-9.06 6.548-1.163-.328-3.581 3.795-5.419 5.863M643.68 197.518c.689 2.528 1.379 5.056 2.068 7.583M758.13 249.917c-2.729 1.008-5.839 1.322-7.584 4.137M592.659 254.054c1.606.46 3.678.44 4.743 1.465 3.763 3.616 3.688-.559 4.907-2.152M293.422 240.265c-2.298 1.379-4.597 2.76-6.895 4.139M523.018 240.265c-2.298 1.379-4.596 2.76-6.895 4.139M752.614 240.265c-2.298 1.379-4.599 2.76-6.896 4.139M281.701 240.265c-2.298 1.839-4.597 3.679-6.895 5.518M511.297 240.265c-2.298 1.839-4.597 3.679-6.895 5.518M160.356 240.954c-1.186-1.582-2.372-3.163-3.847-5.129-3.043 3.048-6.482 5.895-9.172 9.328-3.766 4.808-6.975-3.071-10.422-.062M389.952 240.954c-1.187-1.582-2.373-3.163-3.847-5.129-3.043 3.048-6.482 5.895-9.172 9.328-3.767 4.808-6.975-3.071-10.423-.062M272.738 244.401c-2.298 1.839-4.597 3.677-6.895 5.516M502.334 244.401c-2.298 1.839-4.597 3.677-6.895 5.516M622.306 230.611c-1.606.92-3.235 1.805-4.819 2.765-3.492 2.116-.564 3.356.685 4.82M701.594 223.027c-.887 2.43-1.342 5.073-3.447 6.895M471.998 223.027c-.887 2.43-1.342 5.073-3.447 6.895M242.402 223.027c-.887 2.43-1.342 5.073-3.447 6.895M658.848 214.754c-6.206 1.836-12.86 2.153-18.613 5.516M429.251 214.754c-6.206 1.836-12.862 2.153-18.616 5.516M682.979 215.443c-5.284.652-10.569-2.104-15.855 0M634.027 200.965c.919 2.068 1.838 4.137 2.758 6.205"/><path fill="none" stroke="#000000" stroke-width=".75" stroke-linecap="round" stroke-linejoin="round" stroke-miterlimit="10" d="M490.613 218.201c9.526 7.099 18.248 15.141 23.921 25.624 2.354 4.353 6.311 8.193 6.415 13.676M275.496 232.68c-1.839 2.068-3.677 4.14-5.516 6.206M404.431 200.965c.919 2.068 1.839 4.137 2.76 6.205M130.02 258.88c-.372-2.062.893-3.426 2.055-4.848 3.067.057 5.684 1.396 8.771 3.094 1.711-3.159 5.256-5.521 2.964-9.967M281.012 224.406c-1.839 2.066-3.677 4.137-5.516 6.205M718.141 216.822c-2.121-.8-3.634-2.97-6.205-2.758"/><path fill="none" stroke="#000000" stroke-width=".75" stroke-linecap="round" stroke-linejoin="round" stroke-miterlimit="10" d="M291.354 257.501c-4.318-12.463-11.408-23.062-21.378-31.71-2.957-2.564-5.971-5.062-8.958-7.59M174.835 200.965c.919 2.068 1.838 4.137 2.758 6.205M276.186 251.296c-2.04 1.979-3.751 4.425-7.466 4.135-8.188-13.539-21.291-22.05-36.659-27.577M510.607 224.406c-1.841 2.066-3.679 4.137-5.518 6.205M359.616 258.88c-.372-2.062.893-3.426 2.054-4.848 3.067.057 5.684 1.396 8.771 3.094 1.711-3.159 5.255-5.521 2.964-9.967M505.092 232.68c-1.839 2.068-3.677 4.14-5.516 6.206M360.305 237.507c2.068.919 4.137 1.838 6.205 2.758M130.709 237.507c2.069.919 4.137 1.838 6.206 2.758M247.228 223.717c-6.083-1.13-10.806-5.596-17.188-6.537M202.413 202.344c-4.508 1.861-10.508-.541-13.789 4.826M741.583 241.644c4.799 4.264 7.112 9.93 8.963 15.857M671.947 193.381c1.146 3.386-1.074 6.997.756 11.238 4.099-1.18 8.397-3.902 12.344-.207M442.351 193.381c1.149 3.386-1.073 6.997.757 11.238 4.099-1.18 8.398-3.902 12.345-.207M223.097 196.139c-1.807 6.948-6.636 8.679-13.1 7.583M152.772 238.886c-1.839-1.379-3.677-2.758-5.516-4.138M382.368 238.886c-1.839-1.379-3.677-2.758-5.516-4.138M380.3 243.022c2.312 2.062 4.623 4.125 8.355 7.453-2.507 1.604-4.052 2.591-5.597 3.576M150.704 243.022c2.312 2.062 4.623 4.125 8.355 7.453-2.507 1.604-4.052 2.591-5.597 3.576M264.465 234.748c6.664 4.001 9.485 10.92 13.1 17.237M378.231 227.854c-1.981.776-3.36 2.155-4.137 4.139M148.635 227.854c-1.981.776-3.36 2.155-4.137 4.139M367.89 228.543c1.608 1.149 3.217 2.299 4.826 3.447M138.293 228.543c1.608 1.149 3.218 2.299 4.826 3.447M494.061 234.748c6.664 4.001 9.485 10.92 13.102 17.237M135.536 245.78c-2.546 1.937-2.917 4.664-2.758 7.584M595.417 245.78c-4.584 3.174-3.668 8.954-6.205 13.1M365.131 245.78c-2.546 1.937-2.916 4.664-2.758 7.584M692.631 216.822c5.745 3.218 11.491 6.436 17.236 9.65M463.035 216.822c4.827 1.839 8.271 6.438 13.789 6.895"/></g><g id="labels"><text transform="translate(177.5962 305.5)" font-family="'Helvetica'" font-size="10">Central Zone</text><text transform="translate(191.2124 317.5)" font-family="'Helvetica'" font-size="10">CLV3p</text><text transform="translate(411.0518 305.5)" font-family="'Helvetica'" font-size="10">Rib Meristem</text><text transform="translate(426.0537 317.5)" font-family="'Helvetica'" font-size="10">WUSp</text><text transform="translate(637.9238 305.5)" font-family="'Helvetica'" font-size="10">Peripheral Zone</text><text transform="translate(663.4941 317.5)" font-family="'Helvetica'" font-size="10">FILp</text></g></svg>