<svg xmlns="http://www.w3.org/2000/svg" xml:space="preserve" id="TissueSpecificPollenGermination_svg" x="0" y="0" version="1.1" viewBox="200 20 422.286 468.87" author="Provart Lab - Bio Analytic Resource, University of Toronto">
  <g id="Samples" fill="#fff" transform="translate(-23.37 -11.42)">
    <g id="Pollen_tubes_harvested_after_growth_through_pistil_explants">
      <path id="path2" d="M405.472 414h-3.279c-.036 0-.062-.682-.095-.682-1.304-1.537-4.062-2.349-5.478-.111-3.055 4.83-3.645 9.961-3.889 15.317-.581.36-1.072.826-1.364 1.612-1.799 4.858-1.294 10.117-3.008 14.999-.277.786-.246 1.459-.021 2.043-.129.146-.255.286-.359.452-.871.035-1.764.199-2.487.701a3.78 3.78 0 0 0-1.421 1.816c-3.344 1.316-6.893 2.253-10.066 3.921-1.511.793-1.861 2.185-1.512 3.437-.022 1.658 1.03 3.295 3.167 3.229 3.46-.112 6.482-1.521 9.587-2.909.73-.327 1.195-.981 1.427-1.729 2.192-.82 4.322-1.774 6.231-3.194.211-.157.367-.329.538-.498.675-.208 1.296-.673 1.735-1.501 4.363-8.219 2.459-17.846 4.06-26.539 1.729-2.334 1.927-5.583 4.272-7.438.312-.246.397-.543.356-.827.721-.479 1.464-.241 2.157-.764.824-.612.625-1.335-.551-1.335z"/>
      <g id="g8">
        <path id="path4" d="M424.07 462.649c-.046-.438-.22-.779-.433-1.08.121-4.492-.228-9.4-2.564-13.165a2.014 2.014 0 0 0-.312-1.081c-2.054-3.305-1.938-7.188-2.294-10.99.087-.231.136-.485.132-.759-.021-1.855-.844-3.949-.908-5.894.409-.271.731-.67.833-1.187.302-1.569.528-3.093.625-4.687.004-.075-.027-.13-.03-.204.077-.121.172-.229.225-.366.707-1.861 1.362-3.665 1.816-5.562.607-.421.932-1.123.917-1.851.034-.064.079-.126.104-.194.357-.247.712-.497 1.073-.741.743-.501.717-1.749-.262-1.98a23.1 23.1 0 0 0-1.815-.359 2.41 2.41 0 0 0-1.041-.115c-.421-.043-.841-.104-1.264-.108-.979-.021-1.262 1.021-.882 1.674-.414.403-.675.974-.759 1.608-.15 1.133-.479 2.238-.872 3.33a2.96 2.96 0 0 0-.417.735c-.341.866-.658 1.457-.812 2.32-.003.005-.006-.064-.008-.086-.031.038-.065.489-.079.688-.006.086.023.146.026.227a2.243 2.243 0 0 0-.301.987 18.269 18.269 0 0 1-.136 1.589c-.385.275-.707.65-.882 1.112-.531 1.396-.483 2.735-.283 4.075-.227.33-.375.711-.342 1.155.095 1.276.302 2.338.703 3.404-.878.605-1.344 1.966-.677 2.896.444.622.771 1.13.795 1.903.021.804.409 1.351.925 1.693.167 2.423.512 4.82 1.729 7.135-.035.406.067.851.382 1.303 2.208 3.188 2.434 7.508 2.295 11.472a2.185 2.185 0 0 0-.683 1.371c-.185 1.773-.708 3.377-1.398 4.896-.236.093-.475.201-.692.396-2.284 2-4.554 4.015-6.837 6.018-2.229 1.954-3.418 4.889-5.743 6.84-1.118.938-.816 2.198.021 2.965-.317 1.647 1.375 3.549 3.18 2.386 3.197-2.062 5.922-4.354 8.239-7.034a1.862 1.862 0 0 0 1.06-.351c1.37-.977 2.351-2.097 2.987-3.531.322-.242.598-.576.753-1.06.297-.93.7-1.819 1.104-2.711 1.751-2.789 3.162-5.708 2.802-9.082z"/>
        <path id="polygon6" d="M415.128 421.899h-.005l.001.012z"/>
      </g>
      <path id="path10" d="M473.274 478.502c-.271-.543-.534-1.084-.805-1.625.601-.615.854-1.523.254-2.478-1.14-1.827-2.089-3.743-2.988-5.688.684-.601.968-1.549.257-2.52-1.46-1.989-2.795-4.061-4.109-6.146a6.183 6.183 0 0 0-.402-1.247c-.605-1.371-1.621-2.499-2.323-3.817a2.137 2.137 0 0 0-.599-.723c-.903-3.447-1.819-6.886-3.24-10.167-2.199-5.073-6.438-9.149-10.451-12.803a2.2 2.2 0 0 0-.672-.4c-1.553-2.092-3.238-4.125-5.008-6.123.013-.229.021-.457-.051-.715-.368-1.329-.974-2.575-1.588-3.805-.44-.886-1.19-1.163-1.926-1.076-.021-.104-.003-.203-.042-.312-.396-1.179-.836-2.217-1.658-3.155-.453-.521-1.143-.673-1.803-.583-.049-.217-.074-.438-.134-.654-.453-1.655-1.766-2.342-3.085-2.312-.346-.527-.897-.918-1.723-.918-2.086 0-2.619 2.381-1.622 3.629-.056.412-.031.858.101 1.346.973 3.55-.206 10.099 2.438 13.315-.227.404-.369.878-.289 1.437.092.639.186 1.277.273 1.914.007.053.035.099.046.146a2.041 2.041 0 0 0-.398 1.187c-.018 1.381-.199 2.716-.468 4.068-.198 1.006.21 1.993 1.094 2.47-.126 1.954.038 4.047.855 6.624 1.997 6.293 3.528 12.557 4.285 18.989-.001.045-.022.071-.022.121.039 1.647-.094 3.332-.354 5.012-.634.396-1.105 1.073-1.014 1.826.362 2.88-1.28 5.024-2.709 7.373-.358.594-.396 1.173-.235 1.675-.278.451-.556.905-.856 1.334-.796 1.128-.296 2.223.608 2.785-.008.179-.044.346-.008.542.428 2.317.471 4.727 0 7.042-.529 2.601 3.167 3.747 4.056 1.545a1.877 1.877 0 0 0 1.036-.952c1.027-2.07 1.755-4.256 2.452-6.451 1.938-3.179 3.901-6.396 3.861-10.243-.003-.199-.053-.374-.102-.552.655-.472 1.079-1.248.847-2.134 1.832-3.884.478-7.663.623-11.812.024-.671-.216-1.171-.58-1.521.116-2.71-.399-5.13-2.248-7.409-.072-.092-.171-.125-.254-.197-2.942-5.285-5.063-10.795-5.67-16.854-.021-.231-.107-.414-.185-.609.504-2.102 1.206-4.194 1.445-6.293l.029-.021c.803.924 1.754 1.137 2.643.939.505.635 1.065 1.203 1.682 1.653-.062 1.406.521 2.677 1.849 3.514.469.295.986.468 1.516.617.235.58.484 1.019.966 1.471a2.25 2.25 0 0 0 1.801.603c2.425 3.799 4.638 7.712 6.697 11.719-.699.452-1.146 1.26-.854 2.305 1.271 4.579 3.616 8.588 5.689 12.83.514 1.055 1.298 2.197 2.099 3.395-.688.612-1.047 1.586-.457 2.626 1 1.766 2.271 3.425 3.301 5.188-.018.271 0 .542-.045.814-.085 1.04.559 1.712 1.365 1.979.146.438.27.878.355 1.334.415 2.171 3.398 1.945 4.132.229 1.501.188 3.238-1.454 2.322-3.281z"/>
      <path id="path12" d="M486.941 450.827a45.914 45.914 0 0 0-.825-3.335c-.131-1.522-.595-2.865-1.449-4.24.054-.612-.111-1.277-.603-1.95-1.748-2.398-3.894-4.193-6.221-5.769a2.734 2.734 0 0 0-.585-.643c-.219-.171-.45-.333-.674-.502l.009-.011a66.802 66.802 0 0 1-3.711-2.769 3.616 3.616 0 0 0-.611-.397c-1.452-1.088-2.864-2.223-4.097-3.526-2.54-2.691-4.211-5.795-7.44-7.803-.649-.4-1.289-.543-1.879-.5-3.075-3.824-6.284-7.667-11.538-7.88-2.652-.109-2.771 3.707-.444 4.267a2.165 2.165 0 0 0 .538 1.656c.269.316.571.615.884.91-.051.795.252 1.619 1.077 2.324.833.713 1.464 1.55 2.06 2.408 0 .062-.015.131-.013.192.049 1.063.707 1.703 1.493 1.955.363.51.75 1.01 1.188 1.478 2.626 2.792 5.995 4.679 8.947 7.096 4.718 3.863 11.708 5.823 15.35 10.821.676.924 1.588 1.338 2.511 1.402a2.19 2.19 0 0 0 .077 1.603c.107.25.222.499.333.748-.217.41-.298.879-.218 1.38a2.02 2.02 0 0 0-.102.596v7.043c0 .037-.084.045-.168.095-1.096.643-1.201 1.865-.741 2.943-.007.019.019.079.02.312.007.812.405 1.362.93 1.71-.351 1.176-1.127 2.271-1.565 3.2-1.193 2.539 2.515 4.764 3.715 2.209.072-.158.108-.34.184-.502.557.063 1.122-.108 1.616-.693 1.639-1.944 2.395-4.541 2.623-7.354 1.159-2.863 1.596-5.817-.671-8.474z"/>
      <path id="path14" d="M506.331 451.03c.91-6.773-2.892-16.057-7.312-18.987-.683-.453-1.347-.448-1.896-.189a125.477 125.477 0 0 0-3.991-3.732c-3.302-2.978-6.953-5.521-10.146-8.619-2.15-2.09-3.896-4.074-6.299-5.479-.349-.633-.952-1.102-1.623-1.194-.052-.079-.104-.153-.149-.234-.369-.665-1.132-1.089-1.889-1.083-2.309.021-4.563.19-6.807-.468-2.713-.8-3.86 3.422-1.161 4.216.311.094.616.146.927.211.11.629.438 1.231 1.014 1.484 1.397.62 2.306 1.822 3.438 2.803a7.689 7.689 0 0 0 2.713 1.528c.186.217.387.354.592.469.083.552.363 1.084.915 1.491 5.213 3.838 10.679 7.312 15.69 11.418 4.09 3.345 10.25 7.947 9.013 14.009-.22 1.062.278 1.878.999 2.335-.383 1.396-.606 2.759-.53 4.265.095 1.834 1.948 2.645 3.387 1.772.611.185 1.309.144 1.82-.157.748-.437 1.03-1.146 1.011-1.893.692-.292 1.216-.917 1.167-1.912-.043-.864-.318-1.445-.883-2.054z"/>
    </g>
    <g id="Pollen_germinated_in_vitro_for_4_hours">
      <path id="path17" d="M634.573 179.625c-5.267 3.916-12.895 3.651-19.643 1.298-.671-2.263-2.769-3.952-5.224-3.959-.266.002-.529-.002-.798-.01-.062-.021-.104-.039-.209-.068-.133-.037-.271-.042-.399-.068-.41-.205-.812-.431-1.216-.65a22.66 22.66 0 0 0-2.464-1.132c-.111-.101-.236-.197-.346-.298-.246-.23-.504-.406-.76-.581-.25-.854-.772-1.689-1.703-2.428-3.688-2.933-7.801-4.542-11.922-6.737-5.016-2.672-9.18-7.468-13.801-10.802a4.376 4.376 0 0 0-2.604-.824l-.95-.543c-2.656-1.519-5.191-.603-6.721 1.203a6.051 6.051 0 0 0-1.323.16c-5.283 1.246-9.354 4.089-13.533 7.43-5.794 4.629-11.875 8.974-17.858 13.36a5.856 5.856 0 0 0-1.454 1.547c-1.897.198-3.594 1.398-4.066 3.911-1.356 7.155-4.84 16.406-.271 23.085.271.396.572.73.892 1.024-.425 1.184-.392 2.524.328 3.621 1.621 2.476 1.891 5.499 2.841 8.254.462 1.337 1.429 2.383 2.639 2.886.416.959.882 1.888 1.414 2.748.812 1.883 1.521 3.799 1.964 5.853.439 2.021 1.851 2.977 3.396 3.119-.738 3.729 1.248 7.35 4.269 9.551a26.986 26.986 0 0 0 3.541 4.893c1.276 1.411 2.877 2.216 4.582 2.573 10.271 9.628 26.442 17.225 35.902 4.624 13.327-17.754-13.271-40.462-30.797-34.636-3.609-1.951-8.271-1.464-11.43.784-.106-.068-.184-.162-.302-.223-1.895-.991-3.48-2.206-4.816-3.74l-.724-1.527c-.463-.983-1.187-1.581-2.008-1.894-.698-2.521-1.323-5.051-2.707-7.322 1.489-1.52 2.059-3.777.462-6.105-2.149-3.146-.048-9.048 1.002-13.065.288-.144.576-.298.864-.51 4.841-3.548 9.541-7.278 14.495-10.667 3.798-2.598 6.919-5.877 10.967-7.812.7.385 1.498.628 2.41.628.624 0 1.149-.036 1.646-.088 8.699 5.037 16.625 11.318 25.681 15.751 1.073.525 2.119.667 3.097.56 10.562 9.588 30.837 15.457 43.176 6.277 5.593-4.165.15-13.667-5.519-9.451z"/>
    </g>
    <g id="Pollen_germinated_in_vitro_for_30_minutes">
      <g id="g24">
        <path id="path20" d="M353.295 133.084c.033-.198.064-.514.086-1.012-.015.056-.034.11-.048.166-.014.282-.003.568-.038.846z"/>
        <path id="path22" d="M355.043 121.483c.024-.264.07-.532.07-.792 0-4.375-3.004-8.337-7.229-9.494-2.092-.573-4.269-1.097-6.446-.899-2.869.261-5.467 1.452-7.285 3.363a8.144 8.144 0 0 0-1.386-.122c-1.94-1.239-4.321-1.908-7.075-1.522-9.152 1.283-13.921 1.696-19.088 10.369-4.64 7.786-6.346 17.527-7.013 26.402-1.258 16.753 4.362 40.613 24.068 41.098 21.882.539 29.956-16.455 30.085-36.102.034-5.066-.603-10.812-2.042-16.401a10.225 10.225 0 0 0 1.591-4.3c-.094.557-.191.096-.035-.594.019-.085.052-.168.072-.252.011-.221.033-.44.03-.663.015.05.025.022.03-.057-.003.191-.005.397-.012.554.133-.497.277-.992.427-1.483.683-2.219 1.073-4.333 1.304-6.671.08-.796.049-1.616-.066-2.434z"/>
      </g>
    </g>
    <g id="Dry_pollen">
      <path id="path27" d="M497.449 83.347c.666-2.898.537-5.968-.444-8.752.021-.492.049-.984.058-1.475.062-3.151-.489-6.02-1.546-8.82.229-4.152-1.089-8.237-4.01-11.317a25.46 25.46 0 0 0-1.784-4.163c-1.975-3.669-4.808-7.432-8.054-10.067-3.22-2.613-6.7-4.354-10.59-4.466-4.857-.882-10.104.265-13.26 4.193-.219.268-.406.534-.613.802a33.837 33.837 0 0 0-2.396 1.933c-2.27 2-3.617 4.657-4.169 7.497-10.003 10.632-7.328 26.083-3.716 39.095.151 4.498 1.447 8.432 3.126 13.163.851 2.392 2.088 4.331 3.578 5.871a15.705 15.705 0 0 0 12.011 5.92c8.748.146 16.203-2.516 22.209-7.557a15.057 15.057 0 0 0 1.659-.824c3.781-2.217 5.408-5.278 7.037-9.153.489-1.162.797-2.333 1.095-3.556.685-2.82.573-5.679-.191-8.324z"/>
    </g>
  </g>
  <g id="Outlines" stroke-linecap="round" stroke-linejoin="round" stroke-miterlimit="10" transform="translate(-23.37 -11.42)">
    <g id="g305" fill="none" stroke="#000" stroke-width=".75">
      <path id="path31" d="M548.069 219.017c-12.679-6.772-11.729-18.698-11.306-32.085 6.95-5.478 14.999-11.566 22.742-18.023 4.644-3.87 9.194-1.916 13.104.195 11.963 6.463 23.312 14.1 35.436 20.217 11.991 6.051 24.374 8.01 35.147-3.458-1.17-7.465-3.36-9.365-9.715-6.077-10.428 5.393-18.899.474-27.062-4.413-8.892-5.323-17.732-11.131-25.342-18.099-7.935-7.262-15.086-4.874-22.271-.5-9.579 5.829-19.049 11.993-27.765 19.007-3.166 2.548-5.545 7.907-5.677 12.067-.518 16.288 5.445 30.659 15.318 43.477"/>
      <path id="path33" d="M438.735 403.783c-3.856 8.753-3.063 17.504.108 26.745-3.333 8.23.59 15.773 4.029 23.288 6.536 14.278 2.468 27.38-4.236 40.172-.637 1.217-2.611 1.729-5.646 3.606 0-6.541-1.74-12.837.358-17.34 4.457-9.551 4.385-18.936 1.061-27.981-4.361-11.872-2.221-24.271-4.749-36.175-.396-1.857-1.446-3.583-2.601-6.342-9.086 11.805-10.912 23.776-6.187 35.794 7.598 19.318 2.771 30.654-14.175 41.941-4.69-1.921-3.695-5.146-1.527-8.17 1.204-1.686 3.246-2.744 4.837-4.167 8.839-7.907 10.893-14.812 6.464-26.207-4.217-10.858-5.113-21.318.02-32.083 1.163-2.442 1.183-5.429 1.729-8.161"/>
      <path id="path35" d="M448.583 402.143c1.367 3.559 1.799 8.065 4.273 10.492 8.019 7.854 16.39 15.476 25.383 22.166 7.732 5.76 13.354 21.408 8.755 29.614-1.247 2.224-4.336 3.417-7.342 5.649.472-8.295.857-15.127 1.331-23.376-5.043-3.696-10.392-7.904-16.02-11.689-16.729-11.255-25.719-26.906-28.963-46.761-1.38-8.448.802-14.442 4.761-21.617 3.444-6.237 3.585-14.483 4.416-21.926.817-7.325.824-14.755.881-22.146.036-4.646-.865-9.312-.689-13.942.546-14.405 3.302-15.982 16.34-9.85 1.325 9.791.104 11.421-10.666 13.271v16.269c0 5.195-.709 10.511.135 15.567 2.313 13.829-3.374 25.531-7.982 37.896-2.505 6.722.084 13.938 6.103 19.672 12.865 12.263 26.326 23.655 41.029 33.68 4.052 2.761 6.88 7.312 9.801 10.525-.194 4.342-.354 7.893-.529 11.742 4.524 1.026 7.104.76 7.313-4.365.306-7.501-.419-14.557-6.66-19.667-7.836-6.407-17.254-14.231-25.188-20.522"/>
      <path id="path37" d="M484.685 377.527c13.937-8.229 30.15-12.577 42.145-24.108-.209-.756-.421-1.51-.629-2.265-4.812 1.133-9.757 1.889-14.403 3.5-5.224 1.812-8.939 7.761-16.911 5.232 1.087 1.544 1.563 2.222 1.38 1.958-7.357 4.916-14.804 9.892-22.245 14.859"/>
      <path id="path39" d="M399.352 372.604c-1.364.274-3.062 1.205-4.045.716-6.132-3.055-12.105-6.428-18.114-9.686l.758-5.357c1.194.137 2.414-.024 3.333.427 10.948 5.355 19.087 14.787 31.049 19.229 13.576 5.043 13.846 24.125.87 31.415-11.121 6.248-15.202 15.906-14.377 27.236.851 11.661-4.494 17.58-14.242 21.349-3.092 1.194-6.205 2.334-9.961 3.744l-2.027-6.775c5.83-2.969 11.175-5.688 16.335-8.312 1.658-10.212 3.021-19.561 4.728-28.845 1.307-7.105 7.138-9.967 13.119-11.335 9.285-2.126 11.981-9.491 7.347-18.21"/>
      <path id="path41" d="M435.986 414.464c4.923 5.743 11.56 14.96 16.767 20.436 4.097 4.303 6.887 8.799 8.417 14.762 1.419 5.535 5.288 10.416 7.887 15.682 1.57 3.186 3.89 6.551 3.865 9.825-.027 4.332-1.07 9.596-5.793 8.54-3.771-8.807-7.102-16.448-10.31-24.141-.766-1.824-1.396-3.786-1.624-5.738-.719-6.104-2.612-11.236-8.164-14.901-2.976-1.958-5.017-5.33-7.478-8.062"/>
      <path id="path43" d="m419.864 310.248-8.396-1.062c2.355 6.279 2.892 12.326 6.185 15.578 8.359 8.267 9.445 18.812 10.054 28.988.521 8.771 3.769 16.109 6.929 23.773"/>
      <path id="path45" d="M376.378 359.477c-4.65-1.641-9.184-4.016-13.972-4.77-9.772-1.539-19.683-2.206-28.626-3.137l-7.653-14.415c-3.724 3.893-7.917 6.553-7.564 8.282.676 3.316 3.42 8.008 6.219 8.768 9.192 2.499 17.495 8.55 27.817 7.018 6.176-.915 11.505.885 16.551 5.47 7.81 7.094 16.141 13.566 27.722 14.383 5.305.372 10.413 3.564 15.604 5.479"/>
      <path id="path47" d="M492.068 349.631c4.99-6.761 9.987-13.519 14.979-20.277l3.031 2.983c7.328 2.784 10.774-1.325 13.713-7.676-1.764-2.905-3.534-5.83-6.154-10.153-9.017 7.74-17.773 15.262-26.536 22.782-.299-.287-.594-.575-.888-.864l3.939-11.041c-.897-.538-1.793-1.077-2.69-1.617-6.91 8.075-13.82 16.148-20.729 24.226"/>
      <path id="path49" d="M370.634 320.913c1.671-2.163 3.345-4.326 5.233-6.771l-3.637-7.244-9.779.506-3.154 5.392-1.713 1.157c4.897 6.146 9.793 12.296 14.69 18.447"/>
      <path id="path51" d="M397.71 344.708c7.846.979 11.048 6.844 13.993 13.105 1.091 2.316 2.203 5.066 4.14 6.475 10.222 7.41 13.653 17.567 13.065 29.649-.289 5.91 1.291 12.151-3.302 17.229"/>
      <path id="path53" d="M497.812 359.477c6.72-5.809 13.439-11.615 20.159-17.428-.762-1.062-1.521-2.124-2.279-3.185-7.06 4.407-14.109 8.814-21.162 13.228"/>
      <path id="path55" d="M351.455 139.225c5.066-11.604 7.778-20.176-1.565-27.177-4.803-3.599-8.828-2.999-13.204.101"/>
      <path id="path57" d="M343.558 333.221c-1.96-4.069-3.918-8.143-5.922-12.308-12.004 6.737-10.972 13.188 3.507 22.408l1.594-9.28"/>
      <path id="path59" d="M410.018 398.861c-3.874-.533-7.749-1.063-11.082-1.522l-3.958-9.235c-6.158 4.104-11.147 7.434-16.138 10.761"/>
      <path id="path61" d="M437.915 333.221c-2.791 11.832-.857 23.557.82 35.281"/>
      <path id="path63" d="M487.146 306.966c0-1.368.044-2.739-.039-4.103-.021-.288-.511-.549-.782-.821-9.197 4.304-9.845 5.472-8.511 13.035-7.74 12.823-14.798 24.509-21.851 36.194"/>
      <path id="path65" d="m348.481 362.758 32 16.41"/>
      <path id="path67" d="M399.352 334.861c-.354-7.229-4-12.479-11.389-17.826.952 6.188 1.658 10.772 2.363 15.365"/>
      <path id="path69" d="M403.454 363.578c-2.631-6.766-5.264-13.531-8.323-21.395-6.179-3.002-13.449-6.526-20.72-10.058-.455.522-.909 1.047-1.362 1.57l9.073 15.108"/>
      <path id="path71" d="M491.249 352.092c-.364.779-.728 1.56-1.529 3.271l4.047-2.152c-.945-1.346-1.732-2.464-3.122-4.436-4.971 3.273-10.44 6.056-14.884 9.999-7.359 6.535-12.211 15.586-21.258 20.708-2.029 1.146-1.817 6.251-2.639 9.53"/>
      <path id="path73" d="M478.94 319.273c1.646.52 3.3 1.04 5.509 1.734-8.928 9.259-15.583 19.564-18.637 31.901"/>
      <path id="path75" d="m427.249 321.733 3.014-10.1 2.87-.118c1.321 6.688 2.644 13.374 3.962 20.062"/>
      <path id="path77" d="M414.941 343.887c-14.223-6.292-28.354-12.812-42.77-18.618-2.124-.854-2.057-7.807-6.462-2.714"/>
      <path id="path79" d="M455.967 336.503c4.062-6.562 5.18-13.128.466-20.831-1.473 1.812-2.195 2.704-2.927 3.604"/>
      <path id="path81" d="M485.505 379.989c9.628 3.091 14.453 11.198 19.691 18.872"/>
      <path id="path83" d="m493.71 398.861-17.354-13.229c-.725.272-1.446.544-2.176.815l-.533 7.284c-5.002 1.6-10.521 3.36-16.035 5.13"/>
      <path id="path85" d="M405.916 314.35v23.791"/>
      <path id="path87" d="M413.3 364.399c-1.35 1.11-2.701 2.228-4.929 4.062-16.966-11.841-34.134-23.821-51.3-35.803l-1.379.894 2.635 7.872"/>
      <path id="path89" d="M386.224 379.989c-9.37 3.21-11.938 13.224-18.872 18.872"/>
      <path id="path91" d="M489.607 355.374c-7.111 6.291-14.226 12.58-21.333 18.871"/>
      <path id="path93" d="M488.787 303.684c1.697 2.419 3.4 4.841 6.04 8.598-3.459 2.665-6.802 5.237-10.146 7.812"/>
      <path id="path95" d="M469.095 355.374c-9.106 4.967-13.734 12.812-14.769 22.974"/>
      <path id="path97" d="M489.607 337.323c-6.291 5.192-12.582 10.393-18.872 15.589"/>
      <path id="path99" d="M452.686 390.656c2.781 11.98 11.99 17.545 22.152 22.149"/>
      <path id="path101" d="M449.403 51.432c3.711-18.647 25.465-21.01 32.525-12.874 6.062 6.981 11.208 15.681 13.796 24.491 2.717 9.242 1.9 19.521 2.579 28.696-4.878 2.607-8.438 4.512-12.024 6.429l-5.697-4.077"/>
      <path id="path103" d="M304.687 128.558c2.438-9.408 7.497-15.475 18.033-16.584 7.518-.792 13.254.464 17.187 6.778 4.39 7.047 8.297 14.395 13.168 22.934h-13.152l2.507-8.205"/>
      <path id="path105" d="M472.377 379.989c-5.417 4.385-14.282 2.441-18.051 9.847"/>
      <path id="path107" d="M351.455 142.507c.75 9.003 1.499 18.006 2.194 26.334l-12.086 6.459-5.697-4.077"/>
      <path id="path109" d="M426.428 323.375c2.462 5.744 4.924 11.486 7.388 17.229"/>
      <path id="path111" d="M548.069 228.042c-.852-.496-1.7-.995-3.16-1.849l-4.952 7.936 9.426 13.359 6.071-.573"/>
      <path id="path113" d="M442.018 314.35c-1.093 5.744-2.188 11.487-3.279 17.229"/>
      <path id="path115" d="m575.967 234.605 11.11 10.895-1.337 3.287 4.175 1.409"/>
      <path id="path117" d="M345.199 344.708c9.649 4.334 21.708 2.475 29.538 11.486"/>
      <path id="path119" d="M493.71 100.662c-8.712 9.425-18.733 13.485-32.076 11.096-5.849-1.046-8.498-3.85-10.433-7.889-2.482-5.189-3.823-10.923-5.76-16.732 1.685-1.608 3.643-3.478 5.603-5.347"/>
      <path id="path121" d="M348.993 177.788c-8.709 9.426-18.731 13.484-32.076 11.096-5.847-1.046-8.498-3.849-10.431-7.888-2.483-5.188-3.822-10.922-5.76-16.732l5.602-5.347"/>
      <path id="path123" d="M410.838 367.682c4.923 4.649 9.846 9.301 14.771 13.948"/>
      <path id="path125" d="M344.378 338.965c9.025 1.643 18.051 3.281 27.076 4.922"/>
      <path id="path127" d="M410.018 318.452c1.75 4.833 3.5 9.669 5.938 16.398-1.854 7.233 1.442 15.189 8.012 22.162"/>
      <path id="path129" d="M335.866 126.917c-2.832 5.329 2.389 7.781 4.102 11.487"/>
      <path id="path131" d="M387.865 340.604c2.735 3.829 5.471 7.657 8.205 11.487"/>
      <path id="path133" d="M480.581 49.791c-2.83 5.329 2.39 7.781 4.104 11.486"/>
      <path id="path135" d="M455.967 339.785c0 4.375.13 8.76-.108 13.12-.052.861-1.529 1.646-2.353 2.469"/>
      <path id="path137" d="M576.787 222.299c-5.414-5.397-11.939-5.688-18.872-4.103"/>
      <path id="path139" d="M483.863 379.168c-3.008.55-6.02 1.096-7.441 1.357-4.808-2.787-8.53-4.943-12.25-7.104"/>
      <path id="path141" d="m312.892 144.968-1.113 36.843 2.817-.426 4.04 7.069"/>
      <path id="path143" d="M551.352 219.017c1.643 3.01 3.281 6.017 4.926 9.025"/>
      <path id="path145" d="M591.557 236.248c3.612 13.291-4.601 24.962-16.018 22.044 2.004-3.361 3.959-5.704 7.812-2.352"/>
      <path id="path147" d="m451.864 53.894-3.128-1.989c-4.875 10.995-6.228 21.895-2.616 33.167"/>
      <path id="path149" d="m307.147 131.019-3.126-1.988c-4.875 10.995-6.224 21.896-2.617 33.167"/>
      <path id="path151" d="M457.608 67.841c-.373 12.281-.744 24.562-1.116 36.844.938-.143 1.879-.285 2.815-.425 1.35 2.356 2.695 4.711 4.041 7.068"/>
      <path id="path153" d="M559.556 253.479c4.765 5.608 3.833-9.646 8.97-1.537-.71 1.18-1.844 3.062-2.983 4.97-1.341-.685-2.432-1.235-3.522-1.789"/>
      <path id="path155" d="M494.53 64.56h-9.896a4316.6 4316.6 0 0 1 2.512-8.205"/>
      <path id="path157" d="M566.94 234.605c-2.188-.271-4.375-.547-6.564-.82"/>
      <path id="path159" d="m572.686 234.605-3.28 6.562"/>
      <path id="path161" d="M455.146 50.612c1.563 3.446 3.135 6.892 4.697 10.338.135-.143.269-.285.4-.429 1.034 1.347 2.066 2.692 3.104 4.039"/>
      <path id="path163" d="M576.787 245.273c3.588.466 6.46 1.853 7.385 5.741"/>
      <path id="path165" d="m310.43 127.737 4.702 10.339.398-.429 3.105 4.039"/>
      <path id="path167" d="M575.146 225.581c.759-1.136 1.517-2.273 2.522-3.782 5.468 3.72 13.655 4.284 11.48 13.868-.292-1.994-.587-3.989-.88-5.984"/>
      <path id="path169" d="m562.018 222.299 5.246 2.109c-9.677 3.772-8.938-13.934-18.464-5.6l.91 5.952"/>
      <path id="path171" d="m576.787 241.992-6.563 6.562"/>
      <path id="path173" d="M559.556 236.248h-3.292l.14 1.911c.775-.364 1.556-.729 2.333-1.09"/>
      <path id="path175" d="m341.917 342.246 6.563 9.025"/>
      <path id="path177" d="M305.507 162.198c2.461 0 4.964-.259 7.368.111 1.192.184 2.205 1.53 3.299 2.351"/>
      <path id="path179" d="M450.224 85.072c2.462 0 4.961-.261 7.367.111 1.192.185 2.205 1.53 3.299 2.351"/>
      <path id="path181" d="m486.325 66.2 3.282 12.308"/>
      <path id="path183" d="M341.609 143.327c1.094 4.103 2.189 8.205 3.282 12.308"/>
      <path id="path185" d="m332.583 118.712-4.923 3.282"/>
      <path id="path187" d="m469.915 39.124-2.461 5.744"/>
      <path id="path189" d="m325.199 116.25-2.462 5.744"/>
      <path id="path191" d="m477.3 41.585-4.923 3.283"/>
      <path id="path193" d="M586.633 237.069c1.096.546 2.188 1.092 3.282 1.641"/>
      <path id="path195" d="m572.686 220.658-1.642 4.923"/>
      <path id="path197" d="M324.687 343.066c-1.094 1.094-2.188 2.188-3.282 3.279"/>
      <path id="path199" d="M496.171 87.533c-2.979 2.103-8.558 2.125-6.562 8.206"/>
      <path id="path201" d="M351.455 164.66c-2.979 2.103-8.558 2.125-6.564 8.205"/>
      <path id="path203" d="M570.224 227.222c-1.38 5.664-6.728 10.761-2.463 17.231"/>
      <path id="path205" d="m491.249 71.944 1.64 4.923"/>
      <path id="path207" d="m346.532 149.071 1.641 4.923"/>
      <path id="path209" d="M566.12 225.581c4.197 1.942 9.906-1.189 13.35 3.955.213.318 3.608-1.494 5.522-2.314"/>
      <path id="path211" d="m493.71 79.329-9.847 1.641"/>
      <path id="path213" d="M544.787 234.605c2.736 1.369 5.471 2.732 8.205 4.104"/>
      <path id="path215" d="M455.146 80.969h-8.206"/>
      <path id="path217" d="M557.915 231.324c-1.368.273-2.734.548-4.103.82"/>
      <path id="path219" d="m452.686 65.38 9.849 4.103"/>
      <path id="path221" d="M555.454 238.71c.934 4.351 1.869 8.703 2.817 13.128h4.564"/>
      <path id="path223" d="m559.556 228.042 4.104.821"/>
      <path id="path225" d="m348.993 156.455-9.846 1.641"/>
      <path id="path227" d="M310.43 158.096h-8.205"/>
      <path id="path229" d="m307.968 142.507 9.846 4.102"/>
      <path id="path231" d="m464.992 75.226.889 1.608-1.709.854"/>
      <path id="path233" d="m579.249 247.734-1.641 3.28"/>
      <path id="path235" d="m560.376 237.069 11.488 6.562"/>
      <path id="path237" d="m469.915 70.303-2.461 2.461"/>
      <path id="path239" d="M367.352 315.17c-1.092.547-2.188 1.093-3.282 1.645"/>
      <path id="path241" d="M325.199 173.685v3.282"/>
      <path id="path243" d="m478.12 55.535-2.462 2.461"/>
      <path id="path245" d="m320.276 152.353.889 1.609-1.709.853"/>
      <path id="path247" d="m325.199 147.43-2.462 2.462"/>
      <path id="path249" d="m325.199 137.584-2.462 2.461"/>
      <path id="path251" d="m333.404 132.66-2.461 2.462"/>
      <path id="path253" d="m471.557 108.046.82 3.282"/>
      <path id="path255" d="m477.3 99.021-1.71.854c.297.539.593 1.073.891 1.608"/>
      <path id="path257" d="M469.915 96.559v3.282"/>
      <path id="path259" d="M376.378 362.758c-1.348-1.396-2.695-2.797-4.042-4.195l.947-1.74c1.853.338 3.704.677 5.557 1.017"/>
      <path id="path261" d="m469.915 60.458-2.461 2.461"/>
      <path id="path263" d="m326.84 185.173.82 3.282"/>
      <path id="path265" d="M332.583 176.146c-.546.274-1.094.547-1.709.854l.889 1.607"/>
      <path id="path267" d="M478.94 79.329c-.55.546-1.097 1.094-1.644 1.641"/>
      <path id="path269" d="m464.172 46.509-1.641 1.641"/>
      <path id="path271" d="M328.789 343.887c-.273.547-.579 1.081-.805 1.648-.093.231-.015.54-.015.812"/>
      <path id="path273" d="M475.658 53.073c-.547.547-1.094 1.094-1.644 1.641"/>
      <path id="path275" d="m475.658 61.277 1.642 1.641"/>
      <path id="path277" d="M469.095 51.432c-.817.274-1.641.547-2.462.821"/>
      <path id="path279" d="m330.942 138.404 1.641 1.641"/>
      <path id="path281" d="m334.225 156.455-1.642 1.641"/>
      <path id="path283" d="M562.018 240.351c-.817.551-1.641 1.096-2.461 1.645"/>
      <path id="path285" d="M551.352 232.965c.55.549 1.097 1.094 1.643 1.643"/>
      <path id="path287" d="M548.069 231.324c-.272.82-.546 1.641-.82 2.461"/>
      <path id="path289" d="m570.224 230.504 2.462.82"/>
      <path id="path291" d="M305.507 167.121h-2.461"/>
      <path id="path293" d="m334.225 166.301-1.642 1.641"/>
      <path id="path295" d="m319.456 123.635-1.641 1.641"/>
      <path id="path297" d="M450.224 89.995h-2.463"/>
      <path id="path299" d="M324.378 128.558c-.82.273-1.641.548-2.461.82"/>
      <path id="path301" d="m330.942 130.199-1.641 1.641"/>
      <path id="path303" d="M478.94 89.174c-.55.546-1.097 1.094-1.644 1.642"/>
    </g>
    <path id="line307" fill="#bbb" stroke="#bbb" d="M286 412.5h318"/>
  </g>
  <g id="labels" font-size="10" transform="translate(-23.37 -11.42)">
    <text id="text310" font-family="Helvetica" transform="translate(379.5 71.5)">Dry Pollen</text>
    <text id="text312" font-family="Helvetica" transform="translate(225.042 140.5)">30 minutes</text>
    <text id="text314" font-family="Helvetica-Oblique" transform="translate(234.773 152.5)">in vitro</text>
    <text id="text316" font-family="Helvetica" transform="translate(226.705 164.5)">incubation</text>
    <text id="text318" font-family="Helvetica" transform="translate(456.822 204.5)">4 hours </text>
    <text id="text320" font-family="Helvetica-Oblique" transform="translate(458.773 216.5)">in vitro</text>
    <text id="text322" font-family="Helvetica" transform="translate(450.705 228.5)">incubation</text>
    <text id="text324" font-family="Helvetica" transform="translate(273.98 443.5)">Pollen tubes</text>
    <text id="text326" font-family="Helvetica" transform="translate(256.752 455.5)">after growth through</text>
    <text id="text328" font-family="Helvetica" transform="translate(263.703 467.5)">Stigma and Style</text>
    <text id="text330" font-family="Helvetica" transform="translate(268.155 479.5)">(pistil explants)</text>
  </g>
</svg>