<svg version="1.1" id="TissueSpecificShootApicalMeristem_svg" xmlns="http://www.w3.org/2000/svg" x="0" y="0" viewBox="100 160 700 175" xml:space="preserve"><g id="Samples" fill="#FFF"><g id="Central_Zone"><path d="M207 214.5c-.645 0-.645 1 0 1s.645-1 0-1z"/><path d="M232.901 209.934c-.279-3.937-1.461-7.629-3.67-10.638-.644-3.866-3.498-7.296-8.564-7.296a9.293 9.293 0 0 0-3.372.605c-3.851-.401-7.875.188-11.619.752a7.1 7.1 0 0 0-1.473.404c-5.081-.571-10.458 2.189-10.854 8.316-.05.054-.092.101-.148.159-1.388 1.494-2.639 3.062-3.835 4.716-2.638 3.646-1.154 9.101.984 12.581.564.919 1.239 1.744 1.977 2.511.726 2.957 3.061 5.455 7.008 5.455.104 0 .2-.012.301-.015.137.085.272.172.409.258 1.247 8.26 11.625 8.303 16.695 4.328 1.485-1.164 1.472-.734 3.257-1.425 2.776-1.067 5.217-2.168 7.447-4.169 4.641-4.162 5.881-10.563 5.457-16.542z"/></g><path d="M453.622 238.078a7.23 7.23 0 0 0 .212-1.744 24.762 24.762 0 0 0-.602-5.328 6.442 6.442 0 0 0-1.436-2.813 7.877 7.877 0 0 0-.885-2.998c.084-3.813-2.328-7.692-7.247-7.692-.197 0-.384.016-.573.028-2.871-1.657-6.562-1.183-9.062 1.168-2.452 2.303-4.099 5.188-4.862 8.462-.258 1.103-.354 2.249-.533 3.366a13.923 13.923 0 0 1-.408 1.718c.215-.844-.534.749-.701.973-1.555 2.064-1.356 4.854-.193 7.106a16.65 16.65 0 0 0 .087 3.646c-.854 2.957-.061 6.454 2.387 8.393.021.029.034.062.055.094.161.266.341.514.527.754.525.989 1.146 1.95 1.896 2.89 3.306 4.146 9.262 3.439 13.396 1.348 3.863-1.956 6.681-5.689 7.741-9.834.808-3.163.489-6.354.201-9.537z" id="Rib_Meristem"/><path d="M625.753 233.913c-.032-.219-.055-.438-.092-.655-.854-5.072-4.568-8.863-8.543-11.731a5.706 5.706 0 0 0-2.148-.946 19.869 19.869 0 0 0-2.108-1.747c-3.469-2.451-8.125-1.259-11.499.569-6.627 3.592-11.255 10.794-9.52 18.454.755 3.329 2.261 6.411 4.9 8.647 2.298 1.946 5.201 2.809 7.521 4.641 2.848 2.249 5.223 4.452 9.037 4.707 2.663.18 5.025-.839 7.04-2.388 2.912-.933 5.303-3.627 5.491-7.131.06-1.112.126-2.206.179-3.291 1.731-2.696 1.646-6.549-.258-9.129zm117.498-6.219c-.08-.322-.16-.646-.258-.96-2.125-6.89-6.972-11.105-13.666-13.302-4.572-1.498-7.838 1.312-8.854 4.892-3.342 2.751-5.951 6.524-8.376 10.061-2.128 3.104-5.171 6.771-4.745 10.857.222 2.113.326 4.347 1.459 6.226.348.625.76 1.205 1.203 1.763.505 6.111 7.31 9.727 12.623 5.073 1.083-.946 2.273-.588 3.696-.471 4.436.366 6.808-2.609 7.153-6.008 4.159-.071 6.482-2.944 6.983-6.16 4.778-1.834 5.705-8.325 2.782-11.971z" id="Peripheral_Zone"/></g><g fill="none" stroke="#000" stroke-width=".75" stroke-linecap="round" stroke-linejoin="round" stroke-miterlimit="10" id="Outlines"><path d="M464.414 207.17c-.543 5.566-1.88 9.831-8.938 10.592-4.332.47-6.655 3.18-3.707 8.835 4.187 8.024 1.485 17.016-.047 25.337-.833 4.522-10.139 7.931-14.888 6.946-4.816-.997-9.062-6.873-9.67-13.098-.956-9.821 1.903-18.539 6.719-27.001 1.177-2.068 3.144-.188 3.643-1.959 4.373 1.242 9.558-.321 13.1 3.792m-225.46-16.891c1.547.116 3.076.112 4.467-1.23-.18-6.959-4.088-10.388-14.102-9.576-6.188.502-12.816-.998-18.634 2.535m528.829 42.055c-3.053-5.423-8.312-7.689-13.651-10.245-1.436 2.816-3.995 4.629-3.514 7.477.901 5.328 1.189 11.148 3.682 15.703 2.289 4.185 7.373 2.949 11.417.854m11.028-5.516c5.307-1.59 5.594-7.964 10.181-10.624 1.764-1.022-.468-5.075-1.4-7.225-2.788-6.42-5.506-12.596-14.221-14.257-5.336-1.017-6.615 2.646-9.729 4.182m-94.457 26.545c.562 2.377 2.106 5.579-.757 6.729-5.185 2.082-10.196 7.158-16.452 2.884-4.18-2.854-8.641-5.427-11.5-8.654-1.062-4.116 3.793-5.215 2.511-8.541m-157.202-33.786c-1.859 2.105-4.354-1.481-6.553 1.098-1.487 3.958 1.011 8.325.348 12.691m-204.776 10.342c-.825-3.203-3.971-1.946-4.696-1.244-4.962 4.805-11.66 6.232-17.549 9.263-2.166-3.025-7.153-3.192-8.781-7.329"/><path d="M449.935 201.654c.23-.92.593-1.827.669-2.76.592-7.062 2.47-8.467 8.975-6.174 9.462 3.335 19.12 6.294 28.197 10.49 7.587 3.507 13.763 9.573 19.214 15.831 3.521 4.041 8.403 7.009 10.401 12.37a35687.87 35687.87 0 0 0-6.095 6.096m-282.731-39.989c4.552-3.298 10.363-1.823 14.494-.582 19.221 5.775 33.228 18.559 44.85 34.361l-6.208 6.21m389.557-34.474c-1.857 2.105-4.353-1.481-6.457.984-1.545 3.15.379 6.6.252 10.047m-51.021 2.069c-8.016.839-15.987 1.752-20.007 10.336-.131.277-.655.477-.646.694.289 7.47-6.277 11.352-9.237 16.933 2.158 2.812 6.247 1.326 7.828 4.442m-421.962-36.542c-4.52 1.765-8.553 4.16-13.929.922-3.916-2.357-8.642 1.764-10.596 4.146-7.177 8.751-15.399 16.855-20.402 27.2 2.027 2.641 6.116 1.155 7.697 4.271m268.736-37.573c-4.52 1.765-10.462 5.194-15.839 1.956-3.916-2.357-8.642 1.764-10.596 4.146-7.178 8.751-15.399 16.855-20.402 27.2 2.027 2.641 6.116 1.155 7.697 4.271m313.021-32.402v8.562c-2.985.443-5.284.937-7.584-.289"/><path d="M244.47 198.896c-1.555 2.788-3.109 5.577-4.787 8.583-5.629-2.681-7.548-.071-7.654 5.206-.033 1.612-.43 3.22-.659 4.826m397.831-5.515c-4.332 3.092-10.174 1.657-14.43 4.517-.399 2.783.856 4.812 2.753 5.735 5.338 2.604 5.604 8.603 8.578 12.743 1.484 2.064 2.544 7.712-3.091 9.469-1.727.539-3.234 1.78-4.845 2.699m75.844-39.989c-.693 5.097-1.281 10.281-8.271 10.342m-6.208-15.858c.229-.92.591-1.827.669-2.76.59-7.062 2.468-8.467 8.974-6.174 9.462 3.335 18.85 6.887 28.281 10.304 4.604 1.67 17.354 6.537 18.612 11.041m-320.605 3.447c-.46-.919-1.06-1.795-1.355-2.765-2.988-9.746-2.976-9.75-11.055-3.44m242.007 6.205c-.46-.919-1.061-1.795-1.355-2.765-2.987-9.746-2.975-9.75-11.053-3.44m-48.265 35.163-3.032 4.548c2.467 2.791 6.075 2.469 8.55 4.415"/><path d="M675.395 224.695c1.855.305 6.896 1.09 6.896 1.09 5.285-6.621-1.243-15.458 4.037-22.098 4.438.459 8.015 3.62 12.724 3.479 1.503-2.693 3.06-5.482 4.612-8.271m-229.598.001c-1.557 2.788-3.109 5.577-4.613 8.271-4.708.142-8.285-3.021-12.912-3.5-2.481 4.281-2.103 9.137-2.469 13.844m269.585 22.754c.746-1.324 1.493-2.649 2.239-3.978 3.877 1.723 3.291 4.889 5.301 6.115 2.293 1.397 2.204 4.286 1.266 6.052-1.335 2.511-3.761 3.744-6.796 1.542-1.013-.734-2.699-.539-4.078-.771M642.99 207.17c1.252-1.521 2.976-1.777 4.814-2.118 8.366-1.546 8.309-1.598 10.379 6.938.687 2.819 3.178 4.878 2.956 8.296-.094 1.44-.605 5.126 3.223 4.807 1.333-.109 2.444-.055 2.869-2.041.583-2.733 1.647-5.486-.869-7.521-1.457-1.179-3.607-1.445-5.446-.086M354.79 246.47l-3.033 4.548c2.466 2.791 6.075 2.469 8.548 4.415m-235.112-8.963a8975.23 8975.23 0 0 0-3.032 4.548c2.465 2.791 6.075 2.469 8.548 4.415m276.479-34.474c-4.364 2.758-8.731 5.516-13.1 8.273m-216.495-8.273-13.1 8.273m88.251-15.168c3.225.102 5.296 2.315 7.598 4.111-.643 3.935-4.763 5.848-4.597 9.995-2.328-.727-3.362-2.224-5.069-1.698m231.664-12.408c3.227.102 5.296 2.315 7.601 4.111-.646 3.935-4.766 5.848-4.6 9.995-2.329-.727-3.362-2.224-5.069-1.698m-287.511.003c-13.538 4.776-24.185 14.249-35.852 22.063m479.876-27.579c-4.137 2.758-8.273 5.516-12.411 8.273m-432.291-11.647c.037 2.648-.94 6.703 3.482 8.047 1.546.47 3.164 3.198 5.6.262m228.972.581c-7.701-1.269-16.184 3.432-22.176 7.031-7.466 4.488-14.332 9.979-21.456 15.032m57.914-43.436v11.723m-259.932-19.307c.578 5.119 3.029 9.828 2.973 15.17-.017 1.595 2.542 3.216 3.921 4.822m190.987 41.37c1.101-6.157-4.499-5.613-7.584-7.584"/><path d="M194.829 202.344c-.112-2.412-.133-4.807 1.458-6.802-3.028-4.078-6.742-1.811-9.677-.647-7.061 2.8-13.86 6.265-20.728 9.539-2.132 1.018-10.9 6.413-12.969 7.562m-.141 46.884c1.101-6.157-4.499-5.613-7.584-7.584m590.879-37.232c3.331 6.633 23.904 33.059 25.51 40.679m-244.185-23.332c3.332 6.633 12.985 15.712 14.592 23.332m-244.075-23.446c3.332 6.633 12.872 15.826 14.476 23.446m379.904-62.741c-12.986.293-25.917-.693-38.704 3.872-8.795 3.14-26.626 17.354-35.047 20.949m-155.845-24.821c-12.986.293-25.917-.693-38.704 3.872-8.795 3.14-23.818 12.528-32.239 16.123m37.849-6.206c1.059 3.139 2.157 6.269 2.068 9.652m227.528-9.652c1.057 3.139 2.155 6.269 2.066 9.652m-486.079-.689c1.498 3.167.889 7.236 4.137 9.652m225.459-9.652c1.5 3.167.889 7.236 4.137 9.652m225.459-9.652c1.499 3.167.89 7.236 4.138 9.652m-387.489-16.547c2.919 3.354 8.122 2.142 11.18 5.688-1.056 4.623-5.725 8.636-2.386 14.403 1.311 2.266-1.557 4.355-3.278 6.105"/><path d="M651.953 194.07c1.435 2.837 1.432 5.897 1.379 8.963m-239.938 4.137c1.254-1.521 2.978-1.777 4.817-2.118 8.272-1.526 8.279-1.596 10.339 6.947.568 2.354 2.161 3.737 4.149 4.823m250.969 8.963c8.044 2.758 16.087 5.516 24.131 8.271m-237.18-26.197c2.919 3.354 8.122 2.142 11.18 5.688-1.056 4.623-5.725 8.636-2.386 14.403 1.311 2.266-1.558 4.355-3.278 6.105m-232.354-23.438c-1.379 2.985-2.758 5.976-4.137 8.963m463.329-8.963c-1.379 2.985-2.758 5.976-4.137 8.963"/><path d="M473.377 210.617c-1.379 2.985-2.758 5.976-4.137 8.963m204.776-14.478v8.965m-419.204-11.034c-1.379 2.985-2.758 5.976-4.137 8.963m233.733-8.963c-1.379 2.985-2.758 5.976-4.137 8.963m-321.983 8.274 11.031 18.616m544.685-35.853c-1.379 2.985-2.758 5.976-4.137 8.963m-321.983 8.274 11.031 18.616"/><path d="M700.215 207.859c2.919 3.354 8.122 2.142 11.233 5.75l-4.339 10.105m-111.692 2.761c3.967 4.466 10.118 6.198 13.789 11.032m51.71-12.411c-10.479 2.21-20.666 5.054-29.008 12.354-1.009.884-2.707.978-4.086 1.438M422.357 194.07c1.435 2.837 1.432 5.897 1.379 8.963m269.584-7.584c-1.379 2.758-2.758 5.516-4.139 8.273m-39.986 14.479 2.758 8.271m-485.392-21.37c3.414 5.438 10.176 8.287 11.437 15.368 3.808-.812 7.672-.794 9.247-5.024m208.912-10.344c5.638 4.982 9.014 11.961 15.033 16.721 1.796 1.419 1.974 4.885 2.893 7.412m211.67-24.133c5.639 4.982 9.015 11.961 15.033 16.721 1.796 1.419 1.974 4.885 2.894 7.412m-179.955-33.786-4.137 8.273m-277.859 17.237 2.758 8.273m477.118-35.851c1.919 2.954-.899 6.923 2.066 9.652m55.849 15.858-5.516 8.618m-19.305-8.618c-1.379 2.76-2.758 5.518-4.139 8.273m-225.456-8.273c-1.379 2.76-2.758 5.518-4.137 8.273m-28.958-33.783c1.919 2.954-.897 6.923 2.068 9.652m-59.982 17.237c5.251 3.738 5.783 11.298 11.875 14.566 2.938-.142 3.648-4.167 6.74-4.225m-125.487 6.896c-2.833 1.766-3.326 5.866-6.895 6.896"/><path d="M186.556 208.549c-4.863-1.438-9.614-2.346-13.1 2.758m246.143 6.894c.919 2.758 1.839 5.516 2.76 8.271m74.459 11.035c-2.832 1.766-3.326 5.866-6.896 6.896M144.499 220.27c5.251 3.738 5.784 11.298 11.875 14.566 2.938-.142 3.649-4.167 6.74-4.225"/><path d="M158.977 215.443c.057 6.045-4.67 7.646-8.963 9.65m431.614 28.271c-3.146 1.221-1.304 5.936-4.826 6.895m-48.268-10.342c-2.73 1.008-5.839 1.322-7.585 4.137m-132.376-38.611c.057 6.045-4.671 7.646-8.963 9.65m-27.578 28.271c-3.147 1.221-1.303 5.936-4.826 6.895m-224.77-6.895c-3.147 1.221-1.303 5.936-4.826 6.895m146.855-51.021c-1.609 2.526-3.218 5.056-4.827 7.584m234.423-7.584c-1.606 2.526-3.218 5.056-4.824 7.584m-190.299 33.095c-2.73 1.008-5.839 1.322-7.584 4.137m341.294-28.269c2.834 1.732 1.729 5.616 4.137 7.584m108.245 15.859c-2.886 1.132-5.198 4.747-8.963 2.068m-230.286 0c-2.038 1.979-3.753 4.422-7.465 4.135-8.189-13.539-21.274-22.101-36.68-27.525-2.605-.919-5.43-1.335-8.256-.739m-50.328-1.382c2.834 1.732 1.732 5.616 4.139 7.584m-233.735-7.584c2.833 1.732 1.731 5.616 4.137 7.584m337.841 15.859c-2.575 1.463-4.863 3.788-8.271 2.76m-221.325-2.76c-2.577 1.463-4.866 3.788-8.273 2.76"/><path d="M498.197 225.785c-2.449 2.847-2.699 8.341-9.061 6.548-1.163-.328-3.581 3.795-5.42 5.863m-69.633-40.678 2.069 7.583m-147.55 20.684c-2.45 2.847-2.699 8.341-9.06 6.548-1.163-.328-3.581 3.795-5.419 5.863m389.557-40.678 2.068 7.583m112.382 44.816c-2.729 1.008-5.839 1.322-7.584 4.137m-157.887 0c1.606.46 3.678.44 4.743 1.465 3.763 3.616 3.688-.559 4.907-2.152m-308.887-13.102-6.895 4.139m236.491-4.139-6.895 4.139m236.491-4.139-6.896 4.139m-464.017-4.139-6.895 5.518m236.491-5.518-6.895 5.518m-344.046-4.829-3.847-5.129c-3.043 3.048-6.482 5.895-9.172 9.328-3.766 4.808-6.975-3.071-10.422-.062m253.037-4.137a16760.35 16760.35 0 0 1-3.847-5.129c-3.043 3.048-6.482 5.895-9.172 9.328-3.767 4.808-6.975-3.071-10.423-.062m-93.772-.69-6.895 5.516m236.491-5.516-6.895 5.516m126.867-19.306c-1.606.92-3.235 1.805-4.819 2.765-3.492 2.116-.564 3.356.685 4.82m83.422-15.169c-.887 2.43-1.342 5.073-3.447 6.895m-226.149-6.895c-.887 2.43-1.342 5.073-3.447 6.895m-226.149-6.895c-.887 2.43-1.342 5.073-3.447 6.895m419.893-15.168c-6.206 1.836-12.86 2.153-18.613 5.516m-210.984-5.516c-6.206 1.836-12.862 2.153-18.616 5.516m272.344-4.827c-5.284.652-10.569-2.104-15.855 0m-33.097-14.478 2.758 6.205"/><path d="M490.613 218.201c9.526 7.099 18.248 15.141 23.921 25.624 2.354 4.353 6.311 8.193 6.415 13.676M275.496 232.68c-1.839 2.068-3.677 4.14-5.516 6.206m134.451-37.921c.919 2.068 1.839 4.137 2.76 6.205M130.02 258.88c-.372-2.062.893-3.426 2.055-4.848 3.067.057 5.684 1.396 8.771 3.094 1.711-3.159 5.256-5.521 2.964-9.967m137.202-22.753c-1.839 2.066-3.677 4.137-5.516 6.205m442.645-13.789c-2.121-.8-3.634-2.97-6.205-2.758"/><path d="M291.354 257.501c-4.318-12.463-11.408-23.062-21.378-31.71-2.957-2.564-5.971-5.062-8.958-7.59m-86.183-17.236 2.758 6.205m98.593 44.126c-2.04 1.979-3.751 4.425-7.466 4.135-8.188-13.539-21.291-22.05-36.659-27.577m278.546-3.448c-1.841 2.066-3.679 4.137-5.518 6.205M359.616 258.88c-.372-2.062.893-3.426 2.054-4.848 3.067.057 5.684 1.396 8.771 3.094 1.711-3.159 5.255-5.521 2.964-9.967m131.687-14.479c-1.839 2.068-3.677 4.14-5.516 6.206m-139.271-1.379 6.205 2.758m-235.801-2.758 6.206 2.758m110.313-16.548c-6.083-1.13-10.806-5.596-17.188-6.537m-27.627-14.836c-4.508 1.861-10.508-.541-13.789 4.826m552.959 34.474c4.799 4.264 7.112 9.93 8.963 15.857m-78.599-64.12c1.146 3.386-1.074 6.997.756 11.238 4.099-1.18 8.397-3.902 12.344-.207m-242.696-11.031c1.149 3.386-1.073 6.997.757 11.238 4.099-1.18 8.398-3.902 12.345-.207m-232.356-8.273c-1.807 6.948-6.636 8.679-13.1 7.583m-57.225 35.164-5.516-4.138m235.112 4.138-5.516-4.138m3.448 8.274 8.355 7.453a3930.948 3930.948 0 0 1-5.597 3.576m-232.354-11.029 8.355 7.453a3930.948 3930.948 0 0 1-5.597 3.576m111.003-19.303c6.664 4.001 9.485 10.92 13.1 17.237m100.666-24.131c-1.981.776-3.36 2.155-4.137 4.139m-225.459-4.139c-1.981.776-3.36 2.155-4.137 4.139m223.392-3.45c1.608 1.149 3.217 2.299 4.826 3.447m-234.423-3.447a14407.5 14407.5 0 0 0 4.826 3.447m350.942 2.758c6.664 4.001 9.485 10.92 13.102 17.237m-371.627-6.205c-2.546 1.937-2.917 4.664-2.758 7.584m462.639-7.584c-4.584 3.174-3.668 8.954-6.205 13.1m-224.081-13.1c-2.546 1.937-2.916 4.664-2.758 7.584m330.258-36.542c5.745 3.218 11.491 6.436 17.236 9.65m-246.832-9.65c4.827 1.839 8.271 6.438 13.789 6.895"/></g><g id="labels" font-family="'Helvetica'" font-size="10"><text transform="translate(177.596 305.5)">Central Zone</text><text transform="translate(191.212 317.5)">CLV3p</text><text transform="translate(411.052 305.5)">Rib Meristem</text><text transform="translate(426.054 317.5)">WUSp</text><text transform="translate(637.924 305.5)">Peripheral Zone</text><text transform="translate(663.494 317.5)">FILp</text></g></svg>