<svg id="TissueSpecificEmbryoDevelopment_svg" xmlns="http://www.w3.org/2000/svg" viewBox="100 70 825 650"><g id="Torpedo"><g id="Torpedo_Meristem"><path fill="none" d="M751.5 441.6l-.1-1.3M752.3 505l-6.2 1.5-4.3-3.4-11-2.4-11-7.6-3.4-4.7-4.9-4.5-4.2-6.8-.4-7-2.7-1.6-10.7-24.6-1.3-6.8-4.9-10.1H752"/><path fill="none" d="M751.4 440.3s1.1 20 1.3 22.3c.3 2.3.5 4.2.5 4.2"/></g><path fill="none" d="M752.9 427.1l-.3-105.6-77.4-.5-.9 37.8 3.7 29c-.8 10.7 7.9 39.7 10.4 39.4h64.5z" id="Torpedo_Root"/><g id="Torpedo_Cotyledon"><path fill="none" d="M681.4 301.4l-12.1 3.8s-5.1-31.5-6.1-41.1-6.1-49.7-.3-66.9 15.9-40.8 23.9-46.8c8-6.1 24.3-13.5 30.4-13.5s15.1 2.6 17.9 6.8c2.9 4.1 9.2 8.3 8 15.6-1.3 7.3-4.1 29-6.1 35.1-1.9 6.1-3.2 22.6-2.5 28.4.6 5.7 3 27.3 5.4 33.5 1.3 3.3-.7 16.3 0 18.5 2.4 7.6 5.7 6.2 5.7 6.2"/><path fill="none" d="M675.2 321c-4 1-4.5-14-5.7-16.7-5.2-11.1-2.6-21.9-3.4-23.5-4.2-8.6-1.8-15.8-2.7-18.5-2.1-6.3-4.4-23.6-2.5-38.9.2-1.8.1-22.1 2.5-29.2 5.7-17.2 15.4-37.9 23.4-44 8-6.1 24.3-13.5 30.4-13.5s15.1 2.6 17.9 6.8c2.9 4.1 10.2 8.3 8.9 15.6s-4.1 29-6.1 35.1c-1.9 6.1-3.2 22.6-2.5 28.4s1.1 27.7 5.4 33.5c0 0 .2 7.5-1 18.5-.9 8.4 12.7 6.2 12.7 6.2v40.6c.1.1-75.3-.9-77.3-.4z"/></g><path fill="none" d="M815.6 321.2s2-1 3.3-5.5c1.3-4.5 7.7-27 8.6-36.3.5-5.6 7.3-29.6 8.6-33.1 1.3-3.5 4.8-32.2 4.5-40.5s-9.9-29.3-13.1-36.3c-3.2-7-11.5-14.7-18.8-17.5s-13.1-8.6-20.4-7.9c-7.3.6-14.7 5.6-17.4 10.5-4.8 8.6-5.8 28.7-4.5 35.1 1.3 6.4 2.6 42.9 0 48.8-4.1 9.1-1.4 17.1-2.9 25.4-.6 3.5-3.3 12.1-4 13.1-.6 1-7 3.6-7 3.6V321l63.1.2z" id="Torpedo_Apical"/><path fill="none" d="M752.2 321.2v183l4.5-.2s2.9 1.4 6.1 2.1 7.5-4 7.5-4 7.8-3.5 13.2-7.6c4-3.1 9.8-13.5 11.3-17.7 3.9-10.9 4.2-20.3 4.1-24.6-.1-3.7 2.5-25.6 3.5-29.1s6.1-15 6.4-21c.3-6.1.3-36.6 0-38.6-.3-1.9-1.2-9.2-1.2-9.2l2.1-9.1c1.3-4.3 5-4.7 1.6-16.4l4.8-7.5-63.9-.1z" id="Torpedo_Basal"/></g><g id="Heart"><path fill="none" d="M525.7 214.7s2.7-10.9 4.2-21.7c1.5-11.2-.3-18.5-1-19.5-2.5-4.1-7.4-10.5-13.7-12.9-3.4-1.2-13.9-3.4-17.4-2.2-3.5 1.3-11.7 6.1-15.5 10.3-1.1 1.2-6.3 6.1-7.2 7.2s-3.9 5.2-5.5 6.9c-1.5 1.6-5.3 4.2-7.1 6s-4.3 3-4.3 3l-4.9-3.9c-7.7-5.1-15.2-17.9-18.5-21-3.3-3-7.8-15.3-28-18.1-5.8-.8-21.8 4.6-25.2 19.5-.2 1 .9 5.1.5 6.1-5.8 13.2 3.6 40.5 3.6 40.5l140-.2z" id="Heart_Cotyledon"/><path fill="none" d="M525.7 214.7l-13.8 29.1-8.2 21.8s-3.3 11.5-5 14c-1.6 2.5-6.2 10.8-10.2 16.9s-7.4 9.6-12.5 14.1c-5.2 4.6-8 4.7-8 4.7s4.4 3.6 3.4 8c-.9 4.4-1.1 5.6-4.8 6.5-3.7.9-10.2 1-14.1 1.6-3.9.6-7.8.9-7.8.9s.5-4.6-.7-9.2c-1.3-4.6-8.8-11.8-10.5-14.2-1.7-2.4-4.9-4.8-4.9-4.8s.1.9-4.2-2.2c-4.2-3.1-13.8-28.4-13.8-28.4s-10.4-18.9-13.4-22.3c-2.9-3.4-6.8-17.5-6.8-17.5l-4.8-18.8 140.1-.2z" id="Heart_Root"/></g><g id="Globular"><path fill="none" d="M220.9 181.5c1-13.4-7.2-16-8.8-17.4-1.6-1.4-3-1.9-3-1.9h-2.5s-2.1-2.4-3-2.9c-.8-.5-4.6-1.7-6.2-1.8-1.6-.1-7.6-.8-8.3-.4-.7.5-4.2 1.6-4.2 1.6-3.6-.8-8-2-14.4.2-6.3 2.3-11.2 6-12.5 7.9-.7 1-.7 3-1.3 4.4-.6 1.4-1.8 2.1-2.1 3-.4 1.1-1.4 7.2-1.4 7.2" id="Globular_Apical"/><path fill="none" d="M153.3 181.4l-2.5 9.1 1.9 8.8 2.2 7.6s1.6 2.7 3 4.8 5.2 5.6 5.2 5.6l2.7 1.6 2.7-.3 6.8 8.4 22.7-.7 5-8s3.6-.3 4.2-1c.7-.7 5.6-3 7.8-6.4 2.1-3.4 3.5-7.5 3.5-7.5l2.6-4.3s1.5-3.2 1.5-6.5-2.7-8.7-2.7-8.7l1.2-2.4-67.8-.1z" id="Globular_Basal"/></g><g id="Outlines"><g id="Torpedo_Outlines"><path fill="none" stroke="#000000" stroke-linecap="round" stroke-linejoin="round" stroke-miterlimit="10" d="M746.5 369.3c-3.2 3.4-3.3 7.7-3.3 11.9 0 7.2.3 14.3.4 21.5 0 2.6-.4 5.1-.6 7.7-.5.1-1.1.2-1.6.3-.5-1.2-1.4-2.4-1.5-3.7-.6-5.6-1.1-11.1-1.5-16.7-.3-4.6-.5-9.2-.5-13.9 0-5.9 0-11.8.6-17.7.2-2.1 1.8-4.2 2.7-6.2M753.2 311.9c1.3.4 2.7.8 4 1.1-.4.3-.9.6-1.3.9.2 3-.6 6.5.8 8.9 4.9 8.3 3.8 16.7 2.3 25.4-.7 4.1-.9 8.3-1.5 12.4-.2 1.5-1.2 2.9-1.8 4.3M676.3 278c-3.4 1.2-6.9 2.4-10.8 3.8.5 5-.3 10 1.5 13.8 4.2 8.8.4 20.1 9.1 27.3 3.3-1 6.8-2.1 10.8-3.3 3.4 3.2 5.7 7.2 5.7 12.5-.1 6.5-.6 13.1 2.8 19.1.4.8.7 2 .5 2.8-1.5 5.2-.3 10 1.5 14.8 2.5 6.5-.6 12.7-.6 19.1-6.2.8-12.1 1.6-18 2.4M746.1 354c.3 2.7.6 5.4 1 8.1 1.6 11.2 3.5 22.4 4.6 33.7.7 7.2.6 15.9.6 23.2M750.8 322c.6 11.8 1.3 23.6 1.9 35.4.2 3.9 1.2 8.4-3.8 10.5M764.7 328.7c1.4 1 2.7 2 3.8 2.7-8.8 17.3-6.2 34.8-4.2 52.2 8.3.9 16.1 1.7 24.1 2.5 1.2 5.9 2.3 11 3.6 17 4.2.2 11.4-.1 16.1.2M676.3 186.2v14.1c3 1.7 6.8 3.8 10.5 5.9M742.2 327.7h-4.4c1.5 8.5 2.8 16.1 4.2 24.5.6.3 2 .9 3.7 1.7.5-1.3 1.3-2.4 1.2-3.3-.8-5.8-1.4-11.6-2.9-17.2-1.3-4.8-1-8.9 1.7-12.9-1.8-1.7-3.6-3.2-5.3-4.8M729.3 336.3c-.5 1.8-1.6 3.6-1.3 5.2 2.4 14.4 1.7 29 1.8 43.5 0 .6.3 1.3.5 1.9M742.2 410.9c1.1 7.6 2.5 15.3 3.3 23 .5 4.6-.2 9.3.2 13.8.4 4.7 1.4 9.3 2.4 13.9.2 1 1.7 7.2 2.3 8.1"/><path fill="none" stroke="#000000" stroke-linecap="round" stroke-linejoin="round" stroke-miterlimit="10" d="M773.3 336.8c-1.1 4.8-2.3 9.6-3.3 14.3-.6 2.5-1 5.1-1.4 7.6M789.6 317.7c-5.7 13.7-8.5 28.1-11.5 42.5M809.6 345.9c.2.5.1 2.1 0 2.4-3.2 4.9-1.6 10.1-1.5 15.3.3 9.7.1 19.4.1 29.2 0 1.6-.2 6.1-.1 7.6M798.4 296.6c-1.8 3.8-3.7 7.6-5.5 11.5-1.3 2.8-2.6 5.7-3.8 8.6M686.8 152.3c1.9 2.7 3.8 5.3 5.7 7.9 4.5-1.5 8.4-2.8 10.8-3.5 5.9 3.7 10.5 6.6 15.1 9.5M682.5 170c-2.9-.6-7.4-2.7-8.3-1.6-2.6 3.1-4.1 7.3-5.5 11.2-2 5.3-4.1 10.7-5.2 16.3-1.8 8.9-5.3 17.8-2.3 27.4-3 6.2-1.2 34.2 2.8 39.7 2.9-.7 5.9-1.4 9.9-2.3 1.4 3.3 2.8 6.8 4.4 10.5-3.8 7 1.2 12.9 2.9 19.3.7 2.6 2.9 4.7 1 7.7-.5.7-.2 2.5.4 3.2 4.5 5.4 4.5 11.8 4.2 18.2M791 284.2c-3.4-1.1-6.9-2.1-10.3-3.2-1.7 3.1-3 5.4-4.6 8.2 2.2 2.1 4.3 4.1 6.8 6.5-1.2 2-2.4 3.8-3.4 5.6-5.1 8.8-10.1 17.6-15.4 26.2-.8 1.3-2.5 2-3.8 2.9M798.8 453.6c-1.1-.3-3.3-.3-4.4-.6-9.7-2.7-12-1-12.9 9.6-.1.6-.4 1.2-.8 2.6 2.3 1.8 4.5 4 7.1 5.4 2.5 1.3 5.5 1.8 8.3 2.7-1.3 8.1-5.6 13.2-10.3 18.8-5.9 7-13.9 9.6-20.9 14M735.1 143.7c1.1 1.4 4.4 5.6 5.8 6.6 5.1 3.7 4.1 9.1 2.5 13.3-1.4 3.8-2.1 7.5-1.9 11.1.2 4.5-1.1 8.2-3 12M675.8 323.4c-.2 2.1-.4 4.1-.5 6.2-.1 8.4-.3 16.9 0 25.3.4 10.5.2 21.2 2.2 31.5 1.2 5.9-1.1 12.5 3.4 17.8.4.5-.2 1.8-.4 2.8M827.8 274.7c.4 6.9-1.2 13.3-3.8 19.6M746.1 441.5c5.7.1 5.3.1 5.8 5.7.6 7.2.4 14.5 2.8 21.5M732.2 336.3c1.6 5.1 3.1 10.2 4.8 15.3.4 1.2 1.2 2.2 1.9 3.4M706.4 186.5c3.3 3.9 12.3 4.7 16.4 5.7.3 1.8.5 3.3.7 4.5 4.1 2.8 7.9 5.5 11.4 7.9.4 6.6 1.2 12.8 1.1 19-.1 8.8.9 17.6 2.1 26.3.3 2.3 1.2 4.5 1.9 6.7M718.8 431.9c-5.3 1-10.5 1.9-15.8 2.9-3.4.7-6.8 1.4-10.9 2.3.7 3.2.7 6 1.9 8.2 4.3 7.8 5.7 17 11.8 24 .7.8 1 2.2 1 3.3-.5 6.8 3.9 10.7 8.2 14.9 1.9 1.9 3.3 4.4 5.3 6.1 3.3 2.7 7 4.9 10.5 7.2"/><path fill="none" stroke="#000000" stroke-linecap="round" stroke-linejoin="round" stroke-miterlimit="10" d="M788.6 435.7c3.9.6 7.7 1.1 12.2 1.8-.5 3.1-.9 5.4-1.2 7.8-.8 8-1.5 15.9-2.5 23.9-.2 1.3-1.2 2.6-1.8 3.8M709.7 341.6c1.9-.5 3.7-1.1 6.2-1.8.5 5.3.7 9.8 1.5 14.3.4 2.6 1.3 6.2 6.2 4.3M792.4 262.7c-2.1 6.2-4.1 12.4-6.2 18.6M709.7 320.1c2.2 6.1 4.5 12.1 6.7 18.2M663.4 263.2c-1 6.4-.9 12.7 3.3 18.2M730.8 500.7c3.1.8 7.2 2 10.3 2.7.1-.3.2-.6.2-.9 1.4 1.1 2.8 2.3 4.2 3.4 3.7-.6 7.4-1.1 11.8-1.8 1.7.7 4.1 1.7 6.4 2.7-.6 4-1 7.5-1.5 11"/><path fill="none" stroke="#000000" stroke-linecap="round" stroke-linejoin="round" stroke-miterlimit="10" d="M808.2 400.4c-.8 4.5.6 2.2-.2 6.7-.6 3.2-4 10.7-4.5 13.9-.7 4-1.2 8-2 11.9-.3 1.6-.9 3.2-1.4 4.8M725.3 410.9c2.2-.4 6-.7 7.4-1 1.6 9 2.9 17 4.3 24.9M706.4 421.4c-5.9 2.2-11.8 4.5-17.7 6.7M813.9 289.9c3.6 1.7 7.3 3.3 11 5-3.6 12.5-6.7 24.3-14 34.8-3.5-1.3-6.5-2.4-9.4-3.5"/><path fill="none" stroke="#000000" stroke-linecap="round" stroke-linejoin="round" stroke-miterlimit="10" d="M707.8 293.3c3.1 7.3 7 14.3 7.7 22.5.3 3.7 1.4 7.4 2.3 11 1.7 7 3.9 14 5.1 21.1 1.1 6.1 1.4 12.4 1.5 18.6 0 4.8-1.1 9.6-1.2 14.3-.1 3.8.6 7.6.9 11.5.8 11.5 1.3 23 2.5 34.4.5 4.9 2.3 9.6 3.7 14.3 1.9 6.4 4.2 12.7 6.2 19.1 1.5 4.6 4.6 7.5 9.6 9-5.4-9.7-10.1-19.6-7.2-31M722.6 320.1c1.4 3.3 2.9 6.7 4.3 10 1 2.3.9 5.6 4.8 5.3M702.1 410.4c-5.8 2.2-11.6 4.5-18 7-1.5-3.6-2.8-6.5-4-9.3M694 359.7c-5.6.5-11.2 1-16.7 1.4M708.8 151.3c-2.3-3.3-4.5-6.7-6.9-10.1-5.9 2.6-11.3 5.6-16.4 10.3-4.1 3.9-7.8 7.5-9.7 12.7-.3.8 0 1.9 0 2.9M735.1 143.7c-8.2-9.4-18.2-7.1-28.2-4.2-1.4.4-2.6 1.5-3.8 2.3M713.6 277c-1.6-3-3.3-6-4.7-9.1-1-2-1.6-4.1-2.5-6.7 1.2-1.1 2.6-2.5 4.5-4.3 5.5 3.3 10.6 6.5 15.7 9.6M712.1 411.8c1.6 4.8 3.1 9.6 4.8 14.3.3.9 1.2 1.6 1.9 2.4M701.6 397c-1.9 3.6-5.1 4.7-9.1 4.9-3.7.2-7.3 1.2-11 1.8M704.5 242.6c.5 1.7 1 3.5 1.7 5.7-5.3 3.7-11.9 2.1-17.5 4.3M746.1 281.8c-2 8-4 16.1-6.1 24.2-2.4-.9-4.1-1.6-6.5-2.4-1.5 3-3.1 6.1-4.6 9.3M682 219.2c3 2.9 4 6.4 3.9 10.5-.1 5.4.6 10.8.8 16.3.1 1.1-.3 2.2-.4 3.3M764.2 383.6c-.2 2.9 0 6.9.6 9.6 1.8 8.4-2.5 17 1.2 25.4.9 2.1.1 5 .1 8.4 4-.3 7-.6 10-.8M730.8 387.9c.5 7.2 1 14.3 1.4 21.5M704 321.5c1 4.3 1.9 8.6 2.9 12.9.6 2.4 1.3 4.9 2 7.3-1.1 3.2-2.3 6.5-3.5 10.1-2.9.6-5.9 1.2-9 1.7M748.3 419c3.2.2 7.6.4 11.2.6 0 6.2.1 11.6 0 17.1-.2 8.8-.6 17.5-.9 26.3-.2 5.1-.3 10.2-.5 15.3M780.5 314.8c-2.9 6.4-5.7 12.8-9 20 2.5 1.3 4.9 3 7.6 3.8 4 1.2 8.3 1.7 12.4 2.5M787.2 471.1c-2.9 5.3-5.7 10.5-8.6 15.8M774.7 307.6c-4.8.6-9.6 1.1-14.3 2-1.4.3-2.6 1.8-3.8 2.8M691.6 340.1c-4.9.2-9.9.3-14.8.5M735.1 233.5c-4.3.5-8.7 1-13 1.5.7 4.2 1.2 7.6 1.8 11.8l-15.6 4.8"/><path fill="none" stroke="#000000" stroke-linecap="round" stroke-linejoin="round" stroke-miterlimit="10" d="M743 410.5c3.8 2.9 5.8 10 6.4 14.3.6 4.2 1.4 8.3 1.8 12.4.1 1.4-.6 2.9-.9 4.3M673.9 260.8c.4-3.2.9-6.4 1.5-10.5 3.7-.4 7.5-.8 11.9-1.3 1.5 7.6 3.6 14.3 1.4 22 .6 1.4 1.5 3.2 2.4 5.1M776.2 308.1l5.3 5.3-.6.9c6.5 2.2 13 4.5 19.3 6.7.3 2 .6 3.4.8 5.1-.1.1-.2.5-.4.8-2.7 4.5-5.9 8.7-7.9 13.5-1.1 2.7-.1 6.3-.2 9.5 0 1.9.2 4.1-.6 5.7-2 4.2-2.2 8.5-1.3 13 .7 3.8 1.4 7.6 2.1 11.9h14.1M811.1 329.6c2.6 5.7.8 11-1.4 16.3M807.2 263.7c-2.2 4.8-4.2 9.7-6.8 14.3-1.1 1.9-3.9 2.7-5.6 4.4-3.3 3.5-6.4 7.3-9.6 10.9-.7.8-1.9 1.3-2.8 1.9M778.6 361.2c-.5 14.3 1.4 28.8-1 42.1 0 6.2.5 11.5-.2 16.7-.6 4.3-.5 8.2 1.6 12M740.8 169c-3.8-.6-7.7-1.3-12.1-2-.9 4.5-1.9 9.5-3 14.5 4.8 2.2 8.9 4 13.7 6.1-.6 5.4-.6 11.4-4.8 16.3M799.1 280.9c-.8 3.5-1.6 7.1-2.6 11.4.3.8 1 2.5 1.8 4.5 2.7.6 5.6 1.2 8.9 1.9v10c4.2.8 8 1.6 11.7 2.4M687.3 309.1c2.8-1.2 5.6-2.5 9-4 2.8 5 5.4 9.7 7.9 14.5M779.3 194.8c1.3 2.1 3.8 6 4.8 7.7-.8 3.2-1.4 6.1-2.1 8.9-4.4 1.2-8.7 2.3-13 3.4M705.9 352.1c1.6 3.8 3.2 7.7 4.6 11.1-2.9 8-2.4 15.5 1.1 22.8M776.7 239.8c5.1-5.2 5.3-5.3 11.5-2.4 2.5 1.2 4.9 2.7 7.4 4M804.4 192.4c2.8 3.6 5.6 7.1 8.6 11-3.3 3.4-4.6 8.9-10.5 10.7-3.1.9-3.6 4.3-3.4 7.5.1 1.3-.3 2.5-.4 3.8M755.1 280.9c3.8 6.8 1.2 13.4-.6 20.4 1.4.4 2.8.7 4.2 1.1M704.5 205.8c-.3.3-.9.6-.9 1-1 5-4.1 7.3-9.8 7.1-1.6-1.9-3.6-4.3-5.5-6.6M820.6 206.3c.2 4.5.3 8.9.5 13.4M814.4 237.8c-5.5 4-3.6 10.5-5.2 15.8-.9 3-1.3 6-2 9.1M806.5 355c-4.4-.3-8.8-.6-13.1-1"/><path fill="none" stroke="#000000" stroke-linecap="round" stroke-linejoin="round" stroke-miterlimit="10" d="M781.9 235c.1-4.7.2-4.7 5.2-5.8 1.2-.3 2.2-1.5 3.4-1.8 3.4-.8 6.6-2.1 10.6-.7 4 1.3 8.5 1 12.7 1.3 2.1-2.4 4-4.6 5.9-6.9M752.3 396.1c2 .6 3.9 1.2 6.2 1.9v22M806.8 160.4c2.1 4.3 4.1 8.6 6.2 12.9M791.5 403.2c-.5 2.2-1.1 4.4-1.4 6.7-.8 5.9 1.7 12.1-2.3 17.8-1 1.5 0 4.4-.2 6.6-.3 2.9-.5 5.9-1.5 8.6-1.1 2.9-1.4 5.5.1 8.2M763.8 262.7c-1.4 4.5-2.7 9-4.3 14.1 2.9 3 6.3 6.3 10.1 10.2-2.5 1.8-4.8 3.4-6.7 4.8-6.3-1.4-12-2.6-17.8-3.8-1.6-.3-3.2-.6-4.8-1M710.2 295.7c2.8-1.3 5.7-2.7 9-4.2-2.3-4.6-4.2-8.3-6.9-13.7 1.1-.6 2.8-1.6 4.7-2.7l6.9 3c-.6 6.4-1.1 12.8-1.6 18.5 3.8 2.5 7.1 4.7 10.3 6.9M774.7 442.9c-1.1 4.1-2.2 8.3-3.3 12.4M720.3 223.5c-3 .5-6 1.2-9.1 1.3-1.9.1-3.8-.9-5.7-1.3M689.2 164.7c-2.1 1.6-4.2 3.2-6.2 4.7.2 3.2.4 6.3.6 9.4 5.4 3.4 6.4 9.4 8 15 .2.8.6 1.6.9 2.4M732.7 409.9l4.1.9c1 6.4 3.1 14.8 4 21.2.3 1.9 0 3.9 0 5.8-.4 0-.8.1-1.2.1-.6-.8-1.1-1.7-1.7-2.5M762.3 517.9c1.1 4.2-.7 9.8-1.9 13.9M823.5 250.8c-4.1-.5-8.3-1-12.4-1.4M775.2 486.4c-2.4 1.4-4.8 2.8-6.2 3.5-5.3.5-9.6.9-13.9 1.3"/><path fill="none" stroke="#000000" stroke-linecap="round" stroke-linejoin="round" stroke-miterlimit="10" d="M781 182.4c-.6-3.4-1.2-6.7-1.5-8.5 2.1-7 3.8-12.7 5.6-18.5-1.5-2.5-3.2-5.3-4.8-8.1-4 .1-6.5 2-8.4 5.4-3.2 5.7-5.5 11.5-4.8 18.2.2 2-1 4.1-1.3 6.2-.3 2.2-.6 4.5-.4 6.7.2 2.6 1.2 5.1 1.3 7.7.6 10.7 1 21.3 1.5 32 0 .6.3 1.3.6 2.4h8.5c.3-.5.6-.9.9-1.4 1.5 1.9 2.9 3.8 4.4 5.7M694.4 178.1c3.3 2.8 6.6 5.5 9.9 8.3-3.3 4.2-5.1 9.6-12.1 9.7-3.6 7.3-7.3 14.8-11.4 23.1h-4.6M809.6 201c-4 2.2-8 4.5-11.9 6.7M799.6 227.3c-.3 3.5-.6 7-1 10.5 0 .5.2 1.3 0 1.4-5.3 2.9-5.8 9.2-8.8 13.1 1 3.3 1.9 6.3 3.1 10.4h17.6c2.4 0 4.8.3 7.2.5M698.7 401.3c2.4 3.7 4.8 7.3 7.2 11 .4.6 1 1.3.9 1.9-1 5.3 1.6 10 2.9 14.8M691.6 277c.3 2.1.9 4.1.9 6.2 0 4.8.3 9.2 3.2 13.5 1.5 2.2.8 5.9 1.2 8.9M684.4 416.6c.3 2.1.2 4.3 1 6.2 2.2 5 4.7 9.9 7.1 14.9M767.1 427.1c-.3 3.5-.6 7-1 10.5-.2 2.1-.6 4.1-.9 6.2M697.3 388.4l5.7 8.1c2.4-.3 4.8-.6 7.4-1 .3-2.8.5-5.7.8-9.6 3.5-1.3 7.5-2.8 11.4-4.3M830.7 209.6c-1 3-2 6-2.8 9.1-.3 1.3-.3 2.9 0 4.3 1.4 6.3 1.4 6.9-2.8 15.1h-7.3c-6-1.1-3.2-6.1-3.8-9.8M762.3 517.9c-4.6.7-8.3 1.3-13.9 2.1-.2 3.4-.3 7.1-.5 11.5h12.6c0 8.8-.3 17 .1 25.1.3 8.2 1.3 16.3 2.8 24.4-1.1 2.3-.1 4.2-1.4 7.2-2.9 0-8.4.5-11.9.5M807.7 309.5c-2.5 3.8-5.1 7.6-7.6 11.5M771.4 155.6c3.8 1 7.6 1.9 11.5 2.9M755.6 492.1c.3 3.8.6 7.6 1 11.5M762.8 470.1c.8-2.2 1.5-4.5 2.4-7.1 4.2 1.8 8.3 3.5 12.4 5.2M789.1 253.1c-3.7 1.1-7.4 2.2-11 3.4-.8.3-1.7 1.1-1.9 1.9-1.5 6-3.1 12.1-4.3 18.2-.5 2.7 0 5.6-2.5 7.6M836.4 191c-2.5 1.3-5.2 2.4-7.6 3.9-1 .6-2 1.7-2.3 2.8-.6 1.8-.6 3.8-.8 5.5l6 6c1.9-1 6.4-3.4 8.7-4.7M739.9 263.7c.7 3.9 1.2 7.8-1 11.5M770 361.2c-.3 7.3-.6 14.7-1 22"/><path fill="none" stroke="#000000" stroke-linecap="round" stroke-linejoin="round" stroke-miterlimit="10" d="M747.8 531.6c-.2 1.1-.6 2.2 0 4.4 1.6 6.2.9 12.4.6 18.8-.2 6.4-.6 12.7-.9 19.1 0 .5 1.1 1.9 1.4 2.4M776.7 404.2c-3.7-.2-7.3-.3-11-.5M715 316.7c-3.1 1.8-6.6 2.2-10 3.1-4.4 1.2-8.4 4.2-12.5 6.4M734.1 317.7l3.3 10.5M737.5 464.4c-2.5 1.3-5.1 2.6-8.1 4.1-3.7-6.4-7.5-12.8-11.4-19.5-3.4 1.9-7.1 3.9-10.5 5.8-2.6.4-4.9.7-7.3 1M681.5 300.5c-3.7 1.3-7.3 2.5-11 3.8M711.2 434.3c2.1 3.5 4.2 7 6.2 10.5.7 1.3 1 2.8 1.5 4.3M721.2 199.1c0 4-.4 7.9-3.3 11M728.4 167.6c-2.7-.6-5.4-1.1-8.1-1.7-3 3-6.1 6.1-9.4 9.5-1.4 3.4-3 7.2-4.5 11.1M789.6 191.5c-5.6 2.1-11.1 4.2-16.7 6.2-1.4.5-2.9.7-4.3 1M740.8 257c-.3 1.9-.6 3.8-1 6.5h-12.2c-1.7-5 1.1-11.6-4-16M768.1 491.2l3.3 10.5M701.1 225.4c-4.4 3.6-3.7 9.3-5.9 13.6-2.6.7-5.3 1.4-8 2.2M661.9 223.5c3.5.6 7 1.3 10.5 1.9M707.8 455.8c2.1 3.6 4.1 7.2 6.2 10.8M808.7 151.3c-6.9-4.8-14.8-6.3-22.9-6.5-1.7-.1-3.5 1.8-5.3 2.7M725.5 427.6c-1.9.5-3.9 1.1-6.7 1.9 1.2 4.2 1.9 8.2 3.4 12 1.5 3.8 3.7 7.4 5.9 11.5 1.4-.3 3-.6 4.6-.9M718.3 138v10.5M759.4 277.5c-4.7 4.4-10.6 3.3-16.5 3.3-4.3 6.3-8.7 12.7-13.1 19.1M790.5 406.3c-3.3.3-9.5 1.4-12.8 1.7M775.2 251.7h-10.4c-1.5-3.7-1.5-3.7.9-10.3 3.6-1 7.3-3 11.7-.8-2.7 5.4-2.3 10.5.7 15.4M737.5 250.8c-3.3.6-6.7 1.3-10 1.9M769.5 476.8c-5.3-8.7-13.9-7.2-22.4-7.1-2.6 2.9-5.3 6.1-8.9 10.2-3.2-4.3-5.8-7.8-8.4-11.2M705.9 261.7c-1.9 1-4.2 1.5-5.7 2.9-2.8 2.7-6 3.2-9.6 2.8"/><path fill="none" stroke="#000000" stroke-linecap="round" stroke-linejoin="round" stroke-miterlimit="10" d="M781 465.8c-2.5 2.9-5.3 5.6-7.6 8.6-2.5 3.2-5.7 4.2-9.6 4.3-3.2.1-6.5.8-9.5 1.6-3.2-.2-6.4-.4-9.6-.8-.7-.1-3.1-2.4-3.7-2.8M724.6 403.7c-5 1.5-11 1-12.7 7.7-1.7.5-3.3 1-4.9 1.4M672.5 204.4c1 4.5 1.9 8.9 2.9 13.4.1.3.1.7 0 .9-3.2 8-1.9 16.6-3.3 24.9"/><path fill="none" stroke="#000000" stroke-linecap="round" stroke-linejoin="round" stroke-miterlimit="10" d="M661.5 243.1c.6 0 1.3.1 1.9 0 5.9-.6 10.8.5 12.4 7.2M716.4 486.9c2.4-2.6 4.9-5.3 7.5-8.2 3.9 3.4 6.9 6.1 10.3 9.1-1.9 3.3-3.9 6.8-5.9 10.3M753.2 364c4.1 1.6 3.4 5.5 3.7 8.6.8 7.1 1.1 14.3 1.5 21.5.1 1.1-.6 2.2-.9 3.3M697.3 268c3.7 7.9 7.4 15.8 11.2 24-4.2 2.2-7.9 4.2-11.7 6.1M734.1 213.9c-5 2.3-11.4 2.4-13.1 9.2.5 3.2 1.1 6.5 1.6 9.9M782.9 212.5c.8 1 1.6 2 2.5 3.2-2.2 3.4-4.3 6.8-6.4 10.2M688.2 270.4c-3.2.3-6.4.6-9.6 1M826.4 170c-3.2 2.2-6.4 4.5-9.6 6.7M724.8 461.1c-3.3 1.9-6.5 3.8-9.8 5.7M707.3 225.4c.6 3.2 1.3 6.4 1.9 9.6M772.8 440c2.1 4.1 6.8 3 10 4.8.6.3 1.3.3 1.9.5M695.9 239.3c6.7 4 6.7 4 11.5-2.4.6-.8 1.5-1.4 1.7-1.6 4.7.2 8.7.4 12.7.6M823.5 182.4c.1 3.9-1.6 6.3-5.2 8.3-2.2 1.2-3.5 4-5.4 6-.8.9-1.9 1.6-2.8 2.4M806.3 211.1c2.9 2.9 8.6 8.1 11.5 11M776.7 187.2c-3 .2-6.1.3-9.1.5M723.1 298.6c-.3 3.2-.6 6.4-1 10.3 3.3 2.5 6.7 5.6 10.7 7.6 1.7.9 4.7-.6 6.9-1.1.5-2.7 1-5.3 1.6-7.8M764.7 252.2c-.3 3-.6 6-.9 9.6h11M692.1 291.4c-2.9.8-5.7 1.6-8.6 2.4M798.6 167.6c2.5 2.4 5.1 4.8 7.6 7.2M744.2 480.2c-.7 2.5-1.3 5.1-2.1 8.1 1.1 1.2 2.3 2.5 3.1 3.4 3.5-.4 6.3-.7 9.1-1M697.8 195.8c4.3 4.9 8.7 9.9 13.3 15.2-4.3 3.4-5.8 7.5-6.1 12.1 0 .2-.6.3-.9.5M761.8 588.2c2.7 3 2.7 6.6 2.9 10.5M699.2 376.5c2.9.3 5.7.6 8.6 1M733.3 141.2c-1 1.3-3.2 4.5-3.9 5.9-1.3 2.5-3.4 3-5.8 2.3-4.7-1.3-9.1.3-13.3 1.7-2 .7-3.3 3.6-4.9 5.5M762.8 270.4c2.9 1.1 5.7 2.2 8.6 3.3"/><path fill="none" stroke="#000000" stroke-linecap="round" stroke-linejoin="round" stroke-miterlimit="10" d="M723.6 149.4l4.3 3.4c1.1.6 2.2 1.3 3 1.7 2.9-1.8 5.7-3.4 8.5-5.1M819.7 264.6c.2 2.4.4 4.8.7 8.2-1.6 2.2-3.8 5.2-5.8 7.9-.3 3.2-.7 6.1-.9 8.1-2.4 3.5-4.2 6.2-6 8.9M765.7 463c.4-1.9.9-3.8 1.2-5.6 2.4-1.6 4.4-2.1 7-.2 1.8 1.4 5.1 1.5 7.3 2.3M790 146.1v6.7c-.3.4-.6.7-.9 1.1 2.1.8 4.2 1.6 6 2.3 1.4-3.6 2.4-6.1 3.4-8.6M683.7 179.1c-2.3 2.2-4.7 4.4-6.8 6.5l-7.8-2.7M694 214.4c-.9 2.6-1.8 5.1-2.7 7.5-1.8 1.1-3.4 2-5 3M801 278l12.9 2.4M759.5 442.9c1.6.4 4.6.8 6.3 1.2.5 4.3.9 8.5 1.3 12.6M790.5 170.9l-8.1-3.3M824.9 238.3c1 1.3 1.9 2.5 2.8 3.7-1.3 5.7-5.8 10.5-3.7 16.9M828.3 242.6h7.6M705.9 203.9l4.9-4.9c5-.7 9-1.3 13.1-1.8M736 243.1c-3.8.6-7.6 1.3-11.5 1.9M746.1 506.5c.5 2.5 1.8 11 2.3 13.6M768.5 226.4c-2.3 4.6-3.2 9.3-1.9 14.3M771.4 478.3c1.6 2.4 3.3 4.8 5.2 7.6 2.2 1.6 4.9 3.7 7.7 5.8M762.5 576.3c-2.9.6-7.3 2-10.2 2.2-1 .1-2.2-1.5-3.3-2.2l.5 3.8v18.7c-4.5 6.6-8.9 13.8-13.9 20.5-5.1 6.7-5.6 14.2-5.2 22 .6 10.5 1.5 20.9 4.4 31 1.5 5.3 2.7 11 6.6 15.3.8.9 1.8 2.2 2.9 2.3 8.8.9 17.2-.3 23.8-6.7 5.1-4.9 9.6-10.5 14.4-15.7l2.4-10c.2-2.5.3-5.1.5-7.6.3-3.7 1.6-7.6.8-11-3.2-12.8-7.2-25.2-16.3-35.6-4-4.5-7.9-4.5-12.7-4.6H750M704 167.6c2.1 2.4 4.1 4.8 6.2 7.2M745.6 492.1c-1 3.7-1.9 7.3-2.9 11M742.7 280.9c-1.5-2-2.9-4-4.4-6.1-2.7 1-4.9 1.8-7.9 2.9.2 3.2.5 6.5.7 9.4 2.1.8 3.5 1.3 4.9 1.9M839.1 226.4s-7 .5-9.4 1M748.9 307.2c1.3 1.6 2.6 3.1 4.2 5-1.7 2.5-3.4 4.9-5.1 7.4M789.1 184.3c-2.4-.6-4.8-1.1-7.9-1.8-1.1 1-2.7 2.5-4.6 4.2 1.6 2.8 3 5.5 4.4 8.1M691.6 223c2.2 1.6 4.5 3.2 6.7 4.8M789.1 361.2c-5.6-.2-11.2-.2-16.7-.5-2.9-.1-5.7-.6-8.6-.9M707.8 160.4c-1.6 1.9-3.2 3.9-4.8 5.8l.5.5c-2.6 1.6-5.1 3.1-7.7 4.7M762.3 292.3c-.1 1.8-.2 3.5-.3 5.7 1.9 3.5 5.3.1 7.9 1M759.9 565.7c-3.7.3-7.3.6-11 1M710.7 211.1c1 0 2.1.4 2.8-.1 3.1-1.8 5-.7 6.7 2 1 1.6 2.2 3.2 3.3 4.8M719.8 358.5c-1.9 2.8-2.1 7-1.5 10.3.7 4.2.3 10 .6 14.3M734.6 487.3c2.4.5 4.8 1 7.2 1.4M787.5 431.9c-7.5-2.6-11.4 3.6-14.9 7.7-2-.2-3.7-.4-5.5-.5M737.9 478.7c-1.8 2.4-3.5 4.8-5.3 7.2M762.3 299c-4.3 2.5-3.8 6.5-3.3 10.5M737.5 387.5c-4.1.2-9.6.8-13.8 1M712.6 280.9c-2.2.8-4.5 1.6-6.7 2.4M785.3 215.4c5.3-2.1 8 2.5 11.5 4.8M813.5 203.9c1.9.6 3.8 1.2 5.9 1.9 1.8-.6 3.7-1.3 5.6-1.9M795.8 207.7c-2.1 2.2-4.1 4.5-6.2 6.7M706.9 469.2l7.6-2.4c2.7 3.3 5.4 6.7 8.3 10.3 2.5-2.7 4.5-4.9 6.5-7M789.6 201l3.8-4.3c-2.4-4-4.3-8.1-3.4-13.8.5-.4 1.7-1.5 2.9-2.5M699.7 275.1c-2.2 1.3-4.5 2.5-6.7 3.8M710.2 396.1c1.4 3.6 2.7 7.2 4.1 10.8M725.5 312.9c-1 2.2-1.9 4.5-2.8 6.6-1.8.5-3.6 1-5.3 1.6M721.7 307.6c-2.2.3-4.5.6-6.7 1M727.9 264.1c-.2 3.2-5.8 11.9-5.8 11.9l8.3 1.7M778.6 172.8h-11M772.4 292.8c-.6 2.1-1.2 4.2-1.9 6.7 1.1 1.7 2.5 3.7 3.8 5.7M795.3 156.1c1.8 1.4 3.5 2.9 5.3 4.3M790.5 424.3c3.5.5 7.9 1 11.4 1.4M736 432.9c-2.1.5-4.1 1-6.2 1.4M829.7 177.1l-3.3 2.4c-1 .7-1.9 1.5-3 2.4-1.6-.2-3.4-.3-5.2-.5M689.7 163.3c1.3 1.8 2.5 3.5 3.8 5.3 2.4 3.2 2.6 6.6.2 9.5-1.5 1.9-3.3 3.5-5 5.3M717.4 363.1c-2.1.2-4.1.3-6.2.5M754.2 302.4c-3.2 3-6.7 5.5-11.5 4.7-.7-.1-1.3-.9-1.9-1.4M799.1 239.3c3.7 1 7.5 1.9 11.2 2.9"/><path fill="none" stroke="#000000" stroke-linecap="round" stroke-linejoin="round" stroke-miterlimit="10" d="M821.1 272.3c2.2.8 4.4 1.5 7.6 2.6l3.4-13.6c.1-.3 0-.7 0-.9 2.6-8.6 3.3-14.8 5.4-21.9 1.2-4 .3-4.8 1.5-12 1.4-8.9 2.5-13.5 1.5-20.6-.3-1.8-.2-2.9-.4-4.8-.9-7.7-4.9-12.3-7.6-21.5-2.1-3.8-4.6-7.5-6.1-11.5-3-7.9-9.1-12.4-16.5-16.1-1.3 2.8-2.4 5.4-3.6 8-6.1.4-6.1.4-7.6 6.9-1.7.8-3.3 1.4-4.8 2.2-1.2.6-2.3 1.5-3.4 2.2.7 7.7 1.6 9.1 6.7 9.7 0 0 7.8-3.5 9.2-5.2.7-.8 2.1-1.4 3.3-1.4 6.1-.1 6.1 0 8.2 6.8-1.4 1.5-2.8 3.2-4.2 4.8 1.4 1.7 2.6 3.1 3.7 4.5M821.6 189.6l4.8 5.7M759.4 555.2h-10.5M792 380.8c-1.3 1.9-2.5 3.8-3.8 5.7M736 328.7c-1.3 1.9-2.5 3.8-3.8 5.7M705.9 249.3c1.1 2.9 2.2 5.7 3.3 8.6M801.3 214.4c-3.3-4.5-6.6-9-9.9-13.4-2.8.8-4.7 1.4-6.6 2"/><path fill="none" stroke="#000000" stroke-linecap="round" stroke-linejoin="round" stroke-miterlimit="10" d="M831.6 260.3c-2.4-.5-4.8-1-6.6-1.3-3.6.1-2.3 5.5-6.3 4.7M759.4 543.8c-3.2.2-6.4.3-9.6.5M714 189.6c-.5 1.8-1 6.4-1.4 8.1M754.2 481.6c.3 3.2.6 6.4 1 9.6M727.9 343c-1.8.3-3.5.6-5.3 1M730.8 155.2c-.3 3.8-.6 7.6-1 11.5M726.5 182.4c-1 2.9-1.9 5.7-2.9 8.6M826.4 221.1c-1.9-.2-3.8-.3-5.7-.5M731.2 288l-7.2 2.4M738.9 374.1c1.4.2 2.9.3 4.3.5M754.7 319.1c-1.3.8-2.6 1.5-3.7 2.2-1.7-.4-3.3-.8-4.9-1.2M795.8 222.1c-.3 1.3-.6 2.5-1 3.8M769 288.5c1.2 1.4 2.4 2.7 3.8 4.4 1.3-1.1 2.3-2 3.4-2.9M710.2 430c.3 1.1.6 2.2 1 3.3M771.9 281.3c2.5.3 5.1.6 7.6 1M720.3 337.7l-4.8 2.4M674.8 201c-1.7 2.5-3.5 3.9-6.8 2-1.4-.8-3.4-.4-5.2-.6M752.3 438.1c2.1.2 4.1.3 6.2.5M740.5 408.8l-3.7 2M803.7 179.5l1 2.9 4 3.1 4.9.5M809.9 186.2l-5.2 2.5-1.8 2.8-8.3 4.8"/><path fill="none" stroke="#000000" stroke-linecap="round" stroke-linejoin="round" stroke-miterlimit="10" d="M797.2 181l1.9 4.5 2.2 6.9M785 155.4l4.1-1.5M717.4 163.3l2.9-4.1.9-7.2.5-2.6M712.6 176.2l5.7 3.3 7.4 2"/><path stroke="#000000" stroke-linecap="round" stroke-linejoin="round" stroke-miterlimit="10" d="M728 454.4l4.9 11.4"/></g><g id="Heart_Outlines"><path fill="none" stroke="#000000" stroke-linecap="round" stroke-linejoin="round" stroke-miterlimit="10" d="M454.7 429.5c-2.2 6-1.1 13 1.2 18.9 1.9 4.7 6.5 6.4 5.6 12.6-.7 5-4.2 6.3-6.6 10.6-2.7 4.8-3.8 10.6-4.2 16-1.2 18 20.8 53.7 38.3 29.1 7.8-10.9 8.1-25.7 3-37.7-1.9-4.4-4.5-7.9-7.2-11.8-4.4-6.4-3.9-7.3-4.7-14.6-.8-6.8.5-23.3-7-27-4.2-2.1-14.3 6.4-18.5 3.3-4.5-3.4-4.3-14-2.8-18.6M524.3 170.6c3.2 5.7 4.7 16.4 4.7 22.3-.1 7.3-1.2 16.2-3.7 23.1-4.9 13.9-14.3 27-18.8 40.8-3.3 10-5.1 17.9-10.3 27.1-3 5.3-5.8 11.9-9.7 16.6-2.5 3-14.4 15.1-18 14.9M397.4 161.6c-8.2 5-11.2 20.7-11.8 29.6-.4 5.8 7.9 26.1 1.6 26.1M485.8 173.3c4.9-12.3-8-.6-10.7 2.7-5.2 6.3-9.1 12.6-16.8 15.9"/><path fill="none" stroke="#000000" stroke-linecap="round" stroke-linejoin="round" stroke-miterlimit="10" d="M524.8 190.9c1 6.8.4 13.7-1.3 20.3-1 3.9-4.3 9.4-4.7 13M382.2 174.8c-6.1 8.8.7 29.7 3.3 39.3 1.7 6.3 3.2 15.6 6.1 21.5 2.3 4.8 11.6 8.8 11.9 12.6"/><path fill="none" stroke="#000000" stroke-linecap="round" stroke-linejoin="round" stroke-miterlimit="10" d="M521.6 224.8l-5.2-1.5c-.2-3.3 8.6-28.2 3-29.1M447.2 381.8c-1.5 6.4-2.1 23.5 4.5 27.3 2.7 1.5 15.1-1 18.3-2.4"/><path fill="none" stroke="#000000" stroke-linecap="round" stroke-linejoin="round" stroke-miterlimit="10" d="M446.6 355.2c5.8.2 18.8-2.1 22.3 2.6 3.4 4.5.8 20 1.5 25.8 1 7.7-.2 15 .1 22.5.3 6.7 2.9 12.3 2.4 19.5M513.4 171.2c10.1.3 7.3 16.9 6.6 23.1"/><path fill="none" stroke="#000000" stroke-linecap="round" stroke-linejoin="round" stroke-miterlimit="10" d="M423.9 287.1c-3.4 9.2 8.9 21.6 14.4 27 8.9 8.8 7.1 18.4 7.3 29.8.2 8.8-1 18-.4 26.9 1.1 16.6 10.5 8.7 23.3 9.1M524.2 190c.5-7.8-.6-20.3-9.9-22.8"/><path fill="none" stroke="#000000" stroke-linecap="round" stroke-linejoin="round" stroke-miterlimit="10" d="M428.6 304.2c-10.1-2.4-13.9-22.8-17.8-30.7-3.9-7.9-17.9-26.1-19.3-37.2M387.2 184.4c8 9.2 2.4 17.1 6.5 28 3.2 8.5 8.3 8.1 17.5 8.5M405.5 220.9c-3.3 12 4.3 24.3 14.7 28.2M403.7 195.1c-5.1 5.1-2.9 18.4-1.8 23.7M432.5 163.5c-6.4 0-19.3-9.8-25.6 0-4.9 7.6 12 19.7 16.6 25.4M502.9 230.2c1 5.4-2.3 12.7-4.2 17.5 10.8 9.3 24.3-26.1 12.3-26.2M453.5 247.9c7.7 3.8 10.9 2 12.6-6.6.4-2.3-1.1-6.2.4-8.1 1.7-2.2 3.5-.3 5.3-1.9 3.7-3.3 11.4-2.7 7-12.1-3.1-6.6-5.4-4.8-10.4 0-2.1 2.1.1 4.1-4.6 6.4-1.2.6-4.6-3.3-5.6-3-4.8 1.4-5.9.6-6.3 9.7-.2 6 5.2 13.5-2.2 16.9-2.9 1.4-17.1-3.9-19.5-5.5M424.1 155.3c-23.6-17.1-46.3 4.5-41.3 19.2M409.9 245.5c-.3 4.8 5.6 34.1 15.1 25.8M397.7 219.7c-2.1 6 5 27.9 14 24.7M491.8 250.3c-2.4 7.3-8.3 19.2-13.8 24.5M462.5 249.3c-2.3 4.1-1.7 17.8-.3 22.2M479.4 307.8c-6.4-8.3-10.9 9-14.5 11-4.4 2.4-21.4.6-20.3-8.4.7-5.2 15.1-5.3 18.9-5.9 11.2-1.6 5.3-4.8 10.7-16.1M390.2 217.3c.3 5.7 6 17.8 7.1 23.3M446.3 344.1c7.4-.1 15.1.4 22.5.9M489.1 188c11.7-14.6 17.5 1.9 15.7 14.7M478.3 448.4c-5.6.1-12.5 2.5-17.7 4.5M513.4 204.1c1.1 8-1.3 16.5-6.4 22.9"/><path fill="none" stroke="#000000" stroke-linecap="round" stroke-linejoin="round" stroke-miterlimit="10" d="M488.8 248.5c1.7-2.1 10.6-13.6 9.7-16-2.3-6-10.9-3.4-13.4-.7-7 7.5-.9 24.1-19 13.1M511.3 177.8c7.5 3.2 4.3 10.5 7.8 15.9M508 204.1c.6 6.1-2.9 11.5-4.8 17.1M413 178.4c-7 8.2-5.1 16.5-1.2 25.2M450.5 205c1.7-3.8 1.4-13.3-3.3-15.2-3.5-1.4-6.5 4.6-8.4 6.8"/><path fill="none" stroke="#000000" stroke-linecap="round" stroke-linejoin="round" stroke-miterlimit="10" d="M529.9 193c4.6-22.5-8-28.6-14.7-32.4-10.5-5.9-24.7-2.6-32 7.2M437.9 218.8c-3.8-5.4-23-23.2-26.1-11.2-1.8 6.7 4.1 9.2 7.9 12.5 8 7 6.2 6.9 17 4.1M504.2 248.5c1.6-3.9 5.4-15.4 10.3-16.8M411.9 270.3c7.7 5.3 6.3 19.7 19.6 16.3M418.2 232.9c.8 5.5 1.4 14 2.1 18.9.7 4.4 4.8 10.6 4.4 15M413.9 216.4c-6.2 9.5 3.1 20.2 13.2 17.4M446.9 332.4c6.9-1.7 32.3.5 21.9-16.3M426.5 187.7c-6.6 1.9-6.3 10.7-9.6 15.6"/><path fill="none" stroke="#000000" stroke-linecap="round" stroke-linejoin="round" stroke-miterlimit="10" d="M441.2 201.1c2.3.5 5.9 1.9 7.6 3.5 4.3 4.1 2.3.4 2.1 5.8-.3 8.8-3.6 5.8-8 8.3-2.2 1.3-2.8-1.5-4.7 1-1.8 2.4 0 5.7.3 8.2.8 6.1 4.7 13 3.9 19.3M419.6 160.4c2.9 3.7 11.1 15.6 17.7 10.8M471.4 191.5c3.6-13.4 25.2-4.3 10.9 4.5-8.3 5.1-21.6 7-11.8 20.3M468.5 328.8c2.5 5.3 2.8 22-.4 27M480.4 198.4c2 4.2 2.8 8.7 3.6 13.2M401.9 168.2c-3.6 3.6-5 10.1-6.7 14.5M403.5 248.8c.8 5.5 11.8 20 7.1 22.4M420.2 171.5c3.7.4 12.3 3.5 12.3 8.4M426.8 188.6c3 3 7.7 4.5 10.4 7.9 2.8 3.7 3 1.9 2.2 5.9-.4 1.8-7 7-8.1 8.1M487 193.3c2 4.3 7.5 7.9 10.8 11.4M518.8 194.5c-4.4 4.1-1.5 7.5-8.7 9-6.2 1.3-5.7-3.9-12.5 2.2-4.9 4.4-3.4 8-5.4 13-3.3 8.2-3.6 3.5-.4 10M426.4 225.6c-1.5 6 11.7 30.6-5.5 23.5M445.7 290.1c-3.3-.1-10.1-2-13.2-.6M474.1 286.5c-.3-1-10-.3-10.9.4-3.7 3-3.1 13.2-4.1 17.6M502.2 184.3c7.4-3 16-17.4 7.2-21.6-6.4-3-8.4 1.5-11.6 5.4-6.4 7.5-1.2 7.9-2.6 14.6M397.4 241.6c.8 4.1 11 21.1 9.4 23.7M483.1 290.1c-2.5 3.3-5.3 11.5-7.5 15"/><path fill="none" stroke="#000000" stroke-linecap="round" stroke-linejoin="round" stroke-miterlimit="10" d="M446.7 277.5c-5.5-.6-7.9-7.3-14.5-2.6-3.8 2.7-3.3 1.5-1.5 7.7 1.4 4.9 2.7 9.7 4.2 14.8M442.7 247.9c-.9 6.8-.3 13.9-.3 20.7M431.6 258.7c-.4 3.6 1.6 11.5 3.3 14.7M466.7 209.2c-7.2 1.4-6.3 7.5-8.4 13.5M494.5 175.4c-9.3-3.6-10.7 1.7-15.9 5.7M500.8 162.8c-4.6-3.9-10.5 2.8-13.8 5.1M461 291.9c-2.7.6-6-.3-8.7-.1M476.2 214.7c3.5-3.8 11.7-2.5 15.9-1.3M476 273c1.4-7.2 8-20.1 3.4-26.4M502.9 221.8c-2 2.3-3.9 4.8-5.4 7.5M479.4 246.7c3.8 1.9 15.8 4.3 19.3 1.1M445.1 190c-4.9-7.7-11.8-16.1-18.3-3M472.2 248.4c0 2.4-2.3 18.5-3.4 20.8M451.3 269c1 2.3.7 8.8.7 8.3M430.3 305.1c1.6-.1 7.9 4.6 6.6-.6M462.5 201.5c1-6 14.4-14.2 14.1-4M451.4 231.4c-3.4 1.3-8.1 1-11.6 1.5M437.6 306.6c1.8 2.2 4.6 1.6 6.9 2.4M431.3 172.1c1.4 2.2 3.3 4.2 3.9 6.9M444.8 282.3c.6 6.6-.1 17.4 2.1 23.9M507 227c-2.2 3.3-5.1 3.1-8.3 4.7"/><path fill="none" stroke="#000000" stroke-linecap="round" stroke-linejoin="round" stroke-miterlimit="10" d="M468.8 269.2c-.4 1.4.7 1.5 2 2.1 1.7.9 3.1.4 4.6.9 1.4.5 1 3.3 2.9 3.8 13 3.5 8.2-7.2 16-9.9 7.8-2.7 6.2 7.5 2 11.5-2.1 2-6.6 3.9-9 5.7-3 2.3-1.5 8-8.1 6.8M484 289.8c.9 5.1.4 3.6 4.5 6.7M466.7 203.8c-9.4-7.8-4.9 7.2-14.1 3.6M387.2 177.8c8.9 3 6.7 5.4 10.6 11.1 1.6 2.4 5.7 6.9 8.9 6.3M425.9 167.9c-5.6 2.6-10.4 7.8-12.4 10.5M434.9 297.5c.5 2.1 1.7 4.2 1.8 6.4M453.4 194.5c1.9 1.7 5.8 4.9 7.7 6.6M447.3 217.3c1.6 1.8 5.8 3.9 7 6.3M449.9 254.8c.6 2 1.3 12.2 1.4 14.2M429.1 249.3c.4 1.9 2.1 7.5 2.5 9.4M464.9 226c1.4 1.7 1.8 3.7 2.4 5.7M452.3 291.8c-1.8-.4-4.2-1.2-6-1.6M383.1 175.1c2.3 1.9.4 6.2 3 8.7M467 195.7c1.9 1.4 2.9 3.4 3.9 5.4M449.9 249.7c.6 1.7 0 3.4 0 5.1M449.9 318.6c-1.3 1.8-5.1 1.7-6.7 2.4M390.2 169.7c-3.6-.7-4.8-2.1-6.6 3.8M416.6 155.6c.6 1.8 3.6 1.7 3.3 4.2M455.9 278.1c-3-1-6.1-.4-9.1-.6M442.4 268.6c-.4 2.4-.9 4.8-1.1 6.4M390.9 192.1c1.6-.8 5.2-1.9 6.8-2.7M431.6 258.7c0 1.7.3-1.8 0 0M496.9 249.3c.9 1.5-1.9 14.7-2.3 16.3M494.5 279c1 1.5-.9 3.4.6 4.8M461.1 282.3c.2-2-1.2-4.2-5.2-4.2M503.5 264.1c-.7 1.6-1.6 2.9-3 3.9"/><path fill="none" stroke="#000000" stroke-linecap="round" stroke-linejoin="round" stroke-miterlimit="10" d="M464.3 196.6c-1-1.5-3.1-1.4-4.2-2.7l-1.3-.9c-5.2-5.8-11.6-9.2-16.3-15.7-5.1-7-10.3-16.5-18-21.1-4.7-2.8-19.9-4.5-24.5-.1-4 3.8-.8 14.7 6.1 11.2M461.1 282.3c0 1.5.1 3.7 1.3 4.8M444.8 277.5c-1.1 1.3-.3 3.4 0 4.8M455.6 190.2c-1.3 2.1-.8 6-4.3 5.3M462.5 272.2c.4 1.4-1.1 4.9-2.6 6M424.7 266.8c-.1 3 1.8 7.7 4.7 9.4M524.5 190.3c1.4.9 2.3-.7 3.6-.6M468.5 271.3c-1.8 1.9-3.9 1.2-6 .9M441.1 175.5c-.9 1-2.9 3.3-3.8 4.3M474.2 177.1c.8 2.1 5.2 4.8 5.1 7.7M475.2 305.4c-1.1.5-9.3-.9-10.4-1.4M446.5 181.6c-3 .4-4 1.5-5.4 2.7M486.9 275.3c.3 1.5 2.1 4.9 3.2 6.1M506 248.2c.4.8 1.9 2.5 2.3 3.3M474.1 286.5c0 1.9 2.3 3.3 5.1 3.4M477.1 228.4c1.7 1.6 5.5 2.3 7.3 3.6M418.2 271.1c-.4.2-3.4 1.4-3.8 1.6M474.1 286.1l3-10.8M521.6 173l2.7-4.8M397.3 240.6l11.3 4.1"/></g><g id="Globular_Outlines"><path fill="none" stroke="#000000" stroke-linecap="round" stroke-linejoin="round" stroke-miterlimit="10" d="M180.7 312.2c-1.2 5.9-.7 11.7 2 17.1.6 1.2.6 2.2.4 3.3-1.2 7.1-.8 14 2.5 20.6.1.1-.1.4 0 .5 3.5 4.1 3.1 9.3 4.5 14.1 2.2 7.4.7 14-2.1 20.7-2.2 5.1-2.7 10.7-2.5 16 .2 6.1 2.7 11.7 6.2 16.9 3.5 5.1 7.4 9.9 11.4 14.6 1.4 1.7 2.4 3.3 4.9 3.5 3.4.3 5.9-1.2 8.1-3.3 2.7-2.6 3.8-6.1 5.2-9.5 2.2-5.2 2.2-10.6 1.5-16-.5-4-1.7-7.9-3.3-11.7-2.6-6.4-6.4-11.9-9.7-17.8-3.1-5.7-4.7-11.7-3-18.2.6-2.1.7-4.2-.5-6.2M175.2 248.2c-1.3 2.1-1.4 4.5-.8 6.8.8 2.9.6 5.8.2 8.7-.7 5.3-.8 10.5 0 15.7 0 .2-.1.4 0 .5 2 3.3.9 6.8.6 10.3-.6 6.3 1.7 15.8 5.1 21.7 6.1-.7 12-2.9 18.2-2.7"/><path fill="none" stroke="#000000" stroke-linecap="round" stroke-linejoin="round" stroke-miterlimit="10" d="M201.6 327.7c3.4 3 4.6 7.2 5.1 11.4.6 4.8.9 9.6-.5 14.4-.3 1 1.6 2.3-.5 3M176.6 284.3c4.8.2 9.4-.6 14.1-1.1.4-.1.9-.2 1.4-.2 5.6-.2 7.3 1.2 7.8 6.8.5 5.5.8 11.1-.4 16.5-.9 3.9 1.4 6.9 1.9 10.3.5 3.3.3 6.5.3 9.8 0 2.2-2.4 2.1-3.7 2.4-4.8.9-9.6 1.5-14.4 2.3M156.8 182.2c-1.4 1.9-2.5 3.9-2.2 6.5.2 2.5.1 5.1 0 7.6 0 .8.3 1.7-.8 2.2-.5.2-.8 1-.5 1.6 1.3 3.6 1.9 7.6 4.1 10.8 2.2 3.2 4 6.9 8.4 7.9 1 .2 1.9.4 2.7-.3M205.6 165.7c0-3.5 1.9-4.5 4.9-3 4.2 2.1 7.5 5.2 9.1 9.6 1.4 3.8 2.8 7.8.1 11.6"/><path fill="none" stroke="#000000" stroke-linecap="round" stroke-linejoin="round" stroke-miterlimit="10" d="M206.7 162.2c-2.3-3.1-5.2-4.6-9.2-4.7-3-.1-6-.8-9 .1-1.2.4-2.4.7-3.1 1.9M187.7 166.5c1.4-3.3 3.5-3.5 6.8-2.9 3.8.7 7.1 3 11.4 2.6 4.4-.4 7.5 3 9.4 6.9 1.2 2.4 2.5 4.9 1.7 7.8-.4 1.4.8 2.2 1.6 2.7 2.8 1.6 2.8 4.6 3.3 7.1.2 1.1.7 2.6.3 4.1-.6 2.1-1 4.1-2.2 6-1.3 2.1-2 4.5-3.1 6.7-2.5 5.2-7 8.2-11.9 10.6-.5.2-1.4.3-1.9 0-2.3-1.7-4.5-.5-6.8-.3-3.7.3-7.5.1-10.6-2.6M197.9 226.5c.9 2.4.3 4.9.1 7.3-.2 2.3-2.5 2.2-4 2.4-6 .9-12.1-.3-18.2.3M196.1 259.3c-6.9.2-13.8-.4-20.6-.8"/><path fill="none" stroke="#000000" stroke-linecap="round" stroke-linejoin="round" stroke-miterlimit="10" d="M202.9 218.3c-1.7 2.6-3.3 5.3-5 8-2.9-.6-5.9-.6-8.8-.3-3.9.5-7.8.8-11.7.7-2.2 0-3.7 1.2-3.2 2.9 1.4 4.6.5 9.1-.3 13.6-.6 3.6.8 5 4.5 4.8 4.8-.2 9.6.7 14.4.4 1.4-.1 2.9.5 4.3.8M205.6 353.8c-5.2 2.8-11.4 2-16.6 4.9M185 158.6c-4.6-1.5-9.1-1.3-13.9.1-5.3 1.5-9.3 4.3-13 8.1-1.1 1.1-1.7 2.3-1.1 3.8M167.9 179.8c-.9.6-1.3 1.7-2.7 2-1.7.3-1.8 2.1-1.9 3.5-.2 3.2-.6 6.5.1 9.4.5 2.2.3 4.7 2 6.6M209.4 201.5c1.1 5.8-3.1 9.1-6.3 12.7-.7.8-1.4 1.4-1.6 2.5M176.1 186c-.9-1.8.3-3.2 1.7-3.4 2.2-.4 1.9-1.7 1.9-3.1 0-2 .3-4-.1-6-.4-2.4 1.1-4.3 1.3-6.5.2-1.8 2.3-2.3 4.2-1.6 1.5.5 3.3.8 3.2 3-.1 2.7.6 5.4.7 8.1.1 1.4-.9 2-.8 3.3.3 5.3.2 13.4.2 18.7"/><path fill="none" stroke="#000000" stroke-linecap="round" stroke-linejoin="round" stroke-miterlimit="10" d="M204.3 184.7c-.5-1 .3-2.3.6-3.2-.8-1.2-2.5-1.2-2.9-.8-1.3 1.4-2.8.6-4.2 1-2.9 1-6.1.5-9 1.6M197.2 236c1.5 2.7 1.9 5.8 1.5 8.7-.6 3.5-.4 7.2-1.1 10.6-.7 3-.4 5.6.4 8.5.6 1.9.5 4 0 6-.8 3.5.4 7.1-.2 10.6-.2.9-.3 1.8-.6 2.7M157.9 204.8c1.6 4.5 4.3 9.4 9.5 10.6.4.1.7 1.2 1.1 1.6M181.5 165.7c-2.9-2.7-5.9-3.4-9.5-1.4-1.2.7-1.7 1.5-2.3 2.7-1.7 3.7-1.5 7.6-1.5 11.5 0 1.7.9 2.3 2.5 2.2 2-.2 3.4 1.1 5.1 1.7.3.1.4.7.6 1M204.3 184.7c.8 4.2-1.1 5.8-1.6 8.4-.3 1.7-1.1 3.7-2 5.5-.2.5-.6.5-1.1.5M169.8 165.7c-2.7-1.6-5.2-.6-7.6.8-2.1 1.3-3.6 3.3-5.6 4.8-1.6 1.2-2.7 3.9-2.4 6.1.2 1.7-.6 2.8-1 4.1-1.5 4.5-3.7 8.9-1.6 13.8.5 1.2 1.8 4.1 1 4.1M213.2 184.1c.5 4.2-.4 8.5.2 12.8.3 2.1-2.9 4.5-5.1 4-2.5-.5-5-1-7.3-2.1M187 206.9c-.2 2.1-.3 5-1.3 7.1-.6 1.3-1.4 1.1-2.1 1.5-2.8 1.5-5.7 2.4-9 .9-1.6-.7-3.6.3-5.4.8-1 .3-.7 1.6 0 2.3 2 2.4 3.6 5.2 6 7.3M204.3 166.8c-.8 1.5.3 2.9.3 4.3.1 3.1-.3 6.2-.9 9.2"/><path fill="none" stroke="#000000" stroke-linecap="round" stroke-linejoin="round" stroke-miterlimit="10" d="M174.7 197.5c3.8 2.2 9 3.6 13 1.6.8-.4 1.7-.1 1.9.1 1.9 1.7 8-.3 10.1-.1M176.1 186c0 2.9-1.4 6.9-1.4 9.8M217 182.2c-2.3 1.4-4.4 2.2-6.9-.2-1.2-1.1-3.3-.2-5.1-.4M179.9 181.4c2.5.8 4.9 2.1 7.6.8M166 201.6c.7 1.6 1.9 6.9 2.3 8.8.3 1.2 1.1 2.6 2.6 3.3 1 .5 2 .9 2.2 2.2M154.9 179.5c1 1.9 2.5 2.6 4.6 2.2 1.5-.3 2.9 0 4.1 1.1M186.9 200.2c1.1 1.9-.8 4.9.1 6.8M170.6 159.4c.2 1.6.4 3.3.5 4.9M154.9 198c2.1 1.5 7.1 1 9.4 1.1M212.2 199.9c2.1 1.2 4.2 2.4 6.2 3.5M156.8 199.3c-.1 1.6.6 4.5 1.1 5.4"/><path fill="none" stroke="#000000" stroke-linecap="round" stroke-linejoin="round" stroke-miterlimit="10" d="M164.9 198.5s2.1.5 3.1.5h5.2c2.2.4 1.4-1.6 1.6-3.3M185.4 160.2s-.2.5.4 1.7c.7 1.2 1.3 3.8 1.3 3.8"/></g></g><g id="dividerLines"><path fill="none" d="M142 177.6h6.6v7.5H142z"/><path fill-rule="evenodd" clip-rule="evenodd" fill="#231F20" d="M146.9 181.1h1.2v.8h-1.2zM144.7 181.1h1.2v.8h-1.2zM142.5 181.1h1.2v.8h-1.2z"/><path fill="none" d="M148.6 177.6h6.6v7.5h-6.6z"/><path fill-rule="evenodd" clip-rule="evenodd" fill="#231F20" d="M153.5 181.1h1.2v.8h-1.2zM151.3 181.1h1.2v.8h-1.2zM149.1 181.1h1.2v.8h-1.2z"/><path fill="none" d="M155.2 177.6h6.6v7.5h-6.6z"/><path fill-rule="evenodd" clip-rule="evenodd" fill="#231F20" d="M160.1 181.1h1.2v.8h-1.2zM157.9 181.1h1.2v.8h-1.2zM155.7 181.1h1.2v.8h-1.2z"/><path fill="none" d="M161.9 177.6h6.6v7.5h-6.6z"/><path fill-rule="evenodd" clip-rule="evenodd" fill="#231F20" d="M166.8 181.1h1.2v.8h-1.2zM164.6 181.1h1.2v.8h-1.2zM162.4 181.1h1.2v.8h-1.2z"/><g><path fill="none" d="M168.5 177.6h6.6v7.5h-6.6z"/><path fill-rule="evenodd" clip-rule="evenodd" fill="#231F20" d="M173.4 181.1h1.2v.8h-1.2zM171.2 181.1h1.2v.8h-1.2zM169 181.1h1.2v.8H169z"/></g><g><path fill="none" d="M175.1 177.6h6.6v7.5h-6.6z"/><path fill-rule="evenodd" clip-rule="evenodd" fill="#231F20" d="M180 181.1h1.2v.8H180zM177.8 181.1h1.2v.8h-1.2zM175.6 181.1h1.2v.8h-1.2z"/></g><g><path fill="none" d="M181.7 177.6h6.6v7.5h-6.6z"/><path fill-rule="evenodd" clip-rule="evenodd" fill="#231F20" d="M186.6 181.1h1.2v.8h-1.2zM184.4 181.1h1.2v.8h-1.2zM182.2 181.1h1.2v.8h-1.2z"/></g><g><path fill="none" d="M188.3 177.6h6.6v7.5h-6.6z"/><path fill-rule="evenodd" clip-rule="evenodd" fill="#231F20" d="M193.2 181.1h1.2v.8h-1.2zM191 181.1h1.2v.8H191zM188.8 181.1h1.2v.8h-1.2z"/></g><g><path fill="none" d="M195 177.6h6.6v7.5H195z"/><path fill-rule="evenodd" clip-rule="evenodd" fill="#231F20" d="M199.9 181.1h1.2v.8h-1.2zM197.7 181.1h1.2v.8h-1.2zM195.5 181.1h1.2v.8h-1.2z"/></g><g><path fill="none" d="M201.6 177.6h6.6v7.5h-6.6z"/><path fill-rule="evenodd" clip-rule="evenodd" fill="#231F20" d="M206.5 181.1h1.2v.8h-1.2zM204.3 181.1h1.2v.8h-1.2zM202.1 181.1h1.2v.8h-1.2z"/></g><g><path fill="none" d="M208.2 177.6h6.6v7.5h-6.6z"/><path fill-rule="evenodd" clip-rule="evenodd" fill="#231F20" d="M213.1 181.1h1.2v.8h-1.2zM210.9 181.1h1.2v.8h-1.2zM208.7 181.1h1.2v.8h-1.2z"/></g><g><path fill="none" d="M214.8 177.6h6.6v7.5h-6.6z"/><path fill-rule="evenodd" clip-rule="evenodd" fill="#231F20" d="M219.7 181.1h1.2v.8h-1.2zM217.5 181.1h1.2v.8h-1.2zM215.3 181.1h1.2v.8h-1.2z"/></g><g><path fill="none" d="M221.4 177.6h6.6v7.5h-6.6z"/><path fill-rule="evenodd" clip-rule="evenodd" fill="#231F20" d="M226.3 181.1h1.2v.8h-1.2zM224.1 181.1h1.2v.8h-1.2zM221.9 181.1h1.2v.8h-1.2z"/></g><g><path fill="none" d="M228 177.6h6.6v7.5H228z"/><path fill-rule="evenodd" clip-rule="evenodd" fill="#231F20" d="M232.9 181.1h1.2v.8h-1.2zM230.7 181.1h1.2v.8h-1.2zM228.5 181.1h1.2v.8h-1.2z"/></g><g><path fill="none" d="M371.2 211h6.8v7.5h-6.8z"/><path fill-rule="evenodd" clip-rule="evenodd" fill="#231F20" d="M376.3 214.5h1.3v.8h-1.3zM374 214.5h1.3v.8H374zM371.7 214.5h1.3v.8h-1.3z"/><path fill="none" d="M378 211h6.8v7.5H378z"/><path fill-rule="evenodd" clip-rule="evenodd" fill="#231F20" d="M383.1 214.5h1.3v.8h-1.3zM380.8 214.5h1.3v.8h-1.3zM378.5 214.5h1.3v.8h-1.3z"/><path fill="none" d="M384.9 211h6.8v7.5h-6.8z"/><path fill-rule="evenodd" clip-rule="evenodd" fill="#231F20" d="M389.9 214.5h1.3v.8h-1.3zM387.7 214.5h1.3v.8h-1.3zM385.4 214.5h1.3v.8h-1.3z"/><path fill="none" d="M391.7 211h6.8v7.5h-6.8z"/><path fill-rule="evenodd" clip-rule="evenodd" fill="#231F20" d="M396.8 214.5h1.3v.8h-1.3zM394.5 214.5h1.3v.8h-1.3zM392.2 214.5h1.3v.8h-1.3z"/><path fill="none" d="M398.6 211h6.8v7.5h-6.8z"/><path fill-rule="evenodd" clip-rule="evenodd" fill="#231F20" d="M403.6 214.5h1.3v.8h-1.3zM401.4 214.5h1.3v.8h-1.3zM399.1 214.5h1.3v.8h-1.3z"/><path fill="none" d="M405.4 211h6.8v7.5h-6.8z"/><path fill-rule="evenodd" clip-rule="evenodd" fill="#231F20" d="M410.5 214.5h1.3v.8h-1.3zM408.2 214.5h1.3v.8h-1.3zM405.9 214.5h1.3v.8h-1.3z"/><path fill="none" d="M412.3 211h6.8v7.5h-6.8z"/><path fill-rule="evenodd" clip-rule="evenodd" fill="#231F20" d="M417.3 214.5h1.3v.8h-1.3zM415 214.5h1.3v.8H415zM412.8 214.5h1.3v.8h-1.3z"/><g><path fill="none" d="M419.1 211h6.8v7.5h-6.8z"/><path fill-rule="evenodd" clip-rule="evenodd" fill="#231F20" d="M424.2 214.5h1.3v.8h-1.3zM421.9 214.5h1.3v.8h-1.3zM419.6 214.5h1.3v.8h-1.3z"/></g><g><path fill="none" d="M426 211h6.8v7.5H426z"/><path fill-rule="evenodd" clip-rule="evenodd" fill="#231F20" d="M431 214.5h1.3v.8H431zM428.7 214.5h1.3v.8h-1.3zM426.5 214.5h1.3v.8h-1.3z"/></g><g><path fill="none" d="M432.8 211h6.8v7.5h-6.8z"/><path fill-rule="evenodd" clip-rule="evenodd" fill="#231F20" d="M437.9 214.5h1.3v.8h-1.3zM435.6 214.5h1.3v.8h-1.3zM433.3 214.5h1.3v.8h-1.3z"/></g><g><path fill="none" d="M439.6 211h6.8v7.5h-6.8z"/><path fill-rule="evenodd" clip-rule="evenodd" fill="#231F20" d="M444.7 214.5h1.3v.8h-1.3zM442.4 214.5h1.3v.8h-1.3zM440.2 214.5h1.3v.8h-1.3z"/></g><g><path fill="none" d="M446.5 211h6.8v7.5h-6.8z"/><path fill-rule="evenodd" clip-rule="evenodd" fill="#231F20" d="M451.6 214.5h1.3v.8h-1.3zM449.3 214.5h1.3v.8h-1.3zM447 214.5h1.3v.8H447z"/></g><g><path fill="none" d="M453.3 211h6.8v7.5h-6.8z"/><path fill-rule="evenodd" clip-rule="evenodd" fill="#231F20" d="M458.4 214.5h1.3v.8h-1.3zM456.1 214.5h1.3v.8h-1.3zM453.9 214.5h1.3v.8h-1.3z"/></g><g><path fill="none" d="M460.2 211h6.8v7.5h-6.8z"/><path fill-rule="evenodd" clip-rule="evenodd" fill="#231F20" d="M465.3 214.5h1.3v.8h-1.3zM463 214.5h1.3v.8H463zM460.7 214.5h1.3v.8h-1.3z"/></g><g><path fill="none" d="M467 211h6.8v7.5H467z"/><path fill-rule="evenodd" clip-rule="evenodd" fill="#231F20" d="M472.1 214.5h1.3v.8h-1.3zM469.8 214.5h1.3v.8h-1.3zM467.5 214.5h1.3v.8h-1.3z"/></g><g><path fill="none" d="M473.9 211h6.8v7.5h-6.8z"/><path fill-rule="evenodd" clip-rule="evenodd" fill="#231F20" d="M478.9 214.5h1.3v.8h-1.3zM476.7 214.5h1.3v.8h-1.3zM474.4 214.5h1.3v.8h-1.3z"/></g><g><path fill="none" d="M480.7 211h6.8v7.5h-6.8z"/><path fill-rule="evenodd" clip-rule="evenodd" fill="#231F20" d="M485.8 214.5h1.3v.8h-1.3zM483.5 214.5h1.3v.8h-1.3zM481.2 214.5h1.3v.8h-1.3z"/></g><g><path fill="none" d="M487.6 211h6.8v7.5h-6.8z"/><path fill-rule="evenodd" clip-rule="evenodd" fill="#231F20" d="M492.6 214.5h1.3v.8h-1.3zM490.4 214.5h1.3v.8h-1.3zM488.1 214.5h1.3v.8h-1.3z"/></g><g><path fill="none" d="M494.4 211h6.8v7.5h-6.8z"/><path fill-rule="evenodd" clip-rule="evenodd" fill="#231F20" d="M499.5 214.5h1.3v.8h-1.3zM497.2 214.5h1.3v.8h-1.3zM494.9 214.5h1.3v.8h-1.3z"/></g><g><path fill="none" d="M501.3 211h6.8v7.5h-6.8z"/><path fill-rule="evenodd" clip-rule="evenodd" fill="#231F20" d="M506.3 214.5h1.3v.8h-1.3zM504 214.5h1.3v.8H504zM501.8 214.5h1.3v.8h-1.3z"/></g><g><path fill="none" d="M508.1 211h6.8v7.5h-6.8z"/><path fill-rule="evenodd" clip-rule="evenodd" fill="#231F20" d="M513.2 214.5h1.3v.8h-1.3zM510.9 214.5h1.3v.8h-1.3zM508.6 214.5h1.3v.8h-1.3z"/></g><g><path fill="none" d="M514.9 211h6.8v7.5h-6.8z"/><path fill-rule="evenodd" clip-rule="evenodd" fill="#231F20" d="M520 214.5h1.3v.8H520zM517.7 214.5h1.3v.8h-1.3zM515.5 214.5h1.3v.8h-1.3z"/></g><g><path fill="none" d="M521.8 211h6.8v7.5h-6.8z"/><path fill-rule="evenodd" clip-rule="evenodd" fill="#231F20" d="M526.9 214.5h1.3v.8h-1.3zM524.6 214.5h1.3v.8h-1.3zM522.3 214.5h1.3v.8h-1.3z"/></g><g><path fill="none" d="M528.6 211h6.8v7.5h-6.8z"/><path fill-rule="evenodd" clip-rule="evenodd" fill="#231F20" d="M533.7 214.5h1.3v.8h-1.3zM531.4 214.5h1.3v.8h-1.3zM529.2 214.5h1.3v.8h-1.3z"/></g><g><path fill="none" d="M535.5 211h6.8v7.5h-6.8z"/><path fill-rule="evenodd" clip-rule="evenodd" fill="#231F20" d="M540.6 214.5h1.3v.8h-1.3zM538.3 214.5h1.3v.8h-1.3zM536 214.5h1.3v.8H536z"/></g></g><g><path fill="none" d="M652.3 317.2h6.7v7.5h-6.7z"/><path fill-rule="evenodd" clip-rule="evenodd" fill="#231F20" d="M657.3 320.7h1.3v.8h-1.3zM655.1 320.7h1.3v.8h-1.3zM652.8 320.7h1.3v.8h-1.3z"/><path fill="none" d="M659.1 317.2h6.7v7.5h-6.7z"/><path fill-rule="evenodd" clip-rule="evenodd" fill="#231F20" d="M664 320.7h1.3v.8H664zM661.8 320.7h1.3v.8h-1.3zM659.6 320.7h1.3v.8h-1.3z"/><path fill="none" d="M665.8 317.2h6.7v7.5h-6.7z"/><path fill-rule="evenodd" clip-rule="evenodd" fill="#231F20" d="M670.8 320.7h1.3v.8h-1.3zM668.5 320.7h1.3v.8h-1.3zM666.3 320.7h1.3v.8h-1.3z"/><path fill="none" d="M672.5 317.2h6.7v7.5h-6.7z"/><path fill-rule="evenodd" clip-rule="evenodd" fill="#231F20" d="M677.5 320.7h1.3v.8h-1.3zM675.3 320.7h1.3v.8h-1.3zM673 320.7h1.3v.8H673z"/><path fill="none" d="M679.3 317.2h6.7v7.5h-6.7z"/><path fill-rule="evenodd" clip-rule="evenodd" fill="#231F20" d="M684.3 320.7h1.3v.8h-1.3zM682 320.7h1.3v.8H682zM679.8 320.7h1.3v.8h-1.3z"/><path fill="none" d="M686 317.2h6.7v7.5H686z"/><path fill-rule="evenodd" clip-rule="evenodd" fill="#231F20" d="M691 320.7h1.3v.8H691zM688.8 320.7h1.3v.8h-1.3zM686.5 320.7h1.3v.8h-1.3z"/><path fill="none" d="M692.7 317.2h6.7v7.5h-6.7z"/><path fill-rule="evenodd" clip-rule="evenodd" fill="#231F20" d="M697.7 320.7h1.3v.8h-1.3zM695.5 320.7h1.3v.8h-1.3zM693.3 320.7h1.3v.8h-1.3z"/><g><path fill="none" d="M699.5 317.2h6.7v7.5h-6.7z"/><path fill-rule="evenodd" clip-rule="evenodd" fill="#231F20" d="M704.5 320.7h1.3v.8h-1.3zM702.2 320.7h1.3v.8h-1.3zM700 320.7h1.3v.8H700z"/></g><g><path fill="none" d="M706.2 317.2h6.7v7.5h-6.7z"/><path fill-rule="evenodd" clip-rule="evenodd" fill="#231F20" d="M711.2 320.7h1.3v.8h-1.3zM709 320.7h1.3v.8H709zM706.7 320.7h1.3v.8h-1.3z"/></g><g><path fill="none" d="M713 317.2h6.7v7.5H713z"/><path fill-rule="evenodd" clip-rule="evenodd" fill="#231F20" d="M717.9 320.7h1.3v.8h-1.3zM715.7 320.7h1.3v.8h-1.3zM713.5 320.7h1.3v.8h-1.3z"/></g><g><path fill="none" d="M719.7 317.2h6.7v7.5h-6.7z"/><path fill-rule="evenodd" clip-rule="evenodd" fill="#231F20" d="M724.7 320.7h1.3v.8h-1.3zM722.4 320.7h1.3v.8h-1.3zM720.2 320.7h1.3v.8h-1.3z"/></g><g><path fill="none" d="M726.4 317.2h6.7v7.5h-6.7z"/><path fill-rule="evenodd" clip-rule="evenodd" fill="#231F20" d="M731.4 320.7h1.3v.8h-1.3zM729.2 320.7h1.3v.8h-1.3zM726.9 320.7h1.3v.8h-1.3z"/></g><g><path fill="none" d="M733.2 317.2h6.7v7.5h-6.7z"/><path fill-rule="evenodd" clip-rule="evenodd" fill="#231F20" d="M738.2 320.7h1.3v.8h-1.3zM735.9 320.7h1.3v.8h-1.3zM733.7 320.7h1.3v.8h-1.3z"/></g><g><path fill="none" d="M739.9 317.2h6.7v7.5h-6.7z"/><path fill-rule="evenodd" clip-rule="evenodd" fill="#231F20" d="M744.9 320.7h1.3v.8h-1.3zM742.6 320.7h1.3v.8h-1.3zM740.4 320.7h1.3v.8h-1.3z"/></g><g><path fill="none" d="M746.6 317.2h6.7v7.5h-6.7z"/><path fill-rule="evenodd" clip-rule="evenodd" fill="#231F20" d="M751.6 320.7h1.3v.8h-1.3zM749.4 320.7h1.3v.8h-1.3zM747.2 320.7h1.3v.8h-1.3z"/></g><g><path fill="none" d="M753.4 317.2h6.7v7.5h-6.7z"/><path fill-rule="evenodd" clip-rule="evenodd" fill="#231F20" d="M758.4 320.7h1.3v.8h-1.3zM756.1 320.7h1.3v.8h-1.3zM753.9 320.7h1.3v.8h-1.3z"/></g><g><path fill="none" d="M760.1 317.2h6.7v7.5h-6.7z"/><path fill-rule="evenodd" clip-rule="evenodd" fill="#231F20" d="M765.1 320.7h1.3v.8h-1.3zM762.9 320.7h1.3v.8h-1.3zM760.6 320.7h1.3v.8h-1.3z"/></g><g><path fill="none" d="M766.9 317.2h6.7v7.5h-6.7z"/><path fill-rule="evenodd" clip-rule="evenodd" fill="#231F20" d="M771.8 320.7h1.3v.8h-1.3zM769.6 320.7h1.3v.8h-1.3zM767.4 320.7h1.3v.8h-1.3z"/></g><g><path fill="none" d="M773.6 317.2h6.7v7.5h-6.7z"/><path fill-rule="evenodd" clip-rule="evenodd" fill="#231F20" d="M778.6 320.7h1.3v.8h-1.3zM776.3 320.7h1.3v.8h-1.3zM774.1 320.7h1.3v.8h-1.3z"/></g><g><path fill="none" d="M780.3 317.2h6.7v7.5h-6.7z"/><path fill-rule="evenodd" clip-rule="evenodd" fill="#231F20" d="M785.3 320.7h1.3v.8h-1.3zM783.1 320.7h1.3v.8h-1.3zM780.8 320.7h1.3v.8h-1.3z"/></g><g><path fill="none" d="M787.1 317.2h6.7v7.5h-6.7z"/><path fill-rule="evenodd" clip-rule="evenodd" fill="#231F20" d="M792.1 320.7h1.3v.8h-1.3zM789.8 320.7h1.3v.8h-1.3zM787.6 320.7h1.3v.8h-1.3z"/></g><g><path fill="none" d="M793.8 317.2h6.7v7.5h-6.7z"/><path fill-rule="evenodd" clip-rule="evenodd" fill="#231F20" d="M798.8 320.7h1.3v.8h-1.3zM796.5 320.7h1.3v.8h-1.3zM794.3 320.7h1.3v.8h-1.3z"/></g><g><path fill="none" d="M800.5 317.2h6.7v7.5h-6.7z"/><path fill-rule="evenodd" clip-rule="evenodd" fill="#231F20" d="M805.5 320.7h1.3v.8h-1.3zM803.3 320.7h1.3v.8h-1.3zM801 320.7h1.3v.8H801z"/></g><g><path fill="none" d="M807.3 317.2h6.7v7.5h-6.7z"/><path fill-rule="evenodd" clip-rule="evenodd" fill="#231F20" d="M812.3 320.7h1.3v.8h-1.3zM810 320.7h1.3v.8H810zM807.8 320.7h1.3v.8h-1.3z"/></g><g><path fill="none" d="M814 317.2h6.7v7.5H814z"/><path fill-rule="evenodd" clip-rule="evenodd" fill="#231F20" d="M819 320.7h1.3v.8H819zM816.8 320.7h1.3v.8h-1.3zM814.5 320.7h1.3v.8h-1.3z"/></g><g><path fill="none" d="M820.7 317.2h6.7v7.5h-6.7z"/><path fill-rule="evenodd" clip-rule="evenodd" fill="#231F20" d="M825.7 320.7h1.3v.8h-1.3zM823.5 320.7h1.3v.8h-1.3zM821.3 320.7h1.3v.8h-1.3z"/></g><g><path fill="none" d="M827.5 317.2h6.7v7.5h-6.7z"/><path fill-rule="evenodd" clip-rule="evenodd" fill="#231F20" d="M832.5 320.7h1.3v.8h-1.3zM830.2 320.7h1.3v.8h-1.3zM828 320.7h1.3v.8H828z"/></g><g><path fill="none" d="M834.2 317.2h6.7v7.5h-6.7z"/><path fill-rule="evenodd" clip-rule="evenodd" fill="#231F20" d="M839.2 320.7h1.3v.8h-1.3zM837 320.7h1.3v.8H837zM834.7 320.7h1.3v.8h-1.3z"/></g></g><g><path fill="none" d="M748.9 264.1h7.5v6.7h-7.5z"/><path fill-rule="evenodd" clip-rule="evenodd" fill="#231F20" d="M752.1 269.1h.8v1.2h-.8zM752.1 266.9h.8v1.2h-.8zM752.1 264.6h.8v1.2h-.8z"/><path fill="none" d="M748.9 270.8h7.5v6.7h-7.5z"/><path fill-rule="evenodd" clip-rule="evenodd" fill="#231F20" d="M752.1 275.8h.8v1.2h-.8zM752.1 273.5h.8v1.2h-.8zM752.1 271.3h.8v1.2h-.8z"/><path fill="none" d="M748.9 277.5h7.5v6.7h-7.5z"/><path fill-rule="evenodd" clip-rule="evenodd" fill="#231F20" d="M752.1 282.4h.8v1.2h-.8zM752.1 280.2h.8v1.2h-.8zM752.1 278h.8v1.2h-.8z"/><path fill="none" d="M748.9 284.2h7.5v6.7h-7.5z"/><path fill-rule="evenodd" clip-rule="evenodd" fill="#231F20" d="M752.1 289.1h.8v1.2h-.8zM752.1 286.9h.8v1.2h-.8zM752.1 284.7h.8v1.2h-.8z"/><path fill="none" d="M748.9 290.9h7.5v6.7h-7.5z"/><path fill-rule="evenodd" clip-rule="evenodd" fill="#231F20" d="M752.1 295.8h.8v1.2h-.8zM752.1 293.6h.8v1.2h-.8zM752.1 291.4h.8v1.2h-.8z"/><path fill="none" d="M748.9 297.5h7.5v6.7h-7.5z"/><path fill-rule="evenodd" clip-rule="evenodd" fill="#231F20" d="M752.1 302.5h.8v1.2h-.8zM752.1 300.3h.8v1.2h-.8zM752.1 298h.8v1.2h-.8z"/><path fill="none" d="M748.9 304.2h7.5v6.7h-7.5z"/><path fill-rule="evenodd" clip-rule="evenodd" fill="#231F20" d="M752.1 309.2h.8v1.2h-.8zM752.1 306.9h.8v1.2h-.8zM752.1 304.7h.8v1.2h-.8z"/><path fill="none" d="M748.9 310.9h7.5v6.7h-7.5z"/><path fill-rule="evenodd" clip-rule="evenodd" fill="#231F20" d="M752.1 315.8h.8v1.2h-.8zM752.1 313.6h.8v1.2h-.8zM752.1 311.4h.8v1.2h-.8z"/><path fill="none" d="M748.9 317.6h7.5v6.7h-7.5z"/><path fill-rule="evenodd" clip-rule="evenodd" fill="#231F20" d="M752.1 322.5h.8v1.2h-.8zM752.1 320.3h.8v1.2h-.8zM752.1 318.1h.8v1.2h-.8z"/><path fill="none" d="M748.9 324.3h7.5v6.7h-7.5z"/><path fill-rule="evenodd" clip-rule="evenodd" fill="#231F20" d="M752.1 329.2h.8v1.2h-.8zM752.1 327h.8v1.2h-.8zM752.1 324.8h.8v1.2h-.8z"/><g><path fill="none" d="M748.9 330.9h7.5v6.7h-7.5z"/><path fill-rule="evenodd" clip-rule="evenodd" fill="#231F20" d="M752.1 335.9h.8v1.2h-.8zM752.1 333.7h.8v1.2h-.8zM752.1 331.4h.8v1.2h-.8z"/></g><g><path fill="none" d="M748.9 337.6h7.5v6.7h-7.5z"/><path fill-rule="evenodd" clip-rule="evenodd" fill="#231F20" d="M752.1 342.6h.8v1.2h-.8zM752.1 340.3h.8v1.2h-.8zM752.1 338.1h.8v1.2h-.8z"/></g><g><path fill="none" d="M748.9 344.3h7.5v6.7h-7.5z"/><path fill-rule="evenodd" clip-rule="evenodd" fill="#231F20" d="M752.1 349.2h.8v1.2h-.8zM752.1 347h.8v1.2h-.8zM752.1 344.8h.8v1.2h-.8z"/></g><g><path fill="none" d="M748.9 351h7.5v6.7h-7.5z"/><path fill-rule="evenodd" clip-rule="evenodd" fill="#231F20" d="M752.1 355.9h.8v1.2h-.8zM752.1 353.7h.8v1.2h-.8zM752.1 351.5h.8v1.2h-.8z"/></g><g><path fill="none" d="M748.9 357.7h7.5v6.7h-7.5z"/><path fill-rule="evenodd" clip-rule="evenodd" fill="#231F20" d="M752.1 362.6h.8v1.2h-.8zM752.1 360.4h.8v1.2h-.8zM752.1 358.2h.8v1.2h-.8z"/></g><g><path fill="none" d="M748.9 364.3h7.5v6.7h-7.5z"/><path fill-rule="evenodd" clip-rule="evenodd" fill="#231F20" d="M752.1 369.3h.8v1.2h-.8zM752.1 367.1h.8v1.2h-.8zM752.1 364.8h.8v1.2h-.8z"/></g><g><path fill="none" d="M748.9 371h7.5v6.7h-7.5z"/><path fill-rule="evenodd" clip-rule="evenodd" fill="#231F20" d="M752.1 376h.8v1.2h-.8zM752.1 373.7h.8v1.2h-.8zM752.1 371.5h.8v1.2h-.8z"/></g><g><path fill="none" d="M748.9 377.7h7.5v6.7h-7.5z"/><path fill-rule="evenodd" clip-rule="evenodd" fill="#231F20" d="M752.1 382.6h.8v1.2h-.8zM752.1 380.4h.8v1.2h-.8zM752.1 378.2h.8v1.2h-.8z"/></g><g><path fill="none" d="M748.9 384.4h7.5v6.7h-7.5z"/><path fill-rule="evenodd" clip-rule="evenodd" fill="#231F20" d="M752.1 389.3h.8v1.2h-.8zM752.1 387.1h.8v1.2h-.8zM752.1 384.9h.8v1.2h-.8z"/></g><g><path fill="none" d="M748.9 391h7.5v6.7h-7.5z"/><path fill-rule="evenodd" clip-rule="evenodd" fill="#231F20" d="M752.1 396h.8v1.2h-.8zM752.1 393.8h.8v1.2h-.8zM752.1 391.6h.8v1.2h-.8z"/></g><g><path fill="none" d="M748.9 397.7h7.5v6.7h-7.5z"/><path fill-rule="evenodd" clip-rule="evenodd" fill="#231F20" d="M752.1 402.7h.8v1.2h-.8zM752.1 400.4h.8v1.2h-.8zM752.1 398.2h.8v1.2h-.8z"/></g><g><path fill="none" d="M748.9 404.4h7.5v6.7h-7.5z"/><path fill-rule="evenodd" clip-rule="evenodd" fill="#231F20" d="M752.1 409.4h.8v1.2h-.8zM752.1 407.1h.8v1.2h-.8zM752.1 404.9h.8v1.2h-.8z"/></g><g><path fill="none" d="M748.9 411.1h7.5v6.7h-7.5z"/><path fill-rule="evenodd" clip-rule="evenodd" fill="#231F20" d="M752.1 416h.8v1.2h-.8zM752.1 413.8h.8v1.2h-.8zM752.1 411.6h.8v1.2h-.8z"/></g><g><path fill="none" d="M748.9 417.8h7.5v6.7h-7.5z"/><path fill-rule="evenodd" clip-rule="evenodd" fill="#231F20" d="M752.1 422.7h.8v1.2h-.8zM752.1 420.5h.8v1.2h-.8zM752.1 418.3h.8v1.2h-.8z"/></g><g><path fill="none" d="M748.9 424.4h7.5v6.7h-7.5z"/><path fill-rule="evenodd" clip-rule="evenodd" fill="#231F20" d="M752.1 429.4h.8v1.2h-.8zM752.1 427.2h.8v1.2h-.8zM752.1 425h.8v1.2h-.8z"/></g><g><path fill="none" d="M748.9 431.1h7.5v6.7h-7.5z"/><path fill-rule="evenodd" clip-rule="evenodd" fill="#231F20" d="M752.1 436.1h.8v1.2h-.8zM752.1 433.8h.8v1.2h-.8zM752.1 431.6h.8v1.2h-.8z"/></g><g><path fill="none" d="M748.9 437.8h7.5v6.7h-7.5z"/><path fill-rule="evenodd" clip-rule="evenodd" fill="#231F20" d="M752.1 442.8h.8v1.2h-.8zM752.1 440.5h.8v1.2h-.8zM752.1 438.3h.8v1.2h-.8z"/></g><g><path fill="none" d="M748.9 444.5h7.5v6.7h-7.5z"/><path fill-rule="evenodd" clip-rule="evenodd" fill="#231F20" d="M752.1 449.4h.8v1.2h-.8zM752.1 447.2h.8v1.2h-.8zM752.1 445h.8v1.2h-.8z"/></g><g><path fill="none" d="M748.9 451.2h7.5v6.7h-7.5z"/><path fill-rule="evenodd" clip-rule="evenodd" fill="#231F20" d="M752.1 456.1h.8v1.2h-.8zM752.1 453.9h.8v1.2h-.8zM752.1 451.7h.8v1.2h-.8z"/></g><g><path fill="none" d="M748.9 457.8h7.5v6.7h-7.5z"/><path fill-rule="evenodd" clip-rule="evenodd" fill="#231F20" d="M752.1 462.8h.8v1.2h-.8zM752.1 460.6h.8v1.2h-.8zM752.1 458.3h.8v1.2h-.8z"/></g><g><path fill="none" d="M748.9 464.5h7.5v6.7h-7.5z"/><path fill-rule="evenodd" clip-rule="evenodd" fill="#231F20" d="M752.1 469.5h.8v1.2h-.8zM752.1 467.2h.8v1.2h-.8zM752.1 465h.8v1.2h-.8z"/></g><g><path fill="none" d="M748.9 471.2h7.5v6.7h-7.5z"/><path fill-rule="evenodd" clip-rule="evenodd" fill="#231F20" d="M752.1 476.1h.8v1.2h-.8zM752.1 473.9h.8v1.2h-.8zM752.1 471.7h.8v1.2h-.8z"/></g><g><path fill="none" d="M748.9 477.9h7.5v6.7h-7.5z"/><path fill-rule="evenodd" clip-rule="evenodd" fill="#231F20" d="M752.1 482.8h.8v1.2h-.8zM752.1 480.6h.8v1.2h-.8zM752.1 478.4h.8v1.2h-.8z"/></g><g><path fill="none" d="M748.9 484.6h7.5v6.7h-7.5z"/><path fill-rule="evenodd" clip-rule="evenodd" fill="#231F20" d="M752.1 489.5h.8v1.2h-.8zM752.1 487.3h.8v1.2h-.8zM752.1 485.1h.8v1.2h-.8z"/></g><g><path fill="none" d="M748.9 491.2h7.5v6.7h-7.5z"/><path fill-rule="evenodd" clip-rule="evenodd" fill="#231F20" d="M752.1 496.2h.8v1.2h-.8zM752.1 494h.8v1.2h-.8zM752.1 491.7h.8v1.2h-.8z"/></g><g><path fill="none" d="M748.9 497.9h7.5v6.7h-7.5z"/><path fill-rule="evenodd" clip-rule="evenodd" fill="#231F20" d="M752.1 502.9h.8v1.2h-.8zM752.1 500.6h.8v1.2h-.8zM752.1 498.4h.8v1.2h-.8z"/></g><g><path fill="none" d="M748.9 504.6h7.5v6.7h-7.5z"/><path fill-rule="evenodd" clip-rule="evenodd" fill="#231F20" d="M752.1 509.5h.8v1.2h-.8zM752.1 507.3h.8v1.2h-.8zM752.1 505.1h.8v1.2h-.8z"/></g></g><g><path fill="none" d="M648.5 423.2h6.9v7.5h-6.9z"/><path fill-rule="evenodd" clip-rule="evenodd" fill="#231F20" d="M653.6 426.7h1.3v.8h-1.3zM651.3 426.7h1.3v.8h-1.3zM649 426.7h1.3v.8H649z"/><path fill="none" d="M655.4 423.2h6.9v7.5h-6.9z"/><path fill-rule="evenodd" clip-rule="evenodd" fill="#231F20" d="M660.5 426.7h1.3v.8h-1.3zM658.2 426.7h1.3v.8h-1.3zM655.9 426.7h1.3v.8h-1.3z"/><path fill="none" d="M662.3 423.2h6.9v7.5h-6.9z"/><path fill-rule="evenodd" clip-rule="evenodd" fill="#231F20" d="M667.4 426.7h1.3v.8h-1.3zM665.1 426.7h1.3v.8h-1.3zM662.8 426.7h1.3v.8h-1.3z"/><path fill="none" d="M669.2 423.2h6.9v7.5h-6.9z"/><path fill-rule="evenodd" clip-rule="evenodd" fill="#231F20" d="M674.3 426.7h1.3v.8h-1.3zM672 426.7h1.3v.8H672zM669.7 426.7h1.3v.8h-1.3z"/><g><path fill="none" d="M676.1 423.2h6.9v7.5h-6.9z"/><path fill-rule="evenodd" clip-rule="evenodd" fill="#231F20" d="M681.2 426.7h1.3v.8h-1.3zM678.9 426.7h1.3v.8h-1.3zM676.6 426.7h1.3v.8h-1.3z"/></g><g><path fill="none" d="M683 423.2h6.9v7.5H683z"/><path fill-rule="evenodd" clip-rule="evenodd" fill="#231F20" d="M688.1 426.7h1.3v.8h-1.3zM685.8 426.7h1.3v.8h-1.3zM683.5 426.7h1.3v.8h-1.3z"/></g><g><path fill="none" d="M689.9 423.2h6.9v7.5h-6.9z"/><path fill-rule="evenodd" clip-rule="evenodd" fill="#231F20" d="M695 426.7h1.3v.8H695zM692.7 426.7h1.3v.8h-1.3zM690.4 426.7h1.3v.8h-1.3z"/></g><g><path fill="none" d="M696.8 423.2h6.9v7.5h-6.9z"/><path fill-rule="evenodd" clip-rule="evenodd" fill="#231F20" d="M701.9 426.7h1.3v.8h-1.3zM699.6 426.7h1.3v.8h-1.3zM697.3 426.7h1.3v.8h-1.3z"/></g><g><path fill="none" d="M703.7 423.2h6.9v7.5h-6.9z"/><path fill-rule="evenodd" clip-rule="evenodd" fill="#231F20" d="M708.8 426.7h1.3v.8h-1.3zM706.5 426.7h1.3v.8h-1.3zM704.2 426.7h1.3v.8h-1.3z"/></g><g><path fill="none" d="M710.6 423.2h6.9v7.5h-6.9z"/><path fill-rule="evenodd" clip-rule="evenodd" fill="#231F20" d="M715.7 426.7h1.3v.8h-1.3zM713.4 426.7h1.3v.8h-1.3zM711.1 426.7h1.3v.8h-1.3z"/></g><g><path fill="none" d="M717.5 423.2h6.9v7.5h-6.9z"/><path fill-rule="evenodd" clip-rule="evenodd" fill="#231F20" d="M722.6 426.7h1.3v.8h-1.3zM720.3 426.7h1.3v.8h-1.3zM718 426.7h1.3v.8H718z"/></g><g><path fill="none" d="M724.4 423.2h6.9v7.5h-6.9z"/><path fill-rule="evenodd" clip-rule="evenodd" fill="#231F20" d="M729.5 426.7h1.3v.8h-1.3zM727.2 426.7h1.3v.8h-1.3zM724.9 426.7h1.3v.8h-1.3z"/></g><g><path fill="none" d="M731.3 423.2h6.9v7.5h-6.9z"/><path fill-rule="evenodd" clip-rule="evenodd" fill="#231F20" d="M736.4 426.7h1.3v.8h-1.3zM734.1 426.7h1.3v.8h-1.3zM731.8 426.7h1.3v.8h-1.3z"/></g><g><path fill="none" d="M738.2 423.2h6.9v7.5h-6.9z"/><path fill-rule="evenodd" clip-rule="evenodd" fill="#231F20" d="M743.3 426.7h1.3v.8h-1.3zM741 426.7h1.3v.8H741zM738.7 426.7h1.3v.8h-1.3z"/></g><g><path fill="none" d="M745.1 423.2h6.9v7.5h-6.9z"/><path fill-rule="evenodd" clip-rule="evenodd" fill="#231F20" d="M750.2 426.7h1.3v.8h-1.3zM747.9 426.7h1.3v.8h-1.3zM745.6 426.7h1.3v.8h-1.3z"/></g></g></g><g id="Labels"><text transform="translate(590.0811 239.875)" font-family="'Helvetica'" font-size="10">cotyledons</text><text transform="translate(637 376)" font-family="'Helvetica'" font-size="10">root</text><text transform="translate(312.4309 179.5314)" font-family="'Helvetica'" font-size="10">cotyledons</text><text transform="translate(365.3501 274.6521)" font-family="'Helvetica'" font-size="10">root</text><text transform="translate(643 483)" font-family="'Helvetica'" font-size="10">meristem</text><text transform="translate(856 216)" font-family="'Helvetica'" font-size="10">apical</text><text transform="translate(820 438)" font-family="'Helvetica'" font-size="10">basal</text><text transform="translate(110.1118 159.5977)" font-family="'Helvetica'" font-size="10">apical</text><text transform="translate(110.1118 209.1001)" font-family="'Helvetica'" font-size="10">basal</text><text transform="translate(162.1084 89.106)" font-family="'Helvetica'" font-size="12">Globular</text><text transform="translate(436.5928 89.106)" font-family="'Helvetica'" font-size="12">Heart</text><text transform="translate(729.5781 89.106)" font-family="'Helvetica'" font-size="12">Torpedo</text></g></svg>