<svg xmlns="http://www.w3.org/2000/svg" xml:space="preserve" id="TissueSpecificTrichomes_svg" x="0" y="0" version="1.1" viewBox="60 160 744.54 201.979" author="Provart Lab - Bio Analytic Resource, University of Toronto">
  <g id="labels" font-family="Helvetica" font-size="10" transform="translate(-10.19 -19.625)">
    <text id="text2" transform="translate(98.552 354.5)">Col-0</text>
    <text id="text4" transform="translate(75.757 366.5)">Processed Leaf</text>
    <text id="text6" transform="translate(73.271 378.5)">(minu trichomes)</text>
    <text id="text8" transform="translate(282.552 359.5)">Col-0</text>
    <text id="text10" transform="translate(460.773 359.5)">gl3-sst</text>
    <text id="text12" transform="translate(604.608 359.5)">gl3-sst sim</text>
    <text id="text14" transform="translate(758.322 359.5)">gl3-sst nok</text>
  </g>
  <g id="samples" fill="#fff" transform="translate(-10.19 -19.625)">
    <g id="WT_Col-0_leaves_after_trichome_removal">
      <path id="path17" d="M172.932 195.818c-1.762-1.762-4.594-1.695-6.364 0-.041.041-.085.078-.127.117a4.31 4.31 0 0 0-2.387-.024c-.375.107-.75.222-1.125.336-1.049-.198-2.133-.142-3.173.271-6.869 2.732-14.226 2.468-21.012 5.708-6.159 2.941-10.562 8.359-15.298 13.221-1.728 1.774-3.313 2.788-3.124 4.688-.016.027-.034.052-.049.08a26.73 26.73 0 0 0-1.537 3.418c-5.729 7.632-8.875 16.4-13.713 24.582-.776 1.313-1.102 2.604-1.093 3.818-.782 1.39-1.77 2.654-2.703 3.949-.431.601-.561 1.312-.477 2.019-.243.044-.468.192-.614.494-1.31 2.695-3.751 4.5-5.594 6.798a1.085 1.085 0 0 0-.157.273c-.443.092-.854.301-1.153.666-1.017 1.24-2.252 2.251-3.5 3.25-.641.513-.824 1.365-.681 2.157a1.962 1.962 0 0 0-.888.654c-.933.186-1.663.945-1.663 1.954 0 .38.122.751.325 1.07-.532.578-.316 1.739.675 1.68.498-.031.948-.312 1.133-.771 1.191-.092 2.237-.653 2.844-1.72.146-.257.225-.534.251-.812a3.158 3.158 0 0 0 1.54-.681c1.248-.999 2.483-2.008 3.5-3.25.126-.152.233-.317.328-.485.037-.023.075-.044.111-.073 1.068-.859 1.987-1.843 2.84-2.884 1.872-.975 3.375-2.403 4.872-3.859.245.104.536.099.835-.101.964-.645 1.917-1.302 2.856-1.978.823-.429 1.512-.672 2.42-1.057 2.144.256 4.367-.383 6.037-2.293 4.24-.577 8.118-2.028 11.95-3.609.323.043.649.072.982.071 2.074-.009 4.002-.437 5.785-1.522a7.814 7.814 0 0 0 2.266-2.135 41.1 41.1 0 0 1 4.942-1.36c2.768-.566 4.377-2.204 5.042-4.187 9.879-6.736 17.781-16.331 21.446-27.801.13-.409.213-.808.269-1.202.814-1.813 1.481-3.668 1.682-5.79.152-.306.329-.622.543-.967 1.162-1.871 1.383-3.703.984-5.325a4.604 4.604 0 0 0 .417-1.559c1.286-1.728 1.099-4.288-.443-5.829z"/>
    </g>
    <g id="WT_Col-0_trichomes">
      <path id="path20" d="M365 229.25a.948.948 0 0 0-.495.14c-.231-.148-.512-.211-.771-.104-.497.205-.98.438-1.462.674-.625-.742-1.653-.863-2.531-.437-.744.362-1.52.665-2.277 1.001-.842-.352-1.838-.3-2.728.135-1.161.567-2.392.983-3.783 1.448-10.821 4.51-22.005 8.022-33.034 11.968a4.086 4.086 0 0 0-2.186.402c-1.06.517-2.163.928-3.287 1.284a4.846 4.846 0 0 0-.868-.333c-1.148-.316-2.155-.161-3.183.226l.388-.164-.895.354c-.024-.142-.042-.283-.068-.425a3.943 3.943 0 0 0-.768-1.691c.889-4.263 1.625-8.545 1.868-12.904.047-.198.079-.407.079-.638 0-1.804.136-3.569.361-5.311.141-.214.253-.448.299-.713.315-1.793.745-3.563.82-5.387 1.279-5.637 3.032-11.163 3.77-17.027a2.64 2.64 0 0 0 .006-.601c1.446-3.653 2.791-7.318 2.994-11.399a2.594 2.594 0 0 0-.061-.687c.519-.19.972-.535 1.22-1.051.528-1.103.989-2.468.502-3.676a4.314 4.314 0 0 0-.38-.75c.795-.821.455-2.586-1.03-2.586-.99 0-1.47.785-1.447 1.553-.073.013-.146.017-.218.037-.725.199-1.391.817-1.694 1.554a1.62 1.62 0 0 0-.838.958l-.75 2.25c-.124.372-.059.762.122 1.091-.24.353-.4.785-.426 1.308a21.044 21.044 0 0 1-.296 2.576 2.08 2.08 0 0 0-1.132 1.142c-1.638 3.894-2.952 7.909-4 12-.129.504-.069.946.104 1.316-.163.463-.322.927-.468 1.393-1.896 6.037-3.666 12.32-4.894 18.591a3.869 3.869 0 0 0-.527 1.669 2.345 2.345 0 0 0-.376.548c-.58 1.202-.979 2.427-1.302 3.717-.034.136-.046.273-.062.41-.4.442-.715.973-.902 1.574-.305.982-.435 1.974-.569 2.992-.042.321-.081.642-.117.964l-.056.494-.007.049c-.004.024-.003.049-.006.073l-.003.026.002-.012c-.084.6-.069 1.193.037 1.756a4.894 4.894 0 0 0-1.244 2.142 26.975 26.975 0 0 0-.573 2.618 6.606 6.606 0 0 0-.832 1.176c-.054.099-.102.203-.155.303-5.757-1.125-11.28-3.296-16.726-5.702a4.36 4.36 0 0 0-1.596-.712c-2.673-1.203-5.331-2.441-7.991-3.625-.534-.35-1.054-.693-1.541-1-.707-.448-1.402-.602-2.043-.547-.245-.102-.49-.208-.735-.308-.423-1.061-1.472-1.878-2.903-1.533a24.3 24.3 0 0 1-1.922.373c-.554-.403-1.246-.589-1.911-.408-1.153-.268-2.306-.523-3.503-.554-1.041-.026-1.977.471-2.623 1.223-2.3-.12-4.604-.326-6.906-.439-6.146-.304-12.325.633-18.472.716-1.295.018-2.061.839-2.315 1.809-.989.039-1.97.039-2.935-.059-.587-.06-.992.181-1.218.546a2.978 2.978 0 0 0-.532-.046c-2 0-2 4 0 4 1.235 0 1.953-.68 2.171-1.478 1.194.086 2.368.018 3.536-.109.351.211.776.343 1.292.336 6.166-.083 12.302-.837 18.472-.716 2.452.048 4.859.222 7.254.333a3.635 3.635 0 0 0 2.274.883c.085.002.306.023.436.032.258.049.516.098.771.156.622.141 1.238.306 1.862.437a4.025 4.025 0 0 0 1.8-.04 4.05 4.05 0 0 0 2.067 1.772c9.844 3.901 19.332 9.431 29.656 11.91.555.91 1.3 1.739 2.196 2.306.181 1.551.554 2.909 1.443 4.131-.405 1.904-.48 3.854-.481 5.799 0 .022.006.044.007.067a13.44 13.44 0 0 1-.711 1.664c-.537 1.053-.571 2.069-.301 2.969-.031.082-.074.148-.102.236-2.729 8.606-9.19 12.962-17 15.555a15.109 15.109 0 0 1-3.111-.17c-1.331-.217-2.252.754-2.461 1.777-.779.314-1.34.812-1.705 1.405a1.946 1.946 0 0 0-.397.065c-1.057.291-1.677 1.407-1.397 2.46.35 1.312 1.07 2.421 2.015 3.383.666.678 1.738.755 2.51.256a4.135 4.135 0 0 0 1.718-.062 58.48 58.48 0 0 0 7.188-2.199c.241.125.495.217.758.279.375.522.917.954 1.638 1.236-1.576 2.817-2.329 6.391-2.648 9.324-.173 1.584 1.29 2.176 2.498 1.801.393.058.823-.025 1.262-.324 1.425-.964 2.594-2.174 3.647-3.49.214-.043.42-.119.603-.26a26.574 26.574 0 0 0 2.395-2.031c.505.735 1.032 1.403 1.687 1.973-.023.14-.038.277-.06.416-.043.285-.084.569-.138.854-.018.099-.013.186-.025.278a31.754 31.754 0 0 0-.049 7.461c-.022 2.208.408 4.327.734 6.725.182 1.336 1.647 1.336 2.426.567.144.047.29.087.438.116 1.501 1.062 3.682 1.177 5.057-.052.363.197.808.265 1.174.164.861-.236 1.165-1.036 1.047-1.847a25.617 25.617 0 0 0-.669-3.271c.034-.652.042-1.304.009-1.953.72.63 1.674 1.021 2.713 1.125 4.014.399 7.903-1.302 9.6-5.105.132-.296.232-.591.338-.886 3.604.08 7.206.557 10.227-1.845.848-.673.714-2.132 0-2.828-1.252-1.222-2.603-2.317-4.02-3.336a4.024 4.024 0 0 0 1.212-1.937c.254-.926.213-2.283-.403-3.082-.091-.118-.176-.218-.264-.326.841-2.646-1.228-6.205-4.754-5.265-.078.021-.118.037-.167.056a1.09 1.09 0 0 0-.26-.099c.256.146.16.102-.289-.138-.421-.213-.813-.483-1.205-.745-.535-.355-1.064-.77-1.612-1.197a3.997 3.997 0 0 0-1.385-1.474 7.009 7.009 0 0 1-1.255-1.05c-1.309-2.264-2.044-4.938-2.014-7.246.015-1.122-.365-1.984-.948-2.618.122-3.868.37-7.763-.052-11.632a4.305 4.305 0 0 0-.43-1.449c.134-.592.293-1.179.49-1.761.023-.056.036-.114.058-.171.223-.64.48-1.274.769-1.909a468.87 468.87 0 0 0 4.464-2.568l.173-.072c.22-.103.429-.232.626-.389a221.417 221.417 0 0 1 4.365-2.482c.229.042.471.064.736.054 5.884-.252 10.908-3.683 15.736-6.734a60.773 60.773 0 0 0 3.028-1.176 3.07 3.07 0 0 0 .676-.4 338.58 338.58 0 0 0 9.557-3.528c.311.072.655.051 1.01-.117 4.83-2.289 9.987-3.148 14.304-6.485.505-.391.604-.881.463-1.322.077-.042.156-.078.231-.125a.94.94 0 0 0 .39-.483c.124-.055.246-.114.371-.166.078-.032.144-.08.213-.124a.938.938 0 0 0 .521.159c1.292.002 1.292-1.998.002-1.998z"/>
    </g>
    <g id="gl3-sst_mutant_trichomes">
      <path id="path23" d="M521.438 239.882c-.306-.489-.861-.797-1.587-.579-.187.056-.363.127-.55.188-.63-.554-1.521-.786-2.6-.384a39.236 39.236 0 0 0-5.307 2.459 2.433 2.433 0 0 0-1.485-.061 1.56 1.56 0 0 0-.561.048c-1.395.383-2.742.868-4.074 1.393a9.454 9.454 0 0 0-1.103-1.449c.11-.579.291-1.166.325-1.747.063-1.111.134-2.213.201-3.312.104-.147.192-.323.245-.539.544-2.269.759-4.501.25-6.798a1.448 1.448 0 0 0-.223-.516 1.416 1.416 0 0 0-.238-.699c.068-.163.145-.325.211-.487.733-1.79-2.168-2.562-2.895-.798-.684 1.664-1.455 3.244-1.911 4.933-.559.202-1.075.586-1.481 1.202-1.461 2.218-2.807 4.51-4.264 6.73a9.447 9.447 0 0 0-4.418 3.742c-.613.987-1.185 2-1.752 3.014-.854.206-1.703.499-2.522.894-.552.266-1.063.571-1.564.887-.128-.003-.25-.015-.389-.002a52.855 52.855 0 0 1-3.579.194c-.735-.744-1.843-.998-2.969-.837-.211.03-.422.065-.634.095-2.322-1.037-4.523-2.328-6.499-3.941-4.483-3.661-9.93-10.349-10.569-16.262-.408-3.763-6.276-3.836-6.001-.118-1.343.456-2.312 1.697-1.643 3.415.767 1.965 1.466 6.061-.747 7.401-.713.431-1.708.444-2.764.269-3.15-2.27-5.706-5.473-6.955-9.015-.441-1.256-1.429-1.881-2.474-2.017.424-1.58-1.901-2.814-2.714-1.192-1.219 2.431-3.042 4.435-4.529 6.696-1.011 1.537-1.702 3.131-2.587 4.612-1.378.892-2.908 1.51-4.589 1.699a3.22 3.22 0 0 0-1.196.375c-.041-.012-.084-.019-.126-.029-.558-.241-1.053-.574-1.382-1.103-1.021-1.638-3.617-.133-2.591 1.514.223.358.479.656.75.929-.29.458-.464.992-.455 1.564.028 1.742.544 3.318 1.562 4.585 1.984 4.72 6.463 8.446 11.173 10.916-1.18-.086-1.99.419-2.442 1.165-.777.289-1.547.615-2.307.993-3.465 1.726-.424 6.898 3.026 5.182a17.356 17.356 0 0 1 3.284-1.226c2.731.2 5.462.369 8.202.385.782.005 1.397-.244 1.864-.633 4.141.696 8.248 2.168 11.932 3.764 6.104 3.845 9.752 10.817 13.876 16.55-1.062 1.282-1.231 3.451.564 4.66.188.126.376.229.562.339.189 1.639 1.629 3.302 3.748 2.963 6.636-1.056 13.812-1.857 19.736-5.307 3.245-.345 6.46-.773 9.479-2.495 2.178-1.241 1.858-4.924-.716-5.481-.612-.135-1.247-.212-1.88-.288-.73-2.33-2.771-3.518-5.004-3.932a23.8 23.8 0 0 0-.164-2.64 3.081 3.081 0 0 0-1.442-2.305c.086-.777.249-1.538.483-2.258.456-.828.911-1.655 1.356-2.488a8.108 8.108 0 0 0 1.717-1.335c2.099-2.192 3.637-4.689 5.132-7.238.126-.08.253-.153.375-.255 2.888-2.405 5.79-4.758 8.877-6.858.242 0 .498-.06.759-.217 1.142-.688 2.212-1.465 3.256-2.279.251-.142.497-.289.751-.426.55-.296.922-.682 1.162-1.108l.773-.629c.029-.025.062-.049.092-.075a64.97 64.97 0 0 1 2.216-1.733c1.026-.752.717-2.137-.057-2.664z"/>
    </g>
    <g id="gl3-sst_sim_double_mutant_trichomes">
      <path id="path26" d="M686.521 280.025a7.925 7.925 0 0 0-1.677-.253l-.932-.267a25.07 25.07 0 0 1-3.142-1.107c-1.723-.745-3.4-1.589-5.063-2.464.433-.98.704-2.06.79-3.187.446-5.877-.854-11.237-3.082-16.538a8.858 8.858 0 0 0-1.949-4.412c-.765-1.862-1.68-3.526-3.229-4.872-.025-.03-.047-.064-.074-.092a2.042 2.042 0 0 0-.391-.302c-.007-.003-.011-.008-.016-.011-.689-.524-1.688-.298-2.32.244-.033.024-.068.043-.104.069.344-.269-.19.126-.211.141-.178.124-.359.241-.541.359-.438.285-.89.551-1.344.812-.334.193-.674.376-1.019.554-.079.041-.159.079-.237.118l-.018.001a1.436 1.436 0 0 0-.512.197c-1.782-1.614-3.685-3.161-5.669-4.676a5.652 5.652 0 0 0-1.613-.848 5.88 5.88 0 0 0-1.974-1.068c.521-1.638 1.201-3.271 1.525-4.962 1.238-1.164 2.37-2.424 3.182-3.953.165-.312.254-.618.288-.915.471-.824.877-1.679 1.127-2.593a.928.928 0 0 0 .14-.732c-.033-1.073-1.695-1.464-1.927-.288-.004.018-.011.033-.017.051a7.385 7.385 0 0 0-.934.938c-1.037-.458-2.308-.285-2.996 1.016-.538 1.015-1.271 1.885-2.087 2.688-1.118.184-2.147.898-2.429 2.135-.109.09-.221.181-.327.272-.824-2.955-2.864-4.6-5.158-5.176 1.364-1.296 2.462-2.924 3.458-4.381 1.355-1.983 2.623-4.337 3.217-6.665.229-.894.247-1.794.139-2.667 1.127-1.243 1.586-2.964 1.602-4.693a2.807 2.807 0 0 0-.033-.402c.018-.029.038-.051.053-.081 1.223-2.475 2.279-5.025 3.5-7.5.602-1.215.573-2.602-.104-3.671.881-1.537 1.771-3.066 2.26-4.812.695-2.489-3.164-3.544-3.855-1.063-.437 1.557-1.212 2.97-2.015 4.375-.977.178-1.878.722-2.331 1.641a114.001 114.001 0 0 0-1.502 3.207 3.85 3.85 0 0 0-1.998 1.543c-1.069 1.624-2.033 3.312-3 5-.061.105-.097.217-.146.326a7.292 7.292 0 0 0-2.729.883c-.121-2.229-1.08-4.236-2.991-5.779-2.15-1.735-5.094-2.598-6.989-4.535-.709-.725-1.521-.96-2.289-.876-.051-.262-.104-.522-.153-.785-.48-2.532-4.337-1.457-3.855 1.063 1.117 5.875 2.481 11.677 2.839 17.645-.068.353-.126.709-.16 1.073-.18 1.934-.431 3.859-.688 5.782a6.31 6.31 0 0 0-.562-.032c-.433 0-.843.037-1.239.095-1.315-1.651-2.492-3.385-3.42-5.359-1.253-2.666-1.729-5.511-3.043-8.14-2.537-6.57-6.13-12.738-10.412-17.984-.759-1.151-1.702-2.115-2.719-3.043-.979-.893-2.226-1.833-2.738-3.101-.359-.895-1.118-1.544-2.08-1.462-.209-.337-.409-.68-.622-1.015-1.376-2.172-4.839-.167-3.453 2.019 3.505 5.529 6.598 11.282 10.449 16.584 1.354 1.862 2.999 5.618 4.957 7.617.188.431.379.859.559 1.295.037.406.17.83.423 1.259.1.169.184.346.274.519 2.365 6.388 3.63 13.167 3.435 19.71-.239.079-.465.19-.695.291-.645-.88-1.259-1.78-1.696-2.792-.249-.577-.837-.885-1.451-.954-.83-1.555-3.738-1.235-3.773.963-.037 2.378-.312 4.728-.639 7.071-.829 1.664-1.653 3.35-2.379 5.068-5.174-8.218-9.242-17.135-16.818-23.553-1.935-1.638-4.729 1.094-2.885 2.77-.309.533-.377 1.206-.006 1.904 3.757 7.069 7.61 13.746 8.969 21.469-.32.932-.729 1.844-1.219 2.763-.146.27-.199.531-.223.786-1.055-1.248-3.609-.847-3.553 1.223.062 2.179 1.087 3.656 2.548 4.78-3.938-.491-8.164-.34-10.57 1.928-1.356.417-2.276 2.096-.892 3.206.581.466 1.156.938 1.735 1.408 1.626 3.036 3.899 5.641 6.034 8.34-.378.348-.753.699-1.117 1.062a49.56 49.56 0 0 0-2.396 2.988 18.56 18.56 0 0 0-.455.669c-2.204.892-4.39 1.716-6.45 2.919-1.171.687-1.513 1.021-2.53 1.808-.271-.022-.64-.058-1.154-.105-4.348-.423-8 3.959-8 8 0 4.681 3.661 7.578 8 8 3.345.325 5.706-.58 7.978-1.808 6.453 4.896 12.288 4.764 20.112 3.812 3.854-.467 2.818.312 5.753 2.65 3.922 3.123 8.55 4.018 13.409 4.58 8.687 1.007 15.587-2.71 23.572-5.157 3.437-1.054 7.443-.286 10.924.196 4.771.661 9.438 1.29 14.252.724 3.773-.444 7.046-2.588 7.823-6.274 2.241.232 4.476.491 6.743.518.887.129 1.779.221 2.684.259 10.222.428 10.266-15.272.266-15.981z"/>
    </g>
    <g id="gl3-sst_nok-1_double_mutant_trichomes">
      <path id="path29" d="M808.798 280.607c-5.104-1.894-10.465-2.912-15.5-5a3.001 3.001 0 0 0-.773-.209c-1.023-1.208-2.203-2.34-3.401-3.521-.09-.089-.188-.151-.279-.226.053-.906.115-1.772.146-2.544a18.052 18.052 0 0 0 5.808-6.024c1.273-2.175 2.038-4.602 2.312-7.085 1.366-2.234 2.276-4.771 2.553-7.478.492-1.959.789-3.999.842-6.272.01-.424 0-.845-.023-1.263.342-1.371.524-2.791.523-4.237-.002-2.353-.206-4.793-.893-7.035-.605-1.433-1.211-2.867-1.814-4.3-.201-.34-.438-.645-.658-.967-1.075-5.205-4.458-9.644-8.997-12.179a16.44 16.44 0 0 0-1.339-1.044c-2.83-2.899-6.756-4.725-11.049-4.725-5.29 0-10.03 2.764-12.837 6.905a17.91 17.91 0 0 0-4.198 7.294 22.52 22.52 0 0 0-2.572 5.016c-1.6 4.401-1.231 9.256-.139 13.718.054.218.12.436.192.651-.038 1.827.151 3.705.444 5.701.359 2.451 1.143 4.799 1.5 7.25.06-.024.116-.051.176-.073a31.163 31.163 0 0 0 1.641 4.373 12.68 12.68 0 0 0 1.07 1.841c.411 1.021.86 2.028 1.365 3.003 1.738 3.354 4.303 5.236 7.271 7.364 1.434.604 2.866 1.209 4.3 1.812.469.127.938.229 1.405.316.296.354.662.677 1.107.962 1.352.863 1.666 2.083 1.812 3.513.025.259.046.513.062.766-.423.126-.839.35-1.228.717-1.278 1.206-2.404 2.547-3.513 3.903a4.074 4.074 0 0 0-.487.347c-1.846 1.529-3.717 3.02-4.97 5.107-.841 1.401-.321 3.283 1.077 4.104.031.021.067.03.104.048.429 1.395 1.694 2.429 3.458 1.754 2.903-1.106 5.562-2.931 8.405-4.176 5.665-1.346 11.776.055 17.547-.717l.012-.003c3.877.206 7.961.021 10.859-2.376 1.899-1.565.582-4.306-1.321-5.011z"/>
    </g>
  </g>
  <g id="outlines" transform="translate(-10.19 -19.625)">
    <g id="g127" fill="none" stroke="#000" stroke-linecap="round" stroke-linejoin="round" stroke-miterlimit="10" stroke-width=".75">
      <path id="path33" d="M317.5 181c-4.853 3.183-4.322 6.392-6.23 11.472-5.946 15.835-9.055 32.471-13.959 48.598-1.833 6.029-2.689 6.505-9.016 5.186-4.939-1.031-8.389-4.547-12.716-6.575-6.959-3.26-13.778-6.182-21.775-5.733-10.889.611-21.952-1.154-32.585 2.634-1.672.596-3.881.541-3.833 3.196"/>
      <path id="path35" d="M806.027 279.394c-4.807-1.115-9.896-1.309-14.062-4.467-2.869-2.175-4.836-4.16-1.33-7.729 6.035-6.146 8.676-14.349 9.964-22.36 1.179-7.324.097-15.257-2.999-22.261-2.951-6.682-8.161-11.635-15.229-14.073-7.882-2.718-14.699-1.887-18.724 4.954-3.736 6.357-8.985 11.843-8.071 19.926.702 6.194 1.383 12.415 2.595 18.521 1.815 9.146 7.614 15.104 15.862 19.271 6.342 3.205 6.333 5.152.652 9.456-3.181 2.411-5.873 5.048-7 8.985"/>
      <path id="path37" d="M317.708 181.627c3.568 2.982.407 6.518-.299 8.855-4.432 14.681-7.351 29.579-8.605 44.824-.262 3.187-2.636 6.241-.723 9.726 3.535 1.666 6.516-.509 9.621-1.442 13.937-4.187 27.365-9.897 41.47-13.664 2.692-.719 5.199-.488 7.738-1.013"/>
      <path id="path39" d="M245.5 293.452c4.775-1.699 9.685-2.898 14.149-5.603 2.237-1.354 5.375-2.316 8.196-1.369 5.308 1.779 9.951-.725 14.685-2.086 3.668-1.055 6.289-3.53 7.839-7.504 1.801-4.612 2.747-9.467 3.409-14.151.637-4.511-2.268-8.384-7.382-9.548-8.037-1.83-15.353-5.131-22.472-9.404-5.625-3.375-12.431-4.261-19.064-4.632-11.778-.659-15.781-.388-27.476.62"/>
      <path id="path41" d="M82.589 283.228c1.531-1.367-.57-4.371 1.933-5.055 7.149-1.944 11.494-7.598 16.564-12.233 7.481-6.846 17.086-8.871 26.277-11.301 15.919-4.203 27.47-13.468 36.485-26.933 5.933-8.862 8.739-18.537 10.07-28.832.399-3.081-1.26-4.382-4.428-3.846-10.498 1.775-20.894 3.302-30.779 8.099-8.651 4.198-15.388 9.721-19.656 18.14-5.513 10.876-12.031 21.241-16.652 32.569-2.377 5.827-6.443 10.479-10.962 14.592-2.667 2.426-5.139 4.52-5.018 8.41"/>
      <path id="path43" d="M366.91 228.913c-8.318 9.331-11.643 8.422-22.983 12.832-10.32 4.013-20.454 8.503-30.699 12.711-4.374 1.797-6.694 4.637-5.785 9.609.264 1.44.07 2.976.036 4.466-.31 13.685 3.905 18.669 17.192 23.194 6.269 2.138 13.63 1.992 18.597 7.478"/>
      <path id="path45" d="M487.009 247.444c5.794 1.447 10.107-2.937 15.312-3.958 4.59-.9 9.131-2.259 13.521-4.165 1.893-.82 4.894-.904 7.246.874-3.658 6.128-10.352 8.004-14.991 12.364-4.801 4.513-9.976 8.353-12.469 15.216-1.564 4.312-.203 6.765 2.331 8.275 7.975 4.758 16.758 6.73 26.11 5.26"/>
      <path id="path47" d="M630.975 267.614c-.97-7.431 2.162-18.557 6.559-27.114 5.645-10.992 4.327-21.537-.309-31.973-2.407-5.426-9.465-6.013-13.57-10.532-2.269 5.607 1.486 10.423 1.802 15.567.32 5.242-.109 10.218-.72 15.368-.657 5.555-2.771 10.617-3.983 15.958"/>
      <path id="path49" d="M624.585 225.718c-4.015-2.229-4.731-6.802-6.141-10.324-3.379-8.447-9.122-15.279-13.661-22.908-2.285-3.841-6.081-5.899-9.526-8.333-2.552 2.901-.089 4.889 1.218 7.055 6.014 9.967 13.074 19.292 16.795 30.614 1.312 3.989.645 9.731 1.094 13.563"/>
      <path id="path51" d="M601.581 253.195c-3.776-1.438-7.553-2.87-11.065-4.205-2.949 2.5-2.011 5.354-.328 6.617 4.184 3.145 8.005 6.951 13.289 8.522 2.054.61 3.891 2 5.768 3.132 4.367 2.639 7.78 1.021 9.001-3.832 3.374-13.402.062-24.823-10.393-34.683.083 11.936-7.625 22.403-5.633 34.67"/>
      <path id="path53" d="M463.366 229.552c-1.278 2.204-2.177 2.977-3.979.089-1.079-1.731 1.228-4.382-2.181-5.25-2.699-.542-3.359 2.331-4.576 3.979-.713.965-.024 2.895-.156 4.374-.151 1.754.872 3.835-1.303 5.129-7.854-.669-8.813-8.618-13.307-13.007-6.141 3.367-5.661 12.848-13.496 14.18-1.157.197-2.521-.814-4.229-1.423-2.382 6.285 1.146 10.227 4.825 14.346 2.548 2.852 6.688 3.877 8.365 7.616"/>
      <path id="path55" d="M655.257 193.129c1.171 1.811 1.649 3.571.679 5.769-4.142 9.383-5.713 19.749-10.922 28.726-.761 1.311-1.8 3.452-4.176 3.207"/>
      <path id="path57" d="M659.729 278.755c-4.443-.016-9.079.417-12.125-3.845-4.803-6.719-4.279-11.662 3.979-17.66 5.189-3.768 8.88-9.466 15.888-11.521 5.548 6.439 9.192 14.19 8.154 23.433-.821 7.312 2.393 11.388 9.024 13.428"/>
      <path id="path59" d="M430.777 257.668c-4.94 3.604-4.94 3.604-3.834 7.668 22.8-4.286 37.57 3.21 42.812 21.727"/>
      <path id="path61" d="M603.859 246.61c-4.368-10.69-12.307-23.194-18.236-26.634-2.827 1.861-2.043 3.973-.698 6.404 2.075 3.747 3.905 7.631 5.784 11.483 1.688 3.458 2.859 7.003 1.287 10.858"/>
      <path id="path63" d="M593.913 276.199c-1.491 1.275-3.111 2.437-4.438 3.868-1.231 1.334-4.326 1.7-3.155 4.404 1.105 2.562 3.625 3.472 6.311 3.189 3.895-.404 7.496-1.812 10.867-3.796"/>
      <path id="path65" d="M462.088 232.108c0 .213-.081.474.012.632 7.752 13.107 7.754 13.107 22.832 15.951 7.146-6.756 13.146-14.356 18.418-23.493 5.297 5.888.588 11.428 1.554 16.495"/>
      <path id="path67" d="M290.87 301.12c1.802 2.769-.182 5.521-.113 8.31.239 9.766 2.005 11.391 11.676 9.57-.946-7.439.194-15.122-2.617-22.354"/>
      <path id="path69" d="M600.303 265.336c-3.164 5.368.674 7.691 4.504 9.521 6.114 2.915 10.488 6.836 10.912 14.118.089 1.522.796 3.473 1.907 4.396 4.805 3.992 2.763 8.051.569 12.225"/>
      <path id="path71" d="M270.421 287.701c-.442 2.631-5.59 3.12-3.68 6.297 2.042 3.395 5.816 3.141 9.446 2.061 2.035-.604 4.044-2.48 6.375-.688"/>
      <path id="path73" d="M591.718 257.029c-4.034.907-10.241-3.748-13.271 2.707 2.998 4.54 6.774 8.504 10.221 11.846-5.929 7.83-15.646 7.562-22.871 12.285"/>
      <path id="path75" d="M665.48 246.722c2.574 7.895 3.521 18.083 4.512 26.277.396 3.279-3.749 5.84-.789 9.676 3.01 3.901 5.118 8.497 7.923 13.307 3.011-3.678 5.484-7.794 10.72-7.642"/>
      <path id="path77" d="M471.034 288.979c-.641-.639-1.278-1.275-2.394-2.392-2.9 7.868-9.678 9.86-16.776 11.338"/>
      <path id="path79" d="M653.979 194.407c-4.857 6.044-8.717 13.609-15.058 18.531"/>
      <path id="path81" d="m643.755 267.253-5.739 3.562c.583 2.626.854 5.766 2.006 8.537 1.425 3.433 3.432 6.787 8.205 5.786 1.226-.257 1.876.52 2.56 1.284"/>
      <path id="path83" d="M653.979 288.979c-8.9 0-10.224 1.405-10.224 10.863"/>
      <path id="path85" d="M698.069 284.506c-3.196-.352-5.772-2.229-8.241-3.93-2.97-2.045-7.812-2.287-11.012-1.185"/>
      <path id="path87" d="M147.767 221.884c-7.021 5.062-14.858 8.43-20.998 15.497-4.152 4.779-9.607 9.5-14.786 13.898"/>
      <path id="path89" d="M583.05 281.95c-.368 2.188-3.125 2.059-3.802 3.846-.694 1.835-3.189 3.354-1.296 5.729 1.281 1.606 2.646 2.831 5.103 2.629 7.229-.6 14.479-.913 21.724-1.34"/>
      <path id="path91" d="M320.902 292.174c.951 2.558 1.194 5.112-.247 7.501a7773.96 7773.96 0 0 0 4.943 3.317c-1.796 5.729-6.965 3.196-10.447 4.518"/>
      <path id="path93" d="M667.12 296.008c-.568-1.312-2.485-2.725-2.739-3.873-.855-3.874-3.243-4.782-6.562-4.407-4.807.546-1.718 5.396-2.198 8.004"/>
      <path id="path95" d="M653.979 253.834c-4.771-3.164-11.706-1.494-16.694.361"/>
      <path id="path97" d="M306.845 293.452c2.69 1.854 2.068 5.618 4.46 7.682 2.549 2.2 4.104 6.031 2.31 8.065-2.368 2.684-5.904 6.025-10.604 3.423"/>
      <path id="path99" d="M641.56 283.228c-4.006 4.345-11.598 5.132-15.058 10.227"/>
      <path id="path101" d="M639.365 269.17c-2.144-2.912-6.885-2.188-9.669-1.28-2.996.977-2.531 3.444-2.571 5.753-.038 2.144.401 4.344-.623 6.393"/>
      <path id="path103" d="M652.062 242.332c1.051-5.041 6.726-8.189 6.649-14.601-13.128 7.913-13.128 8.913-9.846 14.962"/>
      <path id="path105" d="M618.195 267.892c2.708 7.427 8.436 14.836 12.777 21.171"/>
      <path id="path107" d="M287.036 290.257c-5.767 4.355-5.405 11.209-7.8 17.354 6.38-.823 12.433-7.194 12.912-12.88"/>
      <path id="path109" d="M669.037 268.531c-6.027 3.896-7.819 10.615-9.946 16.611"/>
      <path id="path111" d="M632.809 251.917c5.82 1.955 7.968 8.093 10.946 12.141"/>
      <path id="path113" d="M634.614 288.257c3.458 2.277.077 8.345 1.473 11.585"/>
      <path id="path115" d="m598.386 294.091 3.195 8.946"/>
      <path id="path117" d="M661.008 248.722c-8.583-8.583-9.157-8.604-17.253-.639"/>
      <path id="path119" d="M593.913 260.224c0 1.065.444 2.48-.073 3.139-2.986 3.791-1.479 7.664-.563 11.561"/>
      <path id="path121" d="M312.596 292.812c1.363 3.507 5.33 3.544 7.668 5.751"/>
      <path id="path123" d="M655.257 296.008c3.453 1.567 6.034 6.836 10.863 2.558"/>
      <path id="path125" d="M598.386 275.56c-3.1-.092-6.349.521-8.943-1.917"/>
    </g>
  </g>
</svg>