<svg version="1.1" id="TissueSpecificGuardAndMesophyllCells_svg" xmlns="http://www.w3.org/2000/svg" x="0" y="0" viewBox="0 55 900 400" xml:space="preserve"><g id="Samples" fill="#FFF"><g id="Mesophyll_cells_with_100_uM_ABA"><path d="M286.3 342.5c.1-.2.1-.3.1-.3-.2.4-.3.6-.1.3zm120.4 18.7c.2-.2.4-.5.3-.9-.2-.8-.3-1.6-.5-2.3 0-.1-.1-.3-.2-.4.8-2.4 1.8-5.3.4-6.8-1.3-1.3 0 .9-1.9.9-1.5 0-2.1-.2-3.3.7-.1.1-.7 2.2-.8 2.2-.8.4-1.5 1-2.1 1.6-2.8 2.6-4.6 4.3-2 6.9.1.1.2.2.3.2.5 3.1 2.9 2.7 6.9 2.7 4.6-.1 4.1-1.9 2.9-4.8z"/><path d="M414.5 282.5c1.1-4.4.4-7.5-.9-12.3 0-1.4-.1-2.9-.4-4.3.2-.1.4-.2.5-.4.4-.8.6-1.8.2-2.7-.4-.8-1.2-1.3-2.1-1.5-.7-.2-1.2.4-1.2.9-.9-.3-1.9-.4-2.8-.1-3.5-2-7.9-2.2-12.1-.1.3-.2.2-.9-.3-.9s-1 0-1.5.2c-.1 0-.3 0-.4.1-1.7-1.2-3.6-2.1-6-2.6-3.8-.8-4.9.7-8.3 2.1-1.1-1-5.2-2.2-6.6-1.8-.4.1-.7.2-1 .4-7.5-2.3-17.6.2-21.7-2.3-1-.6-14.7 2.3-21 3.5-.1-.1-.2-.3-.4-.4-.1-.1-.2-.1-.3-.2.2-.1.5-.1.8-.2-2.1-.8-4.3-1.1-6.4-.7 0-.1-.1-.2-.1-.3-.4-1.2-2.3-.7-1.9.5 0 .1.1.1.1.2-1 .4-2 .8-2.9 1.5-.7-1.9-2.6-3.4-5.2-2.6-1.4.4-2.8 1-4.2 1.5-2.9-.5-5.9-.5-8.7.2 0-.1 0-.2-.1-.3-.4-.8-1.1-1.2-2-1.1-.2-.1-.5-.1-.8.1-.6.4-1.2.9-1.8 1.4-.1 0-.1.1-.2.1s-.1.1-.2.1l-1.2.9c-1.1.2-1.9.7-2.5 1.4-.3.1-.6.2-.8.3-.2-.1-.3-.2-.6-.2-.9 0-1.6.1-2.4.4-.2.1-.4.2-.5.4-8.6-.8-17.2.4-25.8.1-8.7-.3-16.5-3.2-25.3-1.8-.4.1-.8.2-1.1.3-6.3 0-13 .8-18.1 4.1-1.7-.8-3.5-1.5-5.3-1.9-8.6-3-17.7-4.8-25.7-2.5-5.4-.5-10.7-1.3-16.1-.2-4.3-1.5-7.5-.2-9.7 2.5-.4.2-.7.4-1 .7-1.5 0-3.1 0-4.6-.2-.2 0-.4.1-.5.2h-.6c-.2 0-.4.2-.5.4-.1.4-.2.7-.3 1.1-.9.8-1.5 2-1.5 3.5-.1 6.2-1.4 12.3-2 18.5-.1 1.6 1 3.7 2.5 4.3.2.1.4.2.7.3-2.6 5.3-8.6 19.9.9 22.1 2.8.6 4.8.1 6.5-1.2.2.2.5.5.8.6-.3.1-.7.2-1 .3-2.1.3-3.9 1.4-6 1.6-.6.1-.6 1.1 0 1-7.3 4.4-1 15.6 6.5 12.3.3 2.3.7 4.5 1.5 6.7.8 2.5.3 3.6-1.3 6.3-2.9 5 1.7 11.2 6.9 10.6.8 1.5 2 2.8 3 4.1-.1.3 0 .5 0 .8v3.5c0 1.6 1.2 3 2.9 3 .7 0 1.3-.3 1.9-.7 2.2 1.5 5.1 1.3 7.6.3 3-1.3 5.4-4.3 8.8-4.2 4.9.1 8.1.8 12.7-1.8l.9-.6c.6 0 1.2 0 1.8-.1 1 1 2.6 1 3.5 0 .9-.9 1.5-2 2.1-3 2.6.4 5.2.7 7.9-.1.1 0 .3-.1.4-.1.7 0 1.4-.1 2.1-.4.3-.1.7-.3 1-.4-1 3.1.4 6.4 3.1 8.2 1.6 1.1 3.4 1.9 5 3 3 2 7.3.8 9.3-2.1.4.1.8 0 1.3-.1.2-.1.3-.1.4-.2-.3 2.1 1.5 4 3.3 4.7 3 1.1 6.1 1.5 9 0 .9-.4 1.6-.9 2.4-1.3 2.8.4 5.6.9 8.4 1.4 7.3 1.2 14.8-.3 22-1.9 0 .3.2.6.5.8.8.6 1.8 1.1 2.7 1.3.6.1 1-.2 1.2-.7 1.1.4 2.2.6 3.4.6.4.9 1.3 1.6 2.6 1.5 2.7 0 3.1-2.5 7.3-1.1 1 .3 1.6-.8 1.9-1.5.8.1 1.5 0 2.2-.3 2.7 1.7 7.1.5 7.1-3.6v-1.3c.3-.1.5-.4.5-.8 0-1.1 0-2.2.2-3.3 0-.2 0-.3-.1-.5 1.4-1 2.9-1.9 4.3-2.7 1.1-.6 1.8-1.8 2.1-3 .7.8 1.3 1.6 1.9 2.4 1.1 1.4 2.3 2.8 3.4 4.2.6 1.1 1 2.1.9 3-.5 4 4.4 5.4 7.2 3.5 1.5-.4 2.8-1.7 3.4-3.2.5-.3 1.1-.6 1.7-1 3.4-2.2 2.2-6.7-.5-8.1 0-1.6-.3-3.1-1-4.6.1 0 .2-.1.3-.1.7-.3.6-1.1.2-1.5 1.1-1.7 2.3-3.4 2.6-5.4.1-.4-.1-.7-.3-.9.7-1.5 1.4-2.9 2.1-4.4.7-1.4-2.8-3.8-1.7-5.8.2 0 .4 0 .6-.1 1.1-.6 2.2-1.2 3.3-1.9.7-.1 1.4-.3 2.2-.4 2.2-.2 5 1.5 6.8 2.4 3 1.4 6 1.2 8.5-1.1 2.1-1.9 2.8-4.2 2.5-6.4 0-2.8-1.6-4.9-3.8-6 2.3-.5 4.9-1.6 7.5-2.4.5.7 1.6.6 1.6-.5 2-.5 3.5-.7 4.5-.4 4 1 2.3 2.8 6.3 2.2l3.6-.6c-2.6.4 4.5-1.5.8-2.3 4.7 1 8.8 1.7 11.7-1.8 1.1.4 2.4.5 3.5.4-.1.7-.1 1.5-.2 2.2-.1.5.1 1.1.7 1.2-.7 1.4-1.3 2.9-1.9 4.3-.2.4-.3.7-.5 1-.1-.1-.3-.1-.4-.1-2.2 0-4.3-.1-6.4.2-.9.1-.9 1-.4 1.6-3.1 1.1-5.7 3.4-6.7 7.1-.5 0-1.1 0-1.6.1-1.5-.7-3.3-1.2-5.2-1.1-2.5 0-4 1.8-4.3 3.7-.4.3-.9.6-1.3 1-1.1.9-2.1 2.4-2.9 4.1-.5-.7-1.3-1.3-2.4-1.7-1-.3-1.9-.5-2.7-.6-.4-.8-1.1-1.3-2-1.6 0-.2-.1-.4-.2-.7-.2-.5-.7-.9-1.2-.7-.4.1-.8.6-.7 1.1-2.1.2-4.2 1.6-4.5 4.3-.1 1.2-.1 2.4 0 3.5-.9.9-1.3 2.2-.6 3.6 1.2 2.4 3.6 5.4 3.8 8.2.1 1.4-.2 3.3.2 4.7-1.3 3.4-2.4 6.2-1.3 10.3.1.4.3.8.4 1.1-6-.9-12 2.4-13.4 9-.7 3.1 1.3 5.4 4.3 5.7 4.5.5 8.9.7 13.3-.1 6-1.1 8.5-6.3 6.1-11.7-.6-1.3-1.9-2-3.2-2.1.3-.2.5-.5.7-.8 1-1.4 1.9-3 2.6-4.5 3-.4 5.3-3.7 3.7-6.3.4-.2.7-.6.6-1.1-.4-1.6-1.7-2.5-3-3.4-.1-.1-.3-.1-.4-.1.2-1 .1-2.1-.2-3.2-.2-.8-.5-1.6-.9-2.4l.4-.4c.3-.4.6-.7.9-1.1-.7.9-.2.2 0 0 .8.5 1.9.9 3.4.8 2 0 4.1-.8 6-1.9 2.4 1.7 7.1.5 7.5-3.5v-.7c.2-.1.5-.3.5-.6.2-.7.4-1.5.4-2.3v-.2c4.1-.2 8.3-.2 10.3-.9 1.3-.5 2.3-1.5 2.8-2.6 1.2.4 2.6.4 3.7-.3.2-.2.4-.3.7-.5.3.1.7.1 1.1.1 3 0 4.5-2.5 4.3-4.8.8-1.6.7-3.6-.4-5 .4-4.2-.5-8.8-.9-13.2-.1-.9-.4-1.6-.8-2.3 1.4-1.5 2.5-3.2 2.9-5 .9-3.7 1-7 .3-10.7-.2-1-.4-2-.7-3.1 0-.2-.1-.4-.1-.6 0-1.2 1.9-3.2 1.3-4.5zm-217.4 38.9c-1.6 2.5-1.3 4.9-.1 6.8-3.3 5.9-5.4 11.8-4.6 18.4-.4-.1-.8-.1-1.2-.2-2.1-.2-3.9 0-6 .3-2.2.3-4.1 1.4-5.9 2.6-.6-.9-.9-1.9-.6-2.9 1-4.4.8-8.3-2-11.6v-.3c.2-.8 0-1.5-.4-2.1-.1-1.3-.6-2.4-1.7-3.2 2-2.3 4.8-4.9 4.7-5-.9-2.4-2.4-7.2-9.4-9.5 2.7-2.6 4.2-5.7 5.6-9.1-.1 1.7-.1 3.4.2 5.2.4 2.7 3.8 4.2 6.1 3.5 2.4-.7 4.5-1.9 6.2-3.3 1.3.7 2.5 1.3 3.8 2l1.5.9s-.1.1 0 .1c.8 1 2.4 1.5 3.4 1.4v2.5c0 .8.5 1.6 1 2.1 0 .5-.3.9-.6 1.4zm32.7 2.6c-2.4 2.4-4.8 5-6.6 7.9-1.1 1.8-1.2 4-.5 5.9-.3.2-.6.4-.9.7-.2.2-.3.3-.5.4-.5.3-.9.6-1.4.8-.3.1-.6.3-.8.4-.2.1-.9.4-1.2.5-.2.1-.3.1-.5.2-.6 0-1.3.1-2 .3h-.9c-.2 0-.4-.1-.5-.1-2-.4-4-.8-6-.8-.5 0-1 0-1.5.1.3-.9.5-1.8.5-2.6.3-.4.7-.9 1-1.3.8-1.1.2-2.8-.9-3.4-.1-.1-.2-.1-.3-.2.2-1.8 1.4-3.3 6.6-4.5 1.3-.3 1-2.2 1-3.3.2-.1.3-.1.5-.2 5.3-2.6 4.1-8.8.3-11.5.1-.1.1-.2.2-.3.6.5 1.3 1.1 2 1.5 4.5 3.1 15-1.5 18.5.7.6.4-.7 1.3.1 1.2-.3.3-.7.5-1 .8-1.4 1.2-2 3-2 4.8-1.4.5-2.4 1.1-3.2 2zm39.1 25.3c-.8.2-1.5.5-2.1 1.2-.2.2-.3.5-.3.8-.9.6-1.7 1.2-2.5 1.8-1.1.9-2.3 1.4-3.6 1.8-.4-.3-1-.5-1.7-.5-2.1 0-4.3 0-6.3.6-.8.2-1.4.8-1.8 1.5-3.7.1-7.2 1.3-8.7 5.1-.1-.4-.5-.8-1-.8.9-3-.5-6.2-3.2-8-1.4-.9-2.9-1.7-4.4-2.6.5-.6.8-1.5.9-2.3 0-.4 0-.7-.2-1 1.6-1.8 1.1-4.4.1-6.5.4-.4.8-.9 1.1-1.4l.6-.9c.2-.3.8-1 1-1.3.9-1 1.8-1.9 2.8-2.9 1.3-1.3 2-3.1 2-4.8 1.1-.3 3.9-2.4 3-1.7-.5.4 8-.7 7.1-1.5-2.2-2 4.8 2.3 7.1 1.4-.3 1.9.3 3.9 1.9 5.6a6.9 6.9 0 0 0 7.8 1.4c.2.4.5.9.9 1.2-1.2 2.8-1.9 5.7-1 8.7.5 1.7 1.6 3.2 3.1 4.1-.8.3-1.7.6-2.6 1zm42.8-2.9c-2 1.1-3.5 2.9-4.4 5.5-.1.2-.2.5-.2.8-.9 1-1.8 2-2.5 3.2h-.5c-1.5.5-2.7 1.6-3.2 2.9-.7-1.1-1.5-2-2.4-2.8-1.6-3-4.4-3.4-7.6-3.4-.5 0-.8.3-.9.7h-.7c-.8 0-3 .6-5.3 1.1v-.1c.1-.5 0-1-.2-1.4.1-.3.2-.5.1-.6-1.1-1.5-3.1-2.1-4.7-2.5.1-.4-.1-.7-.5-.9l-1.5-.6c1.9-2.1 8.9-7 9.2-6.1.2-.6.7-1.7.7-2.2.3-.1.7-.1 1-.2 1.7-.6 3.3-1.1 5-1.5 2.4-.6 4.2-2.6 4.8-4.9 2.1 1.3 4.7 1.3 7.1.3.1 0 .2 0 .3-.1.2-.1.4-.1.6-.2.2 0 .6-.1.9-.1.5 0 2 .3.1-.1.5.1.9.1 1.4.1.1 1.1 2.4-.5 3.2.3 1 .9.1 4.1 1.2 4.8-.3 1.1-.8 2.2-1.3 3.3-1 1.8-.6 3.5.3 4.7zm41.1-31.6c.1-.2.2-.4.4-.6.8-.7 0-2-1-1.7a9.4 9.4 0 0 0-3.5 2c-3.6-.5-6.8-.5-10.4.6-4.7 1.5-5.9 6-4.3 9.4-2 3.4-3.5 7.2-5.2 10.4-.2-.6-.8-1.1-1.4-.6-.4.3-.8.6-1.1 1-.2-.2-.4-.3-.7-.3-.4 0-.8.1-1.1.2-.8-.6-1.6-1.2-2.5-1.7-.1-.8-.2-1.5-.3-2.3-.3-1.4-4.3-1.4-5.7-1.7-1-.2.6-1.7-.2-1.8.6-3.3-1.4-7.4-5-8.1-4.4-.8-11.3 1.5-11.6 6v.3c-.3.2-.6.3-.8.5-.6.3-.1 1.2.5.9 0 0 .1 0 .1-.1-.9 2.4-3.3-3.2-3.7-1.6-1.6-1-3.6-1.4-5.6-.9-1.6.4-3.1.9-4.7 1.4-.7-4.3-4.9-7.5-8.8-9.1-3.5-1.4-6.8-.4-9.8 1.5-.1-.1-.3-.1-.5-.1-.7 0-1.4.2-2.1.5-.3-.8-.7-1.6-1.4-2.3 0-.2.1-.4 0-.6-.4-1.1-1.1-2-1.8-2.8 5.5-1.4 10.9-3 16.6-3.6 4.6-.5 12.2-2.6 16.2-.3 1.3.7 1.9 2.1 3.3 2.9 2.2 1.2 4.3.7 6.4-.3 1.1-.5 2.4-1.4 3.5-2.4 2.3.5 4.7.4 6.9-.7.2-.1.3-.2.5-.3.2.2.3.5.5.7l-.1.1c-1.2 1.1-1.1 3.1 0 4.2s2.8 1.1 4 .2c0 0-.1 0-.1.1 0 0 .1 0 .1-.1h.1c1.4.9 3.3 1.1 5 .1.8-.5 1.7-1 2.6-1.5 1.1 2.1 3.3 3.5 5.7 2.5.8-.3 1.5-.7 2.1-1 .8.3 1.7.2 2.6-.2 1.6-.8 3.2-1.5 4.1-3.1 2 .4 4.2.4 6.4 0 .9.6 1.9 1 3 1 2.7-.1 4.3 2.1 5.6 3.5-1.1-.2-1.9-.2-2.8-.2z"/><path d="m268.3 365.9-.2-.4c-1.7-3.5-6.9-.4-5.2 3l.2.4c1.7 3.5 6.9.4 5.2-3z"/></g><g id="Mesophyll_cells_no_ABA"><path d="M285.3 184.5c.1-.2.1-.3.1-.3-.2.4-.3.6-.1.3zm120.4 18.7c.2-.2.4-.5.3-.9-.2-.8-.3-1.6-.5-2.3 0-.1-.1-.3-.2-.4.8-2.4 1.8-5.3.4-6.8-1.3-1.3 0 .9-1.9.9-1.5 0-2.1-.2-3.3.7-.1.1-.7 2.2-.8 2.2-.8.4-1.5 1-2.1 1.6-2.8 2.6-4.6 4.3-2 6.9.1.1.2.2.3.2.5 3.1 2.9 2.7 6.9 2.7 4.6-.1 4.1-1.9 2.9-4.8z"/><path d="M413.5 124.5c1.1-4.4.4-7.5-.9-12.3 0-1.4-.1-2.9-.4-4.3.2-.1.4-.2.5-.4.4-.8.6-1.8.2-2.7-.4-.8-1.2-1.3-2.1-1.5-.7-.2-1.2.4-1.2.9-.9-.3-1.9-.4-2.8-.1-3.5-2-7.9-2.2-12.1-.1.3-.2.2-.9-.3-.9s-1 0-1.5.2c-.1 0-.3 0-.4.1-1.7-1.2-3.6-2.1-6-2.6-3.8-.8-4.9.7-8.3 2.1-1.1-1-5.2-2.2-6.6-1.8-.4.1-.7.2-1 .4-7.5-2.3-17.6.2-21.7-2.3-1-.6-14.7 2.3-21 3.5-.1-.1-.2-.3-.4-.4-.1-.1-.2-.1-.3-.2.2-.1.5-.2.8-.2-2.1-.8-4.3-1.1-6.4-.7 0-.1-.1-.2-.1-.3-.4-1.2-2.3-.7-1.9.5 0 .1.1.1.1.2-1 .4-2 .8-2.9 1.5-.7-1.9-2.6-3.4-5.2-2.6-1.4.4-2.8 1-4.2 1.5-2.9-.5-5.9-.5-8.7.2 0-.1 0-.2-.1-.3-.4-.8-1.1-1.2-2-1.1-.2-.1-.5-.1-.8.1-.6.4-1.2.9-1.8 1.4-.1 0-.1.1-.2.1s-.1.1-.2.1l-1.2.9c-1.1.2-1.9.7-2.5 1.4-.3.1-.6.2-.8.3-.2-.1-.3-.2-.6-.2-.9 0-1.6.1-2.4.4-.2.1-.4.2-.5.4-8.6-.8-17.2.4-25.8.1-8.7-.3-16.5-3.2-25.3-1.8-.4.1-.8.2-1.1.3-6.3 0-13 .8-18.1 4.1-1.7-.8-3.5-1.5-5.3-1.9-8.6-3-17.7-4.8-25.7-2.5-5.4-.5-10.7-1.3-16.1-.2-4.3-1.5-7.5-.2-9.7 2.5-.4.2-.7.4-1 .7-1.5 0-3.1 0-4.6-.2-.2 0-.4.1-.5.2h-.6c-.2 0-.4.2-.5.4-.1.4-.2.7-.3 1.1-.9.8-1.5 2-1.5 3.5-.1 6.2-1.4 12.3-2 18.5-.1 1.6 1 3.7 2.5 4.3.2.1.4.2.7.3-2.6 5.3-8.6 19.9.9 22.1 2.8.6 4.8.1 6.5-1.2.2.2.5.5.8.6-.3.1-.7.2-1 .3-2.1.3-3.9 1.4-6 1.6-.6.1-.6 1.1 0 1-7.3 4.4-1 15.6 6.5 12.3.3 2.3.7 4.5 1.5 6.7.8 2.5.3 3.6-1.3 6.3-2.9 5 1.7 11.2 6.9 10.6.8 1.5 2 2.8 3 4.1-.1.3 0 .5 0 .8v3.5c0 1.6 1.2 3 2.9 3 .7 0 1.3-.3 1.9-.7 2.2 1.5 5.1 1.3 7.6.3 3-1.3 5.4-4.3 8.8-4.2 4.9.1 8.1.8 12.7-1.8l.9-.6c.6 0 1.2 0 1.8-.1 1 1 2.6 1 3.5 0 .9-.9 1.5-2 2.1-3 2.6.4 5.2.7 7.9-.1.1 0 .3-.1.4-.1.7 0 1.4-.1 2.1-.4.3-.1.7-.3 1-.4-1 3.1.4 6.4 3.1 8.2 1.6 1.1 3.4 1.9 5 3 3 2 7.3.8 9.3-2.1.4.1.8 0 1.3-.1.2-.1.3-.1.4-.2-.3 2.1 1.5 4 3.3 4.7 3 1.1 6.1 1.5 9 0 .9-.4 1.6-.9 2.4-1.3 2.8.4 5.6.9 8.4 1.4 7.3 1.2 14.8-.3 22-1.9 0 .3.2.6.5.8.8.6 1.8 1.1 2.7 1.3.6.1 1-.2 1.2-.7 1.1.4 2.2.6 3.4.6.4.9 1.3 1.6 2.6 1.5 2.7 0 3.1-2.5 7.3-1.1 1 .3 1.6-.8 1.9-1.5.8.1 1.5 0 2.2-.3 2.7 1.7 7.1.5 7.1-3.6v-1.3c.3-.1.5-.4.5-.8 0-1.1 0-2.2.2-3.3 0-.2 0-.3-.1-.5 1.4-1 2.9-1.9 4.3-2.7 1.1-.6 1.8-1.8 2.1-3 .7.8 1.3 1.6 1.9 2.4 1.1 1.4 2.3 2.8 3.4 4.2.6 1.1 1 2.1.9 3-.5 4 4.4 5.4 7.2 3.5 1.5-.4 2.8-1.7 3.4-3.2.5-.3 1.1-.6 1.7-1 3.4-2.2 2.2-6.7-.5-8.1 0-1.6-.3-3.1-1-4.6.1 0 .2-.1.3-.1.7-.3.6-1.1.2-1.5 1.1-1.7 2.3-3.4 2.6-5.4.1-.4-.1-.7-.3-.9.7-1.5 1.4-2.9 2.1-4.4.7-1.4-2.8-3.8-1.7-5.8.2 0 .4 0 .6-.1 1.1-.6 2.2-1.2 3.3-1.9.7-.2 1.4-.3 2.2-.4 2.2-.2 5 1.5 6.8 2.4 3 1.4 6 1.2 8.5-1.1 2.1-1.9 2.8-4.2 2.5-6.4 0-2.8-1.6-4.9-3.8-6 2.3-.5 4.9-1.6 7.5-2.4.5.7 1.6.6 1.6-.5 2-.5 3.5-.7 4.5-.4 4 1 2.3 2.8 6.3 2.2l3.6-.6c-2.6.4 4.5-1.5.8-2.3 4.7 1 8.8 1.7 11.7-1.8 1.1.4 2.4.5 3.5.4-.1.7-.1 1.5-.2 2.2-.1.5.1 1.1.7 1.2-.7 1.4-1.3 2.9-1.9 4.3-.2.4-.3.7-.5 1-.1-.1-.3-.1-.4-.1-2.2 0-4.3-.1-6.4.2-.9.1-.9 1-.4 1.6-3.1 1.1-5.7 3.4-6.7 7.1-.5 0-1.1 0-1.6.1-1.5-.7-3.3-1.2-5.2-1.1-2.5 0-4 1.8-4.3 3.7-.4.3-.9.6-1.3 1-1.1.9-2.1 2.4-2.9 4.1-.5-.7-1.3-1.3-2.4-1.7-1-.3-1.9-.5-2.7-.6-.4-.8-1.1-1.3-2-1.6 0-.2-.1-.5-.2-.7-.2-.5-.7-.9-1.2-.7-.4.1-.8.6-.7 1.1-2.1.2-4.2 1.6-4.5 4.3-.1 1.2-.1 2.4 0 3.5-.9.9-1.3 2.2-.6 3.6 1.2 2.4 3.6 5.4 3.8 8.2.1 1.4-.2 3.3.2 4.7-1.3 3.4-2.4 6.2-1.3 10.3.1.4.3.8.4 1.1-6-.9-12 2.4-13.4 9-.7 3.1 1.3 5.4 4.3 5.7 4.5.5 8.9.7 13.3-.1 6-1.1 8.5-6.3 6.1-11.7-.6-1.3-1.9-2-3.2-2.1.3-.2.5-.5.7-.8 1-1.4 1.9-3 2.6-4.5 3-.4 5.3-3.7 3.7-6.3.4-.2.7-.6.6-1.1-.4-1.6-1.7-2.5-3-3.4-.1-.1-.3-.1-.4-.1.2-1 .1-2.1-.2-3.2-.2-.8-.5-1.6-.9-2.4l.4-.4c.3-.4.6-.7.9-1.1-.7.9-.2.2 0 0 .8.5 1.9.9 3.4.8 2 0 4.1-.8 6-1.9 2.4 1.7 7.1.5 7.5-3.5v-.7c.2-.1.5-.3.5-.6.2-.7.4-1.5.4-2.3v-.2c4.1-.2 8.3-.2 10.3-.9 1.3-.5 2.3-1.5 2.8-2.6 1.2.4 2.6.4 3.7-.3.2-.2.4-.3.7-.5.3.1.7.1 1.1.1 3 0 4.5-2.5 4.3-4.8.8-1.6.7-3.6-.4-5 .4-4.2-.5-8.8-.9-13.2-.1-.9-.4-1.6-.8-2.3 1.4-1.5 2.5-3.2 2.9-5.1.9-3.7 1-7 .3-10.7-.2-1-.4-2.1-.7-3.1 0-.2-.1-.4-.1-.6 0-1.1 1.9-3.1 1.3-4.4zm-217.4 38.9c-1.6 2.5-1.3 4.9-.1 6.8-3.3 5.9-5.4 11.8-4.6 18.4-.4-.1-.8-.1-1.2-.2-2.1-.2-3.9 0-6 .3-2.2.3-4.1 1.4-5.9 2.6-.6-.9-.9-1.9-.6-2.9 1-4.4.8-8.3-2-11.6v-.3c.2-.8 0-1.5-.4-2.1-.1-1.3-.6-2.4-1.7-3.2 2-2.3 4.8-4.9 4.7-5-.9-2.4-2.4-7.2-9.4-9.5 2.7-2.6 4.2-5.7 5.6-9.1-.1 1.7-.1 3.4.2 5.2.4 2.7 3.8 4.2 6.1 3.5 2.4-.7 4.5-1.9 6.2-3.3 1.3.7 2.5 1.3 3.8 2l1.5.9s-.1.1 0 .1c.8 1 2.4 1.5 3.4 1.4v2.5c0 .8.5 1.6 1 2.1 0 .5-.3.9-.6 1.4zm32.7 2.6c-2.4 2.4-4.8 5-6.6 7.9-1.1 1.8-1.2 4-.5 5.9-.3.2-.6.4-.9.7-.2.2-.3.3-.5.4-.5.3-.9.6-1.4.8-.3.1-.6.3-.8.4-.2.1-.9.4-1.2.5-.2.1-.3.1-.5.2-.6 0-1.3.1-2 .3h-.9c-.2 0-.4-.1-.5-.1-2-.4-4-.8-6-.8-.5 0-1 0-1.5.1.3-.9.5-1.8.5-2.6.3-.4.7-.9 1-1.3.8-1.1.2-2.8-.9-3.4-.1-.1-.2-.1-.3-.2.2-1.8 1.4-3.3 6.6-4.5 1.3-.3 1-2.2 1-3.3.2-.1.3-.1.5-.2 5.3-2.6 4.1-8.8.3-11.5.1-.1.1-.2.2-.3.6.5 1.3 1.1 2 1.5 4.5 3.1 15-1.5 18.5.7.6.4-.7 1.3.1 1.2-.3.3-.7.5-1 .8-1.4 1.2-2 3-2 4.8-1.4.5-2.4 1.1-3.2 2zm39.1 25.3c-.8.2-1.5.5-2.1 1.2-.2.2-.3.5-.3.8-.9.6-1.7 1.2-2.5 1.8-1.1.9-2.3 1.4-3.6 1.8-.4-.3-1-.5-1.7-.5-2.1 0-4.3 0-6.3.6-.8.2-1.4.8-1.8 1.5-3.7.1-7.2 1.3-8.7 5.1-.1-.4-.5-.8-1-.8.9-3-.5-6.2-3.2-8-1.4-.9-2.9-1.7-4.4-2.6.5-.6.8-1.5.9-2.3 0-.4 0-.7-.2-1 1.6-1.8 1.1-4.4.1-6.5.4-.4.8-.9 1.1-1.4l.6-.9c.2-.3.8-1 1-1.3.9-1 1.8-1.9 2.8-2.9 1.3-1.3 2-3.1 2-4.8 1.1-.3 3.9-2.4 3-1.7-.5.4 8-.7 7.1-1.5-2.2-2 4.8 2.3 7.1 1.4-.3 1.9.3 3.9 1.9 5.6a6.9 6.9 0 0 0 7.8 1.4c.2.4.5.9.9 1.2-1.2 2.8-1.9 5.7-1 8.7.5 1.7 1.6 3.2 3.1 4.1-.8.3-1.7.6-2.6 1zm42.8-2.9c-2 1.1-3.5 2.9-4.4 5.5-.1.2-.2.5-.2.8-.9 1-1.8 2-2.5 3.2h-.5c-1.5.5-2.7 1.6-3.2 2.9-.7-1.1-1.5-2-2.4-2.8-1.6-3-4.4-3.4-7.6-3.4-.5 0-.8.3-.9.7h-.7c-.8 0-3 .6-5.3 1.1v-.1c.1-.5 0-1-.2-1.4.1-.3.2-.5.1-.6-1.1-1.5-3.1-2.1-4.7-2.5.1-.4-.1-.7-.5-.9l-1.5-.6c1.9-2.1 8.9-7 9.2-6.1.2-.6.7-1.7.7-2.2.3 0 .7-.1 1-.2 1.7-.6 3.3-1.1 5-1.5 2.4-.6 4.2-2.6 4.8-4.9 2.1 1.3 4.7 1.3 7.1.3.1 0 .2 0 .3-.1.2-.1.4-.1.6-.2.2 0 .6-.1.9-.1.5 0 2 .3.1-.1.5.1.9.1 1.4.1.1 1.1 2.4-.5 3.2.3 1 .9.1 4.1 1.2 4.8-.3 1.1-.8 2.2-1.3 3.3-1 1.8-.6 3.5.3 4.7zm41.1-31.6c.1-.2.2-.4.4-.6.8-.7 0-2-1-1.7a9.4 9.4 0 0 0-3.5 2c-3.6-.5-6.8-.5-10.4.6-4.7 1.5-5.9 6-4.3 9.4-2 3.4-3.5 7.2-5.2 10.4-.2-.6-.8-1.1-1.4-.6-.4.3-.8.6-1.1 1-.2-.2-.4-.3-.7-.3-.4 0-.8.1-1.1.2-.8-.6-1.6-1.2-2.5-1.7-.1-.8-.2-1.5-.3-2.3-.3-1.4-4.3-1.4-5.7-1.7-1-.2.6-1.7-.2-1.8.6-3.3-1.4-7.4-5-8.1-4.4-.8-11.3 1.5-11.6 6v.3c-.3.2-.6.3-.8.5-.6.3-.1 1.2.5.9 0 0 .1 0 .1-.1-.9 2.4-3.3-3.2-3.7-1.6-1.6-1-3.6-1.4-5.6-.9-1.6.4-3.1.9-4.7 1.4-.7-4.3-4.9-7.5-8.8-9.1-3.5-1.4-6.8-.4-9.8 1.5-.1-.1-.3-.1-.5-.1-.7 0-1.4.2-2.1.5-.3-.8-.7-1.6-1.4-2.3 0-.2.1-.4 0-.6-.4-1.1-1.1-2-1.8-2.8 5.5-1.4 10.9-3 16.6-3.6 4.6-.5 12.2-2.6 16.2-.3 1.3.7 1.9 2.1 3.3 2.9 2.2 1.2 4.3.7 6.4-.3 1.1-.5 2.4-1.4 3.5-2.4 2.3.5 4.7.4 6.9-.7.2-.1.3-.2.5-.3.2.2.3.5.5.7l-.1.1c-1.2 1.1-1.1 3.1 0 4.2s2.8 1.1 4 .2c0 0-.1 0-.1.1 0 0 .1 0 .1-.1h.1c1.4.9 3.3 1.1 5 .1.8-.5 1.7-1 2.6-1.5 1.1 2.1 3.3 3.5 5.7 2.5.8-.3 1.5-.7 2.1-1 .8.3 1.7.2 2.6-.2 1.6-.8 3.2-1.5 4.1-3.1 2 .4 4.2.4 6.4 0 .9.6 1.9 1 3 1 2.7-.1 4.3 2.1 5.6 3.5-1.1-.2-1.9-.2-2.8-.2z"/><path d="m267.3 207.9-.2-.4c-1.7-3.5-6.9-.4-5.2 3l.2.4c1.7 3.5 6.9.4 5.2-3z"/></g><path d="M534.2 147.6c-1.1-8.2-6.1-17-13.9-20.5-1-.4-2.2-.2-3 .5-3.5-1-7-1.4-10 1.4-.2.2-.3.4-.4.6-2.4-.3-4.1 1.2-5 3.5-1.4.1-2.1 1-2.2 2.1-1.1.2-2.1.9-2.1 2.4 0 5.7 6.2 16 13.4 21.8.3.3.6.7.9 1 .5.5 1 .7 1.5.8 5.4 3.5 11 3.9 14.4-2.8.7-1.3.2-2.8-1-3.5 1.1.3 2.5-.1 3.1-1.2 1.3.1 2.8-.7 2.8-2.4v-.8c.8-.5 1.7-1.5 1.5-2.9zm-13.7 5c-.3-.9-1.1-1.6-2.3-1.6h-.3v-.2c-.8-2.8-2.8-4.6-4.3-7.1-.7-1.1-1.7-1.4-2.7-1.1-.5-2.1-.8-4.4-1.3-6.5.8-.3 1.8-.7 2.7-1 .2.3.5.6.9.8 1.5.7 2.9 1.3 4.2 2.2.3.2.7.3 1 .4 1.2 1.3 2.3 2.8 3 4 1.9 2.9 3.6 6.5 3.5 10 0 1 .4 1.7 1 2-1.7-.6-3.6-1.2-5.4-1.9zm36.7 34.1c-1.5-2-3.8-3.1-6.6-3.4-.4-.7-1.1-1.3-2.1-1.3-3.2 0-7.4.3-10.9 1.5-.6-.3-1.3-.3-2.1.1-4.3 2.2-5.1 5.9-5.7 10.4-.1 1.1.4 1.8 1.1 2.1 0 .1 0 .2.1.3 1.5 5.3 6.2 7 11.1 7.6.8.9 1.9 1.5 3.3 1.4 1.9-.1 3.8-.5 5.5-1.2.9.1 1.8 0 2.8-.5 1-.5 1.8-1.2 2.4-1.9 1.1-.5 1.9-1.4 2.1-2.7.4-2.6.4-5.2 1-7.8.4-2-.6-3.7-2-4.6zm-341 23.1c-.6-.3-1.1-.5-1.7-.7-2.5-1-4.6 1.2-7.3 1.1-4.5-.3-9.2-1.1-13.6-.4-3.8.6-5.8 5.2-4.9 8.6 1.1 4 4.8 5.5 8.6 4.9 3.9-.6 5.5-6.4 9.3-4.6 4.6 2.2 11.8 6.1 16.3 3.4 7.8-4.7.9-16.6-6.7-12.3zM313 213c1-2 1-3.3 4-4s12.7-.3 15-.3 10 1.3 11.7 2c1.7.7 4 2.7 4 2.7l-1.7 6.3s-2 3.3-3.7 3.3c-1.7 0-9-3.3-10.3-3.3s-5.3.7-7.3 1.7-4.7 1.7-6.3 1.3c-1.7-.3-6-2.7-6-2.7l.6-7z" id="Guard_cells_no_ABA"/><path d="M534.2 305.6c-1.1-8.2-6.1-17-13.9-20.5-1-.4-2.2-.2-3 .5-3.5-1-7-1.4-10 1.4-.2.2-.3.4-.4.6-2.4-.3-4.1 1.2-5 3.5-1.4.1-2.1 1-2.2 2.1-1.1.2-2.1.9-2.1 2.4 0 5.7 6.2 16 13.4 21.8.3.3.6.7.9 1 .5.5 1 .7 1.5.8 5.4 3.5 11 3.9 14.4-2.8.7-1.3.2-2.8-1-3.5 1.1.3 2.5-.1 3.1-1.1 1.3.1 2.8-.7 2.8-2.4v-.8c.8-.6 1.7-1.6 1.5-3zm-13.7 5c-.3-.9-1.1-1.6-2.3-1.6h-.3v-.2c-.8-2.8-2.8-4.6-4.3-7.1-.7-1.1-1.7-1.4-2.7-1.1-.5-2.1-.8-4.4-1.3-6.5.8-.3 1.8-.7 2.7-1 .2.3.5.6.9.8 1.5.7 2.9 1.3 4.2 2.2.3.2.7.3 1 .4 1.2 1.3 2.3 2.8 3 4 1.9 2.9 3.6 6.5 3.5 10 0 1 .4 1.7 1 2-1.7-.6-3.6-1.2-5.4-1.9zm36.7 34.1c-1.5-2-3.8-3.1-6.6-3.4-.4-.7-1.1-1.3-2.1-1.3-3.2 0-7.4.3-10.9 1.5-.6-.3-1.3-.3-2.1.1-4.3 2.2-5.1 5.9-5.7 10.4-.1 1.1.4 1.8 1.1 2.1 0 .1 0 .2.1.3 1.5 5.3 6.2 7 11.1 7.6.8.9 1.9 1.5 3.3 1.4 1.9-.1 3.8-.5 5.5-1.2.9.1 1.8 0 2.8-.5 1-.5 1.8-1.2 2.4-1.9 1.1-.5 1.9-1.4 2.1-2.7.4-2.6.4-5.2 1-7.8.4-2-.6-3.7-2-4.6zm-340 22.7c-.6-.3-1.1 1.5-1.7 1.3-2.5-1-4.6-1.8-7.3-1.9-4.5-.3-8.2-.1-12.6.6-3.8.6-6.8 4.2-5.9 7.6 1.1 4 4.8 5.5 8.6 4.9 3.9-.6 5.5-6.4 9.3-4.6 4.6 2.2 13.8 6.1 18.3 3.4 2.1-4-1-15.6-8.7-11.3zM314 370c1-2 1-3.3 4-4s12.7-.3 15-.3 10 1.3 11.7 2c1.7.7 4 2.7 4 2.7l-1.7 6.3s-2 3.3-3.7 3.3c-1.7 0-9-3.3-10.3-3.3s-5.3.7-7.3 1.7-4.7 1.7-6.3 1.3c-1.7-.3-6-2.7-6-2.7l.6-7z" id="Guard_cells_with_100_uM_ABA"/><path d="M706.2 266c.2-.7.4-1.4.6-2.2.8-1.5 1.4-3 1.5-4.3 0-.5-.2-.9-.5-1.2.6-3.8.6-7.7 0-11.7-.2-1.6-2.2-1.3-2.8-.1-1-.2-2.2 0-3.3.3-4.5 1.1-7.1-1.3-11.2-2.2-1.5-.3-2.5 1.4-1.5 2.5v.1l-1.6-.5c-.2-.1-.4-.1-.6-.1-.3-.3-.7-.5-1.2-.6-1-.3-2.2-.1-3.1.4-1-.1-2.1-.2-3.1-.3-.5-.7-1.3-1.2-2.4-1.2-.9 0-1.6.3-2 .8-.2 0-.3 0-.5-.1-1.8-.2-1.9 2.4-.3 2.9.1.4.3.8.5 1.2-.1.2-.3.5-.4.8-.3.3-.4.8-.3 1.3-.4 3 .6 7.6 1.4 9.9-.1.4-.1.9-.2 1.4-2 .8-2.9 3.5-2 5.6v.5c0 1.1.4 2.3.7 3.3.8 2.4.6 5.4.8 8 .3 3.8 5.5 3.8 6 .1.3.3.5.4.5-.1 0 2.2 2.6 3.8 4.5 2.6 1-.7 2.1-2.2 3.2-1.9l.1.1c.7.7 1.5 1.3 2.2 2 1 1 2.6 1 3.5 0 .4-.4.7-1 .7-1.6.6-.5.9-1.2 1-2.1.3-.5.6-.9.9-1.4.7-.4 1.7-.6 2.4-.8.1 0 .2-.1.3-.1-.3.9-.7 1.8-1 2.7-.9 2.6 1.7 4.1 3.8 3.5 2.2-.1 3.1-2.1 2.7-3.8.1-.3.2-.7.4-1 .2-.1.3-.2.4-.4.8-.8 1-1.9.7-2.9l.6-2.1c.6-2.4.7-5.9-1.4-7.3z" id="Mesophyll_cells_no_ABA_no_cordycepin_nor_actinomycin"/><path d="M660.2 266c.2-.7.4-1.4.6-2.2.8-1.5 1.4-3 1.5-4.3 0-.5-.2-.9-.5-1.2.6-3.8.6-7.7 0-11.7-.2-1.6-2.2-1.3-2.8-.1-1-.2-2.2 0-3.3.3-4.5 1.1-7.1-1.3-11.2-2.2-1.5-.3-2.5 1.4-1.5 2.5v.1l-1.6-.5c-.2-.1-.4-.1-.6-.1-.3-.3-.7-.5-1.2-.6-1-.3-2.2-.1-3.1.4-1-.1-2.1-.2-3.1-.3-.5-.7-1.3-1.2-2.4-1.2-.9 0-1.6.3-2 .8-.2 0-.3 0-.5-.1-1.8-.2-1.9 2.4-.3 2.9.1.4.3.8.5 1.2-.1.2-.3.5-.4.8-.3.3-.4.8-.3 1.3-.4 3 .6 7.6 1.4 9.9-.1.4-.1.9-.2 1.4-2 .8-2.9 3.5-2 5.6v.5c0 1.1.4 2.3.7 3.3.8 2.4.6 5.4.8 8 .3 3.8 5.5 3.8 6 .1.3.3.5.4.5-.1 0 2.2 2.6 3.8 4.5 2.6 1-.7 2.1-2.2 3.2-1.9l.1.1c.7.7 1.5 1.3 2.2 2 1 1 2.6 1 3.5 0 .4-.4.7-1 .7-1.6.6-.5.9-1.2 1-2.1.3-.5.6-.9.9-1.4.7-.4 1.7-.6 2.4-.8.1 0 .2-.1.3-.1-.3.9-.7 1.8-1 2.7-.9 2.6 1.7 4.1 3.8 3.5 2.2-.1 3.1-2.1 2.7-3.8.1-.3.2-.7.4-1 .2-.1.3-.2.4-.4.8-.8 1-1.9.7-2.9l.6-2.1c.6-2.4.7-5.9-1.4-7.3z" id="Mesophyll_cells_no_ABA_cordycepin_and_actinomycin_added_during_protoplasting"/><path d="M660.2 319c.2-.7.4-1.4.6-2.2.8-1.5 1.4-3 1.5-4.3 0-.5-.2-.9-.5-1.2.6-3.8.6-7.7 0-11.7-.2-1.6-2.2-1.3-2.8-.1-1-.2-2.2 0-3.3.3-4.5 1.1-7.1-1.3-11.2-2.2-1.5-.3-2.5 1.4-1.5 2.5v.1l-1.6-.5c-.2-.1-.4-.1-.6-.1-.3-.3-.7-.5-1.2-.6-1-.3-2.2-.1-3.1.4-1-.1-2.1-.2-3.1-.3-.5-.7-1.3-1.2-2.4-1.2-.9 0-1.6.3-2 .8-.2 0-.3 0-.5-.1-1.8-.2-1.9 2.4-.3 2.9.1.4.3.8.5 1.2-.1.2-.3.5-.4.8-.3.3-.4.8-.3 1.3-.4 3 .6 7.6 1.4 9.9-.1.4-.1.9-.2 1.4-2 .8-2.9 3.5-2 5.6v.5c0 1.1.4 2.3.7 3.3.8 2.4.6 5.4.8 8 .3 3.8 5.5 3.8 6 .1.3.3.5.4.5-.1 0 2.2 2.6 3.8 4.5 2.6 1-.7 2.1-2.2 3.2-1.9l.1.1c.7.7 1.5 1.3 2.2 2 1 1 2.6 1 3.5 0 .4-.4.7-1 .7-1.6.6-.5.9-1.2 1-2.1.3-.5.6-.9.9-1.4.7-.4 1.7-.6 2.4-.8.1 0 .2-.1.3-.1-.3.9-.7 1.8-1 2.7-.9 2.6 1.7 4.1 3.8 3.5 2.2-.1 3.1-2.1 2.7-3.8.1-.3.2-.7.4-1 .2-.1.3-.2.4-.4.8-.8 1-1.9.7-2.9l.6-2.1c.6-2.4.7-5.9-1.4-7.3z" id="Mesophyll_cells_with_100uM_ABA_cordycepin_and_actinomycin_added_during_protoplasting"/><path d="M707.2 319c.2-.7.4-1.4.6-2.2.8-1.5 1.4-3 1.5-4.3 0-.5-.2-.9-.5-1.2.6-3.8.6-7.7 0-11.7-.2-1.6-2.2-1.3-2.8-.1-1-.2-2.2 0-3.3.3-4.5 1.1-7.1-1.3-11.2-2.2-1.5-.3-2.5 1.4-1.5 2.5v.1l-1.6-.5c-.2-.1-.4-.1-.6-.1-.3-.3-.7-.5-1.2-.6-1-.3-2.2-.1-3.1.4-1-.1-2.1-.2-3.1-.3-.5-.7-1.3-1.2-2.4-1.2-.9 0-1.6.3-2 .8-.2 0-.3 0-.5-.1-1.8-.2-1.9 2.4-.3 2.9.1.4.3.8.5 1.2-.1.2-.3.5-.4.8-.3.3-.4.8-.3 1.3-.4 3 .6 7.6 1.4 9.9-.1.4-.1.9-.2 1.4-2 .8-2.9 3.5-2 5.6v.5c0 1.1.4 2.3.7 3.3.8 2.4.6 5.4.8 8 .3 3.8 5.5 3.8 6 .1.3.3.5.4.5-.1 0 2.2 2.6 3.8 4.5 2.6 1-.7 2.1-2.2 3.2-1.9l.1.1c.7.7 1.5 1.3 2.2 2 1 1 2.6 1 3.5 0 .4-.4.7-1 .7-1.6.6-.5.9-1.2 1-2.1.3-.5.6-.9.9-1.4.7-.4 1.7-.6 2.4-.8.1 0 .2-.1.3-.1-.3.9-.7 1.8-1 2.7-.9 2.6 1.7 4.1 3.8 3.5 2.2-.1 3.1-2.1 2.7-3.8.1-.3.2-.7.4-1 .2-.1.3-.2.4-.4.8-.8 1-1.9.7-2.9l.6-2.1c.6-2.4.7-5.9-1.4-7.3z" id="Mesophyll_cells_with_100uM_ABA_no_cordycepin_nor_actinomycin"/><path d="M650 162.8c0-.3 0-.6-.1-.9-.4-1.6-2.1-2.4-3.7-2.1h-.8c-.5 0-.9-.1-1.4-.1-.5 0-1 .1-1.4.4-3.2-.4-6.3.2-8.8 2-1.1.8-1.4 1.9-1.2 3-2 1.1-3.3 3.6-1.9 6.1 2.9 5.3 12.2 18.5 19.7 13.1 1.7-1.2 2.7-3.2 2-5.2 1.1.3 2.3-.1 3-1.4 3-5.9-.3-11.6-5.4-14.9zm.2 11.9c-.3.6-.4 1.2-.3 1.7-1.1-.5-2.3-.6-3.4-.2-.2-.1-.4-.2-.5-.2-.9-.6-2-1.8-2.9-2.7-1.8-2-3.5-4.2-4.8-6.5 0 0 0-.1-.1-.1 2.6-.8 6.5-.1 9.2 1.6 0 1 .6 2 1.5 2.6.1 0 .1.1.2.1 0 .1.1.2.1.2 0-.1-.1-.1-.1-.2.3.7.8 1.3 1.5 1.6.1.7-.1 1.4-.4 2.1z" id="Guard_cells_no_ABA_cordycepin_and_actinomycin_added_during_protoplasting"/><path d="M698 162.8c0-.3 0-.6-.1-.9-.4-1.6-2.1-2.4-3.7-2.1h-.8c-.5 0-.9-.1-1.4-.1-.5 0-1 .1-1.4.4-3.2-.4-6.3.2-8.8 2-1.1.8-1.4 1.9-1.2 3-2 1.1-3.3 3.6-1.9 6.1 2.9 5.3 12.2 18.5 19.7 13.1 1.7-1.2 2.7-3.2 2-5.2 1.1.3 2.3-.1 3-1.4 3-5.9-.3-11.6-5.4-14.9zm.2 11.9c-.3.6-.4 1.2-.3 1.7-1.1-.5-2.3-.6-3.4-.2-.2-.1-.4-.2-.5-.2-.9-.6-2-1.8-2.9-2.7-1.8-2-3.5-4.2-4.8-6.5 0 0 0-.1-.1-.1 2.6-.8 6.5-.1 9.2 1.6 0 1 .6 2 1.5 2.6.1 0 .1.1.2.1 0 .1.1.2.1.2 0-.1-.1-.1-.1-.2.3.7.8 1.3 1.5 1.6.1.7-.1 1.4-.4 2.1z" id="Guard_cells_no_ABA_no_cordycepin_nor_actinomycin"/><path d="M649 201.8c0-.3 0-.6-.1-.9-.4-1.6-2.1-2.4-3.7-2.1h-.8c-.5 0-.9-.1-1.4-.1-.5 0-1 .1-1.4.4-3.2-.4-6.3.2-8.8 2-1.1.8-1.4 1.9-1.2 3-2 1.1-3.3 3.6-1.9 6.1 2.9 5.3 12.2 18.5 19.7 13.1 1.7-1.2 2.7-3.2 2-5.2 1.1.3 2.3-.1 3-1.4 3-5.9-.3-11.6-5.4-14.9zm.2 11.9c-.3.6-.4 1.2-.3 1.7-1.1-.5-2.3-.6-3.4-.2-.2-.1-.4-.2-.5-.2-.9-.6-2-1.8-2.9-2.7-1.8-2-3.5-4.2-4.8-6.5 0 0 0-.1-.1-.1 2.6-.8 6.5-.1 9.2 1.6 0 1 .6 2 1.5 2.6.1 0 .1.1.2.1 0 .1.1.2.1.2 0-.1-.1-.1-.1-.2.3.7.8 1.3 1.5 1.6.1.7-.1 1.4-.4 2.1z" id="Guard_cells_with_100uM_ABA_cordycepin_and_actinomycin_added_during_protoplasting"/><path d="M698 201.8c0-.3 0-.6-.1-.9-.4-1.6-2.1-2.4-3.7-2.1h-.8c-.5 0-.9-.1-1.4-.1-.5 0-1 .1-1.4.4-3.2-.4-6.3.2-8.8 2-1.1.8-1.4 1.9-1.2 3-2 1.1-3.3 3.6-1.9 6.1 2.9 5.3 12.2 18.5 19.7 13.1 1.7-1.2 2.7-3.2 2-5.2 1.1.3 2.3-.1 3-1.4 3-5.9-.3-11.6-5.4-14.9zm.2 11.9c-.3.6-.4 1.2-.3 1.7-1.1-.5-2.3-.6-3.4-.2-.2-.1-.4-.2-.5-.2-.9-.6-2-1.8-2.9-2.7-1.8-2-3.5-4.2-4.8-6.5 0 0 0-.1-.1-.1 2.6-.8 6.5-.1 9.2 1.6 0 1 .6 2 1.5 2.6.1 0 .1.1.2.1 0 .1.1.2.1.2 0-.1-.1-.1-.1-.2.3.7.8 1.3 1.5 1.6.1.7-.1 1.4-.4 2.1z" id="Guard_cells_with_100uM_ABA_no_cordycepin_nor_actinomycin"/></g><g id="Outlines" fill="none" stroke="#000" stroke-linecap="round" stroke-linejoin="round" stroke-miterlimit="10"><path d="M493 178.7c-2.7-3.7-5.4-7.3-7.1-9.8-8.1-3.1-11 1.5-13.8 6.6-3-2.3-5.6-4.4-8.9-6.9-1.8 1.4-4.9 2.6-5.4 4.5-.9 3.4-.4 7.3-.2 11 .2 2.9 2.2 6.4 1.1 8.5-3.2 6.1.5 10.3 2.7 15 .8 1.7 2.5 2.9 3.9 4.6 1.3.3 2.7.5 4.3.9 1.8-1.2 3.7-2.5 5.3-3.6 5.7 3.6 11.2 7.1 16.1 10.2 11.2-5 10.9-6.7 22.9.6 2.3-1.4 5.1-2.5 6.9-4.5 3.3-3.7.2-10.8-5.2-12.4-1.5-.4-2.9-1-4.3-1.4M493 337c-2.7-3.7-5.4-7.3-7.2-9.8-8.1-3.1-10.9 1.6-13.7 6.6-3-2.3-5.6-4.4-8.9-6.9-1.8 1.4-4.9 2.6-5.4 4.5-.9 3.4-1 7.5-.1 10.9.9 3.5 1.9 6.6.4 10.2-.6 1.4-.9 3.4-.5 4.7 2.1 6.1 4.3 12.3 11.6 14.5 1.9-1.4 3.9-2.8 5.7-4 5.8 3.7 11.2 7.1 16.1 10.2 10.7-4.7 10.7-6.8 22.9.6 2.3-1.4 5.1-2.5 6.9-4.5 3.3-3.7.2-10.8-5.2-12.4-1.5-.4-2.9-1-4.3-1.4m67.1-234.7c.7 2.5 1.3 4.9 2 7.4-.5.1-.9.2-1.4.4 4.2 4 4.8 9 4 14.5-3.4 3.5-6 8.9-13.2 7.2-4.8-2.6-6.1-9.7-11.8-12.1-.5.4-1 .7-1.5 1.1.9 2.5 1.8 4.9 2.8 7.8-.6 1-1.3 2.2-2 3.3 1 2.5 2 4.9 3.1 7.6-1.1 1-2.2 1.9-3.3 2.8-2.5-1.3-4.6-2.4-6.9-3.6-.6 2.2-1.1 4.1-1.6 6.1-2.6-1.1-4.7-1.7-6.7-2.8-3.6-2.1-7.3-3.1-11.6-2-1.4.4-3.2-.8-4.8-1.3m52.9 121.9c.7 2.5 1.3 5 2 7.5-.5.1-.9.2-1.4.3 4.2 4 4.8 9 4 14.5-3.4 3.5-6 8.9-13.2 7.2-4.8-2.6-6.1-9.7-11.8-12.1-.5.4-1 .7-1.5 1.1.9 2.5 1.8 4.9 2.8 7.8-.6 1-1.3 2.2-2 3.3 1 2.5 2 4.9 3.1 7.6-1.1 1-2.2 1.9-3.3 2.8-2.5-1.3-4.6-2.4-6.9-3.6-.6 2.2-1.1 4.1-1.6 6.1-2.6-1.1-4.7-1.7-6.7-2.8-3.6-2.1-7.3-3.1-11.6-2-1.4.4-3.2-.8-4.8-1.3M180.3 207.5c-6.4-.3-12.8-.2-19.2-1.1-6.2-.8-8.5.2-10.1 6.3-.6 2.4-1.6 4.8-2.4 7.2 2 2.5 7.7 4.9 9.5 3.2 4.5-4.3 9.5-2.4 14.5-2.4 5.6 0 11.2-.4 16.8-.6v-9.3c-3.6-1.4-6.1-2.4-8.6-3.4m316-97.7c1-2.7 2.1-5.4 3.4-8.8-2-1.3-3.9-2.6-5.8-3.8-1.6 2.1-2.7 3.6-3.9 4.9-3.6 4.1-7.2 8.1-13.5 4-1-.6-3.6.8-5.1 1.8-1.3 1-1.8 2.9-3 4.2-3.1 3.5-4.9 8.1-10 9.8-1.8.6-3.2 2.8-5.1 4.7.9 3.4 1.1 7.2 2.8 9.9 3.3 5.1 1.2 10.3 1.3 15.4 0 1.3-.3 2.6-.5 3.8m39.4 112.3c1-2.7 2.1-5.4 3.4-8.8-2-1.3-3.9-2.6-5.8-3.8-1.6 2.1-2.7 3.6-3.9 4.9-3.6 4.1-7.2 8.1-13.5 4-1-.6-3.6.8-5.1 1.8-1.3 1-1.9 2.9-3 4.2-3.1 3.6-5.2 8.1-10 10.2-1.8.8-3.1 2.6-5.1 4.3.9 3.4 1.1 7.1 2.8 9.9 3.3 5.1 1.2 10.3 1.3 15.4 0 1.3-.3 2.6-.5 3.8M565.9 96.3c.6 3.2 3 4.1 5.8 3.8 9.9-1 9.9 2.4 9.6 10.1-1.5 1.3-2.9 2.6-4.3 3.9-.3.3-.4.9-.8 1.7 1.1 1.9 2.2 3.9 3.4 6-1.8 4-4.4 5.8-8.9 4.1-4-1.6-5.5-9-11.8-5.5.4 3.2.7 6.1 1.1 9.3-10.6 1-14.5-6.3-18.9-12.8-5.5-.8-11.2-.9-13.9-6.5-.9-4.5 2.2-6.1 5.2-6.3 4.1-.4 7-1.4 6.6-5.9-.3-4-2.3-7.1-7.6-8.2-4.7-1-8.9-.5-12.5 2.9-1.3 1.2-2.7 2.1-4.4 3.5-2.3-3.1-3.9-7.1-8.6-5.8-4 1.2-8.8 1.4-10.1 6.7m70.1 157.2c.6 3.2 3 4.1 5.8 3.8 9.9-1 9.9 2.4 9.6 10.1-1.5 1.3-2.9 2.6-4.3 3.9-.3.3-.4.9-.8 1.7 1.1 1.9 2.2 3.9 3.4 6-1.8 4-4.4 5.8-8.9 4.1-4-1.6-5.5-9-11.8-5.6.4 3.2.7 6.1 1.1 9.3-8.2.9-12.7-3.2-16.1-8.9-1.6-2.6-3.4-4.4-6.7-4.4-4.5 0-7.8-2.4-9.9-5.9-.9-4.5 2.2-6.1 5.2-6.3 4.1-.4 7-1.4 6.6-5.9-.3-4.1-2.3-7.1-7.6-8.2-4.7-1-8.9-.5-12.5 2.9-1.3 1.2-2.7 2.1-4.4 3.5-2.3-3.1-3.9-7.1-8.5-5.8-4 1.2-8.8 1.4-10.1 6.7m50.7 83.4c-4 .8-8.1 1.2-11.9 2.6-1.9.7-4.4 2.9-4.6 4.7-.3 3.6-.3 7.9 1.4 10.9 4.3 7.5 17.7 9.3 24.7 3.9 1.4-1.1 2.6-3 2.8-4.7.4-3.1.1-6.4.1-10.6 2.2-2.7 5.9-2.1 9.6-1.3 3.5.7 4.4 2.9 4 6.2-.1 1 1.2 2.2 1.8 3.3 3.7 6.4 2.5 12.6-1.5 18.2-3.6 5-8.6 8-15.3 6.3-4.9-1.2-9.9-2.2-14.9-3.3-6.4 3.8-6.4 3.8-12.5-1.6-3.3 1-5.6-.7-7.6-3.3m23.9-189.5c-4 .8-8.1 1.2-11.9 2.6-1.9.7-4.4 2.9-4.6 4.7-.3 3.6-.3 7.9 1.4 10.9 4.3 7.5 17.7 9.3 24.7 3.9 1.4-1.1 2.6-3 2.8-4.7.4-3.1.1-6.4.1-10.6 2.2-2.7 5.9-2.1 9.6-1.3 3.5.7 4.4 2.9 4 6.2-.1 1 1.2 2.2 1.8 3.3 3.7 6.4 2.5 12.6-1.5 18.2-3.6 5-8.6 8-15.3 6.3-4.9-1.2-9.9-2.2-14.9-3.3-6.4 3.8-6.4 3.8-12.5-1.6-3.3 1-5.6-.7-7.6-3.3m-360.7-39c-3-.2-6.1-.5-9.9-.8-.9-2.9-2.3-6.3-2.9-9.8-.6-3.6 5.3-7.2 9.5-6.3 3.4.8 6.9 1.2 9.7 1.7 8.5-7.8 7.9-17.2 6.8-26-1-7.7-.2-15.1.2-22.6.3-5.9.1-11.8.1-18.3-3-.3-6.1-.8-9.1-.9-4-.2-8-.1-12 0-3.9 0-5.9 1.9-6.2 5.8-.1 1.3.1 2.6-.1 3.8-.2 1.3-.7 2.5-1.4 4.9 3.2.8 6.8 3 9 2 6.3-2.8 12.8-2.5 19.3-2.6"/><path d="M573.6 349c1.7.5 3.5 1.1 5.1 1.6 6.4-3.6 6.2-6.7-.8-15 3-1 3-1 10.5 2.4 4.5-3.2 5.1-4.6 2.3-8.6s0-6.9 1.1-10.1c.6-1.8 1.8-3.4 2.8-5-2.3-4.5-6.2-4.6-10-5.1-.8-.1-1.6-.3-2.4-.5m-8.6-118c1.7.5 3.5 1.1 5.1 1.6 6.4-3.6 6.2-6.7-.8-15 2.6-1.2 2.6-1.2 10.5 2.4 4.5-3.2 5.1-4.6 2.3-8.6s0-6.9 1.1-10.1c.6-1.8 1.8-3.4 2.8-5-2.3-4.5-6.2-4.6-10-5.1-.8-.1-1.6-.3-2.4-.5M235.5 91c-.8-.2-1.7-.6-2.4-.4-7.8 1.7-15.2 1.1-22.6-2.2-2.4-1.1-6.2-.2-9 .9-5.3 2.1-10.4 1.8-15.4-.2-3.8-1.5-7-.7-10.1 1.5m136.2 97.3c-.8-1.1-1.6-2.2-2.6-3.5.5-1.5 1.1-3.1 1.7-4.6-.5-1.7-.9-3.3-1.5-5.3h-11.6c-.5-1.9-.9-3.3-1.3-4.8-5.8-4.6-12.6-4-17.8 2.1 1.4 2.5 2.5 5.6 4.5 7.9 2.3 2.6 6.5 2 9-.4 1.7-1.5 3.5-2.9 5.3-4.3m198.4 120.8c-1.6-.7-3.2-1.3-4.8-2-4.1.8-5.8 3.4-5.3 7.3.5 4.5-.8 7.3-5.2 9.2-4.4 1.9-5.4 5.1-4.5 9.8 1.5 2.1 2.7 3.7 3.9 5.4m15.9-188c-1.6-.7-3.2-1.4-4.8-2-4.1.8-5.8 3.4-5.3 7.3.5 4.5-.8 7.3-5.2 9.2-4.4 1.9-5.4 5.1-4.5 9.8 1.5 2.1 2.7 3.7 3.9 5.4M289.2 149c-2.4.8-4.8 1.7-7.2 2.4-1.7.5-3.4.6-5.8.9.6-8.4 1.1-15.9 1.7-24.4-3.6 0-6.2-.2-8.7.1-1.2.2-3.2 1.5-3.2 2.3 0 7.2-5.3 6.2-9.7 6.7-.3 0-.6.3-2 1-.3 3.3-.8 7.1-.8 11 0 3.5-1.4 4.7-4.9 4.9-3.2.2-6.4 1.8-9.6 2.2-3.1.4-6.4.1-9.6-.1-3 .2-6.2 1.1-9.1.5-4.3-.9-2.1-6-4.4-8 .4-2.2.6-4 1-5.7.4-1.8.9-3.5 1.2-4.6-.9-3-1.5-5.4-2.2-7.9m197-27.3c4.2-3.9 1.6-8.6 1.8-13.9h-27.3c-.5 3.7-1 6.8-1.5 9.8 8.1 7.6 17.9 3 27.1 5 .3 6.8.6 13.5.7 20.2 0 3-1.2 5.6-4.3 6.7-3 1.1-6.2 2.9-9.1-.4m261 188.4c.5 1.4 1.6 3 1.3 4.3-.8 4.1-2 8.2-3.3 13-1.2.1-3.5.4-5.7.6-.4-7.1-.7-14-1.1-21.3h-5.6m60.5-49.4c.5 1.4 1.6 3 1.3 4.3-.7 4.2-1.9 8.2-3.1 13-1.3.1-3.6.4-5.8.7-.4-7.1-.7-14-1.1-21.3h-5.6m-31.8 3.3c.5 1.4 1.6 3 1.3 4.3-.7 4.2-1.9 8.2-3.1 13-1.3.1-3.6.4-5.8.7-.4-7.1-.7-14-1.1-21.3H647m60.4 56.1c.5 1.4 1.6 3 1.3 4.3-.8 4.1-2 8.2-3.3 13-1.2.1-3.5.4-5.7.6-.4-7.1-.7-14-1.1-21.3H693M404.8 208.5c-1.8-.5-3.5-1-5.3-1.4-4.3-1-7.1.1-12.2 4.5 1.1 2 2.3 4 3.5 6.2-.2 1.3-.4 2.7-.5 4-3.1.7-6.3 1.6-9.5 2-3.5.4-6.5 1.2-10.6-.9s-10.2-.9-15.3-.3c-3.1.3-6.1 2.3-8.6-1.1m-154-117.1c-.2 5.3-.2 10.6-.5 15.8-.2 2.6-.8 5.2-1.3 8.7-5.3.5-10.1.9-15 1.4m189.4-12c-3.4.6-6.7 1.3-11.3 2.1-.4 3.2.2 7.3-1.4 10.2-2.3 4-2.1 8.3-1.8 12.1.3 3.9.4 7.4-.8 11.1m49.9 5.3c1-1.1 1.8-3 2.9-3.2 2.9-.6 6.1-.6 9.1-.8.3 4.2.9 8.2.9 12.2-.1 4.6-2.9 6.2-8 4.7-.4-4.3 1.2-9.7-4.1-12.1-2.4.1-4.4.2-7.1.4-1.4 1.5-3.1 3.3-4.7 5.2-1.8 2.1-1.9 4.2-.5 6.7 3.5 6.5 1.2 11.5-5.7 13.4-1.9.5-3.8 1.3-5.8 1.9-1.6-.6-3.2-1.3-4.8-1.9m-146.8 27.2c.3 2.7.7 5.4 1 8.2-4.7 2.1-8.3 2.8-12.7-.8-3.8-3.1-9-1.3-13.2.8-3.8 2-7 1.5-10.1-1.1m464.7-42.6c2.1-7.6-1.9-12.8-7.3-17.2-1.3-1.1-3.7-1-5.7-1-4.8-.2-8.4 2.7-11.4 5.8-1.1 1.2-1.2 3.8-1 5.6.2 1.8 1.5 3.4 2.1 5.2 11.8 10.1 11.8 10.1 17 9.2h8.6m46.6-7.6c2.1-7.6-1.9-12.8-7.3-17.2-1.3-1.1-3.7-1-5.7-1-4.8-.2-8.4 2.7-11.4 5.8-1.1 1.2-1.2 3.8-1 5.6.2 1.8 1.5 3.4 2.1 5.2 11.8 10.1 11.8 10.1 17 9.2h8.6m-2.3 31.7c2.1-7.6-1.9-12.8-7.3-17.2-1.3-1.1-3.7-1-5.7-1-4.8-.2-8.4 2.7-11.4 5.8-1.1 1.2-1.2 3.8-1 5.6.2 1.8 1.5 3.4 2.1 5.2 11.8 10.1 11.8 10.1 17.1 9.2h8.1m-50.8-7.6c2.1-7.6-1.9-12.8-7.3-17.2-1.3-1.1-3.7-1-5.7-1-4.8-.2-8.4 2.7-11.4 5.8-1.1 1.2-1.2 3.8-1 5.6.2 1.8 1.5 3.4 2.1 5.2 11.8 10.1 11.8 10.1 17.1 9.2h8.1m-310.3-12.4c-5.5-3.7-25.2-5-30.7-1.9-.8.4-1.3 1.2-1.9 1.9"/><path d="M370.7 212.3c-1.7-1.3-3.4-2.6-5.6-4.3-14.1-.4-13 .6-17.2 4.3-.9 3.7-.7 7.1-2.3 8.5-2.7 2.5-6.2 1.9-10 .4-3.1-1.2-7.4-1.3-10.4 0-4.5 2-8.2 1.4-12.5-.9-.1-2.1-.2-4.5-.3-6.9.3 0 .5-.1.8-.1l-3-3.3m31.2-106.1c-3.1-2.2-2-4.6-.5-7.2 2-3.6.4-8.6-2.8-9.5-1.3-.4-2.9-.1-4.3 0l-12 .9m28.3 44.1c-4.9-2.7-9.8-.4-10.5 5.3-.4 3.6-.6 7.4-.5 11 .1 3.5-1.1 6-4.4 7.2-3.5 1.3-7.2 2.7-10.1-1.4M699.7 267c2.4-.3 4.8-.7 7.5-1.1 2.9-6.5 1.4-12.8 1-19.8-3.4.3-6.4.5-9.4.7M653.6 267c2.4-.3 4.8-.7 7.5-1.1 2.9-6.5 1.4-12.8 1-19.8-3.4.3-6.4.5-9.4.7m47 72.9c2.4-.3 4.8-.7 7.5-1.1 2.9-6.5 1.4-12.8 1-19.8-3.4.3-6.4.5-9.4.7m-168.9-114c-1.8-2-3.6-4.1-6.1-6.9-6.4 1.9-13.6 3.5-19.9 7.5.6 1.8 1.1 3.2 1.2 3.7 2.4 2.1 4.3 3.7 6.1 5.2m142.4 124.7c2.4-.3 4.8-.7 7.5-1.1 2.9-6.5 1.4-12.8 1-19.8-3.4.3-6.4.5-9.4.7m-122.8 44.2c-1.8-2-3.6-4.1-6.1-6.9-6.4 1.9-13.6 3.5-19.9 7.5.6 1.8 1.1 3.2 1.2 3.7 2.4 2.1 4.3 3.7 6.1 5.2M150.6 106.8c-.6 5.1-1.3 10.2-1.9 15.3-.2 1.8-.4 3.5-.5 5.3-.1 3.5.7 6.5 4.8 7.2 4.9.8 7.7-.9 9.1-5.2.5-1.5 1.3-2.9 1.9-4.3M313.6 172c.2-2.6.4-5.1.6-7.6-6.2-4.7-14.7-2.8-17.4 3.8m231.7 145.3c4.3-2.4 6.6-7.4 4.7-12.4-2.3-5.8-5.1-11.5-10.9-14.9-5.2-3.1-13.6-1.4-17.2 4.1-2.8-4.7-5.5-9.2-8.2-13.6m31.6-121.5c4.3-2.4 6.6-7.4 4.7-12.4-2.3-5.8-5.1-11.5-10.9-14.9-5.2-3.1-13.6-1.4-17.2 4.1-2.8-4.7-5.5-9.2-8.2-13.6m-101.3 87.7c-1.2-2.7-.8-5.2 1.4-7.2 2.9-2.6 5.9-5 9.1-7.8v28.8c-4.7.2-9.1 4.4-14.9 2.6m-200.3-8.7c3.1-4.9 7.5-4.7 12.5-3.9 3.7.6 7.7.6 11.5 0s6.9-.2 9.2 2.1c6.1 1 12.1-2.9 17.7 1.4m-37-39.9c2-2.1 3.7-4.2 7.2-4 2.5.2 5.2-5.5 4.8-9-.5-3.7-3.5-6.5-6.7-6.2-2.2.2-4.4.4-7 .6.5-3.9 1.4-7.1 1.1-10.2-.3-3.2-1.7-6.2-2.3-8.4-10.5-1.8-11.1 5.1-11.9 11.7-.2 1.7 0 3.5 0 5.3-4.1 1-7.8 1.8-12.2 2.8-3.9-.2-1.3-4.3-2.7-6.2"/><path d="M321.3 100.1c2 .4 4.1.8 7.1 1.4.1.3.5 1.6.6 3 .1 4.2 0 8.3 0 12.5 0 2.6.9 5.5-.2 7.6-2.4 4.7-1.6 9.1-1 14 .5 4.7-1.1 9.6-1.8 15-4.5.8-8.3 1.5-13.1 2.4 3.1-9.1 1.6-17.8 5.6-25.5m326 117.3c-2.1-.9-4.2-1.9-6.4-2.9-2.9 8.5-2 16.3-1.6 24 .3 5.7-.8 10.6-4.8 15.9-6.1-5.8-3.9-12.9-4.7-20.1l8.4-3m55.2-13.9c-2.1-.9-4.2-1.9-6.4-2.9-2.9 8.5-2 16.3-1.6 24 .3 5.7-.8 10.6-4.8 15.9-6.1-5.8-3.9-12.9-4.7-20.1l8.4-3m-37 38.9c-2.1-.9-4.2-1.9-6.4-2.9-2.9 8.5-2 16.3-1.6 24 .3 5.7-.8 10.6-4.8 15.9-6.1-5.8-3.9-12.9-4.7-20.1l8.4-3m55.2-13.9c-2.1-.9-4.2-1.9-6.4-2.9-2.9 8.5-2 16.3-1.6 24 .3 5.7-.8 10.6-4.8 15.9-6.1-5.8-3.9-12.9-4.7-20.1l8.4-3"/><path d="M315.6 101.5c-5.1-2.5-9.6 1.1-15.6 1.4-1.5-2.6-3.4-5.8-5.1-8.8 1.5-4 4.6-5.4 8.3-5.5 5.9-.2 11.8 0 18.6 0-2.2 4.8 3.3 11.5-5.8 13.6-2.8 10.1-1.3 20.3.1 30.6m-84.5 33.5c-5.2 1.2-8.2 4.6-9.5 10.2.7 1 1.7 2.4 2.4 3.3 7.4 3.1 11.4-1.8 16.2-5.7-1.7-4-2.9-7.9-8.1-7.8m0 14.8c2.7 4 1.1 7.7-.5 11.4-2.4.5-4.8.9-7.4 1.4-1.2 2-2.4 4.1-3.4 5.8 2.4 7 8.8 8.2 18.9 5.4m46.6 3.4c-8.1-1.5-15.8.8-23.5 2.9m19.2-11.6c-3.5 2.4-7 4.1-11.6 2.1-1.5-.7-3.8.3-5.2.5-1.3 2.3-2.3 4.2-3.4 6.1m149.6-77.7c2.2 2 2.1 4.6.9 6.7-3.1 5.4-2.2 11.1-2.3 16.8"/><path d="M262.3 198.4c.3-5.7 4.3-7.9 9.1-9 1.5-.3 3.2 0 4.8.5 1.8.5 3.7 1.4 5.3 2.4 3.3 2.1 2.1 5.2 1.3 8.3 5.7 4 6.4 9.9 6.4 16.2 0 3.8-2.7 4.5-5.3 4.7-11.3.8-22.7 1.3-34 2-3.3.2-6.2-.4-7.7-2.8v-8.3c1.9-1.1 3.4-1.9 4.8-2.7m261.8-51.6c1.9 1.1 3.8 2.3 5.8 3.3 5.7 2.9 9.8 1.6 14.6-5.3-1.6-1.1-3.2-2.6-5-3.3-7.9-2.8-13-8.1-14.8-16.4 8-2.5 16.8 6.6 15.8 16.3m-204.9 40.9c-3.7 1.3-4.4 4.1-4.4 7.7 0 5.3-6.8 8.9-11.4 6.2m204.3 108.9c1.9 1.1 3.8 2.3 5.8 3.3 5.7 2.9 9.8 1.6 14.6-5.3-1.6-1.1-3.2-2.6-5-3.3-7.9-2.8-13-8.1-14.8-16.4 8-2.5 16.8 6.6 15.8 16.3M282 167.7c-3.3-9-8.2-10.9-20.4-7.5-.9 4.5-1.9 9.2-3 14.5 3.8.8 6.9 1.5 10.3 2.3 1.5-1.8 3.1-3.6 5.2-6 1.2.1 3.1.3 5 .5m62.3-83.4c3.1-1.6 6.1-.7 9.1.4 5.2 1.9 10.3 1.5 15.8.8 6.6-.8 13.4.7 20.1 1.1m-148.1 12.1c-.7-3.7-1.3-7.4-2-11.4 4.6-4.9 10.4-1.8 15.9-1 3.6.5 7 1.5 10.6 2.3m-37.4 13.9c1.1 4.3 1.7 8.9 3.5 12.9 2.1 4.7 1.7 8.2-2 11.6-.7.6-1 1.6-1.5 2.4m161.1-33.1c-2.3 1.1-4.6 2.3-6.9 3.4-.5-.2-1-.4-1.4-.6-.6 7.2-1.2 14.5-1.7 21.3-3 1-5.9 1.7-8.6 2.8-3.7 1.6-4.5 5-4.3 8.6.2 4.5.6 9 .9 13.4m-.5 1c-1.6 2.1-3.1 4.2-4.7 6.2h-4.4c-6.7 6.1-6.8 6.4-1.9 14.4 2.1.5 4.2 1 6.2 1.4m-153-65.2c-.6 1.9-1.8 3.8-1.8 5.8-.1 5.1.2 10.2.4 15.3"/><path d="M279.6 105.9h-25c-2.9-2.4-7.4-1.7-11.8-2.3-7.4-1-14 2.2-21.2 1.9-2.7-.1-5.5 1.5-9 2.5 1.7 1.4 2.7 2.3 3.1 2.6.4 6.5.8 12.4 1.1 18.5h-11.7c-.8 1.8-2 4.4-3.2 7m99.7-32.6c.2 3.5.3 7 .5 10.6.2 4 .4 8 .5 12 .1 2.9-.3 5.8.1 8.6.6 4.6 1.7 9.2 2.7 14.5.4.2 1.7.7 3.3 1.4 1.7-1.1 3.6-2.3 5.5-3.5m-73.5-13.9c.2 6.6.3 13.1.5 19.7 0 .3.3.6.5 1m22.5 47.9c-3.8-5.7-12.1-7-17.3-2.9-1.6 1.3-3.5 2.3-5.3 3.4m148.3-99.8c-2.4 2-2.6 4.7-1.4 7.2 2.2 4.5 4.1 8.9 1.5 14-.3.5.6 1.6.9 2.4"/><path d="M242.2 104.9c1.2 5.2-.1 10.3-.9 15.4-.2 1.7.3 3.5.4 5.3m16.8 41.6c-6.6.5-13.1 1-19.7 1.4M386 138.5c.3 3.4 1.1 6.8.9 10.1-.4 4.9-4.4 7.4-8.5 6.3-2.7-.7-3.8-2.5-3.3-4.8.8-3.9 2.2-7.7 3.3-11.5m124.2-7.3-6.3 6.6c2.7 7.7 4.7 15 11.6 19.3m-5.3 132.3-6.3 6.6c2.7 7.7 4.7 15 11.6 19.3m-344.4-210c-.2 3.8-.4 7.7-.4 11.5 0 2.6.3 5.1.4 7.2 5.1 2.5 7.5-.6 10.1-3.4m369.7 1.9c-.8 2.1-1.7 4.1-2.4 6.2-1.6 5.2-6.4 5.8-10.6 7.2m-192.7 53.8c.6 1.3 1.2 2.6 1.9 3.8 2.3 3.6 1.7 5.8-1.4 10.1-2.5 3.4-5.1 1.8-7.7.8-1.1-.4-2.7-1.5-2.8-2.3-.2-3.1-2.5-4.1-4.4-5.8-1.2-1-1.8-2.7-2.4-4.3-.6-1.6-.9-3.3-1.3-4.7-6.7-.4-11.6 1.2-14.6 7.1-.9 1.9-2.8 3.2-4.2 4.8m242.6 81.6c-.8 2.1-1.7 4.1-2.4 6.2-1.7 5.1-6.2 6.1-10.6 7.2M160.7 133.7c1.1 7.5.5 14.8-3.4 21.6m209.6 53.2c2.6-3.9 5.2-7.7 8.2-12-2.1-1.9-3.7-3.3-5.3-4.8m-146.3 1.9h-7.2c-3.8-.1-6.5 1.2-7.2 5.3-.1.5-.9 1-1.4 1.4-2.2-.7-4.4-1.4-7-2.2-3.2 5-7.2 6.5-12.8 3.8-1.9-.9-4.4-.5-6.8-.6-.3 2.3-.6 4-.9 5.8m11.6-17.3c-1-3.3-2.2-6.5-.5-10.1 3.4-7 9.5-8.5 16.5-3.7-.4 1.7-.8 3.4-1.3 5.4 3.5.7 6.9 1.5 10.2 2.2m79.7-83c-2 1-4.1 2-5.1 2.6-1.9 16.1 1.5 31.1-1.3 47 1.6 1.4 3.8 3.5 5.8 5.2 4.1-.7 7.7-1.2 8.8-5.4m-39.4-14.4c2.9 5.6.8 11.5 1.4 17.3m119.9 17.7c-2.1-.8-4.1-1.7-6-2.5-5 1.1-7 4.8-8.9 8.7M218.7 137c.8-.5 1.6-.9 2.4-1.4 4.4-2.9 5.1-2.7 8.6.9v18.2m48.9-49.8c.3-1.8.4-3.6 1-5.3 1.7-4.4 1.3-6.7-3-8.5-2.8-1.2-5.1-4.6-9.1-2.1-5.1 3.2-6.2 5.4-4.2 12.1.3 1.2.9 2.2 1.4 3.4m95.9 51.7c4 2.6 7.9 5.3 4.8 11.5-.8.6-2.1 1.5-3.4 2.4m131 169.8c-.7 1.5-1.3 3.1-2 4.7 2.2 1.2 4 2.2 5.6 3.1 2.3-.6 4.4-1.1 6.5-1.6M359.7 190.3c-.1 3.8-.3 7.7-.4 11.5h-1.1c1 1.7 2 3.5 3 5.2m38.3-61.8c-.8 1.8-1.5 3.6-2.4 5.3-2.9 5.2-5.6 5.6-10.5 1.9M493 181.6c-.7 1.5-1.3 3.1-2 4.7 2.2 1.2 4 2.2 5.6 3.1 2.3-.6 4.4-1.1 6.5-1.6m-140.6-16.2c2.6 1.9 5.3 3.7 7.6 5.8 1.1 1 2 2.9 1.9 4.2-.2 2.7-1.2 5.4-2.1 8.8-2.9-.2-6.1-.4-9.3-.6M353 103c.2 5.4.3 10.9.5 16.3m-140.6-12c-9.2-2.1-18.1-5.5-27.8-3-2.9.7-6 .1-9.1.1m113.2 105.5c4.6-.8 9.2-1.5 15-2.5 2.2-3.7-2.7-6.1-4.6-8.4-5.7-6.7-8-6.8-15.2-2.6m-107.9-6.1c2.9-6.6 1.3-12.7-1.6-18.6-11.7-2.2-17.2 3-15.1 14.3-.9 1.1-2 2.5-3.1 3.8 1.5 5 5.7 2.9 8.8 3.4M397.6 126h-.5c-2.2.6-5.7.6-6.4 2-1.4 2.7-1.4 6.2-1.6 9.5-.1 2.3 1.6 4.8-1 6.7m312.5 35c-9.9-4.1-11.5-5.6-13.9-12.9 2.3-.6 4.6-.6 5.7.5 3.1 3 7 5.7 5.3 11m-46 1.4c-9.9-4.1-11.5-5.6-13.9-12.9 2.3-.6 4.6-.6 5.7.5 3.1 3 7 5.7 5.3 11m51.8 40.8c-9.9-4.1-11.5-5.6-13.9-12.9 2.3-.6 4.6-.6 5.7.5 3.1 3 7 5.7 5.3 11m-311.2-6.3c-2.6-2.9-2.6-2.9-11.1-2.9-1.5 1.7-3.3 3.6-5 5.5l.9.3c-.2 2.8-.4 5.6-.6 8.3m281-3.5c-9.9-4.1-11.5-5.6-13.9-12.9 2.3-.6 4.6-.6 5.7.5 3.1 3 7 5.7 5.3 11m-407.6 3.3c-5.1 2.9-10.2 5.2-15.8 1.4m38.4.5c-.3-3.7-.2-7.5-1.1-11-.8-2.7-8.1-4.1-12.8-2.9-5 1.2-8.7-1.1-9.1-5.8m-90.7-68.6c-2.4 6.4-2.2 13-2.6 19.7 1.8 1.3 3.1 2.3 4.5 3.4m103.1-50.4c-1.9 5.6-2.5 11.1-.1 16.8.6 1.5-.7 3.8-.8 5.7-.1 2.4.3 4.8.4 7.2"/><path d="M198.5 158.1c-3.3 4.6-5.7 9.3-1.9 14.9m116.1 47.5c-1.7 1.5-3.1 2.5-5.8 1.1-2.7-1.4-5.9-.9-9.1.2-3.3 1.1-6.9 1.5-10-.8m101.6-48c2.6.8 5.1 1.8 7.7 2.4 2.8.6 5.2-.2 6.7-2.8m280.1 151.5c2.3-.1 4.5-.3 6.9-.4 1.1 3.1-.7 10.1-3.6 11.9-2.2 1.5-4.2.7-5.7-1.4m-43.7-62.9c2.3-.1 4.5-.3 6.9-.4 1.1 3.1-.7 10.1-3.6 11.9-2.2 1.4-4.2.7-5.7-1.4m2.4 42.7c2.3-.1 4.5-.3 6.9-.4 1.1 3.1-.7 10.1-3.6 11.9-2.2 1.5-4.2.7-5.7-1.4m1.5-88.8h-9.6c-.2 0-.3.3-1 .8.3.6.6 1.4 1 2 1.6 2.2 2.1 4.4 1.6 7.2-.5 2.6.2 5.4.3 8.1m53.7-18.1h-9.6c-.2 0-.3.3-1 .8.3.6.6 1.4 1 2 1.6 2.2 2.1 4.4 1.6 7.2-.5 2.6.2 5.4.3 8.1M364.9 150c.3 1.4.6 2.9 1.1 5.1 1.7.3 3.6.6 5.4.9 1.1-1.7 2.1-3.1 3.1-4.5m262.4 146.7h-9.6c-.2 0-.3.3-1 .8.3.6.6 1.4 1 2 1.6 2.2 2.1 4.4 1.6 7.2-.5 2.6.2 5.4.3 8.1M399.5 104.4c.6 7.1 2.3 14.3-.6 19.2.4 8.1.7 14.4 1.1 20.6m282.9 154h-9.6c-.2 0-.3.3-1 .8.3.6.6 1.4 1 2 1.6 2.2 2.1 4.4 1.6 7.2-.5 2.6.2 5.4.3 8.1m8.7-45c2.3-.1 4.5-.3 6.9-.4 1.1 3.1-.7 10.1-3.6 11.9-2.2 1.4-4.2.7-5.7-1.4m-139.6 42.7c.1 2.9-.3 5.6 1.7 8.3 1 1.3.2 4 .2 6.1M646 298.6c-.7 1.1-1.4 2.2-2.1 3.1 1.1 2.6 2.1 5 3 6.9-.7 5.1-1.3 9.8-1.9 14.4m47-24.4c-.7 1.1-1.4 2.2-2.1 3.1 1.1 2.6 2.1 5 3 6.9-.7 5.1-1.3 9.8-1.9 14.4M541.9 165.8c.1 2.9-.3 5.6 1.7 8.3 1 1.3.2 4 .2 6.1M692 245.9c-.7 1.1-1.4 2.1-2.1 3.1 1.1 2.6 2.1 5 3 6.9-.7 5.1-1.3 9.7-1.9 14.4m-45-24.4c-.7 1.1-1.4 2.1-2.1 3.1 1.1 2.6 2.1 5 3 6.9-.7 5.1-1.3 9.7-1.9 14.4m-462.3-76.7c1-1.3 1.9-2.6 2.7-3.6 4.8.3 9.5.5 14.6.8v7.6m352 53.7c-3.9 1.9-7.5 1.3-12-1.9-.5 1-1 1.9-1.4 2.9M552 93.9c-3.9 1.9-7.5 1.3-12-1.9-.5 1-1 1.9-1.4 2.9m-284.9 27.7c-4 1.2-7.9 2.4-12.4 3.8.6 5.4-2.5 7.9-8.2 7.7M353 156.2c-1.1-.7-2.1-1.4-3.2-2.1v1c-3.4.9-6.8 1.9-10.3 2.5-5.4.9-8.4 7-6.2 13m-3.8-68.1c4.6-.8 9.1-1.7 13.1-2.4-.8 4.4-1.4 7.9-2 11.5-.5 3.3-.7 6.8-1.5 10-1.1 4.2.6 7 3.4 9.6m-120-39.3c.3 4.3.6 8.6 1 12.9m233 53.8-2.5 5c1.5 2.2 3.2 4.6 4.9 7m-276.7 30.2c.2-1.9.4-3.9.6-6.1-5.4-4.7-10.5-6.7-17.4-1.7 1.2 4.2 2.6 8.6 3.9 13.1m207.2-80.6c.2 2.9.5 5.8.4 8.6 0 3.1 1.5 4.2 4.4 3.8 2.4-.3 4.8-.6 7.2-1m68 180-2.5 5c1.5 2.2 3.2 4.6 4.9 7m94.5 22.5c-2.6 2.4-5.6 2.9-8.6 1.4-2.9-1.5-5.7-1.8-8.7-.4M175 171.6c.8-2.1 1.8-4.1 2.3-6.2.5-2.1.3-4.3-2.3-5.3m167.9 18.2c-.6 1.6-1.3 3.2-1.9 4.8-.7 2-1.2 4.1-2.1 6.8-5.1-1.9-9.2-3.4-13.3-4.9m227.8 8.1c-2.6 2.4-5.6 2.9-8.6 1.4-2.9-1.5-5.7-1.8-8.7-.4m-135.7-48.9c.2 2.1.4 4.2.4 6.2 0 1.6-.3 3.2-.4 4.8m-38.3-53.7c5.7 5.9 3.7 13.2 3.9 20.1 0 1.6.3 3.2.5 4.8m-98.4 49.9c-.2 4-.1 7.9 2.9 11m-38.9 4.8c3.4 2.3 7.3 4 8.2 8.6m73.8-80c-3.1 2.4-6.8 2.9-10.5 2.9m395.1 152c-1.6 2.4-3.1 4.7-4.8 7.3-1.6-.9-2.7-1.4-3.8-2m8.6 47.4c-1.6 2.4-3.1 4.7-4.8 7.3-1.6-.9-2.7-1.4-3.8-2M284.9 181.1c-1 1.6-1.7 3.4-2.9 4.7-1.5 1.5-3.5 2.6-5.2 3.9m375.9 86.9c-1.6 2.4-3.1 4.7-4.8 7.3-1.6-.9-2.7-1.4-3.8-2m8.6 47.4c-1.6 2.4-3.1 4.7-4.8 7.3-1.6-.9-2.7-1.4-3.8-2M361.6 171.1c-1.1 1.6-2.5 3.1-3.3 4.8-.9 2.2-1.2 4.6-2 7.6.6 1.3 1.8 3.5 2.9 5.8m-129-60.9c.6 2.4 1.2 4.9 2 8-.1.1-.8.6-1.5 1.1"/><path d="M642.1 245.4c.6-.5 1.4-1.5 1.9-1.3 1.5.4 2.8 1.3 4.4 2.1 2.7 4.8 8.2 9.5 2.8 16m37-16.8c.6-.5 1.4-1.5 1.9-1.3 1.5.4 2.8 1.3 4.4 2.1 2.7 4.8 8.2 9.5 2.8 16m-9.1 36c.6-.5 1.4-1.5 1.9-1.3 1.5.4 2.8 1.3 4.4 2.1 2.7 4.8 8.2 9.5 2.8 16m-55.2-16.8c.6-.5 1.4-1.5 1.9-1.3 1.5.4 2.8 1.3 4.4 2.1 2.7 4.8 8.2 9.5 2.8 16M223.5 180.2c-6.2 1-8.2 4.4-8.6 12.9m61.3-41.7c-7.6 2.1-15.1 4.5-23 1.9m-17.3 3.9c-2.8 2.2-3.9 5.2-3.8 8.6m-42.2-12c4.1 4.8 8.5 5.1 13.4 1m86.4-33.1c-3 .7-6 1.4-9.3 2.1-1.1 1.4-2.4 3-3.7 4.6m24.9 6.2c-3 .5-6.1 1-9.1 1.4m57.1 30.8c-2.9 2-5.9 4-9.1 6.2-2.2-.6-4.9-1.3-7.8-2.1-2.4 2.2-4.7 4.3-7.1 6.5M295.4 91c-5.7-4.1-10.5-1.2-15.3 1.9m30.7 81.5c1.9-1 3.8-2 5.5-2.9 3.1 2 6 3.8 9.1 5.8v6.7c.4.3.8.6 1.2 1-1.9 1.4-3.8 2.9-5.8 4.3m5.8-60.4c-2.2.2-4.5.4-6.7.4-1.3 0-2.6-.3-3.8-.4m22-11.1c-2.6.5-5.1 1-7.7 1.4m-140 9.7c.6 2.6 1.3 5.1 1.9 7.7m14.4 46c-2.2 2.6-4.5 5.1-6.7 7.7m352.9 60.9 4.9-3.5c2.3 1.6 4.6 3.3 7 4.9M395.2 103.9c-1 3.6 2.3 4.6 3.8 6.7m-108.9-6.7c-3.5.6-7 1.3-10.5 1.9m273.3-12.9 4.9-3.5c2.3 1.6 4.6 3.3 7 4.9M378.9 103c-3.7-4.5-7.8-2.7-11.8-1-.7 1.5-1.4 2.9-2.1 4.3m.9-3.8c-4.3-1.5-8.6-1.5-13.1 0-2.6-1.8-5.5-3.2-8.9-1.9m211 83.4c-2.1-.8-4.2-1.6-6.2-2.4"/><path d="M372.1 90c.3 3.2.6 6.4 1 9.6m181.3 241.2c-1.9-.3-3.8-.6-5.8-1m128.5-133.7c-1.9-.2-3.8-.3-5.8-.5m-43.1.5c-1.9-.2-3.8-.3-5.8-.5m8.7-49.9c.8 1.9 1.6 3.8 2.4 5.8m46.5 33.6c.8 1.9 1.6 3.8 2.4 5.8m-2.4-45.2c.8 1.9 1.6 3.8 2.4 5.8m-54.2 5.3c-1.9-.2-3.8-.3-5.8-.5m8.7 28.8c.8 1.9 1.6 3.8 2.4 5.8m43.6-34.1c-1.9-.2-3.8-.3-5.8-.5m-21.5 132.8c4.2 1 4.6 1.7 2.9 5.8m43.1-5.8c4.2 1 4.6 1.7 2.9 5.8M215.3 149.5c-1.1 1.4-2.2 2.9-3.4 4.3m127.2-24.9c.3 1.6.6 3.2 1 4.8m309.7 112.7c4.2 1 4.6 1.7 2.9 5.8m43.1-5.8c4.2 1 4.6 1.7 2.9 5.8m-438.3-97c.8 1.4 1.6 2.9 2.4 4.3m83.9-2.8c1 1.3 1.9 2.6 2.9 3.8m356.3 43.2c-1.3.5-2.6 1-3.8 1.4m-45.1-1.4c-1.3.5-2.6 1-3.8 1.4m-157.3 64.8v3.8m210-109.3c-1.3.5-2.6 1-3.8 1.4m-45.1-1.4c-1.3.5-2.6 1-3.8 1.4m.4 12.5c-1.3 1.8-2.6 3.5-3.8 5.3m52.8-5.3c-1.3 1.8-2.6 3.5-3.8 5.3m-202.9-72v3.8m206.7 102.2c-1.3 1.8-2.6 3.5-3.8 5.3m-45.2-5.3c-1.3 1.8-2.6 3.5-3.8 5.3m-307.9-49.4c.8 1.1 1.6 2.2 2.4 3.4m-173.6-20.2c1.1.8 2.2 1.6 3.4 2.4m7.2 205.4c-6.4-.3-12.8-.2-19.2-1.1-6.2-.9-8.5.2-10.1 6.3-.6 2.4-1.6 4.8-2.4 7.2 2 2.5 7.7 4.9 9.5 3.2 4.5-4.3 9.5-2.4 14.5-2.4 5.6 0 11.2-.4 16.8-.6v-9.3c-3.6-1.4-6.1-2.4-8.6-3.4M163.1 330c-3-.2-6.1-.5-9.9-.8-.9-2.9-2.3-6.3-2.9-9.8-.6-3.6 5.3-7.2 9.5-6.3 3.4.8 6.9 1.2 9.7 1.7 8.5-7.8 7.9-17.2 6.8-26-1-7.7-.2-15 .2-22.6.3-5.9.1-11.8.1-18.3-3-.3-6.1-.8-9.1-.9-4-.2-8-.1-12 0-3.9 0-5.9 1.9-6.2 5.8-.1 1.3.1 2.6-.1 3.8-.2 1.3-.7 2.5-1.4 4.9 3.2.8 6.8 3 9 2 6.3-2.8 12.8-2.5 19.3-2.6m60.4-12.9c-.8-.2-1.7-.6-2.4-.4-7.8 1.7-15.2 1.1-22.6-2.2-2.4-1.1-6.2-.2-9 .9-5.3 2.1-10.4 1.8-15.4-.2-3.8-1.5-7-.7-10.1 1.5m136.2 97.3c-.8-1.1-1.6-2.2-2.6-3.5.5-1.5 1.1-3.1 1.7-4.6-.5-1.7-.9-3.3-1.5-5.3h-11.6c-.5-1.9-.9-3.3-1.3-4.8-5.8-4.6-12.6-4-17.8 2.1 1.4 2.5 2.5 5.6 4.5 7.9 2.3 2.6 6.5 2 9-.4 1.7-1.5 3.5-2.9 5.3-4.3m-8.7-26c-2.4.8-4.8 1.7-7.2 2.4-1.7.5-3.4.6-5.8.9.6-8.4 1.1-15.9 1.7-24.4-3.6 0-6.2-.2-8.7.1-1.2.2-3.2 1.5-3.2 2.3 0 7.2-5.3 6.2-9.7 6.7-.3 0-.6.3-2 1-.3 3.3-.8 7.1-.8 11 0 3.5-1.4 4.7-4.9 4.9-3.2.2-6.4 1.8-9.6 2.2-3.1.4-6.4.1-9.6-.1-3 .2-6.2 1.1-9.1.5-4.3-.9-2.1-6-4.4-8 .4-2.2.6-4 1-5.7.4-1.8.9-3.5 1.2-4.6-.9-3-1.5-5.4-2.2-7.9m197-27.3c4.2-3.9 1.6-8.6 1.8-13.9h-27.3c-.5 3.7-1 6.8-1.5 9.8 8.1 7.6 17.9 3 27.1 5 .3 6.8.6 13.5.7 20.2 0 3-1.2 5.6-4.3 6.7-3 1.1-6.2 2.9-9.1-.4m4.5 78.1c-1.8-.5-3.5-1-5.3-1.4-4.3-1-7.1.1-12.2 4.5 1.1 2 2.3 4 3.5 6.2-.2 1.3-.4 2.7-.5 4-3.1.7-6.3 1.6-9.5 2-3.5.4-6.5 1.2-10.6-.9s-10.2-.9-15.3-.3c-3.1.3-6.1 2.3-8.6-1.1"/><path d="M193.3 261.4c-.2 5.3-.2 10.6-.5 15.8-.2 2.6-.8 5.2-1.3 8.7-5.3.5-10.1.9-15 1.4m189.4-12c-3.4.6-6.7 1.3-11.3 2.1-.4 3.2.2 7.3-1.4 10.2-2.3 4-2.1 8.3-1.8 12.1.3 3.9.4 7.4-.8 11.1m49.9 5.3c1-1.1 1.8-3 2.9-3.2 2.9-.6 6.1-.6 9.1-.8.3 4.2.9 8.2.9 12.2-.1 4.6-2.9 6.2-8 4.7-.4-4.3 1.2-9.7-4.1-12.1-2.4.1-4.4.2-7.1.4-1.4 1.5-3.1 3.3-4.7 5.2-1.8 2.1-1.9 4.2-.5 6.7 3.5 6.5 1.2 11.5-5.7 13.4-1.9.5-3.8 1.3-5.8 1.9-1.6-.6-3.2-1.3-4.8-1.9m-146.8 27.2c.3 2.7.7 5.4 1 8.2-4.7 2.1-8.3 2.8-12.7-.8-3.8-3.1-9-1.3-13.2.8-3.8 2-7 1.5-10.1-1.1m156.3-8.1c-5.5-3.7-25.2-5-30.7-1.9-.8.4-1.3 1.2-1.9 1.9"/><path d="M371.7 369.3c-1.7-1.3-3.4-2.6-5.6-4.3-14.1-.4-13 .6-17.2 4.3-.9 3.7-.7 7.1-2.3 8.5-2.7 2.5-6.2 1.9-10 .4-3.1-1.2-7.4-1.3-10.4 0-4.5 2-8.2 1.4-12.5-.9-.1-2.1-.2-4.5-.3-6.9.3 0 .5-.1.8-.1l-3-3.3m31.2-106.1c-3.1-2.2-2-4.6-.5-7.2 2-3.6.4-8.6-2.8-9.5-1.3-.4-2.9-.1-4.3 0l-12 .9m28.3 44.1c-4.9-2.7-9.8-.4-10.5 5.3-.4 3.6-.6 7.4-.5 11 .1 3.5-1.1 6-4.4 7.2-3.5 1.3-7.2 2.7-10.1-1.4m-174-47.5c-.6 5.1-1.3 10.2-1.9 15.3-.2 1.8-.4 3.5-.5 5.3-.1 3.5.7 6.5 4.8 7.2 4.9.8 7.7-.9 9.1-5.2.5-1.5 1.3-2.9 1.9-4.3M314.6 329c.2-2.6.4-5.1.6-7.6-6.2-4.7-14.7-2.8-17.4 3.8m98.8 37.9c-1.2-2.7-.8-5.2 1.4-7.2 2.9-2.6 5.9-5 9.1-7.8v28.8c-4.7.2-9.1 4.4-14.9 2.6m-200.3-8.7c1.8-2.8 11.4-4.1 12.5-3.9 3.7.6 7.7 1.6 11.5 1 3.8-.6 6.9-1.2 9.2 1.1 6.1 1 12.1-2.9 17.7 1.4m-37-39.9c2-2.1 3.7-4.2 7.2-4 2.5.2 5.2-5.5 4.8-9-.5-3.7-3.5-6.5-6.7-6.2-2.2.2-4.4.4-7 .6.5-3.9 1.4-7.1 1.1-10.2-.3-3.2-1.7-6.2-2.3-8.4-10.5-1.8-11.1 5.1-11.9 11.7-.2 1.7 0 3.5 0 5.3-4.1 1-7.8 1.8-12.2 2.8-3.9-.2-1.3-4.3-2.7-6.2"/><path d="M322.3 257.1c2 .4 4.1.8 7.1 1.4.1.3.5 1.6.6 3 .1 4.2 0 8.3 0 12.5 0 2.6.9 5.5-.2 7.6-2.4 4.7-1.6 9.1-1 14 .5 4.7-1.1 9.6-1.8 15-4.5.8-8.3 1.5-13.1 2.4 3.1-9.1 1.6-17.9 5.6-25.5"/><path d="M316.6 258.5c-5.1-2.5-9.6 1.1-15.6 1.4-1.5-2.6-3.4-5.8-5.1-8.8 1.5-4 4.6-5.4 8.3-5.5 5.9-.2 11.8 0 18.6 0-2.2 4.8 3.3 11.5-5.8 13.6-2.8 10.1-1.3 20.3.1 30.6m-84.5 33.5c-5.2 1.1-8.2 4.6-9.5 10.2.7 1 1.7 2.4 2.4 3.3 7.4 3.1 11.4-1.8 16.2-5.7-1.7-4-2.9-7.9-8.1-7.8m0 14.8c2.7 4 1.1 7.7-.5 11.4-2.4.5-4.8.9-7.4 1.4-1.2 2-2.4 4.1-3.4 5.8 2.4 7 8.8 8.2 18.9 5.4m46.6 3.4c-8.1-1.5-15.8.8-23.5 2.9m19.2-11.5c-3.5 2.4-7 4.1-11.6 2.1-1.5-.7-3.8.3-5.2.5-1.3 2.3-2.3 4.2-3.4 6.1m149.6-77.8c2.2 2 2.1 4.6.9 6.7-3.1 5.4-2.2 11.1-2.3 16.8"/><path d="M263.3 355.4c.3-5.7 4.3-7.9 9.1-9 1.5-.3 3.2 0 4.8.5 1.8.5 3.7 1.4 5.3 2.4 3.3 2.1 2.1 5.2 1.3 8.3 5.7 4 6.4 9.9 6.4 16.2 0 3.8-2.7 4.5-5.3 4.7-11.3.8-22.7 1.3-34 2-3.3.2-6.2-.4-7.7-2.8v-8.3c1.9-1.1 3.4-1.9 4.8-2.7m73.3-16.1c-3.7 1.3-4.4 4.1-4.4 7.7 0 5.3-6.8 8.9-11.4 6.2M283 324.7c-3.3-9-8.2-10.9-20.4-7.5-.9 4.5-1.9 9.2-3 14.5 3.8.8 6.9 1.5 10.3 2.3 1.5-1.8 3.1-3.6 5.2-6 1.2.1 3.1.3 5 .5m62.3-83.4c3.1-1.6 6.1-.7 9.1.4 5.2 1.9 10.3 1.5 15.8.8 6.6-.8 13.4.7 20.1 1.1m-148.1 12.1c-.7-3.7-1.3-7.4-2-11.4 4.6-4.9 10.4-1.8 15.9-1 3.6.5 7 1.5 10.6 2.3m-37.4 13.9c1.1 4.3 1.7 8.9 3.5 12.9 2.1 4.7 1.7 8.2-2 11.6-.7.6-1 1.6-1.5 2.4m161.1-33.1c-2.3 1.1-4.6 2.3-6.9 3.4-.5-.2-1-.4-1.4-.6-.6 7.2-1.2 14.5-1.7 21.3-3 .9-5.9 1.7-8.6 2.8-3.7 1.6-4.5 5-4.3 8.6.2 4.5.6 9 .9 13.4m-.5 1c-1.6 2.1-3.1 4.2-4.7 6.2h-4.4c-6.7 6.1-6.8 6.4-1.9 14.4 2.1.5 4.2 1 6.2 1.4m-153-65.2c-.6 1.9-1.8 3.8-1.8 5.8-.1 5.1.2 10.2.4 15.3"/><path d="M280.6 262.9h-25c-2.9-2.4-7.4-1.7-11.8-2.3-7.4-1-14 2.2-21.2 1.9-2.7-.1-5.5 1.5-9 2.5 1.7 1.4 2.7 2.3 3.1 2.6.4 6.5.8 12.4 1.1 18.5h-11.7c-.8 1.8-2 4.4-3.2 7m99.7-32.6c.2 3.5.3 7 .5 10.5.2 4 .4 8 .5 12 .1 2.9-.3 5.8.1 8.6.6 4.6 1.7 9.2 2.7 14.5.4.2 1.7.7 3.3 1.4 1.7-1.1 3.6-2.3 5.5-3.5m-73.5-13.8c.2 6.6.3 13.1.5 19.7 0 .3.3.6.5 1m22.5 47.9c-3.8-5.7-12.1-7-17.3-2.9-1.6 1.3-3.5 2.3-5.3 3.4m148.3-99.8c-2.4 2-2.6 4.7-1.4 7.2 2.2 4.5 4.1 8.9 1.5 14-.3.5.6 1.6.9 2.4"/><path d="M243.2 261.9c1.2 5.2-.1 10.3-.9 15.4-.2 1.7.3 3.5.4 5.3m16.8 41.6c-6.6.5-13.1 1-19.7 1.4M387 295.5c.3 3.4 1.1 6.8.9 10.1-.4 4.9-4.4 7.4-8.5 6.3-2.7-.7-3.8-2.5-3.3-4.8.8-3.9 2.2-7.7 3.3-11.5m-214.9-33.2c-.2 3.8-.4 7.7-.4 11.5 0 2.6.3 5.1.4 7.2 5.1 2.5 7.5-.6 10.1-3.4m164 69.1c.6 1.3 1.2 2.6 1.9 3.8 2.3 3.6 1.7 5.8-1.4 10.1-2.5 3.4-5.1 1.8-7.7.8-1.1-.4-2.7-1.5-2.8-2.3-.2-3.1-2.5-4.1-4.4-5.8-1.2-1-1.8-2.7-2.4-4.3-.6-1.6-.9-3.3-1.3-4.7-6.7-.4-11.6 1.2-14.6 7.1-.9 1.9-2.8 3.2-4.2 4.8m-140-65.6c1.1 7.5.5 14.8-3.4 21.6m209.6 53.2c2.6-3.9 5.2-7.7 8.2-12-2.1-1.9-3.7-3.3-5.3-4.8m-146.3 1.9h-7.2c-3.8-.1-6.5 1.2-7.2 5.3-.1.5-.9 1-1.4 1.4-2.2-.7-4.4-1.4-7-2.2-3.2 5-7.2 6.5-12.8 3.8-1.9-.9-4.4-.5-6.8-.6-.3 2.3-.6 4-.9 5.8m11.6-17.3c-1-3.3-2.2-6.5-.5-10.1 3.4-7 9.5-8.5 16.5-3.7-.4 1.7-.8 3.4-1.3 5.4 3.5.7 6.9 1.5 10.2 2.2m79.7-83c-2 1-4.1 2-5.1 2.6-1.9 16.1 1.5 31.1-1.3 47 1.6 1.4 3.8 3.5 5.8 5.2 4.1-.7 7.7-1.2 8.8-5.4m-39.4-14.4c2.9 5.6.8 11.5 1.4 17.3m119.9 17.7c-2.1-.8-4.1-1.7-6-2.5-5 1.1-7 4.8-8.9 8.7M219.7 294c.8-.5 1.6-.9 2.4-1.4 4.4-2.9 5.1-2.7 8.6.9v18.2m48.9-49.8c.3-1.8.4-3.6 1-5.3 1.7-4.4 1.3-6.7-3-8.5-2.8-1.2-5.1-4.6-9.1-2.1-5.1 3.2-6.2 5.4-4.2 12.1.3 1.2.9 2.2 1.4 3.4m95.9 51.7c4 2.6 7.9 5.3 4.8 11.5-.8.6-2.1 1.5-3.4 2.4m-2.3 20.2c-.1 3.9-.3 7.7-.4 11.5h-1.1c1 1.7 2 3.5 3 5.2m38.3-61.8c-.8 1.8-1.5 3.6-2.4 5.3-2.9 5.2-5.6 5.6-10.5 1.9m-24.1 19.2c2.6 1.9 5.3 3.7 7.6 5.8 1.1 1 2 2.9 1.9 4.2-.2 2.7-1.2 5.4-2.1 8.8-2.9-.2-6.1-.4-9.3-.6M354 260c.2 5.4.3 10.9.5 16.3m-140.6-12c-9.2-2.1-18.1-5.5-27.8-3-2.9.7-6 .1-9.1.1m113.2 105.5c4.6-.8 9.2-1.5 15-2.5 2.2-3.7-2.7-6.1-4.6-8.4-5.7-6.7-8-6.8-15.2-2.6m-107.9-6.1c2.9-6.6 1.3-12.7-1.6-18.6-11.7-2.2-17.2 3-15.1 14.3-.9 1.1-2 2.5-3.1 3.8 1.5 5 5.7 2.9 8.8 3.4M398.6 283h-.5c-2.2.6-5.7.6-6.4 2-1.4 2.7-1.4 6.2-1.6 9.5-.1 2.3 1.6 4.8-1 6.7m-1.6 66.7c-2.6-2.9-2.6-2.9-11.1-2.9-1.5 1.7-3.3 3.6-5 5.5l.9.3-.6 8.4m-129.5-1.7c-5.1 2.9-10.2 5.2-15.8 1.4m38.4.5c-.3-3.7-.2-7.5-1.1-11-.8-2.7-8.1-4.1-12.8-2.9-5 1.2-8.7-1.1-9.1-5.8m-90.7-68.6c-2.4 6.4-2.2 13-2.6 19.6 1.8 1.3 3.1 2.4 4.5 3.4m103.1-50.3c-1.9 5.6-2.5 11.1-.1 16.8.6 1.5-.7 3.8-.8 5.7-.1 2.4.3 4.8.4 7.2"/><path d="M199.5 315.1c-3.3 4.6-5.7 9.3-1.9 14.9m116.1 47.5c-1.7 1.5-3.1 2.5-5.8 1.1-2.7-1.4-5.9-.9-9.1.2-3.3 1.1-6.9 1.5-10-.8m101.6-48c2.6.8 5.1 1.8 7.7 2.4 2.8.6 5.2-.2 6.7-2.8M365.9 307c.3 1.4.6 2.9 1.1 5.1 1.7.3 3.6.6 5.4.9 1.1-1.7 2.1-3.1 3.1-4.5m25-47.1c.6 7.1 2.3 14.3-.6 19.2.4 8.1.7 14.4 1.1 20.6m-217.3 49.4c1-1.3 1.9-2.6 2.7-3.6 4.8.3 9.5.5 14.6.8v7.6m53.7-75.8c-4 1.2-7.9 2.4-12.4 3.8.6 5.4-2.5 7.9-8.2 7.7M354 313.2c-1.1-.7-2.1-1.4-3.2-2.1v1c-3.4.9-6.8 1.9-10.3 2.5-5.4.9-8.4 7-6.2 13m-3.8-68.1c4.6-.8 9.1-1.7 13.1-2.4-.8 4.4-1.4 7.9-2 11.5-.5 3.3-.7 6.8-1.5 10-1.1 4.2.6 7 3.4 9.6m-120-39.3c.3 4.3.6 8.6 1 12.9m-41.3 96c.2-1.9.4-3.9.6-6.1-5.4-4.7-10.5-6.7-17.4-1.7 1.2 4.2 2.6 8.6 3.9 13.1m207.2-80.6c.2 2.9.5 5.8.4 8.6 0 3.1 1.5 4.2 4.4 3.8 2.4-.3 4.8-.6 7.2-1M176 328.6c.8-2.1 1.8-4.1 2.3-6.2.5-2.1.3-4.3-2.3-5.3m167.9 18.2c-.6 1.6-1.3 3.2-1.9 4.8-.7 2-1.2 4.1-2.1 6.8-5.1-1.9-9.2-3.4-13.3-4.9m74.8-39.8c.2 2.1.4 4.2.4 6.2 0 1.6-.3 3.2-.4 4.8m-38.3-53.7c5.7 5.9 3.7 13.2 3.9 20.1 0 1.6.3 3.2.5 4.8m-98.4 49.9c-.2 4-.1 7.9 2.9 11m-38.9 4.8c3.4 2.3 7.3 4 8.2 8.6m73.8-80c-3.1 2.4-6.8 2.9-10.6 2.9m-18.6 56.5c-1 1.6-1.7 3.4-2.9 4.7-1.5 1.5-3.5 2.6-5.2 3.9m84.8-18.6c-1.1 1.6-2.5 3.1-3.3 4.8-.9 2.2-1.2 4.6-2 7.6.6 1.3 1.8 3.5 2.9 5.8m-129-60.9c.6 2.4 1.2 4.9 2 8-.1.1-.8.6-1.5 1.1m-7.2 42.7c-6.2 1-8.2 4.4-8.6 12.9m61.3-41.7c-7.6 2.1-15.1 4.5-23 1.9m-17.3 3.9c-2.8 2.2-3.9 5.2-3.8 8.6m-42.2-12c4.1 4.8 8.5 5.1 13.4 1m86.4-33.1c-3 .7-6 1.4-9.3 2.1-1.1 1.4-2.4 3-3.7 4.6m24.9 6.2c-3 .5-6.1 1-9.1 1.4m57.1 30.8c-2.9 2-5.9 4-9.1 6.2-2.2-.6-4.9-1.3-7.8-2.1-2.4 2.2-4.7 4.3-7.1 6.5M296.4 248c-5.7-4.1-10.5-1.2-15.3 1.9"/><path d="M311.8 331.4c1.9-1 3.8-2 5.5-2.9 3.1 2 6 3.8 9.1 5.8v6.7c.4.3.8.6 1.2 1-1.9 1.4-3.8 2.9-5.8 4.3m5.8-60.4c-2.2.2-4.5.4-6.7.4-1.3 0-2.6-.3-3.8-.4m22-11.1c-2.6.5-5.1 1-7.7 1.4m-140 9.7c.6 2.6 1.3 5.1 1.9 7.7m14.4 46c-2.2 2.6-4.5 5.1-6.7 7.7m195.2-86.4c-1 3.6 2.3 4.6 3.8 6.7m-108.9-6.7c-3.5.6-7 1.3-10.5 1.9m99.3-2.8c-3.7-4.5-7.8-2.7-11.8-1-.7 1.5-1.4 2.9-2.1 4.3m.9-3.8c-4.3-1.5-8.6-1.5-13.1 0-2.6-1.8-5.5-3.2-8.9-1.9"/><path d="M373.1 247c.3 3.2.6 6.4 1 9.6m-157.8 49.9c-1.1 1.4-2.2 2.9-3.4 4.3m127.2-24.9c.3 1.6.6 3.2 1 4.8m-79.7 21.5c.8 1.4 1.6 2.9 2.4 4.3m83.9-2.8c1 1.3 1.9 2.6 2.9 3.8m-7.7 13c.8 1.1 1.6 2.2 2.4 3.4m-173.6-20.2c1.1.8 2.2 1.6 3.4 2.4"/></g><g id="labels" font-family="'Helvetica'" font-size="10"><text transform="translate(42.714 156.5)">Water Spray</text><text transform="translate(46.599 168.5)">for 4 hours</text><text transform="translate(42.429 310.5)">100 um ABA</text><text transform="translate(46.599 322.5)">for 4 hours</text><text transform="translate(232.697 421.5)">Cross Section of Leaf</text><text transform="translate(472.362 421.5)">Surface View of Leaf</text><text transform="translate(637.608 131.5)">with</text><text transform="translate(675.658 131.5)">without</text><text transform="translate(726.5 132.5)">Actinomycin and Cordycepin</text><text transform="translate(726.5 174.5)">GCs without ABA treatment</text><text transform="translate(726.5 215.5)">GCs with ABA treatment</text><text transform="translate(726.5 269.5)">Mesophyll cells without ABA</text><text transform="translate(726.5 319.5)">Mesophyll cells with ABA</text></g></svg>