<svg id="TissueSpecificStemEpidermis_svg" xmlns="http://www.w3.org/2000/svg" viewBox="140 80 600 470"><g id="samples"><g id="Stem_epidermis_top_of_stem"><path fill="none" d="M531.285 97.763c-1.964-3.353-5.215-5.862-8.965-6.894-3.473-.955-8.556-.794-11.561 1.512-.039.03-.082.052-.121.082-7.399.946-13.308 7.168-13.308 14.871 0 8.072 6.822 15.139 15 15 4.604-.078 9.836-1.18 13.571-4.048 1.012-.782 2.021-1.564 3.033-2.346 1.859-1.872 3.146-4.078 3.857-6.619 1.071-3.871.523-8.094-1.506-11.558z"/><path fill="none" d="M534.297 113.529c2.621-7.136.51-15.108-4.688-20.469-3.944-4.065-9.536-5.139-14.573-3.721-11.866-6.45-30.776-.977-36.915 11.09-.464.913-.854 1.838-1.204 2.771-3.688 1.858-6.605 5.257-8.045 9.478-1.941 5.691-3.663 10.158-6.907 15.417-.335.543-.667 1.081-.997 1.619-2.966 1.893-5.221 4.73-5.763 8.297-.13 1.071-.323 2.131-.581 3.179-.021.063-.033.11-.051.169-.619 1.396-1.194 2.826-1.701 4.319-.903 2.66-.953 5.166-.396 7.438-2.009 6.625-3.417 13.43-4.174 20.358-.757 6.928.396 13.673.87 20.562.484 7.042.153 12.641-1.301 18.309-2.029 7.915 2.496 16.256 10.477 18.452 5.804 1.596 12.086-.618 15.747-5.133.389.385.784.758 1.197 1.107 6.849 5.792 15.167 7.262 22.688 3.727 4.577 1.086 9.646.099 13.627-3.893 4.444-4.456 8.823-9.147 11.865-14.561 2.259-1.172 4.284-2.97 5.813-5.475 4.437-7.266 5.669-18.127 2.29-26.445.27-1.128.425-2.286.425-3.458v-2.333c0-2.512-.646-4.975-1.827-7.156-.016-.055-.026-.11-.042-.166-.362-1.284-.9-2.475-1.561-3.578 1.867-4.489 1.659-9.918-.628-14.195.524-2.235 1.081-4.463 1.469-6.732 1.079-6.344 1.072-12.755.518-19.136.493-1.198.845-2.458 1.042-3.75 1.422-1.922 2.562-4.011 3.326-6.091z"/></g><path fill="none" d="M522.72 340.389c-4.826 3.198-9.934 5.889-15.127 8.416-1.065-.211-2.161-.269-3.26-.138-2.016.239-4.013.552-6.004.89-.779-1.717-1.647-3.311-2.743-4.902-.13-.189-.253-.383-.381-.572.086-.589.102-1.189.046-1.784.496-.411.964-.85 1.354-1.354 2.444-3.158 3.527-4.66 4.934-8.373.831-2.199 1.058-4.615 1.295-6.932.282-2.758.041-5.582-.438-8.338 1.564-4.047.672-8.82-1.625-12.622 1.439-2.663.188-6.844-3.771-6.844-1.12 0-2.019.34-2.706.881-4.398-2.08-8.835-1.686-12.677.325-.989.066-1.977.232-2.938.497-3.129.86-6.405 2.956-8.291 5.754-1.17.774-2.332 1.562-3.451 2.413-3.495 2.662-6.466 5.681-6.771 10.297-.049.738.09 1.447.365 2.096-.912 2.156-1.629 4.377-2.183 6.512-1.692 6.537-1.022 13.105.14 19.646.118.597.205 1.022.269 1.319.04.826.047 1.65.003 2.479.315-1.592.304-1.501-.035.273-.26 1.395-.704 2.752-1.133 4.1-.16.508-2.237 5.626-1.134 3.073-1.286 2.974-2.569 5.944-3.827 8.931-2.137 5.071-3.352 10.228-3.888 15.708-.305 3.104-.268 6.339-.131 9.582-1.038 4.231-1.233 8.646-.689 13.001-.205-.554.067 1.655.019 3.353-.091.684-.188 1.43-.238 1.754-.227 1.45-.452 2.898-.669 4.351-1.022 6.836-1.952 13.208-.525 20.053.938 4.501 4.16 8.343 7.884 10.812 5.312 3.523 11.5 2.958 16.73.236.803.308 1.598.646 2.389.903 1.754.576 3.593.942 5.378 1.409.446.118.893.247 1.331.386.009.067.29.276.877.646 8.603 6.273 24.026-2.028 22.571-12.952-2.111-15.843-6.404-32.594-8.334-47.667-.083-.645-.198-1.277-.331-1.904 2.41-1.096 4.978-1.463 7.915-1.392 4.816.116 8.759-1.975 10.931-6.343.515-1.031.714-2.042.682-2.996.395-.494.772-1.002 1.127-1.532 1.707-.68 3.131-2.051 3.465-3.905.306-1.703.748-3.346 1.349-4.969.053-.127.085-.212.118-.297.156-.346.314-.689.479-1.032.039-.084.083-.166.123-.249 2.296-2.833 4.638-5.783 6.325-9.02.011-.016.014-.031.021-.049 1.37-.739 2.261-2.006 2.67-3.435 5.369-4.957-.826-14.914-7.49-10.495zm-50.372 104.198c.911-.549 1.791-1.155 2.619-1.823.284-.229.568-.458.854-.688-1.11 1.264-2.267 2.099-3.473 2.511z" id="Stem_epidermis_bottom_of_stem"/><g id="Whole_stem_top_of_stem"><path fill="none" d="M609.508 123.265c-.005.062-.008.138-.008.235 0-.079.007-.156.008-.235z"/><path fill="none" d="M660.727 192.991c-.616-1.42-1.396-2.746-2.259-4.023-.249-.492-.495-.985-.741-1.477-.164-.33.62-.563.383-.728-1.314-2.139-3.049-4.045-4.383-6.272-.297-.496-1.701-1.77-2.137-1.886-1.182-1.885-2.15-2.885-2.661-5.136-.229-1.021-1.007-1.445-1.807-1.427.279-6.322.207-12.611-.401-18.914.094-.172.17-.365.208-.596.508-3.041 1.056-6.06 2-9 .255-.791.025-1.433-.425-1.863 1.389-2.075 2.663-4.203 3.425-6.637.607-1.942-1.957-3.332-3.343-1.946l-.877.877c-.151-.519-.315-1.033-.51-1.536.521-1.75-.198-3.578-.199-5.427 0-.622-.012-1.241-.074-1.86-.03-.3.941-.584.913-.857.096-.75.161-1.509.161-2.282 0-10.085-8.415-18.5-18.5-18.5-3.216 0-6.258.862-8.915 2.355-2.138.857-3.998 2.097-5.556 3.627-.461-.157-.996-.104-1.539.291-3.094 2.252-4.694 6.19-4.49 9.977.032.605.284 1.063.642 1.384-.072.701-.126 1.41-.134 2.131.071-.92.652 2.045 1.006 4.74-1.19.681-1.258 2.581-.182 3.382-.002.03-.015.058-.015.088-.022-.044-.043-.08-.067-.132-.407 1.03-.725 2.102-.938 3.205-1.949-1.614-4.183-2.884-6.304-4.275-2.165-1.418-4.167 2.047-2.02 3.454.166.109.334.214.502.322 4.252 4.562 5.048 5.257 7.922 8.88.044.522 2.077 1.045 2.086 1.571-.002-.101 2.021 11.463 1.386 10.545.518 6.477 2.491 12.944 2.114 19.455-.123 2.125-1.747 4.164-1.004 6.05-.616.694-1.254 1.372-1.91 2.036-1.813 1.835 1.013 4.665 2.828 2.828.24-.243.479-.491.716-.739.1.651.229 1.301.424 1.946.118.388.209.781.284 1.176.183 1.452.383 2.903.716 4.324.062.254.146.495.222.742-1.574 7.614 2.66 15.636 12.726 15.636.983 0 1.909-.088 2.78-.251.854.156 1.773.443 2.72.251 16-3.25 11.502-9.5 11.825-18.516.081-.67.104-1.347.101-2.026.373-.071.726-.247.988-.543.343-.384.581-.803.748-1.247.775.734 1.563 1.458 2.336 2.19-.061.516.1 1.068.588 1.557l3.153 3.153c.167.369.431.612.749.75l.598.598c.182.181.372.304.566.399.042.065.079.132.121.196.519 1.191 1.649 1.26 2.517.737 1.018-.432 1.714-1.567.937-2.757z"/></g><g id="Whole_stem_bottom_of_stem"><path fill="none" d="M609.508 335.266c-.005.062-.008.139-.008.234 0-.079.007-.156.008-.234z"/><path fill="none" d="M660.727 404.99c-.616-1.42-1.396-2.745-2.259-4.022-.249-.491-.495-.983-.741-1.478-.164-.33.62-.562.383-.729-1.314-2.14-3.049-4.045-4.383-6.271-.297-.496-1.701-1.771-2.137-1.887-1.182-1.886-2.15-2.886-2.661-5.137-.229-1.021-1.007-1.443-1.807-1.428.279-6.322.207-12.611-.401-18.914.094-.172.17-.365.208-.596.508-3.041 1.056-6.062 2-9 .255-.791.025-1.435-.425-1.863 1.389-2.074 2.663-4.202 3.425-6.637.607-1.941-1.957-3.331-3.343-1.945l-.877.877c-.151-.52-.315-1.033-.51-1.535.521-1.751-.198-3.578-.199-5.428 0-.622-.012-1.241-.074-1.859-.03-.301.941-.586.913-.856.096-.751.161-1.509.161-2.282 0-10.085-8.415-18.5-18.5-18.5-3.216 0-6.258.861-8.915 2.355-2.138.854-3.998 2.096-5.556 3.627-.461-.158-.996-.105-1.539.291-3.094 2.252-4.694 6.188-4.49 9.977.032.605.284 1.062.642 1.384-.072.701-.126 1.41-.134 2.132.071-.921.652 2.045 1.006 4.739-1.19.681-1.258 2.581-.182 3.382-.002.031-.015.061-.015.09-.022-.045-.043-.08-.067-.133-.407 1.029-.725 2.102-.938 3.204-1.949-1.614-4.183-2.884-6.304-4.272-2.165-1.42-4.167 2.047-2.02 3.451.166.109.334.217.502.322 4.252 4.562 5.048 5.258 7.922 8.881.044.521 2.077 1.045 2.086 1.57-.002-.102 2.021 11.463 1.386 10.545.518 6.479 2.491 12.945 2.114 19.455-.123 2.125-1.747 4.164-1.004 6.051-.616.693-1.254 1.371-1.91 2.035-1.813 1.835 1.013 4.664 2.828 2.828.24-.243.479-.491.716-.739.1.651.229 1.301.424 1.946.118.388.209.78.284 1.176.183 1.452.383 2.902.716 4.324.062.254.146.494.222.742-1.574 7.616 2.66 15.637 12.726 15.637.983 0 1.909-.088 2.78-.251.854.155 1.773.442 2.72.251 16-3.25 11.502-9.5 11.825-18.516.081-.67.104-1.35.101-2.027.373-.07.726-.246.988-.543.343-.384.581-.803.748-1.246.775.734 1.563 1.457 2.336 2.189-.061.516.1 1.066.588 1.557l3.153 3.152c.167.367.431.61.749.75l.598.598c.182.181.372.304.566.398.042.063.079.133.121.195.519 1.19 1.649 1.26 2.517.736 1.018-.427 1.714-1.562.937-2.753z"/></g></g><g id="outlines"><path fill="none" stroke="#000000" stroke-width=".75" stroke-linecap="round" stroke-linejoin="round" stroke-miterlimit="10" d="M658.45 341.212c-10.167 7.31-12.438 17.556-11.103 29.275.372 3.271.062 6.62.057 9.934-.006 3.514.895 5.94 3.505 9.132 6.158 7.532 11.959 15.877 13.062 26.212M658.45 128.854c-10.167 7.309-12.438 17.554-11.103 29.275.372 3.271.062 6.621.057 9.934-.006 3.514.895 5.939 3.505 9.132 6.158 7.532 11.959 15.876 13.062 26.211M648.511 348.393c-2.077-4.275-1.254-8.846-1.03-13.25.573-11.261-6.315-18.567-17.744-18.209-8.672.271-16.424 2.453-19.776 11.615-.713 1.947-1.453 3.946-.402 6.702 1.223 3.201.689 7.288-.388 11.448-4.923-3.977-12.255-3.307-15.882-9.354M648.511 136.033c-2.077-4.275-1.254-8.844-1.03-13.25.573-11.259-6.315-18.567-17.744-18.208-8.672.271-16.424 2.454-19.776 11.616-.713 1.947-1.453 3.946-.402 6.703 1.223 3.201.689 7.287-.388 11.447-4.923-3.974-12.255-3.305-15.882-9.352"/><path fill="none" stroke="#000000" stroke-width=".75" stroke-linecap="round" stroke-linejoin="round" stroke-miterlimit="10" d="M624.764 322.436c-3.23 1.188-4.459 4.447-6.477 6.761-2.161 2.474 1.331 7.919 4.82 8.141 2.073.132 4.029.308 6.12.962 4.606 1.443 9.438-2.572 9.895-7.576.396-4.365-2.614-7.42-7.732-7.714-2.018-.114-4.048-.019-6.071-.019M624.764 110.078c-3.23 1.186-4.459 4.447-6.477 6.758-2.161 2.474 1.331 7.919 4.82 8.141 2.073.132 4.029.307 6.12.962 4.606 1.442 9.438-2.573 9.895-7.578.396-4.365-2.614-7.419-7.732-7.712-2.018-.116-4.048-.019-6.071-.019M647.958 398.093c-.084 3.866-1.473 7.482-.292 11.679.879 3.122-1.146 6.724-4.65 8.804-6.15 3.65-17.985 2.903-22.668-1.705-1.855-1.831-2.651-3.59-2.499-6.644.189-3.75-.036-7.935-1.921-11.58M647.958 185.734c-.084 3.866-1.473 7.482-.292 11.679.879 3.121-1.146 6.721-4.65 8.801-6.15 3.652-17.985 2.905-22.668-1.705-1.855-1.83-2.651-3.589-2.499-6.64.189-3.751-.036-7.935-1.921-11.583M466.645 314.152c-.688 5.891 1.982 11.296 2.404 17.104.793 10.91 2.75 21.735 4.223 32.598M492.6 166.406c1.154-6.066.849-12.352 3.191-18.272.757-1.913.351-4.419-.498-6.572-14.246 1.372-16.8 12.051-9.872 19.875M488.182 385.943c-4.188 7.448-.815 15.062-.728 22.645.079 6.684 5.721 10.812 6.325 17.109.566 5.925 1.766 11.789 2.687 17.679M454.495 362.749c.071 12.728 2.425 25.152 4.966 37.554.036.178.018.368.003.551-.741 9.434 2.054 18.727 1.106 28.165M487.63 87.436c-6.425 8.536-12.022 16.908-8.091 28.835 1.33 4.034-.836 9.51-2.229 14.29-1.729 5.94-1.798 12.373-5.693 17.621M475.48 105.107c-3.014 1.741-4.851 4.035-5.668 7.699-1.062 4.735-3.332 9.188-4.718 13.871-.37 1.25-1.039 2.534-1.776 2.625-7.762.964-7.531 7.745-9.287 12.835-1.748 5.07-3.117 10.38.418 15.465.345.496.353 1.667 0 2.143-6.126 8.297-2.635 18.117-4.392 27.09-.042.212-.351.372-.532.556M478.242 400.302c3.783 5.517 3.098 12.139 4.289 18.249 1.471 7.548 2.188 15.232 4.457 22.646.354 1.166.396 2.096 1.746 2.169 2.207.121 1.729-1.57 1.627-2.746-.486-5.527-1.163-11.04-1.566-16.573-.104-1.43-.678-3.062.491-4.414M646.302 336.794c-8.47 8.228-18.314 9.813-29.27 6.075M646.302 124.436c-8.47 8.226-18.314 9.814-29.27 6.074M474.376 371.585c-.239 8.775 2.681 17.193 2.979 25.948.068 2.075-.388 4.057-.22 6.082M463.331 391.466c-.218 11.631 2.39 22.899 4.464 34.23.34 1.857.42 3.789 2.658 5.079 3.549 2.044 4.163 5.49 2.818 9.287M532.913 99.585c-5.176 5.949-7.097 13.585-10.325 20.511-1.172 2.517-2.252 4.597-4.585 5.997M531.809 334.033c-8.148 7.535-18.838 11.107-27.629 17.648-.234.178-.721.002-1.088.024-6.615.421-13.376.118-19.458 4.756-2.437 7.685-2.314 15.909 2.253 24.006 2.92 5.172 4.708 6.547 10.018 4.889 3.681-1.15 7.292-1.965 11.056-.52"/><path fill="none" stroke="#000000" stroke-width=".75" stroke-linecap="round" stroke-linejoin="round" stroke-miterlimit="10" d="M450.077 387.048c1.261 5.268 2.209 10.522 2.321 16.013.145 7.048 2.594 13.875 2.695 20.986.012.742.491 1.799 1.086 2.16 6.667 4.042 5.602 10.994 6.6 17.169M531.257 348.943c-5.339 8.283-10.677 16.565-16.016 24.851M465.54 357.229c3.222 13.059 4.94 26.334 4.892 39.762-.035 9.996 2.52 19.788 1.953 29.833-.064 1.196-.494 2.562-.218 3.854M532.913 187.943c-1.099 8.325-1.771 16.803-8.283 23.194M457.256 138.794c5.257 2.259 7.396 8.24 12.668 10.571 1.415.626.457 2.504.537 3.79.073 1.16-.758 2.329-1.204 3.238-3.339 6.804-2.312 13.134 1.224 19.418.235.419.029 1.087.029 1.639M477.689 408.033c-.048 7.259.24 14.466 2.17 21.548 1.252 4.597-3.27 4.382-5.483 6.062M504.749 160.332c-2.649 3.455-5.762 6.397-9.37 8.862-2.688 1.837-3.315 5.142-5.02 7.684-5.376 8.03-4.438 17.104-4.241 25.973.047 2.141-.006 3.661-1.159 5.581-3.739 6.227-4.597 13.229-4.509 20.378M532.913 152.6c-1.839 1.607-2.834 3.375-2.897 6.071-.07 3.098-2.914 4.944-4.771 7.232-2.104 2.591-2.147 5.166 1.596 6.577M485.973 332.376c1.355 6.683 2.824 13.377-2.209 19.329M460.018 316.361c.062 6.338 2.562 12.39 2.209 18.774"/><path fill="none" stroke="#000000" stroke-width=".75" stroke-linecap="round" stroke-linejoin="round" stroke-miterlimit="10" d="M481.003 154.257c-5.122 4.7-5.999 10.667-4.94 17.114.605 3.692-.607 5.856-4.457 6.58-2.156.406-2.955 2.234-4.406 3.366-1.545 1.206-1.771 3.922-4.418 3.865M448.42 383.734c-1.104 12.353-.747 24.684.553 37M514.137 87.436c1.619.163 2.729 1.684 5.276.663-1.861 4.961-3.272 8.783-4.73 12.588-1.166 3.044-.334 6.461-1.251 9.342-2.174 6.827-4.96 13.515-9.271 19.35-2.661 3.604-3.496 7.208-2.271 11.65 1.187 4.294 1.347 8.864 2.401 13.204.523 2.146-1.119 6.865 4.322 4.994M600.466 131.615c1.825 4.545 5.52 7.327 10.351 11.129-1.161-3.398 1.688-5.607-.963-7.816M600.466 343.975c1.825 4.543 5.52 7.325 10.351 11.129-1.161-3.396 1.688-5.605-.963-7.814M532.913 180.212v4.699c-4.767 1.12-8.88 2.55-13.254 2.48M493.704 388.152c2.536 3.183.307 6.636.45 9.942.289 6.697 3.646 12.443 5.179 18.746 2.136 8.786 2.185 17.63 2.103 26.533M521.316 212.242c-2.906-2.574-6.076-4.673-9.94-5.673 0-1.69.131-3.542-.026-5.37-.371-4.314-8.088-10.229-12.123-9.39-2.777.578-5.242 5.22-3.818 7.706 2.377 4.147 1.7 8.969 3.48 13.415 1.876 4.68-3.386 7.556-9.05 5.387M480.45 219.973c-2.001-.636-4.001-1.272-6.232-1.982-3.556 3.088-2.415 7.128-2.603 10.818M624.764 378.212c2.098 10.554-5.146 15.699-12.146 20.985M458.913 366.062c2.497 7.15 3.643 14.538 3.866 22.09M624.764 165.854c2.098 10.553-5.146 15.699-12.146 20.985M507.51 107.316c-1.225 5.862-4.026 11.016-7.179 16.015M494.257 118.361c-.072 7.928-7.955 12.03-9.496 19.306-.274 1.305-2.425 1.263-3.688 1.832-1.786.802-2.676-.312-3.937-.705M472.719 179.107c-1.84 5.891-3.638 11.795-5.535 17.668-1.823 5.653-3.438 6.424-9.928 4.974M501.436 148.734c-2.596 4.995-3.979 10.077-1.104 15.463"/><path fill="none" stroke="#000000" stroke-width=".75" stroke-linecap="round" stroke-linejoin="round" stroke-miterlimit="10" d="M511.928 134.928c.187.552.661 1.207.51 1.642-3.28 9.392-2.985 19.036-2.174 28.732.699 8.338-2.13 15.477-7.771 21.492-1.269 1.351-2.361 2.522-2.161 4.463M661.212 196.227c-7.152-2.245-9.881-9.268-14.872-13.848-2.664-2.443-.698-4.609 1.066-6.585M449.525 196.779c1.107-3.252 4.246-.786 6.164-2.075.426-.285 2.5.544 1.629 2.653-1.326 3.212-1.033 6.79-4.357 9.511-4.406 3.607-3.031 9.218-3.604 15.267 5.261-2.167 9.533-.069 13.974.047M661.212 408.585c-7.152-2.244-9.881-9.268-14.872-13.847-2.664-2.444-.698-4.609 1.066-6.586M610.958 142.66c1.104 8.468 2.245 16.931 3.285 25.406.229 1.884-.261 3.883 1.133 5.519M610.958 355.02c1.104 8.467 2.245 16.932 3.285 25.405.229 1.884-.261 3.883 1.133 5.521M494.257 100.689c-.734 1.289-1.346 2.674-2.23 3.849-3.47 4.596-6.568 9.272-4.947 15.48M495.913 206.72c-2.368-.136-4.965.857-5.358 2.794-1.212 5.98-3.709 11.875-2.312 18.177.104.468 1.046.75 1.599 1.118M508.062 210.033c-2.479 2.02-2.279 5.271-2.55 7.754-.698 6.492-5.252 8.194-10.153 9.915-1.1.385-2.207.739-3.312 1.107M494.809 406.376c-2.214 1.902-.905 4.418-1.033 6.632-.138 2.369-.114 4.708-1.176 6.898M511.928 369.376c4.67 7.739 4.168 9.496-4.418 15.463M529.6 154.257c-2.666-1.659-3.397-4.506-4.195-7.19-6.278.33-8.978 4.749-6.896 10.521 1.132 3.14 2.01 6.316 5.021 8.267M456.152 427.914c-.369.552-1.102 1.14-1.049 1.651.454 4.608 1.049 9.209 1.601 13.811M456.704 194.57c2.78-4.072 5.045-8.37 6.087-13.251.764-3.574-3.086-10.967-6.668-12.056-1.084-.33-2.691-.73-3.837.456M466.092 149.287c-2.096 4.928-7.105 6.21-11.045 8.836M525.182 173.033c-2.711 4.496-6.067 8.325-6.479 14.331-.255 3.728-3.075 8.354-7.878 9.968M623.659 381.525c-4.719-1.158-7.222 2.113-7.49 5.541-.384 4.865-4.374 7.907-4.874 12.658-.26 2.47-2.408 4.959-4.755 6.649M496.466 322.988c.235 4.093-.845 8.363 1.656 12.147M623.659 169.167c-4.719-1.158-7.222 2.115-7.49 5.542-.384 4.867-4.374 7.909-4.874 12.66-.26 2.467-2.408 4.958-4.755 6.649M493.704 168.062c-2.278-2.603-4.229-.778-6.049.586-1.605 1.202-2.634 3.235-4.971 3.324-4.132-6.795-4.064-7.511 1.077-12.193M511.928 118.914c4.784 6.941 10.06 13.423 17.12 18.224"/><path fill="none" stroke="#000000" stroke-width=".75" stroke-linecap="round" stroke-linejoin="round" stroke-miterlimit="10" d="M499.779 302.003h3.333c-4.812 3.161-3.495 6.479-1.14 9.949.459.675 1.217 1.6 1.049 2.18-1.919 6.567-.28 13.318-1.156 19.886-.424 3.188-4.178 3.486-6.504 4.985M514.689 219.421c-.856 3.396-1.277 7.036-4.973 8.836M451.182 419.078c-4.406 5.331-3.811 17.871 1.104 23.193M532.913 117.257c-3.752 5.989-3.332 12.693-3.313 19.328M501.988 129.958c-1.486-3.481-3.562-6.279-7.731-6.626M460.018 174.689c-.553.921-1.59 1.848-1.574 2.76.07 5.087-2.73 7.627-7.262 8.837M462.227 143.764c.034 3.578-4.687 5.836-2.762 9.94M495.361 347.287c1.437.236 3.226 1.251 3.176 2.201-.311 5.906 4.993 7.578 7.868 11.053M519.659 147.63c-1.415-3.467-4.022-5.265-7.731-5.522M479.898 433.988c2.226 2.835 1.564 6.177 1.654 9.388M485.421 184.63c-3.167.184-4.888 1.306-5.745 4.917-.801 3.376-3.23 6.476-5.354 9.4-2.704 3.721-5.445 7.255-5.606 12.186-.023.784.102 2.231-.463 2.705-4.498 3.786-4.062 8.834-3.812 13.867M518.555 181.316c-2.761-1.473-5.521-2.945-8.283-4.418M518.003 129.958c-1.396 2.26-1.827 5.164-4.418 6.627M519.659 202.302l-1.104 7.179M457.256 222.734c-1.477 1.771.118 4.94-2.761 6.075M523.525 134.928c-1.427 1.745-1.157 4.676-3.866 5.522M479.346 125.541c1.995.517 3.913 1.876 6.075.552M524.63 154.257c-.682 2.36-1.583 4.524-4.418 4.97M460.018 348.393c.186 3.312.368 6.627.555 9.939M527.391 95.167c.692 1.955.474 4.366 2.764 5.522M483.764 139.346c.736 1.657 1.475 3.313 2.209 4.97M452.286 177.451c1.433 2.203 3.291.571 4.97.552M496.466 318.57c1.021 2.175 2.972.631 4.417 1.104M485.421 115.048c-1.616.674-3.037 1.935-4.971 1.657M465.54 168.615c-1.903 1.111-1.691 3.397-2.761 4.97M500.331 137.689c-2.298-.399-3.028 1.708-4.418 2.761M489.839 335.689c5.086.517 5.301 4.604 6.074 8.283M471.615 185.182c2.211 1.941 5.69.333 7.729 2.761M453.391 370.48h-3.863M469.406 192.361c1.427 3.08 4.678.693 6.627 2.209"/><g id="ArabidopsisPlant"><path d="M231.02 433.812l.688.257c1.675-4.521-.081-8.938-1.491-12.485-.183-.462-.362-.911-.523-1.338-2.105-6.141 2.271-11.332 2.315-11.383l-.556-.479c-.047.054-4.697 5.557-2.449 12.111.168.44.348.894.532 1.358 1.434 3.612 3.061 7.705 1.484 11.959zM257.125 351.275l-.519-.52c-4.027 4.023-8.672 12.387-8.868 12.739l.642.354c.048-.082 4.792-8.619 8.745-12.573zM257.808 384.17l.686-.26c-1.532-4.023-8.282-4.615-8.569-4.639l-.06.729c.065.007 6.573.575 7.943 4.17zM217.313 381.304c-4.763 1.462-14.536 7.665-14.95 7.931l.394.619c.101-.062 10.103-6.41 14.771-7.85l-.215-.7zM208.162 392.779l.539.498c.11-.118 11.147-11.952 17.291-11.076l.104-.729c-6.544-.93-17.471 10.807-17.934 11.307zM182.146 369.629l.467.564c.113-.096 11.635-9.422 28.711-7.438l.084-.729c-17.381-2.008-29.145 7.507-29.262 7.603zM223.264 351.977l-.678.281c.128.312 3.18 7.625 5.777 10.036l.5-.537c-2.482-2.306-5.569-9.706-5.599-9.78zM237.262 366.379c.007.02.72 1.812.894 3.036l.727-.104c-.188-1.312-.91-3.127-.94-3.199l-.681.267zM262.705 409.209c-2.929-6.59-10.276-13.98-10.351-14.052l-.519.516c.073.075 7.325 7.367 10.198 13.836l.672-.3z"/><path d="M314.813 381.139c-.486-.229-1.042-.461-1.655-.718-3.302-1.386-8.293-3.473-12.907-9.47-.807-.889-4.01-4.19-9.271-6.956 1.896-.658 2.676-2.58 3.272-4.056.187-.459.361-.894.538-1.211.508-.847 2.267-2.438 4.588-3.332l.574-.222-.468-.399c-1.413-1.211-12.441-3.426-18.415-4.125-10.142.355-20.719 11.168-21.822 12.322-3.262 1.295-6.686 3.043-10.265 5.354 2.503-2.627 5.035-4.859 6.925-6.521 1.274-1.119 2.278-2.007 2.896-2.672 1.552-1.94 4.224-5.689 4.666-9.035 0-2.496-.842-4.17-2.504-4.976-2.999-1.453-7.75.515-10.067 2.354-5.013 5.877-5.065 8.026-5.191 13.228l-.032 1.285c-.471 5.019-2.836 8.233-5.159 11.313.073-.467.144-1.031.2-1.692h.002c.005-.046.007-.084.012-.13.036-.225.173-.758.307-1.282.405-1.577 1.083-4.22 1.334-6.864.18-2.527.008-7.586-.946-10.443-1.004-2.343-4.661-11.703-5.236-13.182l3.741-1.374-.253-.688-8.99 3.304.253.688 1.663-.609c.436 1.268 2.033 5.795 3.741 9.21 1.932 4.83 1.971 6.575 2.04 9.743.018.806.038 1.692.09 2.74-.779-.617-2.113-1.785-2.948-3.097l-.534-.839-.14.98c-.006.049-.158 1.127-.322 3.672l-.043-.008c-.002.015-.003.023-.005.037-1.731-1.713-2.936-6.279-2.936-8.972 0-3.306-11.479-13.116-12.789-14.224l-.443-.377-.148.562c-.01.035-.929 3.542-1.663 7.398-.823 9.061 1.488 10.963 3.526 12.639.275.229.549.451.811.691l.136.078c3.793 1.223 8.101 5.377 11.562 8.717.33.316.652.626.963.926-1.632-1.077-3.463-2.354-5.26-3.605-3.361-2.344-6.269-4.371-7.529-4.877-.133-.099-.376-.318-.677-.594-.93-.845-2.653-2.414-4.943-3.771-3.67-4.336-9.725-7.391-15.469-7.785-9.641 0-19.708 11.457-25.117 17.611l-.125.144c-6.177 7.997-6.364 9.61-5.936 11.321l.114.455.414-.221c2.86-1.516 5.464-1.269 10.649-.777l.902.084c5.543.293 9.017-2.002 12.08-4.021.961-.631 1.87-1.229 2.809-1.722 3.066-1.891 8.842-5.131 13.021-5.635 15.867-.184 23.082 8.045 26.163 11.549.074.084.146.166.215.246-2.147-.332-6.149-1.144-10.348-1.987-5.88-1.188-12.544-2.532-15.443-2.833-5.334-.598-13.685 6.949-16.667 11.16l-.043.082c-3.062 8.039 1.016 11.913 5.071 14.91 6.353 4.961 14.621-1.091 19.063-4.343.993-.724 1.85-1.354 2.48-1.706 1.272-.955 4.497-3.887 7.592-8.143 2.397-3.079 7.126-3.661 9.519-3.545.155.598.55 2.376.833 5.9.127 3.439-1.667 7.09-3.25 10.312-.644 1.309-1.252 2.55-1.685 3.685-1.675 5.025 2.171 11.146 3.921 13.563 4.098 4.81 5.046 8.581 5.785 12.64.794 8.415-.765 12.509-2.271 16.465-.219.574-.436 1.146-.623 1.677-1.026 1.938-.97 5.48-.917 8.907.036 2.273.07 4.421-.208 5.825-.635 1.903-1.02 3.932-1.177 5.93l-.198-.205c-.253.244-6.19 6.081-4.871 11.544.881 3.523 1.632 8.052 1.112 10.231-1.09 2.004-1.682 3.555-1.488 5.489l.73-.073c-.178-1.771.364-3.164 1.424-5.106l.034-.085c.574-2.299-.192-7-1.1-10.633-1.041-4.314 3.045-9.111 4.302-10.463-.12 2.386.104 4.695.699 6.674 4.114 8.405 4.005 11.044 3.648 19.778l-.02.414c-.303 7.122 1.735 11.148 4.1 15.797.047.159.086.312.136.476l.089-.027c.453.891.916 1.807 1.374 2.778 1.262 8.834 1.637 13.452 1.641 13.499l.731-.061c-.003-.046-.381-4.7-1.653-13.599l-.03-.105c-.536-1.138-1.078-2.199-1.602-3.229-2.968-10.009-1.554-17.136-.933-20.277 0-.779-.131-1.98-.308-3.273.954.634 3.244 2.463 3.249 5.415-.539 3.232-.966 5.796 1.315 8.137.072.317.101.81.133 1.37.108 1.826.254 4.325 2.031 5.363l.37-.633c-1.437-.84-1.57-3.111-1.667-4.772-.04-.658-.073-1.229-.183-1.613l-.027-.092-.067-.067c-2.095-2.095-1.711-4.391-1.177-7.63 0-4.209-3.884-6.292-4.05-6.379l-.044.086c-.193-1.313-.417-2.646-.588-3.67l-.092-.554-.021-.076c-.114-.286-.26-.896-.431-1.602-.358-1.488-.851-3.533-1.618-5.062-.887-1.423-1.949-5.179-1.596-7.479.05-.498.215-1.339.425-2.398.542-2.743 1.361-6.893 1.227-10.504-.352-4.926.688-7.314 2.411-11.271l.145-.344c.439-1.539.649-3.758.742-6.189 1.003.596 4.042 2.854 4.043 8.278-.185 5.369-.194 7.837 1.548 9.965l.243.3c1.385 1.707 3.11 3.832 2.431 10.627l.73.07c.709-7.096-1.12-9.348-2.591-11.16l-.242-.299c-1.576-1.927-1.563-4.297-1.384-9.492 0-6.669-4.235-8.871-4.751-9.115.066-2.375.035-4.902.008-7.172-.015-1.081-.027-2.094-.028-2.996-.223-3.9-2.064-6.443-4.012-9.136-1.303-1.801-2.65-3.659-3.538-6.028-2.677-6.396-.795-9.535.865-12.311.34-.565.662-1.104.94-1.659.067-.083.113-.186.173-.274 1.642 4.144 2.532 7.813 2.636 10.899 0 3.855 3.633 6.88 4.361 7.445l.451-.579c-.681-.529-4.079-3.35-4.079-6.878-.108-3.258-1.05-7.107-2.8-11.453-.054-.134-.091-.227-.119-.299.78-1.963.604-4.764.434-7.302-.03-.451-.06-.895-.084-1.268.089-.98.265-1.728.451-2.518.145-.614.292-1.246.396-1.993 1.383 1.14 3.159 3.795 5.408 8.082 2.265 13.746 4.559 16.898 7.791 20.131 11.139 11.851 18.921 7.461 21.851 5.812.156-.085.296-.167.423-.231l.163-.089.027-.183c.262-1.837.517-6.911-2.77-14.305-2.47-6.839-14.596-9.639-19.112-10.676-3.475-1.325-9.549-9.127-11.693-12.104 2.076.354 4.219 2.977 6.133 5.313 1.433 1.752 2.671 3.267 3.789 3.786 7.711 4.141 14.283-.688 15.496-2.104l.179-.209-.151-.229c-.028-.045-2.8-4.279-5.711-7.553-2.79-3.411-12.62-2.594-17.901-2.155-.839.072-1.558.132-2.105.162.049-.083.103-.167.153-.25.795-.505 11.844-7.437 21.731-7.253 6.053.656 11.863 3.743 17.774 9.447 3.404 3.054 10.475 8.279 18.949 8.279 4.281 0 8.921-1.336 13.627-4.96l.475-.366-.543-.245zM281.04 351.38c5.647.665 14.787 2.528 17.373 3.626-2.022.934-3.663 2.363-4.258 3.354-.204.367-.388.82-.582 1.304-.684 1.688-1.453 3.588-3.628 3.806-3.851-1.873-8.693-3.395-14.415-3.562 1.516-.675 6.203-2.507 11.197-1.923l.086-.729c-6.281-.738-11.901 2.119-12.138 2.241l.207.399c-4.203-.047-8.867.64-13.95 2.439 3.172-3.026 11.953-10.666 20.108-10.955zm-44.027-1.446c-1.706-3.41-3.296-7.929-3.721-9.16l2.207-.812c.559 1.435 4.239 10.854 5.242 13.19.912 2.733 1.075 7.66.899 10.121-.175 1.846-.566 3.692-.921 5.174-.309-2.613-1.263-4.637-1.469-5.051-.084-1.354-.108-2.461-.13-3.432-.071-3.148-.113-5.048-2.107-10.03zm-3.964 19.526c-3.493-3.368-7.835-7.558-11.771-8.86-.254-.229-.517-.442-.782-.662-1.991-1.639-4.05-3.332-3.266-11.972.551-2.893 1.213-5.604 1.5-6.746 4.425 3.786 12.083 10.941 12.083 13.284 0 2.967 1.406 8.193 3.552 9.83-.415 3.497.172 5.682 1.033 7.355-.708-.647-1.496-1.407-2.349-2.229zm-24.198-2.666c-.153 0-.308 0-.463.003-4.357.521-10.239 3.819-13.335 5.727-.949.5-1.873 1.105-2.849 1.75-2.97 1.951-6.348 4.166-11.623 3.897l-.887-.084c-5.08-.479-7.748-.733-10.63.644-.171-1.14.284-2.974 5.887-10.227l.11-.125c5.333-6.068 15.257-17.361 24.541-17.363 5.55.385 11.428 3.356 14.971 7.574l.095.079c2.252 1.327 3.896 2.821 4.876 3.714.376.342.624.565.794.68l.071.039c1.153.442 4.195 2.563 7.415 4.812 3.291 2.292 6.688 4.66 8.819 5.78.035.051.071.104.106.152.318.461.618.896.877 1.344.342 1.398.251 2.494-.271 3.258-.456.66-1.141.897-1.458.976-.21-.221-.452-.491-.748-.828-2.85-3.244-10.371-11.802-26.298-11.802zm35.962 10.27c4.78-.396 14.727-1.226 17.282 1.896 2.487 2.798 4.871 6.305 5.496 7.241-1.516 1.518-7.456 5.459-14.423 1.724-.984-.459-2.23-1.98-3.549-3.594-2.245-2.743-4.787-5.85-7.464-5.612l-.626.061.357.517c.078.109 7.94 11.254 12.512 12.991 4.458 1.024 16.3 3.762 18.644 10.249 3.116 7.011 2.99 11.834 2.749 13.743-.085.049-.174.1-.27.149-2.794 1.576-10.212 5.756-20.964-5.679-3.143-3.144-5.371-6.222-7.603-19.8l-.037-.11c-2.633-5.026-4.601-7.812-6.191-8.765l-.501-.301-.053.582c-.09.981-.265 1.729-.45 2.517-.184.782-.373 1.586-.468 2.676.024.429.054.872.085 1.324.2 2.962.426 6.319-.92 7.966l-.043.068c-.271.54-.593 1.078-.932 1.646-1.663 2.775-3.732 6.232-.918 12.955.917 2.447 2.294 4.352 3.625 6.19 1.884 2.602 3.663 5.06 3.874 8.727 0 .887.012 1.899.026 2.984.058 4.596.136 10.891-.729 13.93l-.129.296c-1.768 4.062-2.834 6.514-2.471 11.605.131 3.515-.678 7.608-1.213 10.317-.214 1.085-.382 1.938-.434 2.452-.388 2.523.768 6.461 1.687 7.929.711 1.424 1.192 3.42 1.543 4.877.177.732.318 1.319.447 1.659l.086.52c.375 2.236 1.003 5.979 1.01 7.567-.552 2.762-1.743 8.74.068 17.117-1.572-3.414-2.687-6.968-2.461-12.262l.017-.409c.353-8.646.473-11.559-3.701-20.076-1.086-3.622-.877-8.528.559-12.851.305-1.524.271-3.711.235-6.024-.053-3.335-.107-6.777.851-8.601.207-.573.423-1.14.64-1.709 1.537-4.036 3.126-8.209 2.312-16.827-.762-4.189-1.736-8.062-5.934-12.992-1.665-2.304-5.37-8.175-3.808-12.861.417-1.089 1.017-2.312 1.653-3.609 1.621-3.3 3.459-7.038 3.324-10.678-.366-4.577-.912-6.251-.935-6.324l-.077-.229-.243-.02c-2.432-.191-7.732.369-10.416 3.818-3.05 4.193-6.205 7.062-7.403 7.968-.629.351-1.462.959-2.517 1.729-4.586 3.356-12.263 8.975-18.186 4.351-4.014-2.967-7.694-6.494-4.846-14.022 3.319-4.662 11.34-11.328 15.965-10.816 2.866.298 9.512 1.641 15.376 2.824 4.995 1.008 9.711 1.963 11.41 2.131l1.022.102-.281-.282c.449-.167 1.035-.495 1.478-1.134.66-.948.786-2.266.375-3.909l-.037-.094c-.281-.491-.6-.95-.936-1.438-1.303-1.881-2.76-4-2.294-8.656l.124.072.035-.597c.095-1.606.19-2.729.259-3.435 1.207 1.519 2.78 2.678 3.124 2.922.257.527 1.835 3.945 1.404 7.642-.009.062-.015.114-.015.154-.177 2.122-.53 3.207-.534 3.218l.07.037c-.397 2.141-.277 3.703-.271 3.779l.732-.062c-.001-.017-.118-1.557.271-3.63.237-.319.476-.638.719-.962 2.312-3.064 4.933-6.537 5.434-11.879l.034-1.312c.125-5.158.17-7.09 4.964-12.721 2.203-1.738 6.64-3.475 9.239-2.217 1.387.672 2.091 2.124 2.094 4.266-.416 3.122-3.003 6.742-4.492 8.607-.573.617-1.567 1.49-2.825 2.598-2.42 2.128-5.883 5.18-9.014 8.816-.133.094-.264.184-.398.276l.074.105c-1.639 1.94-3.176 4.039-4.402 6.253l-.301.544h.622c.58 0 1.563-.082 2.808-.188zm37.993.841c-6.022-5.816-11.974-8.972-18.228-9.646-8.407-.156-17.562 4.656-20.904 6.602.984-1.482 2.083-2.903 3.236-4.246 18.81-13.256 33.518-10.916 42.613-6.537v.146c.094 0 .181-.012.271-.017 5.646 2.776 9.072 6.306 9.895 7.208 4.714 6.131 9.812 8.268 13.186 9.679.379.159.735.312 1.066.453-13.402 9.87-26.218.767-31.135-3.642z"/><path d="M265.718 364.986l.275.68c.125-.051 12.654-4.871 30.442 10.76l.485-.552c-18.125-15.926-31.073-10.94-31.202-10.888zM208.658 329.014l.648.346c.072-.139 7.337-13.549 17.072-12.647l.067-.729c-10.229-.932-17.482 12.455-17.787 13.03zM251.401 248.44l.657-.328c-4.807-9.614-11.395-10.268-11.673-10.291l-.062.73c.064.006 6.468.67 11.078 9.889z"/><path d="M192.979 199.539c2.984 0 6.466-.37 9.007-.641 1.249-.133 2.235-.238 2.7-.247.263-.003.524-.007.783-.007 2.437 0 4.199.251 5.897.84.479.166 1.057.43 1.669.71 1.44.659 3.074 1.407 4.495 1.407.305 0 .593-.035.854-.105.413-.109.706-.272.899-.476l.012.103c1.175-.132 3.397.748 7.258 5.679.409.522 1 1.114 1.626 1.742 1.568 1.571 3.521 3.527 3.368 5.207l.359.032c-1.232 11.02-2.048 28.889-2.194 43.817-1.584 19.003-1.827 45.362-1.182 54.136-9.696-9.404-13.043-20.074-15.746-28.689-.239-.759-.472-1.503-.701-2.216-4.357-15.589-3.629-32.31-3.491-34.788 8.263-.646 10.816 4.891 13.066 9.777.251.545.499 1.083.749 1.603l.593 1.228.104-1.36c.393-5.155-.798-9.024-3.54-11.5-3.975-3.589-9.895-3.107-11.519-2.895l-.155-3.862c.109.015.221.023.335.023.409 0 .845-.096 1.29-.29 1.312-.568 2.392-1.827 2.567-2.994.105-.696-.125-1.445-.585-1.909-.362-.364-.841-.528-1.349-.452-.301.044-.564.196-.8.4.125-.263.222-.528.253-.782.092-.759-.296-1.34-1.067-1.597-.206-.069-.4-.111-.586-.138.038-.276.085-.565.132-.851.104-.634.202-1.235.191-1.698.407-.184.709-.425.892-.728.3-.497.278-1.111-.065-1.824-.526-1.09-1.486-1.231-2.203-.888-.024.011-.046.028-.07.041-.225-.486-.608-.817-1.104-.913-1.181-.23-1.505.446-1.59.749-.267.957.563 2.593 1.501 3.026-.001.346-.095.774-.201 1.228-.168.717-.354 1.514-.209 2.248-.187-.072-.422-.115-.743-.12-.869-.015-1.48.364-1.792 1.062-.242.539-.251 1.206-.068 1.814-.083.042-.166.079-.252.133-1.094.701-1.38 1.68-.786 2.686.281.476.588.712.917.831-.067.123-.114.25-.118.391-.008.289.088.541.276.728.442.444 1.277.426 1.945.41.046-.001.096-.001.146-.002l-.128 2.182c-2.39-2.076-4.716-2.904-6.927-2.458-3.854.775-6.201 5.249-7.031 7.135l.595.407c6.594-6.592 10.018-4.538 12.283-3.178.129.077.255.153.377.224-.948.788-3.257 2.84-5.135 5.586-2.05 2.61-2.657 5.665-2.096 10.501 0 4.462 2.196 6.295 3.848 7.287l.556.333v-.647c0-.031.006-3.094.512-4.972.756-1.512 1.134-2.271 1.323-5.852 0-3.038 1.07-6.045 2.073-8.204.079 1.968.245 6.225.497 13.367.861 12.236 4.173 21.821 6.364 28.165l.435 1.257c2.844 10.715 8.013 17.46 11.736 21.167-11.966-2.318-20.797 6.419-23.229 10.068-1.081 1.392-4.564 10.289-6.645 15.607-.458 1.172-.843 2.157-1.112 2.829l-.184.457.491.044c.825.074 1.626.109 2.407.109 13.157 0 20.218-10.087 24.112-15.65.499-.711.938-1.338 1.307-1.826 2.786-3.11 6.01-3.978 7.415-3.8-.389 7.702 2.504 15.804 3.198 17.625l-3.465.991.201.706 10.274-2.937-.201-.705-6.101 1.742c-.64-1.666-3.64-9.947-3.156-17.695l.019-.295-.285-.077c-1.577-.452-5.349.497-8.464 3.98-.392.517-.837 1.151-1.342 1.873-3.994 5.704-11.389 16.269-25.361 15.271.249-.63.566-1.444.93-2.37 1.93-4.938 5.524-14.12 6.556-15.449 2.436-3.652 11.398-12.493 23.458-9.57l.026-.106c2.057 1.917 3.503 2.797 3.543 2.819l.372-.633c-.11-.062-11.121-6.752-15.8-24.386l-.443-1.283c-2.178-6.307-5.472-15.838-6.326-27.964-.362-10.339-.549-14.638-.55-14.68h-.008c.583-1.099 1.033-1.779 1.047-1.797l-.608-.412c-.16.235-3.916 5.849-3.915 11.744-.179 3.409-.536 4.123-1.272 5.611-.407 1.492-.52 3.529-.551 4.568-1.396-.974-2.948-2.701-2.95-6.347-.545-4.728 0-7.533 1.957-10.026 2.322-3.393 5.393-5.763 5.424-5.786l.467-.357-.525-.262c-.253-.126-.524-.29-.821-.467-2.139-1.283-5.61-3.369-11.66 1.869 1.125-1.951 2.998-4.366 5.58-4.885 2.142-.43 4.444.509 6.851 2.793l.573.543.215-3.652 1.685-.519.182 4.53.414-.074c.071-.011 7.042-1.205 11.316 2.659 2.3 2.078 3.429 5.244 3.365 9.425-.038-.083-.077-.167-.115-.251-2.381-5.168-5.078-11.026-14.115-10.174l-.31.03-.021.31c-.014.182-1.235 18.422 3.502 35.363.231.725.464 1.466.703 2.226 2.79 8.898 6.264 19.973 16.641 29.67l.71.663-.094-.968c-.742-7.599-.542-35.247 1.102-55 .193-19.695 1.545-44.467 3.48-51.862.48-2.828 1.199-6.64 2.015-10.75l.179-.049c-.031-.115-.07-.226-.103-.34 1.962-9.863 4.458-21.324 5.6-25.13 1.198-3.529 6.384-18.58 11.9-31.105.377-.349.613-.951.757-1.697 1.221-2.705 2.451-5.259 3.648-7.504l.041-.127c.303-2.424.386-4.696.38-6.539l.501.102c-.305.755-.477 1.46-.316 2.081l.71-.184c-.188-.726.367-1.86.903-2.958.1-.203.199-.407.295-.61-.203 1.404-.59 2.817-1.011 4.062l-.171.031c.025.134.019.302-.007.492-.316.882-.633 1.656-.885 2.23l.197.086c-.217.626-.424 1.254-.512 1.783l.383.122c-2.36 5.359-6.89 17.001-8.14 20.576-2.217 5.05-5.115 16.441-7.231 24.758-1.052 4.134-1.96 7.705-2.51 9.417-1.597 5.859-4.409 18.878-5.146 28.852-.297 2.23-.555 5.079-.772 8.044-.041.107-.087.212-.126.319l.1.036c-.564 7.808-.852 16.286-.855 16.405l-.029.877.646-.596c1.35-1.246 6.392-3.237 11.636-2.767 4.16.372 7.47 2.151 9.829 5.274 3.381 4.903 5.058 8.816 5.439 17.788l.031.133c.467 1.052.587 2.14.27 2.427-.202.183-.726.061-1.366-.3-.833-.626-2.115-1.399-3.597-2.296-3.718-2.248-8.812-5.327-10.618-8.422-.332-.56-.681-1.162-1.041-1.786-2.456-4.246-5.238-9.058-7.707-9.382-.642-.084-1.226.13-1.758.662-.456.547-.932.529-1.589.499-.416-.018-.886-.038-1.364.122l.231.696c.257-.085.522-.1.797-.094-.076 1.51-1.113 21.92-1.463 29.821-.167 4.508-.144 12.611-.122 20.446.027 9.454.056 19.229-.245 23.031-.362 7.781.877 18.354 2.6 22.184l.669-.302c-1.685-3.746-2.895-14.159-2.538-21.836.301-3.821.273-13.61.247-23.079-.022-7.829-.045-15.925.121-20.415.353-7.935 1.397-28.501 1.464-29.83.584-.001 1.198-.107 1.731-.749.343-.343.708-.481 1.121-.429 2.11.277 5.033 5.331 7.167 9.021.362.625.711 1.23 1.043 1.79 1.898 3.256 7.084 6.39 10.871 8.679 1.465.885 2.731 1.65 3.574 2.279 1.023.585 1.783.663 2.259.233.703-.636.411-2.107-.062-3.205-.355-8.203-1.659-12.441-5.575-18.117-2.462-3.261-6.043-5.189-10.357-5.576-4.716-.424-9.437 1.066-11.556 2.465.085-2.303.368-9.34.843-15.843.879-2.243 2.307-4.35 4.064-5.964.435-.398 1.072-.816 1.75-1.259 1.271-.832 2.689-1.769 3.255-2.924.62.091 1.191.145 1.715.145 2.193 0 3.874-.807 5.449-2.616.38-.438.743-.873 1.099-1.3 1.421-1.705 2.761-3.315 4.796-4.486 2.915-1.677 6-3.114 8.984-4.502 1.621-.754 3.298-1.535 4.933-2.347 3.971-1.974 5.856-3.716 5.768-5.331-.047-.872-.594-1.372-1.498-1.372-1.129 0-2.654.734-3.565 1.172-.137.066-.256.124-.354.168l-.318.146c-10.017 4.592-21.367 9.796-27.329 19.513l-.658.658.22.036c-.549.891-1.786 1.702-2.895 2.427-.703.46-1.366.894-1.844 1.333-1.374 1.261-2.522 2.759-3.406 4.406.183-2.225.388-4.315.617-6.036.165-2.223.433-4.599.767-7.01l.07.057c.556-.695 1.134-1.596 1.748-2.548.884-1.376 1.797-2.798 2.818-3.908.626-.682 1.272-1.358 1.918-2.036 1.02-1.07 2.064-2.169 3.044-3.294 2.645-.688 4.758-2.538 6.646-4.478 3.54-3.636 7.373-6.601 12.062-9.331.987-.575 1.977-1.17 2.968-1.764 1.239-.745 2.521-1.516 3.779-2.233l.477-.268c1.803-1 5.157-2.863 5.137-4.836l-.003-.333-.332-.03c-.113-.01-.224-.003-.336-.008l.001-.018c-.123-.013-.252.001-.379.008-2.429 0-4.753 1.047-6.936 2.148-3.911 1.972-7.542 4.45-11.054 6.848-.617.421-1.234.842-1.854 1.262-2.44 1.652-4.41 3.526-6.197 5.899-.269.356-.563.725-.865 1.104-1.118 1.402-2.367 2.979-2.898 4.655-.013.014-.027.027-.041.041v-.001c-.003.004-.006.007-.009.012-.235.232-.463.458-.702.697l.005.004c-.118.025-.234.056-.354.076l.062.374c-.892 1.008-1.833 1.997-2.752 2.961-.649.681-1.298 1.361-1.927 2.045-1.064 1.157-2.038 2.671-2.896 4.007-.347.541-.681 1.056-1.004 1.53 1.175-7.953 2.993-16.078 4.158-20.35.552-1.718 1.462-5.298 2.518-9.444.092-.362.188-.736.282-1.109l.294.156c2.742-5.173 6.213-9.719 10.817-14.137.024-.015.05-.026.073-.042l-.011-.017c.647-.619 1.315-1.236 2.007-1.852 2.403-2.138 5.072-4.037 7.653-5.875 2.802-1.994 5.699-4.056 8.282-6.438l.236-.215c1.045-.942 3.492-3.148 3.503-4.776 0-.138-.022-.268-.053-.393.176-.228.348-.466.505-.729l-.628-.379c-.09.149-.185.286-.282.422-.004-.003-.007-.008-.011-.011-1.351-1.25-4.548.224-7.499 1.828l-.442.238c-5.642 2.965-10.298 7.223-14.651 13.402-3.52 4.998-6.379 10.382-8.942 15.484 1.937-7.525 4.238-16.06 6.067-20.228.343-.98.93-2.56 1.649-4.447l.032.052c.676-.418 1.12-1.391 1.548-2.33.217-.475.422-.925.626-1.219.401-.578.852-1.138 1.289-1.68.43-.533.873-1.083 1.278-1.66.26-.37.813-.991 1.454-1.709 1.655-1.854 2.816-3.218 3.086-4.113.717-.352 1.382-1.138 2.083-1.972.512-.611 1.042-1.241 1.535-1.6.683-.495 1.431-.945 2.156-1.38.86-.517 1.751-1.053 2.555-1.677 3.198-2.479 5.507-5.561 7.419-8.254l-.495-.521c-1.016.643-2.093 1.207-3.135 1.752-1.787.936-3.635 1.903-5.234 3.3l-.546.477c-1.488 1.299-3.029 2.643-4.491 4.02-.821.773-3.428 4.06-2.53 5.66-.213.751-2.034 2.793-2.951 3.822-.656.735-1.224 1.37-1.507 1.775-.391.559-.827 1.099-1.249 1.622-.445.552-.905 1.122-1.32 1.721-.093.134-.182.292-.27.458 1.974-5.064 4.34-10.929 5.646-13.76.02-.069.052-.156.083-.24l.018.018c.417-.448.812-.91 1.209-1.372.809-.943 1.646-1.919 2.658-2.768.524-.438 1.104-.876 1.664-1.301.794-.602 1.606-1.224 2.322-1.88 1.688-.93 5.468-3.182 5.577-4.762.019-.278-.056-.672-.52-.979-.301-.197-.811-.363-1.533-.039-1.76.793-3.798 4.125-3.936 5.092l.066.009c-.033.033-.072.062-.106.096-.262.143-.498.266-.671.349l.082.171c-.55.463-1.142.915-1.724 1.356-.567.429-1.153.874-1.689 1.324-.942.788-1.722 1.665-2.466 2.529 1.208-2.506 3.07-5.937 3.755-7.041 1.52.06 3.169-2.016 4.392-3.563.245-.311.467-.59.656-.811l.07-.08.015-.106c.158-1.113-1.078-2.021-1.85-2.473l.039-.026c.013-.008.018-.021.03-.029l.106.042c.034-.084.077-.171.113-.256.257-.299.375-.666.422-.95.042-.095.086-.189.126-.284l2.157-1.678-.45-.579-.684.532-.491.164c-.249.083-.426.166-.561.241l-.056-.088-.083-.116c.006-.015.007-.026.021-.048l.203-.305-1.513-1.009c-.08-.312-.183-.619-.318-.888l-.542-1.084-.648 5.187c-.4-.07-.75 0-1.044.203-.552.383-.863 1.195-.978 2.628-.049-.032-.102-.061-.156-.085-.495-.215-1.131-.041-1.934.533-.652.434-.935 1.019-1.08 1.603l.004-.035-.019-.073c-.005-.02-.501-1.878-.026-3.572 1.206-1.329 1.098-2.35.923-2.844-.233-.66-.842-1.152-1.553-1.252-.577-.084-1.108.117-1.431.533-1.427 1.116-2.234 2.508-2.401 4.139-.223 2.171.795 4.29 1.578 5.259.073.75.463 5.306-.186 10.564-.909 1.708-1.836 3.593-2.765 5.583.017-.556.015-1.126.007-1.685l-.004-.505c-.002-1.088.018-2.185.042-3.284.196-1.313.384-2.661.466-4.004.23-3.791.229-7.403.227-11.228v-1.448c.01-1.979-.093-4.359-.979-5.181-.243-.227-.54-.333-.859-.307l-.317.025-.021.317c-.209 3.259.092 6.567.383 9.768.123 1.346.25 2.738.335 4.093.151 2.415.096 4.916.043 7.335-.004.189-.008.379-.012.567-.02.135-.04.269-.06.402-.356 2.383-.725 4.848-.532 7.396l.257-.019c-3.891 8.664-7.68 18.808-10.112 25.608-.168-1.857-.415-3.717-.657-5.531-.463-3.469-.941-7.054-.849-10.571.016-.62.036-1.229.056-1.831.152-4.7.283-8.759-1.223-13.409-.7-2.164-1.247-4.466-1.772-7.468-.054-.31-.106-.687-.164-1.103-.303-2.199-.719-5.212-2.33-6.277-.6-.397-1.143-.474-1.612-.23-1.032.534-1.202 2.413-1.227 3.196-.085 2.672.884 5.226 1.821 7.694l.135.356c.397 1.048.769 2.095 1.138 3.137 1.261 3.55 2.452 6.903 4.507 10.111l.08-.051v.212c-.152-.011-.239-.12-.249-.146.053.191.155.276.249.312-.007 1.183-.045 2.39-.086 3.642-.02.603-.04 1.213-.056 1.835-.093 3.576.388 7.191.856 10.687.313 2.341.636 4.76.779 7.134-.856 2.418-1.486 4.261-1.817 5.234-1.1 3.667-3.443 14.358-5.365 23.929-.844-2.353-2.001-4.537-3.217-6.821-.38-.713-.763-1.431-1.136-2.157-.655-1.274-1.413-2.693-2.281-4.007-.021-.046-.043-.092-.064-.138-.937-1.964-1.822-3.819-2.266-5.998-.854-4.197-3.403-7.824-5.867-11.33-.806-1.146-1.638-2.333-2.379-3.498-.065-.104-6.724-10.342-10.139-10.419-.302-.003-.579.074-.826.216l-.112-.125c-.172.158-.29.342-.365.549-.018.022-.039.039-.056.063l.028.02c-.035.122-.061.248-.065.385-.044 1.634 2.349 4.061 4.096 5.834.542.55 1.009 1.024 1.255 1.331 2.486 3.087 4.59 6.266 6.32 8.968 2.084 3.256 3.93 6.459 5.614 9.436.536.949 1.306 1.73 2.05 2.487.52.528 1.058 1.074 1.498 1.663.221.295.43.608.638.921.306.643.615 1.294.912 1.969l.227-.1c.402.718.783 1.435 1.128 2.108.375.73.76 1.451 1.142 2.167 1.41 2.648 2.74 5.16 3.573 7.937-.832 4.19-1.565 8.079-2.053 10.948-.408 1.559-.79 3.895-1.142 6.782-.559-1.556-2.082-3.086-3.369-4.375-.609-.611-1.187-1.188-1.568-1.676-3.091-3.947-5.636-5.95-7.589-5.97-.063-2.06-7.698-5.335-7.775-5.368-2.131-.897-4.299-1.316-6.823-1.316-1.979 0-3.959.254-6.053.521l-1.243.157c-.369.045-1.048.051-1.833.057-2.682.021-6.737.055-8.192 1.571-.39.406-.578.894-.559 1.448.052 1.429 1.932 2.093 5.918 2.093zm12.221 38.235c-.034-.037-.075-.067-.114-.099.021-.039.044-.076.062-.116.006.014.006.028.013.042l.669-.3c-.119-.266-.071-.543.144-.827.259-.343.706-.596 1.147-.704.061-.011.121-.023.183-.042.143-.021.285-.03.413-.012.116.017.212.055.3.103-.029.054-.061.119-.088.166l.434.248c.122.34-.123.836-.658 1.326-.781.716-1.698 1.001-1.958.877-.02-.009-.079-.037-.067-.23l-.275-.016c-.035-.19-.127-.33-.205-.416zm3.158-2.598c-.016-.009-.03-.02-.047-.028.044-.037.085-.079.127-.119-.027.05-.054.098-.08.147zm1.898-1.035c.278-.039.523.041.724.244.297.3.45.815.379 1.282-.138.917-1.056 1.962-2.132 2.43-.294.126-.773.276-1.259.203.081-.066.16-.132.234-.2.777-.714 1.086-1.489.848-2.129-.036-.099-.089-.184-.141-.269.341-.65.817-1.484 1.347-1.561zm-1.951-2.009c.438.146.62.404.57.811-.098.804-.99 1.778-1.662 2.05-.405.056-.815.215-1.171.447-.001-.078-.006-.154-.021-.23.066-.086.121-.187.165-.301.067-.06.122-.179.123-.421.038-.176.071-.362.103-.562.113-.716.242-1.527.709-1.812.008-.004.018-.006.027-.01v.025l.734.001c0-.032.003-.069.004-.104.131.025.268.057.419.106zm-.945-1.804c-.055.331-.109.666-.15.987-.168.037-.328.088-.469.174-.43.261-.666.708-.815 1.196-.072-.292-.151-.533-.297-.716l.393-.156c-.244-.619-.054-1.425.13-2.206.035-.153.07-.303.101-.45.483-.024.912-.08 1.285-.165-.023.373-.099.855-.178 1.336zm-.145-4.358c.183-.088.813-.306 1.225.545.23.476.263.855.099 1.126-.255.423-1.006.694-2.129.773v-.023l.002-.108h-.036v-.008c.478-.468.702-1.26.67-1.976-.002-.072-.013-.138-.022-.208.061-.046.123-.088.191-.121zm-2.372-.589c.021-.076.072-.259.432-.259.085 0 .188.01.311.034.386.076.567.403.653.704-.297.408-.408.944-.157 1.474l.062-.03c-.013.033-.026.066-.042.098l-.195.116c-.591-.305-1.227-1.55-1.064-2.137zm-1.482 7.547c.191-.426.569-.654 1.11-.628.606.01.614.041.743.57.031.128.066.271.113.429.061.204.199.849.241 1.149-.039.163-.083.298-.134.345l.073.082-.309.223c.115.159.149.38.092.576-.004.012-.011.029-.016.042-.088-.305-.223-.587-.404-.82-.334-.429-.875-.747-1.543-.673-.132-.441-.131-.925.034-1.295zm-1.143 3.961c-.143-.241-.575-.974.55-1.693.055-.035.107-.047.161-.076.083.134.173.264.28.379l.54-.498c-.006-.005-.009-.013-.015-.017.208.051.399.16.557.362.404.52.502 1.404.114 2.054-.335-.05-.701-.021-1.022.071-.584.015-.846-.041-1.165-.582zm2.373 1.999c-.475.011-1.19.027-1.411-.194-.031-.032-.063-.08-.06-.192.001-.098.149-.217.366-.297.006-.002.012-.002.019-.004.052-.001.105-.003.158-.004.117-.005.241-.01.372-.012v-.072c.264-.005.489.043.592.133l.021.023c.002-.003.004-.005.006-.008.051.057.039.161-.035.308l.481.242c.024.036.052.059.079.089-.168-.014-.356-.018-.588-.012zm67.145-47.114l.318-.146c.1-.046.224-.106.366-.174.798-.385 2.284-1.1 3.247-1.1.524 0 .739.19.766.677.048.874-.843 2.388-5.362 4.633-1.627.809-3.299 1.587-4.917 2.339-2.998 1.395-6.097 2.838-9.04 4.532-2.148 1.237-3.531 2.896-4.993 4.652-.353.424-.712.854-1.089 1.288-1.441 1.657-2.905 2.365-4.895 2.365-.392 0-.809-.028-1.26-.083 5.888-9.368 17.023-14.473 26.859-18.983zm.34-15.783l-.486.272c-1.264.721-2.549 1.495-3.792 2.24-.987.594-1.974 1.187-2.958 1.759-4.751 2.766-8.633 5.769-12.22 9.453-1.521 1.562-3.185 3.07-5.145 3.896 3.651-3.62 6.837-6.484 10.771-9.164 1.974-1.344 3.923-2.758 5.808-4.125 2.255-1.636 4.586-3.327 6.958-4.896.379-.25.818-.587 1.283-.943 1.408-1.081 3.152-2.408 4.448-2.343.015 0 .031 0 .046.001-.397 1.454-3.275 3.052-4.713 3.85zm-21.888 13.142c.307-.385.606-.759.878-1.121 1.736-2.305 3.65-4.126 6.023-5.731.62-.419 1.238-.841 1.856-1.263 3.491-2.384 7.101-4.848 10.969-6.798 1.177-.593 2.395-1.168 3.637-1.563-.593.396-1.172.837-1.705 1.247-.454.348-.884.678-1.241.914-2.383 1.577-4.722 3.274-6.982 4.915-1.881 1.364-3.825 2.775-5.79 4.113-3.534 2.407-6.464 4.958-9.652 8.051.575-.969 1.318-1.901 2.007-2.764zm22.726-43.925l-.242.22c-2.55 2.352-5.428 4.399-8.21 6.38-2.597 1.848-5.283 3.76-7.716 5.924-.692.616-1.353 1.234-2 1.853-.424.259-.919.323-1.352.168 0-.033.008-.072.009-.105.666-.463 1.125-1.092 1.56-1.712.224-.318.454-.646.708-.938.966-1.116 2.041-2.025 3.185-2.992.608-.515 1.236-1.012 1.865-1.511.784-.621 1.593-1.262 2.363-1.936 2.276-1.994 4.84-3.622 7.322-5.195.817-.519 1.635-1.037 2.446-1.57l.576-.374c.944-.611 1.855-1.2 2.65-1.966-.455 1.311-2.452 3.111-3.164 3.754zm-18.465 10.57c4.283-6.081 8.857-10.267 14.392-13.176l.452-.243c1.11-.604 4.068-2.212 5.743-2.212.381 0 .695.083.906.278.022.019.029.043.046.064-.823.931-1.833 1.585-2.958 2.312l-.581.377c-.809.531-1.622 1.047-2.436 1.563-2.504 1.589-5.093 3.232-7.414 5.263-.754.662-1.558 1.298-2.334 1.913-.636.504-1.269 1.006-1.89 1.531-1.16.98-2.255 1.907-3.259 3.066-.278.321-.52.665-.753.998-.265.377-.526.736-.822 1.051.019-.098.034-.197.054-.294.11-.548.207-1.063.157-1.479.232-.335.46-.676.697-1.012zm-1.569 2.326c-.001.008-.002.015-.004.024-.123.608-.261 1.298-.201 1.907l.02.196.175.092c.273.144.571.212.874.231-2.791 2.78-5.156 5.623-7.188 8.65 1.888-3.684 3.956-7.466 6.324-11.1zm11.407-29.92c1.452-1.366 2.986-2.706 4.47-4l.547-.477c1.533-1.339 3.261-2.244 5.091-3.203.55-.288 1.111-.581 1.669-.89-1.677 2.272-3.673 4.688-6.25 6.686-.77.597-1.642 1.121-2.485 1.627-.737.443-1.499.902-2.208 1.415-.566.412-1.126 1.078-1.667 1.722-.555.661-1.126 1.341-1.652 1.683-.252-1.135 1.528-3.662 2.485-4.563zm7.094-11.89c.198-.09.358-.119.481-.119.191 0 .298.071.347.102.179.118.197.22.19.313-.062.906-2.495 2.589-4.332 3.683.536-1.148 2.038-3.404 3.314-3.979zm-13.193 2.307l.367-.038c-.112.473-.211.959-.222 1.465l.734.014c.008-.428.091-.851.196-1.284.054.117.125.237.219.361-.126.387-.274.778-.426 1.18-.275.721-.559 1.467-.713 2.219-.006-1.846-.099-3.247-.155-3.917zm1.192-2.572c.043-.131.08-.252.12-.378.043.257.086.448.11.549-.056.35-.157.636-.254.914l-.288-.039c.093-.353.203-.708.312-1.046zm.114 5.2c.081-.224.166-.448.25-.67.19-.499.379-1.008.531-1.522.067-.062.129-.127.182-.197-.165.75-.567 1.579-.963 2.389zm1.643-2.083l.164-.025.008.339.295.009c-.061.135-.113.273-.157.415l.016.009c-.067.119-.133.239-.196.361v-.003l-.491-.044c.147-.357.273-.712.361-1.061zm2.679-.133c.005.003.011.004.016.008-.615.966-2.617 4.621-3.891 7.274.071-.247.139-.497.213-.735.155-.492.352-.991.56-1.518.347-.878.693-1.784.855-2.694.194-.48.44-.948.711-1.402.015-.023.029-.046.042-.069.229-.375.471-.743.717-1.099l-.267-.185.072-.284h-.009c.301-.314.418-.904.407-1.5.016 1.046.143 1.891.574 2.204zm.933-1.742c-.403-.544-.214-1.778.133-2.619-.094.338-.158.684-.192 1.013-.055.507-.047 1.096.059 1.606zm.037.148c.109.426.294.786.589.969.016.01.04.019.058.028-.374.248-.73.385-1.048.354l-.139-.35c-.093-.062-.19-.305-.239-.926.079.16.182.305.312.426l.467-.501zm4.015-2.667c-.177.21-.376.464-.596.741-.558.707-1.319 1.667-2.08 2.369l-.097-.155c-.176.112-.241.072-.264.059-.25-.156-.454-.973-.344-2.024.102-.981.503-2.229 1.295-2.516l-.183-.505.271.125c.533.248 1.992 1.106 1.998 1.906zm-1.675-3.088l.217.127c-.001.003-.003.006-.004.009-.015.012-.021.031-.036.041l-.268.179c.027-.111.059-.229.091-.356zm.478-2.314c-.03.149-.016.28.012.379.026.097.071.183.122.261-.089.188-.182.397-.291.654-.041.097-.082.194-.124.29.25-.965.292-1.298.165-1.518l-.164-.124v-.13l.28.188zm-2.687 2.771c.071-.048.282-.195.81.001l.435.163.367-2.934c.059.539.061.951.061.959h.133c-.072.305-.167.658-.238.918-.112.414-.215.801-.256 1.036l.346.061-.365.245.096.045c-.523.253-.907.749-1.171 1.341l-.48-.391c-.133.164-.274.414-.403.708.088-1.184.311-1.906.665-2.152zm-3.067 3.076c.755-.539 1.09-.521 1.222-.464.08.036.149.123.21.239-.003.09-.007.188-.012.298-.021.519-.034 1.019-.028 1.485-.02-.607-.168-1.211-.388-1.52l-.599.426c.284.397.363 1.833.051 2.146-.053.052-.194-.033-.272-.09l-.034.047-.667-.25c-.157.26-.202.479-.217.686h-.353c.089-.308.129-.639.167-.966.091-.792.175-1.542.92-2.037zm-1.591 1.49c-.024.159-.043.315-.059.464-.029.258-.059.48-.1.674l-.197-.025c.034-.12.076-.249.131-.405.076-.212.158-.443.225-.708zm-.677-7.541c.441.062.819.365.963.769.184.52-.016 1.17-.563 1.858l-.146-.329c-.38.168-.691.177-.935.064.044-.104.087-.212.132-.307l-.579-.271c-.016-.061-.023-.124-.029-.188.004-.004.006-.011.012-.015l-.015-.012c-.029-.45.172-.948.627-1.175l-.114-.227c.225-.188.515-.185.647-.167zm-.952 3.047c.012.005.022.013.034.017-.082.467-.292 1.06-.509 1.678-.134.38-.275.78-.397 1.182.217-.822.521-1.912.872-2.877zm-.941-1.668c-.376.571-.583 1.229-.76 1.825-.11.373-.218.719-.354 1.008.004-.064 0-.129.006-.194.101-.978.477-1.86 1.108-2.639zm-1.117 2.938l.62.318c.187-.363.31-.781.44-1.223.096-.324.193-.653.317-.965.025.041.048.081.077.121-.507 1.335-.928 2.963-1.149 3.827l.704.181c-.103.432-.166.857-.165 1.259-.49-.919-.905-2.192-.844-3.518zm.914 3.65l.664-.03c-.039-.865.353-1.973.697-2.951.232-.656.451-1.285.542-1.825.076-.007.151-.01.23-.027-.167.579-.232 1.166-.243 1.708l-.307.046c.057.391-.16 1.061-.389 1.77-.25.772-.512 1.627-.529 2.415-.002-.031-.005-.055-.005-.057l-.012-.112-.074-.086c-.181-.215-.381-.506-.574-.851zm-3.739-9.405c.753.722.739 3.662.734 4.632v1.451c.002 2.202.002 4.334-.041 6.468-.08-1.123-.185-2.257-.285-3.36-.275-3.02-.559-6.137-.408-9.191zm-16.397 22.355c-.371-1.045-.744-2.097-1.143-3.15l-.135-.356c-.912-2.402-1.854-4.886-1.773-7.411.034-1.082.305-2.295.83-2.567.069-.036.146-.054.231-.054.18 0 .394.082.64.244 1.335.882 1.74 3.822 2.008 5.766.059.426.111.811.167 1.129.532 3.037 1.086 5.371 1.797 7.568.887 2.738 1.19 5.282 1.257 7.89-1.682-2.87-2.752-5.884-3.879-9.059zm-19.624 29.593c.095.15.202.3.3.451-.133-.141-.266-.294-.398-.428-1.514-1.527-3.259-2.927-4.947-4.282l-.074-.059c-.241-.193-.508-.401-.792-.623-1.384-1.077-3.28-2.553-3.978-3.849l-.041.022c-.164-.34-.26-.653-.253-.917.002-.057.02-.103.032-.152.167-.166.363-.241.613-.242 2.378.054 7.545 6.943 9.538 10.079zm7.009 15.502c-1.69-2.986-3.541-6.2-5.636-9.471-1.74-2.718-3.858-5.917-6.366-9.033-.215-.268-.566-.633-.98-1.055.132.104.275.214.395.31l.073.059c1.673 1.342 3.402 2.729 4.886 4.226 2.588 2.611 5.24 6.696 7.273 11.208l.2.441c.762 1.682 1.668 3.703 2.039 5.594-.725-.734-1.407-1.435-1.884-2.279zm-36.581 21.353c1.241-1.293 5.264-1.326 7.668-1.345.841-.007 1.507-.013 1.917-.063l1.247-.157c2.07-.265 4.026-.515 5.959-.515 2.421 0 4.499.4 6.537 1.258 2.527 1.064 7.406 3.697 7.333 4.724-.009.135-.24.275-.618.375-.201.053-.426.08-.667.08-1.261 0-2.817-.712-4.189-1.34-.628-.288-1.222-.559-1.734-.737-1.779-.616-3.614-.879-6.137-.879-.264 0-.529.003-.795.007-.499.009-1.499.115-2.766.25-2.525.269-5.984.637-8.929.637-4.468 0-5.165-.865-5.183-1.379-.01-.355.105-.654.357-.916z"/><path d="M201.565 249.42c-.29.34-.592.692-.794 1.065l.645.352c.167-.306.442-.628.708-.939.412-.482.838-.98.977-1.531l-.712-.178c-.097.382-.467.814-.824 1.231zM199.875 254.485c-.787 1.113-.709 3.083-.646 4.665.016.385.031.743.029 1.049l.734.002c0-.316-.014-.684-.029-1.08-.056-1.394-.131-3.304.512-4.213l-.6-.423z"/></g><path id="line-bottomOfStem" fill="none" stroke="#000000" stroke-miterlimit="10" d="M241.946 367.917l6.586-1.417H357"/><path id="line-topOfStem_1_" fill="none" stroke="#000000" stroke-miterlimit="10" d="M256.033 141.918l6.672-1.418H371"/></g><g id="labels"><text transform="translate(380.8843 131.5)" font-family="'Helvetica'" font-size="10">Top</text><text transform="translate(385.3301 143.5)" font-family="'Helvetica'" font-size="10">of</text><text transform="translate(377.8301 155.5)" font-family="'Helvetica'" font-size="10">Stem</text><text transform="translate(373.6602 358.5)" font-family="'Helvetica'" font-size="10">Bottom</text><text transform="translate(385.3301 370.5)" font-family="'Helvetica'" font-size="10">of</text><text transform="translate(377.8301 382.5)" font-family="'Helvetica'" font-size="10">Stem</text><text transform="translate(444.5938 492.5)" font-family="'Helvetica'" font-size="10">Epidermal Peel</text><text transform="translate(603.2686 492.5)" font-family="'Helvetica'" font-size="10">Whole Stem</text></g></svg>