<svg version="1.1" id="TissueSpecificStemEpidermis_svg" x="0" y="0" width="639.6" height="569" viewBox="140 80 426.4 445.7" xml:space="preserve" xmlns="http://www.w3.org/2000/svg" author="Provart Lab - Bio Analytic Resource, University of Toronto">
  <g id="samples" transform="translate(-78 -4)">
    <g id="Stem_epidermis_top_of_stem" fill="none">
      <path d="M531 98c-2-4-5-6-9-7-3-1-8-1-11 1-8 1-14 8-14 15 0 8 7 15 15 15 5 0 10-1 14-4l3-2a15 15 0 0 0 2-18z" id="path2"/>
      <path d="M534 114c3-8 1-16-4-21-4-4-10-5-15-4-12-6-31-1-37 11l-1 3c-4 2-7 5-8 10l-7 15-1 2c-3 2-5 4-6 8v3l-2 5-1 7-4 20 1 21c1 7 0 13-1 18-2 8 2 17 10 19 6 1 12-1 16-5l1 1c7 6 15 7 23 3 5 2 10 1 14-3l11-15c3-1 5-3 6-5 5-8 6-19 3-27v-6l-2-7-1-4c1-4 1-9-1-14l1-6 1-20 1-3 3-6z" id="path4"/>
    </g>
    <g id="Stem_epidermis_bottom_of_stem">
      <path fill="none" d="m523 340-15 9h-4l-6 1-2-5-1-1v-2l2-1 5-8 1-7-1-9c2-4 1-9-1-12 1-3 0-7-4-7l-3 1c-4-2-9-2-12 0l-3 1c-3 0-7 2-9 5l-3 3c-4 2-7 5-7 10l1 2-3 7a46 46 0 0 0 1 21v2c0-2 0-1 0 0l-1 4-2 4a1020 1020 0 0 0-7 24v10c-1 4-2 8-1 13v5a625 625 0 0 0-1 24c0 5 4 9 7 11 6 4 12 3 17 0l3 1 5 2h1l1 1c9 6 24-2 23-13l-9-48v-2l8-1c5 0 9-2 11-7l1-3 1-1c1-1 3-2 3-4l1-5h1v-2l7-9 2-3c6-5-1-15-7-11zm-51 105 3-2 1-1-4 3z" id="path7"/>
    </g>
    <g id="Whole_stem_top_of_stem">
      <g id="g14" fill="none">
        <path d="M610 123v1-1z" id="path10"/>
        <path d="m661 193-3-4v-2l-4-7-2-1c-2-2-3-3-3-6l-2-1a135 135 0 0 0 0-19l2-9v-2l3-7c1-2-2-3-3-2l-1 1-1-2v-7l1-1v-2c0-10-8-18-18-18-4 0-7 0-9 2l-6 3-2 1c-3 2-4 6-4 10l1 1v2l1 5c-2 1-2 3-1 3l-1 4-6-5c-2-1-4 2-2 4 5 5 6 5 8 9l2 2 2 10 2 20c0 2-2 4-1 6l-2 2c-2 1 1 4 3 2h1v3l1 4v1c-1 7 3 16 13 16l3-1 3 1c16-4 11-10 11-19v-2l1-1 1-1 2 2 1 2 3 3 1 1h1v1l3 1c1-1 2-2 1-3z" id="path12"/>
      </g>
    </g>
    <g id="Whole_stem_bottom_of_stem">
      <g id="g21" fill="none">
        <path d="M610 335v1-1z" id="path17"/>
        <path d="m661 405-3-4v-2l-4-7-2-1c-2-2-3-3-3-6l-2-1a135 135 0 0 0 0-19l2-9v-2l3-7c1-2-2-3-3-2l-1 1-1-2v-7l1-1v-2c0-10-8-18-18-18-4 0-7 0-9 2l-6 3-2 1c-3 2-4 6-4 10l1 1v2l1 5c-2 1-2 3-1 3l-1 4-6-5c-2-1-4 2-2 4 5 5 6 5 8 9l2 2 2 10 2 20c0 2-2 4-1 6l-2 2c-2 1 1 4 3 2h1v3l1 4v1c-1 7 3 16 13 16l3-1 3 1c16-4 11-10 11-19v-2l1-1 1-1 2 2 1 2 3 3 1 1h1v1l3 1c1-1 2-2 1-3z" id="path19"/>
      </g>
    </g>
  </g>
  <g id="outlines" transform="translate(-78 -4)">
    <g id="g223" fill="none" stroke="#000" stroke-width=".8" stroke-linecap="round" stroke-linejoin="round" stroke-miterlimit="10">
      <path d="M658 341c-10 8-12 18-11 29v10c0 4 1 6 4 10 6 7 12 15 13 26" id="path25"/>
      <path d="M658 129c-10 7-12 17-11 29v10c0 4 1 6 4 9 6 8 12 16 13 26" id="path27"/>
      <path d="M649 348c-3-4-2-8-2-13 1-11-6-18-17-18-9 0-17 2-20 12v6c1 3 0 8-1 12-5-4-12-4-16-10" id="path31"/>
      <path d="M649 136c-3-4-2-9-2-13 1-11-6-19-17-18-9 0-17 2-20 11v7c1 3 0 7-1 11-5-4-12-3-16-9" id="path33"/>
      <path d="m625 322-7 7c-2 3 2 8 5 8l6 1c5 2 10-2 10-7 1-5-2-8-8-8h-6" id="path35"/>
      <path d="M625 110c-3 1-5 5-7 7s2 8 5 8l6 1c5 1 10-3 10-8 1-4-2-7-8-7h-6" id="path37"/>
      <path d="M648 398c0 4-2 8 0 12 1 3-1 6-5 9-6 3-18 2-23-2-2-2-2-4-2-7 0-4 0-8-2-11" id="path39"/>
      <path d="M648 186c0 4-2 7 0 11 1 4-1 7-5 9-6 4-18 3-23-1-2-2-2-4-2-7 0-4 0-8-2-12" id="path41"/>
      <path d="M467 314c-1 6 2 11 2 17l4 33" id="path43"/>
      <path d="M493 166c1-6 0-12 3-18 1-2 0-4-1-6-14 1-17 12-10 19" id="path45"/>
      <path d="M488 386c-4 7-1 15-1 23 1 6 6 10 7 17l2 17" id="path47"/>
      <path d="m454 363 5 37v1c0 9 3 19 2 28" id="path49"/>
      <path d="M488 87c-7 9-12 17-8 29 1 4-1 10-3 15-1 6-1 12-5 17" id="path51"/>
      <path d="M475 105c-3 2-4 4-5 8l-5 14-2 2c-7 1-7 8-9 13s-3 11 0 16v2c-6 8-2 18-4 27 0 0 0 0 0 0" id="path53"/>
      <path d="M478 400c4 6 3 12 5 19l4 22c0 1 0 2 2 2s1-1 1-2l-1-17v-4" id="path55"/>
      <path d="M646 337c-8 8-18 10-29 6" id="path57"/>
      <path d="M646 124c-8 9-18 10-29 7" id="path59"/>
      <path d="M474 372c0 8 3 17 3 26v6" id="path61"/>
      <path d="M463 391c0 12 3 23 5 35 0 2 0 3 2 5 4 2 5 5 3 9" id="path63"/>
      <path d="M533 100c-5 6-7 13-10 20l-5 6" id="path65"/>
      <path d="M532 334c-8 8-19 11-28 18h-1c-7 0-13 0-19 4-3 8-3 16 2 24 3 6 5 7 10 5 4-1 7-2 11 0" id="path67"/>
      <path d="m450 387 2 16 3 21 1 2c7 4 6 11 7 17" id="path69"/>
      <path d="m531 349-16 25" id="path71"/>
      <path d="M466 357c3 13 4 27 4 40 0 10 3 20 2 30v4" id="path73"/>
      <path d="M533 188c-1 8-2 17-8 23" id="path75"/>
      <path d="M457 139c6 2 8 8 13 10v4c1 1 0 2-1 3-3 7-2 14 1 20l1 1" id="path77"/>
      <path d="M478 408c0 7 0 14 2 22 1 4-3 4-6 6" id="path79"/>
      <path d="M505 160c-3 4-6 7-10 9l-5 8c-5 8-4 17-4 26l-1 5c-4 7-5 14-5 21" id="path81"/>
      <path d="M533 153c-2 1-3 3-3 6s-3 5-5 7-2 5 2 6" id="path83"/>
      <path d="M486 332c1 7 3 14-2 20" id="path85"/>
      <path d="M460 316c0 7 3 13 2 19" id="path87"/>
      <path d="M481 154c-5 5-6 11-5 17 1 4-1 6-4 7-3 0-3 2-5 3-1 2-2 4-4 4" id="path89"/>
      <path d="M448 384c-1 12 0 24 1 37" id="path91"/>
      <path d="M514 87c2 1 3 2 5 1l-4 13-2 9c-2 7-5 14-9 19-3 4-3 8-2 12l2 13c1 2-1 7 5 5" id="path93"/>
      <path d="M600 132c2 4 6 7 11 11-1-4 2-6-1-8" id="path95"/>
      <path d="M600 344c2 5 6 7 11 11-1-3 2-6-1-8" id="path97"/>
      <path d="M533 180v5l-13 2" id="path99"/>
      <path d="M494 388c2 3 0 7 0 10 0 7 4 13 5 19 2 9 3 17 2 26" id="path101"/>
      <path d="m521 212-10-5v-6c0-4-8-10-12-9-3 0-5 5-4 8 3 4 2 8 4 13s-3 7-9 5" id="path103"/>
      <path d="m480 220-6-2c-3 3-2 7-2 11" id="path105"/>
      <path d="M625 378c2 11-5 16-12 21" id="path107"/>
      <path d="M459 366c2 7 4 15 4 22" id="path109"/>
      <path d="M625 166c2 10-5 16-12 21" id="path111"/>
      <path d="m508 107-8 16" id="path113"/>
      <path d="M494 118c0 8-8 12-9 20l-4 1h-4" id="path115"/>
      <path d="m473 179-6 18c-2 5-3 6-10 5" id="path117"/>
      <path d="M501 149c-2 5-4 10-1 15" id="path119"/>
      <path d="M512 135v2c-3 9-3 19-2 28s-2 16-8 22l-2 4" id="path121"/>
      <path d="M661 196c-7-2-10-9-15-14-2-2 0-4 1-6" id="path123"/>
      <path d="M450 197c1-3 4-1 6-2 0-1 2 0 1 2-1 4-1 7-4 10-4 3-3 9-4 15 6-2 10 0 14 0" id="path125"/>
      <path d="M661 409c-7-3-10-10-15-14-2-3 0-5 1-7" id="path127"/>
      <path d="m611 143 3 25 1 6" id="path129"/>
      <path d="m611 355 3 25 1 6" id="path131"/>
      <path d="m494 101-2 4c-3 4-7 9-5 15" id="path133"/>
      <path d="M496 207c-2 0-5 1-5 3-2 5-4 11-3 18l2 1" id="path135"/>
      <path d="M508 210c-2 2-2 5-2 8-1 6-6 8-11 10l-3 1" id="path137"/>
      <path d="M495 406c-2 2-1 5-1 7l-1 7" id="path139"/>
      <path d="M512 369c5 8 4 10-4 16" id="path141"/>
      <path d="M530 154c-3-1-4-4-5-7-6 0-9 5-6 11 1 3 2 6 5 8" id="path143"/>
      <path d="m456 428-1 2 2 13" id="path145"/>
      <path d="M457 195c2-5 5-9 6-14 1-3-3-11-7-12l-4 1" id="path147"/>
      <path d="M466 149c-2 5-7 6-11 9" id="path149"/>
      <path d="M525 173c-3 5-6 8-6 14-1 4-3 9-8 10" id="path151"/>
      <path d="M624 382c-5-2-8 2-8 5 0 5-4 8-5 13 0 2-2 5-4 6" id="path153"/>
      <path d="M496 323c1 4 0 8 2 12" id="path155"/>
      <path d="M624 169c-5-1-8 2-8 6 0 5-4 8-5 12 0 3-2 5-4 7" id="path157"/>
      <path d="M494 168c-3-3-5-1-6 1-2 1-3 3-5 3-4-7-4-8 1-12" id="path159"/>
      <path d="M512 119c5 7 10 13 17 18" id="path161"/>
      <path d="M500 302h3c-5 3-3 6-1 10l1 2c-2 7 0 13-1 20-1 3-4 4-7 5" id="path163"/>
      <path d="M515 219c-1 4-2 7-5 9" id="path165"/>
      <path d="M451 419c-4 5-4 18 1 23" id="path167"/>
      <path d="M533 117c-4 6-3 13-3 20" id="path169"/>
      <path d="M502 130c-1-4-4-6-8-7" id="path171"/>
      <path d="m460 175-2 2c1 6-2 8-7 9" id="path173"/>
      <path d="M462 144c0 3-4 6-3 10" id="path175"/>
      <path d="m495 347 4 2c-1 6 5 8 7 12" id="path177"/>
      <path d="M520 148c-2-4-4-6-8-6" id="path179"/>
      <path d="M480 434c2 3 1 6 2 9" id="path181"/>
      <path d="M485 185c-3 0-4 1-5 5l-6 9c-2 4-5 7-5 12l-1 3c-4 4-4 9-4 14" id="path183"/>
      <path d="m519 181-9-4" id="path185"/>
      <path d="m518 130-4 7" id="path187"/>
      <path d="m520 202-1 7" id="path189"/>
      <path d="M457 223c-1 2 0 5-3 6" id="path191"/>
      <path d="M524 135c-2 2-2 5-4 5" id="path193"/>
      <path d="M479 126h6" id="path195"/>
      <path d="M525 154c-1 3-2 5-5 5" id="path197"/>
      <path d="m460 348 1 10" id="path199"/>
      <path d="M527 95c1 2 1 5 3 6" id="path201"/>
      <path d="m484 139 2 5" id="path203"/>
      <path d="M452 177c2 3 4 1 5 1" id="path205"/>
      <path d="M496 319c1 2 3 0 5 1" id="path207"/>
      <path d="m485 115-5 2" id="path209"/>
      <path d="M466 169c-2 1-2 3-3 5" id="path211"/>
      <path d="M500 138c-2-1-3 1-4 2" id="path213"/>
      <path d="M490 336c5 0 5 4 6 8" id="path215"/>
      <path d="M472 185c2 2 5 1 7 3" id="path217"/>
      <path d="M453 370h-3" id="path219"/>
      <path d="M469 192c2 3 5 1 7 3" id="path221"/>
    </g>
    <g id="ArabidopsisPlant">
      <path d="M231 434h1c1-4 0-9-2-12v-2c-2-6 2-11 2-11l-1-1s-4 6-2 12l1 2c1 3 3 8 1 12z" id="path225"/>
      <path d="m257 351-9 12v1s5-9 9-13z" id="path227"/>
      <path d="M258 384c-1-4-8-5-8-5v1s6 1 8 4z" id="path229"/>
      <path d="m217 381-15 8 1 1s10-7 15-8z" id="path231"/>
      <path d="M208 393h1s11-12 17-11v-1c-6 0-17 11-18 12z" id="path233"/>
      <path d="M182 370h1s11-9 28-7v-1c-17-2-29 8-29 8z" id="path235"/>
      <path d="m223 352 5 10h1c-3-3-6-10-6-10z" id="path237"/>
      <path d="m237 366 1 3h1l-1-3z" id="path239"/>
      <path d="M263 409c-3-6-11-14-11-14v1s7 7 10 14z" id="path241"/>
      <path d="m315 381-2-1c-3-1-8-3-13-9l-9-7 3-4 1-1 4-4h1-1c-1-1-12-4-18-4-10 0-21 11-22 12l-10 5a106 106 0 0 1 10-9c1-2 4-6 4-9 0-2 0-4-2-5-3-1-8 1-10 2-5 6-5 9-5 14v1c-1 5-3 8-5 11v-3l1-7c1-2 0-7-1-10l-5-13 4-2-9 3v1l2-1 3 9 2 10v3l-2-3-1-1v4h-1l-2-9c0-3-12-13-13-14h-1l-1 8c-1 9 1 11 3 12l1 1a37 37 0 0 1 13 10l-6-4a64 64 0 0 0-8-5l-5-4c-4-4-10-7-15-8-10 0-20 12-25 18h-1c-6 8-6 10-6 11l1 1c3-2 5-2 11-1h1c5 0 9-2 12-4l2-2c3-2 9-5 13-5 16-1 24 8 27 11l-11-2-15-3c-5 0-14 7-17 12-3 8 1 12 5 15 7 5 15-1 19-5l3-1 8-9c2-3 7-3 9-3l1 6-3 10-2 4c-2 5 2 11 4 13 4 5 5 9 6 13 0 8-1 13-3 16v2l-1 9v6l-2 6s-6 6-5 11c1 4 2 8 1 10l-1 6h1l1-5c1-3 0-7-1-11s3-9 4-10l1 6c4 9 4 11 4 20-1 7 1 12 4 16v1l1 2 2 14h1l-2-14-1-3c-3-10-2-17-1-20l-1-4c1 1 4 3 4 6-1 3-1 6 1 8v1c0 2 0 5 2 6v-1l-1-5v-1h-1v-1c-2-2-1-4-1-7 0-4-4-6-4-7v1-4l-1-1v-1l-2-5c0-2-2-6-1-8v-2c1-3 2-7 1-11 0-5 1-7 3-11l1-7c1 1 4 3 4 9l1 10h1c1 2 3 4 2 11h1c0-7-1-10-3-12s-2-4-1-9c0-7-5-9-5-9v-11c0-4-2-6-4-9l-4-6c-2-6-1-9 1-12l1-2 3 11c0 4 3 7 4 7h1c-1-1-4-4-4-7a35 35 0 0 0-3-12v-11l1-2 5 8c3 14 5 17 8 20 11 12 19 8 22 6 1-2 1-7-2-15-3-7-15-9-19-10-4-2-10-10-12-13l6 6 4 4c8 4 14-1 15-3h1-1l-5-8c-3-3-13-2-18-2h-2c1 0 12-7 22-7 6 1 11 4 17 9 4 3 11 9 19 9 5 0 9-2 14-5v-1zm-34-30 17 4-4 3v2c-1 1-2 3-4 3-4-1-9-3-14-3 1-1 6-3 11-2v-1l-12 2v1l-14 2c3-3 12-10 20-11zm-44-1-4-9 2-1 6 13a33 33 0 0 1 0 15l-2-5v-3l-2-10zm-4 19c-3-3-8-7-12-8l-1-1c-1-2-4-3-3-12l2-7c4 4 12 11 12 14 0 2 1 8 3 9l1 8-2-3zm-24-2h-1c-4 0-10 4-13 6l-3 1c-3 2-6 4-11 4h-1c-5 0-8-1-11 1 0-1 0-3 6-10v-1c5-6 15-17 25-17 5 0 11 3 15 8a29 29 0 0 1 5 4l8 5 9 6 1 1-1 3-1 1h-1c-3-4-10-12-26-12zm36 10c5 0 15-1 17 2l6 7c-2 2-8 6-15 2l-3-4c-3-2-5-6-8-5 0 0 8 12 12 13 5 1 17 4 19 11 3 7 3 11 3 13-3 2-11 6-21-5-4-3-6-6-8-20l-6-9h-1v3l-1 3v1c1 3 1 6-1 8l-1 2c-1 2-3 6 0 13l3 6c2 2 4 5 4 8v3l-1 14v1c-2 4-3 6-2 11l-1 11-1 2 2 8 1 5 1 1v1l1 8c-1 2-2 8 0 17-2-4-3-7-3-13 1-9 1-12-3-20v-13l1-6a21 21 0 0 1 1-10c2-4 3-8 2-17 0-4-1-8-6-13-1-2-5-8-3-13l1-4c2-3 4-7 4-10l-1-7h-1c-2 0-7 1-10 4l-7 8-3 2c-5 3-12 9-18 4-4-3-8-6-5-14 3-5 11-11 16-11l15 3 12 2h1-1l2-1v-4l-1-2-2-8v-4l4 3a15 15 0 0 1 1 8l-1 3h1l-1 4h1v-4l1-1c2-3 5-7 5-12v-1c1-5 1-7 5-13 3-2 7-3 10-2l2 4-5 9-3 2a91 91 0 0 0-9 9l-4 7h-1 4zm38 1c-6-6-12-9-18-10-9 0-18 5-21 7l3-4c19-14 33-11 43-7l10 7c4 7 10 9 13 10l1 1c-13 9-26 0-31-4z" id="path243"/>
      <path d="M266 365v1s13-5 30 10h1c-18-16-31-11-31-11z" id="path245"/>
      <path d="M209 329s8-13 17-12v-1c-10-1-17 12-17 13z" id="path247"/>
      <path d="M251 248h1c-5-10-11-10-12-10v1s7 0 11 9z" id="path249"/>
      <path d="m193 200 9-1h3a17 17 0 0 1 8 1l5 2v-1h1c1 0 4 1 8 6l1 2c2 1 4 3 4 5l-2 44c-2 19-2 45-1 54a57 57 0 0 1-16-29l-1-2c-4-16-4-32-3-35 8-1 10 5 13 10v1l1 2v-2c0-5-1-9-3-11-4-4-10-3-12-3v-4h2l2-3-1-2-1-1-1 1 1-1-1-2h-1a34 34 0 0 1 0-2l1-1v-2l-2-1-1-1-2 1 2 3-1 1v3h-1l-1 1v1l-1 1v3l1 1 2 1v2l-7-3c-4 1-7 6-7 7v1c7-7 10-5 13-3l-5 6c-2 2-3 5-2 10 0 4 2 6 4 7v1-1l1-5 1-6 2-8v13c1 13 5 22 7 28v2c3 10 8 17 12 21-12-2-21 6-23 10a150 150 0 0 0-8 18v1h3c13 0 20-10 24-16l1-1c3-4 6-4 8-4-1 7 2 16 3 17l-4 1 1 1 10-3v-1l-7 2c0-1-3-10-3-18-2 0-5 1-8 4l-2 2c-4 6-11 16-25 15l1-2 6-16c3-3 12-12 24-9l3 3 1-1s-11-7-16-24v-2c-3-6-6-16-7-28v-14l1-2-1-1c0 1-4 6-4 12l-1 6-1 4c-1-1-3-2-3-6 0-5 0-8 2-10l6-6-1-1c-2-1-6-3-12 2 1-2 3-4 6-5l7 3v-3l2-1v5h1s7-2 11 2c2 2 4 6 3 10-2-6-5-12-14-11v1s-1 18 3 35l1 2c3 9 6 20 17 30v1-1l1-55a341 341 0 0 1 6-63c2-10 4-22 6-25a429 429 0 0 1 16-41v-6h1v2l1-3v-1l-1 4v1l-1 2h1l-1 2-8 20-7 25-2 10a181 181 0 0 0-6 36v1l-1 16v1-1c2-1 7-3 12-2 4 0 7 2 10 5 3 5 5 9 5 18l1 2h-2l-3-2c-4-3-9-6-11-9l-1-1c-3-5-5-10-8-10l-2 1h-2v1h1l-2 30v43c-1 8 1 19 2 22h1c-2-4-3-14-3-22l1-23v-20l1-30 2-1h1c2 0 5 5 7 9l1 2c2 3 7 6 11 8l4 3h2v-3c0-9-2-13-6-18-2-4-6-6-10-6l-11 2v-15l4-6 2-2c1 0 3-1 3-3l2 1 6-3 1-1 4-5a116 116 0 0 1 14-7c4-2 6-3 6-5l-1-1-4 1h-1c-10 5-21 10-27 20h-1 1l-3 3-2 1-3 4a126 126 0 0 1 1-13l2-2 3-4 1-2 3-3 7-5 12-9 3-2 4-2c2-1 6-3 6-5v-1h-1c-3 0-5 1-7 3l-11 6-2 2a25 25 0 0 0-7 7l-3 4-1 1v1l-3 3-2 2a30 30 0 0 0-4 5l4-20 3-10v-1l11-14 2-2 8-6 8-6c1-1 4-3 4-5v-2l-1 1c-1-1-4 0-7 2h-1c-5 3-10 7-14 13-4 5-7 11-9 16a171 171 0 0 1 8-25l1-2 1-1a30 30 0 0 1 2-4l2-1 3-4 2-2 2-2 2-1 2-2 8-8-1-1-3 2-5 3-1 1-4 4c-1 0-4 4-3 5l-3 4-1 2-1 2-2 1v1a317 317 0 0 1 6-14l1-2 3-2 1-2 3-2 5-4v-1h-2c-2 0-4 4-4 5h-1 1a43 43 0 0 1-4 3l-2 3 3-7c2 0 4-2 5-4v-1h1l-2-3v-1h1l2-2h-2l-1 1v-1h1l-2-1v-1l-1-1v5l-2 1v2h-1l-2 1-1 1v-3c2-2 1-3 1-3l-1-2-2 1-2 4 1 5v11l-3 5v-2a139 139 0 0 1 1-18v-2l-1-5h-1v10l1 4v8l-1 8-10 25v-5a67 67 0 0 1-1-13l-1-13-2-7v-2c-1-2-1-5-3-6h-1l-1 3c-1 3 0 5 1 8h1l1 3 4 10v1-1 1a137 137 0 0 1 0 5l1 11 1 7a444 444 0 0 0-7 29l-4-7-1-2-2-4-2-6c-1-4-4-8-6-11l-3-4s-6-10-10-10h-1v1c0 2 2 4 4 6l1 1a101 101 0 0 1 12 19l2 2 2 2v1l1 2v-1l2 3 1 2 3 8a433 433 0 0 0-3 17l-3-4-2-2c-3-4-6-6-7-6-1-2-8-5-8-5l-7-1h-9c-3 0-7 0-8 2l-1 1c0 2 2 3 6 3zm12 38 1-1v-1a2 2 0 0 1 1 0h1v2h-3zm3-3zm2-1h1v2l-2 2h-1l1-2 1-2zm-2-2 1 1-2 2h-1v-1l1-2h1zm-1-2v1l-1 2v-4h2l-1 1zm0-4 1 1 1 1h-3l1-2zm-2-1h1v3l-1-3zm-2 8 1-1 1 1 1 1-1 1h1-1v1-1l-2-1v-1zm-1 4 1-2h1v2h-2zm3 2h-2v-1h2v1zm67-47v-1l4-1v1c0 1 0 2-5 5a208 208 0 0 1-14 7l-5 4-1 1c-1 2-3 3-5 3h-1c6-10 17-15 27-19zm0-16-4 3-3 1c-5 3-9 6-12 10l-6 4 11-10 6-4 7-5 1-1 5-2-5 4zm-22 13 1-1 6-6 2-1a98 98 0 0 1 15-8l-2 1-1 1-7 5-6 4-10 8 2-3zm23-44-9 7a90 90 0 0 0-9 8h-2l2-2 1-1 3-3 2-2 2-1 7-6 3-1v-1l3-2c0 2-2 4-3 4zm-19 11c5-6 9-10 15-13v-1l6-2h1l-3 3h-1a182 182 0 0 1-9 7l-3 2a77 77 0 0 0-6 6v1-3zm-1 2v2l1 1-7 8 6-11zm11-30 5-4 5-3 2-1-6 6-3 2-2 1-2 2-1 2 2-5zm7-12h1v1l-4 3 3-4zm-13 3h1l-1 1h1v-1 1l-1 3v-4zm1-3h1l-1 1v-1zm0 5h1v-2l-1 2zm2-2h1l-1 1v-1zm3 0-4 7 1-2 1-3a10 10 0 0 1 0-1l1-1v-2l1 2zm1-2v-2a6 6 0 0 0 0 2zm0 0v1l-1 1v-2 1zm4-2h-1l-2 3-1-2 2-3 2 2zm-2-3zm1-3a1 1 0 0 0 0 1 17 17 0 0 0-1 1v-2zm-3 3h1l1-3v1a29 29 0 0 1-1 2h1l-1 1-1 1h-1l1-2zm-3 3h1a25 25 0 0 1 0 2v-2l-1 1v2h-1v-1l1-2zm-2 2a11 11 0 0 0 0 1v-1zm0-8 1 1-1 2v-1l-1 1v-1h-1l1-1v-1h1zm-1 3-1 2v1l1-3zm-1-1-1 1v1l1-2zm-1 2v1l1-1v-1l-1 4h1l-1 1v-4zm0 4h1l1-3v-2h1l-1 2v2l-1 2-1-1zm-3-9v12-12zm-17 22-1-3-2-8 1-2h1l2 6v1l2 7 1 8-4-9zm-19 30-5-5h-1l-4-4v-1c3 0 8 7 10 10zm7 15a200 200 0 0 0-13-19l5 4 7 11 1 1 2 5-2-2zm-37 22c1-2 5-2 8-2h3l6-1 6 2 8 4-1 1-5-1-1-1a18 18 0 0 0-7-1h-3l-9 1c-4 0-5-1-5-2z" id="path251"/>
      <path d="m202 249-1 1v1l1-1 1-2h-1v1z" id="path253"/>
      <path d="m200 254-1 5v1h1v-5z" id="path255"/>
    </g>
    <path id="line-bottomOfStem" fill="none" stroke="#000" stroke-miterlimit="10" d="m242 368 7-1h108"/>
    <path id="line-topOfStem_1_" fill="none" stroke="#000" stroke-miterlimit="10" d="m256 142 7-1h108"/>
  </g>
  <g id="labels" transform="translate(-78 -4)" font-family="Helvetica" font-size="10">
    <text transform="translate(381 132)" id="text263">Top</text>
    <text transform="translate(385 144)" id="text265">of</text>
    <text transform="translate(378 156)" id="text267">Stem</text>
    <text transform="translate(374 359)" id="text269">Bottom</text>
    <text transform="translate(385 371)" id="text271">of</text>
    <text transform="translate(378 383)" id="text273">Stem</text>
    <text transform="translate(445 493)" id="text275">Epidermal Peel</text>
    <text transform="translate(603 493)" id="text277">Whole Stem</text>
  </g>
</svg>