<svg version="1.1" id="TissueSpecificEmbryoDevelopment_svg" xmlns="http://www.w3.org/2000/svg" x="0" y="0" viewBox="100 70 825 650" xml:space="preserve"><g id="Torpedo" fill="none"><g id="Torpedo_Meristem"><path d="m751.5 441.6-.1-1.3m.9 64.7-6.2 1.5-4.3-3.4-11-2.4-11-7.6-3.4-4.7-4.9-4.5-4.2-6.8-.4-7-2.7-1.6-10.7-24.6-1.3-6.8-4.9-10.1H752"/><path d="M751.4 440.3s1.1 20 1.3 22.3c.3 2.3.5 4.2.5 4.2"/></g><path d="m752.9 427.1-.3-105.6-77.4-.5-.9 37.8 3.7 29c-.8 10.7 7.9 39.7 10.4 39.4h64.5z" id="Torpedo_Root"/><g id="Torpedo_Cotyledon"><path d="m681.4 301.4-12.1 3.8s-5.1-31.5-6.1-41.1-6.1-49.7-.3-66.9 15.9-40.8 23.9-46.8c8-6.1 24.3-13.5 30.4-13.5s15.1 2.6 17.9 6.8c2.9 4.1 9.2 8.3 8 15.6-1.3 7.3-4.1 29-6.1 35.1-1.9 6.1-3.2 22.6-2.5 28.4.6 5.7 3 27.3 5.4 33.5 1.3 3.3-.7 16.3 0 18.5 2.4 7.6 5.7 6.2 5.7 6.2"/><path d="M675.2 321c-4 1-4.5-14-5.7-16.7-5.2-11.1-2.6-21.9-3.4-23.5-4.2-8.6-1.8-15.8-2.7-18.5-2.1-6.3-4.4-23.6-2.5-38.9.2-1.8.1-22.1 2.5-29.2 5.7-17.2 15.4-37.9 23.4-44 8-6.1 24.3-13.5 30.4-13.5s15.1 2.6 17.9 6.8c2.9 4.1 10.2 8.3 8.9 15.6s-4.1 29-6.1 35.1c-1.9 6.1-3.2 22.6-2.5 28.4s1.1 27.7 5.4 33.5c0 0 .2 7.5-1 18.5-.9 8.4 12.7 6.2 12.7 6.2v40.6c.1.1-75.3-.9-77.3-.4z"/></g><path d="M815.6 321.2s2-1 3.3-5.5c1.3-4.5 7.7-27 8.6-36.3.5-5.6 7.3-29.6 8.6-33.1 1.3-3.5 4.8-32.2 4.5-40.5s-9.9-29.3-13.1-36.3c-3.2-7-11.5-14.7-18.8-17.5s-13.1-8.6-20.4-7.9c-7.3.6-14.7 5.6-17.4 10.5-4.8 8.6-5.8 28.7-4.5 35.1 1.3 6.4 2.6 42.9 0 48.8-4.1 9.1-1.4 17.1-2.9 25.4-.6 3.5-3.3 12.1-4 13.1-.6 1-7 3.6-7 3.6V321l63.1.2z" id="Torpedo_Apical"/><path d="M752.2 321.2v183l4.5-.2s2.9 1.4 6.1 2.1 7.5-4 7.5-4 7.8-3.5 13.2-7.6c4-3.1 9.8-13.5 11.3-17.7 3.9-10.9 4.2-20.3 4.1-24.6-.1-3.7 2.5-25.6 3.5-29.1s6.1-15 6.4-21c.3-6.1.3-36.6 0-38.6-.3-1.9-1.2-9.2-1.2-9.2l2.1-9.1c1.3-4.3 5-4.7 1.6-16.4l4.8-7.5-63.9-.1z" id="Torpedo_Basal"/></g><g id="Heart" fill="none"><path d="M525.7 214.7s2.7-10.9 4.2-21.7c1.5-11.2-.3-18.5-1-19.5-2.5-4.1-7.4-10.5-13.7-12.9-3.4-1.2-13.9-3.4-17.4-2.2-3.5 1.3-11.7 6.1-15.5 10.3-1.1 1.2-6.3 6.1-7.2 7.2s-3.9 5.2-5.5 6.9c-1.5 1.6-5.3 4.2-7.1 6s-4.3 3-4.3 3l-4.9-3.9c-7.7-5.1-15.2-17.9-18.5-21-3.3-3-7.8-15.3-28-18.1-5.8-.8-21.8 4.6-25.2 19.5-.2 1 .9 5.1.5 6.1-5.8 13.2 3.6 40.5 3.6 40.5l140-.2z" id="Heart_Cotyledon"/><path d="m525.7 214.7-13.8 29.1-8.2 21.8s-3.3 11.5-5 14c-1.6 2.5-6.2 10.8-10.2 16.9s-7.4 9.6-12.5 14.1c-5.2 4.6-8 4.7-8 4.7s4.4 3.6 3.4 8c-.9 4.4-1.1 5.6-4.8 6.5-3.7.9-10.2 1-14.1 1.6-3.9.6-7.8.9-7.8.9s.5-4.6-.7-9.2c-1.3-4.6-8.8-11.8-10.5-14.2-1.7-2.4-4.9-4.8-4.9-4.8s.1.9-4.2-2.2c-4.2-3.1-13.8-28.4-13.8-28.4s-10.4-18.9-13.4-22.3c-2.9-3.4-6.8-17.5-6.8-17.5l-4.8-18.8 140.1-.2z" id="Heart_Root"/></g><g id="Globular" fill="none"><path d="M220.9 181.5c1-13.4-7.2-16-8.8-17.4-1.6-1.4-3-1.9-3-1.9h-2.5s-2.1-2.4-3-2.9c-.8-.5-4.6-1.7-6.2-1.8-1.6-.1-7.6-.8-8.3-.4-.7.5-4.2 1.6-4.2 1.6-3.6-.8-8-2-14.4.2-6.3 2.3-11.2 6-12.5 7.9-.7 1-.7 3-1.3 4.4-.6 1.4-1.8 2.1-2.1 3-.4 1.1-1.4 7.2-1.4 7.2" id="Globular_Apical"/><path d="m153.3 181.4-2.5 9.1 1.9 8.8 2.2 7.6s1.6 2.7 3 4.8 5.2 5.6 5.2 5.6l2.7 1.6 2.7-.3 6.8 8.4 22.7-.7 5-8s3.6-.3 4.2-1c.7-.7 5.6-3 7.8-6.4 2.1-3.4 3.5-7.5 3.5-7.5l2.6-4.3s1.5-3.2 1.5-6.5-2.7-8.7-2.7-8.7l1.2-2.4-67.8-.1z" id="Globular_Basal"/></g><g id="Outlines" stroke="#000" stroke-linecap="round" stroke-linejoin="round" stroke-miterlimit="10"><g id="Torpedo_Outlines"><g fill="none"><path d="M746.5 369.3c-3.2 3.4-3.3 7.7-3.3 11.9 0 7.2.3 14.3.4 21.5 0 2.6-.4 5.1-.6 7.7-.5.1-1.1.2-1.6.3-.5-1.2-1.4-2.4-1.5-3.7-.6-5.6-1.1-11.1-1.5-16.7-.3-4.6-.5-9.2-.5-13.9 0-5.9 0-11.8.6-17.7.2-2.1 1.8-4.2 2.7-6.2m12-40.6c1.3.4 2.7.8 4 1.1-.4.3-.9.6-1.3.9.2 3-.6 6.5.8 8.9 4.9 8.3 3.8 16.7 2.3 25.4-.7 4.1-.9 8.3-1.5 12.4-.2 1.5-1.2 2.9-1.8 4.3M676.3 278c-3.4 1.2-6.9 2.4-10.8 3.8.5 5-.3 10 1.5 13.8 4.2 8.8.4 20.1 9.1 27.3 3.3-1 6.8-2.1 10.8-3.3 3.4 3.2 5.7 7.2 5.7 12.5-.1 6.5-.6 13.1 2.8 19.1.4.8.7 2 .5 2.8-1.5 5.2-.3 10 1.5 14.8 2.5 6.5-.6 12.7-.6 19.1-6.2.8-12.1 1.6-18 2.4m67.3-36.3c.3 2.7.6 5.4 1 8.1 1.6 11.2 3.5 22.4 4.6 33.7.7 7.2.6 15.9.6 23.2m-1.5-97c.6 11.8 1.3 23.6 1.9 35.4.2 3.9 1.2 8.4-3.8 10.5m15.8-39.2c1.4 1 2.7 2 3.8 2.7-8.8 17.3-6.2 34.8-4.2 52.2 8.3.9 16.1 1.7 24.1 2.5 1.2 5.9 2.3 11 3.6 17 4.2.2 11.4-.1 16.1.2M676.3 186.2v14.1c3 1.7 6.8 3.8 10.5 5.9m55.4 121.5h-4.4c1.5 8.5 2.8 16.1 4.2 24.5.6.3 2 .9 3.7 1.7.5-1.3 1.3-2.4 1.2-3.3-.8-5.8-1.4-11.6-2.9-17.2-1.3-4.8-1-8.9 1.7-12.9-1.8-1.7-3.6-3.2-5.3-4.8m-11.1 20.6c-.5 1.8-1.6 3.6-1.3 5.2 2.4 14.4 1.7 29 1.8 43.5 0 .6.3 1.3.5 1.9m11.9 24c1.1 7.6 2.5 15.3 3.3 23 .5 4.6-.2 9.3.2 13.8.4 4.7 1.4 9.3 2.4 13.9.2 1 1.7 7.2 2.3 8.1"/><path d="M773.3 336.8c-1.1 4.8-2.3 9.6-3.3 14.3-.6 2.5-1 5.1-1.4 7.6m21-41c-5.7 13.7-8.5 28.1-11.5 42.5m31.5-14.3c.2.5.1 2.1 0 2.4-3.2 4.9-1.6 10.1-1.5 15.3.3 9.7.1 19.4.1 29.2 0 1.6-.2 6.1-.1 7.6m-9.7-103.8c-1.8 3.8-3.7 7.6-5.5 11.5-1.3 2.8-2.6 5.7-3.8 8.6M686.8 152.3c1.9 2.7 3.8 5.3 5.7 7.9 4.5-1.5 8.4-2.8 10.8-3.5 5.9 3.7 10.5 6.6 15.1 9.5m-35.9 3.8c-2.9-.6-7.4-2.7-8.3-1.6-2.6 3.1-4.1 7.3-5.5 11.2-2 5.3-4.1 10.7-5.2 16.3-1.8 8.9-5.3 17.8-2.3 27.4-3 6.2-1.2 34.2 2.8 39.7 2.9-.7 5.9-1.4 9.9-2.3 1.4 3.3 2.8 6.8 4.4 10.5-3.8 7 1.2 12.9 2.9 19.3.7 2.6 2.9 4.7 1 7.7-.5.7-.2 2.5.4 3.2 4.5 5.4 4.5 11.8 4.2 18.2M791 284.2c-3.4-1.1-6.9-2.1-10.3-3.2-1.7 3.1-3 5.4-4.6 8.2 2.2 2.1 4.3 4.1 6.8 6.5-1.2 2-2.4 3.8-3.4 5.6-5.1 8.8-10.1 17.6-15.4 26.2-.8 1.3-2.5 2-3.8 2.9m38.5 123.2c-1.1-.3-3.3-.3-4.4-.6-9.7-2.7-12-1-12.9 9.6-.1.6-.4 1.2-.8 2.6 2.3 1.8 4.5 4 7.1 5.4 2.5 1.3 5.5 1.8 8.3 2.7-1.3 8.1-5.6 13.2-10.3 18.8-5.9 7-13.9 9.6-20.9 14m-29.8-362.4c1.1 1.4 4.4 5.6 5.8 6.6 5.1 3.7 4.1 9.1 2.5 13.3-1.4 3.8-2.1 7.5-1.9 11.1.2 4.5-1.1 8.2-3 12m-62.7 136.7c-.2 2.1-.4 4.1-.5 6.2-.1 8.4-.3 16.9 0 25.3.4 10.5.2 21.2 2.2 31.5 1.2 5.9-1.1 12.5 3.4 17.8.4.5-.2 1.8-.4 2.8m147.3-132.3c.4 6.9-1.2 13.3-3.8 19.6m-77.9 147.2c5.7.1 5.3.1 5.8 5.7.6 7.2.4 14.5 2.8 21.5m-22.5-132.4c1.6 5.1 3.1 10.2 4.8 15.3.4 1.2 1.2 2.2 1.9 3.4m-32.5-168.5c3.3 3.9 12.3 4.7 16.4 5.7.3 1.8.5 3.3.7 4.5 4.1 2.8 7.9 5.5 11.4 7.9.4 6.6 1.2 12.8 1.1 19-.1 8.8.9 17.6 2.1 26.3.3 2.3 1.2 4.5 1.9 6.7m-21.2 175.3c-5.3 1-10.5 1.9-15.8 2.9-3.4.7-6.8 1.4-10.9 2.3.7 3.2.7 6 1.9 8.2 4.3 7.8 5.7 17 11.8 24 .7.8 1 2.2 1 3.3-.5 6.8 3.9 10.7 8.2 14.9 1.9 1.9 3.3 4.4 5.3 6.1 3.3 2.7 7 4.9 10.5 7.2"/><path d="M788.6 435.7c3.9.6 7.7 1.1 12.2 1.8-.5 3.1-.9 5.4-1.2 7.8-.8 8-1.5 15.9-2.5 23.9-.2 1.3-1.2 2.6-1.8 3.8m-85.6-131.4c1.9-.5 3.7-1.1 6.2-1.8.5 5.3.7 9.8 1.5 14.3.4 2.6 1.3 6.2 6.2 4.3m68.8-95.7c-2.1 6.2-4.1 12.4-6.2 18.6m-76.5 38.8c2.2 6.1 4.5 12.1 6.7 18.2m-53-75.1c-1 6.4-.9 12.7 3.3 18.2m64.1 219.3c3.1.8 7.2 2 10.3 2.7.1-.3.2-.6.2-.9 1.4 1.1 2.8 2.3 4.2 3.4 3.7-.6 7.4-1.1 11.8-1.8 1.7.7 4.1 1.7 6.4 2.7-.6 4-1 7.5-1.5 11"/><path d="M808.2 400.4c-.8 4.5.6 2.2-.2 6.7-.6 3.2-4 10.7-4.5 13.9-.7 4-1.2 8-2 11.9-.3 1.6-.9 3.2-1.4 4.8m-74.8-26.8c2.2-.4 6-.7 7.4-1 1.6 9 2.9 17 4.3 24.9m-30.6-13.4c-5.9 2.2-11.8 4.5-17.7 6.7m125.2-138.2c3.6 1.7 7.3 3.3 11 5-3.6 12.5-6.7 24.3-14 34.8-3.5-1.3-6.5-2.4-9.4-3.5"/><path d="M707.8 293.3c3.1 7.3 7 14.3 7.7 22.5.3 3.7 1.4 7.4 2.3 11 1.7 7 3.9 14 5.1 21.1 1.1 6.1 1.4 12.4 1.5 18.6 0 4.8-1.1 9.6-1.2 14.3-.1 3.8.6 7.6.9 11.5.8 11.5 1.3 23 2.5 34.4.5 4.9 2.3 9.6 3.7 14.3 1.9 6.4 4.2 12.7 6.2 19.1 1.5 4.6 4.6 7.5 9.6 9-5.4-9.7-10.1-19.6-7.2-31m-16.3-118c1.4 3.3 2.9 6.7 4.3 10 1 2.3.9 5.6 4.8 5.3m-29.6 75c-5.8 2.2-11.6 4.5-18 7-1.5-3.6-2.8-6.5-4-9.3m13.9-48.4c-5.6.5-11.2 1-16.7 1.4m31.5-209.8c-2.3-3.3-4.5-6.7-6.9-10.1-5.9 2.6-11.3 5.6-16.4 10.3-4.1 3.9-7.8 7.5-9.7 12.7-.3.8 0 1.9 0 2.9m59.3-23.4c-8.2-9.4-18.2-7.1-28.2-4.2-1.4.4-2.6 1.5-3.8 2.3M713.6 277c-1.6-3-3.3-6-4.7-9.1-1-2-1.6-4.1-2.5-6.7 1.2-1.1 2.6-2.5 4.5-4.3 5.5 3.3 10.6 6.5 15.7 9.6m-14.5 145.3c1.6 4.8 3.1 9.6 4.8 14.3.3.9 1.2 1.6 1.9 2.4M701.6 397c-1.9 3.6-5.1 4.7-9.1 4.9-3.7.2-7.3 1.2-11 1.8m23-161.1c.5 1.7 1 3.5 1.7 5.7-5.3 3.7-11.9 2.1-17.5 4.3m57.4 29.2c-2 8-4 16.1-6.1 24.2-2.4-.9-4.1-1.6-6.5-2.4-1.5 3-3.1 6.1-4.6 9.3M682 219.2c3 2.9 4 6.4 3.9 10.5-.1 5.4.6 10.8.8 16.3.1 1.1-.3 2.2-.4 3.3m77.9 134.3c-.2 2.9 0 6.9.6 9.6 1.8 8.4-2.5 17 1.2 25.4.9 2.1.1 5 .1 8.4 4-.3 7-.6 10-.8"/><path d="M730.8 387.9c.5 7.2 1 14.3 1.4 21.5M704 321.5c1 4.3 1.9 8.6 2.9 12.9.6 2.4 1.3 4.9 2 7.3-1.1 3.2-2.3 6.5-3.5 10.1-2.9.6-5.9 1.2-9 1.7m51.9 65.5c3.2.2 7.6.4 11.2.6 0 6.2.1 11.6 0 17.1-.2 8.8-.6 17.5-.9 26.3-.2 5.1-.3 10.2-.5 15.3m22.4-163.5c-2.9 6.4-5.7 12.8-9 20 2.5 1.3 4.9 3 7.6 3.8 4 1.2 8.3 1.7 12.4 2.5m-4.3 130c-2.9 5.3-5.7 10.5-8.6 15.8m-3.9-179.3c-4.8.6-9.6 1.1-14.3 2-1.4.3-2.6 1.8-3.8 2.8m-65 27.7c-4.9.2-9.9.3-14.8.5m58.3-107.1c-4.3.5-8.7 1-13 1.5.7 4.2 1.2 7.6 1.8 11.8l-15.6 4.8"/><path d="M743 410.5c3.8 2.9 5.8 10 6.4 14.3.6 4.2 1.4 8.3 1.8 12.4.1 1.4-.6 2.9-.9 4.3m-76.4-180.7c.4-3.2.9-6.4 1.5-10.5 3.7-.4 7.5-.8 11.9-1.3 1.5 7.6 3.6 14.3 1.4 22 .6 1.4 1.5 3.2 2.4 5.1m85.1 32 5.3 5.3-.6.9c6.5 2.2 13 4.5 19.3 6.7.3 2 .6 3.4.8 5.1-.1.1-.2.5-.4.8-2.7 4.5-5.9 8.7-7.9 13.5-1.1 2.7-.1 6.3-.2 9.5 0 1.9.2 4.1-.6 5.7-2 4.2-2.2 8.5-1.3 13 .7 3.8 1.4 7.6 2.1 11.9h14.1m4.3-50.9c2.6 5.7.8 11-1.4 16.3m-2.5-82.2c-2.2 4.8-4.2 9.7-6.8 14.3-1.1 1.9-3.9 2.7-5.6 4.4-3.3 3.5-6.4 7.3-9.6 10.9-.7.8-1.9 1.3-2.8 1.9m-3.8 66c-.5 14.3 1.4 28.8-1 42.1 0 6.2.5 11.5-.2 16.7-.6 4.3-.5 8.2 1.6 12m-38.2-263c-3.8-.6-7.7-1.3-12.1-2-.9 4.5-1.9 9.5-3 14.5 4.8 2.2 8.9 4 13.7 6.1-.6 5.4-.6 11.4-4.8 16.3m64.5 77c-.8 3.5-1.6 7.1-2.6 11.4.3.8 1 2.5 1.8 4.5 2.7.6 5.6 1.2 8.9 1.9v10c4.2.8 8 1.6 11.7 2.4m-131.6-2c2.8-1.2 5.6-2.5 9-4 2.8 5 5.4 9.7 7.9 14.5m75.1-124.8c1.3 2.1 3.8 6 4.8 7.7-.8 3.2-1.4 6.1-2.1 8.9-4.4 1.2-8.7 2.3-13 3.4m-63.1 137.3c1.6 3.8 3.2 7.7 4.6 11.1-2.9 8-2.4 15.5 1.1 22.8m65.1-146.2c5.1-5.2 5.3-5.3 11.5-2.4 2.5 1.2 4.9 2.7 7.4 4m8.8-49c2.8 3.6 5.6 7.1 8.6 11-3.3 3.4-4.6 8.9-10.5 10.7-3.1.9-3.6 4.3-3.4 7.5.1 1.3-.3 2.5-.4 3.8m-43.6 55.5c3.8 6.8 1.2 13.4-.6 20.4 1.4.4 2.8.7 4.2 1.1m-54.2-96.6c-.3.3-.9.6-.9 1-1 5-4.1 7.3-9.8 7.1-1.6-1.9-3.6-4.3-5.5-6.6m132.3-1c.2 4.5.3 8.9.5 13.4m-6.7 18.1c-5.5 4-3.6 10.5-5.2 15.8-.9 3-1.3 6-2 9.1"/><path d="M806.5 355c-4.4-.3-8.8-.6-13.1-1m-11.5-119c.1-4.7.2-4.7 5.2-5.8 1.2-.3 2.2-1.5 3.4-1.8 3.4-.8 6.6-2.1 10.6-.7 4 1.3 8.5 1 12.7 1.3 2.1-2.4 4-4.6 5.9-6.9m-67.4 175c2 .6 3.9 1.2 6.2 1.9v22m48.3-259.6c2.1 4.3 4.1 8.6 6.2 12.9m-21.5 229.9c-.5 2.2-1.1 4.4-1.4 6.7-.8 5.9 1.7 12.1-2.3 17.8-1 1.5 0 4.4-.2 6.6-.3 2.9-.5 5.9-1.5 8.6-1.1 2.9-1.4 5.5.1 8.2m-22.4-188.4c-1.4 4.5-2.7 9-4.3 14.1 2.9 3 6.3 6.3 10.1 10.2-2.5 1.8-4.8 3.4-6.7 4.8-6.3-1.4-12-2.6-17.8-3.8-1.6-.3-3.2-.6-4.8-1m-30.1 8.7c2.8-1.3 5.7-2.7 9-4.2-2.3-4.6-4.2-8.3-6.9-13.7 1.1-.6 2.8-1.6 4.7-2.7l6.9 3c-.6 6.4-1.1 12.8-1.6 18.5 3.8 2.5 7.1 4.7 10.3 6.9m42.1 139.4c-1.1 4.1-2.2 8.3-3.3 12.4m-51.1-231.8c-3 .5-6 1.2-9.1 1.3-1.9.1-3.8-.9-5.7-1.3m-16.3-58.8c-2.1 1.6-4.2 3.2-6.2 4.7.2 3.2.4 6.3.6 9.4 5.4 3.4 6.4 9.4 8 15 .2.8.6 1.6.9 2.4m40.2 213.7 4.1.9c1 6.4 3.1 14.8 4 21.2.3 1.9 0 3.9 0 5.8-.4 0-.8.1-1.2.1-.6-.8-1.1-1.7-1.7-2.5m24.4 82.5c1.1 4.2-.7 9.8-1.9 13.9m63.1-281c-4.1-.5-8.3-1-12.4-1.4m-35.9 237c-2.4 1.4-4.8 2.8-6.2 3.5-5.3.5-9.6.9-13.9 1.3"/><path d="M781 182.4c-.6-3.4-1.2-6.7-1.5-8.5 2.1-7 3.8-12.7 5.6-18.5-1.5-2.5-3.2-5.3-4.8-8.1-4 .1-6.5 2-8.4 5.4-3.2 5.7-5.5 11.5-4.8 18.2.2 2-1 4.1-1.3 6.2-.3 2.2-.6 4.5-.4 6.7.2 2.6 1.2 5.1 1.3 7.7.6 10.7 1 21.3 1.5 32 0 .6.3 1.3.6 2.4h8.5c.3-.5.6-.9.9-1.4 1.5 1.9 2.9 3.8 4.4 5.7m-88.2-52.1c3.3 2.8 6.6 5.5 9.9 8.3-3.3 4.2-5.1 9.6-12.1 9.7-3.6 7.3-7.3 14.8-11.4 23.1h-4.6M809.6 201c-4 2.2-8 4.5-11.9 6.7m1.9 19.6c-.3 3.5-.6 7-1 10.5 0 .5.2 1.3 0 1.4-5.3 2.9-5.8 9.2-8.8 13.1 1 3.3 1.9 6.3 3.1 10.4h17.6c2.4 0 4.8.3 7.2.5m-119 138.1c2.4 3.7 4.8 7.3 7.2 11 .4.6 1 1.3.9 1.9-1 5.3 1.6 10 2.9 14.8m-18.1-152c.3 2.1.9 4.1.9 6.2 0 4.8.3 9.2 3.2 13.5 1.5 2.2.8 5.9 1.2 8.9m-12.5 111c.3 2.1.2 4.3 1 6.2 2.2 5 4.7 9.9 7.1 14.9m74.6-10.6c-.3 3.5-.6 7-1 10.5-.2 2.1-.6 4.1-.9 6.2m-67.9-55.4 5.7 8.1c2.4-.3 4.8-.6 7.4-1 .3-2.8.5-5.7.8-9.6 3.5-1.3 7.5-2.8 11.4-4.3m108.1-172c-1 3-2 6-2.8 9.1-.3 1.3-.3 2.9 0 4.3 1.4 6.3 1.4 6.9-2.8 15.1h-7.3c-6-1.1-3.2-6.1-3.8-9.8m-51.7 289.6c-4.6.7-8.3 1.3-13.9 2.1-.2 3.4-.3 7.1-.5 11.5h12.6c0 8.8-.3 17 .1 25.1.3 8.2 1.3 16.3 2.8 24.4-1.1 2.3-.1 4.2-1.4 7.2-2.9 0-8.4.5-11.9.5m57.6-279.2c-2.5 3.8-5.1 7.6-7.6 11.5"/><path d="M771.4 155.6c3.8 1 7.6 1.9 11.5 2.9m-27.3 333.6c.3 3.8.6 7.6 1 11.5m6.2-33.5c.8-2.2 1.5-4.5 2.4-7.1 4.2 1.8 8.3 3.5 12.4 5.2m11.5-215.1c-3.7 1.1-7.4 2.2-11 3.4-.8.3-1.7 1.1-1.9 1.9-1.5 6-3.1 12.1-4.3 18.2-.5 2.7 0 5.6-2.5 7.6m67-93.2c-2.5 1.3-5.2 2.4-7.6 3.9-1 .6-2 1.7-2.3 2.8-.6 1.8-.6 3.8-.8 5.5l6 6c1.9-1 6.4-3.4 8.7-4.7m-100.5 59.2c.7 3.9 1.2 7.8-1 11.5m31.1 86c-.3 7.3-.6 14.7-1 22m-21.2 148.4c-.2 1.1-.6 2.2 0 4.4 1.6 6.2.9 12.4.6 18.8-.2 6.4-.6 12.7-.9 19.1 0 .5 1.1 1.9 1.4 2.4m27.8-172.1c-3.7-.2-7.3-.3-11-.5m-50.7-87c-3.1 1.8-6.6 2.2-10 3.1-4.4 1.2-8.4 4.2-12.5 6.4m41.6-8.5 3.3 10.5m.1 136.2c-2.5 1.3-5.1 2.6-8.1 4.1-3.7-6.4-7.5-12.8-11.4-19.5-3.4 1.9-7.1 3.9-10.5 5.8-2.6.4-4.9.7-7.3 1m-18.7-155.3c-3.7 1.3-7.3 2.5-11 3.8m40.7 130c2.1 3.5 4.2 7 6.2 10.5.7 1.3 1 2.8 1.5 4.3m2.3-250c0 4-.4 7.9-3.3 11m10.5-42.5c-2.7-.6-5.4-1.1-8.1-1.7-3 3-6.1 6.1-9.4 9.5-1.4 3.4-3 7.2-4.5 11.1m83.2 5c-5.6 2.1-11.1 4.2-16.7 6.2-1.4.5-2.9.7-4.3 1M740.8 257c-.3 1.9-.6 3.8-1 6.5h-12.2c-1.7-5 1.1-11.6-4-16m44.5 243.7 3.3 10.5m-70.3-276.3c-4.4 3.6-3.7 9.3-5.9 13.6-2.6.7-5.3 1.4-8 2.2m-25.3-17.7c3.5.6 7 1.3 10.5 1.9"/><path d="M707.8 455.8c2.1 3.6 4.1 7.2 6.2 10.8m94.7-315.3c-6.9-4.8-14.8-6.3-22.9-6.5-1.7-.1-3.5 1.8-5.3 2.7m-55 280.1c-1.9.5-3.9 1.1-6.7 1.9 1.2 4.2 1.9 8.2 3.4 12 1.5 3.8 3.7 7.4 5.9 11.5 1.4-.3 3-.6 4.6-.9M718.3 138v10.5m41.1 129c-4.7 4.4-10.6 3.3-16.5 3.3-4.3 6.3-8.7 12.7-13.1 19.1m60.7 106.4c-3.3.3-9.5 1.4-12.8 1.7m-2.5-156.3h-10.4c-1.5-3.7-1.5-3.7.9-10.3 3.6-1 7.3-3 11.7-.8-2.7 5.4-2.3 10.5.7 15.4m-40.6-5.2c-3.3.6-6.7 1.3-10 1.9m42 224.1c-5.3-8.7-13.9-7.2-22.4-7.1-2.6 2.9-5.3 6.1-8.9 10.2-3.2-4.3-5.8-7.8-8.4-11.2m-23.9-207c-1.9 1-4.2 1.5-5.7 2.9-2.8 2.7-6 3.2-9.6 2.8"/><path d="M781 465.8c-2.5 2.9-5.3 5.6-7.6 8.6-2.5 3.2-5.7 4.2-9.6 4.3-3.2.1-6.5.8-9.5 1.6-3.2-.2-6.4-.4-9.6-.8-.7-.1-3.1-2.4-3.7-2.8m-16.4-73c-5 1.5-11 1-12.7 7.7-1.7.5-3.3 1-4.9 1.4m-34.5-208.4c1 4.5 1.9 8.9 2.9 13.4.1.3.1.7 0 .9-3.2 8-1.9 16.6-3.3 24.9"/><path d="M661.5 243.1c.6 0 1.3.1 1.9 0 5.9-.6 10.8.5 12.4 7.2m40.6 236.6c2.4-2.6 4.9-5.3 7.5-8.2 3.9 3.4 6.9 6.1 10.3 9.1-1.9 3.3-3.9 6.8-5.9 10.3M753.2 364c4.1 1.6 3.4 5.5 3.7 8.6.8 7.1 1.1 14.3 1.5 21.5.1 1.1-.6 2.2-.9 3.3M697.3 268c3.7 7.9 7.4 15.8 11.2 24-4.2 2.2-7.9 4.2-11.7 6.1m37.3-84.2c-5 2.3-11.4 2.4-13.1 9.2.5 3.2 1.1 6.5 1.6 9.9m60.3-20.5c.8 1 1.6 2 2.5 3.2-2.2 3.4-4.3 6.8-6.4 10.2m-90.8 44.5c-3.2.3-6.4.6-9.6 1M826.4 170c-3.2 2.2-6.4 4.5-9.6 6.7m-92 284.4c-3.3 1.9-6.5 3.8-9.8 5.7m-7.7-241.4c.6 3.2 1.3 6.4 1.9 9.6m63.6 205c2.1 4.1 6.8 3 10 4.8.6.3 1.3.3 1.9.5m-88.8-206c6.7 4 6.7 4 11.5-2.4.6-.8 1.5-1.4 1.7-1.6 4.7.2 8.7.4 12.7.6m101.7-53.5c.1 3.9-1.6 6.3-5.2 8.3-2.2 1.2-3.5 4-5.4 6-.8.9-1.9 1.6-2.8 2.4m-3.8 12c2.9 2.9 8.6 8.1 11.5 11m-41.1-34.9c-3 .2-6.1.3-9.1.5m-44.5 110.9c-.3 3.2-.6 6.4-1 10.3 3.3 2.5 6.7 5.6 10.7 7.6 1.7.9 4.7-.6 6.9-1.1.5-2.7 1-5.3 1.6-7.8m23.4-55.4c-.3 3-.6 6-.9 9.6h11m-82.7 29.6c-2.9.8-5.7 1.6-8.6 2.4m115.1-126.2c2.5 2.4 5.1 4.8 7.6 7.2m-62 305.4c-.7 2.5-1.3 5.1-2.1 8.1 1.1 1.2 2.3 2.5 3.1 3.4 3.5-.4 6.3-.7 9.1-1m-56.5-294.9c4.3 4.9 8.7 9.9 13.3 15.2-4.3 3.4-5.8 7.5-6.1 12.1 0 .2-.6.3-.9.5m57.7 364.6c2.7 3 2.7 6.6 2.9 10.5m-65.5-222.2c2.9.3 5.7.6 8.6 1m25.5-236.3c-1 1.3-3.2 4.5-3.9 5.9-1.3 2.5-3.4 3-5.8 2.3-4.7-1.3-9.1.3-13.3 1.7-2 .7-3.3 3.6-4.9 5.5m57.4 113.8c2.9 1.1 5.7 2.2 8.6 3.3"/><path d="m723.6 149.4 4.3 3.4c1.1.6 2.2 1.3 3 1.7 2.9-1.8 5.7-3.4 8.5-5.1m80.3 115.2c.2 2.4.4 4.8.7 8.2-1.6 2.2-3.8 5.2-5.8 7.9-.3 3.2-.7 6.1-.9 8.1-2.4 3.5-4.2 6.2-6 8.9m-42 165.3c.4-1.9.9-3.8 1.2-5.6 2.4-1.6 4.4-2.1 7-.2 1.8 1.4 5.1 1.5 7.3 2.3m8.8-313.4v6.7c-.3.4-.6.7-.9 1.1 2.1.8 4.2 1.6 6 2.3 1.4-3.6 2.4-6.1 3.4-8.6m-114.8 31.5c-2.3 2.2-4.7 4.4-6.8 6.5l-7.8-2.7m24.9 31.5c-.9 2.6-1.8 5.1-2.7 7.5-1.8 1.1-3.4 2-5 3M801 278l12.9 2.4m-54.4 162.5c1.6.4 4.6.8 6.3 1.2.5 4.3.9 8.5 1.3 12.6m23.4-285.8-8.1-3.3m42.5 70.7c1 1.3 1.9 2.5 2.8 3.7-1.3 5.7-5.8 10.5-3.7 16.9m4.3-16.3h7.6m-130-38.7 4.9-4.9c5-.7 9-1.3 13.1-1.8m12.1 45.9c-3.8.6-7.6 1.3-11.5 1.9m21.6 261.5c.5 2.5 1.8 11 2.3 13.6m20.1-293.7c-2.3 4.6-3.2 9.3-1.9 14.3m4.8 237.6c1.6 2.4 3.3 4.8 5.2 7.6 2.2 1.6 4.9 3.7 7.7 5.8m-21.8 84.6c-2.9.6-7.3 2-10.2 2.2-1 .1-2.2-1.5-3.3-2.2l.5 3.8v18.7c-4.5 6.6-8.9 13.8-13.9 20.5-5.1 6.7-5.6 14.2-5.2 22 .6 10.5 1.5 20.9 4.4 31 1.5 5.3 2.7 11 6.6 15.3.8.9 1.8 2.2 2.9 2.3 8.8.9 17.2-.3 23.8-6.7 5.1-4.9 9.6-10.5 14.4-15.7l2.4-10c.2-2.5.3-5.1.5-7.6.3-3.7 1.6-7.6.8-11-3.2-12.8-7.2-25.2-16.3-35.6-4-4.5-7.9-4.5-12.7-4.6H750m-46-431.1c2.1 2.4 4.1 4.8 6.2 7.2m35.4 317.3c-1 3.7-1.9 7.3-2.9 11m0-222.2c-1.5-2-2.9-4-4.4-6.1-2.7 1-4.9 1.8-7.9 2.9.2 3.2.5 6.5.7 9.4 2.1.8 3.5 1.3 4.9 1.9m103.1-62.6s-7 .5-9.4 1m-80.8 79.8c1.3 1.6 2.6 3.1 4.2 5-1.7 2.5-3.4 4.9-5.1 7.4m41.1-135.3c-2.4-.6-4.8-1.1-7.9-1.8-1.1 1-2.7 2.5-4.6 4.2 1.6 2.8 3 5.5 4.4 8.1M691.6 223c2.2 1.6 4.5 3.2 6.7 4.8m90.8 133.4c-5.6-.2-11.2-.2-16.7-.5-2.9-.1-5.7-.6-8.6-.9m-56-199.4c-1.6 1.9-3.2 3.9-4.8 5.8l.5.5c-2.6 1.6-5.1 3.1-7.7 4.7m66.5 120.9c-.1 1.8-.2 3.5-.3 5.7 1.9 3.5 5.3.1 7.9 1m-10 266.7c-3.7.3-7.3.6-11 1m-38.2-355.6c1 0 2.1.4 2.8-.1 3.1-1.8 5-.7 6.7 2 1 1.6 2.2 3.2 3.3 4.8m-3.7 140.7c-1.9 2.8-2.1 7-1.5 10.3.7 4.2.3 10 .6 14.3m15.7 104.2c2.4.5 4.8 1 7.2 1.4m45.7-56.8c-7.5-2.6-11.4 3.6-14.9 7.7-2-.2-3.7-.4-5.5-.5m-29.2 39.6c-1.8 2.4-3.5 4.8-5.3 7.2M762.3 299c-4.3 2.5-3.8 6.5-3.3 10.5m-21.5 78c-4.1.2-9.6.8-13.8 1m-11.1-107.6c-2.2.8-4.5 1.6-6.7 2.4m79.4-67.9c5.3-2.1 8 2.5 11.5 4.8m16.7-16.3c1.9.6 3.8 1.2 5.9 1.9 1.8-.6 3.7-1.3 5.6-1.9m-29.2 3.8c-2.1 2.2-4.1 4.5-6.2 6.7m-82.7 254.8 7.6-2.4c2.7 3.3 5.4 6.7 8.3 10.3 2.5-2.7 4.5-4.9 6.5-7M789.6 201l3.8-4.3c-2.4-4-4.3-8.1-3.4-13.8.5-.4 1.7-1.5 2.9-2.5m-93.2 94.7c-2.2 1.3-4.5 2.5-6.7 3.8m17.2 117.2c1.4 3.6 2.7 7.2 4.1 10.8m11.2-94c-1 2.2-1.9 4.5-2.8 6.6-1.8.5-3.6 1-5.3 1.6m4.3-13.5c-2.2.3-4.5.6-6.7 1m12.9-44.5c-.2 3.2-5.8 11.9-5.8 11.9l8.3 1.7m48.2-104.9h-11m4.8 120c-.6 2.1-1.2 4.2-1.9 6.7 1.1 1.7 2.5 3.7 3.8 5.7m21-149.1c1.8 1.4 3.5 2.9 5.3 4.3m-10.1 263.9c3.5.5 7.9 1 11.4 1.4m-65.9 7.2c-2.1.5-4.1 1-6.2 1.4m99.9-257.2-3.3 2.4c-1 .7-1.9 1.5-3 2.4-1.6-.2-3.4-.3-5.2-.5m-128.5-18.1c1.3 1.8 2.5 3.5 3.8 5.3 2.4 3.2 2.6 6.6.2 9.5-1.5 1.9-3.3 3.5-5 5.3m28.7 179.7c-2.1.2-4.1.3-6.2.5m43-61.2c-3.2 3-6.7 5.5-11.5 4.7-.7-.1-1.3-.9-1.9-1.4m58.3-66.4c3.7 1 7.5 1.9 11.2 2.9"/><path d="M821.1 272.3c2.2.8 4.4 1.5 7.6 2.6l3.4-13.6c.1-.3 0-.7 0-.9 2.6-8.6 3.3-14.8 5.4-21.9 1.2-4 .3-4.8 1.5-12 1.4-8.9 2.5-13.5 1.5-20.6-.3-1.8-.2-2.9-.4-4.8-.9-7.7-4.9-12.3-7.6-21.5-2.1-3.8-4.6-7.5-6.1-11.5-3-7.9-9.1-12.4-16.5-16.1-1.3 2.8-2.4 5.4-3.6 8-6.1.4-6.1.4-7.6 6.9-1.7.8-3.3 1.4-4.8 2.2-1.2.6-2.3 1.5-3.4 2.2.7 7.7 1.6 9.1 6.7 9.7 0 0 7.8-3.5 9.2-5.2.7-.8 2.1-1.4 3.3-1.4 6.1-.1 6.1 0 8.2 6.8-1.4 1.5-2.8 3.2-4.2 4.8 1.4 1.7 2.6 3.1 3.7 4.5m4.2-.9 4.8 5.7m-67 359.9h-10.5M792 380.8c-1.3 1.9-2.5 3.8-3.8 5.7M736 328.7c-1.3 1.9-2.5 3.8-3.8 5.7m-26.3-85.1c1.1 2.9 2.2 5.7 3.3 8.6m92.1-43.5c-3.3-4.5-6.6-9-9.9-13.4-2.8.8-4.7 1.4-6.6 2"/><path d="M831.6 260.3c-2.4-.5-4.8-1-6.6-1.3-3.6.1-2.3 5.5-6.3 4.7m-59.3 280.1c-3.2.2-6.4.3-9.6.5M714 189.6c-.5 1.8-1 6.4-1.4 8.1m41.6 283.9c.3 3.2.6 6.4 1 9.6M727.9 343c-1.8.3-3.5.6-5.3 1m8.2-188.8c-.3 3.8-.6 7.6-1 11.5m-3.3 15.7c-1 2.9-1.9 5.7-2.9 8.6m102.8 30.1c-1.9-.2-3.8-.3-5.7-.5M731.2 288l-7.2 2.4m14.9 83.7c1.4.2 2.9.3 4.3.5m11.5-55.5c-1.3.8-2.6 1.5-3.7 2.2-1.7-.4-3.3-.8-4.9-1.2m49.7-98c-.3 1.3-.6 2.5-1 3.8M769 288.5c1.2 1.4 2.4 2.7 3.8 4.4 1.3-1.1 2.3-2 3.4-2.9m-66 140c.3 1.1.6 2.2 1 3.3m60.7-152c2.5.3 5.1.6 7.6 1m-59.2 55.4-4.8 2.4M674.8 201c-1.7 2.5-3.5 3.9-6.8 2-1.4-.8-3.4-.4-5.2-.6m89.5 235.7c2.1.2 4.1.3 6.2.5"/></g><path fill="none" d="m740.5 408.8-3.7 2m66.9-231.3 1 2.9 4 3.1 4.9.5m-3.7.2-5.2 2.5-1.8 2.8-8.3 4.8"/><path fill="none" d="m797.2 181 1.9 4.5 2.2 6.9m-16.3-37 4.1-1.5m-71.7 9.4 2.9-4.1.9-7.2.5-2.6m-9.1 26.8 5.7 3.3 7.4 2"/><path d="m728 454.4 4.9 11.4"/></g><g id="Heart_Outlines" fill="none"><path d="M454.7 429.5c-2.2 6-1.1 13 1.2 18.9 1.9 4.7 6.5 6.4 5.6 12.6-.7 5-4.2 6.3-6.6 10.6-2.7 4.8-3.8 10.6-4.2 16-1.2 18 20.8 53.7 38.3 29.1 7.8-10.9 8.1-25.7 3-37.7-1.9-4.4-4.5-7.9-7.2-11.8-4.4-6.4-3.9-7.3-4.7-14.6-.8-6.8.5-23.3-7-27-4.2-2.1-14.3 6.4-18.5 3.3-4.5-3.4-4.3-14-2.8-18.6m72.5-239.7c3.2 5.7 4.7 16.4 4.7 22.3-.1 7.3-1.2 16.2-3.7 23.1-4.9 13.9-14.3 27-18.8 40.8-3.3 10-5.1 17.9-10.3 27.1-3 5.3-5.8 11.9-9.7 16.6-2.5 3-14.4 15.1-18 14.9m-71.1-153.8c-8.2 5-11.2 20.7-11.8 29.6-.4 5.8 7.9 26.1 1.6 26.1m98.6-44c4.9-12.3-8-.6-10.7 2.7-5.2 6.3-9.1 12.6-16.8 15.9"/><path d="M524.8 190.9c1 6.8.4 13.7-1.3 20.3-1 3.9-4.3 9.4-4.7 13m-136.6-49.4c-6.1 8.8.7 29.7 3.3 39.3 1.7 6.3 3.2 15.6 6.1 21.5 2.3 4.8 11.6 8.8 11.9 12.6"/><path d="m521.6 224.8-5.2-1.5c-.2-3.3 8.6-28.2 3-29.1m-72.2 187.6c-1.5 6.4-2.1 23.5 4.5 27.3 2.7 1.5 15.1-1 18.3-2.4"/><path d="M446.6 355.2c5.8.2 18.8-2.1 22.3 2.6 3.4 4.5.8 20 1.5 25.8 1 7.7-.2 15 .1 22.5.3 6.7 2.9 12.3 2.4 19.5m40.5-254.4c10.1.3 7.3 16.9 6.6 23.1"/><path d="M423.9 287.1c-3.4 9.2 8.9 21.6 14.4 27 8.9 8.8 7.1 18.4 7.3 29.8.2 8.8-1 18-.4 26.9 1.1 16.6 10.5 8.7 23.3 9.1M524.2 190c.5-7.8-.6-20.3-9.9-22.8"/><path d="M428.6 304.2c-10.1-2.4-13.9-22.8-17.8-30.7-3.9-7.9-17.9-26.1-19.3-37.2m-4.3-51.9c8 9.2 2.4 17.1 6.5 28 3.2 8.5 8.3 8.1 17.5 8.5m-5.7 0c-3.3 12 4.3 24.3 14.7 28.2"/><path d="M403.7 195.1c-5.1 5.1-2.9 18.4-1.8 23.7m30.6-55.3c-6.4 0-19.3-9.8-25.6 0-4.9 7.6 12 19.7 16.6 25.4m79.4 41.3c1 5.4-2.3 12.7-4.2 17.5 10.8 9.3 24.3-26.1 12.3-26.2m-57.5 26.4c7.7 3.8 10.9 2 12.6-6.6.4-2.3-1.1-6.2.4-8.1 1.7-2.2 3.5-.3 5.3-1.9 3.7-3.3 11.4-2.7 7-12.1-3.1-6.6-5.4-4.8-10.4 0-2.1 2.1.1 4.1-4.6 6.4-1.2.6-4.6-3.3-5.6-3-4.8 1.4-5.9.6-6.3 9.7-.2 6 5.2 13.5-2.2 16.9-2.9 1.4-17.1-3.9-19.5-5.5"/><path d="M424.1 155.3c-23.6-17.1-46.3 4.5-41.3 19.2m27.1 71c-.3 4.8 5.6 34.1 15.1 25.8m-27.3-51.6c-2.1 6 5 27.9 14 24.7m80.1 5.9c-2.4 7.3-8.3 19.2-13.8 24.5m-15.5-25.5c-2.3 4.1-1.7 17.8-.3 22.2m17.2 36.3c-6.4-8.3-10.9 9-14.5 11-4.4 2.4-21.4.6-20.3-8.4.7-5.2 15.1-5.3 18.9-5.9 11.2-1.6 5.3-4.8 10.7-16.1m-84-71.1c.3 5.7 6 17.8 7.1 23.3m49 103.5c7.4-.1 15.1.4 22.5.9m20.3-157c11.7-14.6 17.5 1.9 15.7 14.7m-26.5 245.7c-5.6.1-12.5 2.5-17.7 4.5m52.8-248.8c1.1 8-1.3 16.5-6.4 22.9m-18.2 21.5c1.7-2.1 10.6-13.6 9.7-16-2.3-6-10.9-3.4-13.4-.7-7 7.5-.9 24.1-19 13.1m45.2-67.1c7.5 3.2 4.3 10.5 7.8 15.9M508 204.1c.6 6.1-2.9 11.5-4.8 17.1M413 178.4c-7 8.2-5.1 16.5-1.2 25.2m38.7 1.4c1.7-3.8 1.4-13.3-3.3-15.2-3.5-1.4-6.5 4.6-8.4 6.8"/><path d="M529.9 193c4.6-22.5-8-28.6-14.7-32.4-10.5-5.9-24.7-2.6-32 7.2m-45.3 51c-3.8-5.4-23-23.2-26.1-11.2-1.8 6.7 4.1 9.2 7.9 12.5 8 7 6.2 6.9 17 4.1m67.5 24.3c1.6-3.9 5.4-15.4 10.3-16.8m-102.6 38.6c7.7 5.3 6.3 19.7 19.6 16.3m-13.3-53.7c.8 5.5 1.4 14 2.1 18.9.7 4.4 4.8 10.6 4.4 15"/><path d="M413.9 216.4c-6.2 9.5 3.1 20.2 13.2 17.4m19.8 98.6c6.9-1.7 32.3.5 21.9-16.3m-42.3-128.4c-6.6 1.9-6.3 10.7-9.6 15.6m24.3-2.2c2.3.5 5.9 1.9 7.6 3.5 4.3 4.1 2.3.4 2.1 5.8-.3 8.8-3.6 5.8-8 8.3-2.2 1.3-2.8-1.5-4.7 1-1.8 2.4 0 5.7.3 8.2.8 6.1 4.7 13 3.9 19.3m-22.8-86.8c2.9 3.7 11.1 15.6 17.7 10.8m34.1 20.3c3.6-13.4 25.2-4.3 10.9 4.5-8.3 5.1-21.6 7-11.8 20.3"/><path d="M468.5 328.8c2.5 5.3 2.8 22-.4 27m12.3-157.4c2 4.2 2.8 8.7 3.6 13.2m-82.1-43.4c-3.6 3.6-5 10.1-6.7 14.5m8.3 66.1c.8 5.5 11.8 20 7.1 22.4m9.6-99.7c3.7.4 12.3 3.5 12.3 8.4m-5.7 8.7c3 3 7.7 4.5 10.4 7.9 2.8 3.7 3 1.9 2.2 5.9-.4 1.8-7 7-8.1 8.1m55.7-17.2c2 4.3 7.5 7.9 10.8 11.4m21-10.2c-4.4 4.1-1.5 7.5-8.7 9-6.2 1.3-5.7-3.9-12.5 2.2-4.9 4.4-3.4 8-5.4 13-3.3 8.2-3.6 3.5-.4 10m-65.4-3.1c-1.5 6 11.7 30.6-5.5 23.5m24.8 41c-3.3-.1-10.1-2-13.2-.6m41.6-3c-.3-1-10-.3-10.9.4-3.7 3-3.1 13.2-4.1 17.6m43.1-120.2c7.4-3 16-17.4 7.2-21.6-6.4-3-8.4 1.5-11.6 5.4-6.4 7.5-1.2 7.9-2.6 14.6m-97.8 58.9c.8 4.1 11 21.1 9.4 23.7m76.3 24.8c-2.5 3.3-5.3 11.5-7.5 15"/><path d="M446.7 277.5c-5.5-.6-7.9-7.3-14.5-2.6-3.8 2.7-3.3 1.5-1.5 7.7 1.4 4.9 2.7 9.7 4.2 14.8m7.8-49.5c-.9 6.8-.3 13.9-.3 20.7"/><path d="M431.6 258.7c-.4 3.6 1.6 11.5 3.3 14.7m31.8-64.2c-7.2 1.4-6.3 7.5-8.4 13.5m36.2-47.3c-9.3-3.6-10.7 1.7-15.9 5.7m22.2-18.3c-4.6-3.9-10.5 2.8-13.8 5.1m-26 124c-2.7.6-6-.3-8.7-.1m23.9-77.1c3.5-3.8 11.7-2.5 15.9-1.3M476 273c1.4-7.2 8-20.1 3.4-26.4m23.5-24.8c-2 2.3-3.9 4.8-5.4 7.5"/><path d="M479.4 246.7c3.8 1.9 15.8 4.3 19.3 1.1M445.1 190c-4.9-7.7-11.8-16.1-18.3-3m45.4 61.4c0 2.4-2.3 18.5-3.4 20.8m-17.5-.2c1 2.3.7 8.8.7 8.3m-21.7 27.8c1.6-.1 7.9 4.6 6.6-.6m25.6-103c1-6 14.4-14.2 14.1-4m-25.2 33.9c-3.4 1.3-8.1 1-11.6 1.5m-2.2 73.7c1.8 2.2 4.6 1.6 6.9 2.4"/><path d="M431.3 172.1c1.4 2.2 3.3 4.2 3.9 6.9m9.6 103.3c.6 6.6-.1 17.4 2.1 23.9M507 227c-2.2 3.3-5.1 3.1-8.3 4.7m-29.9 37.5c-.4 1.4.7 1.5 2 2.1h0c1.7.9 3.1.4 4.6.9 1.4.5 1 3.3 2.9 3.8 13 3.5 8.2-7.2 16-9.9 7.8-2.7 6.2 7.5 2 11.5-2.1 2-6.6 3.9-9 5.7-3 2.3-1.5 8-8.1 6.8m4.8-.3c.9 5.1.4 3.6 4.5 6.7m-21.8-92.7c-9.4-7.8-4.9 7.2-14.1 3.6m-65.4-29.6c8.9 3 6.7 5.4 10.6 11.1 1.6 2.4 5.7 6.9 8.9 6.3m19.2-27.3c-5.6 2.6-10.4 7.8-12.4 10.5m21.4 119.1c.5 2.1 1.7 4.2 1.8 6.4"/><path d="M453.4 194.5c1.9 1.7 5.8 4.9 7.7 6.6m-13.8 16.2c1.6 1.8 5.8 3.9 7 6.3m-4.4 31.2c.6 2 1.3 12.2 1.4 14.2m-22.2-19.7c.4 1.9 2.1 7.5 2.5 9.4m33.3-32.7c1.4 1.7 1.8 3.7 2.4 5.7m-15 60.1c-1.8-.4-4.2-1.2-6-1.6m-63.2-115.1c2.3 1.9.4 6.2 3 8.7m80.9 11.9c1.9 1.4 2.9 3.4 3.9 5.4m-21 48.6c.6 1.7 0 3.4 0 5.1m0 63.8c-1.3 1.8-5.1 1.7-6.7 2.4m-53-151.3c-3.6-.7-4.8-2.1-6.6 3.8m33-17.9c.6 1.8 3.6 1.7 3.3 4.2m36 118.3c-3-1-6.1-.4-9.1-.6m-4.4-8.9c-.4 2.4-.9 4.8-1.1 6.4m-50.4-82.9c1.6-.8 5.2-1.9 6.8-2.7m33.9 69.3c0 1.7.3-1.8 0 0m65.3-9.4c.9 1.5-1.9 14.7-2.3 16.3m-.1 13.4c1 1.5-.9 3.4.6 4.8m-34-1.5c.2-2-1.2-4.2-5.2-4.2m47.6-14c-.7 1.6-1.6 2.9-3 3.9"/><path d="M464.3 196.6c-1-1.5-3.1-1.4-4.2-2.7l-1.3-.9c-5.2-5.8-11.6-9.2-16.3-15.7-5.1-7-10.3-16.5-18-21.1-4.7-2.8-19.9-4.5-24.5-.1-4 3.8-.8 14.7 6.1 11.2m55 115c0 1.5.1 3.7 1.3 4.8m-17.6-9.6c-1.1 1.3-.3 3.4 0 4.8"/><path d="M455.6 190.2c-1.3 2.1-.8 6-4.3 5.3m11.2 76.7c.4 1.4-1.1 4.9-2.6 6m-35.2-11.4c-.1 3 1.8 7.7 4.7 9.4m95.1-85.9c1.4.9 2.3-.7 3.6-.6m-59.6 81.6c-1.8 1.9-3.9 1.2-6 .9m-21.4-96.7c-.9 1-2.9 3.3-3.8 4.3m36.9-2.7c.8 2.1 5.2 4.8 5.1 7.7m-4.1 120.6c-1.1.5-9.3-.9-10.4-1.4m-18.3-122.4c-3 .4-4 1.5-5.4 2.7m45.8 91c.3 1.5 2.1 4.9 3.2 6.1m15.9-33.2c.4.8 1.9 2.5 2.3 3.3m-34.2 35c0 1.9 2.3 3.3 5.1 3.4m-2.1-61.5c1.7 1.6 5.5 2.3 7.3 3.6m-66.2 39.1c-.4.2-3.4 1.4-3.8 1.6m59.7 13.4 3-10.8M521.6 173l2.7-4.8m-127 72.4 11.3 4.1"/></g><g id="Globular_Outlines" fill="none"><path d="M180.7 312.2c-1.2 5.9-.7 11.7 2 17.1.6 1.2.6 2.2.4 3.3-1.2 7.1-.8 14 2.5 20.6.1.1-.1.4 0 .5 3.5 4.1 3.1 9.3 4.5 14.1 2.2 7.4.7 14-2.1 20.7-2.2 5.1-2.7 10.7-2.5 16 .2 6.1 2.7 11.7 6.2 16.9 3.5 5.1 7.4 9.9 11.4 14.6 1.4 1.7 2.4 3.3 4.9 3.5 3.4.3 5.9-1.2 8.1-3.3 2.7-2.6 3.8-6.1 5.2-9.5 2.2-5.2 2.2-10.6 1.5-16-.5-4-1.7-7.9-3.3-11.7-2.6-6.4-6.4-11.9-9.7-17.8-3.1-5.7-4.7-11.7-3-18.2.6-2.1.7-4.2-.5-6.2m-31.1-108.6c-1.3 2.1-1.4 4.5-.8 6.8.8 2.9.6 5.8.2 8.7-.7 5.3-.8 10.5 0 15.7 0 .2-.1.4 0 .5 2 3.3.9 6.8.6 10.3-.6 6.3 1.7 15.8 5.1 21.7 6.1-.7 12-2.9 18.2-2.7"/><path d="M201.6 327.7c3.4 3 4.6 7.2 5.1 11.4.6 4.8.9 9.6-.5 14.4-.3 1 1.6 2.3-.5 3m-29.1-72.2c4.8.2 9.4-.6 14.1-1.1.4-.1.9-.2 1.4-.2 5.6-.2 7.3 1.2 7.8 6.8.5 5.5.8 11.1-.4 16.5-.9 3.9 1.4 6.9 1.9 10.3.5 3.3.3 6.5.3 9.8 0 2.2-2.4 2.1-3.7 2.4-4.8.9-9.6 1.5-14.4 2.3m-26.8-148.9c-1.4 1.9-2.5 3.9-2.2 6.5.2 2.5.1 5.1 0 7.6 0 .8.3 1.7-.8 2.2-.5.2-.8 1-.5 1.6 1.3 3.6 1.9 7.6 4.1 10.8 2.2 3.2 4 6.9 8.4 7.9 1 .2 1.9.4 2.7-.3m37.1-52.8c0-3.5 1.9-4.5 4.9-3 4.2 2.1 7.5 5.2 9.1 9.6 1.4 3.8 2.8 7.8.1 11.6"/><path d="M206.7 162.2c-2.3-3.1-5.2-4.6-9.2-4.7-3-.1-6-.8-9 .1-1.2.4-2.4.7-3.1 1.9m2.3 7c1.4-3.3 3.5-3.5 6.8-2.9 3.8.7 7.1 3 11.4 2.6 4.4-.4 7.5 3 9.4 6.9 1.2 2.4 2.5 4.9 1.7 7.8-.4 1.4.8 2.2 1.6 2.7 2.8 1.6 2.8 4.6 3.3 7.1.2 1.1.7 2.6.3 4.1-.6 2.1-1 4.1-2.2 6-1.3 2.1-2 4.5-3.1 6.7-2.5 5.2-7 8.2-11.9 10.6-.5.2-1.4.3-1.9 0-2.3-1.7-4.5-.5-6.8-.3-3.7.3-7.5.1-10.6-2.6m12.2 11.3c.9 2.4.3 4.9.1 7.3-.2 2.3-2.5 2.2-4 2.4-6 .9-12.1-.3-18.2.3m20.3 22.8c-6.9.2-13.8-.4-20.6-.8"/><path d="M202.9 218.3c-1.7 2.6-3.3 5.3-5 8-2.9-.6-5.9-.6-8.8-.3-3.9.5-7.8.8-11.7.7-2.2 0-3.7 1.2-3.2 2.9 1.4 4.6.5 9.1-.3 13.6-.6 3.6.8 5 4.5 4.8 4.8-.2 9.6.7 14.4.4 1.4-.1 2.9.5 4.3.8m8.5 104.6c-5.2 2.8-11.4 2-16.6 4.9m-4-200.1c-4.6-1.5-9.1-1.3-13.9.1-5.3 1.5-9.3 4.3-13 8.1-1.1 1.1-1.7 2.3-1.1 3.8m10.9 9.2c-.9.6-1.3 1.7-2.7 2-1.7.3-1.8 2.1-1.9 3.5-.2 3.2-.6 6.5.1 9.4.5 2.2.3 4.7 2 6.6m44 .2c1.1 5.8-3.1 9.1-6.3 12.7-.7.8-1.4 1.4-1.6 2.5M176.1 186c-.9-1.8.3-3.2 1.7-3.4 2.2-.4 1.9-1.7 1.9-3.1 0-2 .3-4-.1-6-.4-2.4 1.1-4.3 1.3-6.5.2-1.8 2.3-2.3 4.2-1.6 1.5.5 3.3.8 3.2 3-.1 2.7.6 5.4.7 8.1.1 1.4-.9 2-.8 3.3.3 5.3.2 13.4.2 18.7"/><path d="M204.3 184.7c-.5-1 .3-2.3.6-3.2-.8-1.2-2.5-1.2-2.9-.8-1.3 1.4-2.8.6-4.2 1-2.9 1-6.1.5-9 1.6m8.4 52.7c1.5 2.7 1.9 5.8 1.5 8.7-.6 3.5-.4 7.2-1.1 10.6-.7 3-.4 5.6.4 8.5.6 1.9.5 4 0 6-.8 3.5.4 7.1-.2 10.6-.2.9-.3 1.8-.6 2.7m-39.3-78.3c1.6 4.5 4.3 9.4 9.5 10.6.4.1.7 1.2 1.1 1.6m13-51.3c-2.9-2.7-5.9-3.4-9.5-1.4-1.2.7-1.7 1.5-2.3 2.7-1.7 3.7-1.5 7.6-1.5 11.5 0 1.7.9 2.3 2.5 2.2 2-.2 3.4 1.1 5.1 1.7.3.1.4.7.6 1m27.9 1.3c.8 4.2-1.1 5.8-1.6 8.4-.3 1.7-1.1 3.7-2 5.5-.2.5-.6.5-1.1.5m-29.8-33.4c-2.7-1.6-5.2-.6-7.6.8-2.1 1.3-3.6 3.3-5.6 4.8-1.6 1.2-2.7 3.9-2.4 6.1.2 1.7-.6 2.8-1 4.1-1.5 4.5-3.7 8.9-1.6 13.8.5 1.2 1.8 4.1 1 4.1m60.6-15.3c.5 4.2-.4 8.5.2 12.8.3 2.1-2.9 4.5-5.1 4-2.5-.5-5-1-7.3-2.1m-14 8.1c-.2 2.1-.3 5-1.3 7.1-.6 1.3-1.4 1.1-2.1 1.5-2.8 1.5-5.7 2.4-9 .9-1.6-.7-3.6.3-5.4.8-1 .3-.7 1.6 0 2.3 2 2.4 3.6 5.2 6 7.3m29.1-60c-.8 1.5.3 2.9.3 4.3.1 3.1-.3 6.2-.9 9.2"/><path d="M174.7 197.5c3.8 2.2 9 3.6 13 1.6.8-.4 1.7-.1 1.9.1 1.9 1.7 8-.3 10.1-.1M176.1 186c0 2.9-1.4 6.9-1.4 9.8m42.3-13.6c-2.3 1.4-4.4 2.2-6.9-.2-1.2-1.1-3.3-.2-5.1-.4m-25.1-.2c2.5.8 4.9 2.1 7.6.8M166 201.6c.7 1.6 1.9 6.9 2.3 8.8.3 1.2 1.1 2.6 2.6 3.3 1 .5 2 .9 2.2 2.2m-18.2-36.4c1 1.9 2.5 2.6 4.6 2.2 1.5-.3 2.9 0 4.1 1.1m23.3 17.4c1.1 1.9-.8 4.9.1 6.8m-16.4-47.6c.2 1.6.4 3.3.5 4.9M154.9 198c2.1 1.5 7.1 1 9.4 1.1m47.9.8c2.1 1.2 4.2 2.4 6.2 3.5m-61.6-4.1c-.1 1.6.6 4.5 1.1 5.4"/><path d="M164.9 198.5s2.1.5 3.1.5h5.2c2.2.4 1.4-1.6 1.6-3.3m10.6-35.5s-.2.5.4 1.7c.7 1.2 1.3 3.8 1.3 3.8"/></g></g><g id="dividerLines"><path fill="none" d="M142 177.6h6.6v7.5H142z"/><path fill-rule="evenodd" clip-rule="evenodd" fill="#231F20" d="M146.9 181.1h1.2v.8h-1.2zm-2.2 0h1.2v.8h-1.2zm-2.2 0h1.2v.8h-1.2z"/><path fill="none" d="M148.6 177.6h6.6v7.5h-6.6z"/><path fill-rule="evenodd" clip-rule="evenodd" fill="#231F20" d="M153.5 181.1h1.2v.8h-1.2zm-2.2 0h1.2v.8h-1.2zm-2.2 0h1.2v.8h-1.2z"/><path fill="none" d="M155.2 177.6h6.6v7.5h-6.6z"/><path fill-rule="evenodd" clip-rule="evenodd" fill="#231F20" d="M160.1 181.1h1.2v.8h-1.2zm-2.2 0h1.2v.8h-1.2zm-2.2 0h1.2v.8h-1.2z"/><path fill="none" d="M161.9 177.6h6.6v7.5h-6.6z"/><path fill-rule="evenodd" clip-rule="evenodd" fill="#231F20" d="M166.8 181.1h1.2v.8h-1.2zm-2.2 0h1.2v.8h-1.2zm-2.2 0h1.2v.8h-1.2z"/><path fill="none" d="M168.5 177.6h6.6v7.5h-6.6z"/><path fill-rule="evenodd" clip-rule="evenodd" fill="#231F20" d="M173.4 181.1h1.2v.8h-1.2zm-2.2 0h1.2v.8h-1.2zm-2.2 0h1.2v.8H169z"/><path fill="none" d="M175.1 177.6h6.6v7.5h-6.6z"/><path fill-rule="evenodd" clip-rule="evenodd" fill="#231F20" d="M180 181.1h1.2v.8H180zm-2.2 0h1.2v.8h-1.2zm-2.2 0h1.2v.8h-1.2z"/><path fill="none" d="M181.7 177.6h6.6v7.5h-6.6z"/><path fill-rule="evenodd" clip-rule="evenodd" fill="#231F20" d="M186.6 181.1h1.2v.8h-1.2zm-2.2 0h1.2v.8h-1.2zm-2.2 0h1.2v.8h-1.2z"/><path fill="none" d="M188.3 177.6h6.6v7.5h-6.6z"/><path fill-rule="evenodd" clip-rule="evenodd" fill="#231F20" d="M193.2 181.1h1.2v.8h-1.2zm-2.2 0h1.2v.8H191zm-2.2 0h1.2v.8h-1.2z"/><path fill="none" d="M195 177.6h6.6v7.5H195z"/><path fill-rule="evenodd" clip-rule="evenodd" fill="#231F20" d="M199.9 181.1h1.2v.8h-1.2zm-2.2 0h1.2v.8h-1.2zm-2.2 0h1.2v.8h-1.2z"/><path fill="none" d="M201.6 177.6h6.6v7.5h-6.6z"/><path fill-rule="evenodd" clip-rule="evenodd" fill="#231F20" d="M206.5 181.1h1.2v.8h-1.2zm-2.2 0h1.2v.8h-1.2zm-2.2 0h1.2v.8h-1.2z"/><path fill="none" d="M208.2 177.6h6.6v7.5h-6.6z"/><path fill-rule="evenodd" clip-rule="evenodd" fill="#231F20" d="M213.1 181.1h1.2v.8h-1.2zm-2.2 0h1.2v.8h-1.2zm-2.2 0h1.2v.8h-1.2z"/><path fill="none" d="M214.8 177.6h6.6v7.5h-6.6z"/><path fill-rule="evenodd" clip-rule="evenodd" fill="#231F20" d="M219.7 181.1h1.2v.8h-1.2zm-2.2 0h1.2v.8h-1.2zm-2.2 0h1.2v.8h-1.2z"/><path fill="none" d="M221.4 177.6h6.6v7.5h-6.6z"/><path fill-rule="evenodd" clip-rule="evenodd" fill="#231F20" d="M226.3 181.1h1.2v.8h-1.2zm-2.2 0h1.2v.8h-1.2zm-2.2 0h1.2v.8h-1.2z"/><path fill="none" d="M228 177.6h6.6v7.5H228z"/><path fill-rule="evenodd" clip-rule="evenodd" fill="#231F20" d="M232.9 181.1h1.2v.8h-1.2zm-2.2 0h1.2v.8h-1.2zm-2.2 0h1.2v.8h-1.2z"/><path fill="none" d="M371.2 211h6.8v7.5h-6.8z"/><path fill-rule="evenodd" clip-rule="evenodd" fill="#231F20" d="M376.3 214.5h1.3v.8h-1.3zm-2.3 0h1.3v.8H374zm-2.3 0h1.3v.8h-1.3z"/><path fill="none" d="M378 211h6.8v7.5H378z"/><path fill-rule="evenodd" clip-rule="evenodd" fill="#231F20" d="M383.1 214.5h1.3v.8h-1.3zm-2.3 0h1.3v.8h-1.3zm-2.3 0h1.3v.8h-1.3z"/><path fill="none" d="M384.9 211h6.8v7.5h-6.8z"/><path fill-rule="evenodd" clip-rule="evenodd" fill="#231F20" d="M389.9 214.5h1.3v.8h-1.3zm-2.2 0h1.3v.8h-1.3zm-2.3 0h1.3v.8h-1.3z"/><path fill="none" d="M391.7 211h6.8v7.5h-6.8z"/><path fill-rule="evenodd" clip-rule="evenodd" fill="#231F20" d="M396.8 214.5h1.3v.8h-1.3zm-2.3 0h1.3v.8h-1.3zm-2.3 0h1.3v.8h-1.3z"/><path fill="none" d="M398.6 211h6.8v7.5h-6.8z"/><path fill-rule="evenodd" clip-rule="evenodd" fill="#231F20" d="M403.6 214.5h1.3v.8h-1.3zm-2.2 0h1.3v.8h-1.3zm-2.3 0h1.3v.8h-1.3z"/><path fill="none" d="M405.4 211h6.8v7.5h-6.8z"/><path fill-rule="evenodd" clip-rule="evenodd" fill="#231F20" d="M410.5 214.5h1.3v.8h-1.3zm-2.3 0h1.3v.8h-1.3zm-2.3 0h1.3v.8h-1.3z"/><path fill="none" d="M412.3 211h6.8v7.5h-6.8z"/><path fill-rule="evenodd" clip-rule="evenodd" fill="#231F20" d="M417.3 214.5h1.3v.8h-1.3zm-2.3 0h1.3v.8H415zm-2.2 0h1.3v.8h-1.3z"/><path fill="none" d="M419.1 211h6.8v7.5h-6.8z"/><path fill-rule="evenodd" clip-rule="evenodd" fill="#231F20" d="M424.2 214.5h1.3v.8h-1.3zm-2.3 0h1.3v.8h-1.3zm-2.3 0h1.3v.8h-1.3z"/><path fill="none" d="M426 211h6.8v7.5H426z"/><path fill-rule="evenodd" clip-rule="evenodd" fill="#231F20" d="M431 214.5h1.3v.8H431zm-2.3 0h1.3v.8h-1.3zm-2.2 0h1.3v.8h-1.3z"/><path fill="none" d="M432.8 211h6.8v7.5h-6.8z"/><path fill-rule="evenodd" clip-rule="evenodd" fill="#231F20" d="M437.9 214.5h1.3v.8h-1.3zm-2.3 0h1.3v.8h-1.3zm-2.3 0h1.3v.8h-1.3z"/><path fill="none" d="M439.6 211h6.8v7.5h-6.8z"/><path fill-rule="evenodd" clip-rule="evenodd" fill="#231F20" d="M444.7 214.5h1.3v.8h-1.3zm-2.3 0h1.3v.8h-1.3zm-2.2 0h1.3v.8h-1.3z"/><path fill="none" d="M446.5 211h6.8v7.5h-6.8z"/><path fill-rule="evenodd" clip-rule="evenodd" fill="#231F20" d="M451.6 214.5h1.3v.8h-1.3zm-2.3 0h1.3v.8h-1.3zm-2.3 0h1.3v.8H447z"/><path fill="none" d="M453.3 211h6.8v7.5h-6.8z"/><path fill-rule="evenodd" clip-rule="evenodd" fill="#231F20" d="M458.4 214.5h1.3v.8h-1.3zm-2.3 0h1.3v.8h-1.3zm-2.2 0h1.3v.8h-1.3z"/><path fill="none" d="M460.2 211h6.8v7.5h-6.8z"/><path fill-rule="evenodd" clip-rule="evenodd" fill="#231F20" d="M465.3 214.5h1.3v.8h-1.3zm-2.3 0h1.3v.8H463zm-2.3 0h1.3v.8h-1.3z"/><path fill="none" d="M467 211h6.8v7.5H467z"/><path fill-rule="evenodd" clip-rule="evenodd" fill="#231F20" d="M472.1 214.5h1.3v.8h-1.3zm-2.3 0h1.3v.8h-1.3zm-2.3 0h1.3v.8h-1.3z"/><path fill="none" d="M473.9 211h6.8v7.5h-6.8z"/><path fill-rule="evenodd" clip-rule="evenodd" fill="#231F20" d="M478.9 214.5h1.3v.8h-1.3zm-2.2 0h1.3v.8h-1.3zm-2.3 0h1.3v.8h-1.3z"/><path fill="none" d="M480.7 211h6.8v7.5h-6.8z"/><path fill-rule="evenodd" clip-rule="evenodd" fill="#231F20" d="M485.8 214.5h1.3v.8h-1.3zm-2.3 0h1.3v.8h-1.3zm-2.3 0h1.3v.8h-1.3z"/><path fill="none" d="M487.6 211h6.8v7.5h-6.8z"/><path fill-rule="evenodd" clip-rule="evenodd" fill="#231F20" d="M492.6 214.5h1.3v.8h-1.3zm-2.2 0h1.3v.8h-1.3zm-2.3 0h1.3v.8h-1.3z"/><path fill="none" d="M494.4 211h6.8v7.5h-6.8z"/><path fill-rule="evenodd" clip-rule="evenodd" fill="#231F20" d="M499.5 214.5h1.3v.8h-1.3zm-2.3 0h1.3v.8h-1.3zm-2.3 0h1.3v.8h-1.3z"/><path fill="none" d="M501.3 211h6.8v7.5h-6.8z"/><path fill-rule="evenodd" clip-rule="evenodd" fill="#231F20" d="M506.3 214.5h1.3v.8h-1.3zm-2.3 0h1.3v.8H504zm-2.2 0h1.3v.8h-1.3z"/><path fill="none" d="M508.1 211h6.8v7.5h-6.8z"/><path fill-rule="evenodd" clip-rule="evenodd" fill="#231F20" d="M513.2 214.5h1.3v.8h-1.3zm-2.3 0h1.3v.8h-1.3zm-2.3 0h1.3v.8h-1.3z"/><path fill="none" d="M514.9 211h6.8v7.5h-6.8z"/><path fill-rule="evenodd" clip-rule="evenodd" fill="#231F20" d="M520 214.5h1.3v.8H520zm-2.3 0h1.3v.8h-1.3zm-2.2 0h1.3v.8h-1.3z"/><path fill="none" d="M521.8 211h6.8v7.5h-6.8z"/><path fill-rule="evenodd" clip-rule="evenodd" fill="#231F20" d="M526.9 214.5h1.3v.8h-1.3zm-2.3 0h1.3v.8h-1.3zm-2.3 0h1.3v.8h-1.3z"/><path fill="none" d="M528.6 211h6.8v7.5h-6.8z"/><path fill-rule="evenodd" clip-rule="evenodd" fill="#231F20" d="M533.7 214.5h1.3v.8h-1.3zm-2.3 0h1.3v.8h-1.3zm-2.2 0h1.3v.8h-1.3z"/><path fill="none" d="M535.5 211h6.8v7.5h-6.8z"/><path fill-rule="evenodd" clip-rule="evenodd" fill="#231F20" d="M540.6 214.5h1.3v.8h-1.3zm-2.3 0h1.3v.8h-1.3zm-2.3 0h1.3v.8H536z"/><path fill="none" d="M652.3 317.2h6.7v7.5h-6.7z"/><path fill-rule="evenodd" clip-rule="evenodd" fill="#231F20" d="M657.3 320.7h1.3v.8h-1.3zm-2.2 0h1.3v.8h-1.3zm-2.3 0h1.3v.8h-1.3z"/><path fill="none" d="M659.1 317.2h6.7v7.5h-6.7z"/><path fill-rule="evenodd" clip-rule="evenodd" fill="#231F20" d="M664 320.7h1.3v.8H664zm-2.2 0h1.3v.8h-1.3zm-2.2 0h1.3v.8h-1.3z"/><path fill="none" d="M665.8 317.2h6.7v7.5h-6.7z"/><path fill-rule="evenodd" clip-rule="evenodd" fill="#231F20" d="M670.8 320.7h1.3v.8h-1.3zm-2.3 0h1.3v.8h-1.3zm-2.2 0h1.3v.8h-1.3z"/><path fill="none" d="M672.5 317.2h6.7v7.5h-6.7z"/><path fill-rule="evenodd" clip-rule="evenodd" fill="#231F20" d="M677.5 320.7h1.3v.8h-1.3zm-2.2 0h1.3v.8h-1.3zm-2.3 0h1.3v.8H673z"/><path fill="none" d="M679.3 317.2h6.7v7.5h-6.7z"/><path fill-rule="evenodd" clip-rule="evenodd" fill="#231F20" d="M684.3 320.7h1.3v.8h-1.3zm-2.3 0h1.3v.8H682zm-2.2 0h1.3v.8h-1.3z"/><path fill="none" d="M686 317.2h6.7v7.5H686z"/><path fill-rule="evenodd" clip-rule="evenodd" fill="#231F20" d="M691 320.7h1.3v.8H691zm-2.2 0h1.3v.8h-1.3zm-2.3 0h1.3v.8h-1.3z"/><path fill="none" d="M692.7 317.2h6.7v7.5h-6.7z"/><path fill-rule="evenodd" clip-rule="evenodd" fill="#231F20" d="M697.7 320.7h1.3v.8h-1.3zm-2.2 0h1.3v.8h-1.3zm-2.2 0h1.3v.8h-1.3z"/><path fill="none" d="M699.5 317.2h6.7v7.5h-6.7z"/><path fill-rule="evenodd" clip-rule="evenodd" fill="#231F20" d="M704.5 320.7h1.3v.8h-1.3zm-2.3 0h1.3v.8h-1.3zm-2.2 0h1.3v.8H700z"/><path fill="none" d="M706.2 317.2h6.7v7.5h-6.7z"/><path fill-rule="evenodd" clip-rule="evenodd" fill="#231F20" d="M711.2 320.7h1.3v.8h-1.3zm-2.2 0h1.3v.8H709zm-2.3 0h1.3v.8h-1.3z"/><path fill="none" d="M713 317.2h6.7v7.5H713z"/><path fill-rule="evenodd" clip-rule="evenodd" fill="#231F20" d="M717.9 320.7h1.3v.8h-1.3zm-2.2 0h1.3v.8h-1.3zm-2.2 0h1.3v.8h-1.3z"/><path fill="none" d="M719.7 317.2h6.7v7.5h-6.7z"/><path fill-rule="evenodd" clip-rule="evenodd" fill="#231F20" d="M724.7 320.7h1.3v.8h-1.3zm-2.3 0h1.3v.8h-1.3zm-2.2 0h1.3v.8h-1.3z"/><path fill="none" d="M726.4 317.2h6.7v7.5h-6.7z"/><path fill-rule="evenodd" clip-rule="evenodd" fill="#231F20" d="M731.4 320.7h1.3v.8h-1.3zm-2.2 0h1.3v.8h-1.3zm-2.3 0h1.3v.8h-1.3z"/><path fill="none" d="M733.2 317.2h6.7v7.5h-6.7z"/><path fill-rule="evenodd" clip-rule="evenodd" fill="#231F20" d="M738.2 320.7h1.3v.8h-1.3zm-2.3 0h1.3v.8h-1.3zm-2.2 0h1.3v.8h-1.3z"/><path fill="none" d="M739.9 317.2h6.7v7.5h-6.7z"/><path fill-rule="evenodd" clip-rule="evenodd" fill="#231F20" d="M744.9 320.7h1.3v.8h-1.3zm-2.3 0h1.3v.8h-1.3zm-2.2 0h1.3v.8h-1.3z"/><path fill="none" d="M746.6 317.2h6.7v7.5h-6.7z"/><path fill-rule="evenodd" clip-rule="evenodd" fill="#231F20" d="M751.6 320.7h1.3v.8h-1.3zm-2.2 0h1.3v.8h-1.3zm-2.2 0h1.3v.8h-1.3z"/><path fill="none" d="M753.4 317.2h6.7v7.5h-6.7z"/><path fill-rule="evenodd" clip-rule="evenodd" fill="#231F20" d="M758.4 320.7h1.3v.8h-1.3zm-2.3 0h1.3v.8h-1.3zm-2.2 0h1.3v.8h-1.3z"/><path fill="none" d="M760.1 317.2h6.7v7.5h-6.7z"/><path fill-rule="evenodd" clip-rule="evenodd" fill="#231F20" d="M765.1 320.7h1.3v.8h-1.3zm-2.2 0h1.3v.8h-1.3zm-2.3 0h1.3v.8h-1.3z"/><path fill="none" d="M766.9 317.2h6.7v7.5h-6.7z"/><path fill-rule="evenodd" clip-rule="evenodd" fill="#231F20" d="M771.8 320.7h1.3v.8h-1.3zm-2.2 0h1.3v.8h-1.3zm-2.2 0h1.3v.8h-1.3z"/><path fill="none" d="M773.6 317.2h6.7v7.5h-6.7z"/><path fill-rule="evenodd" clip-rule="evenodd" fill="#231F20" d="M778.6 320.7h1.3v.8h-1.3zm-2.3 0h1.3v.8h-1.3zm-2.2 0h1.3v.8h-1.3z"/><path fill="none" d="M780.3 317.2h6.7v7.5h-6.7z"/><path fill-rule="evenodd" clip-rule="evenodd" fill="#231F20" d="M785.3 320.7h1.3v.8h-1.3zm-2.2 0h1.3v.8h-1.3zm-2.3 0h1.3v.8h-1.3z"/><path fill="none" d="M787.1 317.2h6.7v7.5h-6.7z"/><path fill-rule="evenodd" clip-rule="evenodd" fill="#231F20" d="M792.1 320.7h1.3v.8h-1.3zm-2.3 0h1.3v.8h-1.3zm-2.2 0h1.3v.8h-1.3z"/><path fill="none" d="M793.8 317.2h6.7v7.5h-6.7z"/><path fill-rule="evenodd" clip-rule="evenodd" fill="#231F20" d="M798.8 320.7h1.3v.8h-1.3zm-2.3 0h1.3v.8h-1.3zm-2.2 0h1.3v.8h-1.3z"/><path fill="none" d="M800.5 317.2h6.7v7.5h-6.7z"/><path fill-rule="evenodd" clip-rule="evenodd" fill="#231F20" d="M805.5 320.7h1.3v.8h-1.3zm-2.2 0h1.3v.8h-1.3zm-2.3 0h1.3v.8H801z"/><path fill="none" d="M807.3 317.2h6.7v7.5h-6.7z"/><path fill-rule="evenodd" clip-rule="evenodd" fill="#231F20" d="M812.3 320.7h1.3v.8h-1.3zm-2.3 0h1.3v.8H810zm-2.2 0h1.3v.8h-1.3z"/><path fill="none" d="M814 317.2h6.7v7.5H814z"/><path fill-rule="evenodd" clip-rule="evenodd" fill="#231F20" d="M819 320.7h1.3v.8H819zm-2.2 0h1.3v.8h-1.3zm-2.3 0h1.3v.8h-1.3z"/><path fill="none" d="M820.7 317.2h6.7v7.5h-6.7z"/><path fill-rule="evenodd" clip-rule="evenodd" fill="#231F20" d="M825.7 320.7h1.3v.8h-1.3zm-2.2 0h1.3v.8h-1.3zm-2.2 0h1.3v.8h-1.3z"/><path fill="none" d="M827.5 317.2h6.7v7.5h-6.7z"/><path fill-rule="evenodd" clip-rule="evenodd" fill="#231F20" d="M832.5 320.7h1.3v.8h-1.3zm-2.3 0h1.3v.8h-1.3zm-2.2 0h1.3v.8H828z"/><path fill="none" d="M834.2 317.2h6.7v7.5h-6.7z"/><path fill-rule="evenodd" clip-rule="evenodd" fill="#231F20" d="M839.2 320.7h1.3v.8h-1.3zm-2.2 0h1.3v.8H837zm-2.3 0h1.3v.8h-1.3z"/><path fill="none" d="M748.9 264.1h7.5v6.7h-7.5z"/><path fill-rule="evenodd" clip-rule="evenodd" fill="#231F20" d="M752.1 269.1h.8v1.2h-.8zm0-2.2h.8v1.2h-.8zm0-2.3h.8v1.2h-.8z"/><path fill="none" d="M748.9 270.8h7.5v6.7h-7.5z"/><path fill-rule="evenodd" clip-rule="evenodd" fill="#231F20" d="M752.1 275.8h.8v1.2h-.8zm0-2.3h.8v1.2h-.8zm0-2.2h.8v1.2h-.8z"/><path fill="none" d="M748.9 277.5h7.5v6.7h-7.5z"/><path fill-rule="evenodd" clip-rule="evenodd" fill="#231F20" d="M752.1 282.4h.8v1.2h-.8zm0-2.2h.8v1.2h-.8zm0-2.2h.8v1.2h-.8z"/><path fill="none" d="M748.9 284.2h7.5v6.7h-7.5z"/><path fill-rule="evenodd" clip-rule="evenodd" fill="#231F20" d="M752.1 289.1h.8v1.2h-.8zm0-2.2h.8v1.2h-.8zm0-2.2h.8v1.2h-.8z"/><path fill="none" d="M748.9 290.9h7.5v6.7h-7.5z"/><path fill-rule="evenodd" clip-rule="evenodd" fill="#231F20" d="M752.1 295.8h.8v1.2h-.8zm0-2.2h.8v1.2h-.8zm0-2.2h.8v1.2h-.8z"/><path fill="none" d="M748.9 297.5h7.5v6.7h-7.5z"/><path fill-rule="evenodd" clip-rule="evenodd" fill="#231F20" d="M752.1 302.5h.8v1.2h-.8zm0-2.2h.8v1.2h-.8zm0-2.3h.8v1.2h-.8z"/><path fill="none" d="M748.9 304.2h7.5v6.7h-7.5z"/><path fill-rule="evenodd" clip-rule="evenodd" fill="#231F20" d="M752.1 309.2h.8v1.2h-.8zm0-2.3h.8v1.2h-.8zm0-2.2h.8v1.2h-.8z"/><path fill="none" d="M748.9 310.9h7.5v6.7h-7.5z"/><path fill-rule="evenodd" clip-rule="evenodd" fill="#231F20" d="M752.1 315.8h.8v1.2h-.8zm0-2.2h.8v1.2h-.8zm0-2.2h.8v1.2h-.8z"/><path fill="none" d="M748.9 317.6h7.5v6.7h-7.5z"/><path fill-rule="evenodd" clip-rule="evenodd" fill="#231F20" d="M752.1 322.5h.8v1.2h-.8zm0-2.2h.8v1.2h-.8zm0-2.2h.8v1.2h-.8z"/><path fill="none" d="M748.9 324.3h7.5v6.7h-7.5z"/><path fill-rule="evenodd" clip-rule="evenodd" fill="#231F20" d="M752.1 329.2h.8v1.2h-.8zm0-2.2h.8v1.2h-.8zm0-2.2h.8v1.2h-.8z"/><path fill="none" d="M748.9 330.9h7.5v6.7h-7.5z"/><path fill-rule="evenodd" clip-rule="evenodd" fill="#231F20" d="M752.1 335.9h.8v1.2h-.8zm0-2.2h.8v1.2h-.8zm0-2.3h.8v1.2h-.8z"/><path fill="none" d="M748.9 337.6h7.5v6.7h-7.5z"/><path fill-rule="evenodd" clip-rule="evenodd" fill="#231F20" d="M752.1 342.6h.8v1.2h-.8zm0-2.3h.8v1.2h-.8zm0-2.2h.8v1.2h-.8z"/><path fill="none" d="M748.9 344.3h7.5v6.7h-7.5z"/><path fill-rule="evenodd" clip-rule="evenodd" fill="#231F20" d="M752.1 349.2h.8v1.2h-.8zm0-2.2h.8v1.2h-.8zm0-2.2h.8v1.2h-.8z"/><path fill="none" d="M748.9 351h7.5v6.7h-7.5z"/><path fill-rule="evenodd" clip-rule="evenodd" fill="#231F20" d="M752.1 355.9h.8v1.2h-.8zm0-2.2h.8v1.2h-.8zm0-2.2h.8v1.2h-.8z"/><path fill="none" d="M748.9 357.7h7.5v6.7h-7.5z"/><path fill-rule="evenodd" clip-rule="evenodd" fill="#231F20" d="M752.1 362.6h.8v1.2h-.8zm0-2.2h.8v1.2h-.8zm0-2.2h.8v1.2h-.8z"/><path fill="none" d="M748.9 364.3h7.5v6.7h-7.5z"/><path fill-rule="evenodd" clip-rule="evenodd" fill="#231F20" d="M752.1 369.3h.8v1.2h-.8zm0-2.2h.8v1.2h-.8zm0-2.3h.8v1.2h-.8z"/><path fill="none" d="M748.9 371h7.5v6.7h-7.5z"/><path fill-rule="evenodd" clip-rule="evenodd" fill="#231F20" d="M752.1 376h.8v1.2h-.8zm0-2.3h.8v1.2h-.8zm0-2.2h.8v1.2h-.8z"/><path fill="none" d="M748.9 377.7h7.5v6.7h-7.5z"/><path fill-rule="evenodd" clip-rule="evenodd" fill="#231F20" d="M752.1 382.6h.8v1.2h-.8zm0-2.2h.8v1.2h-.8zm0-2.2h.8v1.2h-.8z"/><path fill="none" d="M748.9 384.4h7.5v6.7h-7.5z"/><path fill-rule="evenodd" clip-rule="evenodd" fill="#231F20" d="M752.1 389.3h.8v1.2h-.8zm0-2.2h.8v1.2h-.8zm0-2.2h.8v1.2h-.8z"/><path fill="none" d="M748.9 391h7.5v6.7h-7.5z"/><path fill-rule="evenodd" clip-rule="evenodd" fill="#231F20" d="M752.1 396h.8v1.2h-.8zm0-2.2h.8v1.2h-.8zm0-2.2h.8v1.2h-.8z"/><path fill="none" d="M748.9 397.7h7.5v6.7h-7.5z"/><path fill-rule="evenodd" clip-rule="evenodd" fill="#231F20" d="M752.1 402.7h.8v1.2h-.8zm0-2.3h.8v1.2h-.8zm0-2.2h.8v1.2h-.8z"/><path fill="none" d="M748.9 404.4h7.5v6.7h-7.5z"/><path fill-rule="evenodd" clip-rule="evenodd" fill="#231F20" d="M752.1 409.4h.8v1.2h-.8zm0-2.3h.8v1.2h-.8zm0-2.2h.8v1.2h-.8z"/><path fill="none" d="M748.9 411.1h7.5v6.7h-7.5z"/><path fill-rule="evenodd" clip-rule="evenodd" fill="#231F20" d="M752.1 416h.8v1.2h-.8zm0-2.2h.8v1.2h-.8zm0-2.2h.8v1.2h-.8z"/><path fill="none" d="M748.9 417.8h7.5v6.7h-7.5z"/><path fill-rule="evenodd" clip-rule="evenodd" fill="#231F20" d="M752.1 422.7h.8v1.2h-.8zm0-2.2h.8v1.2h-.8zm0-2.2h.8v1.2h-.8z"/><path fill="none" d="M748.9 424.4h7.5v6.7h-7.5z"/><path fill-rule="evenodd" clip-rule="evenodd" fill="#231F20" d="M752.1 429.4h.8v1.2h-.8zm0-2.2h.8v1.2h-.8zm0-2.2h.8v1.2h-.8z"/><path fill="none" d="M748.9 431.1h7.5v6.7h-7.5z"/><path fill-rule="evenodd" clip-rule="evenodd" fill="#231F20" d="M752.1 436.1h.8v1.2h-.8zm0-2.3h.8v1.2h-.8zm0-2.2h.8v1.2h-.8z"/><path fill="none" d="M748.9 437.8h7.5v6.7h-7.5z"/><path fill-rule="evenodd" clip-rule="evenodd" fill="#231F20" d="M752.1 442.8h.8v1.2h-.8zm0-2.3h.8v1.2h-.8zm0-2.2h.8v1.2h-.8z"/><path fill="none" d="M748.9 444.5h7.5v6.7h-7.5z"/><path fill-rule="evenodd" clip-rule="evenodd" fill="#231F20" d="M752.1 449.4h.8v1.2h-.8zm0-2.2h.8v1.2h-.8zm0-2.2h.8v1.2h-.8z"/><path fill="none" d="M748.9 451.2h7.5v6.7h-7.5z"/><path fill-rule="evenodd" clip-rule="evenodd" fill="#231F20" d="M752.1 456.1h.8v1.2h-.8zm0-2.2h.8v1.2h-.8zm0-2.2h.8v1.2h-.8z"/><path fill="none" d="M748.9 457.8h7.5v6.7h-7.5z"/><path fill-rule="evenodd" clip-rule="evenodd" fill="#231F20" d="M752.1 462.8h.8v1.2h-.8zm0-2.2h.8v1.2h-.8zm0-2.3h.8v1.2h-.8z"/><path fill="none" d="M748.9 464.5h7.5v6.7h-7.5z"/><path fill-rule="evenodd" clip-rule="evenodd" fill="#231F20" d="M752.1 469.5h.8v1.2h-.8zm0-2.3h.8v1.2h-.8zm0-2.2h.8v1.2h-.8z"/><path fill="none" d="M748.9 471.2h7.5v6.7h-7.5z"/><path fill-rule="evenodd" clip-rule="evenodd" fill="#231F20" d="M752.1 476.1h.8v1.2h-.8zm0-2.2h.8v1.2h-.8zm0-2.2h.8v1.2h-.8z"/><path fill="none" d="M748.9 477.9h7.5v6.7h-7.5z"/><path fill-rule="evenodd" clip-rule="evenodd" fill="#231F20" d="M752.1 482.8h.8v1.2h-.8zm0-2.2h.8v1.2h-.8zm0-2.2h.8v1.2h-.8z"/><path fill="none" d="M748.9 484.6h7.5v6.7h-7.5z"/><path fill-rule="evenodd" clip-rule="evenodd" fill="#231F20" d="M752.1 489.5h.8v1.2h-.8zm0-2.2h.8v1.2h-.8zm0-2.2h.8v1.2h-.8z"/><path fill="none" d="M748.9 491.2h7.5v6.7h-7.5z"/><path fill-rule="evenodd" clip-rule="evenodd" fill="#231F20" d="M752.1 496.2h.8v1.2h-.8zm0-2.2h.8v1.2h-.8zm0-2.3h.8v1.2h-.8z"/><path fill="none" d="M748.9 497.9h7.5v6.7h-7.5z"/><path fill-rule="evenodd" clip-rule="evenodd" fill="#231F20" d="M752.1 502.9h.8v1.2h-.8zm0-2.3h.8v1.2h-.8zm0-2.2h.8v1.2h-.8z"/><path fill="none" d="M748.9 504.6h7.5v6.7h-7.5z"/><path fill-rule="evenodd" clip-rule="evenodd" fill="#231F20" d="M752.1 509.5h.8v1.2h-.8zm0-2.2h.8v1.2h-.8zm0-2.2h.8v1.2h-.8z"/><path fill="none" d="M648.5 423.2h6.9v7.5h-6.9z"/><path fill-rule="evenodd" clip-rule="evenodd" fill="#231F20" d="M653.6 426.7h1.3v.8h-1.3zm-2.3 0h1.3v.8h-1.3zm-2.3 0h1.3v.8H649z"/><path fill="none" d="M655.4 423.2h6.9v7.5h-6.9z"/><path fill-rule="evenodd" clip-rule="evenodd" fill="#231F20" d="M660.5 426.7h1.3v.8h-1.3zm-2.3 0h1.3v.8h-1.3zm-2.3 0h1.3v.8h-1.3z"/><path fill="none" d="M662.3 423.2h6.9v7.5h-6.9z"/><path fill-rule="evenodd" clip-rule="evenodd" fill="#231F20" d="M667.4 426.7h1.3v.8h-1.3zm-2.3 0h1.3v.8h-1.3zm-2.3 0h1.3v.8h-1.3z"/><path fill="none" d="M669.2 423.2h6.9v7.5h-6.9z"/><path fill-rule="evenodd" clip-rule="evenodd" fill="#231F20" d="M674.3 426.7h1.3v.8h-1.3zm-2.3 0h1.3v.8H672zm-2.3 0h1.3v.8h-1.3z"/><path fill="none" d="M676.1 423.2h6.9v7.5h-6.9z"/><path fill-rule="evenodd" clip-rule="evenodd" fill="#231F20" d="M681.2 426.7h1.3v.8h-1.3zm-2.3 0h1.3v.8h-1.3zm-2.3 0h1.3v.8h-1.3z"/><path fill="none" d="M683 423.2h6.9v7.5H683z"/><path fill-rule="evenodd" clip-rule="evenodd" fill="#231F20" d="M688.1 426.7h1.3v.8h-1.3zm-2.3 0h1.3v.8h-1.3zm-2.3 0h1.3v.8h-1.3z"/><path fill="none" d="M689.9 423.2h6.9v7.5h-6.9z"/><path fill-rule="evenodd" clip-rule="evenodd" fill="#231F20" d="M695 426.7h1.3v.8H695zm-2.3 0h1.3v.8h-1.3zm-2.3 0h1.3v.8h-1.3z"/><path fill="none" d="M696.8 423.2h6.9v7.5h-6.9z"/><path fill-rule="evenodd" clip-rule="evenodd" fill="#231F20" d="M701.9 426.7h1.3v.8h-1.3zm-2.3 0h1.3v.8h-1.3zm-2.3 0h1.3v.8h-1.3z"/><path fill="none" d="M703.7 423.2h6.9v7.5h-6.9z"/><path fill-rule="evenodd" clip-rule="evenodd" fill="#231F20" d="M708.8 426.7h1.3v.8h-1.3zm-2.3 0h1.3v.8h-1.3zm-2.3 0h1.3v.8h-1.3z"/><path fill="none" d="M710.6 423.2h6.9v7.5h-6.9z"/><path fill-rule="evenodd" clip-rule="evenodd" fill="#231F20" d="M715.7 426.7h1.3v.8h-1.3zm-2.3 0h1.3v.8h-1.3zm-2.3 0h1.3v.8h-1.3z"/><path fill="none" d="M717.5 423.2h6.9v7.5h-6.9z"/><path fill-rule="evenodd" clip-rule="evenodd" fill="#231F20" d="M722.6 426.7h1.3v.8h-1.3zm-2.3 0h1.3v.8h-1.3zm-2.3 0h1.3v.8H718z"/><path fill="none" d="M724.4 423.2h6.9v7.5h-6.9z"/><path fill-rule="evenodd" clip-rule="evenodd" fill="#231F20" d="M729.5 426.7h1.3v.8h-1.3zm-2.3 0h1.3v.8h-1.3zm-2.3 0h1.3v.8h-1.3z"/><path fill="none" d="M731.3 423.2h6.9v7.5h-6.9z"/><path fill-rule="evenodd" clip-rule="evenodd" fill="#231F20" d="M736.4 426.7h1.3v.8h-1.3zm-2.3 0h1.3v.8h-1.3zm-2.3 0h1.3v.8h-1.3z"/><path fill="none" d="M738.2 423.2h6.9v7.5h-6.9z"/><path fill-rule="evenodd" clip-rule="evenodd" fill="#231F20" d="M743.3 426.7h1.3v.8h-1.3zm-2.3 0h1.3v.8H741zm-2.3 0h1.3v.8h-1.3z"/><path fill="none" d="M745.1 423.2h6.9v7.5h-6.9z"/><path fill-rule="evenodd" clip-rule="evenodd" fill="#231F20" d="M750.2 426.7h1.3v.8h-1.3zm-2.3 0h1.3v.8h-1.3zm-2.3 0h1.3v.8h-1.3z"/></g><g id="Labels" font-family="'Helvetica'"><text transform="translate(590.081 239.875)" font-size="10">cotyledons</text><text transform="translate(637 376)" font-size="10">root</text><text transform="translate(312.43 179.531)" font-size="10">cotyledons</text><text transform="translate(365.35 274.652)" font-size="10">root</text><text transform="translate(643 483)" font-size="10">meristem</text><text transform="translate(856 216)" font-size="10">apical</text><text transform="translate(820 438)" font-size="10">basal</text><text transform="translate(110.112 159.598)" font-size="10">apical</text><text transform="translate(110.112 209.1)" font-size="10">basal</text><text transform="translate(162.108 89.106)" font-size="12">Globular</text><text transform="translate(436.593 89.106)" font-size="12">Heart</text><text transform="translate(729.578 89.106)" font-size="12">Torpedo</text></g></svg>