<svg xmlns="http://www.w3.org/2000/svg" xml:space="preserve" id="TissueSpecificPollenGermination_svg" x="0" y="0" version="1.1" viewBox="200 20 422.3 468.9" author="Provart Lab - Bio Analytic Resource, University of Toronto">
  <g id="Samples" fill="#fff" transform="translate(-23 -11)">
    <g id="Pollen_tubes_harvested_after_growth_through_pistil_explants">
      <path id="path2" d="M405 414h-3v-1c-1-1-4-2-5 0-3 5-4 10-4 16l-2 1-3 15v3h-3a4 4 0 0 0-1 2l-10 4c-2 1-2 2-2 4 0 1 2 3 4 3l9-3 2-2 6-3v-1l2-1c5-8 3-18 4-27 2-2 2-5 5-7v-1l2-1c1 0 1-1-1-1z"/>
      <g id="g8">
        <path id="path4" d="M424 463v-1c0-5-1-10-3-14a2 2 0 0 0 0-1c-2-3-2-7-3-11h1l-1-6 1-2v-5l2-5 1-2 1-1v-2a23 23 0 0 0-2 0 2 2 0 0 0-1-1h-1l-1 2-1 2-1 3a3 3 0 0 0 0 1l-1 2v1a2 2 0 0 0 0 1 18 18 0 0 1 0 1l-1 2-1 4v1l1 3c-1 1-2 2-1 3l1 2 1 2c0 2 0 4 2 7v1c2 3 2 8 2 12a2 2 0 0 0 0 1l-2 5-7 6-6 7v3c0 2 1 4 3 2l8-7a2 2 0 0 0 1 0l3-3 1-2 1-2 3-9z"/>
        <path id="polygon6" d="M415 422z"/>
      </g>
      <path id="path10" d="m473 479-1-2 1-3-3-5v-3l-4-6a6 6 0 0 0-1-1l-2-4a2 2 0 0 0 0-1l-4-10c-2-5-6-9-10-13a2 2 0 0 0-1 0 92 92 0 0 0-5-7l-1-4-2-1-2-3-2-1v-1l-3-2-2-1c-2 0-2 3-1 4v1c1 4-1 10 2 14v3a2 2 0 0 0 0 1l-1 4 1 3 1 6c2 7 4 13 4 19v5l-1 2c0 3-1 5-3 8v1l-1 2 1 2v8c-1 3 3 4 4 2a2 2 0 0 0 1-1l2-7c2-3 4-6 4-10v-1l1-2c2-4 1-7 1-12l-1-1c0-3 0-5-2-7v-1c-3-5-5-10-6-17l1-6 3 1 2 1c-1 2 0 3 1 4h2l1 2a2 2 0 0 0 2 0l6 12v2l5 13 2 4v2l3 5v1l1 2 1 2c0 2 3 1 4 0 1 0 3-2 2-3z"/>
      <path id="path12" d="M487 451a46 46 0 0 0-1-4l-1-4-1-2-6-5a3 3 0 0 0-1-1v-1a67 67 0 0 1-4-2 4 4 0 0 0-1-1l-4-3-7-8-2-1c-3-3-6-7-12-7-2-1-2 3 0 4a2 2 0 0 0 0 1l1 1 1 3 2 2 2 2 1 2 9 7c5 4 12 6 15 11l3 1a2 2 0 0 0 0 2v9l-1 3v1l1 1-2 4c-1 2 3 4 4 2v-1h2c2-2 2-5 3-8s1-6-1-8z"/>
      <path id="path14" d="M506 451c1-7-3-16-7-19h-2a125 125 0 0 0-4-4l-10-8-6-6-2-1-2-1-7-1c-2-1-4 3-1 4h1l1 2 3 3a8 8 0 0 0 3 1l1 1 1 1 15 12c4 3 11 8 9 14l1 2v4c0 2 2 3 3 2h2l1-2 1-2-1-2z"/>
    </g>
    <g id="Pollen_germinated_in_vitro_for_4_hours">
      <path id="path17" d="M635 180c-6 4-13 3-20 1-1-2-3-4-5-4h-2l-1-1a23 23 0 0 0-2-1h-1v-1l-2-2-12-7-14-11a4 4 0 0 0-3-1c-3-2-6-1-7 1a6 6 0 0 0-2 0c-5 1-9 4-13 8l-18 13a6 6 0 0 0-1 2c-2 0-4 1-4 3-2 8-5 17-1 24l1 1 1 3 2 8 3 3 1 3 2 6c1 2 2 3 4 3-1 4 1 7 4 10a27 27 0 0 0 4 4c1 2 2 3 4 3 10 10 27 17 36 5 13-18-13-41-31-35-3-2-8-1-11 1l-5-4-1-2-2-2c-1-2-1-5-3-7 2-1 2-4 1-6-2-3 0-9 1-13l1-1 14-10 11-8 2 1 2-1c9 6 17 12 26 16l3 1c10 9 31 15 43 6 6-4 0-14-5-9z"/>
    </g>
    <g id="Pollen_germinated_in_vitro_for_30_minutes">
      <g id="g24">
        <path id="path20" d="M353 133v-1 1z"/>
        <path id="path22" d="M355 121c0-5-3-9-7-10l-7-1-7 4a8 8 0 0 0-1 0c-2-2-5-2-7-2-9 1-14 2-19 10s-7 18-7 27c-2 17 4 40 24 41 22 0 30-17 30-36l-2-17a10 10 0 0 0 1-4v-1l1-1 1-7v-3z"/>
      </g>
    </g>
    <g id="Dry_pollen">
      <path id="path27" d="M497 83V73l-1-9c0-4-2-8-4-11a25 25 0 0 0-2-4c-2-4-5-8-8-10-4-3-7-5-11-5-5-1-10 1-13 4l-1 1a34 34 0 0 0-2 2c-2 2-4 5-4 8-10 10-8 26-4 39l3 13 4 6a16 16 0 0 0 12 6c8 0 16-3 22-8a15 15 0 0 0 2-1c3-2 5-5 7-9l1-3-1-9z"/>
    </g>
  </g>
  <g id="Outlines" stroke-linecap="round" stroke-linejoin="round" stroke-miterlimit="10" transform="translate(-23 -11)">
    <g id="g305" fill="none" stroke="#000" stroke-width=".8">
      <path id="path31" d="M548 219c-13-7-12-19-11-32l23-18c4-4 9-2 13 0l35 20c12 6 24 8 35-3-1-8-3-10-10-6-10 5-18 0-27-5-8-5-17-11-25-18s-15-5-22 0l-28 19c-3 2-6 8-6 12 0 16 6 31 16 43"/>
      <path id="path33" d="M439 404c-4 9-3 17 0 27-3 8 0 15 4 23 6 14 2 27-4 40l-6 4c0-7-2-13 0-18 5-9 5-19 1-28-4-12-2-24-4-36l-3-6c-9 12-11 24-6 36 7 19 3 30-14 41-5-1-4-5-2-8l5-4c9-8 11-15 6-26-4-11-5-21 0-32 2-3 2-6 2-8"/>
      <path id="path35" d="M449 402c1 4 1 8 4 11l25 22c8 6 14 21 9 29-1 3-4 4-7 6l1-23-16-12a66 66 0 0 1-29-47c-1-8 1-14 5-21 3-7 3-15 4-22l1-22-1-14c1-15 4-16 17-10 1 10 0 11-11 13v32c2 14-3 25-8 38-2 6 0 14 6 19 13 13 27 24 41 34l10 11v11c4 1 7 1 7-4 0-7-1-15-7-20l-25-20"/>
      <path id="path37" d="M485 378c14-9 30-13 42-25l-1-2-14 4c-5 1-9 7-17 5l1 2-22 15"/>
      <path id="path39" d="M399 373h-4l-18-9 1-6 3 1c11 5 19 14 31 19 14 5 14 24 1 31-11 7-15 16-14 28 1 11-5 17-14 21l-10 4-2-7 16-8 5-29c1-7 7-10 13-12 9-2 12-9 7-18"/>
      <path id="path41" d="m436 414 17 21c4 4 7 9 8 15l8 15c2 4 4 7 4 10 0 5-1 10-6 9l-10-24-2-6c-1-6-2-11-8-15l-7-8"/>
      <path id="path43" d="m420 310-9-1c3 6 3 13 7 16 8 8 9 19 10 29 0 9 3 16 7 24"/>
      <path id="path45" d="M376 359c-4-1-9-4-14-4-9-2-19-2-28-3l-8-15c-4 4-8 7-7 8 0 4 3 8 6 9 9 3 17 9 28 7 6-1 11 1 16 6 8 7 16 13 28 14 5 0 10 4 15 6"/>
      <path id="path47" d="m492 350 15-21 3 3c7 3 11-1 14-7l-6-10-27 22-1-1 4-11-3-1-20 24"/>
      <path id="path49" d="m371 321 5-7-4-7h-10l-3 6-1 1 14 18"/>
      <path id="path51" d="M398 345c8 1 11 7 14 13 1 2 2 5 4 6 10 8 13 18 13 30 0 6 1 12-3 17"/>
      <path id="path53" d="m498 359 20-17-2-3-21 13"/>
      <path id="path55" d="M351 139c6-11 8-20-1-27-5-4-9-3-13 0"/>
      <path id="path57" d="m344 333-6-12c-12 7-11 13 3 22l2-9"/>
      <path id="path59" d="m410 399-11-2-4-9-16 11"/>
      <path id="path61" d="M438 333c-3 12-1 24 1 36"/>
      <path id="path63" d="M487 307v-4l-1-1c-9 4-10 6-8 13l-22 36"/>
      <path id="path65" d="m348 363 32 16"/>
      <path id="path67" d="M399 335c0-7-4-13-11-18l2 15"/>
      <path id="path69" d="m403 364-8-22-21-10-1 2 9 15"/>
      <path id="path71" d="m491 352-1 3 4-2-3-4c-5 3-11 6-15 10-8 6-12 15-21 20-3 2-2 7-3 10"/>
      <path id="path73" d="m479 319 5 2c-8 9-15 20-18 32"/>
      <path id="path75" d="m427 322 3-10h3l4 20"/>
      <path id="path77" d="m415 344-43-19c-2-1-2-8-6-2"/>
      <path id="path79" d="M456 337c4-7 5-14 0-21l-2 3"/>
      <path id="path81" d="M486 380c9 3 14 11 19 19"/>
      <path id="path83" d="m494 399-18-13h-2v8l-16 5"/>
      <path id="path85" d="M406 314v24"/>
      <path id="path87" d="M413 364c-1 2-2 3-5 4l-51-35-1 1 2 7"/>
      <path id="path89" d="M386 380c-9 3-12 13-19 19"/>
      <path id="path91" d="m490 355-22 19"/>
      <path id="path93" d="m489 304 6 8-10 8"/>
      <path id="path95" d="M469 355c-9 5-14 13-15 23"/>
      <path id="path97" d="m490 337-19 16"/>
      <path id="path99" d="M453 391c2 12 12 17 22 22"/>
      <path id="path101" d="M449 51c4-18 26-21 33-12 6 7 11 15 14 24 2 9 2 20 2 29l-12 6-5-4"/>
      <path id="path103" d="M305 129c2-10 7-16 18-17 7-1 13 0 17 7l13 23h-13l2-9"/>
      <path id="path105" d="M472 380c-5 4-14 2-18 10"/>
      <path id="path107" d="m351 143 3 26-12 6-6-4"/>
      <path id="path109" d="m426 323 8 18"/>
      <path id="path111" d="m548 228-3-2-5 8 9 13h6"/>
      <path id="path113" d="m442 314-3 18"/>
      <path id="path115" d="m576 235 11 10-1 4 4 1"/>
      <path id="path117" d="M345 345c10 4 22 2 30 11"/>
      <path id="path119" d="M494 101c-9 9-19 13-32 11-6-1-9-4-11-8l-6-17 6-5"/>
      <path id="path121" d="M349 178c-9 9-19 13-32 11-6-1-9-4-11-8l-5-17 5-5"/>
      <path id="path123" d="m411 368 15 14"/>
      <path id="path125" d="m344 339 27 5"/>
      <path id="path127" d="m410 318 6 17c-2 7 1 15 8 22"/>
      <path id="path129" d="M336 127c-3 5 2 8 4 11"/>
      <path id="path131" d="m388 341 8 11"/>
      <path id="path133" d="M481 50c-3 5 2 8 4 11"/>
      <path id="path135" d="M456 340v13l-2 2"/>
      <path id="path137" d="M577 222c-6-5-12-5-19-4"/>
      <path id="path139" d="m484 379-8 2-12-8"/>
      <path id="path141" d="m313 145-1 37 3-1 4 7"/>
      <path id="path143" d="m551 219 5 9"/>
      <path id="path145" d="M592 236c3 14-5 25-16 22 2-3 3-5 7-2"/>
      <path id="path147" d="m452 54-3-2c-5 11-6 22-3 33"/>
      <path id="path149" d="m307 131-3-2c-5 11-6 22-3 33"/>
      <path id="path151" d="m458 68-2 37 3-1 4 7"/>
      <path id="path153" d="M560 253c4 6 3-9 9-1l-3 5-4-2"/>
      <path id="path155" d="M495 65h-10a4317 4317 0 0 1 2-9"/>
      <path id="path157" d="m567 235-7-1"/>
      <path id="path159" d="m573 235-4 6"/>
      <path id="path161" d="m455 51 5 10s0 0 0 0l3 4"/>
      <path id="path163" d="M577 245c3 1 6 2 7 6"/>
      <path id="path165" d="m310 128 5 10h1l3 4"/>
      <path id="path167" d="m575 226 3-4c5 4 13 4 11 14l-1-6"/>
      <path id="path169" d="m562 222 5 2c-9 4-9-14-18-5l1 6"/>
      <path id="path171" d="m577 242-7 7"/>
      <path id="path173" d="M560 236h-4v2l3-1"/>
      <path id="path175" d="m342 342 6 9"/>
      <path id="path177" d="M306 162h7l3 3"/>
      <path id="path179" d="M450 85h8l3 3"/>
      <path id="path181" d="m486 66 4 13"/>
      <path id="path183" d="m342 143 3 13"/>
      <path id="path185" d="m333 119-5 3"/>
      <path id="path187" d="m470 39-3 6"/>
      <path id="path189" d="m325 116-2 6"/>
      <path id="path191" d="m477 42-5 3"/>
      <path id="path193" d="m587 237 3 2"/>
      <path id="path195" d="m573 221-2 5"/>
      <path id="path197" d="m325 343-4 3"/>
      <path id="path199" d="M496 88c-3 2-8 2-6 8"/>
      <path id="path201" d="M351 165c-3 2-8 2-6 8"/>
      <path id="path203" d="M570 227c-1 6-7 11-2 17"/>
      <path id="path205" d="m491 72 2 5"/>
      <path id="path207" d="m347 149 1 5"/>
      <path id="path209" d="M566 226c4 2 10-2 13 4l6-3"/>
      <path id="path211" d="m494 79-10 2"/>
      <path id="path213" d="m545 235 8 4"/>
      <path id="path215" d="M455 81h-8"/>
      <path id="path217" d="m558 231-4 1"/>
      <path id="path219" d="m453 65 10 4"/>
      <path id="path221" d="m555 239 3 13h5"/>
      <path id="path223" d="m560 228 4 1"/>
      <path id="path225" d="m349 156-10 2"/>
      <path id="path227" d="M310 158h-8"/>
      <path id="path229" d="m308 143 10 4"/>
      <path id="path231" d="m465 75 1 2-2 1"/>
      <path id="path233" d="m579 248-1 3"/>
      <path id="path235" d="m560 237 12 7"/>
      <path id="path237" d="m470 70-3 3"/>
      <path id="path239" d="m367 315-3 2"/>
      <path id="path241" d="M325 174v3"/>
      <path id="path243" d="m478 56-2 2"/>
      <path id="path245" d="m320 152 1 2-2 1"/>
      <path id="path247" d="m325 147-2 3"/>
      <path id="path249" d="m325 138-2 2"/>
      <path id="path251" d="m333 133-2 2"/>
      <path id="path253" d="M472 108v3"/>
      <path id="path255" d="m477 99-1 1v1"/>
      <path id="path257" d="M470 97v3"/>
      <path id="path259" d="m376 363-4-4 1-2 6 1"/>
      <path id="path261" d="m470 60-3 3"/>
      <path id="path263" d="m327 185 1 3"/>
      <path id="path265" d="m333 176-2 1 1 2"/>
      <path id="path267" d="m479 79-2 2"/>
      <path id="path269" d="m464 47-1 1"/>
      <path id="path271" d="m329 344-1 2s0 0 0 0"/>
      <path id="path273" d="m476 53-2 2"/>
      <path id="path275" d="m476 61 1 2"/>
      <path id="path277" d="m469 51-2 1"/>
      <path id="path279" d="m331 138 2 2"/>
      <path id="path281" d="m334 156-1 2"/>
      <path id="path283" d="m562 240-2 2"/>
      <path id="path285" d="m551 233 2 2"/>
      <path id="path287" d="m548 231-1 3"/>
      <path id="path289" d="M570 231h3"/>
      <path id="path291" d="M306 167h-3"/>
      <path id="path293" d="m334 166-1 2"/>
      <path id="path295" d="m319 124-1 1"/>
      <path id="path297" d="M450 90h-2"/>
      <path id="path299" d="M324 129h-2"/>
      <path id="path301" d="m331 130-2 2"/>
      <path id="path303" d="m479 89-2 2"/>
    </g>
    <path id="line307" fill="#bbb" stroke="#bbb" d="M286 413h318"/>
  </g>
  <g id="labels" font-size="10" transform="translate(-23 -11)">
    <text id="text310" font-family="Helvetica" transform="translate(380 72)">Dry Pollen</text>
    <text id="text312" font-family="Helvetica" transform="translate(225 141)">30 minutes</text>
    <text id="text314" font-family="Helvetica-Oblique" transform="translate(235 153)">in vitro</text>
    <text id="text316" font-family="Helvetica" transform="translate(227 165)">incubation</text>
    <text id="text318" font-family="Helvetica" transform="translate(457 205)">4 hours </text>
    <text id="text320" font-family="Helvetica-Oblique" transform="translate(459 217)">in vitro</text>
    <text id="text322" font-family="Helvetica" transform="translate(451 229)">incubation</text>
    <text id="text324" font-family="Helvetica" transform="translate(274 444)">Pollen tubes</text>
    <text id="text326" font-family="Helvetica" transform="translate(257 456)">after growth through</text>
    <text id="text328" font-family="Helvetica" transform="translate(264 468)">Stigma and Style</text>
    <text id="text330" font-family="Helvetica" transform="translate(268 480)">(pistil explants)</text>
  </g>
</svg>