<svg xmlns="http://www.w3.org/2000/svg" xml:space="preserve" id="TissueSpecificStigmaAndOvaries_svg" x="0" y="0" version="1.1" viewBox="220 40 304.3 448.3" author="Provart Lab - Bio Analytic Resource, University of Toronto">
  <g id="samples" fill="#fff" transform="translate(-26 -11)">
    <g id="Stigma_tissue">
      <path id="path2" d="M547 91h-2a5 5 0 0 1-1 1h-1l-3 1-2 1-3 1-2 1a5 5 0 0 0-1 0l-4 2a4 4 0 0 0-2-1l1-1 1-1 2-1 4-3 1-2 2-2a10 10 0 0 0 2-1l1-1 1-1v-2c0-1 0-2-2-2l-1 1a2 2 0 0 0-1 1l-5 2a3 3 0 0 0-1 0l-3 1-3 2a79 79 0 0 1-3 2l2-5 5-7v-2l1-1v-1c1-1 0-2-1-1a19 19 0 0 1-1 1 2 2 0 0 0-1 0l-2 1-1 1-4 2-5 4-5 5 8-13 1-3h1l-1-3c-1-1-2 0-3 1 1-1 0 0 0 0h-1v1l-1 1-1 1-7 8-1 2-2 1a9 9 0 0 0 0 2 7 7 0 0 1-1 0l-1 2-1 1a15 15 0 0 0-1-1v-2c0-3 2-6 4-10a33 33 0 0 0 4-10v-1l-2-2h-1l-1 1c-3 5-7 9-9 14l-4 7-2 5-1 2-2 3-1-3 1-6a149 149 0 0 0 2-10l1-7v-5a2 2 0 0 0 0-1h-1a2 2 0 0 0 0-1 1 1 0 0 0 0-1l-1-1-1 1-2 2v1l-2 6a12 12 0 0 1-1 4l-2 2-1 3a5 5 0 0 0 0-1l1-4-1-2a2 2 0 0 0 0-1v-9a3 3 0 0 0 0-2v-1l-1-2-1-1-2 1v1l-1 1-1 3a1 1 0 0 0 0 1v1a2 2 0 0 0-1 1l-1 14-2 4 1-10-1-2-1-6c0-3 0-5-2-7l-1-1h-1c-1-1-2 0-2 1l-1 7v7a4 4 0 0 0-1 2 4 4 0 0 0 0 2v1l-1-3-1-3v-1l-2-7v-1l-1-2v-1a2 2 0 0 1 0-1c-1-2-3-2-2 0l-2 2v5a2 2 0 0 0 0 1l-1 5a5 5 0 0 0-2 0v-2l-2-5a10 10 0 0 0-2-4v-1l-3-1-1 2v7l1 4 1 7 1 5v5l1 2a5 5 0 0 0-1 2l-1-1-2-3-1-2-1-3-1-2-1-4c-1-4-3-8-6-11v-1l-2-2-2-1h-1l1 2a2 2 0 0 0 0 2v1l3 11 3 7v2l1 3 2 2v3l1 1 2 3-1 1-2-2-4-5-2-4h-1l-1-2-1-1-1-3-2-1-1-1a19 19 0 0 1-2-2 2 2 0 0 0-1-1l-1-2-6-6a2 2 0 0 0-1 0c-1-1-4 0-3 2 0 3 2 4 4 6l4 6a25 25 0 0 0 3 4l1 2 3 4 2 3-4-2-6-5-3-2a2 2 0 0 0-1-1l-4-3-6-4-2-1-2-1h-2l1 2h1v2l3 3 2 2 3 3 3 2 1 3a2 2 0 0 0 0 1 2 2 0 0 0-1 0l-10-5-5-2c-2-1-3-3-5-3a2 2 0 0 0-1 0c-1-2-3-1-3 1l2 4 2 1v3a241 241 0 0 1-5-2h-5c-2-1-3 0-3 1l1 2h1l1 1 2 1 1 1 3 1 1 1a8 8 0 0 0 1 1h1l3 2 3 2h1c3 3 8 4 11 5l3 2 3 1 1 1 6 3c0 2 2 3 4 2l6-4 5-4 4-2 5-1c1-2 4-2 6-3h1l2 1 2-2 1-1 2 1v1l1 1 1-1v-1l2-1a3 3 0 0 0 1-1l3 3h12a3 3 0 0 0 2 0l4 2h2c1 1 2 2 3 1 2 2 6 0 8-1v2l2 2 2 1v1l4 2 1 2v2h1l1-1 2-1h1a3 3 0 0 0 3 0h1v-1h2v-1c4-2 7-3 10-6l5-1 2-2 3-1v-1h1l2-1h1l7-3 2-2v-1l1-2v-1h1l-1-2z"/>
    </g>
    <g id="Ovary_tissue">
      <path id="path5" d="M533 233v-88l-1-7-5-11a27 27 0 0 0-22-10l-5-3-1-1c-9-6-17-10-28-10-4 0-9 1-12-1-2 0-3 4-4 3-4-4-7-2-10-1-7 0-14 4-19 10h-1l-12 8c-5 4-8 12-10 18-3 7-2 14-1 22v1l1 73 1 17v3l-1 9 1 10a21 21 0 0 0 0 3v4a20 20 0 0 0 0 6v22a164 164 0 0 0 1 13 26 26 0 0 0 0 6l-1 2v8l1 21v19l-1 8a17 17 0 0 0 0 4l1 8v7a29 29 0 0 0 0 3 60 60 0 0 0 0 10v6c-1 3 2 6 5 6 3 3 7 5 11 6 5 2 10 2 14 2a5 5 0 0 0 4 0 17 17 0 0 0 6-3 181 181 0 0 0 5-2h6l15-1 7-1 2-1c3 0 6 4 8 4l3 1c2 2 5 2 8 3s17 0 20-2l2-1h3l1-1a7 7 0 0 0 3-1c4 0 5-4 4-7l-1-7c1-4 2-7 1-11v-7a27 27 0 0 0 1-7l-1-5a34 34 0 0 0 0-4v1-14l1-4v-71a23 23 0 0 0 0-7l1-29c0-10 1-19-1-29zm-39-121 4 1a180 180 0 0 0-4-1z"/>
    </g>
  </g>
  <g id="outlines" transform="translate(-26 -11)">
    <g id="g79" fill="none" stroke="#000" stroke-linecap="round" stroke-linejoin="round" stroke-miterlimit="10" stroke-width=".8">
      <path id="path9" d="M482 267c-2 21-2 43-2 65l-1 55v38c0 4 2 5 4 7 15 11 30 7 45 2 3-1 5-3 4-6v-3l1-92V147c1-13-10-28-22-31l-8 2c-6 2-14 0-18 7l-2 4c3 7 1 15 1 21-1 13 1 26-2 39-2 9 0 18 0 27v49c7 1 9-5 15-7 2 1 3 2 2 6-2 5 1 8 6 10 5 3 7-1 9-4 5-4 7-9 4-15s-9-8-15-11l-3 2c-2 11-10 8-17 8"/>
      <path id="path11" d="M422 117c-13 6-21 21-20 36l1 37 1 62v145l1 26 1 5c8 8 28 14 37 9 8-4 16-4 24-4 4 0 9 0 12-2"/>
      <path id="path13" d="M486 435c-8 10-13 20-12 33v28h-14v-26c0-12-4-24-13-33"/>
      <path id="path15" d="m455 416-6-1c-6-1-11-3-11-10-7 2-13 5-16 12-3 6 0 12 4 16 4 3 8 2 11 1s4-5 4-9c0-1-3-3 0-6 6 1 11 6 16 9v4"/>
      <path id="path17" d="M457 426c1-10-1-21-1-31 1-13 0-26-1-39 0-9-5-14-16-13 2 4 3 8-1 12-3 2-6 3-9 2-6-2-10-14-7-20s9-9 16-10c3 8 6 10 16 9v-28l-13-8c-3 3-2 6-2 8 0 4-1 7-4 8-3 0-6 2-10-1-4-4-7-11-5-17 2-5 11-11 16-11 2 0 4 1 2 4"/>
      <path id="path19" d="M482 336c5 0 9-1 13-3l3-3c2-5 2-6 7-3 14 7 15 16 7 25-2 3-5 4-9 3-4-2-6-4-6-9v-6c-7-2-10 6-15 7"/>
      <path id="path21" d="M467 102c0-14 1-28-1-41-1-4 0-7-5-7-3 11-3 22-3 33l1 11c0 4 1 8 7 5"/>
      <path id="path23" d="M451 216c-4-1-7 0-11-2-2-1-6-1-4-5 0-1-2-3-4-3-10 1-18 12-14 21 3 7 8 11 13 8 6-2 6-8 4-13 3-2 5-2 7 0 3 2 5 5 9 5"/>
      <path id="path25" d="M485 187c5-1 8-7 14-8 3 1 1 4 1 5-1 5 2 8 6 10s7 1 10-3c7-8 4-19-7-24l-6-2c-2 10-11 9-18 11"/>
      <path id="path27" d="m481 375 11-2c4-1 5-4 5-8 14 2 19 8 18 18 0 6-4 10-9 12-3 1-7-2-9-5-2-2-3-4-1-7v-4c-2-2-4 0-5 0-3 3-6 6-11 7"/>
      <path id="path29" d="M454 377c-5 1-9-3-14-3l-2-2c-4-6-4-6-10-2-10 6-11 15-4 23 3 4 7 3 11 2s5-4 4-8c0-3-1-5 2-7 5 2 8 6 13 7"/>
      <path id="path31" d="M482 308c6-1 8-9 15-9 2 1 2 3 1 5-2 5 1 9 4 10 4 1 8 1 12-2 8-8 5-20-7-25-2-1-5-2-7-1-2 7-8 10-18 9"/>
      <path id="path33" d="M480 425c3-2 7-3 9-6 2-1 3-2 5-1s1 2 1 4c-1 5 0 10 6 11 4 0 9 1 11-6 4-10 3-15-6-20l-8-3c-3 7-10 11-18 10"/>
      <path id="path35" d="M483 225c4-1 8-4 11-6 2-2 4-2 6 0-2 5-2 9 3 12 4 3 8 3 11 0 9-9 6-21-6-26-5-2-5-2-7 4 0 1-1 2-3 2l-15 3"/>
      <path id="path37" d="M485 134c4-1 9-1 13-3l3-3c1-9 5-3 9-2 12 4 13 17 5 24-2 2-5 5-9 2-4-2-7-4-6-9 0-2 3-5-1-6-6 0-8 7-14 7"/>
      <path id="path39" d="M441 89c-5-5-6-12-8-18-3-5-5-9-10-12 2 17 10 32 16 47"/>
      <path id="path41" d="m449 176-3-1c-7 0-13-2-14-10l-11 7c-8 6-7 18 2 22 3 2 7 2 9-1 2-2 6-4 3-8v-4c2-3 4-1 6 0 8 4 12 9 11 19-1 18 1 35 1 52 0 2 1 4-2 6-4-4-13 2-13-9l-3-1c-7 1-13 4-15 10-3 5-1 11 1 15 2 5 8 4 11 3 4-2 9-5 6-11-1-1 0-3 1-4 4 0 6 4 10 5s6 5 6 10l-1 22c-6-1-11-3-16-6 0 0 0 0 0 0v-1"/>
      <path id="path43" d="M447 136c-5 0-8-2-12-3-2-1-3 0-3-3 0-7-5-4-8-3-10 5-14 12-8 22 3 6 8 8 12 6 5-3 6-8 4-14 2-1 4-3 7 0 2 3 5 5 9 6"/>
      <path id="path45" d="M374 90c-2 3 0 4 0 4l42 22 2 2"/>
      <path id="path47" d="M523 88c0-6 7-9 7-17-8 5-15 10-21 17-5 6-10 13-17 18-6 4-11 0-15-1s-2-6-2-10c2-13 3-25 2-37l-2-5c-7 5-5 20-7 26"/>
      <path id="path49" d="M435 99c-4-7-20-29-27-32-4 2-2 5-1 6 9 8 13 21 22 29 7 7 7 7 16 2"/>
      <path id="path51" d="M502 114c2-3 6-5 9-6 11-7 21-16 31-25-1-3-2-3-3-3-7 4-14 6-20 11l-21 19"/>
      <path id="path53" d="M424 115c5 2 9 4 14 4 8 0 10 5 10 11 0 15 4 30 2 45-1 4 4 7 1 11"/>
      <path id="path55" d="M458 74c-2-6-2-15-7-20-6 8-3 41 4 51h1v-1l3-2"/>
      <path id="path57" d="M375 91c19 2 34 15 49 24"/>
      <path id="path59" d="M499 86c-1-7 4-11 6-16 1-3 4-6 0-10-10 9-14 21-20 34-3-14 8-24 1-36-6 4-3 11-7 15"/>
      <path id="path61" d="M441 57c-2-2-4-1-3 2v9c2 10 3 21 6 31 1 4 3 5 6 7l1-4"/>
      <path id="path63" d="m545 98-33 17"/>
      <path id="path65" d="M545 98c4-5 3-8 2-8l-15 6c-2 1-3 3-5 2"/>
      <path id="path67" d="M423 96c-2-1-27-24-30-20 3 5 6 10 11 13 2 1 4 2 3 5"/>
      <path id="path69" d="M434 108c-4 5-7 2-10-1-11-11-26-16-40-24-1-1-2 0-3 1 0 4 5 4 5 8"/>
      <path id="path71" d="M485 106c6-9 23-31 31-39h4c2 2-6 12-6 12l-3 7"/>
      <path id="path73" d="m484 92-4 13"/>
      <path id="path75" d="M493 107c1 5 8 5 9 10"/>
      <path id="path77" d="M441 57c4 2 2 10 6 12"/>
    </g>
  </g>
  <g id="labels" font-family="Helvetica" font-size="12" transform="translate(-26 -11)">
    <text id="text82" transform="translate(247 96)">Stigma Tissue</text>
    <text id="text84" transform="translate(250 269)">Pistil Tissue</text>
    <text id="text86" transform="translate(260 283)">primarily</text>
    <text id="text88" transform="translate(249 297)">consisting of</text>
    <text id="text90" transform="translate(262 312)">Ovaries</text>
  </g>
</svg>